<?xml version="1.0" encoding="UTF-8" standalone="no"?>
<!DOCTYPE svg PUBLIC "-//W3C//DTD SVG 1.1//EN"
 "http://www.w3.org/Graphics/SVG/1.1/DTD/svg11.dtd">
<!-- Generated by graphviz version 2.38.0 (20140413.2041)
 -->
<!-- Title: MIDIIncrementDecrementButtons&lt; send &gt; Pages: 1 -->
<svg width="353pt" height="1124pt"
 viewBox="0.00 0.00 353.13 1124.00" xmlns="http://www.w3.org/2000/svg" xmlns:xlink="http://www.w3.org/1999/xlink">
<g id="graph0" class="graph" transform="scale(1 1) rotate(0) translate(4 1120)">
<title>MIDIIncrementDecrementButtons&lt; send &gt;</title>
<polygon fill="white" stroke="none" points="-4,4 -4,-1120 349.134,-1120 349.134,4 -4,4"/>
<!-- Node3 -->
<g id="node1" class="node"><title>Node3</title>
<g id="a_node1"><a xlink:title="An abstract class for two buttons that send incremental MIDI events.">
<polygon fill="#bfbfbf" stroke="black" points="115.134,-0.5 115.134,-156.5 293.134,-156.5 293.134,-0.5 115.134,-0.5"/>
<text text-anchor="start" x="123.134" y="-144.5" font-family="Helvetica,sans-Serif" font-size="10.00">MIDIIncrementDecrementButtons</text>
<text text-anchor="middle" x="204.134" y="-133.5" font-family="Helvetica,sans-Serif" font-size="10.00">&lt; send &gt;</text>
<polyline fill="none" stroke="black" points="115.134,-126.5 293.134,-126.5 "/>
<text text-anchor="start" x="123.134" y="-114.5" font-family="Helvetica,sans-Serif" font-size="10.00">&#45; address</text>
<text text-anchor="start" x="123.134" y="-103.5" font-family="Helvetica,sans-Serif" font-size="10.00">&#45; channel</text>
<text text-anchor="start" x="123.134" y="-92.5" font-family="Helvetica,sans-Serif" font-size="10.00">&#45; speedMultiply</text>
<text text-anchor="start" x="123.134" y="-81.5" font-family="Helvetica,sans-Serif" font-size="10.00">&#45; resetAddress</text>
<text text-anchor="start" x="123.134" y="-70.5" font-family="Helvetica,sans-Serif" font-size="10.00">&#45; sendOn</text>
<text text-anchor="start" x="123.134" y="-59.5" font-family="Helvetica,sans-Serif" font-size="10.00">&#45; sendOff</text>
<polyline fill="none" stroke="black" points="115.134,-52.5 293.134,-52.5 "/>
<text text-anchor="start" x="123.134" y="-40.5" font-family="Helvetica,sans-Serif" font-size="10.00">+ begin()</text>
<text text-anchor="start" x="123.134" y="-29.5" font-family="Helvetica,sans-Serif" font-size="10.00">+ update()</text>
<text text-anchor="start" x="123.134" y="-18.5" font-family="Helvetica,sans-Serif" font-size="10.00">+ reset()</text>
<text text-anchor="start" x="123.134" y="-7.5" font-family="Helvetica,sans-Serif" font-size="10.00"># MIDIIncrementDecrementButtons()</text>
</a>
</g>
</g>
<!-- Node4 -->
<g id="node2" class="node"><title>Node4</title>
<g id="a_node2"><a xlink:href="../../d5/de0/classUpdatable.html" target="_top" xlink:title=" ">
<polygon fill="white" stroke="black" points="63.1344,-204.5 63.1344,-415.5 167.134,-415.5 167.134,-204.5 63.1344,-204.5"/>
<text text-anchor="middle" x="115.134" y="-403.5" font-family="Helvetica,sans-Serif" font-size="10.00">MIDIOutputElement</text>
<polyline fill="none" stroke="black" points="63.1344,-396.5 167.134,-396.5 "/>
<text text-anchor="middle" x="115.134" y="-384.5" font-family="Helvetica,sans-Serif" font-size="10.00"> </text>
<polyline fill="none" stroke="black" points="63.1344,-377.5 167.134,-377.5 "/>
<text text-anchor="start" x="71.1344" y="-365.5" font-family="Helvetica,sans-Serif" font-size="10.00">+ Updatable()</text>
<text text-anchor="start" x="71.1344" y="-354.5" font-family="Helvetica,sans-Serif" font-size="10.00">+ ~Updatable()</text>
<text text-anchor="start" x="71.1344" y="-343.5" font-family="Helvetica,sans-Serif" font-size="10.00">+ update()</text>
<text text-anchor="start" x="71.1344" y="-332.5" font-family="Helvetica,sans-Serif" font-size="10.00">+ begin()</text>
<text text-anchor="start" x="71.1344" y="-321.5" font-family="Helvetica,sans-Serif" font-size="10.00">+ enable()</text>
<text text-anchor="start" x="71.1344" y="-310.5" font-family="Helvetica,sans-Serif" font-size="10.00">+ disable()</text>
<text text-anchor="start" x="71.1344" y="-299.5" font-family="Helvetica,sans-Serif" font-size="10.00">+ isEnabled()</text>
<text text-anchor="start" x="71.1344" y="-288.5" font-family="Helvetica,sans-Serif" font-size="10.00">+ enable()</text>
<text text-anchor="start" x="71.1344" y="-277.5" font-family="Helvetica,sans-Serif" font-size="10.00">+ enable()</text>
<text text-anchor="start" x="71.1344" y="-266.5" font-family="Helvetica,sans-Serif" font-size="10.00">+ enable()</text>
<text text-anchor="start" x="71.1344" y="-255.5" font-family="Helvetica,sans-Serif" font-size="10.00">+ disable()</text>
<text text-anchor="start" x="71.1344" y="-244.5" font-family="Helvetica,sans-Serif" font-size="10.00">+ disable()</text>
<text text-anchor="start" x="71.1344" y="-233.5" font-family="Helvetica,sans-Serif" font-size="10.00">+ disable()</text>
<text text-anchor="start" x="71.1344" y="-222.5" font-family="Helvetica,sans-Serif" font-size="10.00">+ beginAll()</text>
<text text-anchor="start" x="71.1344" y="-211.5" font-family="Helvetica,sans-Serif" font-size="10.00">+ updateAll()</text>
</a>
</g>
</g>
<!-- Node4&#45;&gt;Node3 -->
<g id="edge1" class="edge"><title>Node4&#45;&gt;Node3</title>
<path fill="none" stroke="midnightblue" d="M159.389,-194.882C164.424,-181.9 169.462,-168.908 174.247,-156.569"/>
<polygon fill="none" stroke="midnightblue" points="156.08,-193.735 155.728,-204.324 162.607,-196.266 156.08,-193.735"/>
</g>
<!-- Node5 -->
<g id="node3" class="node"><title>Node5</title>
<g id="a_node3"><a xlink:href="../../d4/d23/classDoublyLinkable.html" target="_top" xlink:title=" ">
<polygon fill="white" stroke="black" points="26.6344,-1047.5 26.6344,-1115.5 163.634,-1115.5 163.634,-1047.5 26.6344,-1047.5"/>
<text text-anchor="start" x="34.6344" y="-1103.5" font-family="Helvetica,sans-Serif" font-size="10.00">DoublyLinkable&lt; Updatable</text>
<text text-anchor="middle" x="95.1344" y="-1092.5" font-family="Helvetica,sans-Serif" font-size="10.00">&lt; NormalUpdatable &gt; &gt;</text>
<polyline fill="none" stroke="black" points="26.6344,-1085.5 163.634,-1085.5 "/>
<text text-anchor="middle" x="95.1344" y="-1073.5" font-family="Helvetica,sans-Serif" font-size="10.00"> </text>
<polyline fill="none" stroke="black" points="26.6344,-1066.5 163.634,-1066.5 "/>
<text text-anchor="start" x="34.6344" y="-1054.5" font-family="Helvetica,sans-Serif" font-size="10.00"># ~DoublyLinkable()</text>
</a>
</g>
</g>
<!-- Node5&#45;&gt;Node4 -->
<g id="edge2" class="edge"><title>Node5&#45;&gt;Node4</title>
<path fill="none" stroke="midnightblue" d="M64.202,-1038.8C54.8899,-1023.86 45.8868,-1006.4 41.1344,-989 -19.1622,-768.196 -7.26963,-697.712 41.1344,-474 45.9321,-451.826 54.0109,-429.044 63.1093,-407.803"/>
<polygon fill="none" stroke="midnightblue" points="61.3193,-1040.79 69.6907,-1047.28 67.1961,-1036.98 61.3193,-1040.79"/>
</g>
<!-- Node6 -->
<g id="node4" class="node"><title>Node6</title>
<g id="a_node4"><a xlink:href="../../d5/de0/classUpdatable.html" target="_top" xlink:title=" ">
<polygon fill="white" stroke="black" points="50.6344,-777.5 50.6344,-988.5 205.634,-988.5 205.634,-777.5 50.6344,-777.5"/>
<text text-anchor="middle" x="128.134" y="-976.5" font-family="Helvetica,sans-Serif" font-size="10.00">Updatable&lt; NormalUpdatable &gt;</text>
<polyline fill="none" stroke="black" points="50.6344,-969.5 205.634,-969.5 "/>
<text text-anchor="middle" x="128.134" y="-957.5" font-family="Helvetica,sans-Serif" font-size="10.00"> </text>
<polyline fill="none" stroke="black" points="50.6344,-950.5 205.634,-950.5 "/>
<text text-anchor="start" x="58.6344" y="-938.5" font-family="Helvetica,sans-Serif" font-size="10.00">+ Updatable()</text>
<text text-anchor="start" x="58.6344" y="-927.5" font-family="Helvetica,sans-Serif" font-size="10.00">+ ~Updatable()</text>
<text text-anchor="start" x="58.6344" y="-916.5" font-family="Helvetica,sans-Serif" font-size="10.00">+ update()</text>
<text text-anchor="start" x="58.6344" y="-905.5" font-family="Helvetica,sans-Serif" font-size="10.00">+ begin()</text>
<text text-anchor="start" x="58.6344" y="-894.5" font-family="Helvetica,sans-Serif" font-size="10.00">+ enable()</text>
<text text-anchor="start" x="58.6344" y="-883.5" font-family="Helvetica,sans-Serif" font-size="10.00">+ disable()</text>
<text text-anchor="start" x="58.6344" y="-872.5" font-family="Helvetica,sans-Serif" font-size="10.00">+ isEnabled()</text>
<text text-anchor="start" x="58.6344" y="-861.5" font-family="Helvetica,sans-Serif" font-size="10.00">+ enable()</text>
<text text-anchor="start" x="58.6344" y="-850.5" font-family="Helvetica,sans-Serif" font-size="10.00">+ enable()</text>
<text text-anchor="start" x="58.6344" y="-839.5" font-family="Helvetica,sans-Serif" font-size="10.00">+ enable()</text>
<text text-anchor="start" x="58.6344" y="-828.5" font-family="Helvetica,sans-Serif" font-size="10.00">+ disable()</text>
<text text-anchor="start" x="58.6344" y="-817.5" font-family="Helvetica,sans-Serif" font-size="10.00">+ disable()</text>
<text text-anchor="start" x="58.6344" y="-806.5" font-family="Helvetica,sans-Serif" font-size="10.00">+ disable()</text>
<text text-anchor="start" x="58.6344" y="-795.5" font-family="Helvetica,sans-Serif" font-size="10.00">+ beginAll()</text>
<text text-anchor="start" x="58.6344" y="-784.5" font-family="Helvetica,sans-Serif" font-size="10.00">+ updateAll()</text>
</a>
</g>
</g>
<!-- Node5&#45;&gt;Node6 -->
<g id="edge4" class="edge"><title>Node5&#45;&gt;Node6</title>
<path fill="none" stroke="midnightblue" d="M102.428,-1037.07C104.858,-1022.6 107.68,-1005.79 110.547,-988.727"/>
<polygon fill="none" stroke="midnightblue" points="98.937,-1036.72 100.732,-1047.17 105.84,-1037.88 98.937,-1036.72"/>
</g>
<!-- Node6&#45;&gt;Node5 -->
<g id="edge3" class="edge"><title>Node6&#45;&gt;Node5</title>
<path fill="none" stroke="#404040" d="M113.017,-988.669C110.83,-1002.26 108.511,-1015.98 106.134,-1029 105.745,-1031.13 105.333,-1033.31 104.907,-1035.51"/>
<polygon fill="none" stroke="#404040" points="104.9,-1035.55 107.635,-1042.22 102.528,-1047.31 99.7926,-1040.64 104.9,-1035.55"/>
<text text-anchor="middle" x="131.634" y="-1021" font-family="Helvetica,sans-Serif" font-size="10.00"> #next</text>
<text text-anchor="middle" x="131.634" y="-1010" font-family="Helvetica,sans-Serif" font-size="10.00">#previous</text>
</g>
<!-- Node7 -->
<g id="node5" class="node"><title>Node7</title>
<g id="a_node5"><a xlink:href="../../dd/d16/classDoublyLinkedList.html" target="_top" xlink:title=" ">
<polygon fill="white" stroke="black" points="50.6344,-474.5 50.6344,-718.5 195.634,-718.5 195.634,-474.5 50.6344,-474.5"/>
<text text-anchor="start" x="58.6344" y="-706.5" font-family="Helvetica,sans-Serif" font-size="10.00">DoublyLinkedList&lt; Updatable</text>
<text text-anchor="middle" x="123.134" y="-695.5" font-family="Helvetica,sans-Serif" font-size="10.00">&lt; NormalUpdatable &gt; &gt;</text>
<polyline fill="none" stroke="black" points="50.6344,-688.5 195.634,-688.5 "/>
<text text-anchor="middle" x="123.134" y="-676.5" font-family="Helvetica,sans-Serif" font-size="10.00"> </text>
<polyline fill="none" stroke="black" points="50.6344,-669.5 195.634,-669.5 "/>
<text text-anchor="start" x="58.6344" y="-657.5" font-family="Helvetica,sans-Serif" font-size="10.00">+ DoublyLinkedList()</text>
<text text-anchor="start" x="58.6344" y="-646.5" font-family="Helvetica,sans-Serif" font-size="10.00">+ append()</text>
<text text-anchor="start" x="58.6344" y="-635.5" font-family="Helvetica,sans-Serif" font-size="10.00">+ append()</text>
<text text-anchor="start" x="58.6344" y="-624.5" font-family="Helvetica,sans-Serif" font-size="10.00">+ remove()</text>
<text text-anchor="start" x="58.6344" y="-613.5" font-family="Helvetica,sans-Serif" font-size="10.00">+ remove()</text>
<text text-anchor="start" x="58.6344" y="-602.5" font-family="Helvetica,sans-Serif" font-size="10.00">+ moveDown()</text>
<text text-anchor="start" x="58.6344" y="-591.5" font-family="Helvetica,sans-Serif" font-size="10.00">+ couldContain()</text>
<text text-anchor="start" x="58.6344" y="-580.5" font-family="Helvetica,sans-Serif" font-size="10.00">+ begin()</text>
<text text-anchor="start" x="58.6344" y="-569.5" font-family="Helvetica,sans-Serif" font-size="10.00">+ begin()</text>
<text text-anchor="start" x="58.6344" y="-558.5" font-family="Helvetica,sans-Serif" font-size="10.00">+ end()</text>
<text text-anchor="start" x="58.6344" y="-547.5" font-family="Helvetica,sans-Serif" font-size="10.00">+ end()</text>
<text text-anchor="start" x="58.6344" y="-536.5" font-family="Helvetica,sans-Serif" font-size="10.00">+ rbegin()</text>
<text text-anchor="start" x="58.6344" y="-525.5" font-family="Helvetica,sans-Serif" font-size="10.00">+ rbegin()</text>
<text text-anchor="start" x="58.6344" y="-514.5" font-family="Helvetica,sans-Serif" font-size="10.00">+ rend()</text>
<text text-anchor="start" x="58.6344" y="-503.5" font-family="Helvetica,sans-Serif" font-size="10.00">+ rend()</text>
<text text-anchor="start" x="58.6344" y="-492.5" font-family="Helvetica,sans-Serif" font-size="10.00">+ getFirst()</text>
<text text-anchor="start" x="58.6344" y="-481.5" font-family="Helvetica,sans-Serif" font-size="10.00">+ getLast()</text>
</a>
</g>
</g>
<!-- Node6&#45;&gt;Node7 -->
<g id="edge6" class="edge"><title>Node6&#45;&gt;Node7</title>
<path fill="none" stroke="#404040" d="M102.642,-777.258C101.658,-771.103 100.807,-764.985 100.134,-759 99.1002,-749.798 98.7054,-740.313 98.8035,-730.766"/>
<polygon fill="none" stroke="#404040" points="98.807,-730.651 94.9956,-724.53 99.1803,-718.657 102.992,-724.779 98.807,-730.651"/>
<text text-anchor="middle" x="111.134" y="-751" font-family="Helvetica,sans-Serif" font-size="10.00"> &#45;last</text>
<text text-anchor="middle" x="111.134" y="-740" font-family="Helvetica,sans-Serif" font-size="10.00">&#45;first</text>
</g>
<!-- Node7&#45;&gt;Node4 -->
<g id="edge7" class="edge"><title>Node7&#45;&gt;Node4</title>
<path fill="none" stroke="#404040" d="M119.73,-474.434C119.297,-459.04 118.855,-443.307 118.424,-427.978"/>
<polygon fill="none" stroke="#404040" points="118.418,-427.781 114.251,-421.896 118.081,-415.786 122.248,-421.671 118.418,-427.781"/>
<text text-anchor="middle" x="146.134" y="-442.5" font-family="Helvetica,sans-Serif" font-size="10.00"> &#45;updatables</text>
</g>
<!-- Node7&#45;&gt;Node6 -->
<g id="edge5" class="edge"><title>Node7&#45;&gt;Node6</title>
<path fill="none" stroke="#404040" d="M125.8,-718.854C125.917,-724.99 126.03,-731.066 126.134,-737 126.297,-746.204 126.454,-755.736 126.603,-765.315"/>
<polygon fill="none" stroke="#404040" points="126.605,-765.455 130.696,-771.393 126.788,-777.453 122.697,-771.515 126.605,-765.455"/>
<text text-anchor="middle" x="154.134" y="-745.5" font-family="Helvetica,sans-Serif" font-size="10.00"> &#45;updatables</text>
</g>
<!-- Node8 -->
<g id="node6" class="node"><title>Node8</title>
<g id="a_node6"><a xlink:href="../../d5/d20/classIncrementDecrementButtons.html" target="_top" xlink:title=" ">
<polygon fill="white" stroke="black" points="185.634,-265 185.634,-355 342.634,-355 342.634,-265 185.634,-265"/>
<text text-anchor="middle" x="264.134" y="-343" font-family="Helvetica,sans-Serif" font-size="10.00">IncrementDecrementButtons</text>
<polyline fill="none" stroke="black" points="185.634,-336 342.634,-336 "/>
<text text-anchor="start" x="193.634" y="-324" font-family="Helvetica,sans-Serif" font-size="10.00">&#45; longPressState</text>
<text text-anchor="start" x="193.634" y="-313" font-family="Helvetica,sans-Serif" font-size="10.00">&#45; longPressRepeat</text>
<polyline fill="none" stroke="black" points="185.634,-306 342.634,-306 "/>
<text text-anchor="start" x="193.634" y="-294" font-family="Helvetica,sans-Serif" font-size="10.00">+ IncrementDecrementButtons()</text>
<text text-anchor="start" x="193.634" y="-283" font-family="Helvetica,sans-Serif" font-size="10.00">+ begin()</text>
<text text-anchor="start" x="193.634" y="-272" font-family="Helvetica,sans-Serif" font-size="10.00">+ getState()</text>
</a>
</g>
</g>
<!-- Node8&#45;&gt;Node3 -->
<g id="edge8" class="edge"><title>Node8&#45;&gt;Node3</title>
<path fill="none" stroke="#404040" d="M252.566,-264.75C245.439,-237.488 236.045,-201.559 227.429,-168.604"/>
<polygon fill="none" stroke="#404040" points="227.331,-168.228 221.944,-163.435 224.296,-156.619 229.684,-161.412 227.331,-168.228"/>
<text text-anchor="middle" x="250.634" y="-178" font-family="Helvetica,sans-Serif" font-size="10.00"> &#45;buttons</text>
</g>
<!-- Node9 -->
<g id="node7" class="node"><title>Node9</title>
<g id="a_node7"><a xlink:href="../../d1/d19/classButton.html" target="_top" xlink:title="A class for reading and debouncing buttons and switches.">
<polygon fill="white" stroke="black" points="216.134,-507.5 216.134,-685.5 312.134,-685.5 312.134,-507.5 216.134,-507.5"/>
<text text-anchor="middle" x="264.134" y="-673.5" font-family="Helvetica,sans-Serif" font-size="10.00">Button</text>
<polyline fill="none" stroke="black" points="216.134,-666.5 312.134,-666.5 "/>
<text text-anchor="start" x="224.134" y="-654.5" font-family="Helvetica,sans-Serif" font-size="10.00">&#45; pin</text>
<text text-anchor="start" x="224.134" y="-643.5" font-family="Helvetica,sans-Serif" font-size="10.00">&#45; prevState</text>
<text text-anchor="start" x="224.134" y="-632.5" font-family="Helvetica,sans-Serif" font-size="10.00">&#45; debouncedState</text>
<text text-anchor="start" x="224.134" y="-621.5" font-family="Helvetica,sans-Serif" font-size="10.00">&#45; prevBounceTime</text>
<text text-anchor="start" x="224.134" y="-610.5" font-family="Helvetica,sans-Serif" font-size="10.00">&#45; invertState</text>
<text text-anchor="start" x="224.134" y="-599.5" font-family="Helvetica,sans-Serif" font-size="10.00">&#45; debounceTime</text>
<polyline fill="none" stroke="black" points="216.134,-592.5 312.134,-592.5 "/>
<text text-anchor="start" x="224.134" y="-580.5" font-family="Helvetica,sans-Serif" font-size="10.00">+ Button()</text>
<text text-anchor="start" x="224.134" y="-569.5" font-family="Helvetica,sans-Serif" font-size="10.00">+ Button()</text>
<text text-anchor="start" x="224.134" y="-558.5" font-family="Helvetica,sans-Serif" font-size="10.00">+ begin()</text>
<text text-anchor="start" x="224.134" y="-547.5" font-family="Helvetica,sans-Serif" font-size="10.00">+ getState()</text>
<text text-anchor="start" x="224.134" y="-536.5" font-family="Helvetica,sans-Serif" font-size="10.00">+ stableTime()</text>
<text text-anchor="start" x="224.134" y="-525.5" font-family="Helvetica,sans-Serif" font-size="10.00">+ invert()</text>
<text text-anchor="start" x="224.134" y="-514.5" font-family="Helvetica,sans-Serif" font-size="10.00">+ getName()</text>
</a>
</g>
</g>
<!-- Node9&#45;&gt;Node8 -->
<g id="edge9" class="edge"><title>Node9&#45;&gt;Node8</title>
<path fill="none" stroke="#404040" d="M264.134,-507.431C264.134,-461.83 264.134,-407.496 264.134,-367.544"/>
<polygon fill="none" stroke="#404040" points="264.134,-367.37 260.134,-361.37 264.134,-355.37 268.134,-361.369 264.134,-367.37"/>
<text text-anchor="middle" x="304.634" y="-448" font-family="Helvetica,sans-Serif" font-size="10.00"> &#45;decrementButton</text>
<text text-anchor="middle" x="304.634" y="-437" font-family="Helvetica,sans-Serif" font-size="10.00">&#45;incrementButton</text>
</g>
</g>
</svg>
