<?xml version="1.0" encoding="UTF-8" standalone="no"?>
<!DOCTYPE svg PUBLIC "-//W3C//DTD SVG 1.1//EN"
 "http://www.w3.org/Graphics/SVG/1.1/DTD/svg11.dtd">
<!-- Generated by graphviz version 2.38.0 (20140413.2041)
 -->
<!-- Title: MIDIIncrementDecrementButtons&lt; RelativeSender, ResetSender &gt; Pages: 1 -->
<svg width="703pt" height="1179pt"
 viewBox="0.00 0.00 703.49 1179.00" xmlns="http://www.w3.org/2000/svg" xmlns:xlink="http://www.w3.org/1999/xlink">
<g id="graph0" class="graph" transform="scale(1 1) rotate(0) translate(4 1175)">
<title>MIDIIncrementDecrementButtons&lt; RelativeSender, ResetSender &gt;</title>
<polygon fill="white" stroke="none" points="-4,4 -4,-1175 699.487,-1175 699.487,4 -4,4"/>
<!-- Node1 -->
<g id="node1" class="node"><title>Node1</title>
<g id="a_node1"><a xlink:title="An abstract class for two buttons that send incremental MIDI events.">
<polygon fill="#bfbfbf" stroke="black" points="342.487,-0.5 342.487,-112.5 520.487,-112.5 520.487,-0.5 342.487,-0.5"/>
<text text-anchor="start" x="350.487" y="-100.5" font-family="Helvetica,sans-Serif" font-size="10.00">MIDIIncrementDecrementButtons</text>
<text text-anchor="middle" x="431.487" y="-89.5" font-family="Helvetica,sans-Serif" font-size="10.00">&lt; RelativeSender, ResetSender &gt;</text>
<polyline fill="none" stroke="black" points="342.487,-82.5 520.487,-82.5 "/>
<text text-anchor="start" x="350.487" y="-70.5" font-family="Helvetica,sans-Serif" font-size="10.00">&#45; multiplier</text>
<polyline fill="none" stroke="black" points="342.487,-63.5 520.487,-63.5 "/>
<text text-anchor="start" x="350.487" y="-51.5" font-family="Helvetica,sans-Serif" font-size="10.00">+ begin()</text>
<text text-anchor="start" x="350.487" y="-40.5" font-family="Helvetica,sans-Serif" font-size="10.00">+ update()</text>
<text text-anchor="start" x="350.487" y="-29.5" font-family="Helvetica,sans-Serif" font-size="10.00">+ send()</text>
<text text-anchor="start" x="350.487" y="-18.5" font-family="Helvetica,sans-Serif" font-size="10.00">+ reset()</text>
<text text-anchor="start" x="350.487" y="-7.5" font-family="Helvetica,sans-Serif" font-size="10.00"># MIDIIncrementDecrementButtons()</text>
</a>
</g>
</g>
<!-- Node2 -->
<g id="node2" class="node"><title>Node2</title>
<g id="a_node2"><a xlink:href="../../d5/de0/classUpdatable.html" target="_top" xlink:title=" ">
<polygon fill="white" stroke="black" points="63.4866,-199 63.4866,-410 167.487,-410 167.487,-199 63.4866,-199"/>
<text text-anchor="middle" x="115.487" y="-398" font-family="Helvetica,sans-Serif" font-size="10.00">MIDIOutputElement</text>
<polyline fill="none" stroke="black" points="63.4866,-391 167.487,-391 "/>
<text text-anchor="middle" x="115.487" y="-379" font-family="Helvetica,sans-Serif" font-size="10.00"> </text>
<polyline fill="none" stroke="black" points="63.4866,-372 167.487,-372 "/>
<text text-anchor="start" x="71.4866" y="-360" font-family="Helvetica,sans-Serif" font-size="10.00">+ ~Updatable()</text>
<text text-anchor="start" x="71.4866" y="-349" font-family="Helvetica,sans-Serif" font-size="10.00">+ update()</text>
<text text-anchor="start" x="71.4866" y="-338" font-family="Helvetica,sans-Serif" font-size="10.00">+ begin()</text>
<text text-anchor="start" x="71.4866" y="-327" font-family="Helvetica,sans-Serif" font-size="10.00">+ enable()</text>
<text text-anchor="start" x="71.4866" y="-316" font-family="Helvetica,sans-Serif" font-size="10.00">+ disable()</text>
<text text-anchor="start" x="71.4866" y="-305" font-family="Helvetica,sans-Serif" font-size="10.00">+ isEnabled()</text>
<text text-anchor="start" x="71.4866" y="-294" font-family="Helvetica,sans-Serif" font-size="10.00">+ enable()</text>
<text text-anchor="start" x="71.4866" y="-283" font-family="Helvetica,sans-Serif" font-size="10.00">+ enable()</text>
<text text-anchor="start" x="71.4866" y="-272" font-family="Helvetica,sans-Serif" font-size="10.00">+ enable()</text>
<text text-anchor="start" x="71.4866" y="-261" font-family="Helvetica,sans-Serif" font-size="10.00">+ disable()</text>
<text text-anchor="start" x="71.4866" y="-250" font-family="Helvetica,sans-Serif" font-size="10.00">+ disable()</text>
<text text-anchor="start" x="71.4866" y="-239" font-family="Helvetica,sans-Serif" font-size="10.00">+ disable()</text>
<text text-anchor="start" x="71.4866" y="-228" font-family="Helvetica,sans-Serif" font-size="10.00">+ beginAll()</text>
<text text-anchor="start" x="71.4866" y="-217" font-family="Helvetica,sans-Serif" font-size="10.00">+ updateAll()</text>
<text text-anchor="start" x="71.4866" y="-206" font-family="Helvetica,sans-Serif" font-size="10.00"># Updatable()</text>
</a>
</g>
</g>
<!-- Node2&#45;&gt;Node1 -->
<g id="edge1" class="edge"><title>Node2&#45;&gt;Node1</title>
<path fill="none" stroke="midnightblue" d="M160.142,-190.444C165.092,-183.456 170.529,-176.883 176.487,-171 222.088,-125.973 288.628,-97.1772 342.302,-79.8595"/>
<polygon fill="none" stroke="midnightblue" points="157.192,-188.559 154.552,-198.82 163.014,-192.445 157.192,-188.559"/>
</g>
<!-- Node3 -->
<g id="node3" class="node"><title>Node3</title>
<g id="a_node3"><a xlink:href="../../d4/d23/classDoublyLinkable.html" target="_top" xlink:title=" ">
<polygon fill="white" stroke="black" points="26.9866,-1102.5 26.9866,-1170.5 163.987,-1170.5 163.987,-1102.5 26.9866,-1102.5"/>
<text text-anchor="start" x="34.9866" y="-1158.5" font-family="Helvetica,sans-Serif" font-size="10.00">DoublyLinkable&lt; Updatable</text>
<text text-anchor="middle" x="95.4866" y="-1147.5" font-family="Helvetica,sans-Serif" font-size="10.00">&lt; NormalUpdatable &gt; &gt;</text>
<polyline fill="none" stroke="black" points="26.9866,-1140.5 163.987,-1140.5 "/>
<text text-anchor="middle" x="95.4866" y="-1128.5" font-family="Helvetica,sans-Serif" font-size="10.00"> </text>
<polyline fill="none" stroke="black" points="26.9866,-1121.5 163.987,-1121.5 "/>
<text text-anchor="start" x="34.9866" y="-1109.5" font-family="Helvetica,sans-Serif" font-size="10.00"># ~DoublyLinkable()</text>
</a>
</g>
</g>
<!-- Node3&#45;&gt;Node2 -->
<g id="edge2" class="edge"><title>Node3&#45;&gt;Node2</title>
<path fill="none" stroke="midnightblue" d="M64.5542,-1093.8C55.2421,-1078.86 46.239,-1061.4 41.4866,-1044 -22.6737,-809.047 -3.37584,-735.388 41.4866,-496 46.8456,-467.404 56.3639,-437.582 66.8271,-410.253"/>
<polygon fill="none" stroke="midnightblue" points="61.6715,-1095.79 70.0429,-1102.28 67.5483,-1091.98 61.6715,-1095.79"/>
</g>
<!-- Node4 -->
<g id="node4" class="node"><title>Node4</title>
<g id="a_node4"><a xlink:href="../../d5/de0/classUpdatable.html" target="_top" xlink:title=" ">
<polygon fill="white" stroke="black" points="50.9866,-832.5 50.9866,-1043.5 205.987,-1043.5 205.987,-832.5 50.9866,-832.5"/>
<text text-anchor="middle" x="128.487" y="-1031.5" font-family="Helvetica,sans-Serif" font-size="10.00">Updatable&lt; NormalUpdatable &gt;</text>
<polyline fill="none" stroke="black" points="50.9866,-1024.5 205.987,-1024.5 "/>
<text text-anchor="middle" x="128.487" y="-1012.5" font-family="Helvetica,sans-Serif" font-size="10.00"> </text>
<polyline fill="none" stroke="black" points="50.9866,-1005.5 205.987,-1005.5 "/>
<text text-anchor="start" x="58.9866" y="-993.5" font-family="Helvetica,sans-Serif" font-size="10.00">+ ~Updatable()</text>
<text text-anchor="start" x="58.9866" y="-982.5" font-family="Helvetica,sans-Serif" font-size="10.00">+ update()</text>
<text text-anchor="start" x="58.9866" y="-971.5" font-family="Helvetica,sans-Serif" font-size="10.00">+ begin()</text>
<text text-anchor="start" x="58.9866" y="-960.5" font-family="Helvetica,sans-Serif" font-size="10.00">+ enable()</text>
<text text-anchor="start" x="58.9866" y="-949.5" font-family="Helvetica,sans-Serif" font-size="10.00">+ disable()</text>
<text text-anchor="start" x="58.9866" y="-938.5" font-family="Helvetica,sans-Serif" font-size="10.00">+ isEnabled()</text>
<text text-anchor="start" x="58.9866" y="-927.5" font-family="Helvetica,sans-Serif" font-size="10.00">+ enable()</text>
<text text-anchor="start" x="58.9866" y="-916.5" font-family="Helvetica,sans-Serif" font-size="10.00">+ enable()</text>
<text text-anchor="start" x="58.9866" y="-905.5" font-family="Helvetica,sans-Serif" font-size="10.00">+ enable()</text>
<text text-anchor="start" x="58.9866" y="-894.5" font-family="Helvetica,sans-Serif" font-size="10.00">+ disable()</text>
<text text-anchor="start" x="58.9866" y="-883.5" font-family="Helvetica,sans-Serif" font-size="10.00">+ disable()</text>
<text text-anchor="start" x="58.9866" y="-872.5" font-family="Helvetica,sans-Serif" font-size="10.00">+ disable()</text>
<text text-anchor="start" x="58.9866" y="-861.5" font-family="Helvetica,sans-Serif" font-size="10.00">+ beginAll()</text>
<text text-anchor="start" x="58.9866" y="-850.5" font-family="Helvetica,sans-Serif" font-size="10.00">+ updateAll()</text>
<text text-anchor="start" x="58.9866" y="-839.5" font-family="Helvetica,sans-Serif" font-size="10.00"># Updatable()</text>
</a>
</g>
</g>
<!-- Node3&#45;&gt;Node4 -->
<g id="edge4" class="edge"><title>Node3&#45;&gt;Node4</title>
<path fill="none" stroke="midnightblue" d="M102.78,-1092.07C105.21,-1077.6 108.033,-1060.79 110.899,-1043.73"/>
<polygon fill="none" stroke="midnightblue" points="99.2892,-1091.72 101.085,-1102.17 106.192,-1092.88 99.2892,-1091.72"/>
</g>
<!-- Node4&#45;&gt;Node3 -->
<g id="edge3" class="edge"><title>Node4&#45;&gt;Node3</title>
<path fill="none" stroke="#404040" d="M113.369,-1043.67C111.182,-1057.26 108.863,-1070.98 106.487,-1084 106.097,-1086.13 105.686,-1088.31 105.259,-1090.51"/>
<polygon fill="none" stroke="#404040" points="105.252,-1090.55 107.987,-1097.22 102.88,-1102.31 100.145,-1095.64 105.252,-1090.55"/>
<text text-anchor="middle" x="131.987" y="-1076" font-family="Helvetica,sans-Serif" font-size="10.00"> #next</text>
<text text-anchor="middle" x="131.987" y="-1065" font-family="Helvetica,sans-Serif" font-size="10.00">#previous</text>
</g>
<!-- Node5 -->
<g id="node5" class="node"><title>Node5</title>
<g id="a_node5"><a xlink:href="../../dd/d16/classDoublyLinkedList.html" target="_top" xlink:title=" ">
<polygon fill="white" stroke="black" points="50.9866,-496.5 50.9866,-773.5 195.987,-773.5 195.987,-496.5 50.9866,-496.5"/>
<text text-anchor="start" x="58.9866" y="-761.5" font-family="Helvetica,sans-Serif" font-size="10.00">DoublyLinkedList&lt; Updatable</text>
<text text-anchor="middle" x="123.487" y="-750.5" font-family="Helvetica,sans-Serif" font-size="10.00">&lt; NormalUpdatable &gt; &gt;</text>
<polyline fill="none" stroke="black" points="50.9866,-743.5 195.987,-743.5 "/>
<text text-anchor="middle" x="123.487" y="-731.5" font-family="Helvetica,sans-Serif" font-size="10.00"> </text>
<polyline fill="none" stroke="black" points="50.9866,-724.5 195.987,-724.5 "/>
<text text-anchor="start" x="58.9866" y="-712.5" font-family="Helvetica,sans-Serif" font-size="10.00">+ append()</text>
<text text-anchor="start" x="58.9866" y="-701.5" font-family="Helvetica,sans-Serif" font-size="10.00">+ append()</text>
<text text-anchor="start" x="58.9866" y="-690.5" font-family="Helvetica,sans-Serif" font-size="10.00">+ insertBefore()</text>
<text text-anchor="start" x="58.9866" y="-679.5" font-family="Helvetica,sans-Serif" font-size="10.00">+ insertBefore()</text>
<text text-anchor="start" x="58.9866" y="-668.5" font-family="Helvetica,sans-Serif" font-size="10.00">+ insertSorted()</text>
<text text-anchor="start" x="58.9866" y="-657.5" font-family="Helvetica,sans-Serif" font-size="10.00">+ insertSorted()</text>
<text text-anchor="start" x="58.9866" y="-646.5" font-family="Helvetica,sans-Serif" font-size="10.00">+ remove()</text>
<text text-anchor="start" x="58.9866" y="-635.5" font-family="Helvetica,sans-Serif" font-size="10.00">+ remove()</text>
<text text-anchor="start" x="58.9866" y="-624.5" font-family="Helvetica,sans-Serif" font-size="10.00">+ moveDown()</text>
<text text-anchor="start" x="58.9866" y="-613.5" font-family="Helvetica,sans-Serif" font-size="10.00">+ couldContain()</text>
<text text-anchor="start" x="58.9866" y="-602.5" font-family="Helvetica,sans-Serif" font-size="10.00">+ begin()</text>
<text text-anchor="start" x="58.9866" y="-591.5" font-family="Helvetica,sans-Serif" font-size="10.00">+ begin()</text>
<text text-anchor="start" x="58.9866" y="-580.5" font-family="Helvetica,sans-Serif" font-size="10.00">+ end()</text>
<text text-anchor="start" x="58.9866" y="-569.5" font-family="Helvetica,sans-Serif" font-size="10.00">+ end()</text>
<text text-anchor="start" x="58.9866" y="-558.5" font-family="Helvetica,sans-Serif" font-size="10.00">+ rbegin()</text>
<text text-anchor="start" x="58.9866" y="-547.5" font-family="Helvetica,sans-Serif" font-size="10.00">+ rbegin()</text>
<text text-anchor="start" x="58.9866" y="-536.5" font-family="Helvetica,sans-Serif" font-size="10.00">+ rend()</text>
<text text-anchor="start" x="58.9866" y="-525.5" font-family="Helvetica,sans-Serif" font-size="10.00">+ rend()</text>
<text text-anchor="start" x="58.9866" y="-514.5" font-family="Helvetica,sans-Serif" font-size="10.00">+ getFirst()</text>
<text text-anchor="start" x="58.9866" y="-503.5" font-family="Helvetica,sans-Serif" font-size="10.00">+ getLast()</text>
</a>
</g>
</g>
<!-- Node4&#45;&gt;Node5 -->
<g id="edge6" class="edge"><title>Node4&#45;&gt;Node5</title>
<path fill="none" stroke="#404040" d="M102.994,-832.258C102.01,-826.103 101.159,-819.985 100.487,-814 99.4589,-804.856 98.9744,-795.452 98.9214,-785.972"/>
<polygon fill="none" stroke="#404040" points="98.9218,-785.934 94.9996,-779.883 99.0767,-773.935 102.999,-779.986 98.9218,-785.934"/>
<text text-anchor="middle" x="111.487" y="-806" font-family="Helvetica,sans-Serif" font-size="10.00"> &#45;last</text>
<text text-anchor="middle" x="111.487" y="-795" font-family="Helvetica,sans-Serif" font-size="10.00">&#45;first</text>
</g>
<!-- Node5&#45;&gt;Node2 -->
<g id="edge7" class="edge"><title>Node5&#45;&gt;Node2</title>
<path fill="none" stroke="#404040" d="M120.129,-496.114C119.529,-471.481 118.909,-446.035 118.325,-422.072"/>
<polygon fill="none" stroke="#404040" points="118.325,-422.06 114.18,-416.159 118.033,-410.064 122.178,-415.965 118.325,-422.06"/>
<text text-anchor="middle" x="146.487" y="-464.5" font-family="Helvetica,sans-Serif" font-size="10.00"> &#45;updatables</text>
</g>
<!-- Node5&#45;&gt;Node4 -->
<g id="edge5" class="edge"><title>Node5&#45;&gt;Node4</title>
<path fill="none" stroke="#404040" d="M126.177,-773.806C126.285,-779.955 126.388,-786.041 126.487,-792 126.639,-801.204 126.788,-810.736 126.932,-820.316"/>
<polygon fill="none" stroke="#404040" points="126.934,-820.455 131.023,-826.395 127.112,-832.454 123.024,-826.514 126.934,-820.455"/>
<text text-anchor="middle" x="154.487" y="-800.5" font-family="Helvetica,sans-Serif" font-size="10.00"> &#45;updatables</text>
</g>
<!-- Node6 -->
<g id="node6" class="node"><title>Node6</title>
<g id="a_node6"><a xlink:href="../../d5/d20/classIncrementDecrementButtons.html" target="_top" xlink:title="A class for buttons that increment and decrement some counter or setting.">
<polygon fill="white" stroke="black" points="185.987,-259.5 185.987,-349.5 342.987,-349.5 342.987,-259.5 185.987,-259.5"/>
<text text-anchor="middle" x="264.487" y="-337.5" font-family="Helvetica,sans-Serif" font-size="10.00">IncrementDecrementButtons</text>
<polyline fill="none" stroke="black" points="185.987,-330.5 342.987,-330.5 "/>
<text text-anchor="start" x="193.987" y="-318.5" font-family="Helvetica,sans-Serif" font-size="10.00">&#45; longPressState</text>
<text text-anchor="start" x="193.987" y="-307.5" font-family="Helvetica,sans-Serif" font-size="10.00">&#45; longPressRepeat</text>
<polyline fill="none" stroke="black" points="185.987,-300.5 342.987,-300.5 "/>
<text text-anchor="start" x="193.987" y="-288.5" font-family="Helvetica,sans-Serif" font-size="10.00">+ IncrementDecrementButtons()</text>
<text text-anchor="start" x="193.987" y="-277.5" font-family="Helvetica,sans-Serif" font-size="10.00">+ begin()</text>
<text text-anchor="start" x="193.987" y="-266.5" font-family="Helvetica,sans-Serif" font-size="10.00">+ getState()</text>
</a>
</g>
</g>
<!-- Node6&#45;&gt;Node1 -->
<g id="edge8" class="edge"><title>Node6&#45;&gt;Node1</title>
<path fill="none" stroke="#404040" d="M293.381,-259.474C310.439,-233.613 332.534,-200.344 352.487,-171 363.118,-155.366 374.684,-138.61 385.603,-122.902"/>
<polygon fill="none" stroke="#404040" points="385.813,-122.601 385.959,-115.391 392.67,-112.753 392.524,-119.963 385.813,-122.601"/>
<text text-anchor="middle" x="397.987" y="-139.5" font-family="Helvetica,sans-Serif" font-size="10.00"> &#45;buttons</text>
</g>
<!-- Node7 -->
<g id="node7" class="node"><title>Node7</title>
<g id="a_node7"><a xlink:href="../../d1/d19/classButton.html" target="_top" xlink:title="A class for reading and debouncing buttons and switches.">
<polygon fill="white" stroke="black" points="216.487,-546 216.487,-724 312.487,-724 312.487,-546 216.487,-546"/>
<text text-anchor="middle" x="264.487" y="-712" font-family="Helvetica,sans-Serif" font-size="10.00">Button</text>
<polyline fill="none" stroke="black" points="216.487,-705 312.487,-705 "/>
<text text-anchor="start" x="224.487" y="-693" font-family="Helvetica,sans-Serif" font-size="10.00">&#45; pin</text>
<text text-anchor="start" x="224.487" y="-682" font-family="Helvetica,sans-Serif" font-size="10.00">&#45; prevState</text>
<text text-anchor="start" x="224.487" y="-671" font-family="Helvetica,sans-Serif" font-size="10.00">&#45; debouncedState</text>
<text text-anchor="start" x="224.487" y="-660" font-family="Helvetica,sans-Serif" font-size="10.00">&#45; prevBounceTime</text>
<text text-anchor="start" x="224.487" y="-649" font-family="Helvetica,sans-Serif" font-size="10.00">&#45; invertState</text>
<text text-anchor="start" x="224.487" y="-638" font-family="Helvetica,sans-Serif" font-size="10.00">&#45; debounceTime</text>
<polyline fill="none" stroke="black" points="216.487,-631 312.487,-631 "/>
<text text-anchor="start" x="224.487" y="-619" font-family="Helvetica,sans-Serif" font-size="10.00">+ Button()</text>
<text text-anchor="start" x="224.487" y="-608" font-family="Helvetica,sans-Serif" font-size="10.00">+ Button()</text>
<text text-anchor="start" x="224.487" y="-597" font-family="Helvetica,sans-Serif" font-size="10.00">+ begin()</text>
<text text-anchor="start" x="224.487" y="-586" font-family="Helvetica,sans-Serif" font-size="10.00">+ invert()</text>
<text text-anchor="start" x="224.487" y="-575" font-family="Helvetica,sans-Serif" font-size="10.00">+ getState()</text>
<text text-anchor="start" x="224.487" y="-564" font-family="Helvetica,sans-Serif" font-size="10.00">+ stableTime()</text>
<text text-anchor="start" x="224.487" y="-553" font-family="Helvetica,sans-Serif" font-size="10.00">+ getName()</text>
</a>
</g>
</g>
<!-- Node7&#45;&gt;Node6 -->
<g id="edge9" class="edge"><title>Node7&#45;&gt;Node6</title>
<path fill="none" stroke="#404040" d="M264.487,-545.968C264.487,-487.626 264.487,-412.798 264.487,-362.227"/>
<polygon fill="none" stroke="#404040" points="264.487,-361.918 260.487,-355.918 264.487,-349.918 268.487,-355.918 264.487,-361.918"/>
<text text-anchor="middle" x="304.987" y="-470" font-family="Helvetica,sans-Serif" font-size="10.00"> &#45;decrementButton</text>
<text text-anchor="middle" x="304.987" y="-459" font-family="Helvetica,sans-Serif" font-size="10.00">&#45;incrementButton</text>
</g>
<!-- Node8 -->
<g id="node8" class="node"><title>Node8</title>
<g id="a_node8"><a xlink:href="../../d3/d10/classMIDICNChannelAddress.html" target="_top" xlink:title="A type&#45;safe utility class for saving a MIDI address consisting of a 7&#45;bit address,...">
<polygon fill="white" stroke="black" points="361.487,-171.5 361.487,-437.5 501.487,-437.5 501.487,-171.5 361.487,-171.5"/>
<text text-anchor="middle" x="431.487" y="-425.5" font-family="Helvetica,sans-Serif" font-size="10.00">MIDICNChannelAddress</text>
<polyline fill="none" stroke="black" points="361.487,-418.5 501.487,-418.5 "/>
<text text-anchor="start" x="369.487" y="-406.5" font-family="Helvetica,sans-Serif" font-size="10.00">&#45; addresses</text>
<polyline fill="none" stroke="black" points="361.487,-399.5 501.487,-399.5 "/>
<text text-anchor="start" x="369.487" y="-387.5" font-family="Helvetica,sans-Serif" font-size="10.00">+ MIDICNChannelAddress()</text>
<text text-anchor="start" x="369.487" y="-376.5" font-family="Helvetica,sans-Serif" font-size="10.00">+ MIDICNChannelAddress()</text>
<text text-anchor="start" x="369.487" y="-365.5" font-family="Helvetica,sans-Serif" font-size="10.00">+ MIDICNChannelAddress()</text>
<text text-anchor="start" x="369.487" y="-354.5" font-family="Helvetica,sans-Serif" font-size="10.00">+ MIDICNChannelAddress()</text>
<text text-anchor="start" x="369.487" y="-343.5" font-family="Helvetica,sans-Serif" font-size="10.00">+ MIDICNChannelAddress()</text>
<text text-anchor="start" x="369.487" y="-332.5" font-family="Helvetica,sans-Serif" font-size="10.00">+ operator+=()</text>
<text text-anchor="start" x="369.487" y="-321.5" font-family="Helvetica,sans-Serif" font-size="10.00">+ operator&#45;=()</text>
<text text-anchor="start" x="369.487" y="-310.5" font-family="Helvetica,sans-Serif" font-size="10.00">+ operator+()</text>
<text text-anchor="start" x="369.487" y="-299.5" font-family="Helvetica,sans-Serif" font-size="10.00">+ operator&#45;()</text>
<text text-anchor="start" x="369.487" y="-288.5" font-family="Helvetica,sans-Serif" font-size="10.00">+ operator==()</text>
<text text-anchor="start" x="369.487" y="-277.5" font-family="Helvetica,sans-Serif" font-size="10.00">+ operator!=()</text>
<text text-anchor="start" x="369.487" y="-266.5" font-family="Helvetica,sans-Serif" font-size="10.00">+ getAddress()</text>
<text text-anchor="start" x="369.487" y="-255.5" font-family="Helvetica,sans-Serif" font-size="10.00">+ getChannel()</text>
<text text-anchor="start" x="369.487" y="-244.5" font-family="Helvetica,sans-Serif" font-size="10.00">+ getRawChannel()</text>
<text text-anchor="start" x="369.487" y="-233.5" font-family="Helvetica,sans-Serif" font-size="10.00">+ getCableNumber()</text>
<text text-anchor="start" x="369.487" y="-222.5" font-family="Helvetica,sans-Serif" font-size="10.00">+ isValid()</text>
<text text-anchor="start" x="369.487" y="-211.5" font-family="Helvetica,sans-Serif" font-size="10.00">+ operator bool()</text>
<text text-anchor="start" x="369.487" y="-200.5" font-family="Helvetica,sans-Serif" font-size="10.00">+ matchSingle()</text>
<text text-anchor="start" x="369.487" y="-189.5" font-family="Helvetica,sans-Serif" font-size="10.00">+ matchAddressInRange()</text>
<text text-anchor="start" x="369.487" y="-178.5" font-family="Helvetica,sans-Serif" font-size="10.00">+ invalid()</text>
</a>
</g>
</g>
<!-- Node8&#45;&gt;Node1 -->
<g id="edge10" class="edge"><title>Node8&#45;&gt;Node1</title>
<path fill="none" stroke="#404040" d="M431.487,-171.498C431.487,-155.454 431.487,-139.615 431.487,-125.081"/>
<polygon fill="none" stroke="#404040" points="431.487,-124.672 427.487,-118.673 431.487,-112.672 435.487,-118.672 431.487,-124.672"/>
<text text-anchor="middle" x="463.487" y="-145" font-family="Helvetica,sans-Serif" font-size="10.00"> &#45;resetAddress</text>
<text text-anchor="middle" x="463.487" y="-134" font-family="Helvetica,sans-Serif" font-size="10.00">&#45;address</text>
</g>
<!-- Node9 -->
<g id="node9" class="node"><title>Node9</title>
<g id="a_node9"><a xlink:title=" ">
<polygon fill="white" stroke="#bfbfbf" points="519.987,-276 519.987,-333 602.987,-333 602.987,-276 519.987,-276"/>
<text text-anchor="middle" x="561.487" y="-321" font-family="Helvetica,sans-Serif" font-size="10.00">RelativeSender</text>
<polyline fill="none" stroke="#bfbfbf" points="519.987,-314 602.987,-314 "/>
<text text-anchor="middle" x="561.487" y="-302" font-family="Helvetica,sans-Serif" font-size="10.00"> </text>
<polyline fill="none" stroke="#bfbfbf" points="519.987,-295 602.987,-295 "/>
<text text-anchor="middle" x="561.487" y="-283" font-family="Helvetica,sans-Serif" font-size="10.00"> </text>
</a>
</g>
</g>
<!-- Node9&#45;&gt;Node1 -->
<g id="edge11" class="edge"><title>Node9&#45;&gt;Node1</title>
<path fill="none" stroke="#404040" d="M555.173,-275.699C546.332,-240.29 528.065,-178.056 499.487,-131 497.71,-128.075 495.804,-125.165 493.8,-122.285"/>
<polygon fill="none" stroke="#404040" points="493.793,-122.275 487.007,-119.834 486.651,-112.632 493.436,-115.073 493.793,-122.275"/>
<text text-anchor="middle" x="548.487" y="-139.5" font-family="Helvetica,sans-Serif" font-size="10.00"> +relativeSender</text>
</g>
<!-- Node10 -->
<g id="node10" class="node"><title>Node10</title>
<g id="a_node10"><a xlink:title=" ">
<polygon fill="white" stroke="#bfbfbf" points="621.487,-276 621.487,-333 695.487,-333 695.487,-276 621.487,-276"/>
<text text-anchor="middle" x="658.487" y="-321" font-family="Helvetica,sans-Serif" font-size="10.00">ResetSender</text>
<polyline fill="none" stroke="#bfbfbf" points="621.487,-314 695.487,-314 "/>
<text text-anchor="middle" x="658.487" y="-302" font-family="Helvetica,sans-Serif" font-size="10.00"> </text>
<polyline fill="none" stroke="#bfbfbf" points="621.487,-295 695.487,-295 "/>
<text text-anchor="middle" x="658.487" y="-283" font-family="Helvetica,sans-Serif" font-size="10.00"> </text>
</a>
</g>
</g>
<!-- Node10&#45;&gt;Node1 -->
<g id="edge12" class="edge"><title>Node10&#45;&gt;Node1</title>
<path fill="none" stroke="#404040" d="M654.69,-275.74C648.039,-237.74 630.719,-169.826 588.487,-131 572.054,-115.892 551.964,-103.369 531.716,-93.2011"/>
<polygon fill="none" stroke="#404040" points="531.615,-93.1527 524.474,-94.153 520.804,-87.9457 527.945,-86.9453 531.615,-93.1527"/>
<text text-anchor="middle" x="636.487" y="-139.5" font-family="Helvetica,sans-Serif" font-size="10.00"> +resetSender</text>
</g>
</g>
</svg>
