<?xml version="1.0" encoding="UTF-8" standalone="no"?>
<!DOCTYPE svg PUBLIC "-//W3C//DTD SVG 1.1//EN"
 "http://www.w3.org/Graphics/SVG/1.1/DTD/svg11.dtd">
<!-- Generated by graphviz version 2.38.0 (20140413.2041)
 -->
<!-- Title: MIDIIncrementDecrementButtons&lt; send &gt; Pages: 1 -->
<svg width="512pt" height="1168pt"
 viewBox="0.00 0.00 511.64 1168.00" xmlns="http://www.w3.org/2000/svg" xmlns:xlink="http://www.w3.org/1999/xlink">
<g id="graph0" class="graph" transform="scale(1 1) rotate(0) translate(4 1164)">
<title>MIDIIncrementDecrementButtons&lt; send &gt;</title>
<polygon fill="white" stroke="none" points="-4,4 -4,-1164 507.644,-1164 507.644,4 -4,4"/>
<!-- Node3 -->
<g id="node1" class="node"><title>Node3</title>
<g id="a_node1"><a xlink:title="An abstract class for two buttons that send incremental MIDI events.">
<polygon fill="#bfbfbf" stroke="black" points="177.644,-0.5 177.644,-123.5 355.644,-123.5 355.644,-0.5 177.644,-0.5"/>
<text text-anchor="start" x="185.644" y="-111.5" font-family="Helvetica,sans-Serif" font-size="10.00">MIDIIncrementDecrementButtons</text>
<text text-anchor="middle" x="266.644" y="-100.5" font-family="Helvetica,sans-Serif" font-size="10.00">&lt; send &gt;</text>
<polyline fill="none" stroke="black" points="177.644,-93.5 355.644,-93.5 "/>
<text text-anchor="start" x="185.644" y="-81.5" font-family="Helvetica,sans-Serif" font-size="10.00">&#45; speedMultiply</text>
<text text-anchor="start" x="185.644" y="-70.5" font-family="Helvetica,sans-Serif" font-size="10.00">&#45; sendOn</text>
<text text-anchor="start" x="185.644" y="-59.5" font-family="Helvetica,sans-Serif" font-size="10.00">&#45; sendOff</text>
<polyline fill="none" stroke="black" points="177.644,-52.5 355.644,-52.5 "/>
<text text-anchor="start" x="185.644" y="-40.5" font-family="Helvetica,sans-Serif" font-size="10.00">+ begin()</text>
<text text-anchor="start" x="185.644" y="-29.5" font-family="Helvetica,sans-Serif" font-size="10.00">+ update()</text>
<text text-anchor="start" x="185.644" y="-18.5" font-family="Helvetica,sans-Serif" font-size="10.00">+ reset()</text>
<text text-anchor="start" x="185.644" y="-7.5" font-family="Helvetica,sans-Serif" font-size="10.00"># MIDIIncrementDecrementButtons()</text>
</a>
</g>
</g>
<!-- Node4 -->
<g id="node2" class="node"><title>Node4</title>
<g id="a_node2"><a xlink:href="../../d5/de0/classUpdatable.html" target="_top" xlink:title=" ">
<polygon fill="white" stroke="black" points="65.6437,-193.5 65.6437,-404.5 169.644,-404.5 169.644,-193.5 65.6437,-193.5"/>
<text text-anchor="middle" x="117.644" y="-392.5" font-family="Helvetica,sans-Serif" font-size="10.00">MIDIOutputElement</text>
<polyline fill="none" stroke="black" points="65.6437,-385.5 169.644,-385.5 "/>
<text text-anchor="middle" x="117.644" y="-373.5" font-family="Helvetica,sans-Serif" font-size="10.00"> </text>
<polyline fill="none" stroke="black" points="65.6437,-366.5 169.644,-366.5 "/>
<text text-anchor="start" x="73.6437" y="-354.5" font-family="Helvetica,sans-Serif" font-size="10.00">+ Updatable()</text>
<text text-anchor="start" x="73.6437" y="-343.5" font-family="Helvetica,sans-Serif" font-size="10.00">+ ~Updatable()</text>
<text text-anchor="start" x="73.6437" y="-332.5" font-family="Helvetica,sans-Serif" font-size="10.00">+ update()</text>
<text text-anchor="start" x="73.6437" y="-321.5" font-family="Helvetica,sans-Serif" font-size="10.00">+ begin()</text>
<text text-anchor="start" x="73.6437" y="-310.5" font-family="Helvetica,sans-Serif" font-size="10.00">+ enable()</text>
<text text-anchor="start" x="73.6437" y="-299.5" font-family="Helvetica,sans-Serif" font-size="10.00">+ disable()</text>
<text text-anchor="start" x="73.6437" y="-288.5" font-family="Helvetica,sans-Serif" font-size="10.00">+ isEnabled()</text>
<text text-anchor="start" x="73.6437" y="-277.5" font-family="Helvetica,sans-Serif" font-size="10.00">+ enable()</text>
<text text-anchor="start" x="73.6437" y="-266.5" font-family="Helvetica,sans-Serif" font-size="10.00">+ enable()</text>
<text text-anchor="start" x="73.6437" y="-255.5" font-family="Helvetica,sans-Serif" font-size="10.00">+ enable()</text>
<text text-anchor="start" x="73.6437" y="-244.5" font-family="Helvetica,sans-Serif" font-size="10.00">+ disable()</text>
<text text-anchor="start" x="73.6437" y="-233.5" font-family="Helvetica,sans-Serif" font-size="10.00">+ disable()</text>
<text text-anchor="start" x="73.6437" y="-222.5" font-family="Helvetica,sans-Serif" font-size="10.00">+ disable()</text>
<text text-anchor="start" x="73.6437" y="-211.5" font-family="Helvetica,sans-Serif" font-size="10.00">+ beginAll()</text>
<text text-anchor="start" x="73.6437" y="-200.5" font-family="Helvetica,sans-Serif" font-size="10.00">+ updateAll()</text>
</a>
</g>
</g>
<!-- Node4&#45;&gt;Node3 -->
<g id="edge1" class="edge"><title>Node4&#45;&gt;Node3</title>
<path fill="none" stroke="midnightblue" d="M175.038,-187.828C176.237,-185.863 177.44,-183.918 178.644,-182 190.936,-162.412 205.462,-141.889 219.131,-123.509"/>
<polygon fill="none" stroke="midnightblue" points="171.94,-186.19 169.805,-196.568 177.945,-189.787 171.94,-186.19"/>
</g>
<!-- Node5 -->
<g id="node3" class="node"><title>Node5</title>
<g id="a_node3"><a xlink:href="../../d4/d23/classDoublyLinkable.html" target="_top" xlink:title=" ">
<polygon fill="white" stroke="black" points="29.1437,-1091.5 29.1437,-1159.5 166.144,-1159.5 166.144,-1091.5 29.1437,-1091.5"/>
<text text-anchor="start" x="37.1437" y="-1147.5" font-family="Helvetica,sans-Serif" font-size="10.00">DoublyLinkable&lt; Updatable</text>
<text text-anchor="middle" x="97.6437" y="-1136.5" font-family="Helvetica,sans-Serif" font-size="10.00">&lt; NormalUpdatable &gt; &gt;</text>
<polyline fill="none" stroke="black" points="29.1437,-1129.5 166.144,-1129.5 "/>
<text text-anchor="middle" x="97.6437" y="-1117.5" font-family="Helvetica,sans-Serif" font-size="10.00"> </text>
<polyline fill="none" stroke="black" points="29.1437,-1110.5 166.144,-1110.5 "/>
<text text-anchor="start" x="37.1437" y="-1098.5" font-family="Helvetica,sans-Serif" font-size="10.00"># ~DoublyLinkable()</text>
</a>
</g>
</g>
<!-- Node5&#45;&gt;Node4 -->
<g id="edge2" class="edge"><title>Node5&#45;&gt;Node4</title>
<path fill="none" stroke="midnightblue" d="M66.7113,-1082.8C57.3992,-1067.86 48.3961,-1050.4 43.6437,-1033 -21.8045,-793.331 -5.97195,-717.44 43.6437,-474 48.4293,-450.519 56.5029,-426.281 65.6001,-403.627"/>
<polygon fill="none" stroke="midnightblue" points="63.8286,-1084.79 72.2,-1091.28 69.7054,-1080.98 63.8286,-1084.79"/>
</g>
<!-- Node6 -->
<g id="node4" class="node"><title>Node6</title>
<g id="a_node4"><a xlink:href="../../d5/de0/classUpdatable.html" target="_top" xlink:title=" ">
<polygon fill="white" stroke="black" points="53.1437,-821.5 53.1437,-1032.5 208.144,-1032.5 208.144,-821.5 53.1437,-821.5"/>
<text text-anchor="middle" x="130.644" y="-1020.5" font-family="Helvetica,sans-Serif" font-size="10.00">Updatable&lt; NormalUpdatable &gt;</text>
<polyline fill="none" stroke="black" points="53.1437,-1013.5 208.144,-1013.5 "/>
<text text-anchor="middle" x="130.644" y="-1001.5" font-family="Helvetica,sans-Serif" font-size="10.00"> </text>
<polyline fill="none" stroke="black" points="53.1437,-994.5 208.144,-994.5 "/>
<text text-anchor="start" x="61.1437" y="-982.5" font-family="Helvetica,sans-Serif" font-size="10.00">+ Updatable()</text>
<text text-anchor="start" x="61.1437" y="-971.5" font-family="Helvetica,sans-Serif" font-size="10.00">+ ~Updatable()</text>
<text text-anchor="start" x="61.1437" y="-960.5" font-family="Helvetica,sans-Serif" font-size="10.00">+ update()</text>
<text text-anchor="start" x="61.1437" y="-949.5" font-family="Helvetica,sans-Serif" font-size="10.00">+ begin()</text>
<text text-anchor="start" x="61.1437" y="-938.5" font-family="Helvetica,sans-Serif" font-size="10.00">+ enable()</text>
<text text-anchor="start" x="61.1437" y="-927.5" font-family="Helvetica,sans-Serif" font-size="10.00">+ disable()</text>
<text text-anchor="start" x="61.1437" y="-916.5" font-family="Helvetica,sans-Serif" font-size="10.00">+ isEnabled()</text>
<text text-anchor="start" x="61.1437" y="-905.5" font-family="Helvetica,sans-Serif" font-size="10.00">+ enable()</text>
<text text-anchor="start" x="61.1437" y="-894.5" font-family="Helvetica,sans-Serif" font-size="10.00">+ enable()</text>
<text text-anchor="start" x="61.1437" y="-883.5" font-family="Helvetica,sans-Serif" font-size="10.00">+ enable()</text>
<text text-anchor="start" x="61.1437" y="-872.5" font-family="Helvetica,sans-Serif" font-size="10.00">+ disable()</text>
<text text-anchor="start" x="61.1437" y="-861.5" font-family="Helvetica,sans-Serif" font-size="10.00">+ disable()</text>
<text text-anchor="start" x="61.1437" y="-850.5" font-family="Helvetica,sans-Serif" font-size="10.00">+ disable()</text>
<text text-anchor="start" x="61.1437" y="-839.5" font-family="Helvetica,sans-Serif" font-size="10.00">+ beginAll()</text>
<text text-anchor="start" x="61.1437" y="-828.5" font-family="Helvetica,sans-Serif" font-size="10.00">+ updateAll()</text>
</a>
</g>
</g>
<!-- Node5&#45;&gt;Node6 -->
<g id="edge4" class="edge"><title>Node5&#45;&gt;Node6</title>
<path fill="none" stroke="midnightblue" d="M104.937,-1081.07C107.367,-1066.6 110.19,-1049.79 113.056,-1032.73"/>
<polygon fill="none" stroke="midnightblue" points="101.446,-1080.72 103.242,-1091.17 108.35,-1081.88 101.446,-1080.72"/>
</g>
<!-- Node6&#45;&gt;Node5 -->
<g id="edge3" class="edge"><title>Node6&#45;&gt;Node5</title>
<path fill="none" stroke="#404040" d="M115.526,-1032.67C113.34,-1046.26 111.021,-1059.98 108.644,-1073 108.254,-1075.13 107.843,-1077.31 107.416,-1079.51"/>
<polygon fill="none" stroke="#404040" points="107.409,-1079.55 110.144,-1086.22 105.037,-1091.31 102.302,-1084.64 107.409,-1079.55"/>
<text text-anchor="middle" x="134.144" y="-1065" font-family="Helvetica,sans-Serif" font-size="10.00"> #next</text>
<text text-anchor="middle" x="134.144" y="-1054" font-family="Helvetica,sans-Serif" font-size="10.00">#previous</text>
</g>
<!-- Node7 -->
<g id="node5" class="node"><title>Node7</title>
<g id="a_node5"><a xlink:href="../../dd/d16/classDoublyLinkedList.html" target="_top" xlink:title=" ">
<polygon fill="white" stroke="black" points="53.1437,-474.5 53.1437,-762.5 198.144,-762.5 198.144,-474.5 53.1437,-474.5"/>
<text text-anchor="start" x="61.1437" y="-750.5" font-family="Helvetica,sans-Serif" font-size="10.00">DoublyLinkedList&lt; Updatable</text>
<text text-anchor="middle" x="125.644" y="-739.5" font-family="Helvetica,sans-Serif" font-size="10.00">&lt; NormalUpdatable &gt; &gt;</text>
<polyline fill="none" stroke="black" points="53.1437,-732.5 198.144,-732.5 "/>
<text text-anchor="middle" x="125.644" y="-720.5" font-family="Helvetica,sans-Serif" font-size="10.00"> </text>
<polyline fill="none" stroke="black" points="53.1437,-713.5 198.144,-713.5 "/>
<text text-anchor="start" x="61.1437" y="-701.5" font-family="Helvetica,sans-Serif" font-size="10.00">+ DoublyLinkedList()</text>
<text text-anchor="start" x="61.1437" y="-690.5" font-family="Helvetica,sans-Serif" font-size="10.00">+ append()</text>
<text text-anchor="start" x="61.1437" y="-679.5" font-family="Helvetica,sans-Serif" font-size="10.00">+ append()</text>
<text text-anchor="start" x="61.1437" y="-668.5" font-family="Helvetica,sans-Serif" font-size="10.00">+ insertBefore()</text>
<text text-anchor="start" x="61.1437" y="-657.5" font-family="Helvetica,sans-Serif" font-size="10.00">+ insertBefore()</text>
<text text-anchor="start" x="61.1437" y="-646.5" font-family="Helvetica,sans-Serif" font-size="10.00">+ insertSorted()</text>
<text text-anchor="start" x="61.1437" y="-635.5" font-family="Helvetica,sans-Serif" font-size="10.00">+ insertSorted()</text>
<text text-anchor="start" x="61.1437" y="-624.5" font-family="Helvetica,sans-Serif" font-size="10.00">+ remove()</text>
<text text-anchor="start" x="61.1437" y="-613.5" font-family="Helvetica,sans-Serif" font-size="10.00">+ remove()</text>
<text text-anchor="start" x="61.1437" y="-602.5" font-family="Helvetica,sans-Serif" font-size="10.00">+ moveDown()</text>
<text text-anchor="start" x="61.1437" y="-591.5" font-family="Helvetica,sans-Serif" font-size="10.00">+ couldContain()</text>
<text text-anchor="start" x="61.1437" y="-580.5" font-family="Helvetica,sans-Serif" font-size="10.00">+ begin()</text>
<text text-anchor="start" x="61.1437" y="-569.5" font-family="Helvetica,sans-Serif" font-size="10.00">+ begin()</text>
<text text-anchor="start" x="61.1437" y="-558.5" font-family="Helvetica,sans-Serif" font-size="10.00">+ end()</text>
<text text-anchor="start" x="61.1437" y="-547.5" font-family="Helvetica,sans-Serif" font-size="10.00">+ end()</text>
<text text-anchor="start" x="61.1437" y="-536.5" font-family="Helvetica,sans-Serif" font-size="10.00">+ rbegin()</text>
<text text-anchor="start" x="61.1437" y="-525.5" font-family="Helvetica,sans-Serif" font-size="10.00">+ rbegin()</text>
<text text-anchor="start" x="61.1437" y="-514.5" font-family="Helvetica,sans-Serif" font-size="10.00">+ rend()</text>
<text text-anchor="start" x="61.1437" y="-503.5" font-family="Helvetica,sans-Serif" font-size="10.00">+ rend()</text>
<text text-anchor="start" x="61.1437" y="-492.5" font-family="Helvetica,sans-Serif" font-size="10.00">+ getFirst()</text>
<text text-anchor="start" x="61.1437" y="-481.5" font-family="Helvetica,sans-Serif" font-size="10.00">+ getLast()</text>
</a>
</g>
</g>
<!-- Node6&#45;&gt;Node7 -->
<g id="edge6" class="edge"><title>Node6&#45;&gt;Node7</title>
<path fill="none" stroke="#404040" d="M105.151,-821.258C104.168,-815.103 103.316,-808.985 102.644,-803 101.61,-793.802 101.101,-784.349 101.011,-774.814"/>
<polygon fill="none" stroke="#404040" points="101.012,-774.706 97.0629,-768.673 101.114,-762.707 105.063,-768.74 101.012,-774.706"/>
<text text-anchor="middle" x="113.644" y="-795" font-family="Helvetica,sans-Serif" font-size="10.00"> &#45;last</text>
<text text-anchor="middle" x="113.644" y="-784" font-family="Helvetica,sans-Serif" font-size="10.00">&#45;first</text>
</g>
<!-- Node7&#45;&gt;Node4 -->
<g id="edge7" class="edge"><title>Node7&#45;&gt;Node4</title>
<path fill="none" stroke="#404040" d="M122.03,-474.077C121.548,-454.934 121.058,-435.491 120.589,-416.876"/>
<polygon fill="none" stroke="#404040" points="120.586,-416.77 116.436,-410.873 120.284,-404.774 124.434,-410.672 120.586,-416.77"/>
<text text-anchor="middle" x="148.644" y="-442.5" font-family="Helvetica,sans-Serif" font-size="10.00"> &#45;updatables</text>
</g>
<!-- Node7&#45;&gt;Node6 -->
<g id="edge5" class="edge"><title>Node7&#45;&gt;Node6</title>
<path fill="none" stroke="#404040" d="M128.338,-762.599C128.444,-768.817 128.546,-774.972 128.644,-781 128.793,-790.204 128.94,-799.736 129.083,-809.316"/>
<polygon fill="none" stroke="#404040" points="129.085,-809.455 133.173,-815.396 129.261,-821.454 125.173,-815.514 129.085,-809.455"/>
<text text-anchor="middle" x="156.644" y="-789.5" font-family="Helvetica,sans-Serif" font-size="10.00"> &#45;updatables</text>
</g>
<!-- Node8 -->
<g id="node6" class="node"><title>Node8</title>
<g id="a_node6"><a xlink:href="../../d5/d20/classIncrementDecrementButtons.html" target="_top" xlink:title=" ">
<polygon fill="white" stroke="black" points="188.144,-254 188.144,-344 345.144,-344 345.144,-254 188.144,-254"/>
<text text-anchor="middle" x="266.644" y="-332" font-family="Helvetica,sans-Serif" font-size="10.00">IncrementDecrementButtons</text>
<polyline fill="none" stroke="black" points="188.144,-325 345.144,-325 "/>
<text text-anchor="start" x="196.144" y="-313" font-family="Helvetica,sans-Serif" font-size="10.00">&#45; longPressState</text>
<text text-anchor="start" x="196.144" y="-302" font-family="Helvetica,sans-Serif" font-size="10.00">&#45; longPressRepeat</text>
<polyline fill="none" stroke="black" points="188.144,-295 345.144,-295 "/>
<text text-anchor="start" x="196.144" y="-283" font-family="Helvetica,sans-Serif" font-size="10.00">+ IncrementDecrementButtons()</text>
<text text-anchor="start" x="196.144" y="-272" font-family="Helvetica,sans-Serif" font-size="10.00">+ begin()</text>
<text text-anchor="start" x="196.144" y="-261" font-family="Helvetica,sans-Serif" font-size="10.00">+ getState()</text>
</a>
</g>
</g>
<!-- Node8&#45;&gt;Node3 -->
<g id="edge8" class="edge"><title>Node8&#45;&gt;Node3</title>
<path fill="none" stroke="#404040" d="M266.644,-253.798C266.644,-220.686 266.644,-174.643 266.644,-136.083"/>
<polygon fill="none" stroke="#404040" points="266.644,-135.853 262.644,-129.853 266.644,-123.853 270.644,-129.853 266.644,-135.853"/>
<text text-anchor="middle" x="286.144" y="-150.5" font-family="Helvetica,sans-Serif" font-size="10.00"> &#45;buttons</text>
</g>
<!-- Node9 -->
<g id="node7" class="node"><title>Node9</title>
<g id="a_node7"><a xlink:href="../../d1/d19/classButton.html" target="_top" xlink:title="A class for reading and debouncing buttons and switches.">
<polygon fill="white" stroke="black" points="218.644,-529.5 218.644,-707.5 314.644,-707.5 314.644,-529.5 218.644,-529.5"/>
<text text-anchor="middle" x="266.644" y="-695.5" font-family="Helvetica,sans-Serif" font-size="10.00">Button</text>
<polyline fill="none" stroke="black" points="218.644,-688.5 314.644,-688.5 "/>
<text text-anchor="start" x="226.644" y="-676.5" font-family="Helvetica,sans-Serif" font-size="10.00">&#45; pin</text>
<text text-anchor="start" x="226.644" y="-665.5" font-family="Helvetica,sans-Serif" font-size="10.00">&#45; prevState</text>
<text text-anchor="start" x="226.644" y="-654.5" font-family="Helvetica,sans-Serif" font-size="10.00">&#45; debouncedState</text>
<text text-anchor="start" x="226.644" y="-643.5" font-family="Helvetica,sans-Serif" font-size="10.00">&#45; prevBounceTime</text>
<text text-anchor="start" x="226.644" y="-632.5" font-family="Helvetica,sans-Serif" font-size="10.00">&#45; invertState</text>
<text text-anchor="start" x="226.644" y="-621.5" font-family="Helvetica,sans-Serif" font-size="10.00">&#45; debounceTime</text>
<polyline fill="none" stroke="black" points="218.644,-614.5 314.644,-614.5 "/>
<text text-anchor="start" x="226.644" y="-602.5" font-family="Helvetica,sans-Serif" font-size="10.00">+ Button()</text>
<text text-anchor="start" x="226.644" y="-591.5" font-family="Helvetica,sans-Serif" font-size="10.00">+ Button()</text>
<text text-anchor="start" x="226.644" y="-580.5" font-family="Helvetica,sans-Serif" font-size="10.00">+ begin()</text>
<text text-anchor="start" x="226.644" y="-569.5" font-family="Helvetica,sans-Serif" font-size="10.00">+ invert()</text>
<text text-anchor="start" x="226.644" y="-558.5" font-family="Helvetica,sans-Serif" font-size="10.00">+ getState()</text>
<text text-anchor="start" x="226.644" y="-547.5" font-family="Helvetica,sans-Serif" font-size="10.00">+ stableTime()</text>
<text text-anchor="start" x="226.644" y="-536.5" font-family="Helvetica,sans-Serif" font-size="10.00">+ getName()</text>
</a>
</g>
</g>
<!-- Node9&#45;&gt;Node8 -->
<g id="edge9" class="edge"><title>Node9&#45;&gt;Node8</title>
<path fill="none" stroke="#404040" d="M266.644,-529.48C266.644,-474.106 266.644,-404.299 266.644,-356.302"/>
<polygon fill="none" stroke="#404040" points="266.644,-356.288 262.644,-350.288 266.644,-344.288 270.644,-350.288 266.644,-356.288"/>
<text text-anchor="middle" x="307.144" y="-448" font-family="Helvetica,sans-Serif" font-size="10.00"> &#45;decrementButton</text>
<text text-anchor="middle" x="307.144" y="-437" font-family="Helvetica,sans-Serif" font-size="10.00">&#45;incrementButton</text>
</g>
<!-- Node10 -->
<g id="node8" class="node"><title>Node10</title>
<g id="a_node8"><a xlink:href="../../d3/d10/classMIDICNChannelAddress.html" target="_top" xlink:title=" ">
<polygon fill="white" stroke="black" points="363.644,-182.5 363.644,-415.5 503.644,-415.5 503.644,-182.5 363.644,-182.5"/>
<text text-anchor="middle" x="433.644" y="-403.5" font-family="Helvetica,sans-Serif" font-size="10.00">MIDICNChannelAddress</text>
<polyline fill="none" stroke="black" points="363.644,-396.5 503.644,-396.5 "/>
<text text-anchor="start" x="371.644" y="-384.5" font-family="Helvetica,sans-Serif" font-size="10.00">&#45; addresses</text>
<polyline fill="none" stroke="black" points="363.644,-377.5 503.644,-377.5 "/>
<text text-anchor="start" x="371.644" y="-365.5" font-family="Helvetica,sans-Serif" font-size="10.00">+ MIDICNChannelAddress()</text>
<text text-anchor="start" x="371.644" y="-354.5" font-family="Helvetica,sans-Serif" font-size="10.00">+ MIDICNChannelAddress()</text>
<text text-anchor="start" x="371.644" y="-343.5" font-family="Helvetica,sans-Serif" font-size="10.00">+ MIDICNChannelAddress()</text>
<text text-anchor="start" x="371.644" y="-332.5" font-family="Helvetica,sans-Serif" font-size="10.00">+ MIDICNChannelAddress()</text>
<text text-anchor="start" x="371.644" y="-321.5" font-family="Helvetica,sans-Serif" font-size="10.00">+ operator+=()</text>
<text text-anchor="start" x="371.644" y="-310.5" font-family="Helvetica,sans-Serif" font-size="10.00">+ operator&#45;=()</text>
<text text-anchor="start" x="371.644" y="-299.5" font-family="Helvetica,sans-Serif" font-size="10.00">+ operator+()</text>
<text text-anchor="start" x="371.644" y="-288.5" font-family="Helvetica,sans-Serif" font-size="10.00">+ operator&#45;()</text>
<text text-anchor="start" x="371.644" y="-277.5" font-family="Helvetica,sans-Serif" font-size="10.00">+ operator==()</text>
<text text-anchor="start" x="371.644" y="-266.5" font-family="Helvetica,sans-Serif" font-size="10.00">+ operator!=()</text>
<text text-anchor="start" x="371.644" y="-255.5" font-family="Helvetica,sans-Serif" font-size="10.00">+ getAddress()</text>
<text text-anchor="start" x="371.644" y="-244.5" font-family="Helvetica,sans-Serif" font-size="10.00">+ getChannel()</text>
<text text-anchor="start" x="371.644" y="-233.5" font-family="Helvetica,sans-Serif" font-size="10.00">+ getCableNumber()</text>
<text text-anchor="start" x="371.644" y="-222.5" font-family="Helvetica,sans-Serif" font-size="10.00">+ isValid()</text>
<text text-anchor="start" x="371.644" y="-211.5" font-family="Helvetica,sans-Serif" font-size="10.00">+ operator bool()</text>
<text text-anchor="start" x="371.644" y="-200.5" font-family="Helvetica,sans-Serif" font-size="10.00">+ matchSingle()</text>
<text text-anchor="start" x="371.644" y="-189.5" font-family="Helvetica,sans-Serif" font-size="10.00">+ matchAddressInRange()</text>
</a>
</g>
</g>
<!-- Node10&#45;&gt;Node3 -->
<g id="edge10" class="edge"><title>Node10&#45;&gt;Node3</title>
<path fill="none" stroke="#404040" d="M363.561,-196.041C360.22,-191.287 356.902,-186.588 353.644,-182 342.415,-166.189 330.212,-149.313 318.594,-133.386"/>
<polygon fill="none" stroke="#404040" points="318.531,-133.299 311.761,-130.815 311.45,-123.611 318.22,-126.095 318.531,-133.299"/>
<text text-anchor="middle" x="371.644" y="-156" font-family="Helvetica,sans-Serif" font-size="10.00"> &#45;resetAddress</text>
<text text-anchor="middle" x="371.644" y="-145" font-family="Helvetica,sans-Serif" font-size="10.00">&#45;address</text>
</g>
</g>
</svg>
