<?xml version="1.0" encoding="UTF-8" standalone="no"?>
<!DOCTYPE svg PUBLIC "-//W3C//DTD SVG 1.1//EN"
 "http://www.w3.org/Graphics/SVG/1.1/DTD/svg11.dtd">
<!-- Generated by graphviz version 2.38.0 (20140413.2041)
 -->
<!-- Title: Bankable::MIDIFilteredAnalog&lt; Sender, PRECISION &gt; Pages: 1 -->
<svg width="641pt" height="1405pt"
 viewBox="0.00 0.00 641.00 1405.00" xmlns="http://www.w3.org/2000/svg" xmlns:xlink="http://www.w3.org/1999/xlink">
<g id="graph0" class="graph" transform="scale(1 1) rotate(0) translate(4 1401)">
<title>Bankable::MIDIFilteredAnalog&lt; Sender, PRECISION &gt;</title>
<polygon fill="white" stroke="none" points="-4,4 -4,-1401 637,-1401 637,4 -4,4"/>
<!-- Node1 -->
<g id="node1" class="node"><title>Node1</title>
<g id="a_node1"><a xlink:title="A class for potentiometers and faders that send MIDI events (with only a channel, no address) and tha...">
<polygon fill="#bfbfbf" stroke="black" points="262.5,-0.5 262.5,-123.5 409.5,-123.5 409.5,-0.5 262.5,-0.5"/>
<text text-anchor="start" x="270.5" y="-111.5" font-family="Helvetica,sans-Serif" font-size="10.00">Bankable::MIDIFilteredAnalog</text>
<text text-anchor="middle" x="336" y="-100.5" font-family="Helvetica,sans-Serif" font-size="10.00">&lt; Sender, PRECISION &gt;</text>
<polyline fill="none" stroke="black" points="262.5,-93.5 409.5,-93.5 "/>
<text text-anchor="middle" x="336" y="-81.5" font-family="Helvetica,sans-Serif" font-size="10.00"> </text>
<polyline fill="none" stroke="black" points="262.5,-74.5 409.5,-74.5 "/>
<text text-anchor="start" x="270.5" y="-62.5" font-family="Helvetica,sans-Serif" font-size="10.00">+ begin()</text>
<text text-anchor="start" x="270.5" y="-51.5" font-family="Helvetica,sans-Serif" font-size="10.00">+ update()</text>
<text text-anchor="start" x="270.5" y="-40.5" font-family="Helvetica,sans-Serif" font-size="10.00">+ map()</text>
<text text-anchor="start" x="270.5" y="-29.5" font-family="Helvetica,sans-Serif" font-size="10.00">+ getRawValue()</text>
<text text-anchor="start" x="270.5" y="-18.5" font-family="Helvetica,sans-Serif" font-size="10.00">+ getValue()</text>
<text text-anchor="start" x="270.5" y="-7.5" font-family="Helvetica,sans-Serif" font-size="10.00"># MIDIFilteredAnalog()</text>
</a>
</g>
</g>
<!-- Node2 -->
<g id="node2" class="node"><title>Node2</title>
<g id="a_node2"><a xlink:href="../../dc/dc9/structMIDIOutputElement.html" target="_top" xlink:title=" ">
<polygon fill="white" stroke="black" points="0,-265 0,-322 104,-322 104,-265 0,-265"/>
<text text-anchor="middle" x="52" y="-310" font-family="Helvetica,sans-Serif" font-size="10.00">MIDIOutputElement</text>
<polyline fill="none" stroke="black" points="0,-303 104,-303 "/>
<text text-anchor="middle" x="52" y="-291" font-family="Helvetica,sans-Serif" font-size="10.00"> </text>
<polyline fill="none" stroke="black" points="0,-284 104,-284 "/>
<text text-anchor="middle" x="52" y="-272" font-family="Helvetica,sans-Serif" font-size="10.00"> </text>
</a>
</g>
</g>
<!-- Node2&#45;&gt;Node1 -->
<g id="edge1" class="edge"><title>Node2&#45;&gt;Node1</title>
<path fill="none" stroke="midnightblue" d="M63.4329,-255.358C73.1035,-229.061 89.2274,-194.436 113,-171 154.662,-129.929 214.995,-102.015 262.402,-84.8708"/>
<polygon fill="none" stroke="midnightblue" points="60.0619,-254.394 60.0401,-264.989 66.6641,-256.72 60.0619,-254.394"/>
</g>
<!-- Node3 -->
<g id="node3" class="node"><title>Node3</title>
<g id="a_node3"><a xlink:href="../../d5/de0/classUpdatable.html" target="_top" xlink:title=" ">
<polygon fill="white" stroke="black" points="11,-463.5 11,-674.5 93,-674.5 93,-463.5 11,-463.5"/>
<text text-anchor="middle" x="52" y="-662.5" font-family="Helvetica,sans-Serif" font-size="10.00">Updatable&lt;&gt;</text>
<polyline fill="none" stroke="black" points="11,-655.5 93,-655.5 "/>
<text text-anchor="middle" x="52" y="-643.5" font-family="Helvetica,sans-Serif" font-size="10.00"> </text>
<polyline fill="none" stroke="black" points="11,-636.5 93,-636.5 "/>
<text text-anchor="start" x="19" y="-624.5" font-family="Helvetica,sans-Serif" font-size="10.00">+ ~Updatable()</text>
<text text-anchor="start" x="19" y="-613.5" font-family="Helvetica,sans-Serif" font-size="10.00">+ update()</text>
<text text-anchor="start" x="19" y="-602.5" font-family="Helvetica,sans-Serif" font-size="10.00">+ begin()</text>
<text text-anchor="start" x="19" y="-591.5" font-family="Helvetica,sans-Serif" font-size="10.00">+ enable()</text>
<text text-anchor="start" x="19" y="-580.5" font-family="Helvetica,sans-Serif" font-size="10.00">+ disable()</text>
<text text-anchor="start" x="19" y="-569.5" font-family="Helvetica,sans-Serif" font-size="10.00">+ isEnabled()</text>
<text text-anchor="start" x="19" y="-558.5" font-family="Helvetica,sans-Serif" font-size="10.00">+ enable()</text>
<text text-anchor="start" x="19" y="-547.5" font-family="Helvetica,sans-Serif" font-size="10.00">+ enable()</text>
<text text-anchor="start" x="19" y="-536.5" font-family="Helvetica,sans-Serif" font-size="10.00">+ enable()</text>
<text text-anchor="start" x="19" y="-525.5" font-family="Helvetica,sans-Serif" font-size="10.00">+ disable()</text>
<text text-anchor="start" x="19" y="-514.5" font-family="Helvetica,sans-Serif" font-size="10.00">+ disable()</text>
<text text-anchor="start" x="19" y="-503.5" font-family="Helvetica,sans-Serif" font-size="10.00">+ disable()</text>
<text text-anchor="start" x="19" y="-492.5" font-family="Helvetica,sans-Serif" font-size="10.00">+ beginAll()</text>
<text text-anchor="start" x="19" y="-481.5" font-family="Helvetica,sans-Serif" font-size="10.00">+ updateAll()</text>
<text text-anchor="start" x="19" y="-470.5" font-family="Helvetica,sans-Serif" font-size="10.00"># Updatable()</text>
</a>
</g>
</g>
<!-- Node3&#45;&gt;Node2 -->
<g id="edge2" class="edge"><title>Node3&#45;&gt;Node2</title>
<path fill="none" stroke="midnightblue" d="M52,-453.202C52,-404.957 52,-352.97 52,-322.11"/>
<polygon fill="none" stroke="midnightblue" points="48.5001,-453.431 52,-463.431 55.5001,-453.431 48.5001,-453.431"/>
</g>
<!-- Node4 -->
<g id="node4" class="node"><title>Node4</title>
<g id="a_node4"><a xlink:href="../../d4/d23/classDoublyLinkable.html" target="_top" xlink:title=" ">
<polygon fill="white" stroke="black" points="40.5,-1328.5 40.5,-1396.5 177.5,-1396.5 177.5,-1328.5 40.5,-1328.5"/>
<text text-anchor="start" x="48.5" y="-1384.5" font-family="Helvetica,sans-Serif" font-size="10.00">DoublyLinkable&lt; Updatable</text>
<text text-anchor="middle" x="109" y="-1373.5" font-family="Helvetica,sans-Serif" font-size="10.00">&lt; NormalUpdatable &gt; &gt;</text>
<polyline fill="none" stroke="black" points="40.5,-1366.5 177.5,-1366.5 "/>
<text text-anchor="middle" x="109" y="-1354.5" font-family="Helvetica,sans-Serif" font-size="10.00"> </text>
<polyline fill="none" stroke="black" points="40.5,-1347.5 177.5,-1347.5 "/>
<text text-anchor="start" x="48.5" y="-1335.5" font-family="Helvetica,sans-Serif" font-size="10.00"># ~DoublyLinkable()</text>
</a>
</g>
</g>
<!-- Node4&#45;&gt;Node3 -->
<g id="edge3" class="edge"><title>Node4&#45;&gt;Node3</title>
<path fill="none" stroke="midnightblue" d="M78.1103,-1319.79C68.8016,-1304.85 59.7897,-1287.39 55,-1270 -1.42466,-1065.1 17.8388,-813.496 35.714,-674.606"/>
<polygon fill="none" stroke="midnightblue" points="75.2265,-1321.77 83.5958,-1328.27 81.1045,-1317.97 75.2265,-1321.77"/>
</g>
<!-- Node5 -->
<g id="node5" class="node"><title>Node5</title>
<g id="a_node5"><a xlink:href="../../d5/de0/classUpdatable.html" target="_top" xlink:title=" ">
<polygon fill="white" stroke="black" points="64.5,-1058.5 64.5,-1269.5 219.5,-1269.5 219.5,-1058.5 64.5,-1058.5"/>
<text text-anchor="middle" x="142" y="-1257.5" font-family="Helvetica,sans-Serif" font-size="10.00">Updatable&lt; NormalUpdatable &gt;</text>
<polyline fill="none" stroke="black" points="64.5,-1250.5 219.5,-1250.5 "/>
<text text-anchor="middle" x="142" y="-1238.5" font-family="Helvetica,sans-Serif" font-size="10.00"> </text>
<polyline fill="none" stroke="black" points="64.5,-1231.5 219.5,-1231.5 "/>
<text text-anchor="start" x="72.5" y="-1219.5" font-family="Helvetica,sans-Serif" font-size="10.00">+ ~Updatable()</text>
<text text-anchor="start" x="72.5" y="-1208.5" font-family="Helvetica,sans-Serif" font-size="10.00">+ update()</text>
<text text-anchor="start" x="72.5" y="-1197.5" font-family="Helvetica,sans-Serif" font-size="10.00">+ begin()</text>
<text text-anchor="start" x="72.5" y="-1186.5" font-family="Helvetica,sans-Serif" font-size="10.00">+ enable()</text>
<text text-anchor="start" x="72.5" y="-1175.5" font-family="Helvetica,sans-Serif" font-size="10.00">+ disable()</text>
<text text-anchor="start" x="72.5" y="-1164.5" font-family="Helvetica,sans-Serif" font-size="10.00">+ isEnabled()</text>
<text text-anchor="start" x="72.5" y="-1153.5" font-family="Helvetica,sans-Serif" font-size="10.00">+ enable()</text>
<text text-anchor="start" x="72.5" y="-1142.5" font-family="Helvetica,sans-Serif" font-size="10.00">+ enable()</text>
<text text-anchor="start" x="72.5" y="-1131.5" font-family="Helvetica,sans-Serif" font-size="10.00">+ enable()</text>
<text text-anchor="start" x="72.5" y="-1120.5" font-family="Helvetica,sans-Serif" font-size="10.00">+ disable()</text>
<text text-anchor="start" x="72.5" y="-1109.5" font-family="Helvetica,sans-Serif" font-size="10.00">+ disable()</text>
<text text-anchor="start" x="72.5" y="-1098.5" font-family="Helvetica,sans-Serif" font-size="10.00">+ disable()</text>
<text text-anchor="start" x="72.5" y="-1087.5" font-family="Helvetica,sans-Serif" font-size="10.00">+ beginAll()</text>
<text text-anchor="start" x="72.5" y="-1076.5" font-family="Helvetica,sans-Serif" font-size="10.00">+ updateAll()</text>
<text text-anchor="start" x="72.5" y="-1065.5" font-family="Helvetica,sans-Serif" font-size="10.00"># Updatable()</text>
</a>
</g>
</g>
<!-- Node4&#45;&gt;Node5 -->
<g id="edge5" class="edge"><title>Node4&#45;&gt;Node5</title>
<path fill="none" stroke="midnightblue" d="M116.293,-1318.07C118.724,-1303.6 121.546,-1286.79 124.412,-1269.73"/>
<polygon fill="none" stroke="midnightblue" points="112.803,-1317.72 114.598,-1328.17 119.706,-1318.88 112.803,-1317.72"/>
</g>
<!-- Node5&#45;&gt;Node4 -->
<g id="edge4" class="edge"><title>Node5&#45;&gt;Node4</title>
<path fill="none" stroke="#404040" d="M126.882,-1269.67C124.696,-1283.26 122.377,-1296.98 120,-1310 119.611,-1312.13 119.199,-1314.31 118.773,-1316.51"/>
<polygon fill="none" stroke="#404040" points="118.765,-1316.55 121.5,-1323.22 116.393,-1328.31 113.658,-1321.64 118.765,-1316.55"/>
<text text-anchor="middle" x="145.5" y="-1302" font-family="Helvetica,sans-Serif" font-size="10.00"> #next</text>
<text text-anchor="middle" x="145.5" y="-1291" font-family="Helvetica,sans-Serif" font-size="10.00">#previous</text>
</g>
<!-- Node6 -->
<g id="node6" class="node"><title>Node6</title>
<g id="a_node6"><a xlink:href="../../dd/d16/classDoublyLinkedList.html" target="_top" xlink:title=" ">
<polygon fill="white" stroke="black" points="64.5,-722.5 64.5,-999.5 209.5,-999.5 209.5,-722.5 64.5,-722.5"/>
<text text-anchor="start" x="72.5" y="-987.5" font-family="Helvetica,sans-Serif" font-size="10.00">DoublyLinkedList&lt; Updatable</text>
<text text-anchor="middle" x="137" y="-976.5" font-family="Helvetica,sans-Serif" font-size="10.00">&lt; NormalUpdatable &gt; &gt;</text>
<polyline fill="none" stroke="black" points="64.5,-969.5 209.5,-969.5 "/>
<text text-anchor="middle" x="137" y="-957.5" font-family="Helvetica,sans-Serif" font-size="10.00"> </text>
<polyline fill="none" stroke="black" points="64.5,-950.5 209.5,-950.5 "/>
<text text-anchor="start" x="72.5" y="-938.5" font-family="Helvetica,sans-Serif" font-size="10.00">+ append()</text>
<text text-anchor="start" x="72.5" y="-927.5" font-family="Helvetica,sans-Serif" font-size="10.00">+ append()</text>
<text text-anchor="start" x="72.5" y="-916.5" font-family="Helvetica,sans-Serif" font-size="10.00">+ insertBefore()</text>
<text text-anchor="start" x="72.5" y="-905.5" font-family="Helvetica,sans-Serif" font-size="10.00">+ insertBefore()</text>
<text text-anchor="start" x="72.5" y="-894.5" font-family="Helvetica,sans-Serif" font-size="10.00">+ insertSorted()</text>
<text text-anchor="start" x="72.5" y="-883.5" font-family="Helvetica,sans-Serif" font-size="10.00">+ insertSorted()</text>
<text text-anchor="start" x="72.5" y="-872.5" font-family="Helvetica,sans-Serif" font-size="10.00">+ remove()</text>
<text text-anchor="start" x="72.5" y="-861.5" font-family="Helvetica,sans-Serif" font-size="10.00">+ remove()</text>
<text text-anchor="start" x="72.5" y="-850.5" font-family="Helvetica,sans-Serif" font-size="10.00">+ moveDown()</text>
<text text-anchor="start" x="72.5" y="-839.5" font-family="Helvetica,sans-Serif" font-size="10.00">+ couldContain()</text>
<text text-anchor="start" x="72.5" y="-828.5" font-family="Helvetica,sans-Serif" font-size="10.00">+ begin()</text>
<text text-anchor="start" x="72.5" y="-817.5" font-family="Helvetica,sans-Serif" font-size="10.00">+ begin()</text>
<text text-anchor="start" x="72.5" y="-806.5" font-family="Helvetica,sans-Serif" font-size="10.00">+ end()</text>
<text text-anchor="start" x="72.5" y="-795.5" font-family="Helvetica,sans-Serif" font-size="10.00">+ end()</text>
<text text-anchor="start" x="72.5" y="-784.5" font-family="Helvetica,sans-Serif" font-size="10.00">+ rbegin()</text>
<text text-anchor="start" x="72.5" y="-773.5" font-family="Helvetica,sans-Serif" font-size="10.00">+ rbegin()</text>
<text text-anchor="start" x="72.5" y="-762.5" font-family="Helvetica,sans-Serif" font-size="10.00">+ rend()</text>
<text text-anchor="start" x="72.5" y="-751.5" font-family="Helvetica,sans-Serif" font-size="10.00">+ rend()</text>
<text text-anchor="start" x="72.5" y="-740.5" font-family="Helvetica,sans-Serif" font-size="10.00">+ getFirst()</text>
<text text-anchor="start" x="72.5" y="-729.5" font-family="Helvetica,sans-Serif" font-size="10.00">+ getLast()</text>
</a>
</g>
</g>
<!-- Node5&#45;&gt;Node6 -->
<g id="edge7" class="edge"><title>Node5&#45;&gt;Node6</title>
<path fill="none" stroke="#404040" d="M116.507,-1058.26C115.524,-1052.1 114.673,-1045.98 114,-1040 112.972,-1030.86 112.488,-1021.45 112.435,-1011.97"/>
<polygon fill="none" stroke="#404040" points="112.435,-1011.93 108.513,-1005.88 112.59,-999.935 116.512,-1005.99 112.435,-1011.93"/>
<text text-anchor="middle" x="125" y="-1032" font-family="Helvetica,sans-Serif" font-size="10.00"> &#45;last</text>
<text text-anchor="middle" x="125" y="-1021" font-family="Helvetica,sans-Serif" font-size="10.00">&#45;first</text>
</g>
<!-- Node6&#45;&gt;Node3 -->
<g id="edge8" class="edge"><title>Node6&#45;&gt;Node3</title>
<path fill="none" stroke="#404040" d="M96.6159,-722.219C93.1142,-710.272 89.5932,-698.259 86.1485,-686.507"/>
<polygon fill="none" stroke="#404040" points="86.108,-686.368 80.5819,-681.736 82.7327,-674.853 88.2589,-679.485 86.108,-686.368"/>
<text text-anchor="middle" x="117" y="-696" font-family="Helvetica,sans-Serif" font-size="10.00"> &#45;updatables</text>
</g>
<!-- Node6&#45;&gt;Node5 -->
<g id="edge6" class="edge"><title>Node6&#45;&gt;Node5</title>
<path fill="none" stroke="#404040" d="M139.691,-999.806C139.798,-1005.95 139.902,-1012.04 140,-1018 140.152,-1027.2 140.301,-1036.74 140.446,-1046.32"/>
<polygon fill="none" stroke="#404040" points="140.448,-1046.46 144.536,-1052.4 140.626,-1058.45 136.537,-1052.51 140.448,-1046.46"/>
<text text-anchor="middle" x="168" y="-1026.5" font-family="Helvetica,sans-Serif" font-size="10.00"> &#45;updatables</text>
</g>
<!-- Node7 -->
<g id="node7" class="node"><title>Node7</title>
<g id="a_node7"><a xlink:href="../../d3/d43/classBankableMIDIOutput.html" target="_top" xlink:title="A base class for all MIDIOutputElement::s that can be banked.">
<polygon fill="white" stroke="black" points="122,-221 122,-366 244,-366 244,-221 122,-221"/>
<text text-anchor="middle" x="183" y="-354" font-family="Helvetica,sans-Serif" font-size="10.00">BankableMIDIOutput</text>
<polyline fill="none" stroke="black" points="122,-347 244,-347 "/>
<text text-anchor="start" x="130" y="-335" font-family="Helvetica,sans-Serif" font-size="10.00">&#45; type</text>
<text text-anchor="start" x="130" y="-324" font-family="Helvetica,sans-Serif" font-size="10.00">&#45; lockedSetting</text>
<text text-anchor="start" x="130" y="-313" font-family="Helvetica,sans-Serif" font-size="10.00">&#45; UNLOCKED</text>
<polyline fill="none" stroke="black" points="122,-306 244,-306 "/>
<text text-anchor="start" x="130" y="-294" font-family="Helvetica,sans-Serif" font-size="10.00">+ getAddressOffset()</text>
<text text-anchor="start" x="130" y="-283" font-family="Helvetica,sans-Serif" font-size="10.00">+ getRawBankSetting()</text>
<text text-anchor="start" x="130" y="-272" font-family="Helvetica,sans-Serif" font-size="10.00">+ getSelection()</text>
<text text-anchor="start" x="130" y="-261" font-family="Helvetica,sans-Serif" font-size="10.00"># BankableMIDIOutput()</text>
<text text-anchor="start" x="130" y="-250" font-family="Helvetica,sans-Serif" font-size="10.00"># BankableMIDIOutput()</text>
<text text-anchor="start" x="130" y="-239" font-family="Helvetica,sans-Serif" font-size="10.00"># lock()</text>
<text text-anchor="start" x="130" y="-228" font-family="Helvetica,sans-Serif" font-size="10.00"># unlock()</text>
</a>
</g>
</g>
<!-- Node7&#45;&gt;Node1 -->
<g id="edge9" class="edge"><title>Node7&#45;&gt;Node1</title>
<path fill="none" stroke="midnightblue" d="M227.23,-212.231C235.481,-198.288 244.265,-184.075 253,-171 263.509,-155.269 275.555,-138.824 287.152,-123.646"/>
<polygon fill="none" stroke="midnightblue" points="224.206,-210.468 222.166,-220.865 230.244,-214.01 224.206,-210.468"/>
</g>
<!-- Node8 -->
<g id="node8" class="node"><title>Node8</title>
<g id="a_node8"><a xlink:href="../../d9/d36/classOutputBank.html" target="_top" xlink:title="A class for changing the address of BankableMIDIOutput::s.">
<polygon fill="white" stroke="black" points="121.5,-518.5 121.5,-619.5 234.5,-619.5 234.5,-518.5 121.5,-518.5"/>
<text text-anchor="middle" x="178" y="-607.5" font-family="Helvetica,sans-Serif" font-size="10.00">OutputBank</text>
<polyline fill="none" stroke="black" points="121.5,-600.5 234.5,-600.5 "/>
<text text-anchor="start" x="129.5" y="-588.5" font-family="Helvetica,sans-Serif" font-size="10.00">&#45; tracksPerBank</text>
<text text-anchor="start" x="129.5" y="-577.5" font-family="Helvetica,sans-Serif" font-size="10.00">&#45; bankSetting</text>
<polyline fill="none" stroke="black" points="121.5,-570.5 234.5,-570.5 "/>
<text text-anchor="start" x="129.5" y="-558.5" font-family="Helvetica,sans-Serif" font-size="10.00">+ OutputBank()</text>
<text text-anchor="start" x="129.5" y="-547.5" font-family="Helvetica,sans-Serif" font-size="10.00">+ select()</text>
<text text-anchor="start" x="129.5" y="-536.5" font-family="Helvetica,sans-Serif" font-size="10.00">+ getSelection()</text>
<text text-anchor="start" x="129.5" y="-525.5" font-family="Helvetica,sans-Serif" font-size="10.00">+ getTracksPerBank()</text>
</a>
</g>
</g>
<!-- Node8&#45;&gt;Node7 -->
<g id="edge10" class="edge"><title>Node8&#45;&gt;Node7</title>
<path fill="none" stroke="#404040" d="M178.905,-518.471C179.62,-479.399 180.632,-424.024 181.471,-378.112"/>
<polygon fill="none" stroke="#404040" points="181.473,-378.046 177.583,-371.974 181.692,-366.048 185.582,-372.121 181.473,-378.046"/>
<text text-anchor="middle" x="195" y="-437" font-family="Helvetica,sans-Serif" font-size="10.00"> &#45;bank</text>
</g>
<!-- Node9 -->
<g id="node9" class="node"><title>Node9</title>
<g id="a_node9"><a xlink:href="../../da/da7/classFilteredAnalog.html" target="_top" xlink:title=" ">
<polygon fill="white" stroke="black" points="262.5,-221 262.5,-366 409.5,-366 409.5,-221 262.5,-221"/>
<text text-anchor="start" x="270.5" y="-354" font-family="Helvetica,sans-Serif" font-size="10.00">FilteredAnalog&lt; PRECISION,</text>
<text text-anchor="start" x="270.5" y="-343" font-family="Helvetica,sans-Serif" font-size="10.00"> 6, ANALOG_FILTER_SHIFT</text>
<text text-anchor="middle" x="336" y="-332" font-family="Helvetica,sans-Serif" font-size="10.00">_FACTOR, uint32_t &gt;</text>
<polyline fill="none" stroke="black" points="262.5,-325 409.5,-325 "/>
<text text-anchor="start" x="270.5" y="-313" font-family="Helvetica,sans-Serif" font-size="10.00">&#45; analogPin</text>
<text text-anchor="start" x="270.5" y="-302" font-family="Helvetica,sans-Serif" font-size="10.00">&#45; mapFn</text>
<polyline fill="none" stroke="black" points="262.5,-295 409.5,-295 "/>
<text text-anchor="start" x="270.5" y="-283" font-family="Helvetica,sans-Serif" font-size="10.00">+ FilteredAnalog()</text>
<text text-anchor="start" x="270.5" y="-272" font-family="Helvetica,sans-Serif" font-size="10.00">+ map()</text>
<text text-anchor="start" x="270.5" y="-261" font-family="Helvetica,sans-Serif" font-size="10.00">+ update()</text>
<text text-anchor="start" x="270.5" y="-250" font-family="Helvetica,sans-Serif" font-size="10.00">+ getValue()</text>
<text text-anchor="start" x="270.5" y="-239" font-family="Helvetica,sans-Serif" font-size="10.00">+ getFloatValue()</text>
<text text-anchor="start" x="270.5" y="-228" font-family="Helvetica,sans-Serif" font-size="10.00">+ getRawValue()</text>
</a>
</g>
</g>
<!-- Node9&#45;&gt;Node1 -->
<g id="edge11" class="edge"><title>Node9&#45;&gt;Node1</title>
<path fill="none" stroke="#404040" d="M336,-220.829C336,-193.798 336,-163.037 336,-135.896"/>
<polygon fill="none" stroke="#404040" points="336,-135.707 332,-129.707 336,-123.707 340,-129.707 336,-135.707"/>
<text text-anchor="middle" x="369" y="-145" font-family="Helvetica,sans-Serif" font-size="10.00"> &#45;filteredAnalog</text>
</g>
<!-- Node10 -->
<g id="node10" class="node"><title>Node10</title>
<g id="a_node10"><a xlink:href="../../d7/d40/classEMA.html" target="_top" xlink:title=" ">
<polygon fill="white" stroke="black" points="253,-529.5 253,-608.5 419,-608.5 419,-529.5 253,-529.5"/>
<text text-anchor="start" x="261" y="-596.5" font-family="Helvetica,sans-Serif" font-size="10.00">EMA&lt; FILTER_SHIFT_FACTOR,</text>
<text text-anchor="middle" x="336" y="-585.5" font-family="Helvetica,sans-Serif" font-size="10.00"> uint32_t &gt;</text>
<polyline fill="none" stroke="black" points="253,-578.5 419,-578.5 "/>
<text text-anchor="start" x="261" y="-566.5" font-family="Helvetica,sans-Serif" font-size="10.00">&#45; filtered</text>
<text text-anchor="start" x="261" y="-555.5" font-family="Helvetica,sans-Serif" font-size="10.00">&#45; fixedPointAHalf</text>
<polyline fill="none" stroke="black" points="253,-548.5 419,-548.5 "/>
<text text-anchor="start" x="261" y="-536.5" font-family="Helvetica,sans-Serif" font-size="10.00">+ filter()</text>
</a>
</g>
</g>
<!-- Node10&#45;&gt;Node9 -->
<g id="edge12" class="edge"><title>Node10&#45;&gt;Node9</title>
<path fill="none" stroke="#404040" d="M336,-529.394C336,-490.353 336,-428.756 336,-378.433"/>
<polygon fill="none" stroke="#404040" points="336,-378.235 332,-372.235 336,-366.235 340,-372.235 336,-378.235"/>
<text text-anchor="middle" x="348.5" y="-437" font-family="Helvetica,sans-Serif" font-size="10.00"> &#45;filter</text>
</g>
<!-- Node11 -->
<g id="node11" class="node"><title>Node11</title>
<g id="a_node11"><a xlink:href="../../d2/dcb/classHysteresis.html" target="_top" xlink:title=" ">
<polygon fill="white" stroke="black" points="437,-502 437,-636 583,-636 583,-502 437,-502"/>
<text text-anchor="start" x="445" y="-624" font-family="Helvetica,sans-Serif" font-size="10.00">Hysteresis&lt; ADC_BITS</text>
<text text-anchor="start" x="445" y="-613" font-family="Helvetica,sans-Serif" font-size="10.00">+UPSAMPLE &#45; PRECISION,</text>
<text text-anchor="middle" x="510" y="-602" font-family="Helvetica,sans-Serif" font-size="10.00"> analog_t, analog_t &gt;</text>
<polyline fill="none" stroke="black" points="437,-595 583,-595 "/>
<text text-anchor="start" x="445" y="-583" font-family="Helvetica,sans-Serif" font-size="10.00">&#45; prevLevel</text>
<text text-anchor="start" x="445" y="-572" font-family="Helvetica,sans-Serif" font-size="10.00">&#45; margin</text>
<text text-anchor="start" x="445" y="-561" font-family="Helvetica,sans-Serif" font-size="10.00">&#45; offset</text>
<text text-anchor="start" x="445" y="-550" font-family="Helvetica,sans-Serif" font-size="10.00">&#45; max_in</text>
<text text-anchor="start" x="445" y="-539" font-family="Helvetica,sans-Serif" font-size="10.00">&#45; max_out</text>
<polyline fill="none" stroke="black" points="437,-532 583,-532 "/>
<text text-anchor="start" x="445" y="-520" font-family="Helvetica,sans-Serif" font-size="10.00">+ update()</text>
<text text-anchor="start" x="445" y="-509" font-family="Helvetica,sans-Serif" font-size="10.00">+ getValue()</text>
</a>
</g>
</g>
<!-- Node11&#45;&gt;Node9 -->
<g id="edge13" class="edge"><title>Node11&#45;&gt;Node9</title>
<path fill="none" stroke="#404040" d="M467.879,-501.793C443.916,-464.126 413.696,-416.626 388.233,-376.602"/>
<polygon fill="none" stroke="#404040" points="388.14,-376.456 381.544,-373.54 381.699,-366.331 388.294,-369.246 388.14,-376.456"/>
<text text-anchor="middle" x="455" y="-437" font-family="Helvetica,sans-Serif" font-size="10.00"> &#45;hysteresis</text>
</g>
<!-- Node12 -->
<g id="node12" class="node"><title>Node12</title>
<g id="a_node12"><a xlink:title=" ">
<polygon fill="white" stroke="#bfbfbf" points="427.5,-265 427.5,-322 474.5,-322 474.5,-265 427.5,-265"/>
<text text-anchor="middle" x="451" y="-310" font-family="Helvetica,sans-Serif" font-size="10.00">Sender</text>
<polyline fill="none" stroke="#bfbfbf" points="427.5,-303 474.5,-303 "/>
<text text-anchor="middle" x="451" y="-291" font-family="Helvetica,sans-Serif" font-size="10.00"> </text>
<polyline fill="none" stroke="#bfbfbf" points="427.5,-284 474.5,-284 "/>
<text text-anchor="middle" x="451" y="-272" font-family="Helvetica,sans-Serif" font-size="10.00"> </text>
</a>
</g>
</g>
<!-- Node12&#45;&gt;Node1 -->
<g id="edge14" class="edge"><title>Node12&#45;&gt;Node1</title>
<path fill="none" stroke="#404040" d="M447.266,-264.864C442.007,-233.21 430.214,-180.734 406,-142 404.179,-139.087 402.249,-136.176 400.236,-133.284"/>
<polygon fill="none" stroke="#404040" points="400.194,-133.227 393.423,-130.746 393.109,-123.542 399.88,-126.023 400.194,-133.227"/>
<text text-anchor="middle" x="431" y="-145" font-family="Helvetica,sans-Serif" font-size="10.00"> &#45;sender</text>
</g>
<!-- Node13 -->
<g id="node13" class="node"><title>Node13</title>
<g id="a_node13"><a xlink:href="../../d3/d10/classMIDICNChannelAddress.html" target="_top" xlink:title="A type&#45;safe utility class for saving a MIDI address consisting of a 7&#45;bit address,...">
<polygon fill="white" stroke="black" points="493,-171.5 493,-415.5 633,-415.5 633,-171.5 493,-171.5"/>
<text text-anchor="middle" x="563" y="-403.5" font-family="Helvetica,sans-Serif" font-size="10.00">MIDICNChannelAddress</text>
<polyline fill="none" stroke="black" points="493,-396.5 633,-396.5 "/>
<text text-anchor="start" x="501" y="-384.5" font-family="Helvetica,sans-Serif" font-size="10.00">&#45; addresses</text>
<polyline fill="none" stroke="black" points="493,-377.5 633,-377.5 "/>
<text text-anchor="start" x="501" y="-365.5" font-family="Helvetica,sans-Serif" font-size="10.00">+ MIDICNChannelAddress()</text>
<text text-anchor="start" x="501" y="-354.5" font-family="Helvetica,sans-Serif" font-size="10.00">+ MIDICNChannelAddress()</text>
<text text-anchor="start" x="501" y="-343.5" font-family="Helvetica,sans-Serif" font-size="10.00">+ MIDICNChannelAddress()</text>
<text text-anchor="start" x="501" y="-332.5" font-family="Helvetica,sans-Serif" font-size="10.00">+ MIDICNChannelAddress()</text>
<text text-anchor="start" x="501" y="-321.5" font-family="Helvetica,sans-Serif" font-size="10.00">+ MIDICNChannelAddress()</text>
<text text-anchor="start" x="501" y="-310.5" font-family="Helvetica,sans-Serif" font-size="10.00">+ operator+=()</text>
<text text-anchor="start" x="501" y="-299.5" font-family="Helvetica,sans-Serif" font-size="10.00">+ operator&#45;=()</text>
<text text-anchor="start" x="501" y="-288.5" font-family="Helvetica,sans-Serif" font-size="10.00">+ operator+()</text>
<text text-anchor="start" x="501" y="-277.5" font-family="Helvetica,sans-Serif" font-size="10.00">+ operator&#45;()</text>
<text text-anchor="start" x="501" y="-266.5" font-family="Helvetica,sans-Serif" font-size="10.00">+ operator==()</text>
<text text-anchor="start" x="501" y="-255.5" font-family="Helvetica,sans-Serif" font-size="10.00">+ operator!=()</text>
<text text-anchor="start" x="501" y="-244.5" font-family="Helvetica,sans-Serif" font-size="10.00">+ getAddress()</text>
<text text-anchor="start" x="501" y="-233.5" font-family="Helvetica,sans-Serif" font-size="10.00">+ getChannel()</text>
<text text-anchor="start" x="501" y="-222.5" font-family="Helvetica,sans-Serif" font-size="10.00">+ getCableNumber()</text>
<text text-anchor="start" x="501" y="-211.5" font-family="Helvetica,sans-Serif" font-size="10.00">+ isValid()</text>
<text text-anchor="start" x="501" y="-200.5" font-family="Helvetica,sans-Serif" font-size="10.00">+ operator bool()</text>
<text text-anchor="start" x="501" y="-189.5" font-family="Helvetica,sans-Serif" font-size="10.00">+ matchSingle()</text>
<text text-anchor="start" x="501" y="-178.5" font-family="Helvetica,sans-Serif" font-size="10.00">+ matchAddressInRange()</text>
</a>
</g>
</g>
<!-- Node13&#45;&gt;Node1 -->
<g id="edge15" class="edge"><title>Node13&#45;&gt;Node1</title>
<path fill="none" stroke="#404040" d="M492.847,-183.331C489.593,-179.112 486.305,-174.985 483,-171 465.127,-149.447 442.065,-129.899 419.531,-113.542"/>
<polygon fill="none" stroke="#404040" points="419.372,-113.429 412.164,-113.226 409.58,-106.494 416.788,-106.697 419.372,-113.429"/>
<text text-anchor="middle" x="487.5" y="-145" font-family="Helvetica,sans-Serif" font-size="10.00"> &#45;address</text>
</g>
</g>
</svg>
