<?xml version="1.0" encoding="UTF-8" standalone="no"?>
<!DOCTYPE svg PUBLIC "-//W3C//DTD SVG 1.1//EN"
 "http://www.w3.org/Graphics/SVG/1.1/DTD/svg11.dtd">
<!-- Generated by graphviz version 2.38.0 (20140413.2041)
 -->
<!-- Title: Bankable::MIDIFilteredAnalog&lt; BankAddress, Sender &gt; Pages: 1 -->
<svg width="587pt" height="1113pt"
 viewBox="0.00 0.00 587.00 1113.00" xmlns="http://www.w3.org/2000/svg" xmlns:xlink="http://www.w3.org/1999/xlink">
<g id="graph0" class="graph" transform="scale(1 1) rotate(0) translate(4 1109)">
<title>Bankable::MIDIFilteredAnalog&lt; BankAddress, Sender &gt;</title>
<polygon fill="white" stroke="none" points="-4,4 -4,-1109 583,-1109 583,4 -4,4"/>
<!-- Node1 -->
<g id="node1" class="node"><title>Node1</title>
<g id="a_node1"><a xlink:title="A class for potentiometers and faders that send MIDI events (with only a channel, no address) and tha...">
<polygon fill="#bfbfbf" stroke="black" points="125.5,-0.5 125.5,-123.5 272.5,-123.5 272.5,-0.5 125.5,-0.5"/>
<text text-anchor="start" x="133.5" y="-111.5" font-family="Helvetica,sans-Serif" font-size="10.00">Bankable::MIDIFilteredAnalog</text>
<text text-anchor="middle" x="199" y="-100.5" font-family="Helvetica,sans-Serif" font-size="10.00">&lt; BankAddress, Sender &gt;</text>
<polyline fill="none" stroke="black" points="125.5,-93.5 272.5,-93.5 "/>
<text text-anchor="middle" x="199" y="-81.5" font-family="Helvetica,sans-Serif" font-size="10.00"> </text>
<polyline fill="none" stroke="black" points="125.5,-74.5 272.5,-74.5 "/>
<text text-anchor="start" x="133.5" y="-62.5" font-family="Helvetica,sans-Serif" font-size="10.00">+ begin()</text>
<text text-anchor="start" x="133.5" y="-51.5" font-family="Helvetica,sans-Serif" font-size="10.00">+ update()</text>
<text text-anchor="start" x="133.5" y="-40.5" font-family="Helvetica,sans-Serif" font-size="10.00">+ map()</text>
<text text-anchor="start" x="133.5" y="-29.5" font-family="Helvetica,sans-Serif" font-size="10.00">+ getRawValue()</text>
<text text-anchor="start" x="133.5" y="-18.5" font-family="Helvetica,sans-Serif" font-size="10.00">+ getValue()</text>
<text text-anchor="start" x="133.5" y="-7.5" font-family="Helvetica,sans-Serif" font-size="10.00"># MIDIFilteredAnalog()</text>
</a>
</g>
</g>
<!-- Node2 -->
<g id="node2" class="node"><title>Node2</title>
<g id="a_node2"><a xlink:href="../../d5/de0/classUpdatable.html" target="_top" xlink:title=" ">
<polygon fill="white" stroke="black" points="0,-171.5 0,-382.5 104,-382.5 104,-171.5 0,-171.5"/>
<text text-anchor="middle" x="52" y="-370.5" font-family="Helvetica,sans-Serif" font-size="10.00">MIDIOutputElement</text>
<polyline fill="none" stroke="black" points="0,-363.5 104,-363.5 "/>
<text text-anchor="middle" x="52" y="-351.5" font-family="Helvetica,sans-Serif" font-size="10.00"> </text>
<polyline fill="none" stroke="black" points="0,-344.5 104,-344.5 "/>
<text text-anchor="start" x="8" y="-332.5" font-family="Helvetica,sans-Serif" font-size="10.00">+ ~Updatable()</text>
<text text-anchor="start" x="8" y="-321.5" font-family="Helvetica,sans-Serif" font-size="10.00">+ update()</text>
<text text-anchor="start" x="8" y="-310.5" font-family="Helvetica,sans-Serif" font-size="10.00">+ begin()</text>
<text text-anchor="start" x="8" y="-299.5" font-family="Helvetica,sans-Serif" font-size="10.00">+ enable()</text>
<text text-anchor="start" x="8" y="-288.5" font-family="Helvetica,sans-Serif" font-size="10.00">+ disable()</text>
<text text-anchor="start" x="8" y="-277.5" font-family="Helvetica,sans-Serif" font-size="10.00">+ isEnabled()</text>
<text text-anchor="start" x="8" y="-266.5" font-family="Helvetica,sans-Serif" font-size="10.00">+ enable()</text>
<text text-anchor="start" x="8" y="-255.5" font-family="Helvetica,sans-Serif" font-size="10.00">+ enable()</text>
<text text-anchor="start" x="8" y="-244.5" font-family="Helvetica,sans-Serif" font-size="10.00">+ enable()</text>
<text text-anchor="start" x="8" y="-233.5" font-family="Helvetica,sans-Serif" font-size="10.00">+ disable()</text>
<text text-anchor="start" x="8" y="-222.5" font-family="Helvetica,sans-Serif" font-size="10.00">+ disable()</text>
<text text-anchor="start" x="8" y="-211.5" font-family="Helvetica,sans-Serif" font-size="10.00">+ disable()</text>
<text text-anchor="start" x="8" y="-200.5" font-family="Helvetica,sans-Serif" font-size="10.00">+ beginAll()</text>
<text text-anchor="start" x="8" y="-189.5" font-family="Helvetica,sans-Serif" font-size="10.00">+ updateAll()</text>
<text text-anchor="start" x="8" y="-178.5" font-family="Helvetica,sans-Serif" font-size="10.00"># Updatable()</text>
</a>
</g>
</g>
<!-- Node2&#45;&gt;Node1 -->
<g id="edge1" class="edge"><title>Node2&#45;&gt;Node1</title>
<path fill="none" stroke="midnightblue" d="M109.656,-175.956C110.77,-174.285 111.885,-172.632 113,-171 123.817,-155.168 136.272,-138.684 148.285,-123.502"/>
<polygon fill="none" stroke="midnightblue" points="106.652,-174.154 104.106,-184.438 112.51,-177.987 106.652,-174.154"/>
</g>
<!-- Node3 -->
<g id="node3" class="node"><title>Node3</title>
<g id="a_node3"><a xlink:href="../../d4/d23/classDoublyLinkable.html" target="_top" xlink:title=" ">
<polygon fill="white" stroke="black" points="30.5,-1036.5 30.5,-1104.5 167.5,-1104.5 167.5,-1036.5 30.5,-1036.5"/>
<text text-anchor="start" x="38.5" y="-1092.5" font-family="Helvetica,sans-Serif" font-size="10.00">DoublyLinkable&lt; Updatable</text>
<text text-anchor="middle" x="99" y="-1081.5" font-family="Helvetica,sans-Serif" font-size="10.00">&lt; NormalUpdatable &gt; &gt;</text>
<polyline fill="none" stroke="black" points="30.5,-1074.5 167.5,-1074.5 "/>
<text text-anchor="middle" x="99" y="-1062.5" font-family="Helvetica,sans-Serif" font-size="10.00"> </text>
<polyline fill="none" stroke="black" points="30.5,-1055.5 167.5,-1055.5 "/>
<text text-anchor="start" x="38.5" y="-1043.5" font-family="Helvetica,sans-Serif" font-size="10.00"># ~DoublyLinkable()</text>
</a>
</g>
</g>
<!-- Node3&#45;&gt;Node2 -->
<g id="edge2" class="edge"><title>Node3&#45;&gt;Node2</title>
<path fill="none" stroke="midnightblue" d="M68.0676,-1027.8C58.7555,-1012.86 49.7525,-995.403 45,-978 -19.1603,-743.047 39.3963,-673.491 45,-430 45.3525,-414.682 45.9046,-398.503 46.5478,-382.639"/>
<polygon fill="none" stroke="midnightblue" points="65.1849,-1029.79 73.5563,-1036.28 71.0617,-1025.98 65.1849,-1029.79"/>
</g>
<!-- Node4 -->
<g id="node4" class="node"><title>Node4</title>
<g id="a_node4"><a xlink:href="../../d5/de0/classUpdatable.html" target="_top" xlink:title=" ">
<polygon fill="white" stroke="black" points="54.5,-766.5 54.5,-977.5 209.5,-977.5 209.5,-766.5 54.5,-766.5"/>
<text text-anchor="middle" x="132" y="-965.5" font-family="Helvetica,sans-Serif" font-size="10.00">Updatable&lt; NormalUpdatable &gt;</text>
<polyline fill="none" stroke="black" points="54.5,-958.5 209.5,-958.5 "/>
<text text-anchor="middle" x="132" y="-946.5" font-family="Helvetica,sans-Serif" font-size="10.00"> </text>
<polyline fill="none" stroke="black" points="54.5,-939.5 209.5,-939.5 "/>
<text text-anchor="start" x="62.5" y="-927.5" font-family="Helvetica,sans-Serif" font-size="10.00">+ ~Updatable()</text>
<text text-anchor="start" x="62.5" y="-916.5" font-family="Helvetica,sans-Serif" font-size="10.00">+ update()</text>
<text text-anchor="start" x="62.5" y="-905.5" font-family="Helvetica,sans-Serif" font-size="10.00">+ begin()</text>
<text text-anchor="start" x="62.5" y="-894.5" font-family="Helvetica,sans-Serif" font-size="10.00">+ enable()</text>
<text text-anchor="start" x="62.5" y="-883.5" font-family="Helvetica,sans-Serif" font-size="10.00">+ disable()</text>
<text text-anchor="start" x="62.5" y="-872.5" font-family="Helvetica,sans-Serif" font-size="10.00">+ isEnabled()</text>
<text text-anchor="start" x="62.5" y="-861.5" font-family="Helvetica,sans-Serif" font-size="10.00">+ enable()</text>
<text text-anchor="start" x="62.5" y="-850.5" font-family="Helvetica,sans-Serif" font-size="10.00">+ enable()</text>
<text text-anchor="start" x="62.5" y="-839.5" font-family="Helvetica,sans-Serif" font-size="10.00">+ enable()</text>
<text text-anchor="start" x="62.5" y="-828.5" font-family="Helvetica,sans-Serif" font-size="10.00">+ disable()</text>
<text text-anchor="start" x="62.5" y="-817.5" font-family="Helvetica,sans-Serif" font-size="10.00">+ disable()</text>
<text text-anchor="start" x="62.5" y="-806.5" font-family="Helvetica,sans-Serif" font-size="10.00">+ disable()</text>
<text text-anchor="start" x="62.5" y="-795.5" font-family="Helvetica,sans-Serif" font-size="10.00">+ beginAll()</text>
<text text-anchor="start" x="62.5" y="-784.5" font-family="Helvetica,sans-Serif" font-size="10.00">+ updateAll()</text>
<text text-anchor="start" x="62.5" y="-773.5" font-family="Helvetica,sans-Serif" font-size="10.00"># Updatable()</text>
</a>
</g>
</g>
<!-- Node3&#45;&gt;Node4 -->
<g id="edge4" class="edge"><title>Node3&#45;&gt;Node4</title>
<path fill="none" stroke="midnightblue" d="M106.293,-1026.07C108.724,-1011.6 111.546,-994.794 114.412,-977.727"/>
<polygon fill="none" stroke="midnightblue" points="102.803,-1025.72 104.598,-1036.17 109.706,-1026.88 102.803,-1025.72"/>
</g>
<!-- Node4&#45;&gt;Node3 -->
<g id="edge3" class="edge"><title>Node4&#45;&gt;Node3</title>
<path fill="none" stroke="#404040" d="M116.882,-977.669C114.696,-991.259 112.377,-1004.98 110,-1018 109.611,-1020.13 109.199,-1022.31 108.773,-1024.51"/>
<polygon fill="none" stroke="#404040" points="108.765,-1024.55 111.5,-1031.22 106.393,-1036.31 103.658,-1029.64 108.765,-1024.55"/>
<text text-anchor="middle" x="135.5" y="-1010" font-family="Helvetica,sans-Serif" font-size="10.00"> #next</text>
<text text-anchor="middle" x="135.5" y="-999" font-family="Helvetica,sans-Serif" font-size="10.00">#previous</text>
</g>
<!-- Node5 -->
<g id="node5" class="node"><title>Node5</title>
<g id="a_node5"><a xlink:href="../../dd/d16/classDoublyLinkedList.html" target="_top" xlink:title=" ">
<polygon fill="white" stroke="black" points="54.5,-430.5 54.5,-707.5 199.5,-707.5 199.5,-430.5 54.5,-430.5"/>
<text text-anchor="start" x="62.5" y="-695.5" font-family="Helvetica,sans-Serif" font-size="10.00">DoublyLinkedList&lt; Updatable</text>
<text text-anchor="middle" x="127" y="-684.5" font-family="Helvetica,sans-Serif" font-size="10.00">&lt; NormalUpdatable &gt; &gt;</text>
<polyline fill="none" stroke="black" points="54.5,-677.5 199.5,-677.5 "/>
<text text-anchor="middle" x="127" y="-665.5" font-family="Helvetica,sans-Serif" font-size="10.00"> </text>
<polyline fill="none" stroke="black" points="54.5,-658.5 199.5,-658.5 "/>
<text text-anchor="start" x="62.5" y="-646.5" font-family="Helvetica,sans-Serif" font-size="10.00">+ append()</text>
<text text-anchor="start" x="62.5" y="-635.5" font-family="Helvetica,sans-Serif" font-size="10.00">+ append()</text>
<text text-anchor="start" x="62.5" y="-624.5" font-family="Helvetica,sans-Serif" font-size="10.00">+ insertBefore()</text>
<text text-anchor="start" x="62.5" y="-613.5" font-family="Helvetica,sans-Serif" font-size="10.00">+ insertBefore()</text>
<text text-anchor="start" x="62.5" y="-602.5" font-family="Helvetica,sans-Serif" font-size="10.00">+ insertSorted()</text>
<text text-anchor="start" x="62.5" y="-591.5" font-family="Helvetica,sans-Serif" font-size="10.00">+ insertSorted()</text>
<text text-anchor="start" x="62.5" y="-580.5" font-family="Helvetica,sans-Serif" font-size="10.00">+ remove()</text>
<text text-anchor="start" x="62.5" y="-569.5" font-family="Helvetica,sans-Serif" font-size="10.00">+ remove()</text>
<text text-anchor="start" x="62.5" y="-558.5" font-family="Helvetica,sans-Serif" font-size="10.00">+ moveDown()</text>
<text text-anchor="start" x="62.5" y="-547.5" font-family="Helvetica,sans-Serif" font-size="10.00">+ couldContain()</text>
<text text-anchor="start" x="62.5" y="-536.5" font-family="Helvetica,sans-Serif" font-size="10.00">+ begin()</text>
<text text-anchor="start" x="62.5" y="-525.5" font-family="Helvetica,sans-Serif" font-size="10.00">+ begin()</text>
<text text-anchor="start" x="62.5" y="-514.5" font-family="Helvetica,sans-Serif" font-size="10.00">+ end()</text>
<text text-anchor="start" x="62.5" y="-503.5" font-family="Helvetica,sans-Serif" font-size="10.00">+ end()</text>
<text text-anchor="start" x="62.5" y="-492.5" font-family="Helvetica,sans-Serif" font-size="10.00">+ rbegin()</text>
<text text-anchor="start" x="62.5" y="-481.5" font-family="Helvetica,sans-Serif" font-size="10.00">+ rbegin()</text>
<text text-anchor="start" x="62.5" y="-470.5" font-family="Helvetica,sans-Serif" font-size="10.00">+ rend()</text>
<text text-anchor="start" x="62.5" y="-459.5" font-family="Helvetica,sans-Serif" font-size="10.00">+ rend()</text>
<text text-anchor="start" x="62.5" y="-448.5" font-family="Helvetica,sans-Serif" font-size="10.00">+ getFirst()</text>
<text text-anchor="start" x="62.5" y="-437.5" font-family="Helvetica,sans-Serif" font-size="10.00">+ getLast()</text>
</a>
</g>
</g>
<!-- Node4&#45;&gt;Node5 -->
<g id="edge6" class="edge"><title>Node4&#45;&gt;Node5</title>
<path fill="none" stroke="#404040" d="M106.507,-766.258C105.524,-760.103 104.673,-753.985 104,-748 102.972,-738.856 102.488,-729.452 102.435,-719.972"/>
<polygon fill="none" stroke="#404040" points="102.435,-719.934 98.513,-713.883 102.59,-707.935 106.512,-713.986 102.435,-719.934"/>
<text text-anchor="middle" x="115" y="-740" font-family="Helvetica,sans-Serif" font-size="10.00"> &#45;last</text>
<text text-anchor="middle" x="115" y="-729" font-family="Helvetica,sans-Serif" font-size="10.00">&#45;first</text>
</g>
<!-- Node5&#45;&gt;Node2 -->
<g id="edge7" class="edge"><title>Node5&#45;&gt;Node2</title>
<path fill="none" stroke="#404040" d="M91.367,-430.219C88.2772,-418.272 85.1705,-406.259 82.131,-394.507"/>
<polygon fill="none" stroke="#404040" points="82.1218,-394.471 76.7468,-389.663 79.1171,-382.853 84.492,-387.66 82.1218,-394.471"/>
<text text-anchor="middle" x="113" y="-404" font-family="Helvetica,sans-Serif" font-size="10.00"> &#45;updatables</text>
</g>
<!-- Node5&#45;&gt;Node4 -->
<g id="edge5" class="edge"><title>Node5&#45;&gt;Node4</title>
<path fill="none" stroke="#404040" d="M129.691,-707.806C129.798,-713.955 129.902,-720.041 130,-726 130.152,-735.204 130.301,-744.736 130.446,-754.316"/>
<polygon fill="none" stroke="#404040" points="130.448,-754.455 134.536,-760.395 130.626,-766.454 126.537,-760.514 130.448,-754.455"/>
<text text-anchor="middle" x="158" y="-734.5" font-family="Helvetica,sans-Serif" font-size="10.00"> &#45;updatables</text>
</g>
<!-- Node6 -->
<g id="node6" class="node"><title>Node6</title>
<g id="a_node6"><a xlink:title=" ">
<polygon fill="white" stroke="#bfbfbf" points="122.5,-248.5 122.5,-305.5 197.5,-305.5 197.5,-248.5 122.5,-248.5"/>
<text text-anchor="middle" x="160" y="-293.5" font-family="Helvetica,sans-Serif" font-size="10.00">BankAddress</text>
<polyline fill="none" stroke="#bfbfbf" points="122.5,-286.5 197.5,-286.5 "/>
<text text-anchor="middle" x="160" y="-274.5" font-family="Helvetica,sans-Serif" font-size="10.00"> </text>
<polyline fill="none" stroke="#bfbfbf" points="122.5,-267.5 197.5,-267.5 "/>
<text text-anchor="middle" x="160" y="-255.5" font-family="Helvetica,sans-Serif" font-size="10.00"> </text>
</a>
</g>
</g>
<!-- Node6&#45;&gt;Node1 -->
<g id="edge8" class="edge"><title>Node6&#45;&gt;Node1</title>
<path fill="none" stroke="#404040" d="M161.967,-248.328C164.217,-221.084 168.583,-178.387 176,-142 176.441,-139.837 176.912,-137.647 177.409,-135.442"/>
<polygon fill="none" stroke="#404040" points="177.461,-135.227 174.98,-128.456 180.277,-123.562 182.757,-130.333 177.461,-135.227"/>
<text text-anchor="middle" x="196.5" y="-145" font-family="Helvetica,sans-Serif" font-size="10.00"> &#45;address</text>
</g>
<!-- Node7 -->
<g id="node7" class="node"><title>Node7</title>
<g id="a_node7"><a xlink:title=" ">
<polygon fill="white" stroke="#bfbfbf" points="215.5,-248.5 215.5,-305.5 262.5,-305.5 262.5,-248.5 215.5,-248.5"/>
<text text-anchor="middle" x="239" y="-293.5" font-family="Helvetica,sans-Serif" font-size="10.00">Sender</text>
<polyline fill="none" stroke="#bfbfbf" points="215.5,-286.5 262.5,-286.5 "/>
<text text-anchor="middle" x="239" y="-274.5" font-family="Helvetica,sans-Serif" font-size="10.00"> </text>
<polyline fill="none" stroke="#bfbfbf" points="215.5,-267.5 262.5,-267.5 "/>
<text text-anchor="middle" x="239" y="-255.5" font-family="Helvetica,sans-Serif" font-size="10.00"> </text>
</a>
</g>
</g>
<!-- Node7&#45;&gt;Node1 -->
<g id="edge9" class="edge"><title>Node7&#45;&gt;Node1</title>
<path fill="none" stroke="#404040" d="M234.982,-248.452C230.903,-221.299 224.181,-178.67 217,-142 216.582,-139.867 216.149,-137.703 215.705,-135.521"/>
<polygon fill="none" stroke="#404040" points="215.696,-135.479 210.55,-130.427 213.233,-123.734 218.379,-128.785 215.696,-135.479"/>
<text text-anchor="middle" x="239.5" y="-145" font-family="Helvetica,sans-Serif" font-size="10.00"> +sender</text>
</g>
<!-- Node8 -->
<g id="node8" class="node"><title>Node8</title>
<g id="a_node8"><a xlink:href="../../da/da7/classFilteredAnalog.html" target="_top" xlink:title=" ">
<polygon fill="white" stroke="black" points="281,-199 281,-355 447,-355 447,-199 281,-199"/>
<text text-anchor="start" x="289" y="-343" font-family="Helvetica,sans-Serif" font-size="10.00">FilteredAnalog&lt; Sender</text>
<text text-anchor="start" x="289" y="-332" font-family="Helvetica,sans-Serif" font-size="10.00">::precision(), 16 &#45; ADC</text>
<text text-anchor="start" x="289" y="-321" font-family="Helvetica,sans-Serif" font-size="10.00">_BITS, ANALOG_FILTER_SHIFT</text>
<text text-anchor="middle" x="364" y="-310" font-family="Helvetica,sans-Serif" font-size="10.00">_FACTOR, uint32_t &gt;</text>
<polyline fill="none" stroke="black" points="281,-303 447,-303 "/>
<text text-anchor="start" x="289" y="-291" font-family="Helvetica,sans-Serif" font-size="10.00">&#45; analogPin</text>
<text text-anchor="start" x="289" y="-280" font-family="Helvetica,sans-Serif" font-size="10.00">&#45; mapFn</text>
<polyline fill="none" stroke="black" points="281,-273 447,-273 "/>
<text text-anchor="start" x="289" y="-261" font-family="Helvetica,sans-Serif" font-size="10.00">+ FilteredAnalog()</text>
<text text-anchor="start" x="289" y="-250" font-family="Helvetica,sans-Serif" font-size="10.00">+ map()</text>
<text text-anchor="start" x="289" y="-239" font-family="Helvetica,sans-Serif" font-size="10.00">+ update()</text>
<text text-anchor="start" x="289" y="-228" font-family="Helvetica,sans-Serif" font-size="10.00">+ getValue()</text>
<text text-anchor="start" x="289" y="-217" font-family="Helvetica,sans-Serif" font-size="10.00">+ getFloatValue()</text>
<text text-anchor="start" x="289" y="-206" font-family="Helvetica,sans-Serif" font-size="10.00">+ getRawValue()</text>
</a>
</g>
</g>
<!-- Node8&#45;&gt;Node1 -->
<g id="edge10" class="edge"><title>Node8&#45;&gt;Node1</title>
<path fill="none" stroke="#404040" d="M306.509,-198.765C292.406,-180.085 277.262,-160.248 263,-142 260.736,-139.103 258.417,-136.155 256.067,-133.183"/>
<polygon fill="none" stroke="#404040" points="255.95,-133.036 249.085,-130.828 248.483,-123.642 255.348,-125.85 255.95,-133.036"/>
<text text-anchor="middle" x="305" y="-145" font-family="Helvetica,sans-Serif" font-size="10.00"> &#45;filteredAnalog</text>
</g>
<!-- Node9 -->
<g id="node9" class="node"><title>Node9</title>
<g id="a_node9"><a xlink:href="../../d7/d40/classEMA.html" target="_top" xlink:title=" ">
<polygon fill="white" stroke="black" points="249,-529.5 249,-608.5 415,-608.5 415,-529.5 249,-529.5"/>
<text text-anchor="start" x="257" y="-596.5" font-family="Helvetica,sans-Serif" font-size="10.00">EMA&lt; FILTER_SHIFT_FACTOR,</text>
<text text-anchor="middle" x="332" y="-585.5" font-family="Helvetica,sans-Serif" font-size="10.00"> uint32_t &gt;</text>
<polyline fill="none" stroke="black" points="249,-578.5 415,-578.5 "/>
<text text-anchor="start" x="257" y="-566.5" font-family="Helvetica,sans-Serif" font-size="10.00">&#45; filtered</text>
<text text-anchor="start" x="257" y="-555.5" font-family="Helvetica,sans-Serif" font-size="10.00">&#45; fixedPointAHalf</text>
<polyline fill="none" stroke="black" points="249,-548.5 415,-548.5 "/>
<text text-anchor="start" x="257" y="-536.5" font-family="Helvetica,sans-Serif" font-size="10.00">+ filter()</text>
</a>
</g>
</g>
<!-- Node9&#45;&gt;Node8 -->
<g id="edge11" class="edge"><title>Node9&#45;&gt;Node8</title>
<path fill="none" stroke="#404040" d="M336.249,-529.49C340.794,-488.309 348.156,-421.586 354.156,-367.213"/>
<polygon fill="none" stroke="#404040" points="354.176,-367.032 350.858,-360.629 355.492,-355.104 358.81,-361.507 354.176,-367.032"/>
<text text-anchor="middle" x="362.5" y="-404" font-family="Helvetica,sans-Serif" font-size="10.00"> &#45;filter</text>
</g>
<!-- Node10 -->
<g id="node10" class="node"><title>Node10</title>
<g id="a_node10"><a xlink:href="../../d2/dcb/classHysteresis.html" target="_top" xlink:title=" ">
<polygon fill="white" stroke="black" points="433,-502 433,-636 579,-636 579,-502 433,-502"/>
<text text-anchor="start" x="441" y="-624" font-family="Helvetica,sans-Serif" font-size="10.00">Hysteresis&lt; ADC_BITS</text>
<text text-anchor="start" x="441" y="-613" font-family="Helvetica,sans-Serif" font-size="10.00">+UPSAMPLE &#45; PRECISION,</text>
<text text-anchor="middle" x="506" y="-602" font-family="Helvetica,sans-Serif" font-size="10.00"> analog_t, analog_t &gt;</text>
<polyline fill="none" stroke="black" points="433,-595 579,-595 "/>
<text text-anchor="start" x="441" y="-583" font-family="Helvetica,sans-Serif" font-size="10.00">&#45; prevLevel</text>
<text text-anchor="start" x="441" y="-572" font-family="Helvetica,sans-Serif" font-size="10.00">&#45; margin</text>
<text text-anchor="start" x="441" y="-561" font-family="Helvetica,sans-Serif" font-size="10.00">&#45; offset</text>
<text text-anchor="start" x="441" y="-550" font-family="Helvetica,sans-Serif" font-size="10.00">&#45; max_in</text>
<text text-anchor="start" x="441" y="-539" font-family="Helvetica,sans-Serif" font-size="10.00">&#45; max_out</text>
<polyline fill="none" stroke="black" points="433,-532 579,-532 "/>
<text text-anchor="start" x="441" y="-520" font-family="Helvetica,sans-Serif" font-size="10.00">+ update()</text>
<text text-anchor="start" x="441" y="-509" font-family="Helvetica,sans-Serif" font-size="10.00">+ getValue()</text>
</a>
</g>
</g>
<!-- Node10&#45;&gt;Node8 -->
<g id="edge12" class="edge"><title>Node10&#45;&gt;Node8</title>
<path fill="none" stroke="#404040" d="M473.6,-501.832C453.905,-461.609 428.517,-409.759 407.135,-366.093"/>
<polygon fill="none" stroke="#404040" points="407.069,-365.957 400.838,-362.328 401.792,-355.18 408.023,-358.809 407.069,-365.957"/>
<text text-anchor="middle" x="453" y="-404" font-family="Helvetica,sans-Serif" font-size="10.00"> &#45;hysteresis</text>
</g>
</g>
</svg>
