<?xml version="1.0" encoding="UTF-8" standalone="no"?>
<!DOCTYPE svg PUBLIC "-//W3C//DTD SVG 1.1//EN"
 "http://www.w3.org/Graphics/SVG/1.1/DTD/svg11.dtd">
<!-- Generated by graphviz version 2.38.0 (20140413.2041)
 -->
<!-- Title: Bankable::MIDIFilteredAnalog&lt; Sender &gt; Pages: 1 -->
<svg width="829pt" height="1146pt"
 viewBox="0.00 0.00 828.86 1146.00" xmlns="http://www.w3.org/2000/svg" xmlns:xlink="http://www.w3.org/1999/xlink">
<g id="graph0" class="graph" transform="scale(1 1) rotate(0) translate(4 1142)">
<title>Bankable::MIDIFilteredAnalog&lt; Sender &gt;</title>
<polygon fill="white" stroke="none" points="-4,4 -4,-1142 824.863,-1142 824.863,4 -4,4"/>
<!-- Node1 -->
<g id="node1" class="node"><title>Node1</title>
<g id="a_node1"><a xlink:title="A class for potentiometers and faders that send MIDI events (with only a channel, no address) and tha...">
<polygon fill="#bfbfbf" stroke="black" points="304.363,-0.5 304.363,-123.5 451.363,-123.5 451.363,-0.5 304.363,-0.5"/>
<text text-anchor="start" x="312.363" y="-111.5" font-family="Helvetica,sans-Serif" font-size="10.00">Bankable::MIDIFilteredAnalog</text>
<text text-anchor="middle" x="377.863" y="-100.5" font-family="Helvetica,sans-Serif" font-size="10.00">&lt; Sender &gt;</text>
<polyline fill="none" stroke="black" points="304.363,-93.5 451.363,-93.5 "/>
<text text-anchor="middle" x="377.863" y="-81.5" font-family="Helvetica,sans-Serif" font-size="10.00"> </text>
<polyline fill="none" stroke="black" points="304.363,-74.5 451.363,-74.5 "/>
<text text-anchor="start" x="312.363" y="-62.5" font-family="Helvetica,sans-Serif" font-size="10.00">+ begin()</text>
<text text-anchor="start" x="312.363" y="-51.5" font-family="Helvetica,sans-Serif" font-size="10.00">+ update()</text>
<text text-anchor="start" x="312.363" y="-40.5" font-family="Helvetica,sans-Serif" font-size="10.00">+ map()</text>
<text text-anchor="start" x="312.363" y="-29.5" font-family="Helvetica,sans-Serif" font-size="10.00">+ getRawValue()</text>
<text text-anchor="start" x="312.363" y="-18.5" font-family="Helvetica,sans-Serif" font-size="10.00">+ getValue()</text>
<text text-anchor="start" x="312.363" y="-7.5" font-family="Helvetica,sans-Serif" font-size="10.00"># MIDIFilteredAnalog()</text>
</a>
</g>
</g>
<!-- Node2 -->
<g id="node2" class="node"><title>Node2</title>
<g id="a_node2"><a xlink:href="../../d5/de0/classUpdatable.html" target="_top" xlink:title=" ">
<polygon fill="white" stroke="black" points="74.8627,-188 74.8627,-399 178.863,-399 178.863,-188 74.8627,-188"/>
<text text-anchor="middle" x="126.863" y="-387" font-family="Helvetica,sans-Serif" font-size="10.00">MIDIOutputElement</text>
<polyline fill="none" stroke="black" points="74.8627,-380 178.863,-380 "/>
<text text-anchor="middle" x="126.863" y="-368" font-family="Helvetica,sans-Serif" font-size="10.00"> </text>
<polyline fill="none" stroke="black" points="74.8627,-361 178.863,-361 "/>
<text text-anchor="start" x="82.8627" y="-349" font-family="Helvetica,sans-Serif" font-size="10.00">+ ~Updatable()</text>
<text text-anchor="start" x="82.8627" y="-338" font-family="Helvetica,sans-Serif" font-size="10.00">+ update()</text>
<text text-anchor="start" x="82.8627" y="-327" font-family="Helvetica,sans-Serif" font-size="10.00">+ begin()</text>
<text text-anchor="start" x="82.8627" y="-316" font-family="Helvetica,sans-Serif" font-size="10.00">+ enable()</text>
<text text-anchor="start" x="82.8627" y="-305" font-family="Helvetica,sans-Serif" font-size="10.00">+ disable()</text>
<text text-anchor="start" x="82.8627" y="-294" font-family="Helvetica,sans-Serif" font-size="10.00">+ isEnabled()</text>
<text text-anchor="start" x="82.8627" y="-283" font-family="Helvetica,sans-Serif" font-size="10.00">+ enable()</text>
<text text-anchor="start" x="82.8627" y="-272" font-family="Helvetica,sans-Serif" font-size="10.00">+ enable()</text>
<text text-anchor="start" x="82.8627" y="-261" font-family="Helvetica,sans-Serif" font-size="10.00">+ enable()</text>
<text text-anchor="start" x="82.8627" y="-250" font-family="Helvetica,sans-Serif" font-size="10.00">+ disable()</text>
<text text-anchor="start" x="82.8627" y="-239" font-family="Helvetica,sans-Serif" font-size="10.00">+ disable()</text>
<text text-anchor="start" x="82.8627" y="-228" font-family="Helvetica,sans-Serif" font-size="10.00">+ disable()</text>
<text text-anchor="start" x="82.8627" y="-217" font-family="Helvetica,sans-Serif" font-size="10.00">+ beginAll()</text>
<text text-anchor="start" x="82.8627" y="-206" font-family="Helvetica,sans-Serif" font-size="10.00">+ updateAll()</text>
<text text-anchor="start" x="82.8627" y="-195" font-family="Helvetica,sans-Serif" font-size="10.00"># Updatable()</text>
</a>
</g>
</g>
<!-- Node2&#45;&gt;Node1 -->
<g id="edge1" class="edge"><title>Node2&#45;&gt;Node1</title>
<path fill="none" stroke="midnightblue" d="M185.17,-193.177C191.387,-185.319 197.973,-177.803 204.863,-171 233.71,-142.515 271.36,-117.906 304.169,-99.4034"/>
<polygon fill="none" stroke="midnightblue" points="182.377,-191.069 179.078,-201.137 187.935,-195.323 182.377,-191.069"/>
</g>
<!-- Node3 -->
<g id="node3" class="node"><title>Node3</title>
<g id="a_node3"><a xlink:href="../../d4/d23/classDoublyLinkable.html" target="_top" xlink:title=" ">
<polygon fill="white" stroke="black" points="30.3627,-1069.5 30.3627,-1137.5 167.363,-1137.5 167.363,-1069.5 30.3627,-1069.5"/>
<text text-anchor="start" x="38.3627" y="-1125.5" font-family="Helvetica,sans-Serif" font-size="10.00">DoublyLinkable&lt; Updatable</text>
<text text-anchor="middle" x="98.8627" y="-1114.5" font-family="Helvetica,sans-Serif" font-size="10.00">&lt; NormalUpdatable &gt; &gt;</text>
<polyline fill="none" stroke="black" points="30.3627,-1107.5 167.363,-1107.5 "/>
<text text-anchor="middle" x="98.8627" y="-1095.5" font-family="Helvetica,sans-Serif" font-size="10.00"> </text>
<polyline fill="none" stroke="black" points="30.3627,-1088.5 167.363,-1088.5 "/>
<text text-anchor="start" x="38.3627" y="-1076.5" font-family="Helvetica,sans-Serif" font-size="10.00"># ~DoublyLinkable()</text>
</a>
</g>
</g>
<!-- Node3&#45;&gt;Node2 -->
<g id="edge2" class="edge"><title>Node3&#45;&gt;Node2</title>
<path fill="none" stroke="midnightblue" d="M67.9303,-1060.8C58.6182,-1045.86 49.6152,-1028.4 44.8627,-1011 -19.2975,-776.047 -9.82124,-700.337 44.8627,-463 51.1446,-435.735 62.4599,-407.773 74.7178,-382.659"/>
<polygon fill="none" stroke="midnightblue" points="65.0477,-1062.79 73.4191,-1069.28 70.9245,-1058.98 65.0477,-1062.79"/>
</g>
<!-- Node4 -->
<g id="node4" class="node"><title>Node4</title>
<g id="a_node4"><a xlink:href="../../d5/de0/classUpdatable.html" target="_top" xlink:title=" ">
<polygon fill="white" stroke="black" points="54.3627,-799.5 54.3627,-1010.5 209.363,-1010.5 209.363,-799.5 54.3627,-799.5"/>
<text text-anchor="middle" x="131.863" y="-998.5" font-family="Helvetica,sans-Serif" font-size="10.00">Updatable&lt; NormalUpdatable &gt;</text>
<polyline fill="none" stroke="black" points="54.3627,-991.5 209.363,-991.5 "/>
<text text-anchor="middle" x="131.863" y="-979.5" font-family="Helvetica,sans-Serif" font-size="10.00"> </text>
<polyline fill="none" stroke="black" points="54.3627,-972.5 209.363,-972.5 "/>
<text text-anchor="start" x="62.3627" y="-960.5" font-family="Helvetica,sans-Serif" font-size="10.00">+ ~Updatable()</text>
<text text-anchor="start" x="62.3627" y="-949.5" font-family="Helvetica,sans-Serif" font-size="10.00">+ update()</text>
<text text-anchor="start" x="62.3627" y="-938.5" font-family="Helvetica,sans-Serif" font-size="10.00">+ begin()</text>
<text text-anchor="start" x="62.3627" y="-927.5" font-family="Helvetica,sans-Serif" font-size="10.00">+ enable()</text>
<text text-anchor="start" x="62.3627" y="-916.5" font-family="Helvetica,sans-Serif" font-size="10.00">+ disable()</text>
<text text-anchor="start" x="62.3627" y="-905.5" font-family="Helvetica,sans-Serif" font-size="10.00">+ isEnabled()</text>
<text text-anchor="start" x="62.3627" y="-894.5" font-family="Helvetica,sans-Serif" font-size="10.00">+ enable()</text>
<text text-anchor="start" x="62.3627" y="-883.5" font-family="Helvetica,sans-Serif" font-size="10.00">+ enable()</text>
<text text-anchor="start" x="62.3627" y="-872.5" font-family="Helvetica,sans-Serif" font-size="10.00">+ enable()</text>
<text text-anchor="start" x="62.3627" y="-861.5" font-family="Helvetica,sans-Serif" font-size="10.00">+ disable()</text>
<text text-anchor="start" x="62.3627" y="-850.5" font-family="Helvetica,sans-Serif" font-size="10.00">+ disable()</text>
<text text-anchor="start" x="62.3627" y="-839.5" font-family="Helvetica,sans-Serif" font-size="10.00">+ disable()</text>
<text text-anchor="start" x="62.3627" y="-828.5" font-family="Helvetica,sans-Serif" font-size="10.00">+ beginAll()</text>
<text text-anchor="start" x="62.3627" y="-817.5" font-family="Helvetica,sans-Serif" font-size="10.00">+ updateAll()</text>
<text text-anchor="start" x="62.3627" y="-806.5" font-family="Helvetica,sans-Serif" font-size="10.00"># Updatable()</text>
</a>
</g>
</g>
<!-- Node3&#45;&gt;Node4 -->
<g id="edge4" class="edge"><title>Node3&#45;&gt;Node4</title>
<path fill="none" stroke="midnightblue" d="M106.156,-1059.07C108.586,-1044.6 111.409,-1027.79 114.275,-1010.73"/>
<polygon fill="none" stroke="midnightblue" points="102.665,-1058.72 104.461,-1069.17 109.569,-1059.88 102.665,-1058.72"/>
</g>
<!-- Node4&#45;&gt;Node3 -->
<g id="edge3" class="edge"><title>Node4&#45;&gt;Node3</title>
<path fill="none" stroke="#404040" d="M116.745,-1010.67C114.559,-1024.26 112.24,-1037.98 109.863,-1051 109.473,-1053.13 109.062,-1055.31 108.635,-1057.51"/>
<polygon fill="none" stroke="#404040" points="108.628,-1057.55 111.363,-1064.22 106.256,-1069.31 103.521,-1062.64 108.628,-1057.55"/>
<text text-anchor="middle" x="135.363" y="-1043" font-family="Helvetica,sans-Serif" font-size="10.00"> #next</text>
<text text-anchor="middle" x="135.363" y="-1032" font-family="Helvetica,sans-Serif" font-size="10.00">#previous</text>
</g>
<!-- Node5 -->
<g id="node5" class="node"><title>Node5</title>
<g id="a_node5"><a xlink:href="../../dd/d16/classDoublyLinkedList.html" target="_top" xlink:title=" ">
<polygon fill="white" stroke="black" points="54.3627,-463.5 54.3627,-740.5 199.363,-740.5 199.363,-463.5 54.3627,-463.5"/>
<text text-anchor="start" x="62.3627" y="-728.5" font-family="Helvetica,sans-Serif" font-size="10.00">DoublyLinkedList&lt; Updatable</text>
<text text-anchor="middle" x="126.863" y="-717.5" font-family="Helvetica,sans-Serif" font-size="10.00">&lt; NormalUpdatable &gt; &gt;</text>
<polyline fill="none" stroke="black" points="54.3627,-710.5 199.363,-710.5 "/>
<text text-anchor="middle" x="126.863" y="-698.5" font-family="Helvetica,sans-Serif" font-size="10.00"> </text>
<polyline fill="none" stroke="black" points="54.3627,-691.5 199.363,-691.5 "/>
<text text-anchor="start" x="62.3627" y="-679.5" font-family="Helvetica,sans-Serif" font-size="10.00">+ append()</text>
<text text-anchor="start" x="62.3627" y="-668.5" font-family="Helvetica,sans-Serif" font-size="10.00">+ append()</text>
<text text-anchor="start" x="62.3627" y="-657.5" font-family="Helvetica,sans-Serif" font-size="10.00">+ insertBefore()</text>
<text text-anchor="start" x="62.3627" y="-646.5" font-family="Helvetica,sans-Serif" font-size="10.00">+ insertBefore()</text>
<text text-anchor="start" x="62.3627" y="-635.5" font-family="Helvetica,sans-Serif" font-size="10.00">+ insertSorted()</text>
<text text-anchor="start" x="62.3627" y="-624.5" font-family="Helvetica,sans-Serif" font-size="10.00">+ insertSorted()</text>
<text text-anchor="start" x="62.3627" y="-613.5" font-family="Helvetica,sans-Serif" font-size="10.00">+ remove()</text>
<text text-anchor="start" x="62.3627" y="-602.5" font-family="Helvetica,sans-Serif" font-size="10.00">+ remove()</text>
<text text-anchor="start" x="62.3627" y="-591.5" font-family="Helvetica,sans-Serif" font-size="10.00">+ moveDown()</text>
<text text-anchor="start" x="62.3627" y="-580.5" font-family="Helvetica,sans-Serif" font-size="10.00">+ couldContain()</text>
<text text-anchor="start" x="62.3627" y="-569.5" font-family="Helvetica,sans-Serif" font-size="10.00">+ begin()</text>
<text text-anchor="start" x="62.3627" y="-558.5" font-family="Helvetica,sans-Serif" font-size="10.00">+ begin()</text>
<text text-anchor="start" x="62.3627" y="-547.5" font-family="Helvetica,sans-Serif" font-size="10.00">+ end()</text>
<text text-anchor="start" x="62.3627" y="-536.5" font-family="Helvetica,sans-Serif" font-size="10.00">+ end()</text>
<text text-anchor="start" x="62.3627" y="-525.5" font-family="Helvetica,sans-Serif" font-size="10.00">+ rbegin()</text>
<text text-anchor="start" x="62.3627" y="-514.5" font-family="Helvetica,sans-Serif" font-size="10.00">+ rbegin()</text>
<text text-anchor="start" x="62.3627" y="-503.5" font-family="Helvetica,sans-Serif" font-size="10.00">+ rend()</text>
<text text-anchor="start" x="62.3627" y="-492.5" font-family="Helvetica,sans-Serif" font-size="10.00">+ rend()</text>
<text text-anchor="start" x="62.3627" y="-481.5" font-family="Helvetica,sans-Serif" font-size="10.00">+ getFirst()</text>
<text text-anchor="start" x="62.3627" y="-470.5" font-family="Helvetica,sans-Serif" font-size="10.00">+ getLast()</text>
</a>
</g>
</g>
<!-- Node4&#45;&gt;Node5 -->
<g id="edge6" class="edge"><title>Node4&#45;&gt;Node5</title>
<path fill="none" stroke="#404040" d="M106.37,-799.258C105.387,-793.103 104.535,-786.985 103.863,-781 102.835,-771.856 102.351,-762.452 102.298,-752.972"/>
<polygon fill="none" stroke="#404040" points="102.298,-752.934 98.3757,-746.883 102.453,-740.935 106.375,-746.986 102.298,-752.934"/>
<text text-anchor="middle" x="114.863" y="-773" font-family="Helvetica,sans-Serif" font-size="10.00"> &#45;last</text>
<text text-anchor="middle" x="114.863" y="-762" font-family="Helvetica,sans-Serif" font-size="10.00">&#45;first</text>
</g>
<!-- Node5&#45;&gt;Node2 -->
<g id="edge7" class="edge"><title>Node5&#45;&gt;Node2</title>
<path fill="none" stroke="#404040" d="M126.863,-463.44C126.863,-446.152 126.863,-428.594 126.863,-411.661"/>
<polygon fill="none" stroke="#404040" points="126.863,-411.453 122.863,-405.453 126.863,-399.453 130.863,-405.453 126.863,-411.453"/>
<text text-anchor="middle" x="153.863" y="-437" font-family="Helvetica,sans-Serif" font-size="10.00"> &#45;updatables</text>
</g>
<!-- Node5&#45;&gt;Node4 -->
<g id="edge5" class="edge"><title>Node5&#45;&gt;Node4</title>
<path fill="none" stroke="#404040" d="M129.553,-740.806C129.661,-746.955 129.764,-753.041 129.863,-759 130.015,-768.204 130.164,-777.736 130.308,-787.316"/>
<polygon fill="none" stroke="#404040" points="130.31,-787.455 134.399,-793.395 130.488,-799.454 126.4,-793.514 130.31,-787.455"/>
<text text-anchor="middle" x="157.863" y="-767.5" font-family="Helvetica,sans-Serif" font-size="10.00"> &#45;updatables</text>
</g>
<!-- Node6 -->
<g id="node6" class="node"><title>Node6</title>
<g id="a_node6"><a xlink:href="../../d3/d43/classBankableMIDIOutput.html" target="_top" xlink:title="A base class for all MIDIOutputElements that can be banked.">
<polygon fill="white" stroke="black" points="213.863,-254 213.863,-333 335.863,-333 335.863,-254 213.863,-254"/>
<text text-anchor="middle" x="274.863" y="-321" font-family="Helvetica,sans-Serif" font-size="10.00">BankableMIDIOutput</text>
<polyline fill="none" stroke="black" points="213.863,-314 335.863,-314 "/>
<text text-anchor="start" x="221.863" y="-302" font-family="Helvetica,sans-Serif" font-size="10.00">&#45; type</text>
<polyline fill="none" stroke="black" points="213.863,-295 335.863,-295 "/>
<text text-anchor="start" x="221.863" y="-283" font-family="Helvetica,sans-Serif" font-size="10.00">+ getAddressOffset()</text>
<text text-anchor="start" x="221.863" y="-272" font-family="Helvetica,sans-Serif" font-size="10.00"># BankableMIDIOutput()</text>
<text text-anchor="start" x="221.863" y="-261" font-family="Helvetica,sans-Serif" font-size="10.00"># BankableMIDIOutput()</text>
</a>
</g>
</g>
<!-- Node6&#45;&gt;Node1 -->
<g id="edge8" class="edge"><title>Node6&#45;&gt;Node1</title>
<path fill="none" stroke="midnightblue" d="M296.495,-244.299C312.222,-209.258 333.626,-161.566 350.535,-123.891"/>
<polygon fill="none" stroke="midnightblue" points="293.12,-243.272 292.219,-253.828 299.507,-246.138 293.12,-243.272"/>
</g>
<!-- Node7 -->
<g id="node7" class="node"><title>Node7</title>
<g id="a_node7"><a xlink:href="../../d4/d6e/classBankableMIDIOutput__Base.html" target="_top" xlink:title=" ">
<polygon fill="white" stroke="black" points="217.863,-546 217.863,-658 367.863,-658 367.863,-546 217.863,-546"/>
<text text-anchor="middle" x="292.863" y="-646" font-family="Helvetica,sans-Serif" font-size="10.00">BankableMIDIOutput_Base</text>
<polyline fill="none" stroke="black" points="217.863,-639 367.863,-639 "/>
<text text-anchor="start" x="225.863" y="-627" font-family="Helvetica,sans-Serif" font-size="10.00">&#45; lockedSetting</text>
<text text-anchor="start" x="225.863" y="-616" font-family="Helvetica,sans-Serif" font-size="10.00">&#45; UNLOCKED</text>
<polyline fill="none" stroke="black" points="217.863,-609 367.863,-609 "/>
<text text-anchor="start" x="225.863" y="-597" font-family="Helvetica,sans-Serif" font-size="10.00">+ getRawBankSetting()</text>
<text text-anchor="start" x="225.863" y="-586" font-family="Helvetica,sans-Serif" font-size="10.00">+ getSelection()</text>
<text text-anchor="start" x="225.863" y="-575" font-family="Helvetica,sans-Serif" font-size="10.00"># BankableMIDIOutput_Base()</text>
<text text-anchor="start" x="225.863" y="-564" font-family="Helvetica,sans-Serif" font-size="10.00"># lock()</text>
<text text-anchor="start" x="225.863" y="-553" font-family="Helvetica,sans-Serif" font-size="10.00"># unlock()</text>
</a>
</g>
</g>
<!-- Node7&#45;&gt;Node6 -->
<g id="edge9" class="edge"><title>Node7&#45;&gt;Node6</title>
<path fill="none" stroke="midnightblue" d="M289.037,-535.853C285.423,-474.327 280.125,-384.109 277.135,-333.195"/>
<polygon fill="none" stroke="midnightblue" points="285.544,-536.072 289.624,-545.85 292.532,-535.662 285.544,-536.072"/>
</g>
<!-- Node8 -->
<g id="node8" class="node"><title>Node8</title>
<g id="a_node8"><a xlink:href="../../d9/d36/classOutputBank.html" target="_top" xlink:title="A class for changing the address of BankableMIDIOutputs.">
<polygon fill="white" stroke="black" points="236.363,-854.5 236.363,-955.5 349.363,-955.5 349.363,-854.5 236.363,-854.5"/>
<text text-anchor="middle" x="292.863" y="-943.5" font-family="Helvetica,sans-Serif" font-size="10.00">OutputBank</text>
<polyline fill="none" stroke="black" points="236.363,-936.5 349.363,-936.5 "/>
<text text-anchor="start" x="244.363" y="-924.5" font-family="Helvetica,sans-Serif" font-size="10.00">&#45; tracksPerBank</text>
<text text-anchor="start" x="244.363" y="-913.5" font-family="Helvetica,sans-Serif" font-size="10.00">&#45; bankSetting</text>
<polyline fill="none" stroke="black" points="236.363,-906.5 349.363,-906.5 "/>
<text text-anchor="start" x="244.363" y="-894.5" font-family="Helvetica,sans-Serif" font-size="10.00">+ OutputBank()</text>
<text text-anchor="start" x="244.363" y="-883.5" font-family="Helvetica,sans-Serif" font-size="10.00">+ select()</text>
<text text-anchor="start" x="244.363" y="-872.5" font-family="Helvetica,sans-Serif" font-size="10.00">+ getSelection()</text>
<text text-anchor="start" x="244.363" y="-861.5" font-family="Helvetica,sans-Serif" font-size="10.00">+ getTracksPerBank()</text>
</a>
</g>
</g>
<!-- Node8&#45;&gt;Node7 -->
<g id="edge10" class="edge"><title>Node8&#45;&gt;Node7</title>
<path fill="none" stroke="#404040" d="M292.863,-854.296C292.863,-804.077 292.863,-726.146 292.863,-670.389"/>
<polygon fill="none" stroke="#404040" points="292.863,-670.14 288.863,-664.14 292.863,-658.14 296.863,-664.14 292.863,-670.14"/>
<text text-anchor="middle" x="307.863" y="-767.5" font-family="Helvetica,sans-Serif" font-size="10.00"> #bank</text>
</g>
<!-- Node9 -->
<g id="node9" class="node"><title>Node9</title>
<g id="a_node9"><a xlink:title=" ">
<polygon fill="white" stroke="#bfbfbf" points="354.363,-265 354.363,-322 401.363,-322 401.363,-265 354.363,-265"/>
<text text-anchor="middle" x="377.863" y="-310" font-family="Helvetica,sans-Serif" font-size="10.00">Sender</text>
<polyline fill="none" stroke="#bfbfbf" points="354.363,-303 401.363,-303 "/>
<text text-anchor="middle" x="377.863" y="-291" font-family="Helvetica,sans-Serif" font-size="10.00"> </text>
<polyline fill="none" stroke="#bfbfbf" points="354.363,-284 401.363,-284 "/>
<text text-anchor="middle" x="377.863" y="-272" font-family="Helvetica,sans-Serif" font-size="10.00"> </text>
</a>
</g>
</g>
<!-- Node9&#45;&gt;Node1 -->
<g id="edge11" class="edge"><title>Node9&#45;&gt;Node1</title>
<path fill="none" stroke="#404040" d="M377.863,-264.817C377.863,-233.106 377.863,-179.874 377.863,-136.04"/>
<polygon fill="none" stroke="#404040" points="377.863,-135.952 373.863,-129.952 377.863,-123.952 381.863,-129.952 377.863,-135.952"/>
<text text-anchor="middle" x="397.363" y="-145" font-family="Helvetica,sans-Serif" font-size="10.00"> +sender</text>
</g>
<!-- Node10 -->
<g id="node10" class="node"><title>Node10</title>
<g id="a_node10"><a xlink:href="../../d3/d10/classMIDICNChannelAddress.html" target="_top" xlink:title="A type&#45;safe utility class for saving a MIDI address consisting of a 7&#45;bit address,...">
<polygon fill="white" stroke="black" points="419.863,-171.5 419.863,-415.5 559.863,-415.5 559.863,-171.5 419.863,-171.5"/>
<text text-anchor="middle" x="489.863" y="-403.5" font-family="Helvetica,sans-Serif" font-size="10.00">MIDICNChannelAddress</text>
<polyline fill="none" stroke="black" points="419.863,-396.5 559.863,-396.5 "/>
<text text-anchor="start" x="427.863" y="-384.5" font-family="Helvetica,sans-Serif" font-size="10.00">&#45; addresses</text>
<polyline fill="none" stroke="black" points="419.863,-377.5 559.863,-377.5 "/>
<text text-anchor="start" x="427.863" y="-365.5" font-family="Helvetica,sans-Serif" font-size="10.00">+ MIDICNChannelAddress()</text>
<text text-anchor="start" x="427.863" y="-354.5" font-family="Helvetica,sans-Serif" font-size="10.00">+ MIDICNChannelAddress()</text>
<text text-anchor="start" x="427.863" y="-343.5" font-family="Helvetica,sans-Serif" font-size="10.00">+ MIDICNChannelAddress()</text>
<text text-anchor="start" x="427.863" y="-332.5" font-family="Helvetica,sans-Serif" font-size="10.00">+ MIDICNChannelAddress()</text>
<text text-anchor="start" x="427.863" y="-321.5" font-family="Helvetica,sans-Serif" font-size="10.00">+ MIDICNChannelAddress()</text>
<text text-anchor="start" x="427.863" y="-310.5" font-family="Helvetica,sans-Serif" font-size="10.00">+ operator+=()</text>
<text text-anchor="start" x="427.863" y="-299.5" font-family="Helvetica,sans-Serif" font-size="10.00">+ operator&#45;=()</text>
<text text-anchor="start" x="427.863" y="-288.5" font-family="Helvetica,sans-Serif" font-size="10.00">+ operator+()</text>
<text text-anchor="start" x="427.863" y="-277.5" font-family="Helvetica,sans-Serif" font-size="10.00">+ operator&#45;()</text>
<text text-anchor="start" x="427.863" y="-266.5" font-family="Helvetica,sans-Serif" font-size="10.00">+ operator==()</text>
<text text-anchor="start" x="427.863" y="-255.5" font-family="Helvetica,sans-Serif" font-size="10.00">+ operator!=()</text>
<text text-anchor="start" x="427.863" y="-244.5" font-family="Helvetica,sans-Serif" font-size="10.00">+ getAddress()</text>
<text text-anchor="start" x="427.863" y="-233.5" font-family="Helvetica,sans-Serif" font-size="10.00">+ getChannel()</text>
<text text-anchor="start" x="427.863" y="-222.5" font-family="Helvetica,sans-Serif" font-size="10.00">+ getCableNumber()</text>
<text text-anchor="start" x="427.863" y="-211.5" font-family="Helvetica,sans-Serif" font-size="10.00">+ isValid()</text>
<text text-anchor="start" x="427.863" y="-200.5" font-family="Helvetica,sans-Serif" font-size="10.00">+ operator bool()</text>
<text text-anchor="start" x="427.863" y="-189.5" font-family="Helvetica,sans-Serif" font-size="10.00">+ matchSingle()</text>
<text text-anchor="start" x="427.863" y="-178.5" font-family="Helvetica,sans-Serif" font-size="10.00">+ matchAddressInRange()</text>
</a>
</g>
</g>
<!-- Node10&#45;&gt;Node1 -->
<g id="edge12" class="edge"><title>Node10&#45;&gt;Node1</title>
<path fill="none" stroke="#404040" d="M435.223,-171.402C430.45,-161.415 425.624,-151.51 420.863,-142 419.595,-139.467 418.29,-136.896 416.961,-134.306"/>
<polygon fill="none" stroke="#404040" points="416.926,-134.238 410.608,-130.761 411.388,-123.593 417.705,-127.069 416.926,-134.238"/>
<text text-anchor="middle" x="445.363" y="-145" font-family="Helvetica,sans-Serif" font-size="10.00"> &#45;address</text>
</g>
<!-- Node11 -->
<g id="node11" class="node"><title>Node11</title>
<g id="a_node11"><a xlink:href="../../da/da7/classFilteredAnalog.html" target="_top" xlink:title=" ">
<polygon fill="white" stroke="black" points="577.863,-215.5 577.863,-371.5 743.863,-371.5 743.863,-215.5 577.863,-215.5"/>
<text text-anchor="start" x="585.863" y="-359.5" font-family="Helvetica,sans-Serif" font-size="10.00">FilteredAnalog&lt; Sender</text>
<text text-anchor="start" x="585.863" y="-348.5" font-family="Helvetica,sans-Serif" font-size="10.00">::precision(), 16 &#45; ADC</text>
<text text-anchor="start" x="585.863" y="-337.5" font-family="Helvetica,sans-Serif" font-size="10.00">_BITS, ANALOG_FILTER_SHIFT</text>
<text text-anchor="middle" x="660.863" y="-326.5" font-family="Helvetica,sans-Serif" font-size="10.00">_FACTOR, uint32_t &gt;</text>
<polyline fill="none" stroke="black" points="577.863,-319.5 743.863,-319.5 "/>
<text text-anchor="start" x="585.863" y="-307.5" font-family="Helvetica,sans-Serif" font-size="10.00">&#45; analogPin</text>
<text text-anchor="start" x="585.863" y="-296.5" font-family="Helvetica,sans-Serif" font-size="10.00">&#45; mapFn</text>
<polyline fill="none" stroke="black" points="577.863,-289.5 743.863,-289.5 "/>
<text text-anchor="start" x="585.863" y="-277.5" font-family="Helvetica,sans-Serif" font-size="10.00">+ FilteredAnalog()</text>
<text text-anchor="start" x="585.863" y="-266.5" font-family="Helvetica,sans-Serif" font-size="10.00">+ map()</text>
<text text-anchor="start" x="585.863" y="-255.5" font-family="Helvetica,sans-Serif" font-size="10.00">+ update()</text>
<text text-anchor="start" x="585.863" y="-244.5" font-family="Helvetica,sans-Serif" font-size="10.00">+ getValue()</text>
<text text-anchor="start" x="585.863" y="-233.5" font-family="Helvetica,sans-Serif" font-size="10.00">+ getFloatValue()</text>
<text text-anchor="start" x="585.863" y="-222.5" font-family="Helvetica,sans-Serif" font-size="10.00">+ getRawValue()</text>
</a>
</g>
</g>
<!-- Node11&#45;&gt;Node1 -->
<g id="edge13" class="edge"><title>Node11&#45;&gt;Node1</title>
<path fill="none" stroke="#404040" d="M610.076,-215.451C597.692,-199.692 583.699,-183.978 568.863,-171 537.291,-143.384 497.544,-119.545 462.494,-101.342"/>
<polygon fill="none" stroke="#404040" points="462.471,-101.33 455.308,-102.166 451.782,-95.8755 458.944,-95.0396 462.471,-101.33"/>
<text text-anchor="middle" x="578.863" y="-145" font-family="Helvetica,sans-Serif" font-size="10.00"> &#45;filteredAnalog</text>
</g>
<!-- Node12 -->
<g id="node12" class="node"><title>Node12</title>
<g id="a_node12"><a xlink:href="../../d7/d40/classEMA.html" target="_top" xlink:title=" ">
<polygon fill="white" stroke="black" points="490.863,-562.5 490.863,-641.5 656.863,-641.5 656.863,-562.5 490.863,-562.5"/>
<text text-anchor="start" x="498.863" y="-629.5" font-family="Helvetica,sans-Serif" font-size="10.00">EMA&lt; FILTER_SHIFT_FACTOR,</text>
<text text-anchor="middle" x="573.863" y="-618.5" font-family="Helvetica,sans-Serif" font-size="10.00"> uint32_t &gt;</text>
<polyline fill="none" stroke="black" points="490.863,-611.5 656.863,-611.5 "/>
<text text-anchor="start" x="498.863" y="-599.5" font-family="Helvetica,sans-Serif" font-size="10.00">&#45; filtered</text>
<text text-anchor="start" x="498.863" y="-588.5" font-family="Helvetica,sans-Serif" font-size="10.00">&#45; fixedPointAHalf</text>
<polyline fill="none" stroke="black" points="490.863,-581.5 656.863,-581.5 "/>
<text text-anchor="start" x="498.863" y="-569.5" font-family="Helvetica,sans-Serif" font-size="10.00">+ filter()</text>
</a>
</g>
</g>
<!-- Node12&#45;&gt;Node11 -->
<g id="edge14" class="edge"><title>Node12&#45;&gt;Node11</title>
<path fill="none" stroke="#404040" d="M584.793,-562.492C597.479,-517.8 618.812,-442.645 635.663,-383.277"/>
<polygon fill="none" stroke="#404040" points="635.693,-383.172 633.484,-376.307 638.97,-371.628 641.18,-378.492 635.693,-383.172"/>
<text text-anchor="middle" x="633.363" y="-437" font-family="Helvetica,sans-Serif" font-size="10.00"> &#45;filter</text>
</g>
<!-- Node13 -->
<g id="node13" class="node"><title>Node13</title>
<g id="a_node13"><a xlink:href="../../d2/dcb/classHysteresis.html" target="_top" xlink:title=" ">
<polygon fill="white" stroke="black" points="674.863,-535 674.863,-669 820.863,-669 820.863,-535 674.863,-535"/>
<text text-anchor="start" x="682.863" y="-657" font-family="Helvetica,sans-Serif" font-size="10.00">Hysteresis&lt; ADC_BITS</text>
<text text-anchor="start" x="682.863" y="-646" font-family="Helvetica,sans-Serif" font-size="10.00">+UPSAMPLE &#45; PRECISION,</text>
<text text-anchor="middle" x="747.863" y="-635" font-family="Helvetica,sans-Serif" font-size="10.00"> analog_t, analog_t &gt;</text>
<polyline fill="none" stroke="black" points="674.863,-628 820.863,-628 "/>
<text text-anchor="start" x="682.863" y="-616" font-family="Helvetica,sans-Serif" font-size="10.00">&#45; prevLevel</text>
<text text-anchor="start" x="682.863" y="-605" font-family="Helvetica,sans-Serif" font-size="10.00">&#45; margin</text>
<text text-anchor="start" x="682.863" y="-594" font-family="Helvetica,sans-Serif" font-size="10.00">&#45; offset</text>
<text text-anchor="start" x="682.863" y="-583" font-family="Helvetica,sans-Serif" font-size="10.00">&#45; max_in</text>
<text text-anchor="start" x="682.863" y="-572" font-family="Helvetica,sans-Serif" font-size="10.00">&#45; max_out</text>
<polyline fill="none" stroke="black" points="674.863,-565 820.863,-565 "/>
<text text-anchor="start" x="682.863" y="-553" font-family="Helvetica,sans-Serif" font-size="10.00">+ update()</text>
<text text-anchor="start" x="682.863" y="-542" font-family="Helvetica,sans-Serif" font-size="10.00">+ getValue()</text>
</a>
</g>
</g>
<!-- Node13&#45;&gt;Node11 -->
<g id="edge15" class="edge"><title>Node13&#45;&gt;Node11</title>
<path fill="none" stroke="#404040" d="M729.092,-534.871C716.517,-490.569 699.813,-431.722 686.081,-383.342"/>
<polygon fill="none" stroke="#404040" points="686.025,-383.147 680.539,-378.467 682.748,-371.603 688.235,-376.283 686.025,-383.147"/>
<text text-anchor="middle" x="727.863" y="-437" font-family="Helvetica,sans-Serif" font-size="10.00"> &#45;hysteresis</text>
</g>
</g>
</svg>
