<?xml version="1.0" encoding="UTF-8" standalone="no"?>
<!DOCTYPE svg PUBLIC "-//W3C//DTD SVG 1.1//EN"
 "http://www.w3.org/Graphics/SVG/1.1/DTD/svg11.dtd">
<!-- Generated by graphviz version 2.38.0 (20140413.2041)
 -->
<!-- Title: SelectorDisplay&lt; N &gt; Pages: 1 -->
<svg width="119pt" height="314pt"
 viewBox="0.00 0.00 119.00 314.00" xmlns="http://www.w3.org/2000/svg" xmlns:xlink="http://www.w3.org/1999/xlink">
<g id="graph0" class="graph" transform="scale(1 1) rotate(0) translate(4 310)">
<title>SelectorDisplay&lt; N &gt;</title>
<polygon fill="white" stroke="none" points="-4,4 -4,-310 115,-310 115,4 -4,4"/>
<!-- Node0 -->
<g id="node1" class="node"><title>Node0</title>
<g id="a_node1"><a xlink:title=" ">
<polygon fill="#bfbfbf" stroke="black" points="-7.10543e-15,-0.5 -7.10543e-15,-134.5 111,-134.5 111,-0.5 -7.10543e-15,-0.5"/>
<text text-anchor="middle" x="55.5" y="-122.5" font-family="Helvetica,sans-Serif" font-size="10.00">SelectorDisplay&lt; N &gt;</text>
<polyline fill="none" stroke="black" points="-7.10543e-15,-115.5 111,-115.5 "/>
<text text-anchor="start" x="8" y="-103.5" font-family="Helvetica,sans-Serif" font-size="10.00">&#45; selector</text>
<text text-anchor="start" x="8" y="-92.5" font-family="Helvetica,sans-Serif" font-size="10.00">&#45; offset</text>
<text text-anchor="start" x="8" y="-81.5" font-family="Helvetica,sans-Serif" font-size="10.00">&#45; multiplier</text>
<text text-anchor="start" x="8" y="-70.5" font-family="Helvetica,sans-Serif" font-size="10.00">&#45; x</text>
<text text-anchor="start" x="8" y="-59.5" font-family="Helvetica,sans-Serif" font-size="10.00">&#45; y</text>
<text text-anchor="start" x="8" y="-48.5" font-family="Helvetica,sans-Serif" font-size="10.00">&#45; size</text>
<text text-anchor="start" x="8" y="-37.5" font-family="Helvetica,sans-Serif" font-size="10.00">&#45; color</text>
<polyline fill="none" stroke="black" points="-7.10543e-15,-30.5 111,-30.5 "/>
<text text-anchor="start" x="8" y="-18.5" font-family="Helvetica,sans-Serif" font-size="10.00">+ SelectorDisplay()</text>
<text text-anchor="start" x="8" y="-7.5" font-family="Helvetica,sans-Serif" font-size="10.00">+ draw()</text>
</a>
</g>
</g>
<!-- Node1 -->
<g id="node2" class="node"><title>Node1</title>
<g id="a_node2"><a xlink:href="../../d8/d43/classDisplayElement.html" target="_top" xlink:title=" ">
<polygon fill="white" stroke="black" points="2,-171.5 2,-305.5 109,-305.5 109,-171.5 2,-171.5"/>
<text text-anchor="middle" x="55.5" y="-293.5" font-family="Helvetica,sans-Serif" font-size="10.00">DisplayElement</text>
<polyline fill="none" stroke="black" points="2,-286.5 109,-286.5 "/>
<text text-anchor="start" x="10" y="-274.5" font-family="Helvetica,sans-Serif" font-size="10.00"># display</text>
<text text-anchor="start" x="10" y="-263.5" font-family="Helvetica,sans-Serif" font-size="10.00"># next</text>
<text text-anchor="start" x="10" y="-252.5" font-family="Helvetica,sans-Serif" font-size="10.00"># previous</text>
<text text-anchor="start" x="10" y="-241.5" font-family="Helvetica,sans-Serif" font-size="10.00"># first</text>
<text text-anchor="start" x="10" y="-230.5" font-family="Helvetica,sans-Serif" font-size="10.00"># last</text>
<polyline fill="none" stroke="black" points="2,-223.5 109,-223.5 "/>
<text text-anchor="start" x="10" y="-211.5" font-family="Helvetica,sans-Serif" font-size="10.00">+ ~DisplayElement()</text>
<text text-anchor="start" x="10" y="-200.5" font-family="Helvetica,sans-Serif" font-size="10.00">+ draw()</text>
<text text-anchor="start" x="10" y="-189.5" font-family="Helvetica,sans-Serif" font-size="10.00">+ drawAll()</text>
<text text-anchor="start" x="10" y="-178.5" font-family="Helvetica,sans-Serif" font-size="10.00"># DisplayElement()</text>
</a>
</g>
</g>
<!-- Node1&#45;&gt;Node0 -->
<g id="edge1" class="edge"><title>Node1&#45;&gt;Node0</title>
<path fill="none" stroke="midnightblue" d="M55.5,-160.949C55.5,-152.159 55.5,-143.254 55.5,-134.617"/>
<polygon fill="none" stroke="midnightblue" points="52.0001,-161.192 55.5,-171.192 59.0001,-161.192 52.0001,-161.192"/>
</g>
</g>
</svg>
