<?xml version="1.0" encoding="UTF-8" standalone="no"?>
<!DOCTYPE svg PUBLIC "-//W3C//DTD SVG 1.1//EN"
 "http://www.w3.org/Graphics/SVG/1.1/DTD/svg11.dtd">
<!-- Generated by graphviz version 2.38.0 (20140413.2041)
 -->
<!-- Title: BluetoothMIDI_Interface Pages: 1 -->
<svg width="834pt" height="1041pt"
 viewBox="0.00 0.00 834.00 1041.00" xmlns="http://www.w3.org/2000/svg" xmlns:xlink="http://www.w3.org/1999/xlink">
<g id="graph0" class="graph" transform="scale(1 1) rotate(0) translate(4 1037)">
<title>BluetoothMIDI_Interface</title>
<polygon fill="white" stroke="none" points="-4,4 -4,-1037 830,-1037 830,4 -4,4"/>
<!-- Node4 -->
<g id="node1" class="node"><title>Node4</title>
<g id="a_node1"><a xlink:title="Bluetooth Low Energy MIDI Interface for the ESP32.">
<polygon fill="#bfbfbf" stroke="black" points="371.5,-0.5 371.5,-288.5 509.5,-288.5 509.5,-0.5 371.5,-0.5"/>
<text text-anchor="middle" x="440.5" y="-276.5" font-family="Helvetica,sans-Serif" font-size="10.00">BluetoothMIDI_Interface</text>
<polyline fill="none" stroke="black" points="371.5,-269.5 509.5,-269.5 "/>
<text text-anchor="start" x="379.5" y="-257.5" font-family="Helvetica,sans-Serif" font-size="10.00">&#45; startTime</text>
<text text-anchor="start" x="379.5" y="-246.5" font-family="Helvetica,sans-Serif" font-size="10.00">&#45; buffer</text>
<text text-anchor="start" x="379.5" y="-235.5" font-family="Helvetica,sans-Serif" font-size="10.00">&#45; index</text>
<text text-anchor="start" x="379.5" y="-224.5" font-family="Helvetica,sans-Serif" font-size="10.00">&#45; connected</text>
<text text-anchor="start" x="379.5" y="-213.5" font-family="Helvetica,sans-Serif" font-size="10.00">&#45; MAX_MESSAGE_TIME</text>
<text text-anchor="start" x="379.5" y="-202.5" font-family="Helvetica,sans-Serif" font-size="10.00">&#45; BUFFER_LENGTH</text>
<polyline fill="none" stroke="black" points="371.5,-195.5 509.5,-195.5 "/>
<text text-anchor="start" x="379.5" y="-183.5" font-family="Helvetica,sans-Serif" font-size="10.00">+ BluetoothMIDI_Interface()</text>
<text text-anchor="start" x="379.5" y="-172.5" font-family="Helvetica,sans-Serif" font-size="10.00">+ begin()</text>
<text text-anchor="start" x="379.5" y="-161.5" font-family="Helvetica,sans-Serif" font-size="10.00">+ publish()</text>
<text text-anchor="start" x="379.5" y="-150.5" font-family="Helvetica,sans-Serif" font-size="10.00">+ read()</text>
<text text-anchor="start" x="379.5" y="-139.5" font-family="Helvetica,sans-Serif" font-size="10.00">+ addToBuffer()</text>
<text text-anchor="start" x="379.5" y="-128.5" font-family="Helvetica,sans-Serif" font-size="10.00">+ addToBuffer()</text>
<text text-anchor="start" x="379.5" y="-117.5" font-family="Helvetica,sans-Serif" font-size="10.00">+ update()</text>
<text text-anchor="start" x="379.5" y="-106.5" font-family="Helvetica,sans-Serif" font-size="10.00">+ sendImpl()</text>
<text text-anchor="start" x="379.5" y="-95.5" font-family="Helvetica,sans-Serif" font-size="10.00">+ sendImpl()</text>
<text text-anchor="start" x="379.5" y="-84.5" font-family="Helvetica,sans-Serif" font-size="10.00">+ parse()</text>
<text text-anchor="start" x="379.5" y="-73.5" font-family="Helvetica,sans-Serif" font-size="10.00">+ parse()</text>
<text text-anchor="start" x="379.5" y="-62.5" font-family="Helvetica,sans-Serif" font-size="10.00">+ getBLEMIDI()</text>
<text text-anchor="start" x="379.5" y="-51.5" font-family="Helvetica,sans-Serif" font-size="10.00">&#45; onConnect()</text>
<text text-anchor="start" x="379.5" y="-40.5" font-family="Helvetica,sans-Serif" font-size="10.00">&#45; onDisconnect()</text>
<text text-anchor="start" x="379.5" y="-29.5" font-family="Helvetica,sans-Serif" font-size="10.00">&#45; onRead()</text>
<text text-anchor="start" x="379.5" y="-18.5" font-family="Helvetica,sans-Serif" font-size="10.00">&#45; onWrite()</text>
<text text-anchor="start" x="379.5" y="-7.5" font-family="Helvetica,sans-Serif" font-size="10.00">&#45; hasSpaceFor()</text>
</a>
</g>
</g>
<!-- Node5 -->
<g id="node2" class="node"><title>Node5</title>
<g id="a_node2"><a xlink:href="../../d9/d73/classMIDI__Interface.html" target="_top" xlink:title="An abstract class for MIDI interfaces.">
<polygon fill="white" stroke="black" points="127,-336.5 127,-657.5 248,-657.5 248,-336.5 127,-336.5"/>
<text text-anchor="middle" x="187.5" y="-645.5" font-family="Helvetica,sans-Serif" font-size="10.00">MIDI_Interface</text>
<polyline fill="none" stroke="black" points="127,-638.5 248,-638.5 "/>
<text text-anchor="middle" x="187.5" y="-626.5" font-family="Helvetica,sans-Serif" font-size="10.00"> </text>
<polyline fill="none" stroke="black" points="127,-619.5 248,-619.5 "/>
<text text-anchor="start" x="135" y="-607.5" font-family="Helvetica,sans-Serif" font-size="10.00">+ setCallbacks()</text>
<text text-anchor="start" x="135" y="-596.5" font-family="Helvetica,sans-Serif" font-size="10.00">+ ~MIDI_Interface()</text>
<text text-anchor="start" x="135" y="-585.5" font-family="Helvetica,sans-Serif" font-size="10.00">+ begin()</text>
<text text-anchor="start" x="135" y="-574.5" font-family="Helvetica,sans-Serif" font-size="10.00">+ send()</text>
<text text-anchor="start" x="135" y="-563.5" font-family="Helvetica,sans-Serif" font-size="10.00">+ send()</text>
<text text-anchor="start" x="135" y="-552.5" font-family="Helvetica,sans-Serif" font-size="10.00">+ sendNoteOn()</text>
<text text-anchor="start" x="135" y="-541.5" font-family="Helvetica,sans-Serif" font-size="10.00">+ sendNoteOff()</text>
<text text-anchor="start" x="135" y="-530.5" font-family="Helvetica,sans-Serif" font-size="10.00">+ sendCC()</text>
<text text-anchor="start" x="135" y="-519.5" font-family="Helvetica,sans-Serif" font-size="10.00">+ sendPB()</text>
<text text-anchor="start" x="135" y="-508.5" font-family="Helvetica,sans-Serif" font-size="10.00">+ sendPB()</text>
<text text-anchor="start" x="135" y="-497.5" font-family="Helvetica,sans-Serif" font-size="10.00">+ sendPC()</text>
<text text-anchor="start" x="135" y="-486.5" font-family="Helvetica,sans-Serif" font-size="10.00">+ update()</text>
<text text-anchor="start" x="135" y="-475.5" font-family="Helvetica,sans-Serif" font-size="10.00">+ read()</text>
<text text-anchor="start" x="135" y="-464.5" font-family="Helvetica,sans-Serif" font-size="10.00">+ setAsDefault()</text>
<text text-anchor="start" x="135" y="-453.5" font-family="Helvetica,sans-Serif" font-size="10.00">+ getChannelMessage()</text>
<text text-anchor="start" x="135" y="-442.5" font-family="Helvetica,sans-Serif" font-size="10.00">+ getSysExLength()</text>
<text text-anchor="start" x="135" y="-431.5" font-family="Helvetica,sans-Serif" font-size="10.00">+ getSysExBuffer()</text>
<text text-anchor="start" x="135" y="-420.5" font-family="Helvetica,sans-Serif" font-size="10.00">+ getDefault()</text>
<text text-anchor="start" x="135" y="-409.5" font-family="Helvetica,sans-Serif" font-size="10.00"># MIDI_Interface()</text>
<text text-anchor="start" x="135" y="-398.5" font-family="Helvetica,sans-Serif" font-size="10.00"># onChannelMessage()</text>
<text text-anchor="start" x="135" y="-387.5" font-family="Helvetica,sans-Serif" font-size="10.00"># onSysExMessage()</text>
<text text-anchor="start" x="135" y="-376.5" font-family="Helvetica,sans-Serif" font-size="10.00"># onRealtimeMessage()</text>
<text text-anchor="start" x="135" y="-365.5" font-family="Helvetica,sans-Serif" font-size="10.00"># dispatchMIDIEvent()</text>
<text text-anchor="start" x="135" y="-354.5" font-family="Helvetica,sans-Serif" font-size="10.00">&#45; sendImpl()</text>
<text text-anchor="start" x="135" y="-343.5" font-family="Helvetica,sans-Serif" font-size="10.00">&#45; sendImpl()</text>
</a>
</g>
</g>
<!-- Node5&#45;&gt;Node4 -->
<g id="edge1" class="edge"><title>Node5&#45;&gt;Node4</title>
<path fill="none" stroke="midnightblue" d="M254.059,-403.791C290.231,-353.679 334.908,-291.785 371.458,-241.149"/>
<polygon fill="none" stroke="midnightblue" points="251.115,-401.89 248.1,-412.047 256.791,-405.987 251.115,-401.89"/>
</g>
<!-- Node5&#45;&gt;Node5 -->
<g id="edge5" class="edge"><title>Node5&#45;&gt;Node5</title>
<path fill="none" stroke="#404040" d="M248.062,-529.344C258.641,-525.031 266,-514.25 266,-497 266,-485.949 262.98,-477.553 258.027,-471.812"/>
<polygon fill="none" stroke="#404040" points="257.809,-471.655 250.602,-471.405 248.062,-464.656 255.268,-464.907 257.809,-471.655"/>
<text text-anchor="middle" x="317.5" y="-494.5" font-family="Helvetica,sans-Serif" font-size="10.00"> &#45;DefaultMIDI_Interface</text>
</g>
<!-- Node6 -->
<g id="node3" class="node"><title>Node6</title>
<g id="a_node3"><a xlink:href="../../df/d0c/classMIDI__Parser.html" target="_top" xlink:title=" ">
<polygon fill="white" stroke="black" points="0,-705.5 0,-894.5 121,-894.5 121,-705.5 0,-705.5"/>
<text text-anchor="middle" x="60.5" y="-882.5" font-family="Helvetica,sans-Serif" font-size="10.00">MIDI_Parser</text>
<polyline fill="none" stroke="black" points="0,-875.5 121,-875.5 "/>
<text text-anchor="start" x="8" y="-863.5" font-family="Helvetica,sans-Serif" font-size="10.00"># SysExBuffer</text>
<text text-anchor="start" x="8" y="-852.5" font-family="Helvetica,sans-Serif" font-size="10.00"># SysExLength</text>
<text text-anchor="start" x="8" y="-841.5" font-family="Helvetica,sans-Serif" font-size="10.00"># receivingSysEx</text>
<text text-anchor="start" x="8" y="-830.5" font-family="Helvetica,sans-Serif" font-size="10.00"># bufferSize</text>
<polyline fill="none" stroke="black" points="0,-823.5 121,-823.5 "/>
<text text-anchor="start" x="8" y="-811.5" font-family="Helvetica,sans-Serif" font-size="10.00">+ getChannelMessage()</text>
<text text-anchor="start" x="8" y="-800.5" font-family="Helvetica,sans-Serif" font-size="10.00">+ getSysExBuffer()</text>
<text text-anchor="start" x="8" y="-789.5" font-family="Helvetica,sans-Serif" font-size="10.00">+ getSysExLength()</text>
<text text-anchor="start" x="8" y="-778.5" font-family="Helvetica,sans-Serif" font-size="10.00">+ getSysExMessage()</text>
<text text-anchor="start" x="8" y="-767.5" font-family="Helvetica,sans-Serif" font-size="10.00">+ isStatus()</text>
<text text-anchor="start" x="8" y="-756.5" font-family="Helvetica,sans-Serif" font-size="10.00">+ isData()</text>
<text text-anchor="start" x="8" y="-745.5" font-family="Helvetica,sans-Serif" font-size="10.00"># startSysEx()</text>
<text text-anchor="start" x="8" y="-734.5" font-family="Helvetica,sans-Serif" font-size="10.00"># endSysEx()</text>
<text text-anchor="start" x="8" y="-723.5" font-family="Helvetica,sans-Serif" font-size="10.00"># addSysExByte()</text>
<text text-anchor="start" x="8" y="-712.5" font-family="Helvetica,sans-Serif" font-size="10.00"># hasSpaceLeft()</text>
</a>
</g>
</g>
<!-- Node6&#45;&gt;Node5 -->
<g id="edge2" class="edge"><title>Node6&#45;&gt;Node5</title>
<path fill="none" stroke="#404040" d="M99.9874,-705.412C107.073,-688.619 114.626,-670.718 122.213,-652.736"/>
<polygon fill="none" stroke="#404040" points="122.272,-652.595 120.919,-645.512 126.937,-641.539 128.29,-648.622 122.272,-652.595"/>
<text text-anchor="middle" x="126.5" y="-679" font-family="Helvetica,sans-Serif" font-size="10.00"> &#45;parser</text>
</g>
<!-- Node11 -->
<g id="node8" class="node"><title>Node11</title>
<g id="a_node8"><a xlink:href="../../d0/d0d/classSerialMIDI__Parser.html" target="_top" xlink:title=" ">
<polygon fill="white" stroke="black" points="12,-468.5 12,-525.5 109,-525.5 109,-468.5 12,-468.5"/>
<text text-anchor="middle" x="60.5" y="-513.5" font-family="Helvetica,sans-Serif" font-size="10.00">SerialMIDI_Parser</text>
<polyline fill="none" stroke="black" points="12,-506.5 109,-506.5 "/>
<text text-anchor="start" x="20" y="-494.5" font-family="Helvetica,sans-Serif" font-size="10.00">&#45; thirdByte</text>
<polyline fill="none" stroke="black" points="12,-487.5 109,-487.5 "/>
<text text-anchor="start" x="20" y="-475.5" font-family="Helvetica,sans-Serif" font-size="10.00">+ parse()</text>
</a>
</g>
</g>
<!-- Node6&#45;&gt;Node11 -->
<g id="edge9" class="edge"><title>Node6&#45;&gt;Node11</title>
<path fill="none" stroke="midnightblue" d="M60.5,-695.091C60.5,-634.939 60.5,-563.772 60.5,-525.56"/>
<polygon fill="none" stroke="midnightblue" points="57.0001,-695.412 60.5,-705.412 64.0001,-695.412 57.0001,-695.412"/>
</g>
<!-- Node7 -->
<g id="node4" class="node"><title>Node7</title>
<g id="a_node4"><a xlink:href="../../de/df8/structMIDI__message.html" target="_top" xlink:title=" ">
<polygon fill="white" stroke="black" points="19,-942.5 19,-1032.5 102,-1032.5 102,-942.5 19,-942.5"/>
<text text-anchor="middle" x="60.5" y="-1020.5" font-family="Helvetica,sans-Serif" font-size="10.00">MIDI_message</text>
<polyline fill="none" stroke="black" points="19,-1013.5 102,-1013.5 "/>
<text text-anchor="start" x="27" y="-1001.5" font-family="Helvetica,sans-Serif" font-size="10.00">+ header</text>
<text text-anchor="start" x="27" y="-990.5" font-family="Helvetica,sans-Serif" font-size="10.00">+ data1</text>
<text text-anchor="start" x="27" y="-979.5" font-family="Helvetica,sans-Serif" font-size="10.00">+ data2</text>
<polyline fill="none" stroke="black" points="19,-972.5 102,-972.5 "/>
<text text-anchor="start" x="27" y="-960.5" font-family="Helvetica,sans-Serif" font-size="10.00">+ operator==()</text>
<text text-anchor="start" x="27" y="-949.5" font-family="Helvetica,sans-Serif" font-size="10.00">+ operator!=()</text>
</a>
</g>
</g>
<!-- Node7&#45;&gt;Node6 -->
<g id="edge3" class="edge"><title>Node7&#45;&gt;Node6</title>
<path fill="none" stroke="#404040" d="M60.5,-942.068C60.5,-931.296 60.5,-919.318 60.5,-907.021"/>
<polygon fill="none" stroke="#404040" points="60.5001,-906.652 56.5,-900.652 60.5,-894.652 64.5,-900.652 60.5001,-906.652"/>
<text text-anchor="middle" x="83.5" y="-916" font-family="Helvetica,sans-Serif" font-size="10.00"> #midimsg</text>
</g>
<!-- Node8 -->
<g id="node5" class="node"><title>Node8</title>
<g id="a_node5"><a xlink:href="../../de/d55/classMIDI__Callbacks.html" target="_top" xlink:title="A class for callbacks from MIDI input.">
<polygon fill="white" stroke="black" points="139.5,-755 139.5,-845 257.5,-845 257.5,-755 139.5,-755"/>
<text text-anchor="middle" x="198.5" y="-833" font-family="Helvetica,sans-Serif" font-size="10.00">MIDI_Callbacks</text>
<polyline fill="none" stroke="black" points="139.5,-826 257.5,-826 "/>
<text text-anchor="middle" x="198.5" y="-814" font-family="Helvetica,sans-Serif" font-size="10.00"> </text>
<polyline fill="none" stroke="black" points="139.5,-807 257.5,-807 "/>
<text text-anchor="start" x="147.5" y="-795" font-family="Helvetica,sans-Serif" font-size="10.00">+ ~MIDI_Callbacks()</text>
<text text-anchor="start" x="147.5" y="-784" font-family="Helvetica,sans-Serif" font-size="10.00">&#45; onChannelMessage()</text>
<text text-anchor="start" x="147.5" y="-773" font-family="Helvetica,sans-Serif" font-size="10.00">&#45; onSysExMessage()</text>
<text text-anchor="start" x="147.5" y="-762" font-family="Helvetica,sans-Serif" font-size="10.00">&#45; onRealtimeMessage()</text>
</a>
</g>
</g>
<!-- Node8&#45;&gt;Node5 -->
<g id="edge4" class="edge"><title>Node8&#45;&gt;Node5</title>
<path fill="none" stroke="#404040" d="M196.889,-754.91C196.037,-731.598 194.93,-701.312 193.777,-669.754"/>
<polygon fill="none" stroke="#404040" points="193.771,-669.601 189.555,-663.751 193.333,-657.609 197.549,-663.459 193.771,-669.601"/>
<text text-anchor="middle" x="218.5" y="-679" font-family="Helvetica,sans-Serif" font-size="10.00"> &#45;callbacks</text>
</g>
<!-- Node9 -->
<g id="node6" class="node"><title>Node9</title>
<g id="a_node6"><a xlink:title=" ">
<polygon fill="white" stroke="#bfbfbf" points="387,-468.5 387,-525.5 494,-525.5 494,-468.5 387,-468.5"/>
<text text-anchor="middle" x="440.5" y="-513.5" font-family="Helvetica,sans-Serif" font-size="10.00">BLEServerCallbacks</text>
<polyline fill="none" stroke="#bfbfbf" points="387,-506.5 494,-506.5 "/>
<text text-anchor="middle" x="440.5" y="-494.5" font-family="Helvetica,sans-Serif" font-size="10.00"> </text>
<polyline fill="none" stroke="#bfbfbf" points="387,-487.5 494,-487.5 "/>
<text text-anchor="middle" x="440.5" y="-475.5" font-family="Helvetica,sans-Serif" font-size="10.00"> </text>
</a>
</g>
</g>
<!-- Node9&#45;&gt;Node4 -->
<g id="edge6" class="edge"><title>Node9&#45;&gt;Node4</title>
<path fill="none" stroke="midnightblue" d="M440.5,-458.266C440.5,-417.65 440.5,-350.558 440.5,-288.907"/>
<polygon fill="none" stroke="midnightblue" points="437,-458.497 440.5,-468.497 444,-458.497 437,-458.497"/>
</g>
<!-- Node10 -->
<g id="node7" class="node"><title>Node10</title>
<g id="a_node7"><a xlink:title=" ">
<polygon fill="white" stroke="#bfbfbf" points="512.5,-468.5 512.5,-525.5 652.5,-525.5 652.5,-468.5 512.5,-468.5"/>
<text text-anchor="middle" x="582.5" y="-513.5" font-family="Helvetica,sans-Serif" font-size="10.00">BLECharacteristicCallbacks</text>
<polyline fill="none" stroke="#bfbfbf" points="512.5,-506.5 652.5,-506.5 "/>
<text text-anchor="middle" x="582.5" y="-494.5" font-family="Helvetica,sans-Serif" font-size="10.00"> </text>
<polyline fill="none" stroke="#bfbfbf" points="512.5,-487.5 652.5,-487.5 "/>
<text text-anchor="middle" x="582.5" y="-475.5" font-family="Helvetica,sans-Serif" font-size="10.00"> </text>
</a>
</g>
</g>
<!-- Node10&#45;&gt;Node4 -->
<g id="edge7" class="edge"><title>Node10&#45;&gt;Node4</title>
<path fill="none" stroke="midnightblue" d="M567.526,-459.04C551.105,-418.507 523.736,-350.952 498.599,-288.907"/>
<polygon fill="none" stroke="midnightblue" points="564.359,-460.543 571.357,-468.497 570.846,-457.914 564.359,-460.543"/>
</g>
<!-- Node11&#45;&gt;Node4 -->
<g id="edge8" class="edge"><title>Node11&#45;&gt;Node4</title>
<path fill="none" stroke="#404040" d="M64.4547,-468.259C70.5805,-433.895 85.2124,-375.114 117.5,-336 181.919,-257.961 287.186,-204.459 359.95,-174.468"/>
<polygon fill="none" stroke="#404040" points="360.215,-174.36 364.275,-168.4 371.338,-169.856 367.278,-175.815 360.215,-174.36"/>
<text text-anchor="middle" x="155.5" y="-310" font-family="Helvetica,sans-Serif" font-size="10.00"> &#45;parser</text>
</g>
<!-- Node12 -->
<g id="node9" class="node"><title>Node12</title>
<g id="a_node9"><a xlink:href="../../d8/d39/classBLEMIDI.html" target="_top" xlink:title=" ">
<polygon fill="white" stroke="black" points="671,-430 671,-564 826,-564 826,-430 671,-430"/>
<text text-anchor="middle" x="748.5" y="-552" font-family="Helvetica,sans-Serif" font-size="10.00">BLEMIDI</text>
<polyline fill="none" stroke="black" points="671,-545 826,-545 "/>
<text text-anchor="start" x="679" y="-533" font-family="Helvetica,sans-Serif" font-size="10.00">&#45; pCharacteristic</text>
<text text-anchor="start" x="679" y="-522" font-family="Helvetica,sans-Serif" font-size="10.00">&#45; pServer</text>
<text text-anchor="start" x="679" y="-511" font-family="Helvetica,sans-Serif" font-size="10.00">&#45; descriptor</text>
<polyline fill="none" stroke="black" points="671,-504 826,-504 "/>
<text text-anchor="start" x="679" y="-492" font-family="Helvetica,sans-Serif" font-size="10.00">+ ~BLEMIDI()</text>
<text text-anchor="start" x="679" y="-481" font-family="Helvetica,sans-Serif" font-size="10.00">+ setServerCallbacks()</text>
<text text-anchor="start" x="679" y="-470" font-family="Helvetica,sans-Serif" font-size="10.00">+ setCharacteristicsCallbacks()</text>
<text text-anchor="start" x="679" y="-459" font-family="Helvetica,sans-Serif" font-size="10.00">+ begin()</text>
<text text-anchor="start" x="679" y="-448" font-family="Helvetica,sans-Serif" font-size="10.00">+ notifyValue()</text>
<text text-anchor="start" x="679" y="-437" font-family="Helvetica,sans-Serif" font-size="10.00">+ getValue()</text>
</a>
</g>
</g>
<!-- Node12&#45;&gt;Node4 -->
<g id="edge10" class="edge"><title>Node12&#45;&gt;Node4</title>
<path fill="none" stroke="#404040" d="M719.17,-429.613C704.202,-399.465 684.327,-364.303 661.5,-336 620.467,-285.124 564.653,-237.138 519.383,-202.054"/>
<polygon fill="none" stroke="#404040" points="519.117,-201.85 511.922,-201.369 509.598,-194.543 516.793,-195.023 519.117,-201.85"/>
<text text-anchor="middle" x="665" y="-310" font-family="Helvetica,sans-Serif" font-size="10.00"> &#45;bleMidi</text>
</g>
</g>
</svg>
