<?xml version="1.0" encoding="UTF-8" standalone="no"?>
<!DOCTYPE svg PUBLIC "-//W3C//DTD SVG 1.1//EN"
 "http://www.w3.org/Graphics/SVG/1.1/DTD/svg11.dtd">
<!-- Generated by graphviz version 2.38.0 (20140413.2041)
 -->
<!-- Title: BluetoothMIDI_Interface Pages: 1 -->
<svg width="834pt" height="953pt"
 viewBox="0.00 0.00 834.00 953.00" xmlns="http://www.w3.org/2000/svg" xmlns:xlink="http://www.w3.org/1999/xlink">
<g id="graph0" class="graph" transform="scale(1 1) rotate(0) translate(4 949)">
<title>BluetoothMIDI_Interface</title>
<polygon fill="white" stroke="none" points="-4,4 -4,-949 830,-949 830,4 -4,4"/>
<!-- Node4 -->
<g id="node1" class="node"><title>Node4</title>
<g id="a_node1"><a xlink:title="Bluetooth Low Energy MIDI Interface for the ESP32.">
<polygon fill="#bfbfbf" stroke="black" points="371.5,-0.5 371.5,-288.5 509.5,-288.5 509.5,-0.5 371.5,-0.5"/>
<text text-anchor="middle" x="440.5" y="-276.5" font-family="Helvetica,sans-Serif" font-size="10.00">BluetoothMIDI_Interface</text>
<polyline fill="none" stroke="black" points="371.5,-269.5 509.5,-269.5 "/>
<text text-anchor="start" x="379.5" y="-257.5" font-family="Helvetica,sans-Serif" font-size="10.00">&#45; startTime</text>
<text text-anchor="start" x="379.5" y="-246.5" font-family="Helvetica,sans-Serif" font-size="10.00">&#45; buffer</text>
<text text-anchor="start" x="379.5" y="-235.5" font-family="Helvetica,sans-Serif" font-size="10.00">&#45; index</text>
<text text-anchor="start" x="379.5" y="-224.5" font-family="Helvetica,sans-Serif" font-size="10.00">&#45; connected</text>
<text text-anchor="start" x="379.5" y="-213.5" font-family="Helvetica,sans-Serif" font-size="10.00">&#45; MAX_MESSAGE_TIME</text>
<text text-anchor="start" x="379.5" y="-202.5" font-family="Helvetica,sans-Serif" font-size="10.00">&#45; BUFFER_LENGTH</text>
<polyline fill="none" stroke="black" points="371.5,-195.5 509.5,-195.5 "/>
<text text-anchor="start" x="379.5" y="-183.5" font-family="Helvetica,sans-Serif" font-size="10.00">+ BluetoothMIDI_Interface()</text>
<text text-anchor="start" x="379.5" y="-172.5" font-family="Helvetica,sans-Serif" font-size="10.00">+ begin()</text>
<text text-anchor="start" x="379.5" y="-161.5" font-family="Helvetica,sans-Serif" font-size="10.00">+ publish()</text>
<text text-anchor="start" x="379.5" y="-150.5" font-family="Helvetica,sans-Serif" font-size="10.00">+ read()</text>
<text text-anchor="start" x="379.5" y="-139.5" font-family="Helvetica,sans-Serif" font-size="10.00">+ addToBuffer()</text>
<text text-anchor="start" x="379.5" y="-128.5" font-family="Helvetica,sans-Serif" font-size="10.00">+ addToBuffer()</text>
<text text-anchor="start" x="379.5" y="-117.5" font-family="Helvetica,sans-Serif" font-size="10.00">+ update()</text>
<text text-anchor="start" x="379.5" y="-106.5" font-family="Helvetica,sans-Serif" font-size="10.00">+ sendImpl()</text>
<text text-anchor="start" x="379.5" y="-95.5" font-family="Helvetica,sans-Serif" font-size="10.00">+ sendImpl()</text>
<text text-anchor="start" x="379.5" y="-84.5" font-family="Helvetica,sans-Serif" font-size="10.00">+ parse()</text>
<text text-anchor="start" x="379.5" y="-73.5" font-family="Helvetica,sans-Serif" font-size="10.00">+ parse()</text>
<text text-anchor="start" x="379.5" y="-62.5" font-family="Helvetica,sans-Serif" font-size="10.00">+ getBLEMIDI()</text>
<text text-anchor="start" x="379.5" y="-51.5" font-family="Helvetica,sans-Serif" font-size="10.00">&#45; onConnect()</text>
<text text-anchor="start" x="379.5" y="-40.5" font-family="Helvetica,sans-Serif" font-size="10.00">&#45; onDisconnect()</text>
<text text-anchor="start" x="379.5" y="-29.5" font-family="Helvetica,sans-Serif" font-size="10.00">&#45; onRead()</text>
<text text-anchor="start" x="379.5" y="-18.5" font-family="Helvetica,sans-Serif" font-size="10.00">&#45; onWrite()</text>
<text text-anchor="start" x="379.5" y="-7.5" font-family="Helvetica,sans-Serif" font-size="10.00">&#45; hasSpaceFor()</text>
</a>
</g>
</g>
<!-- Node5 -->
<g id="node2" class="node"><title>Node5</title>
<g id="a_node2"><a xlink:href="../../d9/d73/classMIDI__Interface.html" target="_top" xlink:title="An abstract class for MIDI interfaces.">
<polygon fill="white" stroke="black" points="127,-336.5 127,-569.5 248,-569.5 248,-336.5 127,-336.5"/>
<text text-anchor="middle" x="187.5" y="-557.5" font-family="Helvetica,sans-Serif" font-size="10.00">MIDI_Interface</text>
<polyline fill="none" stroke="black" points="127,-550.5 248,-550.5 "/>
<text text-anchor="middle" x="187.5" y="-538.5" font-family="Helvetica,sans-Serif" font-size="10.00"> </text>
<polyline fill="none" stroke="black" points="127,-531.5 248,-531.5 "/>
<text text-anchor="start" x="135" y="-519.5" font-family="Helvetica,sans-Serif" font-size="10.00">+ setCallbacks()</text>
<text text-anchor="start" x="135" y="-508.5" font-family="Helvetica,sans-Serif" font-size="10.00">+ ~MIDI_Interface()</text>
<text text-anchor="start" x="135" y="-497.5" font-family="Helvetica,sans-Serif" font-size="10.00">+ begin()</text>
<text text-anchor="start" x="135" y="-486.5" font-family="Helvetica,sans-Serif" font-size="10.00">+ send()</text>
<text text-anchor="start" x="135" y="-475.5" font-family="Helvetica,sans-Serif" font-size="10.00">+ send()</text>
<text text-anchor="start" x="135" y="-464.5" font-family="Helvetica,sans-Serif" font-size="10.00">+ update()</text>
<text text-anchor="start" x="135" y="-453.5" font-family="Helvetica,sans-Serif" font-size="10.00">+ read()</text>
<text text-anchor="start" x="135" y="-442.5" font-family="Helvetica,sans-Serif" font-size="10.00">+ setAsDefault()</text>
<text text-anchor="start" x="135" y="-431.5" font-family="Helvetica,sans-Serif" font-size="10.00">+ getChannelMessage()</text>
<text text-anchor="start" x="135" y="-420.5" font-family="Helvetica,sans-Serif" font-size="10.00">+ getSysExLength()</text>
<text text-anchor="start" x="135" y="-409.5" font-family="Helvetica,sans-Serif" font-size="10.00">+ getSysExBuffer()</text>
<text text-anchor="start" x="135" y="-398.5" font-family="Helvetica,sans-Serif" font-size="10.00">+ getDefault()</text>
<text text-anchor="start" x="135" y="-387.5" font-family="Helvetica,sans-Serif" font-size="10.00"># MIDI_Interface()</text>
<text text-anchor="start" x="135" y="-376.5" font-family="Helvetica,sans-Serif" font-size="10.00"># onChannelMessage()</text>
<text text-anchor="start" x="135" y="-365.5" font-family="Helvetica,sans-Serif" font-size="10.00"># onSysExMessage()</text>
<text text-anchor="start" x="135" y="-354.5" font-family="Helvetica,sans-Serif" font-size="10.00">&#45; sendImpl()</text>
<text text-anchor="start" x="135" y="-343.5" font-family="Helvetica,sans-Serif" font-size="10.00">&#45; sendImpl()</text>
</a>
</g>
</g>
<!-- Node5&#45;&gt;Node4 -->
<g id="edge1" class="edge"><title>Node5&#45;&gt;Node4</title>
<path fill="none" stroke="midnightblue" d="M254.507,-370.824C290.599,-327.099 335.058,-273.239 371.458,-229.142"/>
<polygon fill="none" stroke="midnightblue" points="251.767,-368.645 248.1,-378.586 257.165,-373.102 251.767,-368.645"/>
</g>
<!-- Node5&#45;&gt;Node5 -->
<g id="edge5" class="edge"><title>Node5&#45;&gt;Node5</title>
<path fill="none" stroke="#404040" d="M248.062,-477.609C258.641,-474.328 266,-466.125 266,-453 266,-445.002 263.267,-438.832 258.738,-434.489"/>
<polygon fill="none" stroke="#404040" points="258.482,-434.342 251.288,-434.84 248.062,-428.391 255.255,-427.893 258.482,-434.342"/>
<text text-anchor="middle" x="317.5" y="-450.5" font-family="Helvetica,sans-Serif" font-size="10.00"> &#45;DefaultMIDI_Interface</text>
</g>
<!-- Node6 -->
<g id="node3" class="node"><title>Node6</title>
<g id="a_node3"><a xlink:href="../../df/d0c/classMIDI__Parser.html" target="_top" xlink:title=" ">
<polygon fill="white" stroke="black" points="0,-617.5 0,-806.5 121,-806.5 121,-617.5 0,-617.5"/>
<text text-anchor="middle" x="60.5" y="-794.5" font-family="Helvetica,sans-Serif" font-size="10.00">MIDI_Parser</text>
<polyline fill="none" stroke="black" points="0,-787.5 121,-787.5 "/>
<text text-anchor="start" x="8" y="-775.5" font-family="Helvetica,sans-Serif" font-size="10.00"># SysExBuffer</text>
<text text-anchor="start" x="8" y="-764.5" font-family="Helvetica,sans-Serif" font-size="10.00"># SysExLength</text>
<text text-anchor="start" x="8" y="-753.5" font-family="Helvetica,sans-Serif" font-size="10.00"># receivingSysEx</text>
<text text-anchor="start" x="8" y="-742.5" font-family="Helvetica,sans-Serif" font-size="10.00"># bufferSize</text>
<polyline fill="none" stroke="black" points="0,-735.5 121,-735.5 "/>
<text text-anchor="start" x="8" y="-723.5" font-family="Helvetica,sans-Serif" font-size="10.00">+ getChannelMessage()</text>
<text text-anchor="start" x="8" y="-712.5" font-family="Helvetica,sans-Serif" font-size="10.00">+ getSysExBuffer()</text>
<text text-anchor="start" x="8" y="-701.5" font-family="Helvetica,sans-Serif" font-size="10.00">+ getSysExLength()</text>
<text text-anchor="start" x="8" y="-690.5" font-family="Helvetica,sans-Serif" font-size="10.00">+ getSysExMessage()</text>
<text text-anchor="start" x="8" y="-679.5" font-family="Helvetica,sans-Serif" font-size="10.00">+ isStatus()</text>
<text text-anchor="start" x="8" y="-668.5" font-family="Helvetica,sans-Serif" font-size="10.00">+ isData()</text>
<text text-anchor="start" x="8" y="-657.5" font-family="Helvetica,sans-Serif" font-size="10.00"># startSysEx()</text>
<text text-anchor="start" x="8" y="-646.5" font-family="Helvetica,sans-Serif" font-size="10.00"># endSysEx()</text>
<text text-anchor="start" x="8" y="-635.5" font-family="Helvetica,sans-Serif" font-size="10.00"># addSysExByte()</text>
<text text-anchor="start" x="8" y="-624.5" font-family="Helvetica,sans-Serif" font-size="10.00"># hasSpaceLeft()</text>
</a>
</g>
</g>
<!-- Node6&#45;&gt;Node5 -->
<g id="edge2" class="edge"><title>Node6&#45;&gt;Node5</title>
<path fill="none" stroke="#404040" d="M106.709,-617.49C112.633,-605.502 118.775,-593.073 124.905,-580.668"/>
<polygon fill="none" stroke="#404040" points="124.968,-580.542 124.04,-573.39 130.284,-569.783 131.212,-576.935 124.968,-580.542"/>
<text text-anchor="middle" x="137.5" y="-591" font-family="Helvetica,sans-Serif" font-size="10.00"> &#45;parser</text>
</g>
<!-- Node11 -->
<g id="node8" class="node"><title>Node11</title>
<g id="a_node8"><a xlink:href="../../d0/d0d/classSerialMIDI__Parser.html" target="_top" xlink:title=" ">
<polygon fill="white" stroke="black" points="12,-424.5 12,-481.5 109,-481.5 109,-424.5 12,-424.5"/>
<text text-anchor="middle" x="60.5" y="-469.5" font-family="Helvetica,sans-Serif" font-size="10.00">SerialMIDI_Parser</text>
<polyline fill="none" stroke="black" points="12,-462.5 109,-462.5 "/>
<text text-anchor="start" x="20" y="-450.5" font-family="Helvetica,sans-Serif" font-size="10.00">&#45; thirdByte</text>
<polyline fill="none" stroke="black" points="12,-443.5 109,-443.5 "/>
<text text-anchor="start" x="20" y="-431.5" font-family="Helvetica,sans-Serif" font-size="10.00">+ parse()</text>
</a>
</g>
</g>
<!-- Node6&#45;&gt;Node11 -->
<g id="edge9" class="edge"><title>Node6&#45;&gt;Node11</title>
<path fill="none" stroke="midnightblue" d="M60.5,-607.223C60.5,-561.599 60.5,-511.653 60.5,-481.58"/>
<polygon fill="none" stroke="midnightblue" points="57.0001,-607.49 60.5,-617.49 64.0001,-607.49 57.0001,-607.49"/>
</g>
<!-- Node7 -->
<g id="node4" class="node"><title>Node7</title>
<g id="a_node4"><a xlink:href="../../de/df8/structMIDI__message.html" target="_top" xlink:title=" ">
<polygon fill="white" stroke="black" points="19,-854.5 19,-944.5 102,-944.5 102,-854.5 19,-854.5"/>
<text text-anchor="middle" x="60.5" y="-932.5" font-family="Helvetica,sans-Serif" font-size="10.00">MIDI_message</text>
<polyline fill="none" stroke="black" points="19,-925.5 102,-925.5 "/>
<text text-anchor="start" x="27" y="-913.5" font-family="Helvetica,sans-Serif" font-size="10.00">+ header</text>
<text text-anchor="start" x="27" y="-902.5" font-family="Helvetica,sans-Serif" font-size="10.00">+ data1</text>
<text text-anchor="start" x="27" y="-891.5" font-family="Helvetica,sans-Serif" font-size="10.00">+ data2</text>
<polyline fill="none" stroke="black" points="19,-884.5 102,-884.5 "/>
<text text-anchor="start" x="27" y="-872.5" font-family="Helvetica,sans-Serif" font-size="10.00">+ operator==()</text>
<text text-anchor="start" x="27" y="-861.5" font-family="Helvetica,sans-Serif" font-size="10.00">+ operator!=()</text>
</a>
</g>
</g>
<!-- Node7&#45;&gt;Node6 -->
<g id="edge3" class="edge"><title>Node7&#45;&gt;Node6</title>
<path fill="none" stroke="#404040" d="M60.5,-854.068C60.5,-843.296 60.5,-831.318 60.5,-819.021"/>
<polygon fill="none" stroke="#404040" points="60.5001,-818.652 56.5,-812.652 60.5,-806.652 64.5,-812.652 60.5001,-818.652"/>
<text text-anchor="middle" x="83.5" y="-828" font-family="Helvetica,sans-Serif" font-size="10.00"> #midimsg</text>
</g>
<!-- Node8 -->
<g id="node5" class="node"><title>Node8</title>
<g id="a_node5"><a xlink:href="../../de/d55/classMIDI__Callbacks.html" target="_top" xlink:title="A class for callbacks from MIDI input.">
<polygon fill="white" stroke="black" points="139,-672.5 139,-751.5 254,-751.5 254,-672.5 139,-672.5"/>
<text text-anchor="middle" x="196.5" y="-739.5" font-family="Helvetica,sans-Serif" font-size="10.00">MIDI_Callbacks</text>
<polyline fill="none" stroke="black" points="139,-732.5 254,-732.5 "/>
<text text-anchor="middle" x="196.5" y="-720.5" font-family="Helvetica,sans-Serif" font-size="10.00"> </text>
<polyline fill="none" stroke="black" points="139,-713.5 254,-713.5 "/>
<text text-anchor="start" x="147" y="-701.5" font-family="Helvetica,sans-Serif" font-size="10.00">+ ~MIDI_Callbacks()</text>
<text text-anchor="start" x="147" y="-690.5" font-family="Helvetica,sans-Serif" font-size="10.00">&#45; onChannelMessage()</text>
<text text-anchor="start" x="147" y="-679.5" font-family="Helvetica,sans-Serif" font-size="10.00">&#45; onSysExMessage()</text>
</a>
</g>
</g>
<!-- Node8&#45;&gt;Node5 -->
<g id="edge4" class="edge"><title>Node8&#45;&gt;Node5</title>
<path fill="none" stroke="#404040" d="M195.143,-672.246C194.288,-647.831 193.13,-614.781 191.975,-581.794"/>
<polygon fill="none" stroke="#404040" points="191.97,-581.652 187.763,-575.796 191.55,-569.659 195.758,-575.516 191.97,-581.652"/>
<text text-anchor="middle" x="217.5" y="-591" font-family="Helvetica,sans-Serif" font-size="10.00"> &#45;callbacks</text>
</g>
<!-- Node9 -->
<g id="node6" class="node"><title>Node9</title>
<g id="a_node6"><a xlink:title=" ">
<polygon fill="white" stroke="#bfbfbf" points="387,-424.5 387,-481.5 494,-481.5 494,-424.5 387,-424.5"/>
<text text-anchor="middle" x="440.5" y="-469.5" font-family="Helvetica,sans-Serif" font-size="10.00">BLEServerCallbacks</text>
<polyline fill="none" stroke="#bfbfbf" points="387,-462.5 494,-462.5 "/>
<text text-anchor="middle" x="440.5" y="-450.5" font-family="Helvetica,sans-Serif" font-size="10.00"> </text>
<polyline fill="none" stroke="#bfbfbf" points="387,-443.5 494,-443.5 "/>
<text text-anchor="middle" x="440.5" y="-431.5" font-family="Helvetica,sans-Serif" font-size="10.00"> </text>
</a>
</g>
</g>
<!-- Node9&#45;&gt;Node4 -->
<g id="edge6" class="edge"><title>Node9&#45;&gt;Node4</title>
<path fill="none" stroke="midnightblue" d="M440.5,-414.113C440.5,-382.346 440.5,-334.882 440.5,-288.648"/>
<polygon fill="none" stroke="midnightblue" points="437,-414.26 440.5,-424.26 444,-414.26 437,-414.26"/>
</g>
<!-- Node10 -->
<g id="node7" class="node"><title>Node10</title>
<g id="a_node7"><a xlink:title=" ">
<polygon fill="white" stroke="#bfbfbf" points="512.5,-424.5 512.5,-481.5 652.5,-481.5 652.5,-424.5 512.5,-424.5"/>
<text text-anchor="middle" x="582.5" y="-469.5" font-family="Helvetica,sans-Serif" font-size="10.00">BLECharacteristicCallbacks</text>
<polyline fill="none" stroke="#bfbfbf" points="512.5,-462.5 652.5,-462.5 "/>
<text text-anchor="middle" x="582.5" y="-450.5" font-family="Helvetica,sans-Serif" font-size="10.00"> </text>
<polyline fill="none" stroke="#bfbfbf" points="512.5,-443.5 652.5,-443.5 "/>
<text text-anchor="middle" x="582.5" y="-431.5" font-family="Helvetica,sans-Serif" font-size="10.00"> </text>
</a>
</g>
</g>
<!-- Node10&#45;&gt;Node4 -->
<g id="edge7" class="edge"><title>Node10&#45;&gt;Node4</title>
<path fill="none" stroke="midnightblue" d="M565.329,-414.938C550.612,-383.172 528.426,-335.284 506.82,-288.648"/>
<polygon fill="none" stroke="midnightblue" points="562.268,-416.657 569.648,-424.26 568.62,-413.715 562.268,-416.657"/>
</g>
<!-- Node11&#45;&gt;Node4 -->
<g id="edge8" class="edge"><title>Node11&#45;&gt;Node4</title>
<path fill="none" stroke="#404040" d="M68.9065,-424.481C77.7463,-399.135 93.7081,-361.676 117.5,-336 185.753,-262.341 289.02,-208.286 360.328,-176.952"/>
<polygon fill="none" stroke="#404040" points="360.477,-176.888 364.393,-170.833 371.488,-172.119 367.572,-178.174 360.477,-176.888"/>
<text text-anchor="middle" x="163.5" y="-310" font-family="Helvetica,sans-Serif" font-size="10.00"> &#45;parser</text>
</g>
<!-- Node12 -->
<g id="node9" class="node"><title>Node12</title>
<g id="a_node9"><a xlink:href="../../d8/d39/classBLEMIDI.html" target="_top" xlink:title=" ">
<polygon fill="white" stroke="black" points="671,-386 671,-520 826,-520 826,-386 671,-386"/>
<text text-anchor="middle" x="748.5" y="-508" font-family="Helvetica,sans-Serif" font-size="10.00">BLEMIDI</text>
<polyline fill="none" stroke="black" points="671,-501 826,-501 "/>
<text text-anchor="start" x="679" y="-489" font-family="Helvetica,sans-Serif" font-size="10.00">&#45; pCharacteristic</text>
<text text-anchor="start" x="679" y="-478" font-family="Helvetica,sans-Serif" font-size="10.00">&#45; pServer</text>
<text text-anchor="start" x="679" y="-467" font-family="Helvetica,sans-Serif" font-size="10.00">&#45; descriptor</text>
<polyline fill="none" stroke="black" points="671,-460 826,-460 "/>
<text text-anchor="start" x="679" y="-448" font-family="Helvetica,sans-Serif" font-size="10.00">+ ~BLEMIDI()</text>
<text text-anchor="start" x="679" y="-437" font-family="Helvetica,sans-Serif" font-size="10.00">+ setServerCallbacks()</text>
<text text-anchor="start" x="679" y="-426" font-family="Helvetica,sans-Serif" font-size="10.00">+ setCharacteristicsCallbacks()</text>
<text text-anchor="start" x="679" y="-415" font-family="Helvetica,sans-Serif" font-size="10.00">+ begin()</text>
<text text-anchor="start" x="679" y="-404" font-family="Helvetica,sans-Serif" font-size="10.00">+ notifyValue()</text>
<text text-anchor="start" x="679" y="-393" font-family="Helvetica,sans-Serif" font-size="10.00">+ getValue()</text>
</a>
</g>
</g>
<!-- Node12&#45;&gt;Node4 -->
<g id="edge10" class="edge"><title>Node12&#45;&gt;Node4</title>
<path fill="none" stroke="#404040" d="M702.776,-385.894C690.095,-369.04 675.85,-351.359 661.5,-336 617.684,-289.102 563.104,-241.962 519.148,-206.308"/>
<polygon fill="none" stroke="#404040" points="518.993,-206.183 511.811,-205.53 509.652,-198.65 516.834,-199.303 518.993,-206.183"/>
<text text-anchor="middle" x="658" y="-310" font-family="Helvetica,sans-Serif" font-size="10.00"> &#45;bleMidi</text>
</g>
</g>
</svg>
