<?xml version="1.0" encoding="UTF-8" standalone="no"?>
<!DOCTYPE svg PUBLIC "-//W3C//DTD SVG 1.1//EN"
 "http://www.w3.org/Graphics/SVG/1.1/DTD/svg11.dtd">
<!-- Generated by graphviz version 2.38.0 (20140413.2041)
 -->
<!-- Title: BluetoothMIDI_Interface Pages: 1 -->
<svg width="841pt" height="1063pt"
 viewBox="0.00 0.00 840.50 1063.00" xmlns="http://www.w3.org/2000/svg" xmlns:xlink="http://www.w3.org/1999/xlink">
<g id="graph0" class="graph" transform="scale(1 1) rotate(0) translate(4 1059)">
<title>BluetoothMIDI_Interface</title>
<polygon fill="white" stroke="none" points="-4,4 -4,-1059 836.5,-1059 836.5,4 -4,4"/>
<!-- Node1 -->
<g id="node1" class="node"><title>Node1</title>
<g id="a_node1"><a xlink:title="Bluetooth Low Energy MIDI Interface for the ESP32.">
<polygon fill="#bfbfbf" stroke="black" points="378,-0.5 378,-299.5 516,-299.5 516,-0.5 378,-0.5"/>
<text text-anchor="middle" x="447" y="-287.5" font-family="Helvetica,sans-Serif" font-size="10.00">BluetoothMIDI_Interface</text>
<polyline fill="none" stroke="black" points="378,-280.5 516,-280.5 "/>
<text text-anchor="start" x="386" y="-268.5" font-family="Helvetica,sans-Serif" font-size="10.00">&#45; startTime</text>
<text text-anchor="start" x="386" y="-257.5" font-family="Helvetica,sans-Serif" font-size="10.00">&#45; buffer</text>
<text text-anchor="start" x="386" y="-246.5" font-family="Helvetica,sans-Serif" font-size="10.00">&#45; index</text>
<text text-anchor="start" x="386" y="-235.5" font-family="Helvetica,sans-Serif" font-size="10.00">&#45; connected</text>
<text text-anchor="start" x="386" y="-224.5" font-family="Helvetica,sans-Serif" font-size="10.00">&#45; MAX_MESSAGE_TIME</text>
<text text-anchor="start" x="386" y="-213.5" font-family="Helvetica,sans-Serif" font-size="10.00">&#45; BUFFER_LENGTH</text>
<polyline fill="none" stroke="black" points="378,-206.5 516,-206.5 "/>
<text text-anchor="start" x="386" y="-194.5" font-family="Helvetica,sans-Serif" font-size="10.00">+ BluetoothMIDI_Interface()</text>
<text text-anchor="start" x="386" y="-183.5" font-family="Helvetica,sans-Serif" font-size="10.00">+ begin()</text>
<text text-anchor="start" x="386" y="-172.5" font-family="Helvetica,sans-Serif" font-size="10.00">+ publish()</text>
<text text-anchor="start" x="386" y="-161.5" font-family="Helvetica,sans-Serif" font-size="10.00">+ read()</text>
<text text-anchor="start" x="386" y="-150.5" font-family="Helvetica,sans-Serif" font-size="10.00">+ addToBuffer()</text>
<text text-anchor="start" x="386" y="-139.5" font-family="Helvetica,sans-Serif" font-size="10.00">+ addToBuffer()</text>
<text text-anchor="start" x="386" y="-128.5" font-family="Helvetica,sans-Serif" font-size="10.00">+ update()</text>
<text text-anchor="start" x="386" y="-117.5" font-family="Helvetica,sans-Serif" font-size="10.00">+ sendImpl()</text>
<text text-anchor="start" x="386" y="-106.5" font-family="Helvetica,sans-Serif" font-size="10.00">+ sendImpl()</text>
<text text-anchor="start" x="386" y="-95.5" font-family="Helvetica,sans-Serif" font-size="10.00">+ sendImpl()</text>
<text text-anchor="start" x="386" y="-84.5" font-family="Helvetica,sans-Serif" font-size="10.00">+ parse()</text>
<text text-anchor="start" x="386" y="-73.5" font-family="Helvetica,sans-Serif" font-size="10.00">+ parse()</text>
<text text-anchor="start" x="386" y="-62.5" font-family="Helvetica,sans-Serif" font-size="10.00">+ getBLEMIDI()</text>
<text text-anchor="start" x="386" y="-51.5" font-family="Helvetica,sans-Serif" font-size="10.00">&#45; onConnect()</text>
<text text-anchor="start" x="386" y="-40.5" font-family="Helvetica,sans-Serif" font-size="10.00">&#45; onDisconnect()</text>
<text text-anchor="start" x="386" y="-29.5" font-family="Helvetica,sans-Serif" font-size="10.00">&#45; onRead()</text>
<text text-anchor="start" x="386" y="-18.5" font-family="Helvetica,sans-Serif" font-size="10.00">&#45; onWrite()</text>
<text text-anchor="start" x="386" y="-7.5" font-family="Helvetica,sans-Serif" font-size="10.00">&#45; hasSpaceFor()</text>
</a>
</g>
</g>
<!-- Node2 -->
<g id="node2" class="node"><title>Node2</title>
<g id="a_node2"><a xlink:href="../../de/d76/classParsing__MIDI__Interface.html" target="_top" xlink:title="An abstract class for MIDI interfaces.">
<polygon fill="white" stroke="black" points="241,-347.5 241,-547.5 375,-547.5 375,-347.5 241,-347.5"/>
<text text-anchor="middle" x="308" y="-535.5" font-family="Helvetica,sans-Serif" font-size="10.00">Parsing_MIDI_Interface</text>
<polyline fill="none" stroke="black" points="241,-528.5 375,-528.5 "/>
<text text-anchor="middle" x="308" y="-516.5" font-family="Helvetica,sans-Serif" font-size="10.00"> </text>
<polyline fill="none" stroke="black" points="241,-509.5 375,-509.5 "/>
<text text-anchor="start" x="249" y="-497.5" font-family="Helvetica,sans-Serif" font-size="10.00">+ getParser()</text>
<text text-anchor="start" x="249" y="-486.5" font-family="Helvetica,sans-Serif" font-size="10.00">+ getChannelMessage()</text>
<text text-anchor="start" x="249" y="-475.5" font-family="Helvetica,sans-Serif" font-size="10.00">+ getSysExMessage()</text>
<text text-anchor="start" x="249" y="-464.5" font-family="Helvetica,sans-Serif" font-size="10.00">+ getCN()</text>
<text text-anchor="start" x="249" y="-453.5" font-family="Helvetica,sans-Serif" font-size="10.00">+ update()</text>
<text text-anchor="start" x="249" y="-442.5" font-family="Helvetica,sans-Serif" font-size="10.00">+ setCallbacks()</text>
<text text-anchor="start" x="249" y="-431.5" font-family="Helvetica,sans-Serif" font-size="10.00">+ setCallbacks()</text>
<text text-anchor="start" x="249" y="-420.5" font-family="Helvetica,sans-Serif" font-size="10.00">+ setCallbacks()</text>
<text text-anchor="start" x="249" y="-409.5" font-family="Helvetica,sans-Serif" font-size="10.00"># Parsing_MIDI_Interface()</text>
<text text-anchor="start" x="249" y="-398.5" font-family="Helvetica,sans-Serif" font-size="10.00"># dispatchMIDIEvent()</text>
<text text-anchor="start" x="249" y="-387.5" font-family="Helvetica,sans-Serif" font-size="10.00">&#45; read()</text>
<text text-anchor="start" x="249" y="-376.5" font-family="Helvetica,sans-Serif" font-size="10.00">&#45; onRealtimeMessage()</text>
<text text-anchor="start" x="249" y="-365.5" font-family="Helvetica,sans-Serif" font-size="10.00">&#45; onChannelMessage()</text>
<text text-anchor="start" x="249" y="-354.5" font-family="Helvetica,sans-Serif" font-size="10.00">&#45; onSysExMessage()</text>
</a>
</g>
</g>
<!-- Node2&#45;&gt;Node1 -->
<g id="edge1" class="edge"><title>Node2&#45;&gt;Node1</title>
<path fill="none" stroke="midnightblue" d="M359.104,-337.857C365.246,-324.8 371.595,-311.304 377.938,-297.818"/>
<polygon fill="none" stroke="midnightblue" points="355.761,-336.742 354.672,-347.281 362.095,-339.722 355.761,-336.742"/>
</g>
<!-- Node3 -->
<g id="node3" class="node"><title>Node3</title>
<g id="a_node3"><a xlink:href="../../d9/d73/classMIDI__Interface.html" target="_top" xlink:title="An abstract class for MIDI interfaces.">
<polygon fill="white" stroke="black" points="388.5,-595.5 388.5,-905.5 491.5,-905.5 491.5,-595.5 388.5,-595.5"/>
<text text-anchor="middle" x="440" y="-893.5" font-family="Helvetica,sans-Serif" font-size="10.00">MIDI_Interface</text>
<polyline fill="none" stroke="black" points="388.5,-886.5 491.5,-886.5 "/>
<text text-anchor="middle" x="440" y="-874.5" font-family="Helvetica,sans-Serif" font-size="10.00"> </text>
<polyline fill="none" stroke="black" points="388.5,-867.5 491.5,-867.5 "/>
<text text-anchor="start" x="396.5" y="-855.5" font-family="Helvetica,sans-Serif" font-size="10.00">+ ~MIDI_Interface()</text>
<text text-anchor="start" x="396.5" y="-844.5" font-family="Helvetica,sans-Serif" font-size="10.00">+ begin()</text>
<text text-anchor="start" x="396.5" y="-833.5" font-family="Helvetica,sans-Serif" font-size="10.00">+ send()</text>
<text text-anchor="start" x="396.5" y="-822.5" font-family="Helvetica,sans-Serif" font-size="10.00">+ send()</text>
<text text-anchor="start" x="396.5" y="-811.5" font-family="Helvetica,sans-Serif" font-size="10.00">+ sendCN()</text>
<text text-anchor="start" x="396.5" y="-800.5" font-family="Helvetica,sans-Serif" font-size="10.00">+ sendCN()</text>
<text text-anchor="start" x="396.5" y="-789.5" font-family="Helvetica,sans-Serif" font-size="10.00">+ sendNoteOn()</text>
<text text-anchor="start" x="396.5" y="-778.5" font-family="Helvetica,sans-Serif" font-size="10.00">+ sendNoteOff()</text>
<text text-anchor="start" x="396.5" y="-767.5" font-family="Helvetica,sans-Serif" font-size="10.00">+ sendCC()</text>
<text text-anchor="start" x="396.5" y="-756.5" font-family="Helvetica,sans-Serif" font-size="10.00">+ sendPB()</text>
<text text-anchor="start" x="396.5" y="-745.5" font-family="Helvetica,sans-Serif" font-size="10.00">+ sendPB()</text>
<text text-anchor="start" x="396.5" y="-734.5" font-family="Helvetica,sans-Serif" font-size="10.00">+ sendPC()</text>
<text text-anchor="start" x="396.5" y="-723.5" font-family="Helvetica,sans-Serif" font-size="10.00">+ sendPC()</text>
<text text-anchor="start" x="396.5" y="-712.5" font-family="Helvetica,sans-Serif" font-size="10.00">+ send()</text>
<text text-anchor="start" x="396.5" y="-701.5" font-family="Helvetica,sans-Serif" font-size="10.00">+ send()</text>
<text text-anchor="start" x="396.5" y="-690.5" font-family="Helvetica,sans-Serif" font-size="10.00">+ update()</text>
<text text-anchor="start" x="396.5" y="-679.5" font-family="Helvetica,sans-Serif" font-size="10.00">+ setAsDefault()</text>
<text text-anchor="start" x="396.5" y="-668.5" font-family="Helvetica,sans-Serif" font-size="10.00">+ setCallbacks()</text>
<text text-anchor="start" x="396.5" y="-657.5" font-family="Helvetica,sans-Serif" font-size="10.00">+ setCallbacks()</text>
<text text-anchor="start" x="396.5" y="-646.5" font-family="Helvetica,sans-Serif" font-size="10.00">+ sendImpl()</text>
<text text-anchor="start" x="396.5" y="-635.5" font-family="Helvetica,sans-Serif" font-size="10.00">+ sendImpl()</text>
<text text-anchor="start" x="396.5" y="-624.5" font-family="Helvetica,sans-Serif" font-size="10.00">+ sendImpl()</text>
<text text-anchor="start" x="396.5" y="-613.5" font-family="Helvetica,sans-Serif" font-size="10.00">+ getDefault()</text>
<text text-anchor="start" x="396.5" y="-602.5" font-family="Helvetica,sans-Serif" font-size="10.00"># MIDI_Interface()</text>
</a>
</g>
</g>
<!-- Node3&#45;&gt;Node2 -->
<g id="edge2" class="edge"><title>Node3&#45;&gt;Node2</title>
<path fill="none" stroke="midnightblue" d="M384.439,-607.556C382.625,-603.315 380.809,-599.122 379,-595 372.24,-579.602 364.787,-563.447 357.329,-547.72"/>
<polygon fill="none" stroke="midnightblue" points="381.279,-609.069 388.406,-616.908 387.723,-606.335 381.279,-609.069"/>
</g>
<!-- Node3&#45;&gt;Node3 -->
<g id="edge3" class="edge"><title>Node3&#45;&gt;Node3</title>
<path fill="none" stroke="#404040" d="M491.525,-782.602C502,-779.105 509.5,-768.404 509.5,-750.5 509.5,-739.31 506.57,-730.934 501.816,-725.371"/>
<polygon fill="none" stroke="#404040" points="501.459,-725.13 494.248,-725.075 491.525,-718.398 498.736,-718.453 501.459,-725.13"/>
<text text-anchor="middle" x="561" y="-748" font-family="Helvetica,sans-Serif" font-size="10.00"> &#45;DefaultMIDI_Interface</text>
</g>
<!-- Node4 -->
<g id="node4" class="node"><title>Node4</title>
<g id="a_node4"><a xlink:href="../../df/d0c/classMIDI__Parser.html" target="_top" xlink:title=" ">
<polygon fill="white" stroke="black" points="110.5,-689 110.5,-812 231.5,-812 231.5,-689 110.5,-689"/>
<text text-anchor="middle" x="171" y="-800" font-family="Helvetica,sans-Serif" font-size="10.00">MIDI_Parser</text>
<polyline fill="none" stroke="black" points="110.5,-793 231.5,-793 "/>
<text text-anchor="middle" x="171" y="-781" font-family="Helvetica,sans-Serif" font-size="10.00"> </text>
<polyline fill="none" stroke="black" points="110.5,-774 231.5,-774 "/>
<text text-anchor="start" x="118.5" y="-762" font-family="Helvetica,sans-Serif" font-size="10.00">+ getChannelMessage()</text>
<text text-anchor="start" x="118.5" y="-751" font-family="Helvetica,sans-Serif" font-size="10.00">+ getSysEx()</text>
<text text-anchor="start" x="118.5" y="-740" font-family="Helvetica,sans-Serif" font-size="10.00">+ getSysExBuffer()</text>
<text text-anchor="start" x="118.5" y="-729" font-family="Helvetica,sans-Serif" font-size="10.00">+ getSysExLength()</text>
<text text-anchor="start" x="118.5" y="-718" font-family="Helvetica,sans-Serif" font-size="10.00">+ getCN()</text>
<text text-anchor="start" x="118.5" y="-707" font-family="Helvetica,sans-Serif" font-size="10.00">+ isStatus()</text>
<text text-anchor="start" x="118.5" y="-696" font-family="Helvetica,sans-Serif" font-size="10.00">+ isData()</text>
</a>
</g>
</g>
<!-- Node4&#45;&gt;Node2 -->
<g id="edge4" class="edge"><title>Node4&#45;&gt;Node2</title>
<path fill="none" stroke="#404040" d="M197.832,-688.873C210.521,-660.344 225.939,-625.879 240,-595 245.338,-583.277 250.95,-571.044 256.566,-558.862"/>
<polygon fill="none" stroke="#404040" points="256.687,-558.599 255.57,-551.475 261.716,-547.704 262.833,-554.828 256.687,-558.599"/>
<text text-anchor="middle" x="270" y="-569" font-family="Helvetica,sans-Serif" font-size="10.00"> &#45;parser</text>
</g>
<!-- Node9 -->
<g id="node9" class="node"><title>Node9</title>
<g id="a_node9"><a xlink:href="../../d0/d0d/classSerialMIDI__Parser.html" target="_top" xlink:title=" ">
<polygon fill="white" stroke="black" points="122.5,-397 122.5,-498 219.5,-498 219.5,-397 122.5,-397"/>
<text text-anchor="middle" x="171" y="-486" font-family="Helvetica,sans-Serif" font-size="10.00">SerialMIDI_Parser</text>
<polyline fill="none" stroke="black" points="122.5,-479 219.5,-479 "/>
<text text-anchor="start" x="130.5" y="-467" font-family="Helvetica,sans-Serif" font-size="10.00">&#45; thirdByte</text>
<polyline fill="none" stroke="black" points="122.5,-460 219.5,-460 "/>
<text text-anchor="start" x="130.5" y="-448" font-family="Helvetica,sans-Serif" font-size="10.00">+ parse()</text>
<text text-anchor="start" x="130.5" y="-437" font-family="Helvetica,sans-Serif" font-size="10.00">+ getSysEx()</text>
<text text-anchor="start" x="130.5" y="-426" font-family="Helvetica,sans-Serif" font-size="10.00"># addSysExByte()</text>
<text text-anchor="start" x="130.5" y="-415" font-family="Helvetica,sans-Serif" font-size="10.00"># startSysEx()</text>
<text text-anchor="start" x="130.5" y="-404" font-family="Helvetica,sans-Serif" font-size="10.00"># endSysEx()</text>
</a>
</g>
</g>
<!-- Node4&#45;&gt;Node9 -->
<g id="edge10" class="edge"><title>Node4&#45;&gt;Node9</title>
<path fill="none" stroke="midnightblue" d="M171,-678.822C171,-623.247 171,-547.238 171,-498.004"/>
<polygon fill="none" stroke="midnightblue" points="167.5,-678.95 171,-688.95 174.5,-678.95 167.5,-678.95"/>
</g>
<!-- Node5 -->
<g id="node5" class="node"><title>Node5</title>
<g id="a_node5"><a xlink:href="../../d7/d3f/structChannelMessage.html" target="_top" xlink:title=" ">
<polygon fill="white" stroke="black" points="125,-953.5 125,-1054.5 217,-1054.5 217,-953.5 125,-953.5"/>
<text text-anchor="middle" x="171" y="-1042.5" font-family="Helvetica,sans-Serif" font-size="10.00">ChannelMessage</text>
<polyline fill="none" stroke="black" points="125,-1035.5 217,-1035.5 "/>
<text text-anchor="start" x="133" y="-1023.5" font-family="Helvetica,sans-Serif" font-size="10.00">+ header</text>
<text text-anchor="start" x="133" y="-1012.5" font-family="Helvetica,sans-Serif" font-size="10.00">+ data1</text>
<text text-anchor="start" x="133" y="-1001.5" font-family="Helvetica,sans-Serif" font-size="10.00">+ data2</text>
<text text-anchor="start" x="133" y="-990.5" font-family="Helvetica,sans-Serif" font-size="10.00">+ CN</text>
<polyline fill="none" stroke="black" points="125,-983.5 217,-983.5 "/>
<text text-anchor="start" x="133" y="-971.5" font-family="Helvetica,sans-Serif" font-size="10.00">+ operator==()</text>
<text text-anchor="start" x="133" y="-960.5" font-family="Helvetica,sans-Serif" font-size="10.00">+ operator!=()</text>
</a>
</g>
</g>
<!-- Node5&#45;&gt;Node4 -->
<g id="edge5" class="edge"><title>Node5&#45;&gt;Node4</title>
<path fill="none" stroke="#404040" d="M171,-953.312C171,-916.518 171,-865.809 171,-824.426"/>
<polygon fill="none" stroke="#404040" points="171,-824.188 167,-818.188 171,-812.188 175,-818.188 171,-824.188"/>
<text text-anchor="middle" x="194" y="-927" font-family="Helvetica,sans-Serif" font-size="10.00"> #midimsg</text>
</g>
<!-- Node6 -->
<g id="node6" class="node"><title>Node6</title>
<g id="a_node6"><a xlink:href="../../de/d55/classMIDI__Callbacks.html" target="_top" xlink:title="A class for callbacks from MIDI input.">
<polygon fill="white" stroke="black" points="249.5,-705.5 249.5,-795.5 370.5,-795.5 370.5,-705.5 249.5,-705.5"/>
<text text-anchor="middle" x="310" y="-783.5" font-family="Helvetica,sans-Serif" font-size="10.00">MIDI_Callbacks</text>
<polyline fill="none" stroke="black" points="249.5,-776.5 370.5,-776.5 "/>
<text text-anchor="middle" x="310" y="-764.5" font-family="Helvetica,sans-Serif" font-size="10.00"> </text>
<polyline fill="none" stroke="black" points="249.5,-757.5 370.5,-757.5 "/>
<text text-anchor="start" x="257.5" y="-745.5" font-family="Helvetica,sans-Serif" font-size="10.00">+ onChannelMessage()</text>
<text text-anchor="start" x="257.5" y="-734.5" font-family="Helvetica,sans-Serif" font-size="10.00">+ onSysExMessage()</text>
<text text-anchor="start" x="257.5" y="-723.5" font-family="Helvetica,sans-Serif" font-size="10.00">+ onRealtimeMessage()</text>
<text text-anchor="start" x="257.5" y="-712.5" font-family="Helvetica,sans-Serif" font-size="10.00">+ ~MIDI_Callbacks()</text>
</a>
</g>
</g>
<!-- Node6&#45;&gt;Node2 -->
<g id="edge6" class="edge"><title>Node6&#45;&gt;Node2</title>
<path fill="none" stroke="#404040" d="M309.707,-705.41C309.453,-667.238 309.076,-610.37 308.74,-559.833"/>
<polygon fill="none" stroke="#404040" points="308.74,-559.814 304.7,-553.841 308.66,-547.814 312.7,-553.787 308.74,-559.814"/>
<text text-anchor="middle" x="333" y="-569" font-family="Helvetica,sans-Serif" font-size="10.00"> &#45;callbacks</text>
</g>
<!-- Node7 -->
<g id="node7" class="node"><title>Node7</title>
<g id="a_node7"><a xlink:title=" ">
<polygon fill="white" stroke="#bfbfbf" points="393.5,-419 393.5,-476 500.5,-476 500.5,-419 393.5,-419"/>
<text text-anchor="middle" x="447" y="-464" font-family="Helvetica,sans-Serif" font-size="10.00">BLEServerCallbacks</text>
<polyline fill="none" stroke="#bfbfbf" points="393.5,-457 500.5,-457 "/>
<text text-anchor="middle" x="447" y="-445" font-family="Helvetica,sans-Serif" font-size="10.00"> </text>
<polyline fill="none" stroke="#bfbfbf" points="393.5,-438 500.5,-438 "/>
<text text-anchor="middle" x="447" y="-426" font-family="Helvetica,sans-Serif" font-size="10.00"> </text>
</a>
</g>
</g>
<!-- Node7&#45;&gt;Node1 -->
<g id="edge7" class="edge"><title>Node7&#45;&gt;Node1</title>
<path fill="none" stroke="midnightblue" d="M447,-408.819C447,-380.71 447,-340.327 447,-299.835"/>
<polygon fill="none" stroke="midnightblue" points="443.5,-408.965 447,-418.965 450.5,-408.965 443.5,-408.965"/>
</g>
<!-- Node8 -->
<g id="node8" class="node"><title>Node8</title>
<g id="a_node8"><a xlink:title=" ">
<polygon fill="white" stroke="#bfbfbf" points="519,-419 519,-476 659,-476 659,-419 519,-419"/>
<text text-anchor="middle" x="589" y="-464" font-family="Helvetica,sans-Serif" font-size="10.00">BLECharacteristicCallbacks</text>
<polyline fill="none" stroke="#bfbfbf" points="519,-457 659,-457 "/>
<text text-anchor="middle" x="589" y="-445" font-family="Helvetica,sans-Serif" font-size="10.00"> </text>
<polyline fill="none" stroke="#bfbfbf" points="519,-438 659,-438 "/>
<text text-anchor="middle" x="589" y="-426" font-family="Helvetica,sans-Serif" font-size="10.00"> </text>
</a>
</g>
</g>
<!-- Node8&#45;&gt;Node1 -->
<g id="edge8" class="edge"><title>Node8&#45;&gt;Node1</title>
<path fill="none" stroke="midnightblue" d="M571.26,-409.583C557.196,-380.316 536.575,-337.405 516.158,-294.917"/>
<polygon fill="none" stroke="midnightblue" points="568.283,-411.468 575.768,-418.965 574.592,-408.436 568.283,-411.468"/>
</g>
<!-- Node9&#45;&gt;Node1 -->
<g id="edge9" class="edge"><title>Node9&#45;&gt;Node1</title>
<path fill="none" stroke="#404040" d="M197.72,-396.815C207.565,-380.288 219.413,-362.227 232,-347 272.625,-297.856 325.464,-249.52 368.593,-213.144"/>
<polygon fill="none" stroke="#404040" points="368.72,-213.038 370.753,-206.119 377.921,-205.335 375.889,-212.253 368.72,-213.038"/>
<text text-anchor="middle" x="270" y="-321" font-family="Helvetica,sans-Serif" font-size="10.00"> &#45;parser</text>
</g>
<!-- Node10 -->
<g id="node10" class="node"><title>Node10</title>
<g id="a_node10"><a xlink:href="../../d1/db1/classSysExBuffer.html" target="_top" xlink:title=" ">
<polygon fill="white" stroke="black" points="0,-678 0,-823 92,-823 92,-678 0,-678"/>
<text text-anchor="middle" x="46" y="-811" font-family="Helvetica,sans-Serif" font-size="10.00">SysExBuffer</text>
<polyline fill="none" stroke="black" points="0,-804 92,-804 "/>
<text text-anchor="start" x="8" y="-792" font-family="Helvetica,sans-Serif" font-size="10.00">&#45; SysExBuffer</text>
<text text-anchor="start" x="8" y="-781" font-family="Helvetica,sans-Serif" font-size="10.00">&#45; SysExLength</text>
<text text-anchor="start" x="8" y="-770" font-family="Helvetica,sans-Serif" font-size="10.00">&#45; receiving</text>
<polyline fill="none" stroke="black" points="0,-763 92,-763 "/>
<text text-anchor="start" x="8" y="-751" font-family="Helvetica,sans-Serif" font-size="10.00">+ start()</text>
<text text-anchor="start" x="8" y="-740" font-family="Helvetica,sans-Serif" font-size="10.00">+ end()</text>
<text text-anchor="start" x="8" y="-729" font-family="Helvetica,sans-Serif" font-size="10.00">+ add()</text>
<text text-anchor="start" x="8" y="-718" font-family="Helvetica,sans-Serif" font-size="10.00">+ hasSpaceLeft()</text>
<text text-anchor="start" x="8" y="-707" font-family="Helvetica,sans-Serif" font-size="10.00">+ isReceiving()</text>
<text text-anchor="start" x="8" y="-696" font-family="Helvetica,sans-Serif" font-size="10.00">+ getBuffer()</text>
<text text-anchor="start" x="8" y="-685" font-family="Helvetica,sans-Serif" font-size="10.00">+ getLength()</text>
</a>
</g>
</g>
<!-- Node10&#45;&gt;Node9 -->
<g id="edge11" class="edge"><title>Node10&#45;&gt;Node9</title>
<path fill="none" stroke="#404040" d="M66.5793,-677.815C77.2622,-643.451 91.3487,-602.026 107,-566 115.279,-546.944 125.585,-526.86 135.492,-508.793"/>
<polygon fill="none" stroke="#404040" points="135.593,-508.612 135.011,-501.424 141.423,-498.123 142.004,-505.311 135.593,-508.612"/>
<text text-anchor="middle" x="137" y="-569" font-family="Helvetica,sans-Serif" font-size="10.00"> #sysexbuffer</text>
</g>
<!-- Node11 -->
<g id="node11" class="node"><title>Node11</title>
<g id="a_node11"><a xlink:href="../../d8/d39/classBLEMIDI.html" target="_top" xlink:title=" ">
<polygon fill="white" stroke="black" points="677.5,-380.5 677.5,-514.5 832.5,-514.5 832.5,-380.5 677.5,-380.5"/>
<text text-anchor="middle" x="755" y="-502.5" font-family="Helvetica,sans-Serif" font-size="10.00">BLEMIDI</text>
<polyline fill="none" stroke="black" points="677.5,-495.5 832.5,-495.5 "/>
<text text-anchor="start" x="685.5" y="-483.5" font-family="Helvetica,sans-Serif" font-size="10.00">&#45; pCharacteristic</text>
<text text-anchor="start" x="685.5" y="-472.5" font-family="Helvetica,sans-Serif" font-size="10.00">&#45; pServer</text>
<text text-anchor="start" x="685.5" y="-461.5" font-family="Helvetica,sans-Serif" font-size="10.00">&#45; descriptor</text>
<polyline fill="none" stroke="black" points="677.5,-454.5 832.5,-454.5 "/>
<text text-anchor="start" x="685.5" y="-442.5" font-family="Helvetica,sans-Serif" font-size="10.00">+ ~BLEMIDI()</text>
<text text-anchor="start" x="685.5" y="-431.5" font-family="Helvetica,sans-Serif" font-size="10.00">+ setServerCallbacks()</text>
<text text-anchor="start" x="685.5" y="-420.5" font-family="Helvetica,sans-Serif" font-size="10.00">+ setCharacteristicsCallbacks()</text>
<text text-anchor="start" x="685.5" y="-409.5" font-family="Helvetica,sans-Serif" font-size="10.00">+ begin()</text>
<text text-anchor="start" x="685.5" y="-398.5" font-family="Helvetica,sans-Serif" font-size="10.00">+ notifyValue()</text>
<text text-anchor="start" x="685.5" y="-387.5" font-family="Helvetica,sans-Serif" font-size="10.00">+ getValue()</text>
</a>
</g>
</g>
<!-- Node11&#45;&gt;Node1 -->
<g id="edge12" class="edge"><title>Node11&#45;&gt;Node1</title>
<path fill="none" stroke="#404040" d="M699.292,-380.396C689.125,-369.029 678.429,-357.502 668,-347 622.721,-301.401 568.819,-253.482 525.584,-216.439"/>
<polygon fill="none" stroke="#404040" points="525.373,-216.259 518.212,-215.404 516.247,-208.466 523.407,-209.321 525.373,-216.259"/>
<text text-anchor="middle" x="664.5" y="-321" font-family="Helvetica,sans-Serif" font-size="10.00"> &#45;bleMidi</text>
</g>
</g>
</svg>
