<?xml version="1.0" encoding="UTF-8" standalone="no"?>
<!DOCTYPE svg PUBLIC "-//W3C//DTD SVG 1.1//EN"
 "http://www.w3.org/Graphics/SVG/1.1/DTD/svg11.dtd">
<!-- Generated by graphviz version 2.38.0 (20140413.2041)
 -->
<!-- Title: CCButtons.hpp Pages: 1 -->
<svg width="890pt" height="576pt"
 viewBox="0.00 0.00 889.50 576.00" xmlns="http://www.w3.org/2000/svg" xmlns:xlink="http://www.w3.org/1999/xlink">
<g id="graph0" class="graph" transform="scale(1 1) rotate(0) translate(4 572)">
<title>CCButtons.hpp</title>
<polygon fill="white" stroke="none" points="-4,4 -4,-572 885.5,-572 885.5,4 -4,4"/>
<!-- Node0 -->
<g id="node1" class="node"><title>Node0</title>
<g id="a_node1"><a xlink:title=" ">
<polygon fill="#bfbfbf" stroke="black" points="487.5,-548.5 487.5,-567.5 571.5,-567.5 571.5,-548.5 487.5,-548.5"/>
<text text-anchor="middle" x="529.5" y="-555.5" font-family="Helvetica,sans-Serif" font-size="10.00">CCButtons.hpp</text>
</a>
</g>
</g>
<!-- Node1 -->
<g id="node2" class="node"><title>Node1</title>
<g id="a_node2"><a xlink:href="../../d2/d07/Abstract_2MIDIButtons_8hpp.html" target="_top" xlink:title=" ">
<polygon fill="white" stroke="black" points="619.5,-481.5 619.5,-511.5 737.5,-511.5 737.5,-481.5 619.5,-481.5"/>
<text text-anchor="start" x="627.5" y="-499.5" font-family="Helvetica,sans-Serif" font-size="10.00">MIDI_Outputs/Abstract</text>
<text text-anchor="middle" x="678.5" y="-488.5" font-family="Helvetica,sans-Serif" font-size="10.00">/MIDIButtons.hpp</text>
</a>
</g>
</g>
<!-- Node0&#45;&gt;Node1 -->
<g id="edge1" class="edge"><title>Node0&#45;&gt;Node1</title>
<path fill="none" stroke="midnightblue" d="M550.848,-548.475C572.443,-539.852 606.469,-526.264 633.962,-515.285"/>
<polygon fill="midnightblue" stroke="midnightblue" points="635.395,-518.482 643.384,-511.523 632.799,-511.981 635.395,-518.482"/>
</g>
<!-- Node19 -->
<g id="node20" class="node"><title>Node19</title>
<g id="a_node20"><a xlink:href="../../d4/dd7/DigitalCCSender_8hpp.html" target="_top" xlink:title=" ">
<polygon fill="white" stroke="black" points="294,-487 294,-506 469,-506 469,-487 294,-487"/>
<text text-anchor="middle" x="381.5" y="-494" font-family="Helvetica,sans-Serif" font-size="10.00">MIDI_Senders/DigitalCCSender.hpp</text>
</a>
</g>
</g>
<!-- Node0&#45;&gt;Node19 -->
<g id="edge34" class="edge"><title>Node0&#45;&gt;Node19</title>
<path fill="none" stroke="midnightblue" d="M508.295,-548.475C483.128,-538.357 440.96,-521.405 412.221,-509.851"/>
<polygon fill="midnightblue" stroke="midnightblue" points="413.249,-506.492 402.665,-506.009 410.638,-512.987 413.249,-506.492"/>
</g>
<!-- Node2 -->
<g id="node3" class="node"><title>Node2</title>
<g id="a_node3"><a xlink:href="../../d0/d4e/Def_8hpp.html" target="_top" xlink:title=" ">
<polygon fill="white" stroke="black" points="595.5,-224.5 595.5,-243.5 665.5,-243.5 665.5,-224.5 595.5,-224.5"/>
<text text-anchor="middle" x="630.5" y="-231.5" font-family="Helvetica,sans-Serif" font-size="10.00">Def/Def.hpp</text>
</a>
</g>
</g>
<!-- Node1&#45;&gt;Node2 -->
<g id="edge2" class="edge"><title>Node1&#45;&gt;Node2</title>
<path fill="none" stroke="midnightblue" d="M694.629,-481.268C722.99,-454.454 776.355,-394.845 749.5,-347 734.465,-320.213 713.489,-331.375 690.5,-311 670.729,-293.477 652.62,-268.827 641.584,-252.404"/>
<polygon fill="midnightblue" stroke="midnightblue" points="644.355,-250.245 635.945,-243.801 638.5,-254.083 644.355,-250.245"/>
</g>
<!-- Node3 -->
<g id="node4" class="node"><title>Node3</title>
<g id="a_node4"><a xlink:href="../../de/d76/Array_8hpp.html" target="_top" xlink:title=" ">
<polygon fill="white" stroke="black" points="758,-168.5 758,-187.5 853,-187.5 853,-168.5 758,-168.5"/>
<text text-anchor="middle" x="805.5" y="-175.5" font-family="Helvetica,sans-Serif" font-size="10.00">Helpers/Array.hpp</text>
</a>
</g>
</g>
<!-- Node1&#45;&gt;Node3 -->
<g id="edge24" class="edge"><title>Node1&#45;&gt;Node3</title>
<path fill="none" stroke="midnightblue" d="M723.151,-481.443C772.017,-462.942 843.5,-425.313 843.5,-363.5 843.5,-363.5 843.5,-363.5 843.5,-294.5 843.5,-258.254 826.405,-218.671 815.147,-196.533"/>
<polygon fill="midnightblue" stroke="midnightblue" points="818.23,-194.875 810.468,-187.663 812.039,-198.141 818.23,-194.875"/>
</g>
<!-- Node6 -->
<g id="node7" class="node"><title>Node6</title>
<g id="a_node7"><a xlink:href="../../d0/d79/Button_8h.html" target="_top" xlink:title=" ">
<polygon fill="white" stroke="black" points="471.5,-420 471.5,-439 569.5,-439 569.5,-420 471.5,-420"/>
<text text-anchor="middle" x="520.5" y="-427" font-family="Helvetica,sans-Serif" font-size="10.00">Hardware/Button.h</text>
</a>
</g>
</g>
<!-- Node1&#45;&gt;Node6 -->
<g id="edge7" class="edge"><title>Node1&#45;&gt;Node6</title>
<path fill="none" stroke="midnightblue" d="M644.216,-481.396C616.371,-469.941 577.474,-453.938 550.768,-442.952"/>
<polygon fill="midnightblue" stroke="midnightblue" points="551.758,-439.575 541.179,-439.007 549.095,-446.048 551.758,-439.575"/>
</g>
<!-- Node16 -->
<g id="node17" class="node"><title>Node16</title>
<g id="a_node17"><a xlink:href="../../d1/d41/MIDIOutputElement_8hpp.html" target="_top" xlink:title=" ">
<polygon fill="white" stroke="black" points="616,-347.5 616,-377.5 741,-377.5 741,-347.5 616,-347.5"/>
<text text-anchor="start" x="624" y="-365.5" font-family="Helvetica,sans-Serif" font-size="10.00">MIDI_Outputs/Abstract</text>
<text text-anchor="middle" x="678.5" y="-354.5" font-family="Helvetica,sans-Serif" font-size="10.00">/MIDIOutputElement.hpp</text>
</a>
</g>
</g>
<!-- Node1&#45;&gt;Node16 -->
<g id="edge25" class="edge"><title>Node1&#45;&gt;Node16</title>
<path fill="none" stroke="midnightblue" d="M678.5,-481.374C678.5,-459.044 678.5,-415.313 678.5,-387.851"/>
<polygon fill="midnightblue" stroke="midnightblue" points="682,-387.525 678.5,-377.525 675,-387.525 682,-387.525"/>
</g>
<!-- Node2&#45;&gt;Node3 -->
<g id="edge3" class="edge"><title>Node2&#45;&gt;Node3</title>
<path fill="none" stroke="midnightblue" d="M658.229,-224.444C687.926,-215.28 735.216,-200.688 768.169,-190.519"/>
<polygon fill="midnightblue" stroke="midnightblue" points="769.377,-193.809 777.9,-187.516 767.313,-187.121 769.377,-193.809"/>
</g>
<!-- Node4 -->
<g id="node5" class="node"><title>Node4</title>
<g id="a_node5"><a xlink:title=" ">
<polygon fill="white" stroke="#bfbfbf" points="703.5,-0.5 703.5,-19.5 755.5,-19.5 755.5,-0.5 703.5,-0.5"/>
<text text-anchor="middle" x="729.5" y="-7.5" font-family="Helvetica,sans-Serif" font-size="10.00">stddef.h</text>
</a>
</g>
</g>
<!-- Node2&#45;&gt;Node4 -->
<g id="edge5" class="edge"><title>Node2&#45;&gt;Node4</title>
<path fill="none" stroke="midnightblue" d="M635.133,-224.304C647.565,-200.795 682.352,-133.847 706.5,-76 712.985,-60.4659 719.285,-42.3844 723.647,-29.2416"/>
<polygon fill="midnightblue" stroke="midnightblue" points="727.042,-30.1199 726.817,-19.5275 720.388,-27.9485 727.042,-30.1199"/>
</g>
<!-- Node5 -->
<g id="node6" class="node"><title>Node5</title>
<g id="a_node6"><a xlink:title=" ">
<polygon fill="white" stroke="#bfbfbf" points="584,-0.5 584,-19.5 633,-19.5 633,-0.5 584,-0.5"/>
<text text-anchor="middle" x="608.5" y="-7.5" font-family="Helvetica,sans-Serif" font-size="10.00">stdint.h</text>
</a>
</g>
</g>
<!-- Node2&#45;&gt;Node5 -->
<g id="edge6" class="edge"><title>Node2&#45;&gt;Node5</title>
<path fill="none" stroke="midnightblue" d="M629.638,-224.297C626.401,-191.633 614.928,-75.8661 610.379,-29.9573"/>
<polygon fill="midnightblue" stroke="midnightblue" points="613.85,-29.4898 609.38,-19.8837 606.884,-30.1802 613.85,-29.4898"/>
</g>
<!-- Node3&#45;&gt;Node4 -->
<g id="edge4" class="edge"><title>Node3&#45;&gt;Node4</title>
<path fill="none" stroke="midnightblue" d="M801.414,-168.075C789.347,-141.719 753.709,-63.878 737.586,-28.6608"/>
<polygon fill="midnightblue" stroke="midnightblue" points="740.768,-27.2035 733.423,-19.5681 734.403,-30.1175 740.768,-27.2035"/>
</g>
<!-- Node7 -->
<g id="node8" class="node"><title>Node7</title>
<g id="a_node8"><a xlink:href="../../d4/d8e/ExtendedInputOutput_8h.html" target="_top" xlink:title=" ">
<polygon fill="white" stroke="black" points="443.5,-347.5 443.5,-377.5 597.5,-377.5 597.5,-347.5 443.5,-347.5"/>
<text text-anchor="start" x="451.5" y="-365.5" font-family="Helvetica,sans-Serif" font-size="10.00">Hardware/ExtendedInputOutput</text>
<text text-anchor="middle" x="520.5" y="-354.5" font-family="Helvetica,sans-Serif" font-size="10.00">/ExtendedInputOutput.h</text>
</a>
</g>
</g>
<!-- Node6&#45;&gt;Node7 -->
<g id="edge8" class="edge"><title>Node6&#45;&gt;Node7</title>
<path fill="none" stroke="midnightblue" d="M520.5,-419.734C520.5,-411.541 520.5,-398.923 520.5,-387.714"/>
<polygon fill="midnightblue" stroke="midnightblue" points="524,-387.589 520.5,-377.589 517,-387.589 524,-387.589"/>
</g>
<!-- Node12 -->
<g id="node13" class="node"><title>Node12</title>
<g id="a_node13"><a xlink:href="../../d4/d6b/SettingsWrapper_8h.html" target="_top" xlink:title=" ">
<polygon fill="white" stroke="black" points="402,-112.5 402,-131.5 539,-131.5 539,-112.5 402,-112.5"/>
<text text-anchor="middle" x="470.5" y="-119.5" font-family="Helvetica,sans-Serif" font-size="10.00">Settings/SettingsWrapper.h</text>
</a>
</g>
</g>
<!-- Node6&#45;&gt;Node12 -->
<g id="edge23" class="edge"><title>Node6&#45;&gt;Node12</title>
<path fill="none" stroke="midnightblue" d="M491.371,-419.91C471.486,-412.355 446.629,-399.187 434.5,-378 411.271,-337.422 450.028,-192.937 464.991,-141.416"/>
<polygon fill="midnightblue" stroke="midnightblue" points="468.398,-142.236 467.866,-131.654 461.683,-140.258 468.398,-142.236"/>
</g>
<!-- Node8 -->
<g id="node9" class="node"><title>Node8</title>
<g id="a_node9"><a xlink:href="../../d9/d98/ExtendedIOElement_8h.html" target="_top" xlink:title=" ">
<polygon fill="white" stroke="black" points="454,-286 454,-305 567,-305 567,-286 454,-286"/>
<text text-anchor="middle" x="510.5" y="-293" font-family="Helvetica,sans-Serif" font-size="10.00">ExtendedIOElement.h</text>
</a>
</g>
</g>
<!-- Node7&#45;&gt;Node8 -->
<g id="edge9" class="edge"><title>Node7&#45;&gt;Node8</title>
<path fill="none" stroke="midnightblue" d="M518.33,-347.396C516.879,-337.963 514.954,-325.448 513.375,-315.189"/>
<polygon fill="midnightblue" stroke="midnightblue" points="516.818,-314.546 511.838,-305.195 509.899,-315.61 516.818,-314.546"/>
</g>
<!-- Node15 -->
<g id="node16" class="node"><title>Node15</title>
<g id="a_node16"><a xlink:title=" ">
<polygon fill="white" stroke="#bfbfbf" points="316.5,-56.5 316.5,-75.5 374.5,-75.5 374.5,-56.5 316.5,-56.5"/>
<text text-anchor="middle" x="345.5" y="-63.5" font-family="Helvetica,sans-Serif" font-size="10.00">Arduino.h</text>
</a>
</g>
</g>
<!-- Node7&#45;&gt;Node15 -->
<g id="edge22" class="edge"><title>Node7&#45;&gt;Node15</title>
<path fill="none" stroke="midnightblue" d="M543.277,-347.436C555.289,-338.619 568.877,-326.072 575.5,-311 587.716,-283.198 594.819,-161.948 547.5,-112 525.596,-88.8793 437.153,-76.2004 384.836,-70.5893"/>
<polygon fill="midnightblue" stroke="midnightblue" points="384.877,-67.0751 374.571,-69.5291 384.158,-74.038 384.877,-67.0751"/>
</g>
<!-- Node8&#45;&gt;Node2 -->
<g id="edge10" class="edge"><title>Node8&#45;&gt;Node2</title>
<path fill="none" stroke="midnightblue" d="M527.693,-285.975C547.743,-276.034 581.099,-259.495 604.36,-247.961"/>
<polygon fill="midnightblue" stroke="midnightblue" points="605.934,-251.087 613.339,-243.509 602.825,-244.816 605.934,-251.087"/>
</g>
<!-- Node9 -->
<g id="node10" class="node"><title>Node9</title>
<g id="a_node10"><a xlink:href="../../de/dd1/LinkedList_8hpp.html" target="_top" xlink:title=" ">
<polygon fill="white" stroke="black" points="293.5,-224.5 293.5,-243.5 409.5,-243.5 409.5,-224.5 293.5,-224.5"/>
<text text-anchor="middle" x="351.5" y="-231.5" font-family="Helvetica,sans-Serif" font-size="10.00">Helpers/LinkedList.hpp</text>
</a>
</g>
</g>
<!-- Node8&#45;&gt;Node9 -->
<g id="edge11" class="edge"><title>Node8&#45;&gt;Node9</title>
<path fill="none" stroke="midnightblue" d="M487.719,-285.975C460.445,-275.769 414.587,-258.608 383.699,-247.049"/>
<polygon fill="midnightblue" stroke="midnightblue" points="384.831,-243.736 374.239,-243.509 382.378,-250.292 384.831,-243.736"/>
</g>
<!-- Node10 -->
<g id="node11" class="node"><title>Node10</title>
<g id="a_node11"><a xlink:title=" ">
<polygon fill="white" stroke="#bfbfbf" points="240.5,-112.5 240.5,-131.5 288.5,-131.5 288.5,-112.5 240.5,-112.5"/>
<text text-anchor="middle" x="264.5" y="-119.5" font-family="Helvetica,sans-Serif" font-size="10.00">stdlib.h</text>
</a>
</g>
</g>
<!-- Node9&#45;&gt;Node10 -->
<g id="edge12" class="edge"><title>Node9&#45;&gt;Node10</title>
<path fill="none" stroke="midnightblue" d="M344.673,-224.368C330.252,-206.135 296.473,-163.426 277.689,-139.675"/>
<polygon fill="midnightblue" stroke="midnightblue" points="280.244,-137.264 271.295,-131.591 274.753,-141.606 280.244,-137.264"/>
</g>
<!-- Node11 -->
<g id="node12" class="node"><title>Node11</title>
<g id="a_node12"><a xlink:href="../../df/dee/Debug_8hpp.html" target="_top" xlink:title=" ">
<polygon fill="white" stroke="black" points="340,-168.5 340,-187.5 441,-187.5 441,-168.5 340,-168.5"/>
<text text-anchor="middle" x="390.5" y="-175.5" font-family="Helvetica,sans-Serif" font-size="10.00">Helpers/Debug.hpp</text>
</a>
</g>
</g>
<!-- Node9&#45;&gt;Node11 -->
<g id="edge13" class="edge"><title>Node9&#45;&gt;Node11</title>
<path fill="none" stroke="midnightblue" d="M357.94,-224.083C363.449,-216.455 371.531,-205.264 378.265,-195.941"/>
<polygon fill="midnightblue" stroke="midnightblue" points="381.162,-197.907 384.18,-187.751 375.487,-193.809 381.162,-197.907"/>
</g>
<!-- Node11&#45;&gt;Node10 -->
<g id="edge19" class="edge"><title>Node11&#45;&gt;Node10</title>
<path fill="none" stroke="midnightblue" d="M370.535,-168.444C349.891,-159.596 317.437,-145.687 293.868,-135.586"/>
<polygon fill="midnightblue" stroke="midnightblue" points="294.942,-132.239 284.372,-131.516 292.184,-138.673 294.942,-132.239"/>
</g>
<!-- Node11&#45;&gt;Node12 -->
<g id="edge14" class="edge"><title>Node11&#45;&gt;Node12</title>
<path fill="none" stroke="midnightblue" d="M398.239,-168.324C408.894,-159.9 427.751,-146.971 443.64,-137.074"/>
<polygon fill="midnightblue" stroke="midnightblue" points="445.836,-139.836 452.568,-131.655 442.204,-133.852 445.836,-139.836"/>
</g>
<!-- Node14 -->
<g id="node15" class="node"><title>Node14</title>
<g id="a_node15"><a xlink:href="../../dc/d48/PrintStream_8h.html" target="_top" xlink:title=" ">
<polygon fill="white" stroke="black" points="307,-112.5 307,-131.5 384,-131.5 384,-112.5 307,-112.5"/>
<text text-anchor="middle" x="345.5" y="-119.5" font-family="Helvetica,sans-Serif" font-size="10.00">PrintStream.h</text>
</a>
</g>
</g>
<!-- Node11&#45;&gt;Node14 -->
<g id="edge20" class="edge"><title>Node11&#45;&gt;Node14</title>
<path fill="none" stroke="midnightblue" d="M383.069,-168.083C376.647,-160.377 367.194,-149.033 359.378,-139.653"/>
<polygon fill="midnightblue" stroke="midnightblue" points="361.883,-137.193 352.793,-131.751 356.506,-141.674 361.883,-137.193"/>
</g>
<!-- Node12&#45;&gt;Node11 -->
<g id="edge18" class="edge"><title>Node12&#45;&gt;Node11</title>
<path fill="none" stroke="midnightblue" d="M462.561,-131.834C451.868,-140.263 433.139,-153.099 417.345,-162.935"/>
<polygon fill="midnightblue" stroke="midnightblue" points="415.2,-160.143 408.468,-168.324 418.833,-166.126 415.2,-160.143"/>
</g>
<!-- Node13 -->
<g id="node14" class="node"><title>Node13</title>
<g id="a_node14"><a xlink:href="../../dd/dbc/Settings_8h.html" target="_top" xlink:title="All user settings and debugging options can be changed here.">
<polygon fill="white" stroke="black" points="637,-56.5 637,-75.5 698,-75.5 698,-56.5 637,-56.5"/>
<text text-anchor="middle" x="667.5" y="-63.5" font-family="Helvetica,sans-Serif" font-size="10.00">Settings.h</text>
</a>
</g>
</g>
<!-- Node12&#45;&gt;Node13 -->
<g id="edge15" class="edge"><title>Node12&#45;&gt;Node13</title>
<path fill="none" stroke="midnightblue" d="M501.715,-112.444C535.532,-103.174 589.617,-88.3487 626.759,-78.1675"/>
<polygon fill="midnightblue" stroke="midnightblue" points="628.036,-81.4467 636.755,-75.4275 626.186,-74.6957 628.036,-81.4467"/>
</g>
<!-- Node13&#45;&gt;Node4 -->
<g id="edge16" class="edge"><title>Node13&#45;&gt;Node4</title>
<path fill="none" stroke="midnightblue" d="M677.461,-56.324C686.627,-48.3414 700.437,-36.3128 711.528,-26.6529"/>
<polygon fill="midnightblue" stroke="midnightblue" points="714.115,-29.041 719.357,-19.8339 709.518,-23.7624 714.115,-29.041"/>
</g>
<!-- Node13&#45;&gt;Node5 -->
<g id="edge17" class="edge"><title>Node13&#45;&gt;Node5</title>
<path fill="none" stroke="midnightblue" d="M658.021,-56.324C649.299,-48.3414 636.157,-36.3128 625.602,-26.6529"/>
<polygon fill="midnightblue" stroke="midnightblue" points="627.892,-24.0036 618.152,-19.8339 623.166,-29.1674 627.892,-24.0036"/>
</g>
<!-- Node14&#45;&gt;Node15 -->
<g id="edge21" class="edge"><title>Node14&#45;&gt;Node15</title>
<path fill="none" stroke="midnightblue" d="M345.5,-112.083C345.5,-105.006 345.5,-94.8611 345.5,-85.9865"/>
<polygon fill="midnightblue" stroke="midnightblue" points="349,-85.751 345.5,-75.7511 342,-85.7511 349,-85.751"/>
</g>
<!-- Node16&#45;&gt;Node2 -->
<g id="edge33" class="edge"><title>Node16&#45;&gt;Node2</title>
<path fill="none" stroke="midnightblue" d="M672.416,-347.431C668.111,-337.345 662.279,-323.405 657.5,-311 650.047,-291.654 642.183,-269.263 636.877,-253.821"/>
<polygon fill="midnightblue" stroke="midnightblue" points="640.05,-252.282 633.508,-243.948 633.425,-254.543 640.05,-252.282"/>
</g>
<!-- Node17 -->
<g id="node18" class="node"><title>Node17</title>
<g id="a_node18"><a xlink:href="../../d4/d93/Updatable_8hpp.html" target="_top" xlink:title=" ">
<polygon fill="white" stroke="black" points="699.5,-286 699.5,-305 815.5,-305 815.5,-286 699.5,-286"/>
<text text-anchor="middle" x="757.5" y="-293" font-family="Helvetica,sans-Serif" font-size="10.00">Helpers/Updatable.hpp</text>
</a>
</g>
</g>
<!-- Node16&#45;&gt;Node17 -->
<g id="edge26" class="edge"><title>Node16&#45;&gt;Node17</title>
<path fill="none" stroke="midnightblue" d="M695.642,-347.396C708.447,-336.86 725.928,-322.477 739.04,-311.689"/>
<polygon fill="midnightblue" stroke="midnightblue" points="741.434,-314.251 746.933,-305.195 736.987,-308.845 741.434,-314.251"/>
</g>
<!-- Node17&#45;&gt;Node2 -->
<g id="edge32" class="edge"><title>Node17&#45;&gt;Node2</title>
<path fill="none" stroke="midnightblue" d="M739.304,-285.975C717.991,-275.99 682.469,-259.348 657.837,-247.807"/>
<polygon fill="midnightblue" stroke="midnightblue" points="659.203,-244.582 648.662,-243.509 656.233,-250.921 659.203,-244.582"/>
</g>
<!-- Node17&#45;&gt;Node4 -->
<g id="edge31" class="edge"><title>Node17&#45;&gt;Node4</title>
<path fill="none" stroke="midnightblue" d="M779.383,-285.965C814.981,-270.479 881.5,-234.162 881.5,-179 881.5,-179 881.5,-179 881.5,-121 881.5,-63.915 810.27,-33.4379 765.332,-19.8905"/>
<polygon fill="midnightblue" stroke="midnightblue" points="766.207,-16.5004 755.63,-17.1031 764.275,-23.2283 766.207,-16.5004"/>
</g>
<!-- Node17&#45;&gt;Node9 -->
<g id="edge29" class="edge"><title>Node17&#45;&gt;Node9</title>
<path fill="none" stroke="midnightblue" d="M699.33,-285.975C625.466,-275.15 498.222,-256.502 419.818,-245.012"/>
<polygon fill="midnightblue" stroke="midnightblue" points="419.964,-241.496 409.562,-243.509 418.949,-248.422 419.964,-241.496"/>
</g>
<!-- Node17&#45;&gt;Node12 -->
<g id="edge30" class="edge"><title>Node17&#45;&gt;Node12</title>
<path fill="none" stroke="midnightblue" d="M766.288,-285.552C779.068,-271.432 799.781,-243.576 785.5,-224 755.08,-182.301 612.076,-149.365 529.589,-133.445"/>
<polygon fill="midnightblue" stroke="midnightblue" points="530.075,-129.974 519.596,-131.542 528.765,-136.851 530.075,-129.974"/>
</g>
<!-- Node18 -->
<g id="node19" class="node"><title>Node18</title>
<g id="a_node19"><a xlink:href="../../d1/d93/Error_8hpp.html" target="_top" xlink:title=" ">
<polygon fill="white" stroke="black" points="684,-224.5 684,-243.5 777,-243.5 777,-224.5 684,-224.5"/>
<text text-anchor="middle" x="730.5" y="-231.5" font-family="Helvetica,sans-Serif" font-size="10.00">Helpers/Error.hpp</text>
</a>
</g>
</g>
<!-- Node17&#45;&gt;Node18 -->
<g id="edge27" class="edge"><title>Node17&#45;&gt;Node18</title>
<path fill="none" stroke="midnightblue" d="M753.632,-285.975C749.702,-277.315 743.5,-263.649 738.507,-252.645"/>
<polygon fill="midnightblue" stroke="midnightblue" points="741.681,-251.169 734.361,-243.509 735.306,-254.062 741.681,-251.169"/>
</g>
<!-- Node18&#45;&gt;Node11 -->
<g id="edge28" class="edge"><title>Node18&#45;&gt;Node11</title>
<path fill="none" stroke="midnightblue" d="M683.75,-225.479C680.62,-224.978 677.514,-224.481 674.5,-224 597.418,-211.699 508.548,-197.637 451.046,-188.554"/>
<polygon fill="midnightblue" stroke="midnightblue" points="451.461,-185.076 441.037,-186.973 450.369,-191.99 451.461,-185.076"/>
</g>
<!-- Node20 -->
<g id="node21" class="node"><title>Node20</title>
<g id="a_node21"><a xlink:href="../../d5/de0/Control__Surface__Class_8h.html" target="_top" xlink:title=" ">
<polygon fill="white" stroke="black" points="188.5,-414.5 188.5,-444.5 310.5,-444.5 310.5,-414.5 188.5,-414.5"/>
<text text-anchor="start" x="196.5" y="-432.5" font-family="Helvetica,sans-Serif" font-size="10.00">Control_Surface/Control</text>
<text text-anchor="middle" x="249.5" y="-421.5" font-family="Helvetica,sans-Serif" font-size="10.00">_Surface_Class.h</text>
</a>
</g>
</g>
<!-- Node19&#45;&gt;Node20 -->
<g id="edge35" class="edge"><title>Node19&#45;&gt;Node20</title>
<path fill="none" stroke="midnightblue" d="M363.971,-486.869C344.57,-477.315 312.713,-461.627 287.525,-449.225"/>
<polygon fill="midnightblue" stroke="midnightblue" points="288.756,-445.929 278.239,-444.652 285.664,-452.209 288.756,-445.929"/>
</g>
<!-- Node21 -->
<g id="node22" class="node"><title>Node21</title>
<g id="a_node22"><a xlink:href="../../dc/dbb/MIDI__Interface_8h.html" target="_top" xlink:title=" ">
<polygon fill="white" stroke="black" points="285.5,-280.5 285.5,-310.5 397.5,-310.5 397.5,-280.5 285.5,-280.5"/>
<text text-anchor="start" x="293.5" y="-298.5" font-family="Helvetica,sans-Serif" font-size="10.00">MIDI_Interfaces/MIDI</text>
<text text-anchor="middle" x="341.5" y="-287.5" font-family="Helvetica,sans-Serif" font-size="10.00">_Interface.h</text>
</a>
</g>
</g>
<!-- Node20&#45;&gt;Node21 -->
<g id="edge36" class="edge"><title>Node20&#45;&gt;Node21</title>
<path fill="none" stroke="midnightblue" d="M284.441,-414.303C300.365,-406.05 317.972,-394.066 328.5,-378 339.516,-361.189 342.363,-338.332 342.686,-321.101"/>
<polygon fill="midnightblue" stroke="midnightblue" points="346.182,-320.679 342.594,-310.711 339.182,-320.741 346.182,-320.679"/>
</g>
<!-- Node23 -->
<g id="node24" class="node"><title>Node23</title>
<g id="a_node24"><a xlink:href="../../d6/dd2/DisplayElement_8hpp.html" target="_top" xlink:title=" ">
<polygon fill="white" stroke="black" points="179.5,-353 179.5,-372 319.5,-372 319.5,-353 179.5,-353"/>
<text text-anchor="middle" x="249.5" y="-360" font-family="Helvetica,sans-Serif" font-size="10.00">Display/DisplayElement.hpp</text>
</a>
</g>
</g>
<!-- Node20&#45;&gt;Node23 -->
<g id="edge43" class="edge"><title>Node20&#45;&gt;Node23</title>
<path fill="none" stroke="midnightblue" d="M249.5,-414.396C249.5,-405.064 249.5,-392.714 249.5,-382.517"/>
<polygon fill="midnightblue" stroke="midnightblue" points="253,-382.195 249.5,-372.195 246,-382.195 253,-382.195"/>
</g>
<!-- Node24 -->
<g id="node25" class="node"><title>Node24</title>
<g id="a_node25"><a xlink:href="../../dc/d77/DisplayInterface_8hpp.html" target="_top" xlink:title=" ">
<polygon fill="white" stroke="black" points="86,-286 86,-305 229,-305 229,-286 86,-286"/>
<text text-anchor="middle" x="157.5" y="-293" font-family="Helvetica,sans-Serif" font-size="10.00">Display/DisplayInterface.hpp</text>
</a>
</g>
</g>
<!-- Node20&#45;&gt;Node24 -->
<g id="edge49" class="edge"><title>Node20&#45;&gt;Node24</title>
<path fill="none" stroke="midnightblue" d="M214.559,-414.303C198.635,-406.05 181.028,-394.066 170.5,-378 158.195,-359.223 156.083,-332.902 156.296,-315.305"/>
<polygon fill="midnightblue" stroke="midnightblue" points="159.799,-315.295 156.688,-305.167 152.804,-315.025 159.799,-315.295"/>
</g>
<!-- Node26 -->
<g id="node27" class="node"><title>Node26</title>
<g id="a_node27"><a xlink:href="../../d7/d74/MillisTimer_8hpp.html" target="_top" xlink:title=" ">
<polygon fill="white" stroke="black" points="0,-168.5 0,-187.5 119,-187.5 119,-168.5 0,-168.5"/>
<text text-anchor="middle" x="59.5" y="-175.5" font-family="Helvetica,sans-Serif" font-size="10.00">Helpers/MillisTimer.hpp</text>
</a>
</g>
</g>
<!-- Node20&#45;&gt;Node26 -->
<g id="edge50" class="edge"><title>Node20&#45;&gt;Node26</title>
<path fill="none" stroke="midnightblue" d="M210.304,-414.468C168.702,-397.234 105.102,-363.638 76.5,-311 56.8,-274.745 56.3118,-224.841 57.8185,-197.971"/>
<polygon fill="midnightblue" stroke="midnightblue" points="61.3326,-197.9 58.5626,-187.674 54.3508,-197.395 61.3326,-197.9"/>
</g>
<!-- Node21&#45;&gt;Node2 -->
<g id="edge37" class="edge"><title>Node21&#45;&gt;Node2</title>
<path fill="none" stroke="midnightblue" d="M397.565,-282.957C452.388,-271.67 534.806,-254.702 585.489,-244.267"/>
<polygon fill="midnightblue" stroke="midnightblue" points="586.404,-247.652 595.493,-242.207 584.993,-240.796 586.404,-247.652"/>
</g>
<!-- Node22 -->
<g id="node23" class="node"><title>Node22</title>
<g id="a_node23"><a xlink:href="../../d4/d36/MIDI__Parser_8h.html" target="_top" xlink:title=" ">
<polygon fill="white" stroke="black" points="139.5,-168.5 139.5,-187.5 283.5,-187.5 283.5,-168.5 139.5,-168.5"/>
<text text-anchor="middle" x="211.5" y="-175.5" font-family="Helvetica,sans-Serif" font-size="10.00">MIDI_Parsers/MIDI_Parser.h</text>
</a>
</g>
</g>
<!-- Node21&#45;&gt;Node22 -->
<g id="edge38" class="edge"><title>Node21&#45;&gt;Node22</title>
<path fill="none" stroke="midnightblue" d="M325.52,-280.362C314.089,-270.242 298.339,-256.292 284.5,-244 265.621,-227.232 244.026,-207.997 229.251,-194.828"/>
<polygon fill="midnightblue" stroke="midnightblue" points="231.205,-191.881 221.411,-187.839 226.547,-197.106 231.205,-191.881"/>
</g>
<!-- Node22&#45;&gt;Node4 -->
<g id="edge39" class="edge"><title>Node22&#45;&gt;Node4</title>
<path fill="none" stroke="midnightblue" d="M212.43,-168.239C214.202,-154.985 219.065,-129.525 231.5,-112 255.781,-77.7823 268.392,-71.197 307.5,-56 311.998,-54.2522 591.974,-25.2052 693.354,-14.7293"/>
<polygon fill="midnightblue" stroke="midnightblue" points="693.839,-18.198 703.426,-13.6889 693.12,-11.235 693.839,-18.198"/>
</g>
<!-- Node22&#45;&gt;Node5 -->
<g id="edge40" class="edge"><title>Node22&#45;&gt;Node5</title>
<path fill="none" stroke="midnightblue" d="M206.716,-168.347C195.318,-146.442 169.593,-88.2537 198.5,-56 223.379,-28.2409 479.036,-15.8678 573.591,-12.2164"/>
<polygon fill="midnightblue" stroke="midnightblue" points="573.922,-15.7065 583.784,-11.8327 573.659,-8.71148 573.922,-15.7065"/>
</g>
<!-- Node22&#45;&gt;Node10 -->
<g id="edge41" class="edge"><title>Node22&#45;&gt;Node10</title>
<path fill="none" stroke="midnightblue" d="M220.252,-168.083C227.97,-160.22 239.405,-148.569 248.717,-139.081"/>
<polygon fill="midnightblue" stroke="midnightblue" points="251.404,-141.34 255.911,-131.751 246.408,-136.436 251.404,-141.34"/>
</g>
<!-- Node22&#45;&gt;Node12 -->
<g id="edge42" class="edge"><title>Node22&#45;&gt;Node12</title>
<path fill="none" stroke="midnightblue" d="M252.539,-168.444C297.816,-159.004 370.727,-143.802 419.606,-133.611"/>
<polygon fill="midnightblue" stroke="midnightblue" points="420.578,-136.984 429.653,-131.516 419.149,-130.131 420.578,-136.984"/>
</g>
<!-- Node23&#45;&gt;Node9 -->
<g id="edge48" class="edge"><title>Node23&#45;&gt;Node9</title>
<path fill="none" stroke="midnightblue" d="M250.365,-352.954C252.369,-337.014 258.613,-302.34 276.5,-280 287.711,-265.998 304.544,-255.337 319.424,-247.914"/>
<polygon fill="midnightblue" stroke="midnightblue" points="321.272,-250.914 328.842,-243.502 318.302,-244.575 321.272,-250.914"/>
</g>
<!-- Node23&#45;&gt;Node24 -->
<g id="edge44" class="edge"><title>Node23&#45;&gt;Node24</title>
<path fill="none" stroke="midnightblue" d="M237.092,-352.734C221.919,-342.013 196.022,-323.716 177.901,-310.914"/>
<polygon fill="midnightblue" stroke="midnightblue" points="179.898,-308.039 169.711,-305.127 175.859,-313.756 179.898,-308.039"/>
</g>
<!-- Node24&#45;&gt;Node2 -->
<g id="edge45" class="edge"><title>Node24&#45;&gt;Node2</title>
<path fill="none" stroke="midnightblue" d="M225.269,-285.975C323.257,-273.649 501.879,-251.18 585.31,-240.685"/>
<polygon fill="midnightblue" stroke="midnightblue" points="585.994,-244.126 595.479,-239.405 585.12,-237.181 585.994,-244.126"/>
</g>
<!-- Node24&#45;&gt;Node9 -->
<g id="edge46" class="edge"><title>Node24&#45;&gt;Node9</title>
<path fill="none" stroke="midnightblue" d="M185.295,-285.975C219.15,-275.592 276.471,-258.012 314.155,-246.454"/>
<polygon fill="midnightblue" stroke="midnightblue" points="315.222,-249.788 323.756,-243.509 313.169,-243.095 315.222,-249.788"/>
</g>
<!-- Node25 -->
<g id="node26" class="node"><title>Node25</title>
<g id="a_node26"><a xlink:title=" ">
<polygon fill="white" stroke="#bfbfbf" points="135,-224.5 135,-243.5 180,-243.5 180,-224.5 135,-224.5"/>
<text text-anchor="middle" x="157.5" y="-231.5" font-family="Helvetica,sans-Serif" font-size="10.00">Print.h</text>
</a>
</g>
</g>
<!-- Node24&#45;&gt;Node25 -->
<g id="edge47" class="edge"><title>Node24&#45;&gt;Node25</title>
<path fill="none" stroke="midnightblue" d="M157.5,-285.975C157.5,-277.58 157.5,-264.481 157.5,-253.663"/>
<polygon fill="midnightblue" stroke="midnightblue" points="161,-253.509 157.5,-243.509 154,-253.509 161,-253.509"/>
</g>
<!-- Node26&#45;&gt;Node15 -->
<g id="edge51" class="edge"><title>Node26&#45;&gt;Node15</title>
<path fill="none" stroke="midnightblue" d="M81.9419,-168.368C132.482,-148.93 255.346,-101.674 313.708,-79.2278"/>
<polygon fill="midnightblue" stroke="midnightblue" points="315.085,-82.448 323.162,-75.5914 312.572,-75.9146 315.085,-82.448"/>
</g>
</g>
</svg>
