<?xml version="1.0" encoding="UTF-8" standalone="no"?>
<!DOCTYPE svg PUBLIC "-//W3C//DTD SVG 1.1//EN"
 "http://www.w3.org/Graphics/SVG/1.1/DTD/svg11.dtd">
<!-- Generated by graphviz version 2.38.0 (20140413.2041)
 -->
<!-- Title: BankDisplay::draw Pages: 1 -->
<svg width="480pt" height="173pt"
 viewBox="0.00 0.00 480.00 173.00" xmlns="http://www.w3.org/2000/svg" xmlns:xlink="http://www.w3.org/1999/xlink">
<g id="graph0" class="graph" transform="scale(1 1) rotate(0) translate(4 169)">
<title>BankDisplay::draw</title>
<polygon fill="white" stroke="none" points="-4,4 -4,-169 476,-169 476,4 -4,4"/>
<!-- Node1 -->
<g id="node1" class="node"><title>Node1</title>
<g id="a_node1"><a xlink:title="Draw this DisplayElement to the display buffer.">
<polygon fill="#bfbfbf" stroke="black" points="0,-66.5 0,-85.5 99,-85.5 99,-66.5 0,-66.5"/>
<text text-anchor="middle" x="49.5" y="-73.5" font-family="Helvetica,sans-Serif" font-size="10.00">BankDisplay::draw</text>
</a>
</g>
</g>
<!-- Node2 -->
<g id="node2" class="node"><title>Node2</title>
<g id="a_node2"><a xlink:href="../../d9/d36/classOutputBank.html#a8e063da9b770b79d471df9652e060232" target="_top" xlink:title="Get the offset (number of banks times the index of the selected bank)">
<polygon fill="white" stroke="black" points="150.5,-126.5 150.5,-145.5 265.5,-145.5 265.5,-126.5 150.5,-126.5"/>
<text text-anchor="middle" x="208" y="-133.5" font-family="Helvetica,sans-Serif" font-size="10.00">OutputBank::getOffset</text>
</a>
</g>
</g>
<!-- Node1&#45;&gt;Node2 -->
<g id="edge1" class="edge"><title>Node1&#45;&gt;Node2</title>
<path fill="none" stroke="midnightblue" d="M67.8673,-85.6615C84.652,-94.6993 110.995,-108.105 135,-117 141.434,-119.384 148.296,-121.597 155.13,-123.606"/>
<polygon fill="midnightblue" stroke="midnightblue" points="154.498,-127.064 165.072,-126.401 156.392,-120.325 154.498,-127.064"/>
</g>
<!-- Node5 -->
<g id="node5" class="node"><title>Node5</title>
<g id="a_node5"><a xlink:href="../../df/d42/classDisplayInterface.html#a3c42da4fd07568f41ad45a46b12decd4" target="_top" xlink:title="Set the cursor position.">
<polygon fill="white" stroke="black" points="139.5,-88.5 139.5,-107.5 276.5,-107.5 276.5,-88.5 139.5,-88.5"/>
<text text-anchor="middle" x="208" y="-95.5" font-family="Helvetica,sans-Serif" font-size="10.00">DisplayInterface::setCursor</text>
</a>
</g>
</g>
<!-- Node1&#45;&gt;Node5 -->
<g id="edge4" class="edge"><title>Node1&#45;&gt;Node5</title>
<path fill="none" stroke="midnightblue" d="M99.1597,-82.8403C108.716,-84.1837 118.962,-85.6241 129.199,-87.0631"/>
<polygon fill="midnightblue" stroke="midnightblue" points="129.016,-90.5717 139.406,-88.4979 129.99,-83.6398 129.016,-90.5717"/>
</g>
<!-- Node6 -->
<g id="node6" class="node"><title>Node6</title>
<g id="a_node6"><a xlink:href="../../df/d42/classDisplayInterface.html#ac0610342dde73f0856c746b6c6b1789c" target="_top" xlink:title="Set the text color.">
<polygon fill="white" stroke="black" points="144.5,-39 144.5,-69 271.5,-69 271.5,-39 144.5,-39"/>
<text text-anchor="start" x="152.5" y="-57" font-family="Helvetica,sans-Serif" font-size="10.00">DisplayInterface::setText</text>
<text text-anchor="middle" x="208" y="-46" font-family="Helvetica,sans-Serif" font-size="10.00">Color</text>
</a>
</g>
</g>
<!-- Node1&#45;&gt;Node6 -->
<g id="edge5" class="edge"><title>Node1&#45;&gt;Node6</title>
<path fill="none" stroke="midnightblue" d="M99.1597,-69.1597C110.306,-67.5928 122.391,-65.8939 134.304,-64.2193"/>
<polygon fill="midnightblue" stroke="midnightblue" points="134.83,-67.6798 144.245,-62.8217 133.856,-60.748 134.83,-67.6798"/>
</g>
<!-- Node7 -->
<g id="node7" class="node"><title>Node7</title>
<g id="a_node7"><a xlink:href="../../df/d42/classDisplayInterface.html#a7ab036652126c8304c74412464805bf7" target="_top" xlink:title="Set the text size.">
<polygon fill="white" stroke="black" points="135,-0.5 135,-19.5 281,-19.5 281,-0.5 135,-0.5"/>
<text text-anchor="middle" x="208" y="-7.5" font-family="Helvetica,sans-Serif" font-size="10.00">DisplayInterface::setTextSize</text>
</a>
</g>
</g>
<!-- Node1&#45;&gt;Node7 -->
<g id="edge6" class="edge"><title>Node1&#45;&gt;Node7</title>
<path fill="none" stroke="midnightblue" d="M65.5582,-66.4306C82.0717,-56.2678 109.609,-40.2809 135,-30 141.862,-27.2216 149.242,-24.6881 156.568,-22.4285"/>
<polygon fill="midnightblue" stroke="midnightblue" points="157.863,-25.6959 166.472,-19.5195 155.891,-18.9797 157.863,-25.6959"/>
</g>
<!-- Node3 -->
<g id="node3" class="node"><title>Node3</title>
<g id="a_node3"><a xlink:href="../../d9/d36/classOutputBank.html#a4289829f0c7639b9ee5f71f27876cfe0" target="_top" xlink:title="Get the current bank setting.">
<polygon fill="white" stroke="black" points="330.5,-145.5 330.5,-164.5 458.5,-164.5 458.5,-145.5 330.5,-145.5"/>
<text text-anchor="middle" x="394.5" y="-152.5" font-family="Helvetica,sans-Serif" font-size="10.00">OutputBank::getSelection</text>
</a>
</g>
</g>
<!-- Node2&#45;&gt;Node3 -->
<g id="edge2" class="edge"><title>Node2&#45;&gt;Node3</title>
<path fill="none" stroke="midnightblue" d="M265.61,-141.83C282.859,-143.606 302.074,-145.585 320.258,-147.457"/>
<polygon fill="midnightblue" stroke="midnightblue" points="319.929,-150.942 330.235,-148.485 320.646,-143.979 319.929,-150.942"/>
</g>
<!-- Node4 -->
<g id="node4" class="node"><title>Node4</title>
<g id="a_node4"><a xlink:href="../../d9/d36/classOutputBank.html#a48728b26460575796e5bc5e2e2439003" target="_top" xlink:title="Get the number of tracks per bank.">
<polygon fill="white" stroke="black" points="317,-107.5 317,-126.5 472,-126.5 472,-107.5 317,-107.5"/>
<text text-anchor="middle" x="394.5" y="-114.5" font-family="Helvetica,sans-Serif" font-size="10.00">OutputBank::getTracksPerBank</text>
</a>
</g>
</g>
<!-- Node2&#45;&gt;Node4 -->
<g id="edge3" class="edge"><title>Node2&#45;&gt;Node4</title>
<path fill="none" stroke="midnightblue" d="M265.61,-130.17C278.651,-128.827 292.816,-127.369 306.809,-125.928"/>
<polygon fill="midnightblue" stroke="midnightblue" points="307.361,-129.389 316.949,-124.883 306.643,-122.426 307.361,-129.389"/>
</g>
</g>
</svg>
