<?xml version="1.0" encoding="UTF-8" standalone="no"?>
<!DOCTYPE svg PUBLIC "-//W3C//DTD SVG 1.1//EN"
 "http://www.w3.org/Graphics/SVG/1.1/DTD/svg11.dtd">
<!-- Generated by graphviz version 2.38.0 (20140413.2041)
 -->
<!-- Title: CCIncrementDecrementButtons.hpp Pages: 1 -->
<svg width="1018pt" height="643pt"
 viewBox="0.00 0.00 1017.50 643.00" xmlns="http://www.w3.org/2000/svg" xmlns:xlink="http://www.w3.org/1999/xlink">
<g id="graph0" class="graph" transform="scale(1 1) rotate(0) translate(4 639)">
<title>CCIncrementDecrementButtons.hpp</title>
<polygon fill="white" stroke="none" points="-4,4 -4,-639 1013.5,-639 1013.5,4 -4,4"/>
<!-- Node0 -->
<g id="node1" class="node"><title>Node0</title>
<g id="a_node1"><a xlink:title=" ">
<polygon fill="#bfbfbf" stroke="black" points="391,-615.5 391,-634.5 567,-634.5 567,-615.5 391,-615.5"/>
<text text-anchor="middle" x="479" y="-622.5" font-family="Helvetica,sans-Serif" font-size="10.00">CCIncrementDecrementButtons.hpp</text>
</a>
</g>
</g>
<!-- Node1 -->
<g id="node2" class="node"><title>Node1</title>
<g id="a_node2"><a xlink:href="../../dc/dc5/MIDIIncrementDecrementButtons_8hpp.html" target="_top" xlink:title=" ">
<polygon fill="white" stroke="black" points="557.5,-548.5 557.5,-578.5 742.5,-578.5 742.5,-548.5 557.5,-548.5"/>
<text text-anchor="start" x="565.5" y="-566.5" font-family="Helvetica,sans-Serif" font-size="10.00">MIDI_Outputs/Abstract</text>
<text text-anchor="middle" x="650" y="-555.5" font-family="Helvetica,sans-Serif" font-size="10.00">/MIDIIncrementDecrementButtons.hpp</text>
</a>
</g>
</g>
<!-- Node0&#45;&gt;Node1 -->
<g id="edge1" class="edge"><title>Node0&#45;&gt;Node1</title>
<path fill="none" stroke="midnightblue" d="M503.5,-615.475C528.608,-606.739 568.359,-592.907 600.123,-581.855"/>
<polygon fill="midnightblue" stroke="midnightblue" points="601.404,-585.115 609.699,-578.523 599.104,-578.504 601.404,-585.115"/>
</g>
<!-- Node29 -->
<g id="node30" class="node"><title>Node29</title>
<g id="a_node30"><a xlink:href="../../d9/d24/RelativeCCSender_8hpp.html" target="_top" xlink:title=" ">
<polygon fill="white" stroke="black" points="184.5,-364 184.5,-383 367.5,-383 367.5,-364 184.5,-364"/>
<text text-anchor="middle" x="276" y="-371" font-family="Helvetica,sans-Serif" font-size="10.00">MIDI_Senders/RelativeCCSender.hpp</text>
</a>
</g>
</g>
<!-- Node0&#45;&gt;Node29 -->
<g id="edge50" class="edge"><title>Node0&#45;&gt;Node29</title>
<path fill="none" stroke="midnightblue" d="M472.012,-615.412C442.609,-579.273 328.646,-439.205 289.383,-390.949"/>
<polygon fill="midnightblue" stroke="midnightblue" points="291.984,-388.6 282.958,-383.052 286.555,-393.018 291.984,-388.6"/>
</g>
<!-- Node2 -->
<g id="node3" class="node"><title>Node2</title>
<g id="a_node3"><a xlink:href="../../d0/d4e/Def_8hpp.html" target="_top" xlink:title=" ">
<polygon fill="white" stroke="black" points="838,-230 838,-249 908,-249 908,-230 838,-230"/>
<text text-anchor="middle" x="873" y="-237" font-family="Helvetica,sans-Serif" font-size="10.00">Def/Def.hpp</text>
</a>
</g>
</g>
<!-- Node1&#45;&gt;Node2 -->
<g id="edge2" class="edge"><title>Node1&#45;&gt;Node2</title>
<path fill="none" stroke="midnightblue" d="M742.771,-553.538C814.977,-540.84 903,-510.153 903,-436 903,-436 903,-436 903,-372.5 903,-331.147 888.827,-284.279 879.964,-259.014"/>
<polygon fill="midnightblue" stroke="midnightblue" points="883.142,-257.512 876.441,-249.305 876.562,-259.899 883.142,-257.512"/>
</g>
<!-- Node6 -->
<g id="node7" class="node"><title>Node6</title>
<g id="a_node7"><a xlink:href="../../df/df5/IncrementDecrementButtons_8hpp.html" target="_top" xlink:title=" ">
<polygon fill="white" stroke="black" points="573.5,-481.5 573.5,-511.5 726.5,-511.5 726.5,-481.5 573.5,-481.5"/>
<text text-anchor="start" x="581.5" y="-499.5" font-family="Helvetica,sans-Serif" font-size="10.00">Hardware/IncrementDecrement</text>
<text text-anchor="middle" x="650" y="-488.5" font-family="Helvetica,sans-Serif" font-size="10.00">Buttons.hpp</text>
</a>
</g>
</g>
<!-- Node1&#45;&gt;Node6 -->
<g id="edge7" class="edge"><title>Node1&#45;&gt;Node6</title>
<path fill="none" stroke="midnightblue" d="M650,-548.396C650,-540.645 650,-530.812 650,-521.86"/>
<polygon fill="midnightblue" stroke="midnightblue" points="653.5,-521.576 650,-511.577 646.5,-521.577 653.5,-521.576"/>
</g>
<!-- Node17 -->
<g id="node18" class="node"><title>Node17</title>
<g id="a_node18"><a xlink:href="../../d1/d41/MIDIOutputElement_8hpp.html" target="_top" xlink:title=" ">
<polygon fill="white" stroke="black" points="721.5,-358.5 721.5,-388.5 846.5,-388.5 846.5,-358.5 721.5,-358.5"/>
<text text-anchor="start" x="729.5" y="-376.5" font-family="Helvetica,sans-Serif" font-size="10.00">MIDI_Outputs/Abstract</text>
<text text-anchor="middle" x="784" y="-365.5" font-family="Helvetica,sans-Serif" font-size="10.00">/MIDIOutputElement.hpp</text>
</a>
</g>
</g>
<!-- Node1&#45;&gt;Node17 -->
<g id="edge25" class="edge"><title>Node1&#45;&gt;Node17</title>
<path fill="none" stroke="midnightblue" d="M685.398,-548.353C702.417,-539.996 721.912,-527.905 735,-512 762.557,-478.511 775.168,-428.349 780.501,-398.772"/>
<polygon fill="midnightblue" stroke="midnightblue" points="784.017,-398.96 782.204,-388.521 777.112,-397.812 784.017,-398.96"/>
</g>
<!-- Node20 -->
<g id="node21" class="node"><title>Node20</title>
<g id="a_node21"><a xlink:href="../../d1/daa/DigitalNoteSender_8hpp.html" target="_top" xlink:title=" ">
<polygon fill="white" stroke="black" points="401.5,-481.5 401.5,-511.5 532.5,-511.5 532.5,-481.5 401.5,-481.5"/>
<text text-anchor="start" x="409.5" y="-499.5" font-family="Helvetica,sans-Serif" font-size="10.00">MIDI_Senders/DigitalNote</text>
<text text-anchor="middle" x="467" y="-488.5" font-family="Helvetica,sans-Serif" font-size="10.00">Sender.hpp</text>
</a>
</g>
</g>
<!-- Node1&#45;&gt;Node20 -->
<g id="edge34" class="edge"><title>Node1&#45;&gt;Node20</title>
<path fill="none" stroke="midnightblue" d="M610.292,-548.396C582.714,-538.601 545.777,-525.481 516.312,-515.015"/>
<polygon fill="midnightblue" stroke="midnightblue" points="517.226,-511.625 506.631,-511.577 514.883,-518.222 517.226,-511.625"/>
</g>
<!-- Node3 -->
<g id="node4" class="node"><title>Node3</title>
<g id="a_node4"><a xlink:href="../../de/d76/Array_8hpp.html" target="_top" xlink:title=" ">
<polygon fill="white" stroke="black" points="914.5,-56.5 914.5,-75.5 1009.5,-75.5 1009.5,-56.5 914.5,-56.5"/>
<text text-anchor="middle" x="962" y="-63.5" font-family="Helvetica,sans-Serif" font-size="10.00">Helpers/Array.hpp</text>
</a>
</g>
</g>
<!-- Node2&#45;&gt;Node3 -->
<g id="edge3" class="edge"><title>Node2&#45;&gt;Node3</title>
<path fill="none" stroke="midnightblue" d="M877.632,-229.946C883.047,-219.922 892.254,-202.797 900,-188 919.167,-151.385 941.118,-108.254 953.079,-84.6477"/>
<polygon fill="midnightblue" stroke="midnightblue" points="956.298,-86.0378 957.691,-75.5349 950.052,-82.8767 956.298,-86.0378"/>
</g>
<!-- Node4 -->
<g id="node5" class="node"><title>Node4</title>
<g id="a_node5"><a xlink:title=" ">
<polygon fill="white" stroke="#bfbfbf" points="784,-0.5 784,-19.5 836,-19.5 836,-0.5 784,-0.5"/>
<text text-anchor="middle" x="810" y="-7.5" font-family="Helvetica,sans-Serif" font-size="10.00">stddef.h</text>
</a>
</g>
</g>
<!-- Node2&#45;&gt;Node4 -->
<g id="edge5" class="edge"><title>Node2&#45;&gt;Node4</title>
<path fill="none" stroke="midnightblue" d="M873.387,-229.7C874.06,-208.81 874.353,-154.783 862,-112 852.967,-80.7155 833.956,-47.7733 821.595,-28.3245"/>
<polygon fill="midnightblue" stroke="midnightblue" points="824.367,-26.1679 815.979,-19.6955 818.5,-29.986 824.367,-26.1679"/>
</g>
<!-- Node5 -->
<g id="node6" class="node"><title>Node5</title>
<g id="a_node6"><a xlink:title=" ">
<polygon fill="white" stroke="#bfbfbf" points="434.5,-0.5 434.5,-19.5 483.5,-19.5 483.5,-0.5 434.5,-0.5"/>
<text text-anchor="middle" x="459" y="-7.5" font-family="Helvetica,sans-Serif" font-size="10.00">stdint.h</text>
</a>
</g>
</g>
<!-- Node2&#45;&gt;Node5 -->
<g id="edge6" class="edge"><title>Node2&#45;&gt;Node5</title>
<path fill="none" stroke="midnightblue" d="M869.824,-229.955C860.924,-207.192 833.51,-144.608 790,-112 697.777,-42.884 557.919,-20.6387 493.59,-13.8289"/>
<polygon fill="midnightblue" stroke="midnightblue" points="493.868,-10.3394 483.57,-12.8297 493.174,-17.3048 493.868,-10.3394"/>
</g>
<!-- Node3&#45;&gt;Node4 -->
<g id="edge4" class="edge"><title>Node3&#45;&gt;Node4</title>
<path fill="none" stroke="midnightblue" d="M937.915,-56.4435C912.455,-47.3986 872.106,-33.064 843.541,-22.9158"/>
<polygon fill="midnightblue" stroke="midnightblue" points="844.567,-19.5661 833.972,-19.5164 842.223,-26.1622 844.567,-19.5661"/>
</g>
<!-- Node7 -->
<g id="node8" class="node"><title>Node7</title>
<g id="a_node8"><a xlink:href="../../d0/d79/Button_8h.html" target="_top" xlink:title=" ">
<polygon fill="white" stroke="black" points="623.5,-425.5 623.5,-444.5 676.5,-444.5 676.5,-425.5 623.5,-425.5"/>
<text text-anchor="middle" x="650" y="-432.5" font-family="Helvetica,sans-Serif" font-size="10.00">Button.h</text>
</a>
</g>
</g>
<!-- Node6&#45;&gt;Node7 -->
<g id="edge8" class="edge"><title>Node6&#45;&gt;Node7</title>
<path fill="none" stroke="midnightblue" d="M650,-481.399C650,-473.466 650,-463.458 650,-454.858"/>
<polygon fill="midnightblue" stroke="midnightblue" points="653.5,-454.658 650,-444.658 646.5,-454.658 653.5,-454.658"/>
</g>
<!-- Node8 -->
<g id="node9" class="node"><title>Node8</title>
<g id="a_node9"><a xlink:href="../../d4/d8e/ExtendedInputOutput_8h.html" target="_top" xlink:title=" ">
<polygon fill="white" stroke="black" points="502,-358.5 502,-388.5 656,-388.5 656,-358.5 502,-358.5"/>
<text text-anchor="start" x="510" y="-376.5" font-family="Helvetica,sans-Serif" font-size="10.00">Hardware/ExtendedInputOutput</text>
<text text-anchor="middle" x="579" y="-365.5" font-family="Helvetica,sans-Serif" font-size="10.00">/ExtendedInputOutput.h</text>
</a>
</g>
</g>
<!-- Node7&#45;&gt;Node8 -->
<g id="edge9" class="edge"><title>Node7&#45;&gt;Node8</title>
<path fill="none" stroke="midnightblue" d="M639.827,-425.475C630.391,-417.567 615.973,-405.485 603.543,-395.067"/>
<polygon fill="midnightblue" stroke="midnightblue" points="605.646,-392.263 595.733,-388.523 601.15,-397.629 605.646,-392.263"/>
</g>
<!-- Node13 -->
<g id="node14" class="node"><title>Node13</title>
<g id="a_node14"><a xlink:href="../../d4/d6b/SettingsWrapper_8h.html" target="_top" xlink:title=" ">
<polygon fill="white" stroke="black" points="644.5,-112.5 644.5,-131.5 781.5,-131.5 781.5,-112.5 644.5,-112.5"/>
<text text-anchor="middle" x="713" y="-119.5" font-family="Helvetica,sans-Serif" font-size="10.00">Settings/SettingsWrapper.h</text>
</a>
</g>
</g>
<!-- Node7&#45;&gt;Node13 -->
<g id="edge24" class="edge"><title>Node7&#45;&gt;Node13</title>
<path fill="none" stroke="midnightblue" d="M654.31,-425.353C666.678,-399.992 702.159,-323.287 714,-255 720.893,-215.25 717.833,-167.75 715.249,-141.955"/>
<polygon fill="midnightblue" stroke="midnightblue" points="718.698,-141.297 714.133,-131.737 711.74,-142.057 718.698,-141.297"/>
</g>
<!-- Node9 -->
<g id="node10" class="node"><title>Node9</title>
<g id="a_node10"><a xlink:href="../../d9/d98/ExtendedIOElement_8h.html" target="_top" xlink:title=" ">
<polygon fill="white" stroke="black" points="522.5,-297 522.5,-316 635.5,-316 635.5,-297 522.5,-297"/>
<text text-anchor="middle" x="579" y="-304" font-family="Helvetica,sans-Serif" font-size="10.00">ExtendedIOElement.h</text>
</a>
</g>
</g>
<!-- Node8&#45;&gt;Node9 -->
<g id="edge10" class="edge"><title>Node8&#45;&gt;Node9</title>
<path fill="none" stroke="midnightblue" d="M579,-358.396C579,-349.064 579,-336.714 579,-326.517"/>
<polygon fill="midnightblue" stroke="midnightblue" points="582.5,-326.195 579,-316.195 575.5,-326.195 582.5,-326.195"/>
</g>
<!-- Node16 -->
<g id="node17" class="node"><title>Node16</title>
<g id="a_node17"><a xlink:title=" ">
<polygon fill="white" stroke="#bfbfbf" points="352,-56.5 352,-75.5 410,-75.5 410,-56.5 352,-56.5"/>
<text text-anchor="middle" x="381" y="-63.5" font-family="Helvetica,sans-Serif" font-size="10.00">Arduino.h</text>
</a>
</g>
</g>
<!-- Node8&#45;&gt;Node16 -->
<g id="edge23" class="edge"><title>Node8&#45;&gt;Node16</title>
<path fill="none" stroke="midnightblue" d="M558.545,-358.44C545.075,-348.804 527.344,-335.389 513,-322 509.374,-318.616 397.016,-192.532 395,-188 380.011,-154.307 378.946,-110.371 379.791,-85.7805"/>
<polygon fill="midnightblue" stroke="midnightblue" points="383.293,-85.8304 380.288,-75.6705 376.301,-85.4864 383.293,-85.8304"/>
</g>
<!-- Node9&#45;&gt;Node2 -->
<g id="edge11" class="edge"><title>Node9&#45;&gt;Node2</title>
<path fill="none" stroke="midnightblue" d="M617.738,-296.936C672.015,-284.935 770.48,-263.166 827.959,-250.458"/>
<polygon fill="midnightblue" stroke="midnightblue" points="828.842,-253.847 837.851,-248.271 827.331,-247.012 828.842,-253.847"/>
</g>
<!-- Node10 -->
<g id="node11" class="node"><title>Node10</title>
<g id="a_node11"><a xlink:href="../../de/dd1/LinkedList_8hpp.html" target="_top" xlink:title=" ">
<polygon fill="white" stroke="black" points="479,-230 479,-249 595,-249 595,-230 479,-230"/>
<text text-anchor="middle" x="537" y="-237" font-family="Helvetica,sans-Serif" font-size="10.00">Helpers/LinkedList.hpp</text>
</a>
</g>
</g>
<!-- Node9&#45;&gt;Node10 -->
<g id="edge12" class="edge"><title>Node9&#45;&gt;Node10</title>
<path fill="none" stroke="midnightblue" d="M573.336,-296.734C566.912,-286.793 556.28,-270.338 548.171,-257.789"/>
<polygon fill="midnightblue" stroke="midnightblue" points="550.941,-255.627 542.575,-249.127 545.062,-259.426 550.941,-255.627"/>
</g>
<!-- Node11 -->
<g id="node12" class="node"><title>Node11</title>
<g id="a_node12"><a xlink:title=" ">
<polygon fill="white" stroke="#bfbfbf" points="483,-112.5 483,-131.5 531,-131.5 531,-112.5 483,-112.5"/>
<text text-anchor="middle" x="507" y="-119.5" font-family="Helvetica,sans-Serif" font-size="10.00">stdlib.h</text>
</a>
</g>
</g>
<!-- Node10&#45;&gt;Node11 -->
<g id="edge13" class="edge"><title>Node10&#45;&gt;Node11</title>
<path fill="none" stroke="midnightblue" d="M543.116,-229.982C552.025,-216.449 566.524,-189.385 557,-168 551.432,-155.498 540.484,-145.012 530.249,-137.317"/>
<polygon fill="midnightblue" stroke="midnightblue" points="532.156,-134.379 521.952,-131.526 528.149,-140.119 532.156,-134.379"/>
</g>
<!-- Node12 -->
<g id="node13" class="node"><title>Node12</title>
<g id="a_node13"><a xlink:href="../../df/dee/Debug_8hpp.html" target="_top" xlink:title=" ">
<polygon fill="white" stroke="black" points="604.5,-168.5 604.5,-187.5 705.5,-187.5 705.5,-168.5 604.5,-168.5"/>
<text text-anchor="middle" x="655" y="-175.5" font-family="Helvetica,sans-Serif" font-size="10.00">Helpers/Debug.hpp</text>
</a>
</g>
</g>
<!-- Node10&#45;&gt;Node12 -->
<g id="edge14" class="edge"><title>Node10&#45;&gt;Node12</title>
<path fill="none" stroke="midnightblue" d="M553.907,-229.975C573.534,-220.078 606.131,-203.642 628.99,-192.115"/>
<polygon fill="midnightblue" stroke="midnightblue" points="630.772,-195.137 638.125,-187.509 627.62,-188.886 630.772,-195.137"/>
</g>
<!-- Node12&#45;&gt;Node11 -->
<g id="edge20" class="edge"><title>Node12&#45;&gt;Node11</title>
<path fill="none" stroke="midnightblue" d="M631.549,-168.444C606.867,-159.438 567.815,-145.189 540.023,-135.049"/>
<polygon fill="midnightblue" stroke="midnightblue" points="540.935,-131.656 530.341,-131.516 538.536,-138.232 540.935,-131.656"/>
</g>
<!-- Node12&#45;&gt;Node13 -->
<g id="edge15" class="edge"><title>Node12&#45;&gt;Node13</title>
<path fill="none" stroke="midnightblue" d="M659.411,-168.083C666.402,-159.984 679.091,-147.866 690.494,-138.233"/>
<polygon fill="midnightblue" stroke="midnightblue" points="692.917,-140.774 698.47,-131.751 688.502,-135.342 692.917,-140.774"/>
</g>
<!-- Node15 -->
<g id="node16" class="node"><title>Node15</title>
<g id="a_node16"><a xlink:href="../../dc/d48/PrintStream_8h.html" target="_top" xlink:title=" ">
<polygon fill="white" stroke="black" points="549.5,-112.5 549.5,-131.5 626.5,-131.5 626.5,-112.5 549.5,-112.5"/>
<text text-anchor="middle" x="588" y="-119.5" font-family="Helvetica,sans-Serif" font-size="10.00">PrintStream.h</text>
</a>
</g>
</g>
<!-- Node12&#45;&gt;Node15 -->
<g id="edge21" class="edge"><title>Node12&#45;&gt;Node15</title>
<path fill="none" stroke="midnightblue" d="M644.235,-168.324C634.234,-160.263 619.113,-148.077 607.07,-138.369"/>
<polygon fill="midnightblue" stroke="midnightblue" points="608.943,-135.384 598.961,-131.834 604.55,-140.834 608.943,-135.384"/>
</g>
<!-- Node13&#45;&gt;Node12 -->
<g id="edge19" class="edge"><title>Node13&#45;&gt;Node12</title>
<path fill="none" stroke="midnightblue" d="M708.66,-131.834C701.672,-139.948 688.902,-152.145 677.444,-161.82"/>
<polygon fill="midnightblue" stroke="midnightblue" points="674.99,-159.303 669.434,-168.324 679.403,-164.737 674.99,-159.303"/>
</g>
<!-- Node14 -->
<g id="node15" class="node"><title>Node14</title>
<g id="a_node15"><a xlink:href="../../dd/dbc/Settings_8h.html" target="_top" xlink:title="All user settings and debugging options can be changed here.">
<polygon fill="white" stroke="black" points="428.5,-56.5 428.5,-75.5 489.5,-75.5 489.5,-56.5 428.5,-56.5"/>
<text text-anchor="middle" x="459" y="-63.5" font-family="Helvetica,sans-Serif" font-size="10.00">Settings.h</text>
</a>
</g>
</g>
<!-- Node13&#45;&gt;Node14 -->
<g id="edge16" class="edge"><title>Node13&#45;&gt;Node14</title>
<path fill="none" stroke="midnightblue" d="M672.753,-112.444C625.446,-102.386 547.376,-85.7886 499.822,-75.6786"/>
<polygon fill="midnightblue" stroke="midnightblue" points="500.38,-72.2192 489.871,-73.5631 498.924,-79.0661 500.38,-72.2192"/>
</g>
<!-- Node14&#45;&gt;Node4 -->
<g id="edge17" class="edge"><title>Node14&#45;&gt;Node4</title>
<path fill="none" stroke="midnightblue" d="M489.946,-58.5935C494.647,-57.6833 499.447,-56.7895 504,-56 601.123,-39.1577 716.304,-23.3306 773.703,-15.7232"/>
<polygon fill="midnightblue" stroke="midnightblue" points="774.275,-19.1782 783.731,-14.4 773.359,-12.2384 774.275,-19.1782"/>
</g>
<!-- Node14&#45;&gt;Node5 -->
<g id="edge18" class="edge"><title>Node14&#45;&gt;Node5</title>
<path fill="none" stroke="midnightblue" d="M459,-56.083C459,-49.0059 459,-38.8611 459,-29.9865"/>
<polygon fill="midnightblue" stroke="midnightblue" points="462.5,-29.751 459,-19.7511 455.5,-29.7511 462.5,-29.751"/>
</g>
<!-- Node15&#45;&gt;Node16 -->
<g id="edge22" class="edge"><title>Node15&#45;&gt;Node16</title>
<path fill="none" stroke="midnightblue" d="M555.2,-112.444C518.573,-102.889 459.318,-87.4308 420.257,-77.2409"/>
<polygon fill="midnightblue" stroke="midnightblue" points="420.859,-73.781 410.299,-74.6433 419.092,-80.5543 420.859,-73.781"/>
</g>
<!-- Node17&#45;&gt;Node2 -->
<g id="edge33" class="edge"><title>Node17&#45;&gt;Node2</title>
<path fill="none" stroke="midnightblue" d="M807.132,-358.432C820.171,-349.452 835.835,-336.744 846,-322 859.256,-302.773 866.399,-276.552 869.947,-259.101"/>
<polygon fill="midnightblue" stroke="midnightblue" points="873.427,-259.528 871.787,-249.061 866.542,-258.266 873.427,-259.528"/>
</g>
<!-- Node18 -->
<g id="node19" class="node"><title>Node18</title>
<g id="a_node19"><a xlink:href="../../d4/d93/Updatable_8hpp.html" target="_top" xlink:title=" ">
<polygon fill="white" stroke="black" points="721,-297 721,-316 837,-316 837,-297 721,-297"/>
<text text-anchor="middle" x="779" y="-304" font-family="Helvetica,sans-Serif" font-size="10.00">Helpers/Updatable.hpp</text>
</a>
</g>
</g>
<!-- Node17&#45;&gt;Node18 -->
<g id="edge26" class="edge"><title>Node17&#45;&gt;Node18</title>
<path fill="none" stroke="midnightblue" d="M782.915,-358.396C782.189,-348.963 781.227,-336.448 780.438,-326.189"/>
<polygon fill="midnightblue" stroke="midnightblue" points="783.926,-325.897 779.669,-316.195 776.946,-326.434 783.926,-325.897"/>
</g>
<!-- Node18&#45;&gt;Node2 -->
<g id="edge32" class="edge"><title>Node18&#45;&gt;Node2</title>
<path fill="none" stroke="midnightblue" d="M791.677,-296.734C807.181,-286.013 833.641,-267.716 852.156,-254.914"/>
<polygon fill="midnightblue" stroke="midnightblue" points="854.289,-257.694 860.524,-249.127 850.308,-251.936 854.289,-257.694"/>
</g>
<!-- Node18&#45;&gt;Node4 -->
<g id="edge31" class="edge"><title>Node18&#45;&gt;Node4</title>
<path fill="none" stroke="midnightblue" d="M782.678,-296.786C790.889,-276.513 810,-224.449 810,-179 810,-179 810,-179 810,-121 810,-88.948 810,-51.6426 810,-29.7489"/>
<polygon fill="midnightblue" stroke="midnightblue" points="813.5,-29.5577 810,-19.5578 806.5,-29.5578 813.5,-29.5577"/>
</g>
<!-- Node18&#45;&gt;Node10 -->
<g id="edge29" class="edge"><title>Node18&#45;&gt;Node10</title>
<path fill="none" stroke="midnightblue" d="M747.114,-296.936C703.858,-285.317 626.506,-264.541 578.689,-251.698"/>
<polygon fill="midnightblue" stroke="midnightblue" points="579.522,-248.297 568.957,-249.083 577.707,-255.058 579.522,-248.297"/>
</g>
<!-- Node18&#45;&gt;Node13 -->
<g id="edge30" class="edge"><title>Node18&#45;&gt;Node13</title>
<path fill="none" stroke="midnightblue" d="M778.351,-296.703C776.417,-274.244 769.431,-213.357 748,-168 743.042,-157.506 735.282,-147.184 728.328,-139.078"/>
<polygon fill="midnightblue" stroke="midnightblue" points="730.815,-136.61 721.523,-131.519 725.612,-141.293 730.815,-136.61"/>
</g>
<!-- Node19 -->
<g id="node20" class="node"><title>Node19</title>
<g id="a_node20"><a xlink:href="../../d1/d93/Error_8hpp.html" target="_top" xlink:title=" ">
<polygon fill="white" stroke="black" points="612.5,-230 612.5,-249 705.5,-249 705.5,-230 612.5,-230"/>
<text text-anchor="middle" x="659" y="-237" font-family="Helvetica,sans-Serif" font-size="10.00">Helpers/Error.hpp</text>
</a>
</g>
</g>
<!-- Node18&#45;&gt;Node19 -->
<g id="edge27" class="edge"><title>Node18&#45;&gt;Node19</title>
<path fill="none" stroke="midnightblue" d="M762.816,-296.734C742.574,-285.769 707.703,-266.881 684.014,-254.049"/>
<polygon fill="midnightblue" stroke="midnightblue" points="685.387,-250.813 674.927,-249.127 682.053,-256.968 685.387,-250.813"/>
</g>
<!-- Node19&#45;&gt;Node12 -->
<g id="edge28" class="edge"><title>Node19&#45;&gt;Node12</title>
<path fill="none" stroke="midnightblue" d="M658.427,-229.975C657.863,-221.58 656.982,-208.481 656.255,-197.663"/>
<polygon fill="midnightblue" stroke="midnightblue" points="659.735,-197.252 655.572,-187.509 652.751,-197.721 659.735,-197.252"/>
</g>
<!-- Node21 -->
<g id="node22" class="node"><title>Node21</title>
<g id="a_node22"><a xlink:href="../../d5/de0/Control__Surface__Class_8h.html" target="_top" xlink:title=" ">
<polygon fill="white" stroke="black" points="215,-291.5 215,-321.5 337,-321.5 337,-291.5 215,-291.5"/>
<text text-anchor="start" x="223" y="-309.5" font-family="Helvetica,sans-Serif" font-size="10.00">Control_Surface/Control</text>
<text text-anchor="middle" x="276" y="-298.5" font-family="Helvetica,sans-Serif" font-size="10.00">_Surface_Class.h</text>
</a>
</g>
</g>
<!-- Node20&#45;&gt;Node21 -->
<g id="edge35" class="edge"><title>Node20&#45;&gt;Node21</title>
<path fill="none" stroke="midnightblue" d="M460.68,-481.287C448.041,-454.222 417.284,-394.715 376,-358 361.04,-344.695 341.942,-333.925 324.453,-325.802"/>
<polygon fill="midnightblue" stroke="midnightblue" points="325.498,-322.436 314.939,-321.563 322.649,-328.83 325.498,-322.436"/>
</g>
<!-- Node22 -->
<g id="node23" class="node"><title>Node22</title>
<g id="a_node23"><a xlink:href="../../dc/dbb/MIDI__Interface_8h.html" target="_top" xlink:title=" ">
<polygon fill="white" stroke="black" points="304,-224.5 304,-254.5 416,-254.5 416,-224.5 304,-224.5"/>
<text text-anchor="start" x="312" y="-242.5" font-family="Helvetica,sans-Serif" font-size="10.00">MIDI_Interfaces/MIDI</text>
<text text-anchor="middle" x="360" y="-231.5" font-family="Helvetica,sans-Serif" font-size="10.00">_Interface.h</text>
</a>
</g>
</g>
<!-- Node21&#45;&gt;Node22 -->
<g id="edge36" class="edge"><title>Node21&#45;&gt;Node22</title>
<path fill="none" stroke="midnightblue" d="M294.227,-291.396C305.785,-282.452 320.924,-270.737 333.764,-260.802"/>
<polygon fill="midnightblue" stroke="midnightblue" points="336.042,-263.464 341.809,-254.577 331.758,-257.928 336.042,-263.464"/>
</g>
<!-- Node24 -->
<g id="node25" class="node"><title>Node24</title>
<g id="a_node25"><a xlink:href="../../d6/dd2/DisplayElement_8hpp.html" target="_top" xlink:title=" ">
<polygon fill="white" stroke="black" points="108,-230 108,-249 248,-249 248,-230 108,-230"/>
<text text-anchor="middle" x="178" y="-237" font-family="Helvetica,sans-Serif" font-size="10.00">Display/DisplayElement.hpp</text>
</a>
</g>
</g>
<!-- Node21&#45;&gt;Node24 -->
<g id="edge42" class="edge"><title>Node21&#45;&gt;Node24</title>
<path fill="none" stroke="midnightblue" d="M254.735,-291.396C238.301,-280.496 215.66,-265.479 199.234,-254.584"/>
<polygon fill="midnightblue" stroke="midnightblue" points="201.094,-251.618 190.826,-249.007 197.225,-257.451 201.094,-251.618"/>
</g>
<!-- Node25 -->
<g id="node26" class="node"><title>Node25</title>
<g id="a_node26"><a xlink:href="../../dc/d77/DisplayInterface_8hpp.html" target="_top" xlink:title=" ">
<polygon fill="white" stroke="black" points="204.5,-168.5 204.5,-187.5 347.5,-187.5 347.5,-168.5 204.5,-168.5"/>
<text text-anchor="middle" x="276" y="-175.5" font-family="Helvetica,sans-Serif" font-size="10.00">Display/DisplayInterface.hpp</text>
</a>
</g>
</g>
<!-- Node21&#45;&gt;Node25 -->
<g id="edge47" class="edge"><title>Node21&#45;&gt;Node25</title>
<path fill="none" stroke="midnightblue" d="M276,-291.479C276,-268.719 276,-223.702 276,-198.058"/>
<polygon fill="midnightblue" stroke="midnightblue" points="279.5,-197.789 276,-187.789 272.5,-197.789 279.5,-197.789"/>
</g>
<!-- Node28 -->
<g id="node29" class="node"><title>Node28</title>
<g id="a_node29"><a xlink:href="../../d7/d74/MillisTimer_8hpp.html" target="_top" xlink:title=" ">
<polygon fill="white" stroke="black" points="28.5,-168.5 28.5,-187.5 147.5,-187.5 147.5,-168.5 28.5,-168.5"/>
<text text-anchor="middle" x="88" y="-175.5" font-family="Helvetica,sans-Serif" font-size="10.00">Helpers/MillisTimer.hpp</text>
</a>
</g>
</g>
<!-- Node21&#45;&gt;Node28 -->
<g id="edge48" class="edge"><title>Node21&#45;&gt;Node28</title>
<path fill="none" stroke="midnightblue" d="M214.639,-304.183C175.768,-299.929 127.601,-287.722 99,-255 85.4554,-239.504 84.2462,-215.06 85.4207,-198.095"/>
<polygon fill="midnightblue" stroke="midnightblue" points="88.9436,-198.054 86.4923,-187.747 81.9808,-197.333 88.9436,-198.054"/>
</g>
<!-- Node23 -->
<g id="node24" class="node"><title>Node23</title>
<g id="a_node24"><a xlink:href="../../d4/d36/MIDI__Parser_8h.html" target="_top" xlink:title=" ">
<polygon fill="white" stroke="black" points="404,-168.5 404,-187.5 548,-187.5 548,-168.5 404,-168.5"/>
<text text-anchor="middle" x="476" y="-175.5" font-family="Helvetica,sans-Serif" font-size="10.00">MIDI_Parsers/MIDI_Parser.h</text>
</a>
</g>
</g>
<!-- Node22&#45;&gt;Node23 -->
<g id="edge37" class="edge"><title>Node22&#45;&gt;Node23</title>
<path fill="none" stroke="midnightblue" d="M387.49,-224.399C406.432,-214.684 431.442,-201.855 450.044,-192.314"/>
<polygon fill="midnightblue" stroke="midnightblue" points="451.821,-195.336 459.121,-187.658 448.626,-189.108 451.821,-195.336"/>
</g>
<!-- Node23&#45;&gt;Node4 -->
<g id="edge38" class="edge"><title>Node23&#45;&gt;Node4</title>
<path fill="none" stroke="midnightblue" d="M472.673,-168.423C468.061,-154.956 461.604,-128.67 474,-112 510.307,-63.1747 694.574,-29.045 773.757,-16.4094"/>
<polygon fill="midnightblue" stroke="midnightblue" points="774.428,-19.847 783.764,-14.838 773.342,-12.9317 774.428,-19.847"/>
</g>
<!-- Node23&#45;&gt;Node5 -->
<g id="edge39" class="edge"><title>Node23&#45;&gt;Node5</title>
<path fill="none" stroke="midnightblue" d="M454.966,-168.41C423.784,-154.375 366.457,-123.268 343,-76 325.299,-40.3322 384.111,-23.2204 424.367,-15.8516"/>
<polygon fill="midnightblue" stroke="midnightblue" points="425.126,-19.273 434.396,-14.1429 423.95,-12.3724 425.126,-19.273"/>
</g>
<!-- Node23&#45;&gt;Node11 -->
<g id="edge40" class="edge"><title>Node23&#45;&gt;Node11</title>
<path fill="none" stroke="midnightblue" d="M481.119,-168.083C485.408,-160.613 491.658,-149.724 496.942,-140.52"/>
<polygon fill="midnightblue" stroke="midnightblue" points="500.033,-142.166 501.976,-131.751 493.962,-138.681 500.033,-142.166"/>
</g>
<!-- Node23&#45;&gt;Node13 -->
<g id="edge41" class="edge"><title>Node23&#45;&gt;Node13</title>
<path fill="none" stroke="midnightblue" d="M513.553,-168.444C554.811,-159.043 621.144,-143.929 665.866,-133.739"/>
<polygon fill="midnightblue" stroke="midnightblue" points="666.65,-137.151 675.622,-131.516 665.095,-130.326 666.65,-137.151"/>
</g>
<!-- Node24&#45;&gt;Node25 -->
<g id="edge43" class="edge"><title>Node24&#45;&gt;Node25</title>
<path fill="none" stroke="midnightblue" d="M192.041,-229.975C208.051,-220.255 234.45,-204.227 253.374,-192.737"/>
<polygon fill="midnightblue" stroke="midnightblue" points="255.254,-195.691 261.985,-187.509 251.621,-189.707 255.254,-195.691"/>
</g>
<!-- Node26 -->
<g id="node27" class="node"><title>Node26</title>
<g id="a_node27"><a xlink:href="../../db/d44/LinkedList_8h.html" target="_top" xlink:title=" ">
<polygon fill="white" stroke="black" points="124,-112.5 124,-131.5 230,-131.5 230,-112.5 124,-112.5"/>
<text text-anchor="middle" x="177" y="-119.5" font-family="Helvetica,sans-Serif" font-size="10.00">Helpers/LinkedList.h</text>
</a>
</g>
</g>
<!-- Node24&#45;&gt;Node26 -->
<g id="edge46" class="edge"><title>Node24&#45;&gt;Node26</title>
<path fill="none" stroke="midnightblue" d="M177.925,-229.819C177.764,-211.257 177.384,-167.339 177.164,-141.973"/>
<polygon fill="midnightblue" stroke="midnightblue" points="180.663,-141.751 177.076,-131.782 173.663,-141.812 180.663,-141.751"/>
</g>
<!-- Node25&#45;&gt;Node26 -->
<g id="edge44" class="edge"><title>Node25&#45;&gt;Node26</title>
<path fill="none" stroke="midnightblue" d="M260.094,-168.324C244.362,-159.743 220.058,-146.486 201.791,-136.522"/>
<polygon fill="midnightblue" stroke="midnightblue" points="203.322,-133.37 192.867,-131.655 199.97,-139.516 203.322,-133.37"/>
</g>
<!-- Node27 -->
<g id="node28" class="node"><title>Node27</title>
<g id="a_node28"><a xlink:title=" ">
<polygon fill="white" stroke="#bfbfbf" points="250.5,-112.5 250.5,-131.5 295.5,-131.5 295.5,-112.5 250.5,-112.5"/>
<text text-anchor="middle" x="273" y="-119.5" font-family="Helvetica,sans-Serif" font-size="10.00">Print.h</text>
</a>
</g>
</g>
<!-- Node25&#45;&gt;Node27 -->
<g id="edge45" class="edge"><title>Node25&#45;&gt;Node27</title>
<path fill="none" stroke="midnightblue" d="M275.505,-168.083C275.111,-161.006 274.548,-150.861 274.055,-141.986"/>
<polygon fill="midnightblue" stroke="midnightblue" points="277.536,-141.542 273.486,-131.751 270.546,-141.93 277.536,-141.542"/>
</g>
<!-- Node28&#45;&gt;Node16 -->
<g id="edge49" class="edge"><title>Node28&#45;&gt;Node16</title>
<path fill="none" stroke="midnightblue" d="M88.9637,-168.253C91.0224,-154.054 97.2181,-126.156 115,-112 149.364,-84.6438 276.157,-73.2177 341.497,-69.0635"/>
<polygon fill="midnightblue" stroke="midnightblue" points="342.043,-72.5369 351.811,-68.4358 341.617,-65.5498 342.043,-72.5369"/>
</g>
<!-- Node29&#45;&gt;Node16 -->
<g id="edge52" class="edge"><title>Node29&#45;&gt;Node16</title>
<path fill="none" stroke="midnightblue" d="M184.479,-366.013C104.138,-354.742 0,-324.023 0,-240.5 0,-240.5 0,-240.5 0,-177 0,-106.421 244.386,-78.3372 341.703,-69.9518"/>
<polygon fill="midnightblue" stroke="midnightblue" points="342.063,-73.434 351.736,-69.1126 341.479,-66.4584 342.063,-73.434"/>
</g>
<!-- Node29&#45;&gt;Node21 -->
<g id="edge51" class="edge"><title>Node29&#45;&gt;Node21</title>
<path fill="none" stroke="midnightblue" d="M276,-363.734C276,-355.541 276,-342.923 276,-331.714"/>
<polygon fill="midnightblue" stroke="midnightblue" points="279.5,-331.589 276,-321.589 272.5,-331.589 279.5,-331.589"/>
</g>
</g>
</svg>
