<?xml version="1.0" encoding="UTF-8" standalone="no"?>
<!DOCTYPE svg PUBLIC "-//W3C//DTD SVG 1.1//EN"
 "http://www.w3.org/Graphics/SVG/1.1/DTD/svg11.dtd">
<!-- Generated by graphviz version 2.38.0 (20140413.2041)
 -->
<!-- Title: CCIncrementDecrementButtons.hpp Pages: 1 -->
<svg width="1032pt" height="755pt"
 viewBox="0.00 0.00 1032.00 755.00" xmlns="http://www.w3.org/2000/svg" xmlns:xlink="http://www.w3.org/1999/xlink">
<g id="graph0" class="graph" transform="scale(1 1) rotate(0) translate(4 751)">
<title>CCIncrementDecrementButtons.hpp</title>
<polygon fill="white" stroke="none" points="-4,4 -4,-751 1028,-751 1028,4 -4,4"/>
<!-- Node0 -->
<g id="node1" class="node"><title>Node0</title>
<g id="a_node1"><a xlink:title=" ">
<polygon fill="#bfbfbf" stroke="black" points="439,-727.5 439,-746.5 615,-746.5 615,-727.5 439,-727.5"/>
<text text-anchor="middle" x="527" y="-734.5" font-family="Helvetica,sans-Serif" font-size="10.00">CCIncrementDecrementButtons.hpp</text>
</a>
</g>
</g>
<!-- Node1 -->
<g id="node2" class="node"><title>Node1</title>
<g id="a_node2"><a xlink:href="../../db/d20/Abstract_2MIDIIncrementDecrementButtons_8hpp.html" target="_top" xlink:title=" ">
<polygon fill="white" stroke="black" points="249.5,-660.5 249.5,-690.5 434.5,-690.5 434.5,-660.5 249.5,-660.5"/>
<text text-anchor="start" x="257.5" y="-678.5" font-family="Helvetica,sans-Serif" font-size="10.00">MIDI_Outputs/Abstract</text>
<text text-anchor="middle" x="342" y="-667.5" font-family="Helvetica,sans-Serif" font-size="10.00">/MIDIIncrementDecrementButtons.hpp</text>
</a>
</g>
</g>
<!-- Node0&#45;&gt;Node1 -->
<g id="edge1" class="edge"><title>Node0&#45;&gt;Node1</title>
<path fill="none" stroke="midnightblue" d="M500.494,-727.475C473.214,-718.701 429.954,-704.788 395.517,-693.712"/>
<polygon fill="midnightblue" stroke="midnightblue" points="396.192,-690.253 385.601,-690.523 394.049,-696.917 396.192,-690.253"/>
</g>
<!-- Node25 -->
<g id="node26" class="node"><title>Node25</title>
<g id="a_node26"><a xlink:href="../../d1/daa/DigitalNoteSender_8hpp.html" target="_top" xlink:title=" ">
<polygon fill="white" stroke="black" points="461.5,-593.5 461.5,-623.5 592.5,-623.5 592.5,-593.5 461.5,-593.5"/>
<text text-anchor="start" x="469.5" y="-611.5" font-family="Helvetica,sans-Serif" font-size="10.00">MIDI_Senders/DigitalNote</text>
<text text-anchor="middle" x="527" y="-600.5" font-family="Helvetica,sans-Serif" font-size="10.00">Sender.hpp</text>
</a>
</g>
</g>
<!-- Node0&#45;&gt;Node25 -->
<g id="edge58" class="edge"><title>Node0&#45;&gt;Node25</title>
<path fill="none" stroke="midnightblue" d="M527,-727.305C527,-708.298 527,-662.47 527,-633.9"/>
<polygon fill="midnightblue" stroke="midnightblue" points="530.5,-633.888 527,-623.888 523.5,-633.888 530.5,-633.888"/>
</g>
<!-- Node33 -->
<g id="node34" class="node"><title>Node33</title>
<g id="a_node34"><a xlink:href="../../d9/d24/RelativeCCSender_8hpp.html" target="_top" xlink:title=" ">
<polygon fill="white" stroke="black" points="635.5,-599 635.5,-618 818.5,-618 818.5,-599 635.5,-599"/>
<text text-anchor="middle" x="727" y="-606" font-family="Helvetica,sans-Serif" font-size="10.00">MIDI_Senders/RelativeCCSender.hpp</text>
</a>
</g>
</g>
<!-- Node0&#45;&gt;Node33 -->
<g id="edge59" class="edge"><title>Node0&#45;&gt;Node33</title>
<path fill="none" stroke="midnightblue" d="M540.747,-727.305C574.797,-705.769 663.293,-649.795 704.843,-623.514"/>
<polygon fill="midnightblue" stroke="midnightblue" points="706.841,-626.392 713.421,-618.088 703.099,-620.476 706.841,-626.392"/>
</g>
<!-- Node2 -->
<g id="node3" class="node"><title>Node2</title>
<g id="a_node3"><a xlink:href="../../d0/d4e/Def_8hpp.html" target="_top" xlink:title=" ">
<polygon fill="white" stroke="black" points="255,-112.5 255,-131.5 325,-131.5 325,-112.5 255,-112.5"/>
<text text-anchor="middle" x="290" y="-119.5" font-family="Helvetica,sans-Serif" font-size="10.00">Def/Def.hpp</text>
</a>
</g>
</g>
<!-- Node1&#45;&gt;Node2 -->
<g id="edge2" class="edge"><title>Node1&#45;&gt;Node2</title>
<path fill="none" stroke="midnightblue" d="M263.538,-660.466C162.568,-640.13 0,-598.666 0,-542.5 0,-542.5 0,-542.5 0,-233 0,-196.004 20.2962,-187.067 52,-168 111.717,-132.085 193.849,-123.811 244.354,-122.442"/>
<polygon fill="midnightblue" stroke="midnightblue" points="244.7,-125.936 254.632,-122.247 244.567,-118.937 244.7,-125.936"/>
</g>
<!-- Node8 -->
<g id="node9" class="node"><title>Node8</title>
<g id="a_node9"><a xlink:href="../../df/df5/IncrementDecrementButtons_8hpp.html" target="_top" xlink:title=" ">
<polygon fill="white" stroke="black" points="265.5,-593.5 265.5,-623.5 418.5,-623.5 418.5,-593.5 265.5,-593.5"/>
<text text-anchor="start" x="273.5" y="-611.5" font-family="Helvetica,sans-Serif" font-size="10.00">Hardware/IncrementDecrement</text>
<text text-anchor="middle" x="342" y="-600.5" font-family="Helvetica,sans-Serif" font-size="10.00">Buttons.hpp</text>
</a>
</g>
</g>
<!-- Node1&#45;&gt;Node8 -->
<g id="edge10" class="edge"><title>Node1&#45;&gt;Node8</title>
<path fill="none" stroke="midnightblue" d="M342,-660.396C342,-652.645 342,-642.812 342,-633.86"/>
<polygon fill="midnightblue" stroke="midnightblue" points="345.5,-633.576 342,-623.577 338.5,-633.577 345.5,-633.576"/>
</g>
<!-- Node21 -->
<g id="node22" class="node"><title>Node21</title>
<g id="a_node22"><a xlink:href="../../d1/d41/MIDIOutputElement_8hpp.html" target="_top" xlink:title=" ">
<polygon fill="white" stroke="black" points="122.5,-459.5 122.5,-489.5 247.5,-489.5 247.5,-459.5 122.5,-459.5"/>
<text text-anchor="start" x="130.5" y="-477.5" font-family="Helvetica,sans-Serif" font-size="10.00">MIDI_Outputs/Abstract</text>
<text text-anchor="middle" x="185" y="-466.5" font-family="Helvetica,sans-Serif" font-size="10.00">/MIDIOutputElement.hpp</text>
</a>
</g>
</g>
<!-- Node1&#45;&gt;Node21 -->
<g id="edge28" class="edge"><title>Node1&#45;&gt;Node21</title>
<path fill="none" stroke="midnightblue" d="M308.147,-660.472C290.822,-651.956 270.406,-639.685 256,-624 222.135,-587.127 201.369,-531.174 191.634,-499.525"/>
<polygon fill="midnightblue" stroke="midnightblue" points="194.946,-498.382 188.752,-489.786 188.233,-500.368 194.946,-498.382"/>
</g>
<!-- Node1&#45;&gt;Node25 -->
<g id="edge39" class="edge"><title>Node1&#45;&gt;Node25</title>
<path fill="none" stroke="midnightblue" d="M382.142,-660.396C410.021,-650.601 447.362,-637.481 477.149,-627.015"/>
<polygon fill="midnightblue" stroke="midnightblue" points="478.662,-630.194 486.936,-623.577 476.341,-623.589 478.662,-630.194"/>
</g>
<!-- Node3 -->
<g id="node4" class="node"><title>Node3</title>
<g id="a_node4"><a xlink:href="../../d7/d42/Channel_8hpp.html" target="_top" xlink:title=" ">
<polygon fill="white" stroke="black" points="383.5,-56.5 383.5,-75.5 454.5,-75.5 454.5,-56.5 383.5,-56.5"/>
<text text-anchor="middle" x="419" y="-63.5" font-family="Helvetica,sans-Serif" font-size="10.00">Channel.hpp</text>
</a>
</g>
</g>
<!-- Node2&#45;&gt;Node3 -->
<g id="edge3" class="edge"><title>Node2&#45;&gt;Node3</title>
<path fill="none" stroke="midnightblue" d="M310.44,-112.444C331.67,-103.557 365.099,-89.5632 389.255,-79.4514"/>
<polygon fill="midnightblue" stroke="midnightblue" points="390.782,-82.6064 398.655,-75.5164 388.079,-76.1493 390.782,-82.6064"/>
</g>
<!-- Node4 -->
<g id="node5" class="node"><title>Node4</title>
<g id="a_node5"><a xlink:title=" ">
<polygon fill="white" stroke="#bfbfbf" points="394.5,-0.5 394.5,-19.5 443.5,-19.5 443.5,-0.5 394.5,-0.5"/>
<text text-anchor="middle" x="419" y="-7.5" font-family="Helvetica,sans-Serif" font-size="10.00">stdint.h</text>
</a>
</g>
</g>
<!-- Node2&#45;&gt;Node4 -->
<g id="edge9" class="edge"><title>Node2&#45;&gt;Node4</title>
<path fill="none" stroke="midnightblue" d="M283.835,-112.103C275.363,-98.671 262.515,-72.9823 275,-56 299.957,-22.0541 350.406,-13.001 384.457,-10.9605"/>
<polygon fill="midnightblue" stroke="midnightblue" points="384.611,-14.4573 394.452,-10.5326 384.311,-7.46367 384.611,-14.4573"/>
</g>
<!-- Node5 -->
<g id="node6" class="node"><title>Node5</title>
<g id="a_node6"><a xlink:href="../../dc/d50/Frequency_8hpp.html" target="_top" xlink:title=" ">
<polygon fill="white" stroke="black" points="284.5,-56.5 284.5,-75.5 365.5,-75.5 365.5,-56.5 284.5,-56.5"/>
<text text-anchor="middle" x="325" y="-63.5" font-family="Helvetica,sans-Serif" font-size="10.00">Frequency.hpp</text>
</a>
</g>
</g>
<!-- Node2&#45;&gt;Node5 -->
<g id="edge5" class="edge"><title>Node2&#45;&gt;Node5</title>
<path fill="none" stroke="midnightblue" d="M295.78,-112.083C300.672,-104.534 307.827,-93.4948 313.833,-84.2298"/>
<polygon fill="midnightblue" stroke="midnightblue" points="316.826,-86.0463 319.328,-75.7511 310.952,-82.239 316.826,-86.0463"/>
</g>
<!-- Node6 -->
<g id="node7" class="node"><title>Node6</title>
<g id="a_node7"><a xlink:href="../../de/d76/Array_8hpp.html" target="_top" xlink:title=" ">
<polygon fill="white" stroke="black" points="696.5,-56.5 696.5,-75.5 791.5,-75.5 791.5,-56.5 696.5,-56.5"/>
<text text-anchor="middle" x="744" y="-63.5" font-family="Helvetica,sans-Serif" font-size="10.00">Helpers/Array.hpp</text>
</a>
</g>
</g>
<!-- Node2&#45;&gt;Node6 -->
<g id="edge6" class="edge"><title>Node2&#45;&gt;Node6</title>
<path fill="none" stroke="midnightblue" d="M325.247,-116.808C403.24,-107.531 591.051,-85.1922 686.392,-73.8521"/>
<polygon fill="midnightblue" stroke="midnightblue" points="686.919,-77.3141 696.436,-72.6574 686.092,-70.3631 686.919,-77.3141"/>
</g>
<!-- Node7 -->
<g id="node8" class="node"><title>Node7</title>
<g id="a_node8"><a xlink:title=" ">
<polygon fill="white" stroke="#bfbfbf" points="756,-0.5 756,-19.5 808,-19.5 808,-0.5 756,-0.5"/>
<text text-anchor="middle" x="782" y="-7.5" font-family="Helvetica,sans-Serif" font-size="10.00">stddef.h</text>
</a>
</g>
</g>
<!-- Node2&#45;&gt;Node7 -->
<g id="edge8" class="edge"><title>Node2&#45;&gt;Node7</title>
<path fill="none" stroke="midnightblue" d="M325.383,-113.089C415.869,-92.8586 654.966,-39.4019 746.059,-19.0357"/>
<polygon fill="midnightblue" stroke="midnightblue" points="746.919,-22.4298 755.914,-16.8322 745.391,-15.5985 746.919,-22.4298"/>
</g>
<!-- Node3&#45;&gt;Node4 -->
<g id="edge4" class="edge"><title>Node3&#45;&gt;Node4</title>
<path fill="none" stroke="midnightblue" d="M419,-56.083C419,-49.0059 419,-38.8611 419,-29.9865"/>
<polygon fill="midnightblue" stroke="midnightblue" points="422.5,-29.751 419,-19.7511 415.5,-29.7511 422.5,-29.751"/>
</g>
<!-- Node6&#45;&gt;Node7 -->
<g id="edge7" class="edge"><title>Node6&#45;&gt;Node7</title>
<path fill="none" stroke="midnightblue" d="M750.275,-56.083C755.642,-48.4554 763.518,-37.2645 770.079,-27.9408"/>
<polygon fill="midnightblue" stroke="midnightblue" points="772.949,-29.9434 775.842,-19.7511 767.225,-25.9149 772.949,-29.9434"/>
</g>
<!-- Node9 -->
<g id="node10" class="node"><title>Node9</title>
<g id="a_node10"><a xlink:href="../../d4/db3/Button_8hpp.html" target="_top" xlink:title=" ">
<polygon fill="white" stroke="black" points="310,-532 310,-551 374,-551 374,-532 310,-532"/>
<text text-anchor="middle" x="342" y="-539" font-family="Helvetica,sans-Serif" font-size="10.00">Button.hpp</text>
</a>
</g>
</g>
<!-- Node8&#45;&gt;Node9 -->
<g id="edge11" class="edge"><title>Node8&#45;&gt;Node9</title>
<path fill="none" stroke="midnightblue" d="M342,-593.396C342,-584.064 342,-571.714 342,-561.517"/>
<polygon fill="midnightblue" stroke="midnightblue" points="345.5,-561.195 342,-551.195 338.5,-561.195 345.5,-561.195"/>
</g>
<!-- Node10 -->
<g id="node11" class="node"><title>Node10</title>
<g id="a_node11"><a xlink:href="../../dd/ddf/ExtendedInputOutput_8hpp.html" target="_top" xlink:title=" ">
<polygon fill="white" stroke="black" points="430,-459.5 430,-489.5 584,-489.5 584,-459.5 430,-459.5"/>
<text text-anchor="start" x="438" y="-477.5" font-family="Helvetica,sans-Serif" font-size="10.00">Hardware/ExtendedInputOutput</text>
<text text-anchor="middle" x="507" y="-466.5" font-family="Helvetica,sans-Serif" font-size="10.00">/ExtendedInputOutput.hpp</text>
</a>
</g>
</g>
<!-- Node9&#45;&gt;Node10 -->
<g id="edge12" class="edge"><title>Node9&#45;&gt;Node10</title>
<path fill="none" stroke="midnightblue" d="M363.911,-531.869C388.777,-522.073 430.009,-505.83 461.842,-493.29"/>
<polygon fill="midnightblue" stroke="midnightblue" points="463.369,-496.45 471.39,-489.528 460.803,-489.937 463.369,-496.45"/>
</g>
<!-- Node14 -->
<g id="node15" class="node"><title>Node14</title>
<g id="a_node15"><a xlink:href="../../d2/dd5/SettingsWrapper_8hpp.html" target="_top" xlink:title=" ">
<polygon fill="white" stroke="black" points="251.5,-224.5 251.5,-243.5 398.5,-243.5 398.5,-224.5 251.5,-224.5"/>
<text text-anchor="middle" x="325" y="-231.5" font-family="Helvetica,sans-Serif" font-size="10.00">Settings/SettingsWrapper.hpp</text>
</a>
</g>
</g>
<!-- Node9&#45;&gt;Node14 -->
<g id="edge27" class="edge"><title>Node9&#45;&gt;Node14</title>
<path fill="none" stroke="midnightblue" d="M341.197,-531.92C339.358,-511.506 335,-458.431 335,-414 335,-414 335,-414 335,-350.5 335,-316.236 330.578,-276.467 327.615,-253.666"/>
<polygon fill="midnightblue" stroke="midnightblue" points="331.072,-253.113 326.267,-243.671 324.135,-254.049 331.072,-253.113"/>
</g>
<!-- Node11 -->
<g id="node12" class="node"><title>Node11</title>
<g id="a_node12"><a xlink:href="../../d4/d57/ExtendedIOElement_8hpp.html" target="_top" xlink:title=" ">
<polygon fill="white" stroke="black" points="535.5,-403.5 535.5,-422.5 658.5,-422.5 658.5,-403.5 535.5,-403.5"/>
<text text-anchor="middle" x="597" y="-410.5" font-family="Helvetica,sans-Serif" font-size="10.00">ExtendedIOElement.hpp</text>
</a>
</g>
</g>
<!-- Node10&#45;&gt;Node11 -->
<g id="edge13" class="edge"><title>Node10&#45;&gt;Node11</title>
<path fill="none" stroke="midnightblue" d="M528.329,-459.399C542.485,-450.04 561.011,-437.792 575.253,-428.377"/>
<polygon fill="midnightblue" stroke="midnightblue" points="577.493,-431.092 583.904,-422.658 573.632,-425.253 577.493,-431.092"/>
</g>
<!-- Node18 -->
<g id="node19" class="node"><title>Node18</title>
<g id="a_node19"><a xlink:title=" ">
<polygon fill="white" stroke="#bfbfbf" points="519,-168.5 519,-187.5 577,-187.5 577,-168.5 519,-168.5"/>
<text text-anchor="middle" x="548" y="-175.5" font-family="Helvetica,sans-Serif" font-size="10.00">Arduino.h</text>
</a>
</g>
</g>
<!-- Node10&#45;&gt;Node18 -->
<g id="edge26" class="edge"><title>Node10&#45;&gt;Node18</title>
<path fill="none" stroke="midnightblue" d="M508.978,-459.296C515.728,-410.811 537.858,-251.846 545.432,-197.449"/>
<polygon fill="midnightblue" stroke="midnightblue" points="548.903,-197.893 546.816,-187.506 541.97,-196.928 548.903,-197.893"/>
</g>
<!-- Node11&#45;&gt;Node2 -->
<g id="edge14" class="edge"><title>Node11&#45;&gt;Node2</title>
<path fill="none" stroke="midnightblue" d="M598.349,-403.219C601.286,-383.309 608,-333.187 608,-291 608,-291 608,-291 608,-233 608,-202.501 609.373,-187.593 586,-168 548.887,-136.889 408.98,-127.227 335.584,-124.272"/>
<polygon fill="midnightblue" stroke="midnightblue" points="335.382,-120.762 325.258,-123.883 335.119,-127.757 335.382,-120.762"/>
</g>
<!-- Node12 -->
<g id="node13" class="node"><title>Node12</title>
<g id="a_node13"><a xlink:href="../../de/dd1/LinkedList_8hpp.html" target="_top" xlink:title=" ">
<polygon fill="white" stroke="black" points="712,-342 712,-361 828,-361 828,-342 712,-342"/>
<text text-anchor="middle" x="770" y="-349" font-family="Helvetica,sans-Serif" font-size="10.00">Helpers/LinkedList.hpp</text>
</a>
</g>
</g>
<!-- Node11&#45;&gt;Node12 -->
<g id="edge15" class="edge"><title>Node11&#45;&gt;Node12</title>
<path fill="none" stroke="midnightblue" d="M621.787,-403.475C651.591,-393.225 701.791,-375.959 735.402,-364.399"/>
<polygon fill="midnightblue" stroke="midnightblue" points="736.941,-367.571 745.259,-361.009 734.665,-360.952 736.941,-367.571"/>
</g>
<!-- Node13 -->
<g id="node14" class="node"><title>Node13</title>
<g id="a_node14"><a xlink:href="../../df/dee/Debug_8hpp.html" target="_top" xlink:title=" ">
<polygon fill="white" stroke="black" points="401.5,-280.5 401.5,-299.5 502.5,-299.5 502.5,-280.5 401.5,-280.5"/>
<text text-anchor="middle" x="452" y="-287.5" font-family="Helvetica,sans-Serif" font-size="10.00">Helpers/Debug.hpp</text>
</a>
</g>
</g>
<!-- Node12&#45;&gt;Node13 -->
<g id="edge16" class="edge"><title>Node12&#45;&gt;Node13</title>
<path fill="none" stroke="midnightblue" d="M724.438,-341.975C667.174,-331.261 568.95,-312.882 507.402,-301.366"/>
<polygon fill="midnightblue" stroke="midnightblue" points="507.95,-297.908 497.477,-299.509 506.663,-304.789 507.95,-297.908"/>
</g>
<!-- Node19 -->
<g id="node20" class="node"><title>Node19</title>
<g id="a_node20"><a xlink:title=" ">
<polygon fill="white" stroke="#bfbfbf" points="912,-224.5 912,-243.5 960,-243.5 960,-224.5 912,-224.5"/>
<text text-anchor="middle" x="936" y="-231.5" font-family="Helvetica,sans-Serif" font-size="10.00">stdlib.h</text>
</a>
</g>
</g>
<!-- Node12&#45;&gt;Node19 -->
<g id="edge24" class="edge"><title>Node12&#45;&gt;Node19</title>
<path fill="none" stroke="midnightblue" d="M823.318,-341.974C868.313,-333.562 927.639,-319.184 942,-300 951.958,-286.698 948.541,-267.31 943.803,-253.172"/>
<polygon fill="midnightblue" stroke="midnightblue" points="946.97,-251.656 940.122,-243.571 940.434,-254.162 946.97,-251.656"/>
</g>
<!-- Node20 -->
<g id="node21" class="node"><title>Node20</title>
<g id="a_node21"><a xlink:title=" ">
<polygon fill="white" stroke="#bfbfbf" points="886.5,-280.5 886.5,-299.5 933.5,-299.5 933.5,-280.5 886.5,-280.5"/>
<text text-anchor="middle" x="910" y="-287.5" font-family="Helvetica,sans-Serif" font-size="10.00">iterator</text>
</a>
</g>
</g>
<!-- Node12&#45;&gt;Node20 -->
<g id="edge25" class="edge"><title>Node12&#45;&gt;Node20</title>
<path fill="none" stroke="midnightblue" d="M790.059,-341.975C813.762,-331.901 853.406,-315.053 880.583,-303.502"/>
<polygon fill="midnightblue" stroke="midnightblue" points="882.144,-306.642 889.979,-299.509 879.406,-300.199 882.144,-306.642"/>
</g>
<!-- Node13&#45;&gt;Node14 -->
<g id="edge17" class="edge"><title>Node13&#45;&gt;Node14</title>
<path fill="none" stroke="midnightblue" d="M426.788,-280.444C404.141,-271.636 371.382,-257.812 349.091,-247.722"/>
<polygon fill="midnightblue" stroke="midnightblue" points="350.497,-244.516 339.949,-243.516 347.571,-250.876 350.497,-244.516"/>
</g>
<!-- Node17 -->
<g id="node18" class="node"><title>Node17</title>
<g id="a_node18"><a xlink:href="../../dd/d80/PrintStream_8hpp.html" target="_top" xlink:title=" ">
<polygon fill="white" stroke="black" points="416.5,-224.5 416.5,-243.5 503.5,-243.5 503.5,-224.5 416.5,-224.5"/>
<text text-anchor="middle" x="460" y="-231.5" font-family="Helvetica,sans-Serif" font-size="10.00">PrintStream.hpp</text>
</a>
</g>
</g>
<!-- Node13&#45;&gt;Node17 -->
<g id="edge22" class="edge"><title>Node13&#45;&gt;Node17</title>
<path fill="none" stroke="midnightblue" d="M453.321,-280.083C454.381,-272.927 455.906,-262.635 457.231,-253.691"/>
<polygon fill="midnightblue" stroke="midnightblue" points="460.7,-254.156 458.704,-243.751 453.776,-253.13 460.7,-254.156"/>
</g>
<!-- Node14&#45;&gt;Node13 -->
<g id="edge21" class="edge"><title>Node14&#45;&gt;Node13</title>
<path fill="none" stroke="midnightblue" d="M350.109,-243.516C372.726,-252.309 405.485,-266.131 427.808,-276.232"/>
<polygon fill="midnightblue" stroke="midnightblue" points="426.418,-279.445 436.965,-280.444 429.342,-273.085 426.418,-279.445"/>
</g>
<!-- Node15 -->
<g id="node16" class="node"><title>Node15</title>
<g id="a_node16"><a xlink:href="../../db/d02/Settings_8hpp.html" target="_top" xlink:title="All user settings and debugging options can be changed here.">
<polygon fill="white" stroke="black" points="254.5,-168.5 254.5,-187.5 325.5,-187.5 325.5,-168.5 254.5,-168.5"/>
<text text-anchor="middle" x="290" y="-175.5" font-family="Helvetica,sans-Serif" font-size="10.00">Settings.hpp</text>
</a>
</g>
</g>
<!-- Node14&#45;&gt;Node15 -->
<g id="edge18" class="edge"><title>Node14&#45;&gt;Node15</title>
<path fill="none" stroke="midnightblue" d="M319.22,-224.083C314.328,-216.534 307.173,-205.495 301.167,-196.23"/>
<polygon fill="midnightblue" stroke="midnightblue" points="304.048,-194.239 295.672,-187.751 298.174,-198.046 304.048,-194.239"/>
</g>
<!-- Node16 -->
<g id="node17" class="node"><title>Node16</title>
<g id="a_node17"><a xlink:href="../../d9/d98/TeensyUSBTypes_8hpp.html" target="_top" xlink:title=" ">
<polygon fill="white" stroke="black" points="344,-168.5 344,-187.5 496,-187.5 496,-168.5 344,-168.5"/>
<text text-anchor="middle" x="420" y="-175.5" font-family="Helvetica,sans-Serif" font-size="10.00">Helpers/TeensyUSBTypes.hpp</text>
</a>
</g>
</g>
<!-- Node14&#45;&gt;Node16 -->
<g id="edge20" class="edge"><title>Node14&#45;&gt;Node16</title>
<path fill="none" stroke="midnightblue" d="M340.263,-224.324C355.221,-215.822 378.255,-202.729 395.727,-192.797"/>
<polygon fill="midnightblue" stroke="midnightblue" points="397.81,-195.639 404.774,-187.655 394.351,-189.553 397.81,-195.639"/>
</g>
<!-- Node15&#45;&gt;Node2 -->
<g id="edge19" class="edge"><title>Node15&#45;&gt;Node2</title>
<path fill="none" stroke="midnightblue" d="M290,-168.083C290,-161.006 290,-150.861 290,-141.986"/>
<polygon fill="midnightblue" stroke="midnightblue" points="293.5,-141.751 290,-131.751 286.5,-141.751 293.5,-141.751"/>
</g>
<!-- Node17&#45;&gt;Node18 -->
<g id="edge23" class="edge"><title>Node17&#45;&gt;Node18</title>
<path fill="none" stroke="midnightblue" d="M474.139,-224.324C487.866,-215.9 508.936,-202.971 525.064,-193.074"/>
<polygon fill="midnightblue" stroke="midnightblue" points="527.204,-195.868 533.896,-187.655 523.543,-189.902 527.204,-195.868"/>
</g>
<!-- Node21&#45;&gt;Node2 -->
<g id="edge29" class="edge"><title>Node21&#45;&gt;Node2</title>
<path fill="none" stroke="midnightblue" d="M143.269,-459.495C99.8093,-441.958 38,-407.371 38,-352.5 38,-352.5 38,-352.5 38,-233 38,-143.822 172.194,-126.22 244.729,-123.22"/>
<polygon fill="midnightblue" stroke="midnightblue" points="245.084,-126.71 254.96,-122.876 244.849,-119.714 245.084,-126.71"/>
</g>
<!-- Node22 -->
<g id="node23" class="node"><title>Node22</title>
<g id="a_node23"><a xlink:href="../../d8/d38/MIDICNChannelAddress_8hpp.html" target="_top" xlink:title=" ">
<polygon fill="white" stroke="black" points="104.5,-280.5 104.5,-299.5 267.5,-299.5 267.5,-280.5 104.5,-280.5"/>
<text text-anchor="middle" x="186" y="-287.5" font-family="Helvetica,sans-Serif" font-size="10.00">Def/MIDICNChannelAddress.hpp</text>
</a>
</g>
</g>
<!-- Node21&#45;&gt;Node22 -->
<g id="edge30" class="edge"><title>Node21&#45;&gt;Node22</title>
<path fill="none" stroke="midnightblue" d="M185.077,-459.483C185.254,-427.097 185.693,-347.037 185.895,-310.159"/>
<polygon fill="midnightblue" stroke="midnightblue" points="189.397,-309.838 185.952,-299.819 182.397,-309.799 189.397,-309.838"/>
</g>
<!-- Node23 -->
<g id="node24" class="node"><title>Node23</title>
<g id="a_node24"><a xlink:href="../../d4/d93/Updatable_8hpp.html" target="_top" xlink:title=" ">
<polygon fill="white" stroke="black" points="363,-403.5 363,-422.5 479,-422.5 479,-403.5 363,-403.5"/>
<text text-anchor="middle" x="421" y="-410.5" font-family="Helvetica,sans-Serif" font-size="10.00">Helpers/Updatable.hpp</text>
</a>
</g>
</g>
<!-- Node21&#45;&gt;Node23 -->
<g id="edge32" class="edge"><title>Node21&#45;&gt;Node23</title>
<path fill="none" stroke="midnightblue" d="M240.63,-459.475C282.411,-448.941 338.833,-434.716 377.379,-424.998"/>
<polygon fill="midnightblue" stroke="midnightblue" points="378.42,-428.345 387.26,-422.506 376.708,-421.557 378.42,-428.345"/>
</g>
<!-- Node22&#45;&gt;Node2 -->
<g id="edge31" class="edge"><title>Node22&#45;&gt;Node2</title>
<path fill="none" stroke="midnightblue" d="M185.299,-280.427C184.015,-259.199 183.45,-203.356 209,-168 219.69,-153.207 236.814,-142.688 252.569,-135.559"/>
<polygon fill="midnightblue" stroke="midnightblue" points="254.263,-138.645 262.132,-131.551 251.557,-132.189 254.263,-138.645"/>
</g>
<!-- Node23&#45;&gt;Node2 -->
<g id="edge33" class="edge"><title>Node23&#45;&gt;Node2</title>
<path fill="none" stroke="midnightblue" d="M362.563,-407.58C313.798,-402.321 243.275,-391.006 186,-367 131.197,-344.03 76,-350.423 76,-291 76,-291 76,-291 76,-233 76,-157.816 181.775,-133.977 244.596,-126.449"/>
<polygon fill="midnightblue" stroke="midnightblue" points="245.107,-129.914 254.662,-125.338 244.338,-122.957 245.107,-129.914"/>
</g>
<!-- Node23&#45;&gt;Node7 -->
<g id="edge38" class="edge"><title>Node23&#45;&gt;Node7</title>
<path fill="none" stroke="midnightblue" d="M452.711,-403.424C504.895,-389.319 612.15,-360.355 703,-336 762.979,-319.921 793.267,-343.069 838,-300 859.774,-279.036 858,-265.225 858,-235 858,-235 858,-235 858,-121 858,-81.2757 824.036,-45.5045 801.518,-26.1536"/>
<polygon fill="midnightblue" stroke="midnightblue" points="803.482,-23.2364 793.543,-19.5672 799.024,-28.6337 803.482,-23.2364"/>
</g>
<!-- Node23&#45;&gt;Node12 -->
<g id="edge36" class="edge"><title>Node23&#45;&gt;Node12</title>
<path fill="none" stroke="midnightblue" d="M471.003,-403.475C534.109,-392.716 642.539,-374.23 710.031,-362.724"/>
<polygon fill="midnightblue" stroke="midnightblue" points="710.82,-366.14 720.09,-361.009 709.644,-359.24 710.82,-366.14"/>
</g>
<!-- Node23&#45;&gt;Node14 -->
<g id="edge37" class="edge"><title>Node23&#45;&gt;Node14</title>
<path fill="none" stroke="midnightblue" d="M415.661,-403.468C410.093,-394.486 401.191,-379.889 394,-367 372.791,-328.983 369.243,-318.54 349,-280 344.258,-270.972 338.925,-260.959 334.493,-252.675"/>
<polygon fill="midnightblue" stroke="midnightblue" points="337.443,-250.77 329.633,-243.61 331.273,-254.077 337.443,-250.77"/>
</g>
<!-- Node24 -->
<g id="node25" class="node"><title>Node24</title>
<g id="a_node25"><a xlink:href="../../d1/d93/Error_8hpp.html" target="_top" xlink:title=" ">
<polygon fill="white" stroke="black" points="403.5,-342 403.5,-361 496.5,-361 496.5,-342 403.5,-342"/>
<text text-anchor="middle" x="450" y="-349" font-family="Helvetica,sans-Serif" font-size="10.00">Helpers/Error.hpp</text>
</a>
</g>
</g>
<!-- Node23&#45;&gt;Node24 -->
<g id="edge34" class="edge"><title>Node23&#45;&gt;Node24</title>
<path fill="none" stroke="midnightblue" d="M425.155,-403.475C429.376,-394.815 436.037,-381.149 441.4,-370.145"/>
<polygon fill="midnightblue" stroke="midnightblue" points="444.618,-371.532 445.853,-361.009 438.325,-368.465 444.618,-371.532"/>
</g>
<!-- Node24&#45;&gt;Node13 -->
<g id="edge35" class="edge"><title>Node24&#45;&gt;Node13</title>
<path fill="none" stroke="midnightblue" d="M450.287,-341.975C450.569,-333.58 451.009,-320.481 451.373,-309.663"/>
<polygon fill="midnightblue" stroke="midnightblue" points="454.876,-309.621 451.714,-299.509 447.88,-309.386 454.876,-309.621"/>
</g>
<!-- Node26 -->
<g id="node27" class="node"><title>Node26</title>
<g id="a_node27"><a xlink:href="../../d3/d37/Control__Surface__Class_8hpp.html" target="_top" xlink:title=" ">
<polygon fill="white" stroke="black" points="666,-526.5 666,-556.5 788,-556.5 788,-526.5 666,-526.5"/>
<text text-anchor="start" x="674" y="-544.5" font-family="Helvetica,sans-Serif" font-size="10.00">Control_Surface/Control</text>
<text text-anchor="middle" x="727" y="-533.5" font-family="Helvetica,sans-Serif" font-size="10.00">_Surface_Class.hpp</text>
</a>
</g>
</g>
<!-- Node25&#45;&gt;Node26 -->
<g id="edge40" class="edge"><title>Node25&#45;&gt;Node26</title>
<path fill="none" stroke="midnightblue" d="M570.397,-593.396C600.799,-583.515 641.608,-570.252 673.945,-559.743"/>
<polygon fill="midnightblue" stroke="midnightblue" points="675.259,-562.996 683.688,-556.577 673.096,-556.339 675.259,-562.996"/>
</g>
<!-- Node27 -->
<g id="node28" class="node"><title>Node27</title>
<g id="a_node28"><a xlink:href="../../d6/d04/MIDI__Interface_8hpp.html" target="_top" xlink:title=" ">
<polygon fill="white" stroke="black" points="195,-336.5 195,-366.5 307,-366.5 307,-336.5 195,-336.5"/>
<text text-anchor="start" x="203" y="-354.5" font-family="Helvetica,sans-Serif" font-size="10.00">MIDI_Interfaces/MIDI</text>
<text text-anchor="middle" x="251" y="-343.5" font-family="Helvetica,sans-Serif" font-size="10.00">_Interface.hpp</text>
</a>
</g>
</g>
<!-- Node26&#45;&gt;Node27 -->
<g id="edge41" class="edge"><title>Node26&#45;&gt;Node27</title>
<path fill="none" stroke="midnightblue" d="M665.716,-539.519C601.98,-536.45 500.581,-525.713 421,-490 358.689,-462.037 299.993,-405.461 270.609,-374.304"/>
<polygon fill="midnightblue" stroke="midnightblue" points="272.822,-371.544 263.452,-366.599 267.693,-376.308 272.822,-371.544"/>
</g>
<!-- Node29 -->
<g id="node30" class="node"><title>Node29</title>
<g id="a_node30"><a xlink:href="../../d6/dd2/DisplayElement_8hpp.html" target="_top" xlink:title=" ">
<polygon fill="white" stroke="black" points="755,-465 755,-484 895,-484 895,-465 755,-465"/>
<text text-anchor="middle" x="825" y="-472" font-family="Helvetica,sans-Serif" font-size="10.00">Display/DisplayElement.hpp</text>
</a>
</g>
</g>
<!-- Node26&#45;&gt;Node29 -->
<g id="edge49" class="edge"><title>Node26&#45;&gt;Node29</title>
<path fill="none" stroke="midnightblue" d="M748.265,-526.396C764.699,-515.496 787.34,-500.479 803.766,-489.584"/>
<polygon fill="midnightblue" stroke="midnightblue" points="805.775,-492.451 812.174,-484.007 801.906,-486.618 805.775,-492.451"/>
</g>
<!-- Node30 -->
<g id="node31" class="node"><title>Node30</title>
<g id="a_node31"><a xlink:href="../../dc/d77/DisplayInterface_8hpp.html" target="_top" xlink:title=" ">
<polygon fill="white" stroke="black" points="852.5,-403.5 852.5,-422.5 995.5,-422.5 995.5,-403.5 852.5,-403.5"/>
<text text-anchor="middle" x="924" y="-410.5" font-family="Helvetica,sans-Serif" font-size="10.00">Display/DisplayInterface.hpp</text>
</a>
</g>
</g>
<!-- Node26&#45;&gt;Node30 -->
<g id="edge55" class="edge"><title>Node26&#45;&gt;Node30</title>
<path fill="none" stroke="midnightblue" d="M788.015,-537.973C826.24,-533.175 873.811,-520.817 904,-490 918.817,-474.875 923.019,-450.159 924.031,-433.038"/>
<polygon fill="midnightblue" stroke="midnightblue" points="927.542,-432.701 924.314,-422.61 920.544,-432.512 927.542,-432.701"/>
</g>
<!-- Node32 -->
<g id="node33" class="node"><title>Node32</title>
<g id="a_node33"><a xlink:href="../../d7/d74/MillisTimer_8hpp.html" target="_top" xlink:title=" ">
<polygon fill="white" stroke="black" points="676.5,-403.5 676.5,-422.5 795.5,-422.5 795.5,-403.5 676.5,-403.5"/>
<text text-anchor="middle" x="736" y="-410.5" font-family="Helvetica,sans-Serif" font-size="10.00">Helpers/MillisTimer.hpp</text>
</a>
</g>
</g>
<!-- Node26&#45;&gt;Node32 -->
<g id="edge56" class="edge"><title>Node26&#45;&gt;Node32</title>
<path fill="none" stroke="midnightblue" d="M727.998,-526.479C729.617,-503.719 732.82,-458.702 734.644,-433.058"/>
<polygon fill="midnightblue" stroke="midnightblue" points="738.156,-433.012 735.375,-422.789 731.174,-432.515 738.156,-433.012"/>
</g>
<!-- Node27&#45;&gt;Node2 -->
<g id="edge42" class="edge"><title>Node27&#45;&gt;Node2</title>
<path fill="none" stroke="midnightblue" d="M262.149,-336.339C271.992,-322.02 283.676,-299.308 276,-280 267.869,-259.549 250.131,-264.451 242,-244 236.666,-230.584 234.52,-191.502 245,-168 250.237,-156.257 260.011,-145.891 269.116,-138.077"/>
<polygon fill="midnightblue" stroke="midnightblue" points="271.522,-140.635 277.14,-131.652 267.147,-135.17 271.522,-140.635"/>
</g>
<!-- Node27&#45;&gt;Node22 -->
<g id="edge43" class="edge"><title>Node27&#45;&gt;Node22</title>
<path fill="none" stroke="midnightblue" d="M235.596,-336.399C225.761,-327.397 213.007,-315.721 202.895,-306.465"/>
<polygon fill="midnightblue" stroke="midnightblue" points="205.198,-303.828 195.458,-299.658 200.471,-308.992 205.198,-303.828"/>
</g>
<!-- Node28 -->
<g id="node29" class="node"><title>Node28</title>
<g id="a_node29"><a xlink:href="../../d7/d2d/MIDI__Parser_8hpp.html" target="_top" xlink:title=" ">
<polygon fill="white" stroke="black" points="674.5,-280.5 674.5,-299.5 829.5,-299.5 829.5,-280.5 674.5,-280.5"/>
<text text-anchor="middle" x="752" y="-287.5" font-family="Helvetica,sans-Serif" font-size="10.00">MIDI_Parsers/MIDI_Parser.hpp</text>
</a>
</g>
</g>
<!-- Node27&#45;&gt;Node28 -->
<g id="edge44" class="edge"><title>Node27&#45;&gt;Node28</title>
<path fill="none" stroke="midnightblue" d="M307.013,-343.848C395.479,-333.341 567.978,-312.855 670.274,-300.706"/>
<polygon fill="midnightblue" stroke="midnightblue" points="670.737,-304.176 680.254,-299.521 669.911,-297.225 670.737,-304.176"/>
</g>
<!-- Node28&#45;&gt;Node4 -->
<g id="edge46" class="edge"><title>Node28&#45;&gt;Node4</title>
<path fill="none" stroke="midnightblue" d="M746.847,-280.279C734.094,-259.189 699.231,-204.479 660,-168 590.694,-103.557 491.921,-48.4842 445.295,-24.2266"/>
<polygon fill="midnightblue" stroke="midnightblue" points="446.659,-20.9923 436.166,-19.5257 443.454,-27.2156 446.659,-20.9923"/>
</g>
<!-- Node28&#45;&gt;Node7 -->
<g id="edge45" class="edge"><title>Node28&#45;&gt;Node7</title>
<path fill="none" stroke="midnightblue" d="M762.034,-280.433C780.949,-263.268 820,-222.556 820,-179 820,-179 820,-179 820,-121 820,-86.8131 803.4,-49.7639 792.143,-28.5707"/>
<polygon fill="midnightblue" stroke="midnightblue" points="795.181,-26.832 787.284,-19.769 789.053,-30.2151 795.181,-26.832"/>
</g>
<!-- Node28&#45;&gt;Node14 -->
<g id="edge48" class="edge"><title>Node28&#45;&gt;Node14</title>
<path fill="none" stroke="midnightblue" d="M684.341,-280.444C607.665,-270.747 482.918,-254.971 402.421,-244.791"/>
<polygon fill="midnightblue" stroke="midnightblue" points="402.703,-241.299 392.343,-243.516 401.825,-248.244 402.703,-241.299"/>
</g>
<!-- Node28&#45;&gt;Node19 -->
<g id="edge47" class="edge"><title>Node28&#45;&gt;Node19</title>
<path fill="none" stroke="midnightblue" d="M781.155,-280.444C814.081,-270.78 867.579,-255.08 902.277,-244.897"/>
<polygon fill="midnightblue" stroke="midnightblue" points="903.355,-248.228 911.965,-242.054 901.384,-241.511 903.355,-248.228"/>
</g>
<!-- Node29&#45;&gt;Node12 -->
<g id="edge54" class="edge"><title>Node29&#45;&gt;Node12</title>
<path fill="none" stroke="midnightblue" d="M823.331,-464.95C820.491,-451.374 814.031,-424.25 804,-403 798.393,-391.121 790.217,-378.874 783.287,-369.416"/>
<polygon fill="midnightblue" stroke="midnightblue" points="785.975,-367.168 777.15,-361.305 780.393,-371.392 785.975,-367.168"/>
</g>
<!-- Node29&#45;&gt;Node30 -->
<g id="edge50" class="edge"><title>Node29&#45;&gt;Node30</title>
<path fill="none" stroke="midnightblue" d="M839.184,-464.975C855.358,-455.255 882.026,-439.227 901.143,-427.737"/>
<polygon fill="midnightblue" stroke="midnightblue" points="903.074,-430.66 909.842,-422.509 899.468,-424.661 903.074,-430.66"/>
</g>
<!-- Node30&#45;&gt;Node2 -->
<g id="edge51" class="edge"><title>Node30&#45;&gt;Node2</title>
<path fill="none" stroke="midnightblue" d="M916.869,-403.344C903.171,-387.335 871.467,-353.17 837,-336 767.093,-301.175 725.337,-349.59 665,-300 615.767,-259.536 659.545,-206.813 609,-168 567.109,-135.832 413.4,-126.636 335.664,-124.024"/>
<polygon fill="midnightblue" stroke="midnightblue" points="335.324,-120.512 325.219,-123.698 335.105,-127.509 335.324,-120.512"/>
</g>
<!-- Node30&#45;&gt;Node12 -->
<g id="edge52" class="edge"><title>Node30&#45;&gt;Node12</title>
<path fill="none" stroke="midnightblue" d="M901.936,-403.475C875.633,-393.313 831.487,-376.256 801.575,-364.7"/>
<polygon fill="midnightblue" stroke="midnightblue" points="802.613,-361.348 792.024,-361.009 800.09,-367.878 802.613,-361.348"/>
</g>
<!-- Node31 -->
<g id="node32" class="node"><title>Node31</title>
<g id="a_node32"><a xlink:title=" ">
<polygon fill="white" stroke="#bfbfbf" points="901.5,-342 901.5,-361 946.5,-361 946.5,-342 901.5,-342"/>
<text text-anchor="middle" x="924" y="-349" font-family="Helvetica,sans-Serif" font-size="10.00">Print.h</text>
</a>
</g>
</g>
<!-- Node30&#45;&gt;Node31 -->
<g id="edge53" class="edge"><title>Node30&#45;&gt;Node31</title>
<path fill="none" stroke="midnightblue" d="M924,-403.475C924,-395.08 924,-381.981 924,-371.163"/>
<polygon fill="midnightblue" stroke="midnightblue" points="927.5,-371.009 924,-361.009 920.5,-371.009 927.5,-371.009"/>
</g>
<!-- Node32&#45;&gt;Node18 -->
<g id="edge57" class="edge"><title>Node32&#45;&gt;Node18</title>
<path fill="none" stroke="midnightblue" d="M727.196,-403.385C708.692,-385.096 664.772,-340.725 632,-300 603.536,-264.629 574.152,-220.122 558.814,-196.163"/>
<polygon fill="midnightblue" stroke="midnightblue" points="561.631,-194.071 553.313,-187.508 555.723,-197.825 561.631,-194.071"/>
</g>
<!-- Node33&#45;&gt;Node18 -->
<g id="edge61" class="edge"><title>Node33&#45;&gt;Node18</title>
<path fill="none" stroke="midnightblue" d="M818.533,-604.071C905.799,-595.312 1024,-566.628 1024,-475.5 1024,-475.5 1024,-475.5 1024,-289 1024,-251.157 1002.43,-241.727 969,-224 903.407,-189.223 679.201,-181.31 587.536,-179.52"/>
<polygon fill="midnightblue" stroke="midnightblue" points="587.351,-176.016 577.289,-179.335 587.224,-183.015 587.351,-176.016"/>
</g>
<!-- Node33&#45;&gt;Node26 -->
<g id="edge60" class="edge"><title>Node33&#45;&gt;Node26</title>
<path fill="none" stroke="midnightblue" d="M727,-598.734C727,-590.541 727,-577.923 727,-566.714"/>
<polygon fill="midnightblue" stroke="midnightblue" points="730.5,-566.589 727,-556.589 723.5,-566.589 730.5,-566.589"/>
</g>
</g>
</svg>
