<?xml version="1.0" encoding="UTF-8" standalone="no"?>
<!DOCTYPE svg PUBLIC "-//W3C//DTD SVG 1.1//EN"
 "http://www.w3.org/Graphics/SVG/1.1/DTD/svg11.dtd">
<!-- Generated by graphviz version 2.38.0 (20140413.2041)
 -->
<!-- Title: MCU::VULEDs_Base&lt; N &gt; Pages: 1 -->
<svg width="455pt" height="779pt"
 viewBox="0.00 0.00 454.50 779.00" xmlns="http://www.w3.org/2000/svg" xmlns:xlink="http://www.w3.org/1999/xlink">
<g id="graph0" class="graph" transform="scale(1 1) rotate(0) translate(4 775)">
<title>MCU::VULEDs_Base&lt; N &gt;</title>
<polygon fill="white" stroke="none" points="-4,4 -4,-775 450.5,-775 450.5,4 -4,4"/>
<!-- Node8 -->
<g id="node1" class="node"><title>Node8</title>
<g id="a_node1"><a xlink:title=" ">
<polygon fill="#bfbfbf" stroke="black" points="308.5,-0.5 308.5,-90.5 446.5,-90.5 446.5,-0.5 308.5,-0.5"/>
<text text-anchor="middle" x="377.5" y="-78.5" font-family="Helvetica,sans-Serif" font-size="10.00">MCU::VULEDs_Base&lt; N &gt;</text>
<polyline fill="none" stroke="black" points="308.5,-71.5 446.5,-71.5 "/>
<text text-anchor="start" x="316.5" y="-59.5" font-family="Helvetica,sans-Serif" font-size="10.00">&#45; leds</text>
<text text-anchor="start" x="316.5" y="-48.5" font-family="Helvetica,sans-Serif" font-size="10.00">&#45; FLOOR_CORRECTION</text>
<polyline fill="none" stroke="black" points="308.5,-41.5 446.5,-41.5 "/>
<text text-anchor="start" x="316.5" y="-29.5" font-family="Helvetica,sans-Serif" font-size="10.00">+ begin()</text>
<text text-anchor="start" x="316.5" y="-18.5" font-family="Helvetica,sans-Serif" font-size="10.00">+ display()</text>
<text text-anchor="start" x="316.5" y="-7.5" font-family="Helvetica,sans-Serif" font-size="10.00"># VULEDs_Base()</text>
</a>
</g>
</g>
<!-- Node9 -->
<g id="node2" class="node"><title>Node9</title>
<g id="a_node2"><a xlink:href="../../d4/d71/classMCU_1_1VU__Base.html" target="_top" xlink:title="A MIDI input element that represents a Mackie Control Universal VU meter. &#160;&#160;This is a base class to b...">
<polygon fill="white" stroke="black" points="318,-145 318,-356 437,-356 437,-145 318,-145"/>
<text text-anchor="middle" x="377.5" y="-344" font-family="Helvetica,sans-Serif" font-size="10.00">MCU::VU_Base</text>
<polyline fill="none" stroke="black" points="318,-337 437,-337 "/>
<text text-anchor="start" x="326" y="-325" font-family="Helvetica,sans-Serif" font-size="10.00">&#45; baseTrack</text>
<text text-anchor="start" x="326" y="-314" font-family="Helvetica,sans-Serif" font-size="10.00">&#45; decayTime</text>
<text text-anchor="start" x="326" y="-303" font-family="Helvetica,sans-Serif" font-size="10.00">&#45; prevDecayTime</text>
<polyline fill="none" stroke="black" points="318,-296 437,-296 "/>
<text text-anchor="start" x="326" y="-284" font-family="Helvetica,sans-Serif" font-size="10.00">+ VU_Base()</text>
<text text-anchor="start" x="326" y="-273" font-family="Helvetica,sans-Serif" font-size="10.00">+ VU_Base()</text>
<text text-anchor="start" x="326" y="-262" font-family="Helvetica,sans-Serif" font-size="10.00">+ getValue()</text>
<text text-anchor="start" x="326" y="-251" font-family="Helvetica,sans-Serif" font-size="10.00">+ getOverload()</text>
<text text-anchor="start" x="326" y="-240" font-family="Helvetica,sans-Serif" font-size="10.00"># getBaseTrack()</text>
<text text-anchor="start" x="326" y="-229" font-family="Helvetica,sans-Serif" font-size="10.00"># setValueHelper()</text>
<text text-anchor="start" x="326" y="-218" font-family="Helvetica,sans-Serif" font-size="10.00"># setOverloadHelper()</text>
<text text-anchor="start" x="326" y="-207" font-family="Helvetica,sans-Serif" font-size="10.00"># clearOverloadHelper()</text>
<text text-anchor="start" x="326" y="-196" font-family="Helvetica,sans-Serif" font-size="10.00"># getValueHelper()</text>
<text text-anchor="start" x="326" y="-185" font-family="Helvetica,sans-Serif" font-size="10.00"># getOverloadHelper()</text>
<text text-anchor="start" x="326" y="-174" font-family="Helvetica,sans-Serif" font-size="10.00">&#45; update()</text>
<text text-anchor="start" x="326" y="-163" font-family="Helvetica,sans-Serif" font-size="10.00">&#45; decayAll()</text>
<text text-anchor="start" x="326" y="-152" font-family="Helvetica,sans-Serif" font-size="10.00">&#45; getRawValue()</text>
</a>
</g>
</g>
<!-- Node9&#45;&gt;Node8 -->
<g id="edge1" class="edge"><title>Node9&#45;&gt;Node8</title>
<path fill="none" stroke="midnightblue" d="M377.5,-134.517C377.5,-119.045 377.5,-103.999 377.5,-90.8512"/>
<polygon fill="none" stroke="midnightblue" points="374,-134.729 377.5,-144.73 381,-134.73 374,-134.729"/>
</g>
<!-- Node10 -->
<g id="node3" class="node"><title>Node10</title>
<g id="a_node3"><a xlink:href="../../d1/df7/classMIDIInputElementChannelPressure.html" target="_top" xlink:title=" ">
<polygon fill="white" stroke="black" points="89.5,-431.5 89.5,-565.5 275.5,-565.5 275.5,-431.5 89.5,-431.5"/>
<text text-anchor="middle" x="182.5" y="-553.5" font-family="Helvetica,sans-Serif" font-size="10.00">MIDIInputElementChannelPressure</text>
<polyline fill="none" stroke="black" points="89.5,-546.5 275.5,-546.5 "/>
<text text-anchor="middle" x="182.5" y="-534.5" font-family="Helvetica,sans-Serif" font-size="10.00"> </text>
<polyline fill="none" stroke="black" points="89.5,-527.5 275.5,-527.5 "/>
<text text-anchor="start" x="97.5" y="-515.5" font-family="Helvetica,sans-Serif" font-size="10.00">+ MIDIInputElementChannelPressure()</text>
<text text-anchor="start" x="97.5" y="-504.5" font-family="Helvetica,sans-Serif" font-size="10.00">+ ~MIDIInputElementChannel</text>
<text text-anchor="start" x="97.5" y="-493.5" font-family="Helvetica,sans-Serif" font-size="10.00">Pressure()</text>
<text text-anchor="start" x="97.5" y="-482.5" font-family="Helvetica,sans-Serif" font-size="10.00">+ beginAll()</text>
<text text-anchor="start" x="97.5" y="-471.5" font-family="Helvetica,sans-Serif" font-size="10.00">+ resetAll()</text>
<text text-anchor="start" x="97.5" y="-460.5" font-family="Helvetica,sans-Serif" font-size="10.00">+ updateAll()</text>
<text text-anchor="start" x="97.5" y="-449.5" font-family="Helvetica,sans-Serif" font-size="10.00">+ updateAllWith()</text>
<text text-anchor="start" x="97.5" y="-438.5" font-family="Helvetica,sans-Serif" font-size="10.00">&#45; moveDown()</text>
</a>
</g>
</g>
<!-- Node10&#45;&gt;Node9 -->
<g id="edge2" class="edge"><title>Node10&#45;&gt;Node9</title>
<path fill="none" stroke="midnightblue" d="M263.633,-423.933C279.373,-407.888 295.116,-390.462 308.5,-373 312.632,-367.609 316.685,-361.944 320.628,-356.129"/>
<polygon fill="none" stroke="midnightblue" points="260.975,-421.643 256.41,-431.204 265.941,-426.576 260.975,-421.643"/>
</g>
<!-- Node12 -->
<g id="node5" class="node"><title>Node12</title>
<g id="a_node5"><a xlink:href="../../d4/d23/classDoublyLinkable.html" target="_top" xlink:title=" ">
<polygon fill="white" stroke="black" points="0,-216.5 0,-284.5 137,-284.5 137,-216.5 0,-216.5"/>
<text text-anchor="start" x="8" y="-272.5" font-family="Helvetica,sans-Serif" font-size="10.00">DoublyLinkable&lt; MIDIInput</text>
<text text-anchor="middle" x="68.5" y="-261.5" font-family="Helvetica,sans-Serif" font-size="10.00">ElementChannelPressure &gt;</text>
<polyline fill="none" stroke="black" points="0,-254.5 137,-254.5 "/>
<text text-anchor="middle" x="68.5" y="-242.5" font-family="Helvetica,sans-Serif" font-size="10.00"> </text>
<polyline fill="none" stroke="black" points="0,-235.5 137,-235.5 "/>
<text text-anchor="start" x="8" y="-223.5" font-family="Helvetica,sans-Serif" font-size="10.00"># ~DoublyLinkable()</text>
</a>
</g>
</g>
<!-- Node10&#45;&gt;Node12 -->
<g id="edge5" class="edge"><title>Node10&#45;&gt;Node12</title>
<path fill="none" stroke="#404040" d="M101.324,-431.377C96.8512,-425.521 92.8325,-419.381 89.5,-413 70.7566,-377.109 66.4118,-330.836 66.2218,-297.027"/>
<polygon fill="none" stroke="#404040" points="66.2243,-296.726 62.2778,-290.691 66.331,-284.727 70.2775,-290.762 66.2243,-296.726"/>
<text text-anchor="middle" x="111" y="-405" font-family="Helvetica,sans-Serif" font-size="10.00"> #next</text>
<text text-anchor="middle" x="111" y="-394" font-family="Helvetica,sans-Serif" font-size="10.00">#previous</text>
</g>
<!-- Node13 -->
<g id="node6" class="node"><title>Node13</title>
<g id="a_node6"><a xlink:href="../../dd/d16/classDoublyLinkedList.html" target="_top" xlink:title=" ">
<polygon fill="white" stroke="black" points="155.5,-128.5 155.5,-372.5 299.5,-372.5 299.5,-128.5 155.5,-128.5"/>
<text text-anchor="start" x="163.5" y="-360.5" font-family="Helvetica,sans-Serif" font-size="10.00">DoublyLinkedList&lt; MIDIInput</text>
<text text-anchor="middle" x="227.5" y="-349.5" font-family="Helvetica,sans-Serif" font-size="10.00">ElementChannelPressure &gt;</text>
<polyline fill="none" stroke="black" points="155.5,-342.5 299.5,-342.5 "/>
<text text-anchor="middle" x="227.5" y="-330.5" font-family="Helvetica,sans-Serif" font-size="10.00"> </text>
<polyline fill="none" stroke="black" points="155.5,-323.5 299.5,-323.5 "/>
<text text-anchor="start" x="163.5" y="-311.5" font-family="Helvetica,sans-Serif" font-size="10.00">+ DoublyLinkedList()</text>
<text text-anchor="start" x="163.5" y="-300.5" font-family="Helvetica,sans-Serif" font-size="10.00">+ append()</text>
<text text-anchor="start" x="163.5" y="-289.5" font-family="Helvetica,sans-Serif" font-size="10.00">+ append()</text>
<text text-anchor="start" x="163.5" y="-278.5" font-family="Helvetica,sans-Serif" font-size="10.00">+ remove()</text>
<text text-anchor="start" x="163.5" y="-267.5" font-family="Helvetica,sans-Serif" font-size="10.00">+ remove()</text>
<text text-anchor="start" x="163.5" y="-256.5" font-family="Helvetica,sans-Serif" font-size="10.00">+ moveDown()</text>
<text text-anchor="start" x="163.5" y="-245.5" font-family="Helvetica,sans-Serif" font-size="10.00">+ couldContain()</text>
<text text-anchor="start" x="163.5" y="-234.5" font-family="Helvetica,sans-Serif" font-size="10.00">+ begin()</text>
<text text-anchor="start" x="163.5" y="-223.5" font-family="Helvetica,sans-Serif" font-size="10.00">+ begin()</text>
<text text-anchor="start" x="163.5" y="-212.5" font-family="Helvetica,sans-Serif" font-size="10.00">+ end()</text>
<text text-anchor="start" x="163.5" y="-201.5" font-family="Helvetica,sans-Serif" font-size="10.00">+ end()</text>
<text text-anchor="start" x="163.5" y="-190.5" font-family="Helvetica,sans-Serif" font-size="10.00">+ rbegin()</text>
<text text-anchor="start" x="163.5" y="-179.5" font-family="Helvetica,sans-Serif" font-size="10.00">+ rbegin()</text>
<text text-anchor="start" x="163.5" y="-168.5" font-family="Helvetica,sans-Serif" font-size="10.00">+ rend()</text>
<text text-anchor="start" x="163.5" y="-157.5" font-family="Helvetica,sans-Serif" font-size="10.00">+ rend()</text>
<text text-anchor="start" x="163.5" y="-146.5" font-family="Helvetica,sans-Serif" font-size="10.00">+ getFirst()</text>
<text text-anchor="start" x="163.5" y="-135.5" font-family="Helvetica,sans-Serif" font-size="10.00">+ getLast()</text>
</a>
</g>
</g>
<!-- Node10&#45;&gt;Node13 -->
<g id="edge7" class="edge"><title>Node10&#45;&gt;Node13</title>
<path fill="none" stroke="#404040" d="M179.919,-431.083C179.749,-424.97 179.604,-418.871 179.5,-413 179.327,-403.224 177.887,-400.644 179.5,-391 179.864,-388.821 180.259,-386.631 180.68,-384.432"/>
<polygon fill="none" stroke="#404040" points="180.697,-384.353 178.028,-377.654 183.185,-372.614 185.854,-379.313 180.697,-384.353"/>
<text text-anchor="middle" x="190.5" y="-405" font-family="Helvetica,sans-Serif" font-size="10.00"> &#45;last</text>
<text text-anchor="middle" x="190.5" y="-394" font-family="Helvetica,sans-Serif" font-size="10.00">&#45;first</text>
</g>
<!-- Node11 -->
<g id="node4" class="node"><title>Node11</title>
<g id="a_node4"><a xlink:href="../../d9/db1/classMIDIInputElement.html" target="_top" xlink:title=" ">
<polygon fill="white" stroke="black" points="124,-603.5 124,-770.5 241,-770.5 241,-603.5 124,-603.5"/>
<text text-anchor="middle" x="182.5" y="-758.5" font-family="Helvetica,sans-Serif" font-size="10.00">MIDIInputElement</text>
<polyline fill="none" stroke="black" points="124,-751.5 241,-751.5 "/>
<text text-anchor="start" x="132" y="-739.5" font-family="Helvetica,sans-Serif" font-size="10.00">&#45; baseChannel</text>
<polyline fill="none" stroke="black" points="124,-732.5 241,-732.5 "/>
<text text-anchor="start" x="132" y="-720.5" font-family="Helvetica,sans-Serif" font-size="10.00">+ ~MIDIInputElement()</text>
<text text-anchor="start" x="132" y="-709.5" font-family="Helvetica,sans-Serif" font-size="10.00">+ begin()</text>
<text text-anchor="start" x="132" y="-698.5" font-family="Helvetica,sans-Serif" font-size="10.00">+ display()</text>
<text text-anchor="start" x="132" y="-687.5" font-family="Helvetica,sans-Serif" font-size="10.00">+ update()</text>
<text text-anchor="start" x="132" y="-676.5" font-family="Helvetica,sans-Serif" font-size="10.00">+ reset()</text>
<text text-anchor="start" x="132" y="-665.5" font-family="Helvetica,sans-Serif" font-size="10.00">+ updateWith()</text>
<text text-anchor="start" x="132" y="-654.5" font-family="Helvetica,sans-Serif" font-size="10.00">+ getBaseChannel()</text>
<text text-anchor="start" x="132" y="-643.5" font-family="Helvetica,sans-Serif" font-size="10.00"># MIDIInputElement()</text>
<text text-anchor="start" x="132" y="-632.5" font-family="Helvetica,sans-Serif" font-size="10.00">&#45; updateImpl()</text>
<text text-anchor="start" x="132" y="-621.5" font-family="Helvetica,sans-Serif" font-size="10.00">&#45; matchChannel()</text>
<text text-anchor="start" x="132" y="-610.5" font-family="Helvetica,sans-Serif" font-size="10.00">&#45; moveDown()</text>
</a>
</g>
</g>
<!-- Node11&#45;&gt;Node10 -->
<g id="edge3" class="edge"><title>Node11&#45;&gt;Node10</title>
<path fill="none" stroke="midnightblue" d="M182.5,-593.252C182.5,-583.896 182.5,-574.534 182.5,-565.541"/>
<polygon fill="none" stroke="midnightblue" points="179,-593.384 182.5,-603.384 186,-593.384 179,-593.384"/>
</g>
<!-- Node12&#45;&gt;Node10 -->
<g id="edge4" class="edge"><title>Node12&#45;&gt;Node10</title>
<path fill="none" stroke="midnightblue" d="M88.1342,-293.868C105.641,-331.647 131.555,-387.567 151.8,-431.253"/>
<polygon fill="none" stroke="midnightblue" points="91.2532,-292.275 83.8729,-284.673 84.902,-295.218 91.2532,-292.275"/>
</g>
<!-- Node13&#45;&gt;Node10 -->
<g id="edge6" class="edge"><title>Node13&#45;&gt;Node10</title>
<path fill="none" stroke="#404040" d="M212.751,-372.608C210.568,-386.276 208.15,-399.967 205.5,-413 205.065,-415.142 204.606,-417.309 204.127,-419.493"/>
<polygon fill="none" stroke="#404040" points="204.107,-419.581 206.652,-426.328 201.403,-431.273 198.858,-424.526 204.107,-419.581"/>
<text text-anchor="middle" x="233.5" y="-399.5" font-family="Helvetica,sans-Serif" font-size="10.00"> &#45;elements</text>
</g>
<!-- Node14 -->
<g id="node7" class="node"><title>Node14</title>
<g id="a_node7"><a xlink:href="../../d2/de9/classIVU.html" target="_top" xlink:title="An abstract interface for VU meters. It declares two methods: getValue and getOverload.">
<polygon fill="white" stroke="black" points="335.5,-464.5 335.5,-532.5 419.5,-532.5 419.5,-464.5 335.5,-464.5"/>
<text text-anchor="middle" x="377.5" y="-520.5" font-family="Helvetica,sans-Serif" font-size="10.00">IVU</text>
<polyline fill="none" stroke="black" points="335.5,-513.5 419.5,-513.5 "/>
<text text-anchor="middle" x="377.5" y="-501.5" font-family="Helvetica,sans-Serif" font-size="10.00"> </text>
<polyline fill="none" stroke="black" points="335.5,-494.5 419.5,-494.5 "/>
<text text-anchor="start" x="343.5" y="-482.5" font-family="Helvetica,sans-Serif" font-size="10.00">+ getValue()</text>
<text text-anchor="start" x="343.5" y="-471.5" font-family="Helvetica,sans-Serif" font-size="10.00">+ getOverload()</text>
</a>
</g>
</g>
<!-- Node14&#45;&gt;Node9 -->
<g id="edge8" class="edge"><title>Node14&#45;&gt;Node9</title>
<path fill="none" stroke="midnightblue" d="M377.5,-453.994C377.5,-426.787 377.5,-390.501 377.5,-356.165"/>
<polygon fill="none" stroke="midnightblue" points="374,-454.323 377.5,-464.323 381,-454.323 374,-454.323"/>
</g>
</g>
</svg>
