<?xml version="1.0" encoding="UTF-8" standalone="no"?>
<!DOCTYPE svg PUBLIC "-//W3C//DTD SVG 1.1//EN"
 "http://www.w3.org/Graphics/SVG/1.1/DTD/svg11.dtd">
<!-- Generated by graphviz version 2.38.0 (20140413.2041)
 -->
<!-- Title: Array::end Pages: 1 -->
<svg width="1435pt" height="449pt"
 viewBox="0.00 0.00 1435.00 448.50" xmlns="http://www.w3.org/2000/svg" xmlns:xlink="http://www.w3.org/1999/xlink">
<g id="graph0" class="graph" transform="scale(1 1) rotate(0) translate(4 444.5)">
<title>Array::end</title>
<polygon fill="white" stroke="none" points="-4,4 -4,-444.5 1431,-444.5 1431,4 -4,4"/>
<!-- Node43 -->
<g id="node1" class="node"><title>Node43</title>
<g id="a_node1"><a xlink:title=" ">
<polygon fill="#bfbfbf" stroke="black" points="1365,-156 1365,-175 1427,-175 1427,-156 1365,-156"/>
<text text-anchor="middle" x="1396" y="-163" font-family="Helvetica,sans-Serif" font-size="10.00">Array::end</text>
</a>
</g>
</g>
<!-- Node44 -->
<g id="node2" class="node"><title>Node44</title>
<g id="a_node2"><a xlink:href="../../de/d76/Array_8hpp.html#ab8a62286cf94935432fb15208c352d31" target="_top" xlink:title=" ">
<polygon fill="white" stroke="black" points="1243.5,-311 1243.5,-330 1288.5,-330 1288.5,-311 1243.5,-311"/>
<text text-anchor="middle" x="1266" y="-318" font-family="Helvetica,sans-Serif" font-size="10.00">isfinite</text>
</a>
</g>
</g>
<!-- Node43&#45;&gt;Node44 -->
<g id="edge1" class="edge"><title>Node43&#45;&gt;Node44</title>
<path fill="none" stroke="midnightblue" d="M1387.3,-184.454C1376.82,-208.598 1356.19,-250.647 1329,-279.5 1316.61,-292.649 1299.23,-303.678 1286.02,-310.974"/>
<polygon fill="midnightblue" stroke="midnightblue" points="1390.63,-185.586 1391.28,-175.012 1384.17,-182.868 1390.63,-185.586"/>
</g>
<!-- Node50 -->
<g id="node8" class="node"><title>Node50</title>
<g id="a_node8"><a xlink:href="../../de/d76/Array_8hpp.html#a8210ee35a21cf8114e4f40920a6e0abf" target="_top" xlink:title=" ">
<polygon fill="white" stroke="black" points="1248.5,-251 1248.5,-270 1283.5,-270 1283.5,-251 1248.5,-251"/>
<text text-anchor="middle" x="1266" y="-258" font-family="Helvetica,sans-Serif" font-size="10.00">sum</text>
</a>
</g>
</g>
<!-- Node43&#45;&gt;Node50 -->
<g id="edge7" class="edge"><title>Node43&#45;&gt;Node50</title>
<path fill="none" stroke="midnightblue" d="M1383.52,-183.84C1371.81,-201.097 1352.12,-226.469 1329,-241.5 1315.13,-250.521 1296.74,-255.447 1283.6,-258.006"/>
<polygon fill="midnightblue" stroke="midnightblue" points="1386.62,-185.488 1389.17,-175.205 1380.77,-181.654 1386.62,-185.488"/>
</g>
<!-- Node73 -->
<g id="node31" class="node"><title>Node73</title>
<g id="a_node31"><a xlink:href="../../d5/db6/ArrayHelpers_8hpp.html#a302eae526b10a18783bc2623ee9fe646" target="_top" xlink:title="Generate an array where the first value is given, and the subsequent values are calculated as the pre...">
<polygon fill="white" stroke="black" points="1224.5,-213 1224.5,-232 1307.5,-232 1307.5,-213 1224.5,-213"/>
<text text-anchor="middle" x="1266" y="-220" font-family="Helvetica,sans-Serif" font-size="10.00">generatedArray</text>
</a>
</g>
</g>
<!-- Node43&#45;&gt;Node73 -->
<g id="edge38" class="edge"><title>Node43&#45;&gt;Node73</title>
<path fill="none" stroke="midnightblue" d="M1371.82,-180.566C1359.46,-188.152 1343.79,-197.076 1329,-203.5 1320.74,-207.089 1311.59,-210.29 1302.91,-212.996"/>
<polygon fill="midnightblue" stroke="midnightblue" points="1373.94,-183.366 1380.56,-175.089 1370.22,-177.435 1373.94,-183.366"/>
</g>
<!-- Node74 -->
<g id="node32" class="node"><title>Node74</title>
<g id="a_node32"><a xlink:href="../../d5/db6/ArrayHelpers_8hpp.html#a021512d0f49f5f3ac08ebac9bb547cfc" target="_top" xlink:title=" ">
<polygon fill="white" stroke="black" points="1236,-175 1236,-194 1296,-194 1296,-175 1236,-175"/>
<text text-anchor="middle" x="1266" y="-182" font-family="Helvetica,sans-Serif" font-size="10.00">filledArray</text>
</a>
</g>
</g>
<!-- Node43&#45;&gt;Node74 -->
<g id="edge39" class="edge"><title>Node43&#45;&gt;Node74</title>
<path fill="none" stroke="midnightblue" d="M1354.85,-171.459C1335.91,-174.271 1313.72,-177.565 1296.38,-180.139"/>
<polygon fill="midnightblue" stroke="midnightblue" points="1355.61,-174.885 1364.99,-169.955 1354.58,-167.961 1355.61,-174.885"/>
</g>
<!-- Node75 -->
<g id="node33" class="node"><title>Node75</title>
<g id="a_node33"><a xlink:href="../../d5/d4c/MatrixHelpers_8hpp.html#a97dc20f082415c3707e56be3bec40f33" target="_top" xlink:title=" ">
<polygon fill="white" stroke="black" points="1231,-137 1231,-156 1301,-156 1301,-137 1231,-137"/>
<text text-anchor="middle" x="1266" y="-144" font-family="Helvetica,sans-Serif" font-size="10.00">filledTMatrix</text>
</a>
</g>
</g>
<!-- Node43&#45;&gt;Node75 -->
<g id="edge40" class="edge"><title>Node43&#45;&gt;Node75</title>
<path fill="none" stroke="midnightblue" d="M1354.71,-159.52C1337.57,-156.975 1317.78,-154.038 1301.35,-151.598"/>
<polygon fill="midnightblue" stroke="midnightblue" points="1354.58,-163.039 1364.99,-161.045 1355.61,-156.115 1354.58,-163.039"/>
</g>
<!-- Node76 -->
<g id="node34" class="node"><title>Node76</title>
<g id="a_node34"><a xlink:href="../../d5/d4c/MatrixHelpers_8hpp.html#a0143e59b28ca53207a87f0a2d0873bf4" target="_top" xlink:title=" ">
<polygon fill="white" stroke="black" points="1234,-99 1234,-118 1298,-118 1298,-99 1234,-99"/>
<text text-anchor="middle" x="1266" y="-106" font-family="Helvetica,sans-Serif" font-size="10.00">filledMatrix</text>
</a>
</g>
</g>
<!-- Node43&#45;&gt;Node76 -->
<g id="edge41" class="edge"><title>Node43&#45;&gt;Node76</title>
<path fill="none" stroke="midnightblue" d="M1371.82,-150.434C1359.46,-142.848 1343.79,-133.924 1329,-127.5 1319.19,-123.238 1308.12,-119.523 1298.08,-116.535"/>
<polygon fill="midnightblue" stroke="midnightblue" points="1370.22,-153.565 1380.56,-155.911 1373.94,-147.634 1370.22,-153.565"/>
</g>
<!-- Node77 -->
<g id="node35" class="node"><title>Node77</title>
<g id="a_node35"><a xlink:href="../../d8/de5/classGaussianNoiseGenerator.html#a2630664deaf65b1ea3804522752b7cc8" target="_top" xlink:title=" ">
<polygon fill="white" stroke="black" points="1203,-49.5 1203,-79.5 1329,-79.5 1329,-49.5 1203,-49.5"/>
<text text-anchor="start" x="1211" y="-67.5" font-family="Helvetica,sans-Serif" font-size="10.00">GaussianNoiseGenerator</text>
<text text-anchor="middle" x="1266" y="-56.5" font-family="Helvetica,sans-Serif" font-size="10.00">::varianceToDistributions</text>
</a>
</g>
</g>
<!-- Node43&#45;&gt;Node77 -->
<g id="edge42" class="edge"><title>Node43&#45;&gt;Node77</title>
<path fill="none" stroke="midnightblue" d="M1383.03,-147.32C1371.08,-130.386 1351.33,-105.424 1329,-89.5 1323.71,-85.7263 1317.77,-82.4073 1311.71,-79.5247"/>
<polygon fill="midnightblue" stroke="midnightblue" points="1380.29,-149.518 1388.83,-155.794 1386.07,-145.565 1380.29,-149.518"/>
</g>
<!-- Node78 -->
<g id="node36" class="node"><title>Node78</title>
<g id="a_node36"><a xlink:href="../../d8/de5/classGaussianNoiseGenerator.html#a881c19f4a71ca873ab1a7495b3d44def" target="_top" xlink:title=" ">
<polygon fill="white" stroke="black" points="1203,-0.5 1203,-30.5 1329,-30.5 1329,-0.5 1203,-0.5"/>
<text text-anchor="start" x="1211" y="-18.5" font-family="Helvetica,sans-Serif" font-size="10.00">GaussianNoiseGenerator</text>
<text text-anchor="middle" x="1266" y="-7.5" font-family="Helvetica,sans-Serif" font-size="10.00">::randomVector</text>
</a>
</g>
</g>
<!-- Node43&#45;&gt;Node78 -->
<g id="edge43" class="edge"><title>Node43&#45;&gt;Node78</title>
<path fill="none" stroke="midnightblue" d="M1389.54,-145.882C1380.98,-118.487 1361.87,-68.8425 1329,-39.5 1325.21,-36.1178 1320.89,-33.1892 1316.34,-30.6582"/>
<polygon fill="midnightblue" stroke="midnightblue" points="1386.3,-147.235 1392.49,-155.827 1393.01,-145.245 1386.3,-147.235"/>
</g>
<!-- Node45 -->
<g id="node3" class="node"><title>Node45</title>
<g id="a_node3"><a xlink:href="../../d2/dd3/DormandPrince_8hpp.html#ac6583aeabdab468904ad8298a512d9dc" target="_top" xlink:title=" ">
<polygon fill="white" stroke="black" points="1063,-313 1063,-332 1145,-332 1145,-313 1063,-313"/>
<text text-anchor="middle" x="1104" y="-320" font-family="Helvetica,sans-Serif" font-size="10.00">dormandPrince</text>
</a>
</g>
</g>
<!-- Node44&#45;&gt;Node45 -->
<g id="edge2" class="edge"><title>Node44&#45;&gt;Node45</title>
<path fill="none" stroke="midnightblue" d="M1233.28,-320.896C1208.03,-321.212 1172.53,-321.656 1145.27,-321.997"/>
<polygon fill="midnightblue" stroke="midnightblue" points="1233.47,-324.395 1243.42,-320.77 1233.38,-317.395 1233.47,-324.395"/>
</g>
<!-- Node46 -->
<g id="node4" class="node"><title>Node46</title>
<g id="a_node4"><a xlink:href="../../d2/dd3/DormandPrince_8hpp.html#a37f9bb8ec9567b8139350c8ea8e7be0c" target="_top" xlink:title=" ">
<polygon fill="white" stroke="black" points="900,-300 900,-319 982,-319 982,-300 900,-300"/>
<text text-anchor="middle" x="941" y="-307" font-family="Helvetica,sans-Serif" font-size="10.00">dormandPrince</text>
</a>
</g>
</g>
<!-- Node45&#45;&gt;Node46 -->
<g id="edge3" class="edge"><title>Node45&#45;&gt;Node46</title>
<path fill="none" stroke="midnightblue" d="M1052.67,-318.436C1029.99,-316.605 1003.59,-314.473 982.257,-312.751"/>
<polygon fill="midnightblue" stroke="midnightblue" points="1052.54,-321.937 1062.79,-319.253 1053.1,-314.96 1052.54,-321.937"/>
</g>
<!-- Node47 -->
<g id="node5" class="node"><title>Node47</title>
<g id="a_node5"><a xlink:href="../../d2/dd3/DormandPrince_8hpp.html#ad6c002fcadfbd7cf56487039c1bf298e" target="_top" xlink:title=" ">
<polygon fill="white" stroke="black" points="877,-405 877,-424 1005,-424 1005,-405 877,-405"/>
<text text-anchor="middle" x="941" y="-412" font-family="Helvetica,sans-Serif" font-size="10.00">dormandPrinceEndResult</text>
</a>
</g>
</g>
<!-- Node45&#45;&gt;Node47 -->
<g id="edge4" class="edge"><title>Node45&#45;&gt;Node47</title>
<path fill="none" stroke="midnightblue" d="M1082.44,-338.137C1063.13,-352.391 1033.06,-373.457 1005,-388.5 993.424,-394.705 980.043,-400.417 968.597,-404.897"/>
<polygon fill="midnightblue" stroke="midnightblue" points="1084.6,-340.898 1090.52,-332.113 1080.41,-335.287 1084.6,-340.898"/>
</g>
<!-- Node49 -->
<g id="node7" class="node"><title>Node49</title>
<g id="a_node7"><a xlink:href="../../d3/d6d/classContinuousModel.html#a130af39e9e8b3e4f94c493f5e0326a1a" target="_top" xlink:title="Simulate the continuous model starting from the given initial state, evaluating the given input funct...">
<polygon fill="white" stroke="black" points="884,-338 884,-379 998,-379 998,-338 884,-338"/>
<text text-anchor="start" x="892" y="-367" font-family="Helvetica,sans-Serif" font-size="10.00">ContinuousModel&lt; Nx</text>
<text text-anchor="start" x="892" y="-356" font-family="Helvetica,sans-Serif" font-size="10.00">_att, Nu_att, Ny_att</text>
<text text-anchor="middle" x="941" y="-345" font-family="Helvetica,sans-Serif" font-size="10.00"> &gt;::simulate</text>
</a>
</g>
</g>
<!-- Node45&#45;&gt;Node49 -->
<g id="edge6" class="edge"><title>Node45&#45;&gt;Node49</title>
<path fill="none" stroke="midnightblue" d="M1052.85,-333.715C1035.48,-337.598 1015.9,-341.976 998.082,-345.96"/>
<polygon fill="midnightblue" stroke="midnightblue" points="1053.79,-337.089 1062.79,-331.491 1052.27,-330.258 1053.79,-337.089"/>
</g>
<!-- Node48 -->
<g id="node6" class="node"><title>Node48</title>
<g id="a_node6"><a xlink:href="../../d3/d6d/classContinuousModel.html#a9a437eeb9d0db951fc9cb563838f0002" target="_top" xlink:title="Simulate the continuous model starting from the given initial state, evaluating the given input funct...">
<polygon fill="white" stroke="black" points="727,-399 727,-440 841,-440 841,-399 727,-399"/>
<text text-anchor="start" x="735" y="-428" font-family="Helvetica,sans-Serif" font-size="10.00">ContinuousModel&lt; Nx</text>
<text text-anchor="start" x="735" y="-417" font-family="Helvetica,sans-Serif" font-size="10.00">_att, Nu_att, Ny_att</text>
<text text-anchor="middle" x="784" y="-406" font-family="Helvetica,sans-Serif" font-size="10.00"> &gt;::simulateEndResult</text>
</a>
</g>
</g>
<!-- Node47&#45;&gt;Node48 -->
<g id="edge5" class="edge"><title>Node47&#45;&gt;Node48</title>
<path fill="none" stroke="midnightblue" d="M866.828,-416.86C858.15,-417.14 849.399,-417.423 841.013,-417.693"/>
<polygon fill="midnightblue" stroke="midnightblue" points="867.074,-420.354 876.956,-416.534 866.848,-413.358 867.074,-420.354"/>
</g>
<!-- Node51 -->
<g id="node9" class="node"><title>Node51</title>
<g id="a_node9"><a xlink:href="../../d9/d52/HouseholderQR_8hpp.html#a16f7547f23439d1eda0fcbde69451ef9" target="_top" xlink:title=" ">
<polygon fill="white" stroke="black" points="1062,-194 1062,-213 1146,-213 1146,-194 1062,-194"/>
<text text-anchor="middle" x="1104" y="-201" font-family="Helvetica,sans-Serif" font-size="10.00">householderQR</text>
</a>
</g>
</g>
<!-- Node50&#45;&gt;Node51 -->
<g id="edge8" class="edge"><title>Node50&#45;&gt;Node51</title>
<path fill="none" stroke="midnightblue" d="M1238.75,-253.642C1227.56,-250.417 1214.47,-246.236 1203,-241.5 1186.28,-234.597 1183.72,-229.403 1167,-222.5 1158.47,-218.978 1149.04,-215.762 1140.17,-213.019"/>
<polygon fill="midnightblue" stroke="midnightblue" points="1237.81,-257.015 1248.39,-256.324 1239.69,-250.271 1237.81,-257.015"/>
</g>
<!-- Node62 -->
<g id="node20" class="node"><title>Node62</title>
<g id="a_node20"><a xlink:href="../../d0/d7e/LeastSquares_8hpp.html#a3e86962f655361a684f770b14c9fe1e2" target="_top" xlink:title=" ">
<polygon fill="white" stroke="black" points="891,-249 891,-268 991,-268 991,-249 891,-249"/>
<text text-anchor="middle" x="941" y="-256" font-family="Helvetica,sans-Serif" font-size="10.00">solveLeastSquares</text>
</a>
</g>
</g>
<!-- Node50&#45;&gt;Node62 -->
<g id="edge36" class="edge"><title>Node50&#45;&gt;Node62</title>
<path fill="none" stroke="midnightblue" d="M1238.2,-260.675C1196.17,-260.909 1112.22,-261.219 1041,-260.5 1024.76,-260.336 1007.01,-260.02 991.094,-259.688"/>
<polygon fill="midnightblue" stroke="midnightblue" points="1238.44,-264.174 1248.42,-260.614 1238.4,-257.174 1238.44,-264.174"/>
</g>
<!-- Node72 -->
<g id="node30" class="node"><title>Node72</title>
<g id="a_node30"><a xlink:href="../../d9/d1c/Matrix_8hpp.html#a341f99d67c7fef72e0432138c6d4fc34" target="_top" xlink:title=" ">
<polygon fill="white" stroke="black" points="1076,-232 1076,-251 1132,-251 1132,-232 1076,-232"/>
<text text-anchor="middle" x="1104" y="-239" font-family="Helvetica,sans-Serif" font-size="10.00">operator*</text>
</a>
</g>
</g>
<!-- Node50&#45;&gt;Node72 -->
<g id="edge37" class="edge"><title>Node50&#45;&gt;Node72</title>
<path fill="none" stroke="midnightblue" d="M1238.5,-257.353C1209.04,-253.855 1161.72,-248.235 1132.04,-244.712"/>
<polygon fill="midnightblue" stroke="midnightblue" points="1238.14,-260.835 1248.48,-258.538 1238.96,-253.883 1238.14,-260.835"/>
</g>
<!-- Node52 -->
<g id="node10" class="node"><title>Node52</title>
<g id="a_node10"><a xlink:href="../../d1/d8b/DLQR_8hpp.html#a1aef813db920b8197c070b00d9e6ec90" target="_top" xlink:title=" ">
<polygon fill="white" stroke="black" points="765,-92 765,-111 803,-111 803,-92 765,-92"/>
<text text-anchor="middle" x="784" y="-99" font-family="Helvetica,sans-Serif" font-size="10.00">qz_Z</text>
</a>
</g>
</g>
<!-- Node51&#45;&gt;Node52 -->
<g id="edge9" class="edge"><title>Node51&#45;&gt;Node52</title>
<path fill="none" stroke="midnightblue" d="M1063.7,-190.895C994.527,-168.707 853.577,-123.496 803.313,-107.374"/>
<polygon fill="midnightblue" stroke="midnightblue" points="1062.78,-194.274 1073.37,-193.996 1064.92,-187.609 1062.78,-194.274"/>
</g>
<!-- Node51&#45;&gt;Node62 -->
<g id="edge19" class="edge"><title>Node51&#45;&gt;Node62</title>
<path fill="none" stroke="midnightblue" d="M1061.04,-216.038C1054.32,-218.138 1047.46,-220.339 1041,-222.5 1015.68,-230.977 987.04,-241.494 967.103,-248.967"/>
<polygon fill="midnightblue" stroke="midnightblue" points="1062.2,-219.344 1070.72,-213.049 1060.13,-212.656 1062.2,-219.344"/>
</g>
<!-- Node53 -->
<g id="node11" class="node"><title>Node53</title>
<g id="a_node11"><a xlink:href="../../d1/d8b/DLQR_8hpp.html#a8b2180fee16d2b9e2d195b6ea4805c99" target="_top" xlink:title=" ">
<polygon fill="white" stroke="black" points="608,-92 608,-111 643,-111 643,-92 608,-92"/>
<text text-anchor="middle" x="625.5" y="-99" font-family="Helvetica,sans-Serif" font-size="10.00">dare</text>
</a>
</g>
</g>
<!-- Node52&#45;&gt;Node53 -->
<g id="edge10" class="edge"><title>Node52&#45;&gt;Node53</title>
<path fill="none" stroke="midnightblue" d="M754.522,-101.5C721.976,-101.5 669.79,-101.5 643.218,-101.5"/>
<polygon fill="midnightblue" stroke="midnightblue" points="754.741,-105 764.741,-101.5 754.741,-98.0001 754.741,-105"/>
</g>
<!-- Node54 -->
<g id="node12" class="node"><title>Node54</title>
<g id="a_node12"><a xlink:href="../../d1/d8b/DLQR_8hpp.html#ab8dcb1e59c9dc36c588cd927e69ebfbf" target="_top" xlink:title=" ">
<polygon fill="white" stroke="black" points="420,-111 420,-130 452,-130 452,-111 420,-111"/>
<text text-anchor="middle" x="436" y="-118" font-family="Helvetica,sans-Serif" font-size="10.00">dlqr</text>
</a>
</g>
</g>
<!-- Node53&#45;&gt;Node54 -->
<g id="edge11" class="edge"><title>Node53&#45;&gt;Node54</title>
<path fill="none" stroke="midnightblue" d="M597.782,-104.207C557.801,-108.259 483.72,-115.766 452.023,-118.978"/>
<polygon fill="midnightblue" stroke="midnightblue" points="598.264,-107.677 607.861,-103.186 597.559,-100.712 598.264,-107.677"/>
</g>
<!-- Node55 -->
<g id="node13" class="node"><title>Node55</title>
<g id="a_node13"><a xlink:href="../../d5/d42/DLQE_8hpp.html#a82d9a71cea020c49aeae6fe03abee824" target="_top" xlink:title=" ">
<polygon fill="white" stroke="black" points="225.5,-168 225.5,-187 260.5,-187 260.5,-168 225.5,-168"/>
<text text-anchor="middle" x="243" y="-175" font-family="Helvetica,sans-Serif" font-size="10.00">dlqe</text>
</a>
</g>
</g>
<!-- Node54&#45;&gt;Node55 -->
<g id="edge12" class="edge"><title>Node54&#45;&gt;Node55</title>
<path fill="none" stroke="midnightblue" d="M410.206,-128.377C385.407,-136.204 346.146,-148.457 312,-158.5 294.478,-163.654 274.317,-169.244 260.525,-173.018"/>
<polygon fill="midnightblue" stroke="midnightblue" points="411.413,-131.666 419.891,-125.313 409.301,-124.992 411.413,-131.666"/>
</g>
<!-- Node58 -->
<g id="node16" class="node"><title>Node58</title>
<g id="a_node16"><a xlink:href="../../d9/db6/DLQI_8hpp.html#a9ccd0fcab076d6ce6d15d1e406cc20bf" target="_top" xlink:title=" ">
<polygon fill="white" stroke="black" points="227,-92 227,-111 259,-111 259,-92 227,-92"/>
<text text-anchor="middle" x="243" y="-99" font-family="Helvetica,sans-Serif" font-size="10.00">dlqi</text>
</a>
</g>
</g>
<!-- Node54&#45;&gt;Node58 -->
<g id="edge15" class="edge"><title>Node54&#45;&gt;Node58</title>
<path fill="none" stroke="midnightblue" d="M409.597,-117.973C369.257,-113.96 291.781,-106.253 259.115,-103.004"/>
<polygon fill="midnightblue" stroke="midnightblue" points="409.395,-121.47 419.693,-118.977 410.088,-114.504 409.395,-121.47"/>
</g>
<!-- Node59 -->
<g id="node17" class="node"><title>Node59</title>
<g id="a_node17"><a xlink:href="../../dd/d92/structDrone.html#a8e91b27bb6fb787f6d4b2f2f55fda8c8" target="_top" xlink:title="Calculate the proportional LQR matrix for the attitude controller, given the weight matrices Q and R.">
<polygon fill="white" stroke="black" points="174,-42.5 174,-72.5 312,-72.5 312,-42.5 174,-42.5"/>
<text text-anchor="start" x="182" y="-60.5" font-family="Helvetica,sans-Serif" font-size="10.00">Drone::getAttitudeController</text>
<text text-anchor="middle" x="243" y="-49.5" font-family="Helvetica,sans-Serif" font-size="10.00">MatrixK</text>
</a>
</g>
</g>
<!-- Node54&#45;&gt;Node59 -->
<g id="edge16" class="edge"><title>Node54&#45;&gt;Node59</title>
<path fill="none" stroke="midnightblue" d="M409.854,-112.206C379.336,-102.14 327.292,-84.9733 289.631,-72.551"/>
<polygon fill="midnightblue" stroke="midnightblue" points="409.099,-115.642 419.693,-115.451 411.292,-108.995 409.099,-115.642"/>
</g>
<!-- Node61 -->
<g id="node19" class="node"><title>Node61</title>
<g id="a_node19"><a xlink:href="../../dd/d92/structDrone.html#a4f8ed99e41302554872271632033bd8f" target="_top" xlink:title=" ">
<polygon fill="white" stroke="black" points="174.5,-130 174.5,-149 311.5,-149 311.5,-130 174.5,-130"/>
<text text-anchor="middle" x="243" y="-137" font-family="Helvetica,sans-Serif" font-size="10.00">Drone::getAltitudeController</text>
</a>
</g>
</g>
<!-- Node54&#45;&gt;Node61 -->
<g id="edge18" class="edge"><title>Node54&#45;&gt;Node61</title>
<path fill="none" stroke="midnightblue" d="M409.633,-123.023C384.736,-125.5 345.667,-129.387 311.725,-132.763"/>
<polygon fill="midnightblue" stroke="midnightblue" points="410.088,-126.496 419.693,-122.023 409.395,-119.53 410.088,-126.496"/>
</g>
<!-- Node56 -->
<g id="node14" class="node"><title>Node56</title>
<g id="a_node14"><a xlink:href="../../dd/d92/structDrone.html#a20d03254bf01a399ecb78987ee88cbbe" target="_top" xlink:title="TODO.">
<polygon fill="white" stroke="black" points="1,-186.5 1,-216.5 137,-216.5 137,-186.5 1,-186.5"/>
<text text-anchor="start" x="9" y="-204.5" font-family="Helvetica,sans-Serif" font-size="10.00">Drone::getAttitudeObserver</text>
<text text-anchor="middle" x="69" y="-193.5" font-family="Helvetica,sans-Serif" font-size="10.00">MatrixL</text>
</a>
</g>
</g>
<!-- Node55&#45;&gt;Node56 -->
<g id="edge13" class="edge"><title>Node55&#45;&gt;Node56</title>
<path fill="none" stroke="midnightblue" d="M215.179,-181.242C194.34,-184.15 164.501,-188.314 137.288,-192.111"/>
<polygon fill="midnightblue" stroke="midnightblue" points="215.774,-184.693 225.195,-179.845 214.807,-177.761 215.774,-184.693"/>
</g>
<!-- Node57 -->
<g id="node15" class="node"><title>Node57</title>
<g id="a_node15"><a xlink:href="../../dd/d92/structDrone.html#a119d5123b513d3bfac04a74ed9298af3" target="_top" xlink:title="TODO.">
<polygon fill="white" stroke="black" points="1.5,-137.5 1.5,-167.5 136.5,-167.5 136.5,-137.5 1.5,-137.5"/>
<text text-anchor="start" x="9.5" y="-155.5" font-family="Helvetica,sans-Serif" font-size="10.00">Drone::getAltitudeObserver</text>
<text text-anchor="middle" x="69" y="-144.5" font-family="Helvetica,sans-Serif" font-size="10.00">MatrixL</text>
</a>
</g>
</g>
<!-- Node55&#45;&gt;Node57 -->
<g id="edge14" class="edge"><title>Node55&#45;&gt;Node57</title>
<path fill="none" stroke="midnightblue" d="M215.134,-173.595C194.195,-170.552 164.19,-166.19 136.89,-162.222"/>
<polygon fill="midnightblue" stroke="midnightblue" points="214.795,-177.083 225.195,-175.057 215.802,-170.155 214.795,-177.083"/>
</g>
<!-- Node60 -->
<g id="node18" class="node"><title>Node60</title>
<g id="a_node18"><a xlink:href="../../dd/d92/structDrone.html#ad012f8821f543efbda9a917fb457187a" target="_top" xlink:title="Get the attitude controller given the LQR weight matrices Q and R.">
<polygon fill="white" stroke="black" points="0,-48 0,-67 138,-67 138,-48 0,-48"/>
<text text-anchor="middle" x="69" y="-55" font-family="Helvetica,sans-Serif" font-size="10.00">Drone::getAttitudeController</text>
</a>
</g>
</g>
<!-- Node59&#45;&gt;Node60 -->
<g id="edge17" class="edge"><title>Node59&#45;&gt;Node60</title>
<path fill="none" stroke="midnightblue" d="M163.363,-57.5C154.975,-57.5 146.492,-57.5 138.238,-57.5"/>
<polygon fill="midnightblue" stroke="midnightblue" points="163.527,-61.0001 173.527,-57.5 163.527,-54.0001 163.527,-61.0001"/>
</g>
<!-- Node62&#45;&gt;Node54 -->
<g id="edge20" class="edge"><title>Node62&#45;&gt;Node54</title>
<path fill="none" stroke="midnightblue" d="M908.467,-245.033C861.738,-225.526 770.999,-189.354 691,-167.5 601.883,-143.155 491.718,-127.557 452.084,-122.392"/>
<polygon fill="midnightblue" stroke="midnightblue" points="907.176,-248.287 917.751,-248.932 909.886,-241.833 907.176,-248.287"/>
</g>
<!-- Node63 -->
<g id="node21" class="node"><title>Node63</title>
<g id="a_node21"><a xlink:href="../../d0/d7e/LeastSquares_8hpp.html#abc455a395ab6414f5312b56e5b479195" target="_top" xlink:title=" ">
<polygon fill="white" stroke="black" points="769.5,-244 769.5,-263 798.5,-263 798.5,-244 769.5,-244"/>
<text text-anchor="middle" x="784" y="-251" font-family="Helvetica,sans-Serif" font-size="10.00">inv</text>
</a>
</g>
</g>
<!-- Node62&#45;&gt;Node63 -->
<g id="edge21" class="edge"><title>Node62&#45;&gt;Node63</title>
<path fill="none" stroke="midnightblue" d="M880.577,-256.583C850.695,-255.619 817.016,-254.533 798.687,-253.942"/>
<polygon fill="midnightblue" stroke="midnightblue" points="880.849,-260.094 890.957,-256.918 881.075,-253.097 880.849,-260.094"/>
</g>
<!-- Node68 -->
<g id="node26" class="node"><title>Node68</title>
<g id="a_node26"><a xlink:href="../../d0/d83/LQR_8hpp.html#a71c319365e890ca038e8b9b026226826" target="_top" xlink:title=" ">
<polygon fill="white" stroke="black" points="421.5,-282 421.5,-301 450.5,-301 450.5,-282 421.5,-282"/>
<text text-anchor="middle" x="436" y="-289" font-family="Helvetica,sans-Serif" font-size="10.00">lqr</text>
</a>
</g>
</g>
<!-- Node62&#45;&gt;Node68 -->
<g id="edge31" class="edge"><title>Node62&#45;&gt;Node68</title>
<path fill="none" stroke="midnightblue" d="M880.628,-266.974C867.575,-268.815 853.823,-270.738 841,-272.5 774.369,-281.653 758.109,-288.046 691,-292.5 632.906,-296.356 618.222,-292.737 560,-292.5 520.28,-292.339 473.347,-291.884 450.651,-291.647"/>
<polygon fill="midnightblue" stroke="midnightblue" points="881.503,-270.385 890.914,-265.52 880.523,-263.454 881.503,-270.385"/>
</g>
<!-- Node70 -->
<g id="node28" class="node"><title>Node70</title>
<g id="a_node28"><a xlink:href="../../d7/ddc/LQRController_8hpp.html#a935faafd0c59cd8abaa3c5bcc53d638c" target="_top" xlink:title=" ">
<polygon fill="white" stroke="black" points="752.5,-361 752.5,-380 815.5,-380 815.5,-361 752.5,-361"/>
<text text-anchor="middle" x="784" y="-368" font-family="Helvetica,sans-Serif" font-size="10.00">calculateG</text>
</a>
</g>
</g>
<!-- Node62&#45;&gt;Node70 -->
<g id="edge32" class="edge"><title>Node62&#45;&gt;Node70</title>
<path fill="none" stroke="midnightblue" d="M905.147,-272.305C895.4,-277.16 885.232,-283.25 877,-290.5 855.63,-309.32 862.563,-324.902 841,-343.5 832.582,-350.761 821.872,-356.55 812.078,-360.876"/>
<polygon fill="midnightblue" stroke="midnightblue" points="906.711,-275.438 914.286,-268.031 903.745,-269.097 906.711,-275.438"/>
</g>
<!-- Node63&#45;&gt;Node53 -->
<g id="edge23" class="edge"><title>Node63&#45;&gt;Node53</title>
<path fill="none" stroke="midnightblue" d="M765.713,-236.5C747.256,-218.37 717.129,-188.838 691,-163.5 671.821,-144.902 649.297,-123.307 636.581,-111.138"/>
<polygon fill="midnightblue" stroke="midnightblue" points="763.504,-239.236 773.09,-243.749 768.41,-234.244 763.504,-239.236"/>
</g>
<!-- Node63&#45;&gt;Node55 -->
<g id="edge22" class="edge"><title>Node63&#45;&gt;Node55</title>
<path fill="none" stroke="midnightblue" d="M763.935,-237.572C746.269,-223.868 718.624,-205.002 691,-196.5 529.905,-146.918 320.737,-167.741 260.745,-175.236"/>
<polygon fill="midnightblue" stroke="midnightblue" points="761.762,-240.316 771.762,-243.817 766.128,-234.844 761.762,-240.316"/>
</g>
<!-- Node64 -->
<g id="node22" class="node"><title>Node64</title>
<g id="a_node22"><a xlink:href="../../d3/d2a/structDroneParamsAndMatrices.html#adacdec3d0bc26c93da462c407c282828" target="_top" xlink:title="Loads all system matrices and parameters from the respective files in the given folder.">
<polygon fill="white" stroke="black" points="560,-358.5 560,-388.5 691,-388.5 691,-358.5 560,-358.5"/>
<text text-anchor="start" x="568" y="-376.5" font-family="Helvetica,sans-Serif" font-size="10.00">DroneParamsAndMatrices</text>
<text text-anchor="middle" x="625.5" y="-365.5" font-family="Helvetica,sans-Serif" font-size="10.00">::load</text>
</a>
</g>
</g>
<!-- Node63&#45;&gt;Node64 -->
<g id="edge24" class="edge"><title>Node63&#45;&gt;Node64</title>
<path fill="none" stroke="midnightblue" d="M762.271,-269.394C731.911,-292.673 675.746,-335.739 646.063,-358.5"/>
<polygon fill="midnightblue" stroke="midnightblue" points="764.652,-271.98 770.457,-263.117 760.392,-266.425 764.652,-271.98"/>
</g>
<!-- Node67 -->
<g id="node25" class="node"><title>Node67</title>
<g id="a_node25"><a xlink:href="../../d0/d83/LQR_8hpp.html#a53780408b0208d123895221aadac10f6" target="_top" xlink:title=" ">
<polygon fill="white" stroke="black" points="610.5,-244 610.5,-263 640.5,-263 640.5,-244 610.5,-244"/>
<text text-anchor="middle" x="625.5" y="-251" font-family="Helvetica,sans-Serif" font-size="10.00">are</text>
</a>
</g>
</g>
<!-- Node63&#45;&gt;Node67 -->
<g id="edge27" class="edge"><title>Node63&#45;&gt;Node67</title>
<path fill="none" stroke="midnightblue" d="M759.26,-253.5C726.253,-253.5 667.528,-253.5 640.645,-253.5"/>
<polygon fill="midnightblue" stroke="midnightblue" points="759.385,-257 769.385,-253.5 759.385,-250 759.385,-257"/>
</g>
<!-- Node63&#45;&gt;Node68 -->
<g id="edge29" class="edge"><title>Node63&#45;&gt;Node68</title>
<path fill="none" stroke="midnightblue" d="M759.492,-259.228C740.99,-263.524 714.493,-269.209 691,-272.5 599.692,-285.289 488.629,-289.849 450.558,-291.101"/>
<polygon fill="midnightblue" stroke="midnightblue" points="760.455,-262.597 769.38,-256.888 758.842,-255.785 760.455,-262.597"/>
</g>
<!-- Node69 -->
<g id="node27" class="node"><title>Node69</title>
<g id="a_node27"><a xlink:href="../../d1/dd6/classCTLTISystem.html#a9983c41fbd67fd2ec4dcc13dd91ec11c" target="_top" xlink:title=" ">
<polygon fill="white" stroke="black" points="562.5,-206 562.5,-225 688.5,-225 688.5,-206 562.5,-206"/>
<text text-anchor="middle" x="625.5" y="-213" font-family="Helvetica,sans-Serif" font-size="10.00">CTLTISystem::discretize</text>
</a>
</g>
</g>
<!-- Node63&#45;&gt;Node69 -->
<g id="edge30" class="edge"><title>Node63&#45;&gt;Node69</title>
<path fill="none" stroke="midnightblue" d="M759.44,-247.779C734.699,-241.772 695.37,-232.222 665.896,-225.066"/>
<polygon fill="midnightblue" stroke="midnightblue" points="758.842,-251.236 769.385,-250.194 760.494,-244.433 758.842,-251.236"/>
</g>
<!-- Node65 -->
<g id="node23" class="node"><title>Node65</title>
<g id="a_node23"><a xlink:href="../../dd/d92/structDrone.html#a6b42deda4aba13c4fd56c6b95a21e2f0" target="_top" xlink:title="Create a drone, loading the parameters from a given path.">
<polygon fill="white" stroke="black" points="398.5,-364 398.5,-383 473.5,-383 473.5,-364 398.5,-364"/>
<text text-anchor="middle" x="436" y="-371" font-family="Helvetica,sans-Serif" font-size="10.00">Drone::Drone</text>
</a>
</g>
</g>
<!-- Node64&#45;&gt;Node65 -->
<g id="edge25" class="edge"><title>Node64&#45;&gt;Node65</title>
<path fill="none" stroke="midnightblue" d="M549.695,-373.5C523.563,-373.5 495.381,-373.5 473.736,-373.5"/>
<polygon fill="midnightblue" stroke="midnightblue" points="549.973,-377 559.973,-373.5 549.973,-370 549.973,-377"/>
</g>
<!-- Node66 -->
<g id="node24" class="node"><title>Node66</title>
<g id="a_node24"><a xlink:href="../../dd/d2c/PyDrone_8hpp.html#aed0ee5ed76a43abda91eddf6407965d3" target="_top" xlink:title=" ">
<polygon fill="white" stroke="black" points="348,-407 348,-426 524,-426 524,-407 348,-407"/>
<text text-anchor="middle" x="436" y="-414" font-family="Helvetica,sans-Serif" font-size="10.00">PYBIND11_EMBEDDED_MODULE</text>
</a>
</g>
</g>
<!-- Node64&#45;&gt;Node66 -->
<g id="edge26" class="edge"><title>Node64&#45;&gt;Node66</title>
<path fill="none" stroke="midnightblue" d="M550.02,-390.581C525.645,-396.171 499.455,-402.177 478.429,-406.999"/>
<polygon fill="midnightblue" stroke="midnightblue" points="551.009,-393.945 559.973,-388.298 549.444,-387.122 551.009,-393.945"/>
</g>
<!-- Node67&#45;&gt;Node68 -->
<g id="edge28" class="edge"><title>Node67&#45;&gt;Node68</title>
<path fill="none" stroke="midnightblue" d="M600.505,-258.363C560.732,-266.424 482.395,-282.3 450.747,-288.714"/>
<polygon fill="midnightblue" stroke="midnightblue" points="601.302,-261.773 610.407,-256.356 599.911,-254.912 601.302,-261.773"/>
</g>
<!-- Node70&#45;&gt;Node64 -->
<g id="edge33" class="edge"><title>Node70&#45;&gt;Node64</title>
<path fill="none" stroke="midnightblue" d="M742.15,-371.283C726.612,-371.581 708.502,-371.928 691.288,-372.258"/>
<polygon fill="midnightblue" stroke="midnightblue" points="742.523,-374.777 752.454,-371.086 742.388,-367.778 742.523,-374.777"/>
</g>
<!-- Node71 -->
<g id="node29" class="node"><title>Node71</title>
<g id="a_node29"><a xlink:href="../../d3/d2a/structDroneParamsAndMatrices.html#a627e49219d73ef81c073df3b82031cf6" target="_top" xlink:title="Calculate the equilibrium matrix G.">
<polygon fill="white" stroke="black" points="560,-407.5 560,-437.5 691,-437.5 691,-407.5 560,-407.5"/>
<text text-anchor="start" x="568" y="-425.5" font-family="Helvetica,sans-Serif" font-size="10.00">DroneParamsAndMatrices</text>
<text text-anchor="middle" x="625.5" y="-414.5" font-family="Helvetica,sans-Serif" font-size="10.00">::calculateG</text>
</a>
</g>
</g>
<!-- Node70&#45;&gt;Node71 -->
<g id="edge34" class="edge"><title>Node70&#45;&gt;Node71</title>
<path fill="none" stroke="midnightblue" d="M744.641,-383.245C722.671,-390.545 694.974,-399.748 671.921,-407.408"/>
<polygon fill="midnightblue" stroke="midnightblue" points="745.909,-386.512 754.295,-380.038 743.702,-379.869 745.909,-386.512"/>
</g>
<!-- Node71&#45;&gt;Node66 -->
<g id="edge35" class="edge"><title>Node71&#45;&gt;Node66</title>
<path fill="none" stroke="midnightblue" d="M549.815,-420.11C541.384,-419.84 532.737,-419.564 524.165,-419.289"/>
<polygon fill="midnightblue" stroke="midnightblue" points="549.866,-423.613 559.973,-420.435 550.09,-416.617 549.866,-423.613"/>
</g>
<!-- Node79 -->
<g id="node37" class="node"><title>Node79</title>
<g id="a_node37"><a xlink:href="../../d8/de5/classGaussianNoiseGenerator.html#a246862648ad4e0c8e92b7c825ab4566e" target="_top" xlink:title=" ">
<polygon fill="white" stroke="black" points="1041,-0.5 1041,-30.5 1167,-30.5 1167,-0.5 1041,-0.5"/>
<text text-anchor="start" x="1049" y="-18.5" font-family="Helvetica,sans-Serif" font-size="10.00">GaussianNoiseGenerator</text>
<text text-anchor="middle" x="1104" y="-7.5" font-family="Helvetica,sans-Serif" font-size="10.00">::operator()</text>
</a>
</g>
</g>
<!-- Node78&#45;&gt;Node79 -->
<g id="edge44" class="edge"><title>Node78&#45;&gt;Node79</title>
<path fill="none" stroke="midnightblue" d="M1192.45,-15.5C1184,-15.5 1175.44,-15.5 1167.15,-15.5"/>
<polygon fill="midnightblue" stroke="midnightblue" points="1192.68,-19.0001 1202.68,-15.5 1192.68,-12.0001 1192.68,-19.0001"/>
</g>
</g>
</svg>
