<?xml version="1.0" encoding="UTF-8" standalone="no"?>
<!DOCTYPE svg PUBLIC "-//W3C//DTD SVG 1.1//EN"
 "http://www.w3.org/Graphics/SVG/1.1/DTD/svg11.dtd">
<!-- Generated by graphviz version 2.38.0 (20140413.2041)
 -->
<!-- Title: StreamMIDI_Interface Pages: 1 -->
<svg width="404pt" height="810pt"
 viewBox="0.00 0.00 403.50 810.00" xmlns="http://www.w3.org/2000/svg" xmlns:xlink="http://www.w3.org/1999/xlink">
<g id="graph0" class="graph" transform="scale(1 1) rotate(0) translate(4 806)">
<title>StreamMIDI_Interface</title>
<polygon fill="white" stroke="none" points="-4,4 -4,-806 399.5,-806 399.5,4 -4,4"/>
<!-- Node18 -->
<g id="node1" class="node"><title>Node18</title>
<g id="a_node1"><a xlink:title="A class for MIDI interfaces sending and receiving MIDI messages over a Stream.">
<polygon fill="#bfbfbf" stroke="black" points="96,-0.5 96,-90.5 224,-90.5 224,-0.5 96,-0.5"/>
<text text-anchor="middle" x="160" y="-78.5" font-family="Helvetica,sans-Serif" font-size="10.00">StreamMIDI_Interface</text>
<polyline fill="none" stroke="black" points="96,-71.5 224,-71.5 "/>
<text text-anchor="start" x="104" y="-59.5" font-family="Helvetica,sans-Serif" font-size="10.00"># stream</text>
<polyline fill="none" stroke="black" points="96,-52.5 224,-52.5 "/>
<text text-anchor="start" x="104" y="-40.5" font-family="Helvetica,sans-Serif" font-size="10.00">+ StreamMIDI_Interface()</text>
<text text-anchor="start" x="104" y="-29.5" font-family="Helvetica,sans-Serif" font-size="10.00">+ read()</text>
<text text-anchor="start" x="104" y="-18.5" font-family="Helvetica,sans-Serif" font-size="10.00"># sendImpl()</text>
<text text-anchor="start" x="104" y="-7.5" font-family="Helvetica,sans-Serif" font-size="10.00"># sendImpl()</text>
</a>
</g>
</g>
<!-- Node19 -->
<g id="node2" class="node"><title>Node19</title>
<g id="a_node2"><a xlink:href="../../d9/d73/classMIDI__Interface.html" target="_top" xlink:title="An abstract class for MIDI interfaces.">
<polygon fill="white" stroke="black" points="153.5,-138.5 153.5,-459.5 274.5,-459.5 274.5,-138.5 153.5,-138.5"/>
<text text-anchor="middle" x="214" y="-447.5" font-family="Helvetica,sans-Serif" font-size="10.00">MIDI_Interface</text>
<polyline fill="none" stroke="black" points="153.5,-440.5 274.5,-440.5 "/>
<text text-anchor="middle" x="214" y="-428.5" font-family="Helvetica,sans-Serif" font-size="10.00"> </text>
<polyline fill="none" stroke="black" points="153.5,-421.5 274.5,-421.5 "/>
<text text-anchor="start" x="161.5" y="-409.5" font-family="Helvetica,sans-Serif" font-size="10.00">+ setCallbacks()</text>
<text text-anchor="start" x="161.5" y="-398.5" font-family="Helvetica,sans-Serif" font-size="10.00">+ ~MIDI_Interface()</text>
<text text-anchor="start" x="161.5" y="-387.5" font-family="Helvetica,sans-Serif" font-size="10.00">+ begin()</text>
<text text-anchor="start" x="161.5" y="-376.5" font-family="Helvetica,sans-Serif" font-size="10.00">+ send()</text>
<text text-anchor="start" x="161.5" y="-365.5" font-family="Helvetica,sans-Serif" font-size="10.00">+ send()</text>
<text text-anchor="start" x="161.5" y="-354.5" font-family="Helvetica,sans-Serif" font-size="10.00">+ sendNoteOn()</text>
<text text-anchor="start" x="161.5" y="-343.5" font-family="Helvetica,sans-Serif" font-size="10.00">+ sendNoteOff()</text>
<text text-anchor="start" x="161.5" y="-332.5" font-family="Helvetica,sans-Serif" font-size="10.00">+ sendCC()</text>
<text text-anchor="start" x="161.5" y="-321.5" font-family="Helvetica,sans-Serif" font-size="10.00">+ sendPB()</text>
<text text-anchor="start" x="161.5" y="-310.5" font-family="Helvetica,sans-Serif" font-size="10.00">+ sendPB()</text>
<text text-anchor="start" x="161.5" y="-299.5" font-family="Helvetica,sans-Serif" font-size="10.00">+ sendPC()</text>
<text text-anchor="start" x="161.5" y="-288.5" font-family="Helvetica,sans-Serif" font-size="10.00">+ update()</text>
<text text-anchor="start" x="161.5" y="-277.5" font-family="Helvetica,sans-Serif" font-size="10.00">+ read()</text>
<text text-anchor="start" x="161.5" y="-266.5" font-family="Helvetica,sans-Serif" font-size="10.00">+ setAsDefault()</text>
<text text-anchor="start" x="161.5" y="-255.5" font-family="Helvetica,sans-Serif" font-size="10.00">+ getChannelMessage()</text>
<text text-anchor="start" x="161.5" y="-244.5" font-family="Helvetica,sans-Serif" font-size="10.00">+ getSysExMessage()</text>
<text text-anchor="start" x="161.5" y="-233.5" font-family="Helvetica,sans-Serif" font-size="10.00">+ getCN()</text>
<text text-anchor="start" x="161.5" y="-222.5" font-family="Helvetica,sans-Serif" font-size="10.00">+ getDefault()</text>
<text text-anchor="start" x="161.5" y="-211.5" font-family="Helvetica,sans-Serif" font-size="10.00"># MIDI_Interface()</text>
<text text-anchor="start" x="161.5" y="-200.5" font-family="Helvetica,sans-Serif" font-size="10.00"># onChannelMessage()</text>
<text text-anchor="start" x="161.5" y="-189.5" font-family="Helvetica,sans-Serif" font-size="10.00"># onSysExMessage()</text>
<text text-anchor="start" x="161.5" y="-178.5" font-family="Helvetica,sans-Serif" font-size="10.00"># onRealtimeMessage()</text>
<text text-anchor="start" x="161.5" y="-167.5" font-family="Helvetica,sans-Serif" font-size="10.00"># dispatchMIDIEvent()</text>
<text text-anchor="start" x="161.5" y="-156.5" font-family="Helvetica,sans-Serif" font-size="10.00">&#45; sendImpl()</text>
<text text-anchor="start" x="161.5" y="-145.5" font-family="Helvetica,sans-Serif" font-size="10.00">&#45; sendImpl()</text>
</a>
</g>
</g>
<!-- Node19&#45;&gt;Node18 -->
<g id="edge1" class="edge"><title>Node19&#45;&gt;Node18</title>
<path fill="none" stroke="midnightblue" d="M177.573,-128.346C174.656,-114.761 171.908,-101.958 169.488,-90.6915"/>
<polygon fill="none" stroke="midnightblue" points="174.203,-129.322 179.724,-138.365 181.047,-127.853 174.203,-129.322"/>
</g>
<!-- Node19&#45;&gt;Node19 -->
<g id="edge5" class="edge"><title>Node19&#45;&gt;Node19</title>
<path fill="none" stroke="#404040" d="M274.562,-331.344C285.141,-327.031 292.5,-316.25 292.5,-299 292.5,-287.949 289.48,-279.553 284.527,-273.812"/>
<polygon fill="none" stroke="#404040" points="284.309,-273.655 277.102,-273.405 274.562,-266.656 281.768,-266.907 284.309,-273.655"/>
<text text-anchor="middle" x="344" y="-296.5" font-family="Helvetica,sans-Serif" font-size="10.00"> &#45;DefaultMIDI_Interface</text>
</g>
<!-- Node20 -->
<g id="node3" class="node"><title>Node20</title>
<g id="a_node3"><a xlink:href="../../df/d0c/classMIDI__Parser.html" target="_top" xlink:title=" ">
<polygon fill="white" stroke="black" points="110.5,-518.5 110.5,-641.5 231.5,-641.5 231.5,-518.5 110.5,-518.5"/>
<text text-anchor="middle" x="171" y="-629.5" font-family="Helvetica,sans-Serif" font-size="10.00">MIDI_Parser</text>
<polyline fill="none" stroke="black" points="110.5,-622.5 231.5,-622.5 "/>
<text text-anchor="middle" x="171" y="-610.5" font-family="Helvetica,sans-Serif" font-size="10.00"> </text>
<polyline fill="none" stroke="black" points="110.5,-603.5 231.5,-603.5 "/>
<text text-anchor="start" x="118.5" y="-591.5" font-family="Helvetica,sans-Serif" font-size="10.00">+ getChannelMessage()</text>
<text text-anchor="start" x="118.5" y="-580.5" font-family="Helvetica,sans-Serif" font-size="10.00">+ getSysEx()</text>
<text text-anchor="start" x="118.5" y="-569.5" font-family="Helvetica,sans-Serif" font-size="10.00">+ getSysExBuffer()</text>
<text text-anchor="start" x="118.5" y="-558.5" font-family="Helvetica,sans-Serif" font-size="10.00">+ getSysExLength()</text>
<text text-anchor="start" x="118.5" y="-547.5" font-family="Helvetica,sans-Serif" font-size="10.00">+ getCN()</text>
<text text-anchor="start" x="118.5" y="-536.5" font-family="Helvetica,sans-Serif" font-size="10.00">+ isStatus()</text>
<text text-anchor="start" x="118.5" y="-525.5" font-family="Helvetica,sans-Serif" font-size="10.00">+ isData()</text>
</a>
</g>
</g>
<!-- Node20&#45;&gt;Node19 -->
<g id="edge2" class="edge"><title>Node20&#45;&gt;Node19</title>
<path fill="none" stroke="#404040" d="M180.33,-518.461C182.527,-504.211 184.976,-488.321 187.523,-471.791"/>
<polygon fill="none" stroke="#404040" points="187.566,-471.516 184.526,-464.977 189.394,-459.656 192.433,-466.195 187.566,-471.516"/>
<text text-anchor="middle" x="204" y="-481" font-family="Helvetica,sans-Serif" font-size="10.00"> &#45;parser</text>
</g>
<!-- Node23 -->
<g id="node6" class="node"><title>Node23</title>
<g id="a_node6"><a xlink:href="../../d0/d0d/classSerialMIDI__Parser.html" target="_top" xlink:title=" ">
<polygon fill="white" stroke="black" points="38.5,-248.5 38.5,-349.5 135.5,-349.5 135.5,-248.5 38.5,-248.5"/>
<text text-anchor="middle" x="87" y="-337.5" font-family="Helvetica,sans-Serif" font-size="10.00">SerialMIDI_Parser</text>
<polyline fill="none" stroke="black" points="38.5,-330.5 135.5,-330.5 "/>
<text text-anchor="start" x="46.5" y="-318.5" font-family="Helvetica,sans-Serif" font-size="10.00">&#45; thirdByte</text>
<polyline fill="none" stroke="black" points="38.5,-311.5 135.5,-311.5 "/>
<text text-anchor="start" x="46.5" y="-299.5" font-family="Helvetica,sans-Serif" font-size="10.00">+ parse()</text>
<text text-anchor="start" x="46.5" y="-288.5" font-family="Helvetica,sans-Serif" font-size="10.00">+ getSysEx()</text>
<text text-anchor="start" x="46.5" y="-277.5" font-family="Helvetica,sans-Serif" font-size="10.00"># addSysExByte()</text>
<text text-anchor="start" x="46.5" y="-266.5" font-family="Helvetica,sans-Serif" font-size="10.00"># startSysEx()</text>
<text text-anchor="start" x="46.5" y="-255.5" font-family="Helvetica,sans-Serif" font-size="10.00"># endSysEx()</text>
</a>
</g>
</g>
<!-- Node20&#45;&gt;Node23 -->
<g id="edge7" class="edge"><title>Node20&#45;&gt;Node23</title>
<path fill="none" stroke="midnightblue" d="M149.854,-508.765C134.928,-459.189 115.292,-393.972 101.968,-349.716"/>
<polygon fill="none" stroke="midnightblue" points="146.539,-509.895 152.773,-518.461 153.242,-507.877 146.539,-509.895"/>
</g>
<!-- Node21 -->
<g id="node4" class="node"><title>Node21</title>
<g id="a_node4"><a xlink:href="../../de/df8/structMIDI__message.html" target="_top" xlink:title=" ">
<polygon fill="white" stroke="black" points="129.5,-700.5 129.5,-801.5 212.5,-801.5 212.5,-700.5 129.5,-700.5"/>
<text text-anchor="middle" x="171" y="-789.5" font-family="Helvetica,sans-Serif" font-size="10.00">MIDI_message</text>
<polyline fill="none" stroke="black" points="129.5,-782.5 212.5,-782.5 "/>
<text text-anchor="start" x="137.5" y="-770.5" font-family="Helvetica,sans-Serif" font-size="10.00">+ header</text>
<text text-anchor="start" x="137.5" y="-759.5" font-family="Helvetica,sans-Serif" font-size="10.00">+ data1</text>
<text text-anchor="start" x="137.5" y="-748.5" font-family="Helvetica,sans-Serif" font-size="10.00">+ data2</text>
<text text-anchor="start" x="137.5" y="-737.5" font-family="Helvetica,sans-Serif" font-size="10.00">+ CN</text>
<polyline fill="none" stroke="black" points="129.5,-730.5 212.5,-730.5 "/>
<text text-anchor="start" x="137.5" y="-718.5" font-family="Helvetica,sans-Serif" font-size="10.00">+ operator==()</text>
<text text-anchor="start" x="137.5" y="-707.5" font-family="Helvetica,sans-Serif" font-size="10.00">+ operator!=()</text>
</a>
</g>
</g>
<!-- Node21&#45;&gt;Node20 -->
<g id="edge3" class="edge"><title>Node21&#45;&gt;Node20</title>
<path fill="none" stroke="#404040" d="M171,-700.208C171,-685.765 171,-669.684 171,-654.127"/>
<polygon fill="none" stroke="#404040" points="171,-653.804 167,-647.804 171,-641.804 175,-647.804 171,-653.804"/>
<text text-anchor="middle" x="194" y="-674" font-family="Helvetica,sans-Serif" font-size="10.00"> #midimsg</text>
</g>
<!-- Node22 -->
<g id="node5" class="node"><title>Node22</title>
<g id="a_node5"><a xlink:href="../../de/d55/classMIDI__Callbacks.html" target="_top" xlink:title="A class for callbacks from MIDI input.">
<polygon fill="white" stroke="black" points="250,-535 250,-625 368,-625 368,-535 250,-535"/>
<text text-anchor="middle" x="309" y="-613" font-family="Helvetica,sans-Serif" font-size="10.00">MIDI_Callbacks</text>
<polyline fill="none" stroke="black" points="250,-606 368,-606 "/>
<text text-anchor="middle" x="309" y="-594" font-family="Helvetica,sans-Serif" font-size="10.00"> </text>
<polyline fill="none" stroke="black" points="250,-587 368,-587 "/>
<text text-anchor="start" x="258" y="-575" font-family="Helvetica,sans-Serif" font-size="10.00">+ ~MIDI_Callbacks()</text>
<text text-anchor="start" x="258" y="-564" font-family="Helvetica,sans-Serif" font-size="10.00">&#45; onChannelMessage()</text>
<text text-anchor="start" x="258" y="-553" font-family="Helvetica,sans-Serif" font-size="10.00">&#45; onSysExMessage()</text>
<text text-anchor="start" x="258" y="-542" font-family="Helvetica,sans-Serif" font-size="10.00">&#45; onRealtimeMessage()</text>
</a>
</g>
</g>
<!-- Node22&#45;&gt;Node19 -->
<g id="edge4" class="edge"><title>Node22&#45;&gt;Node19</title>
<path fill="none" stroke="#404040" d="M293.947,-534.792C287.81,-516.767 280.288,-494.678 272.339,-471.331"/>
<polygon fill="none" stroke="#404040" points="272.274,-471.141 266.553,-466.751 268.406,-459.782 274.127,-464.172 272.274,-471.141"/>
<text text-anchor="middle" x="303" y="-481" font-family="Helvetica,sans-Serif" font-size="10.00"> &#45;callbacks</text>
</g>
<!-- Node23&#45;&gt;Node18 -->
<g id="edge6" class="edge"><title>Node23&#45;&gt;Node18</title>
<path fill="none" stroke="#404040" d="M97.7701,-248.145C106.52,-209.738 119.862,-155.518 135,-109 135.732,-106.75 136.505,-104.464 137.308,-102.163"/>
<polygon fill="none" stroke="#404040" points="137.405,-101.896 135.702,-94.8885 141.515,-90.6214 143.218,-97.6286 137.405,-101.896"/>
<text text-anchor="middle" x="153" y="-112" font-family="Helvetica,sans-Serif" font-size="10.00"> #parser</text>
</g>
<!-- Node24 -->
<g id="node7" class="node"><title>Node24</title>
<g id="a_node7"><a xlink:href="../../d1/db1/classSysExBuffer.html" target="_top" xlink:title=" ">
<polygon fill="white" stroke="black" points="0,-507.5 0,-652.5 92,-652.5 92,-507.5 0,-507.5"/>
<text text-anchor="middle" x="46" y="-640.5" font-family="Helvetica,sans-Serif" font-size="10.00">SysExBuffer</text>
<polyline fill="none" stroke="black" points="0,-633.5 92,-633.5 "/>
<text text-anchor="start" x="8" y="-621.5" font-family="Helvetica,sans-Serif" font-size="10.00">&#45; SysExBuffer</text>
<text text-anchor="start" x="8" y="-610.5" font-family="Helvetica,sans-Serif" font-size="10.00">&#45; SysExLength</text>
<text text-anchor="start" x="8" y="-599.5" font-family="Helvetica,sans-Serif" font-size="10.00">&#45; receiving</text>
<polyline fill="none" stroke="black" points="0,-592.5 92,-592.5 "/>
<text text-anchor="start" x="8" y="-580.5" font-family="Helvetica,sans-Serif" font-size="10.00">+ start()</text>
<text text-anchor="start" x="8" y="-569.5" font-family="Helvetica,sans-Serif" font-size="10.00">+ end()</text>
<text text-anchor="start" x="8" y="-558.5" font-family="Helvetica,sans-Serif" font-size="10.00">+ add()</text>
<text text-anchor="start" x="8" y="-547.5" font-family="Helvetica,sans-Serif" font-size="10.00">+ hasSpaceLeft()</text>
<text text-anchor="start" x="8" y="-536.5" font-family="Helvetica,sans-Serif" font-size="10.00">+ isReceiving()</text>
<text text-anchor="start" x="8" y="-525.5" font-family="Helvetica,sans-Serif" font-size="10.00">+ getBuffer()</text>
<text text-anchor="start" x="8" y="-514.5" font-family="Helvetica,sans-Serif" font-size="10.00">+ getLength()</text>
</a>
</g>
</g>
<!-- Node24&#45;&gt;Node23 -->
<g id="edge8" class="edge"><title>Node24&#45;&gt;Node23</title>
<path fill="none" stroke="#404040" d="M51.5787,-507.457C52.5836,-497.547 53.7242,-487.509 55,-478 60.2061,-439.198 67.9321,-395.967 74.4883,-361.827"/>
<polygon fill="none" stroke="#404040" points="74.5584,-361.466 71.7744,-354.813 76.844,-349.685 79.628,-356.337 74.5584,-361.466"/>
<text text-anchor="middle" x="85" y="-481" font-family="Helvetica,sans-Serif" font-size="10.00"> #sysexbuffer</text>
</g>
</g>
</svg>
