<?xml version="1.0" encoding="UTF-8" standalone="no"?>
<!DOCTYPE svg PUBLIC "-//W3C//DTD SVG 1.1//EN"
 "http://www.w3.org/Graphics/SVG/1.1/DTD/svg11.dtd">
<!-- Generated by graphviz version 2.38.0 (20140413.2041)
 -->
<!-- Title: StreamMIDI_Interface Pages: 1 -->
<svg width="621pt" height="799pt"
 viewBox="0.00 0.00 620.50 799.00" xmlns="http://www.w3.org/2000/svg" xmlns:xlink="http://www.w3.org/1999/xlink">
<g id="graph0" class="graph" transform="scale(1 1) rotate(0) translate(4 795)">
<title>StreamMIDI_Interface</title>
<polygon fill="white" stroke="none" points="-4,4 -4,-795 616.5,-795 616.5,4 -4,4"/>
<!-- Node19 -->
<g id="node1" class="node"><title>Node19</title>
<g id="a_node1"><a xlink:title="A class for MIDI interfaces sending and receiving MIDI messages over a Stream.">
<polygon fill="#bfbfbf" stroke="black" points="185,-0.5 185,-101.5 313,-101.5 313,-0.5 185,-0.5"/>
<text text-anchor="middle" x="249" y="-89.5" font-family="Helvetica,sans-Serif" font-size="10.00">StreamMIDI_Interface</text>
<polyline fill="none" stroke="black" points="185,-82.5 313,-82.5 "/>
<text text-anchor="start" x="193" y="-70.5" font-family="Helvetica,sans-Serif" font-size="10.00"># stream</text>
<polyline fill="none" stroke="black" points="185,-63.5 313,-63.5 "/>
<text text-anchor="start" x="193" y="-51.5" font-family="Helvetica,sans-Serif" font-size="10.00">+ StreamMIDI_Interface()</text>
<text text-anchor="start" x="193" y="-40.5" font-family="Helvetica,sans-Serif" font-size="10.00">+ read()</text>
<text text-anchor="start" x="193" y="-29.5" font-family="Helvetica,sans-Serif" font-size="10.00"># sendImpl()</text>
<text text-anchor="start" x="193" y="-18.5" font-family="Helvetica,sans-Serif" font-size="10.00"># sendImpl()</text>
<text text-anchor="start" x="193" y="-7.5" font-family="Helvetica,sans-Serif" font-size="10.00"># sendImpl()</text>
</a>
</g>
</g>
<!-- Node20 -->
<g id="node2" class="node"><title>Node20</title>
<g id="a_node2"><a xlink:href="../../de/d76/classParsing__MIDI__Interface.html" target="_top" xlink:title="An abstract class for MIDI interfaces.">
<polygon fill="white" stroke="black" points="240,-149.5 240,-327.5 374,-327.5 374,-149.5 240,-149.5"/>
<text text-anchor="middle" x="307" y="-315.5" font-family="Helvetica,sans-Serif" font-size="10.00">Parsing_MIDI_Interface</text>
<polyline fill="none" stroke="black" points="240,-308.5 374,-308.5 "/>
<text text-anchor="middle" x="307" y="-296.5" font-family="Helvetica,sans-Serif" font-size="10.00"> </text>
<polyline fill="none" stroke="black" points="240,-289.5 374,-289.5 "/>
<text text-anchor="start" x="248" y="-277.5" font-family="Helvetica,sans-Serif" font-size="10.00">+ getParser()</text>
<text text-anchor="start" x="248" y="-266.5" font-family="Helvetica,sans-Serif" font-size="10.00">+ getChannelMessage()</text>
<text text-anchor="start" x="248" y="-255.5" font-family="Helvetica,sans-Serif" font-size="10.00">+ getSysExMessage()</text>
<text text-anchor="start" x="248" y="-244.5" font-family="Helvetica,sans-Serif" font-size="10.00">+ getCN()</text>
<text text-anchor="start" x="248" y="-233.5" font-family="Helvetica,sans-Serif" font-size="10.00">+ update()</text>
<text text-anchor="start" x="248" y="-222.5" font-family="Helvetica,sans-Serif" font-size="10.00">+ setCallbacks()</text>
<text text-anchor="start" x="248" y="-211.5" font-family="Helvetica,sans-Serif" font-size="10.00"># Parsing_MIDI_Interface()</text>
<text text-anchor="start" x="248" y="-200.5" font-family="Helvetica,sans-Serif" font-size="10.00"># dispatchMIDIEvent()</text>
<text text-anchor="start" x="248" y="-189.5" font-family="Helvetica,sans-Serif" font-size="10.00">&#45; read()</text>
<text text-anchor="start" x="248" y="-178.5" font-family="Helvetica,sans-Serif" font-size="10.00">&#45; onRealtimeMessage()</text>
<text text-anchor="start" x="248" y="-167.5" font-family="Helvetica,sans-Serif" font-size="10.00">&#45; onChannelMessage()</text>
<text text-anchor="start" x="248" y="-156.5" font-family="Helvetica,sans-Serif" font-size="10.00">&#45; onSysExMessage()</text>
</a>
</g>
</g>
<!-- Node20&#45;&gt;Node19 -->
<g id="edge1" class="edge"><title>Node20&#45;&gt;Node19</title>
<path fill="none" stroke="midnightblue" d="M276.428,-139.721C272.289,-126.484 268.193,-113.385 264.479,-101.505"/>
<polygon fill="none" stroke="midnightblue" points="273.119,-140.868 279.444,-149.368 279.8,-138.779 273.119,-140.868"/>
</g>
<!-- Node21 -->
<g id="node3" class="node"><title>Node21</title>
<g id="a_node3"><a xlink:href="../../d9/d73/classMIDI__Interface.html" target="_top" xlink:title="An abstract class for MIDI interfaces.">
<polygon fill="white" stroke="black" points="388.5,-375.5 388.5,-641.5 491.5,-641.5 491.5,-375.5 388.5,-375.5"/>
<text text-anchor="middle" x="440" y="-629.5" font-family="Helvetica,sans-Serif" font-size="10.00">MIDI_Interface</text>
<polyline fill="none" stroke="black" points="388.5,-622.5 491.5,-622.5 "/>
<text text-anchor="middle" x="440" y="-610.5" font-family="Helvetica,sans-Serif" font-size="10.00"> </text>
<polyline fill="none" stroke="black" points="388.5,-603.5 491.5,-603.5 "/>
<text text-anchor="start" x="396.5" y="-591.5" font-family="Helvetica,sans-Serif" font-size="10.00">+ ~MIDI_Interface()</text>
<text text-anchor="start" x="396.5" y="-580.5" font-family="Helvetica,sans-Serif" font-size="10.00">+ begin()</text>
<text text-anchor="start" x="396.5" y="-569.5" font-family="Helvetica,sans-Serif" font-size="10.00">+ send()</text>
<text text-anchor="start" x="396.5" y="-558.5" font-family="Helvetica,sans-Serif" font-size="10.00">+ send()</text>
<text text-anchor="start" x="396.5" y="-547.5" font-family="Helvetica,sans-Serif" font-size="10.00">+ sendCN()</text>
<text text-anchor="start" x="396.5" y="-536.5" font-family="Helvetica,sans-Serif" font-size="10.00">+ sendCN()</text>
<text text-anchor="start" x="396.5" y="-525.5" font-family="Helvetica,sans-Serif" font-size="10.00">+ sendNoteOn()</text>
<text text-anchor="start" x="396.5" y="-514.5" font-family="Helvetica,sans-Serif" font-size="10.00">+ sendNoteOff()</text>
<text text-anchor="start" x="396.5" y="-503.5" font-family="Helvetica,sans-Serif" font-size="10.00">+ sendCC()</text>
<text text-anchor="start" x="396.5" y="-492.5" font-family="Helvetica,sans-Serif" font-size="10.00">+ sendPB()</text>
<text text-anchor="start" x="396.5" y="-481.5" font-family="Helvetica,sans-Serif" font-size="10.00">+ sendPB()</text>
<text text-anchor="start" x="396.5" y="-470.5" font-family="Helvetica,sans-Serif" font-size="10.00">+ sendPC()</text>
<text text-anchor="start" x="396.5" y="-459.5" font-family="Helvetica,sans-Serif" font-size="10.00">+ update()</text>
<text text-anchor="start" x="396.5" y="-448.5" font-family="Helvetica,sans-Serif" font-size="10.00">+ setAsDefault()</text>
<text text-anchor="start" x="396.5" y="-437.5" font-family="Helvetica,sans-Serif" font-size="10.00">+ setCallbacks()</text>
<text text-anchor="start" x="396.5" y="-426.5" font-family="Helvetica,sans-Serif" font-size="10.00">+ sendImpl()</text>
<text text-anchor="start" x="396.5" y="-415.5" font-family="Helvetica,sans-Serif" font-size="10.00">+ sendImpl()</text>
<text text-anchor="start" x="396.5" y="-404.5" font-family="Helvetica,sans-Serif" font-size="10.00">+ sendImpl()</text>
<text text-anchor="start" x="396.5" y="-393.5" font-family="Helvetica,sans-Serif" font-size="10.00">+ getDefault()</text>
<text text-anchor="start" x="396.5" y="-382.5" font-family="Helvetica,sans-Serif" font-size="10.00"># MIDI_Interface()</text>
</a>
</g>
</g>
<!-- Node21&#45;&gt;Node20 -->
<g id="edge2" class="edge"><title>Node21&#45;&gt;Node20</title>
<path fill="none" stroke="midnightblue" d="M383.954,-385.088C382.296,-381.684 380.642,-378.315 379,-375 371.373,-359.603 363.019,-343.364 354.788,-327.683"/>
<polygon fill="none" stroke="midnightblue" points="380.843,-386.696 388.349,-394.174 387.145,-383.647 380.843,-386.696"/>
</g>
<!-- Node21&#45;&gt;Node21 -->
<g id="edge3" class="edge"><title>Node21&#45;&gt;Node21</title>
<path fill="none" stroke="#404040" d="M491.525,-536.634C502,-533.569 509.5,-524.191 509.5,-508.5 509.5,-498.938 506.715,-491.72 502.169,-486.847"/>
<polygon fill="none" stroke="#404040" points="501.774,-486.607 494.569,-486.903 491.525,-480.366 498.73,-480.07 501.774,-486.607"/>
<text text-anchor="middle" x="561" y="-506" font-family="Helvetica,sans-Serif" font-size="10.00"> &#45;DefaultMIDI_Interface</text>
</g>
<!-- Node22 -->
<g id="node4" class="node"><title>Node22</title>
<g id="a_node4"><a xlink:href="../../df/d0c/classMIDI__Parser.html" target="_top" xlink:title=" ">
<polygon fill="white" stroke="black" points="110.5,-447 110.5,-570 231.5,-570 231.5,-447 110.5,-447"/>
<text text-anchor="middle" x="171" y="-558" font-family="Helvetica,sans-Serif" font-size="10.00">MIDI_Parser</text>
<polyline fill="none" stroke="black" points="110.5,-551 231.5,-551 "/>
<text text-anchor="middle" x="171" y="-539" font-family="Helvetica,sans-Serif" font-size="10.00"> </text>
<polyline fill="none" stroke="black" points="110.5,-532 231.5,-532 "/>
<text text-anchor="start" x="118.5" y="-520" font-family="Helvetica,sans-Serif" font-size="10.00">+ getChannelMessage()</text>
<text text-anchor="start" x="118.5" y="-509" font-family="Helvetica,sans-Serif" font-size="10.00">+ getSysEx()</text>
<text text-anchor="start" x="118.5" y="-498" font-family="Helvetica,sans-Serif" font-size="10.00">+ getSysExBuffer()</text>
<text text-anchor="start" x="118.5" y="-487" font-family="Helvetica,sans-Serif" font-size="10.00">+ getSysExLength()</text>
<text text-anchor="start" x="118.5" y="-476" font-family="Helvetica,sans-Serif" font-size="10.00">+ getCN()</text>
<text text-anchor="start" x="118.5" y="-465" font-family="Helvetica,sans-Serif" font-size="10.00">+ isStatus()</text>
<text text-anchor="start" x="118.5" y="-454" font-family="Helvetica,sans-Serif" font-size="10.00">+ isData()</text>
</a>
</g>
</g>
<!-- Node22&#45;&gt;Node20 -->
<g id="edge4" class="edge"><title>Node22&#45;&gt;Node20</title>
<path fill="none" stroke="#404040" d="M201.861,-446.687C218.054,-414.776 238.3,-374.878 256.692,-338.637"/>
<polygon fill="none" stroke="#404040" points="256.903,-338.221 256.051,-331.06 262.333,-327.52 263.185,-334.681 256.903,-338.221"/>
<text text-anchor="middle" x="269" y="-349" font-family="Helvetica,sans-Serif" font-size="10.00"> &#45;parser</text>
</g>
<!-- Node25 -->
<g id="node7" class="node"><title>Node25</title>
<g id="a_node7"><a xlink:href="../../d0/d0d/classSerialMIDI__Parser.html" target="_top" xlink:title=" ">
<polygon fill="white" stroke="black" points="122.5,-188 122.5,-289 219.5,-289 219.5,-188 122.5,-188"/>
<text text-anchor="middle" x="171" y="-277" font-family="Helvetica,sans-Serif" font-size="10.00">SerialMIDI_Parser</text>
<polyline fill="none" stroke="black" points="122.5,-270 219.5,-270 "/>
<text text-anchor="start" x="130.5" y="-258" font-family="Helvetica,sans-Serif" font-size="10.00">&#45; thirdByte</text>
<polyline fill="none" stroke="black" points="122.5,-251 219.5,-251 "/>
<text text-anchor="start" x="130.5" y="-239" font-family="Helvetica,sans-Serif" font-size="10.00">+ parse()</text>
<text text-anchor="start" x="130.5" y="-228" font-family="Helvetica,sans-Serif" font-size="10.00">+ getSysEx()</text>
<text text-anchor="start" x="130.5" y="-217" font-family="Helvetica,sans-Serif" font-size="10.00"># addSysExByte()</text>
<text text-anchor="start" x="130.5" y="-206" font-family="Helvetica,sans-Serif" font-size="10.00"># startSysEx()</text>
<text text-anchor="start" x="130.5" y="-195" font-family="Helvetica,sans-Serif" font-size="10.00"># endSysEx()</text>
</a>
</g>
</g>
<!-- Node22&#45;&gt;Node25 -->
<g id="edge8" class="edge"><title>Node22&#45;&gt;Node25</title>
<path fill="none" stroke="midnightblue" d="M171,-436.403C171,-390.038 171,-330.677 171,-289.31"/>
<polygon fill="none" stroke="midnightblue" points="167.5,-436.687 171,-446.687 174.5,-436.687 167.5,-436.687"/>
</g>
<!-- Node23 -->
<g id="node5" class="node"><title>Node23</title>
<g id="a_node5"><a xlink:href="../../d7/d3f/structChannelMessage.html" target="_top" xlink:title=" ">
<polygon fill="white" stroke="black" points="125,-689.5 125,-790.5 217,-790.5 217,-689.5 125,-689.5"/>
<text text-anchor="middle" x="171" y="-778.5" font-family="Helvetica,sans-Serif" font-size="10.00">ChannelMessage</text>
<polyline fill="none" stroke="black" points="125,-771.5 217,-771.5 "/>
<text text-anchor="start" x="133" y="-759.5" font-family="Helvetica,sans-Serif" font-size="10.00">+ header</text>
<text text-anchor="start" x="133" y="-748.5" font-family="Helvetica,sans-Serif" font-size="10.00">+ data1</text>
<text text-anchor="start" x="133" y="-737.5" font-family="Helvetica,sans-Serif" font-size="10.00">+ data2</text>
<text text-anchor="start" x="133" y="-726.5" font-family="Helvetica,sans-Serif" font-size="10.00">+ CN</text>
<polyline fill="none" stroke="black" points="125,-719.5 217,-719.5 "/>
<text text-anchor="start" x="133" y="-707.5" font-family="Helvetica,sans-Serif" font-size="10.00">+ operator==()</text>
<text text-anchor="start" x="133" y="-696.5" font-family="Helvetica,sans-Serif" font-size="10.00">+ operator!=()</text>
</a>
</g>
</g>
<!-- Node23&#45;&gt;Node22 -->
<g id="edge5" class="edge"><title>Node23&#45;&gt;Node22</title>
<path fill="none" stroke="#404040" d="M171,-689.484C171,-658.248 171,-617.355 171,-582.442"/>
<polygon fill="none" stroke="#404040" points="171,-582.368 167,-576.368 171,-570.368 175,-576.368 171,-582.368"/>
<text text-anchor="middle" x="194" y="-663" font-family="Helvetica,sans-Serif" font-size="10.00"> #midimsg</text>
</g>
<!-- Node24 -->
<g id="node6" class="node"><title>Node24</title>
<g id="a_node6"><a xlink:href="../../de/d55/classMIDI__Callbacks.html" target="_top" xlink:title="A class for callbacks from MIDI input.">
<polygon fill="white" stroke="black" points="249.5,-463.5 249.5,-553.5 370.5,-553.5 370.5,-463.5 249.5,-463.5"/>
<text text-anchor="middle" x="310" y="-541.5" font-family="Helvetica,sans-Serif" font-size="10.00">MIDI_Callbacks</text>
<polyline fill="none" stroke="black" points="249.5,-534.5 370.5,-534.5 "/>
<text text-anchor="middle" x="310" y="-522.5" font-family="Helvetica,sans-Serif" font-size="10.00"> </text>
<polyline fill="none" stroke="black" points="249.5,-515.5 370.5,-515.5 "/>
<text text-anchor="start" x="257.5" y="-503.5" font-family="Helvetica,sans-Serif" font-size="10.00">+ onChannelMessage()</text>
<text text-anchor="start" x="257.5" y="-492.5" font-family="Helvetica,sans-Serif" font-size="10.00">+ onSysExMessage()</text>
<text text-anchor="start" x="257.5" y="-481.5" font-family="Helvetica,sans-Serif" font-size="10.00">+ onRealtimeMessage()</text>
<text text-anchor="start" x="257.5" y="-470.5" font-family="Helvetica,sans-Serif" font-size="10.00">+ ~MIDI_Callbacks()</text>
</a>
</g>
</g>
<!-- Node24&#45;&gt;Node20 -->
<g id="edge6" class="edge"><title>Node24&#45;&gt;Node20</title>
<path fill="none" stroke="#404040" d="M309.505,-463.245C309.13,-429.751 308.6,-382.412 308.124,-339.897"/>
<polygon fill="none" stroke="#404040" points="308.122,-339.757 304.055,-333.802 307.988,-327.758 312.055,-333.713 308.122,-339.757"/>
<text text-anchor="middle" x="333" y="-349" font-family="Helvetica,sans-Serif" font-size="10.00"> &#45;callbacks</text>
</g>
<!-- Node25&#45;&gt;Node19 -->
<g id="edge7" class="edge"><title>Node25&#45;&gt;Node19</title>
<path fill="none" stroke="#404040" d="M191.903,-187.789C201.603,-164.72 213.222,-137.087 223.439,-112.788"/>
<polygon fill="none" stroke="#404040" points="223.524,-112.588 222.162,-105.506 228.175,-101.526 229.537,-108.607 223.524,-112.588"/>
<text text-anchor="middle" x="238" y="-123" font-family="Helvetica,sans-Serif" font-size="10.00"> #parser</text>
</g>
<!-- Node26 -->
<g id="node8" class="node"><title>Node26</title>
<g id="a_node8"><a xlink:href="../../d1/db1/classSysExBuffer.html" target="_top" xlink:title=" ">
<polygon fill="white" stroke="black" points="0,-436 0,-581 92,-581 92,-436 0,-436"/>
<text text-anchor="middle" x="46" y="-569" font-family="Helvetica,sans-Serif" font-size="10.00">SysExBuffer</text>
<polyline fill="none" stroke="black" points="0,-562 92,-562 "/>
<text text-anchor="start" x="8" y="-550" font-family="Helvetica,sans-Serif" font-size="10.00">&#45; SysExBuffer</text>
<text text-anchor="start" x="8" y="-539" font-family="Helvetica,sans-Serif" font-size="10.00">&#45; SysExLength</text>
<text text-anchor="start" x="8" y="-528" font-family="Helvetica,sans-Serif" font-size="10.00">&#45; receiving</text>
<polyline fill="none" stroke="black" points="0,-521 92,-521 "/>
<text text-anchor="start" x="8" y="-509" font-family="Helvetica,sans-Serif" font-size="10.00">+ start()</text>
<text text-anchor="start" x="8" y="-498" font-family="Helvetica,sans-Serif" font-size="10.00">+ end()</text>
<text text-anchor="start" x="8" y="-487" font-family="Helvetica,sans-Serif" font-size="10.00">+ add()</text>
<text text-anchor="start" x="8" y="-476" font-family="Helvetica,sans-Serif" font-size="10.00">+ hasSpaceLeft()</text>
<text text-anchor="start" x="8" y="-465" font-family="Helvetica,sans-Serif" font-size="10.00">+ isReceiving()</text>
<text text-anchor="start" x="8" y="-454" font-family="Helvetica,sans-Serif" font-size="10.00">+ getBuffer()</text>
<text text-anchor="start" x="8" y="-443" font-family="Helvetica,sans-Serif" font-size="10.00">+ getLength()</text>
</a>
</g>
</g>
<!-- Node26&#45;&gt;Node25 -->
<g id="edge9" class="edge"><title>Node26&#45;&gt;Node25</title>
<path fill="none" stroke="#404040" d="M69.8743,-435.986C80.1889,-407.502 93.0837,-374.726 107,-346 114.454,-330.613 123.428,-314.544 132.265,-299.692"/>
<polygon fill="none" stroke="#404040" points="132.447,-299.39 132.126,-292.186 138.653,-289.119 138.974,-296.323 132.447,-299.39"/>
<text text-anchor="middle" x="137" y="-349" font-family="Helvetica,sans-Serif" font-size="10.00"> #sysexbuffer</text>
</g>
</g>
</svg>
