<?xml version="1.0" encoding="UTF-8" standalone="no"?>
<!DOCTYPE svg PUBLIC "-//W3C//DTD SVG 1.1//EN"
 "http://www.w3.org/Graphics/SVG/1.1/DTD/svg11.dtd">
<!-- Generated by graphviz version 2.38.0 (20140413.2041)
 -->
<!-- Title: NoteCCRange.hpp Pages: 1 -->
<svg width="402pt" height="140pt"
 viewBox="0.00 0.00 402.00 140.00" xmlns="http://www.w3.org/2000/svg" xmlns:xlink="http://www.w3.org/1999/xlink">
<g id="graph0" class="graph" transform="scale(1 1) rotate(0) translate(4 136)">
<title>NoteCCRange.hpp</title>
<polygon fill="white" stroke="none" points="-4,4 -4,-136 398,-136 398,4 -4,4"/>
<!-- Node1 -->
<g id="node1" class="node"><title>Node1</title>
<g id="a_node1"><a xlink:title=" ">
<polygon fill="#bfbfbf" stroke="black" points="143,-112.5 143,-131.5 243,-131.5 243,-112.5 143,-112.5"/>
<text text-anchor="middle" x="193" y="-119.5" font-family="Helvetica,sans-Serif" font-size="10.00">NoteCCRange.hpp</text>
</a>
</g>
</g>
<!-- Node2 -->
<g id="node2" class="node"><title>Node2</title>
<g id="a_node2"><a xlink:href="../../d2/d24/NoteBitmapDisplay_8hpp.html" target="_top" xlink:title=" ">
<polygon fill="white" stroke="black" points="0,-56.5 0,-75.5 120,-75.5 120,-56.5 0,-56.5"/>
<text text-anchor="middle" x="60" y="-63.5" font-family="Helvetica,sans-Serif" font-size="10.00">NoteBitmapDisplay.hpp</text>
</a>
</g>
</g>
<!-- Node1&#45;&gt;Node2 -->
<g id="edge1" class="edge"><title>Node1&#45;&gt;Node2</title>
<path fill="none" stroke="midnightblue" d="M162.552,-108.638C137.593,-98.504 102.923,-84.4274 80.9756,-75.5164"/>
<polygon fill="midnightblue" stroke="midnightblue" points="161.344,-111.924 171.926,-112.444 163.977,-105.439 161.344,-111.924"/>
</g>
<!-- Node3 -->
<g id="node3" class="node"><title>Node3</title>
<g id="a_node3"><a xlink:href="../../db/dbf/Control__Surface_8h.html" target="_top" xlink:title="The main header file that includes all Control&#45;Surface header files.">
<polygon fill="white" stroke="black" points="100.5,-0.5 100.5,-19.5 195.5,-19.5 195.5,-0.5 100.5,-0.5"/>
<text text-anchor="middle" x="148" y="-7.5" font-family="Helvetica,sans-Serif" font-size="10.00">Control_Surface.h</text>
</a>
</g>
</g>
<!-- Node1&#45;&gt;Node3 -->
<g id="edge3" class="edge"><title>Node1&#45;&gt;Node3</title>
<path fill="none" stroke="midnightblue" d="M181.74,-103.766C176.741,-95.5901 171.08,-85.5402 167,-76 158.678,-56.5424 152.666,-32.3121 149.829,-19.6402"/>
<polygon fill="midnightblue" stroke="midnightblue" points="178.869,-105.776 187.168,-112.361 184.787,-102.038 178.869,-105.776"/>
</g>
<!-- Node4 -->
<g id="node4" class="node"><title>Node4</title>
<g id="a_node4"><a xlink:href="../../d7/d9b/FastLED_8hpp.html" target="_top" xlink:title=" ">
<polygon fill="white" stroke="black" points="320,-56.5 320,-75.5 394,-75.5 394,-56.5 320,-56.5"/>
<text text-anchor="middle" x="357" y="-63.5" font-family="Helvetica,sans-Serif" font-size="10.00">FastLED.hpp</text>
</a>
</g>
</g>
<!-- Node1&#45;&gt;Node4 -->
<g id="edge4" class="edge"><title>Node1&#45;&gt;Node4</title>
<path fill="none" stroke="midnightblue" d="M228.52,-109.304C259.422,-99.1294 303.473,-84.6246 331.135,-75.5164"/>
<polygon fill="midnightblue" stroke="midnightblue" points="227.39,-105.992 218.986,-112.444 229.579,-112.64 227.39,-105.992"/>
</g>
<!-- Node6 -->
<g id="node6" class="node"><title>Node6</title>
<g id="a_node6"><a xlink:href="../../d4/d33/NoteCCRangeLEDs_8hpp.html" target="_top" xlink:title=" ">
<polygon fill="white" stroke="black" points="176.5,-56.5 176.5,-75.5 301.5,-75.5 301.5,-56.5 176.5,-56.5"/>
<text text-anchor="middle" x="239" y="-63.5" font-family="Helvetica,sans-Serif" font-size="10.00">NoteCCRangeLEDs.hpp</text>
</a>
</g>
</g>
<!-- Node1&#45;&gt;Node6 -->
<g id="edge6" class="edge"><title>Node1&#45;&gt;Node6</title>
<path fill="none" stroke="midnightblue" d="M207.114,-104.431C215.176,-94.9673 224.959,-83.4827 231.545,-75.7511"/>
<polygon fill="midnightblue" stroke="midnightblue" points="204.416,-102.201 200.596,-112.083 209.745,-106.74 204.416,-102.201"/>
</g>
<!-- Node2&#45;&gt;Node3 -->
<g id="edge2" class="edge"><title>Node2&#45;&gt;Node3</title>
<path fill="none" stroke="midnightblue" d="M82.9769,-50.9005C99.1134,-40.9986 120.181,-28.0705 133.896,-19.6545"/>
<polygon fill="midnightblue" stroke="midnightblue" points="80.8314,-48.1106 74.1387,-56.324 84.4925,-54.0769 80.8314,-48.1106"/>
</g>
<!-- Node5 -->
<g id="node5" class="node"><title>Node5</title>
<g id="a_node5"><a xlink:href="../../d7/df5/FastLED_8cpp.html" target="_top" xlink:title=" ">
<polygon fill="white" stroke="black" points="320,-0.5 320,-19.5 394,-19.5 394,-0.5 320,-0.5"/>
<text text-anchor="middle" x="357" y="-7.5" font-family="Helvetica,sans-Serif" font-size="10.00">FastLED.cpp</text>
</a>
</g>
</g>
<!-- Node4&#45;&gt;Node5 -->
<g id="edge5" class="edge"><title>Node4&#45;&gt;Node5</title>
<path fill="none" stroke="midnightblue" d="M357,-45.8045C357,-36.9102 357,-26.7798 357,-19.7511"/>
<polygon fill="midnightblue" stroke="midnightblue" points="353.5,-46.083 357,-56.083 360.5,-46.083 353.5,-46.083"/>
</g>
<!-- Node6&#45;&gt;Node3 -->
<g id="edge7" class="edge"><title>Node6&#45;&gt;Node3</title>
<path fill="none" stroke="midnightblue" d="M215.706,-51.1774C198.961,-41.2407 176.9,-28.1492 162.584,-19.6545"/>
<polygon fill="midnightblue" stroke="midnightblue" points="213.993,-54.2307 224.379,-56.324 217.566,-48.2108 213.993,-54.2307"/>
</g>
</g>
</svg>
