<?xml version="1.0" encoding="UTF-8" standalone="no"?>
<!DOCTYPE svg PUBLIC "-//W3C//DTD SVG 1.1//EN"
 "http://www.w3.org/Graphics/SVG/1.1/DTD/svg11.dtd">
<!-- Generated by graphviz version 2.38.0 (20140413.2041)
 -->
<!-- Title: CCButtonLatched Pages: 1 -->
<svg width="508pt" height="1252pt"
 viewBox="0.00 0.00 508.00 1252.00" xmlns="http://www.w3.org/2000/svg" xmlns:xlink="http://www.w3.org/1999/xlink">
<g id="graph0" class="graph" transform="scale(1 1) rotate(0) translate(4 1248)">
<title>CCButtonLatched</title>
<polygon fill="white" stroke="none" points="-4,4 -4,-1248 504,-1248 504,4 -4,4"/>
<!-- Node1 -->
<g id="node1" class="node"><title>Node1</title>
<g id="a_node1"><a xlink:title="A class of MIDIOutputElements that read the input of a momentary push button or toggle switch,...">
<polygon fill="#bfbfbf" stroke="black" points="207,-0.5 207,-57.5 317,-57.5 317,-0.5 207,-0.5"/>
<text text-anchor="middle" x="262" y="-45.5" font-family="Helvetica,sans-Serif" font-size="10.00">CCButtonLatched</text>
<polyline fill="none" stroke="black" points="207,-38.5 317,-38.5 "/>
<text text-anchor="middle" x="262" y="-26.5" font-family="Helvetica,sans-Serif" font-size="10.00"> </text>
<polyline fill="none" stroke="black" points="207,-19.5 317,-19.5 "/>
<text text-anchor="start" x="215" y="-7.5" font-family="Helvetica,sans-Serif" font-size="10.00">+ CCButtonLatched()</text>
</a>
</g>
</g>
<!-- Node2 -->
<g id="node2" class="node"><title>Node2</title>
<g id="a_node2"><a xlink:href="../../d3/d88/classMIDIButtonLatched.html" target="_top" xlink:title=" ">
<polygon fill="white" stroke="black" points="204,-95.5 204,-218.5 320,-218.5 320,-95.5 204,-95.5"/>
<text text-anchor="start" x="212" y="-206.5" font-family="Helvetica,sans-Serif" font-size="10.00">MIDIButtonLatched&lt;</text>
<text text-anchor="middle" x="262" y="-195.5" font-family="Helvetica,sans-Serif" font-size="10.00"> DigitalCCSender &gt;</text>
<polyline fill="none" stroke="black" points="204,-188.5 320,-188.5 "/>
<text text-anchor="start" x="212" y="-176.5" font-family="Helvetica,sans-Serif" font-size="10.00">&#45; state</text>
<polyline fill="none" stroke="black" points="204,-169.5 320,-169.5 "/>
<text text-anchor="start" x="212" y="-157.5" font-family="Helvetica,sans-Serif" font-size="10.00">+ begin()</text>
<text text-anchor="start" x="212" y="-146.5" font-family="Helvetica,sans-Serif" font-size="10.00">+ update()</text>
<text text-anchor="start" x="212" y="-135.5" font-family="Helvetica,sans-Serif" font-size="10.00">+ toggleState()</text>
<text text-anchor="start" x="212" y="-124.5" font-family="Helvetica,sans-Serif" font-size="10.00">+ getState()</text>
<text text-anchor="start" x="212" y="-113.5" font-family="Helvetica,sans-Serif" font-size="10.00">+ setState()</text>
<text text-anchor="start" x="212" y="-102.5" font-family="Helvetica,sans-Serif" font-size="10.00"># MIDIButtonLatched()</text>
</a>
</g>
</g>
<!-- Node2&#45;&gt;Node1 -->
<g id="edge1" class="edge"><title>Node2&#45;&gt;Node1</title>
<path fill="none" stroke="midnightblue" d="M262,-85.0071C262,-75.2639 262,-65.7799 262,-57.5077"/>
<polygon fill="none" stroke="midnightblue" points="258.5,-85.2144 262,-95.2144 265.5,-85.2145 258.5,-85.2144"/>
</g>
<!-- Node3 -->
<g id="node3" class="node"><title>Node3</title>
<g id="a_node3"><a xlink:href="../../d5/de0/classUpdatable.html" target="_top" xlink:title=" ">
<polygon fill="white" stroke="black" points="0,-288.5 0,-499.5 104,-499.5 104,-288.5 0,-288.5"/>
<text text-anchor="middle" x="52" y="-487.5" font-family="Helvetica,sans-Serif" font-size="10.00">MIDIOutputElement</text>
<polyline fill="none" stroke="black" points="0,-480.5 104,-480.5 "/>
<text text-anchor="middle" x="52" y="-468.5" font-family="Helvetica,sans-Serif" font-size="10.00"> </text>
<polyline fill="none" stroke="black" points="0,-461.5 104,-461.5 "/>
<text text-anchor="start" x="8" y="-449.5" font-family="Helvetica,sans-Serif" font-size="10.00">+ ~Updatable()</text>
<text text-anchor="start" x="8" y="-438.5" font-family="Helvetica,sans-Serif" font-size="10.00">+ update()</text>
<text text-anchor="start" x="8" y="-427.5" font-family="Helvetica,sans-Serif" font-size="10.00">+ begin()</text>
<text text-anchor="start" x="8" y="-416.5" font-family="Helvetica,sans-Serif" font-size="10.00">+ enable()</text>
<text text-anchor="start" x="8" y="-405.5" font-family="Helvetica,sans-Serif" font-size="10.00">+ disable()</text>
<text text-anchor="start" x="8" y="-394.5" font-family="Helvetica,sans-Serif" font-size="10.00">+ isEnabled()</text>
<text text-anchor="start" x="8" y="-383.5" font-family="Helvetica,sans-Serif" font-size="10.00">+ enable()</text>
<text text-anchor="start" x="8" y="-372.5" font-family="Helvetica,sans-Serif" font-size="10.00">+ enable()</text>
<text text-anchor="start" x="8" y="-361.5" font-family="Helvetica,sans-Serif" font-size="10.00">+ enable()</text>
<text text-anchor="start" x="8" y="-350.5" font-family="Helvetica,sans-Serif" font-size="10.00">+ disable()</text>
<text text-anchor="start" x="8" y="-339.5" font-family="Helvetica,sans-Serif" font-size="10.00">+ disable()</text>
<text text-anchor="start" x="8" y="-328.5" font-family="Helvetica,sans-Serif" font-size="10.00">+ disable()</text>
<text text-anchor="start" x="8" y="-317.5" font-family="Helvetica,sans-Serif" font-size="10.00">+ beginAll()</text>
<text text-anchor="start" x="8" y="-306.5" font-family="Helvetica,sans-Serif" font-size="10.00">+ updateAll()</text>
<text text-anchor="start" x="8" y="-295.5" font-family="Helvetica,sans-Serif" font-size="10.00"># Updatable()</text>
</a>
</g>
</g>
<!-- Node3&#45;&gt;Node2 -->
<g id="edge2" class="edge"><title>Node3&#45;&gt;Node2</title>
<path fill="none" stroke="midnightblue" d="M102.349,-280.058C105.733,-275.166 109.284,-270.45 113,-266 138.288,-235.713 173.854,-209.513 203.896,-190.506"/>
<polygon fill="none" stroke="midnightblue" points="99.4012,-278.171 96.8109,-288.444 105.242,-282.028 99.4012,-278.171"/>
</g>
<!-- Node4 -->
<g id="node4" class="node"><title>Node4</title>
<g id="a_node4"><a xlink:href="../../d4/d23/classDoublyLinkable.html" target="_top" xlink:title=" ">
<polygon fill="white" stroke="black" points="40.5,-1175.5 40.5,-1243.5 177.5,-1243.5 177.5,-1175.5 40.5,-1175.5"/>
<text text-anchor="start" x="48.5" y="-1231.5" font-family="Helvetica,sans-Serif" font-size="10.00">DoublyLinkable&lt; Updatable</text>
<text text-anchor="middle" x="109" y="-1220.5" font-family="Helvetica,sans-Serif" font-size="10.00">&lt; NormalUpdatable &gt; &gt;</text>
<polyline fill="none" stroke="black" points="40.5,-1213.5 177.5,-1213.5 "/>
<text text-anchor="middle" x="109" y="-1201.5" font-family="Helvetica,sans-Serif" font-size="10.00"> </text>
<polyline fill="none" stroke="black" points="40.5,-1194.5 177.5,-1194.5 "/>
<text text-anchor="start" x="48.5" y="-1182.5" font-family="Helvetica,sans-Serif" font-size="10.00"># ~DoublyLinkable()</text>
</a>
</g>
</g>
<!-- Node4&#45;&gt;Node3 -->
<g id="edge3" class="edge"><title>Node4&#45;&gt;Node3</title>
<path fill="none" stroke="midnightblue" d="M78.109,-1166.79C68.8002,-1151.85 59.7886,-1134.39 55,-1117 -3.64166,-903.999 17.0415,-642.062 35.6191,-499.535"/>
<polygon fill="none" stroke="midnightblue" points="75.2252,-1168.77 83.5946,-1175.27 81.1032,-1164.97 75.2252,-1168.77"/>
</g>
<!-- Node5 -->
<g id="node5" class="node"><title>Node5</title>
<g id="a_node5"><a xlink:href="../../d5/de0/classUpdatable.html" target="_top" xlink:title=" ">
<polygon fill="white" stroke="black" points="64.5,-905.5 64.5,-1116.5 219.5,-1116.5 219.5,-905.5 64.5,-905.5"/>
<text text-anchor="middle" x="142" y="-1104.5" font-family="Helvetica,sans-Serif" font-size="10.00">Updatable&lt; NormalUpdatable &gt;</text>
<polyline fill="none" stroke="black" points="64.5,-1097.5 219.5,-1097.5 "/>
<text text-anchor="middle" x="142" y="-1085.5" font-family="Helvetica,sans-Serif" font-size="10.00"> </text>
<polyline fill="none" stroke="black" points="64.5,-1078.5 219.5,-1078.5 "/>
<text text-anchor="start" x="72.5" y="-1066.5" font-family="Helvetica,sans-Serif" font-size="10.00">+ ~Updatable()</text>
<text text-anchor="start" x="72.5" y="-1055.5" font-family="Helvetica,sans-Serif" font-size="10.00">+ update()</text>
<text text-anchor="start" x="72.5" y="-1044.5" font-family="Helvetica,sans-Serif" font-size="10.00">+ begin()</text>
<text text-anchor="start" x="72.5" y="-1033.5" font-family="Helvetica,sans-Serif" font-size="10.00">+ enable()</text>
<text text-anchor="start" x="72.5" y="-1022.5" font-family="Helvetica,sans-Serif" font-size="10.00">+ disable()</text>
<text text-anchor="start" x="72.5" y="-1011.5" font-family="Helvetica,sans-Serif" font-size="10.00">+ isEnabled()</text>
<text text-anchor="start" x="72.5" y="-1000.5" font-family="Helvetica,sans-Serif" font-size="10.00">+ enable()</text>
<text text-anchor="start" x="72.5" y="-989.5" font-family="Helvetica,sans-Serif" font-size="10.00">+ enable()</text>
<text text-anchor="start" x="72.5" y="-978.5" font-family="Helvetica,sans-Serif" font-size="10.00">+ enable()</text>
<text text-anchor="start" x="72.5" y="-967.5" font-family="Helvetica,sans-Serif" font-size="10.00">+ disable()</text>
<text text-anchor="start" x="72.5" y="-956.5" font-family="Helvetica,sans-Serif" font-size="10.00">+ disable()</text>
<text text-anchor="start" x="72.5" y="-945.5" font-family="Helvetica,sans-Serif" font-size="10.00">+ disable()</text>
<text text-anchor="start" x="72.5" y="-934.5" font-family="Helvetica,sans-Serif" font-size="10.00">+ beginAll()</text>
<text text-anchor="start" x="72.5" y="-923.5" font-family="Helvetica,sans-Serif" font-size="10.00">+ updateAll()</text>
<text text-anchor="start" x="72.5" y="-912.5" font-family="Helvetica,sans-Serif" font-size="10.00"># Updatable()</text>
</a>
</g>
</g>
<!-- Node4&#45;&gt;Node5 -->
<g id="edge5" class="edge"><title>Node4&#45;&gt;Node5</title>
<path fill="none" stroke="midnightblue" d="M116.293,-1165.07C118.724,-1150.6 121.546,-1133.79 124.412,-1116.73"/>
<polygon fill="none" stroke="midnightblue" points="112.803,-1164.72 114.598,-1175.17 119.706,-1165.88 112.803,-1164.72"/>
</g>
<!-- Node5&#45;&gt;Node4 -->
<g id="edge4" class="edge"><title>Node5&#45;&gt;Node4</title>
<path fill="none" stroke="#404040" d="M126.882,-1116.67C124.696,-1130.26 122.377,-1143.98 120,-1157 119.611,-1159.13 119.199,-1161.31 118.773,-1163.51"/>
<polygon fill="none" stroke="#404040" points="118.765,-1163.55 121.5,-1170.22 116.393,-1175.31 113.658,-1168.64 118.765,-1163.55"/>
<text text-anchor="middle" x="145.5" y="-1149" font-family="Helvetica,sans-Serif" font-size="10.00"> #next</text>
<text text-anchor="middle" x="145.5" y="-1138" font-family="Helvetica,sans-Serif" font-size="10.00">#previous</text>
</g>
<!-- Node6 -->
<g id="node6" class="node"><title>Node6</title>
<g id="a_node6"><a xlink:href="../../dd/d16/classDoublyLinkedList.html" target="_top" xlink:title=" ">
<polygon fill="white" stroke="black" points="64.5,-569.5 64.5,-846.5 209.5,-846.5 209.5,-569.5 64.5,-569.5"/>
<text text-anchor="start" x="72.5" y="-834.5" font-family="Helvetica,sans-Serif" font-size="10.00">DoublyLinkedList&lt; Updatable</text>
<text text-anchor="middle" x="137" y="-823.5" font-family="Helvetica,sans-Serif" font-size="10.00">&lt; NormalUpdatable &gt; &gt;</text>
<polyline fill="none" stroke="black" points="64.5,-816.5 209.5,-816.5 "/>
<text text-anchor="middle" x="137" y="-804.5" font-family="Helvetica,sans-Serif" font-size="10.00"> </text>
<polyline fill="none" stroke="black" points="64.5,-797.5 209.5,-797.5 "/>
<text text-anchor="start" x="72.5" y="-785.5" font-family="Helvetica,sans-Serif" font-size="10.00">+ append()</text>
<text text-anchor="start" x="72.5" y="-774.5" font-family="Helvetica,sans-Serif" font-size="10.00">+ append()</text>
<text text-anchor="start" x="72.5" y="-763.5" font-family="Helvetica,sans-Serif" font-size="10.00">+ insertBefore()</text>
<text text-anchor="start" x="72.5" y="-752.5" font-family="Helvetica,sans-Serif" font-size="10.00">+ insertBefore()</text>
<text text-anchor="start" x="72.5" y="-741.5" font-family="Helvetica,sans-Serif" font-size="10.00">+ insertSorted()</text>
<text text-anchor="start" x="72.5" y="-730.5" font-family="Helvetica,sans-Serif" font-size="10.00">+ insertSorted()</text>
<text text-anchor="start" x="72.5" y="-719.5" font-family="Helvetica,sans-Serif" font-size="10.00">+ remove()</text>
<text text-anchor="start" x="72.5" y="-708.5" font-family="Helvetica,sans-Serif" font-size="10.00">+ remove()</text>
<text text-anchor="start" x="72.5" y="-697.5" font-family="Helvetica,sans-Serif" font-size="10.00">+ moveDown()</text>
<text text-anchor="start" x="72.5" y="-686.5" font-family="Helvetica,sans-Serif" font-size="10.00">+ couldContain()</text>
<text text-anchor="start" x="72.5" y="-675.5" font-family="Helvetica,sans-Serif" font-size="10.00">+ begin()</text>
<text text-anchor="start" x="72.5" y="-664.5" font-family="Helvetica,sans-Serif" font-size="10.00">+ begin()</text>
<text text-anchor="start" x="72.5" y="-653.5" font-family="Helvetica,sans-Serif" font-size="10.00">+ end()</text>
<text text-anchor="start" x="72.5" y="-642.5" font-family="Helvetica,sans-Serif" font-size="10.00">+ end()</text>
<text text-anchor="start" x="72.5" y="-631.5" font-family="Helvetica,sans-Serif" font-size="10.00">+ rbegin()</text>
<text text-anchor="start" x="72.5" y="-620.5" font-family="Helvetica,sans-Serif" font-size="10.00">+ rbegin()</text>
<text text-anchor="start" x="72.5" y="-609.5" font-family="Helvetica,sans-Serif" font-size="10.00">+ rend()</text>
<text text-anchor="start" x="72.5" y="-598.5" font-family="Helvetica,sans-Serif" font-size="10.00">+ rend()</text>
<text text-anchor="start" x="72.5" y="-587.5" font-family="Helvetica,sans-Serif" font-size="10.00">+ getFirst()</text>
<text text-anchor="start" x="72.5" y="-576.5" font-family="Helvetica,sans-Serif" font-size="10.00">+ getLast()</text>
</a>
</g>
</g>
<!-- Node5&#45;&gt;Node6 -->
<g id="edge7" class="edge"><title>Node5&#45;&gt;Node6</title>
<path fill="none" stroke="#404040" d="M116.507,-905.258C115.524,-899.103 114.673,-892.985 114,-887 112.972,-877.856 112.488,-868.452 112.435,-858.972"/>
<polygon fill="none" stroke="#404040" points="112.435,-858.934 108.513,-852.883 112.59,-846.935 116.512,-852.986 112.435,-858.934"/>
<text text-anchor="middle" x="125" y="-879" font-family="Helvetica,sans-Serif" font-size="10.00"> &#45;last</text>
<text text-anchor="middle" x="125" y="-868" font-family="Helvetica,sans-Serif" font-size="10.00">&#45;first</text>
</g>
<!-- Node6&#45;&gt;Node3 -->
<g id="edge8" class="edge"><title>Node6&#45;&gt;Node3</title>
<path fill="none" stroke="#404040" d="M99.4703,-569.244C94.2037,-549.912 88.8339,-530.202 83.6903,-511.322"/>
<polygon fill="none" stroke="#404040" points="83.6742,-511.263 78.2377,-506.525 80.5199,-499.685 85.9564,-504.422 83.6742,-511.263"/>
<text text-anchor="middle" x="122" y="-543" font-family="Helvetica,sans-Serif" font-size="10.00"> &#45;updatables</text>
</g>
<!-- Node6&#45;&gt;Node5 -->
<g id="edge6" class="edge"><title>Node6&#45;&gt;Node5</title>
<path fill="none" stroke="#404040" d="M139.691,-846.806C139.798,-852.955 139.902,-859.041 140,-865 140.152,-874.204 140.301,-883.736 140.446,-893.316"/>
<polygon fill="none" stroke="#404040" points="140.448,-893.455 144.536,-899.395 140.626,-905.454 136.537,-899.514 140.448,-893.455"/>
<text text-anchor="middle" x="168" y="-873.5" font-family="Helvetica,sans-Serif" font-size="10.00"> &#45;updatables</text>
</g>
<!-- Node7 -->
<g id="node7" class="node"><title>Node7</title>
<g id="a_node7"><a xlink:href="../../d3/d10/classMIDICNChannelAddress.html" target="_top" xlink:title="A type&#45;safe utility class for saving a MIDI address consisting of a 7&#45;bit address,...">
<polygon fill="white" stroke="black" points="122,-266.5 122,-521.5 262,-521.5 262,-266.5 122,-266.5"/>
<text text-anchor="middle" x="192" y="-509.5" font-family="Helvetica,sans-Serif" font-size="10.00">MIDICNChannelAddress</text>
<polyline fill="none" stroke="black" points="122,-502.5 262,-502.5 "/>
<text text-anchor="start" x="130" y="-490.5" font-family="Helvetica,sans-Serif" font-size="10.00">&#45; addresses</text>
<polyline fill="none" stroke="black" points="122,-483.5 262,-483.5 "/>
<text text-anchor="start" x="130" y="-471.5" font-family="Helvetica,sans-Serif" font-size="10.00">+ MIDICNChannelAddress()</text>
<text text-anchor="start" x="130" y="-460.5" font-family="Helvetica,sans-Serif" font-size="10.00">+ MIDICNChannelAddress()</text>
<text text-anchor="start" x="130" y="-449.5" font-family="Helvetica,sans-Serif" font-size="10.00">+ MIDICNChannelAddress()</text>
<text text-anchor="start" x="130" y="-438.5" font-family="Helvetica,sans-Serif" font-size="10.00">+ MIDICNChannelAddress()</text>
<text text-anchor="start" x="130" y="-427.5" font-family="Helvetica,sans-Serif" font-size="10.00">+ MIDICNChannelAddress()</text>
<text text-anchor="start" x="130" y="-416.5" font-family="Helvetica,sans-Serif" font-size="10.00">+ operator+=()</text>
<text text-anchor="start" x="130" y="-405.5" font-family="Helvetica,sans-Serif" font-size="10.00">+ operator&#45;=()</text>
<text text-anchor="start" x="130" y="-394.5" font-family="Helvetica,sans-Serif" font-size="10.00">+ operator+()</text>
<text text-anchor="start" x="130" y="-383.5" font-family="Helvetica,sans-Serif" font-size="10.00">+ operator&#45;()</text>
<text text-anchor="start" x="130" y="-372.5" font-family="Helvetica,sans-Serif" font-size="10.00">+ operator==()</text>
<text text-anchor="start" x="130" y="-361.5" font-family="Helvetica,sans-Serif" font-size="10.00">+ operator!=()</text>
<text text-anchor="start" x="130" y="-350.5" font-family="Helvetica,sans-Serif" font-size="10.00">+ getAddress()</text>
<text text-anchor="start" x="130" y="-339.5" font-family="Helvetica,sans-Serif" font-size="10.00">+ getChannel()</text>
<text text-anchor="start" x="130" y="-328.5" font-family="Helvetica,sans-Serif" font-size="10.00">+ getRawChannel()</text>
<text text-anchor="start" x="130" y="-317.5" font-family="Helvetica,sans-Serif" font-size="10.00">+ getCableNumber()</text>
<text text-anchor="start" x="130" y="-306.5" font-family="Helvetica,sans-Serif" font-size="10.00">+ isValid()</text>
<text text-anchor="start" x="130" y="-295.5" font-family="Helvetica,sans-Serif" font-size="10.00">+ operator bool()</text>
<text text-anchor="start" x="130" y="-284.5" font-family="Helvetica,sans-Serif" font-size="10.00">+ matchSingle()</text>
<text text-anchor="start" x="130" y="-273.5" font-family="Helvetica,sans-Serif" font-size="10.00">+ matchAddressInRange()</text>
</a>
</g>
</g>
<!-- Node7&#45;&gt;Node2 -->
<g id="edge9" class="edge"><title>Node7&#45;&gt;Node2</title>
<path fill="none" stroke="#404040" d="M229.766,-266.214C233.432,-253.906 237.058,-241.734 240.481,-230.244"/>
<polygon fill="none" stroke="#404040" points="240.541,-230.04 238.421,-223.148 243.967,-218.539 246.088,-225.431 240.541,-230.04"/>
<text text-anchor="middle" x="258.5" y="-240" font-family="Helvetica,sans-Serif" font-size="10.00"> &#45;address</text>
</g>
<!-- Node8 -->
<g id="node8" class="node"><title>Node8</title>
<g id="a_node8"><a xlink:href="../../d5/db5/classDigitalCCSender.html" target="_top" xlink:title=" ">
<polygon fill="white" stroke="black" points="280.5,-327 280.5,-461 385.5,-461 385.5,-327 280.5,-327"/>
<text text-anchor="middle" x="333" y="-449" font-family="Helvetica,sans-Serif" font-size="10.00">DigitalCCSender</text>
<polyline fill="none" stroke="black" points="280.5,-442 385.5,-442 "/>
<text text-anchor="start" x="288.5" y="-430" font-family="Helvetica,sans-Serif" font-size="10.00">&#45; onValue</text>
<text text-anchor="start" x="288.5" y="-419" font-family="Helvetica,sans-Serif" font-size="10.00">&#45; offValue</text>
<polyline fill="none" stroke="black" points="280.5,-412 385.5,-412 "/>
<text text-anchor="start" x="288.5" y="-400" font-family="Helvetica,sans-Serif" font-size="10.00">+ DigitalCCSender()</text>
<text text-anchor="start" x="288.5" y="-389" font-family="Helvetica,sans-Serif" font-size="10.00">+ sendOn()</text>
<text text-anchor="start" x="288.5" y="-378" font-family="Helvetica,sans-Serif" font-size="10.00">+ sendOff()</text>
<text text-anchor="start" x="288.5" y="-367" font-family="Helvetica,sans-Serif" font-size="10.00">+ getOnValue()</text>
<text text-anchor="start" x="288.5" y="-356" font-family="Helvetica,sans-Serif" font-size="10.00">+ setOnValue()</text>
<text text-anchor="start" x="288.5" y="-345" font-family="Helvetica,sans-Serif" font-size="10.00">+ getOffValue()</text>
<text text-anchor="start" x="288.5" y="-334" font-family="Helvetica,sans-Serif" font-size="10.00">+ setOffValue()</text>
</a>
</g>
</g>
<!-- Node8&#45;&gt;Node2 -->
<g id="edge10" class="edge"><title>Node8&#45;&gt;Node2</title>
<path fill="none" stroke="#404040" d="M313.034,-326.914C303.941,-296.82 293.155,-261.12 283.847,-230.311"/>
<polygon fill="none" stroke="#404040" points="283.829,-230.251 278.265,-225.665 280.359,-218.764 285.923,-223.351 283.829,-230.251"/>
<text text-anchor="middle" x="309.5" y="-240" font-family="Helvetica,sans-Serif" font-size="10.00"> +sender</text>
</g>
<!-- Node9 -->
<g id="node9" class="node"><title>Node9</title>
<g id="a_node9"><a xlink:href="../../d1/d19/classButton.html" target="_top" xlink:title="A class for reading and debouncing buttons and switches.">
<polygon fill="white" stroke="black" points="404,-305 404,-483 500,-483 500,-305 404,-305"/>
<text text-anchor="middle" x="452" y="-471" font-family="Helvetica,sans-Serif" font-size="10.00">Button</text>
<polyline fill="none" stroke="black" points="404,-464 500,-464 "/>
<text text-anchor="start" x="412" y="-452" font-family="Helvetica,sans-Serif" font-size="10.00">&#45; pin</text>
<text text-anchor="start" x="412" y="-441" font-family="Helvetica,sans-Serif" font-size="10.00">&#45; prevState</text>
<text text-anchor="start" x="412" y="-430" font-family="Helvetica,sans-Serif" font-size="10.00">&#45; debouncedState</text>
<text text-anchor="start" x="412" y="-419" font-family="Helvetica,sans-Serif" font-size="10.00">&#45; prevBounceTime</text>
<text text-anchor="start" x="412" y="-408" font-family="Helvetica,sans-Serif" font-size="10.00">&#45; invertState</text>
<text text-anchor="start" x="412" y="-397" font-family="Helvetica,sans-Serif" font-size="10.00">&#45; debounceTime</text>
<polyline fill="none" stroke="black" points="404,-390 500,-390 "/>
<text text-anchor="start" x="412" y="-378" font-family="Helvetica,sans-Serif" font-size="10.00">+ Button()</text>
<text text-anchor="start" x="412" y="-367" font-family="Helvetica,sans-Serif" font-size="10.00">+ Button()</text>
<text text-anchor="start" x="412" y="-356" font-family="Helvetica,sans-Serif" font-size="10.00">+ begin()</text>
<text text-anchor="start" x="412" y="-345" font-family="Helvetica,sans-Serif" font-size="10.00">+ invert()</text>
<text text-anchor="start" x="412" y="-334" font-family="Helvetica,sans-Serif" font-size="10.00">+ getState()</text>
<text text-anchor="start" x="412" y="-323" font-family="Helvetica,sans-Serif" font-size="10.00">+ stableTime()</text>
<text text-anchor="start" x="412" y="-312" font-family="Helvetica,sans-Serif" font-size="10.00">+ getName()</text>
</a>
</g>
</g>
<!-- Node9&#45;&gt;Node2 -->
<g id="edge11" class="edge"><title>Node9&#45;&gt;Node2</title>
<path fill="none" stroke="#404040" d="M418.195,-304.912C411.177,-291.269 403.101,-277.806 394,-266 376.046,-242.711 352.157,-221.237 329.639,-203.676"/>
<polygon fill="none" stroke="#404040" points="329.635,-203.673 322.439,-203.215 320.094,-196.395 327.291,-196.854 329.635,-203.673"/>
<text text-anchor="middle" x="393" y="-240" font-family="Helvetica,sans-Serif" font-size="10.00"> &#45;button</text>
</g>
</g>
</svg>
