<?xml version="1.0" encoding="UTF-8" standalone="no"?>
<!DOCTYPE svg PUBLIC "-//W3C//DTD SVG 1.1//EN"
 "http://www.w3.org/Graphics/SVG/1.1/DTD/svg11.dtd">
<!-- Generated by graphviz version 2.38.0 (20140413.2041)
 -->
<!-- Title: NoteButtonMatrix.hpp Pages: 1 -->
<svg width="1679pt" height="699pt"
 viewBox="0.00 0.00 1678.50 699.00" xmlns="http://www.w3.org/2000/svg" xmlns:xlink="http://www.w3.org/1999/xlink">
<g id="graph0" class="graph" transform="scale(1 1) rotate(0) translate(4 695)">
<title>NoteButtonMatrix.hpp</title>
<polygon fill="white" stroke="none" points="-4,4 -4,-695 1674.5,-695 1674.5,4 -4,4"/>
<!-- Node0 -->
<g id="node1" class="node"><title>Node0</title>
<g id="a_node1"><a xlink:title=" ">
<polygon fill="#bfbfbf" stroke="black" points="699,-671.5 699,-690.5 811,-690.5 811,-671.5 699,-671.5"/>
<text text-anchor="middle" x="755" y="-678.5" font-family="Helvetica,sans-Serif" font-size="10.00">NoteButtonMatrix.hpp</text>
</a>
</g>
</g>
<!-- Node1 -->
<g id="node2" class="node"><title>Node1</title>
<g id="a_node2"><a xlink:href="../../d5/d5e/Bankable_2Abstract_2MIDIButtonMatrix_8hpp.html" target="_top" xlink:title=" ">
<polygon fill="white" stroke="black" points="393.5,-604.5 393.5,-634.5 548.5,-634.5 548.5,-604.5 393.5,-604.5"/>
<text text-anchor="start" x="401.5" y="-622.5" font-family="Helvetica,sans-Serif" font-size="10.00">MIDI_Outputs/Bankable</text>
<text text-anchor="middle" x="471" y="-611.5" font-family="Helvetica,sans-Serif" font-size="10.00">/Abstract/MIDIButtonMatrix.hpp</text>
</a>
</g>
</g>
<!-- Node0&#45;&gt;Node1 -->
<g id="edge1" class="edge"><title>Node0&#45;&gt;Node1</title>
<path fill="none" stroke="midnightblue" d="M714.31,-671.475C670.993,-662.4 601.432,-647.826 547.76,-636.582"/>
<polygon fill="midnightblue" stroke="midnightblue" points="548.438,-633.148 537.933,-634.523 547.003,-639.999 548.438,-633.148"/>
</g>
<!-- Node31 -->
<g id="node32" class="node"><title>Node31</title>
<g id="a_node32"><a xlink:href="../../d1/daa/DigitalNoteSender_8hpp.html" target="_top" xlink:title=" ">
<polygon fill="white" stroke="black" points="973.5,-604.5 973.5,-634.5 1104.5,-634.5 1104.5,-604.5 973.5,-604.5"/>
<text text-anchor="start" x="981.5" y="-622.5" font-family="Helvetica,sans-Serif" font-size="10.00">MIDI_Senders/DigitalNote</text>
<text text-anchor="middle" x="1039" y="-611.5" font-family="Helvetica,sans-Serif" font-size="10.00">Sender.hpp</text>
</a>
</g>
</g>
<!-- Node0&#45;&gt;Node31 -->
<g id="edge58" class="edge"><title>Node0&#45;&gt;Node31</title>
<path fill="none" stroke="midnightblue" d="M795.69,-671.475C839.368,-662.324 909.729,-647.583 963.578,-636.301"/>
<polygon fill="midnightblue" stroke="midnightblue" points="964.361,-639.713 973.431,-634.237 962.926,-632.862 964.361,-639.713"/>
</g>
<!-- Node2 -->
<g id="node3" class="node"><title>Node2</title>
<g id="a_node3"><a xlink:href="../../db/df2/BankableMIDIOutput_8hpp.html" target="_top" xlink:title=" ">
<polygon fill="white" stroke="black" points="647,-543 647,-562 805,-562 805,-543 647,-543"/>
<text text-anchor="middle" x="726" y="-550" font-family="Helvetica,sans-Serif" font-size="10.00">Banks/BankableMIDIOutput.hpp</text>
</a>
</g>
</g>
<!-- Node1&#45;&gt;Node2 -->
<g id="edge2" class="edge"><title>Node1&#45;&gt;Node2</title>
<path fill="none" stroke="midnightblue" d="M526.017,-604.476C572.916,-592.521 639.407,-575.573 682.62,-564.558"/>
<polygon fill="midnightblue" stroke="midnightblue" points="683.716,-567.89 692.541,-562.029 681.987,-561.107 683.716,-567.89"/>
</g>
<!-- Node7 -->
<g id="node8" class="node"><title>Node7</title>
<g id="a_node8"><a xlink:href="../../d0/d4e/Def_8hpp.html" target="_top" xlink:title=" ">
<polygon fill="white" stroke="black" points="821,-112.5 821,-131.5 891,-131.5 891,-112.5 821,-112.5"/>
<text text-anchor="middle" x="856" y="-119.5" font-family="Helvetica,sans-Serif" font-size="10.00">Def/Def.hpp</text>
</a>
</g>
</g>
<!-- Node1&#45;&gt;Node7 -->
<g id="edge40" class="edge"><title>Node1&#45;&gt;Node7</title>
<path fill="none" stroke="midnightblue" d="M461.595,-604.133C447.112,-580.582 421,-531.835 421,-486.5 421,-486.5 421,-486.5 421,-417.5 421,-297.363 421.419,-228.858 525,-168 572.495,-140.095 731.773,-128.825 810.778,-124.867"/>
<polygon fill="midnightblue" stroke="midnightblue" points="811.097,-128.356 820.916,-124.378 810.759,-121.364 811.097,-128.356"/>
</g>
<!-- Node11 -->
<g id="node12" class="node"><title>Node11</title>
<g id="a_node12"><a xlink:href="../../de/d76/Array_8hpp.html" target="_top" xlink:title=" ">
<polygon fill="white" stroke="black" points="697.5,-56.5 697.5,-75.5 792.5,-75.5 792.5,-56.5 697.5,-56.5"/>
<text text-anchor="middle" x="745" y="-63.5" font-family="Helvetica,sans-Serif" font-size="10.00">Helpers/Array.hpp</text>
</a>
</g>
</g>
<!-- Node1&#45;&gt;Node11 -->
<g id="edge48" class="edge"><title>Node1&#45;&gt;Node11</title>
<path fill="none" stroke="midnightblue" d="M393.488,-612.813C259.788,-600.854 0,-567.228 0,-486.5 0,-486.5 0,-486.5 0,-177 0,-107.618 512.224,-77.6667 687.214,-69.4589"/>
<polygon fill="midnightblue" stroke="midnightblue" points="687.436,-72.9525 697.264,-68.9942 687.113,-65.96 687.436,-72.9525"/>
</g>
<!-- Node25 -->
<g id="node26" class="node"><title>Node25</title>
<g id="a_node26"><a xlink:href="../../d9/d4b/ButtonMatrix_8hpp.html" target="_top" xlink:title=" ">
<polygon fill="white" stroke="black" points="239,-291.5 239,-310.5 375,-310.5 375,-291.5 239,-291.5"/>
<text text-anchor="middle" x="307" y="-298.5" font-family="Helvetica,sans-Serif" font-size="10.00">Hardware/ButtonMatrix.hpp</text>
</a>
</g>
</g>
<!-- Node1&#45;&gt;Node25 -->
<g id="edge41" class="edge"><title>Node1&#45;&gt;Node25</title>
<path fill="none" stroke="midnightblue" d="M442.093,-604.394C404.894,-583.975 345,-542.417 345,-486.5 345,-486.5 345,-486.5 345,-417.5 345,-381.254 327.905,-341.671 316.647,-319.533"/>
<polygon fill="midnightblue" stroke="midnightblue" points="319.73,-317.875 311.968,-310.663 313.539,-321.141 319.73,-317.875"/>
</g>
<!-- Node29 -->
<g id="node30" class="node"><title>Node29</title>
<g id="a_node30"><a xlink:href="../../d1/d41/MIDIOutputElement_8hpp.html" target="_top" xlink:title=" ">
<polygon fill="white" stroke="black" points="484.5,-470.5 484.5,-500.5 609.5,-500.5 609.5,-470.5 484.5,-470.5"/>
<text text-anchor="start" x="492.5" y="-488.5" font-family="Helvetica,sans-Serif" font-size="10.00">MIDI_Outputs/Abstract</text>
<text text-anchor="middle" x="547" y="-477.5" font-family="Helvetica,sans-Serif" font-size="10.00">/MIDIOutputElement.hpp</text>
</a>
</g>
</g>
<!-- Node1&#45;&gt;Node29 -->
<g id="edge49" class="edge"><title>Node1&#45;&gt;Node29</title>
<path fill="none" stroke="midnightblue" d="M479.133,-604.374C492.218,-581.647 518.067,-536.752 533.814,-509.402"/>
<polygon fill="midnightblue" stroke="midnightblue" points="536.969,-510.937 538.925,-500.525 530.902,-507.445 536.969,-510.937"/>
</g>
<!-- Node3 -->
<g id="node4" class="node"><title>Node3</title>
<g id="a_node4"><a xlink:href="../../d4/d57/Bank_8hpp.html" target="_top" xlink:title=" ">
<polygon fill="white" stroke="black" points="922,-476 922,-495 980,-495 980,-476 922,-476"/>
<text text-anchor="middle" x="951" y="-483" font-family="Helvetica,sans-Serif" font-size="10.00">Bank.hpp</text>
</a>
</g>
</g>
<!-- Node2&#45;&gt;Node3 -->
<g id="edge3" class="edge"><title>Node2&#45;&gt;Node3</title>
<path fill="none" stroke="midnightblue" d="M755.878,-542.869C796.025,-531.271 867.456,-510.635 911.857,-497.808"/>
<polygon fill="midnightblue" stroke="midnightblue" points="913.077,-501.099 921.713,-494.961 911.135,-494.374 913.077,-501.099"/>
</g>
<!-- Node23 -->
<g id="node24" class="node"><title>Node23</title>
<g id="a_node24"><a xlink:href="../../dd/d1f/BankConfig_8hpp.html" target="_top" xlink:title=" ">
<polygon fill="white" stroke="black" points="601,-347.5 601,-366.5 687,-366.5 687,-347.5 601,-347.5"/>
<text text-anchor="middle" x="644" y="-354.5" font-family="Helvetica,sans-Serif" font-size="10.00">BankConfig.hpp</text>
</a>
</g>
</g>
<!-- Node2&#45;&gt;Node23 -->
<g id="edge38" class="edge"><title>Node2&#45;&gt;Node23</title>
<path fill="none" stroke="midnightblue" d="M722.371,-542.936C709.939,-513.6 668.891,-416.736 651.69,-376.146"/>
<polygon fill="midnightblue" stroke="midnightblue" points="654.899,-374.749 647.774,-366.907 648.454,-377.48 654.899,-374.749"/>
</g>
<!-- Node24 -->
<g id="node25" class="node"><title>Node24</title>
<g id="a_node25"><a xlink:href="../../d8/d38/MIDICNChannelAddress_8hpp.html" target="_top" xlink:title=" ">
<polygon fill="white" stroke="black" points="705.5,-347.5 705.5,-366.5 868.5,-366.5 868.5,-347.5 705.5,-347.5"/>
<text text-anchor="middle" x="787" y="-354.5" font-family="Helvetica,sans-Serif" font-size="10.00">Def/MIDICNChannelAddress.hpp</text>
</a>
</g>
</g>
<!-- Node2&#45;&gt;Node24 -->
<g id="edge39" class="edge"><title>Node2&#45;&gt;Node24</title>
<path fill="none" stroke="midnightblue" d="M727.502,-542.924C731.696,-519.818 744.517,-454.526 764,-403 767.53,-393.665 772.464,-383.741 776.857,-375.595"/>
<polygon fill="midnightblue" stroke="midnightblue" points="780.004,-377.137 781.817,-366.699 773.89,-373.728 780.004,-377.137"/>
</g>
<!-- Node4 -->
<g id="node5" class="node"><title>Node4</title>
<g id="a_node5"><a xlink:href="../../df/dee/Debug_8hpp.html" target="_top" xlink:title=" ">
<polygon fill="white" stroke="black" points="948.5,-291.5 948.5,-310.5 1049.5,-310.5 1049.5,-291.5 948.5,-291.5"/>
<text text-anchor="middle" x="999" y="-298.5" font-family="Helvetica,sans-Serif" font-size="10.00">Helpers/Debug.hpp</text>
</a>
</g>
</g>
<!-- Node3&#45;&gt;Node4 -->
<g id="edge4" class="edge"><title>Node3&#45;&gt;Node4</title>
<path fill="none" stroke="midnightblue" d="M949.088,-475.99C944.511,-453.704 934.682,-392.235 954,-347 959.05,-335.175 968.808,-324.802 977.95,-317.004"/>
<polygon fill="midnightblue" stroke="midnightblue" points="980.363,-319.558 986.02,-310.599 976.011,-314.075 980.363,-319.558"/>
</g>
<!-- Node16 -->
<g id="node17" class="node"><title>Node16</title>
<g id="a_node17"><a xlink:href="../../d1/d93/Error_8hpp.html" target="_top" xlink:title=" ">
<polygon fill="white" stroke="black" points="963.5,-347.5 963.5,-366.5 1056.5,-366.5 1056.5,-347.5 963.5,-347.5"/>
<text text-anchor="middle" x="1010" y="-354.5" font-family="Helvetica,sans-Serif" font-size="10.00">Helpers/Error.hpp</text>
</a>
</g>
</g>
<!-- Node3&#45;&gt;Node16 -->
<g id="edge19" class="edge"><title>Node3&#45;&gt;Node16</title>
<path fill="none" stroke="midnightblue" d="M955.055,-475.805C964.613,-455.313 988.711,-403.645 1001.59,-376.042"/>
<polygon fill="midnightblue" stroke="midnightblue" points="1004.86,-377.298 1005.92,-366.756 998.517,-374.339 1004.86,-377.298"/>
</g>
<!-- Node17 -->
<g id="node18" class="node"><title>Node17</title>
<g id="a_node18"><a xlink:href="../../de/dd1/LinkedList_8hpp.html" target="_top" xlink:title=" ">
<polygon fill="white" stroke="black" points="1074,-347.5 1074,-366.5 1190,-366.5 1190,-347.5 1074,-347.5"/>
<text text-anchor="middle" x="1132" y="-354.5" font-family="Helvetica,sans-Serif" font-size="10.00">Helpers/LinkedList.hpp</text>
</a>
</g>
</g>
<!-- Node3&#45;&gt;Node17 -->
<g id="edge21" class="edge"><title>Node3&#45;&gt;Node17</title>
<path fill="none" stroke="midnightblue" d="M963.441,-475.805C994.053,-454.411 1073.29,-399.032 1111.2,-372.538"/>
<polygon fill="midnightblue" stroke="midnightblue" points="1113.28,-375.353 1119.47,-366.756 1109.27,-369.615 1113.28,-375.353"/>
</g>
<!-- Node20 -->
<g id="node21" class="node"><title>Node20</title>
<g id="a_node21"><a xlink:href="../../d9/d46/Selectable_8hpp.html" target="_top" xlink:title=" ">
<polygon fill="white" stroke="black" points="1180.5,-409 1180.5,-428 1305.5,-428 1305.5,-409 1180.5,-409"/>
<text text-anchor="middle" x="1243" y="-416" font-family="Helvetica,sans-Serif" font-size="10.00">Selectors/Selectable.hpp</text>
</a>
</g>
</g>
<!-- Node3&#45;&gt;Node20 -->
<g id="edge25" class="edge"><title>Node3&#45;&gt;Node20</title>
<path fill="none" stroke="midnightblue" d="M980.066,-478.03C1030.21,-466.867 1133.48,-443.879 1194.62,-430.27"/>
<polygon fill="midnightblue" stroke="midnightblue" points="1195.42,-433.678 1204.42,-428.089 1193.9,-426.845 1195.42,-433.678"/>
</g>
<!-- Node22 -->
<g id="node23" class="node"><title>Node22</title>
<g id="a_node23"><a xlink:href="../../de/d6e/BankableMIDIInput_8hpp.html" target="_top" xlink:title=" ">
<polygon fill="white" stroke="black" points="773,-409 773,-428 923,-428 923,-409 773,-409"/>
<text text-anchor="middle" x="848" y="-416" font-family="Helvetica,sans-Serif" font-size="10.00">Banks/BankableMIDIInput.hpp</text>
</a>
</g>
</g>
<!-- Node3&#45;&gt;Node22 -->
<g id="edge30" class="edge"><title>Node3&#45;&gt;Node22</title>
<path fill="none" stroke="midnightblue" d="M932.32,-475.734C913.076,-465.013 883.773,-446.716 865.122,-433.914"/>
<polygon fill="midnightblue" stroke="midnightblue" points="867.102,-431.028 856.912,-428.127 863.069,-436.749 867.102,-431.028"/>
</g>
<!-- Node5 -->
<g id="node6" class="node"><title>Node5</title>
<g id="a_node6"><a xlink:href="../../d2/dd5/SettingsWrapper_8hpp.html" target="_top" xlink:title=" ">
<polygon fill="white" stroke="black" points="744.5,-230 744.5,-249 891.5,-249 891.5,-230 744.5,-230"/>
<text text-anchor="middle" x="818" y="-237" font-family="Helvetica,sans-Serif" font-size="10.00">Settings/SettingsWrapper.hpp</text>
</a>
</g>
</g>
<!-- Node4&#45;&gt;Node5 -->
<g id="edge5" class="edge"><title>Node4&#45;&gt;Node5</title>
<path fill="none" stroke="midnightblue" d="M968.167,-291.475C934.748,-281.225 882.018,-263.959 848.672,-252.399"/>
<polygon fill="midnightblue" stroke="midnightblue" points="849.582,-249.01 838.988,-249.009 847.269,-255.617 849.582,-249.01"/>
</g>
<!-- Node14 -->
<g id="node15" class="node"><title>Node14</title>
<g id="a_node15"><a xlink:href="../../dd/d80/PrintStream_8hpp.html" target="_top" xlink:title=" ">
<polygon fill="white" stroke="black" points="1044.5,-230 1044.5,-249 1131.5,-249 1131.5,-230 1044.5,-230"/>
<text text-anchor="middle" x="1088" y="-237" font-family="Helvetica,sans-Serif" font-size="10.00">PrintStream.hpp</text>
</a>
</g>
</g>
<!-- Node4&#45;&gt;Node14 -->
<g id="edge17" class="edge"><title>Node4&#45;&gt;Node14</title>
<path fill="none" stroke="midnightblue" d="M1011.75,-291.475C1026.03,-281.931 1049.4,-266.307 1066.51,-254.868"/>
<polygon fill="midnightblue" stroke="midnightblue" points="1068.9,-257.477 1075.27,-249.009 1065.01,-251.657 1068.9,-257.477"/>
</g>
<!-- Node5&#45;&gt;Node4 -->
<g id="edge16" class="edge"><title>Node5&#45;&gt;Node4</title>
<path fill="none" stroke="midnightblue" d="M848.782,-249.009C882.18,-259.252 934.91,-276.517 968.277,-288.083"/>
<polygon fill="midnightblue" stroke="midnightblue" points="967.373,-291.474 977.968,-291.475 969.686,-284.868 967.373,-291.474"/>
</g>
<!-- Node6 -->
<g id="node7" class="node"><title>Node6</title>
<g id="a_node7"><a xlink:href="../../db/d02/Settings_8hpp.html" target="_top" xlink:title="All user settings and debugging options can be changed here.">
<polygon fill="white" stroke="black" points="820.5,-168.5 820.5,-187.5 891.5,-187.5 891.5,-168.5 820.5,-168.5"/>
<text text-anchor="middle" x="856" y="-175.5" font-family="Helvetica,sans-Serif" font-size="10.00">Settings.hpp</text>
</a>
</g>
</g>
<!-- Node5&#45;&gt;Node6 -->
<g id="edge6" class="edge"><title>Node5&#45;&gt;Node6</title>
<path fill="none" stroke="midnightblue" d="M823.444,-229.975C829.088,-221.138 838.061,-207.089 845.159,-195.975"/>
<polygon fill="midnightblue" stroke="midnightblue" points="848.133,-197.821 850.566,-187.509 842.233,-194.053 848.133,-197.821"/>
</g>
<!-- Node13 -->
<g id="node14" class="node"><title>Node13</title>
<g id="a_node14"><a xlink:href="../../d9/d98/TeensyUSBTypes_8hpp.html" target="_top" xlink:title=" ">
<polygon fill="white" stroke="black" points="650,-168.5 650,-187.5 802,-187.5 802,-168.5 650,-168.5"/>
<text text-anchor="middle" x="726" y="-175.5" font-family="Helvetica,sans-Serif" font-size="10.00">Helpers/TeensyUSBTypes.hpp</text>
</a>
</g>
</g>
<!-- Node5&#45;&gt;Node13 -->
<g id="edge15" class="edge"><title>Node5&#45;&gt;Node13</title>
<path fill="none" stroke="midnightblue" d="M804.819,-229.975C789.926,-220.343 765.456,-204.517 747.727,-193.052"/>
<polygon fill="midnightblue" stroke="midnightblue" points="749.455,-190.001 739.157,-187.509 745.653,-195.879 749.455,-190.001"/>
</g>
<!-- Node6&#45;&gt;Node7 -->
<g id="edge7" class="edge"><title>Node6&#45;&gt;Node7</title>
<path fill="none" stroke="midnightblue" d="M856,-168.083C856,-161.006 856,-150.861 856,-141.986"/>
<polygon fill="midnightblue" stroke="midnightblue" points="859.5,-141.751 856,-131.751 852.5,-141.751 859.5,-141.751"/>
</g>
<!-- Node8 -->
<g id="node9" class="node"><title>Node8</title>
<g id="a_node9"><a xlink:href="../../d7/d42/Channel_8hpp.html" target="_top" xlink:title=" ">
<polygon fill="white" stroke="black" points="1290.5,-56.5 1290.5,-75.5 1361.5,-75.5 1361.5,-56.5 1290.5,-56.5"/>
<text text-anchor="middle" x="1326" y="-63.5" font-family="Helvetica,sans-Serif" font-size="10.00">Channel.hpp</text>
</a>
</g>
</g>
<!-- Node7&#45;&gt;Node8 -->
<g id="edge8" class="edge"><title>Node7&#45;&gt;Node8</title>
<path fill="none" stroke="midnightblue" d="M891.326,-116.941C975.281,-107.295 1186.7,-83.0043 1280.25,-72.2561"/>
<polygon fill="midnightblue" stroke="midnightblue" points="1280.73,-75.7245 1290.26,-71.1059 1279.93,-68.7703 1280.73,-75.7245"/>
</g>
<!-- Node9 -->
<g id="node10" class="node"><title>Node9</title>
<g id="a_node10"><a xlink:title=" ">
<polygon fill="white" stroke="#bfbfbf" points="1403.5,-0.5 1403.5,-19.5 1452.5,-19.5 1452.5,-0.5 1403.5,-0.5"/>
<text text-anchor="middle" x="1428" y="-7.5" font-family="Helvetica,sans-Serif" font-size="10.00">stdint.h</text>
</a>
</g>
</g>
<!-- Node7&#45;&gt;Node9 -->
<g id="edge14" class="edge"><title>Node7&#45;&gt;Node9</title>
<path fill="none" stroke="midnightblue" d="M891.349,-114.202C994.035,-94.4549 1291.46,-37.2577 1393.31,-17.6715"/>
<polygon fill="midnightblue" stroke="midnightblue" points="1394.21,-21.0623 1403.37,-15.7367 1392.89,-14.1882 1394.21,-21.0623"/>
</g>
<!-- Node10 -->
<g id="node11" class="node"><title>Node10</title>
<g id="a_node11"><a xlink:href="../../dc/d50/Frequency_8hpp.html" target="_top" xlink:title=" ">
<polygon fill="white" stroke="black" points="849.5,-56.5 849.5,-75.5 930.5,-75.5 930.5,-56.5 849.5,-56.5"/>
<text text-anchor="middle" x="890" y="-63.5" font-family="Helvetica,sans-Serif" font-size="10.00">Frequency.hpp</text>
</a>
</g>
</g>
<!-- Node7&#45;&gt;Node10 -->
<g id="edge10" class="edge"><title>Node7&#45;&gt;Node10</title>
<path fill="none" stroke="midnightblue" d="M861.614,-112.083C866.367,-104.534 873.318,-93.4948 879.152,-84.2298"/>
<polygon fill="midnightblue" stroke="midnightblue" points="882.124,-86.0783 884.49,-75.7511 876.2,-82.3486 882.124,-86.0783"/>
</g>
<!-- Node7&#45;&gt;Node11 -->
<g id="edge11" class="edge"><title>Node7&#45;&gt;Node11</title>
<path fill="none" stroke="midnightblue" d="M838.166,-112.324C820.284,-103.625 792.525,-90.1202 771.954,-80.113"/>
<polygon fill="midnightblue" stroke="midnightblue" points="773.313,-76.8819 762.79,-75.6545 770.251,-83.1765 773.313,-76.8819"/>
</g>
<!-- Node12 -->
<g id="node13" class="node"><title>Node12</title>
<g id="a_node13"><a xlink:title=" ">
<polygon fill="white" stroke="#bfbfbf" points="757,-0.5 757,-19.5 809,-19.5 809,-0.5 757,-0.5"/>
<text text-anchor="middle" x="783" y="-7.5" font-family="Helvetica,sans-Serif" font-size="10.00">stddef.h</text>
</a>
</g>
</g>
<!-- Node7&#45;&gt;Node12 -->
<g id="edge13" class="edge"><title>Node7&#45;&gt;Node12</title>
<path fill="none" stroke="midnightblue" d="M850.272,-112.368C838.225,-94.2153 810.077,-51.8015 794.275,-27.9902"/>
<polygon fill="midnightblue" stroke="midnightblue" points="797.147,-25.9882 788.702,-19.5914 791.315,-29.8589 797.147,-25.9882"/>
</g>
<!-- Node8&#45;&gt;Node9 -->
<g id="edge9" class="edge"><title>Node8&#45;&gt;Node9</title>
<path fill="none" stroke="midnightblue" d="M1342.39,-56.324C1358.67,-47.7034 1383.87,-34.3643 1402.72,-24.3855"/>
<polygon fill="midnightblue" stroke="midnightblue" points="1404.45,-27.4267 1411.65,-19.6545 1401.18,-21.2402 1404.45,-27.4267"/>
</g>
<!-- Node11&#45;&gt;Node12 -->
<g id="edge12" class="edge"><title>Node11&#45;&gt;Node12</title>
<path fill="none" stroke="midnightblue" d="M751.275,-56.083C756.642,-48.4554 764.518,-37.2645 771.079,-27.9408"/>
<polygon fill="midnightblue" stroke="midnightblue" points="773.949,-29.9434 776.842,-19.7511 768.225,-25.9149 773.949,-29.9434"/>
</g>
<!-- Node15 -->
<g id="node16" class="node"><title>Node15</title>
<g id="a_node16"><a xlink:title=" ">
<polygon fill="white" stroke="#bfbfbf" points="1406,-168.5 1406,-187.5 1464,-187.5 1464,-168.5 1406,-168.5"/>
<text text-anchor="middle" x="1435" y="-175.5" font-family="Helvetica,sans-Serif" font-size="10.00">Arduino.h</text>
</a>
</g>
</g>
<!-- Node14&#45;&gt;Node15 -->
<g id="edge18" class="edge"><title>Node14&#45;&gt;Node15</title>
<path fill="none" stroke="midnightblue" d="M1131.6,-231.025C1199.85,-219.322 1330.84,-196.86 1396.09,-185.672"/>
<polygon fill="midnightblue" stroke="midnightblue" points="1396.71,-189.117 1405.97,-183.977 1395.53,-182.218 1396.71,-189.117"/>
</g>
<!-- Node16&#45;&gt;Node4 -->
<g id="edge20" class="edge"><title>Node16&#45;&gt;Node4</title>
<path fill="none" stroke="midnightblue" d="M1008.18,-347.083C1006.73,-339.927 1004.63,-329.635 1002.81,-320.691"/>
<polygon fill="midnightblue" stroke="midnightblue" points="1006.21,-319.851 1000.78,-310.751 999.349,-321.248 1006.21,-319.851"/>
</g>
<!-- Node17&#45;&gt;Node4 -->
<g id="edge22" class="edge"><title>Node17&#45;&gt;Node4</title>
<path fill="none" stroke="midnightblue" d="M1110.93,-347.444C1088.94,-338.517 1054.27,-324.439 1029.34,-314.317"/>
<polygon fill="midnightblue" stroke="midnightblue" points="1030.56,-311.035 1019.98,-310.516 1027.92,-317.521 1030.56,-311.035"/>
</g>
<!-- Node18 -->
<g id="node19" class="node"><title>Node18</title>
<g id="a_node19"><a xlink:title=" ">
<polygon fill="white" stroke="#bfbfbf" points="1238,-230 1238,-249 1286,-249 1286,-230 1238,-230"/>
<text text-anchor="middle" x="1262" y="-237" font-family="Helvetica,sans-Serif" font-size="10.00">stdlib.h</text>
</a>
</g>
</g>
<!-- Node17&#45;&gt;Node18 -->
<g id="edge23" class="edge"><title>Node17&#45;&gt;Node18</title>
<path fill="none" stroke="midnightblue" d="M1141.77,-347.319C1163.6,-327.921 1216.61,-280.831 1244.37,-256.162"/>
<polygon fill="midnightblue" stroke="midnightblue" points="1246.96,-258.54 1252.12,-249.282 1242.32,-253.307 1246.96,-258.54"/>
</g>
<!-- Node19 -->
<g id="node20" class="node"><title>Node19</title>
<g id="a_node20"><a xlink:title=" ">
<polygon fill="white" stroke="#bfbfbf" points="1108.5,-291.5 1108.5,-310.5 1155.5,-310.5 1155.5,-291.5 1108.5,-291.5"/>
<text text-anchor="middle" x="1132" y="-298.5" font-family="Helvetica,sans-Serif" font-size="10.00">iterator</text>
</a>
</g>
</g>
<!-- Node17&#45;&gt;Node19 -->
<g id="edge24" class="edge"><title>Node17&#45;&gt;Node19</title>
<path fill="none" stroke="midnightblue" d="M1132,-347.083C1132,-340.006 1132,-329.861 1132,-320.986"/>
<polygon fill="midnightblue" stroke="midnightblue" points="1135.5,-320.751 1132,-310.751 1128.5,-320.751 1135.5,-320.751"/>
</g>
<!-- Node20&#45;&gt;Node7 -->
<g id="edge26" class="edge"><title>Node20&#45;&gt;Node7</title>
<path fill="none" stroke="midnightblue" d="M1268.98,-408.853C1287.7,-401.102 1311.58,-387.712 1323,-367 1344.87,-327.323 1393.67,-322.894 1295,-224 1239.65,-168.523 1001.92,-138.008 901.285,-127.372"/>
<polygon fill="midnightblue" stroke="midnightblue" points="901.437,-123.869 891.129,-126.317 900.714,-130.831 901.437,-123.869"/>
</g>
<!-- Node20&#45;&gt;Node9 -->
<g id="edge28" class="edge"><title>Node20&#45;&gt;Node9</title>
<path fill="none" stroke="midnightblue" d="M1268.5,-408.904C1290.45,-400.615 1322.12,-386.461 1345,-367 1419.5,-303.63 1443.13,-281.129 1473,-188 1491.52,-130.268 1457.27,-60.0277 1438.74,-28.1757"/>
<polygon fill="midnightblue" stroke="midnightblue" points="1441.73,-26.3471 1433.58,-19.5794 1435.73,-29.9534 1441.73,-26.3471"/>
</g>
<!-- Node20&#45;&gt;Node16 -->
<g id="edge27" class="edge"><title>Node20&#45;&gt;Node16</title>
<path fill="none" stroke="midnightblue" d="M1209.62,-408.975C1168.44,-398.459 1098.35,-380.562 1053.13,-369.014"/>
<polygon fill="midnightblue" stroke="midnightblue" points="1053.88,-365.592 1043.32,-366.509 1052.14,-372.375 1053.88,-365.592"/>
</g>
<!-- Node21 -->
<g id="node22" class="node"><title>Node21</title>
<g id="a_node22"><a xlink:href="../../d7/dd7/Helpers_8hpp.html" target="_top" xlink:title=" ">
<polygon fill="white" stroke="black" points="1208,-347.5 1208,-366.5 1314,-366.5 1314,-347.5 1208,-347.5"/>
<text text-anchor="middle" x="1261" y="-354.5" font-family="Helvetica,sans-Serif" font-size="10.00">Helpers/Helpers.hpp</text>
</a>
</g>
</g>
<!-- Node20&#45;&gt;Node21 -->
<g id="edge29" class="edge"><title>Node20&#45;&gt;Node21</title>
<path fill="none" stroke="midnightblue" d="M1245.58,-408.975C1248.15,-400.492 1252.17,-387.204 1255.46,-376.322"/>
<polygon fill="midnightblue" stroke="midnightblue" points="1258.88,-377.094 1258.43,-366.509 1252.18,-375.067 1258.88,-377.094"/>
</g>
<!-- Node22&#45;&gt;Node3 -->
<g id="edge31" class="edge"><title>Node22&#45;&gt;Node3</title>
<path fill="none" stroke="midnightblue" d="M866.43,-428.127C885.587,-438.782 914.892,-457.069 933.635,-469.92"/>
<polygon fill="midnightblue" stroke="midnightblue" points="931.705,-472.841 941.897,-475.734 935.734,-467.116 931.705,-472.841"/>
</g>
<!-- Node22&#45;&gt;Node4 -->
<g id="edge36" class="edge"><title>Node22&#45;&gt;Node4</title>
<path fill="none" stroke="midnightblue" d="M855.518,-408.992C868.149,-395 894.825,-366.718 921,-347 937.132,-334.848 956.845,-323.501 972.418,-315.241"/>
<polygon fill="midnightblue" stroke="midnightblue" points="974.25,-318.234 981.51,-310.517 971.022,-312.022 974.25,-318.234"/>
</g>
<!-- Node22&#45;&gt;Node17 -->
<g id="edge37" class="edge"><title>Node22&#45;&gt;Node17</title>
<path fill="none" stroke="midnightblue" d="M888.69,-408.975C939.515,-398.327 1026.47,-380.109 1081.5,-368.581"/>
<polygon fill="midnightblue" stroke="midnightblue" points="1082.32,-371.985 1091.39,-366.509 1080.88,-365.134 1082.32,-371.985"/>
</g>
<!-- Node22&#45;&gt;Node23 -->
<g id="edge32" class="edge"><title>Node22&#45;&gt;Node23</title>
<path fill="none" stroke="midnightblue" d="M818.772,-408.975C783.097,-398.57 722.64,-380.937 683.018,-369.38"/>
<polygon fill="midnightblue" stroke="midnightblue" points="683.754,-365.949 673.174,-366.509 681.794,-372.669 683.754,-365.949"/>
</g>
<!-- Node22&#45;&gt;Node24 -->
<g id="edge34" class="edge"><title>Node22&#45;&gt;Node24</title>
<path fill="none" stroke="midnightblue" d="M839.26,-408.975C829.838,-399.785 814.636,-384.956 803.051,-373.656"/>
<polygon fill="midnightblue" stroke="midnightblue" points="805.326,-370.986 795.724,-366.509 800.438,-375.997 805.326,-370.986"/>
</g>
<!-- Node23&#45;&gt;Node7 -->
<g id="edge33" class="edge"><title>Node23&#45;&gt;Node7</title>
<path fill="none" stroke="midnightblue" d="M640.389,-347.27C628.941,-318.052 596.748,-222.473 641,-168 661.939,-142.225 753.895,-130.693 810.55,-125.954"/>
<polygon fill="midnightblue" stroke="midnightblue" points="811.002,-129.429 820.693,-125.146 810.446,-122.451 811.002,-129.429"/>
</g>
<!-- Node24&#45;&gt;Node7 -->
<g id="edge35" class="edge"><title>Node24&#45;&gt;Node7</title>
<path fill="none" stroke="midnightblue" d="M803.243,-347.495C829.417,-332.748 880.012,-299.673 900,-255 915.792,-219.705 914.596,-203.806 900,-168 895.2,-156.225 885.671,-145.856 876.705,-138.049"/>
<polygon fill="midnightblue" stroke="midnightblue" points="878.755,-135.205 868.781,-131.631 874.35,-140.645 878.755,-135.205"/>
</g>
<!-- Node25&#45;&gt;Node5 -->
<g id="edge42" class="edge"><title>Node25&#45;&gt;Node5</title>
<path fill="none" stroke="midnightblue" d="M375.121,-292.068C468.117,-281.24 634.676,-261.846 734.899,-250.176"/>
<polygon fill="midnightblue" stroke="midnightblue" points="735.456,-253.635 744.985,-249.002 734.647,-246.682 735.456,-253.635"/>
</g>
<!-- Node25&#45;&gt;Node7 -->
<g id="edge43" class="edge"><title>Node25&#45;&gt;Node7</title>
<path fill="none" stroke="midnightblue" d="M319.224,-291.201C331.073,-282.478 349.352,-268.501 364,-255 402.846,-219.194 397.78,-191.694 445,-168 508.166,-136.304 717.325,-126.744 810.514,-124.02"/>
<polygon fill="midnightblue" stroke="midnightblue" points="810.859,-127.512 820.757,-123.734 810.663,-120.514 810.859,-127.512"/>
</g>
<!-- Node25&#45;&gt;Node25 -->
<g id="edge45" class="edge"><title>Node25&#45;&gt;Node25</title>
<path fill="none" stroke="midnightblue" d="M343.679,-310.525C368.602,-313.308 393,-310.133 393,-301 393,-293.116 374.817,-289.672 353.811,-290.668"/>
<polygon fill="midnightblue" stroke="midnightblue" points="353.37,-287.192 343.679,-291.475 353.926,-294.169 353.37,-287.192"/>
</g>
<!-- Node26 -->
<g id="node27" class="node"><title>Node26</title>
<g id="a_node27"><a xlink:title=" ">
<polygon fill="white" stroke="#bfbfbf" points="267,-230 267,-249 355,-249 355,-230 267,-230"/>
<text text-anchor="middle" x="311" y="-237" font-family="Helvetica,sans-Serif" font-size="10.00">ButtonMatrix.ipp</text>
</a>
</g>
</g>
<!-- Node25&#45;&gt;Node26 -->
<g id="edge44" class="edge"><title>Node25&#45;&gt;Node26</title>
<path fill="none" stroke="midnightblue" d="M307.573,-291.475C308.137,-283.08 309.018,-269.981 309.745,-259.163"/>
<polygon fill="midnightblue" stroke="midnightblue" points="313.249,-259.221 310.428,-249.009 306.265,-258.752 313.249,-259.221"/>
</g>
<!-- Node27 -->
<g id="node28" class="node"><title>Node27</title>
<g id="a_node28"><a xlink:title=" ">
<polygon fill="white" stroke="#bfbfbf" points="28,-224.5 28,-254.5 182,-254.5 182,-224.5 28,-224.5"/>
<text text-anchor="start" x="36" y="-242.5" font-family="Helvetica,sans-Serif" font-size="10.00">Hardware/ExtendedInputOutput</text>
<text text-anchor="middle" x="105" y="-231.5" font-family="Helvetica,sans-Serif" font-size="10.00">/ExtendedInputOutput.hpp</text>
</a>
</g>
</g>
<!-- Node25&#45;&gt;Node27 -->
<g id="edge46" class="edge"><title>Node25&#45;&gt;Node27</title>
<path fill="none" stroke="midnightblue" d="M278.058,-291.475C248.016,-282.626 200.224,-268.549 162.469,-257.428"/>
<polygon fill="midnightblue" stroke="midnightblue" points="163.189,-253.991 152.607,-254.523 161.211,-260.706 163.189,-253.991"/>
</g>
<!-- Node28 -->
<g id="node29" class="node"><title>Node28</title>
<g id="a_node29"><a xlink:title=" ">
<polygon fill="white" stroke="#bfbfbf" points="200.5,-230 200.5,-249 249.5,-249 249.5,-230 200.5,-230"/>
<text text-anchor="middle" x="225" y="-237" font-family="Helvetica,sans-Serif" font-size="10.00">string.h</text>
</a>
</g>
</g>
<!-- Node25&#45;&gt;Node28 -->
<g id="edge47" class="edge"><title>Node25&#45;&gt;Node28</title>
<path fill="none" stroke="midnightblue" d="M295.251,-291.475C282.221,-282.02 260.964,-266.596 245.241,-255.187"/>
<polygon fill="midnightblue" stroke="midnightblue" points="246.876,-252.049 236.727,-249.009 242.765,-257.715 246.876,-252.049"/>
</g>
<!-- Node29&#45;&gt;Node7 -->
<g id="edge50" class="edge"><title>Node29&#45;&gt;Node7</title>
<path fill="none" stroke="midnightblue" d="M536.524,-470.117C529.83,-460.345 521.42,-446.899 516,-434 502.513,-401.901 497,-392.817 497,-358 497,-358 497,-358 497,-238.5 497,-193.395 529.625,-188.106 570,-168 611.406,-147.381 741.105,-133.15 810.738,-126.78"/>
<polygon fill="midnightblue" stroke="midnightblue" points="811.32,-130.241 820.967,-125.861 810.694,-123.269 811.32,-130.241"/>
</g>
<!-- Node29&#45;&gt;Node24 -->
<g id="edge51" class="edge"><title>Node29&#45;&gt;Node24</title>
<path fill="none" stroke="midnightblue" d="M576.948,-470.31C597.61,-460.401 625.637,-446.72 650,-434 690.117,-413.055 735.958,-387.233 763.136,-371.72"/>
<polygon fill="midnightblue" stroke="midnightblue" points="764.99,-374.692 771.931,-366.688 761.513,-368.616 764.99,-374.692"/>
</g>
<!-- Node30 -->
<g id="node31" class="node"><title>Node30</title>
<g id="a_node31"><a xlink:href="../../d4/d93/Updatable_8hpp.html" target="_top" xlink:title=" ">
<polygon fill="white" stroke="black" points="525,-409 525,-428 641,-428 641,-409 525,-409"/>
<text text-anchor="middle" x="583" y="-416" font-family="Helvetica,sans-Serif" font-size="10.00">Helpers/Updatable.hpp</text>
</a>
</g>
</g>
<!-- Node29&#45;&gt;Node30 -->
<g id="edge52" class="edge"><title>Node29&#45;&gt;Node30</title>
<path fill="none" stroke="midnightblue" d="M554.811,-470.396C560.202,-460.662 567.411,-447.646 573.189,-437.214"/>
<polygon fill="midnightblue" stroke="midnightblue" points="576.401,-438.638 578.185,-428.195 570.278,-435.247 576.401,-438.638"/>
</g>
<!-- Node30&#45;&gt;Node5 -->
<g id="edge56" class="edge"><title>Node30&#45;&gt;Node5</title>
<path fill="none" stroke="midnightblue" d="M581.623,-408.733C579.868,-394.368 578.503,-365.562 592,-347 631.9,-292.127 707.415,-264.55 760.126,-251.398"/>
<polygon fill="midnightblue" stroke="midnightblue" points="761.107,-254.763 770.018,-249.032 759.478,-247.955 761.107,-254.763"/>
</g>
<!-- Node30&#45;&gt;Node7 -->
<g id="edge53" class="edge"><title>Node30&#45;&gt;Node7</title>
<path fill="none" stroke="midnightblue" d="M576.527,-408.74C563.425,-390.115 535,-344.778 535,-302 535,-302 535,-302 535,-238.5 535,-187.338 579.414,-189.15 626,-168 686.402,-140.577 763.156,-129.832 810.934,-125.644"/>
<polygon fill="midnightblue" stroke="midnightblue" points="811.284,-129.127 820.966,-124.824 810.714,-122.15 811.284,-129.127"/>
</g>
<!-- Node30&#45;&gt;Node12 -->
<g id="edge57" class="edge"><title>Node30&#45;&gt;Node12</title>
<path fill="none" stroke="midnightblue" d="M567.306,-408.938C520.158,-381.941 383,-293.561 383,-179 383,-179 383,-179 383,-121 383,-45.9503 648.095,-20.1934 746.664,-13.2104"/>
<polygon fill="midnightblue" stroke="midnightblue" points="747.017,-16.6945 756.755,-12.5203 746.539,-9.71081 747.017,-16.6945"/>
</g>
<!-- Node30&#45;&gt;Node16 -->
<g id="edge54" class="edge"><title>Node30&#45;&gt;Node16</title>
<path fill="none" stroke="midnightblue" d="M641.032,-409.414C723.034,-397.987 871.869,-377.248 953.198,-365.915"/>
<polygon fill="midnightblue" stroke="midnightblue" points="953.831,-369.361 963.252,-364.514 952.865,-362.428 953.831,-369.361"/>
</g>
<!-- Node30&#45;&gt;Node17 -->
<g id="edge55" class="edge"><title>Node30&#45;&gt;Node17</title>
<path fill="none" stroke="midnightblue" d="M641.304,-411.945C730.138,-403.358 904.965,-385.98 1063.94,-367.097"/>
<polygon fill="midnightblue" stroke="midnightblue" points="1064.39,-370.568 1073.91,-365.909 1063.56,-363.617 1064.39,-370.568"/>
</g>
<!-- Node32 -->
<g id="node33" class="node"><title>Node32</title>
<g id="a_node33"><a xlink:href="../../d3/d37/Control__Surface__Class_8hpp.html" target="_top" xlink:title=" ">
<polygon fill="white" stroke="black" points="1336,-537.5 1336,-567.5 1458,-567.5 1458,-537.5 1336,-537.5"/>
<text text-anchor="start" x="1344" y="-555.5" font-family="Helvetica,sans-Serif" font-size="10.00">Control_Surface/Control</text>
<text text-anchor="middle" x="1397" y="-544.5" font-family="Helvetica,sans-Serif" font-size="10.00">_Surface_Class.hpp</text>
</a>
</g>
</g>
<!-- Node31&#45;&gt;Node32 -->
<g id="edge59" class="edge"><title>Node31&#45;&gt;Node32</title>
<path fill="none" stroke="midnightblue" d="M1104.66,-606.578C1167.32,-595.202 1261.45,-578.112 1325.86,-566.416"/>
<polygon fill="midnightblue" stroke="midnightblue" points="1326.72,-569.818 1335.93,-564.587 1325.47,-562.93 1326.72,-569.818"/>
</g>
<!-- Node33 -->
<g id="node34" class="node"><title>Node33</title>
<g id="a_node34"><a xlink:href="../../d6/d04/MIDI__Interface_8hpp.html" target="_top" xlink:title=" ">
<polygon fill="white" stroke="black" points="1324,-403.5 1324,-433.5 1436,-433.5 1436,-403.5 1324,-403.5"/>
<text text-anchor="start" x="1332" y="-421.5" font-family="Helvetica,sans-Serif" font-size="10.00">MIDI_Interfaces/MIDI</text>
<text text-anchor="middle" x="1380" y="-410.5" font-family="Helvetica,sans-Serif" font-size="10.00">_Interface.hpp</text>
</a>
</g>
</g>
<!-- Node32&#45;&gt;Node33 -->
<g id="edge60" class="edge"><title>Node32&#45;&gt;Node33</title>
<path fill="none" stroke="midnightblue" d="M1395.18,-537.374C1392.29,-514.945 1386.62,-470.924 1383.09,-443.486"/>
<polygon fill="midnightblue" stroke="midnightblue" points="1386.55,-442.996 1381.81,-433.525 1379.61,-443.89 1386.55,-442.996"/>
</g>
<!-- Node35 -->
<g id="node36" class="node"><title>Node35</title>
<g id="a_node36"><a xlink:href="../../d6/dd2/DisplayElement_8hpp.html" target="_top" xlink:title=" ">
<polygon fill="white" stroke="black" points="1229,-476 1229,-495 1369,-495 1369,-476 1229,-476"/>
<text text-anchor="middle" x="1299" y="-483" font-family="Helvetica,sans-Serif" font-size="10.00">Display/DisplayElement.hpp</text>
</a>
</g>
</g>
<!-- Node32&#45;&gt;Node35 -->
<g id="edge68" class="edge"><title>Node32&#45;&gt;Node35</title>
<path fill="none" stroke="midnightblue" d="M1375.74,-537.396C1359.3,-526.496 1336.66,-511.479 1320.23,-500.584"/>
<polygon fill="midnightblue" stroke="midnightblue" points="1322.09,-497.618 1311.83,-495.007 1318.22,-503.451 1322.09,-497.618"/>
</g>
<!-- Node36 -->
<g id="node37" class="node"><title>Node36</title>
<g id="a_node37"><a xlink:href="../../dc/d77/DisplayInterface_8hpp.html" target="_top" xlink:title=" ">
<polygon fill="white" stroke="black" points="1454.5,-409 1454.5,-428 1597.5,-428 1597.5,-409 1454.5,-409"/>
<text text-anchor="middle" x="1526" y="-416" font-family="Helvetica,sans-Serif" font-size="10.00">Display/DisplayInterface.hpp</text>
</a>
</g>
</g>
<!-- Node32&#45;&gt;Node36 -->
<g id="edge74" class="edge"><title>Node32&#45;&gt;Node36</title>
<path fill="none" stroke="midnightblue" d="M1410.81,-537.374C1435.07,-512.541 1485.21,-461.241 1510.58,-435.282"/>
<polygon fill="midnightblue" stroke="midnightblue" points="1513.11,-437.695 1517.6,-428.097 1508.11,-432.803 1513.11,-437.695"/>
</g>
<!-- Node38 -->
<g id="node39" class="node"><title>Node38</title>
<g id="a_node39"><a xlink:href="../../d7/d74/MillisTimer_8hpp.html" target="_top" xlink:title=" ">
<polygon fill="white" stroke="black" points="1551.5,-476 1551.5,-495 1670.5,-495 1670.5,-476 1551.5,-476"/>
<text text-anchor="middle" x="1611" y="-483" font-family="Helvetica,sans-Serif" font-size="10.00">Helpers/MillisTimer.hpp</text>
</a>
</g>
</g>
<!-- Node32&#45;&gt;Node38 -->
<g id="edge75" class="edge"><title>Node32&#45;&gt;Node38</title>
<path fill="none" stroke="midnightblue" d="M1443.17,-537.476C1482.03,-525.673 1536.92,-509.001 1573.21,-497.979"/>
<polygon fill="midnightblue" stroke="midnightblue" points="1574.37,-501.284 1582.92,-495.029 1572.34,-494.586 1574.37,-501.284"/>
</g>
<!-- Node33&#45;&gt;Node7 -->
<g id="edge61" class="edge"><title>Node33&#45;&gt;Node7</title>
<path fill="none" stroke="midnightblue" d="M1380.45,-403.258C1380.76,-367.279 1376.22,-272.181 1323,-224 1280.56,-185.58 1261.88,-184.296 1207,-168 1100.5,-136.378 969.329,-126.977 901.474,-124.182"/>
<polygon fill="midnightblue" stroke="midnightblue" points="901.267,-120.672 891.141,-123.788 901.001,-127.666 901.267,-120.672"/>
</g>
<!-- Node33&#45;&gt;Node24 -->
<g id="edge62" class="edge"><title>Node33&#45;&gt;Node24</title>
<path fill="none" stroke="midnightblue" d="M1323.92,-404.656C1320.57,-404.052 1317.25,-403.493 1314,-403 1232.62,-390.641 1006.79,-373.524 878.719,-364.374"/>
<polygon fill="midnightblue" stroke="midnightblue" points="878.758,-360.868 868.534,-363.648 878.26,-367.85 878.758,-360.868"/>
</g>
<!-- Node34 -->
<g id="node35" class="node"><title>Node34</title>
<g id="a_node35"><a xlink:href="../../d7/d2d/MIDI__Parser_8hpp.html" target="_top" xlink:title=" ">
<polygon fill="white" stroke="black" points="1444.5,-291.5 1444.5,-310.5 1599.5,-310.5 1599.5,-291.5 1444.5,-291.5"/>
<text text-anchor="middle" x="1522" y="-298.5" font-family="Helvetica,sans-Serif" font-size="10.00">MIDI_Parsers/MIDI_Parser.hpp</text>
</a>
</g>
</g>
<!-- Node33&#45;&gt;Node34 -->
<g id="edge63" class="edge"><title>Node33&#45;&gt;Node34</title>
<path fill="none" stroke="midnightblue" d="M1397.41,-403.337C1424.28,-381.487 1475.61,-339.732 1503.26,-317.244"/>
<polygon fill="midnightblue" stroke="midnightblue" points="1505.79,-319.695 1511.34,-310.669 1501.38,-314.264 1505.79,-319.695"/>
</g>
<!-- Node34&#45;&gt;Node5 -->
<g id="edge67" class="edge"><title>Node34&#45;&gt;Node5</title>
<path fill="none" stroke="midnightblue" d="M1444.31,-293.434C1310.87,-282.156 1039.25,-259.199 901.749,-247.578"/>
<polygon fill="midnightblue" stroke="midnightblue" points="901.941,-244.082 891.682,-246.727 901.352,-251.057 901.941,-244.082"/>
</g>
<!-- Node34&#45;&gt;Node9 -->
<g id="edge65" class="edge"><title>Node34&#45;&gt;Node9</title>
<path fill="none" stroke="midnightblue" d="M1538.53,-291.44C1552.05,-283.645 1570.71,-270.935 1582,-255 1602.48,-226.101 1606,-214.422 1606,-179 1606,-179 1606,-179 1606,-121 1606,-54.3873 1514.68,-26.7651 1462.86,-16.4532"/>
<polygon fill="midnightblue" stroke="midnightblue" points="1463.22,-12.9614 1452.75,-14.5613 1461.94,-19.8418 1463.22,-12.9614"/>
</g>
<!-- Node34&#45;&gt;Node12 -->
<g id="edge64" class="edge"><title>Node34&#45;&gt;Node12</title>
<path fill="none" stroke="midnightblue" d="M1520.07,-291.304C1511.15,-253.677 1470.12,-104.597 1370,-56 1320.57,-32.0104 940.098,-16.5745 819.526,-12.2465"/>
<polygon fill="midnightblue" stroke="midnightblue" points="819.453,-8.74179 809.335,-11.885 819.205,-15.7374 819.453,-8.74179"/>
</g>
<!-- Node34&#45;&gt;Node18 -->
<g id="edge66" class="edge"><title>Node34&#45;&gt;Node18</title>
<path fill="none" stroke="midnightblue" d="M1484.75,-291.475C1434.28,-279.925 1344.89,-259.47 1296.1,-248.305"/>
<polygon fill="midnightblue" stroke="midnightblue" points="1296.87,-244.889 1286.34,-246.07 1295.31,-251.712 1296.87,-244.889"/>
</g>
<!-- Node35&#45;&gt;Node17 -->
<g id="edge73" class="edge"><title>Node35&#45;&gt;Node17</title>
<path fill="none" stroke="midnightblue" d="M1256.86,-475.995C1229.7,-468.705 1195.07,-455.817 1171,-434 1153.87,-418.479 1143.14,-393.686 1137.37,-376.665"/>
<polygon fill="midnightblue" stroke="midnightblue" points="1140.6,-375.275 1134.28,-366.777 1133.92,-377.366 1140.6,-375.275"/>
</g>
<!-- Node35&#45;&gt;Node36 -->
<g id="edge69" class="edge"><title>Node35&#45;&gt;Node36</title>
<path fill="none" stroke="midnightblue" d="M1329.14,-475.869C1369.62,-464.278 1441.62,-443.662 1486.42,-430.834"/>
<polygon fill="midnightblue" stroke="midnightblue" points="1487.44,-434.181 1496.09,-428.064 1485.52,-427.452 1487.44,-434.181"/>
</g>
<!-- Node36&#45;&gt;Node7 -->
<g id="edge70" class="edge"><title>Node36&#45;&gt;Node7</title>
<path fill="none" stroke="midnightblue" d="M1526.4,-408.749C1527.47,-394.408 1531.42,-365.636 1546,-347 1565.88,-321.604 1592.81,-338.893 1609,-311 1613.46,-303.312 1612.61,-299.124 1609,-291 1575.93,-216.511 1547.94,-200.039 1473,-168 1370.08,-123.999 1025.76,-121.817 901.343,-122.526"/>
<polygon fill="midnightblue" stroke="midnightblue" points="901.013,-119.028 891.036,-122.594 901.059,-126.028 901.013,-119.028"/>
</g>
<!-- Node36&#45;&gt;Node17 -->
<g id="edge71" class="edge"><title>Node36&#45;&gt;Node17</title>
<path fill="none" stroke="midnightblue" d="M1479.79,-408.944C1468.42,-406.919 1456.28,-404.82 1445,-403 1399.29,-395.625 1277.93,-378.432 1200.46,-367.561"/>
<polygon fill="midnightblue" stroke="midnightblue" points="1200.69,-364.06 1190.3,-366.137 1199.71,-370.992 1200.69,-364.06"/>
</g>
<!-- Node37 -->
<g id="node38" class="node"><title>Node37</title>
<g id="a_node38"><a xlink:title=" ">
<polygon fill="white" stroke="#bfbfbf" points="1554.5,-347.5 1554.5,-366.5 1599.5,-366.5 1599.5,-347.5 1554.5,-347.5"/>
<text text-anchor="middle" x="1577" y="-354.5" font-family="Helvetica,sans-Serif" font-size="10.00">Print.h</text>
</a>
</g>
</g>
<!-- Node36&#45;&gt;Node37 -->
<g id="edge72" class="edge"><title>Node36&#45;&gt;Node37</title>
<path fill="none" stroke="midnightblue" d="M1533.31,-408.975C1541.03,-399.962 1553.41,-385.525 1563.02,-374.312"/>
<polygon fill="midnightblue" stroke="midnightblue" points="1565.86,-376.379 1569.71,-366.509 1560.54,-371.824 1565.86,-376.379"/>
</g>
<!-- Node38&#45;&gt;Node15 -->
<g id="edge76" class="edge"><title>Node38&#45;&gt;Node15</title>
<path fill="none" stroke="midnightblue" d="M1613.66,-475.666C1621.8,-446.866 1643.76,-353.934 1609,-291 1579.9,-238.304 1514.34,-206.607 1472.53,-190.997"/>
<polygon fill="midnightblue" stroke="midnightblue" points="1473.55,-187.646 1462.96,-187.55 1471.18,-194.232 1473.55,-187.646"/>
</g>
</g>
</svg>
