<?xml version="1.0" encoding="UTF-8" standalone="no"?>
<!DOCTYPE svg PUBLIC "-//W3C//DTD SVG 1.1//EN"
 "http://www.w3.org/Graphics/SVG/1.1/DTD/svg11.dtd">
<!-- Generated by graphviz version 2.38.0 (20140413.2041)
 -->
<!-- Title: FullKalman&lt; Nx, Nu, Ny &gt; Pages: 1 -->
<svg width="126pt" height="237pt"
 viewBox="0.00 0.00 126.00 237.00" xmlns="http://www.w3.org/2000/svg" xmlns:xlink="http://www.w3.org/1999/xlink">
<g id="graph0" class="graph" transform="scale(1 1) rotate(0) translate(4 233)">
<title>FullKalman&lt; Nx, Nu, Ny &gt;</title>
<polygon fill="white" stroke="none" points="-4,4 -4,-233 122,-233 122,4 -4,4"/>
<!-- Node0 -->
<g id="node1" class="node"><title>Node0</title>
<g id="a_node1"><a xlink:title="The discrete Kalman filter/observer for the drone.">
<polygon fill="#bfbfbf" stroke="black" points="4.5,-0.5 4.5,-112.5 113.5,-112.5 113.5,-0.5 4.5,-0.5"/>
<text text-anchor="start" x="12.5" y="-100.5" font-family="Helvetica,sans-Serif" font-size="10.00">FullKalman&lt; Nx, Nu,</text>
<text text-anchor="middle" x="59" y="-89.5" font-family="Helvetica,sans-Serif" font-size="10.00"> Ny &gt;</text>
<polyline fill="none" stroke="black" points="4.5,-82.5 113.5,-82.5 "/>
<text text-anchor="start" x="12.5" y="-70.5" font-family="Helvetica,sans-Serif" font-size="10.00">+ A</text>
<text text-anchor="start" x="12.5" y="-59.5" font-family="Helvetica,sans-Serif" font-size="10.00">+ B</text>
<text text-anchor="start" x="12.5" y="-48.5" font-family="Helvetica,sans-Serif" font-size="10.00">+ C</text>
<text text-anchor="start" x="12.5" y="-37.5" font-family="Helvetica,sans-Serif" font-size="10.00">+ L</text>
<polyline fill="none" stroke="black" points="4.5,-30.5 113.5,-30.5 "/>
<text text-anchor="start" x="12.5" y="-18.5" font-family="Helvetica,sans-Serif" font-size="10.00">+ FullKalman()</text>
<text text-anchor="start" x="12.5" y="-7.5" font-family="Helvetica,sans-Serif" font-size="10.00">+ getStateChange()</text>
</a>
</g>
</g>
<!-- Node1 -->
<g id="node2" class="node"><title>Node1</title>
<g id="a_node2"><a xlink:href="../../d9/df0/classDiscreteObserver.html" target="_top" xlink:title=" ">
<polygon fill="white" stroke="black" points="0,-149.5 0,-228.5 118,-228.5 118,-149.5 0,-149.5"/>
<text text-anchor="start" x="8" y="-216.5" font-family="Helvetica,sans-Serif" font-size="10.00">DiscreteObserver&lt; Nx,</text>
<text text-anchor="middle" x="59" y="-205.5" font-family="Helvetica,sans-Serif" font-size="10.00"> Nu, Ny &gt;</text>
<polyline fill="none" stroke="black" points="0,-198.5 118,-198.5 "/>
<text text-anchor="start" x="8" y="-186.5" font-family="Helvetica,sans-Serif" font-size="10.00">+ Ts</text>
<polyline fill="none" stroke="black" points="0,-179.5 118,-179.5 "/>
<text text-anchor="start" x="8" y="-167.5" font-family="Helvetica,sans-Serif" font-size="10.00">+ DiscreteObserver()</text>
<text text-anchor="start" x="8" y="-156.5" font-family="Helvetica,sans-Serif" font-size="10.00">+ getStateChange()</text>
</a>
</g>
</g>
<!-- Node1&#45;&gt;Node0 -->
<g id="edge1" class="edge"><title>Node1&#45;&gt;Node0</title>
<path fill="none" stroke="midnightblue" d="M59,-139.012C59,-130.464 59,-121.518 59,-112.814"/>
<polygon fill="none" stroke="midnightblue" points="55.5001,-139.199 59,-149.199 62.5001,-139.199 55.5001,-139.199"/>
</g>
</g>
</svg>
