<?xml version="1.0" encoding="UTF-8" standalone="no"?>
<!DOCTYPE svg PUBLIC "-//W3C//DTD SVG 1.1//EN"
 "http://www.w3.org/Graphics/SVG/1.1/DTD/svg11.dtd">
<!-- Generated by graphviz version 2.38.0 (20140413.2041)
 -->
<!-- Title: ShiftRegisterOut.hpp Pages: 1 -->
<svg width="228pt" height="84pt"
 viewBox="0.00 0.00 227.50 84.00" xmlns="http://www.w3.org/2000/svg" xmlns:xlink="http://www.w3.org/1999/xlink">
<g id="graph0" class="graph" transform="scale(1 1) rotate(0) translate(4 80)">
<title>ShiftRegisterOut.hpp</title>
<polygon fill="white" stroke="none" points="-4,4 -4,-80 223.5,-80 223.5,4 -4,4"/>
<!-- Node1 -->
<g id="node1" class="node"><title>Node1</title>
<g id="a_node1"><a xlink:title=" ">
<polygon fill="#bfbfbf" stroke="black" points="111.5,-56.5 111.5,-75.5 219.5,-75.5 219.5,-56.5 111.5,-56.5"/>
<text text-anchor="middle" x="165.5" y="-63.5" font-family="Helvetica,sans-Serif" font-size="10.00">ShiftRegisterOut.hpp</text>
</a>
</g>
</g>
<!-- Node2 -->
<g id="node2" class="node"><title>Node2</title>
<g id="a_node2"><a xlink:href="../../db/dbf/Control__Surface_8h.html" target="_top" xlink:title="The main header file that includes all Control&#45;Surface header files.">
<polygon fill="white" stroke="black" points="0,-0.5 0,-19.5 95,-19.5 95,-0.5 0,-0.5"/>
<text text-anchor="middle" x="47.5" y="-7.5" font-family="Helvetica,sans-Serif" font-size="10.00">Control_Surface.h</text>
</a>
</g>
</g>
<!-- Node1&#45;&gt;Node2 -->
<g id="edge1" class="edge"><title>Node1&#45;&gt;Node2</title>
<path fill="none" stroke="midnightblue" d="M137.6,-52.2321C115.527,-42.1312 85.3237,-28.3091 66.11,-19.5164"/>
<polygon fill="midnightblue" stroke="midnightblue" points="136.253,-55.4648 146.803,-56.4435 139.166,-49.0997 136.253,-55.4648"/>
</g>
<!-- Node3 -->
<g id="node3" class="node"><title>Node3</title>
<g id="a_node3"><a xlink:href="../../de/d95/ShiftRegisterOut_8ipp.html" target="_top" xlink:title=" ">
<polygon fill="white" stroke="black" points="113,-0.5 113,-19.5 218,-19.5 218,-0.5 113,-0.5"/>
<text text-anchor="middle" x="165.5" y="-7.5" font-family="Helvetica,sans-Serif" font-size="10.00">ShiftRegisterOut.ipp</text>
</a>
</g>
</g>
<!-- Node1&#45;&gt;Node3 -->
<g id="edge2" class="edge"><title>Node1&#45;&gt;Node3</title>
<path fill="none" stroke="midnightblue" d="M159.028,-46.1005C158.396,-37.1357 158.843,-26.8579 160.369,-19.7511"/>
<polygon fill="midnightblue" stroke="midnightblue" points="155.566,-46.6216 160.334,-56.083 162.507,-45.7134 155.566,-46.6216"/>
</g>
<!-- Node3&#45;&gt;Node1 -->
<g id="edge3" class="edge"><title>Node3&#45;&gt;Node1</title>
<path fill="none" stroke="midnightblue" d="M171.958,-29.6911C172.606,-38.6353 172.176,-48.9272 170.666,-56.083"/>
<polygon fill="midnightblue" stroke="midnightblue" points="175.423,-29.2002 170.631,-19.7511 168.485,-30.1262 175.423,-29.2002"/>
</g>
</g>
</svg>
