<?xml version="1.0" encoding="UTF-8" standalone="no"?>
<!DOCTYPE svg PUBLIC "-//W3C//DTD SVG 1.1//EN"
 "http://www.w3.org/Graphics/SVG/1.1/DTD/svg11.dtd">
<!-- Generated by graphviz version 2.38.0 (20140413.2041)
 -->
<!-- Title: ExtendedIOElement::pin Pages: 1 -->
<svg width="279pt" height="88pt"
 viewBox="0.00 0.00 279.00 88.00" xmlns="http://www.w3.org/2000/svg" xmlns:xlink="http://www.w3.org/1999/xlink">
<g id="graph0" class="graph" transform="scale(1 1) rotate(0) translate(4 84)">
<title>ExtendedIOElement::pin</title>
<polygon fill="white" stroke="none" points="-4,4 -4,-84 275,-84 275,4 -4,4"/>
<!-- Node133 -->
<g id="node1" class="node"><title>Node133</title>
<g id="a_node1"><a xlink:title="Get the extended IO pin number of a given physical pin of this extended IO element.">
<polygon fill="#bfbfbf" stroke="black" points="148,-30 148,-49 271,-49 271,-30 148,-30"/>
<text text-anchor="middle" x="209.5" y="-37" font-family="Helvetica,sans-Serif" font-size="10.00">ExtendedIOElement::pin</text>
</a>
</g>
</g>
<!-- Node134 -->
<g id="node2" class="node"><title>Node134</title>
<g id="a_node2"><a xlink:href="../../d8/db4/classShiftRegisterOutBase.html#ab057033782e3221b061be135f766b7a8" target="_top" xlink:title="The analogRead function is deprecated because a shift is always digital.">
<polygon fill="white" stroke="black" points="-7.10543e-15,-49.5 -7.10543e-15,-79.5 112,-79.5 112,-49.5 -7.10543e-15,-49.5"/>
<text text-anchor="start" x="8" y="-67.5" font-family="Helvetica,sans-Serif" font-size="10.00">ShiftRegisterOutBase</text>
<text text-anchor="middle" x="56" y="-56.5" font-family="Helvetica,sans-Serif" font-size="10.00">::analogRead</text>
</a>
</g>
</g>
<!-- Node133&#45;&gt;Node134 -->
<g id="edge1" class="edge"><title>Node133&#45;&gt;Node134</title>
<path fill="none" stroke="midnightblue" d="M140.845,-50.6643C131.212,-52.2538 121.403,-53.8725 112.05,-55.4159"/>
<polygon fill="midnightblue" stroke="midnightblue" points="141.495,-54.1043 150.792,-49.0227 140.356,-47.1977 141.495,-54.1043"/>
</g>
<!-- Node135 -->
<g id="node3" class="node"><title>Node135</title>
<g id="a_node3"><a xlink:href="../../d8/db4/classShiftRegisterOutBase.html#a99806b37b9f62f566f9abfa82b6432ca" target="_top" xlink:title="The analogWrite function is not deprecated because a shift is always digital.">
<polygon fill="white" stroke="black" points="-7.10543e-15,-0.5 -7.10543e-15,-30.5 112,-30.5 112,-0.5 -7.10543e-15,-0.5"/>
<text text-anchor="start" x="8" y="-18.5" font-family="Helvetica,sans-Serif" font-size="10.00">ShiftRegisterOutBase</text>
<text text-anchor="middle" x="56" y="-7.5" font-family="Helvetica,sans-Serif" font-size="10.00">::analogWrite</text>
</a>
</g>
</g>
<!-- Node133&#45;&gt;Node135 -->
<g id="edge2" class="edge"><title>Node133&#45;&gt;Node135</title>
<path fill="none" stroke="midnightblue" d="M138.064,-28.3418C129.38,-26.9661 120.602,-25.5756 112.191,-24.2431"/>
<polygon fill="midnightblue" stroke="midnightblue" points="137.763,-31.8378 148.188,-29.9456 138.859,-24.924 137.763,-31.8378"/>
</g>
</g>
</svg>
