<?xml version="1.0" encoding="UTF-8" standalone="no"?>
<!DOCTYPE svg PUBLIC "-//W3C//DTD SVG 1.1//EN"
 "http://www.w3.org/Graphics/SVG/1.1/DTD/svg11.dtd">
<!-- Generated by graphviz version 2.38.0 (20140413.2041)
 -->
<!-- Title: ExtendedIOElement::pin Pages: 1 -->
<svg width="434pt" height="290pt"
 viewBox="0.00 0.00 434.00 290.00" xmlns="http://www.w3.org/2000/svg" xmlns:xlink="http://www.w3.org/1999/xlink">
<g id="graph0" class="graph" transform="scale(1 1) rotate(0) translate(4 286)">
<title>ExtendedIOElement::pin</title>
<polygon fill="white" stroke="none" points="-4,4 -4,-286 430,-286 430,4 -4,4"/>
<!-- Node160 -->
<g id="node1" class="node"><title>Node160</title>
<g id="a_node1"><a xlink:title="Get the extended IO pin number of a given physical pin of this extended IO element.">
<polygon fill="#bfbfbf" stroke="black" points="303,-137 303,-156 426,-156 426,-137 303,-137"/>
<text text-anchor="middle" x="364.5" y="-144" font-family="Helvetica,sans-Serif" font-size="10.00">ExtendedIOElement::pin</text>
</a>
</g>
</g>
<!-- Node161 -->
<g id="node2" class="node"><title>Node161</title>
<g id="a_node2"><a xlink:href="../../de/d4e/classExtendedIOElement.html#a2c6058c4a84b5be7c9b05e2cc1a9d94f" target="_top" xlink:title="Get the extended IO pin number of a given physical pin of this extended IO element.">
<polygon fill="white" stroke="black" points="155,-251.5 155,-281.5 265,-281.5 265,-251.5 155,-251.5"/>
<text text-anchor="start" x="163" y="-269.5" font-family="Helvetica,sans-Serif" font-size="10.00">ExtendedIOElement::</text>
<text text-anchor="middle" x="210" y="-258.5" font-family="Helvetica,sans-Serif" font-size="10.00">operator[]</text>
</a>
</g>
</g>
<!-- Node160&#45;&gt;Node161 -->
<g id="edge1" class="edge"><title>Node160&#45;&gt;Node161</title>
<path fill="none" stroke="midnightblue" d="M349.208,-163.97C331.598,-184.624 299.942,-219.025 267,-241.5 261.635,-245.16 255.647,-248.496 249.638,-251.453"/>
<polygon fill="midnightblue" stroke="midnightblue" points="351.91,-166.194 355.654,-156.282 346.546,-161.696 351.91,-166.194"/>
</g>
<!-- Node162 -->
<g id="node3" class="node"><title>Node162</title>
<g id="a_node3"><a xlink:href="../../dc/d19/classMAX7219.html#acf789d594c9da7acb8a613b0fef4152d" target="_top" xlink:title="Set the state of a given output pin.">
<polygon fill="white" stroke="black" points="153,-213 153,-232 267,-232 267,-213 153,-213"/>
<text text-anchor="middle" x="210" y="-220" font-family="Helvetica,sans-Serif" font-size="10.00">MAX7219::digitalWrite</text>
</a>
</g>
</g>
<!-- Node160&#45;&gt;Node162 -->
<g id="edge2" class="edge"><title>Node160&#45;&gt;Node162</title>
<path fill="none" stroke="midnightblue" d="M337.88,-161.116C318.618,-171.905 291.451,-186.702 267,-198.5 256.521,-203.556 244.708,-208.699 234.642,-212.919"/>
<polygon fill="midnightblue" stroke="midnightblue" points="339.661,-164.13 346.655,-156.171 336.225,-158.031 339.661,-164.13"/>
</g>
<!-- Node163 -->
<g id="node4" class="node"><title>Node163</title>
<g id="a_node4"><a xlink:href="../../dc/d19/classMAX7219.html#a0142ff818b660dfdef3dc024ca0c3a85" target="_top" xlink:title="The analogWrite function is not deprecated because a MAX7219 is always digital.">
<polygon fill="white" stroke="black" points="0,-184 0,-203 117,-203 117,-184 0,-184"/>
<text text-anchor="middle" x="58.5" y="-191" font-family="Helvetica,sans-Serif" font-size="10.00">MAX7219::analogWrite</text>
</a>
</g>
</g>
<!-- Node160&#45;&gt;Node163 -->
<g id="edge7" class="edge"><title>Node160&#45;&gt;Node163</title>
<path fill="none" stroke="midnightblue" d="M307.927,-158.036C294.552,-160.648 280.289,-163.297 267,-165.5 216.615,-173.852 159.034,-181.47 117.332,-186.645"/>
<polygon fill="midnightblue" stroke="midnightblue" points="308.819,-161.427 317.95,-156.054 307.461,-154.56 308.819,-161.427"/>
</g>
<!-- Node164 -->
<g id="node5" class="node"><title>Node164</title>
<g id="a_node5"><a xlink:href="../../dc/d19/classMAX7219.html#ac3ebb45e4e1678ec0715be1c8470244b" target="_top" xlink:title="Get the current state of a given output.">
<polygon fill="white" stroke="black" points="153,-137 153,-156 267,-156 267,-137 153,-137"/>
<text text-anchor="middle" x="210" y="-144" font-family="Helvetica,sans-Serif" font-size="10.00">MAX7219::digitalRead</text>
</a>
</g>
</g>
<!-- Node160&#45;&gt;Node164 -->
<g id="edge4" class="edge"><title>Node160&#45;&gt;Node164</title>
<path fill="none" stroke="midnightblue" d="M292.742,-146.5C284.123,-146.5 275.41,-146.5 267.046,-146.5"/>
<polygon fill="midnightblue" stroke="midnightblue" points="292.79,-150 302.79,-146.5 292.79,-143 292.79,-150"/>
</g>
<!-- Node165 -->
<g id="node6" class="node"><title>Node165</title>
<g id="a_node6"><a xlink:href="../../dc/d19/classMAX7219.html#a2c909f5bd0c3af8fa883acd1d5e3817a" target="_top" xlink:title="The analogRead function is deprecated because a MAX7219 is always digital.">
<polygon fill="white" stroke="black" points="0,-127 0,-146 117,-146 117,-127 0,-127"/>
<text text-anchor="middle" x="58.5" y="-134" font-family="Helvetica,sans-Serif" font-size="10.00">MAX7219::analogRead</text>
</a>
</g>
</g>
<!-- Node160&#45;&gt;Node165 -->
<g id="edge6" class="edge"><title>Node160&#45;&gt;Node165</title>
<path fill="none" stroke="midnightblue" d="M314.185,-134.875C299.129,-131.845 282.465,-129.008 267,-127.5 216.577,-122.583 159,-125.774 117.309,-129.655"/>
<polygon fill="midnightblue" stroke="midnightblue" points="313.813,-138.373 324.318,-136.99 315.244,-131.52 313.813,-138.373"/>
</g>
<!-- Node166 -->
<g id="node7" class="node"><title>Node166</title>
<g id="a_node7"><a xlink:href="../../d8/db4/classShiftRegisterOutBase.html#ab057033782e3221b061be135f766b7a8" target="_top" xlink:title="The analogRead function is deprecated because a shift is always digital.">
<polygon fill="white" stroke="black" points="154,-49.5 154,-79.5 266,-79.5 266,-49.5 154,-49.5"/>
<text text-anchor="start" x="162" y="-67.5" font-family="Helvetica,sans-Serif" font-size="10.00">ShiftRegisterOutBase</text>
<text text-anchor="middle" x="210" y="-56.5" font-family="Helvetica,sans-Serif" font-size="10.00">::analogRead</text>
</a>
</g>
</g>
<!-- Node160&#45;&gt;Node166 -->
<g id="edge8" class="edge"><title>Node160&#45;&gt;Node166</title>
<path fill="none" stroke="midnightblue" d="M336.86,-132.122C317.488,-121.672 290.627,-107.195 267,-94.5 257.964,-89.6452 248.103,-84.3585 239.209,-79.5945"/>
<polygon fill="midnightblue" stroke="midnightblue" points="335.258,-135.235 345.721,-136.903 338.582,-129.074 335.258,-135.235"/>
</g>
<!-- Node167 -->
<g id="node8" class="node"><title>Node167</title>
<g id="a_node8"><a xlink:href="../../d8/db4/classShiftRegisterOutBase.html#a99806b37b9f62f566f9abfa82b6432ca" target="_top" xlink:title="The analogWrite function is not deprecated because a shift is always digital.">
<polygon fill="white" stroke="black" points="154,-0.5 154,-30.5 266,-30.5 266,-0.5 154,-0.5"/>
<text text-anchor="start" x="162" y="-18.5" font-family="Helvetica,sans-Serif" font-size="10.00">ShiftRegisterOutBase</text>
<text text-anchor="middle" x="210" y="-7.5" font-family="Helvetica,sans-Serif" font-size="10.00">::analogWrite</text>
</a>
</g>
</g>
<!-- Node160&#45;&gt;Node167 -->
<g id="edge9" class="edge"><title>Node160&#45;&gt;Node167</title>
<path fill="none" stroke="midnightblue" d="M350.916,-128.617C334.028,-105.685 302.072,-65.8616 267,-40.5 261.91,-36.8191 256.191,-33.5069 250.404,-30.5891"/>
<polygon fill="midnightblue" stroke="midnightblue" points="348.122,-130.727 356.816,-136.782 353.796,-126.627 348.122,-130.727"/>
</g>
<!-- Node162&#45;&gt;Node163 -->
<g id="edge3" class="edge"><title>Node162&#45;&gt;Node163</title>
<path fill="none" stroke="midnightblue" d="M149.433,-210.945C135.875,-208.315 121.621,-205.55 108.559,-203.017"/>
<polygon fill="midnightblue" stroke="midnightblue" points="149.15,-214.456 159.634,-212.924 150.483,-207.584 149.15,-214.456"/>
</g>
<!-- Node164&#45;&gt;Node165 -->
<g id="edge5" class="edge"><title>Node164&#45;&gt;Node165</title>
<path fill="none" stroke="midnightblue" d="M142.716,-142.066C134.279,-141.502 125.696,-140.928 117.404,-140.373"/>
<polygon fill="midnightblue" stroke="midnightblue" points="142.695,-145.573 152.906,-142.748 143.162,-138.588 142.695,-145.573"/>
</g>
</g>
</svg>
