<?xml version="1.0" encoding="UTF-8" standalone="no"?>
<!DOCTYPE svg PUBLIC "-//W3C//DTD SVG 1.1//EN"
 "http://www.w3.org/Graphics/SVG/1.1/DTD/svg11.dtd">
<!-- Generated by graphviz version 2.38.0 (20140413.2041)
 -->
<!-- Title: EncoderSelector_Base::beginInput Pages: 1 -->
<svg width="560pt" height="154pt"
 viewBox="0.00 0.00 560.00 154.00" xmlns="http://www.w3.org/2000/svg" xmlns:xlink="http://www.w3.org/1999/xlink">
<g id="graph0" class="graph" transform="scale(1 1) rotate(0) translate(4 150)">
<title>EncoderSelector_Base::beginInput</title>
<polygon fill="white" stroke="none" points="-4,4 -4,-150 556,-150 556,4 -4,4"/>
<!-- Node12 -->
<g id="node1" class="node"><title>Node12</title>
<g id="a_node1"><a xlink:title=" ">
<polygon fill="#bfbfbf" stroke="black" points="0,-49.5 0,-79.5 116,-79.5 116,-49.5 0,-49.5"/>
<text text-anchor="start" x="8" y="-67.5" font-family="Helvetica,sans-Serif" font-size="10.00">EncoderSelector_Base</text>
<text text-anchor="middle" x="58" y="-56.5" font-family="Helvetica,sans-Serif" font-size="10.00">::beginInput</text>
</a>
</g>
</g>
<!-- Node13 -->
<g id="node2" class="node"><title>Node13</title>
<g id="a_node2"><a xlink:href="../../d8/d3d/namespaceExtIO.html#aab1cbf2a78b56e576a536d371e1984ef" target="_top" xlink:title=" ">
<polygon fill="white" stroke="black" points="152,-55 152,-74 237,-74 237,-55 152,-55"/>
<text text-anchor="middle" x="194.5" y="-62" font-family="Helvetica,sans-Serif" font-size="10.00">ExtIO::pinMode</text>
</a>
</g>
</g>
<!-- Node12&#45;&gt;Node13 -->
<g id="edge1" class="edge"><title>Node12&#45;&gt;Node13</title>
<path fill="none" stroke="midnightblue" d="M116.04,-64.5C124.592,-64.5 133.368,-64.5 141.8,-64.5"/>
<polygon fill="midnightblue" stroke="midnightblue" points="141.876,-68.0001 151.876,-64.5 141.876,-61.0001 141.876,-68.0001"/>
</g>
<!-- Node14 -->
<g id="node3" class="node"><title>Node14</title>
<g id="a_node3"><a xlink:href="../../d8/d3d/namespaceExtIO.html#ae314377b34b9e49b153f6e36fb354d37" target="_top" xlink:title="Find the IO element of a given extended IO pin number.">
<polygon fill="white" stroke="black" points="273,-99 273,-118 406,-118 406,-99 273,-99"/>
<text text-anchor="middle" x="339.5" y="-106" font-family="Helvetica,sans-Serif" font-size="10.00">ExtIO::getIOElementOfPin</text>
</a>
</g>
</g>
<!-- Node13&#45;&gt;Node14 -->
<g id="edge2" class="edge"><title>Node13&#45;&gt;Node14</title>
<path fill="none" stroke="midnightblue" d="M224.509,-74.0835C239.037,-78.8251 256.914,-84.5735 273,-89.5 280.083,-91.6692 287.616,-93.9129 294.956,-96.0651"/>
<polygon fill="midnightblue" stroke="midnightblue" points="294.205,-99.4918 304.785,-98.9277 296.162,-92.771 294.205,-99.4918"/>
</g>
<!-- Node17 -->
<g id="node6" class="node"><title>Node17</title>
<g id="a_node6"><a xlink:href="../../de/d4e/classExtendedIOElement.html#ab0e7b41124b477456bf5a1de8071d1e3" target="_top" xlink:title="Set the mode of a given pin.">
<polygon fill="white" stroke="black" points="284.5,-49.5 284.5,-79.5 394.5,-79.5 394.5,-49.5 284.5,-49.5"/>
<text text-anchor="start" x="292.5" y="-67.5" font-family="Helvetica,sans-Serif" font-size="10.00">ExtendedIOElement::</text>
<text text-anchor="middle" x="339.5" y="-56.5" font-family="Helvetica,sans-Serif" font-size="10.00">pinMode</text>
</a>
</g>
</g>
<!-- Node13&#45;&gt;Node17 -->
<g id="edge5" class="edge"><title>Node13&#45;&gt;Node17</title>
<path fill="none" stroke="midnightblue" d="M237.246,-64.5C248.89,-64.5 261.815,-64.5 274.428,-64.5"/>
<polygon fill="midnightblue" stroke="midnightblue" points="274.447,-68.0001 284.447,-64.5 274.447,-61.0001 274.447,-68.0001"/>
</g>
<!-- Node18 -->
<g id="node7" class="node"><title>Node18</title>
<g id="a_node7"><a xlink:href="../../de/d4e/classExtendedIOElement.html#a955322d29e4e63ec40a587b5ed9db31b" target="_top" xlink:title="Get the smallest global extended IO pin number that belongs to this extended IO element.">
<polygon fill="white" stroke="black" points="284.5,-0.5 284.5,-30.5 394.5,-30.5 394.5,-0.5 284.5,-0.5"/>
<text text-anchor="start" x="292.5" y="-18.5" font-family="Helvetica,sans-Serif" font-size="10.00">ExtendedIOElement::</text>
<text text-anchor="middle" x="339.5" y="-7.5" font-family="Helvetica,sans-Serif" font-size="10.00">getStart</text>
</a>
</g>
</g>
<!-- Node13&#45;&gt;Node18 -->
<g id="edge6" class="edge"><title>Node13&#45;&gt;Node18</title>
<path fill="none" stroke="midnightblue" d="M223.411,-54.936C240.883,-48.9491 263.97,-41.0382 284.878,-33.874"/>
<polygon fill="midnightblue" stroke="midnightblue" points="286.291,-37.0896 294.617,-30.537 284.022,-30.4676 286.291,-37.0896"/>
</g>
<!-- Node15 -->
<g id="node4" class="node"><title>Node15</title>
<g id="a_node4"><a xlink:href="../../de/d4e/classExtendedIOElement.html#a3151d5bf08e6b32231cdd58ed2f39aee" target="_top" xlink:title="Get the list of all Extended IO elements.">
<polygon fill="white" stroke="black" points="442,-115.5 442,-145.5 552,-145.5 552,-115.5 442,-115.5"/>
<text text-anchor="start" x="450" y="-133.5" font-family="Helvetica,sans-Serif" font-size="10.00">ExtendedIOElement::</text>
<text text-anchor="middle" x="497" y="-122.5" font-family="Helvetica,sans-Serif" font-size="10.00">getAll</text>
</a>
</g>
</g>
<!-- Node14&#45;&gt;Node15 -->
<g id="edge3" class="edge"><title>Node14&#45;&gt;Node15</title>
<path fill="none" stroke="midnightblue" d="M406.446,-117.83C414.803,-119.012 423.345,-120.221 431.676,-121.4"/>
<polygon fill="midnightblue" stroke="midnightblue" points="431.314,-124.883 441.706,-122.818 432.295,-117.952 431.314,-124.883"/>
</g>
<!-- Node16 -->
<g id="node5" class="node"><title>Node16</title>
<g id="a_node5"><a xlink:href="../../d8/d3d/namespaceExtIO.html#aedf6005ecc64cea16059965b80ce5f85" target="_top" xlink:title=" ">
<polygon fill="white" stroke="black" points="455,-77 455,-96 539,-96 539,-77 455,-77"/>
<text text-anchor="middle" x="497" y="-84" font-family="Helvetica,sans-Serif" font-size="10.00">ExtIO::inRange</text>
</a>
</g>
</g>
<!-- Node14&#45;&gt;Node16 -->
<g id="edge4" class="edge"><title>Node14&#45;&gt;Node16</title>
<path fill="none" stroke="midnightblue" d="M406.446,-99.17C419.25,-97.3585 432.492,-95.485 444.738,-93.7525"/>
<polygon fill="midnightblue" stroke="midnightblue" points="445.348,-97.2011 454.759,-92.3347 444.368,-90.2701 445.348,-97.2011"/>
</g>
</g>
</svg>
