<?xml version="1.0" encoding="UTF-8" standalone="no"?>
<!DOCTYPE svg PUBLIC "-//W3C//DTD SVG 1.1//EN"
 "http://www.w3.org/Graphics/SVG/1.1/DTD/svg11.dtd">
<!-- Generated by graphviz version 2.38.0 (20140413.2041)
 -->
<!-- Title: MAX7219SevenSegmentDisplay.hpp Pages: 1 -->
<svg width="550pt" height="599pt"
 viewBox="0.00 0.00 549.50 599.00" xmlns="http://www.w3.org/2000/svg" xmlns:xlink="http://www.w3.org/1999/xlink">
<g id="graph0" class="graph" transform="scale(1 1) rotate(0) translate(4 595)">
<title>MAX7219SevenSegmentDisplay.hpp</title>
<polygon fill="white" stroke="none" points="-4,4 -4,-595 545.5,-595 545.5,4 -4,4"/>
<!-- Node0 -->
<g id="node1" class="node"><title>Node0</title>
<g id="a_node1"><a xlink:title=" ">
<polygon fill="#bfbfbf" stroke="black" points="363.5,-571.5 363.5,-590.5 541.5,-590.5 541.5,-571.5 363.5,-571.5"/>
<text text-anchor="middle" x="452.5" y="-578.5" font-family="Helvetica,sans-Serif" font-size="10.00">MAX7219SevenSegmentDisplay.hpp</text>
</a>
</g>
</g>
<!-- Node1 -->
<g id="node2" class="node"><title>Node1</title>
<g id="a_node2"><a xlink:href="../../d7/d13/MAX7219__Base_8hpp.html" target="_top" xlink:title=" ">
<polygon fill="white" stroke="black" points="399.5,-515.5 399.5,-534.5 505.5,-534.5 505.5,-515.5 399.5,-515.5"/>
<text text-anchor="middle" x="452.5" y="-522.5" font-family="Helvetica,sans-Serif" font-size="10.00">MAX7219_Base.hpp</text>
</a>
</g>
</g>
<!-- Node0&#45;&gt;Node1 -->
<g id="edge1" class="edge"><title>Node0&#45;&gt;Node1</title>
<path fill="none" stroke="midnightblue" d="M452.5,-571.083C452.5,-564.006 452.5,-553.861 452.5,-544.986"/>
<polygon fill="midnightblue" stroke="midnightblue" points="456,-544.751 452.5,-534.751 449,-544.751 456,-544.751"/>
</g>
<!-- Node2 -->
<g id="node3" class="node"><title>Node2</title>
<g id="a_node3"><a xlink:href="../../dd/ddf/ExtendedInputOutput_8hpp.html" target="_top" xlink:title=" ">
<polygon fill="white" stroke="black" points="317.5,-448.5 317.5,-478.5 471.5,-478.5 471.5,-448.5 317.5,-448.5"/>
<text text-anchor="start" x="325.5" y="-466.5" font-family="Helvetica,sans-Serif" font-size="10.00">Hardware/ExtendedInputOutput</text>
<text text-anchor="middle" x="394.5" y="-455.5" font-family="Helvetica,sans-Serif" font-size="10.00">/ExtendedInputOutput.hpp</text>
</a>
</g>
</g>
<!-- Node1&#45;&gt;Node2 -->
<g id="edge2" class="edge"><title>Node1&#45;&gt;Node2</title>
<path fill="none" stroke="midnightblue" d="M444.19,-515.475C436.702,-507.793 425.373,-496.172 415.423,-485.964"/>
<polygon fill="midnightblue" stroke="midnightblue" points="417.656,-483.241 408.169,-478.523 412.643,-488.127 417.656,-483.241"/>
</g>
<!-- Node19 -->
<g id="node20" class="node"><title>Node19</title>
<g id="a_node20"><a xlink:title=" ">
<polygon fill="white" stroke="#bfbfbf" points="490,-454 490,-473 531,-473 531,-454 490,-454"/>
<text text-anchor="middle" x="510.5" y="-461" font-family="Helvetica,sans-Serif" font-size="10.00">SPI.h</text>
</a>
</g>
</g>
<!-- Node1&#45;&gt;Node19 -->
<g id="edge24" class="edge"><title>Node1&#45;&gt;Node19</title>
<path fill="none" stroke="midnightblue" d="M460.81,-515.475C469.682,-506.373 483.946,-491.741 494.92,-480.483"/>
<polygon fill="midnightblue" stroke="midnightblue" points="497.731,-482.613 502.205,-473.009 492.719,-477.727 497.731,-482.613"/>
</g>
<!-- Node3 -->
<g id="node4" class="node"><title>Node3</title>
<g id="a_node4"><a xlink:href="../../d4/d57/ExtendedIOElement_8hpp.html" target="_top" xlink:title=" ">
<polygon fill="white" stroke="black" points="274,-392.5 274,-411.5 397,-411.5 397,-392.5 274,-392.5"/>
<text text-anchor="middle" x="335.5" y="-399.5" font-family="Helvetica,sans-Serif" font-size="10.00">ExtendedIOElement.hpp</text>
</a>
</g>
</g>
<!-- Node2&#45;&gt;Node3 -->
<g id="edge3" class="edge"><title>Node2&#45;&gt;Node3</title>
<path fill="none" stroke="midnightblue" d="M380.518,-448.399C371.768,-439.575 360.471,-428.183 351.383,-419.018"/>
<polygon fill="midnightblue" stroke="midnightblue" points="353.612,-416.294 344.085,-411.658 348.641,-421.223 353.612,-416.294"/>
</g>
<!-- Node16 -->
<g id="node17" class="node"><title>Node16</title>
<g id="a_node17"><a xlink:title=" ">
<polygon fill="white" stroke="#bfbfbf" points="424.5,-168.5 424.5,-187.5 482.5,-187.5 482.5,-168.5 424.5,-168.5"/>
<text text-anchor="middle" x="453.5" y="-175.5" font-family="Helvetica,sans-Serif" font-size="10.00">Arduino.h</text>
</a>
</g>
</g>
<!-- Node2&#45;&gt;Node16 -->
<g id="edge23" class="edge"><title>Node2&#45;&gt;Node16</title>
<path fill="none" stroke="midnightblue" d="M407.302,-448.377C424.654,-427.715 453.5,-387.305 453.5,-347 453.5,-347 453.5,-347 453.5,-289 453.5,-256.948 453.5,-219.643 453.5,-197.749"/>
<polygon fill="midnightblue" stroke="midnightblue" points="457,-197.558 453.5,-187.558 450,-197.558 457,-197.558"/>
</g>
<!-- Node4 -->
<g id="node5" class="node"><title>Node4</title>
<g id="a_node5"><a xlink:href="../../d0/d4e/Def_8hpp.html" target="_top" xlink:title=" ">
<polygon fill="white" stroke="black" points="133.5,-112.5 133.5,-131.5 203.5,-131.5 203.5,-112.5 133.5,-112.5"/>
<text text-anchor="middle" x="168.5" y="-119.5" font-family="Helvetica,sans-Serif" font-size="10.00">Def/Def.hpp</text>
</a>
</g>
</g>
<!-- Node3&#45;&gt;Node4 -->
<g id="edge4" class="edge"><title>Node3&#45;&gt;Node4</title>
<path fill="none" stroke="midnightblue" d="M273.898,-393.108C215.454,-381.762 136.5,-354.654 136.5,-291 136.5,-291 136.5,-291 136.5,-233 136.5,-199.329 150.495,-162.085 159.974,-140.719"/>
<polygon fill="midnightblue" stroke="midnightblue" points="163.174,-142.138 164.184,-131.592 156.818,-139.207 163.174,-142.138"/>
</g>
<!-- Node10 -->
<g id="node11" class="node"><title>Node10</title>
<g id="a_node11"><a xlink:href="../../de/dd1/LinkedList_8hpp.html" target="_top" xlink:title=" ">
<polygon fill="white" stroke="black" points="277.5,-336.5 277.5,-355.5 393.5,-355.5 393.5,-336.5 277.5,-336.5"/>
<text text-anchor="middle" x="335.5" y="-343.5" font-family="Helvetica,sans-Serif" font-size="10.00">Helpers/LinkedList.hpp</text>
</a>
</g>
</g>
<!-- Node3&#45;&gt;Node10 -->
<g id="edge12" class="edge"><title>Node3&#45;&gt;Node10</title>
<path fill="none" stroke="midnightblue" d="M335.5,-392.083C335.5,-385.006 335.5,-374.861 335.5,-365.986"/>
<polygon fill="midnightblue" stroke="midnightblue" points="339,-365.751 335.5,-355.751 332,-365.751 339,-365.751"/>
</g>
<!-- Node5 -->
<g id="node6" class="node"><title>Node5</title>
<g id="a_node6"><a xlink:href="../../d7/d42/Channel_8hpp.html" target="_top" xlink:title=" ">
<polygon fill="white" stroke="black" points="0,-56.5 0,-75.5 71,-75.5 71,-56.5 0,-56.5"/>
<text text-anchor="middle" x="35.5" y="-63.5" font-family="Helvetica,sans-Serif" font-size="10.00">Channel.hpp</text>
</a>
</g>
</g>
<!-- Node4&#45;&gt;Node5 -->
<g id="edge5" class="edge"><title>Node4&#45;&gt;Node5</title>
<path fill="none" stroke="midnightblue" d="M147.426,-112.444C125.44,-103.517 90.7657,-89.4387 65.8359,-79.3168"/>
<polygon fill="midnightblue" stroke="midnightblue" points="67.0578,-76.0355 56.4756,-75.5164 64.4244,-82.5213 67.0578,-76.0355"/>
</g>
<!-- Node6 -->
<g id="node7" class="node"><title>Node6</title>
<g id="a_node7"><a xlink:title=" ">
<polygon fill="white" stroke="#bfbfbf" points="43,-0.5 43,-19.5 92,-19.5 92,-0.5 43,-0.5"/>
<text text-anchor="middle" x="67.5" y="-7.5" font-family="Helvetica,sans-Serif" font-size="10.00">stdint.h</text>
</a>
</g>
</g>
<!-- Node4&#45;&gt;Node6 -->
<g id="edge11" class="edge"><title>Node4&#45;&gt;Node6</title>
<path fill="none" stroke="midnightblue" d="M157.667,-112.192C147.193,-103.462 131.1,-89.4806 118.5,-76 104.176,-60.6743 89.5731,-41.6453 79.6852,-28.1461"/>
<polygon fill="midnightblue" stroke="midnightblue" points="82.3473,-25.8542 73.6544,-19.7975 76.673,-29.9533 82.3473,-25.8542"/>
</g>
<!-- Node7 -->
<g id="node8" class="node"><title>Node7</title>
<g id="a_node8"><a xlink:href="../../dc/d50/Frequency_8hpp.html" target="_top" xlink:title=" ">
<polygon fill="white" stroke="black" points="128,-56.5 128,-75.5 209,-75.5 209,-56.5 128,-56.5"/>
<text text-anchor="middle" x="168.5" y="-63.5" font-family="Helvetica,sans-Serif" font-size="10.00">Frequency.hpp</text>
</a>
</g>
</g>
<!-- Node4&#45;&gt;Node7 -->
<g id="edge7" class="edge"><title>Node4&#45;&gt;Node7</title>
<path fill="none" stroke="midnightblue" d="M168.5,-112.083C168.5,-105.006 168.5,-94.8611 168.5,-85.9865"/>
<polygon fill="midnightblue" stroke="midnightblue" points="172,-85.751 168.5,-75.7511 165,-85.7511 172,-85.751"/>
</g>
<!-- Node8 -->
<g id="node9" class="node"><title>Node8</title>
<g id="a_node9"><a xlink:href="../../de/d76/Array_8hpp.html" target="_top" xlink:title=" ">
<polygon fill="white" stroke="black" points="227,-56.5 227,-75.5 322,-75.5 322,-56.5 227,-56.5"/>
<text text-anchor="middle" x="274.5" y="-63.5" font-family="Helvetica,sans-Serif" font-size="10.00">Helpers/Array.hpp</text>
</a>
</g>
</g>
<!-- Node4&#45;&gt;Node8 -->
<g id="edge8" class="edge"><title>Node4&#45;&gt;Node8</title>
<path fill="none" stroke="midnightblue" d="M185.531,-112.324C202.53,-103.664 228.876,-90.2424 248.493,-80.249"/>
<polygon fill="midnightblue" stroke="midnightblue" points="250.19,-83.3125 257.512,-75.6545 247.012,-77.0752 250.19,-83.3125"/>
</g>
<!-- Node9 -->
<g id="node10" class="node"><title>Node9</title>
<g id="a_node10"><a xlink:title=" ">
<polygon fill="white" stroke="#bfbfbf" points="286.5,-0.5 286.5,-19.5 338.5,-19.5 338.5,-0.5 286.5,-0.5"/>
<text text-anchor="middle" x="312.5" y="-7.5" font-family="Helvetica,sans-Serif" font-size="10.00">stddef.h</text>
</a>
</g>
</g>
<!-- Node4&#45;&gt;Node9 -->
<g id="edge10" class="edge"><title>Node4&#45;&gt;Node9</title>
<path fill="none" stroke="midnightblue" d="M203.727,-116.216C246.61,-109.585 315.221,-96.1017 330.5,-76 340.978,-62.2148 333.345,-42.6671 325.028,-28.6138"/>
<polygon fill="midnightblue" stroke="midnightblue" points="327.754,-26.3848 319.375,-19.9007 321.882,-30.1948 327.754,-26.3848"/>
</g>
<!-- Node5&#45;&gt;Node6 -->
<g id="edge6" class="edge"><title>Node5&#45;&gt;Node6</title>
<path fill="none" stroke="midnightblue" d="M40.7841,-56.083C45.211,-48.6127 51.6633,-37.7244 57.1179,-28.5199"/>
<polygon fill="midnightblue" stroke="midnightblue" points="60.2271,-30.1383 62.3142,-19.7511 54.2051,-26.5697 60.2271,-30.1383"/>
</g>
<!-- Node8&#45;&gt;Node9 -->
<g id="edge9" class="edge"><title>Node8&#45;&gt;Node9</title>
<path fill="none" stroke="midnightblue" d="M280.775,-56.083C286.142,-48.4554 294.018,-37.2645 300.579,-27.9408"/>
<polygon fill="midnightblue" stroke="midnightblue" points="303.449,-29.9434 306.342,-19.7511 297.725,-25.9149 303.449,-29.9434"/>
</g>
<!-- Node11 -->
<g id="node12" class="node"><title>Node11</title>
<g id="a_node12"><a xlink:href="../../df/dee/Debug_8hpp.html" target="_top" xlink:title=" ">
<polygon fill="white" stroke="black" points="192,-280.5 192,-299.5 293,-299.5 293,-280.5 192,-280.5"/>
<text text-anchor="middle" x="242.5" y="-287.5" font-family="Helvetica,sans-Serif" font-size="10.00">Helpers/Debug.hpp</text>
</a>
</g>
</g>
<!-- Node10&#45;&gt;Node11 -->
<g id="edge13" class="edge"><title>Node10&#45;&gt;Node11</title>
<path fill="none" stroke="midnightblue" d="M320.558,-336.324C305.915,-327.822 283.366,-314.729 266.262,-304.797"/>
<polygon fill="midnightblue" stroke="midnightblue" points="267.81,-301.649 257.405,-299.655 264.295,-307.703 267.81,-301.649"/>
</g>
<!-- Node17 -->
<g id="node18" class="node"><title>Node17</title>
<g id="a_node18"><a xlink:title=" ">
<polygon fill="white" stroke="#bfbfbf" points="311.5,-280.5 311.5,-299.5 359.5,-299.5 359.5,-280.5 311.5,-280.5"/>
<text text-anchor="middle" x="335.5" y="-287.5" font-family="Helvetica,sans-Serif" font-size="10.00">stdlib.h</text>
</a>
</g>
</g>
<!-- Node10&#45;&gt;Node17 -->
<g id="edge21" class="edge"><title>Node10&#45;&gt;Node17</title>
<path fill="none" stroke="midnightblue" d="M335.5,-336.083C335.5,-329.006 335.5,-318.861 335.5,-309.986"/>
<polygon fill="midnightblue" stroke="midnightblue" points="339,-309.751 335.5,-299.751 332,-309.751 339,-309.751"/>
</g>
<!-- Node18 -->
<g id="node19" class="node"><title>Node18</title>
<g id="a_node19"><a xlink:title=" ">
<polygon fill="white" stroke="#bfbfbf" points="378,-280.5 378,-299.5 425,-299.5 425,-280.5 378,-280.5"/>
<text text-anchor="middle" x="401.5" y="-287.5" font-family="Helvetica,sans-Serif" font-size="10.00">iterator</text>
</a>
</g>
</g>
<!-- Node10&#45;&gt;Node18 -->
<g id="edge22" class="edge"><title>Node10&#45;&gt;Node18</title>
<path fill="none" stroke="midnightblue" d="M346.104,-336.324C355.956,-328.263 370.851,-316.077 382.715,-306.369"/>
<polygon fill="midnightblue" stroke="midnightblue" points="385.18,-308.875 390.703,-299.834 380.747,-303.457 385.18,-308.875"/>
</g>
<!-- Node12 -->
<g id="node13" class="node"><title>Node12</title>
<g id="a_node13"><a xlink:href="../../d2/dd5/SettingsWrapper_8hpp.html" target="_top" xlink:title=" ">
<polygon fill="white" stroke="black" points="169,-224.5 169,-243.5 316,-243.5 316,-224.5 169,-224.5"/>
<text text-anchor="middle" x="242.5" y="-231.5" font-family="Helvetica,sans-Serif" font-size="10.00">Settings/SettingsWrapper.hpp</text>
</a>
</g>
</g>
<!-- Node11&#45;&gt;Node12 -->
<g id="edge14" class="edge"><title>Node11&#45;&gt;Node12</title>
<path fill="none" stroke="midnightblue" d="M237.334,-280.083C235.824,-272.927 235.394,-262.635 236.042,-253.691"/>
<polygon fill="midnightblue" stroke="midnightblue" points="239.515,-254.126 237.369,-243.751 232.577,-253.2 239.515,-254.126"/>
</g>
<!-- Node15 -->
<g id="node16" class="node"><title>Node15</title>
<g id="a_node16"><a xlink:href="../../dd/d80/PrintStream_8hpp.html" target="_top" xlink:title=" ">
<polygon fill="white" stroke="black" points="336,-224.5 336,-243.5 423,-243.5 423,-224.5 336,-224.5"/>
<text text-anchor="middle" x="379.5" y="-231.5" font-family="Helvetica,sans-Serif" font-size="10.00">PrintStream.hpp</text>
</a>
</g>
</g>
<!-- Node11&#45;&gt;Node15 -->
<g id="edge19" class="edge"><title>Node11&#45;&gt;Node15</title>
<path fill="none" stroke="midnightblue" d="M264.208,-280.444C286.855,-271.517 322.572,-257.439 348.252,-247.317"/>
<polygon fill="midnightblue" stroke="midnightblue" points="349.874,-250.44 357.894,-243.516 347.307,-243.927 349.874,-250.44"/>
</g>
<!-- Node12&#45;&gt;Node11 -->
<g id="edge18" class="edge"><title>Node12&#45;&gt;Node11</title>
<path fill="none" stroke="midnightblue" d="M247.631,-243.751C249.157,-250.858 249.604,-261.136 248.972,-270.101"/>
<polygon fill="midnightblue" stroke="midnightblue" points="245.493,-269.713 247.666,-280.083 252.434,-270.622 245.493,-269.713"/>
</g>
<!-- Node13 -->
<g id="node14" class="node"><title>Node13</title>
<g id="a_node14"><a xlink:href="../../db/d02/Settings_8hpp.html" target="_top" xlink:title="All user settings and debugging options can be changed here.">
<polygon fill="white" stroke="black" points="165,-168.5 165,-187.5 236,-187.5 236,-168.5 165,-168.5"/>
<text text-anchor="middle" x="200.5" y="-175.5" font-family="Helvetica,sans-Serif" font-size="10.00">Settings.hpp</text>
</a>
</g>
</g>
<!-- Node12&#45;&gt;Node13 -->
<g id="edge15" class="edge"><title>Node12&#45;&gt;Node13</title>
<path fill="none" stroke="midnightblue" d="M235.565,-224.083C229.571,-216.377 220.748,-205.033 213.452,-195.653"/>
<polygon fill="midnightblue" stroke="midnightblue" points="216.209,-193.496 207.306,-187.751 210.683,-197.793 216.209,-193.496"/>
</g>
<!-- Node14 -->
<g id="node15" class="node"><title>Node14</title>
<g id="a_node15"><a xlink:href="../../d9/d98/TeensyUSBTypes_8hpp.html" target="_top" xlink:title=" ">
<polygon fill="white" stroke="black" points="254.5,-168.5 254.5,-187.5 406.5,-187.5 406.5,-168.5 254.5,-168.5"/>
<text text-anchor="middle" x="330.5" y="-175.5" font-family="Helvetica,sans-Serif" font-size="10.00">Helpers/TeensyUSBTypes.hpp</text>
</a>
</g>
</g>
<!-- Node12&#45;&gt;Node14 -->
<g id="edge17" class="edge"><title>Node12&#45;&gt;Node14</title>
<path fill="none" stroke="midnightblue" d="M256.639,-224.324C270.366,-215.9 291.436,-202.971 307.564,-193.074"/>
<polygon fill="midnightblue" stroke="midnightblue" points="309.704,-195.868 316.396,-187.655 306.043,-189.902 309.704,-195.868"/>
</g>
<!-- Node13&#45;&gt;Node4 -->
<g id="edge16" class="edge"><title>Node13&#45;&gt;Node4</title>
<path fill="none" stroke="midnightblue" d="M195.216,-168.083C190.789,-160.613 184.337,-149.724 178.882,-140.52"/>
<polygon fill="midnightblue" stroke="midnightblue" points="181.795,-138.57 173.686,-131.751 175.773,-142.138 181.795,-138.57"/>
</g>
<!-- Node15&#45;&gt;Node16 -->
<g id="edge20" class="edge"><title>Node15&#45;&gt;Node16</title>
<path fill="none" stroke="midnightblue" d="M391.389,-224.324C402.65,-216.107 419.787,-203.602 433.209,-193.807"/>
<polygon fill="midnightblue" stroke="midnightblue" points="435.38,-196.556 441.394,-187.834 431.253,-190.901 435.38,-196.556"/>
</g>
</g>
</svg>
