<?xml version="1.0" encoding="UTF-8" standalone="no"?>
<!DOCTYPE svg PUBLIC "-//W3C//DTD SVG 1.1//EN"
 "http://www.w3.org/Graphics/SVG/1.1/DTD/svg11.dtd">
<!-- Generated by graphviz version 2.38.0 (20140413.2041)
 -->
<!-- Title: BankableMIDIInput::matchBankable Pages: 1 -->
<svg width="308pt" height="235pt"
 viewBox="0.00 0.00 308.00 235.00" xmlns="http://www.w3.org/2000/svg" xmlns:xlink="http://www.w3.org/1999/xlink">
<g id="graph0" class="graph" transform="scale(1 1) rotate(0) translate(4 231)">
<title>BankableMIDIInput::matchBankable</title>
<polygon fill="white" stroke="none" points="-4,4 -4,-231 304,-231 304,4 -4,4"/>
<!-- Node92 -->
<g id="node1" class="node"><title>Node92</title>
<g id="a_node1"><a xlink:title="Check if the given address is part of the bank relative to the base address.">
<polygon fill="#bfbfbf" stroke="black" points="193,-98.5 193,-128.5 300,-128.5 300,-98.5 193,-98.5"/>
<text text-anchor="start" x="201" y="-116.5" font-family="Helvetica,sans-Serif" font-size="10.00">BankableMIDIInput::</text>
<text text-anchor="middle" x="246.5" y="-105.5" font-family="Helvetica,sans-Serif" font-size="10.00">matchBankable</text>
</a>
</g>
</g>
<!-- Node93 -->
<g id="node2" class="node"><title>Node93</title>
<g id="a_node2"><a xlink:href="../../db/d6e/classBankableMIDIInput.html#aee737e5e10cdda105bc65c0424f71cc0" target="_top" xlink:title="Check whether a given address is part of the bank relative to the base address.">
<polygon fill="white" stroke="black" points="25,-196.5 25,-226.5 132,-226.5 132,-196.5 25,-196.5"/>
<text text-anchor="start" x="33" y="-214.5" font-family="Helvetica,sans-Serif" font-size="10.00">BankableMIDIInput::</text>
<text text-anchor="middle" x="78.5" y="-203.5" font-family="Helvetica,sans-Serif" font-size="10.00">matchBankable</text>
</a>
</g>
</g>
<!-- Node92&#45;&gt;Node93 -->
<g id="edge1" class="edge"><title>Node92&#45;&gt;Node93</title>
<path fill="none" stroke="midnightblue" d="M224.034,-135.699C207.152,-152.038 182.324,-173.719 157,-187.5 149.329,-191.674 140.828,-195.234 132.349,-198.233"/>
<polygon fill="midnightblue" stroke="midnightblue" points="226.55,-138.133 231.204,-128.615 221.63,-133.153 226.55,-138.133"/>
</g>
<!-- Node94 -->
<g id="node3" class="node"><title>Node94</title>
<g id="a_node3"><a xlink:href="../../db/d6e/classBankableMIDIInput.html#a39912b6c8d039c840aa9a1e73e645318" target="_top" xlink:title="Check whether a given address is part of the bank relative to the base address and within a range wit...">
<polygon fill="white" stroke="black" points="0,-147.5 0,-177.5 157,-177.5 157,-147.5 0,-147.5"/>
<text text-anchor="start" x="8" y="-165.5" font-family="Helvetica,sans-Serif" font-size="10.00">BankableMIDIInput::</text>
<text text-anchor="middle" x="78.5" y="-154.5" font-family="Helvetica,sans-Serif" font-size="10.00">matchBankableAddressInRange</text>
</a>
</g>
</g>
<!-- Node92&#45;&gt;Node94 -->
<g id="edge2" class="edge"><title>Node92&#45;&gt;Node94</title>
<path fill="none" stroke="midnightblue" d="M184.632,-131.467C166.846,-136.717 147.598,-142.399 130.491,-147.448"/>
<polygon fill="midnightblue" stroke="midnightblue" points="185.74,-134.789 194.34,-128.601 183.758,-128.076 185.74,-134.789"/>
</g>
<!-- Node95 -->
<g id="node4" class="node"><title>Node95</title>
<g id="a_node4"><a xlink:href="../../d0/d42/classBankable_1_1MIDINote.html#a8b16cda23d79b67e985342d43ef804ba" target="_top" xlink:title="Check if the address of the incoming MIDI message matches an address of this element.">
<polygon fill="white" stroke="black" points="25.5,-98.5 25.5,-128.5 131.5,-128.5 131.5,-98.5 25.5,-98.5"/>
<text text-anchor="start" x="33.5" y="-116.5" font-family="Helvetica,sans-Serif" font-size="10.00">Bankable::MIDINote</text>
<text text-anchor="middle" x="78.5" y="-105.5" font-family="Helvetica,sans-Serif" font-size="10.00">::match</text>
</a>
</g>
</g>
<!-- Node92&#45;&gt;Node95 -->
<g id="edge3" class="edge"><title>Node92&#45;&gt;Node95</title>
<path fill="none" stroke="midnightblue" d="M182.682,-113.5C165.86,-113.5 147.86,-113.5 131.682,-113.5"/>
<polygon fill="midnightblue" stroke="midnightblue" points="182.977,-117 192.977,-113.5 182.977,-110 182.977,-117"/>
</g>
<!-- Node96 -->
<g id="node5" class="node"><title>Node96</title>
<g id="a_node5"><a xlink:href="../../da/d93/classMCU_1_1Bankable_1_1VPotRing.html#ae20a608caddcf53d4a131532dfc73abc" target="_top" xlink:title="Check if the address of the incoming MIDI message matches an address of this element.">
<polygon fill="white" stroke="black" points="11.5,-49.5 11.5,-79.5 145.5,-79.5 145.5,-49.5 11.5,-49.5"/>
<text text-anchor="start" x="19.5" y="-67.5" font-family="Helvetica,sans-Serif" font-size="10.00">MCU::Bankable::VPotRing</text>
<text text-anchor="middle" x="78.5" y="-56.5" font-family="Helvetica,sans-Serif" font-size="10.00">::match</text>
</a>
</g>
</g>
<!-- Node92&#45;&gt;Node96 -->
<g id="edge4" class="edge"><title>Node92&#45;&gt;Node96</title>
<path fill="none" stroke="midnightblue" d="M184.632,-95.533C166.846,-90.283 147.598,-84.6011 130.491,-79.5516"/>
<polygon fill="midnightblue" stroke="midnightblue" points="183.758,-98.9243 194.34,-98.3986 185.74,-92.2106 183.758,-98.9243"/>
</g>
<!-- Node97 -->
<g id="node6" class="node"><title>Node97</title>
<g id="a_node6"><a xlink:href="../../d0/d43/classMCU_1_1Bankable_1_1VU.html#a1ce171c65fdad2a6796ab53e60facd49" target="_top" xlink:title=" ">
<polygon fill="white" stroke="black" points="22,-0.5 22,-30.5 135,-30.5 135,-0.5 22,-0.5"/>
<text text-anchor="start" x="30" y="-18.5" font-family="Helvetica,sans-Serif" font-size="10.00">MCU::Bankable::VU&lt;</text>
<text text-anchor="middle" x="78.5" y="-7.5" font-family="Helvetica,sans-Serif" font-size="10.00"> M &gt;::match</text>
</a>
</g>
</g>
<!-- Node92&#45;&gt;Node97 -->
<g id="edge5" class="edge"><title>Node92&#45;&gt;Node97</title>
<path fill="none" stroke="midnightblue" d="M223.626,-91.4098C206.699,-75.3774 181.998,-54.1849 157,-40.5 150.179,-36.7661 142.712,-33.4827 135.191,-30.6286"/>
<polygon fill="midnightblue" stroke="midnightblue" points="221.205,-93.9375 230.829,-98.3675 226.068,-88.9026 221.205,-93.9375"/>
</g>
</g>
</svg>
