<?xml version="1.0" encoding="UTF-8" standalone="no"?>
<!DOCTYPE svg PUBLIC "-//W3C//DTD SVG 1.1//EN"
 "http://www.w3.org/Graphics/SVG/1.1/DTD/svg11.dtd">
<!-- Generated by graphviz version 2.38.0 (20140413.2041)
 -->
<!-- Title: SelectorLEDs.hpp Pages: 1 -->
<svg width="803pt" height="162pt"
 viewBox="0.00 0.00 803.00 162.00" xmlns="http://www.w3.org/2000/svg" xmlns:xlink="http://www.w3.org/1999/xlink">
<g id="graph0" class="graph" transform="scale(1 1) rotate(0) translate(4 158)">
<title>SelectorLEDs.hpp</title>
<polygon fill="white" stroke="none" points="-4,4 -4,-158 799,-158 799,4 -4,4"/>
<!-- Node21 -->
<g id="node1" class="node"><title>Node21</title>
<g id="a_node1"><a xlink:title=" ">
<polygon fill="#bfbfbf" stroke="black" points="406,-134.5 406,-153.5 502,-153.5 502,-134.5 406,-134.5"/>
<text text-anchor="middle" x="454" y="-141.5" font-family="Helvetica,sans-Serif" font-size="10.00">SelectorLEDs.hpp</text>
</a>
</g>
</g>
<!-- Node22 -->
<g id="node2" class="node"><title>Node22</title>
<g id="a_node2"><a xlink:href="../../d9/dc4/EncoderSelectorLEDs_8hpp.html" target="_top" xlink:title=" ">
<polygon fill="white" stroke="black" points="549,-73 549,-92 681,-92 681,-73 549,-73"/>
<text text-anchor="middle" x="615" y="-80" font-family="Helvetica,sans-Serif" font-size="10.00">EncoderSelectorLEDs.hpp</text>
</a>
</g>
</g>
<!-- Node21&#45;&gt;Node22 -->
<g id="edge1" class="edge"><title>Node21&#45;&gt;Node22</title>
<path fill="none" stroke="midnightblue" d="M486.652,-130.933C517.945,-119.368 564.378,-102.208 591.975,-92.0091"/>
<polygon fill="midnightblue" stroke="midnightblue" points="485.234,-127.726 477.067,-134.475 487.661,-134.292 485.234,-127.726"/>
</g>
<!-- Node25 -->
<g id="node5" class="node"><title>Node25</title>
<g id="a_node5"><a xlink:href="../../d3/dbd/IncrementDecrementSelectorLEDs_8hpp.html" target="_top" xlink:title=" ">
<polygon fill="white" stroke="black" points="57,-67.5 57,-97.5 201,-97.5 201,-67.5 57,-67.5"/>
<text text-anchor="start" x="65" y="-85.5" font-family="Helvetica,sans-Serif" font-size="10.00">IncrementDecrementSelector</text>
<text text-anchor="middle" x="129" y="-74.5" font-family="Helvetica,sans-Serif" font-size="10.00">LEDs.hpp</text>
</a>
</g>
</g>
<!-- Node21&#45;&gt;Node25 -->
<g id="edge4" class="edge"><title>Node21&#45;&gt;Node25</title>
<path fill="none" stroke="midnightblue" d="M397.271,-132.614C342.826,-122.647 260.37,-107.551 201.251,-96.7275"/>
<polygon fill="midnightblue" stroke="midnightblue" points="396.969,-136.117 407.435,-134.475 398.229,-129.231 396.969,-136.117"/>
</g>
<!-- Node27 -->
<g id="node7" class="node"><title>Node27</title>
<g id="a_node7"><a xlink:href="../../db/d24/IncrementSelectorLEDs_8hpp.html" target="_top" xlink:title=" ">
<polygon fill="white" stroke="black" points="219,-73 219,-92 359,-92 359,-73 219,-73"/>
<text text-anchor="middle" x="289" y="-80" font-family="Helvetica,sans-Serif" font-size="10.00">IncrementSelectorLEDs.hpp</text>
</a>
</g>
</g>
<!-- Node21&#45;&gt;Node27 -->
<g id="edge7" class="edge"><title>Node21&#45;&gt;Node27</title>
<path fill="none" stroke="midnightblue" d="M420.952,-131.083C388.879,-119.517 341.002,-102.252 312.597,-92.0091"/>
<polygon fill="midnightblue" stroke="midnightblue" points="419.765,-134.375 430.36,-134.475 422.14,-127.79 419.765,-134.375"/>
</g>
<!-- Node29 -->
<g id="node9" class="node"><title>Node29</title>
<g id="a_node9"><a xlink:href="../../d7/d92/ManyButtonsSelectorLEDs_8hpp.html" target="_top" xlink:title=" ">
<polygon fill="white" stroke="black" points="377,-73 377,-92 531,-92 531,-73 377,-73"/>
<text text-anchor="middle" x="454" y="-80" font-family="Helvetica,sans-Serif" font-size="10.00">ManyButtonsSelectorLEDs.hpp</text>
</a>
</g>
</g>
<!-- Node21&#45;&gt;Node29 -->
<g id="edge10" class="edge"><title>Node21&#45;&gt;Node29</title>
<path fill="none" stroke="midnightblue" d="M454,-124.317C454,-113.496 454,-100.398 454,-92.0091"/>
<polygon fill="midnightblue" stroke="midnightblue" points="450.5,-124.475 454,-134.475 457.5,-124.475 450.5,-124.475"/>
</g>
<!-- Node31 -->
<g id="node11" class="node"><title>Node31</title>
<g id="a_node11"><a xlink:href="../../de/daf/SelectorLEDs_8cpp.html" target="_top" xlink:title=" ">
<polygon fill="white" stroke="black" points="699,-73 699,-92 795,-92 795,-73 699,-73"/>
<text text-anchor="middle" x="747" y="-80" font-family="Helvetica,sans-Serif" font-size="10.00">SelectorLEDs.cpp</text>
</a>
</g>
</g>
<!-- Node21&#45;&gt;Node31 -->
<g id="edge13" class="edge"><title>Node21&#45;&gt;Node31</title>
<path fill="none" stroke="midnightblue" d="M511.966,-132.96C559.863,-124.421 629.56,-111.437 690,-98 698.074,-96.2051 706.745,-94.0943 714.827,-92.0474"/>
<polygon fill="midnightblue" stroke="midnightblue" points="511.322,-129.519 502.087,-134.713 512.545,-136.412 511.322,-129.519"/>
</g>
<!-- Node23 -->
<g id="node3" class="node"><title>Node23</title>
<g id="a_node3"><a xlink:href="../../db/dbf/Control__Surface_8h.html" target="_top" xlink:title="The main header file that includes all Control&#45;Surface header files.">
<polygon fill="white" stroke="black" points="320.5,-6 320.5,-25 415.5,-25 415.5,-6 320.5,-6"/>
<text text-anchor="middle" x="368" y="-13" font-family="Helvetica,sans-Serif" font-size="10.00">Control_Surface.h</text>
</a>
</g>
</g>
<!-- Node22&#45;&gt;Node23 -->
<g id="edge2" class="edge"><title>Node22&#45;&gt;Node23</title>
<path fill="none" stroke="midnightblue" d="M572.529,-70.3234C523.757,-57.4887 444.805,-36.7118 400.617,-25.0834"/>
<polygon fill="midnightblue" stroke="midnightblue" points="571.894,-73.7753 582.455,-72.9355 573.675,-67.0058 571.894,-73.7753"/>
</g>
<!-- Node24 -->
<g id="node4" class="node"><title>Node24</title>
<g id="a_node4"><a xlink:href="../../d1/d90/EncoderSelectorLEDs_8cpp.html" target="_top" xlink:title=" ">
<polygon fill="white" stroke="black" points="606,-6 606,-25 738,-25 738,-6 606,-6"/>
<text text-anchor="middle" x="672" y="-13" font-family="Helvetica,sans-Serif" font-size="10.00">EncoderSelectorLEDs.cpp</text>
</a>
</g>
</g>
<!-- Node22&#45;&gt;Node24 -->
<g id="edge3" class="edge"><title>Node22&#45;&gt;Node24</title>
<path fill="none" stroke="midnightblue" d="M629.351,-65.1348C640.498,-52.4228 655.516,-35.2978 664.435,-25.1273"/>
<polygon fill="midnightblue" stroke="midnightblue" points="626.649,-62.9075 622.687,-72.7338 631.912,-67.5228 626.649,-62.9075"/>
</g>
<!-- Node25&#45;&gt;Node23 -->
<g id="edge5" class="edge"><title>Node25&#45;&gt;Node23</title>
<path fill="none" stroke="midnightblue" d="M190.293,-64.8304C237.068,-52.1091 299.586,-35.1062 336.641,-25.0287"/>
<polygon fill="midnightblue" stroke="midnightblue" points="189.296,-61.4743 180.565,-67.476 191.133,-68.2289 189.296,-61.4743"/>
</g>
<!-- Node26 -->
<g id="node6" class="node"><title>Node26</title>
<g id="a_node6"><a xlink:href="../../dd/dad/IncrementDecrementSelectorLEDs_8cpp.html" target="_top" xlink:title=" ">
<polygon fill="white" stroke="black" points="0,-0.5 0,-30.5 144,-30.5 144,-0.5 0,-0.5"/>
<text text-anchor="start" x="8" y="-18.5" font-family="Helvetica,sans-Serif" font-size="10.00">IncrementDecrementSelector</text>
<text text-anchor="middle" x="72" y="-7.5" font-family="Helvetica,sans-Serif" font-size="10.00">LEDs.cpp</text>
</a>
</g>
</g>
<!-- Node25&#45;&gt;Node26 -->
<g id="edge6" class="edge"><title>Node25&#45;&gt;Node26</title>
<path fill="none" stroke="midnightblue" d="M109.915,-59.7362C101.481,-50.119 91.8086,-39.0888 84.344,-30.5765"/>
<polygon fill="midnightblue" stroke="midnightblue" points="107.407,-62.185 116.632,-67.396 112.67,-57.5697 107.407,-62.185"/>
</g>
<!-- Node27&#45;&gt;Node23 -->
<g id="edge8" class="edge"><title>Node27&#45;&gt;Node23</title>
<path fill="none" stroke="midnightblue" d="M307.579,-66.2134C323.144,-53.407 344.8,-35.5884 357.515,-25.1273"/>
<polygon fill="midnightblue" stroke="midnightblue" points="305.153,-63.6774 299.654,-72.7338 309.6,-69.0829 305.153,-63.6774"/>
</g>
<!-- Node28 -->
<g id="node8" class="node"><title>Node28</title>
<g id="a_node8"><a xlink:href="../../db/ddc/IncrementSelectorLEDs_8cpp.html" target="_top" xlink:title=" ">
<polygon fill="white" stroke="black" points="162,-6 162,-25 302,-25 302,-6 162,-6"/>
<text text-anchor="middle" x="232" y="-13" font-family="Helvetica,sans-Serif" font-size="10.00">IncrementSelectorLEDs.cpp</text>
</a>
</g>
</g>
<!-- Node27&#45;&gt;Node28 -->
<g id="edge9" class="edge"><title>Node27&#45;&gt;Node28</title>
<path fill="none" stroke="midnightblue" d="M274.649,-65.1348C263.502,-52.4228 248.484,-35.2978 239.565,-25.1273"/>
<polygon fill="midnightblue" stroke="midnightblue" points="272.088,-67.5228 281.313,-72.7338 277.351,-62.9075 272.088,-67.5228"/>
</g>
<!-- Node29&#45;&gt;Node23 -->
<g id="edge11" class="edge"><title>Node29&#45;&gt;Node23</title>
<path fill="none" stroke="midnightblue" d="M434.244,-66.5678C417.268,-53.7376 393.384,-35.6853 379.415,-25.1273"/>
<polygon fill="midnightblue" stroke="midnightblue" points="432.314,-69.4963 442.402,-72.7338 436.534,-63.9119 432.314,-69.4963"/>
</g>
<!-- Node30 -->
<g id="node10" class="node"><title>Node30</title>
<g id="a_node10"><a xlink:href="../../df/dea/ManyButtonsSelectorLEDs_8cpp.html" target="_top" xlink:title=" ">
<polygon fill="white" stroke="black" points="434,-6 434,-25 588,-25 588,-6 434,-6"/>
<text text-anchor="middle" x="511" y="-13" font-family="Helvetica,sans-Serif" font-size="10.00">ManyButtonsSelectorLEDs.cpp</text>
</a>
</g>
</g>
<!-- Node29&#45;&gt;Node30 -->
<g id="edge12" class="edge"><title>Node29&#45;&gt;Node30</title>
<path fill="none" stroke="midnightblue" d="M468.351,-65.1348C479.498,-52.4228 494.516,-35.2978 503.435,-25.1273"/>
<polygon fill="midnightblue" stroke="midnightblue" points="465.649,-62.9075 461.687,-72.7338 470.912,-67.5228 465.649,-62.9075"/>
</g>
</g>
</svg>
