<?xml version="1.0" encoding="UTF-8" standalone="no"?>
<!DOCTYPE svg PUBLIC "-//W3C//DTD SVG 1.1//EN"
 "http://www.w3.org/Graphics/SVG/1.1/DTD/svg11.dtd">
<!-- Generated by graphviz version 2.38.0 (20140413.2041)
 -->
<!-- Title: DroneState::setVelocity Pages: 1 -->
<svg width="564pt" height="104pt"
 viewBox="0.00 0.00 564.00 104.00" xmlns="http://www.w3.org/2000/svg" xmlns:xlink="http://www.w3.org/1999/xlink">
<g id="graph0" class="graph" transform="scale(1 1) rotate(0) translate(4 100)">
<title>DroneState::setVelocity</title>
<polygon fill="white" stroke="none" points="-4,4 -4,-100 560,-100 560,4 -4,4"/>
<!-- Node134 -->
<g id="node1" class="node"><title>Node134</title>
<g id="a_node1"><a xlink:title=" ">
<polygon fill="#bfbfbf" stroke="black" points="435,-38.5 435,-57.5 556,-57.5 556,-38.5 435,-38.5"/>
<text text-anchor="middle" x="495.5" y="-45.5" font-family="Helvetica,sans-Serif" font-size="10.00">DroneState::setVelocity</text>
</a>
</g>
</g>
<!-- Node135 -->
<g id="node2" class="node"><title>Node135</title>
<g id="a_node2"><a xlink:href="../../dd/d92/structDrone.html#ac75f630cd2bd71e5bfc582585f832f22" target="_top" xlink:title="Calculate the derivative of the state vector, given the current state x and the current input u.">
<polygon fill="white" stroke="black" points="297.5,-76.5 297.5,-95.5 387.5,-95.5 387.5,-76.5 297.5,-76.5"/>
<text text-anchor="middle" x="342.5" y="-83.5" font-family="Helvetica,sans-Serif" font-size="10.00">Drone::operator()</text>
</a>
</g>
</g>
<!-- Node134&#45;&gt;Node135 -->
<g id="edge1" class="edge"><title>Node134&#45;&gt;Node135</title>
<path fill="none" stroke="midnightblue" d="M446.657,-60.04C425.561,-65.3488 401.123,-71.4988 381.33,-76.4799"/>
<polygon fill="midnightblue" stroke="midnightblue" points="447.553,-63.4237 456.396,-57.589 445.844,-56.6354 447.553,-63.4237"/>
</g>
<!-- Node136 -->
<g id="node3" class="node"><title>Node136</title>
<g id="a_node3"><a xlink:href="../../dd/d92/structDrone.html#a700e4ca036d7e47930808cf09f970b87" target="_top" xlink:title="Get the initial state of the drone. (Upright orientation and hovering thrust.)">
<polygon fill="white" stroke="black" points="286,-38.5 286,-57.5 399,-57.5 399,-38.5 286,-38.5"/>
<text text-anchor="middle" x="342.5" y="-45.5" font-family="Helvetica,sans-Serif" font-size="10.00">Drone::getStableState</text>
</a>
</g>
</g>
<!-- Node134&#45;&gt;Node136 -->
<g id="edge2" class="edge"><title>Node134&#45;&gt;Node136</title>
<path fill="none" stroke="midnightblue" d="M424.565,-48C416.096,-48 407.532,-48 399.305,-48"/>
<polygon fill="midnightblue" stroke="midnightblue" points="424.821,-51.5001 434.821,-48 424.821,-44.5001 424.821,-51.5001"/>
</g>
<!-- Node139 -->
<g id="node6" class="node"><title>Node139</title>
<g id="a_node6"><a xlink:href="../../dd/d2c/PyDrone_8hpp.html#aed0ee5ed76a43abda91eddf6407965d3" target="_top" xlink:title=" ">
<polygon fill="white" stroke="black" points="74,-0.5 74,-19.5 250,-19.5 250,-0.5 74,-0.5"/>
<text text-anchor="middle" x="162" y="-7.5" font-family="Helvetica,sans-Serif" font-size="10.00">PYBIND11_EMBEDDED_MODULE</text>
</a>
</g>
</g>
<!-- Node134&#45;&gt;Node139 -->
<g id="edge7" class="edge"><title>Node134&#45;&gt;Node139</title>
<path fill="none" stroke="midnightblue" d="M441.989,-36.4159C428.069,-33.6571 413.012,-30.9512 399,-29 349.942,-22.1686 294.779,-17.5587 250.128,-14.5925"/>
<polygon fill="midnightblue" stroke="midnightblue" points="441.398,-39.8671 451.894,-38.4239 442.789,-33.0067 441.398,-39.8671"/>
</g>
<!-- Node137 -->
<g id="node4" class="node"><title>Node137</title>
<g id="a_node4"><a xlink:href="../../d6/dba/plot-simulation_2main_8cpp.html#abf9e6b7e6f15df4b525a2e7705ba3089" target="_top" xlink:title=" ">
<polygon fill="white" stroke="black" points="0,-57.5 0,-76.5 38,-76.5 38,-57.5 0,-57.5"/>
<text text-anchor="middle" x="19" y="-64.5" font-family="Helvetica,sans-Serif" font-size="10.00">main</text>
</a>
</g>
</g>
<!-- Node136&#45;&gt;Node137 -->
<g id="edge3" class="edge"><title>Node136&#45;&gt;Node137</title>
<path fill="none" stroke="midnightblue" d="M294.357,-59.7114C280.19,-62.7087 264.546,-65.5057 250,-67 171.55,-75.0591 77.2526,-70.6833 38.2524,-68.2625"/>
<polygon fill="midnightblue" stroke="midnightblue" points="295.359,-63.0748 304.375,-57.5093 293.856,-56.238 295.359,-63.0748"/>
</g>
<!-- Node138 -->
<g id="node5" class="node"><title>Node138</title>
<g id="a_node5"><a xlink:href="../../dd/d45/PlotStepResponse_8cpp.html#a14437a39eb41862d4bc3e7044e935c21" target="_top" xlink:title=" ">
<polygon fill="white" stroke="black" points="96.5,-38.5 96.5,-57.5 227.5,-57.5 227.5,-38.5 96.5,-38.5"/>
<text text-anchor="middle" x="162" y="-45.5" font-family="Helvetica,sans-Serif" font-size="10.00">plotStepResponseAttitude</text>
</a>
</g>
</g>
<!-- Node136&#45;&gt;Node138 -->
<g id="edge4" class="edge"><title>Node136&#45;&gt;Node138</title>
<path fill="none" stroke="midnightblue" d="M275.817,-48C260.055,-48 243.236,-48 227.527,-48"/>
<polygon fill="midnightblue" stroke="midnightblue" points="276,-51.5001 286,-48 276,-44.5001 276,-51.5001"/>
</g>
<!-- Node136&#45;&gt;Node139 -->
<g id="edge6" class="edge"><title>Node136&#45;&gt;Node139</title>
<path fill="none" stroke="midnightblue" d="M286.63,-36.319C261.316,-30.9301 231.647,-24.6139 207.719,-19.5201"/>
<polygon fill="midnightblue" stroke="midnightblue" points="285.947,-39.752 296.457,-38.411 287.405,-32.9054 285.947,-39.752"/>
</g>
<!-- Node138&#45;&gt;Node137 -->
<g id="edge5" class="edge"><title>Node138&#45;&gt;Node137</title>
<path fill="none" stroke="midnightblue" d="M86.2785,-58.0689C68.2947,-60.4922 50.6786,-62.866 38.1334,-64.5565"/>
<polygon fill="midnightblue" stroke="midnightblue" points="86.8344,-61.5257 96.2774,-56.7215 85.8996,-54.5884 86.8344,-61.5257"/>
</g>
</g>
</svg>
