<?xml version="1.0" encoding="UTF-8" standalone="no"?>
<!DOCTYPE svg PUBLIC "-//W3C//DTD SVG 1.1//EN"
 "http://www.w3.org/Graphics/SVG/1.1/DTD/svg11.dtd">
<!-- Generated by graphviz version 2.38.0 (20140413.2041)
 -->
<!-- Title: DroneState::getMotorSpeed Pages: 1 -->
<svg width="601pt" height="78pt"
 viewBox="0.00 0.00 601.00 78.32" xmlns="http://www.w3.org/2000/svg" xmlns:xlink="http://www.w3.org/1999/xlink">
<g id="graph0" class="graph" transform="scale(1 1) rotate(0) translate(4 74.3223)">
<title>DroneState::getMotorSpeed</title>
<polygon fill="white" stroke="none" points="-4,4 -4,-74.3223 597,-74.3223 597,4 -4,4"/>
<!-- Node29 -->
<g id="node1" class="node"><title>Node29</title>
<g id="a_node1"><a xlink:title=" ">
<polygon fill="#bfbfbf" stroke="black" points="455,-12.8223 455,-31.8223 593,-31.8223 593,-12.8223 455,-12.8223"/>
<text text-anchor="middle" x="524" y="-19.8223" font-family="Helvetica,sans-Serif" font-size="10.00">DroneState::getMotorSpeed</text>
</a>
</g>
</g>
<!-- Node30 -->
<g id="node2" class="node"><title>Node30</title>
<g id="a_node2"><a xlink:href="../../dd/d92/structDrone.html#ac75f630cd2bd71e5bfc582585f832f22" target="_top" xlink:title="Calculate the derivative of the state vector, given the current state x and the current input u.">
<polygon fill="white" stroke="black" points="304.5,-50.8223 304.5,-69.8223 394.5,-69.8223 394.5,-50.8223 304.5,-50.8223"/>
<text text-anchor="middle" x="349.5" y="-57.8223" font-family="Helvetica,sans-Serif" font-size="10.00">Drone::operator()</text>
</a>
</g>
</g>
<!-- Node29&#45;&gt;Node30 -->
<g id="edge1" class="edge"><title>Node29&#45;&gt;Node30</title>
<path fill="none" stroke="midnightblue" d="M469.649,-34.0749C445.258,-39.4481 416.737,-45.7309 393.716,-50.8023"/>
<polygon fill="midnightblue" stroke="midnightblue" points="470.458,-37.4808 479.471,-31.9113 468.952,-30.6447 470.458,-37.4808"/>
</g>
<!-- Node31 -->
<g id="node3" class="node"><title>Node31</title>
<g id="a_node3"><a xlink:href="../../d9/d25/PlotHelpers_8cpp.html#a8b74d0bc930d1db920a69c7b606d32c0" target="_top" xlink:title="Convert a DronePlottable (a collection of an array of state vectors, an array of control signal vecto...">
<polygon fill="white" stroke="black" points="280,-12.8223 280,-31.8223 419,-31.8223 419,-12.8223 280,-12.8223"/>
<text text-anchor="middle" x="349.5" y="-19.8223" font-family="Helvetica,sans-Serif" font-size="10.00">dronePlottableToPythonDict</text>
</a>
</g>
</g>
<!-- Node29&#45;&gt;Node31 -->
<g id="edge2" class="edge"><title>Node29&#45;&gt;Node31</title>
<path fill="none" stroke="midnightblue" d="M444.8,-22.3223C436.202,-22.3223 427.496,-22.3223 419.029,-22.3223"/>
<polygon fill="midnightblue" stroke="midnightblue" points="444.823,-25.8224 454.823,-22.3223 444.823,-18.8224 444.823,-25.8224"/>
</g>
<!-- Node34 -->
<g id="node6" class="node"><title>Node34</title>
<g id="a_node6"><a xlink:href="../../dd/d2c/PyDrone_8hpp.html#aed0ee5ed76a43abda91eddf6407965d3" target="_top" xlink:title=" ">
<polygon fill="white" stroke="black" points="-1.42109e-14,-12.8223 -1.42109e-14,-31.8223 176,-31.8223 176,-12.8223 -1.42109e-14,-12.8223"/>
<text text-anchor="middle" x="88" y="-19.8223" font-family="Helvetica,sans-Serif" font-size="10.00">PYBIND11_EMBEDDED_MODULE</text>
</a>
</g>
</g>
<!-- Node29&#45;&gt;Node34 -->
<g id="edge7" class="edge"><title>Node29&#45;&gt;Node34</title>
<path fill="none" stroke="midnightblue" d="M470.746,-10.8711C454.275,-7.77536 435.954,-4.85833 419,-3.32233 327.556,4.96216 221.511,-4.53084 154.836,-12.8156"/>
<polygon fill="midnightblue" stroke="midnightblue" points="470.25,-14.3401 480.734,-12.811 471.585,-7.46851 470.25,-14.3401"/>
</g>
<!-- Node32 -->
<g id="node4" class="node"><title>Node32</title>
<g id="a_node4"><a xlink:href="../../da/d2d/Plot_8cpp.html#a61e578dae6815d60203e24791ecca5cc" target="_top" xlink:title="This function plots the reference, control signal, and states of the drone.">
<polygon fill="white" stroke="black" points="212,-50.8223 212,-69.8223 244,-69.8223 244,-50.8223 212,-50.8223"/>
<text text-anchor="middle" x="228" y="-57.8223" font-family="Helvetica,sans-Serif" font-size="10.00">plot</text>
</a>
</g>
</g>
<!-- Node31&#45;&gt;Node32 -->
<g id="edge3" class="edge"><title>Node31&#45;&gt;Node32</title>
<path fill="none" stroke="midnightblue" d="M301.842,-34.6834C294.502,-36.795 287.022,-39.0452 280,-41.3223 267.777,-45.2864 254.147,-50.4009 244.055,-54.3248"/>
<polygon fill="midnightblue" stroke="midnightblue" points="303.035,-37.9835 311.71,-31.9003 301.135,-31.2463 303.035,-37.9835"/>
</g>
<!-- Node31&#45;&gt;Node34 -->
<g id="edge6" class="edge"><title>Node31&#45;&gt;Node34</title>
<path fill="none" stroke="midnightblue" d="M269.707,-22.3223C240.134,-22.3223 206.361,-22.3223 176.078,-22.3223"/>
<polygon fill="midnightblue" stroke="midnightblue" points="269.98,-25.8224 279.98,-22.3223 269.98,-18.8224 269.98,-25.8224"/>
</g>
<!-- Node33 -->
<g id="node5" class="node"><title>Node33</title>
<g id="a_node5"><a xlink:href="../../d6/dba/plot-simulation_2main_8cpp.html#abf9e6b7e6f15df4b525a2e7705ba3089" target="_top" xlink:title=" ">
<polygon fill="white" stroke="black" points="69,-50.8223 69,-69.8223 107,-69.8223 107,-50.8223 69,-50.8223"/>
<text text-anchor="middle" x="88" y="-57.8223" font-family="Helvetica,sans-Serif" font-size="10.00">main</text>
</a>
</g>
</g>
<!-- Node32&#45;&gt;Node33 -->
<g id="edge4" class="edge"><title>Node32&#45;&gt;Node33</title>
<path fill="none" stroke="midnightblue" d="M201.614,-60.3223C174.201,-60.3223 131.221,-60.3223 107.058,-60.3223"/>
<polygon fill="midnightblue" stroke="midnightblue" points="201.969,-63.8224 211.969,-60.3223 201.969,-56.8224 201.969,-63.8224"/>
</g>
<!-- Node32&#45;&gt;Node34 -->
<g id="edge5" class="edge"><title>Node32&#45;&gt;Node34</title>
<path fill="none" stroke="midnightblue" d="M202.145,-50.2589C193.907,-47.1404 184.636,-43.8602 176,-41.3223 163.985,-37.7916 150.864,-34.5931 138.539,-31.8699"/>
<polygon fill="midnightblue" stroke="midnightblue" points="200.98,-53.561 211.568,-53.922 203.516,-47.0366 200.98,-53.561"/>
</g>
</g>
</svg>
