<?xml version="1.0" encoding="UTF-8" standalone="no"?>
<!DOCTYPE svg PUBLIC "-//W3C//DTD SVG 1.1//EN"
 "http://www.w3.org/Graphics/SVG/1.1/DTD/svg11.dtd">
<!-- Generated by graphviz version 2.38.0 (20140413.2041)
 -->
<!-- Title: Copy.hpp Pages: 1 -->
<svg width="314pt" height="252pt"
 viewBox="0.00 0.00 313.50 252.00" xmlns="http://www.w3.org/2000/svg" xmlns:xlink="http://www.w3.org/1999/xlink">
<g id="graph0" class="graph" transform="scale(1 1) rotate(0) translate(4 248)">
<title>Copy.hpp</title>
<polygon fill="white" stroke="none" points="-4,4 -4,-248 309.5,-248 309.5,4 -4,4"/>
<!-- Node2 -->
<g id="node1" class="node"><title>Node2</title>
<g id="a_node1"><a xlink:title=" ">
<polygon fill="#bfbfbf" stroke="black" points="155,-224.5 155,-243.5 214,-243.5 214,-224.5 155,-224.5"/>
<text text-anchor="middle" x="184.5" y="-231.5" font-family="Helvetica,sans-Serif" font-size="10.00">Copy.hpp</text>
</a>
</g>
</g>
<!-- Node3 -->
<g id="node2" class="node"><title>Node3</title>
<g id="a_node2"><a xlink:href="../../db/dda/VU_8hpp.html" target="_top" xlink:title=" ">
<polygon fill="white" stroke="black" points="159.5,-168.5 159.5,-187.5 209.5,-187.5 209.5,-168.5 159.5,-168.5"/>
<text text-anchor="middle" x="184.5" y="-175.5" font-family="Helvetica,sans-Serif" font-size="10.00">VU.hpp</text>
</a>
</g>
</g>
<!-- Node2&#45;&gt;Node3 -->
<g id="edge1" class="edge"><title>Node2&#45;&gt;Node3</title>
<path fill="none" stroke="midnightblue" d="M184.5,-213.805C184.5,-204.91 184.5,-194.78 184.5,-187.751"/>
<polygon fill="midnightblue" stroke="midnightblue" points="181,-214.083 184.5,-224.083 188,-214.083 181,-214.083"/>
</g>
<!-- Node4 -->
<g id="node3" class="node"><title>Node4</title>
<g id="a_node3"><a xlink:href="../../dc/de8/AudioVU_8hpp.html" target="_top" xlink:title=" ">
<polygon fill="white" stroke="black" points="63.5,-112.5 63.5,-131.5 137.5,-131.5 137.5,-112.5 63.5,-112.5"/>
<text text-anchor="middle" x="100.5" y="-119.5" font-family="Helvetica,sans-Serif" font-size="10.00">AudioVU.hpp</text>
</a>
</g>
</g>
<!-- Node3&#45;&gt;Node4 -->
<g id="edge2" class="edge"><title>Node3&#45;&gt;Node4</title>
<path fill="none" stroke="midnightblue" d="M162.568,-162.901C147.165,-152.999 127.054,-140.071 113.963,-131.655"/>
<polygon fill="midnightblue" stroke="midnightblue" points="160.699,-165.86 171.004,-168.324 164.485,-159.972 160.699,-165.86"/>
</g>
<!-- Node6 -->
<g id="node5" class="node"><title>Node6</title>
<g id="a_node5"><a xlink:href="../../db/dbf/Control__Surface_8h.html" target="_top" xlink:title="The main header file that includes all Control&#45;Surface header files.">
<polygon fill="white" stroke="black" points="99,-0.5 99,-19.5 194,-19.5 194,-0.5 99,-0.5"/>
<text text-anchor="middle" x="146.5" y="-7.5" font-family="Helvetica,sans-Serif" font-size="10.00">Control_Surface.h</text>
</a>
</g>
</g>
<!-- Node3&#45;&gt;Node6 -->
<g id="edge8" class="edge"><title>Node3&#45;&gt;Node6</title>
<path fill="none" stroke="midnightblue" d="M180.134,-157.93C171.891,-121.92 154.336,-45.2312 148.461,-19.5681"/>
<polygon fill="midnightblue" stroke="midnightblue" points="176.814,-159.108 182.457,-168.075 183.637,-157.546 176.814,-159.108"/>
</g>
<!-- Node7 -->
<g id="node6" class="node"><title>Node7</title>
<g id="a_node6"><a xlink:href="../../d0/db9/VUDisplay_8hpp.html" target="_top" xlink:title=" ">
<polygon fill="white" stroke="black" points="194,-56.5 194,-75.5 277,-75.5 277,-56.5 194,-56.5"/>
<text text-anchor="middle" x="235.5" y="-63.5" font-family="Helvetica,sans-Serif" font-size="10.00">VUDisplay.hpp</text>
</a>
</g>
</g>
<!-- Node3&#45;&gt;Node7 -->
<g id="edge6" class="edge"><title>Node3&#45;&gt;Node7</title>
<path fill="none" stroke="midnightblue" d="M192.846,-158.998C203.974,-134.997 223.228,-93.4683 231.517,-75.5914"/>
<polygon fill="midnightblue" stroke="midnightblue" points="189.533,-157.824 188.502,-168.368 195.884,-160.768 189.533,-157.824"/>
</g>
<!-- Node8 -->
<g id="node7" class="node"><title>Node8</title>
<g id="a_node7"><a xlink:href="../../d3/d52/MIDI__Inputs_2LEDs_2MCU_2VULEDs_8hpp.html" target="_top" xlink:title=" ">
<polygon fill="white" stroke="black" points="231.5,-112.5 231.5,-131.5 305.5,-131.5 305.5,-112.5 231.5,-112.5"/>
<text text-anchor="middle" x="268.5" y="-119.5" font-family="Helvetica,sans-Serif" font-size="10.00">VULEDs.hpp</text>
</a>
</g>
</g>
<!-- Node3&#45;&gt;Node8 -->
<g id="edge9" class="edge"><title>Node3&#45;&gt;Node8</title>
<path fill="none" stroke="midnightblue" d="M206.432,-162.901C221.835,-152.999 241.946,-140.071 255.037,-131.655"/>
<polygon fill="midnightblue" stroke="midnightblue" points="204.515,-159.972 197.996,-168.324 208.301,-165.86 204.515,-159.972"/>
</g>
<!-- Node5 -->
<g id="node4" class="node"><title>Node5</title>
<g id="a_node4"><a xlink:href="../../d4/dde/AudioVULEDs_8hpp.html" target="_top" xlink:title=" ">
<polygon fill="white" stroke="black" points="0,-56.5 0,-75.5 99,-75.5 99,-56.5 0,-56.5"/>
<text text-anchor="middle" x="49.5" y="-63.5" font-family="Helvetica,sans-Serif" font-size="10.00">AudioVULEDs.hpp</text>
</a>
</g>
</g>
<!-- Node4&#45;&gt;Node5 -->
<g id="edge3" class="edge"><title>Node4&#45;&gt;Node5</title>
<path fill="none" stroke="midnightblue" d="M85.1221,-104.718C76.1331,-95.1997 65.1408,-83.5608 57.7649,-75.7511"/>
<polygon fill="midnightblue" stroke="midnightblue" points="82.6676,-107.216 92.0784,-112.083 87.7567,-102.41 82.6676,-107.216"/>
</g>
<!-- Node4&#45;&gt;Node6 -->
<g id="edge5" class="edge"><title>Node4&#45;&gt;Node6</title>
<path fill="none" stroke="midnightblue" d="M108.028,-102.998C118.065,-78.9968 135.431,-37.4683 142.907,-19.5914"/>
<polygon fill="midnightblue" stroke="midnightblue" points="104.739,-101.792 104.11,-112.368 111.197,-104.493 104.739,-101.792"/>
</g>
<!-- Node5&#45;&gt;Node6 -->
<g id="edge4" class="edge"><title>Node5&#45;&gt;Node6</title>
<path fill="none" stroke="midnightblue" d="M73.8352,-51.4526C91.7426,-41.4835 115.554,-28.2279 130.954,-19.6545"/>
<polygon fill="midnightblue" stroke="midnightblue" points="72.1196,-48.4018 65.0847,-56.324 75.5245,-54.5179 72.1196,-48.4018"/>
</g>
<!-- Node7&#45;&gt;Node6 -->
<g id="edge7" class="edge"><title>Node7&#45;&gt;Node6</title>
<path fill="none" stroke="midnightblue" d="M212.262,-50.9005C195.942,-40.9986 174.635,-28.0705 160.764,-19.6545"/>
<polygon fill="midnightblue" stroke="midnightblue" points="210.836,-54.1289 221.201,-56.324 214.467,-48.1444 210.836,-54.1289"/>
</g>
</g>
</svg>
