<?xml version="1.0" encoding="UTF-8" standalone="no"?>
<!DOCTYPE svg PUBLIC "-//W3C//DTD SVG 1.1//EN"
 "http://www.w3.org/Graphics/SVG/1.1/DTD/svg11.dtd">
<!-- Generated by graphviz version 2.38.0 (20140413.2041)
 -->
<!-- Title: ManyButtonsSelector&lt; N &gt; Pages: 1 -->
<svg width="160pt" height="794pt"
 viewBox="0.00 0.00 160.00 794.00" xmlns="http://www.w3.org/2000/svg" xmlns:xlink="http://www.w3.org/1999/xlink">
<g id="graph0" class="graph" transform="scale(1 1) rotate(0) translate(4 790)">
<title>ManyButtonsSelector&lt; N &gt;</title>
<polygon fill="white" stroke="none" points="-4,4 -4,-790 156,-790 156,4 -4,4"/>
<!-- Node0 -->
<g id="node1" class="node"><title>Node0</title>
<g id="a_node1"><a xlink:title=" ">
<polygon fill="#bfbfbf" stroke="black" points="8,-0.5 8,-79.5 144,-79.5 144,-0.5 8,-0.5"/>
<text text-anchor="middle" x="76" y="-67.5" font-family="Helvetica,sans-Serif" font-size="10.00">ManyButtonsSelector&lt; N &gt;</text>
<polyline fill="none" stroke="black" points="8,-60.5 144,-60.5 "/>
<text text-anchor="middle" x="76" y="-48.5" font-family="Helvetica,sans-Serif" font-size="10.00"> </text>
<polyline fill="none" stroke="black" points="8,-41.5 144,-41.5 "/>
<text text-anchor="start" x="16" y="-29.5" font-family="Helvetica,sans-Serif" font-size="10.00">+ ManyButtonsSelector()</text>
<text text-anchor="start" x="16" y="-18.5" font-family="Helvetica,sans-Serif" font-size="10.00">+ beginOutput()</text>
<text text-anchor="start" x="16" y="-7.5" font-family="Helvetica,sans-Serif" font-size="10.00">+ updateOutput()</text>
</a>
</g>
</g>
<!-- Node1 -->
<g id="node2" class="node"><title>Node1</title>
<g id="a_node2"><a xlink:href="../../d1/d3d/classManyButtonsSelector__Base.html" target="_top" xlink:title=" ">
<polygon fill="white" stroke="black" points="0,-116.5 0,-206.5 152,-206.5 152,-116.5 0,-116.5"/>
<text text-anchor="start" x="8" y="-194.5" font-family="Helvetica,sans-Serif" font-size="10.00">ManyButtonsSelector</text>
<text text-anchor="middle" x="76" y="-183.5" font-family="Helvetica,sans-Serif" font-size="10.00">_Base&lt; N &gt;</text>
<polyline fill="none" stroke="black" points="0,-176.5 152,-176.5 "/>
<text text-anchor="start" x="8" y="-164.5" font-family="Helvetica,sans-Serif" font-size="10.00">&#45; buttonPins</text>
<polyline fill="none" stroke="black" points="0,-157.5 152,-157.5 "/>
<text text-anchor="start" x="8" y="-145.5" font-family="Helvetica,sans-Serif" font-size="10.00">+ beginInput()</text>
<text text-anchor="start" x="8" y="-134.5" font-family="Helvetica,sans-Serif" font-size="10.00">+ update()</text>
<text text-anchor="start" x="8" y="-123.5" font-family="Helvetica,sans-Serif" font-size="10.00"># ManyButtonsSelector_Base()</text>
</a>
</g>
</g>
<!-- Node1&#45;&gt;Node0 -->
<g id="edge1" class="edge"><title>Node1&#45;&gt;Node0</title>
<path fill="none" stroke="midnightblue" d="M76,-106.079C76,-97.234 76,-88.2325 76,-79.8576"/>
<polygon fill="none" stroke="midnightblue" points="72.5001,-106.342 76,-116.342 79.5001,-106.342 72.5001,-106.342"/>
</g>
<!-- Node2 -->
<g id="node3" class="node"><title>Node2</title>
<g id="a_node3"><a xlink:href="../../d1/d54/classSelector.html" target="_top" xlink:title=" ">
<polygon fill="white" stroke="black" points="32.5,-243.5 32.5,-421.5 119.5,-421.5 119.5,-243.5 32.5,-243.5"/>
<text text-anchor="middle" x="76" y="-409.5" font-family="Helvetica,sans-Serif" font-size="10.00">Selector&lt; N &gt;</text>
<polyline fill="none" stroke="black" points="32.5,-402.5 119.5,-402.5 "/>
<text text-anchor="start" x="40.5" y="-390.5" font-family="Helvetica,sans-Serif" font-size="10.00">&#45; selectable</text>
<text text-anchor="start" x="40.5" y="-379.5" font-family="Helvetica,sans-Serif" font-size="10.00">&#45; setting</text>
<polyline fill="none" stroke="black" points="32.5,-372.5 119.5,-372.5 "/>
<text text-anchor="start" x="40.5" y="-360.5" font-family="Helvetica,sans-Serif" font-size="10.00">+ beginInput()</text>
<text text-anchor="start" x="40.5" y="-349.5" font-family="Helvetica,sans-Serif" font-size="10.00">+ beginOutput()</text>
<text text-anchor="start" x="40.5" y="-338.5" font-family="Helvetica,sans-Serif" font-size="10.00">+ begin()</text>
<text text-anchor="start" x="40.5" y="-327.5" font-family="Helvetica,sans-Serif" font-size="10.00">+ reset()</text>
<text text-anchor="start" x="40.5" y="-316.5" font-family="Helvetica,sans-Serif" font-size="10.00">+ get()</text>
<text text-anchor="start" x="40.5" y="-305.5" font-family="Helvetica,sans-Serif" font-size="10.00">+ set()</text>
<text text-anchor="start" x="40.5" y="-294.5" font-family="Helvetica,sans-Serif" font-size="10.00">+ increment()</text>
<text text-anchor="start" x="40.5" y="-283.5" font-family="Helvetica,sans-Serif" font-size="10.00">+ decrement()</text>
<text text-anchor="start" x="40.5" y="-272.5" font-family="Helvetica,sans-Serif" font-size="10.00"># Selector()</text>
<text text-anchor="start" x="40.5" y="-261.5" font-family="Helvetica,sans-Serif" font-size="10.00"># Selector()</text>
<text text-anchor="start" x="40.5" y="-250.5" font-family="Helvetica,sans-Serif" font-size="10.00">&#45; updateOutput()</text>
</a>
</g>
</g>
<!-- Node2&#45;&gt;Node1 -->
<g id="edge2" class="edge"><title>Node2&#45;&gt;Node1</title>
<path fill="none" stroke="midnightblue" d="M76,-233.031C76,-223.869 76,-214.933 76,-206.668"/>
<polygon fill="none" stroke="midnightblue" points="72.5001,-233.04 76,-243.04 79.5001,-233.04 72.5001,-233.04"/>
</g>
<!-- Node3 -->
<g id="node4" class="node"><title>Node3</title>
<g id="a_node4"><a xlink:href="../../d5/de0/classUpdatable.html" target="_top" xlink:title=" ">
<polygon fill="white" stroke="black" points="35,-458.5 35,-669.5 117,-669.5 117,-458.5 35,-458.5"/>
<text text-anchor="middle" x="76" y="-657.5" font-family="Helvetica,sans-Serif" font-size="10.00">Updatable&lt;&gt;</text>
<polyline fill="none" stroke="black" points="35,-650.5 117,-650.5 "/>
<text text-anchor="start" x="43" y="-638.5" font-family="Helvetica,sans-Serif" font-size="10.00">&#45; updatables</text>
<polyline fill="none" stroke="black" points="35,-631.5 117,-631.5 "/>
<text text-anchor="start" x="43" y="-619.5" font-family="Helvetica,sans-Serif" font-size="10.00">+ Updatable()</text>
<text text-anchor="start" x="43" y="-608.5" font-family="Helvetica,sans-Serif" font-size="10.00">+ ~Updatable()</text>
<text text-anchor="start" x="43" y="-597.5" font-family="Helvetica,sans-Serif" font-size="10.00">+ update()</text>
<text text-anchor="start" x="43" y="-586.5" font-family="Helvetica,sans-Serif" font-size="10.00">+ begin()</text>
<text text-anchor="start" x="43" y="-575.5" font-family="Helvetica,sans-Serif" font-size="10.00">+ enable()</text>
<text text-anchor="start" x="43" y="-564.5" font-family="Helvetica,sans-Serif" font-size="10.00">+ disable()</text>
<text text-anchor="start" x="43" y="-553.5" font-family="Helvetica,sans-Serif" font-size="10.00">+ isEnabled()</text>
<text text-anchor="start" x="43" y="-542.5" font-family="Helvetica,sans-Serif" font-size="10.00">+ enable()</text>
<text text-anchor="start" x="43" y="-531.5" font-family="Helvetica,sans-Serif" font-size="10.00">+ enable()</text>
<text text-anchor="start" x="43" y="-520.5" font-family="Helvetica,sans-Serif" font-size="10.00">+ enable()</text>
<text text-anchor="start" x="43" y="-509.5" font-family="Helvetica,sans-Serif" font-size="10.00">+ disable()</text>
<text text-anchor="start" x="43" y="-498.5" font-family="Helvetica,sans-Serif" font-size="10.00">+ disable()</text>
<text text-anchor="start" x="43" y="-487.5" font-family="Helvetica,sans-Serif" font-size="10.00">+ disable()</text>
<text text-anchor="start" x="43" y="-476.5" font-family="Helvetica,sans-Serif" font-size="10.00">+ beginAll()</text>
<text text-anchor="start" x="43" y="-465.5" font-family="Helvetica,sans-Serif" font-size="10.00">+ updateAll()</text>
</a>
</g>
</g>
<!-- Node3&#45;&gt;Node2 -->
<g id="edge3" class="edge"><title>Node3&#45;&gt;Node2</title>
<path fill="none" stroke="midnightblue" d="M76,-448.215C76,-439.251 76,-430.288 76,-421.544"/>
<polygon fill="none" stroke="midnightblue" points="72.5001,-448.324 76,-458.324 79.5001,-448.324 72.5001,-448.324"/>
</g>
<!-- Node4 -->
<g id="node5" class="node"><title>Node4</title>
<g id="a_node5"><a xlink:href="../../d4/d23/classDoublyLinkable.html" target="_top" xlink:title=" ">
<polygon fill="white" stroke="black" points="7.5,-706.5 7.5,-785.5 144.5,-785.5 144.5,-706.5 7.5,-706.5"/>
<text text-anchor="start" x="15.5" y="-773.5" font-family="Helvetica,sans-Serif" font-size="10.00">DoublyLinkable&lt; Updatable</text>
<text text-anchor="middle" x="76" y="-762.5" font-family="Helvetica,sans-Serif" font-size="10.00">&lt; NormalUpdatable &gt; &gt;</text>
<polyline fill="none" stroke="black" points="7.5,-755.5 144.5,-755.5 "/>
<text text-anchor="start" x="15.5" y="-743.5" font-family="Helvetica,sans-Serif" font-size="10.00"># next</text>
<text text-anchor="start" x="15.5" y="-732.5" font-family="Helvetica,sans-Serif" font-size="10.00"># previous</text>
<polyline fill="none" stroke="black" points="7.5,-725.5 144.5,-725.5 "/>
<text text-anchor="start" x="15.5" y="-713.5" font-family="Helvetica,sans-Serif" font-size="10.00"># ~DoublyLinkable()</text>
</a>
</g>
</g>
<!-- Node4&#45;&gt;Node3 -->
<g id="edge4" class="edge"><title>Node4&#45;&gt;Node3</title>
<path fill="none" stroke="midnightblue" d="M76,-696.16C76,-687.809 76,-678.856 76,-669.694"/>
<polygon fill="none" stroke="midnightblue" points="72.5001,-696.385 76,-706.385 79.5001,-696.386 72.5001,-696.385"/>
</g>
</g>
</svg>
