<?xml version="1.0" encoding="UTF-8" standalone="no"?>
<!DOCTYPE svg PUBLIC "-//W3C//DTD SVG 1.1//EN"
 "http://www.w3.org/Graphics/SVG/1.1/DTD/svg11.dtd">
<!-- Generated by graphviz version 2.38.0 (20140413.2041)
 -->
<!-- Title: MCU::TimeDisplay Pages: 1 -->
<svg width="334pt" height="711pt"
 viewBox="0.00 0.00 333.50 711.00" xmlns="http://www.w3.org/2000/svg" xmlns:xlink="http://www.w3.org/1999/xlink">
<g id="graph0" class="graph" transform="scale(1 1) rotate(0) translate(4 707)">
<title>MCU::TimeDisplay</title>
<polygon fill="white" stroke="none" points="-4,4 -4,-707 329.5,-707 329.5,4 -4,4"/>
<!-- Node0 -->
<g id="node1" class="node"><title>Node0</title>
<g id="a_node1"><a xlink:title=" ">
<polygon fill="#bfbfbf" stroke="black" points="177,-0.5 177,-101.5 278,-101.5 278,-0.5 177,-0.5"/>
<text text-anchor="middle" x="227.5" y="-89.5" font-family="Helvetica,sans-Serif" font-size="10.00">MCU::TimeDisplay</text>
<polyline fill="none" stroke="black" points="177,-82.5 278,-82.5 "/>
<text text-anchor="middle" x="227.5" y="-70.5" font-family="Helvetica,sans-Serif" font-size="10.00"> </text>
<polyline fill="none" stroke="black" points="177,-63.5 278,-63.5 "/>
<text text-anchor="start" x="185" y="-51.5" font-family="Helvetica,sans-Serif" font-size="10.00">+ TimeDisplay()</text>
<text text-anchor="start" x="185" y="-40.5" font-family="Helvetica,sans-Serif" font-size="10.00">+ print()</text>
<text text-anchor="start" x="185" y="-29.5" font-family="Helvetica,sans-Serif" font-size="10.00">+ getBars()</text>
<text text-anchor="start" x="185" y="-18.5" font-family="Helvetica,sans-Serif" font-size="10.00">+ getBeats()</text>
<text text-anchor="start" x="185" y="-7.5" font-family="Helvetica,sans-Serif" font-size="10.00">+ getFrames()</text>
</a>
</g>
</g>
<!-- Node1 -->
<g id="node2" class="node"><title>Node1</title>
<g id="a_node2"><a xlink:href="../../d5/d54/classMCU_1_1SevenSegmentDisplay.html" target="_top" xlink:title=" ">
<polygon fill="white" stroke="black" points="154.5,-138.5 154.5,-294.5 300.5,-294.5 300.5,-138.5 154.5,-138.5"/>
<text text-anchor="start" x="162.5" y="-282.5" font-family="Helvetica,sans-Serif" font-size="10.00">MCU::SevenSegmentDisplay</text>
<text text-anchor="middle" x="227.5" y="-271.5" font-family="Helvetica,sans-Serif" font-size="10.00">&lt; TimeDisplayLength &gt;</text>
<polyline fill="none" stroke="black" points="154.5,-264.5 300.5,-264.5 "/>
<text text-anchor="start" x="162.5" y="-252.5" font-family="Helvetica,sans-Serif" font-size="10.00">&#45; text</text>
<polyline fill="none" stroke="black" points="154.5,-245.5 300.5,-245.5 "/>
<text text-anchor="start" x="162.5" y="-233.5" font-family="Helvetica,sans-Serif" font-size="10.00">+ SevenSegmentDisplay()</text>
<text text-anchor="start" x="162.5" y="-222.5" font-family="Helvetica,sans-Serif" font-size="10.00">+ reset()</text>
<text text-anchor="start" x="162.5" y="-211.5" font-family="Helvetica,sans-Serif" font-size="10.00">+ getText()</text>
<text text-anchor="start" x="162.5" y="-200.5" font-family="Helvetica,sans-Serif" font-size="10.00">+ getCharacterAt()</text>
<text text-anchor="start" x="162.5" y="-189.5" font-family="Helvetica,sans-Serif" font-size="10.00">+ getDecimalPoints()</text>
<text text-anchor="start" x="162.5" y="-178.5" font-family="Helvetica,sans-Serif" font-size="10.00">+ getDecimalPointAt()</text>
<text text-anchor="start" x="162.5" y="-167.5" font-family="Helvetica,sans-Serif" font-size="10.00">+ printTo()</text>
<text text-anchor="start" x="162.5" y="-156.5" font-family="Helvetica,sans-Serif" font-size="10.00">&#45; updateImpl()</text>
<text text-anchor="start" x="162.5" y="-145.5" font-family="Helvetica,sans-Serif" font-size="10.00">&#45; matchAddress()</text>
</a>
</g>
</g>
<!-- Node1&#45;&gt;Node0 -->
<g id="edge1" class="edge"><title>Node1&#45;&gt;Node0</title>
<path fill="none" stroke="midnightblue" d="M227.5,-127.897C227.5,-118.911 227.5,-110.02 227.5,-101.661"/>
<polygon fill="none" stroke="midnightblue" points="224,-128.059 227.5,-138.059 231,-128.059 224,-128.059"/>
</g>
<!-- Node2 -->
<g id="node3" class="node"><title>Node2</title>
<g id="a_node3"><a xlink:href="../../d3/d96/classMIDIInputElementCC.html" target="_top" xlink:title=" ">
<polygon fill="white" stroke="black" points="105.5,-331.5 105.5,-454.5 237.5,-454.5 237.5,-331.5 105.5,-331.5"/>
<text text-anchor="middle" x="171.5" y="-442.5" font-family="Helvetica,sans-Serif" font-size="10.00">MIDIInputElementCC</text>
<polyline fill="none" stroke="black" points="105.5,-435.5 237.5,-435.5 "/>
<text text-anchor="start" x="113.5" y="-423.5" font-family="Helvetica,sans-Serif" font-size="10.00">&#45; elements</text>
<polyline fill="none" stroke="black" points="105.5,-416.5 237.5,-416.5 "/>
<text text-anchor="start" x="113.5" y="-404.5" font-family="Helvetica,sans-Serif" font-size="10.00">+ MIDIInputElementCC()</text>
<text text-anchor="start" x="113.5" y="-393.5" font-family="Helvetica,sans-Serif" font-size="10.00">+ ~MIDIInputElementCC()</text>
<text text-anchor="start" x="113.5" y="-382.5" font-family="Helvetica,sans-Serif" font-size="10.00">+ beginAll()</text>
<text text-anchor="start" x="113.5" y="-371.5" font-family="Helvetica,sans-Serif" font-size="10.00">+ updateAll()</text>
<text text-anchor="start" x="113.5" y="-360.5" font-family="Helvetica,sans-Serif" font-size="10.00">+ resetAll()</text>
<text text-anchor="start" x="113.5" y="-349.5" font-family="Helvetica,sans-Serif" font-size="10.00">+ updateAllWith()</text>
<text text-anchor="start" x="113.5" y="-338.5" font-family="Helvetica,sans-Serif" font-size="10.00">&#45; moveDown()</text>
</a>
</g>
</g>
<!-- Node2&#45;&gt;Node1 -->
<g id="edge2" class="edge"><title>Node2&#45;&gt;Node1</title>
<path fill="none" stroke="midnightblue" d="M194.019,-321.83C196.901,-312.849 199.864,-303.616 202.779,-294.533"/>
<polygon fill="none" stroke="midnightblue" points="190.652,-320.867 190.929,-331.458 197.317,-323.006 190.652,-320.867"/>
</g>
<!-- Node3 -->
<g id="node4" class="node"><title>Node3</title>
<g id="a_node4"><a xlink:href="../../d6/d3d/classMIDIInputElementAddressable.html" target="_top" xlink:title=" ">
<polygon fill="white" stroke="black" points="0,-491.5 0,-702.5 171,-702.5 171,-491.5 0,-491.5"/>
<text text-anchor="middle" x="85.5" y="-690.5" font-family="Helvetica,sans-Serif" font-size="10.00">MIDIInputElementAddressable</text>
<polyline fill="none" stroke="black" points="0,-683.5 171,-683.5 "/>
<text text-anchor="start" x="8" y="-671.5" font-family="Helvetica,sans-Serif" font-size="10.00">&#45; baseChannel</text>
<text text-anchor="start" x="8" y="-660.5" font-family="Helvetica,sans-Serif" font-size="10.00">&#45; baseAddress</text>
<polyline fill="none" stroke="black" points="0,-653.5 171,-653.5 "/>
<text text-anchor="start" x="8" y="-641.5" font-family="Helvetica,sans-Serif" font-size="10.00">+ ~MIDIInputElementAddressable()</text>
<text text-anchor="start" x="8" y="-630.5" font-family="Helvetica,sans-Serif" font-size="10.00">+ begin()</text>
<text text-anchor="start" x="8" y="-619.5" font-family="Helvetica,sans-Serif" font-size="10.00">+ display()</text>
<text text-anchor="start" x="8" y="-608.5" font-family="Helvetica,sans-Serif" font-size="10.00">+ reset()</text>
<text text-anchor="start" x="8" y="-597.5" font-family="Helvetica,sans-Serif" font-size="10.00">+ update()</text>
<text text-anchor="start" x="8" y="-586.5" font-family="Helvetica,sans-Serif" font-size="10.00">+ updateWith()</text>
<text text-anchor="start" x="8" y="-575.5" font-family="Helvetica,sans-Serif" font-size="10.00">+ getBaseChannel()</text>
<text text-anchor="start" x="8" y="-564.5" font-family="Helvetica,sans-Serif" font-size="10.00">+ getBaseAddress()</text>
<text text-anchor="start" x="8" y="-553.5" font-family="Helvetica,sans-Serif" font-size="10.00"># MIDIInputElementAddressable()</text>
<text text-anchor="start" x="8" y="-542.5" font-family="Helvetica,sans-Serif" font-size="10.00">&#45; updateImpl()</text>
<text text-anchor="start" x="8" y="-531.5" font-family="Helvetica,sans-Serif" font-size="10.00">&#45; match()</text>
<text text-anchor="start" x="8" y="-520.5" font-family="Helvetica,sans-Serif" font-size="10.00">&#45; matchAddress()</text>
<text text-anchor="start" x="8" y="-509.5" font-family="Helvetica,sans-Serif" font-size="10.00">&#45; matchChannel()</text>
<text text-anchor="start" x="8" y="-498.5" font-family="Helvetica,sans-Serif" font-size="10.00">&#45; moveDown()</text>
</a>
</g>
</g>
<!-- Node3&#45;&gt;Node2 -->
<g id="edge3" class="edge"><title>Node3&#45;&gt;Node2</title>
<path fill="none" stroke="midnightblue" d="M134.027,-482.018C138.026,-472.624 141.961,-463.383 145.689,-454.626"/>
<polygon fill="none" stroke="midnightblue" points="130.708,-480.878 130.011,-491.45 137.149,-483.62 130.708,-480.878"/>
</g>
<!-- Node4 -->
<g id="node5" class="node"><title>Node4</title>
<g id="a_node5"><a xlink:href="../../d4/d23/classDoublyLinkable.html" target="_top" xlink:title=" ">
<polygon fill="white" stroke="black" points="189.5,-557.5 189.5,-636.5 325.5,-636.5 325.5,-557.5 189.5,-557.5"/>
<text text-anchor="start" x="197.5" y="-624.5" font-family="Helvetica,sans-Serif" font-size="10.00">DoublyLinkable&lt; MIDIInput</text>
<text text-anchor="middle" x="257.5" y="-613.5" font-family="Helvetica,sans-Serif" font-size="10.00">ElementCC &gt;</text>
<polyline fill="none" stroke="black" points="189.5,-606.5 325.5,-606.5 "/>
<text text-anchor="start" x="197.5" y="-594.5" font-family="Helvetica,sans-Serif" font-size="10.00"># next</text>
<text text-anchor="start" x="197.5" y="-583.5" font-family="Helvetica,sans-Serif" font-size="10.00"># previous</text>
<polyline fill="none" stroke="black" points="189.5,-576.5 325.5,-576.5 "/>
<text text-anchor="start" x="197.5" y="-564.5" font-family="Helvetica,sans-Serif" font-size="10.00"># ~DoublyLinkable()</text>
</a>
</g>
</g>
<!-- Node4&#45;&gt;Node2 -->
<g id="edge4" class="edge"><title>Node4&#45;&gt;Node2</title>
<path fill="none" stroke="midnightblue" d="M236.862,-547.524C224.996,-519.654 209.984,-484.392 197.339,-454.692"/>
<polygon fill="none" stroke="midnightblue" points="233.781,-549.223 240.918,-557.052 240.221,-546.48 233.781,-549.223"/>
</g>
<!-- Node5 -->
<g id="node6" class="node"><title>Node5</title>
<g id="a_node6"><a xlink:title=" ">
<polygon fill="white" stroke="#bfbfbf" points="256,-364.5 256,-421.5 311,-421.5 311,-364.5 256,-364.5"/>
<text text-anchor="middle" x="283.5" y="-409.5" font-family="Helvetica,sans-Serif" font-size="10.00">Printable</text>
<polyline fill="none" stroke="#bfbfbf" points="256,-402.5 311,-402.5 "/>
<text text-anchor="middle" x="283.5" y="-390.5" font-family="Helvetica,sans-Serif" font-size="10.00"> </text>
<polyline fill="none" stroke="#bfbfbf" points="256,-383.5 311,-383.5 "/>
<text text-anchor="middle" x="283.5" y="-371.5" font-family="Helvetica,sans-Serif" font-size="10.00"> </text>
</a>
</g>
</g>
<!-- Node5&#45;&gt;Node1 -->
<g id="edge5" class="edge"><title>Node5&#45;&gt;Node1</title>
<path fill="none" stroke="midnightblue" d="M271.479,-354.542C265.86,-337.034 258.951,-315.504 252.288,-294.741"/>
<polygon fill="none" stroke="midnightblue" points="268.238,-355.898 274.627,-364.35 274.903,-353.759 268.238,-355.898"/>
</g>
</g>
</svg>
