<?xml version="1.0" encoding="UTF-8" standalone="no"?>
<!DOCTYPE svg PUBLIC "-//W3C//DTD SVG 1.1//EN"
 "http://www.w3.org/Graphics/SVG/1.1/DTD/svg11.dtd">
<!-- Generated by graphviz version 2.38.0 (20140413.2041)
 -->
<!-- Title: Bankable::CCRotaryEncoder Pages: 1 -->
<svg width="578pt" height="1263pt"
 viewBox="0.00 0.00 578.00 1263.00" xmlns="http://www.w3.org/2000/svg" xmlns:xlink="http://www.w3.org/1999/xlink">
<g id="graph0" class="graph" transform="scale(1 1) rotate(0) translate(4 1259)">
<title>Bankable::CCRotaryEncoder</title>
<polygon fill="white" stroke="none" points="-4,4 -4,-1259 574,-1259 574,4 -4,4"/>
<!-- Node1 -->
<g id="node1" class="node"><title>Node1</title>
<g id="a_node1"><a xlink:title="A class of MIDIOutputElements that read the input of a quadrature (rotary) encoder and send out relat...">
<polygon fill="#bfbfbf" stroke="black" points="237.5,-0.5 237.5,-57.5 380.5,-57.5 380.5,-0.5 237.5,-0.5"/>
<text text-anchor="middle" x="309" y="-45.5" font-family="Helvetica,sans-Serif" font-size="10.00">Bankable::CCRotaryEncoder</text>
<polyline fill="none" stroke="black" points="237.5,-38.5 380.5,-38.5 "/>
<text text-anchor="middle" x="309" y="-26.5" font-family="Helvetica,sans-Serif" font-size="10.00"> </text>
<polyline fill="none" stroke="black" points="237.5,-19.5 380.5,-19.5 "/>
<text text-anchor="start" x="245.5" y="-7.5" font-family="Helvetica,sans-Serif" font-size="10.00">+ CCRotaryEncoder()</text>
</a>
</g>
</g>
<!-- Node2 -->
<g id="node2" class="node"><title>Node2</title>
<g id="a_node2"><a xlink:href="../../dc/dd5/classBankable_1_1MIDIRotaryEncoder.html" target="_top" xlink:title=" ">
<polygon fill="white" stroke="black" points="234,-95.5 234,-218.5 384,-218.5 384,-95.5 234,-95.5"/>
<text text-anchor="start" x="242" y="-206.5" font-family="Helvetica,sans-Serif" font-size="10.00">Bankable::MIDIRotaryEncoder</text>
<text text-anchor="middle" x="309" y="-195.5" font-family="Helvetica,sans-Serif" font-size="10.00">&lt; RelativeCCSender &gt;</text>
<polyline fill="none" stroke="black" points="234,-188.5 384,-188.5 "/>
<text text-anchor="start" x="242" y="-176.5" font-family="Helvetica,sans-Serif" font-size="10.00">&#45; encoder</text>
<text text-anchor="start" x="242" y="-165.5" font-family="Helvetica,sans-Serif" font-size="10.00">&#45; speedMultiply</text>
<text text-anchor="start" x="242" y="-154.5" font-family="Helvetica,sans-Serif" font-size="10.00">&#45; pulsesPerStep</text>
<text text-anchor="start" x="242" y="-143.5" font-family="Helvetica,sans-Serif" font-size="10.00">&#45; previousPosition</text>
<polyline fill="none" stroke="black" points="234,-136.5 384,-136.5 "/>
<text text-anchor="start" x="242" y="-124.5" font-family="Helvetica,sans-Serif" font-size="10.00">+ begin()</text>
<text text-anchor="start" x="242" y="-113.5" font-family="Helvetica,sans-Serif" font-size="10.00">+ update()</text>
<text text-anchor="start" x="242" y="-102.5" font-family="Helvetica,sans-Serif" font-size="10.00"># MIDIRotaryEncoder()</text>
</a>
</g>
</g>
<!-- Node2&#45;&gt;Node1 -->
<g id="edge1" class="edge"><title>Node2&#45;&gt;Node1</title>
<path fill="none" stroke="midnightblue" d="M309,-85.0071C309,-75.2639 309,-65.7799 309,-57.5077"/>
<polygon fill="none" stroke="midnightblue" points="305.5,-85.2144 309,-95.2144 312.5,-85.2145 305.5,-85.2144"/>
</g>
<!-- Node3 -->
<g id="node3" class="node"><title>Node3</title>
<g id="a_node3"><a xlink:href="../../d3/d43/classBankableMIDIOutput.html" target="_top" xlink:title="A base class for all MIDIOutputElements that can be banked.">
<polygon fill="white" stroke="black" points="14,-360 14,-439 136,-439 136,-360 14,-360"/>
<text text-anchor="middle" x="75" y="-427" font-family="Helvetica,sans-Serif" font-size="10.00">BankableMIDIOutput</text>
<polyline fill="none" stroke="black" points="14,-420 136,-420 "/>
<text text-anchor="start" x="22" y="-408" font-family="Helvetica,sans-Serif" font-size="10.00">&#45; type</text>
<polyline fill="none" stroke="black" points="14,-401 136,-401 "/>
<text text-anchor="start" x="22" y="-389" font-family="Helvetica,sans-Serif" font-size="10.00">+ getAddressOffset()</text>
<text text-anchor="start" x="22" y="-378" font-family="Helvetica,sans-Serif" font-size="10.00"># BankableMIDIOutput()</text>
<text text-anchor="start" x="22" y="-367" font-family="Helvetica,sans-Serif" font-size="10.00"># BankableMIDIOutput()</text>
</a>
</g>
</g>
<!-- Node3&#45;&gt;Node2 -->
<g id="edge2" class="edge"><title>Node3&#45;&gt;Node2</title>
<path fill="none" stroke="midnightblue" d="M93.2331,-350.688C105.136,-323.736 122.628,-290.638 145,-266 169.98,-238.49 203.42,-214.827 233.586,-196.722"/>
<polygon fill="none" stroke="midnightblue" points="89.9894,-349.372 89.2571,-359.941 96.4208,-352.135 89.9894,-349.372"/>
</g>
<!-- Node4 -->
<g id="node4" class="node"><title>Node4</title>
<g id="a_node4"><a xlink:href="../../d4/d6e/classBankableMIDIOutput__Base.html" target="_top" xlink:title=" ">
<polygon fill="white" stroke="black" points="0,-663 0,-775 150,-775 150,-663 0,-663"/>
<text text-anchor="middle" x="75" y="-763" font-family="Helvetica,sans-Serif" font-size="10.00">BankableMIDIOutput_Base</text>
<polyline fill="none" stroke="black" points="0,-756 150,-756 "/>
<text text-anchor="start" x="8" y="-744" font-family="Helvetica,sans-Serif" font-size="10.00">&#45; lockedSetting</text>
<text text-anchor="start" x="8" y="-733" font-family="Helvetica,sans-Serif" font-size="10.00">&#45; UNLOCKED</text>
<polyline fill="none" stroke="black" points="0,-726 150,-726 "/>
<text text-anchor="start" x="8" y="-714" font-family="Helvetica,sans-Serif" font-size="10.00">+ getRawBankSetting()</text>
<text text-anchor="start" x="8" y="-703" font-family="Helvetica,sans-Serif" font-size="10.00">+ getSelection()</text>
<text text-anchor="start" x="8" y="-692" font-family="Helvetica,sans-Serif" font-size="10.00">+ lock()</text>
<text text-anchor="start" x="8" y="-681" font-family="Helvetica,sans-Serif" font-size="10.00">+ unlock()</text>
<text text-anchor="start" x="8" y="-670" font-family="Helvetica,sans-Serif" font-size="10.00"># BankableMIDIOutput_Base()</text>
</a>
</g>
</g>
<!-- Node4&#45;&gt;Node3 -->
<g id="edge3" class="edge"><title>Node4&#45;&gt;Node3</title>
<path fill="none" stroke="midnightblue" d="M75,-652.656C75,-588.332 75,-492.255 75,-439.194"/>
<polygon fill="none" stroke="midnightblue" points="71.5001,-652.696 75,-662.696 78.5001,-652.696 71.5001,-652.696"/>
</g>
<!-- Node5 -->
<g id="node5" class="node"><title>Node5</title>
<g id="a_node5"><a xlink:href="../../d9/d36/classOutputBank.html" target="_top" xlink:title="A class for changing the address of BankableMIDIOutputs.">
<polygon fill="white" stroke="black" points="18.5,-971.5 18.5,-1072.5 131.5,-1072.5 131.5,-971.5 18.5,-971.5"/>
<text text-anchor="middle" x="75" y="-1060.5" font-family="Helvetica,sans-Serif" font-size="10.00">OutputBank</text>
<polyline fill="none" stroke="black" points="18.5,-1053.5 131.5,-1053.5 "/>
<text text-anchor="start" x="26.5" y="-1041.5" font-family="Helvetica,sans-Serif" font-size="10.00">&#45; tracksPerBank</text>
<text text-anchor="start" x="26.5" y="-1030.5" font-family="Helvetica,sans-Serif" font-size="10.00">&#45; bankSetting</text>
<polyline fill="none" stroke="black" points="18.5,-1023.5 131.5,-1023.5 "/>
<text text-anchor="start" x="26.5" y="-1011.5" font-family="Helvetica,sans-Serif" font-size="10.00">+ OutputBank()</text>
<text text-anchor="start" x="26.5" y="-1000.5" font-family="Helvetica,sans-Serif" font-size="10.00">+ select()</text>
<text text-anchor="start" x="26.5" y="-989.5" font-family="Helvetica,sans-Serif" font-size="10.00">+ getSelection()</text>
<text text-anchor="start" x="26.5" y="-978.5" font-family="Helvetica,sans-Serif" font-size="10.00">+ getTracksPerBank()</text>
</a>
</g>
</g>
<!-- Node5&#45;&gt;Node4 -->
<g id="edge4" class="edge"><title>Node5&#45;&gt;Node4</title>
<path fill="none" stroke="#404040" d="M75,-971.296C75,-921.077 75,-843.146 75,-787.389"/>
<polygon fill="none" stroke="#404040" points="75.0001,-787.14 71,-781.14 75,-775.14 79,-781.14 75.0001,-787.14"/>
<text text-anchor="middle" x="90" y="-884.5" font-family="Helvetica,sans-Serif" font-size="10.00"> #bank</text>
</g>
<!-- Node6 -->
<g id="node6" class="node"><title>Node6</title>
<g id="a_node6"><a xlink:href="../../d5/de0/classUpdatable.html" target="_top" xlink:title=" ">
<polygon fill="white" stroke="black" points="154,-294 154,-505 258,-505 258,-294 154,-294"/>
<text text-anchor="middle" x="206" y="-493" font-family="Helvetica,sans-Serif" font-size="10.00">MIDIOutputElement</text>
<polyline fill="none" stroke="black" points="154,-486 258,-486 "/>
<text text-anchor="middle" x="206" y="-474" font-family="Helvetica,sans-Serif" font-size="10.00"> </text>
<polyline fill="none" stroke="black" points="154,-467 258,-467 "/>
<text text-anchor="start" x="162" y="-455" font-family="Helvetica,sans-Serif" font-size="10.00">+ ~Updatable()</text>
<text text-anchor="start" x="162" y="-444" font-family="Helvetica,sans-Serif" font-size="10.00">+ update()</text>
<text text-anchor="start" x="162" y="-433" font-family="Helvetica,sans-Serif" font-size="10.00">+ begin()</text>
<text text-anchor="start" x="162" y="-422" font-family="Helvetica,sans-Serif" font-size="10.00">+ enable()</text>
<text text-anchor="start" x="162" y="-411" font-family="Helvetica,sans-Serif" font-size="10.00">+ disable()</text>
<text text-anchor="start" x="162" y="-400" font-family="Helvetica,sans-Serif" font-size="10.00">+ isEnabled()</text>
<text text-anchor="start" x="162" y="-389" font-family="Helvetica,sans-Serif" font-size="10.00">+ enable()</text>
<text text-anchor="start" x="162" y="-378" font-family="Helvetica,sans-Serif" font-size="10.00">+ enable()</text>
<text text-anchor="start" x="162" y="-367" font-family="Helvetica,sans-Serif" font-size="10.00">+ enable()</text>
<text text-anchor="start" x="162" y="-356" font-family="Helvetica,sans-Serif" font-size="10.00">+ disable()</text>
<text text-anchor="start" x="162" y="-345" font-family="Helvetica,sans-Serif" font-size="10.00">+ disable()</text>
<text text-anchor="start" x="162" y="-334" font-family="Helvetica,sans-Serif" font-size="10.00">+ disable()</text>
<text text-anchor="start" x="162" y="-323" font-family="Helvetica,sans-Serif" font-size="10.00">+ beginAll()</text>
<text text-anchor="start" x="162" y="-312" font-family="Helvetica,sans-Serif" font-size="10.00">+ updateAll()</text>
<text text-anchor="start" x="162" y="-301" font-family="Helvetica,sans-Serif" font-size="10.00"># Updatable()</text>
</a>
</g>
</g>
<!-- Node6&#45;&gt;Node2 -->
<g id="edge5" class="edge"><title>Node6&#45;&gt;Node2</title>
<path fill="none" stroke="midnightblue" d="M254.89,-284.344C264.623,-261.618 274.481,-238.6 283.068,-218.55"/>
<polygon fill="none" stroke="midnightblue" points="251.597,-283.142 250.878,-293.713 258.032,-285.898 251.597,-283.142"/>
</g>
<!-- Node7 -->
<g id="node7" class="node"><title>Node7</title>
<g id="a_node7"><a xlink:href="../../d4/d23/classDoublyLinkable.html" target="_top" xlink:title=" ">
<polygon fill="white" stroke="black" points="196.5,-1186.5 196.5,-1254.5 333.5,-1254.5 333.5,-1186.5 196.5,-1186.5"/>
<text text-anchor="start" x="204.5" y="-1242.5" font-family="Helvetica,sans-Serif" font-size="10.00">DoublyLinkable&lt; Updatable</text>
<text text-anchor="middle" x="265" y="-1231.5" font-family="Helvetica,sans-Serif" font-size="10.00">&lt; NormalUpdatable &gt; &gt;</text>
<polyline fill="none" stroke="black" points="196.5,-1224.5 333.5,-1224.5 "/>
<text text-anchor="middle" x="265" y="-1212.5" font-family="Helvetica,sans-Serif" font-size="10.00"> </text>
<polyline fill="none" stroke="black" points="196.5,-1205.5 333.5,-1205.5 "/>
<text text-anchor="start" x="204.5" y="-1193.5" font-family="Helvetica,sans-Serif" font-size="10.00"># ~DoublyLinkable()</text>
</a>
</g>
</g>
<!-- Node7&#45;&gt;Node6 -->
<g id="edge6" class="edge"><title>Node7&#45;&gt;Node6</title>
<path fill="none" stroke="midnightblue" d="M234.136,-1177.78C224.829,-1162.84 215.812,-1145.39 211,-1128 151.535,-913.149 171.69,-648.743 189.943,-505.243"/>
<polygon fill="none" stroke="midnightblue" points="231.252,-1179.76 239.62,-1186.26 237.13,-1175.96 231.252,-1179.76"/>
</g>
<!-- Node8 -->
<g id="node8" class="node"><title>Node8</title>
<g id="a_node8"><a xlink:href="../../d5/de0/classUpdatable.html" target="_top" xlink:title=" ">
<polygon fill="white" stroke="black" points="220.5,-916.5 220.5,-1127.5 375.5,-1127.5 375.5,-916.5 220.5,-916.5"/>
<text text-anchor="middle" x="298" y="-1115.5" font-family="Helvetica,sans-Serif" font-size="10.00">Updatable&lt; NormalUpdatable &gt;</text>
<polyline fill="none" stroke="black" points="220.5,-1108.5 375.5,-1108.5 "/>
<text text-anchor="middle" x="298" y="-1096.5" font-family="Helvetica,sans-Serif" font-size="10.00"> </text>
<polyline fill="none" stroke="black" points="220.5,-1089.5 375.5,-1089.5 "/>
<text text-anchor="start" x="228.5" y="-1077.5" font-family="Helvetica,sans-Serif" font-size="10.00">+ ~Updatable()</text>
<text text-anchor="start" x="228.5" y="-1066.5" font-family="Helvetica,sans-Serif" font-size="10.00">+ update()</text>
<text text-anchor="start" x="228.5" y="-1055.5" font-family="Helvetica,sans-Serif" font-size="10.00">+ begin()</text>
<text text-anchor="start" x="228.5" y="-1044.5" font-family="Helvetica,sans-Serif" font-size="10.00">+ enable()</text>
<text text-anchor="start" x="228.5" y="-1033.5" font-family="Helvetica,sans-Serif" font-size="10.00">+ disable()</text>
<text text-anchor="start" x="228.5" y="-1022.5" font-family="Helvetica,sans-Serif" font-size="10.00">+ isEnabled()</text>
<text text-anchor="start" x="228.5" y="-1011.5" font-family="Helvetica,sans-Serif" font-size="10.00">+ enable()</text>
<text text-anchor="start" x="228.5" y="-1000.5" font-family="Helvetica,sans-Serif" font-size="10.00">+ enable()</text>
<text text-anchor="start" x="228.5" y="-989.5" font-family="Helvetica,sans-Serif" font-size="10.00">+ enable()</text>
<text text-anchor="start" x="228.5" y="-978.5" font-family="Helvetica,sans-Serif" font-size="10.00">+ disable()</text>
<text text-anchor="start" x="228.5" y="-967.5" font-family="Helvetica,sans-Serif" font-size="10.00">+ disable()</text>
<text text-anchor="start" x="228.5" y="-956.5" font-family="Helvetica,sans-Serif" font-size="10.00">+ disable()</text>
<text text-anchor="start" x="228.5" y="-945.5" font-family="Helvetica,sans-Serif" font-size="10.00">+ beginAll()</text>
<text text-anchor="start" x="228.5" y="-934.5" font-family="Helvetica,sans-Serif" font-size="10.00">+ updateAll()</text>
<text text-anchor="start" x="228.5" y="-923.5" font-family="Helvetica,sans-Serif" font-size="10.00"># Updatable()</text>
</a>
</g>
</g>
<!-- Node7&#45;&gt;Node8 -->
<g id="edge8" class="edge"><title>Node7&#45;&gt;Node8</title>
<path fill="none" stroke="midnightblue" d="M272.293,-1176.07C274.724,-1161.6 277.546,-1144.79 280.412,-1127.73"/>
<polygon fill="none" stroke="midnightblue" points="268.803,-1175.72 270.598,-1186.17 275.706,-1176.88 268.803,-1175.72"/>
</g>
<!-- Node8&#45;&gt;Node7 -->
<g id="edge7" class="edge"><title>Node8&#45;&gt;Node7</title>
<path fill="none" stroke="#404040" d="M282.882,-1127.67C280.696,-1141.26 278.377,-1154.98 276,-1168 275.611,-1170.13 275.199,-1172.31 274.773,-1174.51"/>
<polygon fill="none" stroke="#404040" points="274.765,-1174.55 277.5,-1181.22 272.393,-1186.31 269.658,-1179.64 274.765,-1174.55"/>
<text text-anchor="middle" x="301.5" y="-1160" font-family="Helvetica,sans-Serif" font-size="10.00"> #next</text>
<text text-anchor="middle" x="301.5" y="-1149" font-family="Helvetica,sans-Serif" font-size="10.00">#previous</text>
</g>
<!-- Node9 -->
<g id="node9" class="node"><title>Node9</title>
<g id="a_node9"><a xlink:href="../../dd/d16/classDoublyLinkedList.html" target="_top" xlink:title=" ">
<polygon fill="white" stroke="black" points="220.5,-580.5 220.5,-857.5 365.5,-857.5 365.5,-580.5 220.5,-580.5"/>
<text text-anchor="start" x="228.5" y="-845.5" font-family="Helvetica,sans-Serif" font-size="10.00">DoublyLinkedList&lt; Updatable</text>
<text text-anchor="middle" x="293" y="-834.5" font-family="Helvetica,sans-Serif" font-size="10.00">&lt; NormalUpdatable &gt; &gt;</text>
<polyline fill="none" stroke="black" points="220.5,-827.5 365.5,-827.5 "/>
<text text-anchor="middle" x="293" y="-815.5" font-family="Helvetica,sans-Serif" font-size="10.00"> </text>
<polyline fill="none" stroke="black" points="220.5,-808.5 365.5,-808.5 "/>
<text text-anchor="start" x="228.5" y="-796.5" font-family="Helvetica,sans-Serif" font-size="10.00">+ append()</text>
<text text-anchor="start" x="228.5" y="-785.5" font-family="Helvetica,sans-Serif" font-size="10.00">+ append()</text>
<text text-anchor="start" x="228.5" y="-774.5" font-family="Helvetica,sans-Serif" font-size="10.00">+ insertBefore()</text>
<text text-anchor="start" x="228.5" y="-763.5" font-family="Helvetica,sans-Serif" font-size="10.00">+ insertBefore()</text>
<text text-anchor="start" x="228.5" y="-752.5" font-family="Helvetica,sans-Serif" font-size="10.00">+ insertSorted()</text>
<text text-anchor="start" x="228.5" y="-741.5" font-family="Helvetica,sans-Serif" font-size="10.00">+ insertSorted()</text>
<text text-anchor="start" x="228.5" y="-730.5" font-family="Helvetica,sans-Serif" font-size="10.00">+ remove()</text>
<text text-anchor="start" x="228.5" y="-719.5" font-family="Helvetica,sans-Serif" font-size="10.00">+ remove()</text>
<text text-anchor="start" x="228.5" y="-708.5" font-family="Helvetica,sans-Serif" font-size="10.00">+ moveDown()</text>
<text text-anchor="start" x="228.5" y="-697.5" font-family="Helvetica,sans-Serif" font-size="10.00">+ couldContain()</text>
<text text-anchor="start" x="228.5" y="-686.5" font-family="Helvetica,sans-Serif" font-size="10.00">+ begin()</text>
<text text-anchor="start" x="228.5" y="-675.5" font-family="Helvetica,sans-Serif" font-size="10.00">+ begin()</text>
<text text-anchor="start" x="228.5" y="-664.5" font-family="Helvetica,sans-Serif" font-size="10.00">+ end()</text>
<text text-anchor="start" x="228.5" y="-653.5" font-family="Helvetica,sans-Serif" font-size="10.00">+ end()</text>
<text text-anchor="start" x="228.5" y="-642.5" font-family="Helvetica,sans-Serif" font-size="10.00">+ rbegin()</text>
<text text-anchor="start" x="228.5" y="-631.5" font-family="Helvetica,sans-Serif" font-size="10.00">+ rbegin()</text>
<text text-anchor="start" x="228.5" y="-620.5" font-family="Helvetica,sans-Serif" font-size="10.00">+ rend()</text>
<text text-anchor="start" x="228.5" y="-609.5" font-family="Helvetica,sans-Serif" font-size="10.00">+ rend()</text>
<text text-anchor="start" x="228.5" y="-598.5" font-family="Helvetica,sans-Serif" font-size="10.00">+ getFirst()</text>
<text text-anchor="start" x="228.5" y="-587.5" font-family="Helvetica,sans-Serif" font-size="10.00">+ getLast()</text>
</a>
</g>
</g>
<!-- Node8&#45;&gt;Node9 -->
<g id="edge10" class="edge"><title>Node8&#45;&gt;Node9</title>
<path fill="none" stroke="#404040" d="M272.507,-916.258C271.524,-910.103 270.673,-903.985 270,-898 268.972,-888.856 268.488,-879.452 268.435,-869.972"/>
<polygon fill="none" stroke="#404040" points="268.435,-869.934 264.513,-863.883 268.59,-857.935 272.512,-863.986 268.435,-869.934"/>
<text text-anchor="middle" x="281" y="-890" font-family="Helvetica,sans-Serif" font-size="10.00"> &#45;last</text>
<text text-anchor="middle" x="281" y="-879" font-family="Helvetica,sans-Serif" font-size="10.00">&#45;first</text>
</g>
<!-- Node9&#45;&gt;Node6 -->
<g id="edge11" class="edge"><title>Node9&#45;&gt;Node6</title>
<path fill="none" stroke="#404040" d="M255.22,-580.125C249.443,-559.043 243.529,-537.46 237.896,-516.9"/>
<polygon fill="none" stroke="#404040" points="237.877,-516.834 232.434,-512.104 234.706,-505.26 240.149,-509.99 237.877,-516.834"/>
<text text-anchor="middle" x="277" y="-554" font-family="Helvetica,sans-Serif" font-size="10.00"> &#45;updatables</text>
</g>
<!-- Node9&#45;&gt;Node8 -->
<g id="edge9" class="edge"><title>Node9&#45;&gt;Node8</title>
<path fill="none" stroke="#404040" d="M295.691,-857.806C295.798,-863.955 295.902,-870.041 296,-876 296.152,-885.204 296.301,-894.736 296.446,-904.316"/>
<polygon fill="none" stroke="#404040" points="296.448,-904.455 300.536,-910.395 296.626,-916.454 292.537,-910.514 296.448,-904.455"/>
<text text-anchor="middle" x="324" y="-884.5" font-family="Helvetica,sans-Serif" font-size="10.00"> &#45;updatables</text>
</g>
<!-- Node10 -->
<g id="node10" class="node"><title>Node10</title>
<g id="a_node10"><a xlink:href="../../d3/dd0/classRelativeCCSender.html" target="_top" xlink:title=" ">
<polygon fill="white" stroke="black" points="276.5,-343.5 276.5,-455.5 411.5,-455.5 411.5,-343.5 276.5,-343.5"/>
<text text-anchor="middle" x="344" y="-443.5" font-family="Helvetica,sans-Serif" font-size="10.00">RelativeCCSender</text>
<polyline fill="none" stroke="black" points="276.5,-436.5 411.5,-436.5 "/>
<text text-anchor="start" x="284.5" y="-424.5" font-family="Helvetica,sans-Serif" font-size="10.00">&#45; mode</text>
<polyline fill="none" stroke="black" points="276.5,-417.5 411.5,-417.5 "/>
<text text-anchor="start" x="284.5" y="-405.5" font-family="Helvetica,sans-Serif" font-size="10.00">+ toTwosComplement7bit()</text>
<text text-anchor="start" x="284.5" y="-394.5" font-family="Helvetica,sans-Serif" font-size="10.00">+ toBinaryOffset7bit()</text>
<text text-anchor="start" x="284.5" y="-383.5" font-family="Helvetica,sans-Serif" font-size="10.00">+ toSignedMagnitude7bit()</text>
<text text-anchor="start" x="284.5" y="-372.5" font-family="Helvetica,sans-Serif" font-size="10.00">+ mapRelativeCC()</text>
<text text-anchor="start" x="284.5" y="-361.5" font-family="Helvetica,sans-Serif" font-size="10.00">+ send()</text>
<text text-anchor="start" x="284.5" y="-350.5" font-family="Helvetica,sans-Serif" font-size="10.00">+ setMode()</text>
</a>
</g>
</g>
<!-- Node10&#45;&gt;Node2 -->
<g id="edge12" class="edge"><title>Node10&#45;&gt;Node2</title>
<path fill="none" stroke="#404040" d="M335.97,-343.324C331.111,-309.933 324.857,-266.962 319.595,-230.806"/>
<polygon fill="none" stroke="#404040" points="319.581,-230.704 314.758,-225.343 317.852,-218.829 322.675,-224.19 319.581,-230.704"/>
<text text-anchor="middle" x="341.5" y="-240" font-family="Helvetica,sans-Serif" font-size="10.00"> +sender</text>
</g>
<!-- Node11 -->
<g id="node11" class="node"><title>Node11</title>
<g id="a_node11"><a xlink:href="../../d3/d10/classMIDICNChannelAddress.html" target="_top" xlink:title="A type&#45;safe utility class for saving a MIDI address consisting of a 7&#45;bit address,...">
<polygon fill="white" stroke="black" points="430,-266.5 430,-532.5 570,-532.5 570,-266.5 430,-266.5"/>
<text text-anchor="middle" x="500" y="-520.5" font-family="Helvetica,sans-Serif" font-size="10.00">MIDICNChannelAddress</text>
<polyline fill="none" stroke="black" points="430,-513.5 570,-513.5 "/>
<text text-anchor="start" x="438" y="-501.5" font-family="Helvetica,sans-Serif" font-size="10.00">&#45; addresses</text>
<polyline fill="none" stroke="black" points="430,-494.5 570,-494.5 "/>
<text text-anchor="start" x="438" y="-482.5" font-family="Helvetica,sans-Serif" font-size="10.00">+ MIDICNChannelAddress()</text>
<text text-anchor="start" x="438" y="-471.5" font-family="Helvetica,sans-Serif" font-size="10.00">+ MIDICNChannelAddress()</text>
<text text-anchor="start" x="438" y="-460.5" font-family="Helvetica,sans-Serif" font-size="10.00">+ MIDICNChannelAddress()</text>
<text text-anchor="start" x="438" y="-449.5" font-family="Helvetica,sans-Serif" font-size="10.00">+ MIDICNChannelAddress()</text>
<text text-anchor="start" x="438" y="-438.5" font-family="Helvetica,sans-Serif" font-size="10.00">+ MIDICNChannelAddress()</text>
<text text-anchor="start" x="438" y="-427.5" font-family="Helvetica,sans-Serif" font-size="10.00">+ operator+=()</text>
<text text-anchor="start" x="438" y="-416.5" font-family="Helvetica,sans-Serif" font-size="10.00">+ operator&#45;=()</text>
<text text-anchor="start" x="438" y="-405.5" font-family="Helvetica,sans-Serif" font-size="10.00">+ operator+()</text>
<text text-anchor="start" x="438" y="-394.5" font-family="Helvetica,sans-Serif" font-size="10.00">+ operator&#45;()</text>
<text text-anchor="start" x="438" y="-383.5" font-family="Helvetica,sans-Serif" font-size="10.00">+ operator==()</text>
<text text-anchor="start" x="438" y="-372.5" font-family="Helvetica,sans-Serif" font-size="10.00">+ operator!=()</text>
<text text-anchor="start" x="438" y="-361.5" font-family="Helvetica,sans-Serif" font-size="10.00">+ getAddress()</text>
<text text-anchor="start" x="438" y="-350.5" font-family="Helvetica,sans-Serif" font-size="10.00">+ getChannel()</text>
<text text-anchor="start" x="438" y="-339.5" font-family="Helvetica,sans-Serif" font-size="10.00">+ getRawChannel()</text>
<text text-anchor="start" x="438" y="-328.5" font-family="Helvetica,sans-Serif" font-size="10.00">+ getCableNumber()</text>
<text text-anchor="start" x="438" y="-317.5" font-family="Helvetica,sans-Serif" font-size="10.00">+ isValid()</text>
<text text-anchor="start" x="438" y="-306.5" font-family="Helvetica,sans-Serif" font-size="10.00">+ operator bool()</text>
<text text-anchor="start" x="438" y="-295.5" font-family="Helvetica,sans-Serif" font-size="10.00">+ matchSingle()</text>
<text text-anchor="start" x="438" y="-284.5" font-family="Helvetica,sans-Serif" font-size="10.00">+ matchAddressInRange()</text>
<text text-anchor="start" x="438" y="-273.5" font-family="Helvetica,sans-Serif" font-size="10.00">+ invalid()</text>
</a>
</g>
</g>
<!-- Node11&#45;&gt;Node2 -->
<g id="edge13" class="edge"><title>Node11&#45;&gt;Node2</title>
<path fill="none" stroke="#404040" d="M429.91,-279.03C426.65,-274.568 423.342,-270.209 420,-266 409.64,-252.954 397.792,-239.896 385.784,-227.597"/>
<polygon fill="none" stroke="#404040" points="385.488,-227.299 378.422,-225.861 377.031,-218.786 384.097,-220.223 385.488,-227.299"/>
<text text-anchor="middle" x="424.5" y="-240" font-family="Helvetica,sans-Serif" font-size="10.00"> &#45;address</text>
</g>
</g>
</svg>
