<?xml version="1.0" encoding="UTF-8" standalone="no"?>
<!DOCTYPE svg PUBLIC "-//W3C//DTD SVG 1.1//EN"
 "http://www.w3.org/Graphics/SVG/1.1/DTD/svg11.dtd">
<!-- Generated by graphviz version 2.38.0 (20140413.2041)
 -->
<!-- Title: IncrementSelector.hpp Pages: 1 -->
<svg width="727pt" height="655pt"
 viewBox="0.00 0.00 727.13 655.00" xmlns="http://www.w3.org/2000/svg" xmlns:xlink="http://www.w3.org/1999/xlink">
<g id="graph0" class="graph" transform="scale(1 1) rotate(0) translate(4 651)">
<title>IncrementSelector.hpp</title>
<polygon fill="white" stroke="none" points="-4,4 -4,-651 723.131,-651 723.131,4 -4,4"/>
<!-- Node1 -->
<g id="node1" class="node"><title>Node1</title>
<g id="a_node1"><a xlink:title=" ">
<polygon fill="#bfbfbf" stroke="black" points="99.6307,-627.5 99.6307,-646.5 214.631,-646.5 214.631,-627.5 99.6307,-627.5"/>
<text text-anchor="middle" x="157.131" y="-634.5" font-family="Helvetica,sans-Serif" font-size="10.00">IncrementSelector.hpp</text>
</a>
</g>
</g>
<!-- Node2 -->
<g id="node2" class="node"><title>Node2</title>
<g id="a_node2"><a xlink:href="../../d6/d16/Selector_8hpp.html" target="_top" xlink:title=" ">
<polygon fill="white" stroke="black" points="69.6307,-454 69.6307,-473 140.631,-473 140.631,-454 69.6307,-454"/>
<text text-anchor="middle" x="105.131" y="-461" font-family="Helvetica,sans-Serif" font-size="10.00">Selector.hpp</text>
</a>
</g>
</g>
<!-- Node1&#45;&gt;Node2 -->
<g id="edge1" class="edge"><title>Node1&#45;&gt;Node2</title>
<path fill="none" stroke="midnightblue" d="M148.889,-627.487C141.167,-618.977 129.963,-605.152 124.131,-591 109.234,-554.854 105.84,-508.602 105.174,-483.235"/>
<polygon fill="midnightblue" stroke="midnightblue" points="108.672,-483.11 105.028,-473.161 101.673,-483.211 108.672,-483.11"/>
</g>
<!-- Node23 -->
<g id="node23" class="node"><title>Node23</title>
<g id="a_node23"><a xlink:href="../../d5/d04/IncrementButton_8hpp.html" target="_top" xlink:title=" ">
<polygon fill="white" stroke="black" points="133.131,-571.5 133.131,-590.5 285.131,-590.5 285.131,-571.5 133.131,-571.5"/>
<text text-anchor="middle" x="209.131" y="-578.5" font-family="Helvetica,sans-Serif" font-size="10.00">Hardware/IncrementButton.hpp</text>
</a>
</g>
</g>
<!-- Node1&#45;&gt;Node23 -->
<g id="edge35" class="edge"><title>Node1&#45;&gt;Node23</title>
<path fill="none" stroke="midnightblue" d="M165.717,-627.083C173.29,-619.22 184.509,-607.569 193.645,-598.081"/>
<polygon fill="midnightblue" stroke="midnightblue" points="196.288,-600.382 200.704,-590.751 191.246,-595.527 196.288,-600.382"/>
</g>
<!-- Node3 -->
<g id="node3" class="node"><title>Node3</title>
<g id="a_node3"><a xlink:href="../../d9/d46/Selectable_8hpp.html" target="_top" xlink:title=" ">
<polygon fill="white" stroke="black" points="565.631,-392.5 565.631,-411.5 646.631,-411.5 646.631,-392.5 565.631,-392.5"/>
<text text-anchor="middle" x="606.131" y="-399.5" font-family="Helvetica,sans-Serif" font-size="10.00">Selectable.hpp</text>
</a>
</g>
</g>
<!-- Node2&#45;&gt;Node3 -->
<g id="edge2" class="edge"><title>Node2&#45;&gt;Node3</title>
<path fill="none" stroke="midnightblue" d="M140.694,-459.385C215.559,-452.644 395.094,-435.509 555.478,-412.16"/>
<polygon fill="midnightblue" stroke="midnightblue" points="556.14,-415.601 565.525,-410.686 555.123,-408.675 556.14,-415.601"/>
</g>
<!-- Node4 -->
<g id="node4" class="node"><title>Node4</title>
<g id="a_node4"><a xlink:href="../../d0/d4e/Def_8hpp.html" target="_top" xlink:title=" ">
<polygon fill="white" stroke="black" points="283.131,-112.5 283.131,-131.5 353.131,-131.5 353.131,-112.5 283.131,-112.5"/>
<text text-anchor="middle" x="318.131" y="-119.5" font-family="Helvetica,sans-Serif" font-size="10.00">Def/Def.hpp</text>
</a>
</g>
</g>
<!-- Node2&#45;&gt;Node4 -->
<g id="edge22" class="edge"><title>Node2&#45;&gt;Node4</title>
<path fill="none" stroke="midnightblue" d="M80.1577,-453.841C61.8457,-446.021 38.3064,-432.549 27.1307,-412 -26.1243,-314.079 3.5671,-243.974 85.1307,-168 111.792,-143.165 212.844,-131.166 272.759,-126.122"/>
<polygon fill="midnightblue" stroke="midnightblue" points="273.397,-129.582 283.082,-125.287 272.832,-122.604 273.397,-129.582"/>
</g>
<!-- Node11 -->
<g id="node11" class="node"><title>Node11</title>
<g id="a_node11"><a xlink:href="../../df/dee/Debug_8hpp.html" target="_top" xlink:title=" ">
<polygon fill="white" stroke="black" points="320.131,-280.5 320.131,-299.5 384.131,-299.5 384.131,-280.5 320.131,-280.5"/>
<text text-anchor="middle" x="352.131" y="-287.5" font-family="Helvetica,sans-Serif" font-size="10.00">Debug.hpp</text>
</a>
</g>
</g>
<!-- Node2&#45;&gt;Node11 -->
<g id="edge23" class="edge"><title>Node2&#45;&gt;Node11</title>
<path fill="none" stroke="midnightblue" d="M140.706,-462.912C208.934,-461.531 357.237,-447.559 423.131,-356 438.106,-335.192 409.64,-315.982 384.417,-303.926"/>
<polygon fill="midnightblue" stroke="midnightblue" points="385.561,-300.602 375.007,-299.667 382.674,-306.979 385.561,-300.602"/>
</g>
<!-- Node18 -->
<g id="node18" class="node"><title>Node18</title>
<g id="a_node18"><a xlink:href="../../d4/d93/Updatable_8hpp.html" target="_top" xlink:title=" ">
<polygon fill="white" stroke="black" points="36.1307,-392.5 36.1307,-411.5 152.131,-411.5 152.131,-392.5 36.1307,-392.5"/>
<text text-anchor="middle" x="94.1307" y="-399.5" font-family="Helvetica,sans-Serif" font-size="10.00">Helpers/Updatable.hpp</text>
</a>
</g>
</g>
<!-- Node2&#45;&gt;Node18 -->
<g id="edge24" class="edge"><title>Node2&#45;&gt;Node18</title>
<path fill="none" stroke="midnightblue" d="M103.555,-453.975C102.003,-445.58 99.5808,-432.481 97.581,-421.663"/>
<polygon fill="midnightblue" stroke="midnightblue" points="100.963,-420.706 95.7038,-411.509 94.0801,-421.979 100.963,-420.706"/>
</g>
<!-- Node3&#45;&gt;Node4 -->
<g id="edge3" class="edge"><title>Node3&#45;&gt;Node4</title>
<path fill="none" stroke="midnightblue" d="M611.121,-392.49C621.22,-374.436 643.131,-330.693 643.131,-291 643.131,-291 643.131,-291 643.131,-233 643.131,-174.626 452.641,-141.159 363.334,-128.677"/>
<polygon fill="midnightblue" stroke="midnightblue" points="363.602,-125.181 353.22,-127.293 362.653,-132.116 363.602,-125.181"/>
</g>
<!-- Node6 -->
<g id="node6" class="node"><title>Node6</title>
<g id="a_node6"><a xlink:title=" ">
<polygon fill="white" stroke="#bfbfbf" points="421.631,-0.5 421.631,-19.5 470.631,-19.5 470.631,-0.5 421.631,-0.5"/>
<text text-anchor="middle" x="446.131" y="-7.5" font-family="Helvetica,sans-Serif" font-size="10.00">stdint.h</text>
</a>
</g>
</g>
<!-- Node3&#45;&gt;Node6 -->
<g id="edge20" class="edge"><title>Node3&#45;&gt;Node6</title>
<path fill="none" stroke="midnightblue" d="M626.333,-392.492C658.836,-377.293 719.131,-342.197 719.131,-291 719.131,-291 719.131,-291 719.131,-121 719.131,-70.2267 554.62,-31.9951 481.01,-17.4298"/>
<polygon fill="midnightblue" stroke="midnightblue" points="481.323,-13.9253 470.839,-15.4539 479.988,-20.7968 481.323,-13.9253"/>
</g>
<!-- Node10 -->
<g id="node10" class="node"><title>Node10</title>
<g id="a_node10"><a xlink:href="../../d1/d93/Error_8hpp.html" target="_top" xlink:title=" ">
<polygon fill="white" stroke="black" points="321.631,-336.5 321.631,-355.5 414.631,-355.5 414.631,-336.5 321.631,-336.5"/>
<text text-anchor="middle" x="368.131" y="-343.5" font-family="Helvetica,sans-Serif" font-size="10.00">Helpers/Error.hpp</text>
</a>
</g>
</g>
<!-- Node3&#45;&gt;Node10 -->
<g id="edge11" class="edge"><title>Node3&#45;&gt;Node10</title>
<path fill="none" stroke="midnightblue" d="M568.419,-392.444C526.987,-383.043 460.374,-367.929 415.463,-357.739"/>
<polygon fill="midnightblue" stroke="midnightblue" points="416.193,-354.316 405.666,-355.516 414.644,-361.142 416.193,-354.316"/>
</g>
<!-- Node17 -->
<g id="node17" class="node"><title>Node17</title>
<g id="a_node17"><a xlink:href="../../d7/dd7/Helpers_8hpp.html" target="_top" xlink:title=" ">
<polygon fill="white" stroke="black" points="509.131,-336.5 509.131,-355.5 615.131,-355.5 615.131,-336.5 509.131,-336.5"/>
<text text-anchor="middle" x="562.131" y="-343.5" font-family="Helvetica,sans-Serif" font-size="10.00">Helpers/Helpers.hpp</text>
</a>
</g>
</g>
<!-- Node3&#45;&gt;Node17 -->
<g id="edge21" class="edge"><title>Node3&#45;&gt;Node17</title>
<path fill="none" stroke="midnightblue" d="M598.865,-392.083C592.586,-384.377 583.343,-373.033 575.7,-363.653"/>
<polygon fill="midnightblue" stroke="midnightblue" points="578.291,-361.293 569.261,-355.751 572.865,-365.714 578.291,-361.293"/>
</g>
<!-- Node5 -->
<g id="node5" class="node"><title>Node5</title>
<g id="a_node5"><a xlink:href="../../d7/d42/Channel_8hpp.html" target="_top" xlink:title=" ">
<polygon fill="white" stroke="black" points="346.631,-56.5 346.631,-75.5 417.631,-75.5 417.631,-56.5 346.631,-56.5"/>
<text text-anchor="middle" x="382.131" y="-63.5" font-family="Helvetica,sans-Serif" font-size="10.00">Channel.hpp</text>
</a>
</g>
</g>
<!-- Node4&#45;&gt;Node5 -->
<g id="edge4" class="edge"><title>Node4&#45;&gt;Node5</title>
<path fill="none" stroke="midnightblue" d="M328.413,-112.324C337.967,-104.263 352.41,-92.0765 363.915,-82.3695"/>
<polygon fill="midnightblue" stroke="midnightblue" points="366.275,-84.9577 371.661,-75.8339 361.761,-79.6076 366.275,-84.9577"/>
</g>
<!-- Node4&#45;&gt;Node6 -->
<g id="edge10" class="edge"><title>Node4&#45;&gt;Node6</title>
<path fill="none" stroke="midnightblue" d="M353.293,-114.491C376.941,-108.373 407.15,-96.9024 426.131,-76 437.654,-63.3094 442.54,-44.1065 444.61,-29.8599"/>
<polygon fill="midnightblue" stroke="midnightblue" points="448.112,-30.0421 445.74,-19.7161 441.155,-29.2671 448.112,-30.0421"/>
</g>
<!-- Node7 -->
<g id="node7" class="node"><title>Node7</title>
<g id="a_node7"><a xlink:href="../../dc/d50/Frequency_8hpp.html" target="_top" xlink:title=" ">
<polygon fill="white" stroke="black" points="208.631,-56.5 208.631,-75.5 289.631,-75.5 289.631,-56.5 208.631,-56.5"/>
<text text-anchor="middle" x="249.131" y="-63.5" font-family="Helvetica,sans-Serif" font-size="10.00">Frequency.hpp</text>
</a>
</g>
</g>
<!-- Node4&#45;&gt;Node7 -->
<g id="edge6" class="edge"><title>Node4&#45;&gt;Node7</title>
<path fill="none" stroke="midnightblue" d="M307.045,-112.324C296.645,-104.185 280.87,-91.8395 268.409,-82.0874"/>
<polygon fill="midnightblue" stroke="midnightblue" points="270.451,-79.2407 260.418,-75.8339 266.136,-84.7533 270.451,-79.2407"/>
</g>
<!-- Node8 -->
<g id="node8" class="node"><title>Node8</title>
<g id="a_node8"><a xlink:href="../../de/d76/Array_8hpp.html" target="_top" xlink:title=" ">
<polygon fill="white" stroke="black" points="95.6307,-56.5 95.6307,-75.5 190.631,-75.5 190.631,-56.5 95.6307,-56.5"/>
<text text-anchor="middle" x="143.131" y="-63.5" font-family="Helvetica,sans-Serif" font-size="10.00">Helpers/Array.hpp</text>
</a>
</g>
</g>
<!-- Node4&#45;&gt;Node8 -->
<g id="edge7" class="edge"><title>Node4&#45;&gt;Node8</title>
<path fill="none" stroke="midnightblue" d="M290.401,-112.444C260.705,-103.28 213.414,-88.6876 180.461,-78.5192"/>
<polygon fill="midnightblue" stroke="midnightblue" points="181.318,-75.1206 170.73,-75.5164 179.254,-81.8094 181.318,-75.1206"/>
</g>
<!-- Node9 -->
<g id="node9" class="node"><title>Node9</title>
<g id="a_node9"><a xlink:title=" ">
<polygon fill="white" stroke="#bfbfbf" points="117.131,-0.5 117.131,-19.5 169.131,-19.5 169.131,-0.5 117.131,-0.5"/>
<text text-anchor="middle" x="143.131" y="-7.5" font-family="Helvetica,sans-Serif" font-size="10.00">stddef.h</text>
</a>
</g>
</g>
<!-- Node4&#45;&gt;Node9 -->
<g id="edge9" class="edge"><title>Node4&#45;&gt;Node9</title>
<path fill="none" stroke="midnightblue" d="M317.949,-112.084C317.172,-98.1508 313.614,-71.2386 298.131,-56 266.458,-24.8282 214.541,-15.0082 179.618,-12.0482"/>
<polygon fill="midnightblue" stroke="midnightblue" points="179.586,-8.53755 169.367,-11.3338 179.099,-15.5206 179.586,-8.53755"/>
</g>
<!-- Node5&#45;&gt;Node6 -->
<g id="edge5" class="edge"><title>Node5&#45;&gt;Node6</title>
<path fill="none" stroke="midnightblue" d="M392.413,-56.324C401.967,-48.2631 416.41,-36.0765 427.915,-26.3695"/>
<polygon fill="midnightblue" stroke="midnightblue" points="430.275,-28.9577 435.661,-19.8339 425.761,-23.6076 430.275,-28.9577"/>
</g>
<!-- Node8&#45;&gt;Node9 -->
<g id="edge8" class="edge"><title>Node8&#45;&gt;Node9</title>
<path fill="none" stroke="midnightblue" d="M143.131,-56.083C143.131,-49.0059 143.131,-38.8611 143.131,-29.9865"/>
<polygon fill="midnightblue" stroke="midnightblue" points="146.631,-29.751 143.131,-19.7511 139.631,-29.7511 146.631,-29.751"/>
</g>
<!-- Node10&#45;&gt;Node11 -->
<g id="edge12" class="edge"><title>Node10&#45;&gt;Node11</title>
<path fill="none" stroke="midnightblue" d="M365.489,-336.083C363.345,-328.849 360.252,-318.409 357.582,-309.397"/>
<polygon fill="midnightblue" stroke="midnightblue" points="360.92,-308.345 354.724,-299.751 354.209,-310.333 360.92,-308.345"/>
</g>
<!-- Node12 -->
<g id="node12" class="node"><title>Node12</title>
<g id="a_node12"><a xlink:href="../../d2/dd5/SettingsWrapper_8hpp.html" target="_top" xlink:title=" ">
<polygon fill="white" stroke="black" points="114.631,-224.5 114.631,-243.5 261.631,-243.5 261.631,-224.5 114.631,-224.5"/>
<text text-anchor="middle" x="188.131" y="-231.5" font-family="Helvetica,sans-Serif" font-size="10.00">Settings/SettingsWrapper.hpp</text>
</a>
</g>
</g>
<!-- Node11&#45;&gt;Node12 -->
<g id="edge13" class="edge"><title>Node11&#45;&gt;Node12</title>
<path fill="none" stroke="midnightblue" d="M321.056,-280.444C291.602,-271.399 247.86,-257.064 218.61,-246.916"/>
<polygon fill="midnightblue" stroke="midnightblue" points="219.51,-243.523 208.915,-243.516 217.194,-250.128 219.51,-243.523"/>
</g>
<!-- Node15 -->
<g id="node15" class="node"><title>Node15</title>
<g id="a_node15"><a xlink:href="../../dd/d80/PrintStream_8hpp.html" target="_top" xlink:title=" ">
<polygon fill="white" stroke="black" points="279.631,-224.5 279.631,-243.5 366.631,-243.5 366.631,-224.5 279.631,-224.5"/>
<text text-anchor="middle" x="323.131" y="-231.5" font-family="Helvetica,sans-Serif" font-size="10.00">PrintStream.hpp</text>
</a>
</g>
</g>
<!-- Node11&#45;&gt;Node15 -->
<g id="edge18" class="edge"><title>Node11&#45;&gt;Node15</title>
<path fill="none" stroke="midnightblue" d="M347.342,-280.083C343.372,-272.691 337.606,-261.953 332.696,-252.811"/>
<polygon fill="midnightblue" stroke="midnightblue" points="335.645,-250.905 327.83,-243.751 329.478,-254.217 335.645,-250.905"/>
</g>
<!-- Node12&#45;&gt;Node11 -->
<g id="edge17" class="edge"><title>Node12&#45;&gt;Node11</title>
<path fill="none" stroke="midnightblue" d="M219.075,-243.516C248.487,-252.546 292.229,-266.879 321.522,-277.039"/>
<polygon fill="midnightblue" stroke="midnightblue" points="320.638,-280.438 331.233,-280.444 322.954,-273.832 320.638,-280.438"/>
</g>
<!-- Node13 -->
<g id="node13" class="node"><title>Node13</title>
<g id="a_node13"><a xlink:href="../../db/d02/Settings_8hpp.html" target="_top" xlink:title="All user settings and debugging options can be changed here.">
<polygon fill="white" stroke="black" points="282.631,-168.5 282.631,-187.5 353.631,-187.5 353.631,-168.5 282.631,-168.5"/>
<text text-anchor="middle" x="318.131" y="-175.5" font-family="Helvetica,sans-Serif" font-size="10.00">Settings.hpp</text>
</a>
</g>
</g>
<!-- Node12&#45;&gt;Node13 -->
<g id="edge14" class="edge"><title>Node12&#45;&gt;Node13</title>
<path fill="none" stroke="midnightblue" d="M208.73,-224.444C230.124,-215.557 263.812,-201.563 288.155,-191.451"/>
<polygon fill="midnightblue" stroke="midnightblue" points="289.736,-194.585 297.628,-187.516 287.051,-188.12 289.736,-194.585"/>
</g>
<!-- Node14 -->
<g id="node14" class="node"><title>Node14</title>
<g id="a_node14"><a xlink:href="../../d9/d98/TeensyUSBTypes_8hpp.html" target="_top" xlink:title=" ">
<polygon fill="white" stroke="black" points="112.131,-168.5 112.131,-187.5 264.131,-187.5 264.131,-168.5 112.131,-168.5"/>
<text text-anchor="middle" x="188.131" y="-175.5" font-family="Helvetica,sans-Serif" font-size="10.00">Helpers/TeensyUSBTypes.hpp</text>
</a>
</g>
</g>
<!-- Node12&#45;&gt;Node14 -->
<g id="edge16" class="edge"><title>Node12&#45;&gt;Node14</title>
<path fill="none" stroke="midnightblue" d="M188.131,-224.083C188.131,-217.006 188.131,-206.861 188.131,-197.986"/>
<polygon fill="midnightblue" stroke="midnightblue" points="191.631,-197.751 188.131,-187.751 184.631,-197.751 191.631,-197.751"/>
</g>
<!-- Node13&#45;&gt;Node4 -->
<g id="edge15" class="edge"><title>Node13&#45;&gt;Node4</title>
<path fill="none" stroke="midnightblue" d="M318.131,-168.083C318.131,-161.006 318.131,-150.861 318.131,-141.986"/>
<polygon fill="midnightblue" stroke="midnightblue" points="321.631,-141.751 318.131,-131.751 314.631,-141.751 321.631,-141.751"/>
</g>
<!-- Node16 -->
<g id="node16" class="node"><title>Node16</title>
<g id="a_node16"><a xlink:title=" ">
<polygon fill="white" stroke="#bfbfbf" points="416.131,-168.5 416.131,-187.5 474.131,-187.5 474.131,-168.5 416.131,-168.5"/>
<text text-anchor="middle" x="445.131" y="-175.5" font-family="Helvetica,sans-Serif" font-size="10.00">Arduino.h</text>
</a>
</g>
</g>
<!-- Node15&#45;&gt;Node16 -->
<g id="edge19" class="edge"><title>Node15&#45;&gt;Node16</title>
<path fill="none" stroke="midnightblue" d="M342.462,-224.444C362.451,-215.596 393.874,-201.687 416.695,-191.586"/>
<polygon fill="midnightblue" stroke="midnightblue" points="418.162,-194.764 425.89,-187.516 415.329,-188.363 418.162,-194.764"/>
</g>
<!-- Node18&#45;&gt;Node4 -->
<g id="edge25" class="edge"><title>Node18&#45;&gt;Node4</title>
<path fill="none" stroke="midnightblue" d="M92.8233,-392.466C90.1127,-374.007 84.1307,-328.968 84.1307,-291 84.1307,-291 84.1307,-291 84.1307,-233 84.1307,-202.902 81.0341,-188.436 103.131,-168 127.379,-145.574 217.247,-132.894 272.832,-127.038"/>
<polygon fill="midnightblue" stroke="midnightblue" points="273.195,-130.52 282.789,-126.024 272.485,-123.556 273.195,-130.52"/>
</g>
<!-- Node18&#45;&gt;Node9 -->
<g id="edge34" class="edge"><title>Node18&#45;&gt;Node9</title>
<path fill="none" stroke="midnightblue" d="M85.8846,-392.468C64.3595,-369.255 8.13066,-302.187 8.13066,-235 8.13066,-235 8.13066,-235 8.13066,-121 8.13066,-69.609 67.6519,-37.9666 107.65,-22.5048"/>
<polygon fill="midnightblue" stroke="midnightblue" points="108.937,-25.7606 117.101,-19.0083 106.508,-19.1955 108.937,-25.7606"/>
</g>
<!-- Node18&#45;&gt;Node10 -->
<g id="edge26" class="edge"><title>Node18&#45;&gt;Node10</title>
<path fill="none" stroke="midnightblue" d="M137.547,-392.444C185.646,-382.964 263.226,-367.675 314.937,-357.483"/>
<polygon fill="midnightblue" stroke="midnightblue" points="315.783,-360.884 324.918,-355.516 314.43,-354.016 315.783,-360.884"/>
</g>
<!-- Node18&#45;&gt;Node12 -->
<g id="edge33" class="edge"><title>Node18&#45;&gt;Node12</title>
<path fill="none" stroke="midnightblue" d="M96.7253,-392.282C103.102,-371.652 120.881,-318.674 146.131,-280 153.126,-269.286 162.765,-258.75 171.045,-250.569"/>
<polygon fill="midnightblue" stroke="midnightblue" points="173.616,-252.954 178.436,-243.519 168.785,-247.889 173.616,-252.954"/>
</g>
<!-- Node19 -->
<g id="node19" class="node"><title>Node19</title>
<g id="a_node19"><a xlink:href="../../de/dd1/LinkedList_8hpp.html" target="_top" xlink:title=" ">
<polygon fill="white" stroke="black" points="188.131,-336.5 188.131,-355.5 304.131,-355.5 304.131,-336.5 188.131,-336.5"/>
<text text-anchor="middle" x="246.131" y="-343.5" font-family="Helvetica,sans-Serif" font-size="10.00">Helpers/LinkedList.hpp</text>
</a>
</g>
</g>
<!-- Node18&#45;&gt;Node19 -->
<g id="edge27" class="edge"><title>Node18&#45;&gt;Node19</title>
<path fill="none" stroke="midnightblue" d="M118.216,-392.444C143.675,-383.399 184.024,-369.064 212.59,-358.916"/>
<polygon fill="midnightblue" stroke="midnightblue" points="213.907,-362.162 222.158,-355.516 211.564,-355.566 213.907,-362.162"/>
</g>
<!-- Node19&#45;&gt;Node11 -->
<g id="edge28" class="edge"><title>Node19&#45;&gt;Node11</title>
<path fill="none" stroke="midnightblue" d="M263.161,-336.324C280.16,-327.664 306.507,-314.242 326.123,-304.249"/>
<polygon fill="midnightblue" stroke="midnightblue" points="327.821,-307.312 335.142,-299.655 324.643,-301.075 327.821,-307.312"/>
</g>
<!-- Node20 -->
<g id="node20" class="node"><title>Node20</title>
<g id="a_node20"><a xlink:title=" ">
<polygon fill="white" stroke="#bfbfbf" points="188.131,-280.5 188.131,-299.5 236.131,-299.5 236.131,-280.5 188.131,-280.5"/>
<text text-anchor="middle" x="212.131" y="-287.5" font-family="Helvetica,sans-Serif" font-size="10.00">stdlib.h</text>
</a>
</g>
</g>
<!-- Node19&#45;&gt;Node20 -->
<g id="edge29" class="edge"><title>Node19&#45;&gt;Node20</title>
<path fill="none" stroke="midnightblue" d="M240.516,-336.083C235.763,-328.534 228.813,-317.495 222.979,-308.23"/>
<polygon fill="midnightblue" stroke="midnightblue" points="225.931,-306.349 217.641,-299.751 220.007,-310.078 225.931,-306.349"/>
</g>
<!-- Node21 -->
<g id="node21" class="node"><title>Node21</title>
<g id="a_node21"><a xlink:href="../../d7/d79/MinMaxFix_8hpp.html" target="_top" xlink:title=" ">
<polygon fill="white" stroke="black" points="385.131,-224.5 385.131,-243.5 505.131,-243.5 505.131,-224.5 385.131,-224.5"/>
<text text-anchor="middle" x="445.131" y="-231.5" font-family="Helvetica,sans-Serif" font-size="10.00">Helpers/MinMaxFix.hpp</text>
</a>
</g>
</g>
<!-- Node19&#45;&gt;Node21 -->
<g id="edge30" class="edge"><title>Node19&#45;&gt;Node21</title>
<path fill="none" stroke="midnightblue" d="M300.533,-336.433C329.837,-329.911 365.531,-318.743 393.131,-300 411.372,-287.612 426.341,-266.901 435.459,-252.189"/>
<polygon fill="midnightblue" stroke="midnightblue" points="438.499,-253.923 440.581,-243.535 432.475,-250.358 438.499,-253.923"/>
</g>
<!-- Node22 -->
<g id="node22" class="node"><title>Node22</title>
<g id="a_node22"><a xlink:title=" ">
<polygon fill="white" stroke="#bfbfbf" points="254.631,-280.5 254.631,-299.5 301.631,-299.5 301.631,-280.5 254.631,-280.5"/>
<text text-anchor="middle" x="278.131" y="-287.5" font-family="Helvetica,sans-Serif" font-size="10.00">iterator</text>
</a>
</g>
</g>
<!-- Node19&#45;&gt;Node22 -->
<g id="edge32" class="edge"><title>Node19&#45;&gt;Node22</title>
<path fill="none" stroke="midnightblue" d="M251.415,-336.083C255.842,-328.613 262.294,-317.724 267.749,-308.52"/>
<polygon fill="midnightblue" stroke="midnightblue" points="270.858,-310.138 272.945,-299.751 264.836,-306.57 270.858,-310.138"/>
</g>
<!-- Node21&#45;&gt;Node16 -->
<g id="edge31" class="edge"><title>Node21&#45;&gt;Node16</title>
<path fill="none" stroke="midnightblue" d="M445.131,-224.083C445.131,-217.006 445.131,-206.861 445.131,-197.986"/>
<polygon fill="midnightblue" stroke="midnightblue" points="448.631,-197.751 445.131,-187.751 441.631,-197.751 448.631,-197.751"/>
</g>
<!-- Node24 -->
<g id="node24" class="node"><title>Node24</title>
<g id="a_node24"><a xlink:href="../../d4/db3/Button_8hpp.html" target="_top" xlink:title=" ">
<polygon fill="white" stroke="black" points="177.131,-515.5 177.131,-534.5 241.131,-534.5 241.131,-515.5 177.131,-515.5"/>
<text text-anchor="middle" x="209.131" y="-522.5" font-family="Helvetica,sans-Serif" font-size="10.00">Button.hpp</text>
</a>
</g>
</g>
<!-- Node23&#45;&gt;Node24 -->
<g id="edge36" class="edge"><title>Node23&#45;&gt;Node24</title>
<path fill="none" stroke="midnightblue" d="M209.131,-571.083C209.131,-564.006 209.131,-553.861 209.131,-544.986"/>
<polygon fill="midnightblue" stroke="midnightblue" points="212.631,-544.751 209.131,-534.751 205.631,-544.751 212.631,-544.751"/>
</g>
<!-- Node24&#45;&gt;Node12 -->
<g id="edge42" class="edge"><title>Node24&#45;&gt;Node12</title>
<path fill="none" stroke="midnightblue" d="M206.619,-515.154C197.906,-483.401 170.005,-372.165 179.131,-280 180.005,-271.17 181.822,-261.505 183.596,-253.404"/>
<polygon fill="midnightblue" stroke="midnightblue" points="187.031,-254.085 185.896,-243.551 180.214,-252.494 187.031,-254.085"/>
</g>
<!-- Node25 -->
<g id="node25" class="node"><title>Node25</title>
<g id="a_node25"><a xlink:href="../../dd/ddf/ExtendedInputOutput_8hpp.html" target="_top" xlink:title=" ">
<polygon fill="white" stroke="black" points="409.131,-448.5 409.131,-478.5 563.131,-478.5 563.131,-448.5 409.131,-448.5"/>
<text text-anchor="start" x="417.131" y="-466.5" font-family="Helvetica,sans-Serif" font-size="10.00">Hardware/ExtendedInputOutput</text>
<text text-anchor="middle" x="486.131" y="-455.5" font-family="Helvetica,sans-Serif" font-size="10.00">/ExtendedInputOutput.hpp</text>
</a>
</g>
</g>
<!-- Node24&#45;&gt;Node25 -->
<g id="edge37" class="edge"><title>Node24&#45;&gt;Node25</title>
<path fill="none" stroke="midnightblue" d="M241.177,-517.116C282.421,-508.257 355.38,-492.585 410.98,-480.643"/>
<polygon fill="midnightblue" stroke="midnightblue" points="411.754,-484.056 420.796,-478.534 410.284,-477.212 411.754,-484.056"/>
</g>
<!-- Node25&#45;&gt;Node16 -->
<g id="edge41" class="edge"><title>Node25&#45;&gt;Node16</title>
<path fill="none" stroke="midnightblue" d="M563.376,-459.197C613.629,-452.924 667.837,-436.082 656.131,-392 630.024,-293.696 520.836,-221.362 470.61,-192.628"/>
<polygon fill="midnightblue" stroke="midnightblue" points="472.107,-189.455 461.672,-187.62 468.685,-195.562 472.107,-189.455"/>
</g>
<!-- Node26 -->
<g id="node26" class="node"><title>Node26</title>
<g id="a_node26"><a xlink:href="../../d4/d57/ExtendedIOElement_8hpp.html" target="_top" xlink:title=" ">
<polygon fill="white" stroke="black" points="424.631,-392.5 424.631,-411.5 547.631,-411.5 547.631,-392.5 424.631,-392.5"/>
<text text-anchor="middle" x="486.131" y="-399.5" font-family="Helvetica,sans-Serif" font-size="10.00">ExtendedIOElement.hpp</text>
</a>
</g>
</g>
<!-- Node25&#45;&gt;Node26 -->
<g id="edge38" class="edge"><title>Node25&#45;&gt;Node26</title>
<path fill="none" stroke="midnightblue" d="M486.131,-448.399C486.131,-440.466 486.131,-430.458 486.131,-421.858"/>
<polygon fill="midnightblue" stroke="midnightblue" points="489.631,-421.658 486.131,-411.658 482.631,-421.658 489.631,-421.658"/>
</g>
<!-- Node26&#45;&gt;Node4 -->
<g id="edge39" class="edge"><title>Node26&#45;&gt;Node4</title>
<path fill="none" stroke="midnightblue" d="M487.853,-392.49C493.541,-364.235 511.508,-273.648 514.131,-244 514.914,-235.146 516.354,-232.606 514.131,-224 507.016,-196.456 505.504,-185.57 483.131,-168 448.7,-140.96 399.195,-130.14 363.402,-125.826"/>
<polygon fill="midnightblue" stroke="midnightblue" points="363.549,-122.322 353.231,-124.729 362.798,-129.281 363.549,-122.322"/>
</g>
<!-- Node26&#45;&gt;Node19 -->
<g id="edge40" class="edge"><title>Node26&#45;&gt;Node19</title>
<path fill="none" stroke="midnightblue" d="M448.102,-392.444C406.322,-383.043 339.149,-367.929 293.861,-357.739"/>
<polygon fill="midnightblue" stroke="midnightblue" points="294.506,-354.297 283.981,-355.516 292.969,-361.126 294.506,-354.297"/>
</g>
</g>
</svg>
