<?xml version="1.0" encoding="UTF-8" standalone="no"?>
<!DOCTYPE svg PUBLIC "-//W3C//DTD SVG 1.1//EN"
 "http://www.w3.org/Graphics/SVG/1.1/DTD/svg11.dtd">
<!-- Generated by graphviz version 2.38.0 (20140413.2041)
 -->
<!-- Title: ANSIColors.hpp Pages: 1 -->
<svg width="1123pt" height="476pt"
 viewBox="0.00 0.00 1123.00 476.00" xmlns="http://www.w3.org/2000/svg" xmlns:xlink="http://www.w3.org/1999/xlink">
<g id="graph0" class="graph" transform="scale(1 1) rotate(0) translate(4 472)">
<title>ANSIColors.hpp</title>
<polygon fill="white" stroke="none" points="-4,4 -4,-472 1119,-472 1119,4 -4,4"/>
<!-- Node1 -->
<g id="node1" class="node"><title>Node1</title>
<g id="a_node1"><a xlink:title=" ">
<polygon fill="#bfbfbf" stroke="black" points="229,-448.5 229,-467.5 317,-467.5 317,-448.5 229,-448.5"/>
<text text-anchor="middle" x="273" y="-455.5" font-family="Helvetica,sans-Serif" font-size="10.00">ANSIColors.hpp</text>
</a>
</g>
</g>
<!-- Node2 -->
<g id="node2" class="node"><title>Node2</title>
<g id="a_node2"><a xlink:href="../../d4/d55/PrintBest_8cpp.html" target="_top" xlink:title=" ">
<polygon fill="white" stroke="black" points="0,-392.5 0,-411.5 76,-411.5 76,-392.5 0,-392.5"/>
<text text-anchor="middle" x="38" y="-399.5" font-family="Helvetica,sans-Serif" font-size="10.00">PrintBest.cpp</text>
</a>
</g>
</g>
<!-- Node1&#45;&gt;Node2 -->
<g id="edge1" class="edge"><title>Node1&#45;&gt;Node2</title>
<path fill="none" stroke="midnightblue" d="M225.795,-446.153C181.393,-435.95 115.815,-420.881 75.0622,-411.516"/>
<polygon fill="midnightblue" stroke="midnightblue" points="225.234,-449.615 235.764,-448.444 226.801,-442.793 225.234,-449.615"/>
</g>
<!-- Node3 -->
<g id="node3" class="node"><title>Node3</title>
<g id="a_node3"><a xlink:href="../../d3/dd7/tuner_8cpp.html" target="_top" xlink:title=" ">
<polygon fill="white" stroke="black" points="283.5,-56.5 283.5,-75.5 340.5,-75.5 340.5,-56.5 283.5,-56.5"/>
<text text-anchor="middle" x="312" y="-63.5" font-family="Helvetica,sans-Serif" font-size="10.00">tuner.cpp</text>
</a>
</g>
</g>
<!-- Node1&#45;&gt;Node3 -->
<g id="edge2" class="edge"><title>Node1&#45;&gt;Node3</title>
<path fill="none" stroke="midnightblue" d="M219.507,-445.82C169.998,-431.97 104,-403.005 104,-347 104,-347 104,-347 104,-177 104,-146.902 101.186,-132.737 123,-112 145.858,-90.2715 236.169,-76.2757 283.192,-70.3096"/>
<polygon fill="midnightblue" stroke="midnightblue" points="218.915,-449.284 229.478,-448.471 220.713,-442.519 218.915,-449.284"/>
</g>
<!-- Node4 -->
<g id="node4" class="node"><title>Node4</title>
<g id="a_node4"><a xlink:href="../../dd/d14/ArgParser_8cpp.html" target="_top" xlink:title=" ">
<polygon fill="white" stroke="black" points="337.5,-392.5 337.5,-411.5 416.5,-411.5 416.5,-392.5 337.5,-392.5"/>
<text text-anchor="middle" x="377" y="-399.5" font-family="Helvetica,sans-Serif" font-size="10.00">ArgParser.cpp</text>
</a>
</g>
</g>
<!-- Node1&#45;&gt;Node4 -->
<g id="edge3" class="edge"><title>Node1&#45;&gt;Node4</title>
<path fill="none" stroke="midnightblue" d="M298.828,-443.59C318.057,-433.605 343.745,-420.267 360.332,-411.655"/>
<polygon fill="midnightblue" stroke="midnightblue" points="296.971,-440.61 289.709,-448.324 300.197,-446.822 296.971,-440.61"/>
</g>
<!-- Node5 -->
<g id="node5" class="node"><title>Node5</title>
<g id="a_node5"><a xlink:href="../../d9/d93/PrintCSV_8hpp.html" target="_top" xlink:title=" ">
<polygon fill="white" stroke="black" points="348.5,-336.5 348.5,-355.5 425.5,-355.5 425.5,-336.5 348.5,-336.5"/>
<text text-anchor="middle" x="387" y="-343.5" font-family="Helvetica,sans-Serif" font-size="10.00">PrintCSV.hpp</text>
</a>
</g>
</g>
<!-- Node1&#45;&gt;Node5 -->
<g id="edge4" class="edge"><title>Node1&#45;&gt;Node5</title>
<path fill="none" stroke="midnightblue" d="M286.033,-440.067C296.873,-426.446 313.054,-407.148 329,-392 343.599,-378.131 362.271,-364.24 374.427,-355.637"/>
<polygon fill="midnightblue" stroke="midnightblue" points="283.152,-438.068 279.737,-448.098 288.661,-442.387 283.152,-438.068"/>
</g>
<!-- Node6 -->
<g id="node6" class="node"><title>Node6</title>
<g id="a_node6"><a xlink:href="../../dc/d28/DroneLogLoader_8cpp.html" target="_top" xlink:title=" ">
<polygon fill="white" stroke="black" points="434.5,-392.5 434.5,-411.5 541.5,-411.5 541.5,-392.5 434.5,-392.5"/>
<text text-anchor="middle" x="488" y="-399.5" font-family="Helvetica,sans-Serif" font-size="10.00">DroneLogLoader.cpp</text>
</a>
</g>
</g>
<!-- Node1&#45;&gt;Node6 -->
<g id="edge5" class="edge"><title>Node1&#45;&gt;Node6</title>
<path fill="none" stroke="midnightblue" d="M316.96,-445.959C357.567,-435.76 417.043,-420.822 454.092,-411.516"/>
<polygon fill="midnightblue" stroke="midnightblue" points="315.914,-442.613 307.067,-448.444 317.619,-449.402 315.914,-442.613"/>
</g>
<!-- Node7 -->
<g id="node7" class="node"><title>Node7</title>
<g id="a_node7"><a xlink:href="../../d6/d9c/ODEResult_8hpp.html" target="_top" xlink:title=" ">
<polygon fill="white" stroke="black" points="195,-392.5 195,-411.5 281,-411.5 281,-392.5 195,-392.5"/>
<text text-anchor="middle" x="238" y="-399.5" font-family="Helvetica,sans-Serif" font-size="10.00">ODEResult.hpp</text>
</a>
</g>
</g>
<!-- Node1&#45;&gt;Node7 -->
<g id="edge6" class="edge"><title>Node1&#45;&gt;Node7</title>
<path fill="none" stroke="midnightblue" d="M261.7,-439.566C255.678,-430.275 248.531,-419.248 243.672,-411.751"/>
<polygon fill="midnightblue" stroke="midnightblue" points="258.844,-441.595 267.22,-448.083 264.719,-437.788 258.844,-441.595"/>
</g>
<!-- Node7&#45;&gt;Node5 -->
<g id="edge7" class="edge"><title>Node7&#45;&gt;Node5</title>
<path fill="none" stroke="midnightblue" d="M271.371,-388.906C299.384,-378.754 338.696,-364.506 363.501,-355.516"/>
<polygon fill="midnightblue" stroke="midnightblue" points="269.819,-385.746 261.609,-392.444 272.204,-392.327 269.819,-385.746"/>
</g>
<!-- Node8 -->
<g id="node8" class="node"><title>Node8</title>
<g id="a_node8"><a xlink:href="../../d2/dd3/DormandPrince_8hpp.html" target="_top" xlink:title=" ">
<polygon fill="white" stroke="black" points="132.5,-336.5 132.5,-355.5 235.5,-355.5 235.5,-336.5 132.5,-336.5"/>
<text text-anchor="middle" x="184" y="-343.5" font-family="Helvetica,sans-Serif" font-size="10.00">DormandPrince.hpp</text>
</a>
</g>
</g>
<!-- Node7&#45;&gt;Node8 -->
<g id="edge8" class="edge"><title>Node7&#45;&gt;Node8</title>
<path fill="none" stroke="midnightblue" d="M222.002,-385.002C212.433,-375.433 200.639,-363.639 192.751,-355.751"/>
<polygon fill="midnightblue" stroke="midnightblue" points="219.537,-387.487 229.083,-392.083 224.487,-382.537 219.537,-387.487"/>
</g>
<!-- Node30 -->
<g id="node30" class="node"><title>Node30</title>
<g id="a_node30"><a xlink:href="../../d9/d67/ODEEval_8hpp.html" target="_top" xlink:title=" ">
<polygon fill="white" stroke="black" points="253.5,-336.5 253.5,-355.5 330.5,-355.5 330.5,-336.5 253.5,-336.5"/>
<text text-anchor="middle" x="292" y="-343.5" font-family="Helvetica,sans-Serif" font-size="10.00">ODEEval.hpp</text>
</a>
</g>
</g>
<!-- Node7&#45;&gt;Node30 -->
<g id="edge44" class="edge"><title>Node7&#45;&gt;Node30</title>
<path fill="none" stroke="midnightblue" d="M253.998,-385.002C263.567,-375.433 275.361,-363.639 283.249,-355.751"/>
<polygon fill="midnightblue" stroke="midnightblue" points="251.513,-382.537 246.917,-392.083 256.463,-387.487 251.513,-382.537"/>
</g>
<!-- Node9 -->
<g id="node9" class="node"><title>Node9</title>
<g id="a_node9"><a xlink:href="../../df/d6e/Model_8hpp.html" target="_top" xlink:title=" ">
<polygon fill="white" stroke="black" points="297,-280.5 297,-299.5 359,-299.5 359,-280.5 297,-280.5"/>
<text text-anchor="middle" x="328" y="-287.5" font-family="Helvetica,sans-Serif" font-size="10.00">Model.hpp</text>
</a>
</g>
</g>
<!-- Node8&#45;&gt;Node9 -->
<g id="edge9" class="edge"><title>Node8&#45;&gt;Node9</title>
<path fill="none" stroke="midnightblue" d="M216.251,-332.906C243.324,-322.754 281.317,-308.506 305.29,-299.516"/>
<polygon fill="midnightblue" stroke="midnightblue" points="214.952,-329.655 206.817,-336.444 217.409,-336.209 214.952,-329.655"/>
</g>
<!-- Node10 -->
<g id="node10" class="node"><title>Node10</title>
<g id="a_node10"><a xlink:href="../../d0/d2e/Drone_8hpp.html" target="_top" xlink:title=" ">
<polygon fill="white" stroke="black" points="442,-224.5 442,-243.5 504,-243.5 504,-224.5 442,-224.5"/>
<text text-anchor="middle" x="473" y="-231.5" font-family="Helvetica,sans-Serif" font-size="10.00">Drone.hpp</text>
</a>
</g>
</g>
<!-- Node9&#45;&gt;Node10 -->
<g id="edge10" class="edge"><title>Node9&#45;&gt;Node10</title>
<path fill="none" stroke="midnightblue" d="M360.475,-276.906C387.736,-266.754 425.992,-252.506 450.132,-243.516"/>
<polygon fill="midnightblue" stroke="midnightblue" points="359.125,-273.674 350.976,-280.444 361.568,-280.233 359.125,-273.674"/>
</g>
<!-- Node11 -->
<g id="node11" class="node"><title>Node11</title>
<g id="a_node11"><a xlink:href="../../d4/de3/InputSignals_8hpp.html" target="_top" xlink:title=" ">
<polygon fill="white" stroke="black" points="508.5,-168.5 508.5,-187.5 597.5,-187.5 597.5,-168.5 508.5,-168.5"/>
<text text-anchor="middle" x="553" y="-175.5" font-family="Helvetica,sans-Serif" font-size="10.00">InputSignals.hpp</text>
</a>
</g>
</g>
<!-- Node10&#45;&gt;Node11 -->
<g id="edge11" class="edge"><title>Node10&#45;&gt;Node11</title>
<path fill="none" stroke="midnightblue" d="M494.301,-218.622C508.915,-208.757 527.827,-195.992 540.179,-187.655"/>
<polygon fill="midnightblue" stroke="midnightblue" points="492.184,-215.828 485.853,-224.324 496.1,-221.63 492.184,-215.828"/>
</g>
<!-- Node13 -->
<g id="node13" class="node"><title>Node13</title>
<g id="a_node13"><a xlink:href="../../df/dd2/Cost_8hpp.html" target="_top" xlink:title=" ">
<polygon fill="white" stroke="black" points="345,-168.5 345,-187.5 401,-187.5 401,-168.5 345,-168.5"/>
<text text-anchor="middle" x="373" y="-175.5" font-family="Helvetica,sans-Serif" font-size="10.00">Cost.hpp</text>
</a>
</g>
</g>
<!-- Node10&#45;&gt;Node13 -->
<g id="edge13" class="edge"><title>Node10&#45;&gt;Node13</title>
<path fill="none" stroke="midnightblue" d="M447.912,-219.453C429.451,-209.483 404.903,-196.228 389.027,-187.655"/>
<polygon fill="midnightblue" stroke="midnightblue" points="446.471,-222.652 456.933,-224.324 449.797,-216.493 446.471,-222.652"/>
</g>
<!-- Node15 -->
<g id="node15" class="node"><title>Node15</title>
<g id="a_node15"><a xlink:href="../../da/dc1/DisplayReference_8hpp.html" target="_top" xlink:title=" ">
<polygon fill="white" stroke="black" points="213.5,-168.5 213.5,-187.5 326.5,-187.5 326.5,-168.5 213.5,-168.5"/>
<text text-anchor="middle" x="270" y="-175.5" font-family="Helvetica,sans-Serif" font-size="10.00">DisplayReference.hpp</text>
</a>
</g>
</g>
<!-- Node10&#45;&gt;Node15 -->
<g id="edge16" class="edge"><title>Node10&#45;&gt;Node15</title>
<path fill="none" stroke="midnightblue" d="M431.903,-222.068C393.54,-211.863 337.083,-196.845 301.98,-187.507"/>
<polygon fill="midnightblue" stroke="midnightblue" points="431.162,-225.492 441.726,-224.681 432.962,-218.728 431.162,-225.492"/>
</g>
<!-- Node17 -->
<g id="node17" class="node"><title>Node17</title>
<g id="a_node17"><a xlink:href="../../da/de3/Drone_8cpp.html" target="_top" xlink:title=" ">
<polygon fill="white" stroke="black" points="719,-168.5 719,-187.5 781,-187.5 781,-168.5 719,-168.5"/>
<text text-anchor="middle" x="750" y="-175.5" font-family="Helvetica,sans-Serif" font-size="10.00">Drone.cpp</text>
</a>
</g>
</g>
<!-- Node10&#45;&gt;Node17 -->
<g id="edge19" class="edge"><title>Node10&#45;&gt;Node17</title>
<path fill="none" stroke="midnightblue" d="M514.18,-225.729C561.709,-217.218 642.176,-202.442 711,-188 713.584,-187.458 716.261,-186.878 718.945,-186.284"/>
<polygon fill="midnightblue" stroke="midnightblue" points="513.496,-222.296 504.267,-227.499 514.726,-229.187 513.496,-222.296"/>
</g>
<!-- Node18 -->
<g id="node18" class="node"><title>Node18</title>
<g id="a_node18"><a xlink:href="../../d1/de2/DronePlot_8hpp.html" target="_top" xlink:title=" ">
<polygon fill="white" stroke="black" points="622.5,-168.5 622.5,-187.5 701.5,-187.5 701.5,-168.5 622.5,-168.5"/>
<text text-anchor="middle" x="662" y="-175.5" font-family="Helvetica,sans-Serif" font-size="10.00">DronePlot.hpp</text>
</a>
</g>
</g>
<!-- Node10&#45;&gt;Node18 -->
<g id="edge20" class="edge"><title>Node10&#45;&gt;Node18</title>
<path fill="none" stroke="midnightblue" d="M513.013,-221.568C548.667,-211.381 600.038,-196.703 632.192,-187.516"/>
<polygon fill="midnightblue" stroke="midnightblue" points="511.601,-218.331 502.948,-224.444 513.524,-225.062 511.601,-218.331"/>
</g>
<!-- Node22 -->
<g id="node22" class="node"><title>Node22</title>
<g id="a_node22"><a xlink:href="../../dd/d2c/PyDrone_8hpp.html" target="_top" xlink:title=" ">
<polygon fill="white" stroke="black" points="989,-56.5 989,-75.5 1063,-75.5 1063,-56.5 989,-56.5"/>
<text text-anchor="middle" x="1026" y="-63.5" font-family="Helvetica,sans-Serif" font-size="10.00">PyDrone.hpp</text>
</a>
</g>
</g>
<!-- Node10&#45;&gt;Node22 -->
<g id="edge43" class="edge"><title>Node10&#45;&gt;Node22</title>
<path fill="none" stroke="midnightblue" d="M514.302,-231.027C575.607,-227.234 693.793,-216.586 790,-188 846.417,-171.237 857.626,-158.848 910,-132 947.183,-112.939 989.775,-88.3386 1011.54,-75.5601"/>
<polygon fill="midnightblue" stroke="midnightblue" points="514.025,-227.537 504.248,-231.618 514.437,-234.525 514.025,-227.537"/>
</g>
<!-- Node27 -->
<g id="node27" class="node"><title>Node27</title>
<g id="a_node27"><a xlink:href="../../dd/d45/PlotStepResponse_8cpp.html" target="_top" xlink:title=" ">
<polygon fill="white" stroke="black" points="355.5,-0.5 355.5,-19.5 472.5,-19.5 472.5,-0.5 355.5,-0.5"/>
<text text-anchor="middle" x="414" y="-7.5" font-family="Helvetica,sans-Serif" font-size="10.00">PlotStepResponse.cpp</text>
</a>
</g>
</g>
<!-- Node10&#45;&gt;Node27 -->
<g id="edge42" class="edge"><title>Node10&#45;&gt;Node27</title>
<path fill="none" stroke="midnightblue" d="M431.477,-231.539C377.49,-228.42 281.11,-218.644 205,-188 164.061,-171.517 143.606,-171.026 123,-132 74.5876,-40.3131 257.301,-18.0642 355.493,-12.6921"/>
<polygon fill="midnightblue" stroke="midnightblue" points="431.52,-235.046 441.69,-232.078 431.889,-228.056 431.52,-235.046"/>
</g>
<!-- Node29 -->
<g id="node29" class="node"><title>Node29</title>
<g id="a_node29"><a xlink:href="../../d9/d20/PlotStepResponse_8hpp.html" target="_top" xlink:title=" ">
<polygon fill="white" stroke="black" points="414.5,-112.5 414.5,-131.5 531.5,-131.5 531.5,-112.5 414.5,-112.5"/>
<text text-anchor="middle" x="473" y="-119.5" font-family="Helvetica,sans-Serif" font-size="10.00">PlotStepResponse.hpp</text>
</a>
</g>
</g>
<!-- Node10&#45;&gt;Node29 -->
<g id="edge38" class="edge"><title>Node10&#45;&gt;Node29</title>
<path fill="none" stroke="midnightblue" d="M473,-214.348C473,-190.254 473,-149.308 473,-131.591"/>
<polygon fill="midnightblue" stroke="midnightblue" points="469.5,-214.368 473,-224.368 476.5,-214.369 469.5,-214.368"/>
</g>
<!-- Node12 -->
<g id="node12" class="node"><title>Node12</title>
<g id="a_node12"><a xlink:href="../../d6/dba/plot-simulation_2main_8cpp.html" target="_top" xlink:title=" ">
<polygon fill="white" stroke="black" points="442,-56.5 442,-75.5 498,-75.5 498,-56.5 442,-56.5"/>
<text text-anchor="middle" x="470" y="-63.5" font-family="Helvetica,sans-Serif" font-size="10.00">main.cpp</text>
</a>
</g>
</g>
<!-- Node11&#45;&gt;Node12 -->
<g id="edge12" class="edge"><title>Node11&#45;&gt;Node12</title>
<path fill="none" stroke="midnightblue" d="M553.41,-157.898C552.824,-144.073 550.135,-125.52 541,-112 529.398,-94.8293 508.822,-82.8618 492.797,-75.6083"/>
<polygon fill="midnightblue" stroke="midnightblue" points="549.913,-158.216 553.503,-168.184 556.913,-158.153 549.913,-158.216"/>
</g>
<!-- Node13&#45;&gt;Node3 -->
<g id="edge15" class="edge"><title>Node13&#45;&gt;Node3</title>
<path fill="none" stroke="midnightblue" d="M355.03,-161.466C346.686,-153.414 337.252,-142.978 331,-132 320.528,-113.61 315.389,-88.946 313.261,-75.9225"/>
<polygon fill="midnightblue" stroke="midnightblue" points="352.83,-164.198 362.557,-168.397 357.571,-159.048 352.83,-164.198"/>
</g>
<!-- Node14 -->
<g id="node14" class="node"><title>Node14</title>
<g id="a_node14"><a xlink:href="../../de/de2/Cost_8cpp.html" target="_top" xlink:title=" ">
<polygon fill="white" stroke="black" points="340,-112.5 340,-131.5 396,-131.5 396,-112.5 340,-112.5"/>
<text text-anchor="middle" x="368" y="-119.5" font-family="Helvetica,sans-Serif" font-size="10.00">Cost.cpp</text>
</a>
</g>
</g>
<!-- Node13&#45;&gt;Node14 -->
<g id="edge14" class="edge"><title>Node13&#45;&gt;Node14</title>
<path fill="none" stroke="midnightblue" d="M371.25,-158.101C370.42,-149.136 369.468,-138.858 368.81,-131.751"/>
<polygon fill="midnightblue" stroke="midnightblue" points="367.767,-158.448 372.174,-168.083 374.737,-157.803 367.767,-158.448"/>
</g>
<!-- Node15&#45;&gt;Node3 -->
<g id="edge18" class="edge"><title>Node15&#45;&gt;Node3</title>
<path fill="none" stroke="midnightblue" d="M276.873,-158.998C286.038,-134.997 301.894,-93.4683 308.72,-75.5914"/>
<polygon fill="midnightblue" stroke="midnightblue" points="273.593,-157.778 273.296,-168.368 280.133,-160.275 273.593,-157.778"/>
</g>
<!-- Node16 -->
<g id="node16" class="node"><title>Node16</title>
<g id="a_node16"><a xlink:href="../../db/de7/DisplayReference_8cpp.html" target="_top" xlink:title=" ">
<polygon fill="white" stroke="black" points="132.5,-112.5 132.5,-131.5 245.5,-131.5 245.5,-112.5 132.5,-112.5"/>
<text text-anchor="middle" x="189" y="-119.5" font-family="Helvetica,sans-Serif" font-size="10.00">DisplayReference.cpp</text>
</a>
</g>
</g>
<!-- Node15&#45;&gt;Node16 -->
<g id="edge17" class="edge"><title>Node15&#45;&gt;Node16</title>
<path fill="none" stroke="midnightblue" d="M248.433,-162.622C233.636,-152.757 214.488,-139.992 201.982,-131.655"/>
<polygon fill="midnightblue" stroke="midnightblue" points="246.724,-165.689 256.986,-168.324 250.607,-159.865 246.724,-165.689"/>
</g>
<!-- Node19 -->
<g id="node19" class="node"><title>Node19</title>
<g id="a_node19"><a xlink:href="../../dc/df3/Plot_8hpp.html" target="_top" xlink:title=" ">
<polygon fill="white" stroke="black" points="588.5,-112.5 588.5,-131.5 641.5,-131.5 641.5,-112.5 588.5,-112.5"/>
<text text-anchor="middle" x="615" y="-119.5" font-family="Helvetica,sans-Serif" font-size="10.00">Plot.hpp</text>
</a>
</g>
</g>
<!-- Node18&#45;&gt;Node19 -->
<g id="edge21" class="edge"><title>Node18&#45;&gt;Node19</title>
<path fill="none" stroke="midnightblue" d="M647.579,-160.431C639.342,-150.967 629.346,-139.483 622.617,-131.751"/>
<polygon fill="midnightblue" stroke="midnightblue" points="645.034,-162.838 654.239,-168.083 650.314,-158.242 645.034,-162.838"/>
</g>
<!-- Node21 -->
<g id="node21" class="node"><title>Node21</title>
<g id="a_node21"><a xlink:href="../../da/d2d/Plot_8cpp.html" target="_top" xlink:title=" ">
<polygon fill="white" stroke="black" points="590.5,-56.5 590.5,-75.5 643.5,-75.5 643.5,-56.5 590.5,-56.5"/>
<text text-anchor="middle" x="617" y="-63.5" font-family="Helvetica,sans-Serif" font-size="10.00">Plot.cpp</text>
</a>
</g>
</g>
<!-- Node18&#45;&gt;Node21 -->
<g id="edge36" class="edge"><title>Node18&#45;&gt;Node21</title>
<path fill="none" stroke="midnightblue" d="M661.162,-157.895C660.012,-144.571 657.313,-126.63 651,-112 644.948,-97.9748 633.647,-84.3326 625.741,-75.8147"/>
<polygon fill="midnightblue" stroke="midnightblue" points="657.691,-158.462 661.825,-168.217 664.677,-158.013 657.691,-158.462"/>
</g>
<!-- Node18&#45;&gt;Node22 -->
<g id="edge37" class="edge"><title>Node18&#45;&gt;Node22</title>
<path fill="none" stroke="midnightblue" d="M711.579,-167.354C763.358,-157.088 840.999,-141.096 870,-132 921.512,-115.844 979.565,-89.3329 1008.15,-75.6987"/>
<polygon fill="midnightblue" stroke="midnightblue" points="710.722,-163.956 701.59,-169.328 712.079,-170.823 710.722,-163.956"/>
</g>
<!-- Node25 -->
<g id="node25" class="node"><title>Node25</title>
<g id="a_node25"><a xlink:href="../../d8/d0a/PlotHelpers_8hpp.html" target="_top" xlink:title=" ">
<polygon fill="white" stroke="black" points="775,-112.5 775,-131.5 861,-131.5 861,-112.5 775,-112.5"/>
<text text-anchor="middle" x="818" y="-119.5" font-family="Helvetica,sans-Serif" font-size="10.00">PlotHelpers.hpp</text>
</a>
</g>
</g>
<!-- Node18&#45;&gt;Node25 -->
<g id="edge29" class="edge"><title>Node18&#45;&gt;Node25</title>
<path fill="none" stroke="midnightblue" d="M696.17,-165.172C725.544,-155.004 767.198,-140.585 793.397,-131.516"/>
<polygon fill="midnightblue" stroke="midnightblue" points="695.024,-161.865 686.719,-168.444 697.313,-168.48 695.024,-161.865"/>
</g>
<!-- Node19&#45;&gt;Node3 -->
<g id="edge24" class="edge"><title>Node19&#45;&gt;Node3</title>
<path fill="none" stroke="midnightblue" d="M578.411,-114.479C517.357,-103.598 395.961,-81.9634 340.652,-72.1063"/>
<polygon fill="midnightblue" stroke="midnightblue" points="577.917,-117.946 588.376,-116.255 579.146,-111.055 577.917,-117.946"/>
</g>
<!-- Node19&#45;&gt;Node12 -->
<g id="edge23" class="edge"><title>Node19&#45;&gt;Node12</title>
<path fill="none" stroke="midnightblue" d="M582.525,-108.906C555.264,-98.7536 517.008,-84.5063 492.868,-75.5164"/>
<polygon fill="midnightblue" stroke="midnightblue" points="581.432,-112.233 592.024,-112.444 583.875,-105.674 581.432,-112.233"/>
</g>
<!-- Node20 -->
<g id="node20" class="node"><title>Node20</title>
<g id="a_node20"><a xlink:href="../../d3/d39/plot-log_2main_8cpp.html" target="_top" xlink:title=" ">
<polygon fill="white" stroke="black" points="516,-56.5 516,-75.5 572,-75.5 572,-56.5 516,-56.5"/>
<text text-anchor="middle" x="544" y="-63.5" font-family="Helvetica,sans-Serif" font-size="10.00">main.cpp</text>
</a>
</g>
</g>
<!-- Node19&#45;&gt;Node20 -->
<g id="edge22" class="edge"><title>Node19&#45;&gt;Node20</title>
<path fill="none" stroke="midnightblue" d="M595.41,-106.101C582.632,-96.3824 566.387,-84.0269 555.615,-75.8339"/>
<polygon fill="midnightblue" stroke="midnightblue" points="593.514,-109.056 603.593,-112.324 597.752,-103.484 593.514,-109.056"/>
</g>
<!-- Node19&#45;&gt;Node21 -->
<g id="edge25" class="edge"><title>Node19&#45;&gt;Node21</title>
<path fill="none" stroke="midnightblue" d="M615.711,-101.805C616.04,-92.9102 616.416,-82.7798 616.676,-75.7511"/>
<polygon fill="midnightblue" stroke="midnightblue" points="612.203,-101.96 615.33,-112.083 619.198,-102.219 612.203,-101.96"/>
</g>
<!-- Node19&#45;&gt;Node22 -->
<g id="edge26" class="edge"><title>Node19&#45;&gt;Node22</title>
<path fill="none" stroke="midnightblue" d="M651.951,-116.145C729.932,-105.899 910.561,-82.1672 988.779,-71.8904"/>
<polygon fill="midnightblue" stroke="midnightblue" points="651.109,-112.726 641.65,-117.499 652.021,-119.666 651.109,-112.726"/>
</g>
<!-- Node23 -->
<g id="node23" class="node"><title>Node23</title>
<g id="a_node23"><a xlink:href="../../dc/ddb/py-plot-simulation_2main_8cpp.html" target="_top" xlink:title=" ">
<polygon fill="white" stroke="black" points="933,-0.5 933,-19.5 989,-19.5 989,-0.5 933,-0.5"/>
<text text-anchor="middle" x="961" y="-7.5" font-family="Helvetica,sans-Serif" font-size="10.00">main.cpp</text>
</a>
</g>
</g>
<!-- Node22&#45;&gt;Node23 -->
<g id="edge27" class="edge"><title>Node22&#45;&gt;Node23</title>
<path fill="none" stroke="midnightblue" d="M1007.73,-49.8197C996.082,-40.1452 981.401,-27.9481 971.633,-19.8339"/>
<polygon fill="midnightblue" stroke="midnightblue" points="1005.63,-52.6259 1015.56,-56.324 1010.1,-47.2416 1005.63,-52.6259"/>
</g>
<!-- Node24 -->
<g id="node24" class="node"><title>Node24</title>
<g id="a_node24"><a xlink:href="../../d5/d91/PyDrone_8module_8cpp.html" target="_top" xlink:title=" ">
<polygon fill="white" stroke="black" points="1007,-0.5 1007,-19.5 1115,-19.5 1115,-0.5 1007,-0.5"/>
<text text-anchor="middle" x="1061" y="-7.5" font-family="Helvetica,sans-Serif" font-size="10.00">PyDrone.module.cpp</text>
</a>
</g>
</g>
<!-- Node22&#45;&gt;Node24 -->
<g id="edge28" class="edge"><title>Node22&#45;&gt;Node24</title>
<path fill="none" stroke="midnightblue" d="M1037.3,-47.5656C1043.32,-38.2747 1050.47,-27.2484 1055.33,-19.7511"/>
<polygon fill="midnightblue" stroke="midnightblue" points="1034.28,-45.7878 1031.78,-56.083 1040.16,-49.5951 1034.28,-45.7878"/>
</g>
<!-- Node25&#45;&gt;Node21 -->
<g id="edge33" class="edge"><title>Node25&#45;&gt;Node21</title>
<path fill="none" stroke="midnightblue" d="M776.448,-109.837C736.551,-99.1182 677.485,-83.2496 643.565,-74.1368"/>
<polygon fill="midnightblue" stroke="midnightblue" points="775.585,-113.229 786.151,-112.444 777.402,-106.469 775.585,-113.229"/>
</g>
<!-- Node25&#45;&gt;Node22 -->
<g id="edge35" class="edge"><title>Node25&#45;&gt;Node22</title>
<path fill="none" stroke="midnightblue" d="M860.778,-109.894C900.058,-99.6966 957.429,-84.802 993.196,-75.5164"/>
<polygon fill="midnightblue" stroke="midnightblue" points="859.758,-106.543 850.958,-112.444 861.517,-113.318 859.758,-106.543"/>
</g>
<!-- Node25&#45;&gt;Node23 -->
<g id="edge30" class="edge"><title>Node25&#45;&gt;Node23</title>
<path fill="none" stroke="midnightblue" d="M870.999,-113.083C895.62,-106.848 923.477,-95.7435 942,-76 956.802,-60.2237 960.141,-33.5467 960.849,-19.7889"/>
<polygon fill="midnightblue" stroke="midnightblue" points="869.99,-109.724 861.039,-115.392 871.571,-116.543 869.99,-109.724"/>
</g>
<!-- Node26 -->
<g id="node26" class="node"><title>Node26</title>
<g id="a_node26"><a xlink:href="../../d6/db2/StepResponseAnalyzerPlotter_8hpp.html" target="_top" xlink:title=" ">
<polygon fill="white" stroke="black" points="661.5,-56.5 661.5,-75.5 828.5,-75.5 828.5,-56.5 661.5,-56.5"/>
<text text-anchor="middle" x="745" y="-63.5" font-family="Helvetica,sans-Serif" font-size="10.00">StepResponseAnalyzerPlotter.hpp</text>
</a>
</g>
</g>
<!-- Node25&#45;&gt;Node26 -->
<g id="edge31" class="edge"><title>Node25&#45;&gt;Node26</title>
<path fill="none" stroke="midnightblue" d="M797.858,-106.101C784.721,-96.3824 768.018,-84.0269 756.942,-75.8339"/>
<polygon fill="midnightblue" stroke="midnightblue" points="796.15,-109.191 806.271,-112.324 800.313,-103.563 796.15,-109.191"/>
</g>
<!-- Node28 -->
<g id="node28" class="node"><title>Node28</title>
<g id="a_node28"><a xlink:href="../../d9/d25/PlotHelpers_8cpp.html" target="_top" xlink:title=" ">
<polygon fill="white" stroke="black" points="847,-56.5 847,-75.5 933,-75.5 933,-56.5 847,-56.5"/>
<text text-anchor="middle" x="890" y="-63.5" font-family="Helvetica,sans-Serif" font-size="10.00">PlotHelpers.cpp</text>
</a>
</g>
</g>
<!-- Node25&#45;&gt;Node28 -->
<g id="edge34" class="edge"><title>Node25&#45;&gt;Node28</title>
<path fill="none" stroke="midnightblue" d="M837.866,-106.101C850.823,-96.3824 867.297,-84.0269 878.221,-75.8339"/>
<polygon fill="midnightblue" stroke="midnightblue" points="835.468,-103.524 829.568,-112.324 839.668,-109.124 835.468,-103.524"/>
</g>
<!-- Node26&#45;&gt;Node27 -->
<g id="edge32" class="edge"><title>Node26&#45;&gt;Node27</title>
<path fill="none" stroke="midnightblue" d="M682.421,-54.7907C619.876,-44.587 524.812,-29.078 466.203,-19.5164"/>
<polygon fill="midnightblue" stroke="midnightblue" points="682.119,-58.2877 692.552,-56.4435 683.246,-51.379 682.119,-58.2877"/>
</g>
<!-- Node29&#45;&gt;Node3 -->
<g id="edge40" class="edge"><title>Node29&#45;&gt;Node3</title>
<path fill="none" stroke="midnightblue" d="M437.735,-109.172C407.419,-99.0039 364.43,-84.5852 337.392,-75.5164"/>
<polygon fill="midnightblue" stroke="midnightblue" points="436.895,-112.582 447.489,-112.444 439.121,-105.945 436.895,-112.582"/>
</g>
<!-- Node29&#45;&gt;Node12 -->
<g id="edge39" class="edge"><title>Node29&#45;&gt;Node12</title>
<path fill="none" stroke="midnightblue" d="M471.934,-101.805C471.439,-92.9102 470.877,-82.7798 470.486,-75.7511"/>
<polygon fill="midnightblue" stroke="midnightblue" points="468.455,-102.293 472.505,-112.083 475.444,-101.904 468.455,-102.293"/>
</g>
<!-- Node29&#45;&gt;Node27 -->
<g id="edge41" class="edge"><title>Node29&#45;&gt;Node27</title>
<path fill="none" stroke="midnightblue" d="M455.666,-105.07C447.786,-97.0192 438.922,-86.7001 433,-76 422.752,-57.4844 417.522,-32.8713 415.32,-19.8892"/>
<polygon fill="midnightblue" stroke="midnightblue" points="453.47,-107.818 463.073,-112.296 458.359,-102.807 453.47,-107.818"/>
</g>
</g>
</svg>
