<?xml version="1.0" encoding="UTF-8" standalone="no"?>
<!DOCTYPE svg PUBLIC "-//W3C//DTD SVG 1.1//EN"
 "http://www.w3.org/Graphics/SVG/1.1/DTD/svg11.dtd">
<!-- Generated by graphviz version 2.38.0 (20140413.2041)
 -->
<!-- Title: MCU::GenericVPotRing&lt; Callback &gt; Pages: 1 -->
<svg width="598pt" height="1115pt"
 viewBox="0.00 0.00 597.50 1115.00" xmlns="http://www.w3.org/2000/svg" xmlns:xlink="http://www.w3.org/1999/xlink">
<g id="graph0" class="graph" transform="scale(1 1) rotate(0) translate(4 1111)">
<title>MCU::GenericVPotRing&lt; Callback &gt;</title>
<polygon fill="white" stroke="none" points="-4,4 -4,-1111 593.5,-1111 593.5,4 -4,4"/>
<!-- Node1 -->
<g id="node1" class="node"><title>Node1</title>
<g id="a_node1"><a xlink:title="A class for MIDI input elements that represent Mackie Control Universal V&#45;Pots.">
<polygon fill="#bfbfbf" stroke="black" points="348,-0.5 348,-68.5 470,-68.5 470,-0.5 348,-0.5"/>
<text text-anchor="start" x="356" y="-56.5" font-family="Helvetica,sans-Serif" font-size="10.00">MCU::GenericVPotRing</text>
<text text-anchor="middle" x="409" y="-45.5" font-family="Helvetica,sans-Serif" font-size="10.00">&lt; Callback &gt;</text>
<polyline fill="none" stroke="black" points="348,-38.5 470,-38.5 "/>
<text text-anchor="middle" x="409" y="-26.5" font-family="Helvetica,sans-Serif" font-size="10.00"> </text>
<polyline fill="none" stroke="black" points="348,-19.5 470,-19.5 "/>
<text text-anchor="start" x="356" y="-7.5" font-family="Helvetica,sans-Serif" font-size="10.00">+ GenericVPotRing()</text>
</a>
</g>
</g>
<!-- Node2 -->
<g id="node2" class="node"><title>Node2</title>
<g id="a_node2"><a xlink:href="../../db/dac/classMCU_1_1VPotRing__Base.html" target="_top" xlink:title=" ">
<polygon fill="white" stroke="black" points="351,-172.5 351,-317.5 467,-317.5 467,-172.5 351,-172.5"/>
<text text-anchor="start" x="359" y="-305.5" font-family="Helvetica,sans-Serif" font-size="10.00">MCU::VPotRing_Base</text>
<text text-anchor="middle" x="409" y="-294.5" font-family="Helvetica,sans-Serif" font-size="10.00">&lt; 1, Callback &gt;</text>
<polyline fill="none" stroke="black" points="351,-287.5 467,-287.5 "/>
<text text-anchor="middle" x="409" y="-275.5" font-family="Helvetica,sans-Serif" font-size="10.00"> </text>
<polyline fill="none" stroke="black" points="351,-268.5 467,-268.5 "/>
<text text-anchor="start" x="359" y="-256.5" font-family="Helvetica,sans-Serif" font-size="10.00">+ begin()</text>
<text text-anchor="start" x="359" y="-245.5" font-family="Helvetica,sans-Serif" font-size="10.00">+ reset()</text>
<text text-anchor="start" x="359" y="-234.5" font-family="Helvetica,sans-Serif" font-size="10.00"># VPotRing_Base()</text>
<text text-anchor="start" x="359" y="-223.5" font-family="Helvetica,sans-Serif" font-size="10.00"># sanitizeValue()</text>
<text text-anchor="start" x="359" y="-212.5" font-family="Helvetica,sans-Serif" font-size="10.00">&#45; updateImpl()</text>
<text text-anchor="start" x="359" y="-201.5" font-family="Helvetica,sans-Serif" font-size="10.00">&#45; getValue()</text>
<text text-anchor="start" x="359" y="-190.5" font-family="Helvetica,sans-Serif" font-size="10.00">&#45; getSelection()</text>
<text text-anchor="start" x="359" y="-179.5" font-family="Helvetica,sans-Serif" font-size="10.00">&#45; getBankIndex()</text>
</a>
</g>
</g>
<!-- Node2&#45;&gt;Node1 -->
<g id="edge1" class="edge"><title>Node2&#45;&gt;Node1</title>
<path fill="none" stroke="midnightblue" d="M409,-162.21C409,-129.504 409,-93.7008 409,-68.5213"/>
<polygon fill="none" stroke="midnightblue" points="405.5,-162.246 409,-172.246 412.5,-162.246 405.5,-162.246"/>
</g>
<!-- Node3 -->
<g id="node3" class="node"><title>Node3</title>
<g id="a_node3"><a xlink:href="../../d3/d96/classMIDIInputElementCC.html" target="_top" xlink:title="Class for objects that listen for incoming MIDI Controller Change events.">
<polygon fill="white" stroke="black" points="112,-459 112,-582 244,-582 244,-459 112,-459"/>
<text text-anchor="middle" x="178" y="-570" font-family="Helvetica,sans-Serif" font-size="10.00">MIDIInputElementCC</text>
<polyline fill="none" stroke="black" points="112,-563 244,-563 "/>
<text text-anchor="middle" x="178" y="-551" font-family="Helvetica,sans-Serif" font-size="10.00"> </text>
<polyline fill="none" stroke="black" points="112,-544 244,-544 "/>
<text text-anchor="start" x="120" y="-532" font-family="Helvetica,sans-Serif" font-size="10.00">+ MIDIInputElementCC()</text>
<text text-anchor="start" x="120" y="-521" font-family="Helvetica,sans-Serif" font-size="10.00">+ ~MIDIInputElementCC()</text>
<text text-anchor="start" x="120" y="-510" font-family="Helvetica,sans-Serif" font-size="10.00">+ beginAll()</text>
<text text-anchor="start" x="120" y="-499" font-family="Helvetica,sans-Serif" font-size="10.00">+ updateAll()</text>
<text text-anchor="start" x="120" y="-488" font-family="Helvetica,sans-Serif" font-size="10.00">+ resetAll()</text>
<text text-anchor="start" x="120" y="-477" font-family="Helvetica,sans-Serif" font-size="10.00">+ updateAllWith()</text>
<text text-anchor="start" x="120" y="-466" font-family="Helvetica,sans-Serif" font-size="10.00">&#45; moveDown()</text>
</a>
</g>
</g>
<!-- Node3&#45;&gt;Node2 -->
<g id="edge2" class="edge"><title>Node3&#45;&gt;Node2</title>
<path fill="none" stroke="midnightblue" d="M243.676,-451.261C272.291,-421.39 300.765,-391.423 307,-384 324.629,-363.013 342.761,-339.288 358.757,-317.503"/>
<polygon fill="none" stroke="midnightblue" points="240.805,-449.198 236.412,-458.839 245.858,-454.042 240.805,-449.198"/>
</g>
<!-- Node6 -->
<g id="node6" class="node"><title>Node6</title>
<g id="a_node6"><a xlink:href="../../d4/d23/classDoublyLinkable.html" target="_top" xlink:title=" ">
<polygon fill="white" stroke="black" points="0,-211 0,-279 136,-279 136,-211 0,-211"/>
<text text-anchor="start" x="8" y="-267" font-family="Helvetica,sans-Serif" font-size="10.00">DoublyLinkable&lt; MIDIInput</text>
<text text-anchor="middle" x="68" y="-256" font-family="Helvetica,sans-Serif" font-size="10.00">ElementCC &gt;</text>
<polyline fill="none" stroke="black" points="0,-249 136,-249 "/>
<text text-anchor="middle" x="68" y="-237" font-family="Helvetica,sans-Serif" font-size="10.00"> </text>
<polyline fill="none" stroke="black" points="0,-230 136,-230 "/>
<text text-anchor="start" x="8" y="-218" font-family="Helvetica,sans-Serif" font-size="10.00"># ~DoublyLinkable()</text>
</a>
</g>
</g>
<!-- Node3&#45;&gt;Node6 -->
<g id="edge6" class="edge"><title>Node3&#45;&gt;Node6</title>
<path fill="none" stroke="#404040" d="M111.976,-462.82C101.734,-451.01 92.4343,-437.892 86,-424 66.531,-381.966 63.6373,-328.495 64.6138,-291.18"/>
<polygon fill="none" stroke="#404040" points="64.6139,-291.175 60.8474,-285.026 65.075,-279.184 68.8415,-285.333 64.6139,-291.175"/>
<text text-anchor="middle" x="107.5" y="-416" font-family="Helvetica,sans-Serif" font-size="10.00"> #next</text>
<text text-anchor="middle" x="107.5" y="-405" font-family="Helvetica,sans-Serif" font-size="10.00">#previous</text>
</g>
<!-- Node7 -->
<g id="node7" class="node"><title>Node7</title>
<g id="a_node7"><a xlink:href="../../dd/d16/classDoublyLinkedList.html" target="_top" xlink:title=" ">
<polygon fill="white" stroke="black" points="154,-106.5 154,-383.5 298,-383.5 298,-106.5 154,-106.5"/>
<text text-anchor="start" x="162" y="-371.5" font-family="Helvetica,sans-Serif" font-size="10.00">DoublyLinkedList&lt; MIDIInput</text>
<text text-anchor="middle" x="226" y="-360.5" font-family="Helvetica,sans-Serif" font-size="10.00">ElementCC &gt;</text>
<polyline fill="none" stroke="black" points="154,-353.5 298,-353.5 "/>
<text text-anchor="middle" x="226" y="-341.5" font-family="Helvetica,sans-Serif" font-size="10.00"> </text>
<polyline fill="none" stroke="black" points="154,-334.5 298,-334.5 "/>
<text text-anchor="start" x="162" y="-322.5" font-family="Helvetica,sans-Serif" font-size="10.00">+ append()</text>
<text text-anchor="start" x="162" y="-311.5" font-family="Helvetica,sans-Serif" font-size="10.00">+ append()</text>
<text text-anchor="start" x="162" y="-300.5" font-family="Helvetica,sans-Serif" font-size="10.00">+ insertBefore()</text>
<text text-anchor="start" x="162" y="-289.5" font-family="Helvetica,sans-Serif" font-size="10.00">+ insertBefore()</text>
<text text-anchor="start" x="162" y="-278.5" font-family="Helvetica,sans-Serif" font-size="10.00">+ insertSorted()</text>
<text text-anchor="start" x="162" y="-267.5" font-family="Helvetica,sans-Serif" font-size="10.00">+ insertSorted()</text>
<text text-anchor="start" x="162" y="-256.5" font-family="Helvetica,sans-Serif" font-size="10.00">+ remove()</text>
<text text-anchor="start" x="162" y="-245.5" font-family="Helvetica,sans-Serif" font-size="10.00">+ remove()</text>
<text text-anchor="start" x="162" y="-234.5" font-family="Helvetica,sans-Serif" font-size="10.00">+ moveDown()</text>
<text text-anchor="start" x="162" y="-223.5" font-family="Helvetica,sans-Serif" font-size="10.00">+ couldContain()</text>
<text text-anchor="start" x="162" y="-212.5" font-family="Helvetica,sans-Serif" font-size="10.00">+ begin()</text>
<text text-anchor="start" x="162" y="-201.5" font-family="Helvetica,sans-Serif" font-size="10.00">+ begin()</text>
<text text-anchor="start" x="162" y="-190.5" font-family="Helvetica,sans-Serif" font-size="10.00">+ end()</text>
<text text-anchor="start" x="162" y="-179.5" font-family="Helvetica,sans-Serif" font-size="10.00">+ end()</text>
<text text-anchor="start" x="162" y="-168.5" font-family="Helvetica,sans-Serif" font-size="10.00">+ rbegin()</text>
<text text-anchor="start" x="162" y="-157.5" font-family="Helvetica,sans-Serif" font-size="10.00">+ rbegin()</text>
<text text-anchor="start" x="162" y="-146.5" font-family="Helvetica,sans-Serif" font-size="10.00">+ rend()</text>
<text text-anchor="start" x="162" y="-135.5" font-family="Helvetica,sans-Serif" font-size="10.00">+ rend()</text>
<text text-anchor="start" x="162" y="-124.5" font-family="Helvetica,sans-Serif" font-size="10.00">+ getFirst()</text>
<text text-anchor="start" x="162" y="-113.5" font-family="Helvetica,sans-Serif" font-size="10.00">+ getLast()</text>
</a>
</g>
</g>
<!-- Node3&#45;&gt;Node7 -->
<g id="edge8" class="edge"><title>Node3&#45;&gt;Node7</title>
<path fill="none" stroke="#404040" d="M175.809,-458.883C175.472,-447.303 175.177,-435.278 175,-424 174.846,-414.223 173.462,-411.656 175,-402 175.346,-399.826 175.718,-397.641 176.114,-395.447"/>
<polygon fill="none" stroke="#404040" points="176.118,-395.427 173.357,-388.765 178.445,-383.655 181.205,-390.317 176.118,-395.427"/>
<text text-anchor="middle" x="186" y="-416" font-family="Helvetica,sans-Serif" font-size="10.00"> &#45;last</text>
<text text-anchor="middle" x="186" y="-405" font-family="Helvetica,sans-Serif" font-size="10.00">&#45;first</text>
</g>
<!-- Node4 -->
<g id="node4" class="node"><title>Node4</title>
<g id="a_node4"><a xlink:href="../../d9/db1/classMIDIInputElement.html" target="_top" xlink:title="A class for objects that listen for incoming MIDI events.">
<polygon fill="white" stroke="black" points="119.5,-636.5 119.5,-792.5 236.5,-792.5 236.5,-636.5 119.5,-636.5"/>
<text text-anchor="middle" x="178" y="-780.5" font-family="Helvetica,sans-Serif" font-size="10.00">MIDIInputElement</text>
<polyline fill="none" stroke="black" points="119.5,-773.5 236.5,-773.5 "/>
<text text-anchor="middle" x="178" y="-761.5" font-family="Helvetica,sans-Serif" font-size="10.00"> </text>
<polyline fill="none" stroke="black" points="119.5,-754.5 236.5,-754.5 "/>
<text text-anchor="start" x="127.5" y="-742.5" font-family="Helvetica,sans-Serif" font-size="10.00">+ ~MIDIInputElement()</text>
<text text-anchor="start" x="127.5" y="-731.5" font-family="Helvetica,sans-Serif" font-size="10.00">+ begin()</text>
<text text-anchor="start" x="127.5" y="-720.5" font-family="Helvetica,sans-Serif" font-size="10.00">+ reset()</text>
<text text-anchor="start" x="127.5" y="-709.5" font-family="Helvetica,sans-Serif" font-size="10.00">+ update()</text>
<text text-anchor="start" x="127.5" y="-698.5" font-family="Helvetica,sans-Serif" font-size="10.00">+ updateWith()</text>
<text text-anchor="start" x="127.5" y="-687.5" font-family="Helvetica,sans-Serif" font-size="10.00"># MIDIInputElement()</text>
<text text-anchor="start" x="127.5" y="-676.5" font-family="Helvetica,sans-Serif" font-size="10.00"># MIDIInputElement()</text>
<text text-anchor="start" x="127.5" y="-665.5" font-family="Helvetica,sans-Serif" font-size="10.00">&#45; updateImpl()</text>
<text text-anchor="start" x="127.5" y="-654.5" font-family="Helvetica,sans-Serif" font-size="10.00">&#45; getTarget()</text>
<text text-anchor="start" x="127.5" y="-643.5" font-family="Helvetica,sans-Serif" font-size="10.00">&#45; match()</text>
</a>
</g>
</g>
<!-- Node4&#45;&gt;Node3 -->
<g id="edge3" class="edge"><title>Node4&#45;&gt;Node3</title>
<path fill="none" stroke="midnightblue" d="M178,-626.017C178,-611.167 178,-596.043 178,-582.082"/>
<polygon fill="none" stroke="midnightblue" points="174.5,-626.236 178,-636.236 181.5,-626.236 174.5,-626.236"/>
</g>
<!-- Node5 -->
<g id="node5" class="node"><title>Node5</title>
<g id="a_node5"><a xlink:href="../../d3/d10/classMIDICNChannelAddress.html" target="_top" xlink:title="A type&#45;safe utility class for saving a MIDI address consisting of a 7&#45;bit address,...">
<polygon fill="white" stroke="black" points="108,-840.5 108,-1106.5 248,-1106.5 248,-840.5 108,-840.5"/>
<text text-anchor="middle" x="178" y="-1094.5" font-family="Helvetica,sans-Serif" font-size="10.00">MIDICNChannelAddress</text>
<polyline fill="none" stroke="black" points="108,-1087.5 248,-1087.5 "/>
<text text-anchor="start" x="116" y="-1075.5" font-family="Helvetica,sans-Serif" font-size="10.00">&#45; addresses</text>
<polyline fill="none" stroke="black" points="108,-1068.5 248,-1068.5 "/>
<text text-anchor="start" x="116" y="-1056.5" font-family="Helvetica,sans-Serif" font-size="10.00">+ MIDICNChannelAddress()</text>
<text text-anchor="start" x="116" y="-1045.5" font-family="Helvetica,sans-Serif" font-size="10.00">+ MIDICNChannelAddress()</text>
<text text-anchor="start" x="116" y="-1034.5" font-family="Helvetica,sans-Serif" font-size="10.00">+ MIDICNChannelAddress()</text>
<text text-anchor="start" x="116" y="-1023.5" font-family="Helvetica,sans-Serif" font-size="10.00">+ MIDICNChannelAddress()</text>
<text text-anchor="start" x="116" y="-1012.5" font-family="Helvetica,sans-Serif" font-size="10.00">+ MIDICNChannelAddress()</text>
<text text-anchor="start" x="116" y="-1001.5" font-family="Helvetica,sans-Serif" font-size="10.00">+ operator+=()</text>
<text text-anchor="start" x="116" y="-990.5" font-family="Helvetica,sans-Serif" font-size="10.00">+ operator&#45;=()</text>
<text text-anchor="start" x="116" y="-979.5" font-family="Helvetica,sans-Serif" font-size="10.00">+ operator+()</text>
<text text-anchor="start" x="116" y="-968.5" font-family="Helvetica,sans-Serif" font-size="10.00">+ operator&#45;()</text>
<text text-anchor="start" x="116" y="-957.5" font-family="Helvetica,sans-Serif" font-size="10.00">+ operator==()</text>
<text text-anchor="start" x="116" y="-946.5" font-family="Helvetica,sans-Serif" font-size="10.00">+ operator!=()</text>
<text text-anchor="start" x="116" y="-935.5" font-family="Helvetica,sans-Serif" font-size="10.00">+ getAddress()</text>
<text text-anchor="start" x="116" y="-924.5" font-family="Helvetica,sans-Serif" font-size="10.00">+ getChannel()</text>
<text text-anchor="start" x="116" y="-913.5" font-family="Helvetica,sans-Serif" font-size="10.00">+ getRawChannel()</text>
<text text-anchor="start" x="116" y="-902.5" font-family="Helvetica,sans-Serif" font-size="10.00">+ getCableNumber()</text>
<text text-anchor="start" x="116" y="-891.5" font-family="Helvetica,sans-Serif" font-size="10.00">+ isValid()</text>
<text text-anchor="start" x="116" y="-880.5" font-family="Helvetica,sans-Serif" font-size="10.00">+ operator bool()</text>
<text text-anchor="start" x="116" y="-869.5" font-family="Helvetica,sans-Serif" font-size="10.00">+ matchSingle()</text>
<text text-anchor="start" x="116" y="-858.5" font-family="Helvetica,sans-Serif" font-size="10.00">+ matchAddressInRange()</text>
<text text-anchor="start" x="116" y="-847.5" font-family="Helvetica,sans-Serif" font-size="10.00">+ invalid()</text>
</a>
</g>
</g>
<!-- Node5&#45;&gt;Node4 -->
<g id="edge4" class="edge"><title>Node5&#45;&gt;Node4</title>
<path fill="none" stroke="#404040" d="M178,-840.236C178,-828.313 178,-816.434 178,-805.009"/>
<polygon fill="none" stroke="#404040" points="178,-804.81 174,-798.81 178,-792.81 182,-798.81 178,-804.81"/>
<text text-anchor="middle" x="199.5" y="-814" font-family="Helvetica,sans-Serif" font-size="10.00"> #address</text>
</g>
<!-- Node6&#45;&gt;Node3 -->
<g id="edge5" class="edge"><title>Node6&#45;&gt;Node3</title>
<path fill="none" stroke="midnightblue" d="M85.0675,-288.436C103.429,-334.089 132.787,-407.085 153.587,-458.801"/>
<polygon fill="none" stroke="midnightblue" points="88.3021,-287.098 81.3233,-279.127 81.8076,-289.71 88.3021,-287.098"/>
</g>
<!-- Node7&#45;&gt;Node3 -->
<g id="edge7" class="edge"><title>Node7&#45;&gt;Node3</title>
<path fill="none" stroke="#404040" d="M208.009,-383.725C205.822,-397.362 203.478,-410.971 201,-424 199.572,-431.51 197.939,-439.317 196.216,-447.089"/>
<polygon fill="none" stroke="#404040" points="196.211,-447.11 198.78,-453.848 193.548,-458.811 190.979,-452.073 196.211,-447.11"/>
<text text-anchor="middle" x="228" y="-410.5" font-family="Helvetica,sans-Serif" font-size="10.00"> &#45;elements</text>
</g>
<!-- Node8 -->
<g id="node8" class="node"><title>Node8</title>
<g id="a_node8"><a xlink:href="../../da/d50/classMCU_1_1IVPotRing.html" target="_top" xlink:title=" ">
<polygon fill="white" stroke="black" points="262.5,-442.5 262.5,-598.5 353.5,-598.5 353.5,-442.5 262.5,-442.5"/>
<text text-anchor="middle" x="308" y="-586.5" font-family="Helvetica,sans-Serif" font-size="10.00">MCU::IVPotRing</text>
<polyline fill="none" stroke="black" points="262.5,-579.5 353.5,-579.5 "/>
<text text-anchor="middle" x="308" y="-567.5" font-family="Helvetica,sans-Serif" font-size="10.00"> </text>
<polyline fill="none" stroke="black" points="262.5,-560.5 353.5,-560.5 "/>
<text text-anchor="start" x="270.5" y="-548.5" font-family="Helvetica,sans-Serif" font-size="10.00">+ getPosition()</text>
<text text-anchor="start" x="270.5" y="-537.5" font-family="Helvetica,sans-Serif" font-size="10.00">+ getCenterLed()</text>
<text text-anchor="start" x="270.5" y="-526.5" font-family="Helvetica,sans-Serif" font-size="10.00">+ getMode()</text>
<text text-anchor="start" x="270.5" y="-515.5" font-family="Helvetica,sans-Serif" font-size="10.00">+ getStartOn()</text>
<text text-anchor="start" x="270.5" y="-504.5" font-family="Helvetica,sans-Serif" font-size="10.00">+ getStartOff()</text>
<text text-anchor="start" x="270.5" y="-493.5" font-family="Helvetica,sans-Serif" font-size="10.00"># IVPotRing()</text>
<text text-anchor="start" x="270.5" y="-482.5" font-family="Helvetica,sans-Serif" font-size="10.00">&#45; getValue()</text>
<text text-anchor="start" x="270.5" y="-471.5" font-family="Helvetica,sans-Serif" font-size="10.00">&#45; getPosition()</text>
<text text-anchor="start" x="270.5" y="-460.5" font-family="Helvetica,sans-Serif" font-size="10.00">&#45; getCenterLed()</text>
<text text-anchor="start" x="270.5" y="-449.5" font-family="Helvetica,sans-Serif" font-size="10.00">&#45; getMode()</text>
</a>
</g>
</g>
<!-- Node8&#45;&gt;Node2 -->
<g id="edge9" class="edge"><title>Node8&#45;&gt;Node2</title>
<path fill="none" stroke="midnightblue" d="M340.14,-432.468C353.774,-395.548 369.475,-353.03 382.438,-317.927"/>
<polygon fill="none" stroke="midnightblue" points="336.719,-431.629 336.538,-442.223 343.285,-434.054 336.719,-431.629"/>
</g>
<!-- Node9 -->
<g id="node9" class="node"><title>Node9</title>
<g id="a_node9"><a xlink:href="../../d7/d6a/structArray.html" target="_top" xlink:title=" ">
<polygon fill="white" stroke="black" points="372,-448 372,-593 516,-593 516,-448 372,-448"/>
<text text-anchor="middle" x="444" y="-581" font-family="Helvetica,sans-Serif" font-size="10.00">Array&lt; uint8_t, NumValues &gt;</text>
<polyline fill="none" stroke="black" points="372,-574 516,-574 "/>
<text text-anchor="start" x="380" y="-562" font-family="Helvetica,sans-Serif" font-size="10.00">+ data</text>
<text text-anchor="start" x="380" y="-551" font-family="Helvetica,sans-Serif" font-size="10.00">+ length</text>
<polyline fill="none" stroke="black" points="372,-544 516,-544 "/>
<text text-anchor="start" x="380" y="-532" font-family="Helvetica,sans-Serif" font-size="10.00">+ operator[]()</text>
<text text-anchor="start" x="380" y="-521" font-family="Helvetica,sans-Serif" font-size="10.00">+ operator[]()</text>
<text text-anchor="start" x="380" y="-510" font-family="Helvetica,sans-Serif" font-size="10.00">+ begin()</text>
<text text-anchor="start" x="380" y="-499" font-family="Helvetica,sans-Serif" font-size="10.00">+ begin()</text>
<text text-anchor="start" x="380" y="-488" font-family="Helvetica,sans-Serif" font-size="10.00">+ end()</text>
<text text-anchor="start" x="380" y="-477" font-family="Helvetica,sans-Serif" font-size="10.00">+ end()</text>
<text text-anchor="start" x="380" y="-466" font-family="Helvetica,sans-Serif" font-size="10.00">+ operator==()</text>
<text text-anchor="start" x="380" y="-455" font-family="Helvetica,sans-Serif" font-size="10.00">+ operator!=()</text>
</a>
</g>
</g>
<!-- Node9&#45;&gt;Node2 -->
<g id="edge10" class="edge"><title>Node9&#45;&gt;Node2</title>
<path fill="none" stroke="#404040" d="M434.85,-447.998C430.208,-411.723 424.542,-367.447 419.699,-329.602"/>
<polygon fill="none" stroke="#404040" points="419.681,-329.462 414.951,-324.018 418.157,-317.559 422.887,-323.003 419.681,-329.462"/>
<text text-anchor="middle" x="449.5" y="-410.5" font-family="Helvetica,sans-Serif" font-size="10.00"> &#45;values</text>
</g>
<!-- Node10 -->
<g id="node10" class="node"><title>Node10</title>
<g id="a_node10"><a xlink:title=" ">
<polygon fill="white" stroke="#bfbfbf" points="534.5,-492 534.5,-549 589.5,-549 589.5,-492 534.5,-492"/>
<text text-anchor="middle" x="562" y="-537" font-family="Helvetica,sans-Serif" font-size="10.00">Callback</text>
<polyline fill="none" stroke="#bfbfbf" points="534.5,-530 589.5,-530 "/>
<text text-anchor="middle" x="562" y="-518" font-family="Helvetica,sans-Serif" font-size="10.00"> </text>
<polyline fill="none" stroke="#bfbfbf" points="534.5,-511 589.5,-511 "/>
<text text-anchor="middle" x="562" y="-499" font-family="Helvetica,sans-Serif" font-size="10.00"> </text>
</a>
</g>
</g>
<!-- Node10&#45;&gt;Node2 -->
<g id="edge11" class="edge"><title>Node10&#45;&gt;Node2</title>
<path fill="none" stroke="#404040" d="M549.572,-491.946C542.652,-477.006 533.699,-458.313 525,-442 504.766,-404.057 480.79,-362.981 459.902,-328.281"/>
<polygon fill="none" stroke="#404040" points="459.732,-327.998 453.206,-324.931 453.527,-317.727 460.053,-320.794 459.732,-327.998"/>
<text text-anchor="middle" x="537" y="-410.5" font-family="Helvetica,sans-Serif" font-size="10.00"> +callback</text>
</g>
</g>
</svg>
