<?xml version="1.0" encoding="UTF-8" standalone="no"?>
<!DOCTYPE svg PUBLIC "-//W3C//DTD SVG 1.1//EN"
 "http://www.w3.org/Graphics/SVG/1.1/DTD/svg11.dtd">
<!-- Generated by graphviz version 2.38.0 (20140413.2041)
 -->
<!-- Title: Bankable::CCButton Pages: 1 -->
<svg width="420pt" height="1164pt"
 viewBox="0.00 0.00 420.00 1164.00" xmlns="http://www.w3.org/2000/svg" xmlns:xlink="http://www.w3.org/1999/xlink">
<g id="graph0" class="graph" transform="scale(1 1) rotate(0) translate(4 1160)">
<title>Bankable::CCButton</title>
<polygon fill="white" stroke="none" points="-4,4 -4,-1160 416,-1160 416,4 -4,4"/>
<!-- Node5 -->
<g id="node1" class="node"><title>Node5</title>
<g id="a_node1"><a xlink:title="A class of MIDIOutputElements that read the input of a momentary push button or switch,...">
<polygon fill="#bfbfbf" stroke="black" points="192.5,-0.5 192.5,-57.5 299.5,-57.5 299.5,-0.5 192.5,-0.5"/>
<text text-anchor="middle" x="246" y="-45.5" font-family="Helvetica,sans-Serif" font-size="10.00">Bankable::CCButton</text>
<polyline fill="none" stroke="black" points="192.5,-38.5 299.5,-38.5 "/>
<text text-anchor="middle" x="246" y="-26.5" font-family="Helvetica,sans-Serif" font-size="10.00"> </text>
<polyline fill="none" stroke="black" points="192.5,-19.5 299.5,-19.5 "/>
<text text-anchor="start" x="200.5" y="-7.5" font-family="Helvetica,sans-Serif" font-size="10.00">+ CCButton()</text>
</a>
</g>
</g>
<!-- Node6 -->
<g id="node2" class="node"><title>Node6</title>
<g id="a_node2"><a xlink:href="../../d9/df9/classBankable_1_1MIDIButton.html" target="_top" xlink:title=" ">
<polygon fill="white" stroke="black" points="174.5,-95.5 174.5,-207.5 317.5,-207.5 317.5,-95.5 174.5,-95.5"/>
<text text-anchor="start" x="182.5" y="-195.5" font-family="Helvetica,sans-Serif" font-size="10.00">Bankable::MIDIButton</text>
<text text-anchor="start" x="182.5" y="-184.5" font-family="Helvetica,sans-Serif" font-size="10.00">&lt; DigitalCCSender::sendOn,</text>
<text text-anchor="middle" x="246" y="-173.5" font-family="Helvetica,sans-Serif" font-size="10.00"> DigitalCCSender::sendOff &gt;</text>
<polyline fill="none" stroke="black" points="174.5,-166.5 317.5,-166.5 "/>
<text text-anchor="start" x="182.5" y="-154.5" font-family="Helvetica,sans-Serif" font-size="10.00">&#45; baseAddress</text>
<text text-anchor="start" x="182.5" y="-143.5" font-family="Helvetica,sans-Serif" font-size="10.00">&#45; baseChannel</text>
<polyline fill="none" stroke="black" points="174.5,-136.5 317.5,-136.5 "/>
<text text-anchor="start" x="182.5" y="-124.5" font-family="Helvetica,sans-Serif" font-size="10.00">+ begin()</text>
<text text-anchor="start" x="182.5" y="-113.5" font-family="Helvetica,sans-Serif" font-size="10.00">+ update()</text>
<text text-anchor="start" x="182.5" y="-102.5" font-family="Helvetica,sans-Serif" font-size="10.00"># MIDIButton()</text>
</a>
</g>
</g>
<!-- Node6&#45;&gt;Node5 -->
<g id="edge1" class="edge"><title>Node6&#45;&gt;Node5</title>
<path fill="none" stroke="midnightblue" d="M246,-85.1187C246,-75.478 246,-66.0138 246,-57.7231"/>
<polygon fill="none" stroke="midnightblue" points="242.5,-85.1874 246,-95.1875 249.5,-85.1875 242.5,-85.1874"/>
</g>
<!-- Node7 -->
<g id="node3" class="node"><title>Node7</title>
<g id="a_node3"><a xlink:href="../../d9/d14/classBankableMIDIOutputAddressable.html" target="_top" xlink:title=" ">
<polygon fill="white" stroke="black" points="0,-272 0,-450 176,-450 176,-272 0,-272"/>
<text text-anchor="middle" x="88" y="-438" font-family="Helvetica,sans-Serif" font-size="10.00">BankableMIDIOutputAddressable</text>
<polyline fill="none" stroke="black" points="0,-431 176,-431 "/>
<text text-anchor="start" x="8" y="-419" font-family="Helvetica,sans-Serif" font-size="10.00">&#45; channelsOrAddressesPerBank</text>
<text text-anchor="start" x="8" y="-408" font-family="Helvetica,sans-Serif" font-size="10.00">&#45; lockedSetting</text>
<text text-anchor="start" x="8" y="-397" font-family="Helvetica,sans-Serif" font-size="10.00">&#45; UNLOCKED</text>
<polyline fill="none" stroke="black" points="0,-390 176,-390 "/>
<text text-anchor="start" x="8" y="-378" font-family="Helvetica,sans-Serif" font-size="10.00">+ getChannel()</text>
<text text-anchor="start" x="8" y="-367" font-family="Helvetica,sans-Serif" font-size="10.00">+ getAddress()</text>
<text text-anchor="start" x="8" y="-356" font-family="Helvetica,sans-Serif" font-size="10.00">+ getAddressesPerBank()</text>
<text text-anchor="start" x="8" y="-345" font-family="Helvetica,sans-Serif" font-size="10.00">+ getChannelsPerBank()</text>
<text text-anchor="start" x="8" y="-334" font-family="Helvetica,sans-Serif" font-size="10.00">+ getRawBankSetting()</text>
<text text-anchor="start" x="8" y="-323" font-family="Helvetica,sans-Serif" font-size="10.00">+ getSelection()</text>
<text text-anchor="start" x="8" y="-312" font-family="Helvetica,sans-Serif" font-size="10.00"># BankableMIDIOutputAddressable()</text>
<text text-anchor="start" x="8" y="-301" font-family="Helvetica,sans-Serif" font-size="10.00"># BankableMIDIOutputAddressable()</text>
<text text-anchor="start" x="8" y="-290" font-family="Helvetica,sans-Serif" font-size="10.00"># lock()</text>
<text text-anchor="start" x="8" y="-279" font-family="Helvetica,sans-Serif" font-size="10.00"># unlock()</text>
</a>
</g>
</g>
<!-- Node7&#45;&gt;Node6 -->
<g id="edge2" class="edge"><title>Node7&#45;&gt;Node6</title>
<path fill="none" stroke="midnightblue" d="M161.467,-263.516C176.059,-244.353 190.903,-224.859 203.996,-207.664"/>
<polygon fill="none" stroke="midnightblue" points="158.509,-261.624 155.235,-271.7 164.078,-265.865 158.509,-261.624"/>
</g>
<!-- Node8 -->
<g id="node4" class="node"><title>Node8</title>
<g id="a_node4"><a xlink:href="../../d9/d36/classOutputBank.html" target="_top" xlink:title=" ">
<polygon fill="white" stroke="black" points="31.5,-586 31.5,-687 144.5,-687 144.5,-586 31.5,-586"/>
<text text-anchor="middle" x="88" y="-675" font-family="Helvetica,sans-Serif" font-size="10.00">OutputBank</text>
<polyline fill="none" stroke="black" points="31.5,-668 144.5,-668 "/>
<text text-anchor="start" x="39.5" y="-656" font-family="Helvetica,sans-Serif" font-size="10.00">&#45; tracksPerBank</text>
<text text-anchor="start" x="39.5" y="-645" font-family="Helvetica,sans-Serif" font-size="10.00">&#45; bankSetting</text>
<polyline fill="none" stroke="black" points="31.5,-638 144.5,-638 "/>
<text text-anchor="start" x="39.5" y="-626" font-family="Helvetica,sans-Serif" font-size="10.00">+ OutputBank()</text>
<text text-anchor="start" x="39.5" y="-615" font-family="Helvetica,sans-Serif" font-size="10.00">+ select()</text>
<text text-anchor="start" x="39.5" y="-604" font-family="Helvetica,sans-Serif" font-size="10.00">+ getSelection()</text>
<text text-anchor="start" x="39.5" y="-593" font-family="Helvetica,sans-Serif" font-size="10.00">+ getTracksPerBank()</text>
</a>
</g>
</g>
<!-- Node8&#45;&gt;Node7 -->
<g id="edge3" class="edge"><title>Node8&#45;&gt;Node7</title>
<path fill="none" stroke="#404040" d="M88,-585.971C88,-551.501 88,-504.342 88,-462.186"/>
<polygon fill="none" stroke="#404040" points="88.0001,-462.155 84,-456.155 88,-450.155 92,-456.155 88.0001,-462.155"/>
<text text-anchor="middle" x="102" y="-488" font-family="Helvetica,sans-Serif" font-size="10.00"> &#45;bank</text>
</g>
<!-- Node9 -->
<g id="node5" class="node"><title>Node9</title>
<g id="a_node5"><a xlink:href="../../d5/de0/classUpdatable.html" target="_top" xlink:title=" ">
<polygon fill="white" stroke="black" points="194,-255.5 194,-466.5 298,-466.5 298,-255.5 194,-255.5"/>
<text text-anchor="middle" x="246" y="-454.5" font-family="Helvetica,sans-Serif" font-size="10.00">MIDIOutputElement</text>
<polyline fill="none" stroke="black" points="194,-447.5 298,-447.5 "/>
<text text-anchor="middle" x="246" y="-435.5" font-family="Helvetica,sans-Serif" font-size="10.00"> </text>
<polyline fill="none" stroke="black" points="194,-428.5 298,-428.5 "/>
<text text-anchor="start" x="202" y="-416.5" font-family="Helvetica,sans-Serif" font-size="10.00">+ Updatable()</text>
<text text-anchor="start" x="202" y="-405.5" font-family="Helvetica,sans-Serif" font-size="10.00">+ ~Updatable()</text>
<text text-anchor="start" x="202" y="-394.5" font-family="Helvetica,sans-Serif" font-size="10.00">+ update()</text>
<text text-anchor="start" x="202" y="-383.5" font-family="Helvetica,sans-Serif" font-size="10.00">+ begin()</text>
<text text-anchor="start" x="202" y="-372.5" font-family="Helvetica,sans-Serif" font-size="10.00">+ enable()</text>
<text text-anchor="start" x="202" y="-361.5" font-family="Helvetica,sans-Serif" font-size="10.00">+ disable()</text>
<text text-anchor="start" x="202" y="-350.5" font-family="Helvetica,sans-Serif" font-size="10.00">+ isEnabled()</text>
<text text-anchor="start" x="202" y="-339.5" font-family="Helvetica,sans-Serif" font-size="10.00">+ enable()</text>
<text text-anchor="start" x="202" y="-328.5" font-family="Helvetica,sans-Serif" font-size="10.00">+ enable()</text>
<text text-anchor="start" x="202" y="-317.5" font-family="Helvetica,sans-Serif" font-size="10.00">+ enable()</text>
<text text-anchor="start" x="202" y="-306.5" font-family="Helvetica,sans-Serif" font-size="10.00">+ disable()</text>
<text text-anchor="start" x="202" y="-295.5" font-family="Helvetica,sans-Serif" font-size="10.00">+ disable()</text>
<text text-anchor="start" x="202" y="-284.5" font-family="Helvetica,sans-Serif" font-size="10.00">+ disable()</text>
<text text-anchor="start" x="202" y="-273.5" font-family="Helvetica,sans-Serif" font-size="10.00">+ beginAll()</text>
<text text-anchor="start" x="202" y="-262.5" font-family="Helvetica,sans-Serif" font-size="10.00">+ updateAll()</text>
</a>
</g>
</g>
<!-- Node9&#45;&gt;Node6 -->
<g id="edge4" class="edge"><title>Node9&#45;&gt;Node6</title>
<path fill="none" stroke="midnightblue" d="M246,-245.29C246,-232.192 246,-219.33 246,-207.551"/>
<polygon fill="none" stroke="midnightblue" points="242.5,-245.338 246,-255.338 249.5,-245.338 242.5,-245.338"/>
</g>
<!-- Node10 -->
<g id="node6" class="node"><title>Node10</title>
<g id="a_node6"><a xlink:href="../../d4/d23/classDoublyLinkable.html" target="_top" xlink:title=" ">
<polygon fill="white" stroke="black" points="204.5,-1087.5 204.5,-1155.5 341.5,-1155.5 341.5,-1087.5 204.5,-1087.5"/>
<text text-anchor="start" x="212.5" y="-1143.5" font-family="Helvetica,sans-Serif" font-size="10.00">DoublyLinkable&lt; Updatable</text>
<text text-anchor="middle" x="273" y="-1132.5" font-family="Helvetica,sans-Serif" font-size="10.00">&lt; NormalUpdatable &gt; &gt;</text>
<polyline fill="none" stroke="black" points="204.5,-1125.5 341.5,-1125.5 "/>
<text text-anchor="middle" x="273" y="-1113.5" font-family="Helvetica,sans-Serif" font-size="10.00"> </text>
<polyline fill="none" stroke="black" points="204.5,-1106.5 341.5,-1106.5 "/>
<text text-anchor="start" x="212.5" y="-1094.5" font-family="Helvetica,sans-Serif" font-size="10.00"># ~DoublyLinkable()</text>
</a>
</g>
</g>
<!-- Node10&#45;&gt;Node9 -->
<g id="edge5" class="edge"><title>Node10&#45;&gt;Node9</title>
<path fill="none" stroke="midnightblue" d="M242.068,-1078.8C232.756,-1063.86 223.752,-1046.4 219,-1029 158.703,-808.196 198.907,-742.005 219,-514 220.353,-498.648 222.46,-482.525 224.915,-466.75"/>
<polygon fill="none" stroke="midnightblue" points="239.185,-1080.79 247.556,-1087.28 245.062,-1076.98 239.185,-1080.79"/>
</g>
<!-- Node11 -->
<g id="node7" class="node"><title>Node11</title>
<g id="a_node7"><a xlink:href="../../d5/de0/classUpdatable.html" target="_top" xlink:title=" ">
<polygon fill="white" stroke="black" points="228.5,-817.5 228.5,-1028.5 383.5,-1028.5 383.5,-817.5 228.5,-817.5"/>
<text text-anchor="middle" x="306" y="-1016.5" font-family="Helvetica,sans-Serif" font-size="10.00">Updatable&lt; NormalUpdatable &gt;</text>
<polyline fill="none" stroke="black" points="228.5,-1009.5 383.5,-1009.5 "/>
<text text-anchor="middle" x="306" y="-997.5" font-family="Helvetica,sans-Serif" font-size="10.00"> </text>
<polyline fill="none" stroke="black" points="228.5,-990.5 383.5,-990.5 "/>
<text text-anchor="start" x="236.5" y="-978.5" font-family="Helvetica,sans-Serif" font-size="10.00">+ Updatable()</text>
<text text-anchor="start" x="236.5" y="-967.5" font-family="Helvetica,sans-Serif" font-size="10.00">+ ~Updatable()</text>
<text text-anchor="start" x="236.5" y="-956.5" font-family="Helvetica,sans-Serif" font-size="10.00">+ update()</text>
<text text-anchor="start" x="236.5" y="-945.5" font-family="Helvetica,sans-Serif" font-size="10.00">+ begin()</text>
<text text-anchor="start" x="236.5" y="-934.5" font-family="Helvetica,sans-Serif" font-size="10.00">+ enable()</text>
<text text-anchor="start" x="236.5" y="-923.5" font-family="Helvetica,sans-Serif" font-size="10.00">+ disable()</text>
<text text-anchor="start" x="236.5" y="-912.5" font-family="Helvetica,sans-Serif" font-size="10.00">+ isEnabled()</text>
<text text-anchor="start" x="236.5" y="-901.5" font-family="Helvetica,sans-Serif" font-size="10.00">+ enable()</text>
<text text-anchor="start" x="236.5" y="-890.5" font-family="Helvetica,sans-Serif" font-size="10.00">+ enable()</text>
<text text-anchor="start" x="236.5" y="-879.5" font-family="Helvetica,sans-Serif" font-size="10.00">+ enable()</text>
<text text-anchor="start" x="236.5" y="-868.5" font-family="Helvetica,sans-Serif" font-size="10.00">+ disable()</text>
<text text-anchor="start" x="236.5" y="-857.5" font-family="Helvetica,sans-Serif" font-size="10.00">+ disable()</text>
<text text-anchor="start" x="236.5" y="-846.5" font-family="Helvetica,sans-Serif" font-size="10.00">+ disable()</text>
<text text-anchor="start" x="236.5" y="-835.5" font-family="Helvetica,sans-Serif" font-size="10.00">+ beginAll()</text>
<text text-anchor="start" x="236.5" y="-824.5" font-family="Helvetica,sans-Serif" font-size="10.00">+ updateAll()</text>
</a>
</g>
</g>
<!-- Node10&#45;&gt;Node11 -->
<g id="edge7" class="edge"><title>Node10&#45;&gt;Node11</title>
<path fill="none" stroke="midnightblue" d="M280.293,-1077.07C282.724,-1062.6 285.546,-1045.79 288.412,-1028.73"/>
<polygon fill="none" stroke="midnightblue" points="276.803,-1076.72 278.598,-1087.17 283.706,-1077.88 276.803,-1076.72"/>
</g>
<!-- Node11&#45;&gt;Node10 -->
<g id="edge6" class="edge"><title>Node11&#45;&gt;Node10</title>
<path fill="none" stroke="#404040" d="M290.882,-1028.67C288.696,-1042.26 286.377,-1055.98 284,-1069 283.611,-1071.13 283.199,-1073.31 282.773,-1075.51"/>
<polygon fill="none" stroke="#404040" points="282.765,-1075.55 285.5,-1082.22 280.393,-1087.31 277.658,-1080.64 282.765,-1075.55"/>
<text text-anchor="middle" x="309.5" y="-1061" font-family="Helvetica,sans-Serif" font-size="10.00"> #next</text>
<text text-anchor="middle" x="309.5" y="-1050" font-family="Helvetica,sans-Serif" font-size="10.00">#previous</text>
</g>
<!-- Node12 -->
<g id="node8" class="node"><title>Node12</title>
<g id="a_node8"><a xlink:href="../../dd/d16/classDoublyLinkedList.html" target="_top" xlink:title=" ">
<polygon fill="white" stroke="black" points="228.5,-514.5 228.5,-758.5 373.5,-758.5 373.5,-514.5 228.5,-514.5"/>
<text text-anchor="start" x="236.5" y="-746.5" font-family="Helvetica,sans-Serif" font-size="10.00">DoublyLinkedList&lt; Updatable</text>
<text text-anchor="middle" x="301" y="-735.5" font-family="Helvetica,sans-Serif" font-size="10.00">&lt; NormalUpdatable &gt; &gt;</text>
<polyline fill="none" stroke="black" points="228.5,-728.5 373.5,-728.5 "/>
<text text-anchor="middle" x="301" y="-716.5" font-family="Helvetica,sans-Serif" font-size="10.00"> </text>
<polyline fill="none" stroke="black" points="228.5,-709.5 373.5,-709.5 "/>
<text text-anchor="start" x="236.5" y="-697.5" font-family="Helvetica,sans-Serif" font-size="10.00">+ DoublyLinkedList()</text>
<text text-anchor="start" x="236.5" y="-686.5" font-family="Helvetica,sans-Serif" font-size="10.00">+ append()</text>
<text text-anchor="start" x="236.5" y="-675.5" font-family="Helvetica,sans-Serif" font-size="10.00">+ append()</text>
<text text-anchor="start" x="236.5" y="-664.5" font-family="Helvetica,sans-Serif" font-size="10.00">+ remove()</text>
<text text-anchor="start" x="236.5" y="-653.5" font-family="Helvetica,sans-Serif" font-size="10.00">+ remove()</text>
<text text-anchor="start" x="236.5" y="-642.5" font-family="Helvetica,sans-Serif" font-size="10.00">+ moveDown()</text>
<text text-anchor="start" x="236.5" y="-631.5" font-family="Helvetica,sans-Serif" font-size="10.00">+ couldContain()</text>
<text text-anchor="start" x="236.5" y="-620.5" font-family="Helvetica,sans-Serif" font-size="10.00">+ begin()</text>
<text text-anchor="start" x="236.5" y="-609.5" font-family="Helvetica,sans-Serif" font-size="10.00">+ begin()</text>
<text text-anchor="start" x="236.5" y="-598.5" font-family="Helvetica,sans-Serif" font-size="10.00">+ end()</text>
<text text-anchor="start" x="236.5" y="-587.5" font-family="Helvetica,sans-Serif" font-size="10.00">+ end()</text>
<text text-anchor="start" x="236.5" y="-576.5" font-family="Helvetica,sans-Serif" font-size="10.00">+ rbegin()</text>
<text text-anchor="start" x="236.5" y="-565.5" font-family="Helvetica,sans-Serif" font-size="10.00">+ rbegin()</text>
<text text-anchor="start" x="236.5" y="-554.5" font-family="Helvetica,sans-Serif" font-size="10.00">+ rend()</text>
<text text-anchor="start" x="236.5" y="-543.5" font-family="Helvetica,sans-Serif" font-size="10.00">+ rend()</text>
<text text-anchor="start" x="236.5" y="-532.5" font-family="Helvetica,sans-Serif" font-size="10.00">+ getFirst()</text>
<text text-anchor="start" x="236.5" y="-521.5" font-family="Helvetica,sans-Serif" font-size="10.00">+ getLast()</text>
</a>
</g>
</g>
<!-- Node11&#45;&gt;Node12 -->
<g id="edge9" class="edge"><title>Node11&#45;&gt;Node12</title>
<path fill="none" stroke="#404040" d="M280.507,-817.258C279.524,-811.103 278.673,-804.985 278,-799 276.966,-789.798 276.571,-780.313 276.669,-770.766"/>
<polygon fill="none" stroke="#404040" points="276.673,-770.651 272.861,-764.53 277.046,-758.657 280.857,-764.779 276.673,-770.651"/>
<text text-anchor="middle" x="289" y="-791" font-family="Helvetica,sans-Serif" font-size="10.00"> &#45;last</text>
<text text-anchor="middle" x="289" y="-780" font-family="Helvetica,sans-Serif" font-size="10.00">&#45;first</text>
</g>
<!-- Node12&#45;&gt;Node9 -->
<g id="edge10" class="edge"><title>Node12&#45;&gt;Node9</title>
<path fill="none" stroke="#404040" d="M276.636,-514.345C274.244,-502.449 271.82,-490.395 269.437,-478.547"/>
<polygon fill="none" stroke="#404040" points="269.437,-478.547 264.333,-473.453 267.071,-466.782 272.176,-471.876 269.437,-478.547"/>
<text text-anchor="middle" x="299" y="-488" font-family="Helvetica,sans-Serif" font-size="10.00"> &#45;updatables</text>
</g>
<!-- Node12&#45;&gt;Node11 -->
<g id="edge8" class="edge"><title>Node12&#45;&gt;Node11</title>
<path fill="none" stroke="#404040" d="M303.666,-758.854C303.783,-764.99 303.895,-771.066 304,-777 304.162,-786.204 304.319,-795.736 304.469,-805.315"/>
<polygon fill="none" stroke="#404040" points="304.471,-805.455 308.562,-811.393 304.654,-817.453 300.563,-811.515 304.471,-805.455"/>
<text text-anchor="middle" x="332" y="-785.5" font-family="Helvetica,sans-Serif" font-size="10.00"> &#45;updatables</text>
</g>
<!-- Node13 -->
<g id="node9" class="node"><title>Node13</title>
<g id="a_node9"><a xlink:href="../../d1/d19/classButton.html" target="_top" xlink:title="A class for reading and debouncing buttons and switches.">
<polygon fill="white" stroke="black" points="316,-272 316,-450 412,-450 412,-272 316,-272"/>
<text text-anchor="middle" x="364" y="-438" font-family="Helvetica,sans-Serif" font-size="10.00">Button</text>
<polyline fill="none" stroke="black" points="316,-431 412,-431 "/>
<text text-anchor="start" x="324" y="-419" font-family="Helvetica,sans-Serif" font-size="10.00">&#45; pin</text>
<text text-anchor="start" x="324" y="-408" font-family="Helvetica,sans-Serif" font-size="10.00">&#45; prevState</text>
<text text-anchor="start" x="324" y="-397" font-family="Helvetica,sans-Serif" font-size="10.00">&#45; debouncedState</text>
<text text-anchor="start" x="324" y="-386" font-family="Helvetica,sans-Serif" font-size="10.00">&#45; prevBounceTime</text>
<text text-anchor="start" x="324" y="-375" font-family="Helvetica,sans-Serif" font-size="10.00">&#45; invertState</text>
<text text-anchor="start" x="324" y="-364" font-family="Helvetica,sans-Serif" font-size="10.00">&#45; debounceTime</text>
<polyline fill="none" stroke="black" points="316,-357 412,-357 "/>
<text text-anchor="start" x="324" y="-345" font-family="Helvetica,sans-Serif" font-size="10.00">+ Button()</text>
<text text-anchor="start" x="324" y="-334" font-family="Helvetica,sans-Serif" font-size="10.00">+ Button()</text>
<text text-anchor="start" x="324" y="-323" font-family="Helvetica,sans-Serif" font-size="10.00">+ begin()</text>
<text text-anchor="start" x="324" y="-312" font-family="Helvetica,sans-Serif" font-size="10.00">+ getState()</text>
<text text-anchor="start" x="324" y="-301" font-family="Helvetica,sans-Serif" font-size="10.00">+ stableTime()</text>
<text text-anchor="start" x="324" y="-290" font-family="Helvetica,sans-Serif" font-size="10.00">+ invert()</text>
<text text-anchor="start" x="324" y="-279" font-family="Helvetica,sans-Serif" font-size="10.00">+ getName()</text>
</a>
</g>
</g>
<!-- Node13&#45;&gt;Node6 -->
<g id="edge11" class="edge"><title>Node13&#45;&gt;Node6</title>
<path fill="none" stroke="#404040" d="M316.514,-271.917C313.319,-266.179 310.127,-260.499 307,-255 300.191,-243.027 292.802,-230.356 285.594,-218.158"/>
<polygon fill="none" stroke="#404040" points="285.448,-217.911 278.947,-214.791 279.326,-207.589 285.827,-210.709 285.448,-217.911"/>
<text text-anchor="middle" x="313" y="-229" font-family="Helvetica,sans-Serif" font-size="10.00"> &#45;button</text>
</g>
</g>
</svg>
