<?xml version="1.0" encoding="UTF-8" standalone="no"?>
<!DOCTYPE svg PUBLIC "-//W3C//DTD SVG 1.1//EN"
 "http://www.w3.org/Graphics/SVG/1.1/DTD/svg11.dtd">
<!-- Generated by graphviz version 2.38.0 (20140413.2041)
 -->
<!-- Title: MCU::AnalogVUDisplay Pages: 1 -->
<svg width="178pt" height="441pt"
 viewBox="0.00 0.00 178.00 441.00" xmlns="http://www.w3.org/2000/svg" xmlns:xlink="http://www.w3.org/1999/xlink">
<g id="graph0" class="graph" transform="scale(1 1) rotate(0) translate(4 437)">
<title>MCU::AnalogVUDisplay</title>
<polygon fill="white" stroke="none" points="-4,4 -4,-437 174,-437 174,4 -4,4"/>
<!-- Node0 -->
<g id="node1" class="node"><title>Node0</title>
<g id="a_node1"><a xlink:title=" ">
<polygon fill="#bfbfbf" stroke="black" points="23.5,-0.5 23.5,-167.5 146.5,-167.5 146.5,-0.5 23.5,-0.5"/>
<text text-anchor="middle" x="85" y="-155.5" font-family="Helvetica,sans-Serif" font-size="10.00">MCU::AnalogVUDisplay</text>
<polyline fill="none" stroke="black" points="23.5,-148.5 146.5,-148.5 "/>
<text text-anchor="start" x="31.5" y="-136.5" font-family="Helvetica,sans-Serif" font-size="10.00">&#45; vu</text>
<text text-anchor="start" x="31.5" y="-125.5" font-family="Helvetica,sans-Serif" font-size="10.00">&#45; x</text>
<text text-anchor="start" x="31.5" y="-114.5" font-family="Helvetica,sans-Serif" font-size="10.00">&#45; y</text>
<text text-anchor="start" x="31.5" y="-103.5" font-family="Helvetica,sans-Serif" font-size="10.00">&#45; r_sq</text>
<text text-anchor="start" x="31.5" y="-92.5" font-family="Helvetica,sans-Serif" font-size="10.00">&#45; theta_min</text>
<text text-anchor="start" x="31.5" y="-81.5" font-family="Helvetica,sans-Serif" font-size="10.00">&#45; theta_diff</text>
<text text-anchor="start" x="31.5" y="-70.5" font-family="Helvetica,sans-Serif" font-size="10.00">&#45; color</text>
<text text-anchor="start" x="31.5" y="-59.5" font-family="Helvetica,sans-Serif" font-size="10.00">&#45; theta_dot</text>
<text text-anchor="start" x="31.5" y="-48.5" font-family="Helvetica,sans-Serif" font-size="10.00">&#45; theta</text>
<polyline fill="none" stroke="black" points="23.5,-41.5 146.5,-41.5 "/>
<text text-anchor="start" x="31.5" y="-29.5" font-family="Helvetica,sans-Serif" font-size="10.00">+ AnalogVUDisplay()</text>
<text text-anchor="start" x="31.5" y="-18.5" font-family="Helvetica,sans-Serif" font-size="10.00">+ draw()</text>
<text text-anchor="start" x="31.5" y="-7.5" font-family="Helvetica,sans-Serif" font-size="10.00">+ drawNeedle()</text>
</a>
</g>
</g>
<!-- Node1 -->
<g id="node2" class="node"><title>Node1</title>
<g id="a_node2"><a xlink:href="../../d8/d43/classDisplayElement.html" target="_top" xlink:title="An interface for elements that draw to a display.">
<polygon fill="white" stroke="black" points="31.5,-204.5 31.5,-327.5 138.5,-327.5 138.5,-204.5 31.5,-204.5"/>
<text text-anchor="middle" x="85" y="-315.5" font-family="Helvetica,sans-Serif" font-size="10.00">DisplayElement</text>
<polyline fill="none" stroke="black" points="31.5,-308.5 138.5,-308.5 "/>
<text text-anchor="start" x="39.5" y="-296.5" font-family="Helvetica,sans-Serif" font-size="10.00"># display</text>
<text text-anchor="start" x="39.5" y="-285.5" font-family="Helvetica,sans-Serif" font-size="10.00"># elements</text>
<polyline fill="none" stroke="black" points="31.5,-278.5 138.5,-278.5 "/>
<text text-anchor="start" x="39.5" y="-266.5" font-family="Helvetica,sans-Serif" font-size="10.00">+ ~DisplayElement()</text>
<text text-anchor="start" x="39.5" y="-255.5" font-family="Helvetica,sans-Serif" font-size="10.00">+ draw()</text>
<text text-anchor="start" x="39.5" y="-244.5" font-family="Helvetica,sans-Serif" font-size="10.00">+ getDisplay()</text>
<text text-anchor="start" x="39.5" y="-233.5" font-family="Helvetica,sans-Serif" font-size="10.00">+ getDisplay()</text>
<text text-anchor="start" x="39.5" y="-222.5" font-family="Helvetica,sans-Serif" font-size="10.00">+ getAll()</text>
<text text-anchor="start" x="39.5" y="-211.5" font-family="Helvetica,sans-Serif" font-size="10.00"># DisplayElement()</text>
</a>
</g>
</g>
<!-- Node1&#45;&gt;Node0 -->
<g id="edge1" class="edge"><title>Node1&#45;&gt;Node0</title>
<path fill="none" stroke="midnightblue" d="M85,-194.251C85,-185.566 85,-176.63 85,-167.787"/>
<polygon fill="none" stroke="midnightblue" points="81.5001,-194.311 85,-204.311 88.5001,-194.311 81.5001,-194.311"/>
</g>
<!-- Node2 -->
<g id="node3" class="node"><title>Node2</title>
<g id="a_node3"><a xlink:href="../../d4/d23/classDoublyLinkable.html" target="_top" xlink:title=" ">
<polygon fill="white" stroke="black" points="0,-364.5 0,-432.5 170,-432.5 170,-364.5 0,-364.5"/>
<text text-anchor="middle" x="85" y="-420.5" font-family="Helvetica,sans-Serif" font-size="10.00">DoublyLinkable&lt; DisplayElement &gt;</text>
<polyline fill="none" stroke="black" points="0,-413.5 170,-413.5 "/>
<text text-anchor="start" x="8" y="-401.5" font-family="Helvetica,sans-Serif" font-size="10.00"># next</text>
<text text-anchor="start" x="8" y="-390.5" font-family="Helvetica,sans-Serif" font-size="10.00"># previous</text>
<polyline fill="none" stroke="black" points="0,-383.5 170,-383.5 "/>
<text text-anchor="start" x="8" y="-371.5" font-family="Helvetica,sans-Serif" font-size="10.00"># ~DoublyLinkable()</text>
</a>
</g>
</g>
<!-- Node2&#45;&gt;Node1 -->
<g id="edge2" class="edge"><title>Node2&#45;&gt;Node1</title>
<path fill="none" stroke="midnightblue" d="M85,-354.169C85,-345.652 85,-336.572 85,-327.609"/>
<polygon fill="none" stroke="midnightblue" points="81.5001,-354.232 85,-364.232 88.5001,-354.232 81.5001,-354.232"/>
</g>
</g>
</svg>
