<?xml version="1.0" encoding="UTF-8" standalone="no"?>
<!DOCTYPE svg PUBLIC "-//W3C//DTD SVG 1.1//EN"
 "http://www.w3.org/Graphics/SVG/1.1/DTD/svg11.dtd">
<!-- Generated by graphviz version 2.38.0 (20140413.2041)
 -->
<!-- Title: SPIShiftRegisterOut.hpp Pages: 1 -->
<svg width="690pt" height="644pt"
 viewBox="0.00 0.00 690.00 644.00" xmlns="http://www.w3.org/2000/svg" xmlns:xlink="http://www.w3.org/1999/xlink">
<g id="graph0" class="graph" transform="scale(1 1) rotate(0) translate(4 640)">
<title>SPIShiftRegisterOut.hpp</title>
<polygon fill="white" stroke="none" points="-4,4 -4,-640 686,-640 686,4 -4,4"/>
<!-- Node1 -->
<g id="node1" class="node"><title>Node1</title>
<g id="a_node1"><a xlink:title=" ">
<polygon fill="#bfbfbf" stroke="black" points="476.5,-616.5 476.5,-635.5 601.5,-635.5 601.5,-616.5 476.5,-616.5"/>
<text text-anchor="middle" x="539" y="-623.5" font-family="Helvetica,sans-Serif" font-size="10.00">SPIShiftRegisterOut.hpp</text>
</a>
</g>
</g>
<!-- Node2 -->
<g id="node2" class="node"><title>Node2</title>
<g id="a_node2"><a xlink:href="../../d8/d93/ShiftRegisterOutBase_8hpp.html" target="_top" xlink:title=" ">
<polygon fill="white" stroke="black" points="328.5,-560.5 328.5,-579.5 459.5,-579.5 459.5,-560.5 328.5,-560.5"/>
<text text-anchor="middle" x="394" y="-567.5" font-family="Helvetica,sans-Serif" font-size="10.00">ShiftRegisterOutBase.hpp</text>
</a>
</g>
</g>
<!-- Node1&#45;&gt;Node2 -->
<g id="edge1" class="edge"><title>Node1&#45;&gt;Node2</title>
<path fill="none" stroke="midnightblue" d="M516.024,-616.444C491.843,-607.438 453.582,-593.189 426.354,-583.049"/>
<polygon fill="midnightblue" stroke="midnightblue" points="427.461,-579.727 416.868,-579.516 425.018,-586.286 427.461,-579.727"/>
</g>
<!-- Node11 -->
<g id="node11" class="node"><title>Node11</title>
<g id="a_node11"><a xlink:title=" ">
<polygon fill="white" stroke="#bfbfbf" points="541,-0.5 541,-19.5 599,-19.5 599,-0.5 541,-0.5"/>
<text text-anchor="middle" x="570" y="-7.5" font-family="Helvetica,sans-Serif" font-size="10.00">Arduino.h</text>
</a>
</g>
</g>
<!-- Node1&#45;&gt;Node11 -->
<g id="edge45" class="edge"><title>Node1&#45;&gt;Node11</title>
<path fill="none" stroke="midnightblue" d="M569.677,-616.464C611.695,-602.682 682,-571.223 682,-515 682,-515 682,-515 682,-121 682,-74.6136 632.495,-41.2849 599.31,-24.1547"/>
<polygon fill="midnightblue" stroke="midnightblue" points="600.538,-20.8574 590.023,-19.5583 597.433,-27.131 600.538,-20.8574"/>
</g>
<!-- Node24 -->
<g id="node24" class="node"><title>Node24</title>
<g id="a_node24"><a xlink:href="../../d1/d40/BitArray_8hpp.html" target="_top" xlink:title=" ">
<polygon fill="white" stroke="black" points="193.5,-504.5 193.5,-523.5 300.5,-523.5 300.5,-504.5 193.5,-504.5"/>
<text text-anchor="middle" x="247" y="-511.5" font-family="Helvetica,sans-Serif" font-size="10.00">Helpers/BitArray.hpp</text>
</a>
</g>
</g>
<!-- Node1&#45;&gt;Node24 -->
<g id="edge46" class="edge"><title>Node1&#45;&gt;Node24</title>
<path fill="none" stroke="midnightblue" d="M476.366,-621.035C430.691,-616.089 368.405,-604.975 319,-580 295.632,-568.187 274.09,-546.746 260.776,-531.73"/>
<polygon fill="midnightblue" stroke="midnightblue" points="263.102,-529.066 253.936,-523.752 257.788,-533.622 263.102,-529.066"/>
</g>
<!-- Node29 -->
<g id="node29" class="node"><title>Node29</title>
<g id="a_node29"><a xlink:href="../../da/d45/SPIShiftRegisterOut_8ipp.html" target="_top" xlink:title=" ">
<polygon fill="white" stroke="black" points="478,-560.5 478,-579.5 600,-579.5 600,-560.5 478,-560.5"/>
<text text-anchor="middle" x="539" y="-567.5" font-family="Helvetica,sans-Serif" font-size="10.00">SPIShiftRegisterOut.ipp</text>
</a>
</g>
</g>
<!-- Node1&#45;&gt;Node29 -->
<g id="edge47" class="edge"><title>Node1&#45;&gt;Node29</title>
<path fill="none" stroke="midnightblue" d="M533.834,-616.083C532.324,-608.927 531.894,-598.635 532.542,-589.691"/>
<polygon fill="midnightblue" stroke="midnightblue" points="536.015,-590.126 533.869,-579.751 529.077,-589.2 536.015,-590.126"/>
</g>
<!-- Node3 -->
<g id="node3" class="node"><title>Node3</title>
<g id="a_node3"><a xlink:href="../../d2/d05/StaticSizeExtendedIOElement_8hpp.html" target="_top" xlink:title=" ">
<polygon fill="white" stroke="black" points="235,-448.5 235,-467.5 403,-467.5 403,-448.5 235,-448.5"/>
<text text-anchor="middle" x="319" y="-455.5" font-family="Helvetica,sans-Serif" font-size="10.00">StaticSizeExtendedIOElement.hpp</text>
</a>
</g>
</g>
<!-- Node2&#45;&gt;Node3 -->
<g id="edge2" class="edge"><title>Node2&#45;&gt;Node3</title>
<path fill="none" stroke="midnightblue" d="M382.984,-560.313C372.859,-551.886 357.956,-538.305 348,-524 337.863,-509.435 329.973,-490.756 324.999,-477.162"/>
<polygon fill="midnightblue" stroke="midnightblue" points="328.239,-475.822 321.648,-467.527 321.627,-478.121 328.239,-475.822"/>
</g>
<!-- Node2&#45;&gt;Node24 -->
<g id="edge33" class="edge"><title>Node2&#45;&gt;Node24</title>
<path fill="none" stroke="midnightblue" d="M370.707,-560.444C346.193,-551.438 307.404,-537.189 279.8,-527.049"/>
<polygon fill="midnightblue" stroke="midnightblue" points="280.777,-523.679 270.184,-523.516 278.363,-530.25 280.777,-523.679"/>
</g>
<!-- Node26 -->
<g id="node26" class="node"><title>Node26</title>
<g id="a_node26"><a xlink:href="../../d5/d47/ShiftRegisterOutBase_8ipp.html" target="_top" xlink:title=" ">
<polygon fill="white" stroke="black" points="357,-504.5 357,-523.5 485,-523.5 485,-504.5 357,-504.5"/>
<text text-anchor="middle" x="421" y="-511.5" font-family="Helvetica,sans-Serif" font-size="10.00">ShiftRegisterOutBase.ipp</text>
</a>
</g>
</g>
<!-- Node2&#45;&gt;Node26 -->
<g id="edge37" class="edge"><title>Node2&#45;&gt;Node26</title>
<path fill="none" stroke="midnightblue" d="M393.292,-560.083C395.474,-552.534 400.602,-541.495 406.044,-532.23"/>
<polygon fill="midnightblue" stroke="midnightblue" points="409.031,-534.056 411.493,-523.751 403.142,-530.271 409.031,-534.056"/>
</g>
<!-- Node4 -->
<g id="node4" class="node"><title>Node4</title>
<g id="a_node4"><a xlink:href="../../d4/d57/ExtendedIOElement_8hpp.html" target="_top" xlink:title=" ">
<polygon fill="white" stroke="black" points="268.5,-392.5 268.5,-411.5 391.5,-411.5 391.5,-392.5 268.5,-392.5"/>
<text text-anchor="middle" x="330" y="-399.5" font-family="Helvetica,sans-Serif" font-size="10.00">ExtendedIOElement.hpp</text>
</a>
</g>
</g>
<!-- Node3&#45;&gt;Node4 -->
<g id="edge3" class="edge"><title>Node3&#45;&gt;Node4</title>
<path fill="none" stroke="midnightblue" d="M320.816,-448.083C322.274,-440.927 324.371,-430.635 326.193,-421.691"/>
<polygon fill="midnightblue" stroke="midnightblue" points="329.651,-422.248 328.217,-411.751 322.792,-420.851 329.651,-422.248"/>
</g>
<!-- Node23 -->
<g id="node23" class="node"><title>Node23</title>
<g id="a_node23"><a xlink:href="../../d5/db6/ArrayHelpers_8hpp.html" target="_top" xlink:title=" ">
<polygon fill="white" stroke="black" points="121.5,-392.5 121.5,-411.5 250.5,-411.5 250.5,-392.5 121.5,-392.5"/>
<text text-anchor="middle" x="186" y="-399.5" font-family="Helvetica,sans-Serif" font-size="10.00">Helpers/ArrayHelpers.hpp</text>
</a>
</g>
</g>
<!-- Node3&#45;&gt;Node23 -->
<g id="edge31" class="edge"><title>Node3&#45;&gt;Node23</title>
<path fill="none" stroke="midnightblue" d="M297.926,-448.444C275.94,-439.517 241.266,-425.439 216.336,-415.317"/>
<polygon fill="midnightblue" stroke="midnightblue" points="217.558,-412.035 206.976,-411.516 214.924,-418.521 217.558,-412.035"/>
</g>
<!-- Node5 -->
<g id="node5" class="node"><title>Node5</title>
<g id="a_node5"><a xlink:href="../../d0/d4e/Def_8hpp.html" target="_top" xlink:title=" ">
<polygon fill="white" stroke="black" points="219,-112.5 219,-131.5 289,-131.5 289,-112.5 219,-112.5"/>
<text text-anchor="middle" x="254" y="-119.5" font-family="Helvetica,sans-Serif" font-size="10.00">Def/Def.hpp</text>
</a>
</g>
</g>
<!-- Node4&#45;&gt;Node5 -->
<g id="edge4" class="edge"><title>Node4&#45;&gt;Node5</title>
<path fill="none" stroke="midnightblue" d="M314.337,-392.454C300.058,-384.224 278.836,-370.863 263,-356 217.238,-313.051 197.183,-303.426 177,-244 162.693,-201.876 205.861,-159.614 233.248,-137.923"/>
<polygon fill="midnightblue" stroke="midnightblue" points="235.667,-140.48 241.492,-131.63 231.419,-134.915 235.667,-140.48"/>
</g>
<!-- Node13 -->
<g id="node13" class="node"><title>Node13</title>
<g id="a_node13"><a xlink:href="../../de/dd1/LinkedList_8hpp.html" target="_top" xlink:title=" ">
<polygon fill="white" stroke="black" points="272,-336.5 272,-355.5 388,-355.5 388,-336.5 272,-336.5"/>
<text text-anchor="middle" x="330" y="-343.5" font-family="Helvetica,sans-Serif" font-size="10.00">Helpers/LinkedList.hpp</text>
</a>
</g>
</g>
<!-- Node4&#45;&gt;Node13 -->
<g id="edge16" class="edge"><title>Node4&#45;&gt;Node13</title>
<path fill="none" stroke="midnightblue" d="M330,-392.083C330,-385.006 330,-374.861 330,-365.986"/>
<polygon fill="midnightblue" stroke="midnightblue" points="333.5,-365.751 330,-355.751 326.5,-365.751 333.5,-365.751"/>
</g>
<!-- Node6 -->
<g id="node6" class="node"><title>Node6</title>
<g id="a_node6"><a xlink:href="../../d7/d42/Channel_8hpp.html" target="_top" xlink:title=" ">
<polygon fill="white" stroke="black" points="104.5,-56.5 104.5,-75.5 175.5,-75.5 175.5,-56.5 104.5,-56.5"/>
<text text-anchor="middle" x="140" y="-63.5" font-family="Helvetica,sans-Serif" font-size="10.00">Channel.hpp</text>
</a>
</g>
</g>
<!-- Node5&#45;&gt;Node6 -->
<g id="edge5" class="edge"><title>Node5&#45;&gt;Node6</title>
<path fill="none" stroke="midnightblue" d="M235.936,-112.444C217.425,-103.675 188.419,-89.9355 167.145,-79.8579"/>
<polygon fill="midnightblue" stroke="midnightblue" points="168.515,-76.6343 157.979,-75.5164 165.518,-82.9604 168.515,-76.6343"/>
</g>
<!-- Node7 -->
<g id="node7" class="node"><title>Node7</title>
<g id="a_node7"><a xlink:title=" ">
<polygon fill="white" stroke="#bfbfbf" points="32.5,-0.5 32.5,-19.5 81.5,-19.5 81.5,-0.5 32.5,-0.5"/>
<text text-anchor="middle" x="57" y="-7.5" font-family="Helvetica,sans-Serif" font-size="10.00">stdint.h</text>
</a>
</g>
</g>
<!-- Node5&#45;&gt;Node7 -->
<g id="edge15" class="edge"><title>Node5&#45;&gt;Node7</title>
<path fill="none" stroke="midnightblue" d="M218.678,-118.579C184,-114.586 131.183,-104.011 95,-76 79.5296,-64.0234 69.1596,-43.8327 63.2143,-29.1266"/>
<polygon fill="midnightblue" stroke="midnightblue" points="66.4296,-27.7315 59.6574,-19.5836 59.8703,-30.1763 66.4296,-27.7315"/>
</g>
<!-- Node8 -->
<g id="node8" class="node"><title>Node8</title>
<g id="a_node8"><a xlink:href="../../dc/dc7/NamespaceSettings_8hpp.html" target="_top" xlink:title=" ">
<polygon fill="white" stroke="black" points="187.5,-0.5 187.5,-19.5 350.5,-19.5 350.5,-0.5 187.5,-0.5"/>
<text text-anchor="middle" x="269" y="-7.5" font-family="Helvetica,sans-Serif" font-size="10.00">Settings/NamespaceSettings.hpp</text>
</a>
</g>
</g>
<!-- Node5&#45;&gt;Node8 -->
<g id="edge13" class="edge"><title>Node5&#45;&gt;Node8</title>
<path fill="none" stroke="midnightblue" d="M261.673,-112.459C268.779,-103.927 278.854,-90.0875 283,-76 287.629,-60.2717 282.812,-41.9879 277.606,-28.8257"/>
<polygon fill="midnightblue" stroke="midnightblue" points="280.743,-27.2653 273.52,-19.5145 274.333,-30.0781 280.743,-27.2653"/>
</g>
<!-- Node9 -->
<g id="node9" class="node"><title>Node9</title>
<g id="a_node9"><a xlink:href="../../dc/d50/Frequency_8hpp.html" target="_top" xlink:title=" ">
<polygon fill="white" stroke="black" points="193.5,-56.5 193.5,-75.5 274.5,-75.5 274.5,-56.5 193.5,-56.5"/>
<text text-anchor="middle" x="234" y="-63.5" font-family="Helvetica,sans-Serif" font-size="10.00">Frequency.hpp</text>
</a>
</g>
</g>
<!-- Node5&#45;&gt;Node9 -->
<g id="edge8" class="edge"><title>Node5&#45;&gt;Node9</title>
<path fill="none" stroke="midnightblue" d="M250.697,-112.083C248.018,-104.849 244.151,-94.4087 240.814,-85.3968"/>
<polygon fill="midnightblue" stroke="midnightblue" points="243.996,-83.9129 237.241,-75.7511 237.432,-86.3442 243.996,-83.9129"/>
</g>
<!-- Node10 -->
<g id="node10" class="node"><title>Node10</title>
<g id="a_node10"><a xlink:href="../../de/d76/Array_8hpp.html" target="_top" xlink:title=" ">
<polygon fill="white" stroke="black" points="408.5,-56.5 408.5,-75.5 503.5,-75.5 503.5,-56.5 408.5,-56.5"/>
<text text-anchor="middle" x="456" y="-63.5" font-family="Helvetica,sans-Serif" font-size="10.00">Helpers/Array.hpp</text>
</a>
</g>
</g>
<!-- Node5&#45;&gt;Node10 -->
<g id="edge10" class="edge"><title>Node5&#45;&gt;Node10</title>
<path fill="none" stroke="midnightblue" d="M286.008,-112.444C320.729,-103.162 376.288,-88.3093 414.377,-78.127"/>
<polygon fill="midnightblue" stroke="midnightblue" points="415.385,-81.4803 424.142,-75.5164 413.578,-74.7178 415.385,-81.4803"/>
</g>
<!-- Node12 -->
<g id="node12" class="node"><title>Node12</title>
<g id="a_node12"><a xlink:title=" ">
<polygon fill="white" stroke="#bfbfbf" points="417,-0.5 417,-19.5 469,-19.5 469,-0.5 417,-0.5"/>
<text text-anchor="middle" x="443" y="-7.5" font-family="Helvetica,sans-Serif" font-size="10.00">stddef.h</text>
</a>
</g>
</g>
<!-- Node5&#45;&gt;Node12 -->
<g id="edge14" class="edge"><title>Node5&#45;&gt;Node12</title>
<path fill="none" stroke="midnightblue" d="M268.831,-112.368C301.539,-93.3318 380.088,-47.6153 419.546,-24.6505"/>
<polygon fill="midnightblue" stroke="midnightblue" points="421.356,-27.6466 428.238,-19.5914 417.835,-21.5967 421.356,-27.6466"/>
</g>
<!-- Node6&#45;&gt;Node7 -->
<g id="edge6" class="edge"><title>Node6&#45;&gt;Node7</title>
<path fill="none" stroke="midnightblue" d="M126.665,-56.324C113.838,-47.979 94.215,-35.2122 79.0602,-25.3524"/>
<polygon fill="midnightblue" stroke="midnightblue" points="80.5932,-22.1742 70.3023,-19.6545 76.7757,-28.0417 80.5932,-22.1742"/>
</g>
<!-- Node6&#45;&gt;Node8 -->
<g id="edge7" class="edge"><title>Node6&#45;&gt;Node8</title>
<path fill="none" stroke="midnightblue" d="M160.44,-56.4435C181.67,-47.5566 215.099,-33.5632 239.255,-23.4514"/>
<polygon fill="midnightblue" stroke="midnightblue" points="240.782,-26.6064 248.655,-19.5164 238.079,-20.1493 240.782,-26.6064"/>
</g>
<!-- Node9&#45;&gt;Node8 -->
<g id="edge9" class="edge"><title>Node9&#45;&gt;Node8</title>
<path fill="none" stroke="midnightblue" d="M239.78,-56.083C244.672,-48.5341 251.827,-37.4948 257.833,-28.2298"/>
<polygon fill="midnightblue" stroke="midnightblue" points="260.826,-30.0463 263.328,-19.7511 254.952,-26.239 260.826,-30.0463"/>
</g>
<!-- Node10&#45;&gt;Node11 -->
<g id="edge11" class="edge"><title>Node10&#45;&gt;Node11</title>
<path fill="none" stroke="midnightblue" d="M474.064,-56.4435C492.575,-47.6751 521.581,-33.9355 542.855,-23.8579"/>
<polygon fill="midnightblue" stroke="midnightblue" points="544.482,-26.9604 552.021,-19.5164 541.485,-20.6343 544.482,-26.9604"/>
</g>
<!-- Node10&#45;&gt;Node12 -->
<g id="edge12" class="edge"><title>Node10&#45;&gt;Node12</title>
<path fill="none" stroke="midnightblue" d="M453.853,-56.083C452.131,-48.9272 449.653,-38.6353 447.5,-29.6911"/>
<polygon fill="midnightblue" stroke="midnightblue" points="450.85,-28.6541 445.107,-19.7511 444.045,-30.2925 450.85,-28.6541"/>
</g>
<!-- Node14 -->
<g id="node14" class="node"><title>Node14</title>
<g id="a_node14"><a xlink:href="../../df/dee/Debug_8hpp.html" target="_top" xlink:title=" ">
<polygon fill="white" stroke="black" points="383.5,-280.5 383.5,-299.5 484.5,-299.5 484.5,-280.5 383.5,-280.5"/>
<text text-anchor="middle" x="434" y="-287.5" font-family="Helvetica,sans-Serif" font-size="10.00">Helpers/Debug.hpp</text>
</a>
</g>
</g>
<!-- Node13&#45;&gt;Node14 -->
<g id="edge17" class="edge"><title>Node13&#45;&gt;Node14</title>
<path fill="none" stroke="midnightblue" d="M346.709,-336.324C363.312,-327.703 389.002,-314.364 408.22,-304.386"/>
<polygon fill="midnightblue" stroke="midnightblue" points="410.07,-307.369 417.332,-299.655 406.844,-301.156 410.07,-307.369"/>
</g>
<!-- Node20 -->
<g id="node20" class="node"><title>Node20</title>
<g id="a_node20"><a xlink:title=" ">
<polygon fill="white" stroke="#bfbfbf" points="252,-280.5 252,-299.5 300,-299.5 300,-280.5 252,-280.5"/>
<text text-anchor="middle" x="276" y="-287.5" font-family="Helvetica,sans-Serif" font-size="10.00">stdlib.h</text>
</a>
</g>
</g>
<!-- Node13&#45;&gt;Node20 -->
<g id="edge27" class="edge"><title>Node13&#45;&gt;Node20</title>
<path fill="none" stroke="midnightblue" d="M321.083,-336.083C313.22,-328.22 301.569,-316.569 292.081,-307.081"/>
<polygon fill="midnightblue" stroke="midnightblue" points="294.297,-304.347 284.751,-299.751 289.347,-309.297 294.297,-304.347"/>
</g>
<!-- Node21 -->
<g id="node21" class="node"><title>Node21</title>
<g id="a_node21"><a xlink:href="../../d7/d79/MinMaxFix_8hpp.html" target="_top" xlink:title=" ">
<polygon fill="white" stroke="black" points="496,-224.5 496,-243.5 616,-243.5 616,-224.5 496,-224.5"/>
<text text-anchor="middle" x="556" y="-231.5" font-family="Helvetica,sans-Serif" font-size="10.00">Helpers/MinMaxFix.hpp</text>
</a>
</g>
</g>
<!-- Node13&#45;&gt;Node21 -->
<g id="edge28" class="edge"><title>Node13&#45;&gt;Node21</title>
<path fill="none" stroke="midnightblue" d="M388.025,-336.721C420.563,-330.238 460.93,-319.015 493,-300 513.822,-287.654 532.395,-266.634 543.887,-251.846"/>
<polygon fill="midnightblue" stroke="midnightblue" points="546.888,-253.679 550.085,-243.578 541.286,-249.481 546.888,-253.679"/>
</g>
<!-- Node22 -->
<g id="node22" class="node"><title>Node22</title>
<g id="a_node22"><a xlink:title=" ">
<polygon fill="white" stroke="#bfbfbf" points="318.5,-280.5 318.5,-299.5 365.5,-299.5 365.5,-280.5 318.5,-280.5"/>
<text text-anchor="middle" x="342" y="-287.5" font-family="Helvetica,sans-Serif" font-size="10.00">iterator</text>
</a>
</g>
</g>
<!-- Node13&#45;&gt;Node22 -->
<g id="edge30" class="edge"><title>Node13&#45;&gt;Node22</title>
<path fill="none" stroke="midnightblue" d="M331.982,-336.083C333.572,-328.927 335.859,-318.635 337.846,-309.691"/>
<polygon fill="midnightblue" stroke="midnightblue" points="341.303,-310.272 340.055,-299.751 334.469,-308.754 341.303,-310.272"/>
</g>
<!-- Node15 -->
<g id="node15" class="node"><title>Node15</title>
<g id="a_node15"><a xlink:href="../../d2/dd5/SettingsWrapper_8hpp.html" target="_top" xlink:title=" ">
<polygon fill="white" stroke="black" points="186.5,-224.5 186.5,-243.5 333.5,-243.5 333.5,-224.5 186.5,-224.5"/>
<text text-anchor="middle" x="260" y="-231.5" font-family="Helvetica,sans-Serif" font-size="10.00">Settings/SettingsWrapper.hpp</text>
</a>
</g>
</g>
<!-- Node14&#45;&gt;Node15 -->
<g id="edge18" class="edge"><title>Node14&#45;&gt;Node15</title>
<path fill="none" stroke="midnightblue" d="M401.34,-280.444C369.94,-271.32 323.004,-256.813 291.874,-246.651"/>
<polygon fill="midnightblue" stroke="midnightblue" points="292.955,-243.322 282.362,-243.516 290.764,-249.97 292.955,-243.322"/>
</g>
<!-- Node19 -->
<g id="node19" class="node"><title>Node19</title>
<g id="a_node19"><a xlink:href="../../dd/d80/PrintStream_8hpp.html" target="_top" xlink:title=" ">
<polygon fill="white" stroke="black" points="390.5,-224.5 390.5,-243.5 477.5,-243.5 477.5,-224.5 390.5,-224.5"/>
<text text-anchor="middle" x="434" y="-231.5" font-family="Helvetica,sans-Serif" font-size="10.00">PrintStream.hpp</text>
</a>
</g>
</g>
<!-- Node14&#45;&gt;Node19 -->
<g id="edge25" class="edge"><title>Node14&#45;&gt;Node19</title>
<path fill="none" stroke="midnightblue" d="M434,-280.083C434,-273.006 434,-262.861 434,-253.986"/>
<polygon fill="midnightblue" stroke="midnightblue" points="437.5,-253.751 434,-243.751 430.5,-253.751 437.5,-253.751"/>
</g>
<!-- Node15&#45;&gt;Node8 -->
<g id="edge22" class="edge"><title>Node15&#45;&gt;Node8</title>
<path fill="none" stroke="midnightblue" d="M246.577,-224.471C228.892,-212.135 201.52,-188.54 215,-168 237.062,-134.383 275.938,-165.617 298,-132 316.533,-103.761 307.537,-88.4035 298,-56 294.988,-45.7645 288.845,-35.6599 282.986,-27.627"/>
<polygon fill="midnightblue" stroke="midnightblue" points="285.586,-25.2694 276.673,-19.5413 280.068,-29.5773 285.586,-25.2694"/>
</g>
<!-- Node15&#45;&gt;Node14 -->
<g id="edge24" class="edge"><title>Node15&#45;&gt;Node14</title>
<path fill="none" stroke="midnightblue" d="M292.522,-243.516C323.877,-252.625 370.813,-267.129 401.989,-277.304"/>
<polygon fill="midnightblue" stroke="midnightblue" points="400.925,-280.639 411.518,-280.444 403.115,-273.99 400.925,-280.639"/>
</g>
<!-- Node16 -->
<g id="node16" class="node"><title>Node16</title>
<g id="a_node16"><a xlink:href="../../db/d02/Settings_8hpp.html" target="_top" xlink:title="All user settings and debugging options can be changed here.">
<polygon fill="white" stroke="black" points="394.5,-168.5 394.5,-187.5 465.5,-187.5 465.5,-168.5 394.5,-168.5"/>
<text text-anchor="middle" x="430" y="-175.5" font-family="Helvetica,sans-Serif" font-size="10.00">Settings.hpp</text>
</a>
</g>
</g>
<!-- Node15&#45;&gt;Node16 -->
<g id="edge19" class="edge"><title>Node15&#45;&gt;Node16</title>
<path fill="none" stroke="midnightblue" d="M286.937,-224.444C315.66,-215.32 361.329,-200.813 393.321,-190.651"/>
<polygon fill="midnightblue" stroke="midnightblue" points="394.718,-193.88 403.189,-187.516 392.599,-187.208 394.718,-193.88"/>
</g>
<!-- Node18 -->
<g id="node18" class="node"><title>Node18</title>
<g id="a_node18"><a xlink:href="../../d9/d98/TeensyUSBTypes_8hpp.html" target="_top" xlink:title=" ">
<polygon fill="white" stroke="black" points="224,-168.5 224,-187.5 376,-187.5 376,-168.5 224,-168.5"/>
<text text-anchor="middle" x="300" y="-175.5" font-family="Helvetica,sans-Serif" font-size="10.00">Helpers/TeensyUSBTypes.hpp</text>
</a>
</g>
</g>
<!-- Node15&#45;&gt;Node18 -->
<g id="edge23" class="edge"><title>Node15&#45;&gt;Node18</title>
<path fill="none" stroke="midnightblue" d="M266.605,-224.083C272.255,-216.455 280.545,-205.264 287.451,-195.941"/>
<polygon fill="midnightblue" stroke="midnightblue" points="290.378,-197.87 293.518,-187.751 284.753,-193.703 290.378,-197.87"/>
</g>
<!-- Node16&#45;&gt;Node5 -->
<g id="edge20" class="edge"><title>Node16&#45;&gt;Node5</title>
<path fill="none" stroke="midnightblue" d="M402.112,-168.444C372.246,-159.28 324.685,-144.688 291.544,-134.519"/>
<polygon fill="midnightblue" stroke="midnightblue" points="292.344,-131.104 281.757,-131.516 290.291,-137.796 292.344,-131.104"/>
</g>
<!-- Node17 -->
<g id="node17" class="node"><title>Node17</title>
<g id="a_node17"><a xlink:title=" ">
<polygon fill="white" stroke="#bfbfbf" points="406,-112.5 406,-131.5 454,-131.5 454,-112.5 406,-112.5"/>
<text text-anchor="middle" x="430" y="-119.5" font-family="Helvetica,sans-Serif" font-size="10.00">limits.h</text>
</a>
</g>
</g>
<!-- Node16&#45;&gt;Node17 -->
<g id="edge21" class="edge"><title>Node16&#45;&gt;Node17</title>
<path fill="none" stroke="midnightblue" d="M430,-168.083C430,-161.006 430,-150.861 430,-141.986"/>
<polygon fill="midnightblue" stroke="midnightblue" points="433.5,-141.751 430,-131.751 426.5,-141.751 433.5,-141.751"/>
</g>
<!-- Node19&#45;&gt;Node11 -->
<g id="edge26" class="edge"><title>Node19&#45;&gt;Node11</title>
<path fill="none" stroke="midnightblue" d="M456.274,-224.359C472.663,-216.962 494.374,-204.827 508,-188 528.415,-162.789 554.613,-69.5853 565.222,-29.5121"/>
<polygon fill="midnightblue" stroke="midnightblue" points="568.639,-30.2792 567.784,-19.719 561.867,-28.508 568.639,-30.2792"/>
</g>
<!-- Node21&#45;&gt;Node11 -->
<g id="edge29" class="edge"><title>Node21&#45;&gt;Node11</title>
<path fill="none" stroke="midnightblue" d="M556.549,-224.297C558.609,-191.633 565.909,-75.8661 568.804,-29.9573"/>
<polygon fill="midnightblue" stroke="midnightblue" points="572.303,-30.0842 569.44,-19.8837 565.317,-29.6436 572.303,-30.0842"/>
</g>
<!-- Node23&#45;&gt;Node10 -->
<g id="edge32" class="edge"><title>Node23&#45;&gt;Node10</title>
<path fill="none" stroke="midnightblue" d="M187.698,-392.327C192.438,-370.376 207.836,-312.086 243,-280 277.585,-248.442 299.086,-262.719 342,-244 359.855,-236.212 363.226,-231.971 381,-224 421.441,-205.863 448.947,-224.562 474,-188 495.524,-156.588 478.069,-109.822 465.676,-84.6184"/>
<polygon fill="midnightblue" stroke="midnightblue" points="468.67,-82.7892 460.958,-75.5252 462.457,-86.0134 468.67,-82.7892"/>
</g>
<!-- Node24&#45;&gt;Node7 -->
<g id="edge36" class="edge"><title>Node24&#45;&gt;Node7</title>
<path fill="none" stroke="midnightblue" d="M193.405,-511.937C120.76,-507.327 0,-487.026 0,-403 0,-403 0,-403 0,-121 0,-84.3005 25.321,-47.6567 42.2099,-27.2973"/>
<polygon fill="midnightblue" stroke="midnightblue" points="44.9535,-29.475 48.8333,-19.6161 39.6522,-24.9037 44.9535,-29.475"/>
</g>
<!-- Node25 -->
<g id="node25" class="node"><title>Node25</title>
<g id="a_node25"><a xlink:href="../../d1/d93/Error_8hpp.html" target="_top" xlink:title=" ">
<polygon fill="white" stroke="black" points="405.5,-336.5 405.5,-355.5 498.5,-355.5 498.5,-336.5 405.5,-336.5"/>
<text text-anchor="middle" x="452" y="-343.5" font-family="Helvetica,sans-Serif" font-size="10.00">Helpers/Error.hpp</text>
</a>
</g>
</g>
<!-- Node24&#45;&gt;Node25 -->
<g id="edge34" class="edge"><title>Node24&#45;&gt;Node25</title>
<path fill="none" stroke="midnightblue" d="M300.513,-511.147C336.313,-507.148 382.161,-496.298 412,-468 440.668,-440.813 448.804,-392.678 451.104,-366.049"/>
<polygon fill="midnightblue" stroke="midnightblue" points="454.615,-365.988 451.788,-355.777 447.631,-365.522 454.615,-365.988"/>
</g>
<!-- Node25&#45;&gt;Node14 -->
<g id="edge35" class="edge"><title>Node25&#45;&gt;Node14</title>
<path fill="none" stroke="midnightblue" d="M449.028,-336.083C446.616,-328.849 443.136,-318.409 440.132,-309.397"/>
<polygon fill="midnightblue" stroke="midnightblue" points="443.4,-308.131 436.917,-299.751 436.759,-310.345 443.4,-308.131"/>
</g>
<!-- Node26&#45;&gt;Node2 -->
<g id="edge41" class="edge"><title>Node26&#45;&gt;Node2</title>
<path fill="none" stroke="midnightblue" d="M421.755,-523.751C419.617,-531.248 414.513,-542.275 409.076,-551.566"/>
<polygon fill="midnightblue" stroke="midnightblue" points="406.067,-549.774 403.625,-560.083 411.963,-553.547 406.067,-549.774"/>
</g>
<!-- Node27 -->
<g id="node27" class="node"><title>Node27</title>
<g id="a_node27"><a xlink:href="../../dd/ddf/ExtendedInputOutput_8hpp.html" target="_top" xlink:title=" ">
<polygon fill="white" stroke="black" points="459,-448.5 459,-467.5 587,-467.5 587,-448.5 459,-448.5"/>
<text text-anchor="middle" x="523" y="-455.5" font-family="Helvetica,sans-Serif" font-size="10.00">ExtendedInputOutput.hpp</text>
</a>
</g>
</g>
<!-- Node26&#45;&gt;Node27 -->
<g id="edge38" class="edge"><title>Node26&#45;&gt;Node27</title>
<path fill="none" stroke="midnightblue" d="M437.388,-504.324C453.671,-495.703 478.867,-482.364 497.716,-472.386"/>
<polygon fill="midnightblue" stroke="midnightblue" points="499.452,-475.427 506.653,-467.655 496.177,-469.24 499.452,-475.427"/>
</g>
<!-- Node28 -->
<g id="node28" class="node"><title>Node28</title>
<g id="a_node28"><a xlink:href="../../d1/d1f/ShiftRegisterOutRGB_8hpp.html" target="_top" xlink:title=" ">
<polygon fill="white" stroke="black" points="28,-280.5 28,-299.5 158,-299.5 158,-280.5 28,-280.5"/>
<text text-anchor="middle" x="93" y="-287.5" font-family="Helvetica,sans-Serif" font-size="10.00">ShiftRegisterOutRGB.hpp</text>
</a>
</g>
</g>
<!-- Node26&#45;&gt;Node28 -->
<g id="edge42" class="edge"><title>Node26&#45;&gt;Node28</title>
<path fill="none" stroke="midnightblue" d="M373.837,-504.448C295.363,-489.161 143.468,-454.712 112,-412 89.6867,-381.714 89.139,-335.504 90.9305,-309.841"/>
<polygon fill="midnightblue" stroke="midnightblue" points="94.4392,-309.899 91.8484,-299.626 87.4673,-309.273 94.4392,-309.899"/>
</g>
<!-- Node27&#45;&gt;Node4 -->
<g id="edge39" class="edge"><title>Node27&#45;&gt;Node4</title>
<path fill="none" stroke="midnightblue" d="M492.419,-448.444C459.385,-439.201 406.612,-424.436 370.234,-414.257"/>
<polygon fill="midnightblue" stroke="midnightblue" points="371.012,-410.84 360.438,-411.516 369.125,-417.582 371.012,-410.84"/>
</g>
<!-- Node27&#45;&gt;Node11 -->
<g id="edge40" class="edge"><title>Node27&#45;&gt;Node11</title>
<path fill="none" stroke="midnightblue" d="M545.759,-448.43C580.81,-433.579 644,-399.522 644,-347 644,-347 644,-347 644,-121 644,-81.6105 610.93,-45.7264 589.004,-26.264"/>
<polygon fill="midnightblue" stroke="midnightblue" points="591.117,-23.466 581.239,-19.6358 586.573,-28.7902 591.117,-23.466"/>
</g>
<!-- Node28&#45;&gt;Node7 -->
<g id="edge43" class="edge"><title>Node28&#45;&gt;Node7</title>
<path fill="none" stroke="midnightblue" d="M85.1198,-280.332C69.9118,-262.665 38,-220.635 38,-179 38,-179 38,-179 38,-121 38,-88.4885 46.159,-51.3503 51.7838,-29.6103"/>
<polygon fill="midnightblue" stroke="midnightblue" points="55.218,-30.3175 54.4376,-19.7514 48.4586,-28.498 55.218,-30.3175"/>
</g>
<!-- Node28&#45;&gt;Node15 -->
<g id="edge44" class="edge"><title>Node28&#45;&gt;Node15</title>
<path fill="none" stroke="midnightblue" d="M119.462,-280.444C147.678,-271.32 192.54,-256.813 223.968,-246.651"/>
<polygon fill="midnightblue" stroke="midnightblue" points="225.224,-249.923 233.662,-243.516 223.07,-243.263 225.224,-249.923"/>
</g>
<!-- Node29&#45;&gt;Node1 -->
<g id="edge48" class="edge"><title>Node29&#45;&gt;Node1</title>
<path fill="none" stroke="midnightblue" d="M544.131,-579.751C545.657,-586.858 546.104,-597.136 545.472,-606.101"/>
<polygon fill="midnightblue" stroke="midnightblue" points="541.993,-605.713 544.166,-616.083 548.934,-606.622 541.993,-605.713"/>
</g>
<!-- Node29&#45;&gt;Node27 -->
<g id="edge49" class="edge"><title>Node29&#45;&gt;Node27</title>
<path fill="none" stroke="midnightblue" d="M537.745,-560.368C535.162,-542.617 529.206,-501.666 525.705,-477.597"/>
<polygon fill="midnightblue" stroke="midnightblue" points="529.153,-476.983 524.25,-467.591 522.226,-477.991 529.153,-476.983"/>
</g>
<!-- Node30 -->
<g id="node30" class="node"><title>Node30</title>
<g id="a_node30"><a xlink:title=" ">
<polygon fill="white" stroke="#bfbfbf" points="551.5,-504.5 551.5,-523.5 592.5,-523.5 592.5,-504.5 551.5,-504.5"/>
<text text-anchor="middle" x="572" y="-511.5" font-family="Helvetica,sans-Serif" font-size="10.00">SPI.h</text>
</a>
</g>
</g>
<!-- Node29&#45;&gt;Node30 -->
<g id="edge50" class="edge"><title>Node29&#45;&gt;Node30</title>
<path fill="none" stroke="midnightblue" d="M544.449,-560.083C549.014,-552.613 555.668,-541.724 561.293,-532.52"/>
<polygon fill="midnightblue" stroke="midnightblue" points="564.424,-534.109 566.652,-523.751 558.451,-530.459 564.424,-534.109"/>
</g>
</g>
</svg>
