<?xml version="1.0" encoding="UTF-8" standalone="no"?>
<!DOCTYPE svg PUBLIC "-//W3C//DTD SVG 1.1//EN"
 "http://www.w3.org/Graphics/SVG/1.1/DTD/svg11.dtd">
<!-- Generated by graphviz version 2.38.0 (20140413.2041)
 -->
<!-- Title: NoteButtons.hpp Pages: 1 -->
<svg width="1554pt" height="688pt"
 viewBox="0.00 0.00 1554.00 688.00" xmlns="http://www.w3.org/2000/svg" xmlns:xlink="http://www.w3.org/1999/xlink">
<g id="graph0" class="graph" transform="scale(1 1) rotate(0) translate(4 684)">
<title>NoteButtons.hpp</title>
<polygon fill="white" stroke="none" points="-4,4 -4,-684 1550,-684 1550,4 -4,4"/>
<!-- Node0 -->
<g id="node1" class="node"><title>Node0</title>
<g id="a_node1"><a xlink:title=" ">
<polygon fill="#bfbfbf" stroke="black" points="551,-660.5 551,-679.5 641,-679.5 641,-660.5 551,-660.5"/>
<text text-anchor="middle" x="596" y="-667.5" font-family="Helvetica,sans-Serif" font-size="10.00">NoteButtons.hpp</text>
</a>
</g>
</g>
<!-- Node1 -->
<g id="node2" class="node"><title>Node1</title>
<g id="a_node2"><a xlink:href="../../d9/df7/Bankable_2Abstract_2MIDIButtons_8hpp.html" target="_top" xlink:title=" ">
<polygon fill="white" stroke="black" points="700,-593.5 700,-623.5 834,-623.5 834,-593.5 700,-593.5"/>
<text text-anchor="start" x="708" y="-611.5" font-family="Helvetica,sans-Serif" font-size="10.00">MIDI_Outputs/Bankable</text>
<text text-anchor="middle" x="767" y="-600.5" font-family="Helvetica,sans-Serif" font-size="10.00">/Abstract/MIDIButtons.hpp</text>
</a>
</g>
</g>
<!-- Node0&#45;&gt;Node1 -->
<g id="edge1" class="edge"><title>Node0&#45;&gt;Node1</title>
<path fill="none" stroke="midnightblue" d="M620.5,-660.475C645.608,-651.739 685.359,-637.907 717.123,-626.855"/>
<polygon fill="midnightblue" stroke="midnightblue" points="718.404,-630.115 726.699,-623.523 716.104,-623.504 718.404,-630.115"/>
</g>
<!-- Node30 -->
<g id="node31" class="node"><title>Node30</title>
<g id="a_node31"><a xlink:href="../../d1/daa/DigitalNoteSender_8hpp.html" target="_top" xlink:title=" ">
<polygon fill="white" stroke="black" points="359.5,-593.5 359.5,-623.5 490.5,-623.5 490.5,-593.5 359.5,-593.5"/>
<text text-anchor="start" x="367.5" y="-611.5" font-family="Helvetica,sans-Serif" font-size="10.00">MIDI_Senders/DigitalNote</text>
<text text-anchor="middle" x="425" y="-600.5" font-family="Helvetica,sans-Serif" font-size="10.00">Sender.hpp</text>
</a>
</g>
</g>
<!-- Node0&#45;&gt;Node30 -->
<g id="edge61" class="edge"><title>Node0&#45;&gt;Node30</title>
<path fill="none" stroke="midnightblue" d="M571.5,-660.475C546.392,-651.739 506.641,-637.907 474.877,-626.855"/>
<polygon fill="midnightblue" stroke="midnightblue" points="475.896,-623.504 465.301,-623.523 473.596,-630.115 475.896,-623.504"/>
</g>
<!-- Node2 -->
<g id="node3" class="node"><title>Node2</title>
<g id="a_node3"><a xlink:href="../../db/df2/BankableMIDIOutput_8hpp.html" target="_top" xlink:title=" ">
<polygon fill="white" stroke="black" points="987,-532 987,-551 1145,-551 1145,-532 987,-532"/>
<text text-anchor="middle" x="1066" y="-539" font-family="Helvetica,sans-Serif" font-size="10.00">Banks/BankableMIDIOutput.hpp</text>
</a>
</g>
</g>
<!-- Node1&#45;&gt;Node2 -->
<g id="edge2" class="edge"><title>Node1&#45;&gt;Node2</title>
<path fill="none" stroke="midnightblue" d="M831.51,-593.476C887.082,-581.395 966.113,-564.215 1016.73,-553.211"/>
<polygon fill="midnightblue" stroke="midnightblue" points="1017.74,-556.573 1026.77,-551.029 1016.25,-549.733 1017.74,-556.573"/>
</g>
<!-- Node7 -->
<g id="node8" class="node"><title>Node7</title>
<g id="a_node8"><a xlink:href="../../d0/d4e/Def_8hpp.html" target="_top" xlink:title=" ">
<polygon fill="white" stroke="black" points="873,-112.5 873,-131.5 943,-131.5 943,-112.5 873,-112.5"/>
<text text-anchor="middle" x="908" y="-119.5" font-family="Helvetica,sans-Serif" font-size="10.00">Def/Def.hpp</text>
</a>
</g>
</g>
<!-- Node1&#45;&gt;Node7 -->
<g id="edge43" class="edge"><title>Node1&#45;&gt;Node7</title>
<path fill="none" stroke="midnightblue" d="M699.774,-603.301C553.327,-593.948 214.527,-571.113 164,-557 85.6076,-535.103 0,-556.893 0,-475.5 0,-475.5 0,-475.5 0,-233 0,-192.145 27.6851,-184.635 65,-168 137.943,-135.481 697.784,-125.715 862.533,-123.531"/>
<polygon fill="midnightblue" stroke="midnightblue" points="862.85,-127.028 872.804,-123.398 862.759,-120.028 862.85,-127.028"/>
</g>
<!-- Node11 -->
<g id="node12" class="node"><title>Node11</title>
<g id="a_node12"><a xlink:href="../../de/d76/Array_8hpp.html" target="_top" xlink:title=" ">
<polygon fill="white" stroke="black" points="1308.5,-56.5 1308.5,-75.5 1403.5,-75.5 1403.5,-56.5 1308.5,-56.5"/>
<text text-anchor="middle" x="1356" y="-63.5" font-family="Helvetica,sans-Serif" font-size="10.00">Helpers/Array.hpp</text>
</a>
</g>
</g>
<!-- Node1&#45;&gt;Node11 -->
<g id="edge51" class="edge"><title>Node1&#45;&gt;Node11</title>
<path fill="none" stroke="midnightblue" d="M834.091,-603.175C1023.05,-590.103 1546,-547.429 1546,-475.5 1546,-475.5 1546,-475.5 1546,-177 1546,-115.155 1469.67,-87.5169 1413.77,-75.5688"/>
<polygon fill="midnightblue" stroke="midnightblue" points="1414.44,-72.1332 1403.95,-73.5824 1413.05,-78.9944 1414.44,-72.1332"/>
</g>
<!-- Node25 -->
<g id="node26" class="node"><title>Node25</title>
<g id="a_node26"><a xlink:href="../../d4/db3/Button_8hpp.html" target="_top" xlink:title=" ">
<polygon fill="white" stroke="black" points="607.5,-532 607.5,-551 716.5,-551 716.5,-532 607.5,-532"/>
<text text-anchor="middle" x="662" y="-539" font-family="Helvetica,sans-Serif" font-size="10.00">Hardware/Button.hpp</text>
</a>
</g>
</g>
<!-- Node1&#45;&gt;Node25 -->
<g id="edge44" class="edge"><title>Node1&#45;&gt;Node25</title>
<path fill="none" stroke="midnightblue" d="M744.217,-593.396C726.445,-582.395 701.9,-567.2 684.263,-556.282"/>
<polygon fill="midnightblue" stroke="midnightblue" points="686.087,-553.295 675.742,-551.007 682.402,-559.247 686.087,-553.295"/>
</g>
<!-- Node28 -->
<g id="node29" class="node"><title>Node28</title>
<g id="a_node29"><a xlink:href="../../d1/d41/MIDIOutputElement_8hpp.html" target="_top" xlink:title=" ">
<polygon fill="white" stroke="black" points="785.5,-459.5 785.5,-489.5 910.5,-489.5 910.5,-459.5 785.5,-459.5"/>
<text text-anchor="start" x="793.5" y="-477.5" font-family="Helvetica,sans-Serif" font-size="10.00">MIDI_Outputs/Abstract</text>
<text text-anchor="middle" x="848" y="-466.5" font-family="Helvetica,sans-Serif" font-size="10.00">/MIDIOutputElement.hpp</text>
</a>
</g>
</g>
<!-- Node1&#45;&gt;Node28 -->
<g id="edge52" class="edge"><title>Node1&#45;&gt;Node28</title>
<path fill="none" stroke="midnightblue" d="M775.668,-593.374C789.614,-570.647 817.164,-525.752 833.947,-498.402"/>
<polygon fill="midnightblue" stroke="midnightblue" points="837.147,-499.879 839.394,-489.525 831.181,-496.217 837.147,-499.879"/>
</g>
<!-- Node3 -->
<g id="node4" class="node"><title>Node3</title>
<g id="a_node4"><a xlink:href="../../d4/d57/Bank_8hpp.html" target="_top" xlink:title=" ">
<polygon fill="white" stroke="black" points="986,-465 986,-484 1044,-484 1044,-465 986,-465"/>
<text text-anchor="middle" x="1015" y="-472" font-family="Helvetica,sans-Serif" font-size="10.00">Bank.hpp</text>
</a>
</g>
</g>
<!-- Node2&#45;&gt;Node3 -->
<g id="edge3" class="edge"><title>Node2&#45;&gt;Node3</title>
<path fill="none" stroke="midnightblue" d="M1059.12,-531.734C1051.17,-521.598 1037.9,-504.69 1027.99,-492.056"/>
<polygon fill="midnightblue" stroke="midnightblue" points="1030.7,-489.834 1021.77,-484.127 1025.19,-494.155 1030.7,-489.834"/>
</g>
<!-- Node23 -->
<g id="node24" class="node"><title>Node23</title>
<g id="a_node24"><a xlink:href="../../dd/d1f/BankConfig_8hpp.html" target="_top" xlink:title=" ">
<polygon fill="white" stroke="black" points="1280,-336.5 1280,-355.5 1366,-355.5 1366,-336.5 1280,-336.5"/>
<text text-anchor="middle" x="1323" y="-343.5" font-family="Helvetica,sans-Serif" font-size="10.00">BankConfig.hpp</text>
</a>
</g>
</g>
<!-- Node2&#45;&gt;Node23 -->
<g id="edge41" class="edge"><title>Node2&#45;&gt;Node23</title>
<path fill="none" stroke="midnightblue" d="M1091.27,-531.883C1134.46,-516.11 1223.3,-478.984 1280,-423 1296.81,-406.399 1309.09,-381.842 1316.13,-365.169"/>
<polygon fill="midnightblue" stroke="midnightblue" points="1319.52,-366.099 1319.99,-355.515 1313.02,-363.501 1319.52,-366.099"/>
</g>
<!-- Node24 -->
<g id="node25" class="node"><title>Node24</title>
<g id="a_node25"><a xlink:href="../../d8/d38/MIDICNChannelAddress_8hpp.html" target="_top" xlink:title=" ">
<polygon fill="white" stroke="black" points="936.5,-336.5 936.5,-355.5 1099.5,-355.5 1099.5,-336.5 936.5,-336.5"/>
<text text-anchor="middle" x="1018" y="-343.5" font-family="Helvetica,sans-Serif" font-size="10.00">Def/MIDICNChannelAddress.hpp</text>
</a>
</g>
</g>
<!-- Node2&#45;&gt;Node24 -->
<g id="edge42" class="edge"><title>Node2&#45;&gt;Node24</title>
<path fill="none" stroke="midnightblue" d="M1071.98,-531.789C1087.66,-507.788 1126.86,-439.345 1099,-392 1090.08,-376.844 1074.01,-366.426 1058.52,-359.464"/>
<polygon fill="midnightblue" stroke="midnightblue" points="1059.6,-356.124 1049.02,-355.564 1056.94,-362.6 1059.6,-356.124"/>
</g>
<!-- Node4 -->
<g id="node5" class="node"><title>Node4</title>
<g id="a_node5"><a xlink:href="../../df/dee/Debug_8hpp.html" target="_top" xlink:title=" ">
<polygon fill="white" stroke="black" points="432.5,-280.5 432.5,-299.5 533.5,-299.5 533.5,-280.5 432.5,-280.5"/>
<text text-anchor="middle" x="483" y="-287.5" font-family="Helvetica,sans-Serif" font-size="10.00">Helpers/Debug.hpp</text>
</a>
</g>
</g>
<!-- Node3&#45;&gt;Node4 -->
<g id="edge4" class="edge"><title>Node3&#45;&gt;Node4</title>
<path fill="none" stroke="midnightblue" d="M985.652,-468.589C966.678,-465.532 941.426,-461.685 919,-459 874.033,-453.616 547.111,-452.79 513,-423 480.496,-394.614 479.187,-339.036 481.044,-309.879"/>
<polygon fill="midnightblue" stroke="midnightblue" points="484.542,-310.047 481.885,-299.79 477.566,-309.465 484.542,-310.047"/>
</g>
<!-- Node9 -->
<g id="node10" class="node"><title>Node9</title>
<g id="a_node10"><a xlink:title=" ">
<polygon fill="white" stroke="#bfbfbf" points="915.5,-0.5 915.5,-19.5 964.5,-19.5 964.5,-0.5 915.5,-0.5"/>
<text text-anchor="middle" x="940" y="-7.5" font-family="Helvetica,sans-Serif" font-size="10.00">stdint.h</text>
</a>
</g>
</g>
<!-- Node3&#45;&gt;Node9 -->
<g id="edge32" class="edge"><title>Node3&#45;&gt;Node9</title>
<path fill="none" stroke="midnightblue" d="M1044.15,-471.333C1093.96,-466.895 1197.99,-454.402 1280,-423 1338.54,-400.586 1404.06,-397.305 1391,-336 1352.79,-156.664 1256.84,-127.525 1088,-56 1050.23,-39.9998 1004.85,-27.0737 974.381,-19.2489"/>
<polygon fill="midnightblue" stroke="midnightblue" points="975.205,-15.8473 964.653,-16.7938 973.492,-22.6345 975.205,-15.8473"/>
</g>
<!-- Node12 -->
<g id="node13" class="node"><title>Node12</title>
<g id="a_node13"><a xlink:title=" ">
<polygon fill="white" stroke="#bfbfbf" points="1330,-0.5 1330,-19.5 1382,-19.5 1382,-0.5 1330,-0.5"/>
<text text-anchor="middle" x="1356" y="-7.5" font-family="Helvetica,sans-Serif" font-size="10.00">stddef.h</text>
</a>
</g>
</g>
<!-- Node3&#45;&gt;Node12 -->
<g id="edge31" class="edge"><title>Node3&#45;&gt;Node12</title>
<path fill="none" stroke="midnightblue" d="M1044.15,-471.733C1144.58,-464.863 1470,-435.753 1470,-347 1470,-347 1470,-347 1470,-121 1470,-74.1149 1419.45,-40.8944 1385.67,-23.9302"/>
<polygon fill="midnightblue" stroke="midnightblue" points="1387.17,-20.7687 1376.64,-19.5787 1384.13,-27.0742 1387.17,-20.7687"/>
</g>
<!-- Node17 -->
<g id="node18" class="node"><title>Node17</title>
<g id="a_node18"><a xlink:href="../../d1/d93/Error_8hpp.html" target="_top" xlink:title=" ">
<polygon fill="white" stroke="black" points="634.5,-336.5 634.5,-355.5 727.5,-355.5 727.5,-336.5 634.5,-336.5"/>
<text text-anchor="middle" x="681" y="-343.5" font-family="Helvetica,sans-Serif" font-size="10.00">Helpers/Error.hpp</text>
</a>
</g>
</g>
<!-- Node3&#45;&gt;Node17 -->
<g id="edge20" class="edge"><title>Node3&#45;&gt;Node17</title>
<path fill="none" stroke="midnightblue" d="M985.82,-468.836C912.572,-457.084 726.382,-426.909 721,-423 701.819,-409.067 691.034,-383.124 685.615,-365.464"/>
<polygon fill="midnightblue" stroke="midnightblue" points="688.957,-364.418 682.907,-355.72 682.212,-366.292 688.957,-364.418"/>
</g>
<!-- Node18 -->
<g id="node19" class="node"><title>Node18</title>
<g id="a_node19"><a xlink:href="../../de/dd1/LinkedList_8hpp.html" target="_top" xlink:title=" ">
<polygon fill="white" stroke="black" points="333,-336.5 333,-355.5 449,-355.5 449,-336.5 333,-336.5"/>
<text text-anchor="middle" x="391" y="-343.5" font-family="Helvetica,sans-Serif" font-size="10.00">Helpers/LinkedList.hpp</text>
</a>
</g>
</g>
<!-- Node3&#45;&gt;Node18 -->
<g id="edge22" class="edge"><title>Node3&#45;&gt;Node18</title>
<path fill="none" stroke="midnightblue" d="M985.658,-468.538C966.686,-465.462 941.435,-461.611 919,-459 821.773,-447.684 570.372,-460.603 480,-423 463.532,-416.148 427.791,-382.948 406.958,-362.763"/>
<polygon fill="midnightblue" stroke="midnightblue" points="409.374,-360.23 399.775,-355.746 404.483,-365.237 409.374,-360.23"/>
</g>
<!-- Node20 -->
<g id="node21" class="node"><title>Node20</title>
<g id="a_node21"><a xlink:href="../../d9/d46/Selectable_8hpp.html" target="_top" xlink:title=" ">
<polygon fill="white" stroke="black" points="1146.5,-398 1146.5,-417 1271.5,-417 1271.5,-398 1146.5,-398"/>
<text text-anchor="middle" x="1209" y="-405" font-family="Helvetica,sans-Serif" font-size="10.00">Selectors/Selectable.hpp</text>
</a>
</g>
</g>
<!-- Node3&#45;&gt;Node20 -->
<g id="edge26" class="edge"><title>Node3&#45;&gt;Node20</title>
<path fill="none" stroke="midnightblue" d="M1040.76,-464.869C1074.92,-453.424 1135.34,-433.181 1173.71,-420.322"/>
<polygon fill="midnightblue" stroke="midnightblue" points="1175.07,-423.559 1183.44,-417.064 1172.85,-416.922 1175.07,-423.559"/>
</g>
<!-- Node22 -->
<g id="node23" class="node"><title>Node22</title>
<g id="a_node23"><a xlink:href="../../de/d6e/BankableMIDIInput_8hpp.html" target="_top" xlink:title=" ">
<polygon fill="white" stroke="black" points="940,-398 940,-417 1090,-417 1090,-398 940,-398"/>
<text text-anchor="middle" x="1015" y="-405" font-family="Helvetica,sans-Serif" font-size="10.00">Banks/BankableMIDIInput.hpp</text>
</a>
</g>
</g>
<!-- Node3&#45;&gt;Node22 -->
<g id="edge33" class="edge"><title>Node3&#45;&gt;Node22</title>
<path fill="none" stroke="midnightblue" d="M1010.21,-464.734C1008.2,-455.183 1007.74,-439.618 1008.82,-427.283"/>
<polygon fill="midnightblue" stroke="midnightblue" points="1012.32,-427.517 1010.24,-417.127 1005.38,-426.544 1012.32,-427.517"/>
</g>
<!-- Node5 -->
<g id="node6" class="node"><title>Node5</title>
<g id="a_node6"><a xlink:href="../../d2/dd5/SettingsWrapper_8hpp.html" target="_top" xlink:title=" ">
<polygon fill="white" stroke="black" points="563.5,-224.5 563.5,-243.5 710.5,-243.5 710.5,-224.5 563.5,-224.5"/>
<text text-anchor="middle" x="637" y="-231.5" font-family="Helvetica,sans-Serif" font-size="10.00">Settings/SettingsWrapper.hpp</text>
</a>
</g>
</g>
<!-- Node4&#45;&gt;Node5 -->
<g id="edge5" class="edge"><title>Node4&#45;&gt;Node5</title>
<path fill="none" stroke="midnightblue" d="M502.313,-280.444C526.332,-271.32 567.509,-256.813 598.105,-246.651"/>
<polygon fill="midnightblue" stroke="midnightblue" points="599.227,-249.966 607.632,-243.516 597.039,-243.317 599.227,-249.966"/>
</g>
<!-- Node14 -->
<g id="node15" class="node"><title>Node14</title>
<g id="a_node15"><a xlink:title=" ">
<polygon fill="white" stroke="#bfbfbf" points="459,-224.5 459,-243.5 507,-243.5 507,-224.5 459,-224.5"/>
<text text-anchor="middle" x="483" y="-231.5" font-family="Helvetica,sans-Serif" font-size="10.00">stdlib.h</text>
</a>
</g>
</g>
<!-- Node4&#45;&gt;Node14 -->
<g id="edge17" class="edge"><title>Node4&#45;&gt;Node14</title>
<path fill="none" stroke="midnightblue" d="M483,-280.083C483,-273.006 483,-262.861 483,-253.986"/>
<polygon fill="midnightblue" stroke="midnightblue" points="486.5,-253.751 483,-243.751 479.5,-253.751 486.5,-253.751"/>
</g>
<!-- Node15 -->
<g id="node16" class="node"><title>Node15</title>
<g id="a_node16"><a xlink:href="../../dd/d80/PrintStream_8hpp.html" target="_top" xlink:title=" ">
<polygon fill="white" stroke="black" points="291.5,-224.5 291.5,-243.5 378.5,-243.5 378.5,-224.5 291.5,-224.5"/>
<text text-anchor="middle" x="335" y="-231.5" font-family="Helvetica,sans-Serif" font-size="10.00">PrintStream.hpp</text>
</a>
</g>
</g>
<!-- Node4&#45;&gt;Node15 -->
<g id="edge18" class="edge"><title>Node4&#45;&gt;Node15</title>
<path fill="none" stroke="midnightblue" d="M459.549,-280.444C434.867,-271.438 395.815,-257.189 368.023,-247.049"/>
<polygon fill="midnightblue" stroke="midnightblue" points="368.935,-243.656 358.341,-243.516 366.536,-250.232 368.935,-243.656"/>
</g>
<!-- Node5&#45;&gt;Node4 -->
<g id="edge16" class="edge"><title>Node5&#45;&gt;Node4</title>
<path fill="none" stroke="midnightblue" d="M617.792,-243.516C593.824,-252.625 552.657,-267.129 522.029,-277.304"/>
<polygon fill="midnightblue" stroke="midnightblue" points="520.895,-273.993 512.491,-280.444 523.084,-280.642 520.895,-273.993"/>
</g>
<!-- Node6 -->
<g id="node7" class="node"><title>Node6</title>
<g id="a_node7"><a xlink:href="../../db/d02/Settings_8hpp.html" target="_top" xlink:title="All user settings and debugging options can be changed here.">
<polygon fill="white" stroke="black" points="563.5,-168.5 563.5,-187.5 634.5,-187.5 634.5,-168.5 563.5,-168.5"/>
<text text-anchor="middle" x="599" y="-175.5" font-family="Helvetica,sans-Serif" font-size="10.00">Settings.hpp</text>
</a>
</g>
</g>
<!-- Node5&#45;&gt;Node6 -->
<g id="edge6" class="edge"><title>Node5&#45;&gt;Node6</title>
<path fill="none" stroke="midnightblue" d="M630.725,-224.083C625.358,-216.455 617.482,-205.264 610.921,-195.941"/>
<polygon fill="midnightblue" stroke="midnightblue" points="613.775,-193.915 605.158,-187.751 608.051,-197.943 613.775,-193.915"/>
</g>
<!-- Node13 -->
<g id="node14" class="node"><title>Node13</title>
<g id="a_node14"><a xlink:href="../../d9/d98/TeensyUSBTypes_8hpp.html" target="_top" xlink:title=" ">
<polygon fill="white" stroke="black" points="653,-168.5 653,-187.5 805,-187.5 805,-168.5 653,-168.5"/>
<text text-anchor="middle" x="729" y="-175.5" font-family="Helvetica,sans-Serif" font-size="10.00">Helpers/TeensyUSBTypes.hpp</text>
</a>
</g>
</g>
<!-- Node5&#45;&gt;Node13 -->
<g id="edge15" class="edge"><title>Node5&#45;&gt;Node13</title>
<path fill="none" stroke="midnightblue" d="M651.781,-224.324C666.267,-215.822 688.573,-202.729 705.493,-192.797"/>
<polygon fill="midnightblue" stroke="midnightblue" points="707.403,-195.735 714.255,-187.655 703.859,-189.698 707.403,-195.735"/>
</g>
<!-- Node6&#45;&gt;Node7 -->
<g id="edge7" class="edge"><title>Node6&#45;&gt;Node7</title>
<path fill="none" stroke="midnightblue" d="M634.844,-169.735C637.938,-169.137 641.023,-168.551 644,-168 720.719,-153.793 810.298,-138.875 862.911,-130.283"/>
<polygon fill="midnightblue" stroke="midnightblue" points="863.619,-133.714 872.926,-128.651 862.493,-126.805 863.619,-133.714"/>
</g>
<!-- Node8 -->
<g id="node9" class="node"><title>Node8</title>
<g id="a_node9"><a xlink:href="../../d7/d42/Channel_8hpp.html" target="_top" xlink:title=" ">
<polygon fill="white" stroke="black" points="840.5,-56.5 840.5,-75.5 911.5,-75.5 911.5,-56.5 840.5,-56.5"/>
<text text-anchor="middle" x="876" y="-63.5" font-family="Helvetica,sans-Serif" font-size="10.00">Channel.hpp</text>
</a>
</g>
</g>
<!-- Node7&#45;&gt;Node8 -->
<g id="edge8" class="edge"><title>Node7&#45;&gt;Node8</title>
<path fill="none" stroke="midnightblue" d="M902.716,-112.083C898.289,-104.613 891.837,-93.7244 886.382,-84.5199"/>
<polygon fill="midnightblue" stroke="midnightblue" points="889.295,-82.5697 881.186,-75.7511 883.273,-86.1383 889.295,-82.5697"/>
</g>
<!-- Node7&#45;&gt;Node9 -->
<g id="edge14" class="edge"><title>Node7&#45;&gt;Node9</title>
<path fill="none" stroke="midnightblue" d="M910.511,-112.368C915.698,-94.5366 927.696,-53.2953 934.685,-29.2717"/>
<polygon fill="midnightblue" stroke="midnightblue" points="938.068,-30.1711 937.501,-19.5914 931.347,-28.2157 938.068,-30.1711"/>
</g>
<!-- Node10 -->
<g id="node11" class="node"><title>Node10</title>
<g id="a_node11"><a xlink:href="../../dc/d50/Frequency_8hpp.html" target="_top" xlink:title=" ">
<polygon fill="white" stroke="black" points="968.5,-56.5 968.5,-75.5 1049.5,-75.5 1049.5,-56.5 968.5,-56.5"/>
<text text-anchor="middle" x="1009" y="-63.5" font-family="Helvetica,sans-Serif" font-size="10.00">Frequency.hpp</text>
</a>
</g>
</g>
<!-- Node7&#45;&gt;Node10 -->
<g id="edge10" class="edge"><title>Node7&#45;&gt;Node10</title>
<path fill="none" stroke="midnightblue" d="M924.227,-112.324C940.351,-103.703 965.3,-90.3643 983.964,-80.3855"/>
<polygon fill="midnightblue" stroke="midnightblue" points="985.644,-83.456 992.813,-75.6545 982.344,-77.283 985.644,-83.456"/>
</g>
<!-- Node7&#45;&gt;Node11 -->
<g id="edge11" class="edge"><title>Node7&#45;&gt;Node11</title>
<path fill="none" stroke="midnightblue" d="M943.154,-116.763C1020.1,-107.488 1204.06,-85.3144 1298.26,-73.9595"/>
<polygon fill="midnightblue" stroke="midnightblue" points="1298.96,-77.401 1308.47,-72.7294 1298.12,-70.4513 1298.96,-77.401"/>
</g>
<!-- Node7&#45;&gt;Node12 -->
<g id="edge13" class="edge"><title>Node7&#45;&gt;Node12</title>
<path fill="none" stroke="midnightblue" d="M942.781,-112.46C1025.97,-92.0352 1235.74,-40.5269 1320.08,-19.8206"/>
<polygon fill="midnightblue" stroke="midnightblue" points="1321.08,-23.1786 1329.96,-17.395 1319.41,-16.3805 1321.08,-23.1786"/>
</g>
<!-- Node8&#45;&gt;Node9 -->
<g id="edge9" class="edge"><title>Node8&#45;&gt;Node9</title>
<path fill="none" stroke="midnightblue" d="M886.283,-56.324C895.836,-48.2631 910.28,-36.0765 921.784,-26.3695"/>
<polygon fill="midnightblue" stroke="midnightblue" points="924.144,-28.9577 929.53,-19.8339 919.63,-23.6076 924.144,-28.9577"/>
</g>
<!-- Node11&#45;&gt;Node12 -->
<g id="edge12" class="edge"><title>Node11&#45;&gt;Node12</title>
<path fill="none" stroke="midnightblue" d="M1356,-56.083C1356,-49.0059 1356,-38.8611 1356,-29.9865"/>
<polygon fill="midnightblue" stroke="midnightblue" points="1359.5,-29.751 1356,-19.7511 1352.5,-29.7511 1359.5,-29.751"/>
</g>
<!-- Node16 -->
<g id="node17" class="node"><title>Node16</title>
<g id="a_node17"><a xlink:title=" ">
<polygon fill="white" stroke="#bfbfbf" points="253,-168.5 253,-187.5 311,-187.5 311,-168.5 253,-168.5"/>
<text text-anchor="middle" x="282" y="-175.5" font-family="Helvetica,sans-Serif" font-size="10.00">Arduino.h</text>
</a>
</g>
</g>
<!-- Node15&#45;&gt;Node16 -->
<g id="edge19" class="edge"><title>Node15&#45;&gt;Node16</title>
<path fill="none" stroke="midnightblue" d="M326.248,-224.083C318.53,-216.22 307.095,-204.569 297.783,-195.081"/>
<polygon fill="midnightblue" stroke="midnightblue" points="300.092,-192.436 290.589,-187.751 295.096,-197.34 300.092,-192.436"/>
</g>
<!-- Node17&#45;&gt;Node4 -->
<g id="edge21" class="edge"><title>Node17&#45;&gt;Node4</title>
<path fill="none" stroke="midnightblue" d="M649.626,-336.444C615.737,-327.201 561.597,-312.436 524.276,-302.257"/>
<polygon fill="midnightblue" stroke="midnightblue" points="524.795,-298.771 514.227,-299.516 522.954,-305.524 524.795,-298.771"/>
</g>
<!-- Node18&#45;&gt;Node4 -->
<g id="edge23" class="edge"><title>Node18&#45;&gt;Node4</title>
<path fill="none" stroke="midnightblue" d="M405.781,-336.324C420.267,-327.822 442.573,-314.729 459.493,-304.797"/>
<polygon fill="midnightblue" stroke="midnightblue" points="461.403,-307.735 468.255,-299.655 457.859,-301.698 461.403,-307.735"/>
</g>
<!-- Node18&#45;&gt;Node14 -->
<g id="edge24" class="edge"><title>Node18&#45;&gt;Node14</title>
<path fill="none" stroke="midnightblue" d="M380.538,-336.143C366.537,-323.201 344.901,-298.638 358,-280 368.727,-264.737 415.809,-250.795 449.018,-242.599"/>
<polygon fill="midnightblue" stroke="midnightblue" points="449.916,-245.983 458.823,-240.245 448.282,-239.176 449.916,-245.983"/>
</g>
<!-- Node19 -->
<g id="node20" class="node"><title>Node19</title>
<g id="a_node20"><a xlink:title=" ">
<polygon fill="white" stroke="#bfbfbf" points="367.5,-280.5 367.5,-299.5 414.5,-299.5 414.5,-280.5 367.5,-280.5"/>
<text text-anchor="middle" x="391" y="-287.5" font-family="Helvetica,sans-Serif" font-size="10.00">iterator</text>
</a>
</g>
</g>
<!-- Node18&#45;&gt;Node19 -->
<g id="edge25" class="edge"><title>Node18&#45;&gt;Node19</title>
<path fill="none" stroke="midnightblue" d="M391,-336.083C391,-329.006 391,-318.861 391,-309.986"/>
<polygon fill="midnightblue" stroke="midnightblue" points="394.5,-309.751 391,-299.751 387.5,-309.751 394.5,-309.751"/>
</g>
<!-- Node20&#45;&gt;Node7 -->
<g id="edge27" class="edge"><title>Node20&#45;&gt;Node7</title>
<path fill="none" stroke="midnightblue" d="M1194.03,-398C1179.9,-389.23 1159.13,-374.277 1147,-356 1130.36,-330.921 1128,-321.098 1128,-291 1128,-291 1128,-291 1128,-233 1128,-155.739 1018.11,-132.742 953.661,-125.898"/>
<polygon fill="midnightblue" stroke="midnightblue" points="953.638,-122.38 943.347,-124.899 952.963,-129.347 953.638,-122.38"/>
</g>
<!-- Node20&#45;&gt;Node9 -->
<g id="edge29" class="edge"><title>Node20&#45;&gt;Node9</title>
<path fill="none" stroke="midnightblue" d="M1271.51,-403.325C1326.69,-397.537 1395.43,-381.312 1375,-336 1297.72,-164.639 1218.85,-153.277 1058,-56 1031.73,-40.1154 998.906,-28.1464 974.549,-20.5609"/>
<polygon fill="midnightblue" stroke="midnightblue" points="975.257,-17.1187 964.672,-17.5797 973.234,-23.8201 975.257,-17.1187"/>
</g>
<!-- Node20&#45;&gt;Node17 -->
<g id="edge28" class="edge"><title>Node20&#45;&gt;Node17</title>
<path fill="none" stroke="midnightblue" d="M1146.5,-397.998C1130.99,-395.961 1114.4,-393.843 1099,-392 970.169,-376.576 818.7,-360.874 738.155,-352.718"/>
<polygon fill="midnightblue" stroke="midnightblue" points="738.045,-349.189 727.744,-351.665 737.341,-356.153 738.045,-349.189"/>
</g>
<!-- Node21 -->
<g id="node22" class="node"><title>Node21</title>
<g id="a_node22"><a xlink:href="../../d7/dd7/Helpers_8hpp.html" target="_top" xlink:title=" ">
<polygon fill="white" stroke="black" points="1156,-336.5 1156,-355.5 1262,-355.5 1262,-336.5 1156,-336.5"/>
<text text-anchor="middle" x="1209" y="-343.5" font-family="Helvetica,sans-Serif" font-size="10.00">Helpers/Helpers.hpp</text>
</a>
</g>
</g>
<!-- Node20&#45;&gt;Node21 -->
<g id="edge30" class="edge"><title>Node20&#45;&gt;Node21</title>
<path fill="none" stroke="midnightblue" d="M1209,-397.975C1209,-389.58 1209,-376.481 1209,-365.663"/>
<polygon fill="midnightblue" stroke="midnightblue" points="1212.5,-365.509 1209,-355.509 1205.5,-365.509 1212.5,-365.509"/>
</g>
<!-- Node22&#45;&gt;Node3 -->
<g id="edge34" class="edge"><title>Node22&#45;&gt;Node3</title>
<path fill="none" stroke="midnightblue" d="M1019.76,-417.127C1021.78,-426.62 1022.26,-442.17 1021.2,-454.537"/>
<polygon fill="midnightblue" stroke="midnightblue" points="1017.69,-454.348 1019.79,-464.734 1024.63,-455.308 1017.69,-454.348"/>
</g>
<!-- Node22&#45;&gt;Node4 -->
<g id="edge39" class="edge"><title>Node22&#45;&gt;Node4</title>
<path fill="none" stroke="midnightblue" d="M984.205,-397.95C932.966,-383.898 826.85,-355.532 736,-336 670.575,-321.934 594.96,-308.902 543.557,-300.522"/>
<polygon fill="midnightblue" stroke="midnightblue" points="544.041,-297.055 533.61,-298.909 542.921,-303.964 544.041,-297.055"/>
</g>
<!-- Node22&#45;&gt;Node18 -->
<g id="edge40" class="edge"><title>Node22&#45;&gt;Node18</title>
<path fill="none" stroke="midnightblue" d="M939.731,-399.323C817.365,-387.655 577.144,-364.749 459.376,-353.52"/>
<polygon fill="midnightblue" stroke="midnightblue" points="459.684,-350.033 449.397,-352.568 459.019,-357.002 459.684,-350.033"/>
</g>
<!-- Node22&#45;&gt;Node23 -->
<g id="edge35" class="edge"><title>Node22&#45;&gt;Node23</title>
<path fill="none" stroke="midnightblue" d="M1059.13,-397.975C1114.79,-387.222 1210.42,-368.749 1269.98,-357.242"/>
<polygon fill="midnightblue" stroke="midnightblue" points="1270.79,-360.651 1279.95,-355.317 1269.46,-353.778 1270.79,-360.651"/>
</g>
<!-- Node22&#45;&gt;Node24 -->
<g id="edge37" class="edge"><title>Node22&#45;&gt;Node24</title>
<path fill="none" stroke="midnightblue" d="M1015.43,-397.975C1015.85,-389.58 1016.51,-376.481 1017.06,-365.663"/>
<polygon fill="midnightblue" stroke="midnightblue" points="1020.56,-365.673 1017.57,-355.509 1013.57,-365.32 1020.56,-365.673"/>
</g>
<!-- Node23&#45;&gt;Node7 -->
<g id="edge36" class="edge"><title>Node23&#45;&gt;Node7</title>
<path fill="none" stroke="midnightblue" d="M1315.42,-336.375C1286.79,-303.983 1184.64,-190.314 1142,-168 1081.77,-136.484 1002.46,-126.886 953.371,-124.054"/>
<polygon fill="midnightblue" stroke="midnightblue" points="953.537,-120.558 943.373,-123.547 953.183,-127.549 953.537,-120.558"/>
</g>
<!-- Node24&#45;&gt;Node7 -->
<g id="edge38" class="edge"><title>Node24&#45;&gt;Node7</title>
<path fill="none" stroke="midnightblue" d="M1013.69,-336.297C997.4,-303.425 939.41,-186.391 916.964,-141.09"/>
<polygon fill="midnightblue" stroke="midnightblue" points="919.978,-139.29 912.402,-131.884 913.706,-142.398 919.978,-139.29"/>
</g>
<!-- Node25&#45;&gt;Node5 -->
<g id="edge50" class="edge"><title>Node25&#45;&gt;Node5</title>
<path fill="none" stroke="midnightblue" d="M661.9,-531.918C661.42,-508.797 658.666,-443.471 643,-392 635.388,-366.99 610.343,-357.648 625,-336 651.412,-296.989 738.562,-320.796 715,-280 706.323,-264.977 690.513,-254.523 675.383,-247.499"/>
<polygon fill="midnightblue" stroke="midnightblue" points="676.693,-244.253 666.121,-243.559 673.953,-250.694 676.693,-244.253"/>
</g>
<!-- Node26 -->
<g id="node27" class="node"><title>Node26</title>
<g id="a_node27"><a xlink:href="../../dd/ddf/ExtendedInputOutput_8hpp.html" target="_top" xlink:title=" ">
<polygon fill="white" stroke="black" points="289,-459.5 289,-489.5 443,-489.5 443,-459.5 289,-459.5"/>
<text text-anchor="start" x="297" y="-477.5" font-family="Helvetica,sans-Serif" font-size="10.00">Hardware/ExtendedInputOutput</text>
<text text-anchor="middle" x="366" y="-466.5" font-family="Helvetica,sans-Serif" font-size="10.00">/ExtendedInputOutput.hpp</text>
</a>
</g>
</g>
<!-- Node25&#45;&gt;Node26 -->
<g id="edge45" class="edge"><title>Node25&#45;&gt;Node26</title>
<path fill="none" stroke="midnightblue" d="M622.999,-531.936C576.549,-521.735 497.957,-504.477 439.886,-491.725"/>
<polygon fill="midnightblue" stroke="midnightblue" points="440.541,-488.286 430.023,-489.559 439.04,-495.123 440.541,-488.286"/>
</g>
<!-- Node26&#45;&gt;Node16 -->
<g id="edge49" class="edge"><title>Node26&#45;&gt;Node16</title>
<path fill="none" stroke="midnightblue" d="M335.385,-459.311C320.715,-450.882 304.342,-438.739 295,-423 251.469,-349.665 268.29,-241.038 277.52,-197.772"/>
<polygon fill="midnightblue" stroke="midnightblue" points="280.981,-198.336 279.764,-187.811 274.152,-196.797 280.981,-198.336"/>
</g>
<!-- Node27 -->
<g id="node28" class="node"><title>Node27</title>
<g id="a_node28"><a xlink:href="../../d4/d57/ExtendedIOElement_8hpp.html" target="_top" xlink:title=" ">
<polygon fill="white" stroke="black" points="304.5,-398 304.5,-417 427.5,-417 427.5,-398 304.5,-398"/>
<text text-anchor="middle" x="366" y="-405" font-family="Helvetica,sans-Serif" font-size="10.00">ExtendedIOElement.hpp</text>
</a>
</g>
</g>
<!-- Node26&#45;&gt;Node27 -->
<g id="edge46" class="edge"><title>Node26&#45;&gt;Node27</title>
<path fill="none" stroke="midnightblue" d="M366,-459.396C366,-450.064 366,-437.714 366,-427.517"/>
<polygon fill="midnightblue" stroke="midnightblue" points="369.5,-427.195 366,-417.195 362.5,-427.195 369.5,-427.195"/>
</g>
<!-- Node27&#45;&gt;Node7 -->
<g id="edge47" class="edge"><title>Node27&#45;&gt;Node7</title>
<path fill="none" stroke="midnightblue" d="M338.479,-397.928C297.445,-383.233 225,-349.066 225,-291 225,-291 225,-291 225,-233 225,-202.902 220.541,-186.856 244,-168 291.993,-129.425 720.446,-123.89 862.482,-123.118"/>
<polygon fill="midnightblue" stroke="midnightblue" points="862.615,-126.617 872.597,-123.069 862.58,-119.618 862.615,-126.617"/>
</g>
<!-- Node27&#45;&gt;Node18 -->
<g id="edge48" class="edge"><title>Node27&#45;&gt;Node18</title>
<path fill="none" stroke="midnightblue" d="M369.582,-397.975C373.183,-389.404 378.846,-375.927 383.444,-364.983"/>
<polygon fill="midnightblue" stroke="midnightblue" points="386.778,-366.084 387.425,-355.509 380.324,-363.373 386.778,-366.084"/>
</g>
<!-- Node28&#45;&gt;Node7 -->
<g id="edge53" class="edge"><title>Node28&#45;&gt;Node7</title>
<path fill="none" stroke="midnightblue" d="M856.092,-459.357C872.469,-429.358 908,-356.704 908,-291 908,-291 908,-291 908,-233 908,-200.948 908,-163.643 908,-141.749"/>
<polygon fill="midnightblue" stroke="midnightblue" points="911.5,-141.558 908,-131.558 904.5,-141.558 911.5,-141.558"/>
</g>
<!-- Node28&#45;&gt;Node24 -->
<g id="edge54" class="edge"><title>Node28&#45;&gt;Node24</title>
<path fill="none" stroke="midnightblue" d="M860.124,-459.211C875.394,-441.815 903.031,-412.256 931,-392 948.779,-379.123 970.751,-367.79 988.165,-359.719"/>
<polygon fill="midnightblue" stroke="midnightblue" points="989.646,-362.89 997.315,-355.581 986.762,-356.512 989.646,-362.89"/>
</g>
<!-- Node29 -->
<g id="node30" class="node"><title>Node29</title>
<g id="a_node30"><a xlink:href="../../d4/d93/Updatable_8hpp.html" target="_top" xlink:title=" ">
<polygon fill="white" stroke="black" points="730,-398 730,-417 846,-417 846,-398 730,-398"/>
<text text-anchor="middle" x="788" y="-405" font-family="Helvetica,sans-Serif" font-size="10.00">Helpers/Updatable.hpp</text>
</a>
</g>
</g>
<!-- Node28&#45;&gt;Node29 -->
<g id="edge55" class="edge"><title>Node28&#45;&gt;Node29</title>
<path fill="none" stroke="midnightblue" d="M834.981,-459.396C825.533,-449.161 812.735,-435.296 802.882,-424.622"/>
<polygon fill="midnightblue" stroke="midnightblue" points="805.38,-422.169 796.026,-417.195 800.237,-426.917 805.38,-422.169"/>
</g>
<!-- Node29&#45;&gt;Node5 -->
<g id="edge58" class="edge"><title>Node29&#45;&gt;Node5</title>
<path fill="none" stroke="midnightblue" d="M787.787,-397.895C786.776,-375.519 781.059,-314.836 749,-280 734.062,-263.767 712.469,-253.275 692.222,-246.548"/>
<polygon fill="midnightblue" stroke="midnightblue" points="693.012,-243.129 682.426,-243.539 690.957,-249.821 693.012,-243.129"/>
</g>
<!-- Node29&#45;&gt;Node7 -->
<g id="edge60" class="edge"><title>Node29&#45;&gt;Node7</title>
<path fill="none" stroke="midnightblue" d="M790.768,-397.99C799.407,-371.695 827.029,-289.566 856,-224 869.229,-194.061 887.16,-160.493 898.136,-140.583"/>
<polygon fill="midnightblue" stroke="midnightblue" points="901.25,-142.186 903.048,-131.745 895.131,-138.785 901.25,-142.186"/>
</g>
<!-- Node29&#45;&gt;Node12 -->
<g id="edge59" class="edge"><title>Node29&#45;&gt;Node12</title>
<path fill="none" stroke="midnightblue" d="M800.349,-397.783C820.12,-383.979 860.29,-356.548 896,-336 1118.93,-207.725 1278.04,-294.942 1413,-76 1425.01,-56.5231 1402.5,-37.1939 1382.33,-24.7428"/>
<polygon fill="midnightblue" stroke="midnightblue" points="1384.05,-21.6946 1373.65,-19.6888 1380.53,-27.7444 1384.05,-21.6946"/>
</g>
<!-- Node29&#45;&gt;Node17 -->
<g id="edge56" class="edge"><title>Node29&#45;&gt;Node17</title>
<path fill="none" stroke="midnightblue" d="M772.67,-397.975C755.03,-388.166 725.84,-371.935 705.142,-360.425"/>
<polygon fill="midnightblue" stroke="midnightblue" points="706.743,-357.31 696.302,-355.509 703.341,-363.428 706.743,-357.31"/>
</g>
<!-- Node29&#45;&gt;Node18 -->
<g id="edge57" class="edge"><title>Node29&#45;&gt;Node18</title>
<path fill="none" stroke="midnightblue" d="M731.12,-397.975C658.893,-387.15 534.469,-368.502 457.803,-357.012"/>
<polygon fill="midnightblue" stroke="midnightblue" points="458.183,-353.53 447.775,-355.509 457.146,-360.453 458.183,-353.53"/>
</g>
<!-- Node31 -->
<g id="node32" class="node"><title>Node31</title>
<g id="a_node32"><a xlink:href="../../d3/d37/Control__Surface__Class_8hpp.html" target="_top" xlink:title=" ">
<polygon fill="white" stroke="black" points="173,-526.5 173,-556.5 295,-556.5 295,-526.5 173,-526.5"/>
<text text-anchor="start" x="181" y="-544.5" font-family="Helvetica,sans-Serif" font-size="10.00">Control_Surface/Control</text>
<text text-anchor="middle" x="234" y="-533.5" font-family="Helvetica,sans-Serif" font-size="10.00">_Surface_Class.hpp</text>
</a>
</g>
</g>
<!-- Node30&#45;&gt;Node31 -->
<g id="edge62" class="edge"><title>Node30&#45;&gt;Node31</title>
<path fill="none" stroke="midnightblue" d="M383.556,-593.396C354.647,-583.558 315.885,-570.367 285.067,-559.879"/>
<polygon fill="midnightblue" stroke="midnightblue" points="285.958,-556.485 275.363,-556.577 283.702,-563.112 285.958,-556.485"/>
</g>
<!-- Node32 -->
<g id="node33" class="node"><title>Node32</title>
<g id="a_node33"><a xlink:href="../../d6/d04/MIDI__Interface_8hpp.html" target="_top" xlink:title=" ">
<polygon fill="white" stroke="black" points="522,-392.5 522,-422.5 634,-422.5 634,-392.5 522,-392.5"/>
<text text-anchor="start" x="530" y="-410.5" font-family="Helvetica,sans-Serif" font-size="10.00">MIDI_Interfaces/MIDI</text>
<text text-anchor="middle" x="578" y="-399.5" font-family="Helvetica,sans-Serif" font-size="10.00">_Interface.hpp</text>
</a>
</g>
</g>
<!-- Node31&#45;&gt;Node32 -->
<g id="edge63" class="edge"><title>Node31&#45;&gt;Node32</title>
<path fill="none" stroke="midnightblue" d="M295.445,-532.104C340.122,-524.618 401.387,-511.452 452,-490 489.335,-474.176 527.848,-447.466 552.306,-428.957"/>
<polygon fill="midnightblue" stroke="midnightblue" points="554.546,-431.65 560.346,-422.784 550.282,-426.098 554.546,-431.65"/>
</g>
<!-- Node34 -->
<g id="node35" class="node"><title>Node34</title>
<g id="a_node35"><a xlink:href="../../d6/dd2/DisplayElement_8hpp.html" target="_top" xlink:title=" ">
<polygon fill="white" stroke="black" points="66,-465 66,-484 206,-484 206,-465 66,-465"/>
<text text-anchor="middle" x="136" y="-472" font-family="Helvetica,sans-Serif" font-size="10.00">Display/DisplayElement.hpp</text>
</a>
</g>
</g>
<!-- Node31&#45;&gt;Node34 -->
<g id="edge71" class="edge"><title>Node31&#45;&gt;Node34</title>
<path fill="none" stroke="midnightblue" d="M212.735,-526.396C196.301,-515.496 173.66,-500.479 157.234,-489.584"/>
<polygon fill="midnightblue" stroke="midnightblue" points="159.094,-486.618 148.826,-484.007 155.225,-492.451 159.094,-486.618"/>
</g>
<!-- Node35 -->
<g id="node36" class="node"><title>Node35</title>
<g id="a_node36"><a xlink:href="../../dc/d77/DisplayInterface_8hpp.html" target="_top" xlink:title=" ">
<polygon fill="white" stroke="black" points="28.5,-398 28.5,-417 171.5,-417 171.5,-398 28.5,-398"/>
<text text-anchor="middle" x="100" y="-405" font-family="Helvetica,sans-Serif" font-size="10.00">Display/DisplayInterface.hpp</text>
</a>
</g>
</g>
<!-- Node31&#45;&gt;Node35 -->
<g id="edge77" class="edge"><title>Node31&#45;&gt;Node35</title>
<path fill="none" stroke="midnightblue" d="M172.755,-531.027C127.409,-522.617 71.1474,-508.748 57,-490 41.1228,-468.959 63.4956,-441.242 81.4588,-424.159"/>
<polygon fill="midnightblue" stroke="midnightblue" points="84.1754,-426.421 89.2486,-417.12 79.4823,-421.227 84.1754,-426.421"/>
</g>
<!-- Node37 -->
<g id="node38" class="node"><title>Node37</title>
<g id="a_node38"><a xlink:href="../../d7/d74/MillisTimer_8hpp.html" target="_top" xlink:title=" ">
<polygon fill="white" stroke="black" points="77.5,-280.5 77.5,-299.5 196.5,-299.5 196.5,-280.5 77.5,-280.5"/>
<text text-anchor="middle" x="137" y="-287.5" font-family="Helvetica,sans-Serif" font-size="10.00">Helpers/MillisTimer.hpp</text>
</a>
</g>
</g>
<!-- Node31&#45;&gt;Node37 -->
<g id="edge78" class="edge"><title>Node31&#45;&gt;Node37</title>
<path fill="none" stroke="midnightblue" d="M231.627,-526.41C228.65,-509.964 222.952,-482.077 215,-459 195.422,-402.185 162.863,-338.795 146.707,-308.705"/>
<polygon fill="midnightblue" stroke="midnightblue" points="149.742,-306.958 141.9,-299.834 143.588,-310.294 149.742,-306.958"/>
</g>
<!-- Node32&#45;&gt;Node7 -->
<g id="edge64" class="edge"><title>Node32&#45;&gt;Node7</title>
<path fill="none" stroke="midnightblue" d="M521.857,-399.141C450.918,-389.272 336.497,-371.226 324,-356 306.269,-334.397 333.674,-297.614 350,-280 385.157,-242.071 504.752,-183.786 554,-168 661.181,-133.645 794.519,-125.388 862.91,-123.489"/>
<polygon fill="midnightblue" stroke="midnightblue" points="863.006,-126.988 872.917,-123.244 862.835,-119.99 863.006,-126.988"/>
</g>
<!-- Node32&#45;&gt;Node24 -->
<g id="edge65" class="edge"><title>Node32&#45;&gt;Node24</title>
<path fill="none" stroke="midnightblue" d="M634.173,-398.904C713.286,-388.206 857.606,-368.69 944.961,-356.877"/>
<polygon fill="midnightblue" stroke="midnightblue" points="945.621,-360.32 955.062,-355.511 944.683,-353.383 945.621,-360.32"/>
</g>
<!-- Node33 -->
<g id="node34" class="node"><title>Node33</title>
<g id="a_node34"><a xlink:href="../../d7/d2d/MIDI__Parser_8hpp.html" target="_top" xlink:title=" ">
<polygon fill="white" stroke="black" points="551.5,-280.5 551.5,-299.5 706.5,-299.5 706.5,-280.5 551.5,-280.5"/>
<text text-anchor="middle" x="629" y="-287.5" font-family="Helvetica,sans-Serif" font-size="10.00">MIDI_Parsers/MIDI_Parser.hpp</text>
</a>
</g>
</g>
<!-- Node32&#45;&gt;Node33 -->
<g id="edge66" class="edge"><title>Node32&#45;&gt;Node33</title>
<path fill="none" stroke="midnightblue" d="M578.778,-392.355C580.042,-377.65 583.351,-354.272 592,-336 597.063,-325.304 605.226,-314.985 612.599,-306.933"/>
<polygon fill="midnightblue" stroke="midnightblue" points="615.144,-309.336 619.564,-299.707 610.104,-304.478 615.144,-309.336"/>
</g>
<!-- Node33&#45;&gt;Node5 -->
<g id="edge70" class="edge"><title>Node33&#45;&gt;Node5</title>
<path fill="none" stroke="midnightblue" d="M630.321,-280.083C631.381,-272.927 632.906,-262.635 634.231,-253.691"/>
<polygon fill="midnightblue" stroke="midnightblue" points="637.7,-254.156 635.704,-243.751 630.776,-253.13 637.7,-254.156"/>
</g>
<!-- Node33&#45;&gt;Node9 -->
<g id="edge68" class="edge"><title>Node33&#45;&gt;Node9</title>
<path fill="none" stroke="midnightblue" d="M605.817,-280.484C589.116,-273.216 567.268,-261.189 554,-244 535.609,-220.175 535,-209.098 535,-179 535,-179 535,-179 535,-121 535,-44.5506 807.15,-19.5213 905.265,-12.9819"/>
<polygon fill="midnightblue" stroke="midnightblue" points="905.52,-16.4728 915.275,-12.3391 905.071,-9.48723 905.52,-16.4728"/>
</g>
<!-- Node33&#45;&gt;Node12 -->
<g id="edge67" class="edge"><title>Node33&#45;&gt;Node12</title>
<path fill="none" stroke="midnightblue" d="M655.46,-280.413C739.015,-253.087 1004.35,-164.721 1218,-76 1257.82,-59.4648 1302.8,-37.6723 1330.28,-23.9968"/>
<polygon fill="midnightblue" stroke="midnightblue" points="1331.85,-27.1235 1339.23,-19.5201 1328.72,-20.8628 1331.85,-27.1235"/>
</g>
<!-- Node33&#45;&gt;Node14 -->
<g id="edge69" class="edge"><title>Node33&#45;&gt;Node14</title>
<path fill="none" stroke="midnightblue" d="M605.866,-280.444C581.518,-271.438 542.993,-257.189 515.577,-247.049"/>
<polygon fill="midnightblue" stroke="midnightblue" points="516.619,-243.703 506.026,-243.516 514.191,-250.268 516.619,-243.703"/>
</g>
<!-- Node34&#45;&gt;Node18 -->
<g id="edge76" class="edge"><title>Node34&#45;&gt;Node18</title>
<path fill="none" stroke="midnightblue" d="M152.156,-464.98C180.784,-449.936 242.364,-417.817 295,-392 317.761,-380.836 343.819,-368.659 363.037,-359.791"/>
<polygon fill="midnightblue" stroke="midnightblue" points="364.522,-362.96 372.143,-355.6 361.596,-356.601 364.522,-362.96"/>
</g>
<!-- Node34&#45;&gt;Node35 -->
<g id="edge72" class="edge"><title>Node34&#45;&gt;Node35</title>
<path fill="none" stroke="midnightblue" d="M131.145,-464.734C125.693,-454.89 116.704,-438.66 109.781,-426.159"/>
<polygon fill="midnightblue" stroke="midnightblue" points="112.685,-424.179 104.778,-417.127 106.561,-427.571 112.685,-424.179"/>
</g>
<!-- Node35&#45;&gt;Node7 -->
<g id="edge73" class="edge"><title>Node35&#45;&gt;Node7</title>
<path fill="none" stroke="midnightblue" d="M93.1219,-397.804C79.2011,-379.301 49,-334.182 49,-291 49,-291 49,-291 49,-233 49,-149.614 143.442,-185.365 225,-168 347.358,-141.948 730.45,-128.31 862.626,-124.288"/>
<polygon fill="midnightblue" stroke="midnightblue" points="862.912,-127.781 872.802,-123.983 862.702,-120.784 862.912,-127.781"/>
</g>
<!-- Node35&#45;&gt;Node18 -->
<g id="edge74" class="edge"><title>Node35&#45;&gt;Node18</title>
<path fill="none" stroke="midnightblue" d="M141.693,-397.975C193.771,-387.327 282.87,-369.109 339.253,-357.581"/>
<polygon fill="midnightblue" stroke="midnightblue" points="340.288,-360.941 349.384,-355.509 338.886,-354.083 340.288,-360.941"/>
</g>
<!-- Node36 -->
<g id="node37" class="node"><title>Node36</title>
<g id="a_node37"><a xlink:title=" ">
<polygon fill="white" stroke="#bfbfbf" points="77.5,-336.5 77.5,-355.5 122.5,-355.5 122.5,-336.5 77.5,-336.5"/>
<text text-anchor="middle" x="100" y="-343.5" font-family="Helvetica,sans-Serif" font-size="10.00">Print.h</text>
</a>
</g>
</g>
<!-- Node35&#45;&gt;Node36 -->
<g id="edge75" class="edge"><title>Node35&#45;&gt;Node36</title>
<path fill="none" stroke="midnightblue" d="M100,-397.975C100,-389.58 100,-376.481 100,-365.663"/>
<polygon fill="midnightblue" stroke="midnightblue" points="103.5,-365.509 100,-355.509 96.5001,-365.509 103.5,-365.509"/>
</g>
<!-- Node37&#45;&gt;Node16 -->
<g id="edge79" class="edge"><title>Node37&#45;&gt;Node16</title>
<path fill="none" stroke="midnightblue" d="M148.378,-280.368C173.048,-261.653 231.71,-217.151 262.448,-193.832"/>
<polygon fill="midnightblue" stroke="midnightblue" points="264.823,-196.424 270.675,-187.591 260.593,-190.847 264.823,-196.424"/>
</g>
</g>
</svg>
