<?xml version="1.0" encoding="UTF-8" standalone="no"?>
<!DOCTYPE svg PUBLIC "-//W3C//DTD SVG 1.1//EN"
 "http://www.w3.org/Graphics/SVG/1.1/DTD/svg11.dtd">
<!-- Generated by graphviz version 2.38.0 (20140413.2041)
 -->
<!-- Title: Button::getState Pages: 1 -->
<svg width="544pt" height="165pt"
 viewBox="0.00 0.00 544.00 164.50" xmlns="http://www.w3.org/2000/svg" xmlns:xlink="http://www.w3.org/1999/xlink">
<g id="graph0" class="graph" transform="scale(1 1) rotate(0) translate(4 160.5)">
<title>Button::getState</title>
<polygon fill="white" stroke="none" points="-4,4 -4,-160.5 540,-160.5 540,4 -4,4"/>
<!-- Node26 -->
<g id="node1" class="node"><title>Node26</title>
<g id="a_node1"><a xlink:title="Get the state of the button.">
<polygon fill="#bfbfbf" stroke="black" points="0,-99 0,-118 88,-118 88,-99 0,-99"/>
<text text-anchor="middle" x="44" y="-106" font-family="Helvetica,sans-Serif" font-size="10.00">Button::getState</text>
</a>
</g>
</g>
<!-- Node27 -->
<g id="node2" class="node"><title>Node27</title>
<g id="a_node2"><a xlink:href="../../d8/d3d/namespaceExtIO.html#a9bda9dc007f42a200626d1d4ea94250b" target="_top" xlink:title="An ExtIO version of the Arduino function.">
<polygon fill="white" stroke="black" points="124,-99 124,-118 221,-118 221,-99 124,-99"/>
<text text-anchor="middle" x="172.5" y="-106" font-family="Helvetica,sans-Serif" font-size="10.00">ExtIO::digitalRead</text>
</a>
</g>
</g>
<!-- Node26&#45;&gt;Node27 -->
<g id="edge1" class="edge"><title>Node26&#45;&gt;Node27</title>
<path fill="none" stroke="midnightblue" d="M88.1803,-108.5C96.3219,-108.5 104.958,-108.5 113.468,-108.5"/>
<polygon fill="midnightblue" stroke="midnightblue" points="113.743,-112 123.743,-108.5 113.743,-105 113.743,-112"/>
</g>
<!-- Node28 -->
<g id="node3" class="node"><title>Node28</title>
<g id="a_node3"><a xlink:href="../../d8/d3d/namespaceExtIO.html#a9e1b1e3ddc71a977fbf6df93c10cce82" target="_top" xlink:title="An ExtIO version of the Arduino function.">
<polygon fill="white" stroke="black" points="275,-137 275,-156 372,-156 372,-137 275,-137"/>
<text text-anchor="middle" x="323.5" y="-144" font-family="Helvetica,sans-Serif" font-size="10.00">ExtIO::digitalRead</text>
</a>
</g>
</g>
<!-- Node27&#45;&gt;Node28 -->
<g id="edge2" class="edge"><title>Node27&#45;&gt;Node28</title>
<path fill="none" stroke="midnightblue" d="M221.054,-114.287C244.952,-119.625 273.124,-127.103 293.709,-133.695"/>
<polygon fill="midnightblue" stroke="midnightblue" points="292.841,-137.095 303.435,-136.946 295.06,-130.456 292.841,-137.095"/>
</g>
<!-- Node29 -->
<g id="node4" class="node"><title>Node29</title>
<g id="a_node4"><a xlink:href="../../d8/d3d/namespaceExtIO.html#ae314377b34b9e49b153f6e36fb354d37" target="_top" xlink:title="Find the IO element of a given extended IO pin number.">
<polygon fill="white" stroke="black" points="257,-99 257,-118 390,-118 390,-99 257,-99"/>
<text text-anchor="middle" x="323.5" y="-106" font-family="Helvetica,sans-Serif" font-size="10.00">ExtIO::getIOElementOfPin</text>
</a>
</g>
</g>
<!-- Node27&#45;&gt;Node29 -->
<g id="edge4" class="edge"><title>Node27&#45;&gt;Node29</title>
<path fill="none" stroke="midnightblue" d="M221.054,-108.5C229.257,-108.5 237.963,-108.5 246.694,-108.5"/>
<polygon fill="midnightblue" stroke="midnightblue" points="246.925,-112 256.925,-108.5 246.924,-105 246.925,-112"/>
</g>
<!-- Node32 -->
<g id="node7" class="node"><title>Node32</title>
<g id="a_node7"><a xlink:href="../../de/d4e/classExtendedIOElement.html#af799512582ef9f7b56616d29fd78324a" target="_top" xlink:title="Read the state of the given pin.">
<polygon fill="white" stroke="black" points="268.5,-49.5 268.5,-79.5 378.5,-79.5 378.5,-49.5 268.5,-49.5"/>
<text text-anchor="start" x="276.5" y="-67.5" font-family="Helvetica,sans-Serif" font-size="10.00">ExtendedIOElement::</text>
<text text-anchor="middle" x="323.5" y="-56.5" font-family="Helvetica,sans-Serif" font-size="10.00">digitalRead</text>
</a>
</g>
</g>
<!-- Node27&#45;&gt;Node32 -->
<g id="edge7" class="edge"><title>Node27&#45;&gt;Node32</title>
<path fill="none" stroke="midnightblue" d="M205.831,-98.9527C222.232,-94.1094 242.699,-88.0654 261.891,-82.398"/>
<polygon fill="midnightblue" stroke="midnightblue" points="262.884,-85.7543 271.483,-79.5654 260.901,-79.0408 262.884,-85.7543"/>
</g>
<!-- Node33 -->
<g id="node8" class="node"><title>Node33</title>
<g id="a_node8"><a xlink:href="../../de/d4e/classExtendedIOElement.html#a955322d29e4e63ec40a587b5ed9db31b" target="_top" xlink:title="Get the smallest global extended IO pin number that belongs to this extended IO element.">
<polygon fill="white" stroke="black" points="268.5,-0.5 268.5,-30.5 378.5,-30.5 378.5,-0.5 268.5,-0.5"/>
<text text-anchor="start" x="276.5" y="-18.5" font-family="Helvetica,sans-Serif" font-size="10.00">ExtendedIOElement::</text>
<text text-anchor="middle" x="323.5" y="-7.5" font-family="Helvetica,sans-Serif" font-size="10.00">getStart</text>
</a>
</g>
</g>
<!-- Node27&#45;&gt;Node33 -->
<g id="edge8" class="edge"><title>Node27&#45;&gt;Node33</title>
<path fill="none" stroke="midnightblue" d="M183.504,-98.5311C198.419,-84.116 227.864,-57.3384 257,-40.5 260.458,-38.5016 264.105,-36.6048 267.837,-34.8163"/>
<polygon fill="midnightblue" stroke="midnightblue" points="269.54,-37.8886 277.227,-30.5978 266.671,-31.5034 269.54,-37.8886"/>
</g>
<!-- Node28&#45;&gt;Node27 -->
<g id="edge3" class="edge"><title>Node28&#45;&gt;Node27</title>
<path fill="none" stroke="midnightblue" d="M274.916,-140.707C251.066,-135.378 222.963,-127.92 202.396,-121.338"/>
<polygon fill="midnightblue" stroke="midnightblue" points="203.268,-117.94 192.674,-118.092 201.051,-124.579 203.268,-117.94"/>
</g>
<!-- Node30 -->
<g id="node5" class="node"><title>Node30</title>
<g id="a_node5"><a xlink:href="../../de/d4e/classExtendedIOElement.html#a3151d5bf08e6b32231cdd58ed2f39aee" target="_top" xlink:title="Get the list of all Extended IO elements.">
<polygon fill="white" stroke="black" points="426,-115.5 426,-145.5 536,-145.5 536,-115.5 426,-115.5"/>
<text text-anchor="start" x="434" y="-133.5" font-family="Helvetica,sans-Serif" font-size="10.00">ExtendedIOElement::</text>
<text text-anchor="middle" x="481" y="-122.5" font-family="Helvetica,sans-Serif" font-size="10.00">getAll</text>
</a>
</g>
</g>
<!-- Node29&#45;&gt;Node30 -->
<g id="edge5" class="edge"><title>Node29&#45;&gt;Node30</title>
<path fill="none" stroke="midnightblue" d="M390.446,-117.83C398.803,-119.012 407.345,-120.221 415.676,-121.4"/>
<polygon fill="midnightblue" stroke="midnightblue" points="415.314,-124.883 425.706,-122.818 416.295,-117.952 415.314,-124.883"/>
</g>
<!-- Node31 -->
<g id="node6" class="node"><title>Node31</title>
<g id="a_node6"><a xlink:href="../../d8/d3d/namespaceExtIO.html#aedf6005ecc64cea16059965b80ce5f85" target="_top" xlink:title=" ">
<polygon fill="white" stroke="black" points="439,-77 439,-96 523,-96 523,-77 439,-77"/>
<text text-anchor="middle" x="481" y="-84" font-family="Helvetica,sans-Serif" font-size="10.00">ExtIO::inRange</text>
</a>
</g>
</g>
<!-- Node29&#45;&gt;Node31 -->
<g id="edge6" class="edge"><title>Node29&#45;&gt;Node31</title>
<path fill="none" stroke="midnightblue" d="M390.446,-99.17C403.25,-97.3585 416.492,-95.485 428.738,-93.7525"/>
<polygon fill="midnightblue" stroke="midnightblue" points="429.348,-97.2011 438.759,-92.3347 428.368,-90.2701 429.348,-97.2011"/>
</g>
</g>
</svg>
