<?xml version="1.0" encoding="UTF-8" standalone="no"?>
<!DOCTYPE svg PUBLIC "-//W3C//DTD SVG 1.1//EN"
 "http://www.w3.org/Graphics/SVG/1.1/DTD/svg11.dtd">
<!-- Generated by graphviz version 2.38.0 (20140413.2041)
 -->
<!-- Title: Button::begin Pages: 1 -->
<svg width="468pt" height="340pt"
 viewBox="0.00 0.00 468.00 340.00" xmlns="http://www.w3.org/2000/svg" xmlns:xlink="http://www.w3.org/1999/xlink">
<g id="graph0" class="graph" transform="scale(1 1) rotate(0) translate(4 336)">
<title>Button::begin</title>
<polygon fill="white" stroke="none" points="-4,4 -4,-336 464,-336 464,4 -4,4"/>
<!-- Node9 -->
<g id="node1" class="node"><title>Node9</title>
<g id="a_node1"><a xlink:title=" ">
<polygon fill="#bfbfbf" stroke="black" points="386,-186 386,-205 460,-205 460,-186 386,-186"/>
<text text-anchor="middle" x="423" y="-193" font-family="Helvetica,sans-Serif" font-size="10.00">Button::begin</text>
</a>
</g>
</g>
<!-- Node10 -->
<g id="node2" class="node"><title>Node10</title>
<g id="a_node2"><a xlink:href="../../df/d38/classIncrementButton.html#a03eb36a87c5651067e384134843bdb65" target="_top" xlink:title=" ">
<polygon fill="white" stroke="black" points="216,-304 216,-323 334,-323 334,-304 216,-304"/>
<text text-anchor="middle" x="275" y="-311" font-family="Helvetica,sans-Serif" font-size="10.00">IncrementButton::begin</text>
</a>
</g>
</g>
<!-- Node9&#45;&gt;Node10 -->
<g id="edge1" class="edge"><title>Node9&#45;&gt;Node10</title>
<path fill="none" stroke="midnightblue" d="M413.009,-214.138C401.453,-236.126 379.332,-272.243 350,-292.5 342.967,-297.357 334.826,-301.098 326.57,-303.977"/>
<polygon fill="midnightblue" stroke="midnightblue" points="416.171,-215.641 417.563,-205.138 409.925,-212.481 416.171,-215.641"/>
</g>
<!-- Node12 -->
<g id="node4" class="node"><title>Node12</title>
<g id="a_node4"><a xlink:href="../../d5/d20/classIncrementDecrementButtons.html#af661941dbb4a67e2b3919306bae23c8f" target="_top" xlink:title=" ">
<polygon fill="white" stroke="black" points="204,-252.5 204,-282.5 346,-282.5 346,-252.5 204,-252.5"/>
<text text-anchor="start" x="212" y="-270.5" font-family="Helvetica,sans-Serif" font-size="10.00">IncrementDecrementButtons</text>
<text text-anchor="middle" x="275" y="-259.5" font-family="Helvetica,sans-Serif" font-size="10.00">::begin</text>
</a>
</g>
</g>
<!-- Node9&#45;&gt;Node12 -->
<g id="edge3" class="edge"><title>Node9&#45;&gt;Node12</title>
<path fill="none" stroke="midnightblue" d="M401.208,-211.097C387.258,-221.043 368.175,-233.674 350,-242.5 342.559,-246.113 334.463,-249.424 326.445,-252.371"/>
<polygon fill="midnightblue" stroke="midnightblue" points="403.543,-213.727 409.573,-205.016 399.427,-208.065 403.543,-213.727"/>
</g>
<!-- Node15 -->
<g id="node7" class="node"><title>Node15</title>
<g id="a_node7"><a xlink:href="../../d6/d72/classMIDIButton.html#a04eb4983b55b7362a561fc808a605ba1" target="_top" xlink:title=" ">
<polygon fill="white" stroke="black" points="227,-214 227,-233 323,-233 323,-214 227,-214"/>
<text text-anchor="middle" x="275" y="-221" font-family="Helvetica,sans-Serif" font-size="10.00">MIDIButton::begin</text>
</a>
</g>
</g>
<!-- Node9&#45;&gt;Node15 -->
<g id="edge6" class="edge"><title>Node9&#45;&gt;Node15</title>
<path fill="none" stroke="midnightblue" d="M375.798,-204.361C359.041,-207.574 340.097,-211.207 323.251,-214.438"/>
<polygon fill="midnightblue" stroke="midnightblue" points="376.748,-207.742 385.91,-202.421 375.43,-200.868 376.748,-207.742"/>
</g>
<!-- Node16 -->
<g id="node8" class="node"><title>Node16</title>
<g id="a_node8"><a xlink:href="../../d9/df9/classBankable_1_1MIDIButton.html#a125820966ab551393b8b4df765cd6447" target="_top" xlink:title=" ">
<polygon fill="white" stroke="black" points="204,-142.5 204,-194.5 346,-194.5 346,-142.5 204,-142.5"/>
<text text-anchor="start" x="212" y="-182.5" font-family="Helvetica,sans-Serif" font-size="10.00">Bankable::MIDIButton</text>
<text text-anchor="start" x="212" y="-171.5" font-family="Helvetica,sans-Serif" font-size="10.00">&lt; DigitalCCSender::sendOn,</text>
<text text-anchor="start" x="212" y="-160.5" font-family="Helvetica,sans-Serif" font-size="10.00"> DigitalCCSender::sendOff</text>
<text text-anchor="middle" x="275" y="-149.5" font-family="Helvetica,sans-Serif" font-size="10.00"> &gt;::begin</text>
</a>
</g>
</g>
<!-- Node9&#45;&gt;Node16 -->
<g id="edge7" class="edge"><title>Node9&#45;&gt;Node16</title>
<path fill="none" stroke="midnightblue" d="M375.937,-186.982C366.458,-185.229 356.274,-183.345 346.162,-181.475"/>
<polygon fill="midnightblue" stroke="midnightblue" points="375.44,-190.449 385.91,-188.826 376.713,-183.566 375.44,-190.449"/>
</g>
<!-- Node17 -->
<g id="node9" class="node"><title>Node17</title>
<g id="a_node9"><a xlink:href="../../d8/de1/classMIDIButtonLatching.html#a2008b6b51e779d44e87129e43f5ccc3c" target="_top" xlink:title=" ">
<polygon fill="white" stroke="black" points="204,-71.5 204,-123.5 346,-123.5 346,-71.5 204,-71.5"/>
<text text-anchor="start" x="212" y="-111.5" font-family="Helvetica,sans-Serif" font-size="10.00">MIDIButtonLatching</text>
<text text-anchor="start" x="212" y="-100.5" font-family="Helvetica,sans-Serif" font-size="10.00">&lt; DigitalCCSender::sendOn,</text>
<text text-anchor="start" x="212" y="-89.5" font-family="Helvetica,sans-Serif" font-size="10.00"> DigitalCCSender::sendOff</text>
<text text-anchor="middle" x="275" y="-78.5" font-family="Helvetica,sans-Serif" font-size="10.00"> &gt;::begin</text>
</a>
</g>
</g>
<!-- Node9&#45;&gt;Node17 -->
<g id="edge8" class="edge"><title>Node9&#45;&gt;Node17</title>
<path fill="none" stroke="midnightblue" d="M405.01,-178.633C391.027,-165.323 370.276,-146.838 350,-133.5 344.748,-130.045 339.116,-126.715 333.388,-123.568"/>
<polygon fill="midnightblue" stroke="midnightblue" points="402.788,-181.353 412.407,-185.795 407.657,-176.324 402.788,-181.353"/>
</g>
<!-- Node18 -->
<g id="node10" class="node"><title>Node18</title>
<g id="a_node10"><a xlink:href="../../d3/d0b/classBankable_1_1MIDIButtonLatching.html#a1b550d81a44c65797651145102e39d70" target="_top" xlink:title=" ">
<polygon fill="white" stroke="black" points="200,-0.5 200,-52.5 350,-52.5 350,-0.5 200,-0.5"/>
<text text-anchor="start" x="208" y="-40.5" font-family="Helvetica,sans-Serif" font-size="10.00">Bankable::MIDIButtonLatching</text>
<text text-anchor="start" x="208" y="-29.5" font-family="Helvetica,sans-Serif" font-size="10.00">&lt; DigitalCCSender::sendOn,</text>
<text text-anchor="start" x="208" y="-18.5" font-family="Helvetica,sans-Serif" font-size="10.00"> DigitalCCSender::sendOff</text>
<text text-anchor="middle" x="275" y="-7.5" font-family="Helvetica,sans-Serif" font-size="10.00"> &gt;::begin</text>
</a>
</g>
</g>
<!-- Node9&#45;&gt;Node18 -->
<g id="edge9" class="edge"><title>Node9&#45;&gt;Node18</title>
<path fill="none" stroke="midnightblue" d="M415.902,-176.354C406.079,-148.18 384.305,-95.3479 350,-62.5 346.285,-58.9429 342.152,-55.6744 337.791,-52.6835"/>
<polygon fill="midnightblue" stroke="midnightblue" points="412.589,-177.481 419.084,-185.852 419.226,-175.258 412.589,-177.481"/>
</g>
<!-- Node11 -->
<g id="node3" class="node"><title>Node11</title>
<g id="a_node3"><a xlink:href="../../d4/de9/classIncrementSelector__Base.html#a54033279b3d555050b23e21f870cf851" target="_top" xlink:title=" ">
<polygon fill="white" stroke="black" points="20,-301.5 20,-331.5 144,-331.5 144,-301.5 20,-301.5"/>
<text text-anchor="start" x="28" y="-319.5" font-family="Helvetica,sans-Serif" font-size="10.00">IncrementSelector_Base</text>
<text text-anchor="middle" x="82" y="-308.5" font-family="Helvetica,sans-Serif" font-size="10.00">::beginInput</text>
</a>
</g>
</g>
<!-- Node10&#45;&gt;Node11 -->
<g id="edge2" class="edge"><title>Node10&#45;&gt;Node11</title>
<path fill="none" stroke="midnightblue" d="M205.874,-314.57C185.724,-314.887 163.798,-315.231 144.119,-315.54"/>
<polygon fill="midnightblue" stroke="midnightblue" points="205.972,-318.069 215.916,-314.412 205.862,-311.07 205.972,-318.069"/>
</g>
<!-- Node13 -->
<g id="node5" class="node"><title>Node13</title>
<g id="a_node5"><a xlink:href="../../de/d06/classIncrementDecrementSelector__Base.html#a1b9217b63785445fbf994e06f87d59b1" target="_top" xlink:title=" ">
<polygon fill="white" stroke="black" points="10,-252.5 10,-282.5 154,-282.5 154,-252.5 10,-252.5"/>
<text text-anchor="start" x="18" y="-270.5" font-family="Helvetica,sans-Serif" font-size="10.00">IncrementDecrementSelector</text>
<text text-anchor="middle" x="82" y="-259.5" font-family="Helvetica,sans-Serif" font-size="10.00">_Base::beginInput</text>
</a>
</g>
</g>
<!-- Node12&#45;&gt;Node13 -->
<g id="edge4" class="edge"><title>Node12&#45;&gt;Node13</title>
<path fill="none" stroke="midnightblue" d="M193.601,-267.5C180.553,-267.5 167.12,-267.5 154.308,-267.5"/>
<polygon fill="midnightblue" stroke="midnightblue" points="193.963,-271 203.963,-267.5 193.963,-264 193.963,-271"/>
</g>
<!-- Node14 -->
<g id="node6" class="node"><title>Node14</title>
<g id="a_node6"><a xlink:href="../../dc/dc2/classMIDIIncrementDecrementButtons.html#ab4a676fd35e419713549f8be2b4cbc3a" target="_top" xlink:title=" ">
<polygon fill="white" stroke="black" points="0,-193 0,-234 164,-234 164,-193 0,-193"/>
<text text-anchor="start" x="8" y="-222" font-family="Helvetica,sans-Serif" font-size="10.00">MIDIIncrementDecrementButtons</text>
<text text-anchor="start" x="8" y="-211" font-family="Helvetica,sans-Serif" font-size="10.00">&lt; RelativeCCSender::send</text>
<text text-anchor="middle" x="82" y="-200" font-family="Helvetica,sans-Serif" font-size="10.00"> &gt;::begin</text>
</a>
</g>
</g>
<!-- Node12&#45;&gt;Node14 -->
<g id="edge5" class="edge"><title>Node12&#45;&gt;Node14</title>
<path fill="none" stroke="midnightblue" d="M211.114,-249.721C193.336,-244.694 173.844,-239.184 155.547,-234.011"/>
<polygon fill="midnightblue" stroke="midnightblue" points="210.221,-253.105 220.796,-252.458 212.125,-246.369 210.221,-253.105"/>
</g>
</g>
</svg>
