<?xml version="1.0" encoding="UTF-8" standalone="no"?>
<!DOCTYPE svg PUBLIC "-//W3C//DTD SVG 1.1//EN"
 "http://www.w3.org/Graphics/SVG/1.1/DTD/svg11.dtd">
<!-- Generated by graphviz version 2.38.0 (20140413.2041)
 -->
<!-- Title: SerialMIDI_Interface&lt; T &gt; Pages: 1 -->
<svg width="377pt" height="948pt"
 viewBox="0.00 0.00 377.00 948.00" xmlns="http://www.w3.org/2000/svg" xmlns:xlink="http://www.w3.org/1999/xlink">
<g id="graph0" class="graph" transform="scale(1 1) rotate(0) translate(4 944)">
<title>SerialMIDI_Interface&lt; T &gt;</title>
<polygon fill="white" stroke="none" points="-4,4 -4,-944 373,-944 373,4 -4,4"/>
<!-- Node3 -->
<g id="node1" class="node"><title>Node3</title>
<g id="a_node1"><a xlink:title="A wrapper class for MIDI interfaces sending and receiving MIDI messages over a Serial port of class T...">
<polygon fill="#bfbfbf" stroke="black" points="111,-0.5 111,-68.5 242,-68.5 242,-0.5 111,-0.5"/>
<text text-anchor="middle" x="176.5" y="-56.5" font-family="Helvetica,sans-Serif" font-size="10.00">SerialMIDI_Interface&lt; T &gt;</text>
<polyline fill="none" stroke="black" points="111,-49.5 242,-49.5 "/>
<text text-anchor="start" x="119" y="-37.5" font-family="Helvetica,sans-Serif" font-size="10.00">&#45; baud</text>
<polyline fill="none" stroke="black" points="111,-30.5 242,-30.5 "/>
<text text-anchor="start" x="119" y="-18.5" font-family="Helvetica,sans-Serif" font-size="10.00">+ SerialMIDI_Interface()</text>
<text text-anchor="start" x="119" y="-7.5" font-family="Helvetica,sans-Serif" font-size="10.00">+ begin()</text>
</a>
</g>
</g>
<!-- Node4 -->
<g id="node2" class="node"><title>Node4</title>
<g id="a_node2"><a xlink:href="../../d3/dc3/classStreamMIDI__Interface.html" target="_top" xlink:title="A class for MIDI interfaces sending and receiving MIDI messages over a Stream.">
<polygon fill="white" stroke="black" points="40.5,-116.5 40.5,-206.5 168.5,-206.5 168.5,-116.5 40.5,-116.5"/>
<text text-anchor="middle" x="104.5" y="-194.5" font-family="Helvetica,sans-Serif" font-size="10.00">StreamMIDI_Interface</text>
<polyline fill="none" stroke="black" points="40.5,-187.5 168.5,-187.5 "/>
<text text-anchor="start" x="48.5" y="-175.5" font-family="Helvetica,sans-Serif" font-size="10.00"># stream</text>
<polyline fill="none" stroke="black" points="40.5,-168.5 168.5,-168.5 "/>
<text text-anchor="start" x="48.5" y="-156.5" font-family="Helvetica,sans-Serif" font-size="10.00">+ StreamMIDI_Interface()</text>
<text text-anchor="start" x="48.5" y="-145.5" font-family="Helvetica,sans-Serif" font-size="10.00">+ read()</text>
<text text-anchor="start" x="48.5" y="-134.5" font-family="Helvetica,sans-Serif" font-size="10.00"># sendImpl()</text>
<text text-anchor="start" x="48.5" y="-123.5" font-family="Helvetica,sans-Serif" font-size="10.00"># sendImpl()</text>
</a>
</g>
</g>
<!-- Node4&#45;&gt;Node3 -->
<g id="edge1" class="edge"><title>Node4&#45;&gt;Node3</title>
<path fill="none" stroke="midnightblue" d="M135.073,-107.422C142.668,-94.2363 150.593,-80.4777 157.453,-68.5672"/>
<polygon fill="none" stroke="midnightblue" points="131.843,-106.017 129.885,-116.43 137.909,-109.511 131.843,-106.017"/>
</g>
<!-- Node5 -->
<g id="node3" class="node"><title>Node5</title>
<g id="a_node3"><a xlink:href="../../d9/d73/classMIDI__Interface.html" target="_top" xlink:title="An abstract class for MIDI interfaces.">
<polygon fill="white" stroke="black" points="127,-254.5 127,-564.5 248,-564.5 248,-254.5 127,-254.5"/>
<text text-anchor="middle" x="187.5" y="-552.5" font-family="Helvetica,sans-Serif" font-size="10.00">MIDI_Interface</text>
<polyline fill="none" stroke="black" points="127,-545.5 248,-545.5 "/>
<text text-anchor="middle" x="187.5" y="-533.5" font-family="Helvetica,sans-Serif" font-size="10.00"> </text>
<polyline fill="none" stroke="black" points="127,-526.5 248,-526.5 "/>
<text text-anchor="start" x="135" y="-514.5" font-family="Helvetica,sans-Serif" font-size="10.00">+ setCallbacks()</text>
<text text-anchor="start" x="135" y="-503.5" font-family="Helvetica,sans-Serif" font-size="10.00">+ ~MIDI_Interface()</text>
<text text-anchor="start" x="135" y="-492.5" font-family="Helvetica,sans-Serif" font-size="10.00">+ begin()</text>
<text text-anchor="start" x="135" y="-481.5" font-family="Helvetica,sans-Serif" font-size="10.00">+ send()</text>
<text text-anchor="start" x="135" y="-470.5" font-family="Helvetica,sans-Serif" font-size="10.00">+ send()</text>
<text text-anchor="start" x="135" y="-459.5" font-family="Helvetica,sans-Serif" font-size="10.00">+ sendNoteOn()</text>
<text text-anchor="start" x="135" y="-448.5" font-family="Helvetica,sans-Serif" font-size="10.00">+ sendNoteOff()</text>
<text text-anchor="start" x="135" y="-437.5" font-family="Helvetica,sans-Serif" font-size="10.00">+ sendCC()</text>
<text text-anchor="start" x="135" y="-426.5" font-family="Helvetica,sans-Serif" font-size="10.00">+ sendPB()</text>
<text text-anchor="start" x="135" y="-415.5" font-family="Helvetica,sans-Serif" font-size="10.00">+ sendPB()</text>
<text text-anchor="start" x="135" y="-404.5" font-family="Helvetica,sans-Serif" font-size="10.00">+ update()</text>
<text text-anchor="start" x="135" y="-393.5" font-family="Helvetica,sans-Serif" font-size="10.00">+ read()</text>
<text text-anchor="start" x="135" y="-382.5" font-family="Helvetica,sans-Serif" font-size="10.00">+ setAsDefault()</text>
<text text-anchor="start" x="135" y="-371.5" font-family="Helvetica,sans-Serif" font-size="10.00">+ getChannelMessage()</text>
<text text-anchor="start" x="135" y="-360.5" font-family="Helvetica,sans-Serif" font-size="10.00">+ getSysExLength()</text>
<text text-anchor="start" x="135" y="-349.5" font-family="Helvetica,sans-Serif" font-size="10.00">+ getSysExBuffer()</text>
<text text-anchor="start" x="135" y="-338.5" font-family="Helvetica,sans-Serif" font-size="10.00">+ getDefault()</text>
<text text-anchor="start" x="135" y="-327.5" font-family="Helvetica,sans-Serif" font-size="10.00"># MIDI_Interface()</text>
<text text-anchor="start" x="135" y="-316.5" font-family="Helvetica,sans-Serif" font-size="10.00"># onChannelMessage()</text>
<text text-anchor="start" x="135" y="-305.5" font-family="Helvetica,sans-Serif" font-size="10.00"># onSysExMessage()</text>
<text text-anchor="start" x="135" y="-294.5" font-family="Helvetica,sans-Serif" font-size="10.00"># onRealtimeMessage()</text>
<text text-anchor="start" x="135" y="-283.5" font-family="Helvetica,sans-Serif" font-size="10.00"># dispatchMIDIEvent()</text>
<text text-anchor="start" x="135" y="-272.5" font-family="Helvetica,sans-Serif" font-size="10.00">&#45; sendImpl()</text>
<text text-anchor="start" x="135" y="-261.5" font-family="Helvetica,sans-Serif" font-size="10.00">&#45; sendImpl()</text>
</a>
</g>
</g>
<!-- Node5&#45;&gt;Node4 -->
<g id="edge2" class="edge"><title>Node5&#45;&gt;Node4</title>
<path fill="none" stroke="midnightblue" d="M140.574,-244.507C138.26,-237.893 135.899,-231.368 133.5,-225 131.223,-218.955 128.616,-212.68 125.919,-206.54"/>
<polygon fill="none" stroke="midnightblue" points="137.366,-245.939 143.929,-254.256 143.985,-243.661 137.366,-245.939"/>
</g>
<!-- Node5&#45;&gt;Node5 -->
<g id="edge6" class="edge"><title>Node5&#45;&gt;Node5</title>
<path fill="none" stroke="#404040" d="M248.062,-440.789C258.641,-436.617 266,-426.188 266,-409.5 266,-398.81 262.98,-390.687 258.027,-385.133"/>
<polygon fill="none" stroke="#404040" points="257.917,-385.057 250.707,-384.919 248.062,-378.211 255.271,-378.349 257.917,-385.057"/>
<text text-anchor="middle" x="317.5" y="-407" font-family="Helvetica,sans-Serif" font-size="10.00"> &#45;DefaultMIDI_Interface</text>
</g>
<!-- Node6 -->
<g id="node4" class="node"><title>Node6</title>
<g id="a_node4"><a xlink:href="../../df/d0c/classMIDI__Parser.html" target="_top" xlink:title=" ">
<polygon fill="white" stroke="black" points="0,-612.5 0,-801.5 121,-801.5 121,-612.5 0,-612.5"/>
<text text-anchor="middle" x="60.5" y="-789.5" font-family="Helvetica,sans-Serif" font-size="10.00">MIDI_Parser</text>
<polyline fill="none" stroke="black" points="0,-782.5 121,-782.5 "/>
<text text-anchor="start" x="8" y="-770.5" font-family="Helvetica,sans-Serif" font-size="10.00"># SysExBuffer</text>
<text text-anchor="start" x="8" y="-759.5" font-family="Helvetica,sans-Serif" font-size="10.00"># SysExLength</text>
<text text-anchor="start" x="8" y="-748.5" font-family="Helvetica,sans-Serif" font-size="10.00"># receivingSysEx</text>
<text text-anchor="start" x="8" y="-737.5" font-family="Helvetica,sans-Serif" font-size="10.00"># bufferSize</text>
<polyline fill="none" stroke="black" points="0,-730.5 121,-730.5 "/>
<text text-anchor="start" x="8" y="-718.5" font-family="Helvetica,sans-Serif" font-size="10.00">+ getChannelMessage()</text>
<text text-anchor="start" x="8" y="-707.5" font-family="Helvetica,sans-Serif" font-size="10.00">+ getSysExBuffer()</text>
<text text-anchor="start" x="8" y="-696.5" font-family="Helvetica,sans-Serif" font-size="10.00">+ getSysExLength()</text>
<text text-anchor="start" x="8" y="-685.5" font-family="Helvetica,sans-Serif" font-size="10.00">+ getSysExMessage()</text>
<text text-anchor="start" x="8" y="-674.5" font-family="Helvetica,sans-Serif" font-size="10.00">+ isStatus()</text>
<text text-anchor="start" x="8" y="-663.5" font-family="Helvetica,sans-Serif" font-size="10.00">+ isData()</text>
<text text-anchor="start" x="8" y="-652.5" font-family="Helvetica,sans-Serif" font-size="10.00"># startSysEx()</text>
<text text-anchor="start" x="8" y="-641.5" font-family="Helvetica,sans-Serif" font-size="10.00"># endSysEx()</text>
<text text-anchor="start" x="8" y="-630.5" font-family="Helvetica,sans-Serif" font-size="10.00"># addSysExByte()</text>
<text text-anchor="start" x="8" y="-619.5" font-family="Helvetica,sans-Serif" font-size="10.00"># hasSpaceLeft()</text>
</a>
</g>
</g>
<!-- Node6&#45;&gt;Node5 -->
<g id="edge3" class="edge"><title>Node6&#45;&gt;Node5</title>
<path fill="none" stroke="#404040" d="M100.858,-612.096C107.68,-596.223 114.915,-579.389 122.181,-562.481"/>
<polygon fill="none" stroke="#404040" points="122.219,-562.394 120.913,-555.302 126.957,-551.369 128.263,-558.461 122.219,-562.394"/>
<text text-anchor="middle" x="130.5" y="-586" font-family="Helvetica,sans-Serif" font-size="10.00"> &#45;parser</text>
</g>
<!-- Node9 -->
<g id="node7" class="node"><title>Node9</title>
<g id="a_node7"><a xlink:href="../../d0/d0d/classSerialMIDI__Parser.html" target="_top" xlink:title=" ">
<polygon fill="white" stroke="black" points="12,-381 12,-438 109,-438 109,-381 12,-381"/>
<text text-anchor="middle" x="60.5" y="-426" font-family="Helvetica,sans-Serif" font-size="10.00">SerialMIDI_Parser</text>
<polyline fill="none" stroke="black" points="12,-419 109,-419 "/>
<text text-anchor="start" x="20" y="-407" font-family="Helvetica,sans-Serif" font-size="10.00">&#45; thirdByte</text>
<polyline fill="none" stroke="black" points="12,-400 109,-400 "/>
<text text-anchor="start" x="20" y="-388" font-family="Helvetica,sans-Serif" font-size="10.00">+ parse()</text>
</a>
</g>
</g>
<!-- Node6&#45;&gt;Node9 -->
<g id="edge8" class="edge"><title>Node6&#45;&gt;Node9</title>
<path fill="none" stroke="midnightblue" d="M60.5,-602.081C60.5,-543.751 60.5,-475.4 60.5,-438.153"/>
<polygon fill="none" stroke="midnightblue" points="57.0001,-602.096 60.5,-612.096 64.0001,-602.096 57.0001,-602.096"/>
</g>
<!-- Node7 -->
<g id="node5" class="node"><title>Node7</title>
<g id="a_node5"><a xlink:href="../../de/df8/structMIDI__message.html" target="_top" xlink:title=" ">
<polygon fill="white" stroke="black" points="19,-849.5 19,-939.5 102,-939.5 102,-849.5 19,-849.5"/>
<text text-anchor="middle" x="60.5" y="-927.5" font-family="Helvetica,sans-Serif" font-size="10.00">MIDI_message</text>
<polyline fill="none" stroke="black" points="19,-920.5 102,-920.5 "/>
<text text-anchor="start" x="27" y="-908.5" font-family="Helvetica,sans-Serif" font-size="10.00">+ header</text>
<text text-anchor="start" x="27" y="-897.5" font-family="Helvetica,sans-Serif" font-size="10.00">+ data1</text>
<text text-anchor="start" x="27" y="-886.5" font-family="Helvetica,sans-Serif" font-size="10.00">+ data2</text>
<polyline fill="none" stroke="black" points="19,-879.5 102,-879.5 "/>
<text text-anchor="start" x="27" y="-867.5" font-family="Helvetica,sans-Serif" font-size="10.00">+ operator==()</text>
<text text-anchor="start" x="27" y="-856.5" font-family="Helvetica,sans-Serif" font-size="10.00">+ operator!=()</text>
</a>
</g>
</g>
<!-- Node7&#45;&gt;Node6 -->
<g id="edge4" class="edge"><title>Node7&#45;&gt;Node6</title>
<path fill="none" stroke="#404040" d="M60.5,-849.068C60.5,-838.296 60.5,-826.318 60.5,-814.021"/>
<polygon fill="none" stroke="#404040" points="60.5001,-813.652 56.5,-807.652 60.5,-801.652 64.5,-807.652 60.5001,-813.652"/>
<text text-anchor="middle" x="83.5" y="-823" font-family="Helvetica,sans-Serif" font-size="10.00"> #midimsg</text>
</g>
<!-- Node8 -->
<g id="node6" class="node"><title>Node8</title>
<g id="a_node6"><a xlink:href="../../de/d55/classMIDI__Callbacks.html" target="_top" xlink:title="A class for callbacks from MIDI input.">
<polygon fill="white" stroke="black" points="139.5,-662 139.5,-752 257.5,-752 257.5,-662 139.5,-662"/>
<text text-anchor="middle" x="198.5" y="-740" font-family="Helvetica,sans-Serif" font-size="10.00">MIDI_Callbacks</text>
<polyline fill="none" stroke="black" points="139.5,-733 257.5,-733 "/>
<text text-anchor="middle" x="198.5" y="-721" font-family="Helvetica,sans-Serif" font-size="10.00"> </text>
<polyline fill="none" stroke="black" points="139.5,-714 257.5,-714 "/>
<text text-anchor="start" x="147.5" y="-702" font-family="Helvetica,sans-Serif" font-size="10.00">+ ~MIDI_Callbacks()</text>
<text text-anchor="start" x="147.5" y="-691" font-family="Helvetica,sans-Serif" font-size="10.00">&#45; onChannelMessage()</text>
<text text-anchor="start" x="147.5" y="-680" font-family="Helvetica,sans-Serif" font-size="10.00">&#45; onSysExMessage()</text>
<text text-anchor="start" x="147.5" y="-669" font-family="Helvetica,sans-Serif" font-size="10.00">&#45; onRealtimeMessage()</text>
</a>
</g>
</g>
<!-- Node8&#45;&gt;Node5 -->
<g id="edge5" class="edge"><title>Node8&#45;&gt;Node5</title>
<path fill="none" stroke="#404040" d="M196.853,-661.761C195.984,-638.418 194.858,-608.149 193.689,-576.748"/>
<polygon fill="none" stroke="#404040" points="193.685,-576.661 189.465,-570.814 193.239,-564.669 197.459,-570.516 193.685,-576.661"/>
<text text-anchor="middle" x="218.5" y="-586" font-family="Helvetica,sans-Serif" font-size="10.00"> &#45;callbacks</text>
</g>
<!-- Node9&#45;&gt;Node4 -->
<g id="edge7" class="edge"><title>Node9&#45;&gt;Node4</title>
<path fill="none" stroke="#404040" d="M65.4618,-380.759C72.4589,-341.639 85.3808,-269.394 94.435,-218.773"/>
<polygon fill="none" stroke="#404040" points="94.4773,-218.535 91.5963,-211.925 96.5902,-206.723 99.4713,-213.333 94.4773,-218.535"/>
<text text-anchor="middle" x="111.5" y="-228" font-family="Helvetica,sans-Serif" font-size="10.00"> #parser</text>
</g>
<!-- Node10 -->
<g id="node8" class="node"><title>Node10</title>
<g id="a_node8"><a xlink:title=" ">
<polygon fill="white" stroke="#bfbfbf" points="187,-133 187,-190 216,-190 216,-133 187,-133"/>
<text text-anchor="middle" x="201.5" y="-178" font-family="Helvetica,sans-Serif" font-size="10.00">T</text>
<polyline fill="none" stroke="#bfbfbf" points="187,-171 216,-171 "/>
<text text-anchor="middle" x="201.5" y="-159" font-family="Helvetica,sans-Serif" font-size="10.00"> </text>
<polyline fill="none" stroke="#bfbfbf" points="187,-152 216,-152 "/>
<text text-anchor="middle" x="201.5" y="-140" font-family="Helvetica,sans-Serif" font-size="10.00"> </text>
</a>
</g>
</g>
<!-- Node10&#45;&gt;Node3 -->
<g id="edge9" class="edge"><title>Node10&#45;&gt;Node3</title>
<path fill="none" stroke="#404040" d="M195.952,-132.758C192.904,-117.521 189.048,-98.2417 185.575,-80.8743"/>
<polygon fill="none" stroke="#404040" points="185.542,-80.7082 180.443,-75.6092 183.188,-68.9412 188.287,-74.0402 185.542,-80.7082"/>
<text text-anchor="middle" x="204.5" y="-90" font-family="Helvetica,sans-Serif" font-size="10.00"> &#45;serial</text>
</g>
</g>
</svg>
