<?xml version="1.0" encoding="UTF-8" standalone="no"?>
<!DOCTYPE svg PUBLIC "-//W3C//DTD SVG 1.1//EN"
 "http://www.w3.org/Graphics/SVG/1.1/DTD/svg11.dtd">
<!-- Generated by graphviz version 2.38.0 (20140413.2041)
 -->
<!-- Title: LEDs::begin Pages: 1 -->
<svg width="266pt" height="88pt"
 viewBox="0.00 0.00 266.00 88.00" xmlns="http://www.w3.org/2000/svg" xmlns:xlink="http://www.w3.org/1999/xlink">
<g id="graph0" class="graph" transform="scale(1 1) rotate(0) translate(4 84)">
<title>LEDs::begin</title>
<polygon fill="white" stroke="none" points="-4,4 -4,-84 262,-84 262,4 -4,4"/>
<!-- Node1 -->
<g id="node1" class="node"><title>Node1</title>
<g id="a_node1"><a xlink:title="Initialize (set LED pins as outputs).">
<polygon fill="#bfbfbf" stroke="black" points="187,-30 187,-49 258,-49 258,-30 187,-30"/>
<text text-anchor="middle" x="222.5" y="-37" font-family="Helvetica,sans-Serif" font-size="10.00">LEDs::begin</text>
</a>
</g>
</g>
<!-- Node2 -->
<g id="node2" class="node"><title>Node2</title>
<g id="a_node2"><a xlink:href="../../d2/d4a/classMCU_1_1VPotRingLEDsCallback.html#a66d447b710029479a2abe286f9fa6c14" target="_top" xlink:title=" ">
<polygon fill="white" stroke="black" points="0,-49.5 0,-79.5 151,-79.5 151,-49.5 0,-49.5"/>
<text text-anchor="start" x="8" y="-67.5" font-family="Helvetica,sans-Serif" font-size="10.00">MCU::VPotRingLEDsCallback</text>
<text text-anchor="middle" x="75.5" y="-56.5" font-family="Helvetica,sans-Serif" font-size="10.00">::begin</text>
</a>
</g>
</g>
<!-- Node1&#45;&gt;Node2 -->
<g id="edge1" class="edge"><title>Node1&#45;&gt;Node2</title>
<path fill="none" stroke="midnightblue" d="M176.771,-47.212C168.614,-48.6183 159.904,-50.12 151.153,-51.6288"/>
<polygon fill="midnightblue" stroke="midnightblue" points="177.509,-50.6364 186.769,-45.4881 176.32,-43.7382 177.509,-50.6364"/>
</g>
<!-- Node3 -->
<g id="node3" class="node"><title>Node3</title>
<g id="a_node3"><a xlink:href="../../d1/d72/classMCU_1_1VULEDsCallback.html#ab1763f6bbdc72fcea23459d24b022bdb" target="_top" xlink:title=" ">
<polygon fill="white" stroke="black" points="14,-0.5 14,-30.5 137,-30.5 137,-0.5 14,-0.5"/>
<text text-anchor="start" x="22" y="-18.5" font-family="Helvetica,sans-Serif" font-size="10.00">MCU::VULEDsCallback</text>
<text text-anchor="middle" x="75.5" y="-7.5" font-family="Helvetica,sans-Serif" font-size="10.00">::begin</text>
</a>
</g>
</g>
<!-- Node1&#45;&gt;Node3 -->
<g id="edge2" class="edge"><title>Node1&#45;&gt;Node3</title>
<path fill="none" stroke="midnightblue" d="M176.598,-32.0679C164.08,-29.996 150.272,-27.7105 137.014,-25.516"/>
<polygon fill="midnightblue" stroke="midnightblue" points="176.332,-35.5714 186.769,-33.7514 177.475,-28.6653 176.332,-35.5714"/>
</g>
</g>
</svg>
