<?xml version="1.0" encoding="UTF-8" standalone="no"?>
<!DOCTYPE svg PUBLIC "-//W3C//DTD SVG 1.1//EN"
 "http://www.w3.org/Graphics/SVG/1.1/DTD/svg11.dtd">
<!-- Generated by graphviz version 2.38.0 (20140413.2041)
 -->
<!-- Title: SerialMIDI_Interface&lt; T &gt; Pages: 1 -->
<svg width="621pt" height="915pt"
 viewBox="0.00 0.00 620.50 915.00" xmlns="http://www.w3.org/2000/svg" xmlns:xlink="http://www.w3.org/1999/xlink">
<g id="graph0" class="graph" transform="scale(1 1) rotate(0) translate(4 911)">
<title>SerialMIDI_Interface&lt; T &gt;</title>
<polygon fill="white" stroke="none" points="-4,4 -4,-911 616.5,-911 616.5,4 -4,4"/>
<!-- Node1 -->
<g id="node1" class="node"><title>Node1</title>
<g id="a_node1"><a xlink:title="A wrapper class for MIDI interfaces sending and receiving MIDI messages over a Serial port of class T...">
<polygon fill="#bfbfbf" stroke="black" points="224.5,-0.5 224.5,-68.5 355.5,-68.5 355.5,-0.5 224.5,-0.5"/>
<text text-anchor="middle" x="290" y="-56.5" font-family="Helvetica,sans-Serif" font-size="10.00">SerialMIDI_Interface&lt; T &gt;</text>
<polyline fill="none" stroke="black" points="224.5,-49.5 355.5,-49.5 "/>
<text text-anchor="start" x="232.5" y="-37.5" font-family="Helvetica,sans-Serif" font-size="10.00">&#45; baud</text>
<polyline fill="none" stroke="black" points="224.5,-30.5 355.5,-30.5 "/>
<text text-anchor="start" x="232.5" y="-18.5" font-family="Helvetica,sans-Serif" font-size="10.00">+ SerialMIDI_Interface()</text>
<text text-anchor="start" x="232.5" y="-7.5" font-family="Helvetica,sans-Serif" font-size="10.00">+ begin()</text>
</a>
</g>
</g>
<!-- Node2 -->
<g id="node2" class="node"><title>Node2</title>
<g id="a_node2"><a xlink:href="../../d3/dc3/classStreamMIDI__Interface.html" target="_top" xlink:title="A class for MIDI interfaces sending and receiving MIDI messages over a Stream.">
<polygon fill="white" stroke="black" points="154,-116.5 154,-217.5 282,-217.5 282,-116.5 154,-116.5"/>
<text text-anchor="middle" x="218" y="-205.5" font-family="Helvetica,sans-Serif" font-size="10.00">StreamMIDI_Interface</text>
<polyline fill="none" stroke="black" points="154,-198.5 282,-198.5 "/>
<text text-anchor="start" x="162" y="-186.5" font-family="Helvetica,sans-Serif" font-size="10.00"># stream</text>
<polyline fill="none" stroke="black" points="154,-179.5 282,-179.5 "/>
<text text-anchor="start" x="162" y="-167.5" font-family="Helvetica,sans-Serif" font-size="10.00">+ StreamMIDI_Interface()</text>
<text text-anchor="start" x="162" y="-156.5" font-family="Helvetica,sans-Serif" font-size="10.00">+ read()</text>
<text text-anchor="start" x="162" y="-145.5" font-family="Helvetica,sans-Serif" font-size="10.00"># sendImpl()</text>
<text text-anchor="start" x="162" y="-134.5" font-family="Helvetica,sans-Serif" font-size="10.00"># sendImpl()</text>
<text text-anchor="start" x="162" y="-123.5" font-family="Helvetica,sans-Serif" font-size="10.00"># sendImpl()</text>
</a>
</g>
</g>
<!-- Node2&#45;&gt;Node1 -->
<g id="edge1" class="edge"><title>Node2&#45;&gt;Node1</title>
<path fill="none" stroke="midnightblue" d="M250.45,-107.184C257.775,-93.9079 265.298,-80.2725 271.79,-68.5058"/>
<polygon fill="none" stroke="midnightblue" points="247.192,-105.845 245.426,-116.291 253.321,-109.226 247.192,-105.845"/>
</g>
<!-- Node3 -->
<g id="node3" class="node"><title>Node3</title>
<g id="a_node3"><a xlink:href="../../de/d76/classParsing__MIDI__Interface.html" target="_top" xlink:title="An abstract class for MIDI interfaces.">
<polygon fill="white" stroke="black" points="241,-265.5 241,-443.5 375,-443.5 375,-265.5 241,-265.5"/>
<text text-anchor="middle" x="308" y="-431.5" font-family="Helvetica,sans-Serif" font-size="10.00">Parsing_MIDI_Interface</text>
<polyline fill="none" stroke="black" points="241,-424.5 375,-424.5 "/>
<text text-anchor="middle" x="308" y="-412.5" font-family="Helvetica,sans-Serif" font-size="10.00"> </text>
<polyline fill="none" stroke="black" points="241,-405.5 375,-405.5 "/>
<text text-anchor="start" x="249" y="-393.5" font-family="Helvetica,sans-Serif" font-size="10.00">+ getParser()</text>
<text text-anchor="start" x="249" y="-382.5" font-family="Helvetica,sans-Serif" font-size="10.00">+ getChannelMessage()</text>
<text text-anchor="start" x="249" y="-371.5" font-family="Helvetica,sans-Serif" font-size="10.00">+ getSysExMessage()</text>
<text text-anchor="start" x="249" y="-360.5" font-family="Helvetica,sans-Serif" font-size="10.00">+ getCN()</text>
<text text-anchor="start" x="249" y="-349.5" font-family="Helvetica,sans-Serif" font-size="10.00">+ update()</text>
<text text-anchor="start" x="249" y="-338.5" font-family="Helvetica,sans-Serif" font-size="10.00">+ setCallbacks()</text>
<text text-anchor="start" x="249" y="-327.5" font-family="Helvetica,sans-Serif" font-size="10.00"># Parsing_MIDI_Interface()</text>
<text text-anchor="start" x="249" y="-316.5" font-family="Helvetica,sans-Serif" font-size="10.00"># dispatchMIDIEvent()</text>
<text text-anchor="start" x="249" y="-305.5" font-family="Helvetica,sans-Serif" font-size="10.00">&#45; read()</text>
<text text-anchor="start" x="249" y="-294.5" font-family="Helvetica,sans-Serif" font-size="10.00">&#45; onRealtimeMessage()</text>
<text text-anchor="start" x="249" y="-283.5" font-family="Helvetica,sans-Serif" font-size="10.00">&#45; onChannelMessage()</text>
<text text-anchor="start" x="249" y="-272.5" font-family="Helvetica,sans-Serif" font-size="10.00">&#45; onSysExMessage()</text>
</a>
</g>
</g>
<!-- Node3&#45;&gt;Node2 -->
<g id="edge2" class="edge"><title>Node3&#45;&gt;Node2</title>
<path fill="none" stroke="midnightblue" d="M260.747,-256.106C254.261,-242.739 247.838,-229.5 242.019,-217.505"/>
<polygon fill="none" stroke="midnightblue" points="257.726,-257.899 265.24,-265.368 264.024,-254.843 257.726,-257.899"/>
</g>
<!-- Node4 -->
<g id="node4" class="node"><title>Node4</title>
<g id="a_node4"><a xlink:href="../../d9/d73/classMIDI__Interface.html" target="_top" xlink:title="An abstract class for MIDI interfaces.">
<polygon fill="white" stroke="black" points="388.5,-491.5 388.5,-757.5 491.5,-757.5 491.5,-491.5 388.5,-491.5"/>
<text text-anchor="middle" x="440" y="-745.5" font-family="Helvetica,sans-Serif" font-size="10.00">MIDI_Interface</text>
<polyline fill="none" stroke="black" points="388.5,-738.5 491.5,-738.5 "/>
<text text-anchor="middle" x="440" y="-726.5" font-family="Helvetica,sans-Serif" font-size="10.00"> </text>
<polyline fill="none" stroke="black" points="388.5,-719.5 491.5,-719.5 "/>
<text text-anchor="start" x="396.5" y="-707.5" font-family="Helvetica,sans-Serif" font-size="10.00">+ ~MIDI_Interface()</text>
<text text-anchor="start" x="396.5" y="-696.5" font-family="Helvetica,sans-Serif" font-size="10.00">+ begin()</text>
<text text-anchor="start" x="396.5" y="-685.5" font-family="Helvetica,sans-Serif" font-size="10.00">+ send()</text>
<text text-anchor="start" x="396.5" y="-674.5" font-family="Helvetica,sans-Serif" font-size="10.00">+ send()</text>
<text text-anchor="start" x="396.5" y="-663.5" font-family="Helvetica,sans-Serif" font-size="10.00">+ sendCN()</text>
<text text-anchor="start" x="396.5" y="-652.5" font-family="Helvetica,sans-Serif" font-size="10.00">+ sendCN()</text>
<text text-anchor="start" x="396.5" y="-641.5" font-family="Helvetica,sans-Serif" font-size="10.00">+ sendNoteOn()</text>
<text text-anchor="start" x="396.5" y="-630.5" font-family="Helvetica,sans-Serif" font-size="10.00">+ sendNoteOff()</text>
<text text-anchor="start" x="396.5" y="-619.5" font-family="Helvetica,sans-Serif" font-size="10.00">+ sendCC()</text>
<text text-anchor="start" x="396.5" y="-608.5" font-family="Helvetica,sans-Serif" font-size="10.00">+ sendPB()</text>
<text text-anchor="start" x="396.5" y="-597.5" font-family="Helvetica,sans-Serif" font-size="10.00">+ sendPB()</text>
<text text-anchor="start" x="396.5" y="-586.5" font-family="Helvetica,sans-Serif" font-size="10.00">+ sendPC()</text>
<text text-anchor="start" x="396.5" y="-575.5" font-family="Helvetica,sans-Serif" font-size="10.00">+ update()</text>
<text text-anchor="start" x="396.5" y="-564.5" font-family="Helvetica,sans-Serif" font-size="10.00">+ setAsDefault()</text>
<text text-anchor="start" x="396.5" y="-553.5" font-family="Helvetica,sans-Serif" font-size="10.00">+ setCallbacks()</text>
<text text-anchor="start" x="396.5" y="-542.5" font-family="Helvetica,sans-Serif" font-size="10.00">+ sendImpl()</text>
<text text-anchor="start" x="396.5" y="-531.5" font-family="Helvetica,sans-Serif" font-size="10.00">+ sendImpl()</text>
<text text-anchor="start" x="396.5" y="-520.5" font-family="Helvetica,sans-Serif" font-size="10.00">+ sendImpl()</text>
<text text-anchor="start" x="396.5" y="-509.5" font-family="Helvetica,sans-Serif" font-size="10.00">+ getDefault()</text>
<text text-anchor="start" x="396.5" y="-498.5" font-family="Helvetica,sans-Serif" font-size="10.00"># MIDI_Interface()</text>
</a>
</g>
</g>
<!-- Node4&#45;&gt;Node3 -->
<g id="edge3" class="edge"><title>Node4&#45;&gt;Node3</title>
<path fill="none" stroke="midnightblue" d="M384.018,-501.287C382.338,-497.815 380.662,-494.38 379,-491 371.44,-475.628 363.183,-459.401 355.06,-443.725"/>
<polygon fill="none" stroke="midnightblue" points="380.986,-503.057 388.476,-510.55 387.294,-500.021 380.986,-503.057"/>
</g>
<!-- Node4&#45;&gt;Node4 -->
<g id="edge4" class="edge"><title>Node4&#45;&gt;Node4</title>
<path fill="none" stroke="#404040" d="M491.525,-652.634C502,-649.569 509.5,-640.191 509.5,-624.5 509.5,-614.938 506.715,-607.72 502.169,-602.847"/>
<polygon fill="none" stroke="#404040" points="501.774,-602.607 494.569,-602.903 491.525,-596.366 498.73,-596.07 501.774,-602.607"/>
<text text-anchor="middle" x="561" y="-622" font-family="Helvetica,sans-Serif" font-size="10.00"> &#45;DefaultMIDI_Interface</text>
</g>
<!-- Node5 -->
<g id="node5" class="node"><title>Node5</title>
<g id="a_node5"><a xlink:href="../../df/d0c/classMIDI__Parser.html" target="_top" xlink:title=" ">
<polygon fill="white" stroke="black" points="110.5,-563 110.5,-686 231.5,-686 231.5,-563 110.5,-563"/>
<text text-anchor="middle" x="171" y="-674" font-family="Helvetica,sans-Serif" font-size="10.00">MIDI_Parser</text>
<polyline fill="none" stroke="black" points="110.5,-667 231.5,-667 "/>
<text text-anchor="middle" x="171" y="-655" font-family="Helvetica,sans-Serif" font-size="10.00"> </text>
<polyline fill="none" stroke="black" points="110.5,-648 231.5,-648 "/>
<text text-anchor="start" x="118.5" y="-636" font-family="Helvetica,sans-Serif" font-size="10.00">+ getChannelMessage()</text>
<text text-anchor="start" x="118.5" y="-625" font-family="Helvetica,sans-Serif" font-size="10.00">+ getSysEx()</text>
<text text-anchor="start" x="118.5" y="-614" font-family="Helvetica,sans-Serif" font-size="10.00">+ getSysExBuffer()</text>
<text text-anchor="start" x="118.5" y="-603" font-family="Helvetica,sans-Serif" font-size="10.00">+ getSysExLength()</text>
<text text-anchor="start" x="118.5" y="-592" font-family="Helvetica,sans-Serif" font-size="10.00">+ getCN()</text>
<text text-anchor="start" x="118.5" y="-581" font-family="Helvetica,sans-Serif" font-size="10.00">+ isStatus()</text>
<text text-anchor="start" x="118.5" y="-570" font-family="Helvetica,sans-Serif" font-size="10.00">+ isData()</text>
</a>
</g>
</g>
<!-- Node5&#45;&gt;Node3 -->
<g id="edge5" class="edge"><title>Node5&#45;&gt;Node3</title>
<path fill="none" stroke="#404040" d="M202.087,-562.687C218.4,-530.776 238.795,-490.878 257.322,-454.637"/>
<polygon fill="none" stroke="#404040" points="257.543,-454.205 256.712,-447.042 263.005,-443.52 263.835,-450.683 257.543,-454.205"/>
<text text-anchor="middle" x="269" y="-465" font-family="Helvetica,sans-Serif" font-size="10.00"> &#45;parser</text>
</g>
<!-- Node8 -->
<g id="node8" class="node"><title>Node8</title>
<g id="a_node8"><a xlink:href="../../d0/d0d/classSerialMIDI__Parser.html" target="_top" xlink:title=" ">
<polygon fill="white" stroke="black" points="122.5,-304 122.5,-405 219.5,-405 219.5,-304 122.5,-304"/>
<text text-anchor="middle" x="171" y="-393" font-family="Helvetica,sans-Serif" font-size="10.00">SerialMIDI_Parser</text>
<polyline fill="none" stroke="black" points="122.5,-386 219.5,-386 "/>
<text text-anchor="start" x="130.5" y="-374" font-family="Helvetica,sans-Serif" font-size="10.00">&#45; thirdByte</text>
<polyline fill="none" stroke="black" points="122.5,-367 219.5,-367 "/>
<text text-anchor="start" x="130.5" y="-355" font-family="Helvetica,sans-Serif" font-size="10.00">+ parse()</text>
<text text-anchor="start" x="130.5" y="-344" font-family="Helvetica,sans-Serif" font-size="10.00">+ getSysEx()</text>
<text text-anchor="start" x="130.5" y="-333" font-family="Helvetica,sans-Serif" font-size="10.00"># addSysExByte()</text>
<text text-anchor="start" x="130.5" y="-322" font-family="Helvetica,sans-Serif" font-size="10.00"># startSysEx()</text>
<text text-anchor="start" x="130.5" y="-311" font-family="Helvetica,sans-Serif" font-size="10.00"># endSysEx()</text>
</a>
</g>
</g>
<!-- Node5&#45;&gt;Node8 -->
<g id="edge9" class="edge"><title>Node5&#45;&gt;Node8</title>
<path fill="none" stroke="midnightblue" d="M171,-552.403C171,-506.038 171,-446.677 171,-405.31"/>
<polygon fill="none" stroke="midnightblue" points="167.5,-552.687 171,-562.687 174.5,-552.687 167.5,-552.687"/>
</g>
<!-- Node6 -->
<g id="node6" class="node"><title>Node6</title>
<g id="a_node6"><a xlink:href="../../d7/d3f/structChannelMessage.html" target="_top" xlink:title=" ">
<polygon fill="white" stroke="black" points="125,-805.5 125,-906.5 217,-906.5 217,-805.5 125,-805.5"/>
<text text-anchor="middle" x="171" y="-894.5" font-family="Helvetica,sans-Serif" font-size="10.00">ChannelMessage</text>
<polyline fill="none" stroke="black" points="125,-887.5 217,-887.5 "/>
<text text-anchor="start" x="133" y="-875.5" font-family="Helvetica,sans-Serif" font-size="10.00">+ header</text>
<text text-anchor="start" x="133" y="-864.5" font-family="Helvetica,sans-Serif" font-size="10.00">+ data1</text>
<text text-anchor="start" x="133" y="-853.5" font-family="Helvetica,sans-Serif" font-size="10.00">+ data2</text>
<text text-anchor="start" x="133" y="-842.5" font-family="Helvetica,sans-Serif" font-size="10.00">+ CN</text>
<polyline fill="none" stroke="black" points="125,-835.5 217,-835.5 "/>
<text text-anchor="start" x="133" y="-823.5" font-family="Helvetica,sans-Serif" font-size="10.00">+ operator==()</text>
<text text-anchor="start" x="133" y="-812.5" font-family="Helvetica,sans-Serif" font-size="10.00">+ operator!=()</text>
</a>
</g>
</g>
<!-- Node6&#45;&gt;Node5 -->
<g id="edge6" class="edge"><title>Node6&#45;&gt;Node5</title>
<path fill="none" stroke="#404040" d="M171,-805.484C171,-774.248 171,-733.355 171,-698.442"/>
<polygon fill="none" stroke="#404040" points="171,-698.368 167,-692.368 171,-686.368 175,-692.368 171,-698.368"/>
<text text-anchor="middle" x="194" y="-779" font-family="Helvetica,sans-Serif" font-size="10.00"> #midimsg</text>
</g>
<!-- Node7 -->
<g id="node7" class="node"><title>Node7</title>
<g id="a_node7"><a xlink:href="../../de/d55/classMIDI__Callbacks.html" target="_top" xlink:title="A class for callbacks from MIDI input.">
<polygon fill="white" stroke="black" points="249.5,-579.5 249.5,-669.5 370.5,-669.5 370.5,-579.5 249.5,-579.5"/>
<text text-anchor="middle" x="310" y="-657.5" font-family="Helvetica,sans-Serif" font-size="10.00">MIDI_Callbacks</text>
<polyline fill="none" stroke="black" points="249.5,-650.5 370.5,-650.5 "/>
<text text-anchor="middle" x="310" y="-638.5" font-family="Helvetica,sans-Serif" font-size="10.00"> </text>
<polyline fill="none" stroke="black" points="249.5,-631.5 370.5,-631.5 "/>
<text text-anchor="start" x="257.5" y="-619.5" font-family="Helvetica,sans-Serif" font-size="10.00">+ onChannelMessage()</text>
<text text-anchor="start" x="257.5" y="-608.5" font-family="Helvetica,sans-Serif" font-size="10.00">+ onSysExMessage()</text>
<text text-anchor="start" x="257.5" y="-597.5" font-family="Helvetica,sans-Serif" font-size="10.00">+ onRealtimeMessage()</text>
<text text-anchor="start" x="257.5" y="-586.5" font-family="Helvetica,sans-Serif" font-size="10.00">+ ~MIDI_Callbacks()</text>
</a>
</g>
</g>
<!-- Node7&#45;&gt;Node3 -->
<g id="edge7" class="edge"><title>Node7&#45;&gt;Node3</title>
<path fill="none" stroke="#404040" d="M309.67,-579.245C309.42,-545.751 309.067,-498.412 308.749,-455.897"/>
<polygon fill="none" stroke="#404040" points="308.748,-455.758 304.704,-449.788 308.659,-443.758 312.703,-449.728 308.748,-455.758"/>
<text text-anchor="middle" x="333" y="-465" font-family="Helvetica,sans-Serif" font-size="10.00"> &#45;callbacks</text>
</g>
<!-- Node8&#45;&gt;Node2 -->
<g id="edge8" class="edge"><title>Node8&#45;&gt;Node2</title>
<path fill="none" stroke="#404040" d="M183.595,-303.789C189.387,-280.929 196.315,-253.587 202.431,-229.449"/>
<polygon fill="none" stroke="#404040" points="202.504,-229.158 200.1,-222.36 205.452,-217.526 207.855,-224.325 202.504,-229.158"/>
<text text-anchor="middle" x="219" y="-239" font-family="Helvetica,sans-Serif" font-size="10.00"> #parser</text>
</g>
<!-- Node9 -->
<g id="node9" class="node"><title>Node9</title>
<g id="a_node9"><a xlink:href="../../d1/db1/classSysExBuffer.html" target="_top" xlink:title=" ">
<polygon fill="white" stroke="black" points="0,-552 0,-697 92,-697 92,-552 0,-552"/>
<text text-anchor="middle" x="46" y="-685" font-family="Helvetica,sans-Serif" font-size="10.00">SysExBuffer</text>
<polyline fill="none" stroke="black" points="0,-678 92,-678 "/>
<text text-anchor="start" x="8" y="-666" font-family="Helvetica,sans-Serif" font-size="10.00">&#45; SysExBuffer</text>
<text text-anchor="start" x="8" y="-655" font-family="Helvetica,sans-Serif" font-size="10.00">&#45; SysExLength</text>
<text text-anchor="start" x="8" y="-644" font-family="Helvetica,sans-Serif" font-size="10.00">&#45; receiving</text>
<polyline fill="none" stroke="black" points="0,-637 92,-637 "/>
<text text-anchor="start" x="8" y="-625" font-family="Helvetica,sans-Serif" font-size="10.00">+ start()</text>
<text text-anchor="start" x="8" y="-614" font-family="Helvetica,sans-Serif" font-size="10.00">+ end()</text>
<text text-anchor="start" x="8" y="-603" font-family="Helvetica,sans-Serif" font-size="10.00">+ add()</text>
<text text-anchor="start" x="8" y="-592" font-family="Helvetica,sans-Serif" font-size="10.00">+ hasSpaceLeft()</text>
<text text-anchor="start" x="8" y="-581" font-family="Helvetica,sans-Serif" font-size="10.00">+ isReceiving()</text>
<text text-anchor="start" x="8" y="-570" font-family="Helvetica,sans-Serif" font-size="10.00">+ getBuffer()</text>
<text text-anchor="start" x="8" y="-559" font-family="Helvetica,sans-Serif" font-size="10.00">+ getLength()</text>
</a>
</g>
</g>
<!-- Node9&#45;&gt;Node8 -->
<g id="edge10" class="edge"><title>Node9&#45;&gt;Node8</title>
<path fill="none" stroke="#404040" d="M69.8743,-551.986C80.1889,-523.502 93.0837,-490.726 107,-462 114.454,-446.613 123.428,-430.544 132.265,-415.692"/>
<polygon fill="none" stroke="#404040" points="132.447,-415.39 132.126,-408.186 138.653,-405.119 138.974,-412.323 132.447,-415.39"/>
<text text-anchor="middle" x="137" y="-465" font-family="Helvetica,sans-Serif" font-size="10.00"> #sysexbuffer</text>
</g>
<!-- Node10 -->
<g id="node10" class="node"><title>Node10</title>
<g id="a_node10"><a xlink:title=" ">
<polygon fill="white" stroke="#bfbfbf" points="300.5,-138.5 300.5,-195.5 329.5,-195.5 329.5,-138.5 300.5,-138.5"/>
<text text-anchor="middle" x="315" y="-183.5" font-family="Helvetica,sans-Serif" font-size="10.00">T</text>
<polyline fill="none" stroke="#bfbfbf" points="300.5,-176.5 329.5,-176.5 "/>
<text text-anchor="middle" x="315" y="-164.5" font-family="Helvetica,sans-Serif" font-size="10.00"> </text>
<polyline fill="none" stroke="#bfbfbf" points="300.5,-157.5 329.5,-157.5 "/>
<text text-anchor="middle" x="315" y="-145.5" font-family="Helvetica,sans-Serif" font-size="10.00"> </text>
</a>
</g>
</g>
<!-- Node10&#45;&gt;Node1 -->
<g id="edge11" class="edge"><title>Node10&#45;&gt;Node1</title>
<path fill="none" stroke="#404040" d="M309.698,-138.324C306.485,-121.551 302.309,-99.7524 298.629,-80.5452"/>
<polygon fill="none" stroke="#404040" points="298.615,-80.4695 293.557,-75.3293 296.357,-68.6838 301.415,-73.824 298.615,-80.4695"/>
<text text-anchor="middle" x="317" y="-90" font-family="Helvetica,sans-Serif" font-size="10.00"> &#45;serial</text>
</g>
</g>
</svg>
