<?xml version="1.0" encoding="UTF-8" standalone="no"?>
<!DOCTYPE svg PUBLIC "-//W3C//DTD SVG 1.1//EN"
 "http://www.w3.org/Graphics/SVG/1.1/DTD/svg11.dtd">
<!-- Generated by graphviz version 2.38.0 (20140413.2041)
 -->
<!-- Title: ShiftRegisterOutBase.ipp Pages: 1 -->
<svg width="812pt" height="588pt"
 viewBox="0.00 0.00 812.00 588.00" xmlns="http://www.w3.org/2000/svg" xmlns:xlink="http://www.w3.org/1999/xlink">
<g id="graph0" class="graph" transform="scale(1 1) rotate(0) translate(4 584)">
<title>ShiftRegisterOutBase.ipp</title>
<polygon fill="white" stroke="none" points="-4,4 -4,-584 808,-584 808,4 -4,4"/>
<!-- Node1 -->
<g id="node1" class="node"><title>Node1</title>
<g id="a_node1"><a xlink:title=" ">
<polygon fill="#bfbfbf" stroke="black" points="344,-560.5 344,-579.5 472,-579.5 472,-560.5 344,-560.5"/>
<text text-anchor="middle" x="408" y="-567.5" font-family="Helvetica,sans-Serif" font-size="10.00">ShiftRegisterOutBase.ipp</text>
</a>
</g>
</g>
<!-- Node2 -->
<g id="node2" class="node"><title>Node2</title>
<g id="a_node2"><a xlink:href="../../dd/ddf/ExtendedInputOutput_8hpp.html" target="_top" xlink:title=" ">
<polygon fill="white" stroke="black" points="122,-448.5 122,-467.5 250,-467.5 250,-448.5 122,-448.5"/>
<text text-anchor="middle" x="186" y="-455.5" font-family="Helvetica,sans-Serif" font-size="10.00">ExtendedInputOutput.hpp</text>
</a>
</g>
</g>
<!-- Node1&#45;&gt;Node2 -->
<g id="edge1" class="edge"><title>Node1&#45;&gt;Node2</title>
<path fill="none" stroke="midnightblue" d="M390.58,-560.368C351.836,-541.171 258.335,-494.842 212.386,-472.074"/>
<polygon fill="midnightblue" stroke="midnightblue" points="213.853,-468.895 203.339,-467.591 210.745,-475.167 213.853,-468.895"/>
</g>
<!-- Node21 -->
<g id="node21" class="node"><title>Node21</title>
<g id="a_node21"><a xlink:href="../../d8/d93/ShiftRegisterOutBase_8hpp.html" target="_top" xlink:title=" ">
<polygon fill="white" stroke="black" points="342.5,-504.5 342.5,-523.5 473.5,-523.5 473.5,-504.5 342.5,-504.5"/>
<text text-anchor="middle" x="408" y="-511.5" font-family="Helvetica,sans-Serif" font-size="10.00">ShiftRegisterOutBase.hpp</text>
</a>
</g>
</g>
<!-- Node1&#45;&gt;Node21 -->
<g id="edge29" class="edge"><title>Node1&#45;&gt;Node21</title>
<path fill="none" stroke="midnightblue" d="M402.834,-560.083C401.324,-552.927 400.894,-542.635 401.542,-533.691"/>
<polygon fill="midnightblue" stroke="midnightblue" points="405.015,-534.126 402.869,-523.751 398.077,-533.2 405.015,-534.126"/>
</g>
<!-- Node26 -->
<g id="node26" class="node"><title>Node26</title>
<g id="a_node26"><a xlink:href="../../d1/d1f/ShiftRegisterOutRGB_8hpp.html" target="_top" xlink:title=" ">
<polygon fill="white" stroke="black" points="674,-280.5 674,-299.5 804,-299.5 804,-280.5 674,-280.5"/>
<text text-anchor="middle" x="739" y="-287.5" font-family="Helvetica,sans-Serif" font-size="10.00">ShiftRegisterOutRGB.hpp</text>
</a>
</g>
</g>
<!-- Node1&#45;&gt;Node26 -->
<g id="edge39" class="edge"><title>Node1&#45;&gt;Node26</title>
<path fill="none" stroke="midnightblue" d="M463.575,-560.498C551.048,-545.531 711,-511.046 711,-459 711,-459 711,-459 711,-401 711,-367.79 723.134,-330.634 731.427,-309.12"/>
<polygon fill="midnightblue" stroke="midnightblue" points="734.751,-310.233 735.224,-299.649 728.254,-307.628 734.751,-310.233"/>
</g>
<!-- Node3 -->
<g id="node3" class="node"><title>Node3</title>
<g id="a_node3"><a xlink:href="../../d4/d57/ExtendedIOElement_8hpp.html" target="_top" xlink:title=" ">
<polygon fill="white" stroke="black" points="135.5,-392.5 135.5,-411.5 258.5,-411.5 258.5,-392.5 135.5,-392.5"/>
<text text-anchor="middle" x="197" y="-399.5" font-family="Helvetica,sans-Serif" font-size="10.00">ExtendedIOElement.hpp</text>
</a>
</g>
</g>
<!-- Node2&#45;&gt;Node3 -->
<g id="edge2" class="edge"><title>Node2&#45;&gt;Node3</title>
<path fill="none" stroke="midnightblue" d="M187.816,-448.083C189.274,-440.927 191.371,-430.635 193.193,-421.691"/>
<polygon fill="midnightblue" stroke="midnightblue" points="196.651,-422.248 195.217,-411.751 189.792,-420.851 196.651,-422.248"/>
</g>
<!-- Node17 -->
<g id="node17" class="node"><title>Node17</title>
<g id="a_node17"><a xlink:title=" ">
<polygon fill="white" stroke="#bfbfbf" points="75,-168.5 75,-187.5 133,-187.5 133,-168.5 75,-168.5"/>
<text text-anchor="middle" x="104" y="-175.5" font-family="Helvetica,sans-Serif" font-size="10.00">Arduino.h</text>
</a>
</g>
</g>
<!-- Node2&#45;&gt;Node17 -->
<g id="edge28" class="edge"><title>Node2&#45;&gt;Node17</title>
<path fill="none" stroke="midnightblue" d="M131.451,-448.485C76.5674,-436.451 0,-408.62 0,-347 0,-347 0,-347 0,-289 0,-244.223 46.0644,-210.325 76.8789,-192.658"/>
<polygon fill="midnightblue" stroke="midnightblue" points="78.8109,-195.59 85.8846,-187.702 75.4361,-189.457 78.8109,-195.59"/>
</g>
<!-- Node4 -->
<g id="node4" class="node"><title>Node4</title>
<g id="a_node4"><a xlink:href="../../d0/d4e/Def_8hpp.html" target="_top" xlink:title=" ">
<polygon fill="white" stroke="black" points="249,-112.5 249,-131.5 319,-131.5 319,-112.5 249,-112.5"/>
<text text-anchor="middle" x="284" y="-119.5" font-family="Helvetica,sans-Serif" font-size="10.00">Def/Def.hpp</text>
</a>
</g>
</g>
<!-- Node3&#45;&gt;Node4 -->
<g id="edge3" class="edge"><title>Node3&#45;&gt;Node4</title>
<path fill="none" stroke="midnightblue" d="M198.438,-392.471C201.42,-374.022 208,-329.001 208,-291 208,-291 208,-291 208,-233 208,-193.276 241.964,-157.504 264.482,-138.154"/>
<polygon fill="midnightblue" stroke="midnightblue" points="266.976,-140.634 272.457,-131.567 262.518,-135.236 266.976,-140.634"/>
</g>
<!-- Node11 -->
<g id="node11" class="node"><title>Node11</title>
<g id="a_node11"><a xlink:href="../../de/dd1/LinkedList_8hpp.html" target="_top" xlink:title=" ">
<polygon fill="white" stroke="black" points="64,-336.5 64,-355.5 180,-355.5 180,-336.5 64,-336.5"/>
<text text-anchor="middle" x="122" y="-343.5" font-family="Helvetica,sans-Serif" font-size="10.00">Helpers/LinkedList.hpp</text>
</a>
</g>
</g>
<!-- Node3&#45;&gt;Node11 -->
<g id="edge14" class="edge"><title>Node3&#45;&gt;Node11</title>
<path fill="none" stroke="midnightblue" d="M184.95,-392.324C173.537,-384.107 156.169,-371.602 142.565,-361.807"/>
<polygon fill="midnightblue" stroke="midnightblue" points="144.43,-358.837 134.269,-355.834 140.34,-364.517 144.43,-358.837"/>
</g>
<!-- Node5 -->
<g id="node5" class="node"><title>Node5</title>
<g id="a_node5"><a xlink:href="../../d7/d42/Channel_8hpp.html" target="_top" xlink:title=" ">
<polygon fill="white" stroke="black" points="359.5,-56.5 359.5,-75.5 430.5,-75.5 430.5,-56.5 359.5,-56.5"/>
<text text-anchor="middle" x="395" y="-63.5" font-family="Helvetica,sans-Serif" font-size="10.00">Channel.hpp</text>
</a>
</g>
</g>
<!-- Node4&#45;&gt;Node5 -->
<g id="edge4" class="edge"><title>Node4&#45;&gt;Node5</title>
<path fill="none" stroke="midnightblue" d="M301.834,-112.324C319.716,-103.625 347.475,-90.1202 368.046,-80.113"/>
<polygon fill="midnightblue" stroke="midnightblue" points="369.749,-83.1765 377.21,-75.6545 366.687,-76.8819 369.749,-83.1765"/>
</g>
<!-- Node6 -->
<g id="node6" class="node"><title>Node6</title>
<g id="a_node6"><a xlink:title=" ">
<polygon fill="white" stroke="#bfbfbf" points="599.5,-0.5 599.5,-19.5 648.5,-19.5 648.5,-0.5 599.5,-0.5"/>
<text text-anchor="middle" x="624" y="-7.5" font-family="Helvetica,sans-Serif" font-size="10.00">stdint.h</text>
</a>
</g>
</g>
<!-- Node4&#45;&gt;Node6 -->
<g id="edge13" class="edge"><title>Node4&#45;&gt;Node6</title>
<path fill="none" stroke="midnightblue" d="M315.327,-112.454C346.745,-103.754 396.44,-89.6433 439,-76 492.782,-58.7593 554.552,-36.566 591.37,-23.0799"/>
<polygon fill="midnightblue" stroke="midnightblue" points="592.885,-26.2519 601.065,-19.5184 590.472,-19.6812 592.885,-26.2519"/>
</g>
<!-- Node7 -->
<g id="node7" class="node"><title>Node7</title>
<g id="a_node7"><a xlink:href="../../dc/dc7/NamespaceSettings_8hpp.html" target="_top" xlink:title=" ">
<polygon fill="white" stroke="black" points="266.5,-0.5 266.5,-19.5 429.5,-19.5 429.5,-0.5 266.5,-0.5"/>
<text text-anchor="middle" x="348" y="-7.5" font-family="Helvetica,sans-Serif" font-size="10.00">Settings/NamespaceSettings.hpp</text>
</a>
</g>
</g>
<!-- Node4&#45;&gt;Node7 -->
<g id="edge11" class="edge"><title>Node4&#45;&gt;Node7</title>
<path fill="none" stroke="midnightblue" d="M273.76,-112.292C260.036,-99.5354 238.741,-75.2007 251,-56 261.199,-40.0253 278.691,-29.6351 296.036,-22.9159"/>
<polygon fill="midnightblue" stroke="midnightblue" points="297.338,-26.1683 305.61,-19.5486 295.015,-19.5648 297.338,-26.1683"/>
</g>
<!-- Node8 -->
<g id="node8" class="node"><title>Node8</title>
<g id="a_node8"><a xlink:href="../../dc/d50/Frequency_8hpp.html" target="_top" xlink:title=" ">
<polygon fill="white" stroke="black" points="260.5,-56.5 260.5,-75.5 341.5,-75.5 341.5,-56.5 260.5,-56.5"/>
<text text-anchor="middle" x="301" y="-63.5" font-family="Helvetica,sans-Serif" font-size="10.00">Frequency.hpp</text>
</a>
</g>
</g>
<!-- Node4&#45;&gt;Node8 -->
<g id="edge7" class="edge"><title>Node4&#45;&gt;Node8</title>
<path fill="none" stroke="midnightblue" d="M286.807,-112.083C289.085,-104.849 292.371,-94.4087 295.208,-85.3968"/>
<polygon fill="midnightblue" stroke="midnightblue" points="298.581,-86.3406 298.245,-75.7511 291.904,-84.2385 298.581,-86.3406"/>
</g>
<!-- Node9 -->
<g id="node9" class="node"><title>Node9</title>
<g id="a_node9"><a xlink:href="../../de/d76/Array_8hpp.html" target="_top" xlink:title=" ">
<polygon fill="white" stroke="black" points="70.5,-56.5 70.5,-75.5 165.5,-75.5 165.5,-56.5 70.5,-56.5"/>
<text text-anchor="middle" x="118" y="-63.5" font-family="Helvetica,sans-Serif" font-size="10.00">Helpers/Array.hpp</text>
</a>
</g>
</g>
<!-- Node4&#45;&gt;Node9 -->
<g id="edge9" class="edge"><title>Node4&#45;&gt;Node9</title>
<path fill="none" stroke="midnightblue" d="M257.697,-112.444C229.649,-103.32 185.056,-88.8133 153.816,-78.6509"/>
<polygon fill="midnightblue" stroke="midnightblue" points="154.772,-75.2816 144.18,-75.5164 152.607,-81.9383 154.772,-75.2816"/>
</g>
<!-- Node10 -->
<g id="node10" class="node"><title>Node10</title>
<g id="a_node10"><a xlink:title=" ">
<polygon fill="white" stroke="#bfbfbf" points="130,-0.5 130,-19.5 182,-19.5 182,-0.5 130,-0.5"/>
<text text-anchor="middle" x="156" y="-7.5" font-family="Helvetica,sans-Serif" font-size="10.00">stddef.h</text>
</a>
</g>
</g>
<!-- Node4&#45;&gt;Node10 -->
<g id="edge12" class="edge"><title>Node4&#45;&gt;Node10</title>
<path fill="none" stroke="midnightblue" d="M273.956,-112.368C252.272,-93.7334 200.838,-49.5324 173.61,-26.1338"/>
<polygon fill="midnightblue" stroke="midnightblue" points="175.863,-23.4546 165.997,-19.5914 171.3,-28.7636 175.863,-23.4546"/>
</g>
<!-- Node5&#45;&gt;Node6 -->
<g id="edge5" class="edge"><title>Node5&#45;&gt;Node6</title>
<path fill="none" stroke="midnightblue" d="M430.781,-56.5625C474.128,-46.341 546.649,-29.2401 589.439,-19.1497"/>
<polygon fill="midnightblue" stroke="midnightblue" points="590.455,-22.5064 599.384,-16.8046 588.848,-15.6932 590.455,-22.5064"/>
</g>
<!-- Node5&#45;&gt;Node7 -->
<g id="edge6" class="edge"><title>Node5&#45;&gt;Node7</title>
<path fill="none" stroke="midnightblue" d="M387.239,-56.083C380.463,-48.2982 370.457,-36.8015 362.245,-27.3665"/>
<polygon fill="midnightblue" stroke="midnightblue" points="364.822,-24.9963 355.617,-19.7511 359.542,-29.592 364.822,-24.9963"/>
</g>
<!-- Node8&#45;&gt;Node7 -->
<g id="edge8" class="edge"><title>Node8&#45;&gt;Node7</title>
<path fill="none" stroke="midnightblue" d="M308.761,-56.083C315.537,-48.2982 325.543,-36.8015 333.755,-27.3665"/>
<polygon fill="midnightblue" stroke="midnightblue" points="336.458,-29.592 340.383,-19.7511 331.178,-24.9963 336.458,-29.592"/>
</g>
<!-- Node9&#45;&gt;Node10 -->
<g id="edge10" class="edge"><title>Node9&#45;&gt;Node10</title>
<path fill="none" stroke="midnightblue" d="M124.275,-56.083C129.642,-48.4554 137.518,-37.2645 144.079,-27.9408"/>
<polygon fill="midnightblue" stroke="midnightblue" points="146.949,-29.9434 149.842,-19.7511 141.225,-25.9149 146.949,-29.9434"/>
</g>
<!-- Node12 -->
<g id="node12" class="node"><title>Node12</title>
<g id="a_node12"><a xlink:href="../../df/dee/Debug_8hpp.html" target="_top" xlink:title=" ">
<polygon fill="white" stroke="black" points="408.5,-280.5 408.5,-299.5 509.5,-299.5 509.5,-280.5 408.5,-280.5"/>
<text text-anchor="middle" x="459" y="-287.5" font-family="Helvetica,sans-Serif" font-size="10.00">Helpers/Debug.hpp</text>
</a>
</g>
</g>
<!-- Node11&#45;&gt;Node12 -->
<g id="edge15" class="edge"><title>Node11&#45;&gt;Node12</title>
<path fill="none" stroke="midnightblue" d="M175.399,-336.444C236.089,-326.719 334.941,-310.879 398.452,-300.702"/>
<polygon fill="midnightblue" stroke="midnightblue" points="399.01,-304.157 408.33,-299.119 397.903,-297.246 399.01,-304.157"/>
</g>
<!-- Node18 -->
<g id="node18" class="node"><title>Node18</title>
<g id="a_node18"><a xlink:title=" ">
<polygon fill="white" stroke="#bfbfbf" points="132,-280.5 132,-299.5 180,-299.5 180,-280.5 132,-280.5"/>
<text text-anchor="middle" x="156" y="-287.5" font-family="Helvetica,sans-Serif" font-size="10.00">stdlib.h</text>
</a>
</g>
</g>
<!-- Node11&#45;&gt;Node18 -->
<g id="edge24" class="edge"><title>Node11&#45;&gt;Node18</title>
<path fill="none" stroke="midnightblue" d="M127.614,-336.083C132.367,-328.534 139.318,-317.495 145.152,-308.23"/>
<polygon fill="midnightblue" stroke="midnightblue" points="148.124,-310.078 150.49,-299.751 142.2,-306.349 148.124,-310.078"/>
</g>
<!-- Node19 -->
<g id="node19" class="node"><title>Node19</title>
<g id="a_node19"><a xlink:href="../../d7/d79/MinMaxFix_8hpp.html" target="_top" xlink:title=" ">
<polygon fill="white" stroke="black" points="44,-224.5 44,-243.5 164,-243.5 164,-224.5 44,-224.5"/>
<text text-anchor="middle" x="104" y="-231.5" font-family="Helvetica,sans-Serif" font-size="10.00">Helpers/MinMaxFix.hpp</text>
</a>
</g>
</g>
<!-- Node11&#45;&gt;Node19 -->
<g id="edge25" class="edge"><title>Node11&#45;&gt;Node19</title>
<path fill="none" stroke="midnightblue" d="M120.588,-336.368C117.683,-318.617 110.982,-277.666 107.043,-253.597"/>
<polygon fill="midnightblue" stroke="midnightblue" points="110.475,-252.895 105.406,-243.591 103.567,-254.025 110.475,-252.895"/>
</g>
<!-- Node20 -->
<g id="node20" class="node"><title>Node20</title>
<g id="a_node20"><a xlink:title=" ">
<polygon fill="white" stroke="#bfbfbf" points="28.5,-280.5 28.5,-299.5 75.5,-299.5 75.5,-280.5 28.5,-280.5"/>
<text text-anchor="middle" x="52" y="-287.5" font-family="Helvetica,sans-Serif" font-size="10.00">iterator</text>
</a>
</g>
</g>
<!-- Node11&#45;&gt;Node20 -->
<g id="edge27" class="edge"><title>Node11&#45;&gt;Node20</title>
<path fill="none" stroke="midnightblue" d="M110.753,-336.324C100.203,-328.185 84.1993,-315.839 71.5578,-306.087"/>
<polygon fill="midnightblue" stroke="midnightblue" points="73.507,-303.171 63.4513,-299.834 69.2314,-308.713 73.507,-303.171"/>
</g>
<!-- Node13 -->
<g id="node13" class="node"><title>Node13</title>
<g id="a_node13"><a xlink:href="../../d2/dd5/SettingsWrapper_8hpp.html" target="_top" xlink:title=" ">
<polygon fill="white" stroke="black" points="385.5,-224.5 385.5,-243.5 532.5,-243.5 532.5,-224.5 385.5,-224.5"/>
<text text-anchor="middle" x="459" y="-231.5" font-family="Helvetica,sans-Serif" font-size="10.00">Settings/SettingsWrapper.hpp</text>
</a>
</g>
</g>
<!-- Node12&#45;&gt;Node13 -->
<g id="edge16" class="edge"><title>Node12&#45;&gt;Node13</title>
<path fill="none" stroke="midnightblue" d="M453.834,-280.083C452.324,-272.927 451.894,-262.635 452.542,-253.691"/>
<polygon fill="midnightblue" stroke="midnightblue" points="456.015,-254.126 453.869,-243.751 449.077,-253.2 456.015,-254.126"/>
</g>
<!-- Node16 -->
<g id="node16" class="node"><title>Node16</title>
<g id="a_node16"><a xlink:href="../../dd/d80/PrintStream_8hpp.html" target="_top" xlink:title=" ">
<polygon fill="white" stroke="black" points="236.5,-224.5 236.5,-243.5 323.5,-243.5 323.5,-224.5 236.5,-224.5"/>
<text text-anchor="middle" x="280" y="-231.5" font-family="Helvetica,sans-Serif" font-size="10.00">PrintStream.hpp</text>
</a>
</g>
</g>
<!-- Node12&#45;&gt;Node16 -->
<g id="edge22" class="edge"><title>Node12&#45;&gt;Node16</title>
<path fill="none" stroke="midnightblue" d="M430.637,-280.444C400.262,-271.28 351.89,-256.688 318.184,-246.519"/>
<polygon fill="midnightblue" stroke="midnightblue" points="318.815,-243.054 308.23,-243.516 316.793,-249.756 318.815,-243.054"/>
</g>
<!-- Node13&#45;&gt;Node7 -->
<g id="edge19" class="edge"><title>Node13&#45;&gt;Node7</title>
<path fill="none" stroke="midnightblue" d="M460.7,-224.259C465.559,-196.644 476.844,-109.913 439,-56 428.165,-40.5647 410.49,-30.171 393.586,-23.3008"/>
<polygon fill="midnightblue" stroke="midnightblue" points="394.372,-19.859 383.779,-19.6515 391.93,-26.4195 394.372,-19.859"/>
</g>
<!-- Node13&#45;&gt;Node12 -->
<g id="edge21" class="edge"><title>Node13&#45;&gt;Node12</title>
<path fill="none" stroke="midnightblue" d="M464.131,-243.751C465.657,-250.858 466.104,-261.136 465.472,-270.101"/>
<polygon fill="midnightblue" stroke="midnightblue" points="461.993,-269.713 464.166,-280.083 468.934,-270.622 461.993,-269.713"/>
</g>
<!-- Node14 -->
<g id="node14" class="node"><title>Node14</title>
<g id="a_node14"><a xlink:href="../../db/d02/Settings_8hpp.html" target="_top" xlink:title="All user settings and debugging options can be changed here.">
<polygon fill="white" stroke="black" points="359.5,-168.5 359.5,-187.5 430.5,-187.5 430.5,-168.5 359.5,-168.5"/>
<text text-anchor="middle" x="395" y="-175.5" font-family="Helvetica,sans-Serif" font-size="10.00">Settings.hpp</text>
</a>
</g>
</g>
<!-- Node13&#45;&gt;Node14 -->
<g id="edge17" class="edge"><title>Node13&#45;&gt;Node14</title>
<path fill="none" stroke="midnightblue" d="M448.717,-224.324C439.164,-216.263 424.72,-204.077 413.216,-194.369"/>
<polygon fill="midnightblue" stroke="midnightblue" points="415.37,-191.608 405.47,-187.834 410.856,-196.958 415.37,-191.608"/>
</g>
<!-- Node15 -->
<g id="node15" class="node"><title>Node15</title>
<g id="a_node15"><a xlink:href="../../d9/d98/TeensyUSBTypes_8hpp.html" target="_top" xlink:title=" ">
<polygon fill="white" stroke="black" points="487,-168.5 487,-187.5 639,-187.5 639,-168.5 487,-168.5"/>
<text text-anchor="middle" x="563" y="-175.5" font-family="Helvetica,sans-Serif" font-size="10.00">Helpers/TeensyUSBTypes.hpp</text>
</a>
</g>
</g>
<!-- Node13&#45;&gt;Node15 -->
<g id="edge20" class="edge"><title>Node13&#45;&gt;Node15</title>
<path fill="none" stroke="midnightblue" d="M475.709,-224.324C492.312,-215.703 518.002,-202.364 537.22,-192.386"/>
<polygon fill="midnightblue" stroke="midnightblue" points="539.07,-195.369 546.332,-187.655 535.844,-189.156 539.07,-195.369"/>
</g>
<!-- Node14&#45;&gt;Node4 -->
<g id="edge18" class="edge"><title>Node14&#45;&gt;Node4</title>
<path fill="none" stroke="midnightblue" d="M377.166,-168.324C359.284,-159.625 331.525,-146.12 310.954,-136.113"/>
<polygon fill="midnightblue" stroke="midnightblue" points="312.313,-132.882 301.79,-131.655 309.251,-139.177 312.313,-132.882"/>
</g>
<!-- Node16&#45;&gt;Node17 -->
<g id="edge23" class="edge"><title>Node16&#45;&gt;Node17</title>
<path fill="none" stroke="midnightblue" d="M252.112,-224.444C222.246,-215.28 174.685,-200.688 141.544,-190.519"/>
<polygon fill="midnightblue" stroke="midnightblue" points="142.344,-187.104 131.757,-187.516 140.291,-193.796 142.344,-187.104"/>
</g>
<!-- Node19&#45;&gt;Node17 -->
<g id="edge26" class="edge"><title>Node19&#45;&gt;Node17</title>
<path fill="none" stroke="midnightblue" d="M104,-224.083C104,-217.006 104,-206.861 104,-197.986"/>
<polygon fill="midnightblue" stroke="midnightblue" points="107.5,-197.751 104,-187.751 100.5,-197.751 107.5,-197.751"/>
</g>
<!-- Node21&#45;&gt;Node1 -->
<g id="edge38" class="edge"><title>Node21&#45;&gt;Node1</title>
<path fill="none" stroke="midnightblue" d="M413.131,-523.751C414.657,-530.858 415.104,-541.136 414.472,-550.101"/>
<polygon fill="midnightblue" stroke="midnightblue" points="410.993,-549.713 413.166,-560.083 417.934,-550.622 410.993,-549.713"/>
</g>
<!-- Node22 -->
<g id="node22" class="node"><title>Node22</title>
<g id="a_node22"><a xlink:href="../../d2/d05/StaticSizeExtendedIOElement_8hpp.html" target="_top" xlink:title=" ">
<polygon fill="white" stroke="black" points="268,-448.5 268,-467.5 436,-467.5 436,-448.5 268,-448.5"/>
<text text-anchor="middle" x="352" y="-455.5" font-family="Helvetica,sans-Serif" font-size="10.00">StaticSizeExtendedIOElement.hpp</text>
</a>
</g>
</g>
<!-- Node21&#45;&gt;Node22 -->
<g id="edge30" class="edge"><title>Node21&#45;&gt;Node22</title>
<path fill="none" stroke="midnightblue" d="M399.003,-504.324C390.806,-496.42 378.494,-484.548 368.528,-474.938"/>
<polygon fill="midnightblue" stroke="midnightblue" points="370.789,-472.256 361.161,-467.834 365.93,-477.295 370.789,-472.256"/>
</g>
<!-- Node24 -->
<g id="node24" class="node"><title>Node24</title>
<g id="a_node24"><a xlink:href="../../d1/d40/BitArray_8hpp.html" target="_top" xlink:title=" ">
<polygon fill="white" stroke="black" points="410.5,-392.5 410.5,-411.5 517.5,-411.5 517.5,-392.5 410.5,-392.5"/>
<text text-anchor="middle" x="464" y="-399.5" font-family="Helvetica,sans-Serif" font-size="10.00">Helpers/BitArray.hpp</text>
</a>
</g>
</g>
<!-- Node21&#45;&gt;Node24 -->
<g id="edge34" class="edge"><title>Node21&#45;&gt;Node24</title>
<path fill="none" stroke="midnightblue" d="M416.832,-504.477C425.188,-495.958 437.532,-482.128 445,-468 452.726,-453.383 457.698,-435.211 460.609,-421.801"/>
<polygon fill="midnightblue" stroke="midnightblue" points="464.073,-422.328 462.585,-411.838 457.206,-420.966 464.073,-422.328"/>
</g>
<!-- Node22&#45;&gt;Node3 -->
<g id="edge31" class="edge"><title>Node22&#45;&gt;Node3</title>
<path fill="none" stroke="midnightblue" d="M327.44,-448.444C301.477,-439.399 260.332,-425.064 231.203,-414.916"/>
<polygon fill="midnightblue" stroke="midnightblue" points="232.04,-411.501 221.445,-411.516 229.737,-418.112 232.04,-411.501"/>
</g>
<!-- Node23 -->
<g id="node23" class="node"><title>Node23</title>
<g id="a_node23"><a xlink:href="../../d5/db6/ArrayHelpers_8hpp.html" target="_top" xlink:title=" ">
<polygon fill="white" stroke="black" points="85.5,-112.5 85.5,-131.5 214.5,-131.5 214.5,-112.5 85.5,-112.5"/>
<text text-anchor="middle" x="150" y="-119.5" font-family="Helvetica,sans-Serif" font-size="10.00">Helpers/ArrayHelpers.hpp</text>
</a>
</g>
</g>
<!-- Node22&#45;&gt;Node23 -->
<g id="edge32" class="edge"><title>Node22&#45;&gt;Node23</title>
<path fill="none" stroke="midnightblue" d="M352,-448.442C352,-429.936 352,-384.812 352,-347 352,-347 352,-347 352,-289 352,-258.775 351.037,-247.477 332,-224 294.573,-177.844 230.133,-149.31 188.826,-134.805"/>
<polygon fill="midnightblue" stroke="midnightblue" points="189.703,-131.406 179.109,-131.501 187.45,-138.033 189.703,-131.406"/>
</g>
<!-- Node23&#45;&gt;Node9 -->
<g id="edge33" class="edge"><title>Node23&#45;&gt;Node9</title>
<path fill="none" stroke="midnightblue" d="M144.716,-112.083C140.289,-104.613 133.837,-93.7244 128.382,-84.5199"/>
<polygon fill="midnightblue" stroke="midnightblue" points="131.295,-82.5697 123.186,-75.7511 125.273,-86.1383 131.295,-82.5697"/>
</g>
<!-- Node24&#45;&gt;Node6 -->
<g id="edge37" class="edge"><title>Node24&#45;&gt;Node6</title>
<path fill="none" stroke="midnightblue" d="M476.202,-392.425C511.706,-366.592 614.557,-285.275 648,-188 667.113,-132.407 644.759,-62.0898 631.87,-29.3396"/>
<polygon fill="midnightblue" stroke="midnightblue" points="634.969,-27.6723 627.936,-19.7488 628.493,-30.329 634.969,-27.6723"/>
</g>
<!-- Node25 -->
<g id="node25" class="node"><title>Node25</title>
<g id="a_node25"><a xlink:href="../../d1/d93/Error_8hpp.html" target="_top" xlink:title=" ">
<polygon fill="white" stroke="black" points="415.5,-336.5 415.5,-355.5 508.5,-355.5 508.5,-336.5 415.5,-336.5"/>
<text text-anchor="middle" x="462" y="-343.5" font-family="Helvetica,sans-Serif" font-size="10.00">Helpers/Error.hpp</text>
</a>
</g>
</g>
<!-- Node24&#45;&gt;Node25 -->
<g id="edge35" class="edge"><title>Node24&#45;&gt;Node25</title>
<path fill="none" stroke="midnightblue" d="M463.67,-392.083C463.408,-385.006 463.032,-374.861 462.703,-365.986"/>
<polygon fill="midnightblue" stroke="midnightblue" points="466.192,-365.615 462.324,-355.751 459.197,-365.874 466.192,-365.615"/>
</g>
<!-- Node25&#45;&gt;Node12 -->
<g id="edge36" class="edge"><title>Node25&#45;&gt;Node12</title>
<path fill="none" stroke="midnightblue" d="M461.505,-336.083C461.111,-329.006 460.548,-318.861 460.055,-309.986"/>
<polygon fill="midnightblue" stroke="midnightblue" points="463.536,-309.542 459.486,-299.751 456.546,-309.93 463.536,-309.542"/>
</g>
<!-- Node26&#45;&gt;Node6 -->
<g id="edge40" class="edge"><title>Node26&#45;&gt;Node6</title>
<path fill="none" stroke="midnightblue" d="M738.085,-280.454C736.187,-261.971 732,-216.889 732,-179 732,-179 732,-179 732,-121 732,-75.2057 683.751,-41.486 651.751,-24.1584"/>
<polygon fill="midnightblue" stroke="midnightblue" points="653.299,-21.0184 642.812,-19.5104 650.07,-27.229 653.299,-21.0184"/>
</g>
<!-- Node26&#45;&gt;Node13 -->
<g id="edge41" class="edge"><title>Node26&#45;&gt;Node13</title>
<path fill="none" stroke="midnightblue" d="M694.633,-280.444C645.378,-270.944 565.872,-255.611 513.029,-245.42"/>
<polygon fill="midnightblue" stroke="midnightblue" points="513.641,-241.974 503.159,-243.516 512.316,-248.847 513.641,-241.974"/>
</g>
</g>
</svg>
