<?xml version="1.0" encoding="UTF-8" standalone="no"?>
<!DOCTYPE svg PUBLIC "-//W3C//DTD SVG 1.1//EN"
 "http://www.w3.org/Graphics/SVG/1.1/DTD/svg11.dtd">
<!-- Generated by graphviz version 2.38.0 (20140413.2041)
 -->
<!-- Title: Hysteresis.hpp Pages: 1 -->
<svg width="817pt" height="252pt"
 viewBox="0.00 0.00 816.50 252.00" xmlns="http://www.w3.org/2000/svg" xmlns:xlink="http://www.w3.org/1999/xlink">
<g id="graph0" class="graph" transform="scale(1 1) rotate(0) translate(4 248)">
<title>Hysteresis.hpp</title>
<polygon fill="white" stroke="none" points="-4,4 -4,-248 812.5,-248 812.5,4 -4,4"/>
<!-- Node2 -->
<g id="node1" class="node"><title>Node2</title>
<g id="a_node1"><a xlink:title=" ">
<polygon fill="#bfbfbf" stroke="black" points="242.5,-224.5 242.5,-243.5 325.5,-243.5 325.5,-224.5 242.5,-224.5"/>
<text text-anchor="middle" x="284" y="-231.5" font-family="Helvetica,sans-Serif" font-size="10.00">Hysteresis.hpp</text>
</a>
</g>
</g>
<!-- Node3 -->
<g id="node2" class="node"><title>Node3</title>
<g id="a_node2"><a xlink:href="../../d8/df3/FilteredAnalog_8hpp.html" target="_top" xlink:title=" ">
<polygon fill="white" stroke="black" points="181,-168.5 181,-187.5 279,-187.5 279,-168.5 181,-168.5"/>
<text text-anchor="middle" x="230" y="-175.5" font-family="Helvetica,sans-Serif" font-size="10.00">FilteredAnalog.hpp</text>
</a>
</g>
</g>
<!-- Node2&#45;&gt;Node3 -->
<g id="edge1" class="edge"><title>Node2&#45;&gt;Node3</title>
<path fill="none" stroke="midnightblue" d="M268.002,-217.002C258.433,-207.433 246.639,-195.639 238.751,-187.751"/>
<polygon fill="midnightblue" stroke="midnightblue" points="265.537,-219.487 275.083,-224.083 270.487,-214.537 265.537,-219.487"/>
</g>
<!-- Node19 -->
<g id="node18" class="node"><title>Node19</title>
<g id="a_node18"><a xlink:href="../../dd/d40/Hysteresis_8cpp.html" target="_top" xlink:title=" ">
<polygon fill="white" stroke="black" points="297.5,-168.5 297.5,-187.5 380.5,-187.5 380.5,-168.5 297.5,-168.5"/>
<text text-anchor="middle" x="339" y="-175.5" font-family="Helvetica,sans-Serif" font-size="10.00">Hysteresis.cpp</text>
</a>
</g>
</g>
<!-- Node2&#45;&gt;Node19 -->
<g id="edge20" class="edge"><title>Node2&#45;&gt;Node19</title>
<path fill="none" stroke="midnightblue" d="M300.294,-217.002C310.041,-207.433 322.053,-195.639 330.087,-187.751"/>
<polygon fill="midnightblue" stroke="midnightblue" points="297.766,-214.58 293.082,-224.083 302.67,-219.575 297.766,-214.58"/>
</g>
<!-- Node4 -->
<g id="node3" class="node"><title>Node4</title>
<g id="a_node3"><a xlink:href="../../da/d51/VolumeControl_8hpp.html" target="_top" xlink:title=" ">
<polygon fill="white" stroke="black" points="0,-112.5 0,-131.5 100,-131.5 100,-112.5 0,-112.5"/>
<text text-anchor="middle" x="50" y="-119.5" font-family="Helvetica,sans-Serif" font-size="10.00">VolumeControl.hpp</text>
</a>
</g>
</g>
<!-- Node3&#45;&gt;Node4 -->
<g id="edge2" class="edge"><title>Node3&#45;&gt;Node4</title>
<path fill="none" stroke="midnightblue" d="M191.892,-165.568C157.937,-155.381 109.011,-140.703 78.3881,-131.516"/>
<polygon fill="midnightblue" stroke="midnightblue" points="190.894,-168.922 201.478,-168.444 192.906,-162.218 190.894,-168.922"/>
</g>
<!-- Node5 -->
<g id="node4" class="node"><title>Node5</title>
<g id="a_node4"><a xlink:href="../../dd/d47/FilteredAnalog_8cpp.html" target="_top" xlink:title=" ">
<polygon fill="white" stroke="black" points="118,-112.5 118,-131.5 216,-131.5 216,-112.5 118,-112.5"/>
<text text-anchor="middle" x="167" y="-119.5" font-family="Helvetica,sans-Serif" font-size="10.00">FilteredAnalog.cpp</text>
</a>
</g>
</g>
<!-- Node3&#45;&gt;Node5 -->
<g id="edge3" class="edge"><title>Node3&#45;&gt;Node5</title>
<path fill="none" stroke="midnightblue" d="M211.96,-161.537C200.727,-151.909 186.681,-139.869 177.306,-131.834"/>
<polygon fill="midnightblue" stroke="midnightblue" points="210.008,-164.473 219.878,-168.324 214.563,-159.159 210.008,-164.473"/>
</g>
<!-- Node6 -->
<g id="node5" class="node"><title>Node6</title>
<g id="a_node5"><a xlink:href="../../d3/de4/Abstract_2MIDIFilteredAnalog_8hpp.html" target="_top" xlink:title=" ">
<polygon fill="white" stroke="black" points="234.5,-112.5 234.5,-131.5 353.5,-131.5 353.5,-112.5 234.5,-112.5"/>
<text text-anchor="middle" x="294" y="-119.5" font-family="Helvetica,sans-Serif" font-size="10.00">MIDIFilteredAnalog.hpp</text>
</a>
</g>
</g>
<!-- Node3&#45;&gt;Node6 -->
<g id="edge4" class="edge"><title>Node3&#45;&gt;Node6</title>
<path fill="none" stroke="midnightblue" d="M247.991,-161.82C259.458,-152.145 273.913,-139.948 283.53,-131.834"/>
<polygon fill="midnightblue" stroke="midnightblue" points="245.669,-159.2 240.283,-168.324 250.183,-164.55 245.669,-159.2"/>
</g>
<!-- Node13 -->
<g id="node12" class="node"><title>Node13</title>
<g id="a_node12"><a xlink:href="../../d5/d4d/Bankable_2Abstract_2MIDIFilteredAnalog_8hpp.html" target="_top" xlink:title=" ">
<polygon fill="white" stroke="black" points="496.5,-112.5 496.5,-131.5 615.5,-131.5 615.5,-112.5 496.5,-112.5"/>
<text text-anchor="middle" x="556" y="-119.5" font-family="Helvetica,sans-Serif" font-size="10.00">MIDIFilteredAnalog.hpp</text>
</a>
</g>
</g>
<!-- Node3&#45;&gt;Node13 -->
<g id="edge12" class="edge"><title>Node3&#45;&gt;Node13</title>
<path fill="none" stroke="midnightblue" d="M289.108,-167.209C350.638,-157.017 446.033,-141.215 504.555,-131.522"/>
<polygon fill="midnightblue" stroke="midnightblue" points="288.452,-163.77 279.158,-168.857 289.596,-170.676 288.452,-163.77"/>
</g>
<!-- Node7 -->
<g id="node6" class="node"><title>Node7</title>
<g id="a_node6"><a xlink:href="../../df/d2f/Abstract_2MIDIFilteredAnalog_8cpp.html" target="_top" xlink:title=" ">
<polygon fill="white" stroke="black" points="36.5,-56.5 36.5,-75.5 155.5,-75.5 155.5,-56.5 36.5,-56.5"/>
<text text-anchor="middle" x="96" y="-63.5" font-family="Helvetica,sans-Serif" font-size="10.00">MIDIFilteredAnalog.cpp</text>
</a>
</g>
</g>
<!-- Node6&#45;&gt;Node7 -->
<g id="edge5" class="edge"><title>Node6&#45;&gt;Node7</title>
<path fill="none" stroke="midnightblue" d="M252.562,-109.699C215.193,-99.507 161.057,-84.7429 127.227,-75.5164"/>
<polygon fill="midnightblue" stroke="midnightblue" points="252.058,-113.189 262.626,-112.444 253.9,-106.436 252.058,-113.189"/>
</g>
<!-- Node8 -->
<g id="node7" class="node"><title>Node8</title>
<g id="a_node7"><a xlink:href="../../d4/df0/CCPotentiometer_8hpp.html" target="_top" xlink:title=" ">
<polygon fill="white" stroke="black" points="302.5,-56.5 302.5,-75.5 413.5,-75.5 413.5,-56.5 302.5,-56.5"/>
<text text-anchor="middle" x="358" y="-63.5" font-family="Helvetica,sans-Serif" font-size="10.00">CCPotentiometer.hpp</text>
</a>
</g>
</g>
<!-- Node6&#45;&gt;Node8 -->
<g id="edge6" class="edge"><title>Node6&#45;&gt;Node8</title>
<path fill="none" stroke="midnightblue" d="M311.991,-105.82C323.458,-96.1452 337.913,-83.9481 347.53,-75.8339"/>
<polygon fill="midnightblue" stroke="midnightblue" points="309.669,-103.2 304.283,-112.324 314.183,-108.55 309.669,-103.2"/>
</g>
<!-- Node11 -->
<g id="node10" class="node"><title>Node11</title>
<g id="a_node10"><a xlink:href="../../d3/d74/PBPotentiometer_8hpp.html" target="_top" xlink:title=" ">
<polygon fill="white" stroke="black" points="174,-56.5 174,-75.5 284,-75.5 284,-56.5 174,-56.5"/>
<text text-anchor="middle" x="229" y="-63.5" font-family="Helvetica,sans-Serif" font-size="10.00">PBPotentiometer.hpp</text>
</a>
</g>
</g>
<!-- Node6&#45;&gt;Node11 -->
<g id="edge9" class="edge"><title>Node6&#45;&gt;Node11</title>
<path fill="none" stroke="midnightblue" d="M275.727,-105.82C264.082,-96.1452 249.401,-83.9481 239.633,-75.8339"/>
<polygon fill="midnightblue" stroke="midnightblue" points="273.628,-108.626 283.557,-112.324 278.101,-103.242 273.628,-108.626"/>
</g>
<!-- Node9 -->
<g id="node8" class="node"><title>Node9</title>
<g id="a_node8"><a xlink:href="../../db/dbf/Control__Surface_8h.html" target="_top" xlink:title="The main header file that includes all Control&#45;Surface header files.">
<polygon fill="white" stroke="black" points="374.5,-0.5 374.5,-19.5 469.5,-19.5 469.5,-0.5 374.5,-0.5"/>
<text text-anchor="middle" x="422" y="-7.5" font-family="Helvetica,sans-Serif" font-size="10.00">Control_Surface.h</text>
</a>
</g>
</g>
<!-- Node8&#45;&gt;Node9 -->
<g id="edge7" class="edge"><title>Node8&#45;&gt;Node9</title>
<path fill="none" stroke="midnightblue" d="M375.991,-49.8197C387.458,-40.1452 401.913,-27.9481 411.53,-19.8339"/>
<polygon fill="midnightblue" stroke="midnightblue" points="373.669,-47.2002 368.283,-56.324 378.183,-52.5502 373.669,-47.2002"/>
</g>
<!-- Node10 -->
<g id="node9" class="node"><title>Node10</title>
<g id="a_node9"><a xlink:href="../../d2/d7b/CCPotentiometer_8cpp.html" target="_top" xlink:title=" ">
<polygon fill="white" stroke="black" points="245.5,-0.5 245.5,-19.5 356.5,-19.5 356.5,-0.5 245.5,-0.5"/>
<text text-anchor="middle" x="301" y="-7.5" font-family="Helvetica,sans-Serif" font-size="10.00">CCPotentiometer.cpp</text>
</a>
</g>
</g>
<!-- Node8&#45;&gt;Node10 -->
<g id="edge8" class="edge"><title>Node8&#45;&gt;Node10</title>
<path fill="none" stroke="midnightblue" d="M341.379,-49.2533C331.266,-39.6731 318.723,-27.7906 310.325,-19.8339"/>
<polygon fill="midnightblue" stroke="midnightblue" points="339.175,-51.9873 348.842,-56.324 343.99,-46.9056 339.175,-51.9873"/>
</g>
<!-- Node11&#45;&gt;Node9 -->
<g id="edge10" class="edge"><title>Node11&#45;&gt;Node9</title>
<path fill="none" stroke="midnightblue" d="M269.392,-53.6986C305.817,-43.507 358.586,-28.7429 391.562,-19.5164"/>
<polygon fill="midnightblue" stroke="midnightblue" points="268.269,-50.3785 259.581,-56.4435 270.155,-57.1196 268.269,-50.3785"/>
</g>
<!-- Node12 -->
<g id="node11" class="node"><title>Node12</title>
<g id="a_node11"><a xlink:href="../../d6/d59/PBPotentiometer_8cpp.html" target="_top" xlink:title=" ">
<polygon fill="white" stroke="black" points="117,-0.5 117,-19.5 227,-19.5 227,-0.5 117,-0.5"/>
<text text-anchor="middle" x="172" y="-7.5" font-family="Helvetica,sans-Serif" font-size="10.00">PBPotentiometer.cpp</text>
</a>
</g>
</g>
<!-- Node11&#45;&gt;Node12 -->
<g id="edge11" class="edge"><title>Node11&#45;&gt;Node12</title>
<path fill="none" stroke="midnightblue" d="M212.379,-49.2533C202.266,-39.6731 189.723,-27.7906 181.325,-19.8339"/>
<polygon fill="midnightblue" stroke="midnightblue" points="210.175,-51.9873 219.842,-56.324 214.99,-46.9056 210.175,-51.9873"/>
</g>
<!-- Node14 -->
<g id="node13" class="node"><title>Node14</title>
<g id="a_node13"><a xlink:href="../../d4/d8e/Bankable_2Abstract_2MIDIFilteredAnalog_8cpp.html" target="_top" xlink:title=" ">
<polygon fill="white" stroke="black" points="689.5,-56.5 689.5,-75.5 808.5,-75.5 808.5,-56.5 689.5,-56.5"/>
<text text-anchor="middle" x="749" y="-63.5" font-family="Helvetica,sans-Serif" font-size="10.00">MIDIFilteredAnalog.cpp</text>
</a>
</g>
</g>
<!-- Node13&#45;&gt;Node14 -->
<g id="edge13" class="edge"><title>Node13&#45;&gt;Node14</title>
<path fill="none" stroke="midnightblue" d="M596.392,-109.699C632.817,-99.507 685.586,-84.7429 718.562,-75.5164"/>
<polygon fill="midnightblue" stroke="midnightblue" points="595.269,-106.378 586.581,-112.444 597.155,-113.12 595.269,-106.378"/>
</g>
<!-- Node15 -->
<g id="node14" class="node"><title>Node15</title>
<g id="a_node14"><a xlink:href="../../d6/ddd/Bankable_2CCPotentiometer_8hpp.html" target="_top" xlink:title=" ">
<polygon fill="white" stroke="black" points="431.5,-56.5 431.5,-75.5 542.5,-75.5 542.5,-56.5 431.5,-56.5"/>
<text text-anchor="middle" x="487" y="-63.5" font-family="Helvetica,sans-Serif" font-size="10.00">CCPotentiometer.hpp</text>
</a>
</g>
</g>
<!-- Node13&#45;&gt;Node15 -->
<g id="edge14" class="edge"><title>Node13&#45;&gt;Node15</title>
<path fill="none" stroke="midnightblue" d="M536.962,-106.101C524.544,-96.3824 508.757,-84.0269 498.288,-75.8339"/>
<polygon fill="midnightblue" stroke="midnightblue" points="534.882,-108.917 544.914,-112.324 539.196,-103.405 534.882,-108.917"/>
</g>
<!-- Node17 -->
<g id="node16" class="node"><title>Node17</title>
<g id="a_node16"><a xlink:href="../../d9/d99/Bankable_2PBPotentiometer_8hpp.html" target="_top" xlink:title=" ">
<polygon fill="white" stroke="black" points="561,-56.5 561,-75.5 671,-75.5 671,-56.5 561,-56.5"/>
<text text-anchor="middle" x="616" y="-63.5" font-family="Helvetica,sans-Serif" font-size="10.00">PBPotentiometer.hpp</text>
</a>
</g>
</g>
<!-- Node13&#45;&gt;Node17 -->
<g id="edge17" class="edge"><title>Node13&#45;&gt;Node17</title>
<path fill="none" stroke="midnightblue" d="M573.181,-105.537C583.879,-95.9087 597.256,-83.8694 606.185,-75.8339"/>
<polygon fill="midnightblue" stroke="midnightblue" points="570.732,-103.033 565.64,-112.324 575.414,-108.236 570.732,-103.033"/>
</g>
<!-- Node15&#45;&gt;Node9 -->
<g id="edge15" class="edge"><title>Node15&#45;&gt;Node9</title>
<path fill="none" stroke="midnightblue" d="M468.727,-49.8197C457.082,-40.1452 442.401,-27.9481 432.633,-19.8339"/>
<polygon fill="midnightblue" stroke="midnightblue" points="466.628,-52.6259 476.557,-56.324 471.101,-47.2416 466.628,-52.6259"/>
</g>
<!-- Node16 -->
<g id="node15" class="node"><title>Node16</title>
<g id="a_node15"><a xlink:href="../../d1/d40/Bankable_2CCPotentiometer_8cpp.html" target="_top" xlink:title=" ">
<polygon fill="white" stroke="black" points="487.5,-0.5 487.5,-19.5 598.5,-19.5 598.5,-0.5 487.5,-0.5"/>
<text text-anchor="middle" x="543" y="-7.5" font-family="Helvetica,sans-Serif" font-size="10.00">CCPotentiometer.cpp</text>
</a>
</g>
</g>
<!-- Node15&#45;&gt;Node16 -->
<g id="edge16" class="edge"><title>Node15&#45;&gt;Node16</title>
<path fill="none" stroke="midnightblue" d="M503.33,-49.2533C513.265,-39.6731 525.588,-27.7906 533.839,-19.8339"/>
<polygon fill="midnightblue" stroke="midnightblue" points="500.766,-46.8631 495.997,-56.324 505.625,-51.902 500.766,-46.8631"/>
</g>
<!-- Node17&#45;&gt;Node9 -->
<g id="edge18" class="edge"><title>Node17&#45;&gt;Node9</title>
<path fill="none" stroke="midnightblue" d="M575.399,-53.6986C538.785,-43.507 485.743,-28.7429 452.596,-19.5164"/>
<polygon fill="midnightblue" stroke="midnightblue" points="574.688,-57.1337 585.26,-56.4435 576.565,-50.3901 574.688,-57.1337"/>
</g>
<!-- Node18 -->
<g id="node17" class="node"><title>Node18</title>
<g id="a_node17"><a xlink:href="../../de/d09/Bankable_2PBPotentiometer_8cpp.html" target="_top" xlink:title=" ">
<polygon fill="white" stroke="black" points="617,-0.5 617,-19.5 727,-19.5 727,-0.5 617,-0.5"/>
<text text-anchor="middle" x="672" y="-7.5" font-family="Helvetica,sans-Serif" font-size="10.00">PBPotentiometer.cpp</text>
</a>
</g>
</g>
<!-- Node17&#45;&gt;Node18 -->
<g id="edge19" class="edge"><title>Node17&#45;&gt;Node18</title>
<path fill="none" stroke="midnightblue" d="M632.33,-49.2533C642.265,-39.6731 654.588,-27.7906 662.839,-19.8339"/>
<polygon fill="midnightblue" stroke="midnightblue" points="629.766,-46.8631 624.997,-56.324 634.625,-51.902 629.766,-46.8631"/>
</g>
</g>
</svg>
