<?xml version="1.0" encoding="UTF-8" standalone="no"?>
<!DOCTYPE svg PUBLIC "-//W3C//DTD SVG 1.1//EN"
 "http://www.w3.org/Graphics/SVG/1.1/DTD/svg11.dtd">
<!-- Generated by graphviz version 2.38.0 (20140413.2041)
 -->
<!-- Title: MCU::Bankable::VU&lt; NumBanks &gt; Pages: 1 -->
<svg width="842pt" height="1265pt"
 viewBox="0.00 0.00 842.00 1265.00" xmlns="http://www.w3.org/2000/svg" xmlns:xlink="http://www.w3.org/1999/xlink">
<g id="graph0" class="graph" transform="scale(1 1) rotate(0) translate(4 1261)">
<title>MCU::Bankable::VU&lt; NumBanks &gt;</title>
<polygon fill="white" stroke="none" points="-4,4 -4,-1261 838,-1261 838,4 -4,4"/>
<!-- Node1 -->
<g id="node1" class="node"><title>Node1</title>
<g id="a_node1"><a xlink:title="A class for MIDI input elements that represent Mackie Control Universal VU meters.">
<polygon fill="#bfbfbf" stroke="black" points="594,-0.5 594,-79.5 707,-79.5 707,-0.5 594,-0.5"/>
<text text-anchor="start" x="602" y="-67.5" font-family="Helvetica,sans-Serif" font-size="10.00">MCU::Bankable::VU&lt;</text>
<text text-anchor="middle" x="650.5" y="-56.5" font-family="Helvetica,sans-Serif" font-size="10.00"> NumBanks &gt;</text>
<polyline fill="none" stroke="black" points="594,-49.5 707,-49.5 "/>
<text text-anchor="middle" x="650.5" y="-37.5" font-family="Helvetica,sans-Serif" font-size="10.00"> </text>
<polyline fill="none" stroke="black" points="594,-30.5 707,-30.5 "/>
<text text-anchor="start" x="602" y="-18.5" font-family="Helvetica,sans-Serif" font-size="10.00">+ VU()</text>
<text text-anchor="start" x="602" y="-7.5" font-family="Helvetica,sans-Serif" font-size="10.00">+ VU()</text>
</a>
</g>
</g>
<!-- Node2 -->
<g id="node2" class="node"><title>Node2</title>
<g id="a_node2"><a xlink:href="../../db/d5e/classMCU_1_1Bankable_1_1GenericVU.html" target="_top" xlink:title=" ">
<polygon fill="white" stroke="black" points="580.5,-117.5 580.5,-229.5 720.5,-229.5 720.5,-117.5 580.5,-117.5"/>
<text text-anchor="start" x="588.5" y="-217.5" font-family="Helvetica,sans-Serif" font-size="10.00">MCU::Bankable::GenericVU</text>
<text text-anchor="middle" x="650.5" y="-206.5" font-family="Helvetica,sans-Serif" font-size="10.00">&lt; NumBanks &gt;</text>
<polyline fill="none" stroke="black" points="580.5,-199.5 720.5,-199.5 "/>
<text text-anchor="middle" x="650.5" y="-187.5" font-family="Helvetica,sans-Serif" font-size="10.00"> </text>
<polyline fill="none" stroke="black" points="580.5,-180.5 720.5,-180.5 "/>
<text text-anchor="start" x="588.5" y="-168.5" font-family="Helvetica,sans-Serif" font-size="10.00">+ GenericVU()</text>
<text text-anchor="start" x="588.5" y="-157.5" font-family="Helvetica,sans-Serif" font-size="10.00">&#45; getSelection()</text>
<text text-anchor="start" x="588.5" y="-146.5" font-family="Helvetica,sans-Serif" font-size="10.00">&#45; getBankIndex()</text>
<text text-anchor="start" x="588.5" y="-135.5" font-family="Helvetica,sans-Serif" font-size="10.00">&#45; match()</text>
<text text-anchor="start" x="588.5" y="-124.5" font-family="Helvetica,sans-Serif" font-size="10.00">&#45; onBankSettingChange()</text>
</a>
</g>
</g>
<!-- Node2&#45;&gt;Node1 -->
<g id="edge1" class="edge"><title>Node2&#45;&gt;Node1</title>
<path fill="none" stroke="midnightblue" d="M650.5,-107.32C650.5,-97.9041 650.5,-88.4729 650.5,-79.7985"/>
<polygon fill="none" stroke="midnightblue" points="647,-107.494 650.5,-117.494 654,-107.494 647,-107.494"/>
</g>
<!-- Node3 -->
<g id="node3" class="node"><title>Node3</title>
<g id="a_node3"><a xlink:href="../../d4/d71/classMCU_1_1VU__Base.html" target="_top" xlink:title=" ">
<polygon fill="white" stroke="black" points="391,-284 391,-528 540,-528 540,-284 391,-284"/>
<text text-anchor="start" x="399" y="-516" font-family="Helvetica,sans-Serif" font-size="10.00">MCU::VU_Base&lt; NumBanks,</text>
<text text-anchor="middle" x="465.5" y="-505" font-family="Helvetica,sans-Serif" font-size="10.00"> VUEmptyCallback &gt;</text>
<polyline fill="none" stroke="black" points="391,-498 540,-498 "/>
<text text-anchor="start" x="399" y="-486" font-family="Helvetica,sans-Serif" font-size="10.00">&#45; decayTime</text>
<text text-anchor="start" x="399" y="-475" font-family="Helvetica,sans-Serif" font-size="10.00">&#45; prevDecayTime</text>
<polyline fill="none" stroke="black" points="391,-468 540,-468 "/>
<text text-anchor="start" x="399" y="-456" font-family="Helvetica,sans-Serif" font-size="10.00">+ begin()</text>
<text text-anchor="start" x="399" y="-445" font-family="Helvetica,sans-Serif" font-size="10.00">+ reset()</text>
<text text-anchor="start" x="399" y="-434" font-family="Helvetica,sans-Serif" font-size="10.00">+ getValue()</text>
<text text-anchor="start" x="399" y="-423" font-family="Helvetica,sans-Serif" font-size="10.00">+ getOverload()</text>
<text text-anchor="start" x="399" y="-412" font-family="Helvetica,sans-Serif" font-size="10.00">+ update()</text>
<text text-anchor="start" x="399" y="-401" font-family="Helvetica,sans-Serif" font-size="10.00"># VU_Base()</text>
<text text-anchor="start" x="399" y="-390" font-family="Helvetica,sans-Serif" font-size="10.00">&#45; getValue()</text>
<text text-anchor="start" x="399" y="-379" font-family="Helvetica,sans-Serif" font-size="10.00">&#45; getOverload()</text>
<text text-anchor="start" x="399" y="-368" font-family="Helvetica,sans-Serif" font-size="10.00">&#45; updateImpl()</text>
<text text-anchor="start" x="399" y="-357" font-family="Helvetica,sans-Serif" font-size="10.00">&#45; getTarget()</text>
<text text-anchor="start" x="399" y="-346" font-family="Helvetica,sans-Serif" font-size="10.00">&#45; decay()</text>
<text text-anchor="start" x="399" y="-335" font-family="Helvetica,sans-Serif" font-size="10.00">&#45; getSelection()</text>
<text text-anchor="start" x="399" y="-324" font-family="Helvetica,sans-Serif" font-size="10.00">&#45; getBankIndex()</text>
<text text-anchor="start" x="399" y="-313" font-family="Helvetica,sans-Serif" font-size="10.00">&#45; setValue()</text>
<text text-anchor="start" x="399" y="-302" font-family="Helvetica,sans-Serif" font-size="10.00">&#45; setOverload()</text>
<text text-anchor="start" x="399" y="-291" font-family="Helvetica,sans-Serif" font-size="10.00">&#45; clearOverload()</text>
</a>
</g>
</g>
<!-- Node3&#45;&gt;Node2 -->
<g id="edge2" class="edge"><title>Node3&#45;&gt;Node2</title>
<path fill="none" stroke="midnightblue" d="M546.536,-304.033C567.004,-278.532 588.232,-252.083 606.128,-229.785"/>
<polygon fill="none" stroke="midnightblue" points="543.743,-301.922 540.213,-311.911 549.202,-306.303 543.743,-301.922"/>
</g>
<!-- Node4 -->
<g id="node4" class="node"><title>Node4</title>
<g id="a_node4"><a xlink:href="../../d1/df7/classMIDIInputElementChannelPressure.html" target="_top" xlink:title=" ">
<polygon fill="white" stroke="black" points="79.5,-603.5 79.5,-748.5 265.5,-748.5 265.5,-603.5 79.5,-603.5"/>
<text text-anchor="middle" x="172.5" y="-736.5" font-family="Helvetica,sans-Serif" font-size="10.00">MIDIInputElementChannelPressure</text>
<polyline fill="none" stroke="black" points="79.5,-729.5 265.5,-729.5 "/>
<text text-anchor="middle" x="172.5" y="-717.5" font-family="Helvetica,sans-Serif" font-size="10.00"> </text>
<polyline fill="none" stroke="black" points="79.5,-710.5 265.5,-710.5 "/>
<text text-anchor="start" x="87.5" y="-698.5" font-family="Helvetica,sans-Serif" font-size="10.00">+ MIDIInputElementChannelPressure()</text>
<text text-anchor="start" x="87.5" y="-687.5" font-family="Helvetica,sans-Serif" font-size="10.00">+ ~MIDIInputElementChannel</text>
<text text-anchor="start" x="87.5" y="-676.5" font-family="Helvetica,sans-Serif" font-size="10.00">Pressure()</text>
<text text-anchor="start" x="87.5" y="-665.5" font-family="Helvetica,sans-Serif" font-size="10.00">+ beginAll()</text>
<text text-anchor="start" x="87.5" y="-654.5" font-family="Helvetica,sans-Serif" font-size="10.00">+ resetAll()</text>
<text text-anchor="start" x="87.5" y="-643.5" font-family="Helvetica,sans-Serif" font-size="10.00">+ updateAll()</text>
<text text-anchor="start" x="87.5" y="-632.5" font-family="Helvetica,sans-Serif" font-size="10.00">+ updateAllWith()</text>
<text text-anchor="start" x="87.5" y="-621.5" font-family="Helvetica,sans-Serif" font-size="10.00">&#45; getTarget()</text>
<text text-anchor="start" x="87.5" y="-610.5" font-family="Helvetica,sans-Serif" font-size="10.00">&#45; moveDown()</text>
</a>
</g>
</g>
<!-- Node4&#45;&gt;Node3 -->
<g id="edge3" class="edge"><title>Node4&#45;&gt;Node3</title>
<path fill="none" stroke="midnightblue" d="M258.487,-596.35C300.453,-557.964 350.457,-512.227 390.806,-475.321"/>
<polygon fill="none" stroke="midnightblue" points="256.035,-593.849 251.019,-603.181 260.76,-599.014 256.035,-593.849"/>
</g>
<!-- Node7 -->
<g id="node7" class="node"><title>Node7</title>
<g id="a_node7"><a xlink:href="../../d4/d23/classDoublyLinkable.html" target="_top" xlink:title=" ">
<polygon fill="white" stroke="black" points="0,-372 0,-440 137,-440 137,-372 0,-372"/>
<text text-anchor="start" x="8" y="-428" font-family="Helvetica,sans-Serif" font-size="10.00">DoublyLinkable&lt; MIDIInput</text>
<text text-anchor="middle" x="68.5" y="-417" font-family="Helvetica,sans-Serif" font-size="10.00">ElementChannelPressure &gt;</text>
<polyline fill="none" stroke="black" points="0,-410 137,-410 "/>
<text text-anchor="middle" x="68.5" y="-398" font-family="Helvetica,sans-Serif" font-size="10.00"> </text>
<polyline fill="none" stroke="black" points="0,-391 137,-391 "/>
<text text-anchor="start" x="8" y="-379" font-family="Helvetica,sans-Serif" font-size="10.00"># ~DoublyLinkable()</text>
</a>
</g>
</g>
<!-- Node4&#45;&gt;Node7 -->
<g id="edge7" class="edge"><title>Node4&#45;&gt;Node7</title>
<path fill="none" stroke="#404040" d="M93.8965,-603.256C89.93,-597.388 86.3978,-591.286 83.5,-585 64.1373,-542.996 62.2443,-489.52 64.0376,-452.195"/>
<polygon fill="none" stroke="#404040" points="64.0388,-452.174 60.4104,-445.942 64.7672,-440.196 68.3957,-446.428 64.0388,-452.174"/>
<text text-anchor="middle" x="105" y="-577" font-family="Helvetica,sans-Serif" font-size="10.00"> #next</text>
<text text-anchor="middle" x="105" y="-566" font-family="Helvetica,sans-Serif" font-size="10.00">#previous</text>
</g>
<!-- Node8 -->
<g id="node8" class="node"><title>Node8</title>
<g id="a_node8"><a xlink:href="../../dd/d16/classDoublyLinkedList.html" target="_top" xlink:title=" ">
<polygon fill="white" stroke="black" points="155.5,-267.5 155.5,-544.5 299.5,-544.5 299.5,-267.5 155.5,-267.5"/>
<text text-anchor="start" x="163.5" y="-532.5" font-family="Helvetica,sans-Serif" font-size="10.00">DoublyLinkedList&lt; MIDIInput</text>
<text text-anchor="middle" x="227.5" y="-521.5" font-family="Helvetica,sans-Serif" font-size="10.00">ElementChannelPressure &gt;</text>
<polyline fill="none" stroke="black" points="155.5,-514.5 299.5,-514.5 "/>
<text text-anchor="middle" x="227.5" y="-502.5" font-family="Helvetica,sans-Serif" font-size="10.00"> </text>
<polyline fill="none" stroke="black" points="155.5,-495.5 299.5,-495.5 "/>
<text text-anchor="start" x="163.5" y="-483.5" font-family="Helvetica,sans-Serif" font-size="10.00">+ append()</text>
<text text-anchor="start" x="163.5" y="-472.5" font-family="Helvetica,sans-Serif" font-size="10.00">+ append()</text>
<text text-anchor="start" x="163.5" y="-461.5" font-family="Helvetica,sans-Serif" font-size="10.00">+ insertBefore()</text>
<text text-anchor="start" x="163.5" y="-450.5" font-family="Helvetica,sans-Serif" font-size="10.00">+ insertBefore()</text>
<text text-anchor="start" x="163.5" y="-439.5" font-family="Helvetica,sans-Serif" font-size="10.00">+ insertSorted()</text>
<text text-anchor="start" x="163.5" y="-428.5" font-family="Helvetica,sans-Serif" font-size="10.00">+ insertSorted()</text>
<text text-anchor="start" x="163.5" y="-417.5" font-family="Helvetica,sans-Serif" font-size="10.00">+ remove()</text>
<text text-anchor="start" x="163.5" y="-406.5" font-family="Helvetica,sans-Serif" font-size="10.00">+ remove()</text>
<text text-anchor="start" x="163.5" y="-395.5" font-family="Helvetica,sans-Serif" font-size="10.00">+ moveDown()</text>
<text text-anchor="start" x="163.5" y="-384.5" font-family="Helvetica,sans-Serif" font-size="10.00">+ couldContain()</text>
<text text-anchor="start" x="163.5" y="-373.5" font-family="Helvetica,sans-Serif" font-size="10.00">+ begin()</text>
<text text-anchor="start" x="163.5" y="-362.5" font-family="Helvetica,sans-Serif" font-size="10.00">+ begin()</text>
<text text-anchor="start" x="163.5" y="-351.5" font-family="Helvetica,sans-Serif" font-size="10.00">+ end()</text>
<text text-anchor="start" x="163.5" y="-340.5" font-family="Helvetica,sans-Serif" font-size="10.00">+ end()</text>
<text text-anchor="start" x="163.5" y="-329.5" font-family="Helvetica,sans-Serif" font-size="10.00">+ rbegin()</text>
<text text-anchor="start" x="163.5" y="-318.5" font-family="Helvetica,sans-Serif" font-size="10.00">+ rbegin()</text>
<text text-anchor="start" x="163.5" y="-307.5" font-family="Helvetica,sans-Serif" font-size="10.00">+ rend()</text>
<text text-anchor="start" x="163.5" y="-296.5" font-family="Helvetica,sans-Serif" font-size="10.00">+ rend()</text>
<text text-anchor="start" x="163.5" y="-285.5" font-family="Helvetica,sans-Serif" font-size="10.00">+ getFirst()</text>
<text text-anchor="start" x="163.5" y="-274.5" font-family="Helvetica,sans-Serif" font-size="10.00">+ getLast()</text>
</a>
</g>
</g>
<!-- Node4&#45;&gt;Node8 -->
<g id="edge9" class="edge"><title>Node4&#45;&gt;Node8</title>
<path fill="none" stroke="#404040" d="M172.076,-603.286C172.839,-589.829 174.203,-575.931 176.5,-563 176.885,-560.832 177.293,-558.653 177.723,-556.466"/>
<polygon fill="none" stroke="#404040" points="177.729,-556.44 175.059,-549.741 180.216,-544.7 182.886,-551.399 177.729,-556.44"/>
<text text-anchor="middle" x="187.5" y="-577" font-family="Helvetica,sans-Serif" font-size="10.00"> &#45;last</text>
<text text-anchor="middle" x="187.5" y="-566" font-family="Helvetica,sans-Serif" font-size="10.00">&#45;first</text>
</g>
<!-- Node5 -->
<g id="node5" class="node"><title>Node5</title>
<g id="a_node5"><a xlink:href="../../d9/db1/classMIDIInputElement.html" target="_top" xlink:title="A class for objects that listen for incoming MIDI events.">
<polygon fill="white" stroke="black" points="114,-786.5 114,-942.5 231,-942.5 231,-786.5 114,-786.5"/>
<text text-anchor="middle" x="172.5" y="-930.5" font-family="Helvetica,sans-Serif" font-size="10.00">MIDIInputElement</text>
<polyline fill="none" stroke="black" points="114,-923.5 231,-923.5 "/>
<text text-anchor="middle" x="172.5" y="-911.5" font-family="Helvetica,sans-Serif" font-size="10.00"> </text>
<polyline fill="none" stroke="black" points="114,-904.5 231,-904.5 "/>
<text text-anchor="start" x="122" y="-892.5" font-family="Helvetica,sans-Serif" font-size="10.00">+ ~MIDIInputElement()</text>
<text text-anchor="start" x="122" y="-881.5" font-family="Helvetica,sans-Serif" font-size="10.00">+ begin()</text>
<text text-anchor="start" x="122" y="-870.5" font-family="Helvetica,sans-Serif" font-size="10.00">+ reset()</text>
<text text-anchor="start" x="122" y="-859.5" font-family="Helvetica,sans-Serif" font-size="10.00">+ update()</text>
<text text-anchor="start" x="122" y="-848.5" font-family="Helvetica,sans-Serif" font-size="10.00">+ updateWith()</text>
<text text-anchor="start" x="122" y="-837.5" font-family="Helvetica,sans-Serif" font-size="10.00"># MIDIInputElement()</text>
<text text-anchor="start" x="122" y="-826.5" font-family="Helvetica,sans-Serif" font-size="10.00"># MIDIInputElement()</text>
<text text-anchor="start" x="122" y="-815.5" font-family="Helvetica,sans-Serif" font-size="10.00">&#45; updateImpl()</text>
<text text-anchor="start" x="122" y="-804.5" font-family="Helvetica,sans-Serif" font-size="10.00">&#45; getTarget()</text>
<text text-anchor="start" x="122" y="-793.5" font-family="Helvetica,sans-Serif" font-size="10.00">&#45; match()</text>
</a>
</g>
</g>
<!-- Node5&#45;&gt;Node4 -->
<g id="edge4" class="edge"><title>Node5&#45;&gt;Node4</title>
<path fill="none" stroke="midnightblue" d="M172.5,-776.035C172.5,-766.901 172.5,-757.692 172.5,-748.762"/>
<polygon fill="none" stroke="midnightblue" points="169,-776.297 172.5,-786.297 176,-776.297 169,-776.297"/>
</g>
<!-- Node6 -->
<g id="node6" class="node"><title>Node6</title>
<g id="a_node6"><a xlink:href="../../d3/d10/classMIDICNChannelAddress.html" target="_top" xlink:title="A type&#45;safe utility class for saving a MIDI address consisting of a 7&#45;bit address,...">
<polygon fill="white" stroke="black" points="102.5,-990.5 102.5,-1256.5 242.5,-1256.5 242.5,-990.5 102.5,-990.5"/>
<text text-anchor="middle" x="172.5" y="-1244.5" font-family="Helvetica,sans-Serif" font-size="10.00">MIDICNChannelAddress</text>
<polyline fill="none" stroke="black" points="102.5,-1237.5 242.5,-1237.5 "/>
<text text-anchor="start" x="110.5" y="-1225.5" font-family="Helvetica,sans-Serif" font-size="10.00">&#45; addresses</text>
<polyline fill="none" stroke="black" points="102.5,-1218.5 242.5,-1218.5 "/>
<text text-anchor="start" x="110.5" y="-1206.5" font-family="Helvetica,sans-Serif" font-size="10.00">+ MIDICNChannelAddress()</text>
<text text-anchor="start" x="110.5" y="-1195.5" font-family="Helvetica,sans-Serif" font-size="10.00">+ MIDICNChannelAddress()</text>
<text text-anchor="start" x="110.5" y="-1184.5" font-family="Helvetica,sans-Serif" font-size="10.00">+ MIDICNChannelAddress()</text>
<text text-anchor="start" x="110.5" y="-1173.5" font-family="Helvetica,sans-Serif" font-size="10.00">+ MIDICNChannelAddress()</text>
<text text-anchor="start" x="110.5" y="-1162.5" font-family="Helvetica,sans-Serif" font-size="10.00">+ MIDICNChannelAddress()</text>
<text text-anchor="start" x="110.5" y="-1151.5" font-family="Helvetica,sans-Serif" font-size="10.00">+ operator+=()</text>
<text text-anchor="start" x="110.5" y="-1140.5" font-family="Helvetica,sans-Serif" font-size="10.00">+ operator&#45;=()</text>
<text text-anchor="start" x="110.5" y="-1129.5" font-family="Helvetica,sans-Serif" font-size="10.00">+ operator+()</text>
<text text-anchor="start" x="110.5" y="-1118.5" font-family="Helvetica,sans-Serif" font-size="10.00">+ operator&#45;()</text>
<text text-anchor="start" x="110.5" y="-1107.5" font-family="Helvetica,sans-Serif" font-size="10.00">+ operator==()</text>
<text text-anchor="start" x="110.5" y="-1096.5" font-family="Helvetica,sans-Serif" font-size="10.00">+ operator!=()</text>
<text text-anchor="start" x="110.5" y="-1085.5" font-family="Helvetica,sans-Serif" font-size="10.00">+ getAddress()</text>
<text text-anchor="start" x="110.5" y="-1074.5" font-family="Helvetica,sans-Serif" font-size="10.00">+ getChannel()</text>
<text text-anchor="start" x="110.5" y="-1063.5" font-family="Helvetica,sans-Serif" font-size="10.00">+ getRawChannel()</text>
<text text-anchor="start" x="110.5" y="-1052.5" font-family="Helvetica,sans-Serif" font-size="10.00">+ getCableNumber()</text>
<text text-anchor="start" x="110.5" y="-1041.5" font-family="Helvetica,sans-Serif" font-size="10.00">+ isValid()</text>
<text text-anchor="start" x="110.5" y="-1030.5" font-family="Helvetica,sans-Serif" font-size="10.00">+ operator bool()</text>
<text text-anchor="start" x="110.5" y="-1019.5" font-family="Helvetica,sans-Serif" font-size="10.00">+ matchSingle()</text>
<text text-anchor="start" x="110.5" y="-1008.5" font-family="Helvetica,sans-Serif" font-size="10.00">+ matchAddressInRange()</text>
<text text-anchor="start" x="110.5" y="-997.5" font-family="Helvetica,sans-Serif" font-size="10.00">+ invalid()</text>
</a>
</g>
</g>
<!-- Node6&#45;&gt;Node5 -->
<g id="edge5" class="edge"><title>Node6&#45;&gt;Node5</title>
<path fill="none" stroke="#404040" d="M172.5,-990.236C172.5,-978.313 172.5,-966.434 172.5,-955.009"/>
<polygon fill="none" stroke="#404040" points="172.5,-954.81 168.5,-948.81 172.5,-942.81 176.5,-948.81 172.5,-954.81"/>
<text text-anchor="middle" x="194" y="-964" font-family="Helvetica,sans-Serif" font-size="10.00"> #address</text>
</g>
<!-- Node7&#45;&gt;Node4 -->
<g id="edge6" class="edge"><title>Node7&#45;&gt;Node4</title>
<path fill="none" stroke="midnightblue" d="M85.1158,-449.818C101.121,-491.063 125.635,-554.233 144.63,-603.181"/>
<polygon fill="none" stroke="midnightblue" points="88.3184,-448.396 81.4377,-440.339 81.7925,-450.928 88.3184,-448.396"/>
</g>
<!-- Node8&#45;&gt;Node4 -->
<g id="edge8" class="edge"><title>Node8&#45;&gt;Node4</title>
<path fill="none" stroke="#404040" d="M210.665,-544.97C208.246,-558.558 205.532,-572.089 202.5,-585 201.999,-587.132 201.47,-589.285 200.916,-591.452"/>
<polygon fill="none" stroke="#404040" points="200.891,-591.542 203.177,-598.381 197.743,-603.122 195.457,-596.282 200.891,-591.542"/>
<text text-anchor="middle" x="230.5" y="-571.5" font-family="Helvetica,sans-Serif" font-size="10.00"> &#45;elements</text>
</g>
<!-- Node9 -->
<g id="node9" class="node"><title>Node9</title>
<g id="a_node9"><a xlink:href="../../d2/de9/classIVU.html" target="_top" xlink:title="An abstract interface for VU meters.">
<polygon fill="white" stroke="black" points="283.5,-625.5 283.5,-726.5 375.5,-726.5 375.5,-625.5 283.5,-625.5"/>
<text text-anchor="middle" x="329.5" y="-714.5" font-family="Helvetica,sans-Serif" font-size="10.00">IVU</text>
<polyline fill="none" stroke="black" points="283.5,-707.5 375.5,-707.5 "/>
<text text-anchor="start" x="291.5" y="-695.5" font-family="Helvetica,sans-Serif" font-size="10.00"># max</text>
<polyline fill="none" stroke="black" points="283.5,-688.5 375.5,-688.5 "/>
<text text-anchor="start" x="291.5" y="-676.5" font-family="Helvetica,sans-Serif" font-size="10.00">+ IVU()</text>
<text text-anchor="start" x="291.5" y="-665.5" font-family="Helvetica,sans-Serif" font-size="10.00">+ getValue()</text>
<text text-anchor="start" x="291.5" y="-654.5" font-family="Helvetica,sans-Serif" font-size="10.00">+ getOverload()</text>
<text text-anchor="start" x="291.5" y="-643.5" font-family="Helvetica,sans-Serif" font-size="10.00">+ getFloatValue()</text>
<text text-anchor="start" x="291.5" y="-632.5" font-family="Helvetica,sans-Serif" font-size="10.00">+ getMax()</text>
</a>
</g>
</g>
<!-- Node9&#45;&gt;Node3 -->
<g id="edge10" class="edge"><title>Node9&#45;&gt;Node3</title>
<path fill="none" stroke="midnightblue" d="M359.302,-616.272C372.489,-590.287 388.512,-558.712 404.072,-528.05"/>
<polygon fill="none" stroke="midnightblue" points="356.166,-614.718 354.762,-625.219 362.408,-617.886 356.166,-614.718"/>
</g>
<!-- Node10 -->
<g id="node10" class="node"><title>Node10</title>
<g id="a_node10"><a xlink:href="../../d7/d6a/structArray.html" target="_top" xlink:title=" ">
<polygon fill="white" stroke="black" points="393.5,-603.5 393.5,-748.5 537.5,-748.5 537.5,-603.5 393.5,-603.5"/>
<text text-anchor="middle" x="465.5" y="-736.5" font-family="Helvetica,sans-Serif" font-size="10.00">Array&lt; uint8_t, NumValues &gt;</text>
<polyline fill="none" stroke="black" points="393.5,-729.5 537.5,-729.5 "/>
<text text-anchor="start" x="401.5" y="-717.5" font-family="Helvetica,sans-Serif" font-size="10.00">+ data</text>
<text text-anchor="start" x="401.5" y="-706.5" font-family="Helvetica,sans-Serif" font-size="10.00">+ length</text>
<polyline fill="none" stroke="black" points="393.5,-699.5 537.5,-699.5 "/>
<text text-anchor="start" x="401.5" y="-687.5" font-family="Helvetica,sans-Serif" font-size="10.00">+ operator[]()</text>
<text text-anchor="start" x="401.5" y="-676.5" font-family="Helvetica,sans-Serif" font-size="10.00">+ operator[]()</text>
<text text-anchor="start" x="401.5" y="-665.5" font-family="Helvetica,sans-Serif" font-size="10.00">+ begin()</text>
<text text-anchor="start" x="401.5" y="-654.5" font-family="Helvetica,sans-Serif" font-size="10.00">+ begin()</text>
<text text-anchor="start" x="401.5" y="-643.5" font-family="Helvetica,sans-Serif" font-size="10.00">+ end()</text>
<text text-anchor="start" x="401.5" y="-632.5" font-family="Helvetica,sans-Serif" font-size="10.00">+ end()</text>
<text text-anchor="start" x="401.5" y="-621.5" font-family="Helvetica,sans-Serif" font-size="10.00">+ operator==()</text>
<text text-anchor="start" x="401.5" y="-610.5" font-family="Helvetica,sans-Serif" font-size="10.00">+ operator!=()</text>
</a>
</g>
</g>
<!-- Node10&#45;&gt;Node3 -->
<g id="edge11" class="edge"><title>Node10&#45;&gt;Node3</title>
<path fill="none" stroke="#404040" d="M465.5,-603.181C465.5,-583.688 465.5,-561.94 465.5,-540.22"/>
<polygon fill="none" stroke="#404040" points="465.5,-540.17 461.5,-534.17 465.5,-528.17 469.5,-534.17 465.5,-540.17"/>
<text text-anchor="middle" x="483" y="-571.5" font-family="Helvetica,sans-Serif" font-size="10.00"> &#45;values</text>
</g>
<!-- Node11 -->
<g id="node11" class="node"><title>Node11</title>
<g id="a_node11"><a xlink:href="../../de/dc6/structMCU_1_1VUEmptyCallback.html" target="_top" xlink:title="Empty callback for VU meters that does nothing.">
<polygon fill="white" stroke="black" points="556,-642 556,-710 683,-710 683,-642 556,-642"/>
<text text-anchor="middle" x="619.5" y="-698" font-family="Helvetica,sans-Serif" font-size="10.00">MCU::VUEmptyCallback</text>
<polyline fill="none" stroke="black" points="556,-691 683,-691 "/>
<text text-anchor="middle" x="619.5" y="-679" font-family="Helvetica,sans-Serif" font-size="10.00"> </text>
<polyline fill="none" stroke="black" points="556,-672 683,-672 "/>
<text text-anchor="start" x="564" y="-660" font-family="Helvetica,sans-Serif" font-size="10.00">+ begin()</text>
<text text-anchor="start" x="564" y="-649" font-family="Helvetica,sans-Serif" font-size="10.00">+ update()</text>
</a>
</g>
</g>
<!-- Node11&#45;&gt;Node3 -->
<g id="edge12" class="edge"><title>Node11&#45;&gt;Node3</title>
<path fill="none" stroke="#404040" d="M600.462,-641.869C585.383,-615.627 563.264,-577.134 541.277,-538.872"/>
<polygon fill="none" stroke="#404040" points="541.065,-538.502 534.607,-535.292 535.086,-528.097 541.543,-531.307 541.065,-538.502"/>
<text text-anchor="middle" x="588.5" y="-571.5" font-family="Helvetica,sans-Serif" font-size="10.00"> +callback</text>
</g>
<!-- Node12 -->
<g id="node12" class="node"><title>Node12</title>
<g id="a_node12"><a xlink:href="../../db/d6e/classBankableMIDIInput.html" target="_top" xlink:title=" ">
<polygon fill="white" stroke="black" points="647,-306 647,-506 818,-506 818,-306 647,-306"/>
<text text-anchor="start" x="655" y="-494" font-family="Helvetica,sans-Serif" font-size="10.00">BankableMIDIInput&lt;</text>
<text text-anchor="middle" x="732.5" y="-483" font-family="Helvetica,sans-Serif" font-size="10.00"> NumBanks &gt;</text>
<polyline fill="none" stroke="black" points="647,-476 818,-476 "/>
<text text-anchor="start" x="655" y="-464" font-family="Helvetica,sans-Serif" font-size="10.00">&#45; bank</text>
<text text-anchor="start" x="655" y="-453" font-family="Helvetica,sans-Serif" font-size="10.00">&#45; type</text>
<polyline fill="none" stroke="black" points="647,-446 818,-446 "/>
<text text-anchor="start" x="655" y="-434" font-family="Helvetica,sans-Serif" font-size="10.00">+ ~BankableMIDIInput()</text>
<text text-anchor="start" x="655" y="-423" font-family="Helvetica,sans-Serif" font-size="10.00">+ getSelection()</text>
<text text-anchor="start" x="655" y="-412" font-family="Helvetica,sans-Serif" font-size="10.00">+ getBankIndex()</text>
<text text-anchor="start" x="655" y="-401" font-family="Helvetica,sans-Serif" font-size="10.00"># BankableMIDIInput()</text>
<text text-anchor="start" x="655" y="-390" font-family="Helvetica,sans-Serif" font-size="10.00"># BankableMIDIInput()</text>
<text text-anchor="start" x="655" y="-379" font-family="Helvetica,sans-Serif" font-size="10.00"># matchBankable()</text>
<text text-anchor="start" x="655" y="-368" font-family="Helvetica,sans-Serif" font-size="10.00"># matchBankable()</text>
<text text-anchor="start" x="655" y="-357" font-family="Helvetica,sans-Serif" font-size="10.00"># matchBankableInRange()</text>
<text text-anchor="start" x="655" y="-346" font-family="Helvetica,sans-Serif" font-size="10.00"># getRangeIndex()</text>
<text text-anchor="start" x="655" y="-335" font-family="Helvetica,sans-Serif" font-size="10.00"># matchBankableAddressInRange()</text>
<text text-anchor="start" x="655" y="-324" font-family="Helvetica,sans-Serif" font-size="10.00"># inRange()</text>
<text text-anchor="start" x="655" y="-313" font-family="Helvetica,sans-Serif" font-size="10.00">&#45; onBankSettingChange()</text>
</a>
</g>
</g>
<!-- Node12&#45;&gt;Node2 -->
<g id="edge13" class="edge"><title>Node12&#45;&gt;Node2</title>
<path fill="none" stroke="midnightblue" d="M693.86,-296.384C685.635,-273.264 677.284,-249.788 670.135,-229.692"/>
<polygon fill="none" stroke="midnightblue" points="690.599,-297.661 697.249,-305.91 697.195,-295.315 690.599,-297.661"/>
</g>
<!-- Node13 -->
<g id="node13" class="node"><title>Node13</title>
<g id="a_node13"><a xlink:href="../../d4/d23/classDoublyLinkable.html" target="_top" xlink:title=" ">
<polygon fill="white" stroke="black" points="701,-636.5 701,-715.5 834,-715.5 834,-636.5 701,-636.5"/>
<text text-anchor="start" x="709" y="-703.5" font-family="Helvetica,sans-Serif" font-size="10.00">DoublyLinkable&lt; Bankable</text>
<text text-anchor="middle" x="767.5" y="-692.5" font-family="Helvetica,sans-Serif" font-size="10.00">MIDIInput&lt; N &gt; &gt;</text>
<polyline fill="none" stroke="black" points="701,-685.5 834,-685.5 "/>
<text text-anchor="start" x="709" y="-673.5" font-family="Helvetica,sans-Serif" font-size="10.00"># next</text>
<text text-anchor="start" x="709" y="-662.5" font-family="Helvetica,sans-Serif" font-size="10.00"># previous</text>
<polyline fill="none" stroke="black" points="701,-655.5 834,-655.5 "/>
<text text-anchor="start" x="709" y="-643.5" font-family="Helvetica,sans-Serif" font-size="10.00"># ~DoublyLinkable()</text>
</a>
</g>
</g>
<!-- Node13&#45;&gt;Node12 -->
<g id="edge14" class="edge"><title>Node13&#45;&gt;Node12</title>
<path fill="none" stroke="midnightblue" d="M761.144,-626.328C756.768,-592.82 750.8,-547.123 745.444,-506.113"/>
<polygon fill="none" stroke="midnightblue" points="757.682,-626.854 762.448,-636.317 764.624,-625.948 757.682,-626.854"/>
</g>
</g>
</svg>
