<?xml version="1.0" encoding="UTF-8" standalone="no"?>
<!DOCTYPE svg PUBLIC "-//W3C//DTD SVG 1.1//EN"
 "http://www.w3.org/Graphics/SVG/1.1/DTD/svg11.dtd">
<!-- Generated by graphviz version 2.38.0 (20140413.2041)
 -->
<!-- Title: MCU::Bankable::VU&lt; N &gt; Pages: 1 -->
<svg width="643pt" height="845pt"
 viewBox="0.00 0.00 643.00 845.00" xmlns="http://www.w3.org/2000/svg" xmlns:xlink="http://www.w3.org/1999/xlink">
<g id="graph0" class="graph" transform="scale(1 1) rotate(0) translate(4 841)">
<title>MCU::Bankable::VU&lt; N &gt;</title>
<polygon fill="white" stroke="none" points="-4,4 -4,-841 639,-841 639,4 -4,4"/>
<!-- Node8 -->
<g id="node1" class="node"><title>Node8</title>
<g id="a_node1"><a xlink:title="A class for MIDI input elements that represent Mackie Control Universal VU meters....">
<polygon fill="#bfbfbf" stroke="black" points="412,-0.5 412,-156.5 544,-156.5 544,-0.5 412,-0.5"/>
<text text-anchor="middle" x="478" y="-144.5" font-family="Helvetica,sans-Serif" font-size="10.00">MCU::Bankable::VU&lt; N &gt;</text>
<polyline fill="none" stroke="black" points="412,-137.5 544,-137.5 "/>
<text text-anchor="start" x="420" y="-125.5" font-family="Helvetica,sans-Serif" font-size="10.00">&#45; values</text>
<polyline fill="none" stroke="black" points="412,-118.5 544,-118.5 "/>
<text text-anchor="start" x="420" y="-106.5" font-family="Helvetica,sans-Serif" font-size="10.00">+ VU()</text>
<text text-anchor="start" x="420" y="-95.5" font-family="Helvetica,sans-Serif" font-size="10.00">+ updateImpl()</text>
<text text-anchor="start" x="420" y="-84.5" font-family="Helvetica,sans-Serif" font-size="10.00">+ reset()</text>
<text text-anchor="start" x="420" y="-73.5" font-family="Helvetica,sans-Serif" font-size="10.00">&#45; decayAll()</text>
<text text-anchor="start" x="420" y="-62.5" font-family="Helvetica,sans-Serif" font-size="10.00">&#45; getRawValue()</text>
<text text-anchor="start" x="420" y="-51.5" font-family="Helvetica,sans-Serif" font-size="10.00">&#45; matchTrack()</text>
<text text-anchor="start" x="420" y="-40.5" font-family="Helvetica,sans-Serif" font-size="10.00">&#45; matchChannel()</text>
<text text-anchor="start" x="420" y="-29.5" font-family="Helvetica,sans-Serif" font-size="10.00">&#45; setValue()</text>
<text text-anchor="start" x="420" y="-18.5" font-family="Helvetica,sans-Serif" font-size="10.00">&#45; setOverload()</text>
<text text-anchor="start" x="420" y="-7.5" font-family="Helvetica,sans-Serif" font-size="10.00">&#45; clearOverload()</text>
</a>
</g>
</g>
<!-- Node9 -->
<g id="node2" class="node"><title>Node9</title>
<g id="a_node2"><a xlink:href="../../d4/d71/classMCU_1_1VU__Base.html" target="_top" xlink:title="A MIDI input element that represents a Mackie Control Universal VU meter. &#160;&#160;This is a base class to b...">
<polygon fill="white" stroke="black" points="317.5,-211 317.5,-422 436.5,-422 436.5,-211 317.5,-211"/>
<text text-anchor="middle" x="377" y="-410" font-family="Helvetica,sans-Serif" font-size="10.00">MCU::VU_Base</text>
<polyline fill="none" stroke="black" points="317.5,-403 436.5,-403 "/>
<text text-anchor="start" x="325.5" y="-391" font-family="Helvetica,sans-Serif" font-size="10.00">&#45; baseTrack</text>
<text text-anchor="start" x="325.5" y="-380" font-family="Helvetica,sans-Serif" font-size="10.00">&#45; decayTime</text>
<text text-anchor="start" x="325.5" y="-369" font-family="Helvetica,sans-Serif" font-size="10.00">&#45; prevDecayTime</text>
<polyline fill="none" stroke="black" points="317.5,-362 436.5,-362 "/>
<text text-anchor="start" x="325.5" y="-350" font-family="Helvetica,sans-Serif" font-size="10.00">+ VU_Base()</text>
<text text-anchor="start" x="325.5" y="-339" font-family="Helvetica,sans-Serif" font-size="10.00">+ VU_Base()</text>
<text text-anchor="start" x="325.5" y="-328" font-family="Helvetica,sans-Serif" font-size="10.00">+ getValue()</text>
<text text-anchor="start" x="325.5" y="-317" font-family="Helvetica,sans-Serif" font-size="10.00">+ getOverload()</text>
<text text-anchor="start" x="325.5" y="-306" font-family="Helvetica,sans-Serif" font-size="10.00"># getBaseTrack()</text>
<text text-anchor="start" x="325.5" y="-295" font-family="Helvetica,sans-Serif" font-size="10.00"># setValueHelper()</text>
<text text-anchor="start" x="325.5" y="-284" font-family="Helvetica,sans-Serif" font-size="10.00"># setOverloadHelper()</text>
<text text-anchor="start" x="325.5" y="-273" font-family="Helvetica,sans-Serif" font-size="10.00"># clearOverloadHelper()</text>
<text text-anchor="start" x="325.5" y="-262" font-family="Helvetica,sans-Serif" font-size="10.00"># getValueHelper()</text>
<text text-anchor="start" x="325.5" y="-251" font-family="Helvetica,sans-Serif" font-size="10.00"># getOverloadHelper()</text>
<text text-anchor="start" x="325.5" y="-240" font-family="Helvetica,sans-Serif" font-size="10.00">&#45; update()</text>
<text text-anchor="start" x="325.5" y="-229" font-family="Helvetica,sans-Serif" font-size="10.00">&#45; decayAll()</text>
<text text-anchor="start" x="325.5" y="-218" font-family="Helvetica,sans-Serif" font-size="10.00">&#45; getRawValue()</text>
</a>
</g>
</g>
<!-- Node9&#45;&gt;Node8 -->
<g id="edge1" class="edge"><title>Node9&#45;&gt;Node8</title>
<path fill="none" stroke="midnightblue" d="M425.78,-201.518C432.282,-186.327 438.821,-171.046 444.967,-156.686"/>
<polygon fill="none" stroke="midnightblue" points="422.458,-200.386 421.741,-210.956 428.893,-203.14 422.458,-200.386"/>
</g>
<!-- Node10 -->
<g id="node3" class="node"><title>Node10</title>
<g id="a_node3"><a xlink:href="../../d1/df7/classMIDIInputElementChannelPressure.html" target="_top" xlink:title=" ">
<polygon fill="white" stroke="black" points="105,-497.5 105,-631.5 291,-631.5 291,-497.5 105,-497.5"/>
<text text-anchor="middle" x="198" y="-619.5" font-family="Helvetica,sans-Serif" font-size="10.00">MIDIInputElementChannelPressure</text>
<polyline fill="none" stroke="black" points="105,-612.5 291,-612.5 "/>
<text text-anchor="middle" x="198" y="-600.5" font-family="Helvetica,sans-Serif" font-size="10.00"> </text>
<polyline fill="none" stroke="black" points="105,-593.5 291,-593.5 "/>
<text text-anchor="start" x="113" y="-581.5" font-family="Helvetica,sans-Serif" font-size="10.00">+ MIDIInputElementChannelPressure()</text>
<text text-anchor="start" x="113" y="-570.5" font-family="Helvetica,sans-Serif" font-size="10.00">+ ~MIDIInputElementChannel</text>
<text text-anchor="start" x="113" y="-559.5" font-family="Helvetica,sans-Serif" font-size="10.00">Pressure()</text>
<text text-anchor="start" x="113" y="-548.5" font-family="Helvetica,sans-Serif" font-size="10.00">+ beginAll()</text>
<text text-anchor="start" x="113" y="-537.5" font-family="Helvetica,sans-Serif" font-size="10.00">+ resetAll()</text>
<text text-anchor="start" x="113" y="-526.5" font-family="Helvetica,sans-Serif" font-size="10.00">+ updateAll()</text>
<text text-anchor="start" x="113" y="-515.5" font-family="Helvetica,sans-Serif" font-size="10.00">+ updateAllWith()</text>
<text text-anchor="start" x="113" y="-504.5" font-family="Helvetica,sans-Serif" font-size="10.00">&#45; moveDown()</text>
</a>
</g>
</g>
<!-- Node10&#45;&gt;Node9 -->
<g id="edge2" class="edge"><title>Node10&#45;&gt;Node9</title>
<path fill="none" stroke="midnightblue" d="M267.733,-489.61C281.712,-473.439 295.829,-456.046 308,-439 311.876,-433.571 315.716,-427.906 319.483,-422.119"/>
<polygon fill="none" stroke="midnightblue" points="264.832,-487.61 260.89,-497.444 270.104,-492.215 264.832,-487.61"/>
</g>
<!-- Node12 -->
<g id="node5" class="node"><title>Node12</title>
<g id="a_node5"><a xlink:href="../../d4/d23/classDoublyLinkable.html" target="_top" xlink:title=" ">
<polygon fill="white" stroke="black" points="162.5,-282.5 162.5,-350.5 299.5,-350.5 299.5,-282.5 162.5,-282.5"/>
<text text-anchor="start" x="170.5" y="-338.5" font-family="Helvetica,sans-Serif" font-size="10.00">DoublyLinkable&lt; MIDIInput</text>
<text text-anchor="middle" x="231" y="-327.5" font-family="Helvetica,sans-Serif" font-size="10.00">ElementChannelPressure &gt;</text>
<polyline fill="none" stroke="black" points="162.5,-320.5 299.5,-320.5 "/>
<text text-anchor="middle" x="231" y="-308.5" font-family="Helvetica,sans-Serif" font-size="10.00"> </text>
<polyline fill="none" stroke="black" points="162.5,-301.5 299.5,-301.5 "/>
<text text-anchor="start" x="170.5" y="-289.5" font-family="Helvetica,sans-Serif" font-size="10.00"># ~DoublyLinkable()</text>
</a>
</g>
</g>
<!-- Node10&#45;&gt;Node12 -->
<g id="edge5" class="edge"><title>Node10&#45;&gt;Node12</title>
<path fill="none" stroke="#404040" d="M206.887,-497.253C212.598,-454.677 219.868,-400.482 224.925,-362.785"/>
<polygon fill="none" stroke="#404040" points="224.954,-362.567 221.788,-356.088 226.55,-350.673 229.717,-357.152 224.954,-362.567"/>
<text text-anchor="middle" x="233.5" y="-471" font-family="Helvetica,sans-Serif" font-size="10.00"> #next</text>
<text text-anchor="middle" x="233.5" y="-460" font-family="Helvetica,sans-Serif" font-size="10.00">#previous</text>
</g>
<!-- Node13 -->
<g id="node6" class="node"><title>Node13</title>
<g id="a_node6"><a xlink:href="../../dd/d16/classDoublyLinkedList.html" target="_top" xlink:title=" ">
<polygon fill="white" stroke="black" points="0,-194.5 0,-438.5 144,-438.5 144,-194.5 0,-194.5"/>
<text text-anchor="start" x="8" y="-426.5" font-family="Helvetica,sans-Serif" font-size="10.00">DoublyLinkedList&lt; MIDIInput</text>
<text text-anchor="middle" x="72" y="-415.5" font-family="Helvetica,sans-Serif" font-size="10.00">ElementChannelPressure &gt;</text>
<polyline fill="none" stroke="black" points="0,-408.5 144,-408.5 "/>
<text text-anchor="middle" x="72" y="-396.5" font-family="Helvetica,sans-Serif" font-size="10.00"> </text>
<polyline fill="none" stroke="black" points="0,-389.5 144,-389.5 "/>
<text text-anchor="start" x="8" y="-377.5" font-family="Helvetica,sans-Serif" font-size="10.00">+ DoublyLinkedList()</text>
<text text-anchor="start" x="8" y="-366.5" font-family="Helvetica,sans-Serif" font-size="10.00">+ append()</text>
<text text-anchor="start" x="8" y="-355.5" font-family="Helvetica,sans-Serif" font-size="10.00">+ append()</text>
<text text-anchor="start" x="8" y="-344.5" font-family="Helvetica,sans-Serif" font-size="10.00">+ remove()</text>
<text text-anchor="start" x="8" y="-333.5" font-family="Helvetica,sans-Serif" font-size="10.00">+ remove()</text>
<text text-anchor="start" x="8" y="-322.5" font-family="Helvetica,sans-Serif" font-size="10.00">+ moveDown()</text>
<text text-anchor="start" x="8" y="-311.5" font-family="Helvetica,sans-Serif" font-size="10.00">+ couldContain()</text>
<text text-anchor="start" x="8" y="-300.5" font-family="Helvetica,sans-Serif" font-size="10.00">+ begin()</text>
<text text-anchor="start" x="8" y="-289.5" font-family="Helvetica,sans-Serif" font-size="10.00">+ begin()</text>
<text text-anchor="start" x="8" y="-278.5" font-family="Helvetica,sans-Serif" font-size="10.00">+ end()</text>
<text text-anchor="start" x="8" y="-267.5" font-family="Helvetica,sans-Serif" font-size="10.00">+ end()</text>
<text text-anchor="start" x="8" y="-256.5" font-family="Helvetica,sans-Serif" font-size="10.00">+ rbegin()</text>
<text text-anchor="start" x="8" y="-245.5" font-family="Helvetica,sans-Serif" font-size="10.00">+ rbegin()</text>
<text text-anchor="start" x="8" y="-234.5" font-family="Helvetica,sans-Serif" font-size="10.00">+ rend()</text>
<text text-anchor="start" x="8" y="-223.5" font-family="Helvetica,sans-Serif" font-size="10.00">+ rend()</text>
<text text-anchor="start" x="8" y="-212.5" font-family="Helvetica,sans-Serif" font-size="10.00">+ getFirst()</text>
<text text-anchor="start" x="8" y="-201.5" font-family="Helvetica,sans-Serif" font-size="10.00">+ getLast()</text>
</a>
</g>
</g>
<!-- Node10&#45;&gt;Node13 -->
<g id="edge7" class="edge"><title>Node10&#45;&gt;Node13</title>
<path fill="none" stroke="#404040" d="M132.961,-497.306C128.59,-491.348 124.53,-485.212 121,-479 115.793,-469.838 111.083,-460.063 106.831,-450.028"/>
<polygon fill="none" stroke="#404040" points="106.713,-449.735 100.759,-445.667 102.224,-438.607 108.178,-442.675 106.713,-449.735"/>
<text text-anchor="middle" x="132" y="-471" font-family="Helvetica,sans-Serif" font-size="10.00"> &#45;last</text>
<text text-anchor="middle" x="132" y="-460" font-family="Helvetica,sans-Serif" font-size="10.00">&#45;first</text>
</g>
<!-- Node11 -->
<g id="node4" class="node"><title>Node11</title>
<g id="a_node4"><a xlink:href="../../d9/db1/classMIDIInputElement.html" target="_top" xlink:title=" ">
<polygon fill="white" stroke="black" points="139.5,-669.5 139.5,-836.5 256.5,-836.5 256.5,-669.5 139.5,-669.5"/>
<text text-anchor="middle" x="198" y="-824.5" font-family="Helvetica,sans-Serif" font-size="10.00">MIDIInputElement</text>
<polyline fill="none" stroke="black" points="139.5,-817.5 256.5,-817.5 "/>
<text text-anchor="start" x="147.5" y="-805.5" font-family="Helvetica,sans-Serif" font-size="10.00">&#45; baseChannel</text>
<polyline fill="none" stroke="black" points="139.5,-798.5 256.5,-798.5 "/>
<text text-anchor="start" x="147.5" y="-786.5" font-family="Helvetica,sans-Serif" font-size="10.00">+ ~MIDIInputElement()</text>
<text text-anchor="start" x="147.5" y="-775.5" font-family="Helvetica,sans-Serif" font-size="10.00">+ begin()</text>
<text text-anchor="start" x="147.5" y="-764.5" font-family="Helvetica,sans-Serif" font-size="10.00">+ display()</text>
<text text-anchor="start" x="147.5" y="-753.5" font-family="Helvetica,sans-Serif" font-size="10.00">+ update()</text>
<text text-anchor="start" x="147.5" y="-742.5" font-family="Helvetica,sans-Serif" font-size="10.00">+ reset()</text>
<text text-anchor="start" x="147.5" y="-731.5" font-family="Helvetica,sans-Serif" font-size="10.00">+ updateWith()</text>
<text text-anchor="start" x="147.5" y="-720.5" font-family="Helvetica,sans-Serif" font-size="10.00">+ getBaseChannel()</text>
<text text-anchor="start" x="147.5" y="-709.5" font-family="Helvetica,sans-Serif" font-size="10.00"># MIDIInputElement()</text>
<text text-anchor="start" x="147.5" y="-698.5" font-family="Helvetica,sans-Serif" font-size="10.00">&#45; updateImpl()</text>
<text text-anchor="start" x="147.5" y="-687.5" font-family="Helvetica,sans-Serif" font-size="10.00">&#45; matchChannel()</text>
<text text-anchor="start" x="147.5" y="-676.5" font-family="Helvetica,sans-Serif" font-size="10.00">&#45; moveDown()</text>
</a>
</g>
</g>
<!-- Node11&#45;&gt;Node10 -->
<g id="edge3" class="edge"><title>Node11&#45;&gt;Node10</title>
<path fill="none" stroke="midnightblue" d="M198,-659.252C198,-649.896 198,-640.534 198,-631.541"/>
<polygon fill="none" stroke="midnightblue" points="194.5,-659.384 198,-669.384 201.5,-659.384 194.5,-659.384"/>
</g>
<!-- Node12&#45;&gt;Node10 -->
<g id="edge4" class="edge"><title>Node12&#45;&gt;Node10</title>
<path fill="none" stroke="midnightblue" d="M225.043,-360.846C221.273,-388.38 216.312,-424.777 212,-457 210.256,-470.031 208.411,-483.962 206.653,-497.309"/>
<polygon fill="none" stroke="midnightblue" points="228.536,-361.136 226.426,-350.754 221.601,-360.186 228.536,-361.136"/>
</g>
<!-- Node13&#45;&gt;Node10 -->
<g id="edge6" class="edge"><title>Node13&#45;&gt;Node10</title>
<path fill="none" stroke="#404040" d="M134.182,-438.903C142.471,-455.085 150.778,-471.304 158.53,-486.44"/>
<polygon fill="none" stroke="#404040" points="158.598,-486.572 164.893,-490.089 164.069,-497.253 157.773,-493.736 158.598,-486.572"/>
<text text-anchor="middle" x="177" y="-465.5" font-family="Helvetica,sans-Serif" font-size="10.00"> &#45;elements</text>
</g>
<!-- Node14 -->
<g id="node7" class="node"><title>Node14</title>
<g id="a_node7"><a xlink:href="../../d2/de9/classIVU.html" target="_top" xlink:title="An abstract interface for VU meters. It declares two methods: getValue and getOverload.">
<polygon fill="white" stroke="black" points="335,-530.5 335,-598.5 419,-598.5 419,-530.5 335,-530.5"/>
<text text-anchor="middle" x="377" y="-586.5" font-family="Helvetica,sans-Serif" font-size="10.00">IVU</text>
<polyline fill="none" stroke="black" points="335,-579.5 419,-579.5 "/>
<text text-anchor="middle" x="377" y="-567.5" font-family="Helvetica,sans-Serif" font-size="10.00"> </text>
<polyline fill="none" stroke="black" points="335,-560.5 419,-560.5 "/>
<text text-anchor="start" x="343" y="-548.5" font-family="Helvetica,sans-Serif" font-size="10.00">+ getValue()</text>
<text text-anchor="start" x="343" y="-537.5" font-family="Helvetica,sans-Serif" font-size="10.00">+ getOverload()</text>
</a>
</g>
</g>
<!-- Node14&#45;&gt;Node9 -->
<g id="edge8" class="edge"><title>Node14&#45;&gt;Node9</title>
<path fill="none" stroke="midnightblue" d="M377,-519.994C377,-492.787 377,-456.501 377,-422.165"/>
<polygon fill="none" stroke="midnightblue" points="373.5,-520.323 377,-530.323 380.5,-520.323 373.5,-520.323"/>
</g>
<!-- Node15 -->
<g id="node8" class="node"><title>Node15</title>
<g id="a_node8"><a xlink:href="../../d1/d91/classBankableMIDIInputAddressable.html" target="_top" xlink:title=" ">
<polygon fill="white" stroke="black" points="455,-233 455,-400 635,-400 635,-233 455,-233"/>
<text text-anchor="middle" x="545" y="-388" font-family="Helvetica,sans-Serif" font-size="10.00">BankableMIDIInputAddressable&lt; N &gt;</text>
<polyline fill="none" stroke="black" points="455,-381 635,-381 "/>
<text text-anchor="start" x="463" y="-369" font-family="Helvetica,sans-Serif" font-size="10.00">&#45; bank</text>
<text text-anchor="start" x="463" y="-358" font-family="Helvetica,sans-Serif" font-size="10.00">&#45; channelsOrAddressesPerBank</text>
<polyline fill="none" stroke="black" points="455,-351 635,-351 "/>
<text text-anchor="start" x="463" y="-339" font-family="Helvetica,sans-Serif" font-size="10.00">+ ~BankableMIDIInputAddressable()</text>
<text text-anchor="start" x="463" y="-328" font-family="Helvetica,sans-Serif" font-size="10.00">+ getAddressesPerBank()</text>
<text text-anchor="start" x="463" y="-317" font-family="Helvetica,sans-Serif" font-size="10.00">+ getChannelsPerBank()</text>
<text text-anchor="start" x="463" y="-306" font-family="Helvetica,sans-Serif" font-size="10.00">+ getIndex()</text>
<text text-anchor="start" x="463" y="-295" font-family="Helvetica,sans-Serif" font-size="10.00">+ getSelection()</text>
<text text-anchor="start" x="463" y="-284" font-family="Helvetica,sans-Serif" font-size="10.00"># BankableMIDIInputAddressable()</text>
<text text-anchor="start" x="463" y="-273" font-family="Helvetica,sans-Serif" font-size="10.00"># BankableMIDIInputAddressable()</text>
<text text-anchor="start" x="463" y="-262" font-family="Helvetica,sans-Serif" font-size="10.00"># matchAddress()</text>
<text text-anchor="start" x="463" y="-251" font-family="Helvetica,sans-Serif" font-size="10.00"># matchChannel()</text>
<text text-anchor="start" x="463" y="-240" font-family="Helvetica,sans-Serif" font-size="10.00">&#45; onBankSettingChange()</text>
</a>
</g>
</g>
<!-- Node15&#45;&gt;Node8 -->
<g id="edge9" class="edge"><title>Node15&#45;&gt;Node8</title>
<path fill="none" stroke="midnightblue" d="M518.823,-223.294C512.583,-201.315 505.987,-178.08 499.959,-156.847"/>
<polygon fill="none" stroke="midnightblue" points="515.469,-224.295 521.567,-232.959 522.202,-222.383 515.469,-224.295"/>
</g>
<!-- Node16 -->
<g id="node9" class="node"><title>Node16</title>
<g id="a_node9"><a xlink:href="../../d4/d23/classDoublyLinkable.html" target="_top" xlink:title=" ">
<polygon fill="white" stroke="black" points="470.5,-525 470.5,-604 619.5,-604 619.5,-525 470.5,-525"/>
<text text-anchor="start" x="478.5" y="-592" font-family="Helvetica,sans-Serif" font-size="10.00">DoublyLinkable&lt; Bankable</text>
<text text-anchor="middle" x="545" y="-581" font-family="Helvetica,sans-Serif" font-size="10.00">MIDIInputAddressable&lt; N &gt; &gt;</text>
<polyline fill="none" stroke="black" points="470.5,-574 619.5,-574 "/>
<text text-anchor="start" x="478.5" y="-562" font-family="Helvetica,sans-Serif" font-size="10.00"># next</text>
<text text-anchor="start" x="478.5" y="-551" font-family="Helvetica,sans-Serif" font-size="10.00"># previous</text>
<polyline fill="none" stroke="black" points="470.5,-544 619.5,-544 "/>
<text text-anchor="start" x="478.5" y="-532" font-family="Helvetica,sans-Serif" font-size="10.00"># ~DoublyLinkable()</text>
</a>
</g>
</g>
<!-- Node16&#45;&gt;Node15 -->
<g id="edge10" class="edge"><title>Node16&#45;&gt;Node15</title>
<path fill="none" stroke="midnightblue" d="M545,-514.586C545,-481.881 545,-438.037 545,-400.007"/>
<polygon fill="none" stroke="midnightblue" points="541.5,-514.792 545,-524.792 548.5,-514.792 541.5,-514.792"/>
</g>
</g>
</svg>
