<?xml version="1.0" encoding="UTF-8" standalone="no"?>
<!DOCTYPE svg PUBLIC "-//W3C//DTD SVG 1.1//EN"
 "http://www.w3.org/Graphics/SVG/1.1/DTD/svg11.dtd">
<!-- Generated by graphviz version 2.38.0 (20140413.2041)
 -->
<!-- Title: MIDICNChannelAddress.cpp Pages: 1 -->
<svg width="617pt" height="532pt"
 viewBox="0.00 0.00 617.00 532.00" xmlns="http://www.w3.org/2000/svg" xmlns:xlink="http://www.w3.org/1999/xlink">
<g id="graph0" class="graph" transform="scale(1 1) rotate(0) translate(4 528)">
<title>MIDICNChannelAddress.cpp</title>
<polygon fill="white" stroke="none" points="-4,4 -4,-528 613,-528 613,4 -4,4"/>
<!-- Node1 -->
<g id="node1" class="node"><title>Node1</title>
<g id="a_node1"><a xlink:title=" ">
<polygon fill="#bfbfbf" stroke="black" points="83,-504.5 83,-523.5 227,-523.5 227,-504.5 83,-504.5"/>
<text text-anchor="middle" x="155" y="-511.5" font-family="Helvetica,sans-Serif" font-size="10.00">MIDICNChannelAddress.cpp</text>
</a>
</g>
</g>
<!-- Node2 -->
<g id="node2" class="node"><title>Node2</title>
<g id="a_node2"><a xlink:href="../../d8/d38/MIDICNChannelAddress_8hpp.html" target="_top" xlink:title=" ">
<polygon fill="white" stroke="black" points="83,-448.5 83,-467.5 227,-467.5 227,-448.5 83,-448.5"/>
<text text-anchor="middle" x="155" y="-455.5" font-family="Helvetica,sans-Serif" font-size="10.00">MIDICNChannelAddress.hpp</text>
</a>
</g>
</g>
<!-- Node1&#45;&gt;Node2 -->
<g id="edge1" class="edge"><title>Node1&#45;&gt;Node2</title>
<path fill="none" stroke="midnightblue" d="M155,-504.083C155,-497.006 155,-486.861 155,-477.986"/>
<polygon fill="midnightblue" stroke="midnightblue" points="158.5,-477.751 155,-467.751 151.5,-477.751 158.5,-477.751"/>
</g>
<!-- Node3 -->
<g id="node3" class="node"><title>Node3</title>
<g id="a_node3"><a xlink:href="../../d0/d4e/Def_8hpp.html" target="_top" xlink:title=" ">
<polygon fill="white" stroke="black" points="120,-392.5 120,-411.5 190,-411.5 190,-392.5 120,-392.5"/>
<text text-anchor="middle" x="155" y="-399.5" font-family="Helvetica,sans-Serif" font-size="10.00">Def/Def.hpp</text>
</a>
</g>
</g>
<!-- Node2&#45;&gt;Node3 -->
<g id="edge2" class="edge"><title>Node2&#45;&gt;Node3</title>
<path fill="none" stroke="midnightblue" d="M155,-448.083C155,-441.006 155,-430.861 155,-421.986"/>
<polygon fill="midnightblue" stroke="midnightblue" points="158.5,-421.751 155,-411.751 151.5,-421.751 158.5,-421.751"/>
</g>
<!-- Node4 -->
<g id="node4" class="node"><title>Node4</title>
<g id="a_node4"><a xlink:href="../../d7/d42/Channel_8hpp.html" target="_top" xlink:title=" ">
<polygon fill="white" stroke="black" points="36.5,-112.5 36.5,-131.5 107.5,-131.5 107.5,-112.5 36.5,-112.5"/>
<text text-anchor="middle" x="72" y="-119.5" font-family="Helvetica,sans-Serif" font-size="10.00">Channel.hpp</text>
</a>
</g>
</g>
<!-- Node3&#45;&gt;Node4 -->
<g id="edge3" class="edge"><title>Node3&#45;&gt;Node4</title>
<path fill="none" stroke="midnightblue" d="M144.671,-392.496C125.2,-375.442 85,-334.914 85,-291 85,-291 85,-291 85,-233 85,-200.576 79.3607,-163.146 75.5105,-141.369"/>
<polygon fill="midnightblue" stroke="midnightblue" points="78.9499,-140.72 73.6995,-131.517 72.0652,-141.985 78.9499,-140.72"/>
</g>
<!-- Node5 -->
<g id="node5" class="node"><title>Node5</title>
<g id="a_node5"><a xlink:title=" ">
<polygon fill="white" stroke="#bfbfbf" points="66.5,-56.5 66.5,-75.5 115.5,-75.5 115.5,-56.5 66.5,-56.5"/>
<text text-anchor="middle" x="91" y="-63.5" font-family="Helvetica,sans-Serif" font-size="10.00">stdint.h</text>
</a>
</g>
</g>
<!-- Node3&#45;&gt;Node5 -->
<g id="edge27" class="edge"><title>Node3&#45;&gt;Node5</title>
<path fill="none" stroke="midnightblue" d="M152.438,-392.249C147.251,-373.738 136,-329.179 136,-291 136,-291 136,-291 136,-177 136,-141.93 116.163,-104.939 102.831,-84.037"/>
<polygon fill="midnightblue" stroke="midnightblue" points="105.7,-82.031 97.2571,-75.6305 99.8658,-85.8991 105.7,-82.031"/>
</g>
<!-- Node6 -->
<g id="node6" class="node"><title>Node6</title>
<g id="a_node6"><a xlink:href="../../dc/dc7/NamespaceSettings_8hpp.html" target="_top" xlink:title=" ">
<polygon fill="white" stroke="black" points="24.5,-0.5 24.5,-19.5 187.5,-19.5 187.5,-0.5 24.5,-0.5"/>
<text text-anchor="middle" x="106" y="-7.5" font-family="Helvetica,sans-Serif" font-size="10.00">Settings/NamespaceSettings.hpp</text>
</a>
</g>
</g>
<!-- Node3&#45;&gt;Node6 -->
<g id="edge25" class="edge"><title>Node3&#45;&gt;Node6</title>
<path fill="none" stroke="midnightblue" d="M119.828,-392.725C74.0966,-379.632 0,-349.406 0,-291 0,-291 0,-291 0,-121 0,-75.8148 46.9502,-42.0516 78.3574,-24.5209"/>
<polygon fill="midnightblue" stroke="midnightblue" points="80.3721,-27.4123 87.5362,-19.6068 77.0682,-21.2411 80.3721,-27.4123"/>
</g>
<!-- Node7 -->
<g id="node7" class="node"><title>Node7</title>
<g id="a_node7"><a xlink:href="../../dc/d50/Frequency_8hpp.html" target="_top" xlink:title=" ">
<polygon fill="white" stroke="black" points="133.5,-56.5 133.5,-75.5 214.5,-75.5 214.5,-56.5 133.5,-56.5"/>
<text text-anchor="middle" x="174" y="-63.5" font-family="Helvetica,sans-Serif" font-size="10.00">Frequency.hpp</text>
</a>
</g>
</g>
<!-- Node3&#45;&gt;Node7 -->
<g id="edge6" class="edge"><title>Node3&#45;&gt;Node7</title>
<path fill="none" stroke="midnightblue" d="M157.562,-392.249C162.749,-373.738 174,-329.179 174,-291 174,-291 174,-291 174,-177 174,-144.948 174,-107.643 174,-85.7489"/>
<polygon fill="midnightblue" stroke="midnightblue" points="177.5,-85.5577 174,-75.5578 170.5,-85.5578 177.5,-85.5577"/>
</g>
<!-- Node8 -->
<g id="node8" class="node"><title>Node8</title>
<g id="a_node8"><a xlink:href="../../de/d76/Array_8hpp.html" target="_top" xlink:title=" ">
<polygon fill="white" stroke="black" points="283.5,-336.5 283.5,-355.5 378.5,-355.5 378.5,-336.5 283.5,-336.5"/>
<text text-anchor="middle" x="331" y="-343.5" font-family="Helvetica,sans-Serif" font-size="10.00">Helpers/Array.hpp</text>
</a>
</g>
</g>
<!-- Node3&#45;&gt;Node8 -->
<g id="edge8" class="edge"><title>Node3&#45;&gt;Node8</title>
<path fill="none" stroke="midnightblue" d="M182.888,-392.444C212.754,-383.28 260.315,-368.688 293.456,-358.519"/>
<polygon fill="midnightblue" stroke="midnightblue" points="294.709,-361.796 303.243,-355.516 292.656,-355.104 294.709,-361.796"/>
</g>
<!-- Node16 -->
<g id="node16" class="node"><title>Node16</title>
<g id="a_node16"><a xlink:title=" ">
<polygon fill="white" stroke="#bfbfbf" points="557,-56.5 557,-75.5 609,-75.5 609,-56.5 557,-56.5"/>
<text text-anchor="middle" x="583" y="-63.5" font-family="Helvetica,sans-Serif" font-size="10.00">stddef.h</text>
</a>
</g>
</g>
<!-- Node3&#45;&gt;Node16 -->
<g id="edge26" class="edge"><title>Node3&#45;&gt;Node16</title>
<path fill="none" stroke="midnightblue" d="M190.311,-399.924C296.394,-395.742 605,-376.251 605,-291 605,-291 605,-291 605,-177 605,-144.328 595.553,-107.24 589.04,-85.5533"/>
<polygon fill="midnightblue" stroke="midnightblue" points="592.291,-84.2221 585.967,-75.7215 585.609,-86.3103 592.291,-84.2221"/>
</g>
<!-- Node4&#45;&gt;Node5 -->
<g id="edge4" class="edge"><title>Node4&#45;&gt;Node5</title>
<path fill="none" stroke="midnightblue" d="M75.1375,-112.083C77.6829,-104.849 81.3562,-94.4087 84.5271,-85.3968"/>
<polygon fill="midnightblue" stroke="midnightblue" points="87.9034,-86.3459 87.9209,-75.7511 81.3002,-84.0225 87.9034,-86.3459"/>
</g>
<!-- Node4&#45;&gt;Node6 -->
<g id="edge5" class="edge"><title>Node4&#45;&gt;Node6</title>
<path fill="none" stroke="midnightblue" d="M66.6018,-112.261C59.437,-99.4671 48.6148,-75.0855 57,-56 62.39,-43.732 72.9581,-33.3414 82.9041,-25.6461"/>
<polygon fill="midnightblue" stroke="midnightblue" points="85.2515,-28.2697 91.3386,-19.598 81.1724,-22.5811 85.2515,-28.2697"/>
</g>
<!-- Node7&#45;&gt;Node6 -->
<g id="edge7" class="edge"><title>Node7&#45;&gt;Node6</title>
<path fill="none" stroke="midnightblue" d="M163.075,-56.324C152.825,-48.1849 137.279,-35.8395 124.999,-26.0874"/>
<polygon fill="midnightblue" stroke="midnightblue" points="127.132,-23.3119 117.124,-19.8339 122.779,-28.7937 127.132,-23.3119"/>
</g>
<!-- Node9 -->
<g id="node9" class="node"><title>Node9</title>
<g id="a_node9"><a xlink:href="../../d1/d93/Error_8hpp.html" target="_top" xlink:title=" ">
<polygon fill="white" stroke="black" points="284.5,-280.5 284.5,-299.5 377.5,-299.5 377.5,-280.5 284.5,-280.5"/>
<text text-anchor="middle" x="331" y="-287.5" font-family="Helvetica,sans-Serif" font-size="10.00">Helpers/Error.hpp</text>
</a>
</g>
</g>
<!-- Node8&#45;&gt;Node9 -->
<g id="edge9" class="edge"><title>Node8&#45;&gt;Node9</title>
<path fill="none" stroke="midnightblue" d="M331,-336.083C331,-329.006 331,-318.861 331,-309.986"/>
<polygon fill="midnightblue" stroke="midnightblue" points="334.5,-309.751 331,-299.751 327.5,-309.751 334.5,-309.751"/>
</g>
<!-- Node8&#45;&gt;Node16 -->
<g id="edge24" class="edge"><title>Node8&#45;&gt;Node16</title>
<path fill="none" stroke="midnightblue" d="M378.758,-343.363C447.718,-338.161 567,-317.272 567,-235 567,-235 567,-235 567,-177 567,-144.626 573.871,-107.445 578.607,-85.6593"/>
<polygon fill="midnightblue" stroke="midnightblue" points="582.05,-86.3028 580.842,-75.7771 575.223,-84.7588 582.05,-86.3028"/>
</g>
<!-- Node10 -->
<g id="node10" class="node"><title>Node10</title>
<g id="a_node10"><a xlink:href="../../df/dee/Debug_8hpp.html" target="_top" xlink:title=" ">
<polygon fill="white" stroke="black" points="299,-224.5 299,-243.5 363,-243.5 363,-224.5 299,-224.5"/>
<text text-anchor="middle" x="331" y="-231.5" font-family="Helvetica,sans-Serif" font-size="10.00">Debug.hpp</text>
</a>
</g>
</g>
<!-- Node9&#45;&gt;Node10 -->
<g id="edge10" class="edge"><title>Node9&#45;&gt;Node10</title>
<path fill="none" stroke="midnightblue" d="M331,-280.083C331,-273.006 331,-262.861 331,-253.986"/>
<polygon fill="midnightblue" stroke="midnightblue" points="334.5,-253.751 331,-243.751 327.5,-253.751 334.5,-253.751"/>
</g>
<!-- Node11 -->
<g id="node11" class="node"><title>Node11</title>
<g id="a_node11"><a xlink:href="../../d2/dd5/SettingsWrapper_8hpp.html" target="_top" xlink:title=" ">
<polygon fill="white" stroke="black" points="257.5,-168.5 257.5,-187.5 404.5,-187.5 404.5,-168.5 257.5,-168.5"/>
<text text-anchor="middle" x="331" y="-175.5" font-family="Helvetica,sans-Serif" font-size="10.00">Settings/SettingsWrapper.hpp</text>
</a>
</g>
</g>
<!-- Node10&#45;&gt;Node11 -->
<g id="edge11" class="edge"><title>Node10&#45;&gt;Node11</title>
<path fill="none" stroke="midnightblue" d="M325.834,-224.083C324.324,-216.927 323.894,-206.635 324.542,-197.691"/>
<polygon fill="midnightblue" stroke="midnightblue" points="328.015,-198.126 325.869,-187.751 321.077,-197.2 328.015,-198.126"/>
</g>
<!-- Node18 -->
<g id="node18" class="node"><title>Node18</title>
<g id="a_node18"><a xlink:href="../../dd/d80/PrintStream_8hpp.html" target="_top" xlink:title=" ">
<polygon fill="white" stroke="black" points="441.5,-168.5 441.5,-187.5 528.5,-187.5 528.5,-168.5 441.5,-168.5"/>
<text text-anchor="middle" x="485" y="-175.5" font-family="Helvetica,sans-Serif" font-size="10.00">PrintStream.hpp</text>
</a>
</g>
</g>
<!-- Node10&#45;&gt;Node18 -->
<g id="edge22" class="edge"><title>Node10&#45;&gt;Node18</title>
<path fill="none" stroke="midnightblue" d="M355.402,-224.444C381.197,-215.399 422.077,-201.064 451.018,-190.916"/>
<polygon fill="midnightblue" stroke="midnightblue" points="452.434,-194.128 460.712,-187.516 450.118,-187.523 452.434,-194.128"/>
</g>
<!-- Node11&#45;&gt;Node6 -->
<g id="edge12" class="edge"><title>Node11&#45;&gt;Node6</title>
<path fill="none" stroke="midnightblue" d="M329.67,-168.385C328.085,-154.865 327.083,-128.509 340,-112 369.031,-74.8966 460.936,-91.5302 430,-56 400.391,-21.9943 282.851,-12.8612 197.859,-10.8283"/>
<polygon fill="midnightblue" stroke="midnightblue" points="197.735,-7.32503 187.663,-10.6144 197.588,-14.3235 197.735,-7.32503"/>
</g>
<!-- Node11&#45;&gt;Node10 -->
<g id="edge21" class="edge"><title>Node11&#45;&gt;Node10</title>
<path fill="none" stroke="midnightblue" d="M336.131,-187.751C337.657,-194.858 338.104,-205.136 337.472,-214.101"/>
<polygon fill="midnightblue" stroke="midnightblue" points="333.993,-213.713 336.166,-224.083 340.934,-214.622 333.993,-213.713"/>
</g>
<!-- Node12 -->
<g id="node12" class="node"><title>Node12</title>
<g id="a_node12"><a xlink:href="../../db/d02/Settings_8hpp.html" target="_top" xlink:title="All user settings and debugging options can be changed here.">
<polygon fill="white" stroke="black" points="221.5,-112.5 221.5,-131.5 292.5,-131.5 292.5,-112.5 221.5,-112.5"/>
<text text-anchor="middle" x="257" y="-119.5" font-family="Helvetica,sans-Serif" font-size="10.00">Settings.hpp</text>
</a>
</g>
</g>
<!-- Node11&#45;&gt;Node12 -->
<g id="edge13" class="edge"><title>Node11&#45;&gt;Node12</title>
<path fill="none" stroke="midnightblue" d="M319.111,-168.324C307.85,-160.107 290.713,-147.602 277.291,-137.807"/>
<polygon fill="midnightblue" stroke="midnightblue" points="279.247,-134.901 269.106,-131.834 275.12,-140.556 279.247,-134.901"/>
</g>
<!-- Node17 -->
<g id="node17" class="node"><title>Node17</title>
<g id="a_node17"><a xlink:href="../../d9/d98/TeensyUSBTypes_8hpp.html" target="_top" xlink:title=" ">
<polygon fill="white" stroke="black" points="349,-112.5 349,-131.5 501,-131.5 501,-112.5 349,-112.5"/>
<text text-anchor="middle" x="425" y="-119.5" font-family="Helvetica,sans-Serif" font-size="10.00">Helpers/TeensyUSBTypes.hpp</text>
</a>
</g>
</g>
<!-- Node11&#45;&gt;Node17 -->
<g id="edge20" class="edge"><title>Node11&#45;&gt;Node17</title>
<path fill="none" stroke="midnightblue" d="M346.103,-168.324C360.903,-159.822 383.694,-146.729 400.982,-136.797"/>
<polygon fill="midnightblue" stroke="midnightblue" points="403.007,-139.671 409.935,-131.655 399.52,-133.601 403.007,-139.671"/>
</g>
<!-- Node12&#45;&gt;Node5 -->
<g id="edge19" class="edge"><title>Node12&#45;&gt;Node5</title>
<path fill="none" stroke="midnightblue" d="M230.697,-112.444C202.154,-103.159 156.477,-88.2996 125.175,-78.117"/>
<polygon fill="midnightblue" stroke="midnightblue" points="126.149,-74.7535 115.557,-74.9883 123.983,-81.4102 126.149,-74.7535"/>
</g>
<!-- Node12&#45;&gt;Node7 -->
<g id="edge14" class="edge"><title>Node12&#45;&gt;Node7</title>
<path fill="none" stroke="midnightblue" d="M243.665,-112.324C230.838,-103.979 211.215,-91.2122 196.06,-81.3524"/>
<polygon fill="midnightblue" stroke="midnightblue" points="197.593,-78.1742 187.302,-75.6545 193.776,-84.0417 197.593,-78.1742"/>
</g>
<!-- Node13 -->
<g id="node13" class="node"><title>Node13</title>
<g id="a_node13"><a xlink:href="../../d7/d7c/ADCConfig_8hpp.html" target="_top" xlink:title="This file contains the platform&#45;specific ADC resolutions. By default, the library automatically selec...">
<polygon fill="white" stroke="black" points="299,-56.5 299,-75.5 421,-75.5 421,-56.5 299,-56.5"/>
<text text-anchor="middle" x="360" y="-63.5" font-family="Helvetica,sans-Serif" font-size="10.00">Helpers/ADCConfig.hpp</text>
</a>
</g>
</g>
<!-- Node12&#45;&gt;Node13 -->
<g id="edge15" class="edge"><title>Node12&#45;&gt;Node13</title>
<path fill="none" stroke="midnightblue" d="M273.549,-112.324C289.992,-103.703 315.435,-90.3643 334.468,-80.3855"/>
<polygon fill="midnightblue" stroke="midnightblue" points="336.261,-83.3977 343.492,-75.6545 333.011,-77.198 336.261,-83.3977"/>
</g>
<!-- Node15 -->
<g id="node15" class="node"><title>Node15</title>
<g id="a_node15"><a xlink:title=" ">
<polygon fill="white" stroke="#bfbfbf" points="233,-56.5 233,-75.5 281,-75.5 281,-56.5 233,-56.5"/>
<text text-anchor="middle" x="257" y="-63.5" font-family="Helvetica,sans-Serif" font-size="10.00">limits.h</text>
</a>
</g>
</g>
<!-- Node12&#45;&gt;Node15 -->
<g id="edge17" class="edge"><title>Node12&#45;&gt;Node15</title>
<path fill="none" stroke="midnightblue" d="M257,-112.083C257,-105.006 257,-94.8611 257,-85.9865"/>
<polygon fill="midnightblue" stroke="midnightblue" points="260.5,-85.751 257,-75.7511 253.5,-85.7511 260.5,-85.751"/>
</g>
<!-- Node12&#45;&gt;Node16 -->
<g id="edge18" class="edge"><title>Node12&#45;&gt;Node16</title>
<path fill="none" stroke="midnightblue" d="M292.508,-115.118C354.908,-104.782 483.58,-83.4683 546.603,-73.029"/>
<polygon fill="midnightblue" stroke="midnightblue" points="547.562,-76.4178 556.856,-71.3306 546.418,-69.5119 547.562,-76.4178"/>
</g>
<!-- Node14 -->
<g id="node14" class="node"><title>Node14</title>
<g id="a_node14"><a xlink:title=" ">
<polygon fill="white" stroke="#bfbfbf" points="415,-0.5 415,-19.5 473,-19.5 473,-0.5 415,-0.5"/>
<text text-anchor="middle" x="444" y="-7.5" font-family="Helvetica,sans-Serif" font-size="10.00">Arduino.h</text>
</a>
</g>
</g>
<!-- Node13&#45;&gt;Node14 -->
<g id="edge16" class="edge"><title>Node13&#45;&gt;Node14</title>
<path fill="none" stroke="midnightblue" d="M373.496,-56.324C386.6,-47.9002 406.712,-34.9709 422.107,-25.0741"/>
<polygon fill="midnightblue" stroke="midnightblue" points="424.018,-28.0063 430.537,-19.6545 420.233,-22.118 424.018,-28.0063"/>
</g>
<!-- Node18&#45;&gt;Node14 -->
<g id="edge23" class="edge"><title>Node18&#45;&gt;Node14</title>
<path fill="none" stroke="midnightblue" d="M492.259,-168.319C501.656,-155.994 516.142,-132.626 510,-112 500.047,-78.5743 475.122,-45.9043 458.911,-27.1464"/>
<polygon fill="midnightblue" stroke="midnightblue" points="461.421,-24.7018 452.161,-19.5541 456.189,-29.353 461.421,-24.7018"/>
</g>
</g>
</svg>
