<?xml version="1.0" encoding="UTF-8" standalone="no"?>
<!DOCTYPE svg PUBLIC "-//W3C//DTD SVG 1.1//EN"
 "http://www.w3.org/Graphics/SVG/1.1/DTD/svg11.dtd">
<!-- Generated by graphviz version 2.38.0 (20140413.2041)
 -->
<!-- Title: SPIShiftRegisterOut.hpp Pages: 1 -->
<svg width="246pt" height="84pt"
 viewBox="0.00 0.00 246.00 84.00" xmlns="http://www.w3.org/2000/svg" xmlns:xlink="http://www.w3.org/1999/xlink">
<g id="graph0" class="graph" transform="scale(1 1) rotate(0) translate(4 80)">
<title>SPIShiftRegisterOut.hpp</title>
<polygon fill="white" stroke="none" points="-4,4 -4,-80 242,-80 242,4 -4,4"/>
<!-- Node17 -->
<g id="node1" class="node"><title>Node17</title>
<g id="a_node1"><a xlink:title=" ">
<polygon fill="#bfbfbf" stroke="black" points="49,-56.5 49,-75.5 174,-75.5 174,-56.5 49,-56.5"/>
<text text-anchor="middle" x="111.5" y="-63.5" font-family="Helvetica,sans-Serif" font-size="10.00">SPIShiftRegisterOut.hpp</text>
</a>
</g>
</g>
<!-- Node18 -->
<g id="node2" class="node"><title>Node18</title>
<g id="a_node2"><a xlink:href="../../db/dbf/Control__Surface_8h.html" target="_top" xlink:title="The main header file that includes all Control&#45;Surface header files.">
<polygon fill="white" stroke="black" points="0,-0.5 0,-19.5 95,-19.5 95,-0.5 0,-0.5"/>
<text text-anchor="middle" x="47.5" y="-7.5" font-family="Helvetica,sans-Serif" font-size="10.00">Control_Surface.h</text>
</a>
</g>
</g>
<!-- Node17&#45;&gt;Node18 -->
<g id="edge1" class="edge"><title>Node17&#45;&gt;Node18</title>
<path fill="none" stroke="midnightblue" d="M93.5085,-49.8197C82.0424,-40.1452 67.5867,-27.9481 57.9698,-19.8339"/>
<polygon fill="midnightblue" stroke="midnightblue" points="91.3173,-52.5502 101.217,-56.324 95.8314,-47.2002 91.3173,-52.5502"/>
</g>
<!-- Node19 -->
<g id="node3" class="node"><title>Node19</title>
<g id="a_node3"><a xlink:href="../../d2/dde/SPIShiftRegisterOut_8cpp.html" target="_top" xlink:title=" ">
<polygon fill="white" stroke="black" points="113,-0.5 113,-19.5 238,-19.5 238,-0.5 113,-0.5"/>
<text text-anchor="middle" x="175.5" y="-7.5" font-family="Helvetica,sans-Serif" font-size="10.00">SPIShiftRegisterOut.cpp</text>
</a>
</g>
</g>
<!-- Node17&#45;&gt;Node19 -->
<g id="edge2" class="edge"><title>Node17&#45;&gt;Node19</title>
<path fill="none" stroke="midnightblue" d="M129.491,-49.8197C140.958,-40.1452 155.413,-27.9481 165.03,-19.8339"/>
<polygon fill="midnightblue" stroke="midnightblue" points="127.169,-47.2002 121.783,-56.324 131.683,-52.5502 127.169,-47.2002"/>
</g>
</g>
</svg>
