<?xml version="1.0" encoding="UTF-8" standalone="no"?>
<!DOCTYPE svg PUBLIC "-//W3C//DTD SVG 1.1//EN"
 "http://www.w3.org/Graphics/SVG/1.1/DTD/svg11.dtd">
<!-- Generated by graphviz version 2.38.0 (20140413.2041)
 -->
<!-- Title: CCButtonMatrix.hpp Pages: 1 -->
<svg width="1213pt" height="509pt"
 viewBox="0.00 0.00 1212.50 509.00" xmlns="http://www.w3.org/2000/svg" xmlns:xlink="http://www.w3.org/1999/xlink">
<g id="graph0" class="graph" transform="scale(1 1) rotate(0) translate(4 505)">
<title>CCButtonMatrix.hpp</title>
<polygon fill="white" stroke="none" points="-4,4 -4,-505 1208.5,-505 1208.5,4 -4,4"/>
<!-- Node0 -->
<g id="node1" class="node"><title>Node0</title>
<g id="a_node1"><a xlink:title=" ">
<polygon fill="#bfbfbf" stroke="black" points="741,-481.5 741,-500.5 847,-500.5 847,-481.5 741,-481.5"/>
<text text-anchor="middle" x="794" y="-488.5" font-family="Helvetica,sans-Serif" font-size="10.00">CCButtonMatrix.hpp</text>
</a>
</g>
</g>
<!-- Node1 -->
<g id="node2" class="node"><title>Node1</title>
<g id="a_node2"><a xlink:href="../../d7/d33/Abstract_2MIDIButtonMatrix_8hpp.html" target="_top" xlink:title=" ">
<polygon fill="white" stroke="black" points="480,-358.5 480,-388.5 598,-388.5 598,-358.5 480,-358.5"/>
<text text-anchor="start" x="488" y="-376.5" font-family="Helvetica,sans-Serif" font-size="10.00">MIDI_Outputs/Abstract</text>
<text text-anchor="middle" x="539" y="-365.5" font-family="Helvetica,sans-Serif" font-size="10.00">/MIDIButtonMatrix.hpp</text>
</a>
</g>
</g>
<!-- Node0&#45;&gt;Node1 -->
<g id="edge1" class="edge"><title>Node0&#45;&gt;Node1</title>
<path fill="none" stroke="midnightblue" d="M774.834,-481.319C733.445,-462.572 634.959,-417.964 579.232,-392.723"/>
<polygon fill="midnightblue" stroke="midnightblue" points="580.562,-389.483 570.009,-388.545 577.674,-395.859 580.562,-389.483"/>
</g>
<!-- Node21 -->
<g id="node22" class="node"><title>Node21</title>
<g id="a_node22"><a xlink:href="../../d4/dd7/DigitalCCSender_8hpp.html" target="_top" xlink:title=" ">
<polygon fill="white" stroke="black" points="804.5,-425.5 804.5,-444.5 979.5,-444.5 979.5,-425.5 804.5,-425.5"/>
<text text-anchor="middle" x="892" y="-432.5" font-family="Helvetica,sans-Serif" font-size="10.00">MIDI_Senders/DigitalCCSender.hpp</text>
</a>
</g>
</g>
<!-- Node0&#45;&gt;Node21 -->
<g id="edge34" class="edge"><title>Node0&#45;&gt;Node21</title>
<path fill="none" stroke="midnightblue" d="M809.745,-481.324C825.319,-472.743 849.377,-459.486 867.459,-449.522"/>
<polygon fill="midnightblue" stroke="midnightblue" points="869.224,-452.546 876.294,-444.655 865.846,-446.415 869.224,-452.546"/>
</g>
<!-- Node2 -->
<g id="node3" class="node"><title>Node2</title>
<g id="a_node3"><a xlink:href="../../d0/d4e/Def_8hpp.html" target="_top" xlink:title=" ">
<polygon fill="white" stroke="black" points="458,-174 458,-193 528,-193 528,-174 458,-174"/>
<text text-anchor="middle" x="493" y="-181" font-family="Helvetica,sans-Serif" font-size="10.00">Def/Def.hpp</text>
</a>
</g>
</g>
<!-- Node1&#45;&gt;Node2 -->
<g id="edge2" class="edge"><title>Node1&#45;&gt;Node2</title>
<path fill="none" stroke="midnightblue" d="M532.092,-358.213C527.521,-348.26 521.709,-334.568 518,-322 505.736,-280.445 498.417,-229.958 495.112,-203.221"/>
<polygon fill="midnightblue" stroke="midnightblue" points="498.555,-202.537 493.905,-193.017 491.604,-203.359 498.555,-202.537"/>
</g>
<!-- Node6 -->
<g id="node7" class="node"><title>Node6</title>
<g id="a_node7"><a xlink:href="../../d0/d40/ButtonMatrix_8h.html" target="_top" xlink:title=" ">
<polygon fill="white" stroke="black" points="327.5,-235.5 327.5,-254.5 452.5,-254.5 452.5,-235.5 327.5,-235.5"/>
<text text-anchor="middle" x="390" y="-242.5" font-family="Helvetica,sans-Serif" font-size="10.00">Hardware/ButtonMatrix.h</text>
</a>
</g>
</g>
<!-- Node1&#45;&gt;Node6 -->
<g id="edge7" class="edge"><title>Node1&#45;&gt;Node6</title>
<path fill="none" stroke="midnightblue" d="M522.485,-358.479C494.349,-334.591 437.334,-286.187 408.132,-261.394"/>
<polygon fill="midnightblue" stroke="midnightblue" points="410.24,-258.592 400.352,-254.789 405.71,-263.929 410.24,-258.592"/>
</g>
<!-- Node17 -->
<g id="node18" class="node"><title>Node17</title>
<g id="a_node18"><a xlink:href="../../d1/d41/MIDIOutputElement_8hpp.html" target="_top" xlink:title=" ">
<polygon fill="white" stroke="black" points="527.5,-291.5 527.5,-321.5 652.5,-321.5 652.5,-291.5 527.5,-291.5"/>
<text text-anchor="start" x="535.5" y="-309.5" font-family="Helvetica,sans-Serif" font-size="10.00">MIDI_Outputs/Abstract</text>
<text text-anchor="middle" x="590" y="-298.5" font-family="Helvetica,sans-Serif" font-size="10.00">/MIDIOutputElement.hpp</text>
</a>
</g>
</g>
<!-- Node1&#45;&gt;Node17 -->
<g id="edge23" class="edge"><title>Node1&#45;&gt;Node17</title>
<path fill="none" stroke="midnightblue" d="M550.066,-358.396C556.683,-349.963 565.232,-339.067 572.722,-329.522"/>
<polygon fill="midnightblue" stroke="midnightblue" points="575.536,-331.604 578.955,-321.577 570.029,-327.283 575.536,-331.604"/>
</g>
<!-- Node3 -->
<g id="node4" class="node"><title>Node3</title>
<g id="a_node4"><a xlink:href="../../de/d76/Array_8hpp.html" target="_top" xlink:title=" ">
<polygon fill="white" stroke="black" points="432.5,-112.5 432.5,-131.5 527.5,-131.5 527.5,-112.5 432.5,-112.5"/>
<text text-anchor="middle" x="480" y="-119.5" font-family="Helvetica,sans-Serif" font-size="10.00">Helpers/Array.hpp</text>
</a>
</g>
</g>
<!-- Node2&#45;&gt;Node3 -->
<g id="edge3" class="edge"><title>Node2&#45;&gt;Node3</title>
<path fill="none" stroke="midnightblue" d="M491.137,-173.975C489.284,-165.492 486.381,-152.204 484.003,-141.322"/>
<polygon fill="midnightblue" stroke="midnightblue" points="487.413,-140.532 481.859,-131.509 480.574,-142.026 487.413,-140.532"/>
</g>
<!-- Node4 -->
<g id="node5" class="node"><title>Node4</title>
<g id="a_node5"><a xlink:title=" ">
<polygon fill="white" stroke="#bfbfbf" points="530,-56.5 530,-75.5 582,-75.5 582,-56.5 530,-56.5"/>
<text text-anchor="middle" x="556" y="-63.5" font-family="Helvetica,sans-Serif" font-size="10.00">stddef.h</text>
</a>
</g>
</g>
<!-- Node2&#45;&gt;Node4 -->
<g id="edge5" class="edge"><title>Node2&#45;&gt;Node4</title>
<path fill="none" stroke="midnightblue" d="M472.481,-173.802C445.937,-161.286 405.105,-136.947 423,-112 444.829,-81.5699 488.358,-71.4568 519.68,-68.2346"/>
<polygon fill="midnightblue" stroke="midnightblue" points="520.113,-71.7107 529.785,-67.3867 519.527,-64.7352 520.113,-71.7107"/>
</g>
<!-- Node5 -->
<g id="node6" class="node"><title>Node5</title>
<g id="a_node6"><a xlink:title=" ">
<polygon fill="white" stroke="#bfbfbf" points="666.5,-56.5 666.5,-75.5 715.5,-75.5 715.5,-56.5 666.5,-56.5"/>
<text text-anchor="middle" x="691" y="-63.5" font-family="Helvetica,sans-Serif" font-size="10.00">stdint.h</text>
</a>
</g>
</g>
<!-- Node2&#45;&gt;Node5 -->
<g id="edge6" class="edge"><title>Node2&#45;&gt;Node5</title>
<path fill="none" stroke="midnightblue" d="M507.882,-173.819C542.008,-153.912 626.126,-104.843 667.395,-80.7695"/>
<polygon fill="midnightblue" stroke="midnightblue" points="669.341,-83.6864 676.215,-75.6245 665.814,-77.64 669.341,-83.6864"/>
</g>
<!-- Node3&#45;&gt;Node4 -->
<g id="edge4" class="edge"><title>Node3&#45;&gt;Node4</title>
<path fill="none" stroke="midnightblue" d="M492.211,-112.324C503.776,-104.107 521.375,-91.6017 535.161,-81.8069"/>
<polygon fill="midnightblue" stroke="midnightblue" points="537.443,-84.4791 543.567,-75.8339 533.388,-78.7729 537.443,-84.4791"/>
</g>
<!-- Node6&#45;&gt;Node2 -->
<g id="edge17" class="edge"><title>Node6&#45;&gt;Node2</title>
<path fill="none" stroke="midnightblue" d="M404.757,-235.475C421.661,-225.711 449.583,-209.581 469.49,-198.081"/>
<polygon fill="midnightblue" stroke="midnightblue" points="471.362,-201.042 478.27,-193.009 467.86,-194.981 471.362,-201.042"/>
</g>
<!-- Node6&#45;&gt;Node6 -->
<g id="edge19" class="edge"><title>Node6&#45;&gt;Node6</title>
<path fill="none" stroke="midnightblue" d="M419.724,-254.533C444.554,-258.607 470.5,-255.43 470.5,-245 470.5,-235.996 451.164,-232.397 429.901,-234.202"/>
<polygon fill="midnightblue" stroke="midnightblue" points="429.216,-230.76 419.724,-235.467 430.079,-237.707 429.216,-230.76"/>
</g>
<!-- Node7 -->
<g id="node8" class="node"><title>Node7</title>
<g id="a_node8"><a xlink:href="../../d4/d6b/SettingsWrapper_8h.html" target="_top" xlink:title=" ">
<polygon fill="white" stroke="black" points="622.5,-174 622.5,-193 759.5,-193 759.5,-174 622.5,-174"/>
<text text-anchor="middle" x="691" y="-181" font-family="Helvetica,sans-Serif" font-size="10.00">Settings/SettingsWrapper.h</text>
</a>
</g>
</g>
<!-- Node6&#45;&gt;Node7 -->
<g id="edge8" class="edge"><title>Node6&#45;&gt;Node7</title>
<path fill="none" stroke="midnightblue" d="M433.126,-235.475C487.105,-224.805 579.536,-206.534 637.837,-195.009"/>
<polygon fill="midnightblue" stroke="midnightblue" points="638.823,-198.382 647.954,-193.009 637.465,-191.515 638.823,-198.382"/>
</g>
<!-- Node13 -->
<g id="node14" class="node"><title>Node13</title>
<g id="a_node14"><a xlink:title=" ">
<polygon fill="white" stroke="#bfbfbf" points="352,-174 352,-193 440,-193 440,-174 352,-174"/>
<text text-anchor="middle" x="396" y="-181" font-family="Helvetica,sans-Serif" font-size="10.00">ButtonMatrix.ipp</text>
</a>
</g>
</g>
<!-- Node6&#45;&gt;Node13 -->
<g id="edge18" class="edge"><title>Node6&#45;&gt;Node13</title>
<path fill="none" stroke="midnightblue" d="M390.86,-235.475C391.706,-227.08 393.027,-213.981 394.118,-203.163"/>
<polygon fill="midnightblue" stroke="midnightblue" points="397.621,-203.31 395.142,-193.009 390.656,-202.607 397.621,-203.31"/>
</g>
<!-- Node14 -->
<g id="node15" class="node"><title>Node14</title>
<g id="a_node15"><a xlink:title=" ">
<polygon fill="white" stroke="#bfbfbf" points="0,-168.5 0,-198.5 154,-198.5 154,-168.5 0,-168.5"/>
<text text-anchor="start" x="8" y="-186.5" font-family="Helvetica,sans-Serif" font-size="10.00">Hardware/ExtendedInputOutput</text>
<text text-anchor="middle" x="77" y="-175.5" font-family="Helvetica,sans-Serif" font-size="10.00">/ExtendedInputOutput.h</text>
</a>
</g>
</g>
<!-- Node6&#45;&gt;Node14 -->
<g id="edge20" class="edge"><title>Node6&#45;&gt;Node14</title>
<path fill="none" stroke="midnightblue" d="M345.155,-235.475C297.217,-226.362 220.114,-211.705 160.863,-200.442"/>
<polygon fill="midnightblue" stroke="midnightblue" points="161.246,-196.952 150.768,-198.523 159.938,-203.829 161.246,-196.952"/>
</g>
<!-- Node15 -->
<g id="node16" class="node"><title>Node15</title>
<g id="a_node16"><a xlink:title=" ">
<polygon fill="white" stroke="#bfbfbf" points="172.5,-174 172.5,-193 267.5,-193 267.5,-174 172.5,-174"/>
<text text-anchor="middle" x="220" y="-181" font-family="Helvetica,sans-Serif" font-size="10.00">Helpers/Copy.hpp</text>
</a>
</g>
</g>
<!-- Node6&#45;&gt;Node15 -->
<g id="edge21" class="edge"><title>Node6&#45;&gt;Node15</title>
<path fill="none" stroke="midnightblue" d="M365.643,-235.475C336.356,-225.225 287.026,-207.959 253.998,-196.399"/>
<polygon fill="midnightblue" stroke="midnightblue" points="254.907,-193.009 244.312,-193.009 252.594,-199.616 254.907,-193.009"/>
</g>
<!-- Node16 -->
<g id="node17" class="node"><title>Node16</title>
<g id="a_node17"><a xlink:title=" ">
<polygon fill="white" stroke="#bfbfbf" points="285.5,-174 285.5,-193 334.5,-193 334.5,-174 285.5,-174"/>
<text text-anchor="middle" x="310" y="-181" font-family="Helvetica,sans-Serif" font-size="10.00">string.h</text>
</a>
</g>
</g>
<!-- Node6&#45;&gt;Node16 -->
<g id="edge22" class="edge"><title>Node6&#45;&gt;Node16</title>
<path fill="none" stroke="midnightblue" d="M378.538,-235.475C365.825,-226.02 345.087,-210.596 329.747,-199.187"/>
<polygon fill="midnightblue" stroke="midnightblue" points="331.554,-196.169 321.441,-193.009 327.376,-201.785 331.554,-196.169"/>
</g>
<!-- Node8 -->
<g id="node9" class="node"><title>Node8</title>
<g id="a_node9"><a xlink:href="../../dd/dbc/Settings_8h.html" target="_top" xlink:title="All user settings and debugging options can be changed here.">
<polygon fill="white" stroke="black" points="660.5,-112.5 660.5,-131.5 721.5,-131.5 721.5,-112.5 660.5,-112.5"/>
<text text-anchor="middle" x="691" y="-119.5" font-family="Helvetica,sans-Serif" font-size="10.00">Settings.h</text>
</a>
</g>
</g>
<!-- Node7&#45;&gt;Node8 -->
<g id="edge9" class="edge"><title>Node7&#45;&gt;Node8</title>
<path fill="none" stroke="midnightblue" d="M691,-173.975C691,-165.58 691,-152.481 691,-141.663"/>
<polygon fill="midnightblue" stroke="midnightblue" points="694.5,-141.509 691,-131.509 687.5,-141.509 694.5,-141.509"/>
</g>
<!-- Node9 -->
<g id="node10" class="node"><title>Node9</title>
<g id="a_node10"><a xlink:href="../../df/dee/Debug_8hpp.html" target="_top" xlink:title=" ">
<polygon fill="white" stroke="black" points="807.5,-112.5 807.5,-131.5 908.5,-131.5 908.5,-112.5 807.5,-112.5"/>
<text text-anchor="middle" x="858" y="-119.5" font-family="Helvetica,sans-Serif" font-size="10.00">Helpers/Debug.hpp</text>
</a>
</g>
</g>
<!-- Node7&#45;&gt;Node9 -->
<g id="edge12" class="edge"><title>Node7&#45;&gt;Node9</title>
<path fill="none" stroke="midnightblue" d="M710.026,-173.975C736.675,-163.68 785.228,-146.31 819.517,-134.75"/>
<polygon fill="midnightblue" stroke="midnightblue" points="820.844,-137.997 829.22,-131.509 818.626,-131.358 820.844,-137.997"/>
</g>
<!-- Node8&#45;&gt;Node4 -->
<g id="edge10" class="edge"><title>Node8&#45;&gt;Node4</title>
<path fill="none" stroke="midnightblue" d="M669.609,-112.444C647.293,-103.517 612.097,-89.4387 586.792,-79.3168"/>
<polygon fill="midnightblue" stroke="midnightblue" points="587.876,-75.9807 577.291,-75.5164 585.276,-82.4801 587.876,-75.9807"/>
</g>
<!-- Node8&#45;&gt;Node5 -->
<g id="edge11" class="edge"><title>Node8&#45;&gt;Node5</title>
<path fill="none" stroke="midnightblue" d="M691,-112.083C691,-105.006 691,-94.8611 691,-85.9865"/>
<polygon fill="midnightblue" stroke="midnightblue" points="694.5,-85.751 691,-75.7511 687.5,-85.7511 694.5,-85.751"/>
</g>
<!-- Node9&#45;&gt;Node7 -->
<g id="edge13" class="edge"><title>Node9&#45;&gt;Node7</title>
<path fill="none" stroke="midnightblue" d="M839.014,-131.509C812.388,-141.797 763.84,-159.166 729.535,-170.732"/>
<polygon fill="midnightblue" stroke="midnightblue" points="728.203,-167.487 719.828,-173.975 730.421,-174.126 728.203,-167.487"/>
</g>
<!-- Node10 -->
<g id="node11" class="node"><title>Node10</title>
<g id="a_node11"><a xlink:title=" ">
<polygon fill="white" stroke="#bfbfbf" points="915,-56.5 915,-75.5 963,-75.5 963,-56.5 915,-56.5"/>
<text text-anchor="middle" x="939" y="-63.5" font-family="Helvetica,sans-Serif" font-size="10.00">stdlib.h</text>
</a>
</g>
</g>
<!-- Node9&#45;&gt;Node10 -->
<g id="edge14" class="edge"><title>Node9&#45;&gt;Node10</title>
<path fill="none" stroke="midnightblue" d="M871.014,-112.324C883.532,-103.979 902.682,-91.2122 917.471,-81.3524"/>
<polygon fill="midnightblue" stroke="midnightblue" points="919.639,-84.1137 926.018,-75.6545 915.756,-78.2894 919.639,-84.1137"/>
</g>
<!-- Node11 -->
<g id="node12" class="node"><title>Node11</title>
<g id="a_node12"><a xlink:href="../../dc/d48/PrintStream_8h.html" target="_top" xlink:title=" ">
<polygon fill="white" stroke="black" points="819.5,-56.5 819.5,-75.5 896.5,-75.5 896.5,-56.5 819.5,-56.5"/>
<text text-anchor="middle" x="858" y="-63.5" font-family="Helvetica,sans-Serif" font-size="10.00">PrintStream.h</text>
</a>
</g>
</g>
<!-- Node9&#45;&gt;Node11 -->
<g id="edge15" class="edge"><title>Node9&#45;&gt;Node11</title>
<path fill="none" stroke="midnightblue" d="M858,-112.083C858,-105.006 858,-94.8611 858,-85.9865"/>
<polygon fill="midnightblue" stroke="midnightblue" points="861.5,-85.751 858,-75.7511 854.5,-85.7511 861.5,-85.751"/>
</g>
<!-- Node12 -->
<g id="node13" class="node"><title>Node12</title>
<g id="a_node13"><a xlink:title=" ">
<polygon fill="white" stroke="#bfbfbf" points="934,-0.5 934,-19.5 992,-19.5 992,-0.5 934,-0.5"/>
<text text-anchor="middle" x="963" y="-7.5" font-family="Helvetica,sans-Serif" font-size="10.00">Arduino.h</text>
</a>
</g>
</g>
<!-- Node11&#45;&gt;Node12 -->
<g id="edge16" class="edge"><title>Node11&#45;&gt;Node12</title>
<path fill="none" stroke="midnightblue" d="M874.87,-56.324C891.709,-47.6641 917.807,-34.2424 937.238,-24.249"/>
<polygon fill="midnightblue" stroke="midnightblue" points="938.88,-27.3405 946.172,-19.6545 935.678,-21.1155 938.88,-27.3405"/>
</g>
<!-- Node17&#45;&gt;Node2 -->
<g id="edge33" class="edge"><title>Node17&#45;&gt;Node2</title>
<path fill="none" stroke="midnightblue" d="M578.492,-291.145C560.425,-268.608 525.498,-225.038 506.353,-201.156"/>
<polygon fill="midnightblue" stroke="midnightblue" points="508.842,-198.665 499.856,-193.052 503.38,-203.044 508.842,-198.665"/>
</g>
<!-- Node18 -->
<g id="node19" class="node"><title>Node18</title>
<g id="a_node19"><a xlink:href="../../d4/d93/Updatable_8hpp.html" target="_top" xlink:title=" ">
<polygon fill="white" stroke="black" points="611,-235.5 611,-254.5 727,-254.5 727,-235.5 611,-235.5"/>
<text text-anchor="middle" x="669" y="-242.5" font-family="Helvetica,sans-Serif" font-size="10.00">Helpers/Updatable.hpp</text>
</a>
</g>
</g>
<!-- Node17&#45;&gt;Node18 -->
<g id="edge24" class="edge"><title>Node17&#45;&gt;Node18</title>
<path fill="none" stroke="midnightblue" d="M608.722,-291.399C620.912,-282.218 636.792,-270.258 649.193,-260.918"/>
<polygon fill="midnightblue" stroke="midnightblue" points="651.623,-263.47 657.505,-254.658 647.411,-257.878 651.623,-263.47"/>
</g>
<!-- Node18&#45;&gt;Node2 -->
<g id="edge32" class="edge"><title>Node18&#45;&gt;Node2</title>
<path fill="none" stroke="midnightblue" d="M643.783,-235.475C613.332,-225.18 561.951,-207.81 527.757,-196.25"/>
<polygon fill="midnightblue" stroke="midnightblue" points="528.764,-192.896 518.17,-193.009 526.522,-199.527 528.764,-192.896"/>
</g>
<!-- Node18&#45;&gt;Node4 -->
<g id="edge31" class="edge"><title>Node18&#45;&gt;Node4</title>
<path fill="none" stroke="midnightblue" d="M636.208,-235.445C616.907,-228.706 593.672,-217.314 580,-199 554.885,-165.356 553.239,-113.649 554.463,-85.9953"/>
<polygon fill="midnightblue" stroke="midnightblue" points="557.974,-85.9377 555.104,-75.739 550.987,-85.5013 557.974,-85.9377"/>
</g>
<!-- Node18&#45;&gt;Node7 -->
<g id="edge30" class="edge"><title>Node18&#45;&gt;Node7</title>
<path fill="none" stroke="midnightblue" d="M672.152,-235.475C675.321,-226.904 680.304,-213.427 684.351,-202.483"/>
<polygon fill="midnightblue" stroke="midnightblue" points="687.668,-203.602 687.854,-193.009 681.103,-201.175 687.668,-203.602"/>
</g>
<!-- Node19 -->
<g id="node20" class="node"><title>Node19</title>
<g id="a_node20"><a xlink:href="../../d1/d93/Error_8hpp.html" target="_top" xlink:title=" ">
<polygon fill="white" stroke="black" points="777.5,-174 777.5,-193 870.5,-193 870.5,-174 777.5,-174"/>
<text text-anchor="middle" x="824" y="-181" font-family="Helvetica,sans-Serif" font-size="10.00">Helpers/Error.hpp</text>
</a>
</g>
</g>
<!-- Node18&#45;&gt;Node19 -->
<g id="edge25" class="edge"><title>Node18&#45;&gt;Node19</title>
<path fill="none" stroke="midnightblue" d="M691.208,-235.475C717.681,-225.313 762.114,-208.256 792.22,-196.7"/>
<polygon fill="midnightblue" stroke="midnightblue" points="793.752,-199.86 801.833,-193.009 791.243,-193.325 793.752,-199.86"/>
</g>
<!-- Node20 -->
<g id="node21" class="node"><title>Node20</title>
<g id="a_node21"><a xlink:href="../../de/dd1/LinkedList_8hpp.html" target="_top" xlink:title=" ">
<polygon fill="white" stroke="black" points="1029,-174 1029,-193 1145,-193 1145,-174 1029,-174"/>
<text text-anchor="middle" x="1087" y="-181" font-family="Helvetica,sans-Serif" font-size="10.00">Helpers/LinkedList.hpp</text>
</a>
</g>
</g>
<!-- Node18&#45;&gt;Node20 -->
<g id="edge27" class="edge"><title>Node18&#45;&gt;Node20</title>
<path fill="none" stroke="midnightblue" d="M727.236,-236.274C730.539,-235.842 733.812,-235.415 737,-235 862.296,-218.711 894.44,-220.193 1019,-199 1025.72,-197.857 1032.78,-196.514 1039.7,-195.113"/>
<polygon fill="midnightblue" stroke="midnightblue" points="1040.62,-198.498 1049.7,-193.038 1039.19,-191.644 1040.62,-198.498"/>
</g>
<!-- Node19&#45;&gt;Node9 -->
<g id="edge26" class="edge"><title>Node19&#45;&gt;Node9</title>
<path fill="none" stroke="midnightblue" d="M828.871,-173.975C833.87,-165.227 841.789,-151.369 848.109,-140.309"/>
<polygon fill="midnightblue" stroke="midnightblue" points="851.215,-141.928 853.138,-131.509 845.137,-138.455 851.215,-141.928"/>
</g>
<!-- Node20&#45;&gt;Node9 -->
<g id="edge29" class="edge"><title>Node20&#45;&gt;Node9</title>
<path fill="none" stroke="midnightblue" d="M1054.19,-173.975C1013.8,-163.482 945.123,-145.637 900.671,-134.087"/>
<polygon fill="midnightblue" stroke="midnightblue" points="901.308,-130.636 890.749,-131.509 899.548,-137.411 901.308,-130.636"/>
</g>
<!-- Node20&#45;&gt;Node10 -->
<g id="edge28" class="edge"><title>Node20&#45;&gt;Node10</title>
<path fill="none" stroke="midnightblue" d="M1075.88,-173.819C1050.81,-154.253 989.637,-106.517 958.259,-82.0295"/>
<polygon fill="midnightblue" stroke="midnightblue" points="960.29,-79.1751 950.253,-75.782 955.983,-84.6936 960.29,-79.1751"/>
</g>
<!-- Node22 -->
<g id="node23" class="node"><title>Node22</title>
<g id="a_node23"><a xlink:href="../../d5/de0/Control__Surface__Class_8h.html" target="_top" xlink:title=" ">
<polygon fill="white" stroke="black" points="880,-358.5 880,-388.5 1002,-388.5 1002,-358.5 880,-358.5"/>
<text text-anchor="start" x="888" y="-376.5" font-family="Helvetica,sans-Serif" font-size="10.00">Control_Surface/Control</text>
<text text-anchor="middle" x="941" y="-365.5" font-family="Helvetica,sans-Serif" font-size="10.00">_Surface_Class.h</text>
</a>
</g>
</g>
<!-- Node21&#45;&gt;Node22 -->
<g id="edge35" class="edge"><title>Node21&#45;&gt;Node22</title>
<path fill="none" stroke="midnightblue" d="M899.021,-425.475C905.285,-417.869 914.73,-406.399 923.076,-396.265"/>
<polygon fill="midnightblue" stroke="midnightblue" points="925.796,-398.467 929.452,-388.523 920.393,-394.017 925.796,-398.467"/>
</g>
<!-- Node23 -->
<g id="node24" class="node"><title>Node23</title>
<g id="a_node24"><a xlink:href="../../dc/dbb/MIDI__Interface_8h.html" target="_top" xlink:title=" ">
<polygon fill="white" stroke="black" points="762,-291.5 762,-321.5 874,-321.5 874,-291.5 762,-291.5"/>
<text text-anchor="start" x="770" y="-309.5" font-family="Helvetica,sans-Serif" font-size="10.00">MIDI_Interfaces/MIDI</text>
<text text-anchor="middle" x="818" y="-298.5" font-family="Helvetica,sans-Serif" font-size="10.00">_Interface.h</text>
</a>
</g>
</g>
<!-- Node22&#45;&gt;Node23 -->
<g id="edge36" class="edge"><title>Node22&#45;&gt;Node23</title>
<path fill="none" stroke="midnightblue" d="M914.311,-358.396C896.5,-348.984 872.882,-336.503 853.492,-326.256"/>
<polygon fill="midnightblue" stroke="midnightblue" points="855.114,-323.154 844.637,-321.577 851.843,-329.343 855.114,-323.154"/>
</g>
<!-- Node25 -->
<g id="node26" class="node"><title>Node25</title>
<g id="a_node26"><a xlink:href="../../d6/dd2/DisplayElement_8hpp.html" target="_top" xlink:title=" ">
<polygon fill="white" stroke="black" points="969,-297 969,-316 1109,-316 1109,-297 969,-297"/>
<text text-anchor="middle" x="1039" y="-304" font-family="Helvetica,sans-Serif" font-size="10.00">Display/DisplayElement.hpp</text>
</a>
</g>
</g>
<!-- Node22&#45;&gt;Node25 -->
<g id="edge43" class="edge"><title>Node22&#45;&gt;Node25</title>
<path fill="none" stroke="midnightblue" d="M962.265,-358.396C978.699,-347.496 1001.34,-332.479 1017.77,-321.584"/>
<polygon fill="midnightblue" stroke="midnightblue" points="1019.78,-324.451 1026.17,-316.007 1015.91,-318.618 1019.78,-324.451"/>
</g>
<!-- Node26 -->
<g id="node27" class="node"><title>Node26</title>
<g id="a_node27"><a xlink:href="../../dc/d77/DisplayInterface_8hpp.html" target="_top" xlink:title=" ">
<polygon fill="white" stroke="black" points="915.5,-235.5 915.5,-254.5 1058.5,-254.5 1058.5,-235.5 915.5,-235.5"/>
<text text-anchor="middle" x="987" y="-242.5" font-family="Helvetica,sans-Serif" font-size="10.00">Display/DisplayInterface.hpp</text>
</a>
</g>
</g>
<!-- Node22&#45;&gt;Node26 -->
<g id="edge49" class="edge"><title>Node22&#45;&gt;Node26</title>
<path fill="none" stroke="midnightblue" d="M942.944,-358.25C945.519,-341.653 950.839,-313.624 960,-291 963.932,-281.288 969.78,-271.221 975.029,-263.078"/>
<polygon fill="midnightblue" stroke="midnightblue" points="978.095,-264.791 980.765,-254.538 972.284,-260.888 978.095,-264.791"/>
</g>
<!-- Node28 -->
<g id="node29" class="node"><title>Node28</title>
<g id="a_node29"><a xlink:href="../../d7/d74/MillisTimer_8hpp.html" target="_top" xlink:title=" ">
<polygon fill="white" stroke="black" points="1085.5,-112.5 1085.5,-131.5 1204.5,-131.5 1204.5,-112.5 1085.5,-112.5"/>
<text text-anchor="middle" x="1145" y="-119.5" font-family="Helvetica,sans-Serif" font-size="10.00">Helpers/MillisTimer.hpp</text>
</a>
</g>
</g>
<!-- Node22&#45;&gt;Node28 -->
<g id="edge50" class="edge"><title>Node22&#45;&gt;Node28</title>
<path fill="none" stroke="midnightblue" d="M1002.16,-369.639C1040.2,-364.69 1087.51,-352.288 1118,-322 1167.87,-272.467 1160.93,-237.948 1154,-168 1153.13,-159.17 1151.31,-149.505 1149.53,-141.404"/>
<polygon fill="midnightblue" stroke="midnightblue" points="1152.92,-140.494 1147.23,-131.551 1146.1,-142.085 1152.92,-140.494"/>
</g>
<!-- Node23&#45;&gt;Node2 -->
<g id="edge37" class="edge"><title>Node23&#45;&gt;Node2</title>
<path fill="none" stroke="midnightblue" d="M761.75,-297.799C717.156,-290.417 653.924,-277.069 602,-255 567.699,-240.421 532.228,-215.258 511.412,-199.269"/>
<polygon fill="midnightblue" stroke="midnightblue" points="513.47,-196.435 503.435,-193.036 509.16,-201.951 513.47,-196.435"/>
</g>
<!-- Node24 -->
<g id="node25" class="node"><title>Node24</title>
<g id="a_node25"><a xlink:href="../../d4/d36/MIDI__Parser_8h.html" target="_top" xlink:title=" ">
<polygon fill="white" stroke="black" points="746,-235.5 746,-254.5 890,-254.5 890,-235.5 746,-235.5"/>
<text text-anchor="middle" x="818" y="-242.5" font-family="Helvetica,sans-Serif" font-size="10.00">MIDI_Parsers/MIDI_Parser.h</text>
</a>
</g>
</g>
<!-- Node23&#45;&gt;Node24 -->
<g id="edge38" class="edge"><title>Node23&#45;&gt;Node24</title>
<path fill="none" stroke="midnightblue" d="M818,-291.399C818,-283.466 818,-273.458 818,-264.858"/>
<polygon fill="midnightblue" stroke="midnightblue" points="821.5,-264.658 818,-254.658 814.5,-264.658 821.5,-264.658"/>
</g>
<!-- Node24&#45;&gt;Node4 -->
<g id="edge39" class="edge"><title>Node24&#45;&gt;Node4</title>
<path fill="none" stroke="midnightblue" d="M747.558,-235.474C696.659,-228.054 633.416,-215.837 613,-199 594.66,-183.875 572.057,-118.186 561.688,-85.547"/>
<polygon fill="midnightblue" stroke="midnightblue" points="564.986,-84.3675 558.664,-75.8659 558.304,-86.4546 564.986,-84.3675"/>
</g>
<!-- Node24&#45;&gt;Node5 -->
<g id="edge40" class="edge"><title>Node24&#45;&gt;Node5</title>
<path fill="none" stroke="midnightblue" d="M837.906,-235.41C852.225,-228.04 870.458,-215.916 879,-199 885.21,-186.701 886.508,-179.553 879,-168 857.533,-134.967 832.906,-150.264 798,-132 767.468,-116.025 733.715,-94.907 712.441,-81.1433"/>
<polygon fill="midnightblue" stroke="midnightblue" points="714.156,-78.0834 703.867,-75.5565 710.335,-83.9482 714.156,-78.0834"/>
</g>
<!-- Node24&#45;&gt;Node7 -->
<g id="edge42" class="edge"><title>Node24&#45;&gt;Node7</title>
<path fill="none" stroke="midnightblue" d="M799.804,-235.475C778.491,-225.49 742.969,-208.848 718.337,-197.307"/>
<polygon fill="midnightblue" stroke="midnightblue" points="719.703,-194.082 709.162,-193.009 716.733,-200.421 719.703,-194.082"/>
</g>
<!-- Node24&#45;&gt;Node10 -->
<g id="edge41" class="edge"><title>Node24&#45;&gt;Node10</title>
<path fill="none" stroke="midnightblue" d="M854.266,-235.48C874.529,-228.859 898.539,-217.577 913,-199 938.861,-165.778 941.194,-113.899 940.311,-86.1062"/>
<polygon fill="midnightblue" stroke="midnightblue" points="943.79,-85.6066 939.794,-75.7942 936.799,-85.9567 943.79,-85.6066"/>
</g>
<!-- Node25&#45;&gt;Node20 -->
<g id="edge48" class="edge"><title>Node25&#45;&gt;Node20</title>
<path fill="none" stroke="midnightblue" d="M1044.6,-296.868C1050.76,-287.05 1060.65,-270.383 1067,-255 1073.97,-238.111 1079.41,-217.984 1082.85,-203.568"/>
<polygon fill="midnightblue" stroke="midnightblue" points="1086.36,-203.929 1085.17,-193.401 1079.53,-202.374 1086.36,-203.929"/>
</g>
<!-- Node25&#45;&gt;Node26 -->
<g id="edge44" class="edge"><title>Node25&#45;&gt;Node26</title>
<path fill="none" stroke="midnightblue" d="M1031.55,-296.975C1023.67,-287.962 1011.06,-273.525 1001.26,-262.312"/>
<polygon fill="midnightblue" stroke="midnightblue" points="1003.65,-259.736 994.437,-254.509 998.382,-264.342 1003.65,-259.736"/>
</g>
<!-- Node26&#45;&gt;Node2 -->
<g id="edge45" class="edge"><title>Node26&#45;&gt;Node2</title>
<path fill="none" stroke="midnightblue" d="M915.996,-235.468C840.766,-226.425 718.509,-211.722 613,-199 588.248,-196.016 560.626,-192.678 538.128,-189.958"/>
<polygon fill="midnightblue" stroke="midnightblue" points="538.528,-186.481 528.18,-188.756 537.687,-193.431 538.528,-186.481"/>
</g>
<!-- Node26&#45;&gt;Node20 -->
<g id="edge46" class="edge"><title>Node26&#45;&gt;Node20</title>
<path fill="none" stroke="midnightblue" d="M1001.33,-235.475C1017.66,-225.755 1044.6,-209.727 1063.91,-198.237"/>
<polygon fill="midnightblue" stroke="midnightblue" points="1065.89,-201.13 1072.7,-193.009 1062.32,-195.115 1065.89,-201.13"/>
</g>
<!-- Node27 -->
<g id="node28" class="node"><title>Node27</title>
<g id="a_node28"><a xlink:title=" ">
<polygon fill="white" stroke="#bfbfbf" points="965.5,-174 965.5,-193 1010.5,-193 1010.5,-174 965.5,-174"/>
<text text-anchor="middle" x="988" y="-181" font-family="Helvetica,sans-Serif" font-size="10.00">Print.h</text>
</a>
</g>
</g>
<!-- Node26&#45;&gt;Node27 -->
<g id="edge47" class="edge"><title>Node26&#45;&gt;Node27</title>
<path fill="none" stroke="midnightblue" d="M987.143,-235.475C987.284,-227.08 987.505,-213.981 987.686,-203.163"/>
<polygon fill="midnightblue" stroke="midnightblue" points="991.188,-203.067 987.857,-193.009 984.189,-202.949 991.188,-203.067"/>
</g>
<!-- Node28&#45;&gt;Node12 -->
<g id="edge51" class="edge"><title>Node28&#45;&gt;Node12</title>
<path fill="none" stroke="midnightblue" d="M1130.72,-112.368C1099.35,-93.4121 1024.22,-48.0006 986.068,-24.9424"/>
<polygon fill="midnightblue" stroke="midnightblue" points="987.584,-21.7687 977.215,-19.5914 983.963,-27.7595 987.584,-21.7687"/>
</g>
</g>
</svg>
