<?xml version="1.0" encoding="UTF-8" standalone="no"?>
<!DOCTYPE svg PUBLIC "-//W3C//DTD SVG 1.1//EN"
 "http://www.w3.org/Graphics/SVG/1.1/DTD/svg11.dtd">
<!-- Generated by graphviz version 2.38.0 (20140413.2041)
 -->
<!-- Title: MCU::TimeDisplay::getBars Pages: 1 -->
<svg width="318pt" height="78pt"
 viewBox="0.00 0.00 318.00 77.50" xmlns="http://www.w3.org/2000/svg" xmlns:xlink="http://www.w3.org/1999/xlink">
<g id="graph0" class="graph" transform="scale(1 1) rotate(0) translate(4 73.5)">
<title>MCU::TimeDisplay::getBars</title>
<polygon fill="white" stroke="none" points="-4,4 -4,-73.5 314,-73.5 314,4 -4,4"/>
<!-- Node1 -->
<g id="node1" class="node"><title>Node1</title>
<g id="a_node1"><a xlink:title=" ">
<polygon fill="#bfbfbf" stroke="black" points="170,-22.5 170,-41.5 310,-41.5 310,-22.5 170,-22.5"/>
<text text-anchor="middle" x="240" y="-29.5" font-family="Helvetica,sans-Serif" font-size="10.00">MCU::TimeDisplay::getBars</text>
</a>
</g>
</g>
<!-- Node2 -->
<g id="node2" class="node"><title>Node2</title>
<g id="a_node2"><a xlink:href="../../d1/dc8/classMCU_1_1TimeDisplayDisplay.html#a995f9d05fe9aa554561c802f36cf2c7c" target="_top" xlink:title="Draw this DisplayElement to the display buffer.">
<polygon fill="white" stroke="black" points="0,-39 0,-69 134,-69 134,-39 0,-39"/>
<text text-anchor="start" x="8" y="-57" font-family="Helvetica,sans-Serif" font-size="10.00">MCU::TimeDisplayDisplay</text>
<text text-anchor="middle" x="67" y="-46" font-family="Helvetica,sans-Serif" font-size="10.00">::draw</text>
</a>
</g>
</g>
<!-- Node1&#45;&gt;Node2 -->
<g id="edge1" class="edge"><title>Node1&#45;&gt;Node2</title>
<path fill="none" stroke="midnightblue" d="M159.926,-42.1732C151.344,-43.2774 142.675,-44.3927 134.267,-45.4744"/>
<polygon fill="midnightblue" stroke="midnightblue" points="160.469,-45.6323 169.941,-40.8848 159.576,-38.6896 160.469,-45.6323"/>
</g>
<!-- Node3 -->
<g id="node3" class="node"><title>Node3</title>
<g id="a_node3"><a xlink:href="../../df/d69/classMCU_1_1TimeDisplay.html#afebbe4f2a583d21e226a7db90718d451" target="_top" xlink:title=" ">
<polygon fill="white" stroke="black" points="4.5,-0.5 4.5,-19.5 129.5,-19.5 129.5,-0.5 4.5,-0.5"/>
<text text-anchor="middle" x="67" y="-7.5" font-family="Helvetica,sans-Serif" font-size="10.00">MCU::TimeDisplay::print</text>
</a>
</g>
</g>
<!-- Node1&#45;&gt;Node3 -->
<g id="edge2" class="edge"><title>Node1&#45;&gt;Node3</title>
<path fill="none" stroke="midnightblue" d="M159.847,-21.8166C149.692,-20.5101 139.417,-19.1881 129.599,-17.925"/>
<polygon fill="midnightblue" stroke="midnightblue" points="159.576,-25.3104 169.941,-23.1152 160.469,-18.3677 159.576,-25.3104"/>
</g>
</g>
</svg>
