<?xml version="1.0" encoding="UTF-8" standalone="no"?>
<!DOCTYPE svg PUBLIC "-//W3C//DTD SVG 1.1//EN"
 "http://www.w3.org/Graphics/SVG/1.1/DTD/svg11.dtd">
<!-- Generated by graphviz version 2.38.0 (20140413.2041)
 -->
<!-- Title: Bankable::PBPotentiometer Pages: 1 -->
<svg width="782pt" height="1252pt"
 viewBox="0.00 0.00 782.46 1252.00" xmlns="http://www.w3.org/2000/svg" xmlns:xlink="http://www.w3.org/1999/xlink">
<g id="graph0" class="graph" transform="scale(1 1) rotate(0) translate(4 1248)">
<title>Bankable::PBPotentiometer</title>
<polygon fill="white" stroke="none" points="-4,4 -4,-1248 778.462,-1248 778.462,4 -4,4"/>
<!-- Node1 -->
<g id="node1" class="node"><title>Node1</title>
<g id="a_node1"><a xlink:title="A class of MIDIOutputElements that read the analog input from a potentiometer or fader,...">
<polygon fill="#bfbfbf" stroke="black" points="398.962,-0.5 398.962,-57.5 535.962,-57.5 535.962,-0.5 398.962,-0.5"/>
<text text-anchor="middle" x="467.462" y="-45.5" font-family="Helvetica,sans-Serif" font-size="10.00">Bankable::PBPotentiometer</text>
<polyline fill="none" stroke="black" points="398.962,-38.5 535.962,-38.5 "/>
<text text-anchor="middle" x="467.462" y="-26.5" font-family="Helvetica,sans-Serif" font-size="10.00"> </text>
<polyline fill="none" stroke="black" points="398.962,-19.5 535.962,-19.5 "/>
<text text-anchor="start" x="406.962" y="-7.5" font-family="Helvetica,sans-Serif" font-size="10.00">+ PBPotentiometer()</text>
</a>
</g>
</g>
<!-- Node2 -->
<g id="node2" class="node"><title>Node2</title>
<g id="a_node2"><a xlink:href="../../db/ddc/classBankable_1_1MIDIFilteredAnalog.html" target="_top" xlink:title=" ">
<polygon fill="white" stroke="black" points="382.462,-95.5 382.462,-229.5 552.462,-229.5 552.462,-95.5 382.462,-95.5"/>
<text text-anchor="start" x="390.462" y="-217.5" font-family="Helvetica,sans-Serif" font-size="10.00">Bankable::MIDIFilteredAnalog</text>
<text text-anchor="start" x="390.462" y="-206.5" font-family="Helvetica,sans-Serif" font-size="10.00">&lt; SingleAddress, PitchBendSender</text>
<text text-anchor="middle" x="467.462" y="-195.5" font-family="Helvetica,sans-Serif" font-size="10.00">&lt; 10 &gt; &gt;</text>
<polyline fill="none" stroke="black" points="382.462,-188.5 552.462,-188.5 "/>
<text text-anchor="middle" x="467.462" y="-176.5" font-family="Helvetica,sans-Serif" font-size="10.00"> </text>
<polyline fill="none" stroke="black" points="382.462,-169.5 552.462,-169.5 "/>
<text text-anchor="start" x="390.462" y="-157.5" font-family="Helvetica,sans-Serif" font-size="10.00">+ begin()</text>
<text text-anchor="start" x="390.462" y="-146.5" font-family="Helvetica,sans-Serif" font-size="10.00">+ update()</text>
<text text-anchor="start" x="390.462" y="-135.5" font-family="Helvetica,sans-Serif" font-size="10.00">+ map()</text>
<text text-anchor="start" x="390.462" y="-124.5" font-family="Helvetica,sans-Serif" font-size="10.00">+ getRawValue()</text>
<text text-anchor="start" x="390.462" y="-113.5" font-family="Helvetica,sans-Serif" font-size="10.00">+ getValue()</text>
<text text-anchor="start" x="390.462" y="-102.5" font-family="Helvetica,sans-Serif" font-size="10.00"># MIDIFilteredAnalog()</text>
</a>
</g>
</g>
<!-- Node2&#45;&gt;Node1 -->
<g id="edge1" class="edge"><title>Node2&#45;&gt;Node1</title>
<path fill="none" stroke="midnightblue" d="M467.462,-85.1172C467.462,-75.3593 467.462,-65.9224 467.462,-57.697"/>
<polygon fill="none" stroke="midnightblue" points="463.962,-85.3647 467.462,-95.3647 470.962,-85.3648 463.962,-85.3647"/>
</g>
<!-- Node3 -->
<g id="node3" class="node"><title>Node3</title>
<g id="a_node3"><a xlink:href="../../d5/de0/classUpdatable.html" target="_top" xlink:title=" ">
<polygon fill="white" stroke="black" points="73.4618,-277.5 73.4618,-488.5 177.462,-488.5 177.462,-277.5 73.4618,-277.5"/>
<text text-anchor="middle" x="125.462" y="-476.5" font-family="Helvetica,sans-Serif" font-size="10.00">MIDIOutputElement</text>
<polyline fill="none" stroke="black" points="73.4618,-469.5 177.462,-469.5 "/>
<text text-anchor="middle" x="125.462" y="-457.5" font-family="Helvetica,sans-Serif" font-size="10.00"> </text>
<polyline fill="none" stroke="black" points="73.4618,-450.5 177.462,-450.5 "/>
<text text-anchor="start" x="81.4618" y="-438.5" font-family="Helvetica,sans-Serif" font-size="10.00">+ ~Updatable()</text>
<text text-anchor="start" x="81.4618" y="-427.5" font-family="Helvetica,sans-Serif" font-size="10.00">+ update()</text>
<text text-anchor="start" x="81.4618" y="-416.5" font-family="Helvetica,sans-Serif" font-size="10.00">+ begin()</text>
<text text-anchor="start" x="81.4618" y="-405.5" font-family="Helvetica,sans-Serif" font-size="10.00">+ enable()</text>
<text text-anchor="start" x="81.4618" y="-394.5" font-family="Helvetica,sans-Serif" font-size="10.00">+ disable()</text>
<text text-anchor="start" x="81.4618" y="-383.5" font-family="Helvetica,sans-Serif" font-size="10.00">+ isEnabled()</text>
<text text-anchor="start" x="81.4618" y="-372.5" font-family="Helvetica,sans-Serif" font-size="10.00">+ enable()</text>
<text text-anchor="start" x="81.4618" y="-361.5" font-family="Helvetica,sans-Serif" font-size="10.00">+ enable()</text>
<text text-anchor="start" x="81.4618" y="-350.5" font-family="Helvetica,sans-Serif" font-size="10.00">+ enable()</text>
<text text-anchor="start" x="81.4618" y="-339.5" font-family="Helvetica,sans-Serif" font-size="10.00">+ disable()</text>
<text text-anchor="start" x="81.4618" y="-328.5" font-family="Helvetica,sans-Serif" font-size="10.00">+ disable()</text>
<text text-anchor="start" x="81.4618" y="-317.5" font-family="Helvetica,sans-Serif" font-size="10.00">+ disable()</text>
<text text-anchor="start" x="81.4618" y="-306.5" font-family="Helvetica,sans-Serif" font-size="10.00">+ beginAll()</text>
<text text-anchor="start" x="81.4618" y="-295.5" font-family="Helvetica,sans-Serif" font-size="10.00">+ updateAll()</text>
<text text-anchor="start" x="81.4618" y="-284.5" font-family="Helvetica,sans-Serif" font-size="10.00"># Updatable()</text>
</a>
</g>
</g>
<!-- Node3&#45;&gt;Node2 -->
<g id="edge2" class="edge"><title>Node3&#45;&gt;Node2</title>
<path fill="none" stroke="midnightblue" d="M186.02,-338.808C213.625,-319.472 246.903,-296.652 277.462,-277 311.234,-255.282 349.094,-232.382 382.077,-212.884"/>
<polygon fill="none" stroke="midnightblue" points="183.816,-336.079 177.644,-344.69 187.839,-341.807 183.816,-336.079"/>
</g>
<!-- Node4 -->
<g id="node4" class="node"><title>Node4</title>
<g id="a_node4"><a xlink:href="../../d4/d23/classDoublyLinkable.html" target="_top" xlink:title=" ">
<polygon fill="white" stroke="black" points="28.9618,-1159 28.9618,-1227 165.962,-1227 165.962,-1159 28.9618,-1159"/>
<text text-anchor="start" x="36.9618" y="-1215" font-family="Helvetica,sans-Serif" font-size="10.00">DoublyLinkable&lt; Updatable</text>
<text text-anchor="middle" x="97.4618" y="-1204" font-family="Helvetica,sans-Serif" font-size="10.00">&lt; NormalUpdatable &gt; &gt;</text>
<polyline fill="none" stroke="black" points="28.9618,-1197 165.962,-1197 "/>
<text text-anchor="middle" x="97.4618" y="-1185" font-family="Helvetica,sans-Serif" font-size="10.00"> </text>
<polyline fill="none" stroke="black" points="28.9618,-1178 165.962,-1178 "/>
<text text-anchor="start" x="36.9618" y="-1166" font-family="Helvetica,sans-Serif" font-size="10.00"># ~DoublyLinkable()</text>
</a>
</g>
</g>
<!-- Node4&#45;&gt;Node3 -->
<g id="edge3" class="edge"><title>Node4&#45;&gt;Node3</title>
<path fill="none" stroke="midnightblue" d="M70.6108,-1149.73C59.9109,-1130.47 48.867,-1106.9 43.4618,-1084 -12.4958,-846.96 -16.1723,-772.142 43.4618,-536 49.7755,-510.999 61.1012,-485.641 73.3589,-462.989"/>
<polygon fill="none" stroke="midnightblue" points="67.6435,-1151.6 75.6449,-1158.54 73.7206,-1148.12 67.6435,-1151.6"/>
</g>
<!-- Node5 -->
<g id="node5" class="node"><title>Node5</title>
<g id="a_node5"><a xlink:href="../../d5/de0/classUpdatable.html" target="_top" xlink:title=" ">
<polygon fill="white" stroke="black" points="52.9618,-872.5 52.9618,-1083.5 207.962,-1083.5 207.962,-872.5 52.9618,-872.5"/>
<text text-anchor="middle" x="130.462" y="-1071.5" font-family="Helvetica,sans-Serif" font-size="10.00">Updatable&lt; NormalUpdatable &gt;</text>
<polyline fill="none" stroke="black" points="52.9618,-1064.5 207.962,-1064.5 "/>
<text text-anchor="middle" x="130.462" y="-1052.5" font-family="Helvetica,sans-Serif" font-size="10.00"> </text>
<polyline fill="none" stroke="black" points="52.9618,-1045.5 207.962,-1045.5 "/>
<text text-anchor="start" x="60.9618" y="-1033.5" font-family="Helvetica,sans-Serif" font-size="10.00">+ ~Updatable()</text>
<text text-anchor="start" x="60.9618" y="-1022.5" font-family="Helvetica,sans-Serif" font-size="10.00">+ update()</text>
<text text-anchor="start" x="60.9618" y="-1011.5" font-family="Helvetica,sans-Serif" font-size="10.00">+ begin()</text>
<text text-anchor="start" x="60.9618" y="-1000.5" font-family="Helvetica,sans-Serif" font-size="10.00">+ enable()</text>
<text text-anchor="start" x="60.9618" y="-989.5" font-family="Helvetica,sans-Serif" font-size="10.00">+ disable()</text>
<text text-anchor="start" x="60.9618" y="-978.5" font-family="Helvetica,sans-Serif" font-size="10.00">+ isEnabled()</text>
<text text-anchor="start" x="60.9618" y="-967.5" font-family="Helvetica,sans-Serif" font-size="10.00">+ enable()</text>
<text text-anchor="start" x="60.9618" y="-956.5" font-family="Helvetica,sans-Serif" font-size="10.00">+ enable()</text>
<text text-anchor="start" x="60.9618" y="-945.5" font-family="Helvetica,sans-Serif" font-size="10.00">+ enable()</text>
<text text-anchor="start" x="60.9618" y="-934.5" font-family="Helvetica,sans-Serif" font-size="10.00">+ disable()</text>
<text text-anchor="start" x="60.9618" y="-923.5" font-family="Helvetica,sans-Serif" font-size="10.00">+ disable()</text>
<text text-anchor="start" x="60.9618" y="-912.5" font-family="Helvetica,sans-Serif" font-size="10.00">+ disable()</text>
<text text-anchor="start" x="60.9618" y="-901.5" font-family="Helvetica,sans-Serif" font-size="10.00">+ beginAll()</text>
<text text-anchor="start" x="60.9618" y="-890.5" font-family="Helvetica,sans-Serif" font-size="10.00">+ updateAll()</text>
<text text-anchor="start" x="60.9618" y="-879.5" font-family="Helvetica,sans-Serif" font-size="10.00"># Updatable()</text>
</a>
</g>
</g>
<!-- Node4&#45;&gt;Node5 -->
<g id="edge5" class="edge"><title>Node4&#45;&gt;Node5</title>
<path fill="none" stroke="midnightblue" d="M104.171,-1148.7C107.092,-1129.84 110.655,-1106.84 114.203,-1083.94"/>
<polygon fill="none" stroke="midnightblue" points="100.69,-1148.3 102.618,-1158.72 107.608,-1149.37 100.69,-1148.3"/>
</g>
<!-- Node5&#45;&gt;Node4 -->
<g id="edge4" class="edge"><title>Node5&#45;&gt;Node4</title>
<path fill="none" stroke="#404040" d="M114.722,-1083.56C112.637,-1097.17 110.512,-1110.92 108.462,-1124 107.309,-1131.35 106.066,-1139.15 104.846,-1146.75"/>
<polygon fill="none" stroke="#404040" points="104.811,-1146.96 107.803,-1153.52 102.898,-1158.81 99.9057,-1152.25 104.811,-1146.96"/>
<text text-anchor="middle" x="133.962" y="-1116" font-family="Helvetica,sans-Serif" font-size="10.00"> #next</text>
<text text-anchor="middle" x="133.962" y="-1105" font-family="Helvetica,sans-Serif" font-size="10.00">#previous</text>
</g>
<!-- Node6 -->
<g id="node6" class="node"><title>Node6</title>
<g id="a_node6"><a xlink:href="../../dd/d16/classDoublyLinkedList.html" target="_top" xlink:title=" ">
<polygon fill="white" stroke="black" points="52.9618,-536.5 52.9618,-813.5 197.962,-813.5 197.962,-536.5 52.9618,-536.5"/>
<text text-anchor="start" x="60.9618" y="-801.5" font-family="Helvetica,sans-Serif" font-size="10.00">DoublyLinkedList&lt; Updatable</text>
<text text-anchor="middle" x="125.462" y="-790.5" font-family="Helvetica,sans-Serif" font-size="10.00">&lt; NormalUpdatable &gt; &gt;</text>
<polyline fill="none" stroke="black" points="52.9618,-783.5 197.962,-783.5 "/>
<text text-anchor="middle" x="125.462" y="-771.5" font-family="Helvetica,sans-Serif" font-size="10.00"> </text>
<polyline fill="none" stroke="black" points="52.9618,-764.5 197.962,-764.5 "/>
<text text-anchor="start" x="60.9618" y="-752.5" font-family="Helvetica,sans-Serif" font-size="10.00">+ append()</text>
<text text-anchor="start" x="60.9618" y="-741.5" font-family="Helvetica,sans-Serif" font-size="10.00">+ append()</text>
<text text-anchor="start" x="60.9618" y="-730.5" font-family="Helvetica,sans-Serif" font-size="10.00">+ insertBefore()</text>
<text text-anchor="start" x="60.9618" y="-719.5" font-family="Helvetica,sans-Serif" font-size="10.00">+ insertBefore()</text>
<text text-anchor="start" x="60.9618" y="-708.5" font-family="Helvetica,sans-Serif" font-size="10.00">+ insertSorted()</text>
<text text-anchor="start" x="60.9618" y="-697.5" font-family="Helvetica,sans-Serif" font-size="10.00">+ insertSorted()</text>
<text text-anchor="start" x="60.9618" y="-686.5" font-family="Helvetica,sans-Serif" font-size="10.00">+ remove()</text>
<text text-anchor="start" x="60.9618" y="-675.5" font-family="Helvetica,sans-Serif" font-size="10.00">+ remove()</text>
<text text-anchor="start" x="60.9618" y="-664.5" font-family="Helvetica,sans-Serif" font-size="10.00">+ moveDown()</text>
<text text-anchor="start" x="60.9618" y="-653.5" font-family="Helvetica,sans-Serif" font-size="10.00">+ couldContain()</text>
<text text-anchor="start" x="60.9618" y="-642.5" font-family="Helvetica,sans-Serif" font-size="10.00">+ begin()</text>
<text text-anchor="start" x="60.9618" y="-631.5" font-family="Helvetica,sans-Serif" font-size="10.00">+ begin()</text>
<text text-anchor="start" x="60.9618" y="-620.5" font-family="Helvetica,sans-Serif" font-size="10.00">+ end()</text>
<text text-anchor="start" x="60.9618" y="-609.5" font-family="Helvetica,sans-Serif" font-size="10.00">+ end()</text>
<text text-anchor="start" x="60.9618" y="-598.5" font-family="Helvetica,sans-Serif" font-size="10.00">+ rbegin()</text>
<text text-anchor="start" x="60.9618" y="-587.5" font-family="Helvetica,sans-Serif" font-size="10.00">+ rbegin()</text>
<text text-anchor="start" x="60.9618" y="-576.5" font-family="Helvetica,sans-Serif" font-size="10.00">+ rend()</text>
<text text-anchor="start" x="60.9618" y="-565.5" font-family="Helvetica,sans-Serif" font-size="10.00">+ rend()</text>
<text text-anchor="start" x="60.9618" y="-554.5" font-family="Helvetica,sans-Serif" font-size="10.00">+ getFirst()</text>
<text text-anchor="start" x="60.9618" y="-543.5" font-family="Helvetica,sans-Serif" font-size="10.00">+ getLast()</text>
</a>
</g>
</g>
<!-- Node5&#45;&gt;Node6 -->
<g id="edge7" class="edge"><title>Node5&#45;&gt;Node6</title>
<path fill="none" stroke="#404040" d="M104.969,-872.258C103.986,-866.103 103.134,-859.985 102.462,-854 101.434,-844.856 100.95,-835.452 100.897,-825.972"/>
<polygon fill="none" stroke="#404040" points="100.897,-825.934 96.9748,-819.883 101.052,-813.935 104.974,-819.986 100.897,-825.934"/>
<text text-anchor="middle" x="113.462" y="-846" font-family="Helvetica,sans-Serif" font-size="10.00"> &#45;last</text>
<text text-anchor="middle" x="113.462" y="-835" font-family="Helvetica,sans-Serif" font-size="10.00">&#45;first</text>
</g>
<!-- Node6&#45;&gt;Node3 -->
<g id="edge8" class="edge"><title>Node6&#45;&gt;Node3</title>
<path fill="none" stroke="#404040" d="M125.462,-536.219C125.462,-524.396 125.462,-512.51 125.462,-500.874"/>
<polygon fill="none" stroke="#404040" points="125.462,-500.853 121.462,-494.853 125.462,-488.853 129.462,-494.853 125.462,-500.853"/>
<text text-anchor="middle" x="152.462" y="-510" font-family="Helvetica,sans-Serif" font-size="10.00"> &#45;updatables</text>
</g>
<!-- Node6&#45;&gt;Node5 -->
<g id="edge6" class="edge"><title>Node6&#45;&gt;Node5</title>
<path fill="none" stroke="#404040" d="M128.152,-813.806C128.26,-819.955 128.363,-826.041 128.462,-832 128.614,-841.204 128.763,-850.736 128.907,-860.316"/>
<polygon fill="none" stroke="#404040" points="128.909,-860.455 132.998,-866.395 129.088,-872.454 124.999,-866.514 128.909,-860.455"/>
<text text-anchor="middle" x="156.462" y="-840.5" font-family="Helvetica,sans-Serif" font-size="10.00"> &#45;updatables</text>
</g>
<!-- Node7 -->
<g id="node7" class="node"><title>Node7</title>
<g id="a_node7"><a xlink:href="../../da/da7/classFilteredAnalog.html" target="_top" xlink:title=" ">
<polygon fill="white" stroke="black" points="286.962,-299.5 286.962,-466.5 473.962,-466.5 473.962,-299.5 286.962,-299.5"/>
<text text-anchor="start" x="294.962" y="-454.5" font-family="Helvetica,sans-Serif" font-size="10.00">FilteredAnalog&lt; PitchBend</text>
<text text-anchor="start" x="294.962" y="-443.5" font-family="Helvetica,sans-Serif" font-size="10.00">Sender&lt; 10 &gt; ::precision</text>
<text text-anchor="start" x="294.962" y="-432.5" font-family="Helvetica,sans-Serif" font-size="10.00">(), 16 &#45; ADC_BITS, ANALOG</text>
<text text-anchor="middle" x="380.462" y="-421.5" font-family="Helvetica,sans-Serif" font-size="10.00">_FILTER_SHIFT_FACTOR, uint32_t &gt;</text>
<polyline fill="none" stroke="black" points="286.962,-414.5 473.962,-414.5 "/>
<text text-anchor="start" x="294.962" y="-402.5" font-family="Helvetica,sans-Serif" font-size="10.00">&#45; analogPin</text>
<text text-anchor="start" x="294.962" y="-391.5" font-family="Helvetica,sans-Serif" font-size="10.00">&#45; mapFn</text>
<polyline fill="none" stroke="black" points="286.962,-384.5 473.962,-384.5 "/>
<text text-anchor="start" x="294.962" y="-372.5" font-family="Helvetica,sans-Serif" font-size="10.00">+ FilteredAnalog()</text>
<text text-anchor="start" x="294.962" y="-361.5" font-family="Helvetica,sans-Serif" font-size="10.00">+ map()</text>
<text text-anchor="start" x="294.962" y="-350.5" font-family="Helvetica,sans-Serif" font-size="10.00">+ invert()</text>
<text text-anchor="start" x="294.962" y="-339.5" font-family="Helvetica,sans-Serif" font-size="10.00">+ update()</text>
<text text-anchor="start" x="294.962" y="-328.5" font-family="Helvetica,sans-Serif" font-size="10.00">+ getValue()</text>
<text text-anchor="start" x="294.962" y="-317.5" font-family="Helvetica,sans-Serif" font-size="10.00">+ getFloatValue()</text>
<text text-anchor="start" x="294.962" y="-306.5" font-family="Helvetica,sans-Serif" font-size="10.00">+ getRawValue()</text>
</a>
</g>
</g>
<!-- Node7&#45;&gt;Node2 -->
<g id="edge9" class="edge"><title>Node7&#45;&gt;Node2</title>
<path fill="none" stroke="#404040" d="M413.353,-299.395C421,-280.189 429.112,-259.814 436.665,-240.845"/>
<polygon fill="none" stroke="#404040" points="436.723,-240.699 435.227,-233.645 441.162,-229.55 442.659,-236.605 436.723,-240.699"/>
<text text-anchor="middle" x="465.462" y="-251" font-family="Helvetica,sans-Serif" font-size="10.00"> &#45;filteredAnalog</text>
</g>
<!-- Node8 -->
<g id="node8" class="node"><title>Node8</title>
<g id="a_node8"><a xlink:href="../../d7/d40/classEMA.html" target="_top" xlink:title=" ">
<polygon fill="white" stroke="black" points="216.462,-635.5 216.462,-714.5 336.462,-714.5 336.462,-635.5 216.462,-635.5"/>
<text text-anchor="start" x="224.462" y="-702.5" font-family="Helvetica,sans-Serif" font-size="10.00">EMA&lt; FilterShiftFactor,</text>
<text text-anchor="middle" x="276.462" y="-691.5" font-family="Helvetica,sans-Serif" font-size="10.00"> uint32_t &gt;</text>
<polyline fill="none" stroke="black" points="216.462,-684.5 336.462,-684.5 "/>
<text text-anchor="start" x="224.462" y="-672.5" font-family="Helvetica,sans-Serif" font-size="10.00">&#45; filtered</text>
<text text-anchor="start" x="224.462" y="-661.5" font-family="Helvetica,sans-Serif" font-size="10.00">&#45; fixedPointAHalf</text>
<polyline fill="none" stroke="black" points="216.462,-654.5 336.462,-654.5 "/>
<text text-anchor="start" x="224.462" y="-642.5" font-family="Helvetica,sans-Serif" font-size="10.00">+ filter()</text>
</a>
</g>
</g>
<!-- Node8&#45;&gt;Node7 -->
<g id="edge10" class="edge"><title>Node8&#45;&gt;Node7</title>
<path fill="none" stroke="#404040" d="M290.272,-635.49C304.583,-595.586 327.494,-531.7 346.642,-478.306"/>
<polygon fill="none" stroke="#404040" points="346.74,-478.031 345,-471.033 350.791,-466.735 352.531,-473.734 346.74,-478.031"/>
<text text-anchor="middle" x="347.962" y="-510" font-family="Helvetica,sans-Serif" font-size="10.00"> &#45;filter</text>
</g>
<!-- Node9 -->
<g id="node9" class="node"><title>Node9</title>
<g id="a_node9"><a xlink:href="../../d2/dcb/classHysteresis.html" target="_top" xlink:title=" ">
<polygon fill="white" stroke="black" points="354.462,-608 354.462,-742 476.462,-742 476.462,-608 354.462,-608"/>
<text text-anchor="start" x="362.462" y="-730" font-family="Helvetica,sans-Serif" font-size="10.00">Hysteresis&lt; ADC_BITS</text>
<text text-anchor="start" x="362.462" y="-719" font-family="Helvetica,sans-Serif" font-size="10.00">+Upsample &#45; Precision,</text>
<text text-anchor="middle" x="415.462" y="-708" font-family="Helvetica,sans-Serif" font-size="10.00"> analog_t, analog_t &gt;</text>
<polyline fill="none" stroke="black" points="354.462,-701 476.462,-701 "/>
<text text-anchor="start" x="362.462" y="-689" font-family="Helvetica,sans-Serif" font-size="10.00">&#45; prevLevel</text>
<text text-anchor="start" x="362.462" y="-678" font-family="Helvetica,sans-Serif" font-size="10.00">&#45; margin</text>
<text text-anchor="start" x="362.462" y="-667" font-family="Helvetica,sans-Serif" font-size="10.00">&#45; offset</text>
<text text-anchor="start" x="362.462" y="-656" font-family="Helvetica,sans-Serif" font-size="10.00">&#45; max_in</text>
<text text-anchor="start" x="362.462" y="-645" font-family="Helvetica,sans-Serif" font-size="10.00">&#45; max_out</text>
<polyline fill="none" stroke="black" points="354.462,-638 476.462,-638 "/>
<text text-anchor="start" x="362.462" y="-626" font-family="Helvetica,sans-Serif" font-size="10.00">+ update()</text>
<text text-anchor="start" x="362.462" y="-615" font-family="Helvetica,sans-Serif" font-size="10.00">+ getValue()</text>
</a>
</g>
</g>
<!-- Node9&#45;&gt;Node7 -->
<g id="edge11" class="edge"><title>Node9&#45;&gt;Node7</title>
<path fill="none" stroke="#404040" d="M407.476,-607.832C402.866,-569.636 396.991,-520.956 391.898,-478.755"/>
<polygon fill="none" stroke="#404040" points="391.887,-478.665 387.197,-473.187 390.449,-466.751 395.139,-472.228 391.887,-478.665"/>
<text text-anchor="middle" x="422.462" y="-510" font-family="Helvetica,sans-Serif" font-size="10.00"> &#45;hysteresis</text>
</g>
<!-- Node10 -->
<g id="node10" class="node"><title>Node10</title>
<g id="a_node10"><a xlink:href="../../df/de5/classBankable_1_1SingleAddress.html" target="_top" xlink:title=" ">
<polygon fill="white" stroke="black" points="492.462,-343.5 492.462,-422.5 618.462,-422.5 618.462,-343.5 492.462,-343.5"/>
<text text-anchor="middle" x="555.462" y="-410.5" font-family="Helvetica,sans-Serif" font-size="10.00">Bankable::SingleAddress</text>
<polyline fill="none" stroke="black" points="492.462,-403.5 618.462,-403.5 "/>
<text text-anchor="middle" x="555.462" y="-391.5" font-family="Helvetica,sans-Serif" font-size="10.00"> </text>
<polyline fill="none" stroke="black" points="492.462,-384.5 618.462,-384.5 "/>
<text text-anchor="start" x="500.462" y="-372.5" font-family="Helvetica,sans-Serif" font-size="10.00">+ SingleAddress()</text>
<text text-anchor="start" x="500.462" y="-361.5" font-family="Helvetica,sans-Serif" font-size="10.00">+ getBaseAddress()</text>
<text text-anchor="start" x="500.462" y="-350.5" font-family="Helvetica,sans-Serif" font-size="10.00">+ getActiveAddress()</text>
</a>
</g>
</g>
<!-- Node10&#45;&gt;Node2 -->
<g id="edge12" class="edge"><title>Node10&#45;&gt;Node2</title>
<path fill="none" stroke="#404040" d="M540.318,-343.233C529.806,-316.44 515.417,-280.001 502.462,-248 501.531,-245.7 500.583,-243.366 499.624,-241.011"/>
<polygon fill="none" stroke="#404040" points="499.615,-240.99 493.642,-236.949 495.075,-229.882 501.048,-233.922 499.615,-240.99"/>
<text text-anchor="middle" x="527.962" y="-251" font-family="Helvetica,sans-Serif" font-size="10.00"> &#45;address</text>
</g>
<!-- Node11 -->
<g id="node11" class="node"><title>Node11</title>
<g id="a_node11"><a xlink:href="../../d3/d43/classBankableMIDIOutput.html" target="_top" xlink:title="A base class for all MIDIOutputElements that can be banked.">
<polygon fill="white" stroke="black" points="494.462,-635.5 494.462,-714.5 616.462,-714.5 616.462,-635.5 494.462,-635.5"/>
<text text-anchor="middle" x="555.462" y="-702.5" font-family="Helvetica,sans-Serif" font-size="10.00">BankableMIDIOutput</text>
<polyline fill="none" stroke="black" points="494.462,-695.5 616.462,-695.5 "/>
<text text-anchor="start" x="502.462" y="-683.5" font-family="Helvetica,sans-Serif" font-size="10.00">&#45; type</text>
<polyline fill="none" stroke="black" points="494.462,-676.5 616.462,-676.5 "/>
<text text-anchor="start" x="502.462" y="-664.5" font-family="Helvetica,sans-Serif" font-size="10.00">+ getAddressOffset()</text>
<text text-anchor="start" x="502.462" y="-653.5" font-family="Helvetica,sans-Serif" font-size="10.00"># BankableMIDIOutput()</text>
<text text-anchor="start" x="502.462" y="-642.5" font-family="Helvetica,sans-Serif" font-size="10.00"># BankableMIDIOutput()</text>
</a>
</g>
</g>
<!-- Node11&#45;&gt;Node10 -->
<g id="edge13" class="edge"><title>Node11&#45;&gt;Node10</title>
<path fill="none" stroke="midnightblue" d="M555.462,-625.282C555.462,-568.253 555.462,-474.969 555.462,-422.669"/>
<polygon fill="none" stroke="midnightblue" points="551.962,-625.49 555.462,-635.49 558.962,-625.49 551.962,-625.49"/>
</g>
<!-- Node12 -->
<g id="node12" class="node"><title>Node12</title>
<g id="a_node12"><a xlink:href="../../d4/d6e/classBankableMIDIOutput__Base.html" target="_top" xlink:title=" ">
<polygon fill="white" stroke="black" points="480.462,-922 480.462,-1034 630.462,-1034 630.462,-922 480.462,-922"/>
<text text-anchor="middle" x="555.462" y="-1022" font-family="Helvetica,sans-Serif" font-size="10.00">BankableMIDIOutput_Base</text>
<polyline fill="none" stroke="black" points="480.462,-1015 630.462,-1015 "/>
<text text-anchor="start" x="488.462" y="-1003" font-family="Helvetica,sans-Serif" font-size="10.00">&#45; lockedSetting</text>
<text text-anchor="start" x="488.462" y="-992" font-family="Helvetica,sans-Serif" font-size="10.00">&#45; UNLOCKED</text>
<polyline fill="none" stroke="black" points="480.462,-985 630.462,-985 "/>
<text text-anchor="start" x="488.462" y="-973" font-family="Helvetica,sans-Serif" font-size="10.00">+ getRawBankSetting()</text>
<text text-anchor="start" x="488.462" y="-962" font-family="Helvetica,sans-Serif" font-size="10.00">+ getSelection()</text>
<text text-anchor="start" x="488.462" y="-951" font-family="Helvetica,sans-Serif" font-size="10.00">+ lock()</text>
<text text-anchor="start" x="488.462" y="-940" font-family="Helvetica,sans-Serif" font-size="10.00">+ unlock()</text>
<text text-anchor="start" x="488.462" y="-929" font-family="Helvetica,sans-Serif" font-size="10.00"># BankableMIDIOutput_Base()</text>
</a>
</g>
</g>
<!-- Node12&#45;&gt;Node11 -->
<g id="edge14" class="edge"><title>Node12&#45;&gt;Node11</title>
<path fill="none" stroke="midnightblue" d="M555.462,-911.639C555.462,-851.501 555.462,-764.335 555.462,-714.61"/>
<polygon fill="none" stroke="midnightblue" points="551.962,-911.792 555.462,-921.792 558.962,-911.792 551.962,-911.792"/>
</g>
<!-- Node13 -->
<g id="node13" class="node"><title>Node13</title>
<g id="a_node13"><a xlink:href="../../d9/d36/classOutputBank.html" target="_top" xlink:title="A class for changing the address of BankableMIDIOutputs.">
<polygon fill="white" stroke="black" points="498.962,-1142.5 498.962,-1243.5 611.962,-1243.5 611.962,-1142.5 498.962,-1142.5"/>
<text text-anchor="middle" x="555.462" y="-1231.5" font-family="Helvetica,sans-Serif" font-size="10.00">OutputBank</text>
<polyline fill="none" stroke="black" points="498.962,-1224.5 611.962,-1224.5 "/>
<text text-anchor="start" x="506.962" y="-1212.5" font-family="Helvetica,sans-Serif" font-size="10.00">&#45; tracksPerBank</text>
<text text-anchor="start" x="506.962" y="-1201.5" font-family="Helvetica,sans-Serif" font-size="10.00">&#45; bankSetting</text>
<polyline fill="none" stroke="black" points="498.962,-1194.5 611.962,-1194.5 "/>
<text text-anchor="start" x="506.962" y="-1182.5" font-family="Helvetica,sans-Serif" font-size="10.00">+ OutputBank()</text>
<text text-anchor="start" x="506.962" y="-1171.5" font-family="Helvetica,sans-Serif" font-size="10.00">+ select()</text>
<text text-anchor="start" x="506.962" y="-1160.5" font-family="Helvetica,sans-Serif" font-size="10.00">+ getSelection()</text>
<text text-anchor="start" x="506.962" y="-1149.5" font-family="Helvetica,sans-Serif" font-size="10.00">+ getTracksPerBank()</text>
</a>
</g>
</g>
<!-- Node13&#45;&gt;Node12 -->
<g id="edge15" class="edge"><title>Node13&#45;&gt;Node12</title>
<path fill="none" stroke="#404040" d="M555.462,-1142.33C555.462,-1113.79 555.462,-1077.55 555.462,-1046.45"/>
<polygon fill="none" stroke="#404040" points="555.462,-1046.38 551.462,-1040.38 555.462,-1034.38 559.462,-1040.38 555.462,-1046.38"/>
<text text-anchor="middle" x="570.462" y="-1110.5" font-family="Helvetica,sans-Serif" font-size="10.00"> #bank</text>
</g>
<!-- Node14 -->
<g id="node14" class="node"><title>Node14</title>
<g id="a_node14"><a xlink:href="../../d3/d10/classMIDICNChannelAddress.html" target="_top" xlink:title="A type&#45;safe utility class for saving a MIDI address consisting of a 7&#45;bit address,...">
<polygon fill="white" stroke="black" points="634.462,-542 634.462,-808 774.462,-808 774.462,-542 634.462,-542"/>
<text text-anchor="middle" x="704.462" y="-796" font-family="Helvetica,sans-Serif" font-size="10.00">MIDICNChannelAddress</text>
<polyline fill="none" stroke="black" points="634.462,-789 774.462,-789 "/>
<text text-anchor="start" x="642.462" y="-777" font-family="Helvetica,sans-Serif" font-size="10.00">&#45; addresses</text>
<polyline fill="none" stroke="black" points="634.462,-770 774.462,-770 "/>
<text text-anchor="start" x="642.462" y="-758" font-family="Helvetica,sans-Serif" font-size="10.00">+ MIDICNChannelAddress()</text>
<text text-anchor="start" x="642.462" y="-747" font-family="Helvetica,sans-Serif" font-size="10.00">+ MIDICNChannelAddress()</text>
<text text-anchor="start" x="642.462" y="-736" font-family="Helvetica,sans-Serif" font-size="10.00">+ MIDICNChannelAddress()</text>
<text text-anchor="start" x="642.462" y="-725" font-family="Helvetica,sans-Serif" font-size="10.00">+ MIDICNChannelAddress()</text>
<text text-anchor="start" x="642.462" y="-714" font-family="Helvetica,sans-Serif" font-size="10.00">+ MIDICNChannelAddress()</text>
<text text-anchor="start" x="642.462" y="-703" font-family="Helvetica,sans-Serif" font-size="10.00">+ operator+=()</text>
<text text-anchor="start" x="642.462" y="-692" font-family="Helvetica,sans-Serif" font-size="10.00">+ operator&#45;=()</text>
<text text-anchor="start" x="642.462" y="-681" font-family="Helvetica,sans-Serif" font-size="10.00">+ operator+()</text>
<text text-anchor="start" x="642.462" y="-670" font-family="Helvetica,sans-Serif" font-size="10.00">+ operator&#45;()</text>
<text text-anchor="start" x="642.462" y="-659" font-family="Helvetica,sans-Serif" font-size="10.00">+ operator==()</text>
<text text-anchor="start" x="642.462" y="-648" font-family="Helvetica,sans-Serif" font-size="10.00">+ operator!=()</text>
<text text-anchor="start" x="642.462" y="-637" font-family="Helvetica,sans-Serif" font-size="10.00">+ getAddress()</text>
<text text-anchor="start" x="642.462" y="-626" font-family="Helvetica,sans-Serif" font-size="10.00">+ getChannel()</text>
<text text-anchor="start" x="642.462" y="-615" font-family="Helvetica,sans-Serif" font-size="10.00">+ getRawChannel()</text>
<text text-anchor="start" x="642.462" y="-604" font-family="Helvetica,sans-Serif" font-size="10.00">+ getCableNumber()</text>
<text text-anchor="start" x="642.462" y="-593" font-family="Helvetica,sans-Serif" font-size="10.00">+ isValid()</text>
<text text-anchor="start" x="642.462" y="-582" font-family="Helvetica,sans-Serif" font-size="10.00">+ operator bool()</text>
<text text-anchor="start" x="642.462" y="-571" font-family="Helvetica,sans-Serif" font-size="10.00">+ matchSingle()</text>
<text text-anchor="start" x="642.462" y="-560" font-family="Helvetica,sans-Serif" font-size="10.00">+ matchAddressInRange()</text>
<text text-anchor="start" x="642.462" y="-549" font-family="Helvetica,sans-Serif" font-size="10.00">+ invalid()</text>
</a>
</g>
</g>
<!-- Node14&#45;&gt;Node10 -->
<g id="edge16" class="edge"><title>Node14&#45;&gt;Node10</title>
<path fill="none" stroke="#404040" d="M636.502,-541.73C616.765,-503.316 596.412,-463.701 581.039,-433.782"/>
<polygon fill="none" stroke="#404040" points="580.887,-433.486 574.587,-429.977 575.403,-422.812 581.703,-426.321 580.887,-433.486"/>
<text text-anchor="middle" x="641.962" y="-510" font-family="Helvetica,sans-Serif" font-size="10.00"> &#45;address</text>
</g>
<!-- Node15 -->
<g id="node15" class="node"><title>Node15</title>
<g id="a_node15"><a xlink:href="../../de/d46/classPitchBendSender.html" target="_top" xlink:title=" ">
<polygon fill="white" stroke="black" points="636.962,-349 636.962,-417 757.962,-417 757.962,-349 636.962,-349"/>
<text text-anchor="middle" x="697.462" y="-405" font-family="Helvetica,sans-Serif" font-size="10.00">PitchBendSender&lt; 10 &gt;</text>
<polyline fill="none" stroke="black" points="636.962,-398 757.962,-398 "/>
<text text-anchor="middle" x="697.462" y="-386" font-family="Helvetica,sans-Serif" font-size="10.00"> </text>
<polyline fill="none" stroke="black" points="636.962,-379 757.962,-379 "/>
<text text-anchor="start" x="644.962" y="-367" font-family="Helvetica,sans-Serif" font-size="10.00">+ send()</text>
<text text-anchor="start" x="644.962" y="-356" font-family="Helvetica,sans-Serif" font-size="10.00">+ precision()</text>
</a>
</g>
</g>
<!-- Node15&#45;&gt;Node2 -->
<g id="edge17" class="edge"><title>Node15&#45;&gt;Node2</title>
<path fill="none" stroke="#404040" d="M679.704,-348.984C666.953,-327.087 648.376,-298.529 627.462,-277 608.237,-257.21 585.157,-238.579 562.587,-222.355"/>
<polygon fill="none" stroke="#404040" points="562.418,-222.236 555.21,-222.043 552.615,-215.315 559.824,-215.508 562.418,-222.236"/>
<text text-anchor="middle" x="627.962" y="-251" font-family="Helvetica,sans-Serif" font-size="10.00"> +sender</text>
</g>
</g>
</svg>
