<?xml version="1.0" encoding="UTF-8" standalone="no"?>
<!DOCTYPE svg PUBLIC "-//W3C//DTD SVG 1.1//EN"
 "http://www.w3.org/Graphics/SVG/1.1/DTD/svg11.dtd">
<!-- Generated by graphviz version 2.38.0 (20140413.2041)
 -->
<!-- Title: Bankable::PBPotentiometer Pages: 1 -->
<svg width="410pt" height="1500pt"
 viewBox="0.00 0.00 410.00 1500.00" xmlns="http://www.w3.org/2000/svg" xmlns:xlink="http://www.w3.org/1999/xlink">
<g id="graph0" class="graph" transform="scale(1 1) rotate(0) translate(4 1496)">
<title>Bankable::PBPotentiometer</title>
<polygon fill="white" stroke="none" points="-4,4 -4,-1496 406,-1496 406,4 -4,4"/>
<!-- Node6 -->
<g id="node1" class="node"><title>Node6</title>
<g id="a_node1"><a xlink:title="A class of MIDIOutputElements that read the analog input from a potentiometer or fader,...">
<polygon fill="#bfbfbf" stroke="black" points="114.5,-0.5 114.5,-57.5 251.5,-57.5 251.5,-0.5 114.5,-0.5"/>
<text text-anchor="middle" x="183" y="-45.5" font-family="Helvetica,sans-Serif" font-size="10.00">Bankable::PBPotentiometer</text>
<polyline fill="none" stroke="black" points="114.5,-38.5 251.5,-38.5 "/>
<text text-anchor="middle" x="183" y="-26.5" font-family="Helvetica,sans-Serif" font-size="10.00"> </text>
<polyline fill="none" stroke="black" points="114.5,-19.5 251.5,-19.5 "/>
<text text-anchor="start" x="122.5" y="-7.5" font-family="Helvetica,sans-Serif" font-size="10.00">+ PBPotentiometer()</text>
</a>
</g>
</g>
<!-- Node7 -->
<g id="node2" class="node"><title>Node7</title>
<g id="a_node2"><a xlink:href="../../db/ddc/classBankable_1_1MIDIFilteredAnalog.html" target="_top" xlink:title=" ">
<polygon fill="white" stroke="black" points="97,-95.5 97,-218.5 269,-218.5 269,-95.5 97,-95.5"/>
<text text-anchor="start" x="105" y="-206.5" font-family="Helvetica,sans-Serif" font-size="10.00">Bankable::MIDIFilteredAnalog</text>
<text text-anchor="middle" x="183" y="-195.5" font-family="Helvetica,sans-Serif" font-size="10.00">&lt; PitchBendSender&lt; 8 &gt;::send, 8 &gt;</text>
<polyline fill="none" stroke="black" points="97,-188.5 269,-188.5 "/>
<text text-anchor="start" x="105" y="-176.5" font-family="Helvetica,sans-Serif" font-size="10.00">&#45; filteredAnalog</text>
<polyline fill="none" stroke="black" points="97,-169.5 269,-169.5 "/>
<text text-anchor="start" x="105" y="-157.5" font-family="Helvetica,sans-Serif" font-size="10.00">+ begin()</text>
<text text-anchor="start" x="105" y="-146.5" font-family="Helvetica,sans-Serif" font-size="10.00">+ update()</text>
<text text-anchor="start" x="105" y="-135.5" font-family="Helvetica,sans-Serif" font-size="10.00">+ map()</text>
<text text-anchor="start" x="105" y="-124.5" font-family="Helvetica,sans-Serif" font-size="10.00">+ getRawValue()</text>
<text text-anchor="start" x="105" y="-113.5" font-family="Helvetica,sans-Serif" font-size="10.00">+ getValue()</text>
<text text-anchor="start" x="105" y="-102.5" font-family="Helvetica,sans-Serif" font-size="10.00"># MIDIFilteredAnalog()</text>
</a>
</g>
</g>
<!-- Node7&#45;&gt;Node6 -->
<g id="edge1" class="edge"><title>Node7&#45;&gt;Node6</title>
<path fill="none" stroke="midnightblue" d="M183,-85.0071C183,-75.2639 183,-65.7799 183,-57.5077"/>
<polygon fill="none" stroke="midnightblue" points="179.5,-85.2144 183,-95.2144 186.5,-85.2145 179.5,-85.2144"/>
</g>
<!-- Node8 -->
<g id="node3" class="node"><title>Node8</title>
<g id="a_node3"><a xlink:href="../../dc/dc9/structMIDIOutputElement.html" target="_top" xlink:title=" ">
<polygon fill="white" stroke="black" points="0,-360 0,-417 104,-417 104,-360 0,-360"/>
<text text-anchor="middle" x="52" y="-405" font-family="Helvetica,sans-Serif" font-size="10.00">MIDIOutputElement</text>
<polyline fill="none" stroke="black" points="0,-398 104,-398 "/>
<text text-anchor="middle" x="52" y="-386" font-family="Helvetica,sans-Serif" font-size="10.00"> </text>
<polyline fill="none" stroke="black" points="0,-379 104,-379 "/>
<text text-anchor="middle" x="52" y="-367" font-family="Helvetica,sans-Serif" font-size="10.00"> </text>
</a>
</g>
</g>
<!-- Node8&#45;&gt;Node7 -->
<g id="edge2" class="edge"><title>Node8&#45;&gt;Node7</title>
<path fill="none" stroke="midnightblue" d="M69.3677,-350.297C81.0481,-325.959 97.1541,-293.664 113,-266 121.94,-250.392 132.179,-233.921 142.017,-218.673"/>
<polygon fill="none" stroke="midnightblue" points="66.1057,-349.007 64.9611,-359.54 72.4242,-352.019 66.1057,-349.007"/>
</g>
<!-- Node9 -->
<g id="node4" class="node"><title>Node9</title>
<g id="a_node4"><a xlink:href="../../d5/de0/classUpdatable.html" target="_top" xlink:title=" ">
<polygon fill="white" stroke="black" points="11,-558.5 11,-769.5 93,-769.5 93,-558.5 11,-558.5"/>
<text text-anchor="middle" x="52" y="-757.5" font-family="Helvetica,sans-Serif" font-size="10.00">Updatable&lt;&gt;</text>
<polyline fill="none" stroke="black" points="11,-750.5 93,-750.5 "/>
<text text-anchor="middle" x="52" y="-738.5" font-family="Helvetica,sans-Serif" font-size="10.00"> </text>
<polyline fill="none" stroke="black" points="11,-731.5 93,-731.5 "/>
<text text-anchor="start" x="19" y="-719.5" font-family="Helvetica,sans-Serif" font-size="10.00">+ ~Updatable()</text>
<text text-anchor="start" x="19" y="-708.5" font-family="Helvetica,sans-Serif" font-size="10.00">+ update()</text>
<text text-anchor="start" x="19" y="-697.5" font-family="Helvetica,sans-Serif" font-size="10.00">+ begin()</text>
<text text-anchor="start" x="19" y="-686.5" font-family="Helvetica,sans-Serif" font-size="10.00">+ enable()</text>
<text text-anchor="start" x="19" y="-675.5" font-family="Helvetica,sans-Serif" font-size="10.00">+ disable()</text>
<text text-anchor="start" x="19" y="-664.5" font-family="Helvetica,sans-Serif" font-size="10.00">+ isEnabled()</text>
<text text-anchor="start" x="19" y="-653.5" font-family="Helvetica,sans-Serif" font-size="10.00">+ enable()</text>
<text text-anchor="start" x="19" y="-642.5" font-family="Helvetica,sans-Serif" font-size="10.00">+ enable()</text>
<text text-anchor="start" x="19" y="-631.5" font-family="Helvetica,sans-Serif" font-size="10.00">+ enable()</text>
<text text-anchor="start" x="19" y="-620.5" font-family="Helvetica,sans-Serif" font-size="10.00">+ disable()</text>
<text text-anchor="start" x="19" y="-609.5" font-family="Helvetica,sans-Serif" font-size="10.00">+ disable()</text>
<text text-anchor="start" x="19" y="-598.5" font-family="Helvetica,sans-Serif" font-size="10.00">+ disable()</text>
<text text-anchor="start" x="19" y="-587.5" font-family="Helvetica,sans-Serif" font-size="10.00">+ beginAll()</text>
<text text-anchor="start" x="19" y="-576.5" font-family="Helvetica,sans-Serif" font-size="10.00">+ updateAll()</text>
<text text-anchor="start" x="19" y="-565.5" font-family="Helvetica,sans-Serif" font-size="10.00"># Updatable()</text>
</a>
</g>
</g>
<!-- Node9&#45;&gt;Node8 -->
<g id="edge3" class="edge"><title>Node9&#45;&gt;Node8</title>
<path fill="none" stroke="midnightblue" d="M52,-548.202C52,-499.957 52,-447.97 52,-417.11"/>
<polygon fill="none" stroke="midnightblue" points="48.5001,-548.431 52,-558.431 55.5001,-548.431 48.5001,-548.431"/>
</g>
<!-- Node10 -->
<g id="node5" class="node"><title>Node10</title>
<g id="a_node5"><a xlink:href="../../d4/d23/classDoublyLinkable.html" target="_top" xlink:title=" ">
<polygon fill="white" stroke="black" points="40.5,-1423.5 40.5,-1491.5 177.5,-1491.5 177.5,-1423.5 40.5,-1423.5"/>
<text text-anchor="start" x="48.5" y="-1479.5" font-family="Helvetica,sans-Serif" font-size="10.00">DoublyLinkable&lt; Updatable</text>
<text text-anchor="middle" x="109" y="-1468.5" font-family="Helvetica,sans-Serif" font-size="10.00">&lt; NormalUpdatable &gt; &gt;</text>
<polyline fill="none" stroke="black" points="40.5,-1461.5 177.5,-1461.5 "/>
<text text-anchor="middle" x="109" y="-1449.5" font-family="Helvetica,sans-Serif" font-size="10.00"> </text>
<polyline fill="none" stroke="black" points="40.5,-1442.5 177.5,-1442.5 "/>
<text text-anchor="start" x="48.5" y="-1430.5" font-family="Helvetica,sans-Serif" font-size="10.00"># ~DoublyLinkable()</text>
</a>
</g>
</g>
<!-- Node10&#45;&gt;Node9 -->
<g id="edge4" class="edge"><title>Node10&#45;&gt;Node9</title>
<path fill="none" stroke="midnightblue" d="M78.1103,-1414.79C68.8016,-1399.85 59.7897,-1382.39 55,-1365 -1.42466,-1160.1 17.8388,-908.496 35.714,-769.606"/>
<polygon fill="none" stroke="midnightblue" points="75.2265,-1416.77 83.5958,-1423.27 81.1045,-1412.97 75.2265,-1416.77"/>
</g>
<!-- Node11 -->
<g id="node6" class="node"><title>Node11</title>
<g id="a_node6"><a xlink:href="../../d5/de0/classUpdatable.html" target="_top" xlink:title=" ">
<polygon fill="white" stroke="black" points="64.5,-1153.5 64.5,-1364.5 219.5,-1364.5 219.5,-1153.5 64.5,-1153.5"/>
<text text-anchor="middle" x="142" y="-1352.5" font-family="Helvetica,sans-Serif" font-size="10.00">Updatable&lt; NormalUpdatable &gt;</text>
<polyline fill="none" stroke="black" points="64.5,-1345.5 219.5,-1345.5 "/>
<text text-anchor="middle" x="142" y="-1333.5" font-family="Helvetica,sans-Serif" font-size="10.00"> </text>
<polyline fill="none" stroke="black" points="64.5,-1326.5 219.5,-1326.5 "/>
<text text-anchor="start" x="72.5" y="-1314.5" font-family="Helvetica,sans-Serif" font-size="10.00">+ ~Updatable()</text>
<text text-anchor="start" x="72.5" y="-1303.5" font-family="Helvetica,sans-Serif" font-size="10.00">+ update()</text>
<text text-anchor="start" x="72.5" y="-1292.5" font-family="Helvetica,sans-Serif" font-size="10.00">+ begin()</text>
<text text-anchor="start" x="72.5" y="-1281.5" font-family="Helvetica,sans-Serif" font-size="10.00">+ enable()</text>
<text text-anchor="start" x="72.5" y="-1270.5" font-family="Helvetica,sans-Serif" font-size="10.00">+ disable()</text>
<text text-anchor="start" x="72.5" y="-1259.5" font-family="Helvetica,sans-Serif" font-size="10.00">+ isEnabled()</text>
<text text-anchor="start" x="72.5" y="-1248.5" font-family="Helvetica,sans-Serif" font-size="10.00">+ enable()</text>
<text text-anchor="start" x="72.5" y="-1237.5" font-family="Helvetica,sans-Serif" font-size="10.00">+ enable()</text>
<text text-anchor="start" x="72.5" y="-1226.5" font-family="Helvetica,sans-Serif" font-size="10.00">+ enable()</text>
<text text-anchor="start" x="72.5" y="-1215.5" font-family="Helvetica,sans-Serif" font-size="10.00">+ disable()</text>
<text text-anchor="start" x="72.5" y="-1204.5" font-family="Helvetica,sans-Serif" font-size="10.00">+ disable()</text>
<text text-anchor="start" x="72.5" y="-1193.5" font-family="Helvetica,sans-Serif" font-size="10.00">+ disable()</text>
<text text-anchor="start" x="72.5" y="-1182.5" font-family="Helvetica,sans-Serif" font-size="10.00">+ beginAll()</text>
<text text-anchor="start" x="72.5" y="-1171.5" font-family="Helvetica,sans-Serif" font-size="10.00">+ updateAll()</text>
<text text-anchor="start" x="72.5" y="-1160.5" font-family="Helvetica,sans-Serif" font-size="10.00"># Updatable()</text>
</a>
</g>
</g>
<!-- Node10&#45;&gt;Node11 -->
<g id="edge6" class="edge"><title>Node10&#45;&gt;Node11</title>
<path fill="none" stroke="midnightblue" d="M116.293,-1413.07C118.724,-1398.6 121.546,-1381.79 124.412,-1364.73"/>
<polygon fill="none" stroke="midnightblue" points="112.803,-1412.72 114.598,-1423.17 119.706,-1413.88 112.803,-1412.72"/>
</g>
<!-- Node11&#45;&gt;Node10 -->
<g id="edge5" class="edge"><title>Node11&#45;&gt;Node10</title>
<path fill="none" stroke="#404040" d="M126.882,-1364.67C124.696,-1378.26 122.377,-1391.98 120,-1405 119.611,-1407.13 119.199,-1409.31 118.773,-1411.51"/>
<polygon fill="none" stroke="#404040" points="118.765,-1411.55 121.5,-1418.22 116.393,-1423.31 113.658,-1416.64 118.765,-1411.55"/>
<text text-anchor="middle" x="145.5" y="-1397" font-family="Helvetica,sans-Serif" font-size="10.00"> #next</text>
<text text-anchor="middle" x="145.5" y="-1386" font-family="Helvetica,sans-Serif" font-size="10.00">#previous</text>
</g>
<!-- Node12 -->
<g id="node7" class="node"><title>Node12</title>
<g id="a_node7"><a xlink:href="../../dd/d16/classDoublyLinkedList.html" target="_top" xlink:title=" ">
<polygon fill="white" stroke="black" points="64.5,-817.5 64.5,-1094.5 209.5,-1094.5 209.5,-817.5 64.5,-817.5"/>
<text text-anchor="start" x="72.5" y="-1082.5" font-family="Helvetica,sans-Serif" font-size="10.00">DoublyLinkedList&lt; Updatable</text>
<text text-anchor="middle" x="137" y="-1071.5" font-family="Helvetica,sans-Serif" font-size="10.00">&lt; NormalUpdatable &gt; &gt;</text>
<polyline fill="none" stroke="black" points="64.5,-1064.5 209.5,-1064.5 "/>
<text text-anchor="middle" x="137" y="-1052.5" font-family="Helvetica,sans-Serif" font-size="10.00"> </text>
<polyline fill="none" stroke="black" points="64.5,-1045.5 209.5,-1045.5 "/>
<text text-anchor="start" x="72.5" y="-1033.5" font-family="Helvetica,sans-Serif" font-size="10.00">+ append()</text>
<text text-anchor="start" x="72.5" y="-1022.5" font-family="Helvetica,sans-Serif" font-size="10.00">+ append()</text>
<text text-anchor="start" x="72.5" y="-1011.5" font-family="Helvetica,sans-Serif" font-size="10.00">+ insertBefore()</text>
<text text-anchor="start" x="72.5" y="-1000.5" font-family="Helvetica,sans-Serif" font-size="10.00">+ insertBefore()</text>
<text text-anchor="start" x="72.5" y="-989.5" font-family="Helvetica,sans-Serif" font-size="10.00">+ insertSorted()</text>
<text text-anchor="start" x="72.5" y="-978.5" font-family="Helvetica,sans-Serif" font-size="10.00">+ insertSorted()</text>
<text text-anchor="start" x="72.5" y="-967.5" font-family="Helvetica,sans-Serif" font-size="10.00">+ remove()</text>
<text text-anchor="start" x="72.5" y="-956.5" font-family="Helvetica,sans-Serif" font-size="10.00">+ remove()</text>
<text text-anchor="start" x="72.5" y="-945.5" font-family="Helvetica,sans-Serif" font-size="10.00">+ moveDown()</text>
<text text-anchor="start" x="72.5" y="-934.5" font-family="Helvetica,sans-Serif" font-size="10.00">+ couldContain()</text>
<text text-anchor="start" x="72.5" y="-923.5" font-family="Helvetica,sans-Serif" font-size="10.00">+ begin()</text>
<text text-anchor="start" x="72.5" y="-912.5" font-family="Helvetica,sans-Serif" font-size="10.00">+ begin()</text>
<text text-anchor="start" x="72.5" y="-901.5" font-family="Helvetica,sans-Serif" font-size="10.00">+ end()</text>
<text text-anchor="start" x="72.5" y="-890.5" font-family="Helvetica,sans-Serif" font-size="10.00">+ end()</text>
<text text-anchor="start" x="72.5" y="-879.5" font-family="Helvetica,sans-Serif" font-size="10.00">+ rbegin()</text>
<text text-anchor="start" x="72.5" y="-868.5" font-family="Helvetica,sans-Serif" font-size="10.00">+ rbegin()</text>
<text text-anchor="start" x="72.5" y="-857.5" font-family="Helvetica,sans-Serif" font-size="10.00">+ rend()</text>
<text text-anchor="start" x="72.5" y="-846.5" font-family="Helvetica,sans-Serif" font-size="10.00">+ rend()</text>
<text text-anchor="start" x="72.5" y="-835.5" font-family="Helvetica,sans-Serif" font-size="10.00">+ getFirst()</text>
<text text-anchor="start" x="72.5" y="-824.5" font-family="Helvetica,sans-Serif" font-size="10.00">+ getLast()</text>
</a>
</g>
</g>
<!-- Node11&#45;&gt;Node12 -->
<g id="edge8" class="edge"><title>Node11&#45;&gt;Node12</title>
<path fill="none" stroke="#404040" d="M116.507,-1153.26C115.524,-1147.1 114.673,-1140.98 114,-1135 112.972,-1125.86 112.488,-1116.45 112.435,-1106.97"/>
<polygon fill="none" stroke="#404040" points="112.435,-1106.93 108.513,-1100.88 112.59,-1094.93 116.512,-1100.99 112.435,-1106.93"/>
<text text-anchor="middle" x="125" y="-1127" font-family="Helvetica,sans-Serif" font-size="10.00"> &#45;last</text>
<text text-anchor="middle" x="125" y="-1116" font-family="Helvetica,sans-Serif" font-size="10.00">&#45;first</text>
</g>
<!-- Node12&#45;&gt;Node9 -->
<g id="edge9" class="edge"><title>Node12&#45;&gt;Node9</title>
<path fill="none" stroke="#404040" d="M96.6159,-817.219C93.1142,-805.272 89.5932,-793.259 86.1485,-781.507"/>
<polygon fill="none" stroke="#404040" points="86.108,-781.368 80.5819,-776.736 82.7327,-769.853 88.2589,-774.485 86.108,-781.368"/>
<text text-anchor="middle" x="117" y="-791" font-family="Helvetica,sans-Serif" font-size="10.00"> &#45;updatables</text>
</g>
<!-- Node12&#45;&gt;Node11 -->
<g id="edge7" class="edge"><title>Node12&#45;&gt;Node11</title>
<path fill="none" stroke="#404040" d="M139.691,-1094.81C139.798,-1100.95 139.902,-1107.04 140,-1113 140.152,-1122.2 140.301,-1131.74 140.446,-1141.32"/>
<polygon fill="none" stroke="#404040" points="140.448,-1141.46 144.536,-1147.4 140.626,-1153.45 136.537,-1147.51 140.448,-1141.46"/>
<text text-anchor="middle" x="168" y="-1121.5" font-family="Helvetica,sans-Serif" font-size="10.00"> &#45;updatables</text>
</g>
<!-- Node13 -->
<g id="node8" class="node"><title>Node13</title>
<g id="a_node8"><a xlink:href="../../d3/d43/classBankableMIDIOutput.html" target="_top" xlink:title="A base class for all MIDIOutputElement::s that can be banked.">
<polygon fill="white" stroke="black" points="122,-316 122,-461 244,-461 244,-316 122,-316"/>
<text text-anchor="middle" x="183" y="-449" font-family="Helvetica,sans-Serif" font-size="10.00">BankableMIDIOutput</text>
<polyline fill="none" stroke="black" points="122,-442 244,-442 "/>
<text text-anchor="start" x="130" y="-430" font-family="Helvetica,sans-Serif" font-size="10.00">&#45; type</text>
<text text-anchor="start" x="130" y="-419" font-family="Helvetica,sans-Serif" font-size="10.00">&#45; lockedSetting</text>
<text text-anchor="start" x="130" y="-408" font-family="Helvetica,sans-Serif" font-size="10.00">&#45; UNLOCKED</text>
<polyline fill="none" stroke="black" points="122,-401 244,-401 "/>
<text text-anchor="start" x="130" y="-389" font-family="Helvetica,sans-Serif" font-size="10.00">+ getAddressOffset()</text>
<text text-anchor="start" x="130" y="-378" font-family="Helvetica,sans-Serif" font-size="10.00">+ getRawBankSetting()</text>
<text text-anchor="start" x="130" y="-367" font-family="Helvetica,sans-Serif" font-size="10.00">+ getSelection()</text>
<text text-anchor="start" x="130" y="-356" font-family="Helvetica,sans-Serif" font-size="10.00"># BankableMIDIOutput()</text>
<text text-anchor="start" x="130" y="-345" font-family="Helvetica,sans-Serif" font-size="10.00"># BankableMIDIOutput()</text>
<text text-anchor="start" x="130" y="-334" font-family="Helvetica,sans-Serif" font-size="10.00"># lock()</text>
<text text-anchor="start" x="130" y="-323" font-family="Helvetica,sans-Serif" font-size="10.00"># unlock()</text>
</a>
</g>
</g>
<!-- Node13&#45;&gt;Node7 -->
<g id="edge10" class="edge"><title>Node13&#45;&gt;Node7</title>
<path fill="none" stroke="midnightblue" d="M183,-305.814C183,-277.108 183,-245.383 183,-218.707"/>
<polygon fill="none" stroke="midnightblue" points="179.5,-305.829 183,-315.829 186.5,-305.829 179.5,-305.829"/>
</g>
<!-- Node14 -->
<g id="node9" class="node"><title>Node14</title>
<g id="a_node9"><a xlink:href="../../d9/d36/classOutputBank.html" target="_top" xlink:title="A class for changing the address of BankableMIDIOutput::s.">
<polygon fill="white" stroke="black" points="126.5,-613.5 126.5,-714.5 239.5,-714.5 239.5,-613.5 126.5,-613.5"/>
<text text-anchor="middle" x="183" y="-702.5" font-family="Helvetica,sans-Serif" font-size="10.00">OutputBank</text>
<polyline fill="none" stroke="black" points="126.5,-695.5 239.5,-695.5 "/>
<text text-anchor="start" x="134.5" y="-683.5" font-family="Helvetica,sans-Serif" font-size="10.00">&#45; tracksPerBank</text>
<text text-anchor="start" x="134.5" y="-672.5" font-family="Helvetica,sans-Serif" font-size="10.00">&#45; bankSetting</text>
<polyline fill="none" stroke="black" points="126.5,-665.5 239.5,-665.5 "/>
<text text-anchor="start" x="134.5" y="-653.5" font-family="Helvetica,sans-Serif" font-size="10.00">+ OutputBank()</text>
<text text-anchor="start" x="134.5" y="-642.5" font-family="Helvetica,sans-Serif" font-size="10.00">+ select()</text>
<text text-anchor="start" x="134.5" y="-631.5" font-family="Helvetica,sans-Serif" font-size="10.00">+ getSelection()</text>
<text text-anchor="start" x="134.5" y="-620.5" font-family="Helvetica,sans-Serif" font-size="10.00">+ getTracksPerBank()</text>
</a>
</g>
</g>
<!-- Node14&#45;&gt;Node13 -->
<g id="edge11" class="edge"><title>Node14&#45;&gt;Node13</title>
<path fill="none" stroke="#404040" d="M183,-613.471C183,-574.399 183,-519.024 183,-473.112"/>
<polygon fill="none" stroke="#404040" points="183,-473.048 179,-467.048 183,-461.048 187,-467.048 183,-473.048"/>
<text text-anchor="middle" x="197" y="-532" font-family="Helvetica,sans-Serif" font-size="10.00"> &#45;bank</text>
</g>
<!-- Node15 -->
<g id="node10" class="node"><title>Node15</title>
<g id="a_node10"><a xlink:href="../../d3/d10/classMIDICNChannelAddress.html" target="_top" xlink:title="A type&#45;safe utility class for saving a MIDI address consisting of a 7&#45;bit address,...">
<polygon fill="white" stroke="black" points="262,-266.5 262,-510.5 402,-510.5 402,-266.5 262,-266.5"/>
<text text-anchor="middle" x="332" y="-498.5" font-family="Helvetica,sans-Serif" font-size="10.00">MIDICNChannelAddress</text>
<polyline fill="none" stroke="black" points="262,-491.5 402,-491.5 "/>
<text text-anchor="start" x="270" y="-479.5" font-family="Helvetica,sans-Serif" font-size="10.00">&#45; addresses</text>
<polyline fill="none" stroke="black" points="262,-472.5 402,-472.5 "/>
<text text-anchor="start" x="270" y="-460.5" font-family="Helvetica,sans-Serif" font-size="10.00">+ MIDICNChannelAddress()</text>
<text text-anchor="start" x="270" y="-449.5" font-family="Helvetica,sans-Serif" font-size="10.00">+ MIDICNChannelAddress()</text>
<text text-anchor="start" x="270" y="-438.5" font-family="Helvetica,sans-Serif" font-size="10.00">+ MIDICNChannelAddress()</text>
<text text-anchor="start" x="270" y="-427.5" font-family="Helvetica,sans-Serif" font-size="10.00">+ MIDICNChannelAddress()</text>
<text text-anchor="start" x="270" y="-416.5" font-family="Helvetica,sans-Serif" font-size="10.00">+ MIDICNChannelAddress()</text>
<text text-anchor="start" x="270" y="-405.5" font-family="Helvetica,sans-Serif" font-size="10.00">+ operator+=()</text>
<text text-anchor="start" x="270" y="-394.5" font-family="Helvetica,sans-Serif" font-size="10.00">+ operator&#45;=()</text>
<text text-anchor="start" x="270" y="-383.5" font-family="Helvetica,sans-Serif" font-size="10.00">+ operator+()</text>
<text text-anchor="start" x="270" y="-372.5" font-family="Helvetica,sans-Serif" font-size="10.00">+ operator&#45;()</text>
<text text-anchor="start" x="270" y="-361.5" font-family="Helvetica,sans-Serif" font-size="10.00">+ operator==()</text>
<text text-anchor="start" x="270" y="-350.5" font-family="Helvetica,sans-Serif" font-size="10.00">+ operator!=()</text>
<text text-anchor="start" x="270" y="-339.5" font-family="Helvetica,sans-Serif" font-size="10.00">+ getAddress()</text>
<text text-anchor="start" x="270" y="-328.5" font-family="Helvetica,sans-Serif" font-size="10.00">+ getChannel()</text>
<text text-anchor="start" x="270" y="-317.5" font-family="Helvetica,sans-Serif" font-size="10.00">+ getCableNumber()</text>
<text text-anchor="start" x="270" y="-306.5" font-family="Helvetica,sans-Serif" font-size="10.00">+ isValid()</text>
<text text-anchor="start" x="270" y="-295.5" font-family="Helvetica,sans-Serif" font-size="10.00">+ operator bool()</text>
<text text-anchor="start" x="270" y="-284.5" font-family="Helvetica,sans-Serif" font-size="10.00">+ matchSingle()</text>
<text text-anchor="start" x="270" y="-273.5" font-family="Helvetica,sans-Serif" font-size="10.00">+ matchAddressInRange()</text>
</a>
</g>
</g>
<!-- Node15&#45;&gt;Node7 -->
<g id="edge12" class="edge"><title>Node15&#45;&gt;Node7</title>
<path fill="none" stroke="#404040" d="M261.863,-279.47C250.718,-262.304 239.442,-244.936 229.038,-228.911"/>
<polygon fill="none" stroke="#404040" points="228.871,-228.654 222.249,-225.8 222.337,-218.589 228.959,-221.443 228.871,-228.654"/>
<text text-anchor="middle" x="260.5" y="-240" font-family="Helvetica,sans-Serif" font-size="10.00"> &#45;address</text>
</g>
</g>
</svg>
