<?xml version="1.0" encoding="UTF-8" standalone="no"?>
<!DOCTYPE svg PUBLIC "-//W3C//DTD SVG 1.1//EN"
 "http://www.w3.org/Graphics/SVG/1.1/DTD/svg11.dtd">
<!-- Generated by graphviz version 2.38.0 (20140413.2041)
 -->
<!-- Title: ButtonMatrix::begin Pages: 1 -->
<svg width="290pt" height="122pt"
 viewBox="0.00 0.00 290.00 121.50" xmlns="http://www.w3.org/2000/svg" xmlns:xlink="http://www.w3.org/1999/xlink">
<g id="graph0" class="graph" transform="scale(1 1) rotate(0) translate(4 117.5)">
<title>ButtonMatrix::begin</title>
<polygon fill="white" stroke="none" points="-4,4 -4,-117.5 286,-117.5 286,4 -4,4"/>
<!-- Node1 -->
<g id="node1" class="node"><title>Node1</title>
<g id="a_node1"><a xlink:title="Initialize (enable internal pull&#45;up resistors on column pins).">
<polygon fill="#bfbfbf" stroke="black" points="181,-50 181,-69 282,-69 282,-50 181,-50"/>
<text text-anchor="middle" x="231.5" y="-57" font-family="Helvetica,sans-Serif" font-size="10.00">ButtonMatrix::begin</text>
</a>
</g>
</g>
<!-- Node2 -->
<g id="node2" class="node"><title>Node2</title>
<g id="a_node2"><a xlink:href="../../d0/d54/classMIDIButtonMatrix.html#a5dbffe216515e2ba2c3bd75a68262d18" target="_top" xlink:title=" ">
<polygon fill="white" stroke="black" points="7,-72 7,-113 138,-113 138,-72 7,-72"/>
<text text-anchor="start" x="15" y="-101" font-family="Helvetica,sans-Serif" font-size="10.00">MIDIButtonMatrix&lt; Digital</text>
<text text-anchor="start" x="15" y="-90" font-family="Helvetica,sans-Serif" font-size="10.00">NoteSender, nb_rows, nb</text>
<text text-anchor="middle" x="72.5" y="-79" font-family="Helvetica,sans-Serif" font-size="10.00">_cols &gt;::begin</text>
</a>
</g>
</g>
<!-- Node1&#45;&gt;Node2 -->
<g id="edge1" class="edge"><title>Node1&#45;&gt;Node2</title>
<path fill="none" stroke="midnightblue" d="M175.218,-71.1198C163.211,-73.6436 150.407,-76.3349 138.077,-78.9266"/>
<polygon fill="midnightblue" stroke="midnightblue" points="176.023,-74.5272 185.089,-69.045 174.583,-67.6769 176.023,-74.5272"/>
</g>
<!-- Node3 -->
<g id="node3" class="node"><title>Node3</title>
<g id="a_node3"><a xlink:href="../../d3/d65/classBankable_1_1MIDIButtonMatrix.html#a9f9a4f8ffac9e9c0c968c81228e4988f" target="_top" xlink:title=" ">
<polygon fill="white" stroke="black" points="0,-0.5 0,-52.5 145,-52.5 145,-0.5 0,-0.5"/>
<text text-anchor="start" x="8" y="-40.5" font-family="Helvetica,sans-Serif" font-size="10.00">Bankable::MIDIButtonMatrix</text>
<text text-anchor="start" x="8" y="-29.5" font-family="Helvetica,sans-Serif" font-size="10.00">&lt; MatrixAddress&lt; nb_rows,</text>
<text text-anchor="start" x="8" y="-18.5" font-family="Helvetica,sans-Serif" font-size="10.00"> nb_cols &gt;, DigitalCCSender,</text>
<text text-anchor="middle" x="72.5" y="-7.5" font-family="Helvetica,sans-Serif" font-size="10.00"> nb_rows, nb_cols &gt;::begin</text>
</a>
</g>
</g>
<!-- Node1&#45;&gt;Node3 -->
<g id="edge2" class="edge"><title>Node1&#45;&gt;Node3</title>
<path fill="none" stroke="midnightblue" d="M175.178,-47.8718C165.46,-45.8291 155.22,-43.6769 145.134,-41.5567"/>
<polygon fill="midnightblue" stroke="midnightblue" points="174.583,-51.3231 185.089,-49.955 176.023,-44.4728 174.583,-51.3231"/>
</g>
</g>
</svg>
