<?xml version="1.0" encoding="UTF-8" standalone="no"?>
<!DOCTYPE svg PUBLIC "-//W3C//DTD SVG 1.1//EN"
 "http://www.w3.org/Graphics/SVG/1.1/DTD/svg11.dtd">
<!-- Generated by graphviz version 2.38.0 (20140413.2041)
 -->
<!-- Title: MCU::VPotRingLEDsCallback Pages: 1 -->
<svg width="159pt" height="546pt"
 viewBox="0.00 0.00 159.00 546.00" xmlns="http://www.w3.org/2000/svg" xmlns:xlink="http://www.w3.org/1999/xlink">
<g id="graph0" class="graph" transform="scale(1 1) rotate(0) translate(4 542)">
<title>MCU::VPotRingLEDsCallback</title>
<polygon fill="white" stroke="none" points="-4,4 -4,-542 155,-542 155,4 -4,4"/>
<!-- Node1 -->
<g id="node1" class="node"><title>Node1</title>
<g id="a_node1"><a xlink:title=" ">
<polygon fill="#bfbfbf" stroke="black" points="0,-0.5 0,-79.5 151,-79.5 151,-0.5 0,-0.5"/>
<text text-anchor="middle" x="75.5" y="-67.5" font-family="Helvetica,sans-Serif" font-size="10.00">MCU::VPotRingLEDsCallback</text>
<polyline fill="none" stroke="black" points="0,-60.5 151,-60.5 "/>
<text text-anchor="middle" x="75.5" y="-48.5" font-family="Helvetica,sans-Serif" font-size="10.00"> </text>
<polyline fill="none" stroke="black" points="0,-41.5 151,-41.5 "/>
<text text-anchor="start" x="8" y="-29.5" font-family="Helvetica,sans-Serif" font-size="10.00">+ VPotRingLEDsCallback()</text>
<text text-anchor="start" x="8" y="-18.5" font-family="Helvetica,sans-Serif" font-size="10.00">+ begin()</text>
<text text-anchor="start" x="8" y="-7.5" font-family="Helvetica,sans-Serif" font-size="10.00">+ update()</text>
</a>
</g>
</g>
<!-- Node2 -->
<g id="node2" class="node"><title>Node2</title>
<g id="a_node2"><a xlink:href="../../d2/d1b/classLEDs.html" target="_top" xlink:title=" ">
<polygon fill="white" stroke="black" points="30,-127.5 30,-250.5 121,-250.5 121,-127.5 30,-127.5"/>
<text text-anchor="middle" x="75.5" y="-238.5" font-family="Helvetica,sans-Serif" font-size="10.00">LEDs&lt; 11 &gt;</text>
<polyline fill="none" stroke="black" points="30,-231.5 121,-231.5 "/>
<text text-anchor="middle" x="75.5" y="-219.5" font-family="Helvetica,sans-Serif" font-size="10.00"> </text>
<polyline fill="none" stroke="black" points="30,-212.5 121,-212.5 "/>
<text text-anchor="start" x="38" y="-200.5" font-family="Helvetica,sans-Serif" font-size="10.00">+ LEDs()</text>
<text text-anchor="start" x="38" y="-189.5" font-family="Helvetica,sans-Serif" font-size="10.00">+ begin()</text>
<text text-anchor="start" x="38" y="-178.5" font-family="Helvetica,sans-Serif" font-size="10.00">+ displayRange()</text>
<text text-anchor="start" x="38" y="-167.5" font-family="Helvetica,sans-Serif" font-size="10.00">+ set()</text>
<text text-anchor="start" x="38" y="-156.5" font-family="Helvetica,sans-Serif" font-size="10.00">+ clear()</text>
<text text-anchor="start" x="38" y="-145.5" font-family="Helvetica,sans-Serif" font-size="10.00">+ clear()</text>
<text text-anchor="start" x="38" y="-134.5" font-family="Helvetica,sans-Serif" font-size="10.00">+ displayDot()</text>
</a>
</g>
</g>
<!-- Node2&#45;&gt;Node1 -->
<g id="edge1" class="edge"><title>Node2&#45;&gt;Node1</title>
<path fill="none" stroke="#404040" d="M75.5,-127.361C75.5,-115.512 75.5,-103.204 75.5,-91.719"/>
<polygon fill="none" stroke="#404040" points="75.5001,-91.6405 71.5,-85.6406 75.5,-79.6405 79.5,-85.6405 75.5001,-91.6405"/>
<text text-anchor="middle" x="88" y="-101" font-family="Helvetica,sans-Serif" font-size="10.00"> &#45;leds</text>
</g>
<!-- Node3 -->
<g id="node3" class="node"><title>Node3</title>
<g id="a_node3"><a xlink:href="../../d7/d6a/structArray.html" target="_top" xlink:title=" ">
<polygon fill="white" stroke="black" points="36,-298.5 36,-432.5 115,-432.5 115,-298.5 36,-298.5"/>
<text text-anchor="middle" x="75.5" y="-420.5" font-family="Helvetica,sans-Serif" font-size="10.00">Array&lt; N &gt;</text>
<polyline fill="none" stroke="black" points="36,-413.5 115,-413.5 "/>
<text text-anchor="start" x="44" y="-401.5" font-family="Helvetica,sans-Serif" font-size="10.00">+ length</text>
<polyline fill="none" stroke="black" points="36,-394.5 115,-394.5 "/>
<text text-anchor="start" x="44" y="-382.5" font-family="Helvetica,sans-Serif" font-size="10.00">+ operator[]()</text>
<text text-anchor="start" x="44" y="-371.5" font-family="Helvetica,sans-Serif" font-size="10.00">+ operator[]()</text>
<text text-anchor="start" x="44" y="-360.5" font-family="Helvetica,sans-Serif" font-size="10.00">+ begin()</text>
<text text-anchor="start" x="44" y="-349.5" font-family="Helvetica,sans-Serif" font-size="10.00">+ begin()</text>
<text text-anchor="start" x="44" y="-338.5" font-family="Helvetica,sans-Serif" font-size="10.00">+ end()</text>
<text text-anchor="start" x="44" y="-327.5" font-family="Helvetica,sans-Serif" font-size="10.00">+ end()</text>
<text text-anchor="start" x="44" y="-316.5" font-family="Helvetica,sans-Serif" font-size="10.00">+ operator==()</text>
<text text-anchor="start" x="44" y="-305.5" font-family="Helvetica,sans-Serif" font-size="10.00">+ operator!=()</text>
</a>
</g>
</g>
<!-- Node3&#45;&gt;Node2 -->
<g id="edge2" class="edge"><title>Node3&#45;&gt;Node2</title>
<path fill="none" stroke="#404040" d="M75.5,-298.031C75.5,-286.451 75.5,-274.352 75.5,-262.616"/>
<polygon fill="none" stroke="#404040" points="75.5001,-262.555 71.5,-256.555 75.5,-250.555 79.5,-256.555 75.5001,-262.555"/>
<text text-anchor="middle" x="95" y="-272" font-family="Helvetica,sans-Serif" font-size="10.00"> &#45;ledPins</text>
</g>
<!-- Node4 -->
<g id="node4" class="node"><title>Node4</title>
<g id="a_node4"><a xlink:href="../../d7/d14/classN.html" target="_top" xlink:title=" ">
<polygon fill="white" stroke="black" points="61,-480.5 61,-537.5 90,-537.5 90,-480.5 61,-480.5"/>
<text text-anchor="middle" x="75.5" y="-525.5" font-family="Helvetica,sans-Serif" font-size="10.00">N</text>
<polyline fill="none" stroke="black" points="61,-518.5 90,-518.5 "/>
<text text-anchor="middle" x="75.5" y="-506.5" font-family="Helvetica,sans-Serif" font-size="10.00"> </text>
<polyline fill="none" stroke="black" points="61,-499.5 90,-499.5 "/>
<text text-anchor="middle" x="75.5" y="-487.5" font-family="Helvetica,sans-Serif" font-size="10.00"> </text>
</a>
</g>
</g>
<!-- Node4&#45;&gt;Node3 -->
<g id="edge3" class="edge"><title>Node4&#45;&gt;Node3</title>
<path fill="none" stroke="#404040" d="M75.5,-480.381C75.5,-470.02 75.5,-457.663 75.5,-444.97"/>
<polygon fill="none" stroke="#404040" points="75.5001,-444.753 71.5,-438.753 75.5,-432.753 79.5,-438.753 75.5001,-444.753"/>
<text text-anchor="middle" x="89.5" y="-454" font-family="Helvetica,sans-Serif" font-size="10.00"> +data</text>
</g>
</g>
</svg>
