<?xml version="1.0" encoding="UTF-8" standalone="no"?>
<!DOCTYPE svg PUBLIC "-//W3C//DTD SVG 1.1//EN"
 "http://www.w3.org/Graphics/SVG/1.1/DTD/svg11.dtd">
<!-- Generated by graphviz version 2.38.0 (20140413.2041)
 -->
<!-- Title: Control_Surface_Class.cpp Pages: 1 -->
<svg width="1166pt" height="520pt"
 viewBox="0.00 0.00 1166.48 520.00" xmlns="http://www.w3.org/2000/svg" xmlns:xlink="http://www.w3.org/1999/xlink">
<g id="graph0" class="graph" transform="scale(1 1) rotate(0) translate(4 516)">
<title>Control_Surface_Class.cpp</title>
<polygon fill="white" stroke="none" points="-4,4 -4,-516 1162.48,-516 1162.48,4 -4,4"/>
<!-- Node0 -->
<g id="node1" class="node"><title>Node0</title>
<g id="a_node1"><a xlink:title=" ">
<polygon fill="#bfbfbf" stroke="black" points="439.981,-492.5 439.981,-511.5 576.981,-511.5 576.981,-492.5 439.981,-492.5"/>
<text text-anchor="middle" x="508.481" y="-499.5" font-family="Helvetica,sans-Serif" font-size="10.00">Control_Surface_Class.cpp</text>
</a>
</g>
</g>
<!-- Node1 -->
<g id="node2" class="node"><title>Node1</title>
<g id="a_node2"><a xlink:href="../../d5/de0/Control__Surface__Class_8h.html" target="_top" xlink:title=" ">
<polygon fill="white" stroke="black" points="498.481,-364 498.481,-383 624.481,-383 624.481,-364 498.481,-364"/>
<text text-anchor="middle" x="561.481" y="-371" font-family="Helvetica,sans-Serif" font-size="10.00">Control_Surface_Class.h</text>
</a>
</g>
</g>
<!-- Node0&#45;&gt;Node1 -->
<g id="edge1" class="edge"><title>Node0&#45;&gt;Node1</title>
<path fill="none" stroke="midnightblue" d="M516.441,-492.363C523.954,-483.761 535.007,-469.871 541.481,-456 550.894,-435.834 556.194,-410.717 558.939,-393.737"/>
<polygon fill="midnightblue" stroke="midnightblue" points="562.461,-393.845 560.45,-383.443 555.535,-392.828 562.461,-393.845"/>
</g>
<!-- Node13 -->
<g id="node14" class="node"><title>Node13</title>
<g id="a_node14"><a xlink:title=" ">
<polygon fill="white" stroke="#bfbfbf" points="60.4815,-0.5 60.4815,-19.5 118.481,-19.5 118.481,-0.5 60.4815,-0.5"/>
<text text-anchor="middle" x="89.4815" y="-7.5" font-family="Helvetica,sans-Serif" font-size="10.00">Arduino.h</text>
</a>
</g>
</g>
<!-- Node0&#45;&gt;Node13 -->
<g id="edge65" class="edge"><title>Node0&#45;&gt;Node13</title>
<path fill="none" stroke="midnightblue" d="M439.679,-498.863C313.636,-494.335 55.6944,-481.984 24.4815,-456 -4.44443,-431.92 1.48148,-412.137 1.48148,-374.5 1.48148,-374.5 1.48148,-374.5 1.48148,-121 1.48148,-79.0325 41.0223,-43.9022 67.094,-25.3001"/>
<polygon fill="midnightblue" stroke="midnightblue" points="69.0781,-28.1834 75.3428,-19.6391 65.1171,-22.4118 69.0781,-28.1834"/>
</g>
<!-- Node19 -->
<g id="node20" class="node"><title>Node19</title>
<g id="a_node20"><a xlink:href="../../d9/d98/ExtendedIOElement_8h.html" target="_top" xlink:title=" ">
<polygon fill="white" stroke="black" points="581.481,-224.5 581.481,-254.5 735.481,-254.5 735.481,-224.5 581.481,-224.5"/>
<text text-anchor="start" x="589.481" y="-242.5" font-family="Helvetica,sans-Serif" font-size="10.00">Hardware/ExtendedInputOutput</text>
<text text-anchor="middle" x="658.481" y="-231.5" font-family="Helvetica,sans-Serif" font-size="10.00">/ExtendedIOElement.h</text>
</a>
</g>
</g>
<!-- Node0&#45;&gt;Node19 -->
<g id="edge32" class="edge"><title>Node0&#45;&gt;Node19</title>
<path fill="none" stroke="midnightblue" d="M524.516,-492.449C563.72,-470.474 663.75,-407.679 698.481,-322 703.657,-309.231 703.01,-304.012 698.481,-291 694.842,-280.543 688.035,-270.621 681.055,-262.385"/>
<polygon fill="midnightblue" stroke="midnightblue" points="683.441,-259.806 674.128,-254.753 678.257,-264.51 683.441,-259.806"/>
</g>
<!-- Node20 -->
<g id="node21" class="node"><title>Node20</title>
<g id="a_node21"><a xlink:href="../../df/de0/MIDIInputElementCC_8hpp.html" target="_top" xlink:title=" ">
<polygon fill="white" stroke="black" points="204.981,-425.5 204.981,-455.5 357.981,-455.5 357.981,-425.5 204.981,-425.5"/>
<text text-anchor="start" x="212.981" y="-443.5" font-family="Helvetica,sans-Serif" font-size="10.00">MIDI_Inputs/MIDIInputElement</text>
<text text-anchor="middle" x="281.481" y="-432.5" font-family="Helvetica,sans-Serif" font-size="10.00">CC.hpp</text>
</a>
</g>
</g>
<!-- Node0&#45;&gt;Node20 -->
<g id="edge35" class="edge"><title>Node0&#45;&gt;Node20</title>
<path fill="none" stroke="midnightblue" d="M475.958,-492.475C441.838,-483.532 387.346,-469.249 344.713,-458.074"/>
<polygon fill="midnightblue" stroke="midnightblue" points="345.542,-454.673 334.981,-455.523 343.767,-461.444 345.542,-454.673"/>
</g>
<!-- Node23 -->
<g id="node24" class="node"><title>Node23</title>
<g id="a_node24"><a xlink:href="../../d8/d4f/MIDIInputElementChannelPressure_8hpp.html" target="_top" xlink:title=" ">
<polygon fill="white" stroke="black" points="379.981,-425.5 379.981,-455.5 532.981,-455.5 532.981,-425.5 379.981,-425.5"/>
<text text-anchor="start" x="387.981" y="-443.5" font-family="Helvetica,sans-Serif" font-size="10.00">MIDI_Inputs/MIDIInputElement</text>
<text text-anchor="middle" x="456.481" y="-432.5" font-family="Helvetica,sans-Serif" font-size="10.00">ChannelPressure.hpp</text>
</a>
</g>
</g>
<!-- Node0&#45;&gt;Node23 -->
<g id="edge40" class="edge"><title>Node0&#45;&gt;Node23</title>
<path fill="none" stroke="midnightblue" d="M501.031,-492.475C494.383,-484.869 484.36,-473.399 475.503,-463.265"/>
<polygon fill="midnightblue" stroke="midnightblue" points="477.953,-460.749 468.737,-455.523 472.682,-465.356 477.953,-460.749"/>
</g>
<!-- Node25 -->
<g id="node26" class="node"><title>Node25</title>
<g id="a_node26"><a xlink:href="../../d5/d5f/MIDIInputElementNote_8hpp.html" target="_top" xlink:title=" ">
<polygon fill="white" stroke="black" points="33.9815,-425.5 33.9815,-455.5 186.981,-455.5 186.981,-425.5 33.9815,-425.5"/>
<text text-anchor="start" x="41.9815" y="-443.5" font-family="Helvetica,sans-Serif" font-size="10.00">MIDI_Inputs/MIDIInputElement</text>
<text text-anchor="middle" x="110.481" y="-432.5" font-family="Helvetica,sans-Serif" font-size="10.00">Note.hpp</text>
</a>
</g>
</g>
<!-- Node0&#45;&gt;Node25 -->
<g id="edge44" class="edge"><title>Node0&#45;&gt;Node25</title>
<path fill="none" stroke="midnightblue" d="M445.757,-492.474C384.736,-484.068 289.132,-470.603 197.389,-456.279"/>
<polygon fill="midnightblue" stroke="midnightblue" points="197.799,-452.801 187.378,-454.71 196.715,-459.716 197.799,-452.801"/>
</g>
<!-- Node26 -->
<g id="node27" class="node"><title>Node26</title>
<g id="a_node27"><a xlink:href="../../d1/d41/MIDIOutputElement_8hpp.html" target="_top" xlink:title=" ">
<polygon fill="white" stroke="black" points="879.981,-291.5 879.981,-321.5 1004.98,-321.5 1004.98,-291.5 879.981,-291.5"/>
<text text-anchor="start" x="887.981" y="-309.5" font-family="Helvetica,sans-Serif" font-size="10.00">MIDI_Outputs/Abstract</text>
<text text-anchor="middle" x="942.481" y="-298.5" font-family="Helvetica,sans-Serif" font-size="10.00">/MIDIOutputElement.hpp</text>
</a>
</g>
</g>
<!-- Node0&#45;&gt;Node26 -->
<g id="edge47" class="edge"><title>Node0&#45;&gt;Node26</title>
<path fill="none" stroke="midnightblue" d="M577.021,-497.965C629.099,-493.507 701.422,-482.596 759.481,-456 827.668,-424.766 892.032,-362.124 923.088,-329.067"/>
<polygon fill="midnightblue" stroke="midnightblue" points="925.668,-331.432 929.899,-321.718 920.534,-326.673 925.668,-331.432"/>
</g>
<!-- Node29 -->
<g id="node30" class="node"><title>Node29</title>
<g id="a_node30"><a xlink:href="../../d6/d16/Selector_8hpp.html" target="_top" xlink:title=" ">
<polygon fill="white" stroke="black" points="745.481,-297 745.481,-316 861.481,-316 861.481,-297 745.481,-297"/>
<text text-anchor="middle" x="803.481" y="-304" font-family="Helvetica,sans-Serif" font-size="10.00">Selectors/Selector.hpp</text>
</a>
</g>
</g>
<!-- Node0&#45;&gt;Node29 -->
<g id="edge56" class="edge"><title>Node0&#45;&gt;Node29</title>
<path fill="none" stroke="midnightblue" d="M577.242,-493.857C633.587,-486.802 707.754,-474.386 731.481,-456 774.042,-423.021 792.916,-358.439 799.944,-326.423"/>
<polygon fill="midnightblue" stroke="midnightblue" points="803.456,-326.717 802.019,-316.22 796.596,-325.322 803.456,-326.717"/>
</g>
<!-- Node2 -->
<g id="node3" class="node"><title>Node2</title>
<g id="a_node3"><a xlink:href="../../dc/dbb/MIDI__Interface_8h.html" target="_top" xlink:title=" ">
<polygon fill="white" stroke="black" points="577.481,-291.5 577.481,-321.5 689.481,-321.5 689.481,-291.5 577.481,-291.5"/>
<text text-anchor="start" x="585.481" y="-309.5" font-family="Helvetica,sans-Serif" font-size="10.00">MIDI_Interfaces/MIDI</text>
<text text-anchor="middle" x="633.481" y="-298.5" font-family="Helvetica,sans-Serif" font-size="10.00">_Interface.h</text>
</a>
</g>
</g>
<!-- Node1&#45;&gt;Node2 -->
<g id="edge2" class="edge"><title>Node1&#45;&gt;Node2</title>
<path fill="none" stroke="midnightblue" d="M571.192,-363.734C581.203,-354.696 597.178,-340.274 610.443,-328.298"/>
<polygon fill="midnightblue" stroke="midnightblue" points="612.798,-330.888 617.875,-321.589 608.107,-325.692 612.798,-330.888"/>
</g>
<!-- Node14 -->
<g id="node15" class="node"><title>Node14</title>
<g id="a_node15"><a xlink:href="../../d6/dd2/DisplayElement_8hpp.html" target="_top" xlink:title=" ">
<polygon fill="white" stroke="black" points="381.481,-297 381.481,-316 521.481,-316 521.481,-297 381.481,-297"/>
<text text-anchor="middle" x="451.481" y="-304" font-family="Helvetica,sans-Serif" font-size="10.00">Display/DisplayElement.hpp</text>
</a>
</g>
</g>
<!-- Node1&#45;&gt;Node14 -->
<g id="edge21" class="edge"><title>Node1&#45;&gt;Node14</title>
<path fill="none" stroke="midnightblue" d="M546.646,-363.734C528.174,-352.818 496.41,-334.049 474.701,-321.221"/>
<polygon fill="midnightblue" stroke="midnightblue" points="476.471,-318.201 466.082,-316.127 472.91,-324.228 476.471,-318.201"/>
</g>
<!-- Node15 -->
<g id="node16" class="node"><title>Node15</title>
<g id="a_node16"><a xlink:href="../../dc/d77/DisplayInterface_8hpp.html" target="_top" xlink:title=" ">
<polygon fill="white" stroke="black" points="381.981,-230 381.981,-249 524.981,-249 524.981,-230 381.981,-230"/>
<text text-anchor="middle" x="453.481" y="-237" font-family="Helvetica,sans-Serif" font-size="10.00">Display/DisplayInterface.hpp</text>
</a>
</g>
</g>
<!-- Node1&#45;&gt;Node15 -->
<g id="edge29" class="edge"><title>Node1&#45;&gt;Node15</title>
<path fill="none" stroke="midnightblue" d="M560.004,-363.765C556.935,-347.813 548.593,-313.539 530.481,-291 517.59,-274.957 498.193,-262.279 482.093,-253.638"/>
<polygon fill="midnightblue" stroke="midnightblue" points="483.565,-250.46 473.068,-249.022 480.377,-256.692 483.565,-250.46"/>
</g>
<!-- Node18 -->
<g id="node19" class="node"><title>Node18</title>
<g id="a_node19"><a xlink:href="../../d7/d74/MillisTimer_8hpp.html" target="_top" xlink:title=" ">
<polygon fill="white" stroke="black" points="29.9815,-112.5 29.9815,-131.5 148.981,-131.5 148.981,-112.5 29.9815,-112.5"/>
<text text-anchor="middle" x="89.4815" y="-119.5" font-family="Helvetica,sans-Serif" font-size="10.00">Helpers/MillisTimer.hpp</text>
</a>
</g>
</g>
<!-- Node1&#45;&gt;Node18 -->
<g id="edge30" class="edge"><title>Node1&#45;&gt;Node18</title>
<path fill="none" stroke="midnightblue" d="M524.131,-363.994C485.705,-354.902 424.314,-339.419 372.481,-322 337.902,-310.38 331.652,-300.685 296.481,-291 244.91,-276.799 93.3621,-295.553 58.4815,-255 30.0577,-221.953 58.9711,-167.653 77.147,-140.134"/>
<polygon fill="midnightblue" stroke="midnightblue" points="80.2357,-141.82 83.0167,-131.596 74.4673,-137.854 80.2357,-141.82"/>
</g>
<!-- Node3 -->
<g id="node4" class="node"><title>Node3</title>
<g id="a_node4"><a xlink:href="../../d0/d4e/Def_8hpp.html" target="_top" xlink:title=" ">
<polygon fill="white" stroke="black" points="769.481,-168.5 769.481,-187.5 839.481,-187.5 839.481,-168.5 769.481,-168.5"/>
<text text-anchor="middle" x="804.481" y="-175.5" font-family="Helvetica,sans-Serif" font-size="10.00">Def/Def.hpp</text>
</a>
</g>
</g>
<!-- Node2&#45;&gt;Node3 -->
<g id="edge3" class="edge"><title>Node2&#45;&gt;Node3</title>
<path fill="none" stroke="midnightblue" d="M610.116,-291.35C585.765,-274.848 553.591,-246.907 572.481,-224 595.677,-195.873 698.476,-185.111 759.176,-181.16"/>
<polygon fill="midnightblue" stroke="midnightblue" points="759.497,-184.647 769.264,-180.54 759.068,-177.66 759.497,-184.647"/>
</g>
<!-- Node7 -->
<g id="node8" class="node"><title>Node7</title>
<g id="a_node8"><a xlink:href="../../d4/d36/MIDI__Parser_8h.html" target="_top" xlink:title=" ">
<polygon fill="white" stroke="black" points="67.4815,-230 67.4815,-249 211.481,-249 211.481,-230 67.4815,-230"/>
<text text-anchor="middle" x="139.481" y="-237" font-family="Helvetica,sans-Serif" font-size="10.00">MIDI_Parsers/MIDI_Parser.h</text>
</a>
</g>
</g>
<!-- Node2&#45;&gt;Node7 -->
<g id="edge8" class="edge"><title>Node2&#45;&gt;Node7</title>
<path fill="none" stroke="midnightblue" d="M577.368,-297.482C562.158,-295.341 545.693,-293.053 530.481,-291 422.071,-276.369 296.626,-260.323 217.671,-250.332"/>
<polygon fill="midnightblue" stroke="midnightblue" points="217.683,-246.806 207.323,-249.024 216.805,-253.751 217.683,-246.806"/>
</g>
<!-- Node4 -->
<g id="node5" class="node"><title>Node4</title>
<g id="a_node5"><a xlink:href="../../de/d76/Array_8hpp.html" target="_top" xlink:title=" ">
<polygon fill="white" stroke="black" points="756.981,-112.5 756.981,-131.5 851.981,-131.5 851.981,-112.5 756.981,-112.5"/>
<text text-anchor="middle" x="804.481" y="-119.5" font-family="Helvetica,sans-Serif" font-size="10.00">Helpers/Array.hpp</text>
</a>
</g>
</g>
<!-- Node3&#45;&gt;Node4 -->
<g id="edge4" class="edge"><title>Node3&#45;&gt;Node4</title>
<path fill="none" stroke="midnightblue" d="M804.481,-168.083C804.481,-161.006 804.481,-150.861 804.481,-141.986"/>
<polygon fill="midnightblue" stroke="midnightblue" points="807.982,-141.751 804.481,-131.751 800.982,-141.751 807.982,-141.751"/>
</g>
<!-- Node5 -->
<g id="node6" class="node"><title>Node5</title>
<g id="a_node6"><a xlink:title=" ">
<polygon fill="white" stroke="#bfbfbf" points="702.481,-56.5 702.481,-75.5 754.481,-75.5 754.481,-56.5 702.481,-56.5"/>
<text text-anchor="middle" x="728.481" y="-63.5" font-family="Helvetica,sans-Serif" font-size="10.00">stddef.h</text>
</a>
</g>
</g>
<!-- Node3&#45;&gt;Node5 -->
<g id="edge6" class="edge"><title>Node3&#45;&gt;Node5</title>
<path fill="none" stroke="midnightblue" d="M788.954,-168.465C776.046,-160.603 758.128,-147.783 747.481,-132 738.133,-118.141 733.308,-99.6255 730.865,-85.9012"/>
<polygon fill="midnightblue" stroke="midnightblue" points="734.28,-85.0728 729.327,-75.707 727.358,-86.1174 734.28,-85.0728"/>
</g>
<!-- Node6 -->
<g id="node7" class="node"><title>Node6</title>
<g id="a_node7"><a xlink:title=" ">
<polygon fill="white" stroke="#bfbfbf" points="597.981,-56.5 597.981,-75.5 646.981,-75.5 646.981,-56.5 597.981,-56.5"/>
<text text-anchor="middle" x="622.481" y="-63.5" font-family="Helvetica,sans-Serif" font-size="10.00">stdint.h</text>
</a>
</g>
</g>
<!-- Node3&#45;&gt;Node6 -->
<g id="edge7" class="edge"><title>Node3&#45;&gt;Node6</title>
<path fill="none" stroke="midnightblue" d="M769.25,-170.026C742.118,-163.433 704.616,-151.573 676.481,-132 658.304,-119.354 642.789,-99.0244 633.117,-84.4678"/>
<polygon fill="midnightblue" stroke="midnightblue" points="635.964,-82.4226 627.635,-75.8744 630.062,-86.1874 635.964,-82.4226"/>
</g>
<!-- Node4&#45;&gt;Node5 -->
<g id="edge5" class="edge"><title>Node4&#45;&gt;Node5</title>
<path fill="none" stroke="midnightblue" d="M792.271,-112.324C780.706,-104.107 763.106,-91.6017 749.321,-81.8069"/>
<polygon fill="midnightblue" stroke="midnightblue" points="751.093,-78.7729 740.914,-75.8339 747.039,-84.4791 751.093,-78.7729"/>
</g>
<!-- Node7&#45;&gt;Node5 -->
<g id="edge9" class="edge"><title>Node7&#45;&gt;Node5</title>
<path fill="none" stroke="midnightblue" d="M155.772,-229.947C182.357,-216.133 236.885,-188.401 284.481,-168 349.888,-139.966 365.614,-129.922 434.481,-112 482.627,-99.4705 624.862,-80.3078 692.267,-71.5962"/>
<polygon fill="midnightblue" stroke="midnightblue" points="692.945,-75.0379 702.417,-70.2904 692.052,-68.0951 692.945,-75.0379"/>
</g>
<!-- Node7&#45;&gt;Node6 -->
<g id="edge10" class="edge"><title>Node7&#45;&gt;Node6</title>
<path fill="none" stroke="midnightblue" d="M145.365,-229.855C163.338,-203.723 217.906,-126.458 244.481,-112 274.327,-95.7632 500.134,-76.575 587.819,-69.6541"/>
<polygon fill="midnightblue" stroke="midnightblue" points="588.108,-73.1422 597.805,-68.8719 587.562,-66.1635 588.108,-73.1422"/>
</g>
<!-- Node8 -->
<g id="node9" class="node"><title>Node8</title>
<g id="a_node9"><a xlink:title=" ">
<polygon fill="white" stroke="#bfbfbf" points="327.481,-56.5 327.481,-75.5 375.481,-75.5 375.481,-56.5 327.481,-56.5"/>
<text text-anchor="middle" x="351.481" y="-63.5" font-family="Helvetica,sans-Serif" font-size="10.00">stdlib.h</text>
</a>
</g>
</g>
<!-- Node7&#45;&gt;Node8 -->
<g id="edge11" class="edge"><title>Node7&#45;&gt;Node8</title>
<path fill="none" stroke="midnightblue" d="M141.405,-229.975C146.975,-207.263 165.278,-144.794 204.481,-112 236.669,-85.0755 284.768,-74.2492 317.093,-69.9031"/>
<polygon fill="midnightblue" stroke="midnightblue" points="317.893,-73.3322 327.404,-68.6638 317.058,-66.3822 317.893,-73.3322"/>
</g>
<!-- Node9 -->
<g id="node10" class="node"><title>Node9</title>
<g id="a_node10"><a xlink:href="../../d4/d6b/SettingsWrapper_8h.html" target="_top" xlink:title=" ">
<polygon fill="white" stroke="black" points="427.981,-168.5 427.981,-187.5 564.981,-187.5 564.981,-168.5 427.981,-168.5"/>
<text text-anchor="middle" x="496.481" y="-175.5" font-family="Helvetica,sans-Serif" font-size="10.00">Settings/SettingsWrapper.h</text>
</a>
</g>
</g>
<!-- Node7&#45;&gt;Node9 -->
<g id="edge12" class="edge"><title>Node7&#45;&gt;Node9</title>
<path fill="none" stroke="midnightblue" d="M190.631,-229.975C255.315,-219.194 366.555,-200.654 435.563,-189.153"/>
<polygon fill="midnightblue" stroke="midnightblue" points="436.138,-192.606 445.427,-187.509 434.988,-185.701 436.138,-192.606"/>
</g>
<!-- Node10 -->
<g id="node11" class="node"><title>Node10</title>
<g id="a_node11"><a xlink:href="../../dd/dbc/Settings_8h.html" target="_top" xlink:title="All user settings and debugging options can be changed here.">
<polygon fill="white" stroke="black" points="562.981,-112.5 562.981,-131.5 623.981,-131.5 623.981,-112.5 562.981,-112.5"/>
<text text-anchor="middle" x="593.481" y="-119.5" font-family="Helvetica,sans-Serif" font-size="10.00">Settings.h</text>
</a>
</g>
</g>
<!-- Node9&#45;&gt;Node10 -->
<g id="edge13" class="edge"><title>Node9&#45;&gt;Node10</title>
<path fill="none" stroke="midnightblue" d="M512.066,-168.324C527.481,-159.743 551.294,-146.486 569.191,-136.522"/>
<polygon fill="midnightblue" stroke="midnightblue" points="570.901,-139.577 577.935,-131.655 567.496,-133.461 570.901,-139.577"/>
</g>
<!-- Node11 -->
<g id="node12" class="node"><title>Node11</title>
<g id="a_node12"><a xlink:href="../../df/dee/Debug_8hpp.html" target="_top" xlink:title=" ">
<polygon fill="white" stroke="black" points="443.981,-112.5 443.981,-131.5 544.981,-131.5 544.981,-112.5 443.981,-112.5"/>
<text text-anchor="middle" x="494.481" y="-119.5" font-family="Helvetica,sans-Serif" font-size="10.00">Helpers/Debug.hpp</text>
</a>
</g>
</g>
<!-- Node9&#45;&gt;Node11 -->
<g id="edge16" class="edge"><title>Node9&#45;&gt;Node11</title>
<path fill="none" stroke="midnightblue" d="M490.985,-168.083C489.23,-161.006 488.417,-150.861 488.706,-141.986"/>
<polygon fill="midnightblue" stroke="midnightblue" points="492.217,-142.036 489.675,-131.751 485.248,-141.377 492.217,-142.036"/>
</g>
<!-- Node10&#45;&gt;Node5 -->
<g id="edge14" class="edge"><title>Node10&#45;&gt;Node5</title>
<path fill="none" stroke="midnightblue" d="M614.873,-112.444C637.189,-103.517 672.385,-89.4387 697.689,-79.3168"/>
<polygon fill="midnightblue" stroke="midnightblue" points="699.206,-82.4801 707.19,-75.5164 696.606,-75.9807 699.206,-82.4801"/>
</g>
<!-- Node10&#45;&gt;Node6 -->
<g id="edge15" class="edge"><title>Node10&#45;&gt;Node6</title>
<path fill="none" stroke="midnightblue" d="M598.27,-112.083C602.24,-104.691 608.007,-93.9533 612.916,-84.8111"/>
<polygon fill="midnightblue" stroke="midnightblue" points="616.134,-86.217 617.782,-75.7511 609.967,-82.9051 616.134,-86.217"/>
</g>
<!-- Node11&#45;&gt;Node8 -->
<g id="edge18" class="edge"><title>Node11&#45;&gt;Node8</title>
<path fill="none" stroke="midnightblue" d="M471.823,-112.444C448.08,-103.478 410.572,-89.314 383.743,-79.1827"/>
<polygon fill="midnightblue" stroke="midnightblue" points="384.626,-75.7749 374.034,-75.5164 382.153,-82.3235 384.626,-75.7749"/>
</g>
<!-- Node11&#45;&gt;Node9 -->
<g id="edge17" class="edge"><title>Node11&#45;&gt;Node9</title>
<path fill="none" stroke="midnightblue" d="M499.937,-131.751C501.726,-138.858 502.554,-149.136 502.254,-158.101"/>
<polygon fill="midnightblue" stroke="midnightblue" points="498.767,-157.8 501.318,-168.083 505.736,-158.454 498.767,-157.8"/>
</g>
<!-- Node12 -->
<g id="node13" class="node"><title>Node12</title>
<g id="a_node13"><a xlink:href="../../dc/d48/PrintStream_8h.html" target="_top" xlink:title=" ">
<polygon fill="white" stroke="black" points="424.981,-56.5 424.981,-75.5 501.981,-75.5 501.981,-56.5 424.981,-56.5"/>
<text text-anchor="middle" x="463.481" y="-63.5" font-family="Helvetica,sans-Serif" font-size="10.00">PrintStream.h</text>
</a>
</g>
</g>
<!-- Node11&#45;&gt;Node12 -->
<g id="edge19" class="edge"><title>Node11&#45;&gt;Node12</title>
<path fill="none" stroke="midnightblue" d="M489.362,-112.083C485.074,-104.613 478.823,-93.7244 473.539,-84.5199"/>
<polygon fill="midnightblue" stroke="midnightblue" points="476.519,-82.6811 468.505,-75.7511 470.449,-86.1662 476.519,-82.6811"/>
</g>
<!-- Node12&#45;&gt;Node13 -->
<g id="edge20" class="edge"><title>Node12&#45;&gt;Node13</title>
<path fill="none" stroke="midnightblue" d="M424.866,-59.4244C353.356,-49.0995 201.05,-27.1088 128.923,-16.6948"/>
<polygon fill="midnightblue" stroke="midnightblue" points="129.28,-13.2101 118.882,-15.245 128.279,-20.1382 129.28,-13.2101"/>
</g>
<!-- Node14&#45;&gt;Node15 -->
<g id="edge22" class="edge"><title>Node14&#45;&gt;Node15</title>
<path fill="none" stroke="midnightblue" d="M451.751,-296.734C452.045,-287.183 452.524,-271.618 452.904,-259.283"/>
<polygon fill="midnightblue" stroke="midnightblue" points="456.407,-259.23 453.216,-249.127 449.41,-259.015 456.407,-259.23"/>
</g>
<!-- Node16 -->
<g id="node17" class="node"><title>Node16</title>
<g id="a_node17"><a xlink:href="../../de/dd1/LinkedList_8hpp.html" target="_top" xlink:title=" ">
<polygon fill="white" stroke="black" points="293.481,-168.5 293.481,-187.5 409.481,-187.5 409.481,-168.5 293.481,-168.5"/>
<text text-anchor="middle" x="351.481" y="-175.5" font-family="Helvetica,sans-Serif" font-size="10.00">Helpers/LinkedList.hpp</text>
</a>
</g>
</g>
<!-- Node14&#45;&gt;Node16 -->
<g id="edge28" class="edge"><title>Node14&#45;&gt;Node16</title>
<path fill="none" stroke="midnightblue" d="M429.88,-296.963C411.94,-288.793 387.078,-274.777 372.481,-255 360.065,-238.176 354.989,-214.371 352.915,-197.906"/>
<polygon fill="midnightblue" stroke="midnightblue" points="356.387,-197.455 351.905,-187.855 349.422,-198.155 356.387,-197.455"/>
</g>
<!-- Node15&#45;&gt;Node3 -->
<g id="edge23" class="edge"><title>Node15&#45;&gt;Node3</title>
<path fill="none" stroke="midnightblue" d="M503.771,-229.975C572.146,-218.384 693.429,-197.825 759.137,-186.687"/>
<polygon fill="midnightblue" stroke="midnightblue" points="759.914,-190.105 769.189,-184.983 758.744,-183.203 759.914,-190.105"/>
</g>
<!-- Node15&#45;&gt;Node16 -->
<g id="edge24" class="edge"><title>Node15&#45;&gt;Node16</title>
<path fill="none" stroke="midnightblue" d="M438.867,-229.975C422.128,-220.211 394.477,-204.081 374.763,-192.581"/>
<polygon fill="midnightblue" stroke="midnightblue" points="376.47,-189.525 366.068,-187.509 372.943,-195.571 376.47,-189.525"/>
</g>
<!-- Node17 -->
<g id="node18" class="node"><title>Node17</title>
<g id="a_node18"><a xlink:title=" ">
<polygon fill="white" stroke="#bfbfbf" points="582.981,-168.5 582.981,-187.5 627.981,-187.5 627.981,-168.5 582.981,-168.5"/>
<text text-anchor="middle" x="605.481" y="-175.5" font-family="Helvetica,sans-Serif" font-size="10.00">Print.h</text>
</a>
</g>
</g>
<!-- Node15&#45;&gt;Node17 -->
<g id="edge27" class="edge"><title>Node15&#45;&gt;Node17</title>
<path fill="none" stroke="midnightblue" d="M475.259,-229.975C501.22,-219.813 544.793,-202.756 574.316,-191.2"/>
<polygon fill="midnightblue" stroke="midnightblue" points="575.708,-194.413 583.744,-187.509 573.156,-187.895 575.708,-194.413"/>
</g>
<!-- Node16&#45;&gt;Node8 -->
<g id="edge25" class="edge"><title>Node16&#45;&gt;Node8</title>
<path fill="none" stroke="midnightblue" d="M351.481,-168.368C351.481,-150.617 351.481,-109.666 351.481,-85.5974"/>
<polygon fill="midnightblue" stroke="midnightblue" points="354.982,-85.5914 351.481,-75.5914 347.982,-85.5915 354.982,-85.5914"/>
</g>
<!-- Node16&#45;&gt;Node11 -->
<g id="edge26" class="edge"><title>Node16&#45;&gt;Node11</title>
<path fill="none" stroke="midnightblue" d="M374.14,-168.444C397.883,-159.478 435.391,-145.314 462.22,-135.183"/>
<polygon fill="midnightblue" stroke="midnightblue" points="463.81,-138.324 471.929,-131.516 461.337,-131.775 463.81,-138.324"/>
</g>
<!-- Node18&#45;&gt;Node13 -->
<g id="edge31" class="edge"><title>Node18&#45;&gt;Node13</title>
<path fill="none" stroke="midnightblue" d="M89.4815,-112.368C89.4815,-94.617 89.4815,-53.6664 89.4815,-29.5974"/>
<polygon fill="midnightblue" stroke="midnightblue" points="92.9816,-29.5914 89.4815,-19.5914 85.9816,-29.5915 92.9816,-29.5914"/>
</g>
<!-- Node19&#45;&gt;Node3 -->
<g id="edge33" class="edge"><title>Node19&#45;&gt;Node3</title>
<path fill="none" stroke="midnightblue" d="M693.081,-224.399C717.578,-214.416 750.139,-201.147 773.727,-191.534"/>
<polygon fill="midnightblue" stroke="midnightblue" points="775.298,-194.673 783.237,-187.658 772.656,-188.191 775.298,-194.673"/>
</g>
<!-- Node19&#45;&gt;Node16 -->
<g id="edge34" class="edge"><title>Node19&#45;&gt;Node16</title>
<path fill="none" stroke="midnightblue" d="M586.116,-224.475C530.723,-213.739 455.55,-199.17 405.372,-189.445"/>
<polygon fill="midnightblue" stroke="midnightblue" points="405.855,-185.973 395.371,-187.506 404.523,-192.845 405.855,-185.973"/>
</g>
<!-- Node20&#45;&gt;Node16 -->
<g id="edge36" class="edge"><title>Node20&#45;&gt;Node16</title>
<path fill="none" stroke="midnightblue" d="M204.887,-427.996C182.347,-420.65 160.101,-408.637 146.481,-389 121.658,-353.211 121.064,-326.37 146.481,-291 175.762,-250.255 209.26,-278.706 253.481,-255 284.747,-238.239 316.362,-211.571 334.926,-194.692"/>
<polygon fill="midnightblue" stroke="midnightblue" points="337.524,-197.056 342.488,-187.696 332.771,-191.917 337.524,-197.056"/>
</g>
<!-- Node21 -->
<g id="node22" class="node"><title>Node21</title>
<g id="a_node22"><a xlink:href="../../d3/d9c/MIDIInputElementAddressable_8hpp.html" target="_top" xlink:title=" ">
<polygon fill="white" stroke="black" points="155.981,-358.5 155.981,-388.5 308.981,-388.5 308.981,-358.5 155.981,-358.5"/>
<text text-anchor="start" x="163.981" y="-376.5" font-family="Helvetica,sans-Serif" font-size="10.00">MIDI_Inputs/MIDIInputElement</text>
<text text-anchor="middle" x="232.481" y="-365.5" font-family="Helvetica,sans-Serif" font-size="10.00">Addressable.hpp</text>
</a>
</g>
</g>
<!-- Node20&#45;&gt;Node21 -->
<g id="edge37" class="edge"><title>Node20&#45;&gt;Node21</title>
<path fill="none" stroke="midnightblue" d="M270.849,-425.396C264.557,-417.049 256.444,-406.287 249.301,-396.811"/>
<polygon fill="midnightblue" stroke="midnightblue" points="251.908,-394.455 243.093,-388.577 246.318,-398.669 251.908,-394.455"/>
</g>
<!-- Node22 -->
<g id="node23" class="node"><title>Node22</title>
<g id="a_node23"><a xlink:href="../../db/df0/MIDI__message__matcher_8h.html" target="_top" xlink:title=" ">
<polygon fill="white" stroke="black" points="155.481,-297 155.481,-316 287.481,-316 287.481,-297 155.481,-297"/>
<text text-anchor="middle" x="221.481" y="-304" font-family="Helvetica,sans-Serif" font-size="10.00">MIDI_message_matcher.h</text>
</a>
</g>
</g>
<!-- Node21&#45;&gt;Node22 -->
<g id="edge38" class="edge"><title>Node21&#45;&gt;Node22</title>
<path fill="none" stroke="midnightblue" d="M230.095,-358.396C228.498,-348.963 226.38,-336.448 224.644,-326.189"/>
<polygon fill="midnightblue" stroke="midnightblue" points="228.072,-325.47 222.953,-316.195 221.171,-326.638 228.072,-325.47"/>
</g>
<!-- Node22&#45;&gt;Node7 -->
<g id="edge39" class="edge"><title>Node22&#45;&gt;Node7</title>
<path fill="none" stroke="midnightblue" d="M210.423,-296.734C197.144,-286.208 174.652,-268.379 158.553,-255.617"/>
<polygon fill="midnightblue" stroke="midnightblue" points="160.376,-252.596 150.365,-249.127 156.028,-258.082 160.376,-252.596"/>
</g>
<!-- Node23&#45;&gt;Node16 -->
<g id="edge43" class="edge"><title>Node23&#45;&gt;Node16</title>
<path fill="none" stroke="midnightblue" d="M459.456,-425.413C462.311,-407.954 464.38,-378.058 450.481,-358 428.736,-326.617 397.091,-351.192 372.481,-322 352.608,-298.426 359.118,-285.483 354.481,-255 351.57,-235.859 351.009,-213.712 351.062,-198.283"/>
<polygon fill="midnightblue" stroke="midnightblue" points="354.566,-197.997 351.193,-187.953 347.566,-197.908 354.566,-197.997"/>
</g>
<!-- Node24 -->
<g id="node25" class="node"><title>Node24</title>
<g id="a_node25"><a xlink:href="../../dc/d90/MIDIInputElement_8hpp.html" target="_top" xlink:title=" ">
<polygon fill="white" stroke="black" points="326.981,-364 326.981,-383 441.981,-383 441.981,-364 326.981,-364"/>
<text text-anchor="middle" x="384.481" y="-371" font-family="Helvetica,sans-Serif" font-size="10.00">MIDIInputElement.hpp</text>
</a>
</g>
</g>
<!-- Node23&#45;&gt;Node24 -->
<g id="edge41" class="edge"><title>Node23&#45;&gt;Node24</title>
<path fill="none" stroke="midnightblue" d="M440.859,-425.396C429.299,-414.96 413.559,-400.751 401.648,-389.998"/>
<polygon fill="midnightblue" stroke="midnightblue" points="403.88,-387.298 394.112,-383.195 399.19,-392.494 403.88,-387.298"/>
</g>
<!-- Node24&#45;&gt;Node22 -->
<g id="edge42" class="edge"><title>Node24&#45;&gt;Node22</title>
<path fill="none" stroke="midnightblue" d="M362.836,-363.869C334.505,-352.571 284.666,-332.696 252.372,-319.818"/>
<polygon fill="midnightblue" stroke="midnightblue" points="253.542,-316.517 242.957,-316.064 250.949,-323.019 253.542,-316.517"/>
</g>
<!-- Node25&#45;&gt;Node16 -->
<g id="edge46" class="edge"><title>Node25&#45;&gt;Node16</title>
<path fill="none" stroke="midnightblue" d="M107.721,-425.485C102.942,-396.916 96.3892,-331.251 127.481,-291 154.576,-255.924 182.971,-278.609 220.481,-255 237.512,-244.281 236.786,-235.234 253.481,-224 273.546,-210.498 298.314,-199.165 317.93,-191.249"/>
<polygon fill="midnightblue" stroke="midnightblue" points="319.355,-194.449 327.383,-187.536 316.796,-187.934 319.355,-194.449"/>
</g>
<!-- Node25&#45;&gt;Node21 -->
<g id="edge45" class="edge"><title>Node25&#45;&gt;Node21</title>
<path fill="none" stroke="midnightblue" d="M136.954,-425.396C154.539,-416.026 177.834,-403.615 197.017,-393.395"/>
<polygon fill="midnightblue" stroke="midnightblue" points="198.881,-396.368 206.061,-388.577 195.59,-390.19 198.881,-396.368"/>
</g>
<!-- Node26&#45;&gt;Node3 -->
<g id="edge55" class="edge"><title>Node26&#45;&gt;Node3</title>
<path fill="none" stroke="midnightblue" d="M950.252,-291.309C958.701,-273.742 969.165,-243.736 954.481,-224 941.828,-206.994 888.941,-194.01 849.525,-186.457"/>
<polygon fill="midnightblue" stroke="midnightblue" points="850.045,-182.994 839.574,-184.609 848.767,-189.876 850.045,-182.994"/>
</g>
<!-- Node27 -->
<g id="node28" class="node"><title>Node27</title>
<g id="a_node28"><a xlink:href="../../d4/d93/Updatable_8hpp.html" target="_top" xlink:title=" ">
<polygon fill="white" stroke="black" points="829.481,-230 829.481,-249 945.481,-249 945.481,-230 829.481,-230"/>
<text text-anchor="middle" x="887.481" y="-237" font-family="Helvetica,sans-Serif" font-size="10.00">Helpers/Updatable.hpp</text>
</a>
</g>
</g>
<!-- Node26&#45;&gt;Node27 -->
<g id="edge48" class="edge"><title>Node26&#45;&gt;Node27</title>
<path fill="none" stroke="midnightblue" d="M930.547,-291.396C921.972,-281.261 910.385,-267.567 901.39,-256.937"/>
<polygon fill="midnightblue" stroke="midnightblue" points="903.97,-254.568 894.838,-249.195 898.626,-259.089 903.97,-254.568"/>
</g>
<!-- Node27&#45;&gt;Node3 -->
<g id="edge54" class="edge"><title>Node27&#45;&gt;Node3</title>
<path fill="none" stroke="midnightblue" d="M875.59,-229.975C862.277,-220.431 840.482,-204.807 824.525,-193.368"/>
<polygon fill="midnightblue" stroke="midnightblue" points="826.518,-190.491 816.351,-187.509 822.44,-196.18 826.518,-190.491"/>
</g>
<!-- Node27&#45;&gt;Node5 -->
<g id="edge53" class="edge"><title>Node27&#45;&gt;Node5</title>
<path fill="none" stroke="midnightblue" d="M888.31,-229.866C889.965,-207.422 891.202,-146.587 860.481,-112 836.247,-84.7148 794.79,-73.9598 764.793,-69.7284"/>
<polygon fill="midnightblue" stroke="midnightblue" points="765.06,-66.235 754.707,-68.4874 764.205,-73.1826 765.06,-66.235"/>
</g>
<!-- Node27&#45;&gt;Node9 -->
<g id="edge52" class="edge"><title>Node27&#45;&gt;Node9</title>
<path fill="none" stroke="midnightblue" d="M831.461,-229.975C760.471,-219.172 638.282,-200.578 562.738,-189.083"/>
<polygon fill="midnightblue" stroke="midnightblue" points="562.811,-185.553 552.398,-187.509 561.758,-192.474 562.811,-185.553"/>
</g>
<!-- Node27&#45;&gt;Node16 -->
<g id="edge51" class="edge"><title>Node27&#45;&gt;Node16</title>
<path fill="none" stroke="midnightblue" d="M829.254,-232.424C725.783,-221.595 512.758,-199.154 419.54,-188.093"/>
<polygon fill="midnightblue" stroke="midnightblue" points="419.92,-184.614 409.574,-186.898 419.087,-191.564 419.92,-184.614"/>
</g>
<!-- Node28 -->
<g id="node29" class="node"><title>Node28</title>
<g id="a_node29"><a xlink:href="../../d1/d93/Error_8hpp.html" target="_top" xlink:title=" ">
<polygon fill="white" stroke="black" points="902.981,-168.5 902.981,-187.5 995.981,-187.5 995.981,-168.5 902.981,-168.5"/>
<text text-anchor="middle" x="949.481" y="-175.5" font-family="Helvetica,sans-Serif" font-size="10.00">Helpers/Error.hpp</text>
</a>
</g>
</g>
<!-- Node27&#45;&gt;Node28 -->
<g id="edge49" class="edge"><title>Node27&#45;&gt;Node28</title>
<path fill="none" stroke="midnightblue" d="M896.365,-229.975C905.941,-220.785 921.393,-205.956 933.168,-194.656"/>
<polygon fill="midnightblue" stroke="midnightblue" points="935.823,-196.958 940.615,-187.509 930.976,-191.908 935.823,-196.958"/>
</g>
<!-- Node28&#45;&gt;Node11 -->
<g id="edge50" class="edge"><title>Node28&#45;&gt;Node11</title>
<path fill="none" stroke="midnightblue" d="M902.775,-172.277C830.521,-164.842 687.037,-149.568 555.267,-132.197"/>
<polygon fill="midnightblue" stroke="midnightblue" points="555.367,-128.68 544.994,-130.835 554.447,-135.619 555.367,-128.68"/>
</g>
<!-- Node29&#45;&gt;Node3 -->
<g id="edge64" class="edge"><title>Node29&#45;&gt;Node3</title>
<path fill="none" stroke="midnightblue" d="M803.55,-296.805C803.711,-276.494 804.113,-225.553 804.333,-197.777"/>
<polygon fill="midnightblue" stroke="midnightblue" points="807.833,-197.783 804.412,-187.756 800.833,-197.728 807.833,-197.783"/>
</g>
<!-- Node29&#45;&gt;Node11 -->
<g id="edge62" class="edge"><title>Node29&#45;&gt;Node11</title>
<path fill="none" stroke="midnightblue" d="M799.026,-296.871C790.372,-280.791 769.888,-245.894 744.481,-224 687.063,-174.52 602.263,-147.226 547.691,-133.848"/>
<polygon fill="midnightblue" stroke="midnightblue" points="548.405,-130.42 537.867,-131.51 546.784,-137.23 548.405,-130.42"/>
</g>
<!-- Node29&#45;&gt;Node27 -->
<g id="edge63" class="edge"><title>Node29&#45;&gt;Node27</title>
<path fill="none" stroke="midnightblue" d="M814.81,-296.734C828.539,-286.111 851.88,-268.049 868.402,-255.264"/>
<polygon fill="midnightblue" stroke="midnightblue" points="870.566,-258.015 876.332,-249.127 866.282,-252.479 870.566,-258.015"/>
</g>
<!-- Node30 -->
<g id="node31" class="node"><title>Node30</title>
<g id="a_node31"><a xlink:href="../../d9/d46/Selectable_8hpp.html" target="_top" xlink:title=" ">
<polygon fill="white" stroke="black" points="1001.98,-230 1001.98,-249 1082.98,-249 1082.98,-230 1001.98,-230"/>
<text text-anchor="middle" x="1042.48" y="-237" font-family="Helvetica,sans-Serif" font-size="10.00">Selectable.hpp</text>
</a>
</g>
</g>
<!-- Node29&#45;&gt;Node30 -->
<g id="edge57" class="edge"><title>Node29&#45;&gt;Node30</title>
<path fill="none" stroke="midnightblue" d="M835.219,-296.869C877.924,-285.254 953.957,-264.576 1001.11,-251.753"/>
<polygon fill="midnightblue" stroke="midnightblue" points="1002.26,-255.065 1010.99,-249.064 1000.43,-248.311 1002.26,-255.065"/>
</g>
<!-- Node30&#45;&gt;Node3 -->
<g id="edge58" class="edge"><title>Node30&#45;&gt;Node3</title>
<path fill="none" stroke="midnightblue" d="M1010.51,-229.976C1002.97,-227.99 994.945,-225.901 987.481,-224 940.534,-212.04 886.67,-198.86 849.598,-189.873"/>
<polygon fill="midnightblue" stroke="midnightblue" points="850.15,-186.405 839.607,-187.454 848.503,-193.209 850.15,-186.405"/>
</g>
<!-- Node30&#45;&gt;Node6 -->
<g id="edge60" class="edge"><title>Node30&#45;&gt;Node6</title>
<path fill="none" stroke="midnightblue" d="M1040.65,-229.872C1036.94,-214.626 1026.96,-183.111 1005.48,-168 910.788,-101.384 857.773,-167.217 747.481,-132 709.015,-119.717 668.178,-96.2454 644.025,-81.1234"/>
<polygon fill="midnightblue" stroke="midnightblue" points="645.648,-78.0074 635.333,-75.5884 641.888,-83.9119 645.648,-78.0074"/>
</g>
<!-- Node30&#45;&gt;Node28 -->
<g id="edge59" class="edge"><title>Node30&#45;&gt;Node28</title>
<path fill="none" stroke="midnightblue" d="M1029.16,-229.975C1014.1,-220.343 989.366,-204.517 971.445,-193.052"/>
<polygon fill="midnightblue" stroke="midnightblue" points="973.091,-189.95 962.781,-187.509 969.319,-195.847 973.091,-189.95"/>
</g>
<!-- Node31 -->
<g id="node32" class="node"><title>Node31</title>
<g id="a_node32"><a xlink:href="../../d7/dd7/Helpers_8hpp.html" target="_top" xlink:title=" ">
<polygon fill="white" stroke="black" points="1052.48,-168.5 1052.48,-187.5 1158.48,-187.5 1158.48,-168.5 1052.48,-168.5"/>
<text text-anchor="middle" x="1105.48" y="-175.5" font-family="Helvetica,sans-Serif" font-size="10.00">Helpers/Helpers.hpp</text>
</a>
</g>
</g>
<!-- Node30&#45;&gt;Node31 -->
<g id="edge61" class="edge"><title>Node30&#45;&gt;Node31</title>
<path fill="none" stroke="midnightblue" d="M1051.51,-229.975C1061.24,-220.785 1076.94,-205.956 1088.9,-194.656"/>
<polygon fill="midnightblue" stroke="midnightblue" points="1091.6,-196.92 1096.47,-187.509 1086.8,-191.831 1091.6,-196.92"/>
</g>
</g>
</svg>
