<?xml version="1.0" encoding="UTF-8" standalone="no"?>
<!DOCTYPE svg PUBLIC "-//W3C//DTD SVG 1.1//EN"
 "http://www.w3.org/Graphics/SVG/1.1/DTD/svg11.dtd">
<!-- Generated by graphviz version 2.38.0 (20140413.2041)
 -->
<!-- Title: Control_Surface_Class.cpp Pages: 1 -->
<svg width="1419pt" height="576pt"
 viewBox="0.00 0.00 1419.00 576.00" xmlns="http://www.w3.org/2000/svg" xmlns:xlink="http://www.w3.org/1999/xlink">
<g id="graph0" class="graph" transform="scale(1 1) rotate(0) translate(4 572)">
<title>Control_Surface_Class.cpp</title>
<polygon fill="white" stroke="none" points="-4,4 -4,-572 1415,-572 1415,4 -4,4"/>
<!-- Node0 -->
<g id="node1" class="node"><title>Node0</title>
<g id="a_node1"><a xlink:title=" ">
<polygon fill="#bfbfbf" stroke="black" points="712.5,-548.5 712.5,-567.5 849.5,-567.5 849.5,-548.5 712.5,-548.5"/>
<text text-anchor="middle" x="781" y="-555.5" font-family="Helvetica,sans-Serif" font-size="10.00">Control_Surface_Class.cpp</text>
</a>
</g>
</g>
<!-- Node1 -->
<g id="node2" class="node"><title>Node1</title>
<g id="a_node2"><a xlink:href="../../d3/d37/Control__Surface__Class_8hpp.html" target="_top" xlink:title=" ">
<polygon fill="white" stroke="black" points="105.5,-420 105.5,-439 242.5,-439 242.5,-420 105.5,-420"/>
<text text-anchor="middle" x="174" y="-427" font-family="Helvetica,sans-Serif" font-size="10.00">Control_Surface_Class.hpp</text>
</a>
</g>
</g>
<!-- Node0&#45;&gt;Node1 -->
<g id="edge1" class="edge"><title>Node0&#45;&gt;Node1</title>
<path fill="none" stroke="midnightblue" d="M712.299,-556.538C626.699,-554.433 476.63,-545.685 353,-512 294.529,-496.069 231.097,-463.055 197.687,-444.302"/>
<polygon fill="midnightblue" stroke="midnightblue" points="199.127,-441.095 188.704,-439.195 195.667,-447.18 199.127,-441.095"/>
</g>
<!-- Node16 -->
<g id="node17" class="node"><title>Node16</title>
<g id="a_node17"><a xlink:title=" ">
<polygon fill="white" stroke="#bfbfbf" points="59,-56.5 59,-75.5 117,-75.5 117,-56.5 59,-56.5"/>
<text text-anchor="middle" x="88" y="-63.5" font-family="Helvetica,sans-Serif" font-size="10.00">Arduino.h</text>
</a>
</g>
</g>
<!-- Node0&#45;&gt;Node16 -->
<g id="edge72" class="edge"><title>Node0&#45;&gt;Node16</title>
<path fill="none" stroke="midnightblue" d="M712.376,-553.074C521.798,-541.26 0,-502.355 0,-430.5 0,-430.5 0,-430.5 0,-177 0,-135.032 39.5408,-99.9022 65.6125,-81.3001"/>
<polygon fill="midnightblue" stroke="midnightblue" points="67.5966,-84.1834 73.8613,-75.6391 63.6357,-78.4118 67.5966,-84.1834"/>
</g>
<!-- Node22 -->
<g id="node23" class="node"><title>Node22</title>
<g id="a_node23"><a xlink:href="../../d4/d57/ExtendedIOElement_8hpp.html" target="_top" xlink:title=" ">
<polygon fill="white" stroke="black" points="809,-280.5 809,-310.5 963,-310.5 963,-280.5 809,-280.5"/>
<text text-anchor="start" x="817" y="-298.5" font-family="Helvetica,sans-Serif" font-size="10.00">Hardware/ExtendedInputOutput</text>
<text text-anchor="middle" x="886" y="-287.5" font-family="Helvetica,sans-Serif" font-size="10.00">/ExtendedIOElement.hpp</text>
</a>
</g>
</g>
<!-- Node0&#45;&gt;Node22 -->
<g id="edge36" class="edge"><title>Node0&#45;&gt;Node22</title>
<path fill="none" stroke="midnightblue" d="M812.9,-548.46C831.553,-541.727 853.77,-530.336 866,-512 905.51,-452.763 897.485,-363.139 890.65,-320.576"/>
<polygon fill="midnightblue" stroke="midnightblue" points="894.075,-319.84 888.924,-310.582 887.177,-321.031 894.075,-319.84"/>
</g>
<!-- Node23 -->
<g id="node24" class="node"><title>Node23</title>
<g id="a_node24"><a xlink:href="../../df/de0/MIDIInputElementCC_8hpp.html" target="_top" xlink:title=" ">
<polygon fill="white" stroke="black" points="362.5,-481.5 362.5,-511.5 515.5,-511.5 515.5,-481.5 362.5,-481.5"/>
<text text-anchor="start" x="370.5" y="-499.5" font-family="Helvetica,sans-Serif" font-size="10.00">MIDI_Inputs/MIDIInputElement</text>
<text text-anchor="middle" x="439" y="-488.5" font-family="Helvetica,sans-Serif" font-size="10.00">CC.hpp</text>
</a>
</g>
</g>
<!-- Node0&#45;&gt;Node23 -->
<g id="edge39" class="edge"><title>Node0&#45;&gt;Node23</title>
<path fill="none" stroke="midnightblue" d="M732,-548.475C678.241,-539.122 590.917,-523.93 525.562,-512.56"/>
<polygon fill="midnightblue" stroke="midnightblue" points="526.13,-509.106 515.678,-510.84 524.93,-516.003 526.13,-509.106"/>
</g>
<!-- Node26 -->
<g id="node27" class="node"><title>Node26</title>
<g id="a_node27"><a xlink:href="../../d8/d4f/MIDIInputElementChannelPressure_8hpp.html" target="_top" xlink:title=" ">
<polygon fill="white" stroke="black" points="533.5,-481.5 533.5,-511.5 686.5,-511.5 686.5,-481.5 533.5,-481.5"/>
<text text-anchor="start" x="541.5" y="-499.5" font-family="Helvetica,sans-Serif" font-size="10.00">MIDI_Inputs/MIDIInputElement</text>
<text text-anchor="middle" x="610" y="-488.5" font-family="Helvetica,sans-Serif" font-size="10.00">ChannelPressure.hpp</text>
</a>
</g>
</g>
<!-- Node0&#45;&gt;Node26 -->
<g id="edge45" class="edge"><title>Node0&#45;&gt;Node26</title>
<path fill="none" stroke="midnightblue" d="M756.5,-548.475C731.392,-539.739 691.641,-525.907 659.877,-514.855"/>
<polygon fill="midnightblue" stroke="midnightblue" points="660.896,-511.504 650.301,-511.523 658.596,-518.115 660.896,-511.504"/>
</g>
<!-- Node27 -->
<g id="node28" class="node"><title>Node27</title>
<g id="a_node28"><a xlink:href="../../d5/d5f/MIDIInputElementNote_8hpp.html" target="_top" xlink:title=" ">
<polygon fill="white" stroke="black" points="704.5,-481.5 704.5,-511.5 857.5,-511.5 857.5,-481.5 704.5,-481.5"/>
<text text-anchor="start" x="712.5" y="-499.5" font-family="Helvetica,sans-Serif" font-size="10.00">MIDI_Inputs/MIDIInputElement</text>
<text text-anchor="middle" x="781" y="-488.5" font-family="Helvetica,sans-Serif" font-size="10.00">Note.hpp</text>
</a>
</g>
</g>
<!-- Node0&#45;&gt;Node27 -->
<g id="edge48" class="edge"><title>Node0&#45;&gt;Node27</title>
<path fill="none" stroke="midnightblue" d="M781,-548.475C781,-541.471 781,-531.192 781,-521.696"/>
<polygon fill="midnightblue" stroke="midnightblue" points="784.5,-521.523 781,-511.523 777.5,-521.523 784.5,-521.523"/>
</g>
<!-- Node28 -->
<g id="node29" class="node"><title>Node28</title>
<g id="a_node29"><a xlink:href="../../d1/d41/MIDIOutputElement_8hpp.html" target="_top" xlink:title=" ">
<polygon fill="white" stroke="black" points="914.5,-347.5 914.5,-377.5 1039.5,-377.5 1039.5,-347.5 914.5,-347.5"/>
<text text-anchor="start" x="922.5" y="-365.5" font-family="Helvetica,sans-Serif" font-size="10.00">MIDI_Outputs/Abstract</text>
<text text-anchor="middle" x="977" y="-354.5" font-family="Helvetica,sans-Serif" font-size="10.00">/MIDIOutputElement.hpp</text>
</a>
</g>
</g>
<!-- Node0&#45;&gt;Node28 -->
<g id="edge51" class="edge"><title>Node0&#45;&gt;Node28</title>
<path fill="none" stroke="midnightblue" d="M825.231,-548.438C849.59,-541.864 879.041,-530.643 900,-512 938.376,-477.864 960.478,-420.018 970.476,-387.514"/>
<polygon fill="midnightblue" stroke="midnightblue" points="973.836,-388.495 973.302,-377.914 967.121,-386.519 973.836,-388.495"/>
</g>
<!-- Node31 -->
<g id="node32" class="node"><title>Node31</title>
<g id="a_node32"><a xlink:href="../../d6/d16/Selector_8hpp.html" target="_top" xlink:title=" ">
<polygon fill="white" stroke="black" points="1058,-353 1058,-372 1174,-372 1174,-353 1058,-353"/>
<text text-anchor="middle" x="1116" y="-360" font-family="Helvetica,sans-Serif" font-size="10.00">Selectors/Selector.hpp</text>
</a>
</g>
</g>
<!-- Node0&#45;&gt;Node31 -->
<g id="edge61" class="edge"><title>Node0&#45;&gt;Node31</title>
<path fill="none" stroke="midnightblue" d="M822.541,-548.497C852.654,-541.325 893.753,-529.414 927,-512 998.26,-474.677 1069.37,-409.358 1100.15,-379.37"/>
<polygon fill="midnightblue" stroke="midnightblue" points="1102.74,-381.734 1107.41,-372.223 1097.82,-376.747 1102.74,-381.734"/>
</g>
<!-- Node34 -->
<g id="node35" class="node"><title>Node34</title>
<g id="a_node35"><a xlink:href="../../d9/d43/Control__Change_8hpp.html" target="_top" xlink:title=" ">
<polygon fill="white" stroke="black" points="1254.5,-414.5 1254.5,-444.5 1377.5,-444.5 1377.5,-414.5 1254.5,-414.5"/>
<text text-anchor="start" x="1262.5" y="-432.5" font-family="Helvetica,sans-Serif" font-size="10.00">MIDI_Constants/Control</text>
<text text-anchor="middle" x="1316" y="-421.5" font-family="Helvetica,sans-Serif" font-size="10.00">_Change.hpp</text>
</a>
</g>
</g>
<!-- Node0&#45;&gt;Node34 -->
<g id="edge70" class="edge"><title>Node0&#45;&gt;Node34</title>
<path fill="none" stroke="midnightblue" d="M849.547,-549.275C907.652,-541.99 992.942,-529.559 1066,-512 1138.41,-494.598 1220.05,-466.281 1269.75,-448.026"/>
<polygon fill="midnightblue" stroke="midnightblue" points="1271.09,-451.264 1279.25,-444.515 1268.66,-444.698 1271.09,-451.264"/>
</g>
<!-- Node2 -->
<g id="node3" class="node"><title>Node2</title>
<g id="a_node3"><a xlink:href="../../d6/d04/MIDI__Interface_8hpp.html" target="_top" xlink:title=" ">
<polygon fill="white" stroke="black" points="424,-347.5 424,-377.5 536,-377.5 536,-347.5 424,-347.5"/>
<text text-anchor="start" x="432" y="-365.5" font-family="Helvetica,sans-Serif" font-size="10.00">MIDI_Interfaces/MIDI</text>
<text text-anchor="middle" x="480" y="-354.5" font-family="Helvetica,sans-Serif" font-size="10.00">_Interface.hpp</text>
</a>
</g>
</g>
<!-- Node1&#45;&gt;Node2 -->
<g id="edge2" class="edge"><title>Node1&#45;&gt;Node2</title>
<path fill="none" stroke="midnightblue" d="M215.217,-419.943C263.046,-409.987 344.274,-392.995 414,-378 414.1,-377.978 414.201,-377.957 414.301,-377.935"/>
<polygon fill="midnightblue" stroke="midnightblue" points="414.803,-381.408 423.838,-375.874 413.324,-374.566 414.803,-381.408"/>
</g>
<!-- Node17 -->
<g id="node18" class="node"><title>Node17</title>
<g id="a_node18"><a xlink:href="../../d6/dd2/DisplayElement_8hpp.html" target="_top" xlink:title=" ">
<polygon fill="white" stroke="black" points="104,-353 104,-372 244,-372 244,-353 104,-353"/>
<text text-anchor="middle" x="174" y="-360" font-family="Helvetica,sans-Serif" font-size="10.00">Display/DisplayElement.hpp</text>
</a>
</g>
</g>
<!-- Node1&#45;&gt;Node17 -->
<g id="edge25" class="edge"><title>Node1&#45;&gt;Node17</title>
<path fill="none" stroke="midnightblue" d="M174,-419.734C174,-410.183 174,-394.618 174,-382.283"/>
<polygon fill="midnightblue" stroke="midnightblue" points="177.5,-382.127 174,-372.127 170.5,-382.127 177.5,-382.127"/>
</g>
<!-- Node18 -->
<g id="node19" class="node"><title>Node18</title>
<g id="a_node19"><a xlink:href="../../dc/d77/DisplayInterface_8hpp.html" target="_top" xlink:title=" ">
<polygon fill="white" stroke="black" points="102.5,-286 102.5,-305 245.5,-305 245.5,-286 102.5,-286"/>
<text text-anchor="middle" x="174" y="-293" font-family="Helvetica,sans-Serif" font-size="10.00">Display/DisplayInterface.hpp</text>
</a>
</g>
</g>
<!-- Node1&#45;&gt;Node18 -->
<g id="edge33" class="edge"><title>Node1&#45;&gt;Node18</title>
<path fill="none" stroke="midnightblue" d="M148.717,-419.927C130.176,-412.154 106.337,-398.702 95,-378 88.3824,-365.916 88.3824,-359.084 95,-347 104.477,-329.694 122.69,-317.455 139.242,-309.364"/>
<polygon fill="midnightblue" stroke="midnightblue" points="141.052,-312.387 148.717,-305.073 138.164,-306.01 141.052,-312.387"/>
</g>
<!-- Node21 -->
<g id="node22" class="node"><title>Node21</title>
<g id="a_node22"><a xlink:href="../../d7/d74/MillisTimer_8hpp.html" target="_top" xlink:title=" ">
<polygon fill="white" stroke="black" points="28.5,-168.5 28.5,-187.5 147.5,-187.5 147.5,-168.5 28.5,-168.5"/>
<text text-anchor="middle" x="88" y="-175.5" font-family="Helvetica,sans-Serif" font-size="10.00">Helpers/MillisTimer.hpp</text>
</a>
</g>
</g>
<!-- Node1&#45;&gt;Node21 -->
<g id="edge34" class="edge"><title>Node1&#45;&gt;Node21</title>
<path fill="none" stroke="midnightblue" d="M144.114,-419.842C124.076,-412.305 99.2004,-399.189 87,-378 53.4096,-319.663 71.5303,-234.85 82.1051,-197.656"/>
<polygon fill="midnightblue" stroke="midnightblue" points="85.5634,-198.308 85.0791,-187.725 78.8576,-196.3 85.5634,-198.308"/>
</g>
<!-- Node3 -->
<g id="node4" class="node"><title>Node3</title>
<g id="a_node4"><a xlink:href="../../d0/d4e/Def_8hpp.html" target="_top" xlink:title=" ">
<polygon fill="white" stroke="black" points="705,-112.5 705,-131.5 775,-131.5 775,-112.5 705,-112.5"/>
<text text-anchor="middle" x="740" y="-119.5" font-family="Helvetica,sans-Serif" font-size="10.00">Def/Def.hpp</text>
</a>
</g>
</g>
<!-- Node2&#45;&gt;Node3 -->
<g id="edge3" class="edge"><title>Node2&#45;&gt;Node3</title>
<path fill="none" stroke="midnightblue" d="M478.371,-347.279C476.072,-320.2 474.972,-260.67 504,-224 551.296,-164.254 640.69,-139.262 694.85,-129.251"/>
<polygon fill="midnightblue" stroke="midnightblue" points="695.616,-132.67 704.862,-127.497 694.408,-125.775 695.616,-132.67"/>
</g>
<!-- Node9 -->
<g id="node10" class="node"><title>Node9</title>
<g id="a_node10"><a xlink:href="../../d8/d38/MIDICNChannelAddress_8hpp.html" target="_top" xlink:title=" ">
<polygon fill="white" stroke="black" points="589.5,-286 589.5,-305 752.5,-305 752.5,-286 589.5,-286"/>
<text text-anchor="middle" x="671" y="-293" font-family="Helvetica,sans-Serif" font-size="10.00">Def/MIDICNChannelAddress.hpp</text>
</a>
</g>
</g>
<!-- Node2&#45;&gt;Node9 -->
<g id="edge11" class="edge"><title>Node2&#45;&gt;Node9</title>
<path fill="none" stroke="midnightblue" d="M521.444,-347.396C555.847,-335.688 604.205,-319.231 636.521,-308.234"/>
<polygon fill="midnightblue" stroke="midnightblue" points="637.663,-311.542 646.003,-305.007 635.408,-304.915 637.663,-311.542"/>
</g>
<!-- Node10 -->
<g id="node11" class="node"><title>Node10</title>
<g id="a_node11"><a xlink:href="../../d7/d2d/MIDI__Parser_8hpp.html" target="_top" xlink:title=" ">
<polygon fill="white" stroke="black" points="263.5,-286 263.5,-305 418.5,-305 418.5,-286 263.5,-286"/>
<text text-anchor="middle" x="341" y="-293" font-family="Helvetica,sans-Serif" font-size="10.00">MIDI_Parsers/MIDI_Parser.hpp</text>
</a>
</g>
</g>
<!-- Node2&#45;&gt;Node10 -->
<g id="edge13" class="edge"><title>Node2&#45;&gt;Node10</title>
<path fill="none" stroke="midnightblue" d="M449.839,-347.396C425.558,-336.041 391.725,-320.22 368.252,-309.244"/>
<polygon fill="midnightblue" stroke="midnightblue" points="369.733,-306.073 359.192,-305.007 366.768,-312.414 369.733,-306.073"/>
</g>
<!-- Node4 -->
<g id="node5" class="node"><title>Node4</title>
<g id="a_node5"><a xlink:href="../../d7/d42/Channel_8hpp.html" target="_top" xlink:title=" ">
<polygon fill="white" stroke="black" points="1163.5,-56.5 1163.5,-75.5 1234.5,-75.5 1234.5,-56.5 1163.5,-56.5"/>
<text text-anchor="middle" x="1199" y="-63.5" font-family="Helvetica,sans-Serif" font-size="10.00">Channel.hpp</text>
</a>
</g>
</g>
<!-- Node3&#45;&gt;Node4 -->
<g id="edge4" class="edge"><title>Node3&#45;&gt;Node4</title>
<path fill="none" stroke="midnightblue" d="M775.255,-116.852C857.422,-107.186 1061.61,-83.1636 1153.23,-72.3846"/>
<polygon fill="midnightblue" stroke="midnightblue" points="1153.79,-75.8435 1163.31,-71.1989 1152.97,-68.8914 1153.79,-75.8435"/>
</g>
<!-- Node5 -->
<g id="node6" class="node"><title>Node5</title>
<g id="a_node6"><a xlink:title=" ">
<polygon fill="white" stroke="#bfbfbf" points="1174.5,-0.5 1174.5,-19.5 1223.5,-19.5 1223.5,-0.5 1174.5,-0.5"/>
<text text-anchor="middle" x="1199" y="-7.5" font-family="Helvetica,sans-Serif" font-size="10.00">stdint.h</text>
</a>
</g>
</g>
<!-- Node3&#45;&gt;Node5 -->
<g id="edge10" class="edge"><title>Node3&#45;&gt;Node5</title>
<path fill="none" stroke="midnightblue" d="M775.255,-112.551C861.001,-92.002 1079.63,-39.6077 1164.54,-19.2577"/>
<polygon fill="midnightblue" stroke="midnightblue" points="1165.54,-22.6175 1174.45,-16.8832 1163.91,-15.8102 1165.54,-22.6175"/>
</g>
<!-- Node6 -->
<g id="node7" class="node"><title>Node6</title>
<g id="a_node7"><a xlink:href="../../dc/d50/Frequency_8hpp.html" target="_top" xlink:title=" ">
<polygon fill="white" stroke="black" points="593.5,-56.5 593.5,-75.5 674.5,-75.5 674.5,-56.5 593.5,-56.5"/>
<text text-anchor="middle" x="634" y="-63.5" font-family="Helvetica,sans-Serif" font-size="10.00">Frequency.hpp</text>
</a>
</g>
</g>
<!-- Node3&#45;&gt;Node6 -->
<g id="edge6" class="edge"><title>Node3&#45;&gt;Node6</title>
<path fill="none" stroke="midnightblue" d="M722.969,-112.324C705.97,-103.664 679.624,-90.2424 660.007,-80.249"/>
<polygon fill="midnightblue" stroke="midnightblue" points="661.488,-77.0752 650.988,-75.6545 658.31,-83.3125 661.488,-77.0752"/>
</g>
<!-- Node7 -->
<g id="node8" class="node"><title>Node7</title>
<g id="a_node8"><a xlink:href="../../de/d76/Array_8hpp.html" target="_top" xlink:title=" ">
<polygon fill="white" stroke="black" points="692.5,-56.5 692.5,-75.5 787.5,-75.5 787.5,-56.5 692.5,-56.5"/>
<text text-anchor="middle" x="740" y="-63.5" font-family="Helvetica,sans-Serif" font-size="10.00">Helpers/Array.hpp</text>
</a>
</g>
</g>
<!-- Node3&#45;&gt;Node7 -->
<g id="edge7" class="edge"><title>Node3&#45;&gt;Node7</title>
<path fill="none" stroke="midnightblue" d="M740,-112.083C740,-105.006 740,-94.8611 740,-85.9865"/>
<polygon fill="midnightblue" stroke="midnightblue" points="743.5,-85.751 740,-75.7511 736.5,-85.7511 743.5,-85.751"/>
</g>
<!-- Node8 -->
<g id="node9" class="node"><title>Node8</title>
<g id="a_node9"><a xlink:title=" ">
<polygon fill="white" stroke="#bfbfbf" points="541,-0.5 541,-19.5 593,-19.5 593,-0.5 541,-0.5"/>
<text text-anchor="middle" x="567" y="-7.5" font-family="Helvetica,sans-Serif" font-size="10.00">stddef.h</text>
</a>
</g>
</g>
<!-- Node3&#45;&gt;Node8 -->
<g id="edge9" class="edge"><title>Node3&#45;&gt;Node8</title>
<path fill="none" stroke="midnightblue" d="M704.915,-120.454C669.551,-117.97 615.784,-108.59 584,-76 572.176,-63.8762 568.296,-44.5971 567.152,-30.1784"/>
<polygon fill="midnightblue" stroke="midnightblue" points="570.636,-29.7316 566.722,-19.8865 563.642,-30.0239 570.636,-29.7316"/>
</g>
<!-- Node4&#45;&gt;Node5 -->
<g id="edge5" class="edge"><title>Node4&#45;&gt;Node5</title>
<path fill="none" stroke="midnightblue" d="M1199,-56.083C1199,-49.0059 1199,-38.8611 1199,-29.9865"/>
<polygon fill="midnightblue" stroke="midnightblue" points="1202.5,-29.751 1199,-19.7511 1195.5,-29.7511 1202.5,-29.751"/>
</g>
<!-- Node7&#45;&gt;Node8 -->
<g id="edge8" class="edge"><title>Node7&#45;&gt;Node8</title>
<path fill="none" stroke="midnightblue" d="M712.588,-56.4435C682.885,-47.1723 635.378,-32.3435 602.76,-22.1622"/>
<polygon fill="midnightblue" stroke="midnightblue" points="603.74,-18.8016 593.152,-19.1629 601.655,-25.4837 603.74,-18.8016"/>
</g>
<!-- Node9&#45;&gt;Node3 -->
<g id="edge12" class="edge"><title>Node9&#45;&gt;Node3</title>
<path fill="none" stroke="midnightblue" d="M670.159,-285.885C668.473,-264.484 666.506,-207.768 688,-168 694.652,-155.692 706.111,-145.223 716.581,-137.488"/>
<polygon fill="midnightblue" stroke="midnightblue" points="718.783,-140.22 725.017,-131.653 714.801,-134.463 718.783,-140.22"/>
</g>
<!-- Node10&#45;&gt;Node5 -->
<g id="edge15" class="edge"><title>Node10&#45;&gt;Node5</title>
<path fill="none" stroke="midnightblue" d="M345.478,-285.567C363.432,-249.803 429.599,-118.56 437,-112 489.318,-65.6242 515.749,-71.1555 584,-56 696.002,-31.1294 1051.56,-16.3602 1164.33,-12.2116"/>
<polygon fill="midnightblue" stroke="midnightblue" points="1164.61,-15.7041 1174.47,-11.8433 1164.35,-8.70868 1164.61,-15.7041"/>
</g>
<!-- Node10&#45;&gt;Node8 -->
<g id="edge14" class="edge"><title>Node10&#45;&gt;Node8</title>
<path fill="none" stroke="midnightblue" d="M342.9,-285.856C346.936,-266.711 356,-219.239 356,-179 356,-179 356,-179 356,-121 356,-43.2525 470.036,-20.3681 530.44,-13.6999"/>
<polygon fill="midnightblue" stroke="midnightblue" points="531.105,-17.1507 540.703,-12.6658 530.403,-10.186 531.105,-17.1507"/>
</g>
<!-- Node11 -->
<g id="node12" class="node"><title>Node11</title>
<g id="a_node12"><a xlink:title=" ">
<polygon fill="white" stroke="#bfbfbf" points="446,-112.5 446,-131.5 494,-131.5 494,-112.5 446,-112.5"/>
<text text-anchor="middle" x="470" y="-119.5" font-family="Helvetica,sans-Serif" font-size="10.00">stdlib.h</text>
</a>
</g>
</g>
<!-- Node10&#45;&gt;Node11 -->
<g id="edge16" class="edge"><title>Node10&#45;&gt;Node11</title>
<path fill="none" stroke="midnightblue" d="M356.148,-285.878C370.858,-276.913 393.094,-261.725 408,-244 434.864,-212.055 454.198,-166.508 463.587,-141.393"/>
<polygon fill="midnightblue" stroke="midnightblue" points="466.984,-142.29 467.094,-131.696 460.401,-139.909 466.984,-142.29"/>
</g>
<!-- Node12 -->
<g id="node13" class="node"><title>Node12</title>
<g id="a_node13"><a xlink:href="../../d2/dd5/SettingsWrapper_8hpp.html" target="_top" xlink:title=" ">
<polygon fill="white" stroke="black" points="809.5,-224.5 809.5,-243.5 956.5,-243.5 956.5,-224.5 809.5,-224.5"/>
<text text-anchor="middle" x="883" y="-231.5" font-family="Helvetica,sans-Serif" font-size="10.00">Settings/SettingsWrapper.hpp</text>
</a>
</g>
</g>
<!-- Node10&#45;&gt;Node12 -->
<g id="edge17" class="edge"><title>Node10&#45;&gt;Node12</title>
<path fill="none" stroke="midnightblue" d="M418.655,-285.975C519.644,-274.889 695.377,-255.597 799.265,-244.192"/>
<polygon fill="midnightblue" stroke="midnightblue" points="799.841,-247.65 809.399,-243.08 799.077,-240.692 799.841,-247.65"/>
</g>
<!-- Node13 -->
<g id="node14" class="node"><title>Node13</title>
<g id="a_node14"><a xlink:href="../../db/d02/Settings_8hpp.html" target="_top" xlink:title="All user settings and debugging options can be changed here.">
<polygon fill="white" stroke="black" points="887.5,-168.5 887.5,-187.5 958.5,-187.5 958.5,-168.5 887.5,-168.5"/>
<text text-anchor="middle" x="923" y="-175.5" font-family="Helvetica,sans-Serif" font-size="10.00">Settings.hpp</text>
</a>
</g>
</g>
<!-- Node12&#45;&gt;Node13 -->
<g id="edge18" class="edge"><title>Node12&#45;&gt;Node13</title>
<path fill="none" stroke="midnightblue" d="M889.605,-224.083C895.255,-216.455 903.545,-205.264 910.451,-195.941"/>
<polygon fill="midnightblue" stroke="midnightblue" points="913.378,-197.87 916.518,-187.751 907.753,-193.703 913.378,-197.87"/>
</g>
<!-- Node14 -->
<g id="node15" class="node"><title>Node14</title>
<g id="a_node15"><a xlink:href="../../df/dee/Debug_8hpp.html" target="_top" xlink:title=" ">
<polygon fill="white" stroke="black" points="768.5,-168.5 768.5,-187.5 869.5,-187.5 869.5,-168.5 768.5,-168.5"/>
<text text-anchor="middle" x="819" y="-175.5" font-family="Helvetica,sans-Serif" font-size="10.00">Helpers/Debug.hpp</text>
</a>
</g>
</g>
<!-- Node12&#45;&gt;Node14 -->
<g id="edge20" class="edge"><title>Node12&#45;&gt;Node14</title>
<path fill="none" stroke="midnightblue" d="M867.602,-224.324C856.523,-216.42 842.085,-204.548 831.67,-194.938"/>
<polygon fill="midnightblue" stroke="midnightblue" points="833.944,-192.267 824.321,-187.834 829.079,-197.3 833.944,-192.267"/>
</g>
<!-- Node13&#45;&gt;Node3 -->
<g id="edge19" class="edge"><title>Node13&#45;&gt;Node3</title>
<path fill="none" stroke="midnightblue" d="M894.003,-168.444C862.815,-159.241 813.07,-144.562 778.592,-134.388"/>
<polygon fill="midnightblue" stroke="midnightblue" points="779.443,-130.99 768.861,-131.516 777.462,-137.704 779.443,-130.99"/>
</g>
<!-- Node14&#45;&gt;Node11 -->
<g id="edge22" class="edge"><title>Node14&#45;&gt;Node11</title>
<path fill="none" stroke="midnightblue" d="M768.252,-169.148C696.052,-157.977 565.619,-137.795 503.998,-128.26"/>
<polygon fill="midnightblue" stroke="midnightblue" points="504.436,-124.787 494.018,-126.716 503.365,-131.704 504.436,-124.787"/>
</g>
<!-- Node14&#45;&gt;Node12 -->
<g id="edge21" class="edge"><title>Node14&#45;&gt;Node12</title>
<path fill="none" stroke="midnightblue" d="M834.503,-187.751C845.545,-195.639 859.888,-207.433 870.265,-217.002"/>
<polygon fill="midnightblue" stroke="midnightblue" points="867.973,-219.655 877.598,-224.083 872.835,-214.619 867.973,-219.655"/>
</g>
<!-- Node15 -->
<g id="node16" class="node"><title>Node15</title>
<g id="a_node16"><a xlink:href="../../dd/d80/PrintStream_8hpp.html" target="_top" xlink:title=" ">
<polygon fill="white" stroke="black" points="548.5,-112.5 548.5,-131.5 635.5,-131.5 635.5,-112.5 548.5,-112.5"/>
<text text-anchor="middle" x="592" y="-119.5" font-family="Helvetica,sans-Serif" font-size="10.00">PrintStream.hpp</text>
</a>
</g>
</g>
<!-- Node14&#45;&gt;Node15 -->
<g id="edge23" class="edge"><title>Node14&#45;&gt;Node15</title>
<path fill="none" stroke="midnightblue" d="M783.031,-168.444C743.681,-159.083 680.513,-144.056 637.686,-133.868"/>
<polygon fill="midnightblue" stroke="midnightblue" points="638.339,-130.426 627.801,-131.516 636.719,-137.236 638.339,-130.426"/>
</g>
<!-- Node15&#45;&gt;Node16 -->
<g id="edge24" class="edge"><title>Node15&#45;&gt;Node16</title>
<path fill="none" stroke="midnightblue" d="M548.155,-116.302C451.186,-105.913 219.812,-81.1227 127.254,-71.2058"/>
<polygon fill="midnightblue" stroke="midnightblue" points="127.503,-67.7125 117.187,-70.1272 126.757,-74.6727 127.503,-67.7125"/>
</g>
<!-- Node17&#45;&gt;Node18 -->
<g id="edge26" class="edge"><title>Node17&#45;&gt;Node18</title>
<path fill="none" stroke="midnightblue" d="M174,-352.734C174,-343.183 174,-327.618 174,-315.283"/>
<polygon fill="midnightblue" stroke="midnightblue" points="177.5,-315.127 174,-305.127 170.5,-315.127 177.5,-315.127"/>
</g>
<!-- Node19 -->
<g id="node20" class="node"><title>Node19</title>
<g id="a_node20"><a xlink:href="../../de/dd1/LinkedList_8hpp.html" target="_top" xlink:title=" ">
<polygon fill="white" stroke="black" points="513,-224.5 513,-243.5 629,-243.5 629,-224.5 513,-224.5"/>
<text text-anchor="middle" x="571" y="-231.5" font-family="Helvetica,sans-Serif" font-size="10.00">Helpers/LinkedList.hpp</text>
</a>
</g>
</g>
<!-- Node17&#45;&gt;Node19 -->
<g id="edge32" class="edge"><title>Node17&#45;&gt;Node19</title>
<path fill="none" stroke="midnightblue" d="M220.384,-352.991C288.023,-340.468 407.796,-317.822 427,-311 472.512,-294.833 521.416,-266.393 548.912,-249.264"/>
<polygon fill="midnightblue" stroke="midnightblue" points="551.115,-252.012 557.704,-243.715 547.379,-246.092 551.115,-252.012"/>
</g>
<!-- Node18&#45;&gt;Node3 -->
<g id="edge27" class="edge"><title>Node18&#45;&gt;Node3</title>
<path fill="none" stroke="midnightblue" d="M195.083,-285.989C249.895,-264.097 401.677,-204.962 532,-168 587.331,-152.307 652.279,-139.06 694.69,-131.087"/>
<polygon fill="midnightblue" stroke="midnightblue" points="695.512,-134.495 704.703,-129.224 694.232,-127.613 695.512,-134.495"/>
</g>
<!-- Node18&#45;&gt;Node19 -->
<g id="edge28" class="edge"><title>Node18&#45;&gt;Node19</title>
<path fill="none" stroke="midnightblue" d="M219.218,-285.992C230.56,-283.944 242.713,-281.823 254,-280 339.555,-266.179 438.478,-252.502 502.753,-243.92"/>
<polygon fill="midnightblue" stroke="midnightblue" points="503.313,-247.376 512.764,-242.587 502.389,-240.437 503.313,-247.376"/>
</g>
<!-- Node20 -->
<g id="node21" class="node"><title>Node20</title>
<g id="a_node21"><a xlink:title=" ">
<polygon fill="white" stroke="#bfbfbf" points="151.5,-224.5 151.5,-243.5 196.5,-243.5 196.5,-224.5 151.5,-224.5"/>
<text text-anchor="middle" x="174" y="-231.5" font-family="Helvetica,sans-Serif" font-size="10.00">Print.h</text>
</a>
</g>
</g>
<!-- Node18&#45;&gt;Node20 -->
<g id="edge31" class="edge"><title>Node18&#45;&gt;Node20</title>
<path fill="none" stroke="midnightblue" d="M174,-285.975C174,-277.58 174,-264.481 174,-253.663"/>
<polygon fill="midnightblue" stroke="midnightblue" points="177.5,-253.509 174,-243.509 170.5,-253.509 177.5,-253.509"/>
</g>
<!-- Node19&#45;&gt;Node11 -->
<g id="edge30" class="edge"><title>Node19&#45;&gt;Node11</title>
<path fill="none" stroke="midnightblue" d="M563.075,-224.368C546.186,-205.974 506.425,-162.671 484.739,-139.052"/>
<polygon fill="midnightblue" stroke="midnightblue" points="487.23,-136.59 477.888,-131.591 482.074,-141.325 487.23,-136.59"/>
</g>
<!-- Node19&#45;&gt;Node14 -->
<g id="edge29" class="edge"><title>Node19&#45;&gt;Node14</title>
<path fill="none" stroke="midnightblue" d="M610.296,-224.444C653.559,-215.023 723.173,-199.866 769.973,-189.675"/>
<polygon fill="midnightblue" stroke="midnightblue" points="770.861,-193.064 779.888,-187.516 769.372,-186.224 770.861,-193.064"/>
</g>
<!-- Node21&#45;&gt;Node16 -->
<g id="edge35" class="edge"><title>Node21&#45;&gt;Node16</title>
<path fill="none" stroke="midnightblue" d="M88,-168.368C88,-150.617 88,-109.666 88,-85.5974"/>
<polygon fill="midnightblue" stroke="midnightblue" points="91.5001,-85.5914 88,-75.5914 84.5001,-85.5915 91.5001,-85.5914"/>
</g>
<!-- Node22&#45;&gt;Node3 -->
<g id="edge37" class="edge"><title>Node22&#45;&gt;Node3</title>
<path fill="none" stroke="midnightblue" d="M816.21,-280.475C779.252,-271.51 739.22,-258.803 728,-244 705.137,-213.836 720.186,-166.57 731.256,-140.955"/>
<polygon fill="midnightblue" stroke="midnightblue" points="734.513,-142.25 735.496,-131.701 728.149,-139.334 734.513,-142.25"/>
</g>
<!-- Node22&#45;&gt;Node19 -->
<g id="edge38" class="edge"><title>Node22&#45;&gt;Node19</title>
<path fill="none" stroke="midnightblue" d="M811.748,-280.475C754.794,-269.717 677.458,-255.109 625.972,-245.384"/>
<polygon fill="midnightblue" stroke="midnightblue" points="626.51,-241.923 616.034,-243.506 625.21,-248.802 626.51,-241.923"/>
</g>
<!-- Node23&#45;&gt;Node19 -->
<g id="edge40" class="edge"><title>Node23&#45;&gt;Node19</title>
<path fill="none" stroke="midnightblue" d="M438.568,-481.397C438.777,-463.646 441.736,-433.163 458,-414 485.078,-382.095 518.715,-410.561 545,-378 560.237,-359.125 567.252,-287.941 569.801,-253.667"/>
<polygon fill="midnightblue" stroke="midnightblue" points="573.3,-253.806 570.5,-243.588 566.317,-253.322 573.3,-253.806"/>
</g>
<!-- Node24 -->
<g id="node25" class="node"><title>Node24</title>
<g id="a_node25"><a xlink:href="../../dc/d90/MIDIInputElement_8hpp.html" target="_top" xlink:title=" ">
<polygon fill="white" stroke="black" points="467,-420 467,-439 639,-439 639,-420 467,-420"/>
<text text-anchor="middle" x="553" y="-427" font-family="Helvetica,sans-Serif" font-size="10.00">MIDI_Inputs/MIDIInputElement.hpp</text>
</a>
</g>
</g>
<!-- Node23&#45;&gt;Node24 -->
<g id="edge41" class="edge"><title>Node23&#45;&gt;Node24</title>
<path fill="none" stroke="midnightblue" d="M463.736,-481.396C483.208,-470.294 510.169,-454.921 529.354,-443.983"/>
<polygon fill="midnightblue" stroke="midnightblue" points="531.127,-447.001 538.08,-439.007 527.659,-440.92 531.127,-447.001"/>
</g>
<!-- Node24&#45;&gt;Node9 -->
<g id="edge44" class="edge"><title>Node24&#45;&gt;Node9</title>
<path fill="none" stroke="midnightblue" d="M560.742,-419.839C580.165,-398.112 631.203,-341.019 656.442,-312.786"/>
<polygon fill="midnightblue" stroke="midnightblue" points="659.327,-314.809 663.383,-305.021 654.109,-310.144 659.327,-314.809"/>
</g>
<!-- Node25 -->
<g id="node26" class="node"><title>Node25</title>
<g id="a_node26"><a xlink:href="../../d1/d30/MIDI__message__matcher_8hpp.html" target="_top" xlink:title=" ">
<polygon fill="white" stroke="black" points="262.5,-353 262.5,-372 405.5,-372 405.5,-353 262.5,-353"/>
<text text-anchor="middle" x="334" y="-360" font-family="Helvetica,sans-Serif" font-size="10.00">MIDI_message_matcher.hpp</text>
</a>
</g>
</g>
<!-- Node24&#45;&gt;Node25 -->
<g id="edge42" class="edge"><title>Node24&#45;&gt;Node25</title>
<path fill="none" stroke="midnightblue" d="M523.918,-419.869C484.951,-408.303 415.7,-387.749 372.458,-374.914"/>
<polygon fill="midnightblue" stroke="midnightblue" points="373.436,-371.554 362.853,-372.064 371.444,-378.264 373.436,-371.554"/>
</g>
<!-- Node25&#45;&gt;Node10 -->
<g id="edge43" class="edge"><title>Node25&#45;&gt;Node10</title>
<path fill="none" stroke="midnightblue" d="M334.944,-352.734C335.973,-343.183 337.649,-327.618 338.977,-315.283"/>
<polygon fill="midnightblue" stroke="midnightblue" points="342.48,-315.445 340.071,-305.127 335.52,-314.695 342.48,-315.445"/>
</g>
<!-- Node26&#45;&gt;Node19 -->
<g id="edge47" class="edge"><title>Node26&#45;&gt;Node19</title>
<path fill="none" stroke="midnightblue" d="M624.878,-481.102C633.45,-471.734 643.409,-458.736 648,-445 652.367,-431.933 651.963,-427.196 648,-414 632.222,-361.464 598.845,-362.516 580,-311 573.168,-292.324 571.248,-269.508 570.832,-253.776"/>
<polygon fill="midnightblue" stroke="midnightblue" points="574.332,-253.703 570.746,-243.734 567.332,-253.763 574.332,-253.703"/>
</g>
<!-- Node26&#45;&gt;Node24 -->
<g id="edge46" class="edge"><title>Node26&#45;&gt;Node24</title>
<path fill="none" stroke="midnightblue" d="M597.632,-481.396C588.744,-471.261 576.736,-457.567 567.414,-446.937"/>
<polygon fill="midnightblue" stroke="midnightblue" points="569.849,-444.406 560.624,-439.195 564.586,-449.021 569.849,-444.406"/>
</g>
<!-- Node27&#45;&gt;Node19 -->
<g id="edge50" class="edge"><title>Node27&#45;&gt;Node19</title>
<path fill="none" stroke="midnightblue" d="M784.689,-481.29C793.606,-443.374 812.016,-338.71 761,-280 745.016,-261.606 687.058,-249.679 639.313,-242.757"/>
<polygon fill="midnightblue" stroke="midnightblue" points="639.688,-239.275 629.299,-241.355 638.717,-246.208 639.688,-239.275"/>
</g>
<!-- Node27&#45;&gt;Node24 -->
<g id="edge49" class="edge"><title>Node27&#45;&gt;Node24</title>
<path fill="none" stroke="midnightblue" d="M731.808,-481.476C690.229,-469.622 631.426,-452.858 592.77,-441.838"/>
<polygon fill="midnightblue" stroke="midnightblue" points="593.492,-438.404 582.916,-439.029 591.573,-445.136 593.492,-438.404"/>
</g>
<!-- Node28&#45;&gt;Node3 -->
<g id="edge52" class="edge"><title>Node28&#45;&gt;Node3</title>
<path fill="none" stroke="midnightblue" d="M980.784,-347.49C984.704,-329.553 988.225,-298.579 972,-280 918.049,-218.222 857.564,-291.923 791,-244 757.491,-219.875 745.869,-169.317 741.937,-141.807"/>
<polygon fill="midnightblue" stroke="midnightblue" points="745.373,-141.071 740.681,-131.572 738.425,-141.923 745.373,-141.071"/>
</g>
<!-- Node28&#45;&gt;Node9 -->
<g id="edge53" class="edge"><title>Node28&#45;&gt;Node9</title>
<path fill="none" stroke="midnightblue" d="M914.338,-348.189C857.174,-336.047 773.797,-318.336 720.99,-307.119"/>
<polygon fill="midnightblue" stroke="midnightblue" points="721.685,-303.688 711.176,-305.034 720.231,-310.536 721.685,-303.688"/>
</g>
<!-- Node29 -->
<g id="node30" class="node"><title>Node29</title>
<g id="a_node30"><a xlink:href="../../d4/d93/Updatable_8hpp.html" target="_top" xlink:title=" ">
<polygon fill="white" stroke="black" points="1057,-286 1057,-305 1173,-305 1173,-286 1057,-286"/>
<text text-anchor="middle" x="1115" y="-293" font-family="Helvetica,sans-Serif" font-size="10.00">Helpers/Updatable.hpp</text>
</a>
</g>
</g>
<!-- Node28&#45;&gt;Node29 -->
<g id="edge54" class="edge"><title>Node28&#45;&gt;Node29</title>
<path fill="none" stroke="midnightblue" d="M1006.94,-347.396C1030.94,-336.092 1064.34,-320.361 1087.63,-309.39"/>
<polygon fill="midnightblue" stroke="midnightblue" points="1089.38,-312.435 1096.94,-305.007 1086.4,-306.102 1089.38,-312.435"/>
</g>
<!-- Node29&#45;&gt;Node3 -->
<g id="edge60" class="edge"><title>Node29&#45;&gt;Node3</title>
<path fill="none" stroke="midnightblue" d="M1081.63,-285.937C1057.55,-278.315 1025.61,-265.053 1004,-244 977.091,-217.784 996.754,-190.936 967,-168 939.159,-146.538 843.311,-133.391 785.44,-127.219"/>
<polygon fill="midnightblue" stroke="midnightblue" points="785.758,-123.733 775.45,-126.183 785.036,-130.696 785.758,-123.733"/>
</g>
<!-- Node29&#45;&gt;Node8 -->
<g id="edge59" class="edge"><title>Node29&#45;&gt;Node8</title>
<path fill="none" stroke="midnightblue" d="M1117.53,-285.895C1122.91,-266.826 1135,-219.497 1135,-179 1135,-179 1135,-179 1135,-121 1135,-12.2994 728.978,-8.77502 603.496,-10.2813"/>
<polygon fill="midnightblue" stroke="midnightblue" points="603.207,-6.78492 593.257,-10.4234 603.304,-13.7842 603.207,-6.78492"/>
</g>
<!-- Node29&#45;&gt;Node12 -->
<g id="edge58" class="edge"><title>Node29&#45;&gt;Node12</title>
<path fill="none" stroke="midnightblue" d="M1081.76,-285.975C1040.76,-275.459 970.971,-257.562 925.946,-246.014"/>
<polygon fill="midnightblue" stroke="midnightblue" points="926.734,-242.603 916.178,-243.509 924.995,-249.384 926.734,-242.603"/>
</g>
<!-- Node29&#45;&gt;Node19 -->
<g id="edge57" class="edge"><title>Node29&#45;&gt;Node19</title>
<path fill="none" stroke="midnightblue" d="M1056.78,-288.132C955.483,-277.053 747.313,-254.284 639.339,-242.475"/>
<polygon fill="midnightblue" stroke="midnightblue" points="639.531,-238.975 629.209,-241.367 638.77,-245.933 639.531,-238.975"/>
</g>
<!-- Node30 -->
<g id="node31" class="node"><title>Node30</title>
<g id="a_node31"><a xlink:href="../../d1/d93/Error_8hpp.html" target="_top" xlink:title=" ">
<polygon fill="white" stroke="black" points="1013.5,-224.5 1013.5,-243.5 1106.5,-243.5 1106.5,-224.5 1013.5,-224.5"/>
<text text-anchor="middle" x="1060" y="-231.5" font-family="Helvetica,sans-Serif" font-size="10.00">Helpers/Error.hpp</text>
</a>
</g>
</g>
<!-- Node29&#45;&gt;Node30 -->
<g id="edge55" class="edge"><title>Node29&#45;&gt;Node30</title>
<path fill="none" stroke="midnightblue" d="M1107.12,-285.975C1098.71,-276.873 1085.18,-262.241 1074.77,-250.983"/>
<polygon fill="midnightblue" stroke="midnightblue" points="1077.22,-248.477 1067.87,-243.509 1072.08,-253.228 1077.22,-248.477"/>
</g>
<!-- Node30&#45;&gt;Node14 -->
<g id="edge56" class="edge"><title>Node30&#45;&gt;Node14</title>
<path fill="none" stroke="midnightblue" d="M1021.81,-224.444C979.859,-215.043 912.406,-199.929 866.929,-189.739"/>
<polygon fill="midnightblue" stroke="midnightblue" points="867.532,-186.288 857.009,-187.516 866.001,-193.118 867.532,-186.288"/>
</g>
<!-- Node31&#45;&gt;Node3 -->
<g id="edge69" class="edge"><title>Node31&#45;&gt;Node3</title>
<path fill="none" stroke="midnightblue" d="M1174.26,-358.224C1210,-353.094 1253.94,-340.647 1281,-311 1307.4,-282.076 1313.93,-258.283 1295,-224 1272.41,-183.09 1250.23,-183.097 1206,-168 1128.92,-141.69 886.939,-128.995 785.477,-124.722"/>
<polygon fill="midnightblue" stroke="midnightblue" points="785.383,-121.216 775.247,-124.3 785.094,-128.21 785.383,-121.216"/>
</g>
<!-- Node31&#45;&gt;Node14 -->
<g id="edge67" class="edge"><title>Node31&#45;&gt;Node14</title>
<path fill="none" stroke="midnightblue" d="M1104.47,-352.926C1076.62,-332.24 1007.8,-281.197 1005,-280 919.927,-243.671 859.486,-314.843 800,-244 788.589,-230.41 797.238,-210.25 806.26,-195.991"/>
<polygon fill="midnightblue" stroke="midnightblue" points="809.248,-197.823 812.035,-187.601 803.482,-193.854 809.248,-197.823"/>
</g>
<!-- Node31&#45;&gt;Node29 -->
<g id="edge68" class="edge"><title>Node31&#45;&gt;Node29</title>
<path fill="none" stroke="midnightblue" d="M1115.87,-352.734C1115.72,-343.183 1115.48,-327.618 1115.29,-315.283"/>
<polygon fill="midnightblue" stroke="midnightblue" points="1118.79,-315.072 1115.13,-305.127 1111.79,-315.18 1118.79,-315.072"/>
</g>
<!-- Node32 -->
<g id="node33" class="node"><title>Node32</title>
<g id="a_node33"><a xlink:href="../../d9/d46/Selectable_8hpp.html" target="_top" xlink:title=" ">
<polygon fill="white" stroke="black" points="1191.5,-286 1191.5,-305 1272.5,-305 1272.5,-286 1191.5,-286"/>
<text text-anchor="middle" x="1232" y="-293" font-family="Helvetica,sans-Serif" font-size="10.00">Selectable.hpp</text>
</a>
</g>
</g>
<!-- Node31&#45;&gt;Node32 -->
<g id="edge62" class="edge"><title>Node31&#45;&gt;Node32</title>
<path fill="none" stroke="midnightblue" d="M1131.64,-352.734C1151.21,-341.769 1184.92,-322.881 1207.82,-310.049"/>
<polygon fill="midnightblue" stroke="midnightblue" points="1209.59,-313.069 1216.6,-305.127 1206.17,-306.962 1209.59,-313.069"/>
</g>
<!-- Node32&#45;&gt;Node3 -->
<g id="edge63" class="edge"><title>Node32&#45;&gt;Node3</title>
<path fill="none" stroke="midnightblue" d="M1244.93,-285.83C1263.86,-272.089 1295.11,-244.745 1278,-224 1215.56,-148.298 903.743,-129.006 785.533,-124.377"/>
<polygon fill="midnightblue" stroke="midnightblue" points="785.495,-120.873 775.371,-123.996 785.233,-127.868 785.495,-120.873"/>
</g>
<!-- Node32&#45;&gt;Node5 -->
<g id="edge65" class="edge"><title>Node32&#45;&gt;Node5</title>
<path fill="none" stroke="midnightblue" d="M1259.52,-285.928C1300.55,-271.233 1373,-237.066 1373,-179 1373,-179 1373,-179 1373,-121 1373,-55.6343 1284.18,-27.5214 1233.46,-16.7959"/>
<polygon fill="midnightblue" stroke="midnightblue" points="1234.05,-13.3451 1223.56,-14.8203 1232.68,-20.2098 1234.05,-13.3451"/>
</g>
<!-- Node32&#45;&gt;Node30 -->
<g id="edge64" class="edge"><title>Node32&#45;&gt;Node30</title>
<path fill="none" stroke="midnightblue" d="M1207.36,-285.975C1177.72,-275.725 1127.82,-258.459 1094.4,-246.899"/>
<polygon fill="midnightblue" stroke="midnightblue" points="1095.19,-243.471 1084.6,-243.509 1092.9,-250.086 1095.19,-243.471"/>
</g>
<!-- Node33 -->
<g id="node34" class="node"><title>Node33</title>
<g id="a_node34"><a xlink:href="../../d7/dd7/Helpers_8hpp.html" target="_top" xlink:title=" ">
<polygon fill="white" stroke="black" points="1163,-224.5 1163,-243.5 1269,-243.5 1269,-224.5 1163,-224.5"/>
<text text-anchor="middle" x="1216" y="-231.5" font-family="Helvetica,sans-Serif" font-size="10.00">Helpers/Helpers.hpp</text>
</a>
</g>
</g>
<!-- Node32&#45;&gt;Node33 -->
<g id="edge66" class="edge"><title>Node32&#45;&gt;Node33</title>
<path fill="none" stroke="midnightblue" d="M1229.71,-285.975C1227.43,-277.492 1223.85,-264.204 1220.93,-253.322"/>
<polygon fill="midnightblue" stroke="midnightblue" points="1224.26,-252.257 1218.29,-243.509 1217.51,-254.075 1224.26,-252.257"/>
</g>
<!-- Node34&#45;&gt;Node5 -->
<g id="edge71" class="edge"><title>Node34&#45;&gt;Node5</title>
<path fill="none" stroke="midnightblue" d="M1335.68,-414.309C1363.51,-392.43 1411,-347.605 1411,-296.5 1411,-296.5 1411,-296.5 1411,-121 1411,-42.1803 1294.11,-19.764 1233.92,-13.446"/>
<polygon fill="midnightblue" stroke="midnightblue" points="1234.02,-9.93936 1223.73,-12.4733 1233.36,-16.9077 1234.02,-9.93936"/>
</g>
</g>
</svg>
