<?xml version="1.0" encoding="UTF-8" standalone="no"?>
<!DOCTYPE svg PUBLIC "-//W3C//DTD SVG 1.1//EN"
 "http://www.w3.org/Graphics/SVG/1.1/DTD/svg11.dtd">
<!-- Generated by graphviz version 2.38.0 (20140413.2041)
 -->
<!-- Title: Selector.hpp Pages: 1 -->
<svg width="741pt" height="476pt"
 viewBox="0.00 0.00 741.00 476.00" xmlns="http://www.w3.org/2000/svg" xmlns:xlink="http://www.w3.org/1999/xlink">
<g id="graph0" class="graph" transform="scale(1 1) rotate(0) translate(4 472)">
<title>Selector.hpp</title>
<polygon fill="white" stroke="none" points="-4,4 -4,-472 737,-472 737,4 -4,4"/>
<!-- Node1 -->
<g id="node1" class="node"><title>Node1</title>
<g id="a_node1"><a xlink:title=" ">
<polygon fill="#bfbfbf" stroke="black" points="307.5,-448.5 307.5,-467.5 378.5,-467.5 378.5,-448.5 307.5,-448.5"/>
<text text-anchor="middle" x="343" y="-455.5" font-family="Helvetica,sans-Serif" font-size="10.00">Selector.hpp</text>
</a>
</g>
</g>
<!-- Node2 -->
<g id="node2" class="node"><title>Node2</title>
<g id="a_node2"><a xlink:href="../../d9/d46/Selectable_8hpp.html" target="_top" xlink:title=" ">
<polygon fill="white" stroke="black" points="137.5,-392.5 137.5,-411.5 218.5,-411.5 218.5,-392.5 137.5,-392.5"/>
<text text-anchor="middle" x="178" y="-399.5" font-family="Helvetica,sans-Serif" font-size="10.00">Selectable.hpp</text>
</a>
</g>
</g>
<!-- Node1&#45;&gt;Node2 -->
<g id="edge1" class="edge"><title>Node1&#45;&gt;Node2</title>
<path fill="none" stroke="midnightblue" d="M316.855,-448.444C288.977,-439.32 244.652,-424.813 213.6,-414.651"/>
<polygon fill="midnightblue" stroke="midnightblue" points="214.615,-411.3 204.022,-411.516 212.438,-417.953 214.615,-411.3"/>
</g>
<!-- Node3 -->
<g id="node3" class="node"><title>Node3</title>
<g id="a_node3"><a xlink:href="../../d0/d4e/Def_8hpp.html" target="_top" xlink:title=" ">
<polygon fill="white" stroke="black" points="272,-112.5 272,-131.5 342,-131.5 342,-112.5 272,-112.5"/>
<text text-anchor="middle" x="307" y="-119.5" font-family="Helvetica,sans-Serif" font-size="10.00">Def/Def.hpp</text>
</a>
</g>
</g>
<!-- Node1&#45;&gt;Node3 -->
<g id="edge25" class="edge"><title>Node1&#45;&gt;Node3</title>
<path fill="none" stroke="midnightblue" d="M327.148,-448.439C299.881,-432.425 247,-395.16 247,-347 247,-347 247,-347 247,-233 247,-195.883 273.654,-159.378 291.431,-139.158"/>
<polygon fill="midnightblue" stroke="midnightblue" points="294.237,-141.276 298.403,-131.535 289.072,-136.552 294.237,-141.276"/>
</g>
<!-- Node11 -->
<g id="node11" class="node"><title>Node11</title>
<g id="a_node11"><a xlink:href="../../df/dee/Debug_8hpp.html" target="_top" xlink:title=" ">
<polygon fill="white" stroke="black" points="553,-280.5 553,-299.5 617,-299.5 617,-280.5 553,-280.5"/>
<text text-anchor="middle" x="585" y="-287.5" font-family="Helvetica,sans-Serif" font-size="10.00">Debug.hpp</text>
</a>
</g>
</g>
<!-- Node1&#45;&gt;Node11 -->
<g id="edge26" class="edge"><title>Node1&#45;&gt;Node11</title>
<path fill="none" stroke="midnightblue" d="M378.586,-456.565C441.333,-453.637 570.446,-437.458 628,-356 639.968,-339.062 622.188,-319.104 605.994,-305.815"/>
<polygon fill="midnightblue" stroke="midnightblue" points="607.892,-302.86 597.835,-299.526 603.618,-308.403 607.892,-302.86"/>
</g>
<!-- Node18 -->
<g id="node18" class="node"><title>Node18</title>
<g id="a_node18"><a xlink:href="../../d4/d93/Updatable_8hpp.html" target="_top" xlink:title=" ">
<polygon fill="white" stroke="black" points="340,-392.5 340,-411.5 456,-411.5 456,-392.5 340,-392.5"/>
<text text-anchor="middle" x="398" y="-399.5" font-family="Helvetica,sans-Serif" font-size="10.00">Helpers/Updatable.hpp</text>
</a>
</g>
</g>
<!-- Node1&#45;&gt;Node18 -->
<g id="edge27" class="edge"><title>Node1&#45;&gt;Node18</title>
<path fill="none" stroke="midnightblue" d="M352.082,-448.083C360.171,-440.141 372.195,-428.335 381.91,-418.797"/>
<polygon fill="midnightblue" stroke="midnightblue" points="384.403,-421.254 389.087,-411.751 379.499,-416.26 384.403,-421.254"/>
</g>
<!-- Node2&#45;&gt;Node3 -->
<g id="edge2" class="edge"><title>Node2&#45;&gt;Node3</title>
<path fill="none" stroke="midnightblue" d="M180.158,-392.223C184.525,-373.663 194,-329.017 194,-291 194,-291 194,-291 194,-233 194,-186.402 243.947,-153.143 277.428,-136.083"/>
<polygon fill="midnightblue" stroke="midnightblue" points="279.348,-139.041 286.798,-131.508 276.276,-132.751 279.348,-139.041"/>
</g>
<!-- Node5 -->
<g id="node5" class="node"><title>Node5</title>
<g id="a_node5"><a xlink:title=" ">
<polygon fill="white" stroke="#bfbfbf" points="147.5,-0.5 147.5,-19.5 196.5,-19.5 196.5,-0.5 147.5,-0.5"/>
<text text-anchor="middle" x="172" y="-7.5" font-family="Helvetica,sans-Serif" font-size="10.00">stdint.h</text>
</a>
</g>
</g>
<!-- Node2&#45;&gt;Node5 -->
<g id="edge23" class="edge"><title>Node2&#45;&gt;Node5</title>
<path fill="none" stroke="midnightblue" d="M171.882,-392.349C159.792,-374.377 134,-331.314 134,-291 134,-291 134,-291 134,-121 134,-86.8131 150.6,-49.7639 161.857,-28.5707"/>
<polygon fill="midnightblue" stroke="midnightblue" points="164.947,-30.2151 166.716,-19.769 158.819,-26.832 164.947,-30.2151"/>
</g>
<!-- Node10 -->
<g id="node10" class="node"><title>Node10</title>
<g id="a_node10"><a xlink:href="../../d1/d93/Error_8hpp.html" target="_top" xlink:title=" ">
<polygon fill="white" stroke="black" points="525.5,-336.5 525.5,-355.5 618.5,-355.5 618.5,-336.5 525.5,-336.5"/>
<text text-anchor="middle" x="572" y="-343.5" font-family="Helvetica,sans-Serif" font-size="10.00">Helpers/Error.hpp</text>
</a>
</g>
</g>
<!-- Node2&#45;&gt;Node10 -->
<g id="edge13" class="edge"><title>Node2&#45;&gt;Node10</title>
<path fill="none" stroke="midnightblue" d="M218.758,-395.994C280.61,-388.308 402.135,-372.862 515.012,-356.262"/>
<polygon fill="midnightblue" stroke="midnightblue" points="515.826,-359.68 525.207,-354.756 514.803,-352.755 515.826,-359.68"/>
</g>
<!-- Node17 -->
<g id="node17" class="node"><title>Node17</title>
<g id="a_node17"><a xlink:href="../../d7/dd7/Helpers_8hpp.html" target="_top" xlink:title=" ">
<polygon fill="white" stroke="black" points="0,-336.5 0,-355.5 106,-355.5 106,-336.5 0,-336.5"/>
<text text-anchor="middle" x="53" y="-343.5" font-family="Helvetica,sans-Serif" font-size="10.00">Helpers/Helpers.hpp</text>
</a>
</g>
</g>
<!-- Node2&#45;&gt;Node17 -->
<g id="edge24" class="edge"><title>Node2&#45;&gt;Node17</title>
<path fill="none" stroke="midnightblue" d="M158.193,-392.444C137.713,-383.596 105.517,-369.687 82.1353,-359.586"/>
<polygon fill="midnightblue" stroke="midnightblue" points="83.282,-356.269 72.714,-355.516 80.5059,-362.695 83.282,-356.269"/>
</g>
<!-- Node4 -->
<g id="node4" class="node"><title>Node4</title>
<g id="a_node4"><a xlink:href="../../d7/d42/Channel_8hpp.html" target="_top" xlink:title=" ">
<polygon fill="white" stroke="black" points="200.5,-56.5 200.5,-75.5 271.5,-75.5 271.5,-56.5 200.5,-56.5"/>
<text text-anchor="middle" x="236" y="-63.5" font-family="Helvetica,sans-Serif" font-size="10.00">Channel.hpp</text>
</a>
</g>
</g>
<!-- Node3&#45;&gt;Node4 -->
<g id="edge3" class="edge"><title>Node3&#45;&gt;Node4</title>
<path fill="none" stroke="midnightblue" d="M295.593,-112.324C284.891,-104.185 268.659,-91.8395 255.837,-82.0874"/>
<polygon fill="midnightblue" stroke="midnightblue" points="257.693,-79.1018 247.615,-75.8339 253.456,-84.6734 257.693,-79.1018"/>
</g>
<!-- Node3&#45;&gt;Node5 -->
<g id="edge12" class="edge"><title>Node3&#45;&gt;Node5</title>
<path fill="none" stroke="midnightblue" d="M271.896,-115.856C246.107,-110.29 212.033,-98.9168 191,-76 179.458,-63.4241 174.896,-44.2058 173.11,-29.9243"/>
<polygon fill="midnightblue" stroke="midnightblue" points="176.577,-29.3955 172.192,-19.7506 169.605,-30.0247 176.577,-29.3955"/>
</g>
<!-- Node6 -->
<g id="node6" class="node"><title>Node6</title>
<g id="a_node6"><a xlink:href="../../dc/dc7/NamespaceSettings_8hpp.html" target="_top" xlink:title=" ">
<polygon fill="white" stroke="black" points="276.5,-0.5 276.5,-19.5 439.5,-19.5 439.5,-0.5 276.5,-0.5"/>
<text text-anchor="middle" x="358" y="-7.5" font-family="Helvetica,sans-Serif" font-size="10.00">Settings/NamespaceSettings.hpp</text>
</a>
</g>
</g>
<!-- Node3&#45;&gt;Node6 -->
<g id="edge10" class="edge"><title>Node3&#45;&gt;Node6</title>
<path fill="none" stroke="midnightblue" d="M332.504,-112.472C348.987,-105.478 369.139,-93.792 379,-76 387.408,-60.8303 379.355,-41.7791 370.905,-28.2322"/>
<polygon fill="midnightblue" stroke="midnightblue" points="373.715,-26.1392 365.19,-19.8483 367.931,-30.0824 373.715,-26.1392"/>
</g>
<!-- Node7 -->
<g id="node7" class="node"><title>Node7</title>
<g id="a_node7"><a xlink:href="../../dc/d50/Frequency_8hpp.html" target="_top" xlink:title=" ">
<polygon fill="white" stroke="black" points="289.5,-56.5 289.5,-75.5 370.5,-75.5 370.5,-56.5 289.5,-56.5"/>
<text text-anchor="middle" x="330" y="-63.5" font-family="Helvetica,sans-Serif" font-size="10.00">Frequency.hpp</text>
</a>
</g>
</g>
<!-- Node3&#45;&gt;Node7 -->
<g id="edge6" class="edge"><title>Node3&#45;&gt;Node7</title>
<path fill="none" stroke="midnightblue" d="M310.798,-112.083C313.913,-104.77 318.423,-94.1814 322.289,-85.1034"/>
<polygon fill="midnightblue" stroke="midnightblue" points="325.574,-86.3229 326.273,-75.7511 319.134,-83.5798 325.574,-86.3229"/>
</g>
<!-- Node8 -->
<g id="node8" class="node"><title>Node8</title>
<g id="a_node8"><a xlink:href="../../de/d76/Array_8hpp.html" target="_top" xlink:title=" ">
<polygon fill="white" stroke="black" points="465.5,-56.5 465.5,-75.5 560.5,-75.5 560.5,-56.5 465.5,-56.5"/>
<text text-anchor="middle" x="513" y="-63.5" font-family="Helvetica,sans-Serif" font-size="10.00">Helpers/Array.hpp</text>
</a>
</g>
</g>
<!-- Node3&#45;&gt;Node8 -->
<g id="edge8" class="edge"><title>Node3&#45;&gt;Node8</title>
<path fill="none" stroke="midnightblue" d="M339.641,-112.444C375.05,-103.162 431.709,-88.3093 470.553,-78.127"/>
<polygon fill="midnightblue" stroke="midnightblue" points="471.726,-81.4378 480.511,-75.5164 469.951,-74.6666 471.726,-81.4378"/>
</g>
<!-- Node9 -->
<g id="node9" class="node"><title>Node9</title>
<g id="a_node9"><a xlink:title=" ">
<polygon fill="white" stroke="#bfbfbf" points="487,-0.5 487,-19.5 539,-19.5 539,-0.5 487,-0.5"/>
<text text-anchor="middle" x="513" y="-7.5" font-family="Helvetica,sans-Serif" font-size="10.00">stddef.h</text>
</a>
</g>
</g>
<!-- Node3&#45;&gt;Node9 -->
<g id="edge11" class="edge"><title>Node3&#45;&gt;Node9</title>
<path fill="none" stroke="midnightblue" d="M324.281,-112.361C342.084,-103.414 370.599,-88.9554 395,-76 427.681,-58.6484 465.034,-37.9192 488.803,-24.6135"/>
<polygon fill="midnightblue" stroke="midnightblue" points="490.796,-27.5087 497.807,-19.5649 487.373,-21.4031 490.796,-27.5087"/>
</g>
<!-- Node4&#45;&gt;Node5 -->
<g id="edge4" class="edge"><title>Node4&#45;&gt;Node5</title>
<path fill="none" stroke="midnightblue" d="M225.717,-56.324C216.164,-48.2631 201.72,-36.0765 190.216,-26.3695"/>
<polygon fill="midnightblue" stroke="midnightblue" points="192.37,-23.6076 182.47,-19.8339 187.856,-28.9577 192.37,-23.6076"/>
</g>
<!-- Node4&#45;&gt;Node6 -->
<g id="edge5" class="edge"><title>Node4&#45;&gt;Node6</title>
<path fill="none" stroke="midnightblue" d="M255.331,-56.4435C275.32,-47.5961 306.743,-33.6875 329.564,-23.5865"/>
<polygon fill="midnightblue" stroke="midnightblue" points="331.032,-26.7645 338.759,-19.5164 328.198,-20.3635 331.032,-26.7645"/>
</g>
<!-- Node7&#45;&gt;Node6 -->
<g id="edge7" class="edge"><title>Node7&#45;&gt;Node6</title>
<path fill="none" stroke="midnightblue" d="M334.624,-56.083C338.456,-48.6913 344.024,-37.9533 348.765,-28.8111"/>
<polygon fill="midnightblue" stroke="midnightblue" points="351.966,-30.2398 353.462,-19.7511 345.752,-27.0175 351.966,-30.2398"/>
</g>
<!-- Node8&#45;&gt;Node9 -->
<g id="edge9" class="edge"><title>Node8&#45;&gt;Node9</title>
<path fill="none" stroke="midnightblue" d="M513,-56.083C513,-49.0059 513,-38.8611 513,-29.9865"/>
<polygon fill="midnightblue" stroke="midnightblue" points="516.5,-29.751 513,-19.7511 509.5,-29.7511 516.5,-29.751"/>
</g>
<!-- Node10&#45;&gt;Node11 -->
<g id="edge14" class="edge"><title>Node10&#45;&gt;Node11</title>
<path fill="none" stroke="midnightblue" d="M574.147,-336.083C575.869,-328.927 578.347,-318.635 580.5,-309.691"/>
<polygon fill="midnightblue" stroke="midnightblue" points="583.955,-310.293 582.893,-299.751 577.15,-308.654 583.955,-310.293"/>
</g>
<!-- Node12 -->
<g id="node12" class="node"><title>Node12</title>
<g id="a_node12"><a xlink:href="../../d2/dd5/SettingsWrapper_8hpp.html" target="_top" xlink:title=" ">
<polygon fill="white" stroke="black" points="313.5,-224.5 313.5,-243.5 460.5,-243.5 460.5,-224.5 313.5,-224.5"/>
<text text-anchor="middle" x="387" y="-231.5" font-family="Helvetica,sans-Serif" font-size="10.00">Settings/SettingsWrapper.hpp</text>
</a>
</g>
</g>
<!-- Node11&#45;&gt;Node12 -->
<g id="edge15" class="edge"><title>Node11&#45;&gt;Node12</title>
<path fill="none" stroke="midnightblue" d="M552.624,-281.492C516.964,-272.379 460.038,-256.924 423.012,-246.354"/>
<polygon fill="midnightblue" stroke="midnightblue" points="423.709,-242.913 413.131,-243.512 421.774,-249.64 423.709,-242.913"/>
</g>
<!-- Node15 -->
<g id="node15" class="node"><title>Node15</title>
<g id="a_node15"><a xlink:href="../../dd/d80/PrintStream_8hpp.html" target="_top" xlink:title=" ">
<polygon fill="white" stroke="black" points="617.5,-224.5 617.5,-243.5 704.5,-243.5 704.5,-224.5 617.5,-224.5"/>
<text text-anchor="middle" x="661" y="-231.5" font-family="Helvetica,sans-Serif" font-size="10.00">PrintStream.hpp</text>
</a>
</g>
</g>
<!-- Node11&#45;&gt;Node15 -->
<g id="edge21" class="edge"><title>Node11&#45;&gt;Node15</title>
<path fill="none" stroke="midnightblue" d="M597.211,-280.324C608.776,-272.107 626.375,-259.602 640.161,-249.807"/>
<polygon fill="midnightblue" stroke="midnightblue" points="642.443,-252.479 648.567,-243.834 638.388,-246.773 642.443,-252.479"/>
</g>
<!-- Node12&#45;&gt;Node6 -->
<g id="edge18" class="edge"><title>Node12&#45;&gt;Node6</title>
<path fill="none" stroke="midnightblue" d="M453.006,-224.449C497.187,-217.254 549.761,-205.334 564,-188 601.277,-142.62 606.965,-101.634 570,-56 554.542,-36.9158 499.719,-25.5934 449.7,-19.0794"/>
<polygon fill="midnightblue" stroke="midnightblue" points="450.13,-15.6059 439.773,-17.8398 449.262,-22.552 450.13,-15.6059"/>
</g>
<!-- Node12&#45;&gt;Node11 -->
<g id="edge20" class="edge"><title>Node12&#45;&gt;Node11</title>
<path fill="none" stroke="midnightblue" d="M423.307,-243.516C459.017,-252.703 513.018,-267.381 548.714,-277.568"/>
<polygon fill="midnightblue" stroke="midnightblue" points="548.137,-281.044 558.715,-280.444 550.072,-274.316 548.137,-281.044"/>
</g>
<!-- Node13 -->
<g id="node13" class="node"><title>Node13</title>
<g id="a_node13"><a xlink:href="../../db/d02/Settings_8hpp.html" target="_top" xlink:title="All user settings and debugging options can be changed here.">
<polygon fill="white" stroke="black" points="313.5,-168.5 313.5,-187.5 384.5,-187.5 384.5,-168.5 313.5,-168.5"/>
<text text-anchor="middle" x="349" y="-175.5" font-family="Helvetica,sans-Serif" font-size="10.00">Settings.hpp</text>
</a>
</g>
</g>
<!-- Node12&#45;&gt;Node13 -->
<g id="edge16" class="edge"><title>Node12&#45;&gt;Node13</title>
<path fill="none" stroke="midnightblue" d="M380.725,-224.083C375.358,-216.455 367.482,-205.264 360.921,-195.941"/>
<polygon fill="midnightblue" stroke="midnightblue" points="363.775,-193.915 355.158,-187.751 358.051,-197.943 363.775,-193.915"/>
</g>
<!-- Node14 -->
<g id="node14" class="node"><title>Node14</title>
<g id="a_node14"><a xlink:href="../../d9/d98/TeensyUSBTypes_8hpp.html" target="_top" xlink:title=" ">
<polygon fill="white" stroke="black" points="403,-168.5 403,-187.5 555,-187.5 555,-168.5 403,-168.5"/>
<text text-anchor="middle" x="479" y="-175.5" font-family="Helvetica,sans-Serif" font-size="10.00">Helpers/TeensyUSBTypes.hpp</text>
</a>
</g>
</g>
<!-- Node12&#45;&gt;Node14 -->
<g id="edge19" class="edge"><title>Node12&#45;&gt;Node14</title>
<path fill="none" stroke="midnightblue" d="M401.781,-224.324C416.267,-215.822 438.573,-202.729 455.493,-192.797"/>
<polygon fill="midnightblue" stroke="midnightblue" points="457.403,-195.735 464.255,-187.655 453.859,-189.698 457.403,-195.735"/>
</g>
<!-- Node13&#45;&gt;Node3 -->
<g id="edge17" class="edge"><title>Node13&#45;&gt;Node3</title>
<path fill="none" stroke="midnightblue" d="M342.065,-168.083C336.071,-160.377 327.248,-149.033 319.952,-139.653"/>
<polygon fill="midnightblue" stroke="midnightblue" points="322.709,-137.496 313.806,-131.751 317.183,-141.793 322.709,-137.496"/>
</g>
<!-- Node16 -->
<g id="node16" class="node"><title>Node16</title>
<g id="a_node16"><a xlink:title=" ">
<polygon fill="white" stroke="#bfbfbf" points="622,-168.5 622,-187.5 680,-187.5 680,-168.5 622,-168.5"/>
<text text-anchor="middle" x="651" y="-175.5" font-family="Helvetica,sans-Serif" font-size="10.00">Arduino.h</text>
</a>
</g>
</g>
<!-- Node15&#45;&gt;Node16 -->
<g id="edge22" class="edge"><title>Node15&#45;&gt;Node16</title>
<path fill="none" stroke="midnightblue" d="M659.349,-224.083C658.024,-216.927 656.118,-206.635 654.461,-197.691"/>
<polygon fill="midnightblue" stroke="midnightblue" points="657.883,-196.947 652.621,-187.751 651,-198.221 657.883,-196.947"/>
</g>
<!-- Node18&#45;&gt;Node3 -->
<g id="edge28" class="edge"><title>Node18&#45;&gt;Node3</title>
<path fill="none" stroke="midnightblue" d="M377.798,-392.492C345.295,-377.293 285,-342.197 285,-291 285,-291 285,-291 285,-233 285,-200.328 294.447,-163.24 300.96,-141.553"/>
<polygon fill="midnightblue" stroke="midnightblue" points="304.391,-142.31 304.033,-131.721 297.709,-140.222 304.391,-142.31"/>
</g>
<!-- Node18&#45;&gt;Node9 -->
<g id="edge37" class="edge"><title>Node18&#45;&gt;Node9</title>
<path fill="none" stroke="midnightblue" d="M456.353,-394.019C552.332,-380.893 733,-348.542 733,-291 733,-291 733,-291 733,-121 733,-39.8616 611.805,-18.5703 549.321,-12.9851"/>
<polygon fill="midnightblue" stroke="midnightblue" points="549.349,-9.47616 539.101,-12.1649 548.789,-16.4537 549.349,-9.47616"/>
</g>
<!-- Node18&#45;&gt;Node10 -->
<g id="edge29" class="edge"><title>Node18&#45;&gt;Node10</title>
<path fill="none" stroke="midnightblue" d="M425.571,-392.444C455.097,-383.28 502.118,-368.688 534.883,-358.519"/>
<polygon fill="midnightblue" stroke="midnightblue" points="536.045,-361.823 544.558,-355.516 533.97,-355.138 536.045,-361.823"/>
</g>
<!-- Node18&#45;&gt;Node12 -->
<g id="edge36" class="edge"><title>Node18&#45;&gt;Node12</title>
<path fill="none" stroke="midnightblue" d="M394.195,-392.251C386.022,-372.407 367.997,-322.41 374,-280 375.268,-271.042 377.889,-261.372 380.448,-253.3"/>
<polygon fill="midnightblue" stroke="midnightblue" points="383.771,-254.398 383.656,-243.803 377.139,-252.157 383.771,-254.398"/>
</g>
<!-- Node19 -->
<g id="node19" class="node"><title>Node19</title>
<g id="a_node19"><a xlink:href="../../de/dd1/LinkedList_8hpp.html" target="_top" xlink:title=" ">
<polygon fill="white" stroke="black" points="392,-336.5 392,-355.5 508,-355.5 508,-336.5 392,-336.5"/>
<text text-anchor="middle" x="450" y="-343.5" font-family="Helvetica,sans-Serif" font-size="10.00">Helpers/LinkedList.hpp</text>
</a>
</g>
</g>
<!-- Node18&#45;&gt;Node19 -->
<g id="edge30" class="edge"><title>Node18&#45;&gt;Node19</title>
<path fill="none" stroke="midnightblue" d="M406.587,-392.083C414.159,-384.22 425.378,-372.569 434.514,-363.081"/>
<polygon fill="midnightblue" stroke="midnightblue" points="437.158,-365.382 441.573,-355.751 432.115,-360.527 437.158,-365.382"/>
</g>
<!-- Node19&#45;&gt;Node11 -->
<g id="edge31" class="edge"><title>Node19&#45;&gt;Node11</title>
<path fill="none" stroke="midnightblue" d="M471.391,-336.444C493.707,-327.517 528.903,-313.439 554.208,-303.317"/>
<polygon fill="midnightblue" stroke="midnightblue" points="555.724,-306.48 563.709,-299.516 553.124,-299.981 555.724,-306.48"/>
</g>
<!-- Node20 -->
<g id="node20" class="node"><title>Node20</title>
<g id="a_node20"><a xlink:title=" ">
<polygon fill="white" stroke="#bfbfbf" points="383,-280.5 383,-299.5 431,-299.5 431,-280.5 383,-280.5"/>
<text text-anchor="middle" x="407" y="-287.5" font-family="Helvetica,sans-Serif" font-size="10.00">stdlib.h</text>
</a>
</g>
</g>
<!-- Node19&#45;&gt;Node20 -->
<g id="edge32" class="edge"><title>Node19&#45;&gt;Node20</title>
<path fill="none" stroke="midnightblue" d="M442.899,-336.083C436.763,-328.377 427.73,-317.033 420.261,-307.653"/>
<polygon fill="midnightblue" stroke="midnightblue" points="422.936,-305.394 413.968,-299.751 417.46,-309.754 422.936,-305.394"/>
</g>
<!-- Node21 -->
<g id="node21" class="node"><title>Node21</title>
<g id="a_node21"><a xlink:href="../../d7/d79/MinMaxFix_8hpp.html" target="_top" xlink:title=" ">
<polygon fill="white" stroke="black" points="479,-224.5 479,-243.5 599,-243.5 599,-224.5 479,-224.5"/>
<text text-anchor="middle" x="539" y="-231.5" font-family="Helvetica,sans-Serif" font-size="10.00">Helpers/MinMaxFix.hpp</text>
</a>
</g>
</g>
<!-- Node19&#45;&gt;Node21 -->
<g id="edge33" class="edge"><title>Node19&#45;&gt;Node21</title>
<path fill="none" stroke="midnightblue" d="M452.352,-336.253C456.233,-323.016 464.973,-297.579 479,-280 488.837,-267.672 502.797,-256.936 514.777,-249.045"/>
<polygon fill="midnightblue" stroke="midnightblue" points="516.851,-251.875 523.45,-243.586 513.123,-245.951 516.851,-251.875"/>
</g>
<!-- Node22 -->
<g id="node22" class="node"><title>Node22</title>
<g id="a_node22"><a xlink:title=" ">
<polygon fill="white" stroke="#bfbfbf" points="487.5,-280.5 487.5,-299.5 534.5,-299.5 534.5,-280.5 487.5,-280.5"/>
<text text-anchor="middle" x="511" y="-287.5" font-family="Helvetica,sans-Serif" font-size="10.00">iterator</text>
</a>
</g>
</g>
<!-- Node19&#45;&gt;Node22 -->
<g id="edge35" class="edge"><title>Node19&#45;&gt;Node22</title>
<path fill="none" stroke="midnightblue" d="M459.801,-336.324C468.818,-328.341 482.406,-316.313 493.318,-306.653"/>
<polygon fill="midnightblue" stroke="midnightblue" points="495.853,-309.083 501.021,-299.834 491.213,-303.842 495.853,-309.083"/>
</g>
<!-- Node21&#45;&gt;Node16 -->
<g id="edge34" class="edge"><title>Node21&#45;&gt;Node16</title>
<path fill="none" stroke="midnightblue" d="M556.995,-224.324C575.038,-215.625 603.047,-202.12 623.803,-192.113"/>
<polygon fill="midnightblue" stroke="midnightblue" points="625.562,-195.15 633.05,-187.655 622.522,-188.845 625.562,-195.15"/>
</g>
</g>
</svg>
