<?xml version="1.0" encoding="UTF-8" standalone="no"?>
<!DOCTYPE svg PUBLIC "-//W3C//DTD SVG 1.1//EN"
 "http://www.w3.org/Graphics/SVG/1.1/DTD/svg11.dtd">
<!-- Generated by graphviz version 2.38.0 (20140413.2041)
 -->
<!-- Title: Selector.hpp Pages: 1 -->
<svg width="585pt" height="364pt"
 viewBox="0.00 0.00 585.00 364.00" xmlns="http://www.w3.org/2000/svg" xmlns:xlink="http://www.w3.org/1999/xlink">
<g id="graph0" class="graph" transform="scale(1 1) rotate(0) translate(4 360)">
<title>Selector.hpp</title>
<polygon fill="white" stroke="none" points="-4,4 -4,-360 581,-360 581,4 -4,4"/>
<!-- Node0 -->
<g id="node1" class="node"><title>Node0</title>
<g id="a_node1"><a xlink:title=" ">
<polygon fill="#bfbfbf" stroke="black" points="235.5,-336.5 235.5,-355.5 306.5,-355.5 306.5,-336.5 235.5,-336.5"/>
<text text-anchor="middle" x="271" y="-343.5" font-family="Helvetica,sans-Serif" font-size="10.00">Selector.hpp</text>
</a>
</g>
</g>
<!-- Node1 -->
<g id="node2" class="node"><title>Node1</title>
<g id="a_node2"><a xlink:href="../../d9/d46/Selectable_8hpp.html" target="_top" xlink:title=" ">
<polygon fill="white" stroke="black" points="37.5,-280.5 37.5,-299.5 118.5,-299.5 118.5,-280.5 37.5,-280.5"/>
<text text-anchor="middle" x="78" y="-287.5" font-family="Helvetica,sans-Serif" font-size="10.00">Selectable.hpp</text>
</a>
</g>
</g>
<!-- Node0&#45;&gt;Node1 -->
<g id="edge1" class="edge"><title>Node0&#45;&gt;Node1</title>
<path fill="none" stroke="midnightblue" d="M240.419,-336.444C207.385,-327.201 154.612,-312.436 118.234,-302.257"/>
<polygon fill="midnightblue" stroke="midnightblue" points="119.012,-298.84 108.438,-299.516 117.125,-305.582 119.012,-298.84"/>
</g>
<!-- Node2 -->
<g id="node3" class="node"><title>Node2</title>
<g id="a_node3"><a xlink:href="../../d0/d4e/Def_8hpp.html" target="_top" xlink:title=" ">
<polygon fill="white" stroke="black" points="152,-224.5 152,-243.5 222,-243.5 222,-224.5 152,-224.5"/>
<text text-anchor="middle" x="187" y="-231.5" font-family="Helvetica,sans-Serif" font-size="10.00">Def/Def.hpp</text>
</a>
</g>
</g>
<!-- Node0&#45;&gt;Node2 -->
<g id="edge30" class="edge"><title>Node0&#45;&gt;Node2</title>
<path fill="none" stroke="midnightblue" d="M270.293,-336.197C268.839,-322.886 264.517,-297.355 252,-280 242.503,-266.832 227.905,-256.225 214.947,-248.624"/>
<polygon fill="midnightblue" stroke="midnightblue" points="216.344,-245.397 205.898,-243.627 212.96,-251.525 216.344,-245.397"/>
</g>
<!-- Node7 -->
<g id="node8" class="node"><title>Node7</title>
<g id="a_node8"><a xlink:href="../../df/dee/Debug_8hpp.html" target="_top" xlink:title=" ">
<polygon fill="white" stroke="black" points="398,-168.5 398,-187.5 462,-187.5 462,-168.5 398,-168.5"/>
<text text-anchor="middle" x="430" y="-175.5" font-family="Helvetica,sans-Serif" font-size="10.00">Debug.hpp</text>
</a>
</g>
</g>
<!-- Node0&#45;&gt;Node7 -->
<g id="edge19" class="edge"><title>Node0&#45;&gt;Node7</title>
<path fill="none" stroke="midnightblue" d="M306.511,-343.391C364.319,-338.568 476.668,-319.443 520,-244 534.293,-219.116 501.518,-201.191 471.59,-190.547"/>
<polygon fill="midnightblue" stroke="midnightblue" points="472.63,-187.204 462.036,-187.347 470.407,-193.842 472.63,-187.204"/>
</g>
<!-- Node14 -->
<g id="node15" class="node"><title>Node14</title>
<g id="a_node15"><a xlink:href="../../db/d44/LinkedList_8h.html" target="_top" xlink:title=" ">
<polygon fill="white" stroke="black" points="137,-280.5 137,-299.5 243,-299.5 243,-280.5 137,-280.5"/>
<text text-anchor="middle" x="190" y="-287.5" font-family="Helvetica,sans-Serif" font-size="10.00">Helpers/LinkedList.h</text>
</a>
</g>
</g>
<!-- Node0&#45;&gt;Node14 -->
<g id="edge20" class="edge"><title>Node0&#45;&gt;Node14</title>
<path fill="none" stroke="midnightblue" d="M257.986,-336.324C245.468,-327.979 226.318,-315.212 211.529,-305.352"/>
<polygon fill="midnightblue" stroke="midnightblue" points="213.244,-302.289 202.982,-299.655 209.361,-308.114 213.244,-302.289"/>
</g>
<!-- Node15 -->
<g id="node16" class="node"><title>Node15</title>
<g id="a_node16"><a xlink:href="../../d4/d93/Updatable_8hpp.html" target="_top" xlink:title=" ">
<polygon fill="white" stroke="black" points="299,-280.5 299,-299.5 415,-299.5 415,-280.5 299,-280.5"/>
<text text-anchor="middle" x="357" y="-287.5" font-family="Helvetica,sans-Serif" font-size="10.00">Helpers/Updatable.hpp</text>
</a>
</g>
</g>
<!-- Node0&#45;&gt;Node15 -->
<g id="edge22" class="edge"><title>Node0&#45;&gt;Node15</title>
<path fill="none" stroke="midnightblue" d="M284.817,-336.324C298.233,-327.9 318.824,-314.971 334.586,-305.074"/>
<polygon fill="midnightblue" stroke="midnightblue" points="336.609,-307.936 343.217,-299.655 332.887,-302.008 336.609,-307.936"/>
</g>
<!-- Node1&#45;&gt;Node2 -->
<g id="edge2" class="edge"><title>Node1&#45;&gt;Node2</title>
<path fill="none" stroke="midnightblue" d="M95.5127,-280.324C113.072,-271.625 140.331,-258.12 160.531,-248.113"/>
<polygon fill="midnightblue" stroke="midnightblue" points="162.124,-251.23 169.531,-243.655 159.016,-244.958 162.124,-251.23"/>
</g>
<!-- Node5 -->
<g id="node6" class="node"><title>Node5</title>
<g id="a_node6"><a xlink:title=" ">
<polygon fill="white" stroke="#bfbfbf" points="27.5,-0.5 27.5,-19.5 76.5,-19.5 76.5,-0.5 27.5,-0.5"/>
<text text-anchor="middle" x="52" y="-7.5" font-family="Helvetica,sans-Serif" font-size="10.00">stdint.h</text>
</a>
</g>
</g>
<!-- Node1&#45;&gt;Node5 -->
<g id="edge17" class="edge"><title>Node1&#45;&gt;Node5</title>
<path fill="none" stroke="midnightblue" d="M61.6573,-280.437C48.3153,-272.641 29.9395,-259.929 19,-244 1.9609,-219.19 0,-209.098 0,-179 0,-179 0,-179 0,-121 0,-85.1188 22.894,-48.4243 38.3004,-27.7932"/>
<polygon fill="midnightblue" stroke="midnightblue" points="41.1817,-29.7894 44.5497,-19.7441 35.6525,-25.4965 41.1817,-29.7894"/>
</g>
<!-- Node6 -->
<g id="node7" class="node"><title>Node6</title>
<g id="a_node7"><a xlink:href="../../d1/d93/Error_8hpp.html" target="_top" xlink:title=" ">
<polygon fill="white" stroke="black" points="284.5,-224.5 284.5,-243.5 377.5,-243.5 377.5,-224.5 284.5,-224.5"/>
<text text-anchor="middle" x="331" y="-231.5" font-family="Helvetica,sans-Serif" font-size="10.00">Helpers/Error.hpp</text>
</a>
</g>
</g>
<!-- Node1&#45;&gt;Node6 -->
<g id="edge7" class="edge"><title>Node1&#45;&gt;Node6</title>
<path fill="none" stroke="midnightblue" d="M118.089,-280.444C162.316,-271.004 233.539,-255.802 281.285,-245.611"/>
<polygon fill="midnightblue" stroke="midnightblue" points="282.05,-249.027 291.099,-243.516 280.589,-242.181 282.05,-249.027"/>
</g>
<!-- Node13 -->
<g id="node14" class="node"><title>Node13</title>
<g id="a_node14"><a xlink:href="../../d7/dd7/Helpers_8hpp.html" target="_top" xlink:title=" ">
<polygon fill="white" stroke="black" points="28,-224.5 28,-243.5 134,-243.5 134,-224.5 28,-224.5"/>
<text text-anchor="middle" x="81" y="-231.5" font-family="Helvetica,sans-Serif" font-size="10.00">Helpers/Helpers.hpp</text>
</a>
</g>
</g>
<!-- Node1&#45;&gt;Node13 -->
<g id="edge18" class="edge"><title>Node1&#45;&gt;Node13</title>
<path fill="none" stroke="midnightblue" d="M78.4954,-280.083C78.8886,-273.006 79.4522,-262.861 79.9452,-253.986"/>
<polygon fill="midnightblue" stroke="midnightblue" points="83.4536,-253.93 80.5138,-243.751 76.4644,-253.542 83.4536,-253.93"/>
</g>
<!-- Node3 -->
<g id="node4" class="node"><title>Node3</title>
<g id="a_node4"><a xlink:href="../../de/d76/Array_8hpp.html" target="_top" xlink:title=" ">
<polygon fill="white" stroke="black" points="132.5,-168.5 132.5,-187.5 227.5,-187.5 227.5,-168.5 132.5,-168.5"/>
<text text-anchor="middle" x="180" y="-175.5" font-family="Helvetica,sans-Serif" font-size="10.00">Helpers/Array.hpp</text>
</a>
</g>
</g>
<!-- Node2&#45;&gt;Node3 -->
<g id="edge3" class="edge"><title>Node2&#45;&gt;Node3</title>
<path fill="none" stroke="midnightblue" d="M185.844,-224.083C184.916,-216.927 183.582,-206.635 182.423,-197.691"/>
<polygon fill="midnightblue" stroke="midnightblue" points="185.891,-197.218 181.134,-187.751 178.949,-198.118 185.891,-197.218"/>
</g>
<!-- Node4 -->
<g id="node5" class="node"><title>Node4</title>
<g id="a_node5"><a xlink:title=" ">
<polygon fill="white" stroke="#bfbfbf" points="152,-0.5 152,-19.5 204,-19.5 204,-0.5 152,-0.5"/>
<text text-anchor="middle" x="178" y="-7.5" font-family="Helvetica,sans-Serif" font-size="10.00">stddef.h</text>
</a>
</g>
</g>
<!-- Node2&#45;&gt;Node4 -->
<g id="edge5" class="edge"><title>Node2&#45;&gt;Node4</title>
<path fill="none" stroke="midnightblue" d="M167.06,-224.477C152.33,-217.076 133.146,-204.881 123,-188 97.1582,-145.003 112.117,-126.068 109,-76 108.448,-67.1283 104.766,-63.8158 109,-56 116.749,-41.6958 131.234,-31.2188 144.94,-23.992"/>
<polygon fill="midnightblue" stroke="midnightblue" points="146.738,-27.0103 154.212,-19.501 143.686,-20.7104 146.738,-27.0103"/>
</g>
<!-- Node2&#45;&gt;Node5 -->
<g id="edge6" class="edge"><title>Node2&#45;&gt;Node5</title>
<path fill="none" stroke="midnightblue" d="M163.009,-224.353C145.993,-217.081 123.813,-205.106 110,-188 71.1233,-139.854 57.9591,-64.7818 53.7901,-29.9434"/>
<polygon fill="midnightblue" stroke="midnightblue" points="57.2451,-29.3369 52.6969,-19.768 50.2852,-30.0847 57.2451,-29.3369"/>
</g>
<!-- Node3&#45;&gt;Node4 -->
<g id="edge4" class="edge"><title>Node3&#45;&gt;Node4</title>
<path fill="none" stroke="midnightblue" d="M181.589,-168.469C185.052,-148.667 192.617,-98.0635 188,-56 187.027,-47.1398 185.008,-37.4716 183.037,-29.3755"/>
<polygon fill="midnightblue" stroke="midnightblue" points="186.383,-28.333 180.482,-19.5332 179.607,-30.0919 186.383,-28.333"/>
</g>
<!-- Node6&#45;&gt;Node7 -->
<g id="edge8" class="edge"><title>Node6&#45;&gt;Node7</title>
<path fill="none" stroke="midnightblue" d="M346.906,-224.324C362.638,-215.743 386.942,-202.486 405.209,-192.522"/>
<polygon fill="midnightblue" stroke="midnightblue" points="407.03,-195.516 414.133,-187.655 403.678,-189.37 407.03,-195.516"/>
</g>
<!-- Node8 -->
<g id="node9" class="node"><title>Node8</title>
<g id="a_node9"><a xlink:href="../../d4/d6b/SettingsWrapper_8h.html" target="_top" xlink:title=" ">
<polygon fill="white" stroke="black" points="236.5,-112.5 236.5,-131.5 373.5,-131.5 373.5,-112.5 236.5,-112.5"/>
<text text-anchor="middle" x="305" y="-119.5" font-family="Helvetica,sans-Serif" font-size="10.00">Settings/SettingsWrapper.h</text>
</a>
</g>
</g>
<!-- Node7&#45;&gt;Node8 -->
<g id="edge9" class="edge"><title>Node7&#45;&gt;Node8</title>
<path fill="none" stroke="midnightblue" d="M405.105,-168.444C382.884,-159.675 350.826,-145.935 328.915,-135.858"/>
<polygon fill="midnightblue" stroke="midnightblue" points="330.175,-132.583 319.634,-131.516 327.209,-138.924 330.175,-132.583"/>
</g>
<!-- Node10 -->
<g id="node11" class="node"><title>Node10</title>
<g id="a_node11"><a xlink:title=" ">
<polygon fill="white" stroke="#bfbfbf" points="487,-112.5 487,-131.5 535,-131.5 535,-112.5 487,-112.5"/>
<text text-anchor="middle" x="511" y="-119.5" font-family="Helvetica,sans-Serif" font-size="10.00">stdlib.h</text>
</a>
</g>
</g>
<!-- Node7&#45;&gt;Node10 -->
<g id="edge14" class="edge"><title>Node7&#45;&gt;Node10</title>
<path fill="none" stroke="midnightblue" d="M443.014,-168.324C455.532,-159.979 474.682,-147.212 489.471,-137.352"/>
<polygon fill="midnightblue" stroke="midnightblue" points="491.639,-140.114 498.018,-131.655 487.756,-134.289 491.639,-140.114"/>
</g>
<!-- Node11 -->
<g id="node12" class="node"><title>Node11</title>
<g id="a_node12"><a xlink:href="../../dc/d48/PrintStream_8h.html" target="_top" xlink:title=" ">
<polygon fill="white" stroke="black" points="391.5,-112.5 391.5,-131.5 468.5,-131.5 468.5,-112.5 391.5,-112.5"/>
<text text-anchor="middle" x="430" y="-119.5" font-family="Helvetica,sans-Serif" font-size="10.00">PrintStream.h</text>
</a>
</g>
</g>
<!-- Node7&#45;&gt;Node11 -->
<g id="edge15" class="edge"><title>Node7&#45;&gt;Node11</title>
<path fill="none" stroke="midnightblue" d="M430,-168.083C430,-161.006 430,-150.861 430,-141.986"/>
<polygon fill="midnightblue" stroke="midnightblue" points="433.5,-141.751 430,-131.751 426.5,-141.751 433.5,-141.751"/>
</g>
<!-- Node8&#45;&gt;Node7 -->
<g id="edge13" class="edge"><title>Node8&#45;&gt;Node7</title>
<path fill="none" stroke="midnightblue" d="M329.794,-131.516C351.985,-140.27 384.043,-154.007 405.985,-164.096"/>
<polygon fill="midnightblue" stroke="midnightblue" points="404.741,-167.378 415.282,-168.444 407.706,-161.037 404.741,-167.378"/>
</g>
<!-- Node9 -->
<g id="node10" class="node"><title>Node9</title>
<g id="a_node10"><a xlink:href="../../dd/dbc/Settings_8h.html" target="_top" xlink:title="All user settings and debugging options can be changed here.">
<polygon fill="white" stroke="black" points="118.5,-56.5 118.5,-75.5 179.5,-75.5 179.5,-56.5 118.5,-56.5"/>
<text text-anchor="middle" x="149" y="-63.5" font-family="Helvetica,sans-Serif" font-size="10.00">Settings.h</text>
</a>
</g>
</g>
<!-- Node8&#45;&gt;Node9 -->
<g id="edge10" class="edge"><title>Node8&#45;&gt;Node9</title>
<path fill="none" stroke="midnightblue" d="M280.281,-112.444C254.152,-103.399 212.741,-89.064 183.424,-78.9158"/>
<polygon fill="midnightblue" stroke="midnightblue" points="184.198,-75.4801 173.603,-75.5164 181.908,-82.0951 184.198,-75.4801"/>
</g>
<!-- Node9&#45;&gt;Node4 -->
<g id="edge11" class="edge"><title>Node9&#45;&gt;Node4</title>
<path fill="none" stroke="midnightblue" d="M153.789,-56.083C157.758,-48.6913 163.525,-37.9533 168.435,-28.8111"/>
<polygon fill="midnightblue" stroke="midnightblue" points="171.653,-30.217 173.3,-19.7511 165.486,-26.9051 171.653,-30.217"/>
</g>
<!-- Node9&#45;&gt;Node5 -->
<g id="edge12" class="edge"><title>Node9&#45;&gt;Node5</title>
<path fill="none" stroke="midnightblue" d="M133.415,-56.324C118.001,-47.7428 94.1878,-34.486 76.2903,-24.5224"/>
<polygon fill="midnightblue" stroke="midnightblue" points="77.9858,-21.4606 67.5461,-19.6545 74.5809,-27.5767 77.9858,-21.4606"/>
</g>
<!-- Node12 -->
<g id="node13" class="node"><title>Node12</title>
<g id="a_node13"><a xlink:title=" ">
<polygon fill="white" stroke="#bfbfbf" points="401,-56.5 401,-75.5 459,-75.5 459,-56.5 401,-56.5"/>
<text text-anchor="middle" x="430" y="-63.5" font-family="Helvetica,sans-Serif" font-size="10.00">Arduino.h</text>
</a>
</g>
</g>
<!-- Node11&#45;&gt;Node12 -->
<g id="edge16" class="edge"><title>Node11&#45;&gt;Node12</title>
<path fill="none" stroke="midnightblue" d="M430,-112.083C430,-105.006 430,-94.8611 430,-85.9865"/>
<polygon fill="midnightblue" stroke="midnightblue" points="433.5,-85.751 430,-75.7511 426.5,-85.7511 433.5,-85.751"/>
</g>
<!-- Node14&#45;&gt;Node2 -->
<g id="edge21" class="edge"><title>Node14&#45;&gt;Node2</title>
<path fill="none" stroke="midnightblue" d="M189.505,-280.083C189.111,-273.006 188.548,-262.861 188.055,-253.986"/>
<polygon fill="midnightblue" stroke="midnightblue" points="191.536,-253.542 187.486,-243.751 184.546,-253.93 191.536,-253.542"/>
</g>
<!-- Node15&#45;&gt;Node2 -->
<g id="edge29" class="edge"><title>Node15&#45;&gt;Node2</title>
<path fill="none" stroke="midnightblue" d="M330.063,-280.444C301.34,-271.32 255.671,-256.813 223.679,-246.651"/>
<polygon fill="midnightblue" stroke="midnightblue" points="224.401,-243.208 213.811,-243.516 222.282,-249.88 224.401,-243.208"/>
</g>
<!-- Node15&#45;&gt;Node4 -->
<g id="edge28" class="edge"><title>Node15&#45;&gt;Node4</title>
<path fill="none" stroke="midnightblue" d="M415.09,-284.639C480.27,-276.209 577,-251.488 577,-179 577,-179 577,-179 577,-121 577,-46.1248 312.568,-20.2583 214.245,-13.2284"/>
<polygon fill="midnightblue" stroke="midnightblue" points="214.397,-9.73069 204.18,-12.5336 213.915,-16.7141 214.397,-9.73069"/>
</g>
<!-- Node15&#45;&gt;Node6 -->
<g id="edge23" class="edge"><title>Node15&#45;&gt;Node6</title>
<path fill="none" stroke="midnightblue" d="M352.707,-280.083C349.148,-272.691 343.978,-261.953 339.576,-252.811"/>
<polygon fill="midnightblue" stroke="midnightblue" points="342.705,-251.243 335.213,-243.751 336.398,-254.279 342.705,-251.243"/>
</g>
<!-- Node15&#45;&gt;Node8 -->
<g id="edge27" class="edge"><title>Node15&#45;&gt;Node8</title>
<path fill="none" stroke="midnightblue" d="M325.191,-280.385C307.054,-273.661 285.836,-262.306 275,-244 255.244,-210.622 277.85,-164.679 293.189,-140.12"/>
<polygon fill="midnightblue" stroke="midnightblue" points="296.25,-141.834 298.797,-131.55 290.393,-138.001 296.25,-141.834"/>
</g>
<!-- Node16 -->
<g id="node17" class="node"><title>Node16</title>
<g id="a_node17"><a xlink:href="../../de/dd1/LinkedList_8hpp.html" target="_top" xlink:title=" ">
<polygon fill="white" stroke="black" points="395,-224.5 395,-243.5 511,-243.5 511,-224.5 395,-224.5"/>
<text text-anchor="middle" x="453" y="-231.5" font-family="Helvetica,sans-Serif" font-size="10.00">Helpers/LinkedList.hpp</text>
</a>
</g>
</g>
<!-- Node15&#45;&gt;Node16 -->
<g id="edge24" class="edge"><title>Node15&#45;&gt;Node16</title>
<path fill="none" stroke="midnightblue" d="M372.424,-280.324C387.54,-271.822 410.815,-258.729 428.471,-248.797"/>
<polygon fill="midnightblue" stroke="midnightblue" points="430.614,-251.608 437.614,-243.655 427.183,-245.507 430.614,-251.608"/>
</g>
<!-- Node16&#45;&gt;Node7 -->
<g id="edge26" class="edge"><title>Node16&#45;&gt;Node7</title>
<path fill="none" stroke="midnightblue" d="M449.202,-224.083C446.087,-216.77 441.577,-206.181 437.711,-197.103"/>
<polygon fill="midnightblue" stroke="midnightblue" points="440.866,-195.58 433.727,-187.751 434.426,-198.323 440.866,-195.58"/>
</g>
<!-- Node16&#45;&gt;Node10 -->
<g id="edge25" class="edge"><title>Node16&#45;&gt;Node10</title>
<path fill="none" stroke="midnightblue" d="M457.551,-224.368C467.038,-206.376 489.092,-164.55 501.706,-140.627"/>
<polygon fill="midnightblue" stroke="midnightblue" points="504.902,-142.07 506.47,-131.591 498.71,-138.805 504.902,-142.07"/>
</g>
</g>
</svg>
