<?xml version="1.0" encoding="UTF-8" standalone="no"?>
<!DOCTYPE svg PUBLIC "-//W3C//DTD SVG 1.1//EN"
 "http://www.w3.org/Graphics/SVG/1.1/DTD/svg11.dtd">
<!-- Generated by graphviz version 2.38.0 (20140413.2041)
 -->
<!-- Title: Bankable::MIDIFilteredAnalog&lt; Sender, PRECISION &gt; Pages: 1 -->
<svg width="269pt" height="711pt"
 viewBox="0.00 0.00 268.50 711.00" xmlns="http://www.w3.org/2000/svg" xmlns:xlink="http://www.w3.org/1999/xlink">
<g id="graph0" class="graph" transform="scale(1 1) rotate(0) translate(4 707)">
<title>Bankable::MIDIFilteredAnalog&lt; Sender, PRECISION &gt;</title>
<polygon fill="white" stroke="none" points="-4,4 -4,-707 264.5,-707 264.5,4 -4,4"/>
<!-- Node1 -->
<g id="node1" class="node"><title>Node1</title>
<g id="a_node1"><a xlink:title="A class for potentiometers and faders that send MIDI events (with only a channel, no address) and tha...">
<polygon fill="#bfbfbf" stroke="black" points="60,-0.5 60,-145.5 207,-145.5 207,-0.5 60,-0.5"/>
<text text-anchor="start" x="68" y="-133.5" font-family="Helvetica,sans-Serif" font-size="10.00">Bankable::MIDIFilteredAnalog</text>
<text text-anchor="middle" x="133.5" y="-122.5" font-family="Helvetica,sans-Serif" font-size="10.00">&lt; Sender, PRECISION &gt;</text>
<polyline fill="none" stroke="black" points="60,-115.5 207,-115.5 "/>
<text text-anchor="start" x="68" y="-103.5" font-family="Helvetica,sans-Serif" font-size="10.00">&#45; filteredAnalog</text>
<text text-anchor="start" x="68" y="-92.5" font-family="Helvetica,sans-Serif" font-size="10.00">&#45; address</text>
<text text-anchor="start" x="68" y="-81.5" font-family="Helvetica,sans-Serif" font-size="10.00">&#45; sender</text>
<polyline fill="none" stroke="black" points="60,-74.5 207,-74.5 "/>
<text text-anchor="start" x="68" y="-62.5" font-family="Helvetica,sans-Serif" font-size="10.00">+ begin()</text>
<text text-anchor="start" x="68" y="-51.5" font-family="Helvetica,sans-Serif" font-size="10.00">+ update()</text>
<text text-anchor="start" x="68" y="-40.5" font-family="Helvetica,sans-Serif" font-size="10.00">+ map()</text>
<text text-anchor="start" x="68" y="-29.5" font-family="Helvetica,sans-Serif" font-size="10.00">+ getRawValue()</text>
<text text-anchor="start" x="68" y="-18.5" font-family="Helvetica,sans-Serif" font-size="10.00">+ getValue()</text>
<text text-anchor="start" x="68" y="-7.5" font-family="Helvetica,sans-Serif" font-size="10.00"># MIDIFilteredAnalog()</text>
</a>
</g>
</g>
<!-- Node2 -->
<g id="node2" class="node"><title>Node2</title>
<g id="a_node2"><a xlink:href="../../dc/dc9/structMIDIOutputElement.html" target="_top" xlink:title=" ">
<polygon fill="white" stroke="black" points="16.5,-232 16.5,-289 120.5,-289 120.5,-232 16.5,-232"/>
<text text-anchor="middle" x="68.5" y="-277" font-family="Helvetica,sans-Serif" font-size="10.00">MIDIOutputElement</text>
<polyline fill="none" stroke="black" points="16.5,-270 120.5,-270 "/>
<text text-anchor="middle" x="68.5" y="-258" font-family="Helvetica,sans-Serif" font-size="10.00"> </text>
<polyline fill="none" stroke="black" points="16.5,-251 120.5,-251 "/>
<text text-anchor="middle" x="68.5" y="-239" font-family="Helvetica,sans-Serif" font-size="10.00"> </text>
</a>
</g>
</g>
<!-- Node2&#45;&gt;Node1 -->
<g id="edge1" class="edge"><title>Node2&#45;&gt;Node1</title>
<path fill="none" stroke="midnightblue" d="M81.5892,-222.146C89.2718,-200.22 99.2385,-171.777 108.382,-145.683"/>
<polygon fill="none" stroke="midnightblue" points="78.235,-221.134 78.2312,-231.729 84.8412,-223.449 78.235,-221.134"/>
</g>
<!-- Node3 -->
<g id="node3" class="node"><title>Node3</title>
<g id="a_node3"><a xlink:href="../../d5/de0/classUpdatable.html" target="_top" xlink:title=" ">
<polygon fill="white" stroke="black" points="27.5,-375.5 27.5,-586.5 109.5,-586.5 109.5,-375.5 27.5,-375.5"/>
<text text-anchor="middle" x="68.5" y="-574.5" font-family="Helvetica,sans-Serif" font-size="10.00">Updatable&lt;&gt;</text>
<polyline fill="none" stroke="black" points="27.5,-567.5 109.5,-567.5 "/>
<text text-anchor="start" x="35.5" y="-555.5" font-family="Helvetica,sans-Serif" font-size="10.00">&#45; updatables</text>
<polyline fill="none" stroke="black" points="27.5,-548.5 109.5,-548.5 "/>
<text text-anchor="start" x="35.5" y="-536.5" font-family="Helvetica,sans-Serif" font-size="10.00">+ ~Updatable()</text>
<text text-anchor="start" x="35.5" y="-525.5" font-family="Helvetica,sans-Serif" font-size="10.00">+ update()</text>
<text text-anchor="start" x="35.5" y="-514.5" font-family="Helvetica,sans-Serif" font-size="10.00">+ begin()</text>
<text text-anchor="start" x="35.5" y="-503.5" font-family="Helvetica,sans-Serif" font-size="10.00">+ enable()</text>
<text text-anchor="start" x="35.5" y="-492.5" font-family="Helvetica,sans-Serif" font-size="10.00">+ disable()</text>
<text text-anchor="start" x="35.5" y="-481.5" font-family="Helvetica,sans-Serif" font-size="10.00">+ isEnabled()</text>
<text text-anchor="start" x="35.5" y="-470.5" font-family="Helvetica,sans-Serif" font-size="10.00">+ enable()</text>
<text text-anchor="start" x="35.5" y="-459.5" font-family="Helvetica,sans-Serif" font-size="10.00">+ enable()</text>
<text text-anchor="start" x="35.5" y="-448.5" font-family="Helvetica,sans-Serif" font-size="10.00">+ enable()</text>
<text text-anchor="start" x="35.5" y="-437.5" font-family="Helvetica,sans-Serif" font-size="10.00">+ disable()</text>
<text text-anchor="start" x="35.5" y="-426.5" font-family="Helvetica,sans-Serif" font-size="10.00">+ disable()</text>
<text text-anchor="start" x="35.5" y="-415.5" font-family="Helvetica,sans-Serif" font-size="10.00">+ disable()</text>
<text text-anchor="start" x="35.5" y="-404.5" font-family="Helvetica,sans-Serif" font-size="10.00">+ beginAll()</text>
<text text-anchor="start" x="35.5" y="-393.5" font-family="Helvetica,sans-Serif" font-size="10.00">+ updateAll()</text>
<text text-anchor="start" x="35.5" y="-382.5" font-family="Helvetica,sans-Serif" font-size="10.00"># Updatable()</text>
</a>
</g>
</g>
<!-- Node3&#45;&gt;Node2 -->
<g id="edge2" class="edge"><title>Node3&#45;&gt;Node2</title>
<path fill="none" stroke="midnightblue" d="M68.5,-365.176C68.5,-336.775 68.5,-308.878 68.5,-289.189"/>
<polygon fill="none" stroke="midnightblue" points="65.0001,-365.23 68.5,-375.23 72.0001,-365.23 65.0001,-365.23"/>
</g>
<!-- Node4 -->
<g id="node4" class="node"><title>Node4</title>
<g id="a_node4"><a xlink:href="../../d4/d23/classDoublyLinkable.html" target="_top" xlink:title=" ">
<polygon fill="white" stroke="black" points="0,-623.5 0,-702.5 137,-702.5 137,-623.5 0,-623.5"/>
<text text-anchor="start" x="8" y="-690.5" font-family="Helvetica,sans-Serif" font-size="10.00">DoublyLinkable&lt; Updatable</text>
<text text-anchor="middle" x="68.5" y="-679.5" font-family="Helvetica,sans-Serif" font-size="10.00">&lt; NormalUpdatable &gt; &gt;</text>
<polyline fill="none" stroke="black" points="0,-672.5 137,-672.5 "/>
<text text-anchor="start" x="8" y="-660.5" font-family="Helvetica,sans-Serif" font-size="10.00"># next</text>
<text text-anchor="start" x="8" y="-649.5" font-family="Helvetica,sans-Serif" font-size="10.00"># previous</text>
<polyline fill="none" stroke="black" points="0,-642.5 137,-642.5 "/>
<text text-anchor="start" x="8" y="-630.5" font-family="Helvetica,sans-Serif" font-size="10.00"># ~DoublyLinkable()</text>
</a>
</g>
</g>
<!-- Node4&#45;&gt;Node3 -->
<g id="edge3" class="edge"><title>Node4&#45;&gt;Node3</title>
<path fill="none" stroke="midnightblue" d="M68.5,-613.16C68.5,-604.809 68.5,-595.856 68.5,-586.694"/>
<polygon fill="none" stroke="midnightblue" points="65.0001,-613.385 68.5,-623.385 72.0001,-613.386 65.0001,-613.385"/>
</g>
<!-- Node5 -->
<g id="node5" class="node"><title>Node5</title>
<g id="a_node5"><a xlink:href="../../d3/d43/classBankableMIDIOutput.html" target="_top" xlink:title="A base class for all MIDIOutputElement::s that can be banked.">
<polygon fill="white" stroke="black" points="138.5,-182.5 138.5,-338.5 260.5,-338.5 260.5,-182.5 138.5,-182.5"/>
<text text-anchor="middle" x="199.5" y="-326.5" font-family="Helvetica,sans-Serif" font-size="10.00">BankableMIDIOutput</text>
<polyline fill="none" stroke="black" points="138.5,-319.5 260.5,-319.5 "/>
<text text-anchor="start" x="146.5" y="-307.5" font-family="Helvetica,sans-Serif" font-size="10.00">&#45; bank</text>
<text text-anchor="start" x="146.5" y="-296.5" font-family="Helvetica,sans-Serif" font-size="10.00">&#45; type</text>
<text text-anchor="start" x="146.5" y="-285.5" font-family="Helvetica,sans-Serif" font-size="10.00">&#45; lockedSetting</text>
<text text-anchor="start" x="146.5" y="-274.5" font-family="Helvetica,sans-Serif" font-size="10.00">&#45; UNLOCKED</text>
<polyline fill="none" stroke="black" points="138.5,-267.5 260.5,-267.5 "/>
<text text-anchor="start" x="146.5" y="-255.5" font-family="Helvetica,sans-Serif" font-size="10.00">+ getAddressOffset()</text>
<text text-anchor="start" x="146.5" y="-244.5" font-family="Helvetica,sans-Serif" font-size="10.00">+ getRawBankSetting()</text>
<text text-anchor="start" x="146.5" y="-233.5" font-family="Helvetica,sans-Serif" font-size="10.00">+ getSelection()</text>
<text text-anchor="start" x="146.5" y="-222.5" font-family="Helvetica,sans-Serif" font-size="10.00"># BankableMIDIOutput()</text>
<text text-anchor="start" x="146.5" y="-211.5" font-family="Helvetica,sans-Serif" font-size="10.00"># BankableMIDIOutput()</text>
<text text-anchor="start" x="146.5" y="-200.5" font-family="Helvetica,sans-Serif" font-size="10.00"># lock()</text>
<text text-anchor="start" x="146.5" y="-189.5" font-family="Helvetica,sans-Serif" font-size="10.00"># unlock()</text>
</a>
</g>
</g>
<!-- Node5&#45;&gt;Node1 -->
<g id="edge4" class="edge"><title>Node5&#45;&gt;Node1</title>
<path fill="none" stroke="midnightblue" d="M168.721,-172.991C165.479,-163.879 162.208,-154.686 159.034,-145.767"/>
<polygon fill="none" stroke="midnightblue" points="165.434,-174.195 172.083,-182.443 172.029,-171.848 165.434,-174.195"/>
</g>
</g>
</svg>
