<?xml version="1.0" encoding="UTF-8" standalone="no"?>
<!DOCTYPE svg PUBLIC "-//W3C//DTD SVG 1.1//EN"
 "http://www.w3.org/Graphics/SVG/1.1/DTD/svg11.dtd">
<!-- Generated by graphviz version 2.38.0 (20140413.2041)
 -->
<!-- Title: MAX7219::analogRead Pages: 1 -->
<svg width="434pt" height="66pt"
 viewBox="0.00 0.00 434.00 66.00" xmlns="http://www.w3.org/2000/svg" xmlns:xlink="http://www.w3.org/1999/xlink">
<g id="graph0" class="graph" transform="scale(1 1) rotate(0) translate(4 62)">
<title>MAX7219::analogRead</title>
<polygon fill="white" stroke="none" points="-4,4 -4,-62 430,-62 430,4 -4,4"/>
<!-- Node2 -->
<g id="node1" class="node"><title>Node2</title>
<g id="a_node1"><a xlink:title="The analogRead function is deprecated because a MAX7219 is always digital.">
<polygon fill="#bfbfbf" stroke="black" points="0,-19.5 0,-38.5 117,-38.5 117,-19.5 0,-19.5"/>
<text text-anchor="middle" x="58.5" y="-26.5" font-family="Helvetica,sans-Serif" font-size="10.00">MAX7219::analogRead</text>
</a>
</g>
</g>
<!-- Node3 -->
<g id="node2" class="node"><title>Node3</title>
<g id="a_node2"><a xlink:href="../../dc/d19/classMAX7219.html#ac3ebb45e4e1678ec0715be1c8470244b" target="_top" xlink:title="Get the current state of a given output.">
<polygon fill="white" stroke="black" points="153,-38.5 153,-57.5 267,-57.5 267,-38.5 153,-38.5"/>
<text text-anchor="middle" x="210" y="-45.5" font-family="Helvetica,sans-Serif" font-size="10.00">MAX7219::digitalRead</text>
</a>
</g>
</g>
<!-- Node2&#45;&gt;Node3 -->
<g id="edge1" class="edge"><title>Node2&#45;&gt;Node3</title>
<path fill="none" stroke="midnightblue" d="M117.301,-36.3459C125.687,-37.4117 134.373,-38.5157 142.907,-39.6003"/>
<polygon fill="midnightblue" stroke="midnightblue" points="142.467,-43.0723 152.828,-40.8611 143.349,-36.1282 142.467,-43.0723"/>
</g>
<!-- Node5 -->
<g id="node4" class="node"><title>Node5</title>
<g id="a_node4"><a xlink:href="../../de/d4e/classExtendedIOElement.html#a163cffb9da0f3b7fdcb3c49b58393c03" target="_top" xlink:title="Get the extended IO pin number of a given physical pin of this extended IO element.">
<polygon fill="white" stroke="black" points="303,-0.5 303,-19.5 426,-19.5 426,-0.5 303,-0.5"/>
<text text-anchor="middle" x="364.5" y="-7.5" font-family="Helvetica,sans-Serif" font-size="10.00">ExtendedIOElement::pin</text>
</a>
</g>
</g>
<!-- Node2&#45;&gt;Node5 -->
<g id="edge4" class="edge"><title>Node2&#45;&gt;Node5</title>
<path fill="none" stroke="midnightblue" d="M117.037,-25.4039C166.926,-22.2859 239.306,-17.7621 292.73,-14.4231"/>
<polygon fill="midnightblue" stroke="midnightblue" points="293.05,-17.91 302.812,-13.793 292.614,-10.9237 293.05,-17.91"/>
</g>
<!-- Node4 -->
<g id="node3" class="node"><title>Node4</title>
<g id="a_node3"><a xlink:href="../../db/de9/classBitArray.html#ae70a67b38aba607d4301cca64a2f9640" target="_top" xlink:title="Get the value of the given bit.">
<polygon fill="white" stroke="black" points="329,-38.5 329,-57.5 400,-57.5 400,-38.5 329,-38.5"/>
<text text-anchor="middle" x="364.5" y="-45.5" font-family="Helvetica,sans-Serif" font-size="10.00">BitArray::get</text>
</a>
</g>
</g>
<!-- Node3&#45;&gt;Node4 -->
<g id="edge2" class="edge"><title>Node3&#45;&gt;Node4</title>
<path fill="none" stroke="midnightblue" d="M267.352,-48C284.196,-48 302.432,-48 318.449,-48"/>
<polygon fill="midnightblue" stroke="midnightblue" points="318.617,-51.5001 328.617,-48 318.616,-44.5001 318.617,-51.5001"/>
</g>
<!-- Node3&#45;&gt;Node5 -->
<g id="edge3" class="edge"><title>Node3&#45;&gt;Node5</title>
<path fill="none" stroke="midnightblue" d="M249.482,-38.411C269.516,-33.4191 294.202,-27.2676 315.476,-21.9666"/>
<polygon fill="midnightblue" stroke="midnightblue" points="316.438,-25.3341 325.295,-19.5201 314.745,-18.5418 316.438,-25.3341"/>
</g>
</g>
</svg>
