<?xml version="1.0" encoding="UTF-8" standalone="no"?>
<!DOCTYPE svg PUBLIC "-//W3C//DTD SVG 1.1//EN"
 "http://www.w3.org/Graphics/SVG/1.1/DTD/svg11.dtd">
<!-- Generated by graphviz version 2.38.0 (20140413.2041)
 -->
<!-- Title: LinkedList.hpp Pages: 1 -->
<svg width="611pt" height="364pt"
 viewBox="0.00 0.00 611.00 364.00" xmlns="http://www.w3.org/2000/svg" xmlns:xlink="http://www.w3.org/1999/xlink">
<g id="graph0" class="graph" transform="scale(1 1) rotate(0) translate(4 360)">
<title>LinkedList.hpp</title>
<polygon fill="white" stroke="none" points="-4,4 -4,-360 607,-360 607,4 -4,4"/>
<!-- Node1 -->
<g id="node1" class="node"><title>Node1</title>
<g id="a_node1"><a xlink:title=" ">
<polygon fill="#bfbfbf" stroke="black" points="447.5,-336.5 447.5,-355.5 527.5,-355.5 527.5,-336.5 447.5,-336.5"/>
<text text-anchor="middle" x="487.5" y="-343.5" font-family="Helvetica,sans-Serif" font-size="10.00">LinkedList.hpp</text>
</a>
</g>
</g>
<!-- Node2 -->
<g id="node2" class="node"><title>Node2</title>
<g id="a_node2"><a xlink:href="../../df/dee/Debug_8hpp.html" target="_top" xlink:title=" ">
<polygon fill="white" stroke="black" points="277,-280.5 277,-299.5 378,-299.5 378,-280.5 277,-280.5"/>
<text text-anchor="middle" x="327.5" y="-287.5" font-family="Helvetica,sans-Serif" font-size="10.00">Helpers/Debug.hpp</text>
</a>
</g>
</g>
<!-- Node1&#45;&gt;Node2 -->
<g id="edge1" class="edge"><title>Node1&#45;&gt;Node2</title>
<path fill="none" stroke="midnightblue" d="M462.148,-336.444C435.231,-327.359 392.504,-312.939 362.413,-302.783"/>
<polygon fill="midnightblue" stroke="midnightblue" points="363.328,-299.398 352.734,-299.516 361.09,-306.031 363.328,-299.398"/>
</g>
<!-- Node16 -->
<g id="node16" class="node"><title>Node16</title>
<g id="a_node16"><a xlink:title=" ">
<polygon fill="white" stroke="#bfbfbf" points="489.5,-280.5 489.5,-299.5 537.5,-299.5 537.5,-280.5 489.5,-280.5"/>
<text text-anchor="middle" x="513.5" y="-287.5" font-family="Helvetica,sans-Serif" font-size="10.00">stdlib.h</text>
</a>
</g>
</g>
<!-- Node1&#45;&gt;Node16 -->
<g id="edge22" class="edge"><title>Node1&#45;&gt;Node16</title>
<path fill="none" stroke="midnightblue" d="M491.793,-336.083C495.352,-328.691 500.522,-317.953 504.924,-308.811"/>
<polygon fill="midnightblue" stroke="midnightblue" points="508.102,-310.279 509.287,-299.751 501.795,-307.243 508.102,-310.279"/>
</g>
<!-- Node17 -->
<g id="node17" class="node"><title>Node17</title>
<g id="a_node17"><a xlink:href="../../d7/d79/MinMaxFix_8hpp.html" target="_top" xlink:title=" ">
<polygon fill="white" stroke="black" points="457.5,-224.5 457.5,-243.5 577.5,-243.5 577.5,-224.5 457.5,-224.5"/>
<text text-anchor="middle" x="517.5" y="-231.5" font-family="Helvetica,sans-Serif" font-size="10.00">Helpers/MinMaxFix.hpp</text>
</a>
</g>
</g>
<!-- Node1&#45;&gt;Node17 -->
<g id="edge23" class="edge"><title>Node1&#45;&gt;Node17</title>
<path fill="none" stroke="midnightblue" d="M484.193,-336.3C479.869,-323.554 473.608,-299.233 480.5,-280 484.441,-269.003 492.357,-258.769 499.86,-250.848"/>
<polygon fill="midnightblue" stroke="midnightblue" points="502.392,-253.266 507.062,-243.755 497.481,-248.278 502.392,-253.266"/>
</g>
<!-- Node18 -->
<g id="node18" class="node"><title>Node18</title>
<g id="a_node18"><a xlink:title=" ">
<polygon fill="white" stroke="#bfbfbf" points="556,-280.5 556,-299.5 603,-299.5 603,-280.5 556,-280.5"/>
<text text-anchor="middle" x="579.5" y="-287.5" font-family="Helvetica,sans-Serif" font-size="10.00">iterator</text>
</a>
</g>
</g>
<!-- Node1&#45;&gt;Node18 -->
<g id="edge25" class="edge"><title>Node1&#45;&gt;Node18</title>
<path fill="none" stroke="midnightblue" d="M502.281,-336.324C516.767,-327.822 539.073,-314.729 555.993,-304.797"/>
<polygon fill="midnightblue" stroke="midnightblue" points="557.903,-307.735 564.755,-299.655 554.359,-301.698 557.903,-307.735"/>
</g>
<!-- Node3 -->
<g id="node3" class="node"><title>Node3</title>
<g id="a_node3"><a xlink:href="../../d2/dd5/SettingsWrapper_8hpp.html" target="_top" xlink:title=" ">
<polygon fill="white" stroke="black" points="187,-224.5 187,-243.5 334,-243.5 334,-224.5 187,-224.5"/>
<text text-anchor="middle" x="260.5" y="-231.5" font-family="Helvetica,sans-Serif" font-size="10.00">Settings/SettingsWrapper.hpp</text>
</a>
</g>
</g>
<!-- Node2&#45;&gt;Node3 -->
<g id="edge2" class="edge"><title>Node2&#45;&gt;Node3</title>
<path fill="none" stroke="midnightblue" d="M311.62,-280.324C299.988,-272.341 284.705,-260.313 273.732,-250.653"/>
<polygon fill="midnightblue" stroke="midnightblue" points="276.043,-248.024 266.312,-243.834 271.306,-253.178 276.043,-248.024"/>
</g>
<!-- Node15 -->
<g id="node15" class="node"><title>Node15</title>
<g id="a_node15"><a xlink:href="../../dd/d80/PrintStream_8hpp.html" target="_top" xlink:title=" ">
<polygon fill="white" stroke="black" points="352,-224.5 352,-243.5 439,-243.5 439,-224.5 352,-224.5"/>
<text text-anchor="middle" x="395.5" y="-231.5" font-family="Helvetica,sans-Serif" font-size="10.00">PrintStream.hpp</text>
</a>
</g>
</g>
<!-- Node2&#45;&gt;Node15 -->
<g id="edge20" class="edge"><title>Node2&#45;&gt;Node15</title>
<path fill="none" stroke="midnightblue" d="M338.425,-280.324C348.675,-272.185 364.221,-259.839 376.501,-250.087"/>
<polygon fill="midnightblue" stroke="midnightblue" points="378.721,-252.794 384.376,-243.834 374.368,-247.312 378.721,-252.794"/>
</g>
<!-- Node3&#45;&gt;Node2 -->
<g id="edge19" class="edge"><title>Node3&#45;&gt;Node2</title>
<path fill="none" stroke="midnightblue" d="M276.348,-243.655C288.043,-251.677 303.44,-263.8 314.434,-273.493"/>
<polygon fill="midnightblue" stroke="midnightblue" points="312.124,-276.123 321.85,-280.324 316.866,-270.975 312.124,-276.123"/>
</g>
<!-- Node4 -->
<g id="node4" class="node"><title>Node4</title>
<g id="a_node4"><a xlink:href="../../db/d02/Settings_8hpp.html" target="_top" xlink:title="All user settings and debugging options can be changed here.">
<polygon fill="white" stroke="black" points="189,-168.5 189,-187.5 260,-187.5 260,-168.5 189,-168.5"/>
<text text-anchor="middle" x="224.5" y="-175.5" font-family="Helvetica,sans-Serif" font-size="10.00">Settings.hpp</text>
</a>
</g>
</g>
<!-- Node3&#45;&gt;Node4 -->
<g id="edge3" class="edge"><title>Node3&#45;&gt;Node4</title>
<path fill="none" stroke="midnightblue" d="M254.555,-224.083C249.523,-216.534 242.163,-205.495 235.987,-196.23"/>
<polygon fill="midnightblue" stroke="midnightblue" points="238.793,-194.13 230.334,-187.751 232.969,-198.013 238.793,-194.13"/>
</g>
<!-- Node8 -->
<g id="node8" class="node"><title>Node8</title>
<g id="a_node8"><a xlink:href="../../dc/dc7/NamespaceSettings_8hpp.html" target="_top" xlink:title=" ">
<polygon fill="white" stroke="black" points="0,-0.5 0,-19.5 163,-19.5 163,-0.5 0,-0.5"/>
<text text-anchor="middle" x="81.5" y="-7.5" font-family="Helvetica,sans-Serif" font-size="10.00">Settings/NamespaceSettings.hpp</text>
</a>
</g>
</g>
<!-- Node3&#45;&gt;Node8 -->
<g id="edge17" class="edge"><title>Node3&#45;&gt;Node8</title>
<path fill="none" stroke="midnightblue" d="M240.253,-224.417C198.124,-205.228 102.31,-154.296 70.5,-76 64.3813,-60.9398 68.438,-42.5828 73.2626,-29.2229"/>
<polygon fill="midnightblue" stroke="midnightblue" points="76.5946,-30.3203 77.1169,-19.7384 70.1096,-27.685 76.5946,-30.3203"/>
</g>
<!-- Node14 -->
<g id="node14" class="node"><title>Node14</title>
<g id="a_node14"><a xlink:href="../../d9/d98/TeensyUSBTypes_8hpp.html" target="_top" xlink:title=" ">
<polygon fill="white" stroke="black" points="278.5,-168.5 278.5,-187.5 430.5,-187.5 430.5,-168.5 278.5,-168.5"/>
<text text-anchor="middle" x="354.5" y="-175.5" font-family="Helvetica,sans-Serif" font-size="10.00">Helpers/TeensyUSBTypes.hpp</text>
</a>
</g>
</g>
<!-- Node3&#45;&gt;Node14 -->
<g id="edge18" class="edge"><title>Node3&#45;&gt;Node14</title>
<path fill="none" stroke="midnightblue" d="M275.603,-224.324C290.403,-215.822 313.194,-202.729 330.482,-192.797"/>
<polygon fill="midnightblue" stroke="midnightblue" points="332.507,-195.671 339.435,-187.655 329.02,-189.601 332.507,-195.671"/>
</g>
<!-- Node5 -->
<g id="node5" class="node"><title>Node5</title>
<g id="a_node5"><a xlink:href="../../d0/d4e/Def_8hpp.html" target="_top" xlink:title=" ">
<polygon fill="white" stroke="black" points="211.5,-112.5 211.5,-131.5 281.5,-131.5 281.5,-112.5 211.5,-112.5"/>
<text text-anchor="middle" x="246.5" y="-119.5" font-family="Helvetica,sans-Serif" font-size="10.00">Def/Def.hpp</text>
</a>
</g>
</g>
<!-- Node4&#45;&gt;Node5 -->
<g id="edge4" class="edge"><title>Node4&#45;&gt;Node5</title>
<path fill="none" stroke="midnightblue" d="M228.133,-168.083C231.112,-160.77 235.426,-150.181 239.125,-141.103"/>
<polygon fill="midnightblue" stroke="midnightblue" points="242.403,-142.333 242.935,-131.751 235.92,-139.691 242.403,-142.333"/>
</g>
<!-- Node13 -->
<g id="node13" class="node"><title>Node13</title>
<g id="a_node13"><a xlink:title=" ">
<polygon fill="white" stroke="#bfbfbf" points="145.5,-112.5 145.5,-131.5 193.5,-131.5 193.5,-112.5 145.5,-112.5"/>
<text text-anchor="middle" x="169.5" y="-119.5" font-family="Helvetica,sans-Serif" font-size="10.00">limits.h</text>
</a>
</g>
</g>
<!-- Node4&#45;&gt;Node13 -->
<g id="edge16" class="edge"><title>Node4&#45;&gt;Node13</title>
<path fill="none" stroke="midnightblue" d="M215.418,-168.083C207.329,-160.141 195.305,-148.335 185.59,-138.797"/>
<polygon fill="midnightblue" stroke="midnightblue" points="188.001,-136.26 178.413,-131.751 183.097,-141.254 188.001,-136.26"/>
</g>
<!-- Node6 -->
<g id="node6" class="node"><title>Node6</title>
<g id="a_node6"><a xlink:href="../../d7/d42/Channel_8hpp.html" target="_top" xlink:title=" ">
<polygon fill="white" stroke="black" points="190,-56.5 190,-75.5 261,-75.5 261,-56.5 190,-56.5"/>
<text text-anchor="middle" x="225.5" y="-63.5" font-family="Helvetica,sans-Serif" font-size="10.00">Channel.hpp</text>
</a>
</g>
</g>
<!-- Node5&#45;&gt;Node6 -->
<g id="edge5" class="edge"><title>Node5&#45;&gt;Node6</title>
<path fill="none" stroke="midnightblue" d="M243.032,-112.083C240.188,-104.77 236.071,-94.1814 232.54,-85.1034"/>
<polygon fill="midnightblue" stroke="midnightblue" points="235.79,-83.8025 228.903,-75.7511 229.266,-86.3397 235.79,-83.8025"/>
</g>
<!-- Node7 -->
<g id="node7" class="node"><title>Node7</title>
<g id="a_node7"><a xlink:title=" ">
<polygon fill="white" stroke="#bfbfbf" points="233,-0.5 233,-19.5 282,-19.5 282,-0.5 233,-0.5"/>
<text text-anchor="middle" x="257.5" y="-7.5" font-family="Helvetica,sans-Serif" font-size="10.00">stdint.h</text>
</a>
</g>
</g>
<!-- Node5&#45;&gt;Node7 -->
<g id="edge15" class="edge"><title>Node5&#45;&gt;Node7</title>
<path fill="none" stroke="midnightblue" d="M252.605,-112.191C258.255,-103.46 266.255,-89.4775 269.5,-76 273.235,-60.4853 269.371,-42.6459 265.062,-29.5856"/>
<polygon fill="midnightblue" stroke="midnightblue" points="268.234,-28.07 261.495,-19.8948 261.665,-30.4883 268.234,-28.07"/>
</g>
<!-- Node5&#45;&gt;Node8 -->
<g id="edge13" class="edge"><title>Node5&#45;&gt;Node8</title>
<path fill="none" stroke="midnightblue" d="M211.337,-113.772C165.299,-103.956 89.4751,-86.4414 81.5,-76 71.555,-62.9795 72.8904,-43.8209 75.9099,-29.6744"/>
<polygon fill="midnightblue" stroke="midnightblue" points="79.3955,-30.1745 78.5091,-19.6168 72.6182,-28.423 79.3955,-30.1745"/>
</g>
<!-- Node9 -->
<g id="node9" class="node"><title>Node9</title>
<g id="a_node9"><a xlink:href="../../dc/d50/Frequency_8hpp.html" target="_top" xlink:title=" ">
<polygon fill="white" stroke="black" points="91,-56.5 91,-75.5 172,-75.5 172,-56.5 91,-56.5"/>
<text text-anchor="middle" x="131.5" y="-63.5" font-family="Helvetica,sans-Serif" font-size="10.00">Frequency.hpp</text>
</a>
</g>
</g>
<!-- Node5&#45;&gt;Node9 -->
<g id="edge8" class="edge"><title>Node5&#45;&gt;Node9</title>
<path fill="none" stroke="midnightblue" d="M228.278,-112.444C209.604,-103.675 180.344,-89.9355 158.883,-79.8579"/>
<polygon fill="midnightblue" stroke="midnightblue" points="160.176,-76.5988 149.637,-75.5164 157.201,-82.935 160.176,-76.5988"/>
</g>
<!-- Node10 -->
<g id="node10" class="node"><title>Node10</title>
<g id="a_node10"><a xlink:href="../../de/d76/Array_8hpp.html" target="_top" xlink:title=" ">
<polygon fill="white" stroke="black" points="356,-56.5 356,-75.5 451,-75.5 451,-56.5 356,-56.5"/>
<text text-anchor="middle" x="403.5" y="-63.5" font-family="Helvetica,sans-Serif" font-size="10.00">Helpers/Array.hpp</text>
</a>
</g>
</g>
<!-- Node5&#45;&gt;Node10 -->
<g id="edge10" class="edge"><title>Node5&#45;&gt;Node10</title>
<path fill="none" stroke="midnightblue" d="M271.377,-112.444C297.789,-103.359 339.715,-88.9388 369.242,-78.7831"/>
<polygon fill="midnightblue" stroke="midnightblue" points="370.421,-82.0787 378.739,-75.5164 368.145,-75.4593 370.421,-82.0787"/>
</g>
<!-- Node12 -->
<g id="node12" class="node"><title>Node12</title>
<g id="a_node12"><a xlink:title=" ">
<polygon fill="white" stroke="#bfbfbf" points="339.5,-0.5 339.5,-19.5 391.5,-19.5 391.5,-0.5 339.5,-0.5"/>
<text text-anchor="middle" x="365.5" y="-7.5" font-family="Helvetica,sans-Serif" font-size="10.00">stddef.h</text>
</a>
</g>
</g>
<!-- Node5&#45;&gt;Node12 -->
<g id="edge14" class="edge"><title>Node5&#45;&gt;Node12</title>
<path fill="none" stroke="midnightblue" d="M255.838,-112.368C275.911,-93.8137 323.403,-49.9129 348.799,-26.4376"/>
<polygon fill="midnightblue" stroke="midnightblue" points="351.238,-28.9495 356.206,-19.5914 346.487,-23.8092 351.238,-28.9495"/>
</g>
<!-- Node6&#45;&gt;Node7 -->
<g id="edge6" class="edge"><title>Node6&#45;&gt;Node7</title>
<path fill="none" stroke="midnightblue" d="M230.784,-56.083C235.211,-48.6127 241.663,-37.7244 247.118,-28.5199"/>
<polygon fill="midnightblue" stroke="midnightblue" points="250.227,-30.1383 252.314,-19.7511 244.205,-26.5697 250.227,-30.1383"/>
</g>
<!-- Node6&#45;&gt;Node8 -->
<g id="edge7" class="edge"><title>Node6&#45;&gt;Node8</title>
<path fill="none" stroke="midnightblue" d="M202.683,-56.4435C178.668,-47.4381 140.671,-33.1891 113.631,-23.049"/>
<polygon fill="midnightblue" stroke="midnightblue" points="114.803,-19.7506 104.21,-19.5164 112.345,-26.3049 114.803,-19.7506"/>
</g>
<!-- Node9&#45;&gt;Node8 -->
<g id="edge9" class="edge"><title>Node9&#45;&gt;Node8</title>
<path fill="none" stroke="midnightblue" d="M123.244,-56.083C116.035,-48.2982 105.39,-36.8015 96.6542,-27.3665"/>
<polygon fill="midnightblue" stroke="midnightblue" points="98.9651,-24.7108 89.6028,-19.7511 93.8288,-29.4666 98.9651,-24.7108"/>
</g>
<!-- Node11 -->
<g id="node11" class="node"><title>Node11</title>
<g id="a_node11"><a xlink:title=" ">
<polygon fill="white" stroke="#bfbfbf" points="450.5,-0.5 450.5,-19.5 508.5,-19.5 508.5,-0.5 450.5,-0.5"/>
<text text-anchor="middle" x="479.5" y="-7.5" font-family="Helvetica,sans-Serif" font-size="10.00">Arduino.h</text>
</a>
</g>
</g>
<!-- Node10&#45;&gt;Node11 -->
<g id="edge11" class="edge"><title>Node10&#45;&gt;Node11</title>
<path fill="none" stroke="midnightblue" d="M415.711,-56.324C427.276,-48.1066 444.875,-35.6017 458.661,-25.8069"/>
<polygon fill="midnightblue" stroke="midnightblue" points="460.943,-28.4791 467.067,-19.8339 456.888,-22.7729 460.943,-28.4791"/>
</g>
<!-- Node10&#45;&gt;Node12 -->
<g id="edge12" class="edge"><title>Node10&#45;&gt;Node12</title>
<path fill="none" stroke="midnightblue" d="M397.225,-56.083C391.858,-48.4554 383.982,-37.2645 377.421,-27.9408"/>
<polygon fill="midnightblue" stroke="midnightblue" points="380.275,-25.9149 371.658,-19.7511 374.551,-29.9434 380.275,-25.9149"/>
</g>
<!-- Node15&#45;&gt;Node11 -->
<g id="edge21" class="edge"><title>Node15&#45;&gt;Node11</title>
<path fill="none" stroke="midnightblue" d="M407.06,-224.301C417.17,-216.063 431.459,-202.781 439.5,-188 468.049,-135.518 476.251,-63.661 478.585,-29.9344"/>
<polygon fill="midnightblue" stroke="midnightblue" points="482.094,-29.8782 479.19,-19.6894 475.107,-29.4658 482.094,-29.8782"/>
</g>
<!-- Node17&#45;&gt;Node11 -->
<g id="edge24" class="edge"><title>Node17&#45;&gt;Node11</title>
<path fill="none" stroke="midnightblue" d="M516.849,-224.437C514.784,-198.701 507.664,-119.88 493.5,-56 491.505,-47.0024 488.555,-37.2107 485.877,-29.0656"/>
<polygon fill="midnightblue" stroke="midnightblue" points="489.159,-27.8451 482.616,-19.5119 482.534,-30.1064 489.159,-27.8451"/>
</g>
</g>
</svg>
