<?xml version="1.0" encoding="UTF-8" standalone="no"?>
<!DOCTYPE svg PUBLIC "-//W3C//DTD SVG 1.1//EN"
 "http://www.w3.org/Graphics/SVG/1.1/DTD/svg11.dtd">
<!-- Generated by graphviz version 2.38.0 (20140413.2041)
 -->
<!-- Title: EMA.hpp Pages: 1 -->
<svg width="958pt" height="252pt"
 viewBox="0.00 0.00 957.50 252.00" xmlns="http://www.w3.org/2000/svg" xmlns:xlink="http://www.w3.org/1999/xlink">
<g id="graph0" class="graph" transform="scale(1 1) rotate(0) translate(4 248)">
<title>EMA.hpp</title>
<polygon fill="white" stroke="none" points="-4,4 -4,-248 953.5,-248 953.5,4 -4,4"/>
<!-- Node1 -->
<g id="node1" class="node"><title>Node1</title>
<g id="a_node1"><a xlink:title=" ">
<polygon fill="#bfbfbf" stroke="black" points="189,-224.5 189,-243.5 246,-243.5 246,-224.5 189,-224.5"/>
<text text-anchor="middle" x="217.5" y="-231.5" font-family="Helvetica,sans-Serif" font-size="10.00">EMA.hpp</text>
</a>
</g>
</g>
<!-- Node2 -->
<g id="node2" class="node"><title>Node2</title>
<g id="a_node2"><a xlink:href="../../dc/de8/AudioVU_8hpp.html" target="_top" xlink:title=" ">
<polygon fill="white" stroke="black" points="18.5,-112.5 18.5,-131.5 92.5,-131.5 92.5,-112.5 18.5,-112.5"/>
<text text-anchor="middle" x="55.5" y="-119.5" font-family="Helvetica,sans-Serif" font-size="10.00">AudioVU.hpp</text>
</a>
</g>
</g>
<!-- Node1&#45;&gt;Node2 -->
<g id="edge1" class="edge"><title>Node1&#45;&gt;Node2</title>
<path fill="none" stroke="midnightblue" d="M196.461,-218.714C162.324,-195.535 95.8973,-150.43 68.1528,-131.591"/>
<polygon fill="midnightblue" stroke="midnightblue" points="194.549,-221.647 204.788,-224.368 198.481,-215.855 194.549,-221.647"/>
</g>
<!-- Node5 -->
<g id="node5" class="node"><title>Node5</title>
<g id="a_node5"><a xlink:href="../../d8/df3/FilteredAnalog_8hpp.html" target="_top" xlink:title=" ">
<polygon fill="white" stroke="black" points="248.5,-168.5 248.5,-187.5 346.5,-187.5 346.5,-168.5 248.5,-168.5"/>
<text text-anchor="middle" x="297.5" y="-175.5" font-family="Helvetica,sans-Serif" font-size="10.00">FilteredAnalog.hpp</text>
</a>
</g>
</g>
<!-- Node1&#45;&gt;Node5 -->
<g id="edge5" class="edge"><title>Node1&#45;&gt;Node5</title>
<path fill="none" stroke="midnightblue" d="M238.801,-218.622C253.415,-208.757 272.327,-195.992 284.679,-187.655"/>
<polygon fill="midnightblue" stroke="midnightblue" points="236.684,-215.828 230.353,-224.324 240.6,-221.63 236.684,-215.828"/>
</g>
<!-- Node3 -->
<g id="node3" class="node"><title>Node3</title>
<g id="a_node3"><a xlink:href="../../d4/dde/AudioVULEDs_8hpp.html" target="_top" xlink:title=" ">
<polygon fill="white" stroke="black" points="0,-56.5 0,-75.5 99,-75.5 99,-56.5 0,-56.5"/>
<text text-anchor="middle" x="49.5" y="-63.5" font-family="Helvetica,sans-Serif" font-size="10.00">AudioVULEDs.hpp</text>
</a>
</g>
</g>
<!-- Node2&#45;&gt;Node3 -->
<g id="edge2" class="edge"><title>Node2&#45;&gt;Node3</title>
<path fill="none" stroke="midnightblue" d="M53.4001,-102.101C52.404,-93.1357 51.262,-82.8579 50.4723,-75.7511"/>
<polygon fill="midnightblue" stroke="midnightblue" points="49.9262,-102.531 54.5092,-112.083 56.8834,-101.758 49.9262,-102.531"/>
</g>
<!-- Node4 -->
<g id="node4" class="node"><title>Node4</title>
<g id="a_node4"><a xlink:href="../../db/dbf/Control__Surface_8h.html" target="_top" xlink:title="The main header file that includes all Control&#45;Surface header files.">
<polygon fill="white" stroke="black" points="331,-0.5 331,-19.5 426,-19.5 426,-0.5 331,-0.5"/>
<text text-anchor="middle" x="378.5" y="-7.5" font-family="Helvetica,sans-Serif" font-size="10.00">Control_Surface.h</text>
</a>
</g>
</g>
<!-- Node2&#45;&gt;Node4 -->
<g id="edge4" class="edge"><title>Node2&#45;&gt;Node4</title>
<path fill="none" stroke="midnightblue" d="M75.6663,-106.649C97.3619,-91.86 133.36,-69.1625 167.5,-56 221.495,-35.1823 287.169,-23.1018 330.759,-16.7949"/>
<polygon fill="midnightblue" stroke="midnightblue" points="73.5173,-103.88 67.2909,-112.452 77.504,-109.634 73.5173,-103.88"/>
</g>
<!-- Node3&#45;&gt;Node4 -->
<g id="edge3" class="edge"><title>Node3&#45;&gt;Node4</title>
<path fill="none" stroke="midnightblue" d="M109.001,-55.2338C172.627,-44.7907 272.258,-28.4379 330.894,-18.8138"/>
<polygon fill="midnightblue" stroke="midnightblue" points="108.412,-51.7837 99.1108,-56.8572 109.546,-58.6912 108.412,-51.7837"/>
</g>
<!-- Node6 -->
<g id="node6" class="node"><title>Node6</title>
<g id="a_node6"><a xlink:href="../../da/d51/VolumeControl_8hpp.html" target="_top" xlink:title=" ">
<polygon fill="white" stroke="black" points="110.5,-112.5 110.5,-131.5 210.5,-131.5 210.5,-112.5 110.5,-112.5"/>
<text text-anchor="middle" x="160.5" y="-119.5" font-family="Helvetica,sans-Serif" font-size="10.00">VolumeControl.hpp</text>
</a>
</g>
</g>
<!-- Node5&#45;&gt;Node6 -->
<g id="edge6" class="edge"><title>Node5&#45;&gt;Node6</title>
<path fill="none" stroke="midnightblue" d="M266.477,-164.772C240.743,-154.629 204.814,-140.467 182.106,-131.516"/>
<polygon fill="midnightblue" stroke="midnightblue" points="265.205,-168.033 275.792,-168.444 267.772,-161.52 265.205,-168.033"/>
</g>
<!-- Node7 -->
<g id="node7" class="node"><title>Node7</title>
<g id="a_node7"><a xlink:href="../../d9/d38/Control__Surface__Class_8cpp.html" target="_top" xlink:title=" ">
<polygon fill="white" stroke="black" points="229,-112.5 229,-131.5 366,-131.5 366,-112.5 229,-112.5"/>
<text text-anchor="middle" x="297.5" y="-119.5" font-family="Helvetica,sans-Serif" font-size="10.00">Control_Surface_Class.cpp</text>
</a>
</g>
</g>
<!-- Node5&#45;&gt;Node7 -->
<g id="edge8" class="edge"><title>Node5&#45;&gt;Node7</title>
<path fill="none" stroke="midnightblue" d="M297.5,-157.805C297.5,-148.91 297.5,-138.78 297.5,-131.751"/>
<polygon fill="midnightblue" stroke="midnightblue" points="294,-158.083 297.5,-168.083 301,-158.083 294,-158.083"/>
</g>
<!-- Node8 -->
<g id="node8" class="node"><title>Node8</title>
<g id="a_node8"><a xlink:href="../../d3/de4/Abstract_2MIDIFilteredAnalog_8hpp.html" target="_top" xlink:title=" ">
<polygon fill="white" stroke="black" points="384,-112.5 384,-131.5 503,-131.5 503,-112.5 384,-112.5"/>
<text text-anchor="middle" x="443.5" y="-119.5" font-family="Helvetica,sans-Serif" font-size="10.00">MIDIFilteredAnalog.hpp</text>
</a>
</g>
</g>
<!-- Node5&#45;&gt;Node8 -->
<g id="edge9" class="edge"><title>Node5&#45;&gt;Node8</title>
<path fill="none" stroke="midnightblue" d="M330.199,-164.906C357.648,-154.754 396.168,-140.506 420.474,-131.516"/>
<polygon fill="midnightblue" stroke="midnightblue" points="328.799,-161.692 320.634,-168.444 331.227,-168.257 328.799,-161.692"/>
</g>
<!-- Node11 -->
<g id="node11" class="node"><title>Node11</title>
<g id="a_node11"><a xlink:href="../../d5/d4d/Bankable_2Abstract_2MIDIFilteredAnalog_8hpp.html" target="_top" xlink:title=" ">
<polygon fill="white" stroke="black" points="577,-112.5 577,-131.5 696,-131.5 696,-112.5 577,-112.5"/>
<text text-anchor="middle" x="636.5" y="-119.5" font-family="Helvetica,sans-Serif" font-size="10.00">MIDIFilteredAnalog.hpp</text>
</a>
</g>
</g>
<!-- Node5&#45;&gt;Node11 -->
<g id="edge14" class="edge"><title>Node5&#45;&gt;Node11</title>
<path fill="none" stroke="midnightblue" d="M356.715,-167.567C420.584,-157.394 521.371,-141.339 582.949,-131.53"/>
<polygon fill="midnightblue" stroke="midnightblue" points="356.118,-164.118 346.794,-169.148 357.22,-171.031 356.118,-164.118"/>
</g>
<!-- Node6&#45;&gt;Node4 -->
<g id="edge7" class="edge"><title>Node6&#45;&gt;Node4</title>
<path fill="none" stroke="midnightblue" d="M162.568,-102.406C165.192,-87.717 171.125,-67.7903 184.5,-56 205.962,-37.0807 280.755,-23.816 330.954,-16.802"/>
<polygon fill="midnightblue" stroke="midnightblue" points="159.09,-102.002 161.137,-112.397 166.02,-102.994 159.09,-102.002"/>
</g>
<!-- Node9 -->
<g id="node9" class="node"><title>Node9</title>
<g id="a_node9"><a xlink:href="../../d4/df0/CCPotentiometer_8hpp.html" target="_top" xlink:title=" ">
<polygon fill="white" stroke="black" points="194,-56.5 194,-75.5 305,-75.5 305,-56.5 194,-56.5"/>
<text text-anchor="middle" x="249.5" y="-63.5" font-family="Helvetica,sans-Serif" font-size="10.00">CCPotentiometer.hpp</text>
</a>
</g>
</g>
<!-- Node8&#45;&gt;Node9 -->
<g id="edge10" class="edge"><title>Node8&#45;&gt;Node9</title>
<path fill="none" stroke="midnightblue" d="M402.899,-109.699C366.285,-99.507 313.243,-84.7429 280.096,-75.5164"/>
<polygon fill="midnightblue" stroke="midnightblue" points="402.188,-113.134 412.76,-112.444 404.065,-106.39 402.188,-113.134"/>
</g>
<!-- Node10 -->
<g id="node10" class="node"><title>Node10</title>
<g id="a_node10"><a xlink:href="../../d3/d74/PBPotentiometer_8hpp.html" target="_top" xlink:title=" ">
<polygon fill="white" stroke="black" points="323.5,-56.5 323.5,-75.5 433.5,-75.5 433.5,-56.5 323.5,-56.5"/>
<text text-anchor="middle" x="378.5" y="-63.5" font-family="Helvetica,sans-Serif" font-size="10.00">PBPotentiometer.hpp</text>
</a>
</g>
</g>
<!-- Node8&#45;&gt;Node10 -->
<g id="edge12" class="edge"><title>Node8&#45;&gt;Node10</title>
<path fill="none" stroke="midnightblue" d="M425.227,-105.82C413.582,-96.1452 398.901,-83.9481 389.133,-75.8339"/>
<polygon fill="midnightblue" stroke="midnightblue" points="423.128,-108.626 433.057,-112.324 427.601,-103.242 423.128,-108.626"/>
</g>
<!-- Node9&#45;&gt;Node4 -->
<g id="edge11" class="edge"><title>Node9&#45;&gt;Node4</title>
<path fill="none" stroke="midnightblue" d="M279.354,-52.503C303.538,-42.3795 336.962,-28.388 358.155,-19.5164"/>
<polygon fill="midnightblue" stroke="midnightblue" points="277.813,-49.3536 269.94,-56.4435 280.516,-55.8106 277.813,-49.3536"/>
</g>
<!-- Node10&#45;&gt;Node4 -->
<g id="edge13" class="edge"><title>Node10&#45;&gt;Node4</title>
<path fill="none" stroke="midnightblue" d="M378.5,-45.8045C378.5,-36.9102 378.5,-26.7798 378.5,-19.7511"/>
<polygon fill="midnightblue" stroke="midnightblue" points="375,-46.083 378.5,-56.083 382,-46.083 375,-46.083"/>
</g>
<!-- Node12 -->
<g id="node12" class="node"><title>Node12</title>
<g id="a_node12"><a xlink:href="../../d6/ddd/Bankable_2CCPotentiometer_8hpp.html" target="_top" xlink:title=" ">
<polygon fill="white" stroke="black" points="452,-56.5 452,-75.5 563,-75.5 563,-56.5 452,-56.5"/>
<text text-anchor="middle" x="507.5" y="-63.5" font-family="Helvetica,sans-Serif" font-size="10.00">CCPotentiometer.hpp</text>
</a>
</g>
</g>
<!-- Node11&#45;&gt;Node12 -->
<g id="edge15" class="edge"><title>Node11&#45;&gt;Node12</title>
<path fill="none" stroke="midnightblue" d="M606.646,-108.503C582.462,-98.3795 549.038,-84.388 527.845,-75.5164"/>
<polygon fill="midnightblue" stroke="midnightblue" points="605.484,-111.811 616.06,-112.444 608.187,-105.354 605.484,-111.811"/>
</g>
<!-- Node13 -->
<g id="node13" class="node"><title>Node13</title>
<g id="a_node13"><a xlink:href="../../d9/d99/Bankable_2PBPotentiometer_8hpp.html" target="_top" xlink:title=" ">
<polygon fill="white" stroke="black" points="581.5,-56.5 581.5,-75.5 691.5,-75.5 691.5,-56.5 581.5,-56.5"/>
<text text-anchor="middle" x="636.5" y="-63.5" font-family="Helvetica,sans-Serif" font-size="10.00">PBPotentiometer.hpp</text>
</a>
</g>
</g>
<!-- Node11&#45;&gt;Node13 -->
<g id="edge17" class="edge"><title>Node11&#45;&gt;Node13</title>
<path fill="none" stroke="midnightblue" d="M636.5,-101.805C636.5,-92.9102 636.5,-82.7798 636.5,-75.7511"/>
<polygon fill="midnightblue" stroke="midnightblue" points="633,-102.083 636.5,-112.083 640,-102.083 633,-102.083"/>
</g>
<!-- Node14 -->
<g id="node14" class="node"><title>Node14</title>
<g id="a_node14"><a xlink:href="../../d1/d82/ManyAddresses_2CCPotentiometer_8hpp.html" target="_top" xlink:title=" ">
<polygon fill="white" stroke="black" points="710,-56.5 710,-75.5 821,-75.5 821,-56.5 710,-56.5"/>
<text text-anchor="middle" x="765.5" y="-63.5" font-family="Helvetica,sans-Serif" font-size="10.00">CCPotentiometer.hpp</text>
</a>
</g>
</g>
<!-- Node11&#45;&gt;Node14 -->
<g id="edge19" class="edge"><title>Node11&#45;&gt;Node14</title>
<path fill="none" stroke="midnightblue" d="M666.354,-108.503C690.538,-98.3795 723.962,-84.388 745.155,-75.5164"/>
<polygon fill="midnightblue" stroke="midnightblue" points="664.813,-105.354 656.94,-112.444 667.516,-111.811 664.813,-105.354"/>
</g>
<!-- Node15 -->
<g id="node15" class="node"><title>Node15</title>
<g id="a_node15"><a xlink:href="../../da/df2/ManyAddresses_2PBPotentiometer_8hpp.html" target="_top" xlink:title=" ">
<polygon fill="white" stroke="black" points="839.5,-56.5 839.5,-75.5 949.5,-75.5 949.5,-56.5 839.5,-56.5"/>
<text text-anchor="middle" x="894.5" y="-63.5" font-family="Helvetica,sans-Serif" font-size="10.00">PBPotentiometer.hpp</text>
</a>
</g>
</g>
<!-- Node11&#45;&gt;Node15 -->
<g id="edge21" class="edge"><title>Node11&#45;&gt;Node15</title>
<path fill="none" stroke="midnightblue" d="M687.404,-110.346C736.162,-100.141 808.787,-84.94 853.81,-75.5164"/>
<polygon fill="midnightblue" stroke="midnightblue" points="686.452,-106.969 677.381,-112.444 687.886,-113.821 686.452,-106.969"/>
</g>
<!-- Node12&#45;&gt;Node4 -->
<g id="edge16" class="edge"><title>Node12&#45;&gt;Node4</title>
<path fill="none" stroke="midnightblue" d="M477.646,-52.503C453.462,-42.3795 420.038,-28.388 398.845,-19.5164"/>
<polygon fill="midnightblue" stroke="midnightblue" points="476.484,-55.8106 487.06,-56.4435 479.187,-49.3536 476.484,-55.8106"/>
</g>
<!-- Node13&#45;&gt;Node4 -->
<g id="edge18" class="edge"><title>Node13&#45;&gt;Node4</title>
<path fill="none" stroke="midnightblue" d="M585.596,-54.3456C536.838,-44.1405 464.213,-28.94 419.19,-19.5164"/>
<polygon fill="midnightblue" stroke="midnightblue" points="585.114,-57.8206 595.619,-56.4435 586.548,-50.9691 585.114,-57.8206"/>
</g>
<!-- Node14&#45;&gt;Node4 -->
<g id="edge20" class="edge"><title>Node14&#45;&gt;Node4</title>
<path fill="none" stroke="midnightblue" d="M699.487,-55.7889C621.817,-44.9512 494.768,-27.2235 426.116,-17.6441"/>
<polygon fill="midnightblue" stroke="midnightblue" points="699.252,-59.29 709.64,-57.2056 700.22,-52.3571 699.252,-59.29"/>
</g>
<!-- Node15&#45;&gt;Node4 -->
<g id="edge22" class="edge"><title>Node15&#45;&gt;Node4</title>
<path fill="none" stroke="midnightblue" d="M829.096,-55.9976C675.362,-37.846 506.928,-22.3243 426.294,-15.1651"/>
<polygon fill="midnightblue" stroke="midnightblue" points="828.857,-59.4937 839.2,-57.197 829.682,-52.5425 828.857,-59.4937"/>
</g>
</g>
</svg>
