<?xml version="1.0" encoding="UTF-8" standalone="no"?>
<!DOCTYPE svg PUBLIC "-//W3C//DTD SVG 1.1//EN"
 "http://www.w3.org/Graphics/SVG/1.1/DTD/svg11.dtd">
<!-- Generated by graphviz version 2.38.0 (20140413.2041)
 -->
<!-- Title: generateArray Pages: 1 -->
<svg width="190pt" height="104pt"
 viewBox="0.00 0.00 190.00 104.00" xmlns="http://www.w3.org/2000/svg" xmlns:xlink="http://www.w3.org/1999/xlink">
<g id="graph0" class="graph" transform="scale(1 1) rotate(0) translate(4 100)">
<title>generateArray</title>
<polygon fill="white" stroke="none" points="-4,4 -4,-100 186,-100 186,4 -4,4"/>
<!-- Node3 -->
<g id="node1" class="node"><title>Node3</title>
<g id="a_node1"><a xlink:title="Generate an array where the first value is given, and the subsequent values are calculated as the pre...">
<polygon fill="#bfbfbf" stroke="black" points="0,-38.5 0,-57.5 77,-57.5 77,-38.5 0,-38.5"/>
<text text-anchor="middle" x="38.5" y="-45.5" font-family="Helvetica,sans-Serif" font-size="10.00">generateArray</text>
</a>
</g>
</g>
<!-- Node4 -->
<g id="node2" class="node"><title>Node4</title>
<g id="a_node2"><a xlink:href="../../d5/db6/ArrayHelpers_8hpp.html#a662b743ce08991d63ce296f33137ca22" target="_top" xlink:title=" ">
<polygon fill="white" stroke="black" points="120.5,-76.5 120.5,-95.5 174.5,-95.5 174.5,-76.5 120.5,-76.5"/>
<text text-anchor="middle" x="147.5" y="-83.5" font-family="Helvetica,sans-Serif" font-size="10.00">generate</text>
</a>
</g>
</g>
<!-- Node3&#45;&gt;Node4 -->
<g id="edge1" class="edge"><title>Node3&#45;&gt;Node4</title>
<path fill="none" stroke="midnightblue" d="M66.5006,-57.589C79.8809,-62.3409 96.2197,-68.1434 110.635,-73.2629"/>
<polygon fill="midnightblue" stroke="midnightblue" points="109.653,-76.6283 120.248,-76.6768 111.996,-70.0319 109.653,-76.6283"/>
</g>
<!-- Node5 -->
<g id="node3" class="node"><title>Node5</title>
<g id="a_node3"><a xlink:href="../../d7/d6a/structArray.html#a32e08de67edecaaa43a03c7fcb1dee8d" target="_top" xlink:title=" ">
<polygon fill="white" stroke="black" points="113,-38.5 113,-57.5 182,-57.5 182,-38.5 113,-38.5"/>
<text text-anchor="middle" x="147.5" y="-45.5" font-family="Helvetica,sans-Serif" font-size="10.00">Array::begin</text>
</a>
</g>
</g>
<!-- Node3&#45;&gt;Node5 -->
<g id="edge2" class="edge"><title>Node3&#45;&gt;Node5</title>
<path fill="none" stroke="midnightblue" d="M77.2242,-48C85.4371,-48 94.1947,-48 102.623,-48"/>
<polygon fill="midnightblue" stroke="midnightblue" points="102.681,-51.5001 112.681,-48 102.681,-44.5001 102.681,-51.5001"/>
</g>
<!-- Node6 -->
<g id="node4" class="node"><title>Node6</title>
<g id="a_node4"><a xlink:href="../../d7/d6a/structArray.html#a99c8affba2ed7cd3d9d39ed70c182caf" target="_top" xlink:title=" ">
<polygon fill="white" stroke="black" points="116.5,-0.5 116.5,-19.5 178.5,-19.5 178.5,-0.5 116.5,-0.5"/>
<text text-anchor="middle" x="147.5" y="-7.5" font-family="Helvetica,sans-Serif" font-size="10.00">Array::end</text>
</a>
</g>
</g>
<!-- Node3&#45;&gt;Node6 -->
<g id="edge3" class="edge"><title>Node3&#45;&gt;Node6</title>
<path fill="none" stroke="midnightblue" d="M66.5006,-38.411C79.6797,-33.7306 95.729,-28.0308 109.984,-22.9685"/>
<polygon fill="midnightblue" stroke="midnightblue" points="111.256,-26.2308 119.508,-19.5859 108.913,-19.6344 111.256,-26.2308"/>
</g>
</g>
</svg>
