<?xml version="1.0" encoding="UTF-8" standalone="no"?>
<!DOCTYPE svg PUBLIC "-//W3C//DTD SVG 1.1//EN"
 "http://www.w3.org/Graphics/SVG/1.1/DTD/svg11.dtd">
<!-- Generated by graphviz version 2.38.0 (20140413.2041)
 -->
<!-- Title: MAX7219SevenSegmentDisplay::display Pages: 1 -->
<svg width="785pt" height="127pt"
 viewBox="0.00 0.00 785.00 127.00" xmlns="http://www.w3.org/2000/svg" xmlns:xlink="http://www.w3.org/1999/xlink">
<g id="graph0" class="graph" transform="scale(1 1) rotate(0) translate(4 123)">
<title>MAX7219SevenSegmentDisplay::display</title>
<polygon fill="white" stroke="none" points="-4,4 -4,-123 781,-123 781,4 -4,4"/>
<!-- Node1 -->
<g id="node1" class="node"><title>Node1</title>
<g id="a_node1"><a xlink:title="?">
<polygon fill="#bfbfbf" stroke="black" points="0,-44.5 0,-74.5 159,-74.5 159,-44.5 0,-44.5"/>
<text text-anchor="start" x="8" y="-62.5" font-family="Helvetica,sans-Serif" font-size="10.00">MAX7219SevenSegmentDisplay</text>
<text text-anchor="middle" x="79.5" y="-51.5" font-family="Helvetica,sans-Serif" font-size="10.00">::display</text>
</a>
</g>
</g>
<!-- Node2 -->
<g id="node2" class="node"><title>Node2</title>
<g id="a_node2"><a xlink:href="../../da/dd0/classMAX7219__Base.html#ad5fae5a26168c869305c426dc8b48d49" target="_top" xlink:title="Send a raw opcode and value to the MAX7219.">
<polygon fill="white" stroke="black" points="195,-50 195,-69 329,-69 329,-50 195,-50"/>
<text text-anchor="middle" x="262" y="-57" font-family="Helvetica,sans-Serif" font-size="10.00">MAX7219_Base::sendRaw</text>
</a>
</g>
</g>
<!-- Node1&#45;&gt;Node2 -->
<g id="edge1" class="edge"><title>Node1&#45;&gt;Node2</title>
<path fill="none" stroke="midnightblue" d="M159.145,-59.5C167.587,-59.5 176.168,-59.5 184.584,-59.5"/>
<polygon fill="midnightblue" stroke="midnightblue" points="184.747,-63.0001 194.747,-59.5 184.747,-56.0001 184.747,-63.0001"/>
</g>
<!-- Node3 -->
<g id="node3" class="node"><title>Node3</title>
<g id="a_node3"><a xlink:href="../../d8/d3d/namespaceExtIO.html#af83b2f2728401bf8efea42049ceb7dcd" target="_top" xlink:title="An ExtIO version of the Arduino function.">
<polygon fill="white" stroke="black" points="365,-50 365,-69 462,-69 462,-50 365,-50"/>
<text text-anchor="middle" x="413.5" y="-57" font-family="Helvetica,sans-Serif" font-size="10.00">ExtIO::digitalWrite</text>
</a>
</g>
</g>
<!-- Node2&#45;&gt;Node3 -->
<g id="edge2" class="edge"><title>Node2&#45;&gt;Node3</title>
<path fill="none" stroke="midnightblue" d="M329.008,-59.5C337.572,-59.5 346.291,-59.5 354.707,-59.5"/>
<polygon fill="midnightblue" stroke="midnightblue" points="354.793,-63.0001 364.793,-59.5 354.793,-56.0001 354.793,-63.0001"/>
</g>
<!-- Node4 -->
<g id="node4" class="node"><title>Node4</title>
<g id="a_node4"><a xlink:href="../../de/d4e/classExtendedIOElement.html#a0afd6681ab951942ca3cac83370562bb" target="_top" xlink:title="Set the output of the given pin to the given state.">
<polygon fill="white" stroke="black" points="509.5,-88.5 509.5,-118.5 619.5,-118.5 619.5,-88.5 509.5,-88.5"/>
<text text-anchor="start" x="517.5" y="-106.5" font-family="Helvetica,sans-Serif" font-size="10.00">ExtendedIOElement::</text>
<text text-anchor="middle" x="564.5" y="-95.5" font-family="Helvetica,sans-Serif" font-size="10.00">digitalWrite</text>
</a>
</g>
</g>
<!-- Node3&#45;&gt;Node4 -->
<g id="edge3" class="edge"><title>Node3&#45;&gt;Node4</title>
<path fill="none" stroke="midnightblue" d="M446.831,-69.0473C463.232,-73.8906 483.699,-79.9346 502.891,-85.602"/>
<polygon fill="midnightblue" stroke="midnightblue" points="501.901,-88.9592 512.483,-88.4346 503.884,-82.2457 501.901,-88.9592"/>
</g>
<!-- Node5 -->
<g id="node5" class="node"><title>Node5</title>
<g id="a_node5"><a xlink:href="../../d8/d3d/namespaceExtIO.html#ae314377b34b9e49b153f6e36fb354d37" target="_top" xlink:title="Find the IO element of a given extended IO pin number.">
<polygon fill="white" stroke="black" points="498,-50 498,-69 631,-69 631,-50 498,-50"/>
<text text-anchor="middle" x="564.5" y="-57" font-family="Helvetica,sans-Serif" font-size="10.00">ExtIO::getIOElementOfPin</text>
</a>
</g>
</g>
<!-- Node3&#45;&gt;Node5 -->
<g id="edge4" class="edge"><title>Node3&#45;&gt;Node5</title>
<path fill="none" stroke="midnightblue" d="M462.054,-59.5C470.257,-59.5 478.963,-59.5 487.694,-59.5"/>
<polygon fill="midnightblue" stroke="midnightblue" points="487.925,-63.0001 497.925,-59.5 487.924,-56.0001 487.925,-63.0001"/>
</g>
<!-- Node8 -->
<g id="node8" class="node"><title>Node8</title>
<g id="a_node8"><a xlink:href="../../de/d4e/classExtendedIOElement.html#a955322d29e4e63ec40a587b5ed9db31b" target="_top" xlink:title="Get the smallest global extended IO pin number that belongs to this extended IO element.">
<polygon fill="white" stroke="black" points="509.5,-0.5 509.5,-30.5 619.5,-30.5 619.5,-0.5 509.5,-0.5"/>
<text text-anchor="start" x="517.5" y="-18.5" font-family="Helvetica,sans-Serif" font-size="10.00">ExtendedIOElement::</text>
<text text-anchor="middle" x="564.5" y="-7.5" font-family="Helvetica,sans-Serif" font-size="10.00">getStart</text>
</a>
</g>
</g>
<!-- Node3&#45;&gt;Node8 -->
<g id="edge7" class="edge"><title>Node3&#45;&gt;Node8</title>
<path fill="none" stroke="midnightblue" d="M446.831,-49.9527C463.232,-45.1094 483.699,-39.0654 502.891,-33.398"/>
<polygon fill="midnightblue" stroke="midnightblue" points="503.884,-36.7543 512.483,-30.5654 501.901,-30.0408 503.884,-36.7543"/>
</g>
<!-- Node6 -->
<g id="node6" class="node"><title>Node6</title>
<g id="a_node6"><a xlink:href="../../de/d4e/classExtendedIOElement.html#a3151d5bf08e6b32231cdd58ed2f39aee" target="_top" xlink:title="Get the list of all Extended IO elements.">
<polygon fill="white" stroke="black" points="667,-66.5 667,-96.5 777,-96.5 777,-66.5 667,-66.5"/>
<text text-anchor="start" x="675" y="-84.5" font-family="Helvetica,sans-Serif" font-size="10.00">ExtendedIOElement::</text>
<text text-anchor="middle" x="722" y="-73.5" font-family="Helvetica,sans-Serif" font-size="10.00">getAll</text>
</a>
</g>
</g>
<!-- Node5&#45;&gt;Node6 -->
<g id="edge5" class="edge"><title>Node5&#45;&gt;Node6</title>
<path fill="none" stroke="midnightblue" d="M631.446,-68.83C639.803,-70.0123 648.345,-71.2209 656.676,-72.3995"/>
<polygon fill="midnightblue" stroke="midnightblue" points="656.314,-75.8831 666.706,-73.8185 657.295,-68.9521 656.314,-75.8831"/>
</g>
<!-- Node7 -->
<g id="node7" class="node"><title>Node7</title>
<g id="a_node7"><a xlink:href="../../d8/d3d/namespaceExtIO.html#aedf6005ecc64cea16059965b80ce5f85" target="_top" xlink:title=" ">
<polygon fill="white" stroke="black" points="680,-28 680,-47 764,-47 764,-28 680,-28"/>
<text text-anchor="middle" x="722" y="-35" font-family="Helvetica,sans-Serif" font-size="10.00">ExtIO::inRange</text>
</a>
</g>
</g>
<!-- Node5&#45;&gt;Node7 -->
<g id="edge6" class="edge"><title>Node5&#45;&gt;Node7</title>
<path fill="none" stroke="midnightblue" d="M631.446,-50.17C644.25,-48.3585 657.492,-46.485 669.738,-44.7525"/>
<polygon fill="midnightblue" stroke="midnightblue" points="670.348,-48.2011 679.759,-43.3347 669.368,-41.2701 670.348,-48.2011"/>
</g>
</g>
</svg>
