<?xml version="1.0" encoding="UTF-8" standalone="no"?>
<!DOCTYPE svg PUBLIC "-//W3C//DTD SVG 1.1//EN"
 "http://www.w3.org/Graphics/SVG/1.1/DTD/svg11.dtd">
<!-- Generated by graphviz version 2.38.0 (20140413.2041)
 -->
<!-- Title: BankConfig.hpp Pages: 1 -->
<svg width="2648pt" height="364pt"
 viewBox="0.00 0.00 2648.00 364.00" xmlns="http://www.w3.org/2000/svg" xmlns:xlink="http://www.w3.org/1999/xlink">
<g id="graph0" class="graph" transform="scale(1 1) rotate(0) translate(4 360)">
<title>BankConfig.hpp</title>
<polygon fill="white" stroke="none" points="-4,4 -4,-360 2644,-360 2644,4 -4,4"/>
<!-- Node7 -->
<g id="node1" class="node"><title>Node7</title>
<g id="a_node1"><a xlink:title=" ">
<polygon fill="#bfbfbf" stroke="black" points="771,-336.5 771,-355.5 857,-355.5 857,-336.5 771,-336.5"/>
<text text-anchor="middle" x="814" y="-343.5" font-family="Helvetica,sans-Serif" font-size="10.00">BankConfig.hpp</text>
</a>
</g>
</g>
<!-- Node8 -->
<g id="node2" class="node"><title>Node8</title>
<g id="a_node2"><a xlink:href="../../de/d6e/BankableMIDIInput_8hpp.html" target="_top" xlink:title=" ">
<polygon fill="white" stroke="black" points="697.5,-280.5 697.5,-299.5 816.5,-299.5 816.5,-280.5 697.5,-280.5"/>
<text text-anchor="middle" x="757" y="-287.5" font-family="Helvetica,sans-Serif" font-size="10.00">BankableMIDIInput.hpp</text>
</a>
</g>
</g>
<!-- Node7&#45;&gt;Node8 -->
<g id="edge1" class="edge"><title>Node7&#45;&gt;Node8</title>
<path fill="none" stroke="midnightblue" d="M797.379,-329.253C787.266,-319.673 774.723,-307.791 766.325,-299.834"/>
<polygon fill="midnightblue" stroke="midnightblue" points="795.175,-331.987 804.842,-336.324 799.99,-326.906 795.175,-331.987"/>
</g>
<!-- Node10 -->
<g id="node4" class="node"><title>Node10</title>
<g id="a_node4"><a xlink:href="../../db/df2/BankableMIDIOutput_8hpp.html" target="_top" xlink:title=" ">
<polygon fill="white" stroke="black" points="1393.5,-168.5 1393.5,-187.5 1520.5,-187.5 1520.5,-168.5 1393.5,-168.5"/>
<text text-anchor="middle" x="1457" y="-175.5" font-family="Helvetica,sans-Serif" font-size="10.00">BankableMIDIOutput.hpp</text>
</a>
</g>
</g>
<!-- Node7&#45;&gt;Node10 -->
<g id="edge66" class="edge"><title>Node7&#45;&gt;Node10</title>
<path fill="none" stroke="midnightblue" d="M857.201,-333.847C977.873,-302.694 1316.69,-215.222 1423.98,-187.524"/>
<polygon fill="midnightblue" stroke="midnightblue" points="856.024,-330.536 847.216,-336.425 857.774,-337.314 856.024,-330.536"/>
</g>
<!-- Node9 -->
<g id="node3" class="node"><title>Node9</title>
<g id="a_node3"><a xlink:href="../../d4/d57/Bank_8hpp.html" target="_top" xlink:title=" ">
<polygon fill="white" stroke="black" points="786,-224.5 786,-243.5 844,-243.5 844,-224.5 786,-224.5"/>
<text text-anchor="middle" x="815" y="-231.5" font-family="Helvetica,sans-Serif" font-size="10.00">Bank.hpp</text>
</a>
</g>
</g>
<!-- Node8&#45;&gt;Node9 -->
<g id="edge2" class="edge"><title>Node8&#45;&gt;Node9</title>
<path fill="none" stroke="midnightblue" d="M768.235,-272.718C777.529,-263.2 790.404,-251.561 800.47,-243.751"/>
<polygon fill="midnightblue" stroke="midnightblue" points="765.64,-270.369 761.411,-280.083 770.775,-275.126 765.64,-270.369"/>
</g>
<!-- Node35 -->
<g id="node29" class="node"><title>Node35</title>
<g id="a_node29"><a xlink:href="../../d7/d81/VPotRing_8hpp.html" target="_top" xlink:title=" ">
<polygon fill="white" stroke="black" points="79.5,-112.5 79.5,-131.5 156.5,-131.5 156.5,-112.5 79.5,-112.5"/>
<text text-anchor="middle" x="118" y="-119.5" font-family="Helvetica,sans-Serif" font-size="10.00">VPotRing.hpp</text>
</a>
</g>
</g>
<!-- Node8&#45;&gt;Node35 -->
<g id="edge43" class="edge"><title>Node8&#45;&gt;Node35</title>
<path fill="none" stroke="midnightblue" d="M697.031,-278.633C651.079,-270.322 586.226,-257.8 530,-244 382.666,-207.839 209.227,-152.708 144.286,-131.617"/>
<polygon fill="midnightblue" stroke="midnightblue" points="696.66,-282.122 707.121,-280.445 697.897,-275.232 696.66,-282.122"/>
</g>
<!-- Node39 -->
<g id="node33" class="node"><title>Node39</title>
<g id="a_node33"><a xlink:href="../../db/dda/VU_8hpp.html" target="_top" xlink:title=" ">
<polygon fill="white" stroke="black" points="353,-168.5 353,-187.5 403,-187.5 403,-168.5 353,-168.5"/>
<text text-anchor="middle" x="378" y="-175.5" font-family="Helvetica,sans-Serif" font-size="10.00">VU.hpp</text>
</a>
</g>
</g>
<!-- Node8&#45;&gt;Node39 -->
<g id="edge50" class="edge"><title>Node8&#45;&gt;Node39</title>
<path fill="none" stroke="midnightblue" d="M717.666,-277.584C639.731,-254.964 467.663,-205.024 403.115,-186.289"/>
<polygon fill="midnightblue" stroke="midnightblue" points="716.997,-281.034 727.576,-280.46 718.948,-274.311 716.997,-281.034"/>
</g>
<!-- Node44 -->
<g id="node38" class="node"><title>Node44</title>
<g id="a_node38"><a xlink:href="../../d2/d97/MIDINote_8hpp.html" target="_top" xlink:title=" ">
<polygon fill="white" stroke="black" points="630,-112.5 630,-131.5 708,-131.5 708,-112.5 630,-112.5"/>
<text text-anchor="middle" x="669" y="-119.5" font-family="Helvetica,sans-Serif" font-size="10.00">MIDINote.hpp</text>
</a>
</g>
</g>
<!-- Node8&#45;&gt;Node44 -->
<g id="edge60" class="edge"><title>Node8&#45;&gt;Node44</title>
<path fill="none" stroke="midnightblue" d="M747.381,-270.856C728.507,-235.252 687.264,-157.453 673.542,-131.568"/>
<polygon fill="midnightblue" stroke="midnightblue" points="744.493,-272.879 752.269,-280.075 750.677,-269.6 744.493,-272.879"/>
</g>
<!-- Node9&#45;&gt;Node8 -->
<g id="edge3" class="edge"><title>Node9&#45;&gt;Node8</title>
<path fill="none" stroke="midnightblue" d="M803.822,-251.224C794.494,-260.783 781.534,-272.498 771.434,-280.324"/>
<polygon fill="midnightblue" stroke="midnightblue" points="806.437,-253.551 810.66,-243.834 801.3,-248.796 806.437,-253.551"/>
</g>
<!-- Node9&#45;&gt;Node10 -->
<g id="edge4" class="edge"><title>Node9&#45;&gt;Node10</title>
<path fill="none" stroke="midnightblue" d="M854.346,-229.69C961.905,-220.643 1261.59,-195.437 1393.4,-184.349"/>
<polygon fill="midnightblue" stroke="midnightblue" points="853.925,-226.213 844.254,-230.539 854.512,-233.189 853.925,-226.213"/>
</g>
<!-- Node34 -->
<g id="node28" class="node"><title>Node34</title>
<g id="a_node28"><a xlink:href="../../de/d5e/Transposer_8hpp.html" target="_top" xlink:title=" ">
<polygon fill="white" stroke="black" points="781,-168.5 781,-187.5 865,-187.5 865,-168.5 781,-168.5"/>
<text text-anchor="middle" x="823" y="-175.5" font-family="Helvetica,sans-Serif" font-size="10.00">Transposer.hpp</text>
</a>
</g>
</g>
<!-- Node9&#45;&gt;Node34 -->
<g id="edge41" class="edge"><title>Node9&#45;&gt;Node34</title>
<path fill="none" stroke="midnightblue" d="M817.8,-214.101C819.128,-205.136 820.651,-194.858 821.704,-187.751"/>
<polygon fill="midnightblue" stroke="midnightblue" points="814.324,-213.678 816.321,-224.083 821.249,-214.704 814.324,-213.678"/>
</g>
<!-- Node11 -->
<g id="node5" class="node"><title>Node11</title>
<g id="a_node5"><a xlink:href="../../dd/d2a/Bankable_2Abstract_2MIDIButton_8hpp.html" target="_top" xlink:title=" ">
<polygon fill="white" stroke="black" points="1096,-112.5 1096,-131.5 1182,-131.5 1182,-112.5 1096,-112.5"/>
<text text-anchor="middle" x="1139" y="-119.5" font-family="Helvetica,sans-Serif" font-size="10.00">MIDIButton.hpp</text>
</a>
</g>
</g>
<!-- Node10&#45;&gt;Node11 -->
<g id="edge5" class="edge"><title>Node10&#45;&gt;Node11</title>
<path fill="none" stroke="midnightblue" d="M1396.46,-166.72C1333.75,-156.071 1237.34,-139.699 1182.01,-130.304"/>
<polygon fill="midnightblue" stroke="midnightblue" points="1396.17,-170.22 1406.61,-168.444 1397.34,-163.319 1396.17,-170.22"/>
</g>
<!-- Node15 -->
<g id="node9" class="node"><title>Node15</title>
<g id="a_node9"><a xlink:href="../../d7/d4e/Bankable_2Abstract_2MIDIButtonLatched_8hpp.html" target="_top" xlink:title=" ">
<polygon fill="white" stroke="black" points="1328,-112.5 1328,-131.5 1448,-131.5 1448,-112.5 1328,-112.5"/>
<text text-anchor="middle" x="1388" y="-119.5" font-family="Helvetica,sans-Serif" font-size="10.00">MIDIButtonLatched.hpp</text>
</a>
</g>
</g>
<!-- Node10&#45;&gt;Node15 -->
<g id="edge10" class="edge"><title>Node10&#45;&gt;Node15</title>
<path fill="none" stroke="midnightblue" d="M1437.96,-162.101C1425.54,-152.382 1409.76,-140.027 1399.29,-131.834"/>
<polygon fill="midnightblue" stroke="midnightblue" points="1435.88,-164.917 1445.91,-168.324 1440.2,-159.405 1435.88,-164.917"/>
</g>
<!-- Node18 -->
<g id="node12" class="node"><title>Node18</title>
<g id="a_node12"><a xlink:href="../../d4/d8c/Bankable_2Abstract_2MIDIButtonLatching_8hpp.html" target="_top" xlink:title=" ">
<polygon fill="white" stroke="black" points="1466,-112.5 1466,-131.5 1588,-131.5 1588,-112.5 1466,-112.5"/>
<text text-anchor="middle" x="1527" y="-119.5" font-family="Helvetica,sans-Serif" font-size="10.00">MIDIButtonLatching.hpp</text>
</a>
</g>
</g>
<!-- Node10&#45;&gt;Node18 -->
<g id="edge15" class="edge"><title>Node10&#45;&gt;Node18</title>
<path fill="none" stroke="midnightblue" d="M1476.31,-162.101C1488.91,-152.382 1504.93,-140.027 1515.55,-131.834"/>
<polygon fill="midnightblue" stroke="midnightblue" points="1474.03,-159.445 1468.25,-168.324 1478.3,-164.987 1474.03,-159.445"/>
</g>
<!-- Node21 -->
<g id="node15" class="node"><title>Node21</title>
<g id="a_node15"><a xlink:href="../../d5/d5e/Bankable_2Abstract_2MIDIButtonMatrix_8hpp.html" target="_top" xlink:title=" ">
<polygon fill="white" stroke="black" points="1738.5,-112.5 1738.5,-131.5 1851.5,-131.5 1851.5,-112.5 1738.5,-112.5"/>
<text text-anchor="middle" x="1795" y="-119.5" font-family="Helvetica,sans-Serif" font-size="10.00">MIDIButtonMatrix.hpp</text>
</a>
</g>
</g>
<!-- Node10&#45;&gt;Node21 -->
<g id="edge20" class="edge"><title>Node10&#45;&gt;Node21</title>
<path fill="none" stroke="midnightblue" d="M1520.51,-166.854C1584.37,-156.651 1681.72,-141.098 1741.69,-131.516"/>
<polygon fill="midnightblue" stroke="midnightblue" points="1519.88,-163.41 1510.56,-168.444 1520.98,-170.322 1519.88,-163.41"/>
</g>
<!-- Node24 -->
<g id="node18" class="node"><title>Node24</title>
<g id="a_node18"><a xlink:href="../../d9/df7/Bankable_2Abstract_2MIDIButtons_8hpp.html" target="_top" xlink:title=" ">
<polygon fill="white" stroke="black" points="1992.5,-112.5 1992.5,-131.5 2083.5,-131.5 2083.5,-112.5 1992.5,-112.5"/>
<text text-anchor="middle" x="2038" y="-119.5" font-family="Helvetica,sans-Serif" font-size="10.00">MIDIButtons.hpp</text>
</a>
</g>
</g>
<!-- Node10&#45;&gt;Node24 -->
<g id="edge25" class="edge"><title>Node10&#45;&gt;Node24</title>
<path fill="none" stroke="midnightblue" d="M1530.54,-170.165C1652.22,-158.855 1891.98,-136.572 1992.23,-127.254"/>
<polygon fill="midnightblue" stroke="midnightblue" points="1530.19,-166.682 1520.56,-171.092 1530.84,-173.652 1530.19,-166.682"/>
</g>
<!-- Node27 -->
<g id="node21" class="node"><title>Node27</title>
<g id="a_node21"><a xlink:href="../../d5/d4d/Bankable_2Abstract_2MIDIFilteredAnalog_8hpp.html" target="_top" xlink:title=" ">
<polygon fill="white" stroke="black" points="2202.5,-112.5 2202.5,-131.5 2321.5,-131.5 2321.5,-112.5 2202.5,-112.5"/>
<text text-anchor="middle" x="2262" y="-119.5" font-family="Helvetica,sans-Serif" font-size="10.00">MIDIFilteredAnalog.hpp</text>
</a>
</g>
</g>
<!-- Node10&#45;&gt;Node27 -->
<g id="edge30" class="edge"><title>Node10&#45;&gt;Node27</title>
<path fill="none" stroke="midnightblue" d="M1530.6,-172.063C1688.67,-161.459 2057.94,-136.689 2202.48,-126.992"/>
<polygon fill="midnightblue" stroke="midnightblue" points="1530.25,-168.579 1520.5,-172.74 1530.71,-175.563 1530.25,-168.579"/>
</g>
<!-- Node30 -->
<g id="node24" class="node"><title>Node30</title>
<g id="a_node24"><a xlink:href="../../de/dc8/Bankable_2Abstract_2MIDIIncrementDecrementButtons_8hpp.html" target="_top" xlink:title=" ">
<polygon fill="white" stroke="black" points="2400,-112.5 2400,-131.5 2582,-131.5 2582,-112.5 2400,-112.5"/>
<text text-anchor="middle" x="2491" y="-119.5" font-family="Helvetica,sans-Serif" font-size="10.00">MIDIIncrementDecrementButtons.hpp</text>
</a>
</g>
</g>
<!-- Node10&#45;&gt;Node30 -->
<g id="edge35" class="edge"><title>Node10&#45;&gt;Node30</title>
<path fill="none" stroke="midnightblue" d="M1530.57,-173.316C1680.81,-165.768 2033.72,-147.917 2330,-132 2352.64,-130.784 2377.08,-129.436 2399.9,-128.162"/>
<polygon fill="midnightblue" stroke="midnightblue" points="1530.35,-169.822 1520.54,-173.82 1530.7,-176.814 1530.35,-169.822"/>
</g>
<!-- Node32 -->
<g id="node26" class="node"><title>Node32</title>
<g id="a_node26"><a xlink:href="../../da/dd5/Bankable_2Abstract_2MIDIRotaryEncoder_8hpp.html" target="_top" xlink:title=" ">
<polygon fill="white" stroke="black" points="911,-112.5 911,-131.5 1033,-131.5 1033,-112.5 911,-112.5"/>
<text text-anchor="middle" x="972" y="-119.5" font-family="Helvetica,sans-Serif" font-size="10.00">MIDIRotaryEncoder.hpp</text>
</a>
</g>
</g>
<!-- Node10&#45;&gt;Node32 -->
<g id="edge38" class="edge"><title>Node10&#45;&gt;Node32</title>
<path fill="none" stroke="midnightblue" d="M1383.16,-168.779C1287.4,-158.116 1122.1,-139.713 1033.06,-129.798"/>
<polygon fill="midnightblue" stroke="midnightblue" points="1383.02,-172.285 1393.35,-169.913 1383.79,-165.328 1383.02,-172.285"/>
</g>
<!-- Node12 -->
<g id="node6" class="node"><title>Node12</title>
<g id="a_node6"><a xlink:href="../../db/d15/Bankable_2CCButton_8hpp.html" target="_top" xlink:title=" ">
<polygon fill="white" stroke="black" points="999.5,-56.5 999.5,-75.5 1078.5,-75.5 1078.5,-56.5 999.5,-56.5"/>
<text text-anchor="middle" x="1039" y="-63.5" font-family="Helvetica,sans-Serif" font-size="10.00">CCButton.hpp</text>
</a>
</g>
</g>
<!-- Node11&#45;&gt;Node12 -->
<g id="edge6" class="edge"><title>Node11&#45;&gt;Node12</title>
<path fill="none" stroke="midnightblue" d="M1113.91,-107.453C1095.45,-97.4835 1070.9,-84.2279 1055.03,-75.6545"/>
<polygon fill="midnightblue" stroke="midnightblue" points="1112.47,-110.652 1122.93,-112.324 1115.8,-104.493 1112.47,-110.652"/>
</g>
<!-- Node14 -->
<g id="node8" class="node"><title>Node14</title>
<g id="a_node8"><a xlink:href="../../d5/d8e/Bankable_2NoteButton_8hpp.html" target="_top" xlink:title=" ">
<polygon fill="white" stroke="black" points="1096.5,-56.5 1096.5,-75.5 1181.5,-75.5 1181.5,-56.5 1096.5,-56.5"/>
<text text-anchor="middle" x="1139" y="-63.5" font-family="Helvetica,sans-Serif" font-size="10.00">NoteButton.hpp</text>
</a>
</g>
</g>
<!-- Node11&#45;&gt;Node14 -->
<g id="edge8" class="edge"><title>Node11&#45;&gt;Node14</title>
<path fill="none" stroke="midnightblue" d="M1139,-101.805C1139,-92.9102 1139,-82.7798 1139,-75.7511"/>
<polygon fill="midnightblue" stroke="midnightblue" points="1135.5,-102.083 1139,-112.083 1142.5,-102.083 1135.5,-102.083"/>
</g>
<!-- Node13 -->
<g id="node7" class="node"><title>Node13</title>
<g id="a_node7"><a xlink:href="../../db/dbf/Control__Surface_8h.html" target="_top" xlink:title="The main header file that includes all Control&#45;Surface header files.">
<polygon fill="white" stroke="black" points="933.5,-0.5 933.5,-19.5 1028.5,-19.5 1028.5,-0.5 933.5,-0.5"/>
<text text-anchor="middle" x="981" y="-7.5" font-family="Helvetica,sans-Serif" font-size="10.00">Control_Surface.h</text>
</a>
</g>
</g>
<!-- Node12&#45;&gt;Node13 -->
<g id="edge7" class="edge"><title>Node12&#45;&gt;Node13</title>
<path fill="none" stroke="midnightblue" d="M1022.09,-49.2533C1011.8,-39.6731 999.034,-27.7906 990.488,-19.8339"/>
<polygon fill="midnightblue" stroke="midnightblue" points="1019.98,-52.0714 1029.68,-56.324 1024.75,-46.9481 1019.98,-52.0714"/>
</g>
<!-- Node14&#45;&gt;Node13 -->
<g id="edge9" class="edge"><title>Node14&#45;&gt;Node13</title>
<path fill="none" stroke="midnightblue" d="M1104.39,-53.172C1074.64,-43.0039 1032.45,-28.5852 1005.92,-19.5164"/>
<polygon fill="midnightblue" stroke="midnightblue" points="1103.37,-56.5213 1113.96,-56.4435 1105.63,-49.8975 1103.37,-56.5213"/>
</g>
<!-- Node16 -->
<g id="node10" class="node"><title>Node16</title>
<g id="a_node10"><a xlink:href="../../db/d53/Bankable_2CCButtonLatched_8hpp.html" target="_top" xlink:title=" ">
<polygon fill="white" stroke="black" points="1199.5,-56.5 1199.5,-75.5 1312.5,-75.5 1312.5,-56.5 1199.5,-56.5"/>
<text text-anchor="middle" x="1256" y="-63.5" font-family="Helvetica,sans-Serif" font-size="10.00">CCButtonLatched.hpp</text>
</a>
</g>
</g>
<!-- Node15&#45;&gt;Node16 -->
<g id="edge11" class="edge"><title>Node15&#45;&gt;Node16</title>
<path fill="none" stroke="midnightblue" d="M1357.78,-108.638C1333.01,-98.504 1298.6,-84.4274 1276.82,-75.5164"/>
<polygon fill="midnightblue" stroke="midnightblue" points="1356.5,-111.897 1367.08,-112.444 1359.15,-105.418 1356.5,-111.897"/>
</g>
<!-- Node17 -->
<g id="node11" class="node"><title>Node17</title>
<g id="a_node11"><a xlink:href="../../df/de8/Bankable_2NoteButtonLatched_8hpp.html" target="_top" xlink:title=" ">
<polygon fill="white" stroke="black" points="1330.5,-56.5 1330.5,-75.5 1449.5,-75.5 1449.5,-56.5 1330.5,-56.5"/>
<text text-anchor="middle" x="1390" y="-63.5" font-family="Helvetica,sans-Serif" font-size="10.00">NoteButtonLatched.hpp</text>
</a>
</g>
</g>
<!-- Node15&#45;&gt;Node17 -->
<g id="edge13" class="edge"><title>Node15&#45;&gt;Node17</title>
<path fill="none" stroke="midnightblue" d="M1388.71,-101.805C1389.04,-92.9102 1389.42,-82.7798 1389.68,-75.7511"/>
<polygon fill="midnightblue" stroke="midnightblue" points="1385.2,-101.96 1388.33,-112.083 1392.2,-102.219 1385.2,-101.96"/>
</g>
<!-- Node16&#45;&gt;Node13 -->
<g id="edge12" class="edge"><title>Node16&#45;&gt;Node13</title>
<path fill="none" stroke="midnightblue" d="M1202.39,-54.4734C1150.42,-44.2678 1072.56,-28.9794 1024.37,-19.5164"/>
<polygon fill="midnightblue" stroke="midnightblue" points="1201.94,-57.951 1212.43,-56.4435 1203.29,-51.0822 1201.94,-57.951"/>
</g>
<!-- Node17&#45;&gt;Node13 -->
<g id="edge14" class="edge"><title>Node17&#45;&gt;Node13</title>
<path fill="none" stroke="midnightblue" d="M1319.97,-55.7545C1236.84,-44.7778 1100.43,-26.7685 1028.63,-17.2881"/>
<polygon fill="midnightblue" stroke="midnightblue" points="1319.72,-59.251 1330.09,-57.0901 1320.63,-52.3112 1319.72,-59.251"/>
</g>
<!-- Node19 -->
<g id="node13" class="node"><title>Node19</title>
<g id="a_node13"><a xlink:href="../../d2/dac/Bankable_2CCButtonLatching_8hpp.html" target="_top" xlink:title=" ">
<polygon fill="white" stroke="black" points="1468,-56.5 1468,-75.5 1584,-75.5 1584,-56.5 1468,-56.5"/>
<text text-anchor="middle" x="1526" y="-63.5" font-family="Helvetica,sans-Serif" font-size="10.00">CCButtonLatching.hpp</text>
</a>
</g>
</g>
<!-- Node18&#45;&gt;Node19 -->
<g id="edge16" class="edge"><title>Node18&#45;&gt;Node19</title>
<path fill="none" stroke="midnightblue" d="M1526.64,-101.805C1526.48,-92.9102 1526.29,-82.7798 1526.16,-75.7511"/>
<polygon fill="midnightblue" stroke="midnightblue" points="1523.15,-102.15 1526.83,-112.083 1530.15,-102.02 1523.15,-102.15"/>
</g>
<!-- Node20 -->
<g id="node14" class="node"><title>Node20</title>
<g id="a_node14"><a xlink:href="../../d6/d6e/Bankable_2NoteButtonLatching_8hpp.html" target="_top" xlink:title=" ">
<polygon fill="white" stroke="black" points="1602,-56.5 1602,-75.5 1724,-75.5 1724,-56.5 1602,-56.5"/>
<text text-anchor="middle" x="1663" y="-63.5" font-family="Helvetica,sans-Serif" font-size="10.00">NoteButtonLatching.hpp</text>
</a>
</g>
</g>
<!-- Node18&#45;&gt;Node20 -->
<g id="edge18" class="edge"><title>Node18&#45;&gt;Node20</title>
<path fill="none" stroke="midnightblue" d="M1558.13,-108.638C1583.66,-98.504 1619.11,-84.4274 1641.55,-75.5164"/>
<polygon fill="midnightblue" stroke="midnightblue" points="1556.55,-105.5 1548.55,-112.444 1559.14,-112.006 1556.55,-105.5"/>
</g>
<!-- Node19&#45;&gt;Node13 -->
<g id="edge17" class="edge"><title>Node19&#45;&gt;Node13</title>
<path fill="none" stroke="midnightblue" d="M1457.5,-55.9879C1293.57,-37.5715 1113,-21.933 1028.79,-14.9111"/>
<polygon fill="midnightblue" stroke="midnightblue" points="1457.45,-59.5038 1467.78,-57.1482 1458.24,-52.548 1457.45,-59.5038"/>
</g>
<!-- Node20&#45;&gt;Node13 -->
<g id="edge19" class="edge"><title>Node20&#45;&gt;Node13</title>
<path fill="none" stroke="midnightblue" d="M1591.98,-55.9496C1375.55,-34.3459 1130.24,-19.3894 1028.69,-13.6196"/>
<polygon fill="midnightblue" stroke="midnightblue" points="1591.64,-59.4328 1601.94,-56.9504 1592.34,-52.4679 1591.64,-59.4328"/>
</g>
<!-- Node22 -->
<g id="node16" class="node"><title>Node22</title>
<g id="a_node16"><a xlink:href="../../d9/d55/Bankable_2CCButtonMatrix_8hpp.html" target="_top" xlink:title=" ">
<polygon fill="white" stroke="black" points="1742,-56.5 1742,-75.5 1848,-75.5 1848,-56.5 1742,-56.5"/>
<text text-anchor="middle" x="1795" y="-63.5" font-family="Helvetica,sans-Serif" font-size="10.00">CCButtonMatrix.hpp</text>
</a>
</g>
</g>
<!-- Node21&#45;&gt;Node22 -->
<g id="edge21" class="edge"><title>Node21&#45;&gt;Node22</title>
<path fill="none" stroke="midnightblue" d="M1795,-101.805C1795,-92.9102 1795,-82.7798 1795,-75.7511"/>
<polygon fill="midnightblue" stroke="midnightblue" points="1791.5,-102.083 1795,-112.083 1798.5,-102.083 1791.5,-102.083"/>
</g>
<!-- Node23 -->
<g id="node17" class="node"><title>Node23</title>
<g id="a_node17"><a xlink:href="../../dc/dde/Bankable_2NoteButtonMatrix_8hpp.html" target="_top" xlink:title=" ">
<polygon fill="white" stroke="black" points="1866,-56.5 1866,-75.5 1978,-75.5 1978,-56.5 1866,-56.5"/>
<text text-anchor="middle" x="1922" y="-63.5" font-family="Helvetica,sans-Serif" font-size="10.00">NoteButtonMatrix.hpp</text>
</a>
</g>
</g>
<!-- Node21&#45;&gt;Node23 -->
<g id="edge23" class="edge"><title>Node21&#45;&gt;Node23</title>
<path fill="none" stroke="midnightblue" d="M1824.39,-108.503C1848.2,-98.3795 1881.11,-84.388 1901.97,-75.5164"/>
<polygon fill="midnightblue" stroke="midnightblue" points="1822.96,-105.31 1815.12,-112.444 1825.7,-111.751 1822.96,-105.31"/>
</g>
<!-- Node22&#45;&gt;Node13 -->
<g id="edge22" class="edge"><title>Node22&#45;&gt;Node13</title>
<path fill="none" stroke="midnightblue" d="M1731.87,-55.9728C1459.8,-28.54 1146.19,-16.3438 1028.62,-12.4543"/>
<polygon fill="midnightblue" stroke="midnightblue" points="1731.63,-59.4668 1741.94,-56.9968 1732.34,-52.5027 1731.63,-59.4668"/>
</g>
<!-- Node23&#45;&gt;Node13 -->
<g id="edge24" class="edge"><title>Node23&#45;&gt;Node13</title>
<path fill="none" stroke="midnightblue" d="M1855.68,-55.9565C1533.87,-25.9001 1159.1,-15.0584 1028.58,-12.002"/>
<polygon fill="midnightblue" stroke="midnightblue" points="1855.38,-59.4437 1865.66,-56.8969 1856.04,-52.4745 1855.38,-59.4437"/>
</g>
<!-- Node25 -->
<g id="node19" class="node"><title>Node25</title>
<g id="a_node19"><a xlink:href="../../d7/d16/Bankable_2CCButtons_8hpp.html" target="_top" xlink:title=" ">
<polygon fill="white" stroke="black" points="1996,-56.5 1996,-75.5 2080,-75.5 2080,-56.5 1996,-56.5"/>
<text text-anchor="middle" x="2038" y="-63.5" font-family="Helvetica,sans-Serif" font-size="10.00">CCButtons.hpp</text>
</a>
</g>
</g>
<!-- Node24&#45;&gt;Node25 -->
<g id="edge26" class="edge"><title>Node24&#45;&gt;Node25</title>
<path fill="none" stroke="midnightblue" d="M2038,-101.805C2038,-92.9102 2038,-82.7798 2038,-75.7511"/>
<polygon fill="midnightblue" stroke="midnightblue" points="2034.5,-102.083 2038,-112.083 2041.5,-102.083 2034.5,-102.083"/>
</g>
<!-- Node26 -->
<g id="node20" class="node"><title>Node26</title>
<g id="a_node20"><a xlink:href="../../dd/dbb/Bankable_2NoteButtons_8hpp.html" target="_top" xlink:title=" ">
<polygon fill="white" stroke="black" points="2098,-56.5 2098,-75.5 2188,-75.5 2188,-56.5 2098,-56.5"/>
<text text-anchor="middle" x="2143" y="-63.5" font-family="Helvetica,sans-Serif" font-size="10.00">NoteButtons.hpp</text>
</a>
</g>
</g>
<!-- Node24&#45;&gt;Node26 -->
<g id="edge28" class="edge"><title>Node24&#45;&gt;Node26</title>
<path fill="none" stroke="midnightblue" d="M2063.81,-107.726C2083.25,-97.7271 2109.35,-84.3065 2126.17,-75.6545"/>
<polygon fill="midnightblue" stroke="midnightblue" points="2062.16,-104.638 2054.87,-112.324 2065.36,-110.863 2062.16,-104.638"/>
</g>
<!-- Node25&#45;&gt;Node13 -->
<g id="edge27" class="edge"><title>Node25&#45;&gt;Node13</title>
<path fill="none" stroke="midnightblue" d="M1985.55,-55.9929C1611.64,-15.4694 1171.79,-11.2154 1028.56,-10.9378"/>
<polygon fill="midnightblue" stroke="midnightblue" points="1985.44,-59.5013 1995.76,-57.1101 1986.2,-52.5429 1985.44,-59.5013"/>
</g>
<!-- Node26&#45;&gt;Node13 -->
<g id="edge29" class="edge"><title>Node26&#45;&gt;Node13</title>
<path fill="none" stroke="midnightblue" d="M2087.86,-56.027C1672.15,-13.7421 1181.36,-10.6878 1028.67,-10.819"/>
<polygon fill="midnightblue" stroke="midnightblue" points="2087.67,-59.5257 2097.98,-57.0651 2088.39,-52.5623 2087.67,-59.5257"/>
</g>
<!-- Node28 -->
<g id="node22" class="node"><title>Node28</title>
<g id="a_node22"><a xlink:href="../../d6/ddd/Bankable_2CCPotentiometer_8hpp.html" target="_top" xlink:title=" ">
<polygon fill="white" stroke="black" points="2206.5,-56.5 2206.5,-75.5 2317.5,-75.5 2317.5,-56.5 2206.5,-56.5"/>
<text text-anchor="middle" x="2262" y="-63.5" font-family="Helvetica,sans-Serif" font-size="10.00">CCPotentiometer.hpp</text>
</a>
</g>
</g>
<!-- Node27&#45;&gt;Node28 -->
<g id="edge31" class="edge"><title>Node27&#45;&gt;Node28</title>
<path fill="none" stroke="midnightblue" d="M2262,-101.805C2262,-92.9102 2262,-82.7798 2262,-75.7511"/>
<polygon fill="midnightblue" stroke="midnightblue" points="2258.5,-102.083 2262,-112.083 2265.5,-102.083 2258.5,-102.083"/>
</g>
<!-- Node29 -->
<g id="node23" class="node"><title>Node29</title>
<g id="a_node23"><a xlink:href="../../d9/d99/Bankable_2PBPotentiometer_8hpp.html" target="_top" xlink:title=" ">
<polygon fill="white" stroke="black" points="2336,-56.5 2336,-75.5 2446,-75.5 2446,-56.5 2336,-56.5"/>
<text text-anchor="middle" x="2391" y="-63.5" font-family="Helvetica,sans-Serif" font-size="10.00">PBPotentiometer.hpp</text>
</a>
</g>
</g>
<!-- Node27&#45;&gt;Node29 -->
<g id="edge33" class="edge"><title>Node27&#45;&gt;Node29</title>
<path fill="none" stroke="midnightblue" d="M2291.85,-108.503C2316.04,-98.3795 2349.46,-84.388 2370.66,-75.5164"/>
<polygon fill="midnightblue" stroke="midnightblue" points="2290.31,-105.354 2282.44,-112.444 2293.02,-111.811 2290.31,-105.354"/>
</g>
<!-- Node28&#45;&gt;Node13 -->
<g id="edge32" class="edge"><title>Node28&#45;&gt;Node13</title>
<path fill="none" stroke="midnightblue" d="M2196.19,-56.0364C1735.42,-16.2425 1190.62,-11.5507 1028.62,-11.0425"/>
<polygon fill="midnightblue" stroke="midnightblue" points="2196.11,-59.5425 2206.37,-56.9229 2196.71,-52.5689 2196.11,-59.5425"/>
</g>
<!-- Node29&#45;&gt;Node13 -->
<g id="edge34" class="edge"><title>Node29&#45;&gt;Node13</title>
<path fill="none" stroke="midnightblue" d="M2325.51,-56.0762C1811.58,-12.5691 1201.7,-10.4648 1028.76,-10.8022"/>
<polygon fill="midnightblue" stroke="midnightblue" points="2325.46,-59.5851 2335.73,-56.9478 2326.06,-52.6105 2325.46,-59.5851"/>
</g>
<!-- Node31 -->
<g id="node25" class="node"><title>Node31</title>
<g id="a_node25"><a xlink:href="../../d7/dcc/Bankable_2CCIncrementDecrementButtons_8hpp.html" target="_top" xlink:title=" ">
<polygon fill="white" stroke="black" points="2464,-56.5 2464,-75.5 2640,-75.5 2640,-56.5 2464,-56.5"/>
<text text-anchor="middle" x="2552" y="-63.5" font-family="Helvetica,sans-Serif" font-size="10.00">CCIncrementDecrementButtons.hpp</text>
</a>
</g>
</g>
<!-- Node30&#45;&gt;Node31 -->
<g id="edge36" class="edge"><title>Node30&#45;&gt;Node31</title>
<path fill="none" stroke="midnightblue" d="M2508.47,-105.537C2519.34,-95.9087 2532.94,-83.8694 2542.02,-75.8339"/>
<polygon fill="midnightblue" stroke="midnightblue" points="2505.97,-103.075 2500.8,-112.324 2510.61,-108.316 2505.97,-103.075"/>
</g>
<!-- Node31&#45;&gt;Node13 -->
<g id="edge37" class="edge"><title>Node31&#45;&gt;Node13</title>
<path fill="none" stroke="midnightblue" d="M2453.97,-55.9799C1886.76,-21.3911 1211.89,-13.0743 1028.77,-11.3822"/>
<polygon fill="midnightblue" stroke="midnightblue" points="2453.79,-59.4755 2463.99,-56.5942 2454.22,-52.4886 2453.79,-59.4755"/>
</g>
<!-- Node33 -->
<g id="node27" class="node"><title>Node33</title>
<g id="a_node27"><a xlink:href="../../dc/d8b/Bankable_2CCRotaryEncoder_8hpp.html" target="_top" xlink:title=" ">
<polygon fill="white" stroke="black" points="866,-56.5 866,-75.5 982,-75.5 982,-56.5 866,-56.5"/>
<text text-anchor="middle" x="924" y="-63.5" font-family="Helvetica,sans-Serif" font-size="10.00">CCRotaryEncoder.hpp</text>
</a>
</g>
</g>
<!-- Node32&#45;&gt;Node33 -->
<g id="edge39" class="edge"><title>Node32&#45;&gt;Node33</title>
<path fill="none" stroke="midnightblue" d="M957.272,-104.431C948.86,-94.9673 938.651,-83.4827 931.779,-75.7511"/>
<polygon fill="midnightblue" stroke="midnightblue" points="954.814,-106.934 964.074,-112.083 960.046,-102.284 954.814,-106.934"/>
</g>
<!-- Node33&#45;&gt;Node13 -->
<g id="edge40" class="edge"><title>Node33&#45;&gt;Node13</title>
<path fill="none" stroke="midnightblue" d="M940.621,-49.2533C950.734,-39.6731 963.277,-27.7906 971.675,-19.8339"/>
<polygon fill="midnightblue" stroke="midnightblue" points="938.01,-46.9056 933.158,-56.324 942.825,-51.9873 938.01,-46.9056"/>
</g>
<!-- Node34&#45;&gt;Node13 -->
<g id="edge42" class="edge"><title>Node34&#45;&gt;Node13</title>
<path fill="none" stroke="midnightblue" d="M823.174,-158.327C824.419,-132.15 830.488,-84.5559 857,-56 876.789,-34.6852 907.461,-23.4438 933.348,-17.5268"/>
<polygon fill="midnightblue" stroke="midnightblue" points="819.673,-158.314 822.887,-168.41 826.67,-158.513 819.673,-158.314"/>
</g>
<!-- Node35&#45;&gt;Node13 -->
<g id="edge47" class="edge"><title>Node35&#45;&gt;Node13</title>
<path fill="none" stroke="midnightblue" d="M118.003,-101.89C119.128,-86.8993 123.339,-66.8191 137,-56 168.381,-31.1461 759.694,-15.963 933.402,-12.0256"/>
<polygon fill="midnightblue" stroke="midnightblue" points="114.497,-102.005 117.64,-112.123 121.493,-102.254 114.497,-102.005"/>
</g>
<!-- Node36 -->
<g id="node30" class="node"><title>Node36</title>
<g id="a_node30"><a xlink:href="../../d0/dbf/VPotDisplay_8hpp.html" target="_top" xlink:title=" ">
<polygon fill="white" stroke="black" points="0,-56.5 0,-75.5 90,-75.5 90,-56.5 0,-56.5"/>
<text text-anchor="middle" x="45" y="-63.5" font-family="Helvetica,sans-Serif" font-size="10.00">VPotDisplay.hpp</text>
</a>
</g>
</g>
<!-- Node35&#45;&gt;Node36 -->
<g id="edge44" class="edge"><title>Node35&#45;&gt;Node36</title>
<path fill="none" stroke="midnightblue" d="M97.8584,-106.101C84.7207,-96.3824 68.0179,-84.0269 56.9421,-75.8339"/>
<polygon fill="midnightblue" stroke="midnightblue" points="96.1503,-109.191 106.271,-112.324 100.313,-103.563 96.1503,-109.191"/>
</g>
<!-- Node38 -->
<g id="node32" class="node"><title>Node38</title>
<g id="a_node32"><a xlink:href="../../dc/d48/VPotRingLEDs_8hpp.html" target="_top" xlink:title=" ">
<polygon fill="white" stroke="black" points="146,-56.5 146,-75.5 248,-75.5 248,-56.5 146,-56.5"/>
<text text-anchor="middle" x="197" y="-63.5" font-family="Helvetica,sans-Serif" font-size="10.00">VPotRingLEDs.hpp</text>
</a>
</g>
</g>
<!-- Node35&#45;&gt;Node38 -->
<g id="edge48" class="edge"><title>Node35&#45;&gt;Node38</title>
<path fill="none" stroke="midnightblue" d="M139.034,-106.622C153.466,-96.7574 172.141,-83.9919 184.339,-75.6545"/>
<polygon fill="midnightblue" stroke="midnightblue" points="136.973,-103.791 130.693,-112.324 140.923,-109.57 136.973,-103.791"/>
</g>
<!-- Node36&#45;&gt;Node13 -->
<g id="edge45" class="edge"><title>Node36&#45;&gt;Node13</title>
<path fill="none" stroke="midnightblue" d="M100.134,-56.4134C101.434,-56.2679 102.724,-56.1297 104,-56 419.485,-23.925 801.264,-14.2648 933.34,-11.7699"/>
<polygon fill="midnightblue" stroke="midnightblue" points="99.5367,-52.9604 90.0387,-57.655 100.391,-59.9081 99.5367,-52.9604"/>
</g>
<!-- Node37 -->
<g id="node31" class="node"><title>Node37</title>
<g id="a_node31"><a xlink:href="../../d7/db9/VPotDisplay_8cpp.html" target="_top" xlink:title=" ">
<polygon fill="white" stroke="black" points="0,-0.5 0,-19.5 90,-19.5 90,-0.5 0,-0.5"/>
<text text-anchor="middle" x="45" y="-7.5" font-family="Helvetica,sans-Serif" font-size="10.00">VPotDisplay.cpp</text>
</a>
</g>
</g>
<!-- Node36&#45;&gt;Node37 -->
<g id="edge46" class="edge"><title>Node36&#45;&gt;Node37</title>
<path fill="none" stroke="midnightblue" d="M45,-45.8045C45,-36.9102 45,-26.7798 45,-19.7511"/>
<polygon fill="midnightblue" stroke="midnightblue" points="41.5001,-46.083 45,-56.083 48.5001,-46.083 41.5001,-46.083"/>
</g>
<!-- Node38&#45;&gt;Node13 -->
<g id="edge49" class="edge"><title>Node38&#45;&gt;Node13</title>
<path fill="none" stroke="midnightblue" d="M258.138,-56.4016C259.436,-56.2621 260.725,-56.128 262,-56 514.313,-30.6725 817.96,-17.2371 933.365,-12.7435"/>
<polygon fill="midnightblue" stroke="midnightblue" points="257.586,-52.942 248.051,-57.5626 258.386,-59.8961 257.586,-52.942"/>
</g>
<!-- Node39&#45;&gt;Node13 -->
<g id="edge57" class="edge"><title>Node39&#45;&gt;Node13</title>
<path fill="none" stroke="midnightblue" d="M373.75,-158.126C367.434,-127.846 357.666,-70.3537 371,-56 408.989,-15.1058 796.033,-11.0303 933.157,-10.8797"/>
<polygon fill="midnightblue" stroke="midnightblue" points="370.406,-159.221 375.947,-168.252 377.247,-157.737 370.406,-159.221"/>
</g>
<!-- Node40 -->
<g id="node34" class="node"><title>Node40</title>
<g id="a_node34"><a xlink:href="../../dc/de8/AudioVU_8hpp.html" target="_top" xlink:title=" ">
<polygon fill="white" stroke="black" points="406,-112.5 406,-131.5 480,-131.5 480,-112.5 406,-112.5"/>
<text text-anchor="middle" x="443" y="-119.5" font-family="Helvetica,sans-Serif" font-size="10.00">AudioVU.hpp</text>
</a>
</g>
</g>
<!-- Node39&#45;&gt;Node40 -->
<g id="edge51" class="edge"><title>Node39&#45;&gt;Node40</title>
<path fill="none" stroke="midnightblue" d="M396.273,-161.82C407.918,-152.145 422.599,-139.948 432.367,-131.834"/>
<polygon fill="midnightblue" stroke="midnightblue" points="393.899,-159.242 388.443,-168.324 398.372,-164.626 393.899,-159.242"/>
</g>
<!-- Node42 -->
<g id="node36" class="node"><title>Node42</title>
<g id="a_node36"><a xlink:href="../../d0/db9/VUDisplay_8hpp.html" target="_top" xlink:title=" ">
<polygon fill="white" stroke="black" points="174.5,-112.5 174.5,-131.5 257.5,-131.5 257.5,-112.5 174.5,-112.5"/>
<text text-anchor="middle" x="216" y="-119.5" font-family="Helvetica,sans-Serif" font-size="10.00">VUDisplay.hpp</text>
</a>
</g>
</g>
<!-- Node39&#45;&gt;Node42 -->
<g id="edge55" class="edge"><title>Node39&#45;&gt;Node42</title>
<path fill="none" stroke="midnightblue" d="M342.889,-165.296C312.41,-155.137 268.994,-140.665 241.669,-131.556"/>
<polygon fill="midnightblue" stroke="midnightblue" points="342.094,-168.721 352.688,-168.562 344.307,-162.08 342.094,-168.721"/>
</g>
<!-- Node43 -->
<g id="node37" class="node"><title>Node43</title>
<g id="a_node37"><a xlink:href="../../d3/d52/MIDI__Inputs_2LEDs_2MCU_2VULEDs_8hpp.html" target="_top" xlink:title=" ">
<polygon fill="white" stroke="black" points="276,-112.5 276,-131.5 350,-131.5 350,-112.5 276,-112.5"/>
<text text-anchor="middle" x="313" y="-119.5" font-family="Helvetica,sans-Serif" font-size="10.00">VULEDs.hpp</text>
</a>
</g>
</g>
<!-- Node39&#45;&gt;Node43 -->
<g id="edge58" class="edge"><title>Node39&#45;&gt;Node43</title>
<path fill="none" stroke="midnightblue" d="M359.727,-161.82C348.082,-152.145 333.401,-139.948 323.633,-131.834"/>
<polygon fill="midnightblue" stroke="midnightblue" points="357.628,-164.626 367.557,-168.324 362.101,-159.242 357.628,-164.626"/>
</g>
<!-- Node40&#45;&gt;Node13 -->
<g id="edge54" class="edge"><title>Node40&#45;&gt;Node13</title>
<path fill="none" stroke="midnightblue" d="M457.986,-105.062C473.597,-89.5976 499.571,-66.9136 527,-56 599.95,-26.9742 832.185,-15.9171 933.25,-12.4056"/>
<polygon fill="midnightblue" stroke="midnightblue" points="455.307,-102.796 450.814,-112.391 460.31,-107.692 455.307,-102.796"/>
</g>
<!-- Node41 -->
<g id="node35" class="node"><title>Node41</title>
<g id="a_node35"><a xlink:href="../../d4/dde/AudioVULEDs_8hpp.html" target="_top" xlink:title=" ">
<polygon fill="white" stroke="black" points="380.5,-56.5 380.5,-75.5 479.5,-75.5 479.5,-56.5 380.5,-56.5"/>
<text text-anchor="middle" x="430" y="-63.5" font-family="Helvetica,sans-Serif" font-size="10.00">AudioVULEDs.hpp</text>
</a>
</g>
</g>
<!-- Node40&#45;&gt;Node41 -->
<g id="edge52" class="edge"><title>Node40&#45;&gt;Node41</title>
<path fill="none" stroke="midnightblue" d="M438.45,-102.101C436.292,-93.1357 433.818,-82.8579 432.107,-75.7511"/>
<polygon fill="midnightblue" stroke="midnightblue" points="435.11,-103.18 440.853,-112.083 441.915,-101.542 435.11,-103.18"/>
</g>
<!-- Node41&#45;&gt;Node13 -->
<g id="edge53" class="edge"><title>Node41&#45;&gt;Node13</title>
<path fill="none" stroke="midnightblue" d="M489.563,-56.5285C491.056,-56.3469 492.537,-56.1703 494,-56 654.666,-37.291 845.89,-21.5077 933.225,-14.6559"/>
<polygon fill="midnightblue" stroke="midnightblue" points="489.066,-53.0633 479.584,-57.79 489.944,-60.008 489.066,-53.0633"/>
</g>
<!-- Node42&#45;&gt;Node13 -->
<g id="edge56" class="edge"><title>Node42&#45;&gt;Node13</title>
<path fill="none" stroke="midnightblue" d="M233.855,-105.952C253.537,-90.3433 286.828,-66.7461 320,-56 434.211,-19.0007 801.676,-12.4204 933.431,-11.2518"/>
<polygon fill="midnightblue" stroke="midnightblue" points="231.609,-103.267 226.055,-112.289 236.023,-108.7 231.609,-103.267"/>
</g>
<!-- Node43&#45;&gt;Node13 -->
<g id="edge59" class="edge"><title>Node43&#45;&gt;Node13</title>
<path fill="none" stroke="midnightblue" d="M314.901,-101.803C317.487,-86.7613 323.591,-66.6553 338,-56 385.518,-20.8603 792.462,-13.0722 933.281,-11.4232"/>
<polygon fill="midnightblue" stroke="midnightblue" points="311.383,-101.702 313.53,-112.077 318.322,-102.628 311.383,-101.702"/>
</g>
<!-- Node44&#45;&gt;Node13 -->
<g id="edge63" class="edge"><title>Node44&#45;&gt;Node13</title>
<path fill="none" stroke="midnightblue" d="M667.088,-102.424C666.681,-87.7444 668.772,-67.8228 681,-56 716.117,-22.0458 857.859,-13.671 933.265,-11.6334"/>
<polygon fill="midnightblue" stroke="midnightblue" points="663.596,-102.663 667.759,-112.406 670.58,-102.194 663.596,-102.663"/>
</g>
<!-- Node45 -->
<g id="node39" class="node"><title>Node45</title>
<g id="a_node39"><a xlink:href="../../d2/d24/NoteBitmapDisplay_8hpp.html" target="_top" xlink:title=" ">
<polygon fill="white" stroke="black" points="690,-56.5 690,-75.5 810,-75.5 810,-56.5 690,-56.5"/>
<text text-anchor="middle" x="750" y="-63.5" font-family="Helvetica,sans-Serif" font-size="10.00">NoteBitmapDisplay.hpp</text>
</a>
</g>
</g>
<!-- Node44&#45;&gt;Node45 -->
<g id="edge61" class="edge"><title>Node44&#45;&gt;Node45</title>
<path fill="none" stroke="midnightblue" d="M690.567,-106.622C705.364,-96.7574 724.512,-83.9919 737.018,-75.6545"/>
<polygon fill="midnightblue" stroke="midnightblue" points="688.393,-103.865 682.014,-112.324 692.276,-109.689 688.393,-103.865"/>
</g>
<!-- Node46 -->
<g id="node40" class="node"><title>Node46</title>
<g id="a_node40"><a xlink:href="../../db/dff/MIDINoteLED_8hpp.html" target="_top" xlink:title=" ">
<polygon fill="white" stroke="black" points="536,-56.5 536,-75.5 634,-75.5 634,-56.5 536,-56.5"/>
<text text-anchor="middle" x="585" y="-63.5" font-family="Helvetica,sans-Serif" font-size="10.00">MIDINoteLED.hpp</text>
</a>
</g>
</g>
<!-- Node44&#45;&gt;Node46 -->
<g id="edge64" class="edge"><title>Node44&#45;&gt;Node46</title>
<path fill="none" stroke="midnightblue" d="M647.068,-106.901C631.665,-96.9986 611.554,-84.0705 598.463,-75.6545"/>
<polygon fill="midnightblue" stroke="midnightblue" points="645.199,-109.86 655.504,-112.324 648.985,-103.972 645.199,-109.86"/>
</g>
<!-- Node45&#45;&gt;Node13 -->
<g id="edge62" class="edge"><title>Node45&#45;&gt;Node13</title>
<path fill="none" stroke="midnightblue" d="M796.402,-54.1529C840.047,-43.95 904.51,-28.8809 944.569,-19.5164"/>
<polygon fill="midnightblue" stroke="midnightblue" points="795.543,-50.7591 786.603,-56.4435 797.137,-57.5753 795.543,-50.7591"/>
</g>
<!-- Node46&#45;&gt;Node13 -->
<g id="edge65" class="edge"><title>Node46&#45;&gt;Node13</title>
<path fill="none" stroke="midnightblue" d="M644.176,-56.533C645.462,-56.3533 646.738,-56.1754 648,-56 749.553,-41.8848 868.617,-25.9413 933.285,-17.3325"/>
<polygon fill="midnightblue" stroke="midnightblue" points="643.591,-53.0806 634.176,-57.9382 644.565,-60.0125 643.591,-53.0806"/>
</g>
</g>
</svg>
