<?xml version="1.0" encoding="UTF-8" standalone="no"?>
<!DOCTYPE svg PUBLIC "-//W3C//DTD SVG 1.1//EN"
 "http://www.w3.org/Graphics/SVG/1.1/DTD/svg11.dtd">
<!-- Generated by graphviz version 2.38.0 (20140413.2041)
 -->
<!-- Title: ShiftRegisterOutBase&lt; N &gt; Pages: 1 -->
<svg width="458pt" height="600pt"
 viewBox="0.00 0.00 457.50 600.00" xmlns="http://www.w3.org/2000/svg" xmlns:xlink="http://www.w3.org/1999/xlink">
<g id="graph0" class="graph" transform="scale(1 1) rotate(0) translate(4 596)">
<title>ShiftRegisterOutBase&lt; N &gt;</title>
<polygon fill="white" stroke="none" points="-4,4 -4,-596 453.5,-596 453.5,4 -4,4"/>
<!-- Node5 -->
<g id="node1" class="node"><title>Node5</title>
<g id="a_node1"><a xlink:title="A class for serial&#45;in/parallel&#45;out shift registers, like the 74HC595.">
<polygon fill="#bfbfbf" stroke="black" points="0,-55.5 0,-233.5 137,-233.5 137,-55.5 0,-55.5"/>
<text text-anchor="middle" x="68.5" y="-221.5" font-family="Helvetica,sans-Serif" font-size="10.00">ShiftRegisterOutBase&lt; N &gt;</text>
<polyline fill="none" stroke="black" points="0,-214.5 137,-214.5 "/>
<text text-anchor="start" x="8" y="-202.5" font-family="Helvetica,sans-Serif" font-size="10.00"># latchPin</text>
<text text-anchor="start" x="8" y="-191.5" font-family="Helvetica,sans-Serif" font-size="10.00"># bitOrder</text>
<text text-anchor="start" x="8" y="-180.5" font-family="Helvetica,sans-Serif" font-size="10.00"># buffer</text>
<text text-anchor="start" x="8" y="-169.5" font-family="Helvetica,sans-Serif" font-size="10.00"># dirty</text>
<polyline fill="none" stroke="black" points="0,-162.5 137,-162.5 "/>
<text text-anchor="start" x="8" y="-150.5" font-family="Helvetica,sans-Serif" font-size="10.00">+ pinMode()</text>
<text text-anchor="start" x="8" y="-139.5" font-family="Helvetica,sans-Serif" font-size="10.00">+ digitalWrite()</text>
<text text-anchor="start" x="8" y="-128.5" font-family="Helvetica,sans-Serif" font-size="10.00">+ digitalRead()</text>
<text text-anchor="start" x="8" y="-117.5" font-family="Helvetica,sans-Serif" font-size="10.00">+ analogRead()</text>
<text text-anchor="start" x="8" y="-106.5" font-family="Helvetica,sans-Serif" font-size="10.00">+ analogWrite()</text>
<text text-anchor="start" x="8" y="-95.5" font-family="Helvetica,sans-Serif" font-size="10.00">+ red()</text>
<text text-anchor="start" x="8" y="-84.5" font-family="Helvetica,sans-Serif" font-size="10.00">+ green()</text>
<text text-anchor="start" x="8" y="-73.5" font-family="Helvetica,sans-Serif" font-size="10.00">+ blue()</text>
<text text-anchor="start" x="8" y="-62.5" font-family="Helvetica,sans-Serif" font-size="10.00"># ShiftRegisterOutBase()</text>
</a>
</g>
</g>
<!-- Node6 -->
<g id="node2" class="node"><title>Node6</title>
<g id="a_node2"><a xlink:href="../../de/d4e/classExtendedIOElement.html" target="_top" xlink:title="An abstract base class for Extended Input/Output elements.">
<polygon fill="white" stroke="black" points="218,-347.5 218,-591.5 343,-591.5 343,-347.5 218,-347.5"/>
<text text-anchor="middle" x="280.5" y="-579.5" font-family="Helvetica,sans-Serif" font-size="10.00">ExtendedIOElement</text>
<polyline fill="none" stroke="black" points="218,-572.5 343,-572.5 "/>
<text text-anchor="start" x="226" y="-560.5" font-family="Helvetica,sans-Serif" font-size="10.00">&#45; length</text>
<text text-anchor="start" x="226" y="-549.5" font-family="Helvetica,sans-Serif" font-size="10.00">&#45; start</text>
<text text-anchor="start" x="226" y="-538.5" font-family="Helvetica,sans-Serif" font-size="10.00">&#45; end</text>
<text text-anchor="start" x="226" y="-527.5" font-family="Helvetica,sans-Serif" font-size="10.00">&#45; offset</text>
<polyline fill="none" stroke="black" points="218,-520.5 343,-520.5 "/>
<text text-anchor="start" x="226" y="-508.5" font-family="Helvetica,sans-Serif" font-size="10.00">+ ~ExtendedIOElement()</text>
<text text-anchor="start" x="226" y="-497.5" font-family="Helvetica,sans-Serif" font-size="10.00">+ pinMode()</text>
<text text-anchor="start" x="226" y="-486.5" font-family="Helvetica,sans-Serif" font-size="10.00">+ digitalWrite()</text>
<text text-anchor="start" x="226" y="-475.5" font-family="Helvetica,sans-Serif" font-size="10.00">+ digitalRead()</text>
<text text-anchor="start" x="226" y="-464.5" font-family="Helvetica,sans-Serif" font-size="10.00">+ analogWrite()</text>
<text text-anchor="start" x="226" y="-453.5" font-family="Helvetica,sans-Serif" font-size="10.00">+ analogRead()</text>
<text text-anchor="start" x="226" y="-442.5" font-family="Helvetica,sans-Serif" font-size="10.00">+ begin()</text>
<text text-anchor="start" x="226" y="-431.5" font-family="Helvetica,sans-Serif" font-size="10.00">+ update()</text>
<text text-anchor="start" x="226" y="-420.5" font-family="Helvetica,sans-Serif" font-size="10.00">+ pin()</text>
<text text-anchor="start" x="226" y="-409.5" font-family="Helvetica,sans-Serif" font-size="10.00">+ operator[]()</text>
<text text-anchor="start" x="226" y="-398.5" font-family="Helvetica,sans-Serif" font-size="10.00">+ getEnd()</text>
<text text-anchor="start" x="226" y="-387.5" font-family="Helvetica,sans-Serif" font-size="10.00">+ getStart()</text>
<text text-anchor="start" x="226" y="-376.5" font-family="Helvetica,sans-Serif" font-size="10.00">+ beginAll()</text>
<text text-anchor="start" x="226" y="-365.5" font-family="Helvetica,sans-Serif" font-size="10.00">+ getAll()</text>
<text text-anchor="start" x="226" y="-354.5" font-family="Helvetica,sans-Serif" font-size="10.00"># ExtendedIOElement()</text>
</a>
</g>
</g>
<!-- Node6&#45;&gt;Node5 -->
<g id="edge1" class="edge"><title>Node6&#45;&gt;Node5</title>
<path fill="none" stroke="midnightblue" d="M211.847,-381.785C190.044,-352.895 166.436,-320.133 146.5,-289 135.261,-271.449 124.046,-252.147 113.767,-233.546"/>
<polygon fill="none" stroke="midnightblue" points="209.113,-383.972 217.944,-389.826 214.691,-379.743 209.113,-383.972"/>
</g>
<!-- Node7 -->
<g id="node3" class="node"><title>Node7</title>
<g id="a_node3"><a xlink:href="../../d4/d23/classDoublyLinkable.html" target="_top" xlink:title=" ">
<polygon fill="white" stroke="black" points="155.5,-110.5 155.5,-178.5 289.5,-178.5 289.5,-110.5 155.5,-110.5"/>
<text text-anchor="start" x="163.5" y="-166.5" font-family="Helvetica,sans-Serif" font-size="10.00">DoublyLinkable&lt; Extended</text>
<text text-anchor="middle" x="222.5" y="-155.5" font-family="Helvetica,sans-Serif" font-size="10.00">IOElement &gt;</text>
<polyline fill="none" stroke="black" points="155.5,-148.5 289.5,-148.5 "/>
<text text-anchor="middle" x="222.5" y="-136.5" font-family="Helvetica,sans-Serif" font-size="10.00"> </text>
<polyline fill="none" stroke="black" points="155.5,-129.5 289.5,-129.5 "/>
<text text-anchor="start" x="163.5" y="-117.5" font-family="Helvetica,sans-Serif" font-size="10.00"># ~DoublyLinkable()</text>
</a>
</g>
</g>
<!-- Node6&#45;&gt;Node7 -->
<g id="edge3" class="edge"><title>Node6&#45;&gt;Node7</title>
<path fill="none" stroke="#404040" d="M224.093,-347.356C222.323,-341.22 220.771,-335.08 219.5,-329 209.804,-282.627 212.384,-228.218 216.25,-190.752"/>
<polygon fill="none" stroke="#404040" points="216.26,-190.658 212.952,-184.25 217.594,-178.732 220.902,-185.14 216.26,-190.658"/>
<text text-anchor="middle" x="241" y="-321" font-family="Helvetica,sans-Serif" font-size="10.00"> #next</text>
<text text-anchor="middle" x="241" y="-310" font-family="Helvetica,sans-Serif" font-size="10.00">#previous</text>
</g>
<!-- Node8 -->
<g id="node4" class="node"><title>Node8</title>
<g id="a_node4"><a xlink:href="../../dd/d16/classDoublyLinkedList.html" target="_top" xlink:title=" ">
<polygon fill="white" stroke="black" points="307.5,-0.5 307.5,-288.5 449.5,-288.5 449.5,-0.5 307.5,-0.5"/>
<text text-anchor="start" x="315.5" y="-276.5" font-family="Helvetica,sans-Serif" font-size="10.00">DoublyLinkedList&lt; Extended</text>
<text text-anchor="middle" x="378.5" y="-265.5" font-family="Helvetica,sans-Serif" font-size="10.00">IOElement &gt;</text>
<polyline fill="none" stroke="black" points="307.5,-258.5 449.5,-258.5 "/>
<text text-anchor="middle" x="378.5" y="-246.5" font-family="Helvetica,sans-Serif" font-size="10.00"> </text>
<polyline fill="none" stroke="black" points="307.5,-239.5 449.5,-239.5 "/>
<text text-anchor="start" x="315.5" y="-227.5" font-family="Helvetica,sans-Serif" font-size="10.00">+ DoublyLinkedList()</text>
<text text-anchor="start" x="315.5" y="-216.5" font-family="Helvetica,sans-Serif" font-size="10.00">+ append()</text>
<text text-anchor="start" x="315.5" y="-205.5" font-family="Helvetica,sans-Serif" font-size="10.00">+ append()</text>
<text text-anchor="start" x="315.5" y="-194.5" font-family="Helvetica,sans-Serif" font-size="10.00">+ insertBefore()</text>
<text text-anchor="start" x="315.5" y="-183.5" font-family="Helvetica,sans-Serif" font-size="10.00">+ insertBefore()</text>
<text text-anchor="start" x="315.5" y="-172.5" font-family="Helvetica,sans-Serif" font-size="10.00">+ insertSorted()</text>
<text text-anchor="start" x="315.5" y="-161.5" font-family="Helvetica,sans-Serif" font-size="10.00">+ insertSorted()</text>
<text text-anchor="start" x="315.5" y="-150.5" font-family="Helvetica,sans-Serif" font-size="10.00">+ remove()</text>
<text text-anchor="start" x="315.5" y="-139.5" font-family="Helvetica,sans-Serif" font-size="10.00">+ remove()</text>
<text text-anchor="start" x="315.5" y="-128.5" font-family="Helvetica,sans-Serif" font-size="10.00">+ moveDown()</text>
<text text-anchor="start" x="315.5" y="-117.5" font-family="Helvetica,sans-Serif" font-size="10.00">+ couldContain()</text>
<text text-anchor="start" x="315.5" y="-106.5" font-family="Helvetica,sans-Serif" font-size="10.00">+ begin()</text>
<text text-anchor="start" x="315.5" y="-95.5" font-family="Helvetica,sans-Serif" font-size="10.00">+ begin()</text>
<text text-anchor="start" x="315.5" y="-84.5" font-family="Helvetica,sans-Serif" font-size="10.00">+ end()</text>
<text text-anchor="start" x="315.5" y="-73.5" font-family="Helvetica,sans-Serif" font-size="10.00">+ end()</text>
<text text-anchor="start" x="315.5" y="-62.5" font-family="Helvetica,sans-Serif" font-size="10.00">+ rbegin()</text>
<text text-anchor="start" x="315.5" y="-51.5" font-family="Helvetica,sans-Serif" font-size="10.00">+ rbegin()</text>
<text text-anchor="start" x="315.5" y="-40.5" font-family="Helvetica,sans-Serif" font-size="10.00">+ rend()</text>
<text text-anchor="start" x="315.5" y="-29.5" font-family="Helvetica,sans-Serif" font-size="10.00">+ rend()</text>
<text text-anchor="start" x="315.5" y="-18.5" font-family="Helvetica,sans-Serif" font-size="10.00">+ getFirst()</text>
<text text-anchor="start" x="315.5" y="-7.5" font-family="Helvetica,sans-Serif" font-size="10.00">+ getLast()</text>
</a>
</g>
</g>
<!-- Node6&#45;&gt;Node8 -->
<g id="edge5" class="edge"><title>Node6&#45;&gt;Node8</title>
<path fill="none" stroke="#404040" d="M307.299,-347.245C310.826,-333.604 314.585,-319.959 318.5,-307 319.181,-304.745 319.877,-302.476 320.587,-300.196"/>
<polygon fill="none" stroke="#404040" points="320.6,-300.153 318.607,-293.223 324.237,-288.718 326.231,-295.648 320.6,-300.153"/>
<text text-anchor="middle" x="329.5" y="-321" font-family="Helvetica,sans-Serif" font-size="10.00"> &#45;last</text>
<text text-anchor="middle" x="329.5" y="-310" font-family="Helvetica,sans-Serif" font-size="10.00">&#45;first</text>
</g>
<!-- Node7&#45;&gt;Node6 -->
<g id="edge2" class="edge"><title>Node7&#45;&gt;Node6</title>
<path fill="none" stroke="midnightblue" d="M236.353,-188.08C246.305,-220.37 259.205,-266.034 266.5,-307 268.819,-320.023 270.758,-333.707 272.379,-347.371"/>
<polygon fill="none" stroke="midnightblue" points="239.686,-187.013 233.368,-178.508 233.004,-189.096 239.686,-187.013"/>
</g>
<!-- Node8&#45;&gt;Node6 -->
<g id="edge4" class="edge"><title>Node8&#45;&gt;Node6</title>
<path fill="none" stroke="#404040" d="M355.557,-288.607C352.283,-302.371 348.608,-316.027 344.5,-329 343.776,-331.286 343.024,-333.584 342.246,-335.89"/>
<polygon fill="none" stroke="#404040" points="342.154,-336.153 343.93,-343.142 338.161,-347.47 336.385,-340.481 342.154,-336.153"/>
<text text-anchor="middle" x="373.5" y="-315.5" font-family="Helvetica,sans-Serif" font-size="10.00"> &#45;elements</text>
</g>
</g>
</svg>
