<?xml version="1.0" encoding="UTF-8" standalone="no"?>
<!DOCTYPE svg PUBLIC "-//W3C//DTD SVG 1.1//EN"
 "http://www.w3.org/Graphics/SVG/1.1/DTD/svg11.dtd">
<!-- Generated by graphviz version 2.38.0 (20140413.2041)
 -->
<!-- Title: MIDI_Interface.h Pages: 1 -->
<svg width="2961pt" height="308pt"
 viewBox="0.00 0.00 2960.50 308.00" xmlns="http://www.w3.org/2000/svg" xmlns:xlink="http://www.w3.org/1999/xlink">
<g id="graph0" class="graph" transform="scale(1 1) rotate(0) translate(4 304)">
<title>MIDI_Interface.h</title>
<polygon fill="white" stroke="none" points="-4,4 -4,-304 2956.5,-304 2956.5,4 -4,4"/>
<!-- Node10 -->
<g id="node1" class="node"><title>Node10</title>
<g id="a_node1"><a xlink:title=" ">
<polygon fill="#bfbfbf" stroke="black" points="2691,-280.5 2691,-299.5 2781,-299.5 2781,-280.5 2691,-280.5"/>
<text text-anchor="middle" x="2736" y="-287.5" font-family="Helvetica,sans-Serif" font-size="10.00">MIDI_Interface.h</text>
</a>
</g>
</g>
<!-- Node11 -->
<g id="node2" class="node"><title>Node11</title>
<g id="a_node2"><a xlink:href="../../d5/de0/Control__Surface__Class_8h.html" target="_top" xlink:title=" ">
<polygon fill="white" stroke="black" points="1856,-224.5 1856,-243.5 1982,-243.5 1982,-224.5 1856,-224.5"/>
<text text-anchor="middle" x="1919" y="-231.5" font-family="Helvetica,sans-Serif" font-size="10.00">Control_Surface_Class.h</text>
</a>
</g>
</g>
<!-- Node10&#45;&gt;Node11 -->
<g id="edge1" class="edge"><title>Node10&#45;&gt;Node11</title>
<path fill="none" stroke="midnightblue" d="M2680.81,-285.352C2534.46,-275.679 2137.05,-249.412 1982.08,-239.169"/>
<polygon fill="midnightblue" stroke="midnightblue" points="2680.7,-288.853 2690.91,-286.02 2681.16,-281.868 2680.7,-288.853"/>
</g>
<!-- Node50 -->
<g id="node41" class="node"><title>Node50</title>
<g id="a_node41"><a xlink:href="../../db/df4/SerialMIDI__Interface_8h.html" target="_top" xlink:title=" ">
<polygon fill="white" stroke="black" points="2636.5,-112.5 2636.5,-131.5 2751.5,-131.5 2751.5,-112.5 2636.5,-112.5"/>
<text text-anchor="middle" x="2694" y="-119.5" font-family="Helvetica,sans-Serif" font-size="10.00">SerialMIDI_Interface.h</text>
</a>
</g>
</g>
<!-- Node10&#45;&gt;Node50 -->
<g id="edge70" class="edge"><title>Node10&#45;&gt;Node50</title>
<path fill="none" stroke="midnightblue" d="M2725.44,-271.55C2720.97,-263.433 2716.08,-253.492 2713,-244 2699.79,-203.35 2695.61,-151.94 2694.43,-131.727"/>
<polygon fill="midnightblue" stroke="midnightblue" points="2722.52,-273.486 2730.55,-280.394 2728.58,-269.984 2722.52,-273.486"/>
</g>
<!-- Node53 -->
<g id="node44" class="node"><title>Node53</title>
<g id="a_node44"><a xlink:href="../../de/d0f/MIDI__Interface_8cpp.html" target="_top" xlink:title=" ">
<polygon fill="white" stroke="black" points="2851.5,-224.5 2851.5,-243.5 2952.5,-243.5 2952.5,-224.5 2851.5,-224.5"/>
<text text-anchor="middle" x="2902" y="-231.5" font-family="Helvetica,sans-Serif" font-size="10.00">MIDI_Interface.cpp</text>
</a>
</g>
</g>
<!-- Node10&#45;&gt;Node53 -->
<g id="edge75" class="edge"><title>Node10&#45;&gt;Node53</title>
<path fill="none" stroke="midnightblue" d="M2771.95,-277.304C2803.23,-267.129 2847.82,-252.625 2875.82,-243.516"/>
<polygon fill="midnightblue" stroke="midnightblue" points="2770.73,-274.022 2762.3,-280.444 2772.9,-280.678 2770.73,-274.022"/>
</g>
<!-- Node54 -->
<g id="node45" class="node"><title>Node54</title>
<g id="a_node45"><a xlink:href="../../d8/ddc/USBMIDI__Interface_8h.html" target="_top" xlink:title=" ">
<polygon fill="white" stroke="black" points="2722.5,-224.5 2722.5,-243.5 2833.5,-243.5 2833.5,-224.5 2722.5,-224.5"/>
<text text-anchor="middle" x="2778" y="-231.5" font-family="Helvetica,sans-Serif" font-size="10.00">USBMIDI_Interface.h</text>
</a>
</g>
</g>
<!-- Node10&#45;&gt;Node54 -->
<g id="edge76" class="edge"><title>Node10&#45;&gt;Node54</title>
<path fill="none" stroke="midnightblue" d="M2749.11,-272.144C2756.43,-262.736 2765.24,-251.405 2771.19,-243.751"/>
<polygon fill="midnightblue" stroke="midnightblue" points="2746.31,-270.041 2742.94,-280.083 2751.84,-274.338 2746.31,-270.041"/>
</g>
<!-- Node12 -->
<g id="node3" class="node"><title>Node12</title>
<g id="a_node3"><a xlink:href="../../d9/d38/Control__Surface__Class_8cpp.html" target="_top" xlink:title=" ">
<polygon fill="white" stroke="black" points="2177.5,-168.5 2177.5,-187.5 2314.5,-187.5 2314.5,-168.5 2177.5,-168.5"/>
<text text-anchor="middle" x="2246" y="-175.5" font-family="Helvetica,sans-Serif" font-size="10.00">Control_Surface_Class.cpp</text>
</a>
</g>
</g>
<!-- Node11&#45;&gt;Node12 -->
<g id="edge2" class="edge"><title>Node11&#45;&gt;Node12</title>
<path fill="none" stroke="midnightblue" d="M1980.82,-222.791C2042.61,-212.587 2136.53,-197.078 2194.43,-187.516"/>
<polygon fill="midnightblue" stroke="midnightblue" points="1980.11,-219.361 1970.81,-224.444 1981.25,-226.267 1980.11,-219.361"/>
</g>
<!-- Node13 -->
<g id="node4" class="node"><title>Node13</title>
<g id="a_node4"><a xlink:href="../../db/dbf/Control__Surface_8h.html" target="_top" xlink:title="The main header file that includes all Control&#45;Surface header files.">
<polygon fill="white" stroke="black" points="1465.5,-0.5 1465.5,-19.5 1560.5,-19.5 1560.5,-0.5 1465.5,-0.5"/>
<text text-anchor="middle" x="1513" y="-7.5" font-family="Helvetica,sans-Serif" font-size="10.00">Control_Surface.h</text>
</a>
</g>
</g>
<!-- Node11&#45;&gt;Node13 -->
<g id="edge3" class="edge"><title>Node11&#45;&gt;Node13</title>
<path fill="none" stroke="midnightblue" d="M1992.3,-232.29C2171.04,-228.276 2604.69,-203.502 2464,-56 2432.54,-23.0146 1748.97,-13.4612 1560.66,-11.4508"/>
<polygon fill="midnightblue" stroke="midnightblue" points="1992.11,-228.793 1982.18,-232.501 1992.26,-235.791 1992.11,-228.793"/>
</g>
<!-- Node14 -->
<g id="node5" class="node"><title>Node14</title>
<g id="a_node5"><a xlink:href="../../d7/dee/FilteredAnalog_8h.html" target="_top" xlink:title=" ">
<polygon fill="white" stroke="black" points="727.5,-168.5 727.5,-187.5 814.5,-187.5 814.5,-168.5 727.5,-168.5"/>
<text text-anchor="middle" x="771" y="-175.5" font-family="Helvetica,sans-Serif" font-size="10.00">FilteredAnalog.h</text>
</a>
</g>
</g>
<!-- Node11&#45;&gt;Node14 -->
<g id="edge4" class="edge"><title>Node11&#45;&gt;Node14</title>
<path fill="none" stroke="midnightblue" d="M1845.58,-229.546C1627.46,-219.286 987.75,-189.196 814.628,-181.052"/>
<polygon fill="midnightblue" stroke="midnightblue" points="1845.49,-233.046 1855.64,-230.02 1845.82,-226.054 1845.49,-233.046"/>
</g>
<!-- Node22 -->
<g id="node13" class="node"><title>Node22</title>
<g id="a_node13"><a xlink:href="../../db/dd1/ContinuousCCSender_8hpp.html" target="_top" xlink:title=" ">
<polygon fill="white" stroke="black" points="678.5,-112.5 678.5,-131.5 809.5,-131.5 809.5,-112.5 678.5,-112.5"/>
<text text-anchor="middle" x="744" y="-119.5" font-family="Helvetica,sans-Serif" font-size="10.00">ContinuousCCSender.hpp</text>
</a>
</g>
</g>
<!-- Node11&#45;&gt;Node22 -->
<g id="edge16" class="edge"><title>Node11&#45;&gt;Node22</title>
<path fill="none" stroke="midnightblue" d="M1845.7,-227.158C1742.76,-218.879 1549.53,-203.057 1385,-188 1132.83,-164.923 1069.7,-159.732 818,-132 815.299,-131.702 812.542,-131.393 809.759,-131.076"/>
<polygon fill="midnightblue" stroke="midnightblue" points="1845.43,-230.648 1855.68,-227.96 1845.99,-223.67 1845.43,-230.648"/>
</g>
<!-- Node23 -->
<g id="node14" class="node"><title>Node23</title>
<g id="a_node14"><a xlink:href="../../d4/dd7/DigitalCCSender_8hpp.html" target="_top" xlink:title=" ">
<polygon fill="white" stroke="black" points="295.5,-112.5 295.5,-131.5 404.5,-131.5 404.5,-112.5 295.5,-112.5"/>
<text text-anchor="middle" x="350" y="-119.5" font-family="Helvetica,sans-Serif" font-size="10.00">DigitalCCSender.hpp</text>
</a>
</g>
</g>
<!-- Node11&#45;&gt;Node23 -->
<g id="edge19" class="edge"><title>Node11&#45;&gt;Node23</title>
<path fill="none" stroke="midnightblue" d="M1845.92,-233.747C1658.12,-234.913 1143.54,-233.337 718,-188 596.555,-175.061 454.726,-146.003 388.163,-131.529"/>
<polygon fill="midnightblue" stroke="midnightblue" points="1845.97,-237.247 1855.95,-233.68 1845.92,-230.247 1845.97,-237.247"/>
</g>
<!-- Node31 -->
<g id="node22" class="node"><title>Node31</title>
<g id="a_node22"><a xlink:href="../../d1/daa/DigitalNoteSender_8hpp.html" target="_top" xlink:title=" ">
<polygon fill="white" stroke="black" points="1599.5,-168.5 1599.5,-187.5 1714.5,-187.5 1714.5,-168.5 1599.5,-168.5"/>
<text text-anchor="middle" x="1657" y="-175.5" font-family="Helvetica,sans-Serif" font-size="10.00">DigitalNoteSender.hpp</text>
</a>
</g>
</g>
<!-- Node11&#45;&gt;Node31 -->
<g id="edge34" class="edge"><title>Node11&#45;&gt;Node31</title>
<path fill="none" stroke="midnightblue" d="M1867.62,-222.41C1818.1,-212.204 1744.14,-196.96 1698.32,-187.516"/>
<polygon fill="midnightblue" stroke="midnightblue" points="1866.98,-225.853 1877.49,-224.444 1868.4,-218.997 1866.98,-225.853"/>
</g>
<!-- Node43 -->
<g id="node34" class="node"><title>Node43</title>
<g id="a_node34"><a xlink:href="../../de/daf/PitchBendSender_8hpp.html" target="_top" xlink:title=" ">
<polygon fill="white" stroke="black" points="964.5,-112.5 964.5,-131.5 1075.5,-131.5 1075.5,-112.5 964.5,-112.5"/>
<text text-anchor="middle" x="1020" y="-119.5" font-family="Helvetica,sans-Serif" font-size="10.00">PitchBendSender.hpp</text>
</a>
</g>
</g>
<!-- Node11&#45;&gt;Node43 -->
<g id="edge56" class="edge"><title>Node11&#45;&gt;Node43</title>
<path fill="none" stroke="midnightblue" d="M1845.64,-224.023C1670.5,-202.594 1231.03,-148.822 1075.56,-129.799"/>
<polygon fill="midnightblue" stroke="midnightblue" points="1845.43,-227.524 1855.78,-225.265 1846.28,-220.576 1845.43,-227.524"/>
</g>
<!-- Node44 -->
<g id="node35" class="node"><title>Node44</title>
<g id="a_node35"><a xlink:href="../../d9/d24/RelativeCCSender_8hpp.html" target="_top" xlink:title=" ">
<polygon fill="white" stroke="black" points="2296.5,-112.5 2296.5,-131.5 2413.5,-131.5 2413.5,-112.5 2296.5,-112.5"/>
<text text-anchor="middle" x="2355" y="-119.5" font-family="Helvetica,sans-Serif" font-size="10.00">RelativeCCSender.hpp</text>
</a>
</g>
</g>
<!-- Node11&#45;&gt;Node44 -->
<g id="edge59" class="edge"><title>Node11&#45;&gt;Node44</title>
<path fill="none" stroke="midnightblue" d="M1919.15,-214.068C1920.36,-199.181 1924.61,-179.154 1938,-168 1997.9,-118.095 2209.57,-141.116 2287,-132 2290.07,-131.638 2293.23,-131.257 2296.41,-130.864"/>
<polygon fill="midnightblue" stroke="midnightblue" points="1915.64,-214.078 1918.72,-224.218 1922.64,-214.375 1915.64,-214.078"/>
</g>
<!-- Node48 -->
<g id="node39" class="node"><title>Node48</title>
<g id="a_node39"><a xlink:href="../../da/d0c/ProgramChanger_8hpp.html" target="_top" xlink:title=" ">
<polygon fill="white" stroke="black" points="1947.5,-168.5 1947.5,-187.5 2056.5,-187.5 2056.5,-168.5 1947.5,-168.5"/>
<text text-anchor="middle" x="2002" y="-175.5" font-family="Helvetica,sans-Serif" font-size="10.00">ProgramChanger.hpp</text>
</a>
</g>
</g>
<!-- Node11&#45;&gt;Node48 -->
<g id="edge66" class="edge"><title>Node11&#45;&gt;Node48</title>
<path fill="none" stroke="midnightblue" d="M1941.1,-218.622C1956.26,-208.757 1975.88,-195.992 1988.7,-187.655"/>
<polygon fill="midnightblue" stroke="midnightblue" points="1938.81,-215.937 1932.34,-224.324 1942.63,-221.804 1938.81,-215.937"/>
</g>
<!-- Node49 -->
<g id="node40" class="node"><title>Node49</title>
<g id="a_node40"><a xlink:href="../../de/d5e/Transposer_8hpp.html" target="_top" xlink:title=" ">
<polygon fill="white" stroke="black" points="2075,-168.5 2075,-187.5 2159,-187.5 2159,-168.5 2075,-168.5"/>
<text text-anchor="middle" x="2117" y="-175.5" font-family="Helvetica,sans-Serif" font-size="10.00">Transposer.hpp</text>
</a>
</g>
</g>
<!-- Node11&#45;&gt;Node49 -->
<g id="edge68" class="edge"><title>Node11&#45;&gt;Node49</title>
<path fill="none" stroke="midnightblue" d="M1960.44,-221.699C1997.81,-211.507 2051.94,-196.743 2085.77,-187.516"/>
<polygon fill="midnightblue" stroke="midnightblue" points="1959.1,-218.436 1950.37,-224.444 1960.94,-225.189 1959.1,-218.436"/>
</g>
<!-- Node15 -->
<g id="node6" class="node"><title>Node15</title>
<g id="a_node6"><a xlink:href="../../da/d51/VolumeControl_8hpp.html" target="_top" xlink:title=" ">
<polygon fill="white" stroke="black" points="560,-112.5 560,-131.5 660,-131.5 660,-112.5 560,-112.5"/>
<text text-anchor="middle" x="610" y="-119.5" font-family="Helvetica,sans-Serif" font-size="10.00">VolumeControl.hpp</text>
</a>
</g>
</g>
<!-- Node14&#45;&gt;Node15 -->
<g id="edge5" class="edge"><title>Node14&#45;&gt;Node15</title>
<path fill="none" stroke="midnightblue" d="M735.735,-165.172C705.419,-155.004 662.43,-140.585 635.392,-131.516"/>
<polygon fill="midnightblue" stroke="midnightblue" points="734.895,-168.582 745.489,-168.444 737.121,-161.945 734.895,-168.582"/>
</g>
<!-- Node16 -->
<g id="node7" class="node"><title>Node16</title>
<g id="a_node7"><a xlink:href="../../d3/de4/Abstract_2MIDIFilteredAnalog_8hpp.html" target="_top" xlink:title=" ">
<polygon fill="white" stroke="black" points="827.5,-112.5 827.5,-131.5 946.5,-131.5 946.5,-112.5 827.5,-112.5"/>
<text text-anchor="middle" x="887" y="-119.5" font-family="Helvetica,sans-Serif" font-size="10.00">MIDIFilteredAnalog.hpp</text>
</a>
</g>
</g>
<!-- Node14&#45;&gt;Node16 -->
<g id="edge6" class="edge"><title>Node14&#45;&gt;Node16</title>
<path fill="none" stroke="midnightblue" d="M798.72,-164.096C820.392,-154.007 849.902,-140.27 868.705,-131.516"/>
<polygon fill="midnightblue" stroke="midnightblue" points="796.969,-161.05 789.381,-168.444 799.923,-167.396 796.969,-161.05"/>
</g>
<!-- Node19 -->
<g id="node10" class="node"><title>Node19</title>
<g id="a_node10"><a xlink:href="../../d5/d4d/Bankable_2Abstract_2MIDIFilteredAnalog_8hpp.html" target="_top" xlink:title=" ">
<polygon fill="white" stroke="black" points="422.5,-112.5 422.5,-131.5 541.5,-131.5 541.5,-112.5 422.5,-112.5"/>
<text text-anchor="middle" x="482" y="-119.5" font-family="Helvetica,sans-Serif" font-size="10.00">MIDIFilteredAnalog.hpp</text>
</a>
</g>
</g>
<!-- Node14&#45;&gt;Node19 -->
<g id="edge11" class="edge"><title>Node14&#45;&gt;Node19</title>
<path fill="none" stroke="midnightblue" d="M717.261,-166.959C662.762,-156.776 579.323,-141.185 527.847,-131.567"/>
<polygon fill="midnightblue" stroke="midnightblue" points="716.948,-170.461 727.421,-168.857 718.234,-163.58 716.948,-170.461"/>
</g>
<!-- Node17 -->
<g id="node8" class="node"><title>Node17</title>
<g id="a_node8"><a xlink:href="../../d4/df0/CCPotentiometer_8hpp.html" target="_top" xlink:title=" ">
<polygon fill="white" stroke="black" points="917.5,-56.5 917.5,-75.5 1028.5,-75.5 1028.5,-56.5 917.5,-56.5"/>
<text text-anchor="middle" x="973" y="-63.5" font-family="Helvetica,sans-Serif" font-size="10.00">CCPotentiometer.hpp</text>
</a>
</g>
</g>
<!-- Node16&#45;&gt;Node17 -->
<g id="edge7" class="edge"><title>Node16&#45;&gt;Node17</title>
<path fill="none" stroke="midnightblue" d="M909.455,-106.901C925.224,-96.9986 945.814,-84.0705 959.217,-75.6545"/>
<polygon fill="midnightblue" stroke="midnightblue" points="907.425,-104.042 900.817,-112.324 911.148,-109.97 907.425,-104.042"/>
</g>
<!-- Node18 -->
<g id="node9" class="node"><title>Node18</title>
<g id="a_node9"><a xlink:href="../../d3/d74/PBPotentiometer_8hpp.html" target="_top" xlink:title=" ">
<polygon fill="white" stroke="black" points="1175,-56.5 1175,-75.5 1285,-75.5 1285,-56.5 1175,-56.5"/>
<text text-anchor="middle" x="1230" y="-63.5" font-family="Helvetica,sans-Serif" font-size="10.00">PBPotentiometer.hpp</text>
</a>
</g>
</g>
<!-- Node16&#45;&gt;Node18 -->
<g id="edge9" class="edge"><title>Node16&#45;&gt;Node18</title>
<path fill="none" stroke="midnightblue" d="M951.448,-110.854C1016.25,-100.651 1115.05,-85.0977 1175.9,-75.5164"/>
<polygon fill="midnightblue" stroke="midnightblue" points="950.683,-107.431 941.349,-112.444 951.772,-114.346 950.683,-107.431"/>
</g>
<!-- Node17&#45;&gt;Node13 -->
<g id="edge8" class="edge"><title>Node17&#45;&gt;Node13</title>
<path fill="none" stroke="midnightblue" d="M1038.85,-55.9491C1201.69,-37.1547 1381.52,-21.7156 1465.4,-14.8257"/>
<polygon fill="midnightblue" stroke="midnightblue" points="1038.18,-52.5039 1028.65,-57.134 1038.99,-59.4572 1038.18,-52.5039"/>
</g>
<!-- Node18&#45;&gt;Node13 -->
<g id="edge10" class="edge"><title>Node18&#45;&gt;Node13</title>
<path fill="none" stroke="midnightblue" d="M1284.83,-54.5371C1338.32,-44.3316 1418.67,-28.9992 1468.37,-19.5164"/>
<polygon fill="midnightblue" stroke="midnightblue" points="1284.01,-51.1312 1274.84,-56.4435 1285.32,-58.0071 1284.01,-51.1312"/>
</g>
<!-- Node20 -->
<g id="node11" class="node"><title>Node20</title>
<g id="a_node11"><a xlink:href="../../d6/ddd/Bankable_2CCPotentiometer_8hpp.html" target="_top" xlink:title=" ">
<polygon fill="white" stroke="black" points="788.5,-56.5 788.5,-75.5 899.5,-75.5 899.5,-56.5 788.5,-56.5"/>
<text text-anchor="middle" x="844" y="-63.5" font-family="Helvetica,sans-Serif" font-size="10.00">CCPotentiometer.hpp</text>
</a>
</g>
</g>
<!-- Node19&#45;&gt;Node20 -->
<g id="edge12" class="edge"><title>Node19&#45;&gt;Node20</title>
<path fill="none" stroke="midnightblue" d="M549.673,-110.905C618.593,-100.624 724.189,-84.8724 788.394,-75.2948"/>
<polygon fill="midnightblue" stroke="midnightblue" points="548.734,-107.506 539.36,-112.444 549.767,-114.43 548.734,-107.506"/>
</g>
<!-- Node21 -->
<g id="node12" class="node"><title>Node21</title>
<g id="a_node12"><a xlink:href="../../d9/d99/Bankable_2PBPotentiometer_8hpp.html" target="_top" xlink:title=" ">
<polygon fill="white" stroke="black" points="1047,-56.5 1047,-75.5 1157,-75.5 1157,-56.5 1047,-56.5"/>
<text text-anchor="middle" x="1102" y="-63.5" font-family="Helvetica,sans-Serif" font-size="10.00">PBPotentiometer.hpp</text>
</a>
</g>
</g>
<!-- Node19&#45;&gt;Node21 -->
<g id="edge14" class="edge"><title>Node19&#45;&gt;Node21</title>
<path fill="none" stroke="midnightblue" d="M551.902,-111.968C768.176,-90.2461 824.879,-98.5186 1037,-76 1040.17,-75.6633 1043.43,-75.2925 1046.71,-74.8992"/>
<polygon fill="midnightblue" stroke="midnightblue" points="551.411,-108.499 541.815,-112.991 552.118,-115.464 551.411,-108.499"/>
</g>
<!-- Node20&#45;&gt;Node13 -->
<g id="edge13" class="edge"><title>Node20&#45;&gt;Node13</title>
<path fill="none" stroke="midnightblue" d="M909.935,-55.851C1122.81,-33.3033 1364.84,-18.9417 1465.45,-13.4751"/>
<polygon fill="midnightblue" stroke="midnightblue" points="909.393,-52.3889 899.821,-56.9309 910.136,-59.3494 909.393,-52.3889"/>
</g>
<!-- Node21&#45;&gt;Node13 -->
<g id="edge15" class="edge"><title>Node21&#45;&gt;Node13</title>
<path fill="none" stroke="midnightblue" d="M1167.35,-55.8297C1280.16,-40.6246 1400.31,-25.2611 1465.27,-17.0251"/>
<polygon fill="midnightblue" stroke="midnightblue" points="1166.59,-52.3993 1157.15,-57.2058 1167.53,-59.3363 1166.59,-52.3993"/>
</g>
<!-- Node22&#45;&gt;Node17 -->
<g id="edge18" class="edge"><title>Node22&#45;&gt;Node17</title>
<path fill="none" stroke="midnightblue" d="M790.273,-110.088C833.537,-99.8865 897.255,-84.8612 936.884,-75.5164"/>
<polygon fill="midnightblue" stroke="midnightblue" points="789.215,-106.742 780.286,-112.444 790.822,-113.555 789.215,-106.742"/>
</g>
<!-- Node22&#45;&gt;Node20 -->
<g id="edge17" class="edge"><title>Node22&#45;&gt;Node20</title>
<path fill="none" stroke="midnightblue" d="M769.088,-107.453C787.549,-97.4835 812.097,-84.2279 827.973,-75.6545"/>
<polygon fill="midnightblue" stroke="midnightblue" points="767.203,-104.493 760.067,-112.324 770.529,-110.652 767.203,-104.493"/>
</g>
<!-- Node24 -->
<g id="node15" class="node"><title>Node24</title>
<g id="a_node15"><a xlink:href="../../db/d15/Bankable_2CCButton_8hpp.html" target="_top" xlink:title=" ">
<polygon fill="white" stroke="black" points="557.5,-56.5 557.5,-75.5 636.5,-75.5 636.5,-56.5 557.5,-56.5"/>
<text text-anchor="middle" x="597" y="-63.5" font-family="Helvetica,sans-Serif" font-size="10.00">CCButton.hpp</text>
</a>
</g>
</g>
<!-- Node23&#45;&gt;Node24 -->
<g id="edge20" class="edge"><title>Node23&#45;&gt;Node24</title>
<path fill="none" stroke="midnightblue" d="M399.027,-110.281C445.704,-100.077 515.031,-84.9203 558.045,-75.5164"/>
<polygon fill="midnightblue" stroke="midnightblue" points="398.16,-106.888 389.138,-112.444 399.655,-113.727 398.16,-106.888"/>
</g>
<!-- Node25 -->
<g id="node16" class="node"><title>Node25</title>
<g id="a_node16"><a xlink:href="../../d2/dac/Bankable_2CCButtonLatching_8hpp.html" target="_top" xlink:title=" ">
<polygon fill="white" stroke="black" points="654,-56.5 654,-75.5 770,-75.5 770,-56.5 654,-56.5"/>
<text text-anchor="middle" x="712" y="-63.5" font-family="Helvetica,sans-Serif" font-size="10.00">CCButtonLatching.hpp</text>
</a>
</g>
</g>
<!-- Node23&#45;&gt;Node25 -->
<g id="edge22" class="edge"><title>Node23&#45;&gt;Node25</title>
<path fill="none" stroke="midnightblue" d="M414.791,-111.335C483.085,-101.147 589.622,-85.2553 654.874,-75.5216"/>
<polygon fill="midnightblue" stroke="midnightblue" points="413.961,-107.92 404.587,-112.857 414.994,-114.843 413.961,-107.92"/>
</g>
<!-- Node26 -->
<g id="node17" class="node"><title>Node26</title>
<g id="a_node17"><a xlink:href="../../d7/d16/Bankable_2CCButtons_8hpp.html" target="_top" xlink:title=" ">
<polygon fill="white" stroke="black" points="0,-56.5 0,-75.5 84,-75.5 84,-56.5 0,-56.5"/>
<text text-anchor="middle" x="42" y="-63.5" font-family="Helvetica,sans-Serif" font-size="10.00">CCButtons.hpp</text>
</a>
</g>
</g>
<!-- Node23&#45;&gt;Node26 -->
<g id="edge24" class="edge"><title>Node23&#45;&gt;Node26</title>
<path fill="none" stroke="midnightblue" d="M290.42,-110.702C238.118,-101.64 159.995,-88.0493 92,-76 89.3946,-75.5383 86.7132,-75.0612 84.0093,-74.5787"/>
<polygon fill="midnightblue" stroke="midnightblue" points="290.075,-114.195 300.526,-112.453 291.27,-107.297 290.075,-114.195"/>
</g>
<!-- Node27 -->
<g id="node18" class="node"><title>Node27</title>
<g id="a_node18"><a xlink:href="../../d3/dd8/CCButton_8hpp.html" target="_top" xlink:title=" ">
<polygon fill="white" stroke="black" points="101.5,-56.5 101.5,-75.5 180.5,-75.5 180.5,-56.5 101.5,-56.5"/>
<text text-anchor="middle" x="141" y="-63.5" font-family="Helvetica,sans-Serif" font-size="10.00">CCButton.hpp</text>
</a>
</g>
</g>
<!-- Node23&#45;&gt;Node27 -->
<g id="edge26" class="edge"><title>Node23&#45;&gt;Node27</title>
<path fill="none" stroke="midnightblue" d="M307.016,-109.894C267.548,-99.6966 209.9,-84.802 173.962,-75.5164"/>
<polygon fill="midnightblue" stroke="midnightblue" points="306.326,-113.331 316.883,-112.444 308.077,-106.553 306.326,-113.331"/>
</g>
<!-- Node28 -->
<g id="node19" class="node"><title>Node28</title>
<g id="a_node19"><a xlink:href="../../d0/d04/CCButtonLatching_8hpp.html" target="_top" xlink:title=" ">
<polygon fill="white" stroke="black" points="198,-56.5 198,-75.5 314,-75.5 314,-56.5 198,-56.5"/>
<text text-anchor="middle" x="256" y="-63.5" font-family="Helvetica,sans-Serif" font-size="10.00">CCButtonLatching.hpp</text>
</a>
</g>
</g>
<!-- Node23&#45;&gt;Node28 -->
<g id="edge28" class="edge"><title>Node23&#45;&gt;Node28</title>
<path fill="none" stroke="midnightblue" d="M325.938,-107.177C308.641,-97.2407 285.852,-84.1492 271.065,-75.6545"/>
<polygon fill="midnightblue" stroke="midnightblue" points="324.483,-110.378 334.897,-112.324 327.97,-104.308 324.483,-110.378"/>
</g>
<!-- Node29 -->
<g id="node20" class="node"><title>Node29</title>
<g id="a_node20"><a xlink:href="../../d5/d9b/CCButtonMatrix_8hpp.html" target="_top" xlink:title=" ">
<polygon fill="white" stroke="black" points="332,-56.5 332,-75.5 438,-75.5 438,-56.5 332,-56.5"/>
<text text-anchor="middle" x="385" y="-63.5" font-family="Helvetica,sans-Serif" font-size="10.00">CCButtonMatrix.hpp</text>
</a>
</g>
</g>
<!-- Node23&#45;&gt;Node29 -->
<g id="edge30" class="edge"><title>Node23&#45;&gt;Node29</title>
<path fill="none" stroke="midnightblue" d="M361.3,-103.566C367.322,-94.2747 374.469,-83.2484 379.328,-75.7511"/>
<polygon fill="midnightblue" stroke="midnightblue" points="358.281,-101.788 355.78,-112.083 364.156,-105.595 358.281,-101.788"/>
</g>
<!-- Node30 -->
<g id="node21" class="node"><title>Node30</title>
<g id="a_node21"><a xlink:href="../../d2/d03/CCButtons_8hpp.html" target="_top" xlink:title=" ">
<polygon fill="white" stroke="black" points="456,-56.5 456,-75.5 540,-75.5 540,-56.5 456,-56.5"/>
<text text-anchor="middle" x="498" y="-63.5" font-family="Helvetica,sans-Serif" font-size="10.00">CCButtons.hpp</text>
</a>
</g>
</g>
<!-- Node23&#45;&gt;Node30 -->
<g id="edge32" class="edge"><title>Node23&#45;&gt;Node30</title>
<path fill="none" stroke="midnightblue" d="M383.147,-108.906C410.972,-98.7536 450.02,-84.5063 474.659,-75.5164"/>
<polygon fill="midnightblue" stroke="midnightblue" points="381.646,-105.728 373.451,-112.444 384.045,-112.304 381.646,-105.728"/>
</g>
<!-- Node24&#45;&gt;Node13 -->
<g id="edge21" class="edge"><title>Node24&#45;&gt;Node13</title>
<path fill="none" stroke="midnightblue" d="M647.067,-55.9035C964.373,-18.7763 1335.39,-12.3731 1465.29,-11.241"/>
<polygon fill="midnightblue" stroke="midnightblue" points="646.269,-52.4734 636.75,-57.1239 647.091,-59.4249 646.269,-52.4734"/>
</g>
<!-- Node25&#45;&gt;Node13 -->
<g id="edge23" class="edge"><title>Node25&#45;&gt;Node13</title>
<path fill="none" stroke="midnightblue" d="M780.271,-55.9471C1045.12,-30.4287 1349.59,-17.1799 1465.25,-12.7309"/>
<polygon fill="midnightblue" stroke="midnightblue" points="779.69,-52.487 770.075,-56.9376 780.366,-59.4542 779.69,-52.487"/>
</g>
<!-- Node26&#45;&gt;Node13 -->
<g id="edge25" class="edge"><title>Node26&#45;&gt;Node13</title>
<path fill="none" stroke="midnightblue" d="M94.4095,-55.9075C387.673,-26.7475 1252.19,-14.266 1465.19,-11.5725"/>
<polygon fill="midnightblue" stroke="midnightblue" points="93.8112,-52.4504 84.2202,-56.9519 94.525,-59.414 93.8112,-52.4504"/>
</g>
<!-- Node27&#45;&gt;Node13 -->
<g id="edge27" class="edge"><title>Node27&#45;&gt;Node13</title>
<path fill="none" stroke="midnightblue" d="M191.031,-55.9668C464.51,-27.598 1261.99,-14.5805 1465.38,-11.6514"/>
<polygon fill="midnightblue" stroke="midnightblue" points="190.313,-52.5235 180.743,-57.0687 191.059,-59.4836 190.313,-52.5235"/>
</g>
<!-- Node28&#45;&gt;Node13 -->
<g id="edge29" class="edge"><title>Node28&#45;&gt;Node13</title>
<path fill="none" stroke="midnightblue" d="M324.34,-55.9767C773.999,-17.8803 1305.43,-12.0712 1465.29,-11.1666"/>
<polygon fill="midnightblue" stroke="midnightblue" points="323.733,-52.5157 314.067,-56.8539 324.329,-59.4903 323.733,-52.5157"/>
</g>
<!-- Node29&#45;&gt;Node13 -->
<g id="edge31" class="edge"><title>Node29&#45;&gt;Node13</title>
<path fill="none" stroke="midnightblue" d="M448.061,-56.0057C847.028,-19.2442 1316.5,-12.5296 1465.34,-11.282"/>
<polygon fill="midnightblue" stroke="midnightblue" points="447.691,-52.5249 438.057,-56.9351 448.338,-59.4949 447.691,-52.5249"/>
</g>
<!-- Node30&#45;&gt;Node13 -->
<g id="edge33" class="edge"><title>Node30&#45;&gt;Node13</title>
<path fill="none" stroke="midnightblue" d="M550.217,-55.8772C906.49,-16.3528 1325.96,-11.5065 1465.38,-11.0093"/>
<polygon fill="midnightblue" stroke="midnightblue" points="549.773,-52.4049 540.225,-56.9967 550.553,-59.3614 549.773,-52.4049"/>
</g>
<!-- Node32 -->
<g id="node23" class="node"><title>Node32</title>
<g id="a_node23"><a xlink:href="../../dc/dc5/MIDIIncrementDecrementButtons_8hpp.html" target="_top" xlink:title=" ">
<polygon fill="white" stroke="black" points="2096,-112.5 2096,-131.5 2278,-131.5 2278,-112.5 2096,-112.5"/>
<text text-anchor="middle" x="2187" y="-119.5" font-family="Helvetica,sans-Serif" font-size="10.00">MIDIIncrementDecrementButtons.hpp</text>
</a>
</g>
</g>
<!-- Node31&#45;&gt;Node32 -->
<g id="edge35" class="edge"><title>Node31&#45;&gt;Node32</title>
<path fill="none" stroke="midnightblue" d="M1724.97,-170.075C1821.63,-160.227 1998.66,-142.19 2103.28,-131.53"/>
<polygon fill="midnightblue" stroke="midnightblue" points="1724.32,-166.623 1714.73,-171.118 1725.03,-173.587 1724.32,-166.623"/>
</g>
<!-- Node34 -->
<g id="node25" class="node"><title>Node34</title>
<g id="a_node25"><a xlink:href="../../d9/d55/Bankable_2CCButtonMatrix_8hpp.html" target="_top" xlink:title=" ">
<polygon fill="white" stroke="black" points="1303,-56.5 1303,-75.5 1409,-75.5 1409,-56.5 1303,-56.5"/>
<text text-anchor="middle" x="1356" y="-63.5" font-family="Helvetica,sans-Serif" font-size="10.00">CCButtonMatrix.hpp</text>
</a>
</g>
</g>
<!-- Node31&#45;&gt;Node34 -->
<g id="edge38" class="edge"><title>Node31&#45;&gt;Node34</title>
<path fill="none" stroke="midnightblue" d="M1589.16,-173.706C1448.88,-166.565 1138.57,-148.935 1123,-132 1116.98,-125.456 1117.34,-118.855 1123,-112 1128.74,-105.039 1235.82,-86.5202 1302.79,-75.5297"/>
<polygon fill="midnightblue" stroke="midnightblue" points="1589.21,-177.212 1599.37,-174.222 1589.56,-170.221 1589.21,-177.212"/>
</g>
<!-- Node35 -->
<g id="node26" class="node"><title>Node35</title>
<g id="a_node26"><a xlink:href="../../d5/d8e/Bankable_2NoteButton_8hpp.html" target="_top" xlink:title=" ">
<polygon fill="white" stroke="black" points="1132.5,-112.5 1132.5,-131.5 1217.5,-131.5 1217.5,-112.5 1132.5,-112.5"/>
<text text-anchor="middle" x="1175" y="-119.5" font-family="Helvetica,sans-Serif" font-size="10.00">NoteButton.hpp</text>
</a>
</g>
</g>
<!-- Node31&#45;&gt;Node35 -->
<g id="edge40" class="edge"><title>Node31&#45;&gt;Node35</title>
<path fill="none" stroke="midnightblue" d="M1589.45,-171.344C1504.62,-163.916 1354.71,-149.714 1227,-132 1223.91,-131.572 1220.73,-131.099 1217.53,-130.6"/>
<polygon fill="midnightblue" stroke="midnightblue" points="1589.2,-174.835 1599.47,-172.216 1589.81,-167.861 1589.2,-174.835"/>
</g>
<!-- Node36 -->
<g id="node27" class="node"><title>Node36</title>
<g id="a_node27"><a xlink:href="../../d6/d6e/Bankable_2NoteButtonLatching_8hpp.html" target="_top" xlink:title=" ">
<polygon fill="white" stroke="black" points="1236,-112.5 1236,-131.5 1358,-131.5 1358,-112.5 1236,-112.5"/>
<text text-anchor="middle" x="1297" y="-119.5" font-family="Helvetica,sans-Serif" font-size="10.00">NoteButtonLatching.hpp</text>
</a>
</g>
</g>
<!-- Node31&#45;&gt;Node36 -->
<g id="edge42" class="edge"><title>Node31&#45;&gt;Node36</title>
<path fill="none" stroke="midnightblue" d="M1589.78,-166.917C1521.77,-156.715 1417.78,-141.117 1353.78,-131.516"/>
<polygon fill="midnightblue" stroke="midnightblue" points="1589.55,-170.421 1599.96,-168.444 1590.59,-163.499 1589.55,-170.421"/>
</g>
<!-- Node37 -->
<g id="node28" class="node"><title>Node37</title>
<g id="a_node28"><a xlink:href="../../dc/dde/Bankable_2NoteButtonMatrix_8hpp.html" target="_top" xlink:title=" ">
<polygon fill="white" stroke="black" points="1376,-112.5 1376,-131.5 1488,-131.5 1488,-112.5 1376,-112.5"/>
<text text-anchor="middle" x="1432" y="-119.5" font-family="Helvetica,sans-Serif" font-size="10.00">NoteButtonMatrix.hpp</text>
</a>
</g>
</g>
<!-- Node31&#45;&gt;Node37 -->
<g id="edge44" class="edge"><title>Node31&#45;&gt;Node37</title>
<path fill="none" stroke="midnightblue" d="M1611.53,-166.088C1569.03,-155.887 1506.42,-140.861 1467.49,-131.516"/>
<polygon fill="midnightblue" stroke="midnightblue" points="1610.81,-169.513 1621.35,-168.444 1612.44,-162.706 1610.81,-169.513"/>
</g>
<!-- Node38 -->
<g id="node29" class="node"><title>Node38</title>
<g id="a_node29"><a xlink:href="../../dd/dbb/Bankable_2NoteButtons_8hpp.html" target="_top" xlink:title=" ">
<polygon fill="white" stroke="black" points="1506,-112.5 1506,-131.5 1596,-131.5 1596,-112.5 1506,-112.5"/>
<text text-anchor="middle" x="1551" y="-119.5" font-family="Helvetica,sans-Serif" font-size="10.00">NoteButtons.hpp</text>
</a>
</g>
</g>
<!-- Node31&#45;&gt;Node38 -->
<g id="edge46" class="edge"><title>Node31&#45;&gt;Node38</title>
<path fill="none" stroke="midnightblue" d="M1630.94,-163.726C1611.32,-153.727 1584.97,-140.307 1567.99,-131.655"/>
<polygon fill="midnightblue" stroke="midnightblue" points="1629.47,-166.903 1639.97,-168.324 1632.65,-160.666 1629.47,-166.903"/>
</g>
<!-- Node39 -->
<g id="node30" class="node"><title>Node39</title>
<g id="a_node30"><a xlink:href="../../d3/d80/NoteButton_8hpp.html" target="_top" xlink:title=" ">
<polygon fill="white" stroke="black" points="1614.5,-112.5 1614.5,-131.5 1699.5,-131.5 1699.5,-112.5 1614.5,-112.5"/>
<text text-anchor="middle" x="1657" y="-119.5" font-family="Helvetica,sans-Serif" font-size="10.00">NoteButton.hpp</text>
</a>
</g>
</g>
<!-- Node31&#45;&gt;Node39 -->
<g id="edge48" class="edge"><title>Node31&#45;&gt;Node39</title>
<path fill="none" stroke="midnightblue" d="M1657,-157.805C1657,-148.91 1657,-138.78 1657,-131.751"/>
<polygon fill="midnightblue" stroke="midnightblue" points="1653.5,-158.083 1657,-168.083 1660.5,-158.083 1653.5,-158.083"/>
</g>
<!-- Node40 -->
<g id="node31" class="node"><title>Node40</title>
<g id="a_node31"><a xlink:href="../../d6/d09/NoteButtonLatching_8hpp.html" target="_top" xlink:title=" ">
<polygon fill="white" stroke="black" points="1718,-112.5 1718,-131.5 1840,-131.5 1840,-112.5 1718,-112.5"/>
<text text-anchor="middle" x="1779" y="-119.5" font-family="Helvetica,sans-Serif" font-size="10.00">NoteButtonLatching.hpp</text>
</a>
</g>
</g>
<!-- Node31&#45;&gt;Node40 -->
<g id="edge50" class="edge"><title>Node31&#45;&gt;Node40</title>
<path fill="none" stroke="midnightblue" d="M1685.54,-164.368C1708.39,-154.255 1739.81,-140.349 1759.76,-131.516"/>
<polygon fill="midnightblue" stroke="midnightblue" points="1684.06,-161.196 1676.33,-168.444 1686.89,-167.597 1684.06,-161.196"/>
</g>
<!-- Node41 -->
<g id="node32" class="node"><title>Node41</title>
<g id="a_node32"><a xlink:href="../../d2/da8/NoteButtonMatrix_8hpp.html" target="_top" xlink:title=" ">
<polygon fill="white" stroke="black" points="1858,-112.5 1858,-131.5 1970,-131.5 1970,-112.5 1858,-112.5"/>
<text text-anchor="middle" x="1914" y="-119.5" font-family="Helvetica,sans-Serif" font-size="10.00">NoteButtonMatrix.hpp</text>
</a>
</g>
</g>
<!-- Node31&#45;&gt;Node41 -->
<g id="edge52" class="edge"><title>Node31&#45;&gt;Node41</title>
<path fill="none" stroke="midnightblue" d="M1707.71,-166.346C1756.28,-156.141 1828.62,-140.94 1873.47,-131.516"/>
<polygon fill="midnightblue" stroke="midnightblue" points="1706.79,-162.962 1697.72,-168.444 1708.23,-169.812 1706.79,-162.962"/>
</g>
<!-- Node42 -->
<g id="node33" class="node"><title>Node42</title>
<g id="a_node33"><a xlink:href="../../d4/db7/NoteButtons_8hpp.html" target="_top" xlink:title=" ">
<polygon fill="white" stroke="black" points="1988,-112.5 1988,-131.5 2078,-131.5 2078,-112.5 1988,-112.5"/>
<text text-anchor="middle" x="2033" y="-119.5" font-family="Helvetica,sans-Serif" font-size="10.00">NoteButtons.hpp</text>
</a>
</g>
</g>
<!-- Node31&#45;&gt;Node42 -->
<g id="edge54" class="edge"><title>Node31&#45;&gt;Node42</title>
<path fill="none" stroke="midnightblue" d="M1724.8,-168.052C1790.02,-159.32 1891.35,-145.427 1979,-132 1981.91,-131.554 1984.91,-131.084 1987.93,-130.602"/>
<polygon fill="midnightblue" stroke="midnightblue" points="1724.1,-164.614 1714.65,-169.408 1725.03,-171.553 1724.1,-164.614"/>
</g>
<!-- Node33 -->
<g id="node24" class="node"><title>Node33</title>
<g id="a_node24"><a xlink:href="../../d1/de5/CCIncrementDecrementButtons_8hpp.html" target="_top" xlink:title=" ">
<polygon fill="white" stroke="black" points="1834,-56.5 1834,-75.5 2010,-75.5 2010,-56.5 1834,-56.5"/>
<text text-anchor="middle" x="1922" y="-63.5" font-family="Helvetica,sans-Serif" font-size="10.00">CCIncrementDecrementButtons.hpp</text>
</a>
</g>
</g>
<!-- Node32&#45;&gt;Node33 -->
<g id="edge36" class="edge"><title>Node32&#45;&gt;Node33</title>
<path fill="none" stroke="midnightblue" d="M2135.03,-110.41C2084.95,-100.204 2010.14,-84.9597 1963.79,-75.5164"/>
<polygon fill="midnightblue" stroke="midnightblue" points="2134.51,-113.876 2145.01,-112.444 2135.91,-107.017 2134.51,-113.876"/>
</g>
<!-- Node33&#45;&gt;Node13 -->
<g id="edge37" class="edge"><title>Node33&#45;&gt;Node13</title>
<path fill="none" stroke="midnightblue" d="M1847.26,-55.1321C1763.75,-44.106 1631.04,-26.5854 1560.59,-17.2833"/>
<polygon fill="midnightblue" stroke="midnightblue" points="1846.82,-58.6044 1857.19,-56.4435 1847.74,-51.6646 1846.82,-58.6044"/>
</g>
<!-- Node34&#45;&gt;Node13 -->
<g id="edge39" class="edge"><title>Node34&#45;&gt;Node13</title>
<path fill="none" stroke="midnightblue" d="M1390.39,-53.172C1419.95,-43.0039 1461.87,-28.5852 1488.24,-19.5164"/>
<polygon fill="midnightblue" stroke="midnightblue" points="1389.2,-49.8813 1380.88,-56.4435 1391.47,-56.5007 1389.2,-49.8813"/>
</g>
<!-- Node35&#45;&gt;Node13 -->
<g id="edge41" class="edge"><title>Node35&#45;&gt;Node13</title>
<path fill="none" stroke="midnightblue" d="M1227.73,-111.807C1296.52,-99.7293 1409.23,-79.6212 1418,-76 1427,-72.2819 1477.41,-36.5141 1500.92,-19.6796"/>
<polygon fill="midnightblue" stroke="midnightblue" points="1226.75,-108.426 1217.5,-113.6 1227.96,-115.321 1226.75,-108.426"/>
</g>
<!-- Node36&#45;&gt;Node13 -->
<g id="edge43" class="edge"><title>Node36&#45;&gt;Node13</title>
<path fill="none" stroke="midnightblue" d="M1360.83,-110.229C1389.81,-103.414 1423.65,-92.6438 1451,-76 1475.78,-60.9213 1497.28,-33.4408 1507.19,-19.5398"/>
<polygon fill="midnightblue" stroke="midnightblue" points="1359.79,-106.875 1350.8,-112.478 1361.32,-113.705 1359.79,-106.875"/>
</g>
<!-- Node37&#45;&gt;Node13 -->
<g id="edge45" class="edge"><title>Node37&#45;&gt;Node13</title>
<path fill="none" stroke="midnightblue" d="M1455.66,-106.746C1467.04,-98.8838 1480.11,-88.2357 1489,-76 1501.86,-58.2851 1508.57,-32.9055 1511.37,-19.7131"/>
<polygon fill="midnightblue" stroke="midnightblue" points="1453.44,-104.016 1447,-112.432 1457.28,-109.867 1453.44,-104.016"/>
</g>
<!-- Node38&#45;&gt;Node13 -->
<g id="edge47" class="edge"><title>Node38&#45;&gt;Node13</title>
<path fill="none" stroke="midnightblue" d="M1544.67,-102.674C1536.36,-78.6248 1522.12,-37.3881 1515.97,-19.5914"/>
<polygon fill="midnightblue" stroke="midnightblue" points="1541.44,-104.059 1548.02,-112.368 1548.06,-101.774 1541.44,-104.059"/>
</g>
<!-- Node39&#45;&gt;Node13 -->
<g id="edge49" class="edge"><title>Node39&#45;&gt;Node13</title>
<path fill="none" stroke="midnightblue" d="M1637.52,-106.118C1606.95,-82.7688 1548.7,-38.2699 1524.25,-19.5914"/>
<polygon fill="midnightblue" stroke="midnightblue" points="1635.63,-109.079 1645.7,-112.368 1639.88,-103.517 1635.63,-109.079"/>
</g>
<!-- Node40&#45;&gt;Node13 -->
<g id="edge51" class="edge"><title>Node40&#45;&gt;Node13</title>
<path fill="none" stroke="midnightblue" d="M1748.64,-108.446C1694.01,-85.855 1580.49,-38.9113 1533.78,-19.5914"/>
<polygon fill="midnightblue" stroke="midnightblue" points="1747.55,-111.781 1758.13,-112.368 1750.22,-105.313 1747.55,-111.781"/>
</g>
<!-- Node41&#45;&gt;Node13 -->
<g id="edge53" class="edge"><title>Node41&#45;&gt;Node13</title>
<path fill="none" stroke="midnightblue" d="M1873.1,-109.781C1792.74,-87.7365 1615.83,-39.2071 1544.11,-19.5345"/>
<polygon fill="midnightblue" stroke="midnightblue" points="1872.3,-113.19 1882.87,-112.46 1874.15,-106.439 1872.3,-113.19"/>
</g>
<!-- Node42&#45;&gt;Node13 -->
<g id="edge55" class="edge"><title>Node42&#45;&gt;Node13</title>
<path fill="none" stroke="midnightblue" d="M1983.02,-110.289C1922.61,-97.3591 1817.88,-74.9843 1728,-56 1667.55,-43.2334 1597.51,-28.6042 1554.23,-19.5822"/>
<polygon fill="midnightblue" stroke="midnightblue" points="1982.53,-113.765 1993.04,-112.436 1984,-106.92 1982.53,-113.765"/>
</g>
<!-- Node43&#45;&gt;Node18 -->
<g id="edge58" class="edge"><title>Node43&#45;&gt;Node18</title>
<path fill="none" stroke="midnightblue" d="M1063.19,-109.894C1102.85,-99.6966 1160.77,-84.802 1196.88,-75.5164"/>
<polygon fill="midnightblue" stroke="midnightblue" points="1062.09,-106.563 1053.28,-112.444 1063.83,-113.343 1062.09,-106.563"/>
</g>
<!-- Node43&#45;&gt;Node21 -->
<g id="edge57" class="edge"><title>Node43&#45;&gt;Node21</title>
<path fill="none" stroke="midnightblue" d="M1041.83,-106.622C1056.81,-96.7574 1076.2,-83.9919 1088.86,-75.6545"/>
<polygon fill="midnightblue" stroke="midnightblue" points="1039.6,-103.901 1033.17,-112.324 1043.45,-109.747 1039.6,-103.901"/>
</g>
<!-- Node44&#45;&gt;Node33 -->
<g id="edge62" class="edge"><title>Node44&#45;&gt;Node33</title>
<path fill="none" stroke="midnightblue" d="M2286.24,-111.913C2177.58,-98.0545 2064,-84.169 1992.68,-75.5243"/>
<polygon fill="midnightblue" stroke="midnightblue" points="2286.04,-115.415 2296.4,-113.21 2286.92,-108.471 2286.04,-115.415"/>
</g>
<!-- Node45 -->
<g id="node36" class="node"><title>Node45</title>
<g id="a_node36"><a xlink:href="../../dc/d8b/Bankable_2CCRotaryEncoder_8hpp.html" target="_top" xlink:title=" ">
<polygon fill="white" stroke="black" points="2028,-56.5 2028,-75.5 2144,-75.5 2144,-56.5 2028,-56.5"/>
<text text-anchor="middle" x="2086" y="-63.5" font-family="Helvetica,sans-Serif" font-size="10.00">CCRotaryEncoder.hpp</text>
</a>
</g>
</g>
<!-- Node44&#45;&gt;Node45 -->
<g id="edge60" class="edge"><title>Node44&#45;&gt;Node45</title>
<path fill="none" stroke="midnightblue" d="M2302.56,-110.473C2251.72,-100.268 2175.56,-84.9794 2128.42,-75.5164"/>
<polygon fill="midnightblue" stroke="midnightblue" points="2301.88,-113.907 2312.38,-112.444 2303.26,-107.044 2301.88,-113.907"/>
</g>
<!-- Node46 -->
<g id="node37" class="node"><title>Node46</title>
<g id="a_node37"><a xlink:href="../../dd/dd9/CCRotaryEncoder_8hpp.html" target="_top" xlink:title=" ">
<polygon fill="white" stroke="black" points="2162,-56.5 2162,-75.5 2278,-75.5 2278,-56.5 2162,-56.5"/>
<text text-anchor="middle" x="2220" y="-63.5" font-family="Helvetica,sans-Serif" font-size="10.00">CCRotaryEncoder.hpp</text>
</a>
</g>
</g>
<!-- Node44&#45;&gt;Node46 -->
<g id="edge63" class="edge"><title>Node44&#45;&gt;Node46</title>
<path fill="none" stroke="midnightblue" d="M2324.09,-108.638C2298.76,-98.504 2263.57,-84.4274 2241.29,-75.5164"/>
<polygon fill="midnightblue" stroke="midnightblue" points="2323.02,-111.979 2333.61,-112.444 2325.62,-105.48 2323.02,-111.979"/>
</g>
<!-- Node47 -->
<g id="node38" class="node"><title>Node47</title>
<g id="a_node38"><a xlink:href="../../d7/dcd/RelativeCCSender_8cpp.html" target="_top" xlink:title=" ">
<polygon fill="white" stroke="black" points="2296.5,-56.5 2296.5,-75.5 2413.5,-75.5 2413.5,-56.5 2296.5,-56.5"/>
<text text-anchor="middle" x="2355" y="-63.5" font-family="Helvetica,sans-Serif" font-size="10.00">RelativeCCSender.cpp</text>
</a>
</g>
</g>
<!-- Node44&#45;&gt;Node47 -->
<g id="edge65" class="edge"><title>Node44&#45;&gt;Node47</title>
<path fill="none" stroke="midnightblue" d="M2355,-101.805C2355,-92.9102 2355,-82.7798 2355,-75.7511"/>
<polygon fill="midnightblue" stroke="midnightblue" points="2351.5,-102.083 2355,-112.083 2358.5,-102.083 2351.5,-102.083"/>
</g>
<!-- Node45&#45;&gt;Node13 -->
<g id="edge61" class="edge"><title>Node45&#45;&gt;Node13</title>
<path fill="none" stroke="midnightblue" d="M2017.77,-55.9079C1843.12,-36.6203 1648.52,-21.17 1560.51,-14.5106"/>
<polygon fill="midnightblue" stroke="midnightblue" points="2017.59,-59.4096 2027.91,-57.0355 2018.36,-52.4524 2017.59,-59.4096"/>
</g>
<!-- Node46&#45;&gt;Node13 -->
<g id="edge64" class="edge"><title>Node46&#45;&gt;Node13</title>
<path fill="none" stroke="midnightblue" d="M2151.81,-55.9409C1924.49,-33.0034 1665.85,-18.6549 1560.86,-13.3266"/>
<polygon fill="midnightblue" stroke="midnightblue" points="2151.62,-59.4399 2161.92,-56.9695 2152.33,-52.4758 2151.62,-59.4399"/>
</g>
<!-- Node48&#45;&gt;Node13 -->
<g id="edge67" class="edge"><title>Node48&#45;&gt;Node13</title>
<path fill="none" stroke="midnightblue" d="M2066.86,-168.213C2136.39,-162.958 2396.8,-159.88 2422,-132 2444.65,-106.943 2445.29,-80.4678 2422,-56 2392.08,-24.5604 1743.73,-13.9381 1560.72,-11.5602"/>
<polygon fill="midnightblue" stroke="midnightblue" points="2066.43,-164.738 2056.79,-169.152 2067.08,-171.708 2066.43,-164.738"/>
</g>
<!-- Node49&#45;&gt;Node13 -->
<g id="edge69" class="edge"><title>Node49&#45;&gt;Node13</title>
<path fill="none" stroke="midnightblue" d="M2169.03,-168.157C2244.23,-160.277 2404.17,-176.242 2443,-132 2465.28,-106.613 2466.3,-80.4549 2443,-56 2412.3,-23.7798 1746.04,-13.6918 1560.55,-11.5026"/>
<polygon fill="midnightblue" stroke="midnightblue" points="2168.48,-164.699 2159,-169.436 2169.36,-171.642 2168.48,-164.699"/>
</g>
<!-- Node50&#45;&gt;Node13 -->
<g id="edge71" class="edge"><title>Node50&#45;&gt;Node13</title>
<path fill="none" stroke="midnightblue" d="M2693.73,-101.809C2692.39,-86.7716 2687.87,-66.6674 2674,-56 2629.23,-21.5715 1773.92,-12.9398 1560.79,-11.3198"/>
<polygon fill="midnightblue" stroke="midnightblue" points="2690.25,-102.266 2694.24,-112.081 2697.24,-101.919 2690.25,-102.266"/>
</g>
<!-- Node51 -->
<g id="node42" class="node"><title>Node51</title>
<g id="a_node42"><a xlink:href="../../df/ded/BluetoothMIDI__Interface_8hpp.html" target="_top" xlink:title=" ">
<polygon fill="white" stroke="black" points="2722,-56.5 2722,-75.5 2864,-75.5 2864,-56.5 2722,-56.5"/>
<text text-anchor="middle" x="2793" y="-63.5" font-family="Helvetica,sans-Serif" font-size="10.00">BluetoothMIDI_Interface.hpp</text>
</a>
</g>
</g>
<!-- Node50&#45;&gt;Node51 -->
<g id="edge72" class="edge"><title>Node50&#45;&gt;Node51</title>
<path fill="none" stroke="midnightblue" d="M2718.84,-107.453C2737.11,-97.4835 2761.42,-84.2279 2777.13,-75.6545"/>
<polygon fill="midnightblue" stroke="midnightblue" points="2717.01,-104.463 2709.91,-112.324 2720.36,-110.608 2717.01,-104.463"/>
</g>
<!-- Node52 -->
<g id="node43" class="node"><title>Node52</title>
<g id="a_node43"><a xlink:href="../../df/de0/DebugMIDI__Interface_8h.html" target="_top" xlink:title=" ">
<polygon fill="white" stroke="black" points="2546.5,-56.5 2546.5,-75.5 2665.5,-75.5 2665.5,-56.5 2546.5,-56.5"/>
<text text-anchor="middle" x="2606" y="-63.5" font-family="Helvetica,sans-Serif" font-size="10.00">DebugMIDI_Interface.h</text>
</a>
</g>
</g>
<!-- Node50&#45;&gt;Node52 -->
<g id="edge73" class="edge"><title>Node50&#45;&gt;Node52</title>
<path fill="none" stroke="midnightblue" d="M2671.02,-106.901C2654.89,-96.9986 2633.82,-84.0705 2620.1,-75.6545"/>
<polygon fill="midnightblue" stroke="midnightblue" points="2669.51,-110.077 2679.86,-112.324 2673.17,-104.111 2669.51,-110.077"/>
</g>
<!-- Node52&#45;&gt;Node13 -->
<g id="edge74" class="edge"><title>Node52&#45;&gt;Node13</title>
<path fill="none" stroke="midnightblue" d="M2535.95,-56.3402C2534.62,-56.2217 2533.31,-56.1081 2532,-56 2158.53,-25.0884 1706.17,-14.5321 1560.57,-11.8012"/>
<polygon fill="midnightblue" stroke="midnightblue" points="2535.98,-59.8587 2546.27,-57.3353 2536.65,-52.8911 2535.98,-59.8587"/>
</g>
<!-- Node54&#45;&gt;Node13 -->
<g id="edge77" class="edge"><title>Node54&#45;&gt;Node13</title>
<path fill="none" stroke="midnightblue" d="M2797.3,-217.93C2837.21,-185.052 2921.22,-105.843 2873,-56 2826.47,-7.90258 1796.52,-9.69667 1560.77,-10.7417"/>
<polygon fill="midnightblue" stroke="midnightblue" points="2795.09,-215.209 2789.51,-224.215 2799.49,-220.656 2795.09,-215.209"/>
</g>
</g>
</svg>
