<?xml version="1.0" encoding="UTF-8" standalone="no"?>
<!DOCTYPE svg PUBLIC "-//W3C//DTD SVG 1.1//EN"
 "http://www.w3.org/Graphics/SVG/1.1/DTD/svg11.dtd">
<!-- Generated by graphviz version 2.38.0 (20140413.2041)
 -->
<!-- Title: NoteCCRange::getBankIndex Pages: 1 -->
<svg width="361pt" height="50pt"
 viewBox="0.00 0.00 361.00 50.00" xmlns="http://www.w3.org/2000/svg" xmlns:xlink="http://www.w3.org/1999/xlink">
<g id="graph0" class="graph" transform="scale(1 1) rotate(0) translate(4 46)">
<title>NoteCCRange::getBankIndex</title>
<polygon fill="white" stroke="none" points="-4,4 -4,-46 357,-46 357,4 -4,4"/>
<!-- Node1 -->
<g id="node1" class="node"><title>Node1</title>
<g id="a_node1"><a xlink:title="Get the bank index from a MIDI address.">
<polygon fill="#bfbfbf" stroke="black" points="206,-11.5 206,-30.5 353,-30.5 353,-11.5 206,-11.5"/>
<text text-anchor="middle" x="279.5" y="-18.5" font-family="Helvetica,sans-Serif" font-size="10.00">NoteCCRange::getBankIndex</text>
</a>
</g>
</g>
<!-- Node2 -->
<g id="node2" class="node"><title>Node2</title>
<g id="a_node2"><a xlink:href="../../d2/df4/classNoteCCRange.html#a74e5debc2b91064e8b774736d5359aad" target="_top" xlink:title="Update the internal state with the new MIDI message.">
<polygon fill="white" stroke="black" points="0,-0.5 0,-41.5 170,-41.5 170,-0.5 0,-0.5"/>
<text text-anchor="start" x="8" y="-29.5" font-family="Helvetica,sans-Serif" font-size="10.00">NoteCCRange&lt; MIDIInputElement</text>
<text text-anchor="start" x="8" y="-18.5" font-family="Helvetica,sans-Serif" font-size="10.00">Note, RangeLen, 1, NoteCCLED</text>
<text text-anchor="middle" x="85" y="-7.5" font-family="Helvetica,sans-Serif" font-size="10.00">&lt; 1 &gt; &gt;::updateImpl</text>
</a>
</g>
</g>
<!-- Node1&#45;&gt;Node2 -->
<g id="edge1" class="edge"><title>Node1&#45;&gt;Node2</title>
<path fill="none" stroke="midnightblue" d="M195.724,-21C187.228,-21 178.59,-21 170.08,-21"/>
<polygon fill="midnightblue" stroke="midnightblue" points="195.998,-24.5001 205.998,-21 195.998,-17.5001 195.998,-24.5001"/>
</g>
</g>
</svg>
