<?xml version="1.0" encoding="UTF-8" standalone="no"?>
<!DOCTYPE svg PUBLIC "-//W3C//DTD SVG 1.1//EN"
 "http://www.w3.org/Graphics/SVG/1.1/DTD/svg11.dtd">
<!-- Generated by graphviz version 2.38.0 (20140413.2041)
 -->
<!-- Title: DigitalCCSender::sendOff Pages: 1 -->
<svg width="468pt" height="204pt"
 viewBox="0.00 0.00 468.00 203.50" xmlns="http://www.w3.org/2000/svg" xmlns:xlink="http://www.w3.org/1999/xlink">
<g id="graph0" class="graph" transform="scale(1 1) rotate(0) translate(4 199.5)">
<title>DigitalCCSender::sendOff</title>
<polygon fill="white" stroke="none" points="-4,4 -4,-199.5 464,-199.5 464,4 -4,4"/>
<!-- Node0 -->
<g id="node1" class="node"><title>Node0</title>
<g id="a_node1"><a xlink:title=" ">
<polygon fill="#bfbfbf" stroke="black" points="0,-124 0,-143 131,-143 131,-124 0,-124"/>
<text text-anchor="middle" x="65.5" y="-131" font-family="Helvetica,sans-Serif" font-size="10.00">DigitalCCSender::sendOff</text>
</a>
</g>
</g>
<!-- Node1 -->
<g id="node2" class="node"><title>Node1</title>
<g id="a_node2"><a xlink:href="../../dc/d45/classControl__Surface__.html#a77ee86088235acc137eb0958051a80ac" target="_top" xlink:title="Get the MIDI interface of the Control Surface.">
<polygon fill="white" stroke="black" points="169,-154 169,-173 289,-173 289,-154 169,-154"/>
<text text-anchor="middle" x="229" y="-161" font-family="Helvetica,sans-Serif" font-size="10.00">Control_Surface_::MIDI</text>
</a>
</g>
</g>
<!-- Node0&#45;&gt;Node1 -->
<g id="edge1" class="edge"><title>Node0&#45;&gt;Node1</title>
<path fill="none" stroke="midnightblue" d="M118.044,-143.075C133.562,-145.957 150.744,-149.149 166.824,-152.136"/>
<polygon fill="midnightblue" stroke="midnightblue" points="166.198,-155.58 176.669,-153.965 167.476,-148.697 166.198,-155.58"/>
</g>
<!-- Node3 -->
<g id="node4" class="node"><title>Node3</title>
<g id="a_node4"><a xlink:href="../../d9/d73/classMIDI__Interface.html#a3549169b2cfd90f2d11a19f551407b12" target="_top" xlink:title=" ">
<polygon fill="white" stroke="black" points="167,-94 167,-113 291,-113 291,-94 167,-94"/>
<text text-anchor="middle" x="229" y="-101" font-family="Helvetica,sans-Serif" font-size="10.00">MIDI_Interface::sendCC</text>
</a>
</g>
</g>
<!-- Node0&#45;&gt;Node3 -->
<g id="edge3" class="edge"><title>Node0&#45;&gt;Node3</title>
<path fill="none" stroke="midnightblue" d="M118.044,-123.925C133.562,-121.043 150.744,-117.851 166.824,-114.864"/>
<polygon fill="midnightblue" stroke="midnightblue" points="167.476,-118.303 176.669,-113.035 166.198,-111.42 167.476,-118.303"/>
</g>
<!-- Node2 -->
<g id="node3" class="node"><title>Node2</title>
<g id="a_node3"><a xlink:href="../../d9/d73/classMIDI__Interface.html#ad61032be4eecf18e9a248f153b5e61a8" target="_top" xlink:title="Return the default MIDI interface.">
<polygon fill="white" stroke="black" points="327,-176 327,-195 460,-195 460,-176 327,-176"/>
<text text-anchor="middle" x="393.5" y="-183" font-family="Helvetica,sans-Serif" font-size="10.00">MIDI_Interface::getDefault</text>
</a>
</g>
</g>
<!-- Node1&#45;&gt;Node2 -->
<g id="edge2" class="edge"><title>Node1&#45;&gt;Node2</title>
<path fill="none" stroke="midnightblue" d="M289.126,-171.505C298.123,-172.723 307.511,-173.994 316.802,-175.252"/>
<polygon fill="midnightblue" stroke="midnightblue" points="316.444,-178.735 326.823,-176.608 317.383,-171.798 316.444,-178.735"/>
</g>
<!-- Node4 -->
<g id="node5" class="node"><title>Node4</title>
<g id="a_node5"><a xlink:href="../../d9/d73/classMIDI__Interface.html#a594e0b59f1f5ed69bae207277154b95f" target="_top" xlink:title="Low&#45;level function for sending a 3&#45;byte MIDI message.">
<polygon fill="white" stroke="black" points="329.5,-138 329.5,-157 457.5,-157 457.5,-138 329.5,-138"/>
<text text-anchor="middle" x="393.5" y="-145" font-family="Helvetica,sans-Serif" font-size="10.00">MIDI_Interface::sendImpl</text>
</a>
</g>
</g>
<!-- Node3&#45;&gt;Node4 -->
<g id="edge4" class="edge"><title>Node3&#45;&gt;Node4</title>
<path fill="none" stroke="midnightblue" d="M265.26,-113.047C289.323,-119.563 321.409,-128.251 347.341,-135.272"/>
<polygon fill="midnightblue" stroke="midnightblue" points="346.742,-138.736 357.309,-137.971 348.571,-131.979 346.742,-138.736"/>
</g>
<!-- Node5 -->
<g id="node6" class="node"><title>Node5</title>
<g id="a_node6"><a xlink:href="../../d3/d10/classMIDICNChannelAddress.html#a21771509a07a1429ac0109ecbc84b697" target="_top" xlink:title="Get the channel [1, 16].">
<polygon fill="white" stroke="black" points="331,-88.5 331,-118.5 456,-118.5 456,-88.5 331,-88.5"/>
<text text-anchor="start" x="339" y="-106.5" font-family="Helvetica,sans-Serif" font-size="10.00">MIDICNChannelAddress</text>
<text text-anchor="middle" x="393.5" y="-95.5" font-family="Helvetica,sans-Serif" font-size="10.00">::getChannel</text>
</a>
</g>
</g>
<!-- Node3&#45;&gt;Node5 -->
<g id="edge5" class="edge"><title>Node3&#45;&gt;Node5</title>
<path fill="none" stroke="midnightblue" d="M291.434,-103.5C301.04,-103.5 311.039,-103.5 320.849,-103.5"/>
<polygon fill="midnightblue" stroke="midnightblue" points="320.979,-107 330.979,-103.5 320.979,-100 320.979,-107"/>
</g>
<!-- Node6 -->
<g id="node7" class="node"><title>Node6</title>
<g id="a_node7"><a xlink:href="../../d2/d48/classChannel.html#aaaf93f5670acdabd82a82debabdf6b52" target="_top" xlink:title="Get the channel as an integer.">
<polygon fill="white" stroke="black" points="347.5,-50 347.5,-69 439.5,-69 439.5,-50 347.5,-50"/>
<text text-anchor="middle" x="393.5" y="-57" font-family="Helvetica,sans-Serif" font-size="10.00">Channel::getRaw</text>
</a>
</g>
</g>
<!-- Node3&#45;&gt;Node6 -->
<g id="edge6" class="edge"><title>Node3&#45;&gt;Node6</title>
<path fill="none" stroke="midnightblue" d="M265.26,-93.9527C289.323,-87.4373 321.409,-78.7492 347.341,-71.7278"/>
<polygon fill="midnightblue" stroke="midnightblue" points="348.571,-75.0207 357.309,-69.0287 346.742,-68.264 348.571,-75.0207"/>
</g>
<!-- Node7 -->
<g id="node8" class="node"><title>Node7</title>
<g id="a_node8"><a xlink:href="../../d3/d10/classMIDICNChannelAddress.html#a65bea05cbf038e58d55b36955a2d2b1b" target="_top" xlink:title="Get the address [0, 127].">
<polygon fill="white" stroke="black" points="331,-0.5 331,-30.5 456,-30.5 456,-0.5 331,-0.5"/>
<text text-anchor="start" x="339" y="-18.5" font-family="Helvetica,sans-Serif" font-size="10.00">MIDICNChannelAddress</text>
<text text-anchor="middle" x="393.5" y="-7.5" font-family="Helvetica,sans-Serif" font-size="10.00">::getAddress</text>
</a>
</g>
</g>
<!-- Node3&#45;&gt;Node7 -->
<g id="edge7" class="edge"><title>Node3&#45;&gt;Node7</title>
<path fill="none" stroke="midnightblue" d="M242.959,-93.8058C261.075,-80.5575 295.317,-56.6066 327,-40.5 331.015,-38.4592 335.237,-36.486 339.523,-34.6036"/>
<polygon fill="midnightblue" stroke="midnightblue" points="341.092,-37.7407 348.953,-30.6367 338.378,-31.2884 341.092,-37.7407"/>
</g>
</g>
</svg>
