<?xml version="1.0" encoding="UTF-8" standalone="no"?>
<!DOCTYPE svg PUBLIC "-//W3C//DTD SVG 1.1//EN"
 "http://www.w3.org/Graphics/SVG/1.1/DTD/svg11.dtd">
<!-- Generated by graphviz version 2.38.0 (20140413.2041)
 -->
<!-- Title: SysExBuffer::end Pages: 1 -->
<svg width="619pt" height="176pt"
 viewBox="0.00 0.00 619.00 175.50" xmlns="http://www.w3.org/2000/svg" xmlns:xlink="http://www.w3.org/1999/xlink">
<g id="graph0" class="graph" transform="scale(1 1) rotate(0) translate(4 171.5)">
<title>SysExBuffer::end</title>
<polygon fill="white" stroke="none" points="-4,4 -4,-171.5 615,-171.5 615,4 -4,4"/>
<!-- Node12 -->
<g id="node1" class="node"><title>Node12</title>
<g id="a_node1"><a xlink:title="Finish the current SysEx message.">
<polygon fill="#bfbfbf" stroke="black" points="517,-52.5 517,-71.5 611,-71.5 611,-52.5 517,-52.5"/>
<text text-anchor="middle" x="564" y="-59.5" font-family="Helvetica,sans-Serif" font-size="10.00">SysExBuffer::end</text>
</a>
</g>
</g>
<!-- Node13 -->
<g id="node2" class="node"><title>Node13</title>
<g id="a_node2"><a xlink:href="../../d0/d0d/classSerialMIDI__Parser.html#a88204d0c18b9efb220513dfa10c9c259" target="_top" xlink:title=" ">
<polygon fill="white" stroke="black" points="357.5,-72 357.5,-102 460.5,-102 460.5,-72 357.5,-72"/>
<text text-anchor="start" x="365.5" y="-90" font-family="Helvetica,sans-Serif" font-size="10.00">SerialMIDI_Parser::</text>
<text text-anchor="middle" x="409" y="-79" font-family="Helvetica,sans-Serif" font-size="10.00">endSysEx</text>
</a>
</g>
</g>
<!-- Node12&#45;&gt;Node13 -->
<g id="edge1" class="edge"><title>Node12&#45;&gt;Node13</title>
<path fill="none" stroke="midnightblue" d="M506.497,-71.2326C491.488,-73.685 475.375,-76.3179 460.697,-78.7162"/>
<polygon fill="midnightblue" stroke="midnightblue" points="507.375,-74.6355 516.68,-69.5687 506.246,-67.7272 507.375,-74.6355"/>
</g>
<!-- Node18 -->
<g id="node7" class="node"><title>Node18</title>
<g id="a_node7"><a xlink:href="../../db/db0/classUSBMIDI__Parser.html#ae61832c9768b95ccda2c77c2b1162763" target="_top" xlink:title=" ">
<polygon fill="white" stroke="black" points="337,-27.5 337,-46.5 481,-46.5 481,-27.5 337,-27.5"/>
<text text-anchor="middle" x="409" y="-34.5" font-family="Helvetica,sans-Serif" font-size="10.00">USBMIDI_Parser::endSysEx</text>
</a>
</g>
</g>
<!-- Node12&#45;&gt;Node18 -->
<g id="edge6" class="edge"><title>Node12&#45;&gt;Node18</title>
<path fill="none" stroke="midnightblue" d="M506.454,-52.7604C494.031,-50.7305 480.853,-48.5773 468.36,-46.536"/>
<polygon fill="midnightblue" stroke="midnightblue" points="506.246,-56.2728 516.68,-54.4313 507.375,-49.3645 506.246,-56.2728"/>
</g>
<!-- Node14 -->
<g id="node3" class="node"><title>Node14</title>
<g id="a_node3"><a xlink:href="../../d0/d0d/classSerialMIDI__Parser.html#add28e4338eca6dc5b9f5f97320fa38a2" target="_top" xlink:title=" ">
<polygon fill="white" stroke="black" points="188,-84 188,-114 291,-114 291,-84 188,-84"/>
<text text-anchor="start" x="196" y="-102" font-family="Helvetica,sans-Serif" font-size="10.00">SerialMIDI_Parser::</text>
<text text-anchor="middle" x="239.5" y="-91" font-family="Helvetica,sans-Serif" font-size="10.00">parse</text>
</a>
</g>
</g>
<!-- Node13&#45;&gt;Node14 -->
<g id="edge2" class="edge"><title>Node13&#45;&gt;Node14</title>
<path fill="none" stroke="midnightblue" d="M347.234,-91.3534C328.79,-92.6748 308.733,-94.1116 291.038,-95.3794"/>
<polygon fill="midnightblue" stroke="midnightblue" points="347.566,-94.8387 357.29,-90.633 347.065,-87.8566 347.566,-94.8387"/>
</g>
<!-- Node15 -->
<g id="node4" class="node"><title>Node15</title>
<g id="a_node4"><a xlink:href="../../d0/d89/classBluetoothMIDI__Interface.html#a909f59e5057d1599122a66aaf937ea07" target="_top" xlink:title=" ">
<polygon fill="white" stroke="black" points="9.5,-137 9.5,-167 132.5,-167 132.5,-137 9.5,-137"/>
<text text-anchor="start" x="17.5" y="-155" font-family="Helvetica,sans-Serif" font-size="10.00">BluetoothMIDI_Interface</text>
<text text-anchor="middle" x="71" y="-144" font-family="Helvetica,sans-Serif" font-size="10.00">::parse</text>
</a>
</g>
</g>
<!-- Node14&#45;&gt;Node15 -->
<g id="edge3" class="edge"><title>Node14&#45;&gt;Node15</title>
<path fill="none" stroke="midnightblue" d="M181.509,-117.141C161.273,-123.583 138.732,-130.758 119.385,-136.916"/>
<polygon fill="midnightblue" stroke="midnightblue" points="182.766,-120.414 191.233,-114.046 180.643,-113.744 182.766,-120.414"/>
</g>
<!-- Node16 -->
<g id="node5" class="node"><title>Node16</title>
<g id="a_node5"><a xlink:href="../../d8/d0b/classStreamDebugMIDI__Interface.html#a0698fb21eb090c6054b1c8547844c2fb" target="_top" xlink:title=" ">
<polygon fill="white" stroke="black" points="0,-88 0,-118 142,-118 142,-88 0,-88"/>
<text text-anchor="start" x="8" y="-106" font-family="Helvetica,sans-Serif" font-size="10.00">StreamDebugMIDI_Interface</text>
<text text-anchor="middle" x="71" y="-95" font-family="Helvetica,sans-Serif" font-size="10.00">::read</text>
</a>
</g>
</g>
<!-- Node14&#45;&gt;Node16 -->
<g id="edge4" class="edge"><title>Node14&#45;&gt;Node16</title>
<path fill="none" stroke="midnightblue" d="M177.33,-100.47C165.891,-100.744 153.852,-101.034 142.166,-101.314"/>
<polygon fill="midnightblue" stroke="midnightblue" points="177.727,-103.961 187.64,-100.222 177.559,-96.9631 177.727,-103.961"/>
</g>
<!-- Node17 -->
<g id="node6" class="node"><title>Node17</title>
<g id="a_node6"><a xlink:href="../../d3/dc3/classStreamMIDI__Interface.html#a16f99ed3ce5ed201fdf224f5d061f32a" target="_top" xlink:title=" ">
<polygon fill="white" stroke="black" points="14.5,-39 14.5,-69 127.5,-69 127.5,-39 14.5,-39"/>
<text text-anchor="start" x="22.5" y="-57" font-family="Helvetica,sans-Serif" font-size="10.00">StreamMIDI_Interface</text>
<text text-anchor="middle" x="71" y="-46" font-family="Helvetica,sans-Serif" font-size="10.00">::read</text>
</a>
</g>
</g>
<!-- Node14&#45;&gt;Node17 -->
<g id="edge5" class="edge"><title>Node14&#45;&gt;Node17</title>
<path fill="none" stroke="midnightblue" d="M177.666,-82.5584C161.351,-78.1488 143.794,-73.4038 127.768,-69.0723"/>
<polygon fill="midnightblue" stroke="midnightblue" points="177.073,-86.0236 187.64,-85.254 178.899,-79.2661 177.073,-86.0236"/>
</g>
<!-- Node19 -->
<g id="node8" class="node"><title>Node19</title>
<g id="a_node8"><a xlink:href="../../db/db0/classUSBMIDI__Parser.html#a4954fa510842a41e2f4aef0c31660b92" target="_top" xlink:title=" ">
<polygon fill="white" stroke="black" points="178,-24.5 178,-43.5 301,-43.5 301,-24.5 178,-24.5"/>
<text text-anchor="middle" x="239.5" y="-31.5" font-family="Helvetica,sans-Serif" font-size="10.00">USBMIDI_Parser::parse</text>
</a>
</g>
</g>
<!-- Node18&#45;&gt;Node19 -->
<g id="edge7" class="edge"><title>Node18&#45;&gt;Node19</title>
<path fill="none" stroke="midnightblue" d="M326.822,-35.5461C318.149,-35.3907 309.438,-35.2347 301.064,-35.0847"/>
<polygon fill="midnightblue" stroke="midnightblue" points="326.904,-39.048 336.965,-35.7277 327.029,-32.0491 326.904,-39.048"/>
</g>
<!-- Node20 -->
<g id="node9" class="node"><title>Node20</title>
<g id="a_node9"><a xlink:href="../../de/d05/classUSBMIDI__Interface.html#a03c8b16e5cb1c044c1b7bcf8cb1b464e" target="_top" xlink:title=" ">
<polygon fill="white" stroke="black" points="7,-0.5 7,-19.5 135,-19.5 135,-0.5 7,-0.5"/>
<text text-anchor="middle" x="71" y="-7.5" font-family="Helvetica,sans-Serif" font-size="10.00">USBMIDI_Interface::read</text>
</a>
</g>
</g>
<!-- Node19&#45;&gt;Node20 -->
<g id="edge8" class="edge"><title>Node19&#45;&gt;Node20</title>
<path fill="none" stroke="midnightblue" d="M167.983,-23.8354C157.048,-22.2592 145.813,-20.6396 135.056,-19.0891"/>
<polygon fill="midnightblue" stroke="midnightblue" points="167.522,-27.305 177.919,-25.2676 168.52,-20.3766 167.522,-27.305"/>
</g>
</g>
</svg>
