<?xml version="1.0" encoding="UTF-8" standalone="no"?>
<!DOCTYPE svg PUBLIC "-//W3C//DTD SVG 1.1//EN"
 "http://www.w3.org/Graphics/SVG/1.1/DTD/svg11.dtd">
<!-- Generated by graphviz version 2.38.0 (20140413.2041)
 -->
<!-- Title: MIDIButtonMatrix&lt; sendOn, sendOff, nb_rows, nb_cols &gt; Pages: 1 -->
<svg width="268pt" height="722pt"
 viewBox="0.00 0.00 268.00 722.00" xmlns="http://www.w3.org/2000/svg" xmlns:xlink="http://www.w3.org/1999/xlink">
<g id="graph0" class="graph" transform="scale(1 1) rotate(0) translate(4 718)">
<title>MIDIButtonMatrix&lt; sendOn, sendOff, nb_rows, nb_cols &gt;</title>
<polygon fill="white" stroke="none" points="-4,4 -4,-718 264,-718 264,4 -4,4"/>
<!-- Node0 -->
<g id="node1" class="node"><title>Node0</title>
<g id="a_node1"><a xlink:title="MIDIButtonMatrix.">
<polygon fill="#bfbfbf" stroke="black" points="60.5,-0.5 60.5,-112.5 206.5,-112.5 206.5,-0.5 60.5,-0.5"/>
<text text-anchor="start" x="68.5" y="-100.5" font-family="Helvetica,sans-Serif" font-size="10.00">MIDIButtonMatrix&lt; sendOn,</text>
<text text-anchor="middle" x="133.5" y="-89.5" font-family="Helvetica,sans-Serif" font-size="10.00"> sendOff, nb_rows, nb_cols &gt;</text>
<polyline fill="none" stroke="black" points="60.5,-82.5 206.5,-82.5 "/>
<text text-anchor="start" x="68.5" y="-70.5" font-family="Helvetica,sans-Serif" font-size="10.00">&#45; addresses</text>
<text text-anchor="start" x="68.5" y="-59.5" font-family="Helvetica,sans-Serif" font-size="10.00">&#45; baseChannel</text>
<polyline fill="none" stroke="black" points="60.5,-52.5 206.5,-52.5 "/>
<text text-anchor="start" x="68.5" y="-40.5" font-family="Helvetica,sans-Serif" font-size="10.00">+ begin()</text>
<text text-anchor="start" x="68.5" y="-29.5" font-family="Helvetica,sans-Serif" font-size="10.00">+ update()</text>
<text text-anchor="start" x="68.5" y="-18.5" font-family="Helvetica,sans-Serif" font-size="10.00"># MIDIButtonMatrix()</text>
<text text-anchor="start" x="68.5" y="-7.5" font-family="Helvetica,sans-Serif" font-size="10.00">&#45; onButtonChanged()</text>
</a>
</g>
</g>
<!-- Node1 -->
<g id="node2" class="node"><title>Node1</title>
<g id="a_node2"><a xlink:href="../../dc/dc9/structMIDIOutputElement.html" target="_top" xlink:title=" ">
<polygon fill="white" stroke="black" points="16.5,-221 16.5,-278 120.5,-278 120.5,-221 16.5,-221"/>
<text text-anchor="middle" x="68.5" y="-266" font-family="Helvetica,sans-Serif" font-size="10.00">MIDIOutputElement</text>
<polyline fill="none" stroke="black" points="16.5,-259 120.5,-259 "/>
<text text-anchor="middle" x="68.5" y="-247" font-family="Helvetica,sans-Serif" font-size="10.00"> </text>
<polyline fill="none" stroke="black" points="16.5,-240 120.5,-240 "/>
<text text-anchor="middle" x="68.5" y="-228" font-family="Helvetica,sans-Serif" font-size="10.00"> </text>
</a>
</g>
</g>
<!-- Node1&#45;&gt;Node0 -->
<g id="edge1" class="edge"><title>Node1&#45;&gt;Node0</title>
<path fill="none" stroke="midnightblue" d="M81.2932,-210.908C90.8419,-182.849 104.037,-144.077 114.772,-112.532"/>
<polygon fill="none" stroke="midnightblue" points="77.8599,-210.133 77.9516,-220.727 84.4867,-212.388 77.8599,-210.133"/>
</g>
<!-- Node2 -->
<g id="node3" class="node"><title>Node2</title>
<g id="a_node3"><a xlink:href="../../d5/de0/classUpdatable.html" target="_top" xlink:title=" ">
<polygon fill="white" stroke="black" points="27.5,-386.5 27.5,-597.5 109.5,-597.5 109.5,-386.5 27.5,-386.5"/>
<text text-anchor="middle" x="68.5" y="-585.5" font-family="Helvetica,sans-Serif" font-size="10.00">Updatable&lt;&gt;</text>
<polyline fill="none" stroke="black" points="27.5,-578.5 109.5,-578.5 "/>
<text text-anchor="start" x="35.5" y="-566.5" font-family="Helvetica,sans-Serif" font-size="10.00">&#45; updatables</text>
<polyline fill="none" stroke="black" points="27.5,-559.5 109.5,-559.5 "/>
<text text-anchor="start" x="35.5" y="-547.5" font-family="Helvetica,sans-Serif" font-size="10.00">+ Updatable()</text>
<text text-anchor="start" x="35.5" y="-536.5" font-family="Helvetica,sans-Serif" font-size="10.00">+ ~Updatable()</text>
<text text-anchor="start" x="35.5" y="-525.5" font-family="Helvetica,sans-Serif" font-size="10.00">+ update()</text>
<text text-anchor="start" x="35.5" y="-514.5" font-family="Helvetica,sans-Serif" font-size="10.00">+ begin()</text>
<text text-anchor="start" x="35.5" y="-503.5" font-family="Helvetica,sans-Serif" font-size="10.00">+ enable()</text>
<text text-anchor="start" x="35.5" y="-492.5" font-family="Helvetica,sans-Serif" font-size="10.00">+ disable()</text>
<text text-anchor="start" x="35.5" y="-481.5" font-family="Helvetica,sans-Serif" font-size="10.00">+ isEnabled()</text>
<text text-anchor="start" x="35.5" y="-470.5" font-family="Helvetica,sans-Serif" font-size="10.00">+ enable()</text>
<text text-anchor="start" x="35.5" y="-459.5" font-family="Helvetica,sans-Serif" font-size="10.00">+ enable()</text>
<text text-anchor="start" x="35.5" y="-448.5" font-family="Helvetica,sans-Serif" font-size="10.00">+ enable()</text>
<text text-anchor="start" x="35.5" y="-437.5" font-family="Helvetica,sans-Serif" font-size="10.00">+ disable()</text>
<text text-anchor="start" x="35.5" y="-426.5" font-family="Helvetica,sans-Serif" font-size="10.00">+ disable()</text>
<text text-anchor="start" x="35.5" y="-415.5" font-family="Helvetica,sans-Serif" font-size="10.00">+ disable()</text>
<text text-anchor="start" x="35.5" y="-404.5" font-family="Helvetica,sans-Serif" font-size="10.00">+ beginAll()</text>
<text text-anchor="start" x="35.5" y="-393.5" font-family="Helvetica,sans-Serif" font-size="10.00">+ updateAll()</text>
</a>
</g>
</g>
<!-- Node2&#45;&gt;Node1 -->
<g id="edge2" class="edge"><title>Node2&#45;&gt;Node1</title>
<path fill="none" stroke="midnightblue" d="M68.5,-375.959C68.5,-339.505 68.5,-302.411 68.5,-278.112"/>
<polygon fill="none" stroke="midnightblue" points="65.0001,-376.213 68.5,-386.213 72.0001,-376.213 65.0001,-376.213"/>
</g>
<!-- Node3 -->
<g id="node4" class="node"><title>Node3</title>
<g id="a_node4"><a xlink:href="../../d4/d23/classDoublyLinkable.html" target="_top" xlink:title=" ">
<polygon fill="white" stroke="black" points="0,-634.5 0,-713.5 137,-713.5 137,-634.5 0,-634.5"/>
<text text-anchor="start" x="8" y="-701.5" font-family="Helvetica,sans-Serif" font-size="10.00">DoublyLinkable&lt; Updatable</text>
<text text-anchor="middle" x="68.5" y="-690.5" font-family="Helvetica,sans-Serif" font-size="10.00">&lt; NormalUpdatable &gt; &gt;</text>
<polyline fill="none" stroke="black" points="0,-683.5 137,-683.5 "/>
<text text-anchor="start" x="8" y="-671.5" font-family="Helvetica,sans-Serif" font-size="10.00"># next</text>
<text text-anchor="start" x="8" y="-660.5" font-family="Helvetica,sans-Serif" font-size="10.00"># previous</text>
<polyline fill="none" stroke="black" points="0,-653.5 137,-653.5 "/>
<text text-anchor="start" x="8" y="-641.5" font-family="Helvetica,sans-Serif" font-size="10.00"># ~DoublyLinkable()</text>
</a>
</g>
</g>
<!-- Node3&#45;&gt;Node2 -->
<g id="edge3" class="edge"><title>Node3&#45;&gt;Node2</title>
<path fill="none" stroke="midnightblue" d="M68.5,-624.16C68.5,-615.809 68.5,-606.856 68.5,-597.694"/>
<polygon fill="none" stroke="midnightblue" points="65.0001,-624.385 68.5,-634.385 72.0001,-624.386 65.0001,-624.385"/>
</g>
<!-- Node4 -->
<g id="node5" class="node"><title>Node4</title>
<g id="a_node5"><a xlink:href="../../d8/d6c/classButtonMatrix.html" target="_top" xlink:title="A MIDI_Control_Element that reads the states of a button matrix and sends it over MIDI.">
<polygon fill="white" stroke="black" points="139,-149.5 139,-349.5 260,-349.5 260,-149.5 139,-149.5"/>
<text text-anchor="start" x="147" y="-337.5" font-family="Helvetica,sans-Serif" font-size="10.00">ButtonMatrix&lt; nb_rows,</text>
<text text-anchor="middle" x="199.5" y="-326.5" font-family="Helvetica,sans-Serif" font-size="10.00"> nb_cols &gt;</text>
<polyline fill="none" stroke="black" points="139,-319.5 260,-319.5 "/>
<text text-anchor="start" x="147" y="-307.5" font-family="Helvetica,sans-Serif" font-size="10.00">&#45; prevRefresh</text>
<text text-anchor="start" x="147" y="-296.5" font-family="Helvetica,sans-Serif" font-size="10.00">&#45; prevStates</text>
<text text-anchor="start" x="147" y="-285.5" font-family="Helvetica,sans-Serif" font-size="10.00">&#45; rowPins</text>
<text text-anchor="start" x="147" y="-274.5" font-family="Helvetica,sans-Serif" font-size="10.00">&#45; colPins</text>
<polyline fill="none" stroke="black" points="139,-267.5 260,-267.5 "/>
<text text-anchor="start" x="147" y="-255.5" font-family="Helvetica,sans-Serif" font-size="10.00">+ ButtonMatrix()</text>
<text text-anchor="start" x="147" y="-244.5" font-family="Helvetica,sans-Serif" font-size="10.00">+ ~ButtonMatrix()</text>
<text text-anchor="start" x="147" y="-233.5" font-family="Helvetica,sans-Serif" font-size="10.00">+ begin()</text>
<text text-anchor="start" x="147" y="-222.5" font-family="Helvetica,sans-Serif" font-size="10.00">+ refresh()</text>
<text text-anchor="start" x="147" y="-211.5" font-family="Helvetica,sans-Serif" font-size="10.00">&#45; onButtonChanged()</text>
<text text-anchor="start" x="147" y="-200.5" font-family="Helvetica,sans-Serif" font-size="10.00">&#45; getPrevState()</text>
<text text-anchor="start" x="147" y="-189.5" font-family="Helvetica,sans-Serif" font-size="10.00">&#45; setPrevState()</text>
<text text-anchor="start" x="147" y="-178.5" font-family="Helvetica,sans-Serif" font-size="10.00">&#45; positionToBits()</text>
<text text-anchor="start" x="147" y="-167.5" font-family="Helvetica,sans-Serif" font-size="10.00">&#45; bitsToIndex()</text>
<text text-anchor="start" x="147" y="-156.5" font-family="Helvetica,sans-Serif" font-size="10.00">&#45; bitsToBitmask()</text>
</a>
</g>
</g>
<!-- Node4&#45;&gt;Node0 -->
<g id="edge4" class="edge"><title>Node4&#45;&gt;Node0</title>
<path fill="none" stroke="midnightblue" d="M161.904,-139.7C158.715,-130.471 155.585,-121.411 152.635,-112.874"/>
<polygon fill="none" stroke="midnightblue" points="158.669,-141.055 165.243,-149.364 165.285,-138.769 158.669,-141.055"/>
</g>
</g>
</svg>
