<?xml version="1.0" encoding="UTF-8" standalone="no"?>
<!DOCTYPE svg PUBLIC "-//W3C//DTD SVG 1.1//EN"
 "http://www.w3.org/Graphics/SVG/1.1/DTD/svg11.dtd">
<!-- Generated by graphviz version 2.38.0 (20140413.2041)
 -->
<!-- Title: hcat Pages: 1 -->
<svg width="768pt" height="343pt"
 viewBox="0.00 0.00 768.00 342.77" xmlns="http://www.w3.org/2000/svg" xmlns:xlink="http://www.w3.org/1999/xlink">
<g id="graph0" class="graph" transform="scale(1 1) rotate(0) translate(4 338.774)">
<title>hcat</title>
<polygon fill="white" stroke="none" points="-4,4 -4,-338.774 764,-338.774 764,4 -4,4"/>
<!-- Node89 -->
<g id="node1" class="node"><title>Node89</title>
<g id="a_node1"><a xlink:title=" ">
<polygon fill="#bfbfbf" stroke="black" points="725,-136.5 725,-155.5 760,-155.5 760,-136.5 725,-136.5"/>
<text text-anchor="middle" x="742.5" y="-143.5" font-family="Helvetica,sans-Serif" font-size="10.00">hcat</text>
</a>
</g>
</g>
<!-- Node90 -->
<g id="node2" class="node"><title>Node90</title>
<g id="a_node2"><a xlink:href="../../d9/db6/DLQI_8hpp.html#a9ccd0fcab076d6ce6d15d1e406cc20bf" target="_top" xlink:title=" ">
<polygon fill="white" stroke="black" points="246,-289.5 246,-308.5 278,-308.5 278,-289.5 246,-289.5"/>
<text text-anchor="middle" x="262" y="-296.5" font-family="Helvetica,sans-Serif" font-size="10.00">dlqi</text>
</a>
</g>
</g>
<!-- Node89&#45;&gt;Node90 -->
<g id="edge1" class="edge"><title>Node89&#45;&gt;Node90</title>
<path fill="none" stroke="midnightblue" d="M740.228,-165.711C737.101,-196.01 726.3,-253.316 689,-280 556.536,-374.763 337.133,-320.684 278.045,-303.6"/>
<polygon fill="midnightblue" stroke="midnightblue" points="743.732,-165.801 741.089,-155.541 736.757,-165.21 743.732,-165.801"/>
</g>
<!-- Node91 -->
<g id="node3" class="node"><title>Node91</title>
<g id="a_node3"><a xlink:href="../../d1/d8b/DLQR_8hpp.html#a8b2180fee16d2b9e2d195b6ea4805c99" target="_top" xlink:title=" ">
<polygon fill="white" stroke="black" points="603.5,-251.5 603.5,-270.5 638.5,-270.5 638.5,-251.5 603.5,-251.5"/>
<text text-anchor="middle" x="621" y="-258.5" font-family="Helvetica,sans-Serif" font-size="10.00">dare</text>
</a>
</g>
</g>
<!-- Node89&#45;&gt;Node91 -->
<g id="edge2" class="edge"><title>Node89&#45;&gt;Node91</title>
<path fill="none" stroke="midnightblue" d="M735.956,-165.305C728.704,-187.111 713.899,-222.138 689,-242 674.444,-253.611 653.155,-258.128 638.501,-259.885"/>
<polygon fill="midnightblue" stroke="midnightblue" points="739.37,-166.11 738.997,-155.522 732.686,-164.033 739.37,-166.11"/>
</g>
<!-- Node99 -->
<g id="node11" class="node"><title>Node99</title>
<g id="a_node11"><a xlink:href="../../dd/d92/structDrone.html#ae22fa6ad58e72b145820cae156b8ee4f" target="_top" xlink:title="TODO.">
<polygon fill="white" stroke="black" points="553,-202 553,-232 689,-232 689,-202 553,-202"/>
<text text-anchor="start" x="561" y="-220" font-family="Helvetica,sans-Serif" font-size="10.00">Drone::getAttitudeObserver</text>
<text text-anchor="middle" x="621" y="-209" font-family="Helvetica,sans-Serif" font-size="10.00">MatrixL</text>
</a>
</g>
</g>
<!-- Node89&#45;&gt;Node99 -->
<g id="edge11" class="edge"><title>Node89&#45;&gt;Node99</title>
<path fill="none" stroke="midnightblue" d="M725.661,-163.171C715.868,-172.98 702.602,-184.901 689,-193 683.373,-196.35 677.205,-199.342 670.96,-201.98"/>
<polygon fill="midnightblue" stroke="midnightblue" points="728.282,-165.495 732.711,-155.87 723.247,-160.632 728.282,-165.495"/>
</g>
<!-- Node100 -->
<g id="node12" class="node"><title>Node100</title>
<g id="a_node12"><a xlink:href="../../dd/d92/structDrone.html#aa095b25c500abb73153989c70f4d9e43" target="_top" xlink:title="TODO.">
<polygon fill="white" stroke="black" points="553.5,-153 553.5,-183 688.5,-183 688.5,-153 553.5,-153"/>
<text text-anchor="start" x="561.5" y="-171" font-family="Helvetica,sans-Serif" font-size="10.00">Drone::getAltitudeObserver</text>
<text text-anchor="middle" x="621" y="-160" font-family="Helvetica,sans-Serif" font-size="10.00">MatrixL</text>
</a>
</g>
</g>
<!-- Node89&#45;&gt;Node100 -->
<g id="edge12" class="edge"><title>Node89&#45;&gt;Node100</title>
<path fill="none" stroke="midnightblue" d="M714.87,-150.903C706.947,-152.361 697.889,-154.029 688.607,-155.738"/>
<polygon fill="midnightblue" stroke="midnightblue" points="715.683,-154.312 724.884,-149.059 714.416,-147.428 715.683,-154.312"/>
</g>
<!-- Node101 -->
<g id="node13" class="node"><title>Node101</title>
<g id="a_node13"><a xlink:href="../../d0/d83/LQR_8hpp.html#a53780408b0208d123895221aadac10f6" target="_top" xlink:title=" ">
<polygon fill="white" stroke="black" points="606,-114.5 606,-133.5 636,-133.5 636,-114.5 606,-114.5"/>
<text text-anchor="middle" x="621" y="-121.5" font-family="Helvetica,sans-Serif" font-size="10.00">are</text>
</a>
</g>
</g>
<!-- Node89&#45;&gt;Node101 -->
<g id="edge13" class="edge"><title>Node89&#45;&gt;Node101</title>
<path fill="none" stroke="midnightblue" d="M714.884,-141.1C690.585,-136.627 655.594,-130.185 636.237,-126.621"/>
<polygon fill="midnightblue" stroke="midnightblue" points="714.416,-144.572 724.884,-142.941 715.683,-137.688 714.416,-144.572"/>
</g>
<!-- Node103 -->
<g id="node15" class="node"><title>Node103</title>
<g id="a_node15"><a xlink:href="../../d7/ddc/LQRController_8hpp.html#a935faafd0c59cd8abaa3c5bcc53d638c" target="_top" xlink:title=" ">
<polygon fill="white" stroke="black" points="589.5,-76.5 589.5,-95.5 652.5,-95.5 652.5,-76.5 589.5,-76.5"/>
<text text-anchor="middle" x="621" y="-83.5" font-family="Helvetica,sans-Serif" font-size="10.00">calculateG</text>
</a>
</g>
</g>
<!-- Node89&#45;&gt;Node103 -->
<g id="edge15" class="edge"><title>Node89&#45;&gt;Node103</title>
<path fill="none" stroke="midnightblue" d="M723.795,-129.35C714.136,-121.029 701.602,-111.396 689,-105 677.68,-99.2542 664.374,-95.0255 652.616,-92.0359"/>
<polygon fill="midnightblue" stroke="midnightblue" points="721.684,-132.157 731.473,-136.211 726.348,-126.938 721.684,-132.157"/>
</g>
<!-- Node108 -->
<g id="node20" class="node"><title>Node108</title>
<g id="a_node20"><a xlink:href="../../d6/dba/plot-simulation_2main_8cpp.html#abf9e6b7e6f15df4b525a2e7705ba3089" target="_top" xlink:title=" ">
<polygon fill="white" stroke="black" points="602,-38.5 602,-57.5 640,-57.5 640,-38.5 602,-38.5"/>
<text text-anchor="middle" x="621" y="-45.5" font-family="Helvetica,sans-Serif" font-size="10.00">main</text>
</a>
</g>
</g>
<!-- Node89&#45;&gt;Node108 -->
<g id="edge21" class="edge"><title>Node89&#45;&gt;Node108</title>
<path fill="none" stroke="midnightblue" d="M733.667,-127.124C725.231,-109.079 710.117,-82.4059 689,-67 674.642,-56.5248 654.681,-51.8149 640.287,-49.7032"/>
<polygon fill="midnightblue" stroke="midnightblue" points="730.512,-128.642 737.761,-136.368 736.912,-125.807 730.512,-128.642"/>
</g>
<!-- Node109 -->
<g id="node21" class="node"><title>Node109</title>
<g id="a_node21"><a xlink:href="../../d9/d1c/Matrix_8hpp.html#aed5547ff2b72b0a4c0d8a37d6d6ce73f" target="_top" xlink:title=" ">
<polygon fill="white" stroke="black" points="603.5,-0.5 603.5,-19.5 638.5,-19.5 638.5,-0.5 603.5,-0.5"/>
<text text-anchor="middle" x="621" y="-7.5" font-family="Helvetica,sans-Serif" font-size="10.00">hcat</text>
</a>
</g>
</g>
<!-- Node89&#45;&gt;Node109 -->
<g id="edge22" class="edge"><title>Node89&#45;&gt;Node109</title>
<path fill="none" stroke="midnightblue" d="M737.997,-126.314C732.325,-100.249 718.626,-54.6026 689,-29 674.912,-16.8255 653.528,-12.4228 638.724,-10.8471"/>
<polygon fill="midnightblue" stroke="midnightblue" points="734.574,-127.047 739.96,-136.171 741.44,-125.68 734.574,-127.047"/>
</g>
<!-- Node92 -->
<g id="node4" class="node"><title>Node92</title>
<g id="a_node4"><a xlink:href="../../d1/d8b/DLQR_8hpp.html#ab8dcb1e59c9dc36c588cd927e69ebfbf" target="_top" xlink:title=" ">
<polygon fill="white" stroke="black" points="435.5,-251.5 435.5,-270.5 467.5,-270.5 467.5,-251.5 435.5,-251.5"/>
<text text-anchor="middle" x="451.5" y="-258.5" font-family="Helvetica,sans-Serif" font-size="10.00">dlqr</text>
</a>
</g>
</g>
<!-- Node91&#45;&gt;Node92 -->
<g id="edge3" class="edge"><title>Node91&#45;&gt;Node92</title>
<path fill="none" stroke="midnightblue" d="M593.191,-261C557.628,-261 496.045,-261 467.646,-261"/>
<polygon fill="midnightblue" stroke="midnightblue" points="593.327,-264.5 603.327,-261 593.327,-257.5 593.327,-264.5"/>
</g>
<!-- Node92&#45;&gt;Node90 -->
<g id="edge7" class="edge"><title>Node92&#45;&gt;Node90</title>
<path fill="none" stroke="midnightblue" d="M425.589,-266.049C386.103,-274.051 310.322,-289.409 278.099,-295.94"/>
<polygon fill="midnightblue" stroke="midnightblue" points="426.368,-269.462 435.473,-264.045 424.977,-262.602 426.368,-269.462"/>
</g>
<!-- Node93 -->
<g id="node5" class="node"><title>Node93</title>
<g id="a_node5"><a xlink:href="../../d5/d42/DLQE_8hpp.html#a82d9a71cea020c49aeae6fe03abee824" target="_top" xlink:title=" ">
<polygon fill="white" stroke="black" points="244.5,-251.5 244.5,-270.5 279.5,-270.5 279.5,-251.5 244.5,-251.5"/>
<text text-anchor="middle" x="262" y="-258.5" font-family="Helvetica,sans-Serif" font-size="10.00">dlqe</text>
</a>
</g>
</g>
<!-- Node92&#45;&gt;Node93 -->
<g id="edge4" class="edge"><title>Node92&#45;&gt;Node93</title>
<path fill="none" stroke="midnightblue" d="M425.252,-261C386.317,-261 312.675,-261 279.7,-261"/>
<polygon fill="midnightblue" stroke="midnightblue" points="425.473,-264.5 435.473,-261 425.473,-257.5 425.473,-264.5"/>
</g>
<!-- Node96 -->
<g id="node8" class="node"><title>Node96</title>
<g id="a_node8"><a xlink:href="../../dd/d92/structDrone.html#a8e91b27bb6fb787f6d4b2f2f55fda8c8" target="_top" xlink:title="Calculate the proportional LQR matrix for the attitude controller, given the weight matrices Q and R.">
<polygon fill="white" stroke="black" points="193,-202 193,-232 331,-232 331,-202 193,-202"/>
<text text-anchor="start" x="201" y="-220" font-family="Helvetica,sans-Serif" font-size="10.00">Drone::getAttitudeController</text>
<text text-anchor="middle" x="262" y="-209" font-family="Helvetica,sans-Serif" font-size="10.00">MatrixK</text>
</a>
</g>
</g>
<!-- Node92&#45;&gt;Node96 -->
<g id="edge8" class="edge"><title>Node92&#45;&gt;Node96</title>
<path fill="none" stroke="midnightblue" d="M425.727,-255.186C400.759,-249.328 361.181,-240.04 327.31,-232.091"/>
<polygon fill="midnightblue" stroke="midnightblue" points="424.938,-258.596 435.473,-257.474 426.537,-251.782 424.938,-258.596"/>
</g>
<!-- Node98 -->
<g id="node10" class="node"><title>Node98</title>
<g id="a_node10"><a xlink:href="../../dd/d92/structDrone.html#a4f8ed99e41302554872271632033bd8f" target="_top" xlink:title=" ">
<polygon fill="white" stroke="black" points="193.5,-163.5 193.5,-182.5 330.5,-182.5 330.5,-163.5 193.5,-163.5"/>
<text text-anchor="middle" x="262" y="-170.5" font-family="Helvetica,sans-Serif" font-size="10.00">Drone::getAltitudeController</text>
</a>
</g>
</g>
<!-- Node92&#45;&gt;Node98 -->
<g id="edge10" class="edge"><title>Node92&#45;&gt;Node98</title>
<path fill="none" stroke="midnightblue" d="M431.526,-244.986C412.206,-229.478 380.794,-206.399 350,-193 340.194,-188.733 329.354,-185.314 318.75,-182.595"/>
<polygon fill="midnightblue" stroke="midnightblue" points="429.311,-247.696 439.268,-251.318 433.743,-242.277 429.311,-247.696"/>
</g>
<!-- Node94 -->
<g id="node6" class="node"><title>Node94</title>
<g id="a_node6"><a xlink:href="../../dd/d92/structDrone.html#a20d03254bf01a399ecb78987ee88cbbe" target="_top" xlink:title="TODO.">
<polygon fill="white" stroke="black" points="1,-295 1,-325 137,-325 137,-295 1,-295"/>
<text text-anchor="start" x="9" y="-313" font-family="Helvetica,sans-Serif" font-size="10.00">Drone::getAttitudeObserver</text>
<text text-anchor="middle" x="69" y="-302" font-family="Helvetica,sans-Serif" font-size="10.00">MatrixL</text>
</a>
</g>
</g>
<!-- Node93&#45;&gt;Node94 -->
<g id="edge5" class="edge"><title>Node93&#45;&gt;Node94</title>
<path fill="none" stroke="midnightblue" d="M234.3,-266.356C217.032,-269.937 194.107,-274.91 174,-280 156.147,-284.519 136.722,-289.975 119.545,-294.987"/>
<polygon fill="midnightblue" stroke="midnightblue" points="235.151,-269.755 244.245,-264.318 233.746,-262.897 235.151,-269.755"/>
</g>
<!-- Node95 -->
<g id="node7" class="node"><title>Node95</title>
<g id="a_node7"><a xlink:href="../../dd/d92/structDrone.html#a119d5123b513d3bfac04a74ed9298af3" target="_top" xlink:title="TODO.">
<polygon fill="white" stroke="black" points="1.5,-246 1.5,-276 136.5,-276 136.5,-246 1.5,-246"/>
<text text-anchor="start" x="9.5" y="-264" font-family="Helvetica,sans-Serif" font-size="10.00">Drone::getAltitudeObserver</text>
<text text-anchor="middle" x="69" y="-253" font-family="Helvetica,sans-Serif" font-size="10.00">MatrixL</text>
</a>
</g>
</g>
<!-- Node93&#45;&gt;Node95 -->
<g id="edge6" class="edge"><title>Node93&#45;&gt;Node95</title>
<path fill="none" stroke="midnightblue" d="M234.143,-261C208.934,-261 170.195,-261 136.68,-261"/>
<polygon fill="midnightblue" stroke="midnightblue" points="234.384,-264.5 244.384,-261 234.384,-257.5 234.384,-264.5"/>
</g>
<!-- Node97 -->
<g id="node9" class="node"><title>Node97</title>
<g id="a_node9"><a xlink:href="../../dd/d92/structDrone.html#ad012f8821f543efbda9a917fb457187a" target="_top" xlink:title="Get the attitude controller given the LQR weight matrices Q and R.">
<polygon fill="white" stroke="black" points="0,-207.5 0,-226.5 138,-226.5 138,-207.5 0,-207.5"/>
<text text-anchor="middle" x="69" y="-214.5" font-family="Helvetica,sans-Serif" font-size="10.00">Drone::getAttitudeController</text>
</a>
</g>
</g>
<!-- Node96&#45;&gt;Node97 -->
<g id="edge9" class="edge"><title>Node96&#45;&gt;Node97</title>
<path fill="none" stroke="midnightblue" d="M182.722,-217C167.931,-217 152.569,-217 138.12,-217"/>
<polygon fill="midnightblue" stroke="midnightblue" points="182.854,-220.5 192.854,-217 182.853,-213.5 182.854,-220.5"/>
</g>
<!-- Node102 -->
<g id="node14" class="node"><title>Node102</title>
<g id="a_node14"><a xlink:href="../../d0/d83/LQR_8hpp.html#a71c319365e890ca038e8b9b026226826" target="_top" xlink:title=" ">
<polygon fill="white" stroke="black" points="437,-120.5 437,-139.5 466,-139.5 466,-120.5 437,-120.5"/>
<text text-anchor="middle" x="451.5" y="-127.5" font-family="Helvetica,sans-Serif" font-size="10.00">lqr</text>
</a>
</g>
</g>
<!-- Node101&#45;&gt;Node102 -->
<g id="edge14" class="edge"><title>Node101&#45;&gt;Node102</title>
<path fill="none" stroke="midnightblue" d="M595.674,-124.871C560.001,-126.149 494.662,-128.49 466.274,-129.507"/>
<polygon fill="midnightblue" stroke="midnightblue" points="595.851,-128.367 605.719,-124.512 595.6,-121.372 595.851,-128.367"/>
</g>
<!-- Node104 -->
<g id="node16" class="node"><title>Node104</title>
<g id="a_node16"><a xlink:href="../../d3/d2a/structDroneParamsAndMatrices.html#adacdec3d0bc26c93da462c407c282828" target="_top" xlink:title="Loads all system matrices and parameters from the respective files in the given folder.">
<polygon fill="white" stroke="black" points="386,-71 386,-101 517,-101 517,-71 386,-71"/>
<text text-anchor="start" x="394" y="-89" font-family="Helvetica,sans-Serif" font-size="10.00">DroneParamsAndMatrices</text>
<text text-anchor="middle" x="451.5" y="-78" font-family="Helvetica,sans-Serif" font-size="10.00">::load</text>
</a>
</g>
</g>
<!-- Node103&#45;&gt;Node104 -->
<g id="edge16" class="edge"><title>Node103&#45;&gt;Node104</title>
<path fill="none" stroke="midnightblue" d="M579.067,-86C560.412,-86 537.88,-86 517.028,-86"/>
<polygon fill="midnightblue" stroke="midnightblue" points="579.278,-89.5001 589.278,-86 579.278,-82.5001 579.278,-89.5001"/>
</g>
<!-- Node107 -->
<g id="node19" class="node"><title>Node107</title>
<g id="a_node19"><a xlink:href="../../d3/d2a/structDroneParamsAndMatrices.html#a627e49219d73ef81c073df3b82031cf6" target="_top" xlink:title="Calculate the equilibrium matrix G.">
<polygon fill="white" stroke="black" points="386,-22 386,-52 517,-52 517,-22 386,-22"/>
<text text-anchor="start" x="394" y="-40" font-family="Helvetica,sans-Serif" font-size="10.00">DroneParamsAndMatrices</text>
<text text-anchor="middle" x="451.5" y="-29" font-family="Helvetica,sans-Serif" font-size="10.00">::calculateG</text>
</a>
</g>
</g>
<!-- Node103&#45;&gt;Node107 -->
<g id="edge19" class="edge"><title>Node103&#45;&gt;Node107</title>
<path fill="none" stroke="midnightblue" d="M579.623,-74.6469C570.84,-72.1503 561.603,-69.5038 553,-67 536.478,-62.1917 518.46,-56.8453 502.3,-52.0133"/>
<polygon fill="midnightblue" stroke="midnightblue" points="578.713,-78.0267 589.288,-77.3865 580.622,-71.292 578.713,-78.0267"/>
</g>
<!-- Node105 -->
<g id="node17" class="node"><title>Node105</title>
<g id="a_node17"><a xlink:href="../../dd/d92/structDrone.html#a6b42deda4aba13c4fd56c6b95a21e2f0" target="_top" xlink:title="Create a drone, loading the parameters from a given path.">
<polygon fill="white" stroke="black" points="224.5,-76.5 224.5,-95.5 299.5,-95.5 299.5,-76.5 224.5,-76.5"/>
<text text-anchor="middle" x="262" y="-83.5" font-family="Helvetica,sans-Serif" font-size="10.00">Drone::Drone</text>
</a>
</g>
</g>
<!-- Node104&#45;&gt;Node105 -->
<g id="edge17" class="edge"><title>Node104&#45;&gt;Node105</title>
<path fill="none" stroke="midnightblue" d="M375.695,-86C349.563,-86 321.381,-86 299.736,-86"/>
<polygon fill="midnightblue" stroke="midnightblue" points="375.973,-89.5001 385.973,-86 375.973,-82.5001 375.973,-89.5001"/>
</g>
<!-- Node106 -->
<g id="node18" class="node"><title>Node106</title>
<g id="a_node18"><a xlink:href="../../dd/d2c/PyDrone_8hpp.html#aed0ee5ed76a43abda91eddf6407965d3" target="_top" xlink:title=" ">
<polygon fill="white" stroke="black" points="174,-33.5 174,-52.5 350,-52.5 350,-33.5 174,-33.5"/>
<text text-anchor="middle" x="262" y="-40.5" font-family="Helvetica,sans-Serif" font-size="10.00">PYBIND11_EMBEDDED_MODULE</text>
</a>
</g>
</g>
<!-- Node104&#45;&gt;Node106 -->
<g id="edge18" class="edge"><title>Node104&#45;&gt;Node106</title>
<path fill="none" stroke="midnightblue" d="M376.02,-68.9193C351.645,-63.3294 325.455,-57.3229 304.429,-52.501"/>
<polygon fill="midnightblue" stroke="midnightblue" points="375.444,-72.3779 385.973,-71.2018 377.009,-65.555 375.444,-72.3779"/>
</g>
<!-- Node107&#45;&gt;Node106 -->
<g id="edge20" class="edge"><title>Node107&#45;&gt;Node106</title>
<path fill="none" stroke="midnightblue" d="M375.815,-39.3899C367.384,-39.6597 358.737,-39.9364 350.165,-40.2107"/>
<polygon fill="midnightblue" stroke="midnightblue" points="376.09,-42.883 385.973,-39.0649 375.866,-35.8866 376.09,-42.883"/>
</g>
</g>
</svg>
