<?xml version="1.0" encoding="UTF-8" standalone="no"?>
<!DOCTYPE svg PUBLIC "-//W3C//DTD SVG 1.1//EN"
 "http://www.w3.org/Graphics/SVG/1.1/DTD/svg11.dtd">
<!-- Generated by graphviz version 2.38.0 (20140413.2041)
 -->
<!-- Title: Bank&lt; N &gt; Pages: 1 -->
<svg width="407pt" height="435pt"
 viewBox="0.00 0.00 407.00 435.00" xmlns="http://www.w3.org/2000/svg" xmlns:xlink="http://www.w3.org/1999/xlink">
<g id="graph0" class="graph" transform="scale(1 1) rotate(0) translate(4 431)">
<title>Bank&lt; N &gt;</title>
<polygon fill="white" stroke="none" points="-4,4 -4,-431 403,-431 403,4 -4,4"/>
<!-- Node1 -->
<g id="node1" class="node"><title>Node1</title>
<g id="a_node1"><a xlink:title="A class that groups Bankable BankableMIDIOutputs and BankableMIDIInput::s, and allows the user to cha...">
<polygon fill="#bfbfbf" stroke="black" points="151,-0.5 151,-90.5 216,-90.5 216,-0.5 151,-0.5"/>
<text text-anchor="middle" x="183.5" y="-78.5" font-family="Helvetica,sans-Serif" font-size="10.00">Bank&lt; N &gt;</text>
<polyline fill="none" stroke="black" points="151,-71.5 216,-71.5 "/>
<text text-anchor="middle" x="183.5" y="-59.5" font-family="Helvetica,sans-Serif" font-size="10.00"> </text>
<polyline fill="none" stroke="black" points="151,-52.5 216,-52.5 "/>
<text text-anchor="start" x="159" y="-40.5" font-family="Helvetica,sans-Serif" font-size="10.00">+ Bank()</text>
<text text-anchor="start" x="159" y="-29.5" font-family="Helvetica,sans-Serif" font-size="10.00">+ select()</text>
<text text-anchor="start" x="159" y="-18.5" font-family="Helvetica,sans-Serif" font-size="10.00">&#45; add()</text>
<text text-anchor="start" x="159" y="-7.5" font-family="Helvetica,sans-Serif" font-size="10.00">&#45; remove()</text>
</a>
</g>
</g>
<!-- Node2 -->
<g id="node2" class="node"><title>Node2</title>
<g id="a_node2"><a xlink:href="../../de/de7/classSelectable.html" target="_top" xlink:title=" ">
<polygon fill="white" stroke="black" points="0,-237.5 0,-327.5 109,-327.5 109,-237.5 0,-237.5"/>
<text text-anchor="middle" x="54.5" y="-315.5" font-family="Helvetica,sans-Serif" font-size="10.00">Selectable&lt; N &gt;</text>
<polyline fill="none" stroke="black" points="0,-308.5 109,-308.5 "/>
<text text-anchor="start" x="8" y="-296.5" font-family="Helvetica,sans-Serif" font-size="10.00">&#45; initialSelection</text>
<polyline fill="none" stroke="black" points="0,-289.5 109,-289.5 "/>
<text text-anchor="start" x="8" y="-277.5" font-family="Helvetica,sans-Serif" font-size="10.00">+ Selectable()</text>
<text text-anchor="start" x="8" y="-266.5" font-family="Helvetica,sans-Serif" font-size="10.00">+ select()</text>
<text text-anchor="start" x="8" y="-255.5" font-family="Helvetica,sans-Serif" font-size="10.00">+ getInitialSelection()</text>
<text text-anchor="start" x="8" y="-244.5" font-family="Helvetica,sans-Serif" font-size="10.00">+ validateSetting()</text>
</a>
</g>
</g>
<!-- Node2&#45;&gt;Node1 -->
<g id="edge1" class="edge"><title>Node2&#45;&gt;Node1</title>
<path fill="none" stroke="midnightblue" d="M74.8928,-227.858C86.1424,-200.32 101.134,-166.631 117.5,-138 127.22,-120.995 139.417,-103.314 150.673,-88.0788"/>
<polygon fill="none" stroke="midnightblue" points="71.5696,-226.74 71.0736,-237.324 78.0611,-229.36 71.5696,-226.74"/>
</g>
<!-- Node3 -->
<g id="node3" class="node"><title>Node3</title>
<g id="a_node3"><a xlink:href="../../d9/d36/classOutputBank.html" target="_top" xlink:title="A class for changing the address of BankableMIDIOutput::s.">
<polygon fill="white" stroke="black" points="127,-232 127,-333 240,-333 240,-232 127,-232"/>
<text text-anchor="middle" x="183.5" y="-321" font-family="Helvetica,sans-Serif" font-size="10.00">OutputBank</text>
<polyline fill="none" stroke="black" points="127,-314 240,-314 "/>
<text text-anchor="start" x="135" y="-302" font-family="Helvetica,sans-Serif" font-size="10.00">&#45; tracksPerBank</text>
<text text-anchor="start" x="135" y="-291" font-family="Helvetica,sans-Serif" font-size="10.00">&#45; bankSetting</text>
<polyline fill="none" stroke="black" points="127,-284 240,-284 "/>
<text text-anchor="start" x="135" y="-272" font-family="Helvetica,sans-Serif" font-size="10.00">+ OutputBank()</text>
<text text-anchor="start" x="135" y="-261" font-family="Helvetica,sans-Serif" font-size="10.00">+ select()</text>
<text text-anchor="start" x="135" y="-250" font-family="Helvetica,sans-Serif" font-size="10.00">+ getSelection()</text>
<text text-anchor="start" x="135" y="-239" font-family="Helvetica,sans-Serif" font-size="10.00">+ getTracksPerBank()</text>
</a>
</g>
</g>
<!-- Node3&#45;&gt;Node1 -->
<g id="edge2" class="edge"><title>Node3&#45;&gt;Node1</title>
<path fill="none" stroke="midnightblue" d="M183.5,-221.864C183.5,-181.074 183.5,-127.885 183.5,-90.8279"/>
<polygon fill="none" stroke="midnightblue" points="180,-221.95 183.5,-231.95 187,-221.95 180,-221.95"/>
</g>
<!-- Node4 -->
<g id="node4" class="node"><title>Node4</title>
<g id="a_node4"><a xlink:href="../../dd/d16/classDoublyLinkedList.html" target="_top" xlink:title=" ">
<polygon fill="white" stroke="black" points="258,-138.5 258,-426.5 399,-426.5 399,-138.5 258,-138.5"/>
<text text-anchor="start" x="266" y="-414.5" font-family="Helvetica,sans-Serif" font-size="10.00">DoublyLinkedList&lt; Bankable</text>
<text text-anchor="middle" x="328.5" y="-403.5" font-family="Helvetica,sans-Serif" font-size="10.00">MIDIInput&lt; N &gt; &gt;</text>
<polyline fill="none" stroke="black" points="258,-396.5 399,-396.5 "/>
<text text-anchor="start" x="266" y="-384.5" font-family="Helvetica,sans-Serif" font-size="10.00">&#45; first</text>
<text text-anchor="start" x="266" y="-373.5" font-family="Helvetica,sans-Serif" font-size="10.00">&#45; last</text>
<polyline fill="none" stroke="black" points="258,-366.5 399,-366.5 "/>
<text text-anchor="start" x="266" y="-354.5" font-family="Helvetica,sans-Serif" font-size="10.00">+ append()</text>
<text text-anchor="start" x="266" y="-343.5" font-family="Helvetica,sans-Serif" font-size="10.00">+ append()</text>
<text text-anchor="start" x="266" y="-332.5" font-family="Helvetica,sans-Serif" font-size="10.00">+ insertBefore()</text>
<text text-anchor="start" x="266" y="-321.5" font-family="Helvetica,sans-Serif" font-size="10.00">+ insertBefore()</text>
<text text-anchor="start" x="266" y="-310.5" font-family="Helvetica,sans-Serif" font-size="10.00">+ insertSorted()</text>
<text text-anchor="start" x="266" y="-299.5" font-family="Helvetica,sans-Serif" font-size="10.00">+ insertSorted()</text>
<text text-anchor="start" x="266" y="-288.5" font-family="Helvetica,sans-Serif" font-size="10.00">+ remove()</text>
<text text-anchor="start" x="266" y="-277.5" font-family="Helvetica,sans-Serif" font-size="10.00">+ remove()</text>
<text text-anchor="start" x="266" y="-266.5" font-family="Helvetica,sans-Serif" font-size="10.00">+ moveDown()</text>
<text text-anchor="start" x="266" y="-255.5" font-family="Helvetica,sans-Serif" font-size="10.00">+ couldContain()</text>
<text text-anchor="start" x="266" y="-244.5" font-family="Helvetica,sans-Serif" font-size="10.00">+ begin()</text>
<text text-anchor="start" x="266" y="-233.5" font-family="Helvetica,sans-Serif" font-size="10.00">+ begin()</text>
<text text-anchor="start" x="266" y="-222.5" font-family="Helvetica,sans-Serif" font-size="10.00">+ end()</text>
<text text-anchor="start" x="266" y="-211.5" font-family="Helvetica,sans-Serif" font-size="10.00">+ end()</text>
<text text-anchor="start" x="266" y="-200.5" font-family="Helvetica,sans-Serif" font-size="10.00">+ rbegin()</text>
<text text-anchor="start" x="266" y="-189.5" font-family="Helvetica,sans-Serif" font-size="10.00">+ rbegin()</text>
<text text-anchor="start" x="266" y="-178.5" font-family="Helvetica,sans-Serif" font-size="10.00">+ rend()</text>
<text text-anchor="start" x="266" y="-167.5" font-family="Helvetica,sans-Serif" font-size="10.00">+ rend()</text>
<text text-anchor="start" x="266" y="-156.5" font-family="Helvetica,sans-Serif" font-size="10.00">+ getFirst()</text>
<text text-anchor="start" x="266" y="-145.5" font-family="Helvetica,sans-Serif" font-size="10.00">+ getLast()</text>
</a>
</g>
</g>
<!-- Node4&#45;&gt;Node1 -->
<g id="edge3" class="edge"><title>Node4&#45;&gt;Node1</title>
<path fill="none" stroke="#404040" d="M257.881,-153.166C254.756,-148.017 251.621,-142.944 248.5,-138 240.699,-125.642 231.889,-112.672 223.332,-100.508"/>
<polygon fill="none" stroke="#404040" points="223.181,-100.295 216.445,-97.7202 216.231,-90.5122 222.967,-93.0873 223.181,-100.295"/>
<text text-anchor="middle" x="272" y="-112" font-family="Helvetica,sans-Serif" font-size="10.00"> &#45;inputBankables</text>
</g>
</g>
</svg>
