<?xml version="1.0" encoding="UTF-8" standalone="no"?>
<!DOCTYPE svg PUBLIC "-//W3C//DTD SVG 1.1//EN"
 "http://www.w3.org/Graphics/SVG/1.1/DTD/svg11.dtd">
<!-- Generated by graphviz version 2.38.0 (20140413.2041)
 -->
<!-- Title: Weights.hpp Pages: 1 -->
<svg width="502pt" height="252pt"
 viewBox="0.00 0.00 502.00 252.00" xmlns="http://www.w3.org/2000/svg" xmlns:xlink="http://www.w3.org/1999/xlink">
<g id="graph0" class="graph" transform="scale(1 1) rotate(0) translate(4 248)">
<title>Weights.hpp</title>
<polygon fill="white" stroke="none" points="-4,4 -4,-248 498,-248 498,4 -4,4"/>
<!-- Node0 -->
<g id="node1" class="node"><title>Node0</title>
<g id="a_node1"><a xlink:title=" ">
<polygon fill="#bfbfbf" stroke="black" points="152.5,-224.5 152.5,-243.5 223.5,-243.5 223.5,-224.5 152.5,-224.5"/>
<text text-anchor="middle" x="188" y="-231.5" font-family="Helvetica,sans-Serif" font-size="10.00">Weights.hpp</text>
</a>
</g>
</g>
<!-- Node1 -->
<g id="node2" class="node"><title>Node1</title>
<g id="a_node2"><a xlink:href="../../d0/d4e/Def_8hpp.html" target="_top" xlink:title=" ">
<polygon fill="white" stroke="black" points="14.5,-168.5 14.5,-187.5 65.5,-187.5 65.5,-168.5 14.5,-168.5"/>
<text text-anchor="middle" x="40" y="-175.5" font-family="Helvetica,sans-Serif" font-size="10.00">Def.hpp</text>
</a>
</g>
</g>
<!-- Node0&#45;&gt;Node1 -->
<g id="edge1" class="edge"><title>Node0&#45;&gt;Node1</title>
<path fill="none" stroke="midnightblue" d="M164.549,-224.444C139.867,-215.438 100.815,-201.189 73.0233,-191.049"/>
<polygon fill="midnightblue" stroke="midnightblue" points="73.9352,-187.656 63.3413,-187.516 71.5359,-194.232 73.9352,-187.656"/>
</g>
<!-- Node3 -->
<g id="node4" class="node"><title>Node3</title>
<g id="a_node4"><a xlink:href="../../db/d73/Randn_8hpp.html" target="_top" xlink:title=" ">
<polygon fill="white" stroke="black" points="115,-168.5 115,-187.5 179,-187.5 179,-168.5 115,-168.5"/>
<text text-anchor="middle" x="147" y="-175.5" font-family="Helvetica,sans-Serif" font-size="10.00">Randn.hpp</text>
</a>
</g>
</g>
<!-- Node0&#45;&gt;Node3 -->
<g id="edge3" class="edge"><title>Node0&#45;&gt;Node3</title>
<path fill="none" stroke="midnightblue" d="M181.23,-224.083C175.438,-216.455 166.942,-205.264 159.862,-195.941"/>
<polygon fill="midnightblue" stroke="midnightblue" points="162.479,-193.599 153.644,-187.751 156.904,-197.832 162.479,-193.599"/>
</g>
<!-- Node15 -->
<g id="node16" class="node"><title>Node15</title>
<g id="a_node16"><a xlink:href="../../df/db4/Config_8hpp.html" target="_top" xlink:title=" ">
<polygon fill="white" stroke="black" points="197,-168.5 197,-187.5 261,-187.5 261,-168.5 197,-168.5"/>
<text text-anchor="middle" x="229" y="-175.5" font-family="Helvetica,sans-Serif" font-size="10.00">Config.hpp</text>
</a>
</g>
</g>
<!-- Node0&#45;&gt;Node15 -->
<g id="edge17" class="edge"><title>Node0&#45;&gt;Node15</title>
<path fill="none" stroke="midnightblue" d="M194.77,-224.083C200.562,-216.455 209.058,-205.264 216.138,-195.941"/>
<polygon fill="midnightblue" stroke="midnightblue" points="219.096,-197.832 222.356,-187.751 213.521,-193.599 219.096,-197.832"/>
</g>
<!-- Node18 -->
<g id="node19" class="node"><title>Node18</title>
<g id="a_node19"><a xlink:href="../../d1/dc5/TunerConfig_8hpp.html" target="_top" xlink:title=" ">
<polygon fill="white" stroke="black" points="279.5,-168.5 279.5,-187.5 368.5,-187.5 368.5,-168.5 279.5,-168.5"/>
<text text-anchor="middle" x="324" y="-175.5" font-family="Helvetica,sans-Serif" font-size="10.00">TunerConfig.hpp</text>
</a>
</g>
</g>
<!-- Node0&#45;&gt;Node18 -->
<g id="edge21" class="edge"><title>Node0&#45;&gt;Node18</title>
<path fill="none" stroke="midnightblue" d="M209.55,-224.444C232.031,-215.517 267.488,-201.439 292.98,-191.317"/>
<polygon fill="midnightblue" stroke="midnightblue" points="294.549,-194.46 302.551,-187.516 291.965,-187.954 294.549,-194.46"/>
</g>
<!-- Node2 -->
<g id="node3" class="node"><title>Node2</title>
<g id="a_node3"><a xlink:title=" ">
<polygon fill="white" stroke="#bfbfbf" points="1.5,-112.5 1.5,-131.5 46.5,-131.5 46.5,-112.5 1.5,-112.5"/>
<text text-anchor="middle" x="24" y="-119.5" font-family="Helvetica,sans-Serif" font-size="10.00">cstdlib</text>
</a>
</g>
</g>
<!-- Node1&#45;&gt;Node2 -->
<g id="edge2" class="edge"><title>Node1&#45;&gt;Node2</title>
<path fill="none" stroke="midnightblue" d="M37.3579,-168.083C35.2144,-160.849 32.1211,-150.409 29.4509,-141.397"/>
<polygon fill="midnightblue" stroke="midnightblue" points="32.7897,-140.345 26.5929,-131.751 26.0781,-142.333 32.7897,-140.345"/>
</g>
<!-- Node4 -->
<g id="node5" class="node"><title>Node4</title>
<g id="a_node5"><a xlink:href="../../d9/d1c/Matrix_8hpp.html" target="_top" xlink:title=" ">
<polygon fill="white" stroke="black" points="132,-112.5 132,-131.5 194,-131.5 194,-112.5 132,-112.5"/>
<text text-anchor="middle" x="163" y="-119.5" font-family="Helvetica,sans-Serif" font-size="10.00">Matrix.hpp</text>
</a>
</g>
</g>
<!-- Node3&#45;&gt;Node4 -->
<g id="edge4" class="edge"><title>Node3&#45;&gt;Node4</title>
<path fill="none" stroke="midnightblue" d="M149.642,-168.083C151.786,-160.849 154.879,-150.409 157.549,-141.397"/>
<polygon fill="midnightblue" stroke="midnightblue" points="160.922,-142.333 160.407,-131.751 154.21,-140.345 160.922,-142.333"/>
</g>
<!-- Node14 -->
<g id="node15" class="node"><title>Node14</title>
<g id="a_node15"><a xlink:title=" ">
<polygon fill="white" stroke="#bfbfbf" points="64.5,-112.5 64.5,-131.5 113.5,-131.5 113.5,-112.5 64.5,-112.5"/>
<text text-anchor="middle" x="89" y="-119.5" font-family="Helvetica,sans-Serif" font-size="10.00">random</text>
</a>
</g>
</g>
<!-- Node3&#45;&gt;Node14 -->
<g id="edge16" class="edge"><title>Node3&#45;&gt;Node14</title>
<path fill="none" stroke="midnightblue" d="M137.681,-168.324C129.107,-160.341 116.188,-148.313 105.812,-138.653"/>
<polygon fill="midnightblue" stroke="midnightblue" points="108.192,-136.086 98.4883,-131.834 103.422,-141.21 108.192,-136.086"/>
</g>
<!-- Node5 -->
<g id="node6" class="node"><title>Node5</title>
<g id="a_node6"><a xlink:href="../../de/d76/Array_8hpp.html" target="_top" xlink:title=" ">
<polygon fill="white" stroke="black" points="133.5,-56.5 133.5,-75.5 192.5,-75.5 192.5,-56.5 133.5,-56.5"/>
<text text-anchor="middle" x="163" y="-63.5" font-family="Helvetica,sans-Serif" font-size="10.00">Array.hpp</text>
</a>
</g>
</g>
<!-- Node4&#45;&gt;Node5 -->
<g id="edge5" class="edge"><title>Node4&#45;&gt;Node5</title>
<path fill="none" stroke="midnightblue" d="M163,-112.083C163,-105.006 163,-94.8611 163,-85.9865"/>
<polygon fill="midnightblue" stroke="midnightblue" points="166.5,-85.751 163,-75.7511 159.5,-85.7511 166.5,-85.751"/>
</g>
<!-- Node6 -->
<g id="node7" class="node"><title>Node6</title>
<g id="a_node7"><a xlink:title=" ">
<polygon fill="white" stroke="#bfbfbf" points="0,-0.5 0,-19.5 56,-19.5 56,-0.5 0,-0.5"/>
<text text-anchor="middle" x="28" y="-7.5" font-family="Helvetica,sans-Serif" font-size="10.00">algorithm</text>
</a>
</g>
</g>
<!-- Node4&#45;&gt;Node6 -->
<g id="edge12" class="edge"><title>Node4&#45;&gt;Node6</title>
<path fill="none" stroke="midnightblue" d="M152.407,-112.368C129.536,-93.7334 75.2897,-49.5324 46.5734,-26.1338"/>
<polygon fill="midnightblue" stroke="midnightblue" points="48.5073,-23.1949 38.544,-19.5914 44.0855,-28.6215 48.5073,-23.1949"/>
</g>
<!-- Node7 -->
<g id="node8" class="node"><title>Node7</title>
<g id="a_node8"><a xlink:title=" ">
<polygon fill="white" stroke="#bfbfbf" points="74,-0.5 74,-19.5 118,-19.5 118,-0.5 74,-0.5"/>
<text text-anchor="middle" x="96" y="-7.5" font-family="Helvetica,sans-Serif" font-size="10.00">cmath</text>
</a>
</g>
</g>
<!-- Node4&#45;&gt;Node7 -->
<g id="edge13" class="edge"><title>Node4&#45;&gt;Node7</title>
<path fill="none" stroke="midnightblue" d="M154.047,-112.348C145.503,-103.734 132.682,-89.8358 124,-76 114.724,-61.2179 107.122,-42.8304 102.192,-29.3883"/>
<polygon fill="midnightblue" stroke="midnightblue" points="105.45,-28.1033 98.8297,-19.8315 98.8467,-30.4264 105.45,-28.1033"/>
</g>
<!-- Node12 -->
<g id="node13" class="node"><title>Node12</title>
<g id="a_node13"><a xlink:title=" ">
<polygon fill="white" stroke="#bfbfbf" points="211,-56.5 211,-75.5 261,-75.5 261,-56.5 211,-56.5"/>
<text text-anchor="middle" x="236" y="-63.5" font-family="Helvetica,sans-Serif" font-size="10.00">iomanip</text>
</a>
</g>
</g>
<!-- Node4&#45;&gt;Node12 -->
<g id="edge14" class="edge"><title>Node4&#45;&gt;Node12</title>
<path fill="none" stroke="midnightblue" d="M174.729,-112.324C185.837,-104.107 202.742,-91.6017 215.983,-81.8069"/>
<polygon fill="midnightblue" stroke="midnightblue" points="218.1,-84.5948 224.058,-75.8339 213.937,-78.9671 218.1,-84.5948"/>
</g>
<!-- Node13 -->
<g id="node14" class="node"><title>Node13</title>
<g id="a_node14"><a xlink:title=" ">
<polygon fill="white" stroke="#bfbfbf" points="279,-56.5 279,-75.5 331,-75.5 331,-56.5 279,-56.5"/>
<text text-anchor="middle" x="305" y="-63.5" font-family="Helvetica,sans-Serif" font-size="10.00">ostream</text>
</a>
</g>
</g>
<!-- Node4&#45;&gt;Node13 -->
<g id="edge15" class="edge"><title>Node4&#45;&gt;Node13</title>
<path fill="none" stroke="midnightblue" d="M185.5,-112.444C209.077,-103.478 246.322,-89.314 272.964,-79.1827"/>
<polygon fill="midnightblue" stroke="midnightblue" points="274.502,-82.3424 282.605,-75.5164 272.014,-75.7995 274.502,-82.3424"/>
</g>
<!-- Node5&#45;&gt;Node6 -->
<g id="edge6" class="edge"><title>Node5&#45;&gt;Node6</title>
<path fill="none" stroke="midnightblue" d="M141.609,-56.4435C119.293,-47.5171 84.0968,-33.4387 58.792,-23.3168"/>
<polygon fill="midnightblue" stroke="midnightblue" points="59.8757,-19.9807 49.2911,-19.5164 57.276,-26.4801 59.8757,-19.9807"/>
</g>
<!-- Node5&#45;&gt;Node7 -->
<g id="edge7" class="edge"><title>Node5&#45;&gt;Node7</title>
<path fill="none" stroke="midnightblue" d="M152.235,-56.324C142.234,-48.2631 127.113,-36.0765 115.07,-26.3695"/>
<polygon fill="midnightblue" stroke="midnightblue" points="116.943,-23.3841 106.961,-19.8339 112.55,-28.8343 116.943,-23.3841"/>
</g>
<!-- Node8 -->
<g id="node9" class="node"><title>Node8</title>
<g id="a_node9"><a xlink:title=" ">
<polygon fill="white" stroke="#bfbfbf" points="283.5,-0.5 283.5,-19.5 332.5,-19.5 332.5,-0.5 283.5,-0.5"/>
<text text-anchor="middle" x="308" y="-7.5" font-family="Helvetica,sans-Serif" font-size="10.00">cstddef</text>
</a>
</g>
</g>
<!-- Node5&#45;&gt;Node8 -->
<g id="edge8" class="edge"><title>Node5&#45;&gt;Node8</title>
<path fill="none" stroke="midnightblue" d="M185.976,-56.4435C210.157,-47.4381 248.418,-33.1891 275.646,-23.049"/>
<polygon fill="midnightblue" stroke="midnightblue" points="276.982,-26.2864 285.132,-19.5164 274.539,-19.7265 276.982,-26.2864"/>
</g>
<!-- Node9 -->
<g id="node10" class="node"><title>Node9</title>
<g id="a_node10"><a xlink:title=" ">
<polygon fill="white" stroke="#bfbfbf" points="350.5,-0.5 350.5,-19.5 401.5,-19.5 401.5,-0.5 350.5,-0.5"/>
<text text-anchor="middle" x="376" y="-7.5" font-family="Helvetica,sans-Serif" font-size="10.00">numeric</text>
</a>
</g>
</g>
<!-- Node5&#45;&gt;Node9 -->
<g id="edge9" class="edge"><title>Node5&#45;&gt;Node9</title>
<path fill="none" stroke="midnightblue" d="M192.615,-57.5523C226.084,-49.1265 282.454,-34.9102 340.655,-20.0801"/>
<polygon fill="midnightblue" stroke="midnightblue" points="341.564,-23.4606 350.389,-17.5985 339.834,-16.6776 341.564,-23.4606"/>
</g>
<!-- Node10 -->
<g id="node11" class="node"><title>Node10</title>
<g id="a_node11"><a xlink:title=" ">
<polygon fill="white" stroke="#bfbfbf" points="136,-0.5 136,-19.5 198,-19.5 198,-0.5 136,-0.5"/>
<text text-anchor="middle" x="167" y="-7.5" font-family="Helvetica,sans-Serif" font-size="10.00">type_traits</text>
</a>
</g>
</g>
<!-- Node5&#45;&gt;Node10 -->
<g id="edge10" class="edge"><title>Node5&#45;&gt;Node10</title>
<path fill="none" stroke="midnightblue" d="M163.661,-56.083C164.185,-49.0059 164.936,-38.8611 165.594,-29.9865"/>
<polygon fill="midnightblue" stroke="midnightblue" points="169.103,-29.9823 166.352,-19.7511 162.123,-29.4652 169.103,-29.9823"/>
</g>
<!-- Node11 -->
<g id="node12" class="node"><title>Node11</title>
<g id="a_node12"><a xlink:title=" ">
<polygon fill="white" stroke="#bfbfbf" points="216.5,-0.5 216.5,-19.5 265.5,-19.5 265.5,-0.5 216.5,-0.5"/>
<text text-anchor="middle" x="241" y="-7.5" font-family="Helvetica,sans-Serif" font-size="10.00">cassert</text>
</a>
</g>
</g>
<!-- Node5&#45;&gt;Node11 -->
<g id="edge11" class="edge"><title>Node5&#45;&gt;Node11</title>
<path fill="none" stroke="midnightblue" d="M175.532,-56.324C187.586,-47.979 206.027,-35.2122 220.269,-25.3524"/>
<polygon fill="midnightblue" stroke="midnightblue" points="222.269,-28.2243 228.499,-19.6545 218.285,-22.469 222.269,-28.2243"/>
</g>
<!-- Node15&#45;&gt;Node4 -->
<g id="edge18" class="edge"><title>Node15&#45;&gt;Node4</title>
<path fill="none" stroke="midnightblue" d="M218.396,-168.324C208.544,-160.263 193.649,-148.077 181.785,-138.369"/>
<polygon fill="midnightblue" stroke="midnightblue" points="183.753,-135.457 173.797,-131.834 179.32,-140.875 183.753,-135.457"/>
</g>
<!-- Node16 -->
<g id="node17" class="node"><title>Node16</title>
<g id="a_node17"><a xlink:href="../../da/d7e/ODEOptions_8hpp.html" target="_top" xlink:title=" ">
<polygon fill="white" stroke="black" points="212.5,-112.5 212.5,-131.5 303.5,-131.5 303.5,-112.5 212.5,-112.5"/>
<text text-anchor="middle" x="258" y="-119.5" font-family="Helvetica,sans-Serif" font-size="10.00">ODEOptions.hpp</text>
</a>
</g>
</g>
<!-- Node15&#45;&gt;Node16 -->
<g id="edge19" class="edge"><title>Node15&#45;&gt;Node16</title>
<path fill="none" stroke="midnightblue" d="M233.789,-168.083C237.758,-160.691 243.525,-149.953 248.435,-140.811"/>
<polygon fill="midnightblue" stroke="midnightblue" points="251.653,-142.217 253.3,-131.751 245.486,-138.905 251.653,-142.217"/>
</g>
<!-- Node17 -->
<g id="node18" class="node"><title>Node17</title>
<g id="a_node18"><a xlink:title=" ">
<polygon fill="white" stroke="#bfbfbf" points="322,-112.5 322,-131.5 384,-131.5 384,-112.5 322,-112.5"/>
<text text-anchor="middle" x="353" y="-119.5" font-family="Helvetica,sans-Serif" font-size="10.00">filesystem</text>
</a>
</g>
</g>
<!-- Node15&#45;&gt;Node17 -->
<g id="edge20" class="edge"><title>Node15&#45;&gt;Node17</title>
<path fill="none" stroke="midnightblue" d="M248.648,-168.444C268.965,-159.596 300.903,-145.687 324.098,-135.586"/>
<polygon fill="midnightblue" stroke="midnightblue" points="325.673,-138.718 333.444,-131.516 322.878,-132.3 325.673,-138.718"/>
</g>
<!-- Node18&#45;&gt;Node4 -->
<g id="edge23" class="edge"><title>Node18&#45;&gt;Node4</title>
<path fill="none" stroke="midnightblue" d="M298.489,-168.444C271.404,-159.359 228.41,-144.939 198.131,-134.783"/>
<polygon fill="midnightblue" stroke="midnightblue" points="198.986,-131.378 188.392,-131.516 196.76,-138.015 198.986,-131.378"/>
</g>
<!-- Node18&#45;&gt;Node16 -->
<g id="edge24" class="edge"><title>Node18&#45;&gt;Node16</title>
<path fill="none" stroke="midnightblue" d="M313.396,-168.324C303.544,-160.263 288.649,-148.077 276.785,-138.369"/>
<polygon fill="midnightblue" stroke="midnightblue" points="278.753,-135.457 268.797,-131.834 274.32,-140.875 278.753,-135.457"/>
</g>
<!-- Node18&#45;&gt;Node17 -->
<g id="edge25" class="edge"><title>Node18&#45;&gt;Node17</title>
<path fill="none" stroke="midnightblue" d="M328.789,-168.083C332.758,-160.691 338.525,-149.953 343.435,-140.811"/>
<polygon fill="midnightblue" stroke="midnightblue" points="346.653,-142.217 348.3,-131.751 340.486,-138.905 346.653,-142.217"/>
</g>
<!-- Node19 -->
<g id="node20" class="node"><title>Node19</title>
<g id="a_node20"><a xlink:href="../../dd/d07/CostWeights_8hpp.html" target="_top" xlink:title=" ">
<polygon fill="white" stroke="black" points="402,-112.5 402,-131.5 494,-131.5 494,-112.5 402,-112.5"/>
<text text-anchor="middle" x="448" y="-119.5" font-family="Helvetica,sans-Serif" font-size="10.00">CostWeights.hpp</text>
</a>
</g>
</g>
<!-- Node18&#45;&gt;Node19 -->
<g id="edge22" class="edge"><title>Node18&#45;&gt;Node19</title>
<path fill="none" stroke="midnightblue" d="M343.648,-168.444C363.965,-159.596 395.903,-145.687 419.098,-135.586"/>
<polygon fill="midnightblue" stroke="midnightblue" points="420.673,-138.718 428.444,-131.516 417.878,-132.3 420.673,-138.718"/>
</g>
</g>
</svg>
