<?xml version="1.0" encoding="UTF-8" standalone="no"?>
<!DOCTYPE svg PUBLIC "-//W3C//DTD SVG 1.1//EN"
 "http://www.w3.org/Graphics/SVG/1.1/DTD/svg11.dtd">
<!-- Generated by graphviz version 2.38.0 (20140413.2041)
 -->
<!-- Title: NoteButtons.hpp Pages: 1 -->
<svg width="1147pt" height="733pt"
 viewBox="0.00 0.00 1147.24 733.00" xmlns="http://www.w3.org/2000/svg" xmlns:xlink="http://www.w3.org/1999/xlink">
<g id="graph0" class="graph" transform="scale(1 1) rotate(0) translate(4 729)">
<title>NoteButtons.hpp</title>
<polygon fill="white" stroke="none" points="-4,4 -4,-729 1143.24,-729 1143.24,4 -4,4"/>
<!-- Node1 -->
<g id="node1" class="node"><title>Node1</title>
<g id="a_node1"><a xlink:title=" ">
<polygon fill="#bfbfbf" stroke="black" points="358.245,-705.5 358.245,-724.5 448.245,-724.5 448.245,-705.5 358.245,-705.5"/>
<text text-anchor="middle" x="403.245" y="-712.5" font-family="Helvetica,sans-Serif" font-size="10.00">NoteButtons.hpp</text>
</a>
</g>
</g>
<!-- Node2 -->
<g id="node2" class="node"><title>Node2</title>
<g id="a_node2"><a xlink:href="../../d2/d07/Abstract_2MIDIButtons_8hpp.html" target="_top" xlink:title=" ">
<polygon fill="white" stroke="black" points="273.245,-638.5 273.245,-668.5 391.245,-668.5 391.245,-638.5 273.245,-638.5"/>
<text text-anchor="start" x="281.245" y="-656.5" font-family="Helvetica,sans-Serif" font-size="10.00">MIDI_Outputs/Abstract</text>
<text text-anchor="middle" x="332.245" y="-645.5" font-family="Helvetica,sans-Serif" font-size="10.00">/MIDIButtons.hpp</text>
</a>
</g>
</g>
<!-- Node1&#45;&gt;Node2 -->
<g id="edge1" class="edge"><title>Node1&#45;&gt;Node2</title>
<path fill="none" stroke="midnightblue" d="M393.072,-705.475C383.636,-697.567 369.218,-685.485 356.788,-675.067"/>
<polygon fill="midnightblue" stroke="midnightblue" points="358.891,-672.263 348.978,-668.523 354.395,-677.629 358.891,-672.263"/>
</g>
<!-- Node29 -->
<g id="node29" class="node"><title>Node29</title>
<g id="a_node29"><a xlink:href="../../d1/daa/DigitalNoteSender_8hpp.html" target="_top" xlink:title=" ">
<polygon fill="white" stroke="black" points="409.745,-638.5 409.745,-668.5 540.745,-668.5 540.745,-638.5 409.745,-638.5"/>
<text text-anchor="start" x="417.745" y="-656.5" font-family="Helvetica,sans-Serif" font-size="10.00">MIDI_Senders/DigitalNote</text>
<text text-anchor="middle" x="475.245" y="-645.5" font-family="Helvetica,sans-Serif" font-size="10.00">Sender.hpp</text>
</a>
</g>
</g>
<!-- Node1&#45;&gt;Node29 -->
<g id="edge52" class="edge"><title>Node1&#45;&gt;Node29</title>
<path fill="none" stroke="midnightblue" d="M413.561,-705.475C423.13,-697.567 437.751,-685.485 450.356,-675.067"/>
<polygon fill="midnightblue" stroke="midnightblue" points="452.797,-677.591 458.276,-668.523 448.338,-672.195 452.797,-677.591"/>
</g>
<!-- Node3 -->
<g id="node3" class="node"><title>Node3</title>
<g id="a_node3"><a xlink:href="../../d0/d4e/Def_8hpp.html" target="_top" xlink:title=" ">
<polygon fill="white" stroke="black" points="226.245,-392.5 226.245,-411.5 296.245,-411.5 296.245,-392.5 226.245,-392.5"/>
<text text-anchor="middle" x="261.245" y="-399.5" font-family="Helvetica,sans-Serif" font-size="10.00">Def/Def.hpp</text>
</a>
</g>
</g>
<!-- Node2&#45;&gt;Node3 -->
<g id="edge2" class="edge"><title>Node2&#45;&gt;Node3</title>
<path fill="none" stroke="midnightblue" d="M327.012,-638.136C317.324,-611.593 295.881,-553.093 277.245,-504 271.152,-487.95 266.669,-484.822 263.245,-468 260.109,-452.598 259.793,-434.725 260.156,-421.623"/>
<polygon fill="midnightblue" stroke="midnightblue" points="263.658,-421.663 260.597,-411.52 256.664,-421.357 263.658,-421.663"/>
</g>
<!-- Node8 -->
<g id="node8" class="node"><title>Node8</title>
<g id="a_node8"><a xlink:href="../../de/d76/Array_8hpp.html" target="_top" xlink:title=" ">
<polygon fill="white" stroke="black" points="872.745,-336.5 872.745,-355.5 967.745,-355.5 967.745,-336.5 872.745,-336.5"/>
<text text-anchor="middle" x="920.245" y="-343.5" font-family="Helvetica,sans-Serif" font-size="10.00">Helpers/Array.hpp</text>
</a>
</g>
</g>
<!-- Node2&#45;&gt;Node8 -->
<g id="edge41" class="edge"><title>Node2&#45;&gt;Node8</title>
<path fill="none" stroke="midnightblue" d="M391.491,-639.322C394.444,-638.836 397.374,-638.391 400.245,-638 661.87,-602.368 738.985,-673.202 993.245,-602 1064.81,-581.96 1139.24,-594.814 1139.24,-520.5 1139.24,-520.5 1139.24,-520.5 1139.24,-457 1139.24,-384.708 1042.77,-359.921 977.887,-351.426"/>
<polygon fill="midnightblue" stroke="midnightblue" points="978.113,-347.928 967.765,-350.198 977.27,-354.877 978.113,-347.928"/>
</g>
<!-- Node19 -->
<g id="node19" class="node"><title>Node19</title>
<g id="a_node19"><a xlink:href="../../d4/db3/Button_8hpp.html" target="_top" xlink:title=" ">
<polygon fill="white" stroke="black" points="874.745,-577 874.745,-596 983.745,-596 983.745,-577 874.745,-577"/>
<text text-anchor="middle" x="929.245" y="-584" font-family="Helvetica,sans-Serif" font-size="10.00">Hardware/Button.hpp</text>
</a>
</g>
</g>
<!-- Node2&#45;&gt;Node19 -->
<g id="edge28" class="edge"><title>Node2&#45;&gt;Node19</title>
<path fill="none" stroke="midnightblue" d="M391.509,-639.444C394.457,-638.926 397.381,-638.44 400.245,-638 566.474,-612.429 764.21,-597.668 864.287,-591.289"/>
<polygon fill="midnightblue" stroke="midnightblue" points="864.779,-594.765 874.539,-590.643 864.339,-587.779 864.779,-594.765"/>
</g>
<!-- Node26 -->
<g id="node26" class="node"><title>Node26</title>
<g id="a_node26"><a xlink:href="../../d1/d41/MIDIOutputElement_8hpp.html" target="_top" xlink:title=" ">
<polygon fill="white" stroke="black" points="143.745,-504.5 143.745,-534.5 268.745,-534.5 268.745,-504.5 143.745,-504.5"/>
<text text-anchor="start" x="151.745" y="-522.5" font-family="Helvetica,sans-Serif" font-size="10.00">MIDI_Outputs/Abstract</text>
<text text-anchor="middle" x="206.245" y="-511.5" font-family="Helvetica,sans-Serif" font-size="10.00">/MIDIOutputElement.hpp</text>
</a>
</g>
</g>
<!-- Node2&#45;&gt;Node26 -->
<g id="edge42" class="edge"><title>Node2&#45;&gt;Node26</title>
<path fill="none" stroke="midnightblue" d="M318.466,-638.4C308.618,-628.298 295.073,-614.353 283.245,-602 263.925,-581.822 242.067,-558.654 226.589,-542.19"/>
<polygon fill="midnightblue" stroke="midnightblue" points="228.94,-539.58 219.542,-534.688 223.838,-544.373 228.94,-539.58"/>
</g>
<!-- Node4 -->
<g id="node4" class="node"><title>Node4</title>
<g id="a_node4"><a xlink:href="../../d7/d42/Channel_8hpp.html" target="_top" xlink:title=" ">
<polygon fill="white" stroke="black" points="66.7448,-112.5 66.7448,-131.5 137.745,-131.5 137.745,-112.5 66.7448,-112.5"/>
<text text-anchor="middle" x="102.245" y="-119.5" font-family="Helvetica,sans-Serif" font-size="10.00">Channel.hpp</text>
</a>
</g>
</g>
<!-- Node3&#45;&gt;Node4 -->
<g id="edge3" class="edge"><title>Node3&#45;&gt;Node4</title>
<path fill="none" stroke="midnightblue" d="M240.637,-392.365C224.901,-384.834 203.7,-372.52 190.245,-356 135.465,-288.742 112.501,-183.817 105.128,-141.559"/>
<polygon fill="midnightblue" stroke="midnightblue" points="108.565,-140.889 103.481,-131.593 101.658,-142.03 108.565,-140.889"/>
</g>
<!-- Node5 -->
<g id="node5" class="node"><title>Node5</title>
<g id="a_node5"><a xlink:title=" ">
<polygon fill="white" stroke="#bfbfbf" points="156.745,-56.5 156.745,-75.5 205.745,-75.5 205.745,-56.5 156.745,-56.5"/>
<text text-anchor="middle" x="181.245" y="-63.5" font-family="Helvetica,sans-Serif" font-size="10.00">stdint.h</text>
</a>
</g>
</g>
<!-- Node3&#45;&gt;Node5 -->
<g id="edge27" class="edge"><title>Node3&#45;&gt;Node5</title>
<path fill="none" stroke="midnightblue" d="M253.078,-392.384C237.317,-374.812 204.245,-332.942 204.245,-291 204.245,-291 204.245,-291 204.245,-177 204.245,-144.12 194.277,-106.86 187.466,-85.2353"/>
<polygon fill="midnightblue" stroke="midnightblue" points="190.785,-84.1248 184.347,-75.7105 184.133,-86.3032 190.785,-84.1248"/>
</g>
<!-- Node6 -->
<g id="node6" class="node"><title>Node6</title>
<g id="a_node6"><a xlink:href="../../dc/dc7/NamespaceSettings_8hpp.html" target="_top" xlink:title=" ">
<polygon fill="white" stroke="black" points="198.745,-0.5 198.745,-19.5 361.745,-19.5 361.745,-0.5 198.745,-0.5"/>
<text text-anchor="middle" x="280.245" y="-7.5" font-family="Helvetica,sans-Serif" font-size="10.00">Settings/NamespaceSettings.hpp</text>
</a>
</g>
</g>
<!-- Node3&#45;&gt;Node6 -->
<g id="edge25" class="edge"><title>Node3&#45;&gt;Node6</title>
<path fill="none" stroke="midnightblue" d="M258.682,-392.249C253.496,-373.738 242.245,-329.179 242.245,-291 242.245,-291 242.245,-291 242.245,-121 242.245,-86.8131 258.845,-49.7639 270.102,-28.5707"/>
<polygon fill="midnightblue" stroke="midnightblue" points="273.192,-30.2151 274.961,-19.769 267.064,-26.832 273.192,-30.2151"/>
</g>
<!-- Node7 -->
<g id="node7" class="node"><title>Node7</title>
<g id="a_node7"><a xlink:href="../../dc/d50/Frequency_8hpp.html" target="_top" xlink:title=" ">
<polygon fill="white" stroke="black" points="308.745,-56.5 308.745,-75.5 389.745,-75.5 389.745,-56.5 308.745,-56.5"/>
<text text-anchor="middle" x="349.245" y="-63.5" font-family="Helvetica,sans-Serif" font-size="10.00">Frequency.hpp</text>
</a>
</g>
</g>
<!-- Node3&#45;&gt;Node7 -->
<g id="edge6" class="edge"><title>Node3&#45;&gt;Node7</title>
<path fill="none" stroke="midnightblue" d="M263.807,-392.249C268.993,-373.738 280.245,-329.179 280.245,-291 280.245,-291 280.245,-291 280.245,-177 280.245,-138.391 311.127,-102.209 331.571,-82.4863"/>
<polygon fill="midnightblue" stroke="midnightblue" points="334.113,-84.9022 339.064,-75.5352 329.352,-79.7704 334.113,-84.9022"/>
</g>
<!-- Node3&#45;&gt;Node8 -->
<g id="edge8" class="edge"><title>Node3&#45;&gt;Node8</title>
<path fill="none" stroke="midnightblue" d="M296.676,-398.097C404.546,-389.258 729.663,-362.617 862.626,-351.721"/>
<polygon fill="midnightblue" stroke="midnightblue" points="862.939,-355.208 872.619,-350.903 862.367,-348.231 862.939,-355.208"/>
</g>
<!-- Node16 -->
<g id="node16" class="node"><title>Node16</title>
<g id="a_node16"><a xlink:title=" ">
<polygon fill="white" stroke="#bfbfbf" points="790.245,-56.5 790.245,-75.5 842.245,-75.5 842.245,-56.5 790.245,-56.5"/>
<text text-anchor="middle" x="816.245" y="-63.5" font-family="Helvetica,sans-Serif" font-size="10.00">stddef.h</text>
</a>
</g>
</g>
<!-- Node3&#45;&gt;Node16 -->
<g id="edge26" class="edge"><title>Node3&#45;&gt;Node16</title>
<path fill="none" stroke="midnightblue" d="M296.359,-394.803C351.096,-383.711 457.969,-356.174 530.245,-300 610.654,-237.504 578.501,-171.37 661.245,-112 666.195,-108.448 735.983,-88.9462 780.21,-76.8101"/>
<polygon fill="midnightblue" stroke="midnightblue" points="781.316,-80.136 790.037,-74.1191 779.468,-73.3845 781.316,-80.136"/>
</g>
<!-- Node4&#45;&gt;Node5 -->
<g id="edge4" class="edge"><title>Node4&#45;&gt;Node5</title>
<path fill="none" stroke="midnightblue" d="M114.938,-112.324C127.146,-103.979 145.823,-91.2122 160.248,-81.3524"/>
<polygon fill="midnightblue" stroke="midnightblue" points="162.303,-84.1871 168.584,-75.6545 158.353,-78.4082 162.303,-84.1871"/>
</g>
<!-- Node4&#45;&gt;Node6 -->
<g id="edge5" class="edge"><title>Node4&#45;&gt;Node6</title>
<path fill="none" stroke="midnightblue" d="M106.135,-112.074C112.653,-98.128 127.076,-71.198 147.245,-56 169.072,-39.5529 197.29,-28.8807 222.116,-22.0799"/>
<polygon fill="midnightblue" stroke="midnightblue" points="222.997,-25.4673 231.8,-19.5717 221.241,-18.6909 222.997,-25.4673"/>
</g>
<!-- Node7&#45;&gt;Node6 -->
<g id="edge7" class="edge"><title>Node7&#45;&gt;Node6</title>
<path fill="none" stroke="midnightblue" d="M338.159,-56.324C327.759,-48.1849 311.984,-35.8395 299.523,-26.0874"/>
<polygon fill="midnightblue" stroke="midnightblue" points="301.565,-23.2407 291.533,-19.8339 297.251,-28.7533 301.565,-23.2407"/>
</g>
<!-- Node9 -->
<g id="node9" class="node"><title>Node9</title>
<g id="a_node9"><a xlink:href="../../d1/d93/Error_8hpp.html" target="_top" xlink:title=" ">
<polygon fill="white" stroke="black" points="797.745,-280.5 797.745,-299.5 890.745,-299.5 890.745,-280.5 797.745,-280.5"/>
<text text-anchor="middle" x="844.245" y="-287.5" font-family="Helvetica,sans-Serif" font-size="10.00">Helpers/Error.hpp</text>
</a>
</g>
</g>
<!-- Node8&#45;&gt;Node9 -->
<g id="edge9" class="edge"><title>Node8&#45;&gt;Node9</title>
<path fill="none" stroke="midnightblue" d="M908.034,-336.324C896.469,-328.107 878.869,-315.602 865.084,-305.807"/>
<polygon fill="midnightblue" stroke="midnightblue" points="866.857,-302.773 856.678,-299.834 862.802,-308.479 866.857,-302.773"/>
</g>
<!-- Node8&#45;&gt;Node16 -->
<g id="edge24" class="edge"><title>Node8&#45;&gt;Node16</title>
<path fill="none" stroke="midnightblue" d="M917.556,-336.113C913.712,-323.543 906.325,-299.886 899.245,-280 873.318,-207.177 838.797,-121.867 823.768,-85.2267"/>
<polygon fill="midnightblue" stroke="midnightblue" points="826.955,-83.7742 819.914,-75.8575 820.481,-86.4372 826.955,-83.7742"/>
</g>
<!-- Node10 -->
<g id="node10" class="node"><title>Node10</title>
<g id="a_node10"><a xlink:href="../../df/dee/Debug_8hpp.html" target="_top" xlink:title=" ">
<polygon fill="white" stroke="black" points="759.245,-224.5 759.245,-243.5 823.245,-243.5 823.245,-224.5 759.245,-224.5"/>
<text text-anchor="middle" x="791.245" y="-231.5" font-family="Helvetica,sans-Serif" font-size="10.00">Debug.hpp</text>
</a>
</g>
</g>
<!-- Node9&#45;&gt;Node10 -->
<g id="edge10" class="edge"><title>Node9&#45;&gt;Node10</title>
<path fill="none" stroke="midnightblue" d="M835.493,-280.083C827.775,-272.22 816.34,-260.569 807.028,-251.081"/>
<polygon fill="midnightblue" stroke="midnightblue" points="809.336,-248.436 799.834,-243.751 804.341,-253.34 809.336,-248.436"/>
</g>
<!-- Node11 -->
<g id="node11" class="node"><title>Node11</title>
<g id="a_node11"><a xlink:href="../../d2/dd5/SettingsWrapper_8hpp.html" target="_top" xlink:title=" ">
<polygon fill="white" stroke="black" points="647.745,-168.5 647.745,-187.5 794.745,-187.5 794.745,-168.5 647.745,-168.5"/>
<text text-anchor="middle" x="721.245" y="-175.5" font-family="Helvetica,sans-Serif" font-size="10.00">Settings/SettingsWrapper.hpp</text>
</a>
</g>
</g>
<!-- Node10&#45;&gt;Node11 -->
<g id="edge11" class="edge"><title>Node10&#45;&gt;Node11</title>
<path fill="none" stroke="midnightblue" d="M774.883,-224.324C762.807,-216.341 746.856,-204.313 735.346,-194.653"/>
<polygon fill="midnightblue" stroke="midnightblue" points="737.379,-191.782 727.547,-187.834 732.772,-197.051 737.379,-191.782"/>
</g>
<!-- Node18 -->
<g id="node18" class="node"><title>Node18</title>
<g id="a_node18"><a xlink:href="../../dd/d80/PrintStream_8hpp.html" target="_top" xlink:title=" ">
<polygon fill="white" stroke="black" points="880.745,-168.5 880.745,-187.5 967.745,-187.5 967.745,-168.5 880.745,-168.5"/>
<text text-anchor="middle" x="924.245" y="-175.5" font-family="Helvetica,sans-Serif" font-size="10.00">PrintStream.hpp</text>
</a>
</g>
</g>
<!-- Node10&#45;&gt;Node18 -->
<g id="edge22" class="edge"><title>Node10&#45;&gt;Node18</title>
<path fill="none" stroke="midnightblue" d="M812.319,-224.444C834.305,-215.517 868.979,-201.439 893.909,-191.317"/>
<polygon fill="midnightblue" stroke="midnightblue" points="895.32,-194.521 903.269,-187.516 892.687,-188.035 895.32,-194.521"/>
</g>
<!-- Node11&#45;&gt;Node6 -->
<g id="edge12" class="edge"><title>Node11&#45;&gt;Node6</title>
<path fill="none" stroke="midnightblue" d="M647.592,-168.619C540.117,-154.903 347.8,-124.26 299.245,-76 287.138,-63.9667 282.652,-44.6755 281.038,-30.2293"/>
<polygon fill="midnightblue" stroke="midnightblue" points="284.502,-29.6253 280.267,-19.9137 277.522,-30.1467 284.502,-29.6253"/>
</g>
<!-- Node11&#45;&gt;Node10 -->
<g id="edge21" class="edge"><title>Node11&#45;&gt;Node10</title>
<path fill="none" stroke="midnightblue" d="M737.574,-187.655C749.715,-195.677 765.784,-207.8 777.318,-217.493"/>
<polygon fill="midnightblue" stroke="midnightblue" points="775.285,-220.366 785.113,-224.324 779.898,-215.101 775.285,-220.366"/>
</g>
<!-- Node12 -->
<g id="node12" class="node"><title>Node12</title>
<g id="a_node12"><a xlink:href="../../db/d02/Settings_8hpp.html" target="_top" xlink:title="All user settings and debugging options can be changed here.">
<polygon fill="white" stroke="black" points="504.745,-112.5 504.745,-131.5 575.745,-131.5 575.745,-112.5 504.745,-112.5"/>
<text text-anchor="middle" x="540.245" y="-119.5" font-family="Helvetica,sans-Serif" font-size="10.00">Settings.hpp</text>
</a>
</g>
</g>
<!-- Node11&#45;&gt;Node12 -->
<g id="edge13" class="edge"><title>Node11&#45;&gt;Node12</title>
<path fill="none" stroke="midnightblue" d="M692.565,-168.444C661.718,-159.241 612.516,-144.562 578.416,-134.388"/>
<polygon fill="midnightblue" stroke="midnightblue" points="579.374,-131.021 568.791,-131.516 577.373,-137.729 579.374,-131.021"/>
</g>
<!-- Node17 -->
<g id="node17" class="node"><title>Node17</title>
<g id="a_node17"><a xlink:href="../../d9/d98/TeensyUSBTypes_8hpp.html" target="_top" xlink:title=" ">
<polygon fill="white" stroke="black" points="670.245,-112.5 670.245,-131.5 822.245,-131.5 822.245,-112.5 670.245,-112.5"/>
<text text-anchor="middle" x="746.245" y="-119.5" font-family="Helvetica,sans-Serif" font-size="10.00">Helpers/TeensyUSBTypes.hpp</text>
</a>
</g>
</g>
<!-- Node11&#45;&gt;Node17 -->
<g id="edge20" class="edge"><title>Node11&#45;&gt;Node17</title>
<path fill="none" stroke="midnightblue" d="M725.373,-168.083C728.759,-160.77 733.661,-150.181 737.864,-141.103"/>
<polygon fill="midnightblue" stroke="midnightblue" points="741.168,-142.296 742.193,-131.751 734.816,-139.355 741.168,-142.296"/>
</g>
<!-- Node12&#45;&gt;Node5 -->
<g id="edge19" class="edge"><title>Node12&#45;&gt;Node5</title>
<path fill="none" stroke="midnightblue" d="M504.51,-115.625C435.488,-105.243 284.62,-82.5495 216.211,-72.2595"/>
<polygon fill="midnightblue" stroke="midnightblue" points="216.374,-68.7448 205.965,-70.7183 215.333,-75.6669 216.374,-68.7448"/>
</g>
<!-- Node12&#45;&gt;Node7 -->
<g id="edge14" class="edge"><title>Node12&#45;&gt;Node7</title>
<path fill="none" stroke="midnightblue" d="M509.98,-112.444C477.29,-103.201 425.063,-88.4356 389.062,-78.2572"/>
<polygon fill="midnightblue" stroke="midnightblue" points="389.943,-74.8691 379.368,-75.5164 388.038,-81.6051 389.943,-74.8691"/>
</g>
<!-- Node13 -->
<g id="node13" class="node"><title>Node13</title>
<g id="a_node13"><a xlink:href="../../d7/d7c/ADCConfig_8hpp.html" target="_top" xlink:title="This file contains the platform&#45;specific ADC resolutions. By default, the library automatically selec...">
<polygon fill="white" stroke="black" points="584.245,-56.5 584.245,-75.5 706.245,-75.5 706.245,-56.5 584.245,-56.5"/>
<text text-anchor="middle" x="645.245" y="-63.5" font-family="Helvetica,sans-Serif" font-size="10.00">Helpers/ADCConfig.hpp</text>
</a>
</g>
</g>
<!-- Node12&#45;&gt;Node13 -->
<g id="edge15" class="edge"><title>Node12&#45;&gt;Node13</title>
<path fill="none" stroke="midnightblue" d="M557.115,-112.324C573.954,-103.664 600.051,-90.2424 619.483,-80.249"/>
<polygon fill="midnightblue" stroke="midnightblue" points="621.124,-83.3405 628.417,-75.6545 617.923,-77.1155 621.124,-83.3405"/>
</g>
<!-- Node15 -->
<g id="node15" class="node"><title>Node15</title>
<g id="a_node15"><a xlink:title=" ">
<polygon fill="white" stroke="#bfbfbf" points="724.245,-56.5 724.245,-75.5 772.245,-75.5 772.245,-56.5 724.245,-56.5"/>
<text text-anchor="middle" x="748.245" y="-63.5" font-family="Helvetica,sans-Serif" font-size="10.00">limits.h</text>
</a>
</g>
</g>
<!-- Node12&#45;&gt;Node15 -->
<g id="edge17" class="edge"><title>Node12&#45;&gt;Node15</title>
<path fill="none" stroke="midnightblue" d="M574.158,-112.435C607.443,-103.995 659.903,-90.6004 714.291,-76.226"/>
<polygon fill="midnightblue" stroke="midnightblue" points="715.334,-79.5705 724.105,-73.6271 713.542,-72.8037 715.334,-79.5705"/>
</g>
<!-- Node12&#45;&gt;Node16 -->
<g id="edge18" class="edge"><title>Node12&#45;&gt;Node16</title>
<path fill="none" stroke="midnightblue" d="M576.105,-114.442C632.725,-104.068 739.862,-84.3577 780.077,-76.0717"/>
<polygon fill="midnightblue" stroke="midnightblue" points="780.868,-79.4818 789.917,-73.9718 779.407,-72.636 780.868,-79.4818"/>
</g>
<!-- Node14 -->
<g id="node14" class="node"><title>Node14</title>
<g id="a_node14"><a xlink:title=" ">
<polygon fill="white" stroke="#bfbfbf" points="616.245,-0.5 616.245,-19.5 674.245,-19.5 674.245,-0.5 616.245,-0.5"/>
<text text-anchor="middle" x="645.245" y="-7.5" font-family="Helvetica,sans-Serif" font-size="10.00">Arduino.h</text>
</a>
</g>
</g>
<!-- Node13&#45;&gt;Node14 -->
<g id="edge16" class="edge"><title>Node13&#45;&gt;Node14</title>
<path fill="none" stroke="midnightblue" d="M645.245,-56.083C645.245,-49.0059 645.245,-38.8611 645.245,-29.9865"/>
<polygon fill="midnightblue" stroke="midnightblue" points="648.745,-29.751 645.245,-19.7511 641.745,-29.7511 648.745,-29.751"/>
</g>
<!-- Node18&#45;&gt;Node14 -->
<g id="edge23" class="edge"><title>Node18&#45;&gt;Node14</title>
<path fill="none" stroke="midnightblue" d="M921.681,-168.323C914.564,-145.845 892.334,-85.4274 851.245,-56 801.512,-20.3818 728.933,-12.0894 684.523,-10.6253"/>
<polygon fill="midnightblue" stroke="midnightblue" points="684.489,-7.12373 674.412,-10.3943 684.329,-14.1219 684.489,-7.12373"/>
</g>
<!-- Node19&#45;&gt;Node11 -->
<g id="edge40" class="edge"><title>Node19&#45;&gt;Node11</title>
<path fill="none" stroke="midnightblue" d="M931.162,-576.963C937.412,-548.79 956.505,-459.882 951.245,-448 911.631,-358.526 852.39,-373.894 788.245,-300 768.527,-277.286 764.874,-270.281 750.245,-244 741.709,-228.665 733.718,-210.338 728.295,-197.06"/>
<polygon fill="midnightblue" stroke="midnightblue" points="731.494,-195.634 724.535,-187.646 724.994,-198.231 731.494,-195.634"/>
</g>
<!-- Node20 -->
<g id="node20" class="node"><title>Node20</title>
<g id="a_node20"><a xlink:href="../../dd/ddf/ExtendedInputOutput_8hpp.html" target="_top" xlink:title=" ">
<polygon fill="white" stroke="black" points="957.245,-504.5 957.245,-534.5 1111.24,-534.5 1111.24,-504.5 957.245,-504.5"/>
<text text-anchor="start" x="965.245" y="-522.5" font-family="Helvetica,sans-Serif" font-size="10.00">Hardware/ExtendedInputOutput</text>
<text text-anchor="middle" x="1034.24" y="-511.5" font-family="Helvetica,sans-Serif" font-size="10.00">/ExtendedInputOutput.hpp</text>
</a>
</g>
</g>
<!-- Node19&#45;&gt;Node20 -->
<g id="edge29" class="edge"><title>Node19&#45;&gt;Node20</title>
<path fill="none" stroke="midnightblue" d="M943.406,-576.734C958.551,-567.358 983.056,-552.188 1002.8,-539.966"/>
<polygon fill="midnightblue" stroke="midnightblue" points="1004.83,-542.829 1011.49,-534.589 1001.14,-536.877 1004.83,-542.829"/>
</g>
<!-- Node20&#45;&gt;Node14 -->
<g id="edge39" class="edge"><title>Node20&#45;&gt;Node14</title>
<path fill="none" stroke="midnightblue" d="M1034.24,-504.275C1034.24,-482.476 1034.24,-439.495 1034.24,-403 1034.24,-403 1034.24,-403 1034.24,-121 1034.24,-48.8829 783.551,-21.664 684.668,-13.7328"/>
<polygon fill="midnightblue" stroke="midnightblue" points="684.724,-10.2267 674.483,-12.9414 684.182,-17.2057 684.724,-10.2267"/>
</g>
<!-- Node21 -->
<g id="node21" class="node"><title>Node21</title>
<g id="a_node21"><a xlink:href="../../d4/d57/ExtendedIOElement_8hpp.html" target="_top" xlink:title=" ">
<polygon fill="white" stroke="black" points="684.745,-448.5 684.745,-467.5 807.745,-467.5 807.745,-448.5 684.745,-448.5"/>
<text text-anchor="middle" x="746.245" y="-455.5" font-family="Helvetica,sans-Serif" font-size="10.00">ExtendedIOElement.hpp</text>
</a>
</g>
</g>
<!-- Node20&#45;&gt;Node21 -->
<g id="edge30" class="edge"><title>Node20&#45;&gt;Node21</title>
<path fill="none" stroke="midnightblue" d="M966.358,-504.475C914.61,-493.784 844.461,-479.291 797.391,-469.567"/>
<polygon fill="midnightblue" stroke="midnightblue" points="797.92,-466.102 787.419,-467.506 796.504,-472.957 797.92,-466.102"/>
</g>
<!-- Node21&#45;&gt;Node3 -->
<g id="edge31" class="edge"><title>Node21&#45;&gt;Node3</title>
<path fill="none" stroke="midnightblue" d="M684.327,-450.106C585.309,-439.081 393.624,-417.739 306.413,-408.029"/>
<polygon fill="midnightblue" stroke="midnightblue" points="306.635,-404.532 296.309,-406.904 305.86,-411.489 306.635,-404.532"/>
</g>
<!-- Node22 -->
<g id="node22" class="node"><title>Node22</title>
<g id="a_node22"><a xlink:href="../../de/dd1/LinkedList_8hpp.html" target="_top" xlink:title=" ">
<polygon fill="white" stroke="black" points="599.245,-392.5 599.245,-411.5 715.245,-411.5 715.245,-392.5 599.245,-392.5"/>
<text text-anchor="middle" x="657.245" y="-399.5" font-family="Helvetica,sans-Serif" font-size="10.00">Helpers/LinkedList.hpp</text>
</a>
</g>
</g>
<!-- Node21&#45;&gt;Node22 -->
<g id="edge32" class="edge"><title>Node21&#45;&gt;Node22</title>
<path fill="none" stroke="midnightblue" d="M731.945,-448.324C718.062,-439.9 696.752,-426.971 680.441,-417.074"/>
<polygon fill="midnightblue" stroke="midnightblue" points="681.874,-413.85 671.509,-411.655 678.243,-419.834 681.874,-413.85"/>
</g>
<!-- Node22&#45;&gt;Node10 -->
<g id="edge33" class="edge"><title>Node22&#45;&gt;Node10</title>
<path fill="none" stroke="midnightblue" d="M669.45,-392.198C680.771,-383.688 697.71,-370.052 710.245,-356 740.12,-322.508 767.515,-277.274 781.502,-252.693"/>
<polygon fill="midnightblue" stroke="midnightblue" points="784.653,-254.228 786.49,-243.794 778.547,-250.805 784.653,-254.228"/>
</g>
<!-- Node23 -->
<g id="node23" class="node"><title>Node23</title>
<g id="a_node23"><a xlink:title=" ">
<polygon fill="white" stroke="#bfbfbf" points="550.245,-336.5 550.245,-355.5 598.245,-355.5 598.245,-336.5 550.245,-336.5"/>
<text text-anchor="middle" x="574.245" y="-343.5" font-family="Helvetica,sans-Serif" font-size="10.00">stdlib.h</text>
</a>
</g>
</g>
<!-- Node22&#45;&gt;Node23 -->
<g id="edge34" class="edge"><title>Node22&#45;&gt;Node23</title>
<path fill="none" stroke="midnightblue" d="M643.909,-392.324C631.083,-383.979 611.46,-371.212 596.305,-361.352"/>
<polygon fill="midnightblue" stroke="midnightblue" points="597.838,-358.174 587.547,-355.655 594.021,-364.042 597.838,-358.174"/>
</g>
<!-- Node24 -->
<g id="node24" class="node"><title>Node24</title>
<g id="a_node24"><a xlink:href="../../d7/d79/MinMaxFix_8hpp.html" target="_top" xlink:title=" ">
<polygon fill="white" stroke="black" points="408.245,-56.5 408.245,-75.5 528.245,-75.5 528.245,-56.5 408.245,-56.5"/>
<text text-anchor="middle" x="468.245" y="-63.5" font-family="Helvetica,sans-Serif" font-size="10.00">Helpers/MinMaxFix.hpp</text>
</a>
</g>
</g>
<!-- Node22&#45;&gt;Node24 -->
<g id="edge35" class="edge"><title>Node22&#45;&gt;Node24</title>
<path fill="none" stroke="midnightblue" d="M651.445,-392.445C629.365,-359.664 549.089,-238.56 495.245,-132 487.418,-116.51 479.965,-98.1998 474.88,-84.9672"/>
<polygon fill="midnightblue" stroke="midnightblue" points="478.149,-83.7177 471.348,-75.5942 471.599,-86.1861 478.149,-83.7177"/>
</g>
<!-- Node25 -->
<g id="node25" class="node"><title>Node25</title>
<g id="a_node25"><a xlink:title=" ">
<polygon fill="white" stroke="#bfbfbf" points="654.745,-336.5 654.745,-355.5 701.745,-355.5 701.745,-336.5 654.745,-336.5"/>
<text text-anchor="middle" x="678.245" y="-343.5" font-family="Helvetica,sans-Serif" font-size="10.00">iterator</text>
</a>
</g>
</g>
<!-- Node22&#45;&gt;Node25 -->
<g id="edge38" class="edge"><title>Node22&#45;&gt;Node25</title>
<path fill="none" stroke="midnightblue" d="M660.713,-392.083C663.557,-384.77 667.674,-374.181 671.205,-365.103"/>
<polygon fill="midnightblue" stroke="midnightblue" points="674.479,-366.34 674.842,-355.751 667.955,-363.803 674.479,-366.34"/>
</g>
<!-- Node24&#45;&gt;Node6 -->
<g id="edge37" class="edge"><title>Node24&#45;&gt;Node6</title>
<path fill="none" stroke="midnightblue" d="M438.456,-56.4435C406.416,-47.2406 355.311,-32.5617 319.892,-22.3879"/>
<polygon fill="midnightblue" stroke="midnightblue" points="320.472,-18.9132 309.895,-19.5164 318.54,-25.6412 320.472,-18.9132"/>
</g>
<!-- Node24&#45;&gt;Node14 -->
<g id="edge36" class="edge"><title>Node24&#45;&gt;Node14</title>
<path fill="none" stroke="midnightblue" d="M496.291,-56.4435C526.327,-47.2801 574.158,-32.6876 607.487,-22.5192"/>
<polygon fill="midnightblue" stroke="midnightblue" points="608.786,-25.7822 617.33,-19.5164 606.744,-19.0869 608.786,-25.7822"/>
</g>
<!-- Node26&#45;&gt;Node3 -->
<g id="edge43" class="edge"><title>Node26&#45;&gt;Node3</title>
<path fill="none" stroke="midnightblue" d="M209.845,-504.264C213.815,-489.689 220.898,-466.6 230.245,-448 235.25,-438.04 242.191,-427.743 248.237,-419.516"/>
<polygon fill="midnightblue" stroke="midnightblue" points="251.052,-421.597 254.312,-411.517 245.477,-417.364 251.052,-421.597"/>
</g>
<!-- Node27 -->
<g id="node27" class="node"><title>Node27</title>
<g id="a_node27"><a xlink:href="../../d8/d38/MIDICNChannelAddress_8hpp.html" target="_top" xlink:title=" ">
<polygon fill="white" stroke="black" points="14.7448,-448.5 14.7448,-467.5 177.745,-467.5 177.745,-448.5 14.7448,-448.5"/>
<text text-anchor="middle" x="96.2448" y="-455.5" font-family="Helvetica,sans-Serif" font-size="10.00">Def/MIDICNChannelAddress.hpp</text>
</a>
</g>
</g>
<!-- Node26&#45;&gt;Node27 -->
<g id="edge44" class="edge"><title>Node26&#45;&gt;Node27</title>
<path fill="none" stroke="midnightblue" d="M180.176,-504.399C162.379,-494.773 138.933,-482.09 121.345,-472.577"/>
<polygon fill="midnightblue" stroke="midnightblue" points="122.712,-469.337 112.251,-467.658 119.381,-475.494 122.712,-469.337"/>
</g>
<!-- Node28 -->
<g id="node28" class="node"><title>Node28</title>
<g id="a_node28"><a xlink:href="../../d4/d93/Updatable_8hpp.html" target="_top" xlink:title=" ">
<polygon fill="white" stroke="black" points="826.245,-448.5 826.245,-467.5 942.245,-467.5 942.245,-448.5 826.245,-448.5"/>
<text text-anchor="middle" x="884.245" y="-455.5" font-family="Helvetica,sans-Serif" font-size="10.00">Helpers/Updatable.hpp</text>
</a>
</g>
</g>
<!-- Node26&#45;&gt;Node28 -->
<g id="edge46" class="edge"><title>Node26&#45;&gt;Node28</title>
<path fill="none" stroke="midnightblue" d="M269.128,-514.315C378.077,-506.839 609.215,-489.994 815.895,-467.981"/>
<polygon fill="midnightblue" stroke="midnightblue" points="816.459,-471.441 826.029,-466.896 815.713,-464.481 816.459,-471.441"/>
</g>
<!-- Node27&#45;&gt;Node3 -->
<g id="edge45" class="edge"><title>Node27&#45;&gt;Node3</title>
<path fill="none" stroke="midnightblue" d="M122.39,-448.444C150.268,-439.32 194.593,-424.813 225.645,-414.651"/>
<polygon fill="midnightblue" stroke="midnightblue" points="226.807,-417.953 235.222,-411.516 224.63,-411.3 226.807,-417.953"/>
</g>
<!-- Node28&#45;&gt;Node3 -->
<g id="edge47" class="edge"><title>Node28&#45;&gt;Node3</title>
<path fill="none" stroke="midnightblue" d="M826.029,-449.098C822.721,-448.71 819.442,-448.341 816.245,-448 627.235,-427.843 401.153,-412.102 306.454,-405.886"/>
<polygon fill="midnightblue" stroke="midnightblue" points="306.574,-402.386 296.367,-405.227 306.118,-409.371 306.574,-402.386"/>
</g>
<!-- Node28&#45;&gt;Node9 -->
<g id="edge48" class="edge"><title>Node28&#45;&gt;Node9</title>
<path fill="none" stroke="midnightblue" d="M882.094,-448.075C875.798,-421.945 857.308,-345.211 848.721,-309.577"/>
<polygon fill="midnightblue" stroke="midnightblue" points="852.055,-308.47 846.309,-299.568 845.249,-310.11 852.055,-308.47"/>
</g>
<!-- Node28&#45;&gt;Node11 -->
<g id="edge50" class="edge"><title>Node28&#45;&gt;Node11</title>
<path fill="none" stroke="midnightblue" d="M868.566,-448.388C833.414,-428.058 748.911,-373.233 717.245,-300 702.632,-266.206 709.89,-222.005 715.93,-197.463"/>
<polygon fill="midnightblue" stroke="midnightblue" points="719.345,-198.242 718.537,-187.678 712.58,-196.44 719.345,-198.242"/>
</g>
<!-- Node28&#45;&gt;Node16 -->
<g id="edge51" class="edge"><title>Node28&#45;&gt;Node16</title>
<path fill="none" stroke="midnightblue" d="M904.268,-448.442C936.483,-433.168 996.245,-397.965 996.245,-347 996.245,-347 996.245,-347 996.245,-177 996.245,-110.22 904.923,-82.7642 852.373,-72.4935"/>
<polygon fill="midnightblue" stroke="midnightblue" points="852.887,-69.0294 842.418,-70.6619 851.62,-75.9138 852.887,-69.0294"/>
</g>
<!-- Node28&#45;&gt;Node22 -->
<g id="edge49" class="edge"><title>Node28&#45;&gt;Node22</title>
<path fill="none" stroke="midnightblue" d="M848.276,-448.444C808.925,-439.083 745.758,-424.056 702.931,-413.868"/>
<polygon fill="midnightblue" stroke="midnightblue" points="703.584,-410.426 693.045,-411.516 701.964,-417.236 703.584,-410.426"/>
</g>
<!-- Node30 -->
<g id="node30" class="node"><title>Node30</title>
<g id="a_node30"><a xlink:href="../../d3/d37/Control__Surface__Class_8hpp.html" target="_top" xlink:title=" ">
<polygon fill="white" stroke="black" points="414.245,-571.5 414.245,-601.5 536.245,-601.5 536.245,-571.5 414.245,-571.5"/>
<text text-anchor="start" x="422.245" y="-589.5" font-family="Helvetica,sans-Serif" font-size="10.00">Control_Surface/Control</text>
<text text-anchor="middle" x="475.245" y="-578.5" font-family="Helvetica,sans-Serif" font-size="10.00">_Surface_Class.hpp</text>
</a>
</g>
</g>
<!-- Node29&#45;&gt;Node30 -->
<g id="edge53" class="edge"><title>Node29&#45;&gt;Node30</title>
<path fill="none" stroke="midnightblue" d="M475.245,-638.396C475.245,-630.645 475.245,-620.812 475.245,-611.86"/>
<polygon fill="midnightblue" stroke="midnightblue" points="478.745,-611.576 475.245,-601.577 471.745,-611.577 478.745,-611.576"/>
</g>
<!-- Node31 -->
<g id="node31" class="node"><title>Node31</title>
<g id="a_node31"><a xlink:href="../../d6/d04/MIDI__Interface_8hpp.html" target="_top" xlink:title=" ">
<polygon fill="white" stroke="black" points="13.2448,-504.5 13.2448,-534.5 125.245,-534.5 125.245,-504.5 13.2448,-504.5"/>
<text text-anchor="start" x="21.2448" y="-522.5" font-family="Helvetica,sans-Serif" font-size="10.00">MIDI_Interfaces/MIDI</text>
<text text-anchor="middle" x="69.2448" y="-511.5" font-family="Helvetica,sans-Serif" font-size="10.00">_Interface.hpp</text>
</a>
</g>
</g>
<!-- Node30&#45;&gt;Node31 -->
<g id="edge54" class="edge"><title>Node30&#45;&gt;Node31</title>
<path fill="none" stroke="midnightblue" d="M414.041,-577.796C347.758,-569.147 238.713,-554.031 135.529,-535.163"/>
<polygon fill="midnightblue" stroke="midnightblue" points="136.033,-531.697 125.564,-533.326 134.763,-538.581 136.033,-531.697"/>
</g>
<!-- Node33 -->
<g id="node33" class="node"><title>Node33</title>
<g id="a_node33"><a xlink:href="../../d6/dd2/DisplayElement_8hpp.html" target="_top" xlink:title=" ">
<polygon fill="white" stroke="black" points="522.245,-510 522.245,-529 662.245,-529 662.245,-510 522.245,-510"/>
<text text-anchor="middle" x="592.245" y="-517" font-family="Helvetica,sans-Serif" font-size="10.00">Display/DisplayElement.hpp</text>
</a>
</g>
</g>
<!-- Node30&#45;&gt;Node33 -->
<g id="edge63" class="edge"><title>Node30&#45;&gt;Node33</title>
<path fill="none" stroke="midnightblue" d="M500.632,-571.396C520.616,-560.294 548.287,-544.921 567.976,-533.983"/>
<polygon fill="midnightblue" stroke="midnightblue" points="569.89,-536.923 576.932,-529.007 566.491,-530.804 569.89,-536.923"/>
</g>
<!-- Node34 -->
<g id="node34" class="node"><title>Node34</title>
<g id="a_node34"><a xlink:href="../../dc/d77/DisplayInterface_8hpp.html" target="_top" xlink:title=" ">
<polygon fill="white" stroke="black" points="484.745,-448.5 484.745,-467.5 627.745,-467.5 627.745,-448.5 484.745,-448.5"/>
<text text-anchor="middle" x="556.245" y="-455.5" font-family="Helvetica,sans-Serif" font-size="10.00">Display/DisplayInterface.hpp</text>
</a>
</g>
</g>
<!-- Node30&#45;&gt;Node34 -->
<g id="edge69" class="edge"><title>Node30&#45;&gt;Node34</title>
<path fill="none" stroke="midnightblue" d="M480.27,-571.207C486.566,-554.324 498.359,-525.783 513.245,-504 520.545,-493.318 530.423,-482.784 538.87,-474.597"/>
<polygon fill="midnightblue" stroke="midnightblue" points="541.498,-476.93 546.4,-467.538 536.711,-471.823 541.498,-476.93"/>
</g>
<!-- Node36 -->
<g id="node36" class="node"><title>Node36</title>
<g id="a_node36"><a xlink:href="../../d7/d74/MillisTimer_8hpp.html" target="_top" xlink:title=" ">
<polygon fill="white" stroke="black" points="402.745,-280.5 402.745,-299.5 521.745,-299.5 521.745,-280.5 402.745,-280.5"/>
<text text-anchor="middle" x="462.245" y="-287.5" font-family="Helvetica,sans-Serif" font-size="10.00">Helpers/MillisTimer.hpp</text>
</a>
</g>
</g>
<!-- Node30&#45;&gt;Node36 -->
<g id="edge70" class="edge"><title>Node30&#45;&gt;Node36</title>
<path fill="none" stroke="midnightblue" d="M474.618,-571.296C472.482,-522.912 465.49,-364.511 463.074,-309.792"/>
<polygon fill="midnightblue" stroke="midnightblue" points="466.558,-309.342 462.62,-299.506 459.565,-309.651 466.558,-309.342"/>
</g>
<!-- Node31&#45;&gt;Node3 -->
<g id="edge55" class="edge"><title>Node31&#45;&gt;Node3</title>
<path fill="none" stroke="midnightblue" d="M41.3634,-504.476C17.1261,-490.451 -11.6554,-468.13 5.24482,-448 31.6163,-416.589 149.609,-407.097 215.813,-404.233"/>
<polygon fill="midnightblue" stroke="midnightblue" points="216.119,-407.724 225.972,-403.828 215.84,-400.73 216.119,-407.724"/>
</g>
<!-- Node31&#45;&gt;Node27 -->
<g id="edge56" class="edge"><title>Node31&#45;&gt;Node27</title>
<path fill="none" stroke="midnightblue" d="M75.6434,-504.399C79.3646,-496.199 84.0921,-485.781 88.0797,-476.994"/>
<polygon fill="midnightblue" stroke="midnightblue" points="91.371,-478.21 92.3161,-467.658 84.9966,-475.318 91.371,-478.21"/>
</g>
<!-- Node32 -->
<g id="node32" class="node"><title>Node32</title>
<g id="a_node32"><a xlink:href="../../d7/d2d/MIDI__Parser_8hpp.html" target="_top" xlink:title=" ">
<polygon fill="white" stroke="black" points="272.745,-448.5 272.745,-467.5 427.745,-467.5 427.745,-448.5 272.745,-448.5"/>
<text text-anchor="middle" x="350.245" y="-455.5" font-family="Helvetica,sans-Serif" font-size="10.00">MIDI_Parsers/MIDI_Parser.hpp</text>
</a>
</g>
</g>
<!-- Node31&#45;&gt;Node32 -->
<g id="edge57" class="edge"><title>Node31&#45;&gt;Node32</title>
<path fill="none" stroke="midnightblue" d="M125.254,-505.953C128.294,-505.288 131.306,-504.634 134.245,-504 190.347,-491.899 254.768,-478.548 298.553,-469.556"/>
<polygon fill="midnightblue" stroke="midnightblue" points="299.303,-472.975 308.396,-467.537 297.896,-466.118 299.303,-472.975"/>
</g>
<!-- Node32&#45;&gt;Node3 -->
<g id="edge61" class="edge"><title>Node32&#45;&gt;Node3</title>
<path fill="none" stroke="midnightblue" d="M335.945,-448.324C322.062,-439.9 300.752,-426.971 284.441,-417.074"/>
<polygon fill="midnightblue" stroke="midnightblue" points="285.874,-413.85 275.509,-411.655 282.243,-419.834 285.874,-413.85"/>
</g>
<!-- Node32&#45;&gt;Node5 -->
<g id="edge59" class="edge"><title>Node32&#45;&gt;Node5</title>
<path fill="none" stroke="midnightblue" d="M272.6,-450.075C208.582,-439.592 128.245,-413.241 128.245,-347 128.245,-347 128.245,-347 128.245,-289 128.245,-211.461 159.212,-122.749 173.805,-85.2509"/>
<polygon fill="midnightblue" stroke="midnightblue" points="177.159,-86.2889 177.602,-75.7033 170.654,-83.7019 177.159,-86.2889"/>
</g>
<!-- Node32&#45;&gt;Node11 -->
<g id="edge62" class="edge"><title>Node32&#45;&gt;Node11</title>
<path fill="none" stroke="midnightblue" d="M361.902,-448.358C378.737,-435.885 410.842,-412.124 438.245,-392 494.132,-350.957 508.78,-341.612 564.245,-300 614.387,-262.382 672.661,-217.035 702.108,-194.005"/>
<polygon fill="midnightblue" stroke="midnightblue" points="704.563,-196.528 710.28,-187.607 700.248,-191.016 704.563,-196.528"/>
</g>
<!-- Node32&#45;&gt;Node16 -->
<g id="edge58" class="edge"><title>Node32&#45;&gt;Node16</title>
<path fill="none" stroke="midnightblue" d="M350.257,-448.401C350.697,-421.206 355.203,-335.586 393.245,-280 466.987,-172.251 515.264,-165.773 634.245,-112 692.666,-85.5965 713.996,-91.6973 779.833,-76.2553"/>
<polygon fill="midnightblue" stroke="midnightblue" points="780.989,-79.5765 789.88,-73.8142 779.336,-72.7744 780.989,-79.5765"/>
</g>
<!-- Node32&#45;&gt;Node23 -->
<g id="edge60" class="edge"><title>Node32&#45;&gt;Node23</title>
<path fill="none" stroke="midnightblue" d="M367.822,-448.368C406.915,-429.171 501.258,-382.842 547.621,-360.074"/>
<polygon fill="midnightblue" stroke="midnightblue" points="549.316,-363.141 556.75,-355.591 546.231,-356.858 549.316,-363.141"/>
</g>
<!-- Node33&#45;&gt;Node22 -->
<g id="edge68" class="edge"><title>Node33&#45;&gt;Node22</title>
<path fill="none" stroke="midnightblue" d="M601.935,-509.707C611.816,-500.265 626.973,-484.398 636.245,-468 644.453,-453.483 649.98,-435.301 653.295,-421.861"/>
<polygon fill="midnightblue" stroke="midnightblue" points="656.762,-422.399 655.569,-411.872 649.937,-420.845 656.762,-422.399"/>
</g>
<!-- Node33&#45;&gt;Node34 -->
<g id="edge64" class="edge"><title>Node33&#45;&gt;Node34</title>
<path fill="none" stroke="midnightblue" d="M587.087,-509.975C581.794,-501.227 573.409,-487.369 566.718,-476.309"/>
<polygon fill="midnightblue" stroke="midnightblue" points="569.564,-474.253 561.393,-467.509 563.575,-477.877 569.564,-474.253"/>
</g>
<!-- Node34&#45;&gt;Node3 -->
<g id="edge65" class="edge"><title>Node34&#45;&gt;Node3</title>
<path fill="none" stroke="midnightblue" d="M509.501,-448.444C453.945,-438.274 361.857,-421.417 306.819,-411.342"/>
<polygon fill="midnightblue" stroke="midnightblue" points="307.126,-407.841 296.659,-409.483 305.866,-414.726 307.126,-407.841"/>
</g>
<!-- Node34&#45;&gt;Node22 -->
<g id="edge66" class="edge"><title>Node34&#45;&gt;Node22</title>
<path fill="none" stroke="midnightblue" d="M572.472,-448.324C588.596,-439.703 613.545,-426.364 632.209,-416.386"/>
<polygon fill="midnightblue" stroke="midnightblue" points="633.889,-419.456 641.058,-411.655 630.589,-413.283 633.889,-419.456"/>
</g>
<!-- Node35 -->
<g id="node35" class="node"><title>Node35</title>
<g id="a_node35"><a xlink:title=" ">
<polygon fill="white" stroke="#bfbfbf" points="533.745,-392.5 533.745,-411.5 578.745,-411.5 578.745,-392.5 533.745,-392.5"/>
<text text-anchor="middle" x="556.245" y="-399.5" font-family="Helvetica,sans-Serif" font-size="10.00">Print.h</text>
</a>
</g>
</g>
<!-- Node34&#45;&gt;Node35 -->
<g id="edge67" class="edge"><title>Node34&#45;&gt;Node35</title>
<path fill="none" stroke="midnightblue" d="M556.245,-448.083C556.245,-441.006 556.245,-430.861 556.245,-421.986"/>
<polygon fill="midnightblue" stroke="midnightblue" points="559.745,-421.751 556.245,-411.751 552.745,-421.751 559.745,-421.751"/>
</g>
<!-- Node36&#45;&gt;Node14 -->
<g id="edge71" class="edge"><title>Node36&#45;&gt;Node14</title>
<path fill="none" stroke="midnightblue" d="M461.674,-280.434C460.288,-253.337 459.193,-167.976 495.245,-112 503.347,-99.42 582.574,-49.5612 622.495,-24.9255"/>
<polygon fill="midnightblue" stroke="midnightblue" points="624.374,-27.879 631.056,-19.6572 620.705,-21.9173 624.374,-27.879"/>
</g>
</g>
</svg>
