<?xml version="1.0" encoding="UTF-8" standalone="no"?>
<!DOCTYPE svg PUBLIC "-//W3C//DTD SVG 1.1//EN"
 "http://www.w3.org/Graphics/SVG/1.1/DTD/svg11.dtd">
<!-- Generated by graphviz version 2.38.0 (20140413.2041)
 -->
<!-- Title: BluetoothMIDI_Interface.hpp Pages: 1 -->
<svg width="1270pt" height="487pt"
 viewBox="0.00 0.00 1270.00 487.00" xmlns="http://www.w3.org/2000/svg" xmlns:xlink="http://www.w3.org/1999/xlink">
<g id="graph0" class="graph" transform="scale(1 1) rotate(0) translate(4 483)">
<title>BluetoothMIDI_Interface.hpp</title>
<polygon fill="white" stroke="none" points="-4,4 -4,-483 1266,-483 1266,4 -4,4"/>
<!-- Node0 -->
<g id="node1" class="node"><title>Node0</title>
<g id="a_node1"><a xlink:title=" ">
<polygon fill="#bfbfbf" stroke="black" points="324,-459.5 324,-478.5 466,-478.5 466,-459.5 324,-459.5"/>
<text text-anchor="middle" x="395" y="-466.5" font-family="Helvetica,sans-Serif" font-size="10.00">BluetoothMIDI_Interface.hpp</text>
</a>
</g>
</g>
<!-- Node1 -->
<g id="node2" class="node"><title>Node1</title>
<g id="a_node2"><a xlink:href="../../d0/dc9/BLEMIDI_8hpp.html" target="_top" xlink:title=" ">
<polygon fill="white" stroke="black" points="211,-403.5 211,-422.5 287,-422.5 287,-403.5 211,-403.5"/>
<text text-anchor="middle" x="249" y="-410.5" font-family="Helvetica,sans-Serif" font-size="10.00">BLEMIDI.hpp</text>
</a>
</g>
</g>
<!-- Node0&#45;&gt;Node1 -->
<g id="edge1" class="edge"><title>Node0&#45;&gt;Node1</title>
<path fill="none" stroke="midnightblue" d="M371.866,-459.444C347.518,-450.438 308.993,-436.189 281.577,-426.049"/>
<polygon fill="midnightblue" stroke="midnightblue" points="282.619,-422.703 272.026,-422.516 280.191,-429.268 282.619,-422.703"/>
</g>
<!-- Node6 -->
<g id="node7" class="node"><title>Node6</title>
<g id="a_node7"><a xlink:href="../../d1/d93/Error_8hpp.html" target="_top" xlink:title=" ">
<polygon fill="white" stroke="black" points="348.5,-342 348.5,-361 441.5,-361 441.5,-342 348.5,-342"/>
<text text-anchor="middle" x="395" y="-349" font-family="Helvetica,sans-Serif" font-size="10.00">Helpers/Error.hpp</text>
</a>
</g>
</g>
<!-- Node0&#45;&gt;Node6 -->
<g id="edge37" class="edge"><title>Node0&#45;&gt;Node6</title>
<path fill="none" stroke="midnightblue" d="M395,-459.319C395,-440.757 395,-396.839 395,-371.473"/>
<polygon fill="midnightblue" stroke="midnightblue" points="398.5,-371.282 395,-361.282 391.5,-371.282 398.5,-371.282"/>
</g>
<!-- Node19 -->
<g id="node20" class="node"><title>Node19</title>
<g id="a_node20"><a xlink:href="../../d1/d23/SerialMIDI__Interface_8hpp.html" target="_top" xlink:title=" ">
<polygon fill="white" stroke="black" points="613.5,-403.5 613.5,-422.5 738.5,-422.5 738.5,-403.5 613.5,-403.5"/>
<text text-anchor="middle" x="676" y="-410.5" font-family="Helvetica,sans-Serif" font-size="10.00">SerialMIDI_Interface.hpp</text>
</a>
</g>
</g>
<!-- Node0&#45;&gt;Node19 -->
<g id="edge22" class="edge"><title>Node0&#45;&gt;Node19</title>
<path fill="none" stroke="midnightblue" d="M439.525,-459.444C488.956,-449.944 568.746,-434.611 621.778,-424.42"/>
<polygon fill="midnightblue" stroke="midnightblue" points="622.523,-427.841 631.683,-422.516 621.202,-420.967 622.523,-427.841"/>
</g>
<!-- Node2 -->
<g id="node3" class="node"><title>Node2</title>
<g id="a_node3"><a xlink:title=" ">
<polygon fill="white" stroke="#bfbfbf" points="172.5,-342 172.5,-361 237.5,-361 237.5,-342 172.5,-342"/>
<text text-anchor="middle" x="205" y="-349" font-family="Helvetica,sans-Serif" font-size="10.00">BLE2902.h</text>
</a>
</g>
</g>
<!-- Node1&#45;&gt;Node2 -->
<g id="edge2" class="edge"><title>Node1&#45;&gt;Node2</title>
<path fill="none" stroke="midnightblue" d="M242.696,-403.475C236.096,-394.55 225.563,-380.307 217.307,-369.143"/>
<polygon fill="midnightblue" stroke="midnightblue" points="220.052,-366.968 211.292,-361.009 214.424,-371.131 220.052,-366.968"/>
</g>
<!-- Node3 -->
<g id="node4" class="node"><title>Node3</title>
<g id="a_node4"><a xlink:title=" ">
<polygon fill="white" stroke="#bfbfbf" points="256,-342 256,-361 330,-361 330,-342 256,-342"/>
<text text-anchor="middle" x="293" y="-349" font-family="Helvetica,sans-Serif" font-size="10.00">BLEDevice.h</text>
</a>
</g>
</g>
<!-- Node1&#45;&gt;Node3 -->
<g id="edge3" class="edge"><title>Node1&#45;&gt;Node3</title>
<path fill="none" stroke="midnightblue" d="M255.304,-403.475C261.904,-394.55 272.437,-380.307 280.693,-369.143"/>
<polygon fill="midnightblue" stroke="midnightblue" points="283.576,-371.131 286.708,-361.009 277.948,-366.968 283.576,-371.131"/>
</g>
<!-- Node4 -->
<g id="node5" class="node"><title>Node4</title>
<g id="a_node5"><a xlink:title=" ">
<polygon fill="white" stroke="#bfbfbf" points="0,-342 0,-361 72,-361 72,-342 0,-342"/>
<text text-anchor="middle" x="36" y="-349" font-family="Helvetica,sans-Serif" font-size="10.00">BLEServer.h</text>
</a>
</g>
</g>
<!-- Node1&#45;&gt;Node4 -->
<g id="edge4" class="edge"><title>Node1&#45;&gt;Node4</title>
<path fill="none" stroke="midnightblue" d="M215.074,-403.444C181.042,-394.737 127.195,-380.62 81,-367 77.8508,-366.071 74.5871,-365.079 71.3216,-364.066"/>
<polygon fill="midnightblue" stroke="midnightblue" points="72.2219,-360.68 61.6321,-361.004 70.1128,-367.354 72.2219,-360.68"/>
</g>
<!-- Node5 -->
<g id="node6" class="node"><title>Node5</title>
<g id="a_node6"><a xlink:title=" ">
<polygon fill="white" stroke="#bfbfbf" points="90,-342 90,-361 154,-361 154,-342 90,-342"/>
<text text-anchor="middle" x="122" y="-349" font-family="Helvetica,sans-Serif" font-size="10.00">BLEUtils.h</text>
</a>
</g>
</g>
<!-- Node1&#45;&gt;Node5 -->
<g id="edge5" class="edge"><title>Node1&#45;&gt;Node5</title>
<path fill="none" stroke="midnightblue" d="M230.804,-403.475C209.491,-393.49 173.969,-376.848 149.337,-365.307"/>
<polygon fill="midnightblue" stroke="midnightblue" points="150.703,-362.082 140.162,-361.009 147.733,-368.421 150.703,-362.082"/>
</g>
<!-- Node1&#45;&gt;Node6 -->
<g id="edge6" class="edge"><title>Node1&#45;&gt;Node6</title>
<path fill="none" stroke="midnightblue" d="M269.918,-403.475C294.746,-393.357 336.343,-376.405 364.694,-364.851"/>
<polygon fill="midnightblue" stroke="midnightblue" points="366.181,-368.024 374.121,-361.009 363.539,-361.542 366.181,-368.024"/>
</g>
<!-- Node7 -->
<g id="node8" class="node"><title>Node7</title>
<g id="a_node8"><a xlink:href="../../df/dee/Debug_8hpp.html" target="_top" xlink:title=" ">
<polygon fill="white" stroke="black" points="538,-280.5 538,-299.5 602,-299.5 602,-280.5 538,-280.5"/>
<text text-anchor="middle" x="570" y="-287.5" font-family="Helvetica,sans-Serif" font-size="10.00">Debug.hpp</text>
</a>
</g>
</g>
<!-- Node6&#45;&gt;Node7 -->
<g id="edge7" class="edge"><title>Node6&#45;&gt;Node7</title>
<path fill="none" stroke="midnightblue" d="M420.073,-341.975C450.352,-331.68 501.44,-314.31 535.441,-302.75"/>
<polygon fill="midnightblue" stroke="midnightblue" points="536.632,-306.042 544.973,-299.509 534.379,-299.414 536.632,-306.042"/>
</g>
<!-- Node8 -->
<g id="node9" class="node"><title>Node8</title>
<g id="a_node9"><a xlink:href="../../d2/dd5/SettingsWrapper_8hpp.html" target="_top" xlink:title=" ">
<polygon fill="white" stroke="black" points="603.5,-224.5 603.5,-243.5 750.5,-243.5 750.5,-224.5 603.5,-224.5"/>
<text text-anchor="middle" x="677" y="-231.5" font-family="Helvetica,sans-Serif" font-size="10.00">Settings/SettingsWrapper.hpp</text>
</a>
</g>
</g>
<!-- Node7&#45;&gt;Node8 -->
<g id="edge8" class="edge"><title>Node7&#45;&gt;Node8</title>
<path fill="none" stroke="midnightblue" d="M582.077,-280.324C597.5,-271.585 624.173,-257.998 645.42,-247.977"/>
<polygon fill="midnightblue" stroke="midnightblue" points="647.142,-251.037 654.741,-243.655 644.197,-244.687 647.142,-251.037"/>
</g>
<!-- Node16 -->
<g id="node17" class="node"><title>Node16</title>
<g id="a_node17"><a xlink:title=" ">
<polygon fill="white" stroke="#bfbfbf" points="769,-224.5 769,-243.5 817,-243.5 817,-224.5 769,-224.5"/>
<text text-anchor="middle" x="793" y="-231.5" font-family="Helvetica,sans-Serif" font-size="10.00">stdlib.h</text>
</a>
</g>
</g>
<!-- Node7&#45;&gt;Node16 -->
<g id="edge19" class="edge"><title>Node7&#45;&gt;Node16</title>
<path fill="none" stroke="midnightblue" d="M602.017,-281.764C637.927,-273.571 698.136,-259.609 759.089,-244.17"/>
<polygon fill="midnightblue" stroke="midnightblue" points="760.046,-247.538 768.874,-241.68 758.32,-240.755 760.046,-247.538"/>
</g>
<!-- Node17 -->
<g id="node18" class="node"><title>Node17</title>
<g id="a_node18"><a xlink:href="../../dd/d80/PrintStream_8hpp.html" target="_top" xlink:title=" ">
<polygon fill="white" stroke="black" points="498.5,-224.5 498.5,-243.5 585.5,-243.5 585.5,-224.5 498.5,-224.5"/>
<text text-anchor="middle" x="542" y="-231.5" font-family="Helvetica,sans-Serif" font-size="10.00">PrintStream.hpp</text>
</a>
</g>
</g>
<!-- Node7&#45;&gt;Node17 -->
<g id="edge20" class="edge"><title>Node7&#45;&gt;Node17</title>
<path fill="none" stroke="midnightblue" d="M565.376,-280.083C561.544,-272.691 555.976,-261.953 551.235,-252.811"/>
<polygon fill="midnightblue" stroke="midnightblue" points="554.248,-251.018 546.538,-243.751 548.034,-254.24 554.248,-251.018"/>
</g>
<!-- Node8&#45;&gt;Node7 -->
<g id="edge18" class="edge"><title>Node8&#45;&gt;Node7</title>
<path fill="none" stroke="midnightblue" d="M665.205,-243.516C649.719,-252.309 622.583,-266.131 601.135,-276.232"/>
<polygon fill="midnightblue" stroke="midnightblue" points="599.646,-273.065 592.043,-280.444 602.588,-279.416 599.646,-273.065"/>
</g>
<!-- Node9 -->
<g id="node10" class="node"><title>Node9</title>
<g id="a_node10"><a xlink:href="../../db/d02/Settings_8hpp.html" target="_top" xlink:title="All user settings and debugging options can be changed here.">
<polygon fill="white" stroke="black" points="879.5,-168.5 879.5,-187.5 950.5,-187.5 950.5,-168.5 879.5,-168.5"/>
<text text-anchor="middle" x="915" y="-175.5" font-family="Helvetica,sans-Serif" font-size="10.00">Settings.hpp</text>
</a>
</g>
</g>
<!-- Node8&#45;&gt;Node9 -->
<g id="edge9" class="edge"><title>Node8&#45;&gt;Node9</title>
<path fill="none" stroke="midnightblue" d="M714.712,-224.444C756.753,-214.905 824.721,-199.483 869.635,-189.293"/>
<polygon fill="midnightblue" stroke="midnightblue" points="870.431,-192.701 879.408,-187.075 868.882,-185.875 870.431,-192.701"/>
</g>
<!-- Node10 -->
<g id="node11" class="node"><title>Node10</title>
<g id="a_node11"><a xlink:href="../../d0/d4e/Def_8hpp.html" target="_top" xlink:title=" ">
<polygon fill="white" stroke="black" points="1026,-112.5 1026,-131.5 1096,-131.5 1096,-112.5 1026,-112.5"/>
<text text-anchor="middle" x="1061" y="-119.5" font-family="Helvetica,sans-Serif" font-size="10.00">Def/Def.hpp</text>
</a>
</g>
</g>
<!-- Node9&#45;&gt;Node10 -->
<g id="edge10" class="edge"><title>Node9&#45;&gt;Node10</title>
<path fill="none" stroke="midnightblue" d="M938.134,-168.444C962.482,-159.438 1001.01,-145.189 1028.42,-135.049"/>
<polygon fill="midnightblue" stroke="midnightblue" points="1029.81,-138.268 1037.97,-131.516 1027.38,-131.703 1029.81,-138.268"/>
</g>
<!-- Node11 -->
<g id="node12" class="node"><title>Node11</title>
<g id="a_node12"><a xlink:href="../../d7/d42/Channel_8hpp.html" target="_top" xlink:title=" ">
<polygon fill="white" stroke="black" points="1162.5,-56.5 1162.5,-75.5 1233.5,-75.5 1233.5,-56.5 1162.5,-56.5"/>
<text text-anchor="middle" x="1198" y="-63.5" font-family="Helvetica,sans-Serif" font-size="10.00">Channel.hpp</text>
</a>
</g>
</g>
<!-- Node10&#45;&gt;Node11 -->
<g id="edge11" class="edge"><title>Node10&#45;&gt;Node11</title>
<path fill="none" stroke="midnightblue" d="M1082.71,-112.444C1105.35,-103.517 1141.07,-89.4387 1166.75,-79.3168"/>
<polygon fill="midnightblue" stroke="midnightblue" points="1168.37,-82.4397 1176.39,-75.5164 1165.81,-75.9273 1168.37,-82.4397"/>
</g>
<!-- Node12 -->
<g id="node13" class="node"><title>Node12</title>
<g id="a_node13"><a xlink:title=" ">
<polygon fill="white" stroke="#bfbfbf" points="1173.5,-0.5 1173.5,-19.5 1222.5,-19.5 1222.5,-0.5 1173.5,-0.5"/>
<text text-anchor="middle" x="1198" y="-7.5" font-family="Helvetica,sans-Serif" font-size="10.00">stdint.h</text>
</a>
</g>
</g>
<!-- Node10&#45;&gt;Node12 -->
<g id="edge17" class="edge"><title>Node10&#45;&gt;Node12</title>
<path fill="none" stroke="midnightblue" d="M1071.75,-112.368C1094.96,-93.7334 1150.01,-49.5324 1179.15,-26.1338"/>
<polygon fill="midnightblue" stroke="midnightblue" points="1181.69,-28.5814 1187.3,-19.5914 1177.31,-23.1231 1181.69,-28.5814"/>
</g>
<!-- Node13 -->
<g id="node14" class="node"><title>Node13</title>
<g id="a_node14"><a xlink:href="../../dc/d50/Frequency_8hpp.html" target="_top" xlink:title=" ">
<polygon fill="white" stroke="black" points="986.5,-56.5 986.5,-75.5 1067.5,-75.5 1067.5,-56.5 986.5,-56.5"/>
<text text-anchor="middle" x="1027" y="-63.5" font-family="Helvetica,sans-Serif" font-size="10.00">Frequency.hpp</text>
</a>
</g>
</g>
<!-- Node10&#45;&gt;Node13 -->
<g id="edge13" class="edge"><title>Node10&#45;&gt;Node13</title>
<path fill="none" stroke="midnightblue" d="M1055.39,-112.083C1050.63,-104.534 1043.68,-93.4948 1037.85,-84.2298"/>
<polygon fill="midnightblue" stroke="midnightblue" points="1040.8,-82.3486 1032.51,-75.7511 1034.88,-86.0783 1040.8,-82.3486"/>
</g>
<!-- Node14 -->
<g id="node15" class="node"><title>Node14</title>
<g id="a_node15"><a xlink:href="../../de/d76/Array_8hpp.html" target="_top" xlink:title=" ">
<polygon fill="white" stroke="black" points="873.5,-56.5 873.5,-75.5 968.5,-75.5 968.5,-56.5 873.5,-56.5"/>
<text text-anchor="middle" x="921" y="-63.5" font-family="Helvetica,sans-Serif" font-size="10.00">Helpers/Array.hpp</text>
</a>
</g>
</g>
<!-- Node10&#45;&gt;Node14 -->
<g id="edge14" class="edge"><title>Node10&#45;&gt;Node14</title>
<path fill="none" stroke="midnightblue" d="M1038.82,-112.444C1015.57,-103.478 978.851,-89.314 952.585,-79.1827"/>
<polygon fill="midnightblue" stroke="midnightblue" points="953.669,-75.8497 943.08,-75.5164 951.15,-82.3807 953.669,-75.8497"/>
</g>
<!-- Node15 -->
<g id="node16" class="node"><title>Node15</title>
<g id="a_node16"><a xlink:title=" ">
<polygon fill="white" stroke="#bfbfbf" points="895,-0.5 895,-19.5 947,-19.5 947,-0.5 895,-0.5"/>
<text text-anchor="middle" x="921" y="-7.5" font-family="Helvetica,sans-Serif" font-size="10.00">stddef.h</text>
</a>
</g>
</g>
<!-- Node10&#45;&gt;Node15 -->
<g id="edge16" class="edge"><title>Node10&#45;&gt;Node15</title>
<path fill="none" stroke="midnightblue" d="M1067.43,-112.083C1076.26,-98.6247 1089.72,-72.9022 1077,-56 1062.59,-36.844 998.465,-23.2783 957.048,-16.3305"/>
<polygon fill="midnightblue" stroke="midnightblue" points="957.483,-12.8554 947.051,-14.7073 956.361,-19.7649 957.483,-12.8554"/>
</g>
<!-- Node11&#45;&gt;Node12 -->
<g id="edge12" class="edge"><title>Node11&#45;&gt;Node12</title>
<path fill="none" stroke="midnightblue" d="M1198,-56.083C1198,-49.0059 1198,-38.8611 1198,-29.9865"/>
<polygon fill="midnightblue" stroke="midnightblue" points="1201.5,-29.751 1198,-19.7511 1194.5,-29.7511 1201.5,-29.751"/>
</g>
<!-- Node14&#45;&gt;Node15 -->
<g id="edge15" class="edge"><title>Node14&#45;&gt;Node15</title>
<path fill="none" stroke="midnightblue" d="M921,-56.083C921,-49.0059 921,-38.8611 921,-29.9865"/>
<polygon fill="midnightblue" stroke="midnightblue" points="924.5,-29.751 921,-19.7511 917.5,-29.7511 924.5,-29.751"/>
</g>
<!-- Node18 -->
<g id="node19" class="node"><title>Node18</title>
<g id="a_node19"><a xlink:title=" ">
<polygon fill="white" stroke="#bfbfbf" points="477,-168.5 477,-187.5 535,-187.5 535,-168.5 477,-168.5"/>
<text text-anchor="middle" x="506" y="-175.5" font-family="Helvetica,sans-Serif" font-size="10.00">Arduino.h</text>
</a>
</g>
</g>
<!-- Node17&#45;&gt;Node18 -->
<g id="edge21" class="edge"><title>Node17&#45;&gt;Node18</title>
<path fill="none" stroke="midnightblue" d="M536.055,-224.083C531.023,-216.534 523.663,-205.495 517.487,-196.23"/>
<polygon fill="midnightblue" stroke="midnightblue" points="520.293,-194.13 511.834,-187.751 514.469,-198.013 520.293,-194.13"/>
</g>
<!-- Node19&#45;&gt;Node8 -->
<g id="edge36" class="edge"><title>Node19&#45;&gt;Node8</title>
<path fill="none" stroke="midnightblue" d="M669.11,-403.319C662.731,-394.684 653.692,-380.77 650,-367 639.192,-326.69 656.564,-278.451 668.086,-252.915"/>
<polygon fill="midnightblue" stroke="midnightblue" points="671.317,-254.27 672.426,-243.733 664.988,-251.278 671.317,-254.27"/>
</g>
<!-- Node19&#45;&gt;Node18 -->
<g id="edge32" class="edge"><title>Node19&#45;&gt;Node18</title>
<path fill="none" stroke="midnightblue" d="M661.887,-403.382C634.277,-386.089 572.062,-344.943 529,-300 508.017,-278.1 499.084,-272.938 490,-244 485.056,-228.251 490.523,-209.97 496.371,-196.814"/>
<polygon fill="midnightblue" stroke="midnightblue" points="499.675,-198.026 500.95,-187.508 493.395,-194.935 499.675,-198.026"/>
</g>
<!-- Node20 -->
<g id="node21" class="node"><title>Node20</title>
<g id="a_node21"><a xlink:href="../../d6/d04/MIDI__Interface_8hpp.html" target="_top" xlink:title=" ">
<polygon fill="white" stroke="black" points="974.5,-342 974.5,-361 1075.5,-361 1075.5,-342 974.5,-342"/>
<text text-anchor="middle" x="1025" y="-349" font-family="Helvetica,sans-Serif" font-size="10.00">MIDI_Interface.hpp</text>
</a>
</g>
</g>
<!-- Node19&#45;&gt;Node20 -->
<g id="edge23" class="edge"><title>Node19&#45;&gt;Node20</title>
<path fill="none" stroke="midnightblue" d="M738.556,-403.781C797.269,-395.707 887.424,-382.386 965,-367 970.453,-365.918 976.16,-364.68 981.793,-363.392"/>
<polygon fill="midnightblue" stroke="midnightblue" points="982.85,-366.739 991.785,-361.045 981.249,-359.925 982.85,-366.739"/>
</g>
<!-- Node23 -->
<g id="node24" class="node"><title>Node23</title>
<g id="a_node24"><a xlink:href="../../d9/d98/TeensyUSBTypes_8hpp.html" target="_top" xlink:title=" ">
<polygon fill="white" stroke="black" points="804,-342 804,-361 956,-361 956,-342 804,-342"/>
<text text-anchor="middle" x="880" y="-349" font-family="Helvetica,sans-Serif" font-size="10.00">Helpers/TeensyUSBTypes.hpp</text>
</a>
</g>
</g>
<!-- Node19&#45;&gt;Node23 -->
<g id="edge33" class="edge"><title>Node19&#45;&gt;Node23</title>
<path fill="none" stroke="midnightblue" d="M705.228,-403.475C740.903,-393.07 801.36,-375.437 840.982,-363.88"/>
<polygon fill="midnightblue" stroke="midnightblue" points="842.206,-367.169 850.826,-361.009 840.246,-360.449 842.206,-367.169"/>
</g>
<!-- Node24 -->
<g id="node25" class="node"><title>Node24</title>
<g id="a_node25"><a xlink:href="../../d1/d22/SerialMIDI__Parser_8hpp.html" target="_top" xlink:title=" ">
<polygon fill="white" stroke="black" points="658.5,-336.5 658.5,-366.5 785.5,-366.5 785.5,-336.5 658.5,-336.5"/>
<text text-anchor="start" x="666.5" y="-354.5" font-family="Helvetica,sans-Serif" font-size="10.00">MIDI_Parsers/SerialMIDI</text>
<text text-anchor="middle" x="722" y="-343.5" font-family="Helvetica,sans-Serif" font-size="10.00">_Parser.hpp</text>
</a>
</g>
</g>
<!-- Node19&#45;&gt;Node24 -->
<g id="edge34" class="edge"><title>Node19&#45;&gt;Node24</title>
<path fill="none" stroke="midnightblue" d="M682.591,-403.475C688.413,-395.944 697.163,-384.626 704.94,-374.566"/>
<polygon fill="midnightblue" stroke="midnightblue" points="707.811,-376.575 711.159,-366.523 702.273,-372.294 707.811,-376.575"/>
</g>
<!-- Node20&#45;&gt;Node10 -->
<g id="edge24" class="edge"><title>Node20&#45;&gt;Node10</title>
<path fill="none" stroke="midnightblue" d="M1023.87,-341.872C1020.68,-315.235 1013.12,-232.228 1033,-168 1036.12,-157.91 1042.08,-147.82 1047.69,-139.759"/>
<polygon fill="midnightblue" stroke="midnightblue" points="1050.58,-141.746 1053.72,-131.629 1044.95,-137.576 1050.58,-141.746"/>
</g>
<!-- Node21 -->
<g id="node22" class="node"><title>Node21</title>
<g id="a_node22"><a xlink:href="../../d8/d38/MIDICNChannelAddress_8hpp.html" target="_top" xlink:title=" ">
<polygon fill="white" stroke="black" points="1041.5,-168.5 1041.5,-187.5 1204.5,-187.5 1204.5,-168.5 1041.5,-168.5"/>
<text text-anchor="middle" x="1123" y="-175.5" font-family="Helvetica,sans-Serif" font-size="10.00">Def/MIDICNChannelAddress.hpp</text>
</a>
</g>
</g>
<!-- Node20&#45;&gt;Node21 -->
<g id="edge25" class="edge"><title>Node20&#45;&gt;Node21</title>
<path fill="none" stroke="midnightblue" d="M1029.99,-341.76C1045.4,-314.806 1092.36,-232.616 1113.04,-196.424"/>
<polygon fill="midnightblue" stroke="midnightblue" points="1116.21,-197.938 1118.13,-187.519 1110.13,-194.465 1116.21,-197.938"/>
</g>
<!-- Node22 -->
<g id="node23" class="node"><title>Node22</title>
<g id="a_node23"><a xlink:href="../../d7/d2d/MIDI__Parser_8hpp.html" target="_top" xlink:title=" ">
<polygon fill="white" stroke="black" points="741.5,-280.5 741.5,-299.5 896.5,-299.5 896.5,-280.5 741.5,-280.5"/>
<text text-anchor="middle" x="819" y="-287.5" font-family="Helvetica,sans-Serif" font-size="10.00">MIDI_Parsers/MIDI_Parser.hpp</text>
</a>
</g>
</g>
<!-- Node20&#45;&gt;Node22 -->
<g id="edge27" class="edge"><title>Node20&#45;&gt;Node22</title>
<path fill="none" stroke="midnightblue" d="M995.485,-341.975C959.384,-331.548 898.152,-313.862 858.146,-302.307"/>
<polygon fill="midnightblue" stroke="midnightblue" points="859.039,-298.922 848.46,-299.509 857.096,-305.647 859.039,-298.922"/>
</g>
<!-- Node21&#45;&gt;Node10 -->
<g id="edge26" class="edge"><title>Node21&#45;&gt;Node10</title>
<path fill="none" stroke="midnightblue" d="M1113.04,-168.324C1103.87,-160.341 1090.06,-148.313 1078.97,-138.653"/>
<polygon fill="midnightblue" stroke="midnightblue" points="1080.98,-135.762 1071.14,-131.834 1076.38,-141.041 1080.98,-135.762"/>
</g>
<!-- Node22&#45;&gt;Node8 -->
<g id="edge31" class="edge"><title>Node22&#45;&gt;Node8</title>
<path fill="none" stroke="midnightblue" d="M796.5,-280.444C772.923,-271.478 735.678,-257.314 709.036,-247.183"/>
<polygon fill="midnightblue" stroke="midnightblue" points="709.986,-243.8 699.395,-243.516 707.498,-250.342 709.986,-243.8"/>
</g>
<!-- Node22&#45;&gt;Node12 -->
<g id="edge29" class="edge"><title>Node22&#45;&gt;Node12</title>
<path fill="none" stroke="midnightblue" d="M896.672,-285.576C1023.72,-277.832 1262,-253.391 1262,-179 1262,-179 1262,-179 1262,-121 1262,-90.9022 1258.34,-81.8938 1243,-56 1236.36,-44.7926 1226.29,-34.3632 1217.36,-26.3724"/>
<polygon fill="midnightblue" stroke="midnightblue" points="1219.49,-23.5894 1209.61,-19.7673 1214.95,-28.9173 1219.49,-23.5894"/>
</g>
<!-- Node22&#45;&gt;Node15 -->
<g id="edge28" class="edge"><title>Node22&#45;&gt;Node15</title>
<path fill="none" stroke="midnightblue" d="M822.506,-280.325C829.603,-261.959 845,-217.658 845,-179 845,-179 845,-179 845,-121 845,-90.7745 848.029,-81.011 865,-56 873.344,-43.7032 886.052,-33.105 897.254,-25.288"/>
<polygon fill="midnightblue" stroke="midnightblue" points="899.391,-28.0706 905.803,-19.6358 895.531,-22.2315 899.391,-28.0706"/>
</g>
<!-- Node22&#45;&gt;Node16 -->
<g id="edge30" class="edge"><title>Node22&#45;&gt;Node16</title>
<path fill="none" stroke="midnightblue" d="M814.707,-280.083C811.148,-272.691 805.978,-261.953 801.576,-252.811"/>
<polygon fill="midnightblue" stroke="midnightblue" points="804.705,-251.243 797.213,-243.751 798.398,-254.279 804.705,-251.243"/>
</g>
<!-- Node24&#45;&gt;Node22 -->
<g id="edge35" class="edge"><title>Node24&#45;&gt;Node22</title>
<path fill="none" stroke="midnightblue" d="M744.988,-336.399C760.391,-326.951 780.593,-314.559 795.999,-305.109"/>
<polygon fill="midnightblue" stroke="midnightblue" points="798.192,-307.87 804.886,-299.658 794.531,-301.903 798.192,-307.87"/>
</g>
</g>
</svg>
