<?xml version="1.0" encoding="UTF-8" standalone="no"?>
<!DOCTYPE svg PUBLIC "-//W3C//DTD SVG 1.1//EN"
 "http://www.w3.org/Graphics/SVG/1.1/DTD/svg11.dtd">
<!-- Generated by graphviz version 2.38.0 (20140413.2041)
 -->
<!-- Title: GenericIncrementSelector&lt; N, Callback &gt; Pages: 1 -->
<svg width="386pt" height="1262pt"
 viewBox="0.00 0.00 385.50 1262.00" xmlns="http://www.w3.org/2000/svg" xmlns:xlink="http://www.w3.org/1999/xlink">
<g id="graph0" class="graph" transform="scale(1 1) rotate(0) translate(4 1258)">
<title>GenericIncrementSelector&lt; N, Callback &gt;</title>
<polygon fill="white" stroke="none" points="-4,4 -4,-1258 381.5,-1258 381.5,4 -4,4"/>
<!-- Node1 -->
<g id="node1" class="node"><title>Node1</title>
<g id="a_node1"><a xlink:title=" ">
<polygon fill="#bfbfbf" stroke="black" points="187,-0.5 187,-90.5 332,-90.5 332,-0.5 187,-0.5"/>
<text text-anchor="start" x="195" y="-78.5" font-family="Helvetica,sans-Serif" font-size="10.00">GenericIncrementSelector</text>
<text text-anchor="middle" x="259.5" y="-67.5" font-family="Helvetica,sans-Serif" font-size="10.00">&lt; N, Callback &gt;</text>
<polyline fill="none" stroke="black" points="187,-60.5 332,-60.5 "/>
<text text-anchor="start" x="195" y="-48.5" font-family="Helvetica,sans-Serif" font-size="10.00">&#45; wrap</text>
<polyline fill="none" stroke="black" points="187,-41.5 332,-41.5 "/>
<text text-anchor="start" x="195" y="-29.5" font-family="Helvetica,sans-Serif" font-size="10.00">+ GenericIncrementSelector()</text>
<text text-anchor="start" x="195" y="-18.5" font-family="Helvetica,sans-Serif" font-size="10.00">+ begin()</text>
<text text-anchor="start" x="195" y="-7.5" font-family="Helvetica,sans-Serif" font-size="10.00">+ update()</text>
</a>
</g>
</g>
<!-- Node2 -->
<g id="node2" class="node"><title>Node2</title>
<g id="a_node2"><a xlink:href="../../d0/d04/classGenericSelector.html" target="_top" xlink:title=" ">
<polygon fill="white" stroke="black" points="116.5,-138.5 116.5,-272.5 222.5,-272.5 222.5,-138.5 116.5,-138.5"/>
<text text-anchor="start" x="124.5" y="-260.5" font-family="Helvetica,sans-Serif" font-size="10.00">GenericSelector&lt; N,</text>
<text text-anchor="middle" x="169.5" y="-249.5" font-family="Helvetica,sans-Serif" font-size="10.00"> Callback &gt;</text>
<polyline fill="none" stroke="black" points="116.5,-242.5 222.5,-242.5 "/>
<text text-anchor="start" x="124.5" y="-230.5" font-family="Helvetica,sans-Serif" font-size="10.00">&#45; selectable</text>
<polyline fill="none" stroke="black" points="116.5,-223.5 222.5,-223.5 "/>
<text text-anchor="start" x="124.5" y="-211.5" font-family="Helvetica,sans-Serif" font-size="10.00">+ GenericSelector()</text>
<text text-anchor="start" x="124.5" y="-200.5" font-family="Helvetica,sans-Serif" font-size="10.00">+ begin()</text>
<text text-anchor="start" x="124.5" y="-189.5" font-family="Helvetica,sans-Serif" font-size="10.00">+ update()</text>
<text text-anchor="start" x="124.5" y="-178.5" font-family="Helvetica,sans-Serif" font-size="10.00">+ reset()</text>
<text text-anchor="start" x="124.5" y="-167.5" font-family="Helvetica,sans-Serif" font-size="10.00">+ set()</text>
<text text-anchor="start" x="124.5" y="-156.5" font-family="Helvetica,sans-Serif" font-size="10.00">+ increment()</text>
<text text-anchor="start" x="124.5" y="-145.5" font-family="Helvetica,sans-Serif" font-size="10.00">+ decrement()</text>
</a>
</g>
</g>
<!-- Node2&#45;&gt;Node1 -->
<g id="edge1" class="edge"><title>Node2&#45;&gt;Node1</title>
<path fill="none" stroke="midnightblue" d="M212.111,-129.693C219.7,-116.371 227.38,-102.888 234.284,-90.7679"/>
<polygon fill="none" stroke="midnightblue" points="209.055,-127.988 207.147,-138.409 215.137,-131.452 209.055,-127.988"/>
</g>
<!-- Node3 -->
<g id="node3" class="node"><title>Node3</title>
<g id="a_node3"><a xlink:href="../../dc/d77/classSelectorBase.html" target="_top" xlink:title="Base class for all Selectors exposing the get method, so it can be used by display elements etc,...">
<polygon fill="white" stroke="black" points="0,-392 0,-460 89,-460 89,-392 0,-392"/>
<text text-anchor="middle" x="44.5" y="-448" font-family="Helvetica,sans-Serif" font-size="10.00">SelectorBase</text>
<polyline fill="none" stroke="black" points="0,-441 89,-441 "/>
<text text-anchor="start" x="8" y="-429" font-family="Helvetica,sans-Serif" font-size="10.00"># setting</text>
<polyline fill="none" stroke="black" points="0,-422 89,-422 "/>
<text text-anchor="start" x="8" y="-410" font-family="Helvetica,sans-Serif" font-size="10.00">+ get()</text>
<text text-anchor="start" x="8" y="-399" font-family="Helvetica,sans-Serif" font-size="10.00"># SelectorBase()</text>
</a>
</g>
</g>
<!-- Node3&#45;&gt;Node2 -->
<g id="edge2" class="edge"><title>Node3&#45;&gt;Node2</title>
<path fill="none" stroke="midnightblue" d="M65.1746,-382.823C74.9155,-363.478 86.9194,-340.367 98.5,-320 107.346,-304.442 117.294,-287.975 126.881,-272.553"/>
<polygon fill="none" stroke="midnightblue" points="61.9331,-381.479 60.5863,-391.988 68.1926,-384.613 61.9331,-381.479"/>
</g>
<!-- Node4 -->
<g id="node4" class="node"><title>Node4</title>
<g id="a_node4"><a xlink:href="../../d5/de0/classUpdatable.html" target="_top" xlink:title=" ">
<polygon fill="white" stroke="black" points="107.5,-320.5 107.5,-531.5 189.5,-531.5 189.5,-320.5 107.5,-320.5"/>
<text text-anchor="middle" x="148.5" y="-519.5" font-family="Helvetica,sans-Serif" font-size="10.00">Updatable&lt;&gt;</text>
<polyline fill="none" stroke="black" points="107.5,-512.5 189.5,-512.5 "/>
<text text-anchor="middle" x="148.5" y="-500.5" font-family="Helvetica,sans-Serif" font-size="10.00"> </text>
<polyline fill="none" stroke="black" points="107.5,-493.5 189.5,-493.5 "/>
<text text-anchor="start" x="115.5" y="-481.5" font-family="Helvetica,sans-Serif" font-size="10.00">+ ~Updatable()</text>
<text text-anchor="start" x="115.5" y="-470.5" font-family="Helvetica,sans-Serif" font-size="10.00">+ update()</text>
<text text-anchor="start" x="115.5" y="-459.5" font-family="Helvetica,sans-Serif" font-size="10.00">+ begin()</text>
<text text-anchor="start" x="115.5" y="-448.5" font-family="Helvetica,sans-Serif" font-size="10.00">+ enable()</text>
<text text-anchor="start" x="115.5" y="-437.5" font-family="Helvetica,sans-Serif" font-size="10.00">+ disable()</text>
<text text-anchor="start" x="115.5" y="-426.5" font-family="Helvetica,sans-Serif" font-size="10.00">+ isEnabled()</text>
<text text-anchor="start" x="115.5" y="-415.5" font-family="Helvetica,sans-Serif" font-size="10.00">+ enable()</text>
<text text-anchor="start" x="115.5" y="-404.5" font-family="Helvetica,sans-Serif" font-size="10.00">+ enable()</text>
<text text-anchor="start" x="115.5" y="-393.5" font-family="Helvetica,sans-Serif" font-size="10.00">+ enable()</text>
<text text-anchor="start" x="115.5" y="-382.5" font-family="Helvetica,sans-Serif" font-size="10.00">+ disable()</text>
<text text-anchor="start" x="115.5" y="-371.5" font-family="Helvetica,sans-Serif" font-size="10.00">+ disable()</text>
<text text-anchor="start" x="115.5" y="-360.5" font-family="Helvetica,sans-Serif" font-size="10.00">+ disable()</text>
<text text-anchor="start" x="115.5" y="-349.5" font-family="Helvetica,sans-Serif" font-size="10.00">+ beginAll()</text>
<text text-anchor="start" x="115.5" y="-338.5" font-family="Helvetica,sans-Serif" font-size="10.00">+ updateAll()</text>
<text text-anchor="start" x="115.5" y="-327.5" font-family="Helvetica,sans-Serif" font-size="10.00"># Updatable()</text>
</a>
</g>
</g>
<!-- Node4&#45;&gt;Node2 -->
<g id="edge3" class="edge"><title>Node4&#45;&gt;Node2</title>
<path fill="none" stroke="midnightblue" d="M159.556,-309.968C160.784,-297.184 162.003,-284.506 163.144,-272.636"/>
<polygon fill="none" stroke="midnightblue" points="156.042,-309.941 158.569,-320.23 163.01,-310.611 156.042,-309.941"/>
</g>
<!-- Node5 -->
<g id="node5" class="node"><title>Node5</title>
<g id="a_node5"><a xlink:href="../../d4/d23/classDoublyLinkable.html" target="_top" xlink:title=" ">
<polygon fill="white" stroke="black" points="137,-1185.5 137,-1253.5 274,-1253.5 274,-1185.5 137,-1185.5"/>
<text text-anchor="start" x="145" y="-1241.5" font-family="Helvetica,sans-Serif" font-size="10.00">DoublyLinkable&lt; Updatable</text>
<text text-anchor="middle" x="205.5" y="-1230.5" font-family="Helvetica,sans-Serif" font-size="10.00">&lt; NormalUpdatable &gt; &gt;</text>
<polyline fill="none" stroke="black" points="137,-1223.5 274,-1223.5 "/>
<text text-anchor="middle" x="205.5" y="-1211.5" font-family="Helvetica,sans-Serif" font-size="10.00"> </text>
<polyline fill="none" stroke="black" points="137,-1204.5 274,-1204.5 "/>
<text text-anchor="start" x="145" y="-1192.5" font-family="Helvetica,sans-Serif" font-size="10.00"># ~DoublyLinkable()</text>
</a>
</g>
</g>
<!-- Node5&#45;&gt;Node4 -->
<g id="edge4" class="edge"><title>Node5&#45;&gt;Node4</title>
<path fill="none" stroke="midnightblue" d="M174.61,-1176.79C165.302,-1161.85 156.29,-1144.39 151.5,-1127 95.0753,-922.104 114.339,-670.496 132.214,-531.606"/>
<polygon fill="none" stroke="midnightblue" points="171.726,-1178.77 180.096,-1185.27 177.604,-1174.97 171.726,-1178.77"/>
</g>
<!-- Node6 -->
<g id="node6" class="node"><title>Node6</title>
<g id="a_node6"><a xlink:href="../../d5/de0/classUpdatable.html" target="_top" xlink:title=" ">
<polygon fill="white" stroke="black" points="161,-915.5 161,-1126.5 316,-1126.5 316,-915.5 161,-915.5"/>
<text text-anchor="middle" x="238.5" y="-1114.5" font-family="Helvetica,sans-Serif" font-size="10.00">Updatable&lt; NormalUpdatable &gt;</text>
<polyline fill="none" stroke="black" points="161,-1107.5 316,-1107.5 "/>
<text text-anchor="middle" x="238.5" y="-1095.5" font-family="Helvetica,sans-Serif" font-size="10.00"> </text>
<polyline fill="none" stroke="black" points="161,-1088.5 316,-1088.5 "/>
<text text-anchor="start" x="169" y="-1076.5" font-family="Helvetica,sans-Serif" font-size="10.00">+ ~Updatable()</text>
<text text-anchor="start" x="169" y="-1065.5" font-family="Helvetica,sans-Serif" font-size="10.00">+ update()</text>
<text text-anchor="start" x="169" y="-1054.5" font-family="Helvetica,sans-Serif" font-size="10.00">+ begin()</text>
<text text-anchor="start" x="169" y="-1043.5" font-family="Helvetica,sans-Serif" font-size="10.00">+ enable()</text>
<text text-anchor="start" x="169" y="-1032.5" font-family="Helvetica,sans-Serif" font-size="10.00">+ disable()</text>
<text text-anchor="start" x="169" y="-1021.5" font-family="Helvetica,sans-Serif" font-size="10.00">+ isEnabled()</text>
<text text-anchor="start" x="169" y="-1010.5" font-family="Helvetica,sans-Serif" font-size="10.00">+ enable()</text>
<text text-anchor="start" x="169" y="-999.5" font-family="Helvetica,sans-Serif" font-size="10.00">+ enable()</text>
<text text-anchor="start" x="169" y="-988.5" font-family="Helvetica,sans-Serif" font-size="10.00">+ enable()</text>
<text text-anchor="start" x="169" y="-977.5" font-family="Helvetica,sans-Serif" font-size="10.00">+ disable()</text>
<text text-anchor="start" x="169" y="-966.5" font-family="Helvetica,sans-Serif" font-size="10.00">+ disable()</text>
<text text-anchor="start" x="169" y="-955.5" font-family="Helvetica,sans-Serif" font-size="10.00">+ disable()</text>
<text text-anchor="start" x="169" y="-944.5" font-family="Helvetica,sans-Serif" font-size="10.00">+ beginAll()</text>
<text text-anchor="start" x="169" y="-933.5" font-family="Helvetica,sans-Serif" font-size="10.00">+ updateAll()</text>
<text text-anchor="start" x="169" y="-922.5" font-family="Helvetica,sans-Serif" font-size="10.00"># Updatable()</text>
</a>
</g>
</g>
<!-- Node5&#45;&gt;Node6 -->
<g id="edge6" class="edge"><title>Node5&#45;&gt;Node6</title>
<path fill="none" stroke="midnightblue" d="M212.793,-1175.07C215.224,-1160.6 218.046,-1143.79 220.912,-1126.73"/>
<polygon fill="none" stroke="midnightblue" points="209.303,-1174.72 211.098,-1185.17 216.206,-1175.88 209.303,-1174.72"/>
</g>
<!-- Node6&#45;&gt;Node5 -->
<g id="edge5" class="edge"><title>Node6&#45;&gt;Node5</title>
<path fill="none" stroke="#404040" d="M223.382,-1126.67C221.196,-1140.26 218.877,-1153.98 216.5,-1167 216.111,-1169.13 215.699,-1171.31 215.273,-1173.51"/>
<polygon fill="none" stroke="#404040" points="215.265,-1173.55 218,-1180.22 212.893,-1185.31 210.158,-1178.64 215.265,-1173.55"/>
<text text-anchor="middle" x="242" y="-1159" font-family="Helvetica,sans-Serif" font-size="10.00"> #next</text>
<text text-anchor="middle" x="242" y="-1148" font-family="Helvetica,sans-Serif" font-size="10.00">#previous</text>
</g>
<!-- Node7 -->
<g id="node7" class="node"><title>Node7</title>
<g id="a_node7"><a xlink:href="../../dd/d16/classDoublyLinkedList.html" target="_top" xlink:title=" ">
<polygon fill="white" stroke="black" points="161,-579.5 161,-856.5 306,-856.5 306,-579.5 161,-579.5"/>
<text text-anchor="start" x="169" y="-844.5" font-family="Helvetica,sans-Serif" font-size="10.00">DoublyLinkedList&lt; Updatable</text>
<text text-anchor="middle" x="233.5" y="-833.5" font-family="Helvetica,sans-Serif" font-size="10.00">&lt; NormalUpdatable &gt; &gt;</text>
<polyline fill="none" stroke="black" points="161,-826.5 306,-826.5 "/>
<text text-anchor="middle" x="233.5" y="-814.5" font-family="Helvetica,sans-Serif" font-size="10.00"> </text>
<polyline fill="none" stroke="black" points="161,-807.5 306,-807.5 "/>
<text text-anchor="start" x="169" y="-795.5" font-family="Helvetica,sans-Serif" font-size="10.00">+ append()</text>
<text text-anchor="start" x="169" y="-784.5" font-family="Helvetica,sans-Serif" font-size="10.00">+ append()</text>
<text text-anchor="start" x="169" y="-773.5" font-family="Helvetica,sans-Serif" font-size="10.00">+ insertBefore()</text>
<text text-anchor="start" x="169" y="-762.5" font-family="Helvetica,sans-Serif" font-size="10.00">+ insertBefore()</text>
<text text-anchor="start" x="169" y="-751.5" font-family="Helvetica,sans-Serif" font-size="10.00">+ insertSorted()</text>
<text text-anchor="start" x="169" y="-740.5" font-family="Helvetica,sans-Serif" font-size="10.00">+ insertSorted()</text>
<text text-anchor="start" x="169" y="-729.5" font-family="Helvetica,sans-Serif" font-size="10.00">+ remove()</text>
<text text-anchor="start" x="169" y="-718.5" font-family="Helvetica,sans-Serif" font-size="10.00">+ remove()</text>
<text text-anchor="start" x="169" y="-707.5" font-family="Helvetica,sans-Serif" font-size="10.00">+ moveDown()</text>
<text text-anchor="start" x="169" y="-696.5" font-family="Helvetica,sans-Serif" font-size="10.00">+ couldContain()</text>
<text text-anchor="start" x="169" y="-685.5" font-family="Helvetica,sans-Serif" font-size="10.00">+ begin()</text>
<text text-anchor="start" x="169" y="-674.5" font-family="Helvetica,sans-Serif" font-size="10.00">+ begin()</text>
<text text-anchor="start" x="169" y="-663.5" font-family="Helvetica,sans-Serif" font-size="10.00">+ end()</text>
<text text-anchor="start" x="169" y="-652.5" font-family="Helvetica,sans-Serif" font-size="10.00">+ end()</text>
<text text-anchor="start" x="169" y="-641.5" font-family="Helvetica,sans-Serif" font-size="10.00">+ rbegin()</text>
<text text-anchor="start" x="169" y="-630.5" font-family="Helvetica,sans-Serif" font-size="10.00">+ rbegin()</text>
<text text-anchor="start" x="169" y="-619.5" font-family="Helvetica,sans-Serif" font-size="10.00">+ rend()</text>
<text text-anchor="start" x="169" y="-608.5" font-family="Helvetica,sans-Serif" font-size="10.00">+ rend()</text>
<text text-anchor="start" x="169" y="-597.5" font-family="Helvetica,sans-Serif" font-size="10.00">+ getFirst()</text>
<text text-anchor="start" x="169" y="-586.5" font-family="Helvetica,sans-Serif" font-size="10.00">+ getLast()</text>
</a>
</g>
</g>
<!-- Node6&#45;&gt;Node7 -->
<g id="edge8" class="edge"><title>Node6&#45;&gt;Node7</title>
<path fill="none" stroke="#404040" d="M213.007,-915.258C212.024,-909.103 211.173,-902.985 210.5,-897 209.472,-887.856 208.988,-878.452 208.935,-868.972"/>
<polygon fill="none" stroke="#404040" points="208.935,-868.934 205.013,-862.883 209.09,-856.935 213.012,-862.986 208.935,-868.934"/>
<text text-anchor="middle" x="221.5" y="-889" font-family="Helvetica,sans-Serif" font-size="10.00"> &#45;last</text>
<text text-anchor="middle" x="221.5" y="-878" font-family="Helvetica,sans-Serif" font-size="10.00">&#45;first</text>
</g>
<!-- Node7&#45;&gt;Node4 -->
<g id="edge9" class="edge"><title>Node7&#45;&gt;Node4</title>
<path fill="none" stroke="#404040" d="M193.116,-579.219C189.614,-567.272 186.093,-555.259 182.649,-543.507"/>
<polygon fill="none" stroke="#404040" points="182.608,-543.368 177.082,-538.736 179.233,-531.853 184.759,-536.485 182.608,-543.368"/>
<text text-anchor="middle" x="213.5" y="-553" font-family="Helvetica,sans-Serif" font-size="10.00"> &#45;updatables</text>
</g>
<!-- Node7&#45;&gt;Node6 -->
<g id="edge7" class="edge"><title>Node7&#45;&gt;Node6</title>
<path fill="none" stroke="#404040" d="M236.191,-856.806C236.298,-862.955 236.402,-869.041 236.5,-875 236.652,-884.204 236.801,-893.736 236.946,-903.316"/>
<polygon fill="none" stroke="#404040" points="236.948,-903.455 241.036,-909.395 237.126,-915.454 233.037,-909.514 236.948,-903.455"/>
<text text-anchor="middle" x="264.5" y="-883.5" font-family="Helvetica,sans-Serif" font-size="10.00"> &#45;updatables</text>
</g>
<!-- Node8 -->
<g id="node8" class="node"><title>Node8</title>
<g id="a_node8"><a xlink:title=" ">
<polygon fill="white" stroke="#bfbfbf" points="208,-397.5 208,-454.5 263,-454.5 263,-397.5 208,-397.5"/>
<text text-anchor="middle" x="235.5" y="-442.5" font-family="Helvetica,sans-Serif" font-size="10.00">Callback</text>
<polyline fill="none" stroke="#bfbfbf" points="208,-435.5 263,-435.5 "/>
<text text-anchor="middle" x="235.5" y="-423.5" font-family="Helvetica,sans-Serif" font-size="10.00"> </text>
<polyline fill="none" stroke="#bfbfbf" points="208,-416.5 263,-416.5 "/>
<text text-anchor="middle" x="235.5" y="-404.5" font-family="Helvetica,sans-Serif" font-size="10.00"> </text>
</a>
</g>
</g>
<!-- Node8&#45;&gt;Node2 -->
<g id="edge10" class="edge"><title>Node8&#45;&gt;Node2</title>
<path fill="none" stroke="#404040" d="M227.141,-397.327C218.604,-369.063 204.955,-323.876 193.081,-284.568"/>
<polygon fill="none" stroke="#404040" points="193.012,-284.339 187.448,-279.752 189.542,-272.852 195.106,-277.439 193.012,-284.339"/>
<text text-anchor="middle" x="220.5" y="-294" font-family="Helvetica,sans-Serif" font-size="10.00"> +callback</text>
</g>
<!-- Node9 -->
<g id="node9" class="node"><title>Node9</title>
<g id="a_node9"><a xlink:href="../../df/d38/classIncrementButton.html" target="_top" xlink:title="A class for buttons that increment some counter or setting.">
<polygon fill="white" stroke="black" points="269.5,-160.5 269.5,-250.5 373.5,-250.5 373.5,-160.5 269.5,-160.5"/>
<text text-anchor="middle" x="321.5" y="-238.5" font-family="Helvetica,sans-Serif" font-size="10.00">IncrementButton</text>
<polyline fill="none" stroke="black" points="269.5,-231.5 373.5,-231.5 "/>
<text text-anchor="start" x="277.5" y="-219.5" font-family="Helvetica,sans-Serif" font-size="10.00">&#45; longPressState</text>
<text text-anchor="start" x="277.5" y="-208.5" font-family="Helvetica,sans-Serif" font-size="10.00">&#45; longPressRepeat</text>
<polyline fill="none" stroke="black" points="269.5,-201.5 373.5,-201.5 "/>
<text text-anchor="start" x="277.5" y="-189.5" font-family="Helvetica,sans-Serif" font-size="10.00">+ IncrementButton()</text>
<text text-anchor="start" x="277.5" y="-178.5" font-family="Helvetica,sans-Serif" font-size="10.00">+ begin()</text>
<text text-anchor="start" x="277.5" y="-167.5" font-family="Helvetica,sans-Serif" font-size="10.00">+ getState()</text>
</a>
</g>
</g>
<!-- Node9&#45;&gt;Node1 -->
<g id="edge11" class="edge"><title>Node9&#45;&gt;Node1</title>
<path fill="none" stroke="#404040" d="M304.23,-160.488C297.104,-142.331 288.767,-121.083 281.233,-101.884"/>
<polygon fill="none" stroke="#404040" points="281.169,-101.72 275.253,-97.5961 276.785,-90.5495 282.701,-94.6737 281.169,-101.72"/>
<text text-anchor="middle" x="304.5" y="-112" font-family="Helvetica,sans-Serif" font-size="10.00"> &#45;button</text>
</g>
<!-- Node10 -->
<g id="node10" class="node"><title>Node10</title>
<g id="a_node10"><a xlink:href="../../d1/d19/classButton.html" target="_top" xlink:title="A class for reading and debouncing buttons and switches.">
<polygon fill="white" stroke="black" points="281.5,-337 281.5,-515 377.5,-515 377.5,-337 281.5,-337"/>
<text text-anchor="middle" x="329.5" y="-503" font-family="Helvetica,sans-Serif" font-size="10.00">Button</text>
<polyline fill="none" stroke="black" points="281.5,-496 377.5,-496 "/>
<text text-anchor="start" x="289.5" y="-484" font-family="Helvetica,sans-Serif" font-size="10.00">&#45; pin</text>
<text text-anchor="start" x="289.5" y="-473" font-family="Helvetica,sans-Serif" font-size="10.00">&#45; prevState</text>
<text text-anchor="start" x="289.5" y="-462" font-family="Helvetica,sans-Serif" font-size="10.00">&#45; debouncedState</text>
<text text-anchor="start" x="289.5" y="-451" font-family="Helvetica,sans-Serif" font-size="10.00">&#45; prevBounceTime</text>
<text text-anchor="start" x="289.5" y="-440" font-family="Helvetica,sans-Serif" font-size="10.00">&#45; invertState</text>
<text text-anchor="start" x="289.5" y="-429" font-family="Helvetica,sans-Serif" font-size="10.00">&#45; debounceTime</text>
<polyline fill="none" stroke="black" points="281.5,-422 377.5,-422 "/>
<text text-anchor="start" x="289.5" y="-410" font-family="Helvetica,sans-Serif" font-size="10.00">+ Button()</text>
<text text-anchor="start" x="289.5" y="-399" font-family="Helvetica,sans-Serif" font-size="10.00">+ Button()</text>
<text text-anchor="start" x="289.5" y="-388" font-family="Helvetica,sans-Serif" font-size="10.00">+ begin()</text>
<text text-anchor="start" x="289.5" y="-377" font-family="Helvetica,sans-Serif" font-size="10.00">+ invert()</text>
<text text-anchor="start" x="289.5" y="-366" font-family="Helvetica,sans-Serif" font-size="10.00">+ getState()</text>
<text text-anchor="start" x="289.5" y="-355" font-family="Helvetica,sans-Serif" font-size="10.00">+ stableTime()</text>
<text text-anchor="start" x="289.5" y="-344" font-family="Helvetica,sans-Serif" font-size="10.00">+ getName()</text>
</a>
</g>
</g>
<!-- Node10&#45;&gt;Node9 -->
<g id="edge12" class="edge"><title>Node10&#45;&gt;Node9</title>
<path fill="none" stroke="#404040" d="M326.269,-336.758C325.354,-311.774 324.384,-285.267 323.559,-262.733"/>
<polygon fill="none" stroke="#404040" points="323.556,-262.649 319.339,-256.8 323.117,-250.657 327.334,-256.507 323.556,-262.649"/>
<text text-anchor="middle" x="342.5" y="-294" font-family="Helvetica,sans-Serif" font-size="10.00"> &#45;button</text>
</g>
</g>
</svg>
