<?xml version="1.0" encoding="UTF-8" standalone="no"?>
<!DOCTYPE svg PUBLIC "-//W3C//DTD SVG 1.1//EN"
 "http://www.w3.org/Graphics/SVG/1.1/DTD/svg11.dtd">
<!-- Generated by graphviz version 2.38.0 (20140413.2041)
 -->
<!-- Title: CCPotentiometer Pages: 1 -->
<svg width="605pt" height="1274pt"
 viewBox="0.00 0.00 604.50 1274.00" xmlns="http://www.w3.org/2000/svg" xmlns:xlink="http://www.w3.org/1999/xlink">
<g id="graph0" class="graph" transform="scale(1 1) rotate(0) translate(4 1270)">
<title>CCPotentiometer</title>
<polygon fill="white" stroke="none" points="-4,4 -4,-1270 600.5,-1270 600.5,4 -4,4"/>
<!-- Node1 -->
<g id="node1" class="node"><title>Node1</title>
<g id="a_node1"><a xlink:title="A class of MIDIOutputElements that read the analog input from a potentiometer or fader,...">
<polygon fill="#bfbfbf" stroke="black" points="210.5,-0.5 210.5,-57.5 317.5,-57.5 317.5,-0.5 210.5,-0.5"/>
<text text-anchor="middle" x="264" y="-45.5" font-family="Helvetica,sans-Serif" font-size="10.00">CCPotentiometer</text>
<polyline fill="none" stroke="black" points="210.5,-38.5 317.5,-38.5 "/>
<text text-anchor="middle" x="264" y="-26.5" font-family="Helvetica,sans-Serif" font-size="10.00"> </text>
<polyline fill="none" stroke="black" points="210.5,-19.5 317.5,-19.5 "/>
<text text-anchor="start" x="218.5" y="-7.5" font-family="Helvetica,sans-Serif" font-size="10.00">+ CCPotentiometer()</text>
</a>
</g>
</g>
<!-- Node2 -->
<g id="node2" class="node"><title>Node2</title>
<g id="a_node2"><a xlink:href="../../d0/dd2/classMIDIFilteredAnalogAddressable.html" target="_top" xlink:title=" ">
<polygon fill="white" stroke="black" points="179.5,-95.5 179.5,-229.5 348.5,-229.5 348.5,-95.5 179.5,-95.5"/>
<text text-anchor="start" x="187.5" y="-217.5" font-family="Helvetica,sans-Serif" font-size="10.00">MIDIFilteredAnalogAddressable</text>
<text text-anchor="middle" x="264" y="-206.5" font-family="Helvetica,sans-Serif" font-size="10.00">&lt; ContinuousCCSender &gt;</text>
<polyline fill="none" stroke="black" points="179.5,-199.5 348.5,-199.5 "/>
<text text-anchor="middle" x="264" y="-187.5" font-family="Helvetica,sans-Serif" font-size="10.00"> </text>
<polyline fill="none" stroke="black" points="179.5,-180.5 348.5,-180.5 "/>
<text text-anchor="start" x="187.5" y="-168.5" font-family="Helvetica,sans-Serif" font-size="10.00">+ begin()</text>
<text text-anchor="start" x="187.5" y="-157.5" font-family="Helvetica,sans-Serif" font-size="10.00">+ update()</text>
<text text-anchor="start" x="187.5" y="-146.5" font-family="Helvetica,sans-Serif" font-size="10.00">+ map()</text>
<text text-anchor="start" x="187.5" y="-135.5" font-family="Helvetica,sans-Serif" font-size="10.00">+ invert()</text>
<text text-anchor="start" x="187.5" y="-124.5" font-family="Helvetica,sans-Serif" font-size="10.00">+ getRawValue()</text>
<text text-anchor="start" x="187.5" y="-113.5" font-family="Helvetica,sans-Serif" font-size="10.00">+ getValue()</text>
<text text-anchor="start" x="187.5" y="-102.5" font-family="Helvetica,sans-Serif" font-size="10.00"># MIDIFilteredAnalogAddressable()</text>
</a>
</g>
</g>
<!-- Node2&#45;&gt;Node1 -->
<g id="edge1" class="edge"><title>Node2&#45;&gt;Node1</title>
<path fill="none" stroke="midnightblue" d="M264,-85.1172C264,-75.3593 264,-65.9224 264,-57.697"/>
<polygon fill="none" stroke="midnightblue" points="260.5,-85.3647 264,-95.3647 267.5,-85.3648 260.5,-85.3647"/>
</g>
<!-- Node3 -->
<g id="node3" class="node"><title>Node3</title>
<g id="a_node3"><a xlink:href="../../d5/de0/classUpdatable.html" target="_top" xlink:title=" ">
<polygon fill="white" stroke="black" points="0,-305 0,-516 104,-516 104,-305 0,-305"/>
<text text-anchor="middle" x="52" y="-504" font-family="Helvetica,sans-Serif" font-size="10.00">MIDIOutputElement</text>
<polyline fill="none" stroke="black" points="0,-497 104,-497 "/>
<text text-anchor="middle" x="52" y="-485" font-family="Helvetica,sans-Serif" font-size="10.00"> </text>
<polyline fill="none" stroke="black" points="0,-478 104,-478 "/>
<text text-anchor="start" x="8" y="-466" font-family="Helvetica,sans-Serif" font-size="10.00">+ ~Updatable()</text>
<text text-anchor="start" x="8" y="-455" font-family="Helvetica,sans-Serif" font-size="10.00">+ update()</text>
<text text-anchor="start" x="8" y="-444" font-family="Helvetica,sans-Serif" font-size="10.00">+ begin()</text>
<text text-anchor="start" x="8" y="-433" font-family="Helvetica,sans-Serif" font-size="10.00">+ enable()</text>
<text text-anchor="start" x="8" y="-422" font-family="Helvetica,sans-Serif" font-size="10.00">+ disable()</text>
<text text-anchor="start" x="8" y="-411" font-family="Helvetica,sans-Serif" font-size="10.00">+ isEnabled()</text>
<text text-anchor="start" x="8" y="-400" font-family="Helvetica,sans-Serif" font-size="10.00">+ enable()</text>
<text text-anchor="start" x="8" y="-389" font-family="Helvetica,sans-Serif" font-size="10.00">+ enable()</text>
<text text-anchor="start" x="8" y="-378" font-family="Helvetica,sans-Serif" font-size="10.00">+ enable()</text>
<text text-anchor="start" x="8" y="-367" font-family="Helvetica,sans-Serif" font-size="10.00">+ disable()</text>
<text text-anchor="start" x="8" y="-356" font-family="Helvetica,sans-Serif" font-size="10.00">+ disable()</text>
<text text-anchor="start" x="8" y="-345" font-family="Helvetica,sans-Serif" font-size="10.00">+ disable()</text>
<text text-anchor="start" x="8" y="-334" font-family="Helvetica,sans-Serif" font-size="10.00">+ beginAll()</text>
<text text-anchor="start" x="8" y="-323" font-family="Helvetica,sans-Serif" font-size="10.00">+ updateAll()</text>
<text text-anchor="start" x="8" y="-312" font-family="Helvetica,sans-Serif" font-size="10.00"># Updatable()</text>
</a>
</g>
</g>
<!-- Node3&#45;&gt;Node2 -->
<g id="edge2" class="edge"><title>Node3&#45;&gt;Node2</title>
<path fill="none" stroke="midnightblue" d="M99.2836,-296.244C103.565,-289.508 108.137,-283.028 113,-277 131.533,-254.028 155.698,-233.18 179.244,-215.802"/>
<polygon fill="none" stroke="midnightblue" points="96.225,-294.538 94.0169,-304.9 102.205,-298.176 96.225,-294.538"/>
</g>
<!-- Node4 -->
<g id="node4" class="node"><title>Node4</title>
<g id="a_node4"><a xlink:href="../../d4/d23/classDoublyLinkable.html" target="_top" xlink:title=" ">
<polygon fill="white" stroke="black" points="33.5,-1197.5 33.5,-1265.5 170.5,-1265.5 170.5,-1197.5 33.5,-1197.5"/>
<text text-anchor="start" x="41.5" y="-1253.5" font-family="Helvetica,sans-Serif" font-size="10.00">DoublyLinkable&lt; Updatable</text>
<text text-anchor="middle" x="102" y="-1242.5" font-family="Helvetica,sans-Serif" font-size="10.00">&lt; NormalUpdatable &gt; &gt;</text>
<polyline fill="none" stroke="black" points="33.5,-1235.5 170.5,-1235.5 "/>
<text text-anchor="middle" x="102" y="-1223.5" font-family="Helvetica,sans-Serif" font-size="10.00"> </text>
<polyline fill="none" stroke="black" points="33.5,-1216.5 170.5,-1216.5 "/>
<text text-anchor="start" x="41.5" y="-1204.5" font-family="Helvetica,sans-Serif" font-size="10.00"># ~DoublyLinkable()</text>
</a>
</g>
</g>
<!-- Node4&#45;&gt;Node3 -->
<g id="edge3" class="edge"><title>Node4&#45;&gt;Node3</title>
<path fill="none" stroke="midnightblue" d="M71.0676,-1188.8C61.7555,-1173.86 52.7525,-1156.4 48,-1139 -16.1603,-904.047 45.2868,-834.54 48,-591 48.2691,-566.844 48.7419,-540.863 49.2703,-516.376"/>
<polygon fill="none" stroke="midnightblue" points="68.1849,-1190.79 76.5563,-1197.28 74.0617,-1186.98 68.1849,-1190.79"/>
</g>
<!-- Node5 -->
<g id="node5" class="node"><title>Node5</title>
<g id="a_node5"><a xlink:href="../../d5/de0/classUpdatable.html" target="_top" xlink:title=" ">
<polygon fill="white" stroke="black" points="57.5,-927.5 57.5,-1138.5 212.5,-1138.5 212.5,-927.5 57.5,-927.5"/>
<text text-anchor="middle" x="135" y="-1126.5" font-family="Helvetica,sans-Serif" font-size="10.00">Updatable&lt; NormalUpdatable &gt;</text>
<polyline fill="none" stroke="black" points="57.5,-1119.5 212.5,-1119.5 "/>
<text text-anchor="middle" x="135" y="-1107.5" font-family="Helvetica,sans-Serif" font-size="10.00"> </text>
<polyline fill="none" stroke="black" points="57.5,-1100.5 212.5,-1100.5 "/>
<text text-anchor="start" x="65.5" y="-1088.5" font-family="Helvetica,sans-Serif" font-size="10.00">+ ~Updatable()</text>
<text text-anchor="start" x="65.5" y="-1077.5" font-family="Helvetica,sans-Serif" font-size="10.00">+ update()</text>
<text text-anchor="start" x="65.5" y="-1066.5" font-family="Helvetica,sans-Serif" font-size="10.00">+ begin()</text>
<text text-anchor="start" x="65.5" y="-1055.5" font-family="Helvetica,sans-Serif" font-size="10.00">+ enable()</text>
<text text-anchor="start" x="65.5" y="-1044.5" font-family="Helvetica,sans-Serif" font-size="10.00">+ disable()</text>
<text text-anchor="start" x="65.5" y="-1033.5" font-family="Helvetica,sans-Serif" font-size="10.00">+ isEnabled()</text>
<text text-anchor="start" x="65.5" y="-1022.5" font-family="Helvetica,sans-Serif" font-size="10.00">+ enable()</text>
<text text-anchor="start" x="65.5" y="-1011.5" font-family="Helvetica,sans-Serif" font-size="10.00">+ enable()</text>
<text text-anchor="start" x="65.5" y="-1000.5" font-family="Helvetica,sans-Serif" font-size="10.00">+ enable()</text>
<text text-anchor="start" x="65.5" y="-989.5" font-family="Helvetica,sans-Serif" font-size="10.00">+ disable()</text>
<text text-anchor="start" x="65.5" y="-978.5" font-family="Helvetica,sans-Serif" font-size="10.00">+ disable()</text>
<text text-anchor="start" x="65.5" y="-967.5" font-family="Helvetica,sans-Serif" font-size="10.00">+ disable()</text>
<text text-anchor="start" x="65.5" y="-956.5" font-family="Helvetica,sans-Serif" font-size="10.00">+ beginAll()</text>
<text text-anchor="start" x="65.5" y="-945.5" font-family="Helvetica,sans-Serif" font-size="10.00">+ updateAll()</text>
<text text-anchor="start" x="65.5" y="-934.5" font-family="Helvetica,sans-Serif" font-size="10.00"># Updatable()</text>
</a>
</g>
</g>
<!-- Node4&#45;&gt;Node5 -->
<g id="edge5" class="edge"><title>Node4&#45;&gt;Node5</title>
<path fill="none" stroke="midnightblue" d="M109.293,-1187.07C111.724,-1172.6 114.546,-1155.79 117.412,-1138.73"/>
<polygon fill="none" stroke="midnightblue" points="105.803,-1186.72 107.598,-1197.17 112.706,-1187.88 105.803,-1186.72"/>
</g>
<!-- Node5&#45;&gt;Node4 -->
<g id="edge4" class="edge"><title>Node5&#45;&gt;Node4</title>
<path fill="none" stroke="#404040" d="M119.882,-1138.67C117.696,-1152.26 115.377,-1165.98 113,-1179 112.611,-1181.13 112.199,-1183.31 111.773,-1185.51"/>
<polygon fill="none" stroke="#404040" points="111.765,-1185.55 114.5,-1192.22 109.393,-1197.31 106.658,-1190.64 111.765,-1185.55"/>
<text text-anchor="middle" x="138.5" y="-1171" font-family="Helvetica,sans-Serif" font-size="10.00"> #next</text>
<text text-anchor="middle" x="138.5" y="-1160" font-family="Helvetica,sans-Serif" font-size="10.00">#previous</text>
</g>
<!-- Node6 -->
<g id="node6" class="node"><title>Node6</title>
<g id="a_node6"><a xlink:href="../../dd/d16/classDoublyLinkedList.html" target="_top" xlink:title=" ">
<polygon fill="white" stroke="black" points="57.5,-591.5 57.5,-868.5 202.5,-868.5 202.5,-591.5 57.5,-591.5"/>
<text text-anchor="start" x="65.5" y="-856.5" font-family="Helvetica,sans-Serif" font-size="10.00">DoublyLinkedList&lt; Updatable</text>
<text text-anchor="middle" x="130" y="-845.5" font-family="Helvetica,sans-Serif" font-size="10.00">&lt; NormalUpdatable &gt; &gt;</text>
<polyline fill="none" stroke="black" points="57.5,-838.5 202.5,-838.5 "/>
<text text-anchor="middle" x="130" y="-826.5" font-family="Helvetica,sans-Serif" font-size="10.00"> </text>
<polyline fill="none" stroke="black" points="57.5,-819.5 202.5,-819.5 "/>
<text text-anchor="start" x="65.5" y="-807.5" font-family="Helvetica,sans-Serif" font-size="10.00">+ append()</text>
<text text-anchor="start" x="65.5" y="-796.5" font-family="Helvetica,sans-Serif" font-size="10.00">+ append()</text>
<text text-anchor="start" x="65.5" y="-785.5" font-family="Helvetica,sans-Serif" font-size="10.00">+ insertBefore()</text>
<text text-anchor="start" x="65.5" y="-774.5" font-family="Helvetica,sans-Serif" font-size="10.00">+ insertBefore()</text>
<text text-anchor="start" x="65.5" y="-763.5" font-family="Helvetica,sans-Serif" font-size="10.00">+ insertSorted()</text>
<text text-anchor="start" x="65.5" y="-752.5" font-family="Helvetica,sans-Serif" font-size="10.00">+ insertSorted()</text>
<text text-anchor="start" x="65.5" y="-741.5" font-family="Helvetica,sans-Serif" font-size="10.00">+ remove()</text>
<text text-anchor="start" x="65.5" y="-730.5" font-family="Helvetica,sans-Serif" font-size="10.00">+ remove()</text>
<text text-anchor="start" x="65.5" y="-719.5" font-family="Helvetica,sans-Serif" font-size="10.00">+ moveDown()</text>
<text text-anchor="start" x="65.5" y="-708.5" font-family="Helvetica,sans-Serif" font-size="10.00">+ couldContain()</text>
<text text-anchor="start" x="65.5" y="-697.5" font-family="Helvetica,sans-Serif" font-size="10.00">+ begin()</text>
<text text-anchor="start" x="65.5" y="-686.5" font-family="Helvetica,sans-Serif" font-size="10.00">+ begin()</text>
<text text-anchor="start" x="65.5" y="-675.5" font-family="Helvetica,sans-Serif" font-size="10.00">+ end()</text>
<text text-anchor="start" x="65.5" y="-664.5" font-family="Helvetica,sans-Serif" font-size="10.00">+ end()</text>
<text text-anchor="start" x="65.5" y="-653.5" font-family="Helvetica,sans-Serif" font-size="10.00">+ rbegin()</text>
<text text-anchor="start" x="65.5" y="-642.5" font-family="Helvetica,sans-Serif" font-size="10.00">+ rbegin()</text>
<text text-anchor="start" x="65.5" y="-631.5" font-family="Helvetica,sans-Serif" font-size="10.00">+ rend()</text>
<text text-anchor="start" x="65.5" y="-620.5" font-family="Helvetica,sans-Serif" font-size="10.00">+ rend()</text>
<text text-anchor="start" x="65.5" y="-609.5" font-family="Helvetica,sans-Serif" font-size="10.00">+ getFirst()</text>
<text text-anchor="start" x="65.5" y="-598.5" font-family="Helvetica,sans-Serif" font-size="10.00">+ getLast()</text>
</a>
</g>
</g>
<!-- Node5&#45;&gt;Node6 -->
<g id="edge7" class="edge"><title>Node5&#45;&gt;Node6</title>
<path fill="none" stroke="#404040" d="M109.507,-927.258C108.524,-921.103 107.673,-914.985 107,-909 105.972,-899.856 105.488,-890.452 105.435,-880.972"/>
<polygon fill="none" stroke="#404040" points="105.435,-880.934 101.513,-874.883 105.59,-868.935 109.512,-874.986 105.435,-880.934"/>
<text text-anchor="middle" x="118" y="-901" font-family="Helvetica,sans-Serif" font-size="10.00"> &#45;last</text>
<text text-anchor="middle" x="118" y="-890" font-family="Helvetica,sans-Serif" font-size="10.00">&#45;first</text>
</g>
<!-- Node6&#45;&gt;Node3 -->
<g id="edge8" class="edge"><title>Node6&#45;&gt;Node3</title>
<path fill="none" stroke="#404040" d="M96.1284,-591.125C90.9731,-570.141 85.6963,-548.661 80.6665,-528.187"/>
<polygon fill="none" stroke="#404040" points="80.5994,-527.914 75.2834,-523.042 77.7364,-516.26 83.0524,-521.133 80.5994,-527.914"/>
<text text-anchor="middle" x="118" y="-565" font-family="Helvetica,sans-Serif" font-size="10.00"> &#45;updatables</text>
</g>
<!-- Node6&#45;&gt;Node5 -->
<g id="edge6" class="edge"><title>Node6&#45;&gt;Node5</title>
<path fill="none" stroke="#404040" d="M132.691,-868.806C132.798,-874.955 132.902,-881.041 133,-887 133.152,-896.204 133.301,-905.736 133.446,-915.316"/>
<polygon fill="none" stroke="#404040" points="133.448,-915.455 137.536,-921.395 133.626,-927.454 129.537,-921.514 133.448,-915.455"/>
<text text-anchor="middle" x="161" y="-895.5" font-family="Helvetica,sans-Serif" font-size="10.00"> &#45;updatables</text>
</g>
<!-- Node7 -->
<g id="node7" class="node"><title>Node7</title>
<g id="a_node7"><a xlink:href="../../d3/d10/classMIDICNChannelAddress.html" target="_top" xlink:title="A type&#45;safe utility class for saving a MIDI address consisting of a 7&#45;bit address,...">
<polygon fill="white" stroke="black" points="122,-277.5 122,-543.5 262,-543.5 262,-277.5 122,-277.5"/>
<text text-anchor="middle" x="192" y="-531.5" font-family="Helvetica,sans-Serif" font-size="10.00">MIDICNChannelAddress</text>
<polyline fill="none" stroke="black" points="122,-524.5 262,-524.5 "/>
<text text-anchor="start" x="130" y="-512.5" font-family="Helvetica,sans-Serif" font-size="10.00">&#45; addresses</text>
<polyline fill="none" stroke="black" points="122,-505.5 262,-505.5 "/>
<text text-anchor="start" x="130" y="-493.5" font-family="Helvetica,sans-Serif" font-size="10.00">+ MIDICNChannelAddress()</text>
<text text-anchor="start" x="130" y="-482.5" font-family="Helvetica,sans-Serif" font-size="10.00">+ MIDICNChannelAddress()</text>
<text text-anchor="start" x="130" y="-471.5" font-family="Helvetica,sans-Serif" font-size="10.00">+ MIDICNChannelAddress()</text>
<text text-anchor="start" x="130" y="-460.5" font-family="Helvetica,sans-Serif" font-size="10.00">+ MIDICNChannelAddress()</text>
<text text-anchor="start" x="130" y="-449.5" font-family="Helvetica,sans-Serif" font-size="10.00">+ MIDICNChannelAddress()</text>
<text text-anchor="start" x="130" y="-438.5" font-family="Helvetica,sans-Serif" font-size="10.00">+ operator+=()</text>
<text text-anchor="start" x="130" y="-427.5" font-family="Helvetica,sans-Serif" font-size="10.00">+ operator&#45;=()</text>
<text text-anchor="start" x="130" y="-416.5" font-family="Helvetica,sans-Serif" font-size="10.00">+ operator+()</text>
<text text-anchor="start" x="130" y="-405.5" font-family="Helvetica,sans-Serif" font-size="10.00">+ operator&#45;()</text>
<text text-anchor="start" x="130" y="-394.5" font-family="Helvetica,sans-Serif" font-size="10.00">+ operator==()</text>
<text text-anchor="start" x="130" y="-383.5" font-family="Helvetica,sans-Serif" font-size="10.00">+ operator!=()</text>
<text text-anchor="start" x="130" y="-372.5" font-family="Helvetica,sans-Serif" font-size="10.00">+ getAddress()</text>
<text text-anchor="start" x="130" y="-361.5" font-family="Helvetica,sans-Serif" font-size="10.00">+ getChannel()</text>
<text text-anchor="start" x="130" y="-350.5" font-family="Helvetica,sans-Serif" font-size="10.00">+ getRawChannel()</text>
<text text-anchor="start" x="130" y="-339.5" font-family="Helvetica,sans-Serif" font-size="10.00">+ getCableNumber()</text>
<text text-anchor="start" x="130" y="-328.5" font-family="Helvetica,sans-Serif" font-size="10.00">+ isValid()</text>
<text text-anchor="start" x="130" y="-317.5" font-family="Helvetica,sans-Serif" font-size="10.00">+ operator bool()</text>
<text text-anchor="start" x="130" y="-306.5" font-family="Helvetica,sans-Serif" font-size="10.00">+ matchSingle()</text>
<text text-anchor="start" x="130" y="-295.5" font-family="Helvetica,sans-Serif" font-size="10.00">+ matchAddressInRange()</text>
<text text-anchor="start" x="130" y="-284.5" font-family="Helvetica,sans-Serif" font-size="10.00">+ invalid()</text>
</a>
</g>
</g>
<!-- Node7&#45;&gt;Node2 -->
<g id="edge9" class="edge"><title>Node7&#45;&gt;Node2</title>
<path fill="none" stroke="#404040" d="M230.635,-277.498C234.225,-265.232 237.78,-253.086 241.156,-241.551"/>
<polygon fill="none" stroke="#404040" points="241.232,-241.29 239.079,-234.408 244.603,-229.773 246.757,-236.655 241.232,-241.29"/>
<text text-anchor="middle" x="259.5" y="-251" font-family="Helvetica,sans-Serif" font-size="10.00"> &#45;address</text>
</g>
<!-- Node8 -->
<g id="node8" class="node"><title>Node8</title>
<g id="a_node8"><a xlink:href="../../da/d07/classContinuousCCSender.html" target="_top" xlink:title=" ">
<polygon fill="white" stroke="black" points="280,-376.5 280,-444.5 392,-444.5 392,-376.5 280,-376.5"/>
<text text-anchor="middle" x="336" y="-432.5" font-family="Helvetica,sans-Serif" font-size="10.00">ContinuousCCSender</text>
<polyline fill="none" stroke="black" points="280,-425.5 392,-425.5 "/>
<text text-anchor="middle" x="336" y="-413.5" font-family="Helvetica,sans-Serif" font-size="10.00"> </text>
<polyline fill="none" stroke="black" points="280,-406.5 392,-406.5 "/>
<text text-anchor="start" x="288" y="-394.5" font-family="Helvetica,sans-Serif" font-size="10.00">+ send()</text>
<text text-anchor="start" x="288" y="-383.5" font-family="Helvetica,sans-Serif" font-size="10.00">+ precision()</text>
</a>
</g>
</g>
<!-- Node8&#45;&gt;Node2 -->
<g id="edge10" class="edge"><title>Node8&#45;&gt;Node2</title>
<path fill="none" stroke="#404040" d="M326.29,-376.323C316.226,-341.939 300.136,-286.964 286.83,-241.502"/>
<polygon fill="none" stroke="#404040" points="286.795,-241.383 281.271,-236.748 283.424,-229.866 288.949,-234.501 286.795,-241.383"/>
<text text-anchor="middle" x="311.5" y="-251" font-family="Helvetica,sans-Serif" font-size="10.00"> +sender</text>
</g>
<!-- Node9 -->
<g id="node9" class="node"><title>Node9</title>
<g id="a_node9"><a xlink:href="../../da/da7/classFilteredAnalog.html" target="_top" xlink:title=" ">
<polygon fill="white" stroke="black" points="410.5,-332.5 410.5,-488.5 547.5,-488.5 547.5,-332.5 410.5,-332.5"/>
<text text-anchor="start" x="418.5" y="-476.5" font-family="Helvetica,sans-Serif" font-size="10.00">FilteredAnalog&lt; Continuous</text>
<text text-anchor="middle" x="479" y="-465.5" font-family="Helvetica,sans-Serif" font-size="10.00">CCSender ::precision()&gt;</text>
<polyline fill="none" stroke="black" points="410.5,-458.5 547.5,-458.5 "/>
<text text-anchor="start" x="418.5" y="-446.5" font-family="Helvetica,sans-Serif" font-size="10.00">&#45; analogPin</text>
<text text-anchor="start" x="418.5" y="-435.5" font-family="Helvetica,sans-Serif" font-size="10.00">&#45; mapFn</text>
<polyline fill="none" stroke="black" points="410.5,-428.5 547.5,-428.5 "/>
<text text-anchor="start" x="418.5" y="-416.5" font-family="Helvetica,sans-Serif" font-size="10.00">+ FilteredAnalog()</text>
<text text-anchor="start" x="418.5" y="-405.5" font-family="Helvetica,sans-Serif" font-size="10.00">+ map()</text>
<text text-anchor="start" x="418.5" y="-394.5" font-family="Helvetica,sans-Serif" font-size="10.00">+ invert()</text>
<text text-anchor="start" x="418.5" y="-383.5" font-family="Helvetica,sans-Serif" font-size="10.00">+ update()</text>
<text text-anchor="start" x="418.5" y="-372.5" font-family="Helvetica,sans-Serif" font-size="10.00">+ getValue()</text>
<text text-anchor="start" x="418.5" y="-361.5" font-family="Helvetica,sans-Serif" font-size="10.00">+ getFloatValue()</text>
<text text-anchor="start" x="418.5" y="-350.5" font-family="Helvetica,sans-Serif" font-size="10.00">+ getRawValue()</text>
<text text-anchor="start" x="418.5" y="-339.5" font-family="Helvetica,sans-Serif" font-size="10.00">+ setupADC()</text>
</a>
</g>
</g>
<!-- Node9&#45;&gt;Node2 -->
<g id="edge11" class="edge"><title>Node9&#45;&gt;Node2</title>
<path fill="none" stroke="#404040" d="M439.552,-332.169C428.296,-313.247 415.193,-293.664 401,-277 388.229,-262.006 373.321,-247.44 358.132,-234.019"/>
<polygon fill="none" stroke="#404040" points="357.728,-233.669 350.574,-232.767 348.655,-225.816 355.809,-226.718 357.728,-233.669"/>
<text text-anchor="middle" x="415" y="-251" font-family="Helvetica,sans-Serif" font-size="10.00"> &#45;filteredAnalog</text>
</g>
<!-- Node10 -->
<g id="node10" class="node"><title>Node10</title>
<g id="a_node10"><a xlink:href="../../d7/d40/classEMA.html" target="_top" xlink:title=" ">
<polygon fill="white" stroke="black" points="242.5,-685 242.5,-775 387.5,-775 387.5,-685 242.5,-685"/>
<text text-anchor="start" x="250.5" y="-763" font-family="Helvetica,sans-Serif" font-size="10.00">EMA&lt; ANALOG_FILTER</text>
<text text-anchor="start" x="250.5" y="-752" font-family="Helvetica,sans-Serif" font-size="10.00">_SHIFT_FACTOR, ANALOG</text>
<text text-anchor="middle" x="315" y="-741" font-family="Helvetica,sans-Serif" font-size="10.00">_FILTER_TYPE &gt;</text>
<polyline fill="none" stroke="black" points="242.5,-734 387.5,-734 "/>
<text text-anchor="start" x="250.5" y="-722" font-family="Helvetica,sans-Serif" font-size="10.00">&#45; filtered</text>
<text text-anchor="start" x="250.5" y="-711" font-family="Helvetica,sans-Serif" font-size="10.00">&#45; fixedPointAHalf</text>
<polyline fill="none" stroke="black" points="242.5,-704 387.5,-704 "/>
<text text-anchor="start" x="250.5" y="-692" font-family="Helvetica,sans-Serif" font-size="10.00">+ filter()</text>
</a>
</g>
</g>
<!-- Node10&#45;&gt;Node9 -->
<g id="edge12" class="edge"><title>Node10&#45;&gt;Node9</title>
<path fill="none" stroke="#404040" d="M337.803,-684.853C362.504,-637.033 402.55,-559.505 433.697,-499.206"/>
<polygon fill="none" stroke="#404040" points="433.698,-499.203 432.898,-492.037 439.205,-488.541 440.006,-495.708 433.698,-499.203"/>
<text text-anchor="middle" x="409.5" y="-565" font-family="Helvetica,sans-Serif" font-size="10.00"> &#45;filter</text>
</g>
<!-- Node11 -->
<g id="node11" class="node"><title>Node11</title>
<g id="a_node11"><a xlink:href="../../d2/dcb/classHysteresis.html" target="_top" xlink:title=" ">
<polygon fill="white" stroke="black" points="405.5,-641 405.5,-819 596.5,-819 596.5,-641 405.5,-641"/>
<text text-anchor="start" x="413.5" y="-807" font-family="Helvetica,sans-Serif" font-size="10.00">Hysteresis&lt; ADC_BITS</text>
<text text-anchor="start" x="413.5" y="-796" font-family="Helvetica,sans-Serif" font-size="10.00">+min(sizeof(ANALOG_FILTER</text>
<text text-anchor="start" x="413.5" y="-785" font-family="Helvetica,sans-Serif" font-size="10.00">_TYPE) *CHAR_BIT &#45; ADC_BITS</text>
<text text-anchor="start" x="413.5" y="-774" font-family="Helvetica,sans-Serif" font-size="10.00"> &#45; ANALOG_FILTER_SHIFT_FACTOR,</text>
<text text-anchor="start" x="413.5" y="-763" font-family="Helvetica,sans-Serif" font-size="10.00"> sizeof(analog_t) *CHAR_BIT </text>
<text text-anchor="start" x="413.5" y="-752" font-family="Helvetica,sans-Serif" font-size="10.00">&#45; ADC_BITS) &#45; Precision, analog</text>
<text text-anchor="middle" x="501" y="-741" font-family="Helvetica,sans-Serif" font-size="10.00">_t, analog_t &gt;</text>
<polyline fill="none" stroke="black" points="405.5,-734 596.5,-734 "/>
<text text-anchor="start" x="413.5" y="-722" font-family="Helvetica,sans-Serif" font-size="10.00">&#45; prevLevel</text>
<text text-anchor="start" x="413.5" y="-711" font-family="Helvetica,sans-Serif" font-size="10.00">&#45; margin</text>
<text text-anchor="start" x="413.5" y="-700" font-family="Helvetica,sans-Serif" font-size="10.00">&#45; offset</text>
<text text-anchor="start" x="413.5" y="-689" font-family="Helvetica,sans-Serif" font-size="10.00">&#45; max_in</text>
<text text-anchor="start" x="413.5" y="-678" font-family="Helvetica,sans-Serif" font-size="10.00">&#45; max_out</text>
<polyline fill="none" stroke="black" points="405.5,-671 596.5,-671 "/>
<text text-anchor="start" x="413.5" y="-659" font-family="Helvetica,sans-Serif" font-size="10.00">+ update()</text>
<text text-anchor="start" x="413.5" y="-648" font-family="Helvetica,sans-Serif" font-size="10.00">+ getValue()</text>
</a>
</g>
</g>
<!-- Node11&#45;&gt;Node9 -->
<g id="edge13" class="edge"><title>Node11&#45;&gt;Node9</title>
<path fill="none" stroke="#404040" d="M494.901,-640.98C491.873,-597.282 488.222,-544.595 485.183,-500.732"/>
<polygon fill="none" stroke="#404040" points="485.173,-500.58 480.767,-494.871 484.343,-488.609 488.748,-494.318 485.173,-500.58"/>
<text text-anchor="middle" x="516" y="-565" font-family="Helvetica,sans-Serif" font-size="10.00"> &#45;hysteresis</text>
</g>
</g>
</svg>
