<?xml version="1.0" encoding="UTF-8" standalone="no"?>
<!DOCTYPE svg PUBLIC "-//W3C//DTD SVG 1.1//EN"
 "http://www.w3.org/Graphics/SVG/1.1/DTD/svg11.dtd">
<!-- Generated by graphviz version 2.38.0 (20140413.2041)
 -->
<!-- Title: Bankable::SingleAddress Pages: 1 -->
<svg width="1325pt" height="640pt"
 viewBox="0.00 0.00 1325.00 640.00" xmlns="http://www.w3.org/2000/svg" xmlns:xlink="http://www.w3.org/1999/xlink">
<g id="graph0" class="graph" transform="scale(1 1) rotate(0) translate(4 636)">
<title>Bankable::SingleAddress</title>
<polygon fill="white" stroke="none" points="-4,4 -4,-636 1321,-636 1321,4 -4,4"/>
<!-- Node1 -->
<g id="node1" class="node"><title>Node1</title>
<g id="a_node1"><a xlink:title=" ">
<polygon fill="#bfbfbf" stroke="black" points="579.5,-276.5 579.5,-355.5 705.5,-355.5 705.5,-276.5 579.5,-276.5"/>
<text text-anchor="middle" x="642.5" y="-343.5" font-family="Helvetica,sans-Serif" font-size="10.00">Bankable::SingleAddress</text>
<polyline fill="none" stroke="black" points="579.5,-336.5 705.5,-336.5 "/>
<text text-anchor="start" x="587.5" y="-324.5" font-family="Helvetica,sans-Serif" font-size="10.00">&#45; address</text>
<polyline fill="none" stroke="black" points="579.5,-317.5 705.5,-317.5 "/>
<text text-anchor="start" x="587.5" y="-305.5" font-family="Helvetica,sans-Serif" font-size="10.00">+ SingleAddress()</text>
<text text-anchor="start" x="587.5" y="-294.5" font-family="Helvetica,sans-Serif" font-size="10.00">+ getBaseAddress()</text>
<text text-anchor="start" x="587.5" y="-283.5" font-family="Helvetica,sans-Serif" font-size="10.00">+ getActiveAddress()</text>
</a>
</g>
</g>
<!-- Node4 -->
<g id="node4" class="node"><title>Node4</title>
<g id="a_node4"><a xlink:href="../../d9/df9/classBankable_1_1MIDIButton.html" target="_top" xlink:title=" ">
<polygon fill="white" stroke="black" points="0,-116.5 0,-217.5 177,-217.5 177,-116.5 0,-116.5"/>
<text text-anchor="start" x="8" y="-205.5" font-family="Helvetica,sans-Serif" font-size="10.00">Bankable::MIDIButton</text>
<text text-anchor="middle" x="88.5" y="-194.5" font-family="Helvetica,sans-Serif" font-size="10.00">&lt; SingleAddress, DigitalCCSender &gt;</text>
<polyline fill="none" stroke="black" points="0,-187.5 177,-187.5 "/>
<text text-anchor="start" x="8" y="-175.5" font-family="Helvetica,sans-Serif" font-size="10.00">+ sender</text>
<text text-anchor="start" x="8" y="-164.5" font-family="Helvetica,sans-Serif" font-size="10.00">&#45; button</text>
<polyline fill="none" stroke="black" points="0,-157.5 177,-157.5 "/>
<text text-anchor="start" x="8" y="-145.5" font-family="Helvetica,sans-Serif" font-size="10.00">+ MIDIButton()</text>
<text text-anchor="start" x="8" y="-134.5" font-family="Helvetica,sans-Serif" font-size="10.00">+ begin()</text>
<text text-anchor="start" x="8" y="-123.5" font-family="Helvetica,sans-Serif" font-size="10.00">+ update()</text>
</a>
</g>
</g>
<!-- Node1&#45;&gt;Node4 -->
<g id="edge3" class="edge"><title>Node1&#45;&gt;Node4</title>
<path fill="none" stroke="midnightblue" d="M569.172,-313.532C476.371,-309.342 313.236,-294.096 185.5,-240 171.885,-234.234 158.412,-226.183 146.036,-217.544"/>
<polygon fill="none" stroke="midnightblue" points="569.168,-317.035 579.306,-313.959 569.462,-310.041 569.168,-317.035"/>
</g>
<!-- Node6 -->
<g id="node6" class="node"><title>Node6</title>
<g id="a_node6"><a xlink:href="../../d9/df9/classBankable_1_1MIDIButton.html" target="_top" xlink:title=" ">
<polygon fill="white" stroke="black" points="195,-111 195,-223 338,-223 338,-111 195,-111"/>
<text text-anchor="start" x="203" y="-211" font-family="Helvetica,sans-Serif" font-size="10.00">Bankable::MIDIButton</text>
<text text-anchor="start" x="203" y="-200" font-family="Helvetica,sans-Serif" font-size="10.00">&lt; SingleAddress, DigitalNote</text>
<text text-anchor="middle" x="266.5" y="-189" font-family="Helvetica,sans-Serif" font-size="10.00">Sender &gt;</text>
<polyline fill="none" stroke="black" points="195,-182 338,-182 "/>
<text text-anchor="start" x="203" y="-170" font-family="Helvetica,sans-Serif" font-size="10.00">+ sender</text>
<text text-anchor="start" x="203" y="-159" font-family="Helvetica,sans-Serif" font-size="10.00">&#45; button</text>
<polyline fill="none" stroke="black" points="195,-152 338,-152 "/>
<text text-anchor="start" x="203" y="-140" font-family="Helvetica,sans-Serif" font-size="10.00">+ MIDIButton()</text>
<text text-anchor="start" x="203" y="-129" font-family="Helvetica,sans-Serif" font-size="10.00">+ begin()</text>
<text text-anchor="start" x="203" y="-118" font-family="Helvetica,sans-Serif" font-size="10.00">+ update()</text>
</a>
</g>
</g>
<!-- Node1&#45;&gt;Node6 -->
<g id="edge5" class="edge"><title>Node1&#45;&gt;Node6</title>
<path fill="none" stroke="midnightblue" d="M569.122,-306.456C506.947,-296.927 416.932,-277.612 346.5,-240 337.764,-235.335 329.217,-229.516 321.154,-223.22"/>
<polygon fill="none" stroke="midnightblue" points="568.833,-309.952 579.239,-307.958 569.861,-303.028 568.833,-309.952"/>
</g>
<!-- Node8 -->
<g id="node8" class="node"><title>Node8</title>
<g id="a_node8"><a xlink:href="../../df/dca/classBankable_1_1MIDIButtonLatched.html" target="_top" xlink:title=" ">
<polygon fill="white" stroke="black" points="356,-94.5 356,-239.5 533,-239.5 533,-94.5 356,-94.5"/>
<text text-anchor="start" x="364" y="-227.5" font-family="Helvetica,sans-Serif" font-size="10.00">Bankable::MIDIButtonLatched</text>
<text text-anchor="middle" x="444.5" y="-216.5" font-family="Helvetica,sans-Serif" font-size="10.00">&lt; SingleAddress, DigitalCCSender &gt;</text>
<polyline fill="none" stroke="black" points="356,-209.5 533,-209.5 "/>
<text text-anchor="start" x="364" y="-197.5" font-family="Helvetica,sans-Serif" font-size="10.00">+ sender</text>
<text text-anchor="start" x="364" y="-186.5" font-family="Helvetica,sans-Serif" font-size="10.00">&#45; button</text>
<text text-anchor="start" x="364" y="-175.5" font-family="Helvetica,sans-Serif" font-size="10.00">&#45; state</text>
<polyline fill="none" stroke="black" points="356,-168.5 533,-168.5 "/>
<text text-anchor="start" x="364" y="-156.5" font-family="Helvetica,sans-Serif" font-size="10.00">+ begin()</text>
<text text-anchor="start" x="364" y="-145.5" font-family="Helvetica,sans-Serif" font-size="10.00">+ update()</text>
<text text-anchor="start" x="364" y="-134.5" font-family="Helvetica,sans-Serif" font-size="10.00">+ toggleState()</text>
<text text-anchor="start" x="364" y="-123.5" font-family="Helvetica,sans-Serif" font-size="10.00">+ getState()</text>
<text text-anchor="start" x="364" y="-112.5" font-family="Helvetica,sans-Serif" font-size="10.00">+ setState()</text>
<text text-anchor="start" x="364" y="-101.5" font-family="Helvetica,sans-Serif" font-size="10.00"># MIDIButtonLatched()</text>
</a>
</g>
</g>
<!-- Node1&#45;&gt;Node8 -->
<g id="edge7" class="edge"><title>Node1&#45;&gt;Node8</title>
<path fill="none" stroke="midnightblue" d="M582.085,-270.146C566.683,-258.711 549.803,-246.18 533.306,-233.932"/>
<polygon fill="none" stroke="midnightblue" points="580.362,-273.227 590.478,-276.377 584.535,-267.606 580.362,-273.227"/>
</g>
<!-- Node10 -->
<g id="node10" class="node"><title>Node10</title>
<g id="a_node10"><a xlink:href="../../df/dca/classBankable_1_1MIDIButtonLatched.html" target="_top" xlink:title=" ">
<polygon fill="white" stroke="black" points="551,-94.5 551,-239.5 734,-239.5 734,-94.5 551,-94.5"/>
<text text-anchor="start" x="559" y="-227.5" font-family="Helvetica,sans-Serif" font-size="10.00">Bankable::MIDIButtonLatched</text>
<text text-anchor="middle" x="642.5" y="-216.5" font-family="Helvetica,sans-Serif" font-size="10.00">&lt; SingleAddress, DigitalNoteSender &gt;</text>
<polyline fill="none" stroke="black" points="551,-209.5 734,-209.5 "/>
<text text-anchor="start" x="559" y="-197.5" font-family="Helvetica,sans-Serif" font-size="10.00">+ sender</text>
<text text-anchor="start" x="559" y="-186.5" font-family="Helvetica,sans-Serif" font-size="10.00">&#45; button</text>
<text text-anchor="start" x="559" y="-175.5" font-family="Helvetica,sans-Serif" font-size="10.00">&#45; state</text>
<polyline fill="none" stroke="black" points="551,-168.5 734,-168.5 "/>
<text text-anchor="start" x="559" y="-156.5" font-family="Helvetica,sans-Serif" font-size="10.00">+ begin()</text>
<text text-anchor="start" x="559" y="-145.5" font-family="Helvetica,sans-Serif" font-size="10.00">+ update()</text>
<text text-anchor="start" x="559" y="-134.5" font-family="Helvetica,sans-Serif" font-size="10.00">+ toggleState()</text>
<text text-anchor="start" x="559" y="-123.5" font-family="Helvetica,sans-Serif" font-size="10.00">+ getState()</text>
<text text-anchor="start" x="559" y="-112.5" font-family="Helvetica,sans-Serif" font-size="10.00">+ setState()</text>
<text text-anchor="start" x="559" y="-101.5" font-family="Helvetica,sans-Serif" font-size="10.00"># MIDIButtonLatched()</text>
</a>
</g>
</g>
<!-- Node1&#45;&gt;Node10 -->
<g id="edge9" class="edge"><title>Node1&#45;&gt;Node10</title>
<path fill="none" stroke="midnightblue" d="M642.5,-266.243C642.5,-257.699 642.5,-248.651 642.5,-239.64"/>
<polygon fill="none" stroke="midnightblue" points="639,-266.377 642.5,-276.377 646,-266.378 639,-266.377"/>
</g>
<!-- Node12 -->
<g id="node12" class="node"><title>Node12</title>
<g id="a_node12"><a xlink:href="../../d3/d0b/classBankable_1_1MIDIButtonLatching.html" target="_top" xlink:title=" ">
<polygon fill="white" stroke="black" points="752,-116.5 752,-217.5 929,-217.5 929,-116.5 752,-116.5"/>
<text text-anchor="start" x="760" y="-205.5" font-family="Helvetica,sans-Serif" font-size="10.00">Bankable::MIDIButtonLatching</text>
<text text-anchor="middle" x="840.5" y="-194.5" font-family="Helvetica,sans-Serif" font-size="10.00">&lt; SingleAddress, DigitalCCSender &gt;</text>
<polyline fill="none" stroke="black" points="752,-187.5 929,-187.5 "/>
<text text-anchor="start" x="760" y="-175.5" font-family="Helvetica,sans-Serif" font-size="10.00">+ sender</text>
<text text-anchor="start" x="760" y="-164.5" font-family="Helvetica,sans-Serif" font-size="10.00">&#45; button</text>
<polyline fill="none" stroke="black" points="752,-157.5 929,-157.5 "/>
<text text-anchor="start" x="760" y="-145.5" font-family="Helvetica,sans-Serif" font-size="10.00">+ begin()</text>
<text text-anchor="start" x="760" y="-134.5" font-family="Helvetica,sans-Serif" font-size="10.00">+ update()</text>
<text text-anchor="start" x="760" y="-123.5" font-family="Helvetica,sans-Serif" font-size="10.00"># MIDIButtonLatching()</text>
</a>
</g>
</g>
<!-- Node1&#45;&gt;Node12 -->
<g id="edge11" class="edge"><title>Node1&#45;&gt;Node12</title>
<path fill="none" stroke="midnightblue" d="M702.619,-270.366C725.012,-253.741 750.561,-234.773 773.531,-217.719"/>
<polygon fill="none" stroke="midnightblue" points="700.465,-267.606 694.522,-276.377 704.638,-273.227 700.465,-267.606"/>
</g>
<!-- Node14 -->
<g id="node14" class="node"><title>Node14</title>
<g id="a_node14"><a xlink:href="../../d3/d0b/classBankable_1_1MIDIButtonLatching.html" target="_top" xlink:title=" ">
<polygon fill="white" stroke="black" points="947,-116.5 947,-217.5 1130,-217.5 1130,-116.5 947,-116.5"/>
<text text-anchor="start" x="955" y="-205.5" font-family="Helvetica,sans-Serif" font-size="10.00">Bankable::MIDIButtonLatching</text>
<text text-anchor="middle" x="1038.5" y="-194.5" font-family="Helvetica,sans-Serif" font-size="10.00">&lt; SingleAddress, DigitalNoteSender &gt;</text>
<polyline fill="none" stroke="black" points="947,-187.5 1130,-187.5 "/>
<text text-anchor="start" x="955" y="-175.5" font-family="Helvetica,sans-Serif" font-size="10.00">+ sender</text>
<text text-anchor="start" x="955" y="-164.5" font-family="Helvetica,sans-Serif" font-size="10.00">&#45; button</text>
<polyline fill="none" stroke="black" points="947,-157.5 1130,-157.5 "/>
<text text-anchor="start" x="955" y="-145.5" font-family="Helvetica,sans-Serif" font-size="10.00">+ begin()</text>
<text text-anchor="start" x="955" y="-134.5" font-family="Helvetica,sans-Serif" font-size="10.00">+ update()</text>
<text text-anchor="start" x="955" y="-123.5" font-family="Helvetica,sans-Serif" font-size="10.00"># MIDIButtonLatching()</text>
</a>
</g>
</g>
<!-- Node1&#45;&gt;Node14 -->
<g id="edge13" class="edge"><title>Node1&#45;&gt;Node14</title>
<path fill="none" stroke="midnightblue" d="M715.764,-304.328C777.301,-293.54 866.469,-273.567 938.5,-240 951.686,-233.855 964.922,-225.895 977.252,-217.517"/>
<polygon fill="none" stroke="midnightblue" points="715.016,-300.906 705.752,-306.046 716.199,-307.805 715.016,-300.906"/>
</g>
<!-- Node16 -->
<g id="node16" class="node"><title>Node16</title>
<g id="a_node16"><a xlink:href="../../d1/d5a/classBankable_1_1MIDIFilteredAnalogAddressable.html" target="_top" xlink:title=" ">
<polygon fill="white" stroke="black" points="1148,-94.5 1148,-239.5 1317,-239.5 1317,-94.5 1148,-94.5"/>
<text text-anchor="start" x="1156" y="-227.5" font-family="Helvetica,sans-Serif" font-size="10.00">Bankable::MIDIFilteredAnalog</text>
<text text-anchor="start" x="1156" y="-216.5" font-family="Helvetica,sans-Serif" font-size="10.00">Addressable&lt; SingleAddress,</text>
<text text-anchor="middle" x="1232.5" y="-205.5" font-family="Helvetica,sans-Serif" font-size="10.00"> ContinuousCCSender &gt;</text>
<polyline fill="none" stroke="black" points="1148,-198.5 1317,-198.5 "/>
<text text-anchor="start" x="1156" y="-186.5" font-family="Helvetica,sans-Serif" font-size="10.00">+ sender</text>
<text text-anchor="start" x="1156" y="-175.5" font-family="Helvetica,sans-Serif" font-size="10.00">&#45; filteredAnalog</text>
<polyline fill="none" stroke="black" points="1148,-168.5 1317,-168.5 "/>
<text text-anchor="start" x="1156" y="-156.5" font-family="Helvetica,sans-Serif" font-size="10.00">+ begin()</text>
<text text-anchor="start" x="1156" y="-145.5" font-family="Helvetica,sans-Serif" font-size="10.00">+ update()</text>
<text text-anchor="start" x="1156" y="-134.5" font-family="Helvetica,sans-Serif" font-size="10.00">+ map()</text>
<text text-anchor="start" x="1156" y="-123.5" font-family="Helvetica,sans-Serif" font-size="10.00">+ getRawValue()</text>
<text text-anchor="start" x="1156" y="-112.5" font-family="Helvetica,sans-Serif" font-size="10.00">+ getValue()</text>
<text text-anchor="start" x="1156" y="-101.5" font-family="Helvetica,sans-Serif" font-size="10.00"># MIDIFilteredAnalogAddressable()</text>
</a>
</g>
</g>
<!-- Node1&#45;&gt;Node16 -->
<g id="edge15" class="edge"><title>Node1&#45;&gt;Node16</title>
<path fill="none" stroke="midnightblue" d="M715.958,-315.314C815.798,-313.246 998.091,-300.503 1139.5,-240 1142.32,-238.795 1145.12,-237.484 1147.91,-236.084"/>
<polygon fill="none" stroke="midnightblue" points="715.61,-311.819 705.673,-315.495 715.733,-318.818 715.61,-311.819"/>
</g>
<!-- Node2 -->
<g id="node2" class="node"><title>Node2</title>
<g id="a_node2"><a xlink:href="../../d3/d43/classBankableMIDIOutput.html" target="_top" xlink:title="A base class for all MIDIOutputElements that can be banked.">
<polygon fill="white" stroke="black" points="581.5,-392.5 581.5,-471.5 703.5,-471.5 703.5,-392.5 581.5,-392.5"/>
<text text-anchor="middle" x="642.5" y="-459.5" font-family="Helvetica,sans-Serif" font-size="10.00">BankableMIDIOutput</text>
<polyline fill="none" stroke="black" points="581.5,-452.5 703.5,-452.5 "/>
<text text-anchor="start" x="589.5" y="-440.5" font-family="Helvetica,sans-Serif" font-size="10.00">&#45; type</text>
<polyline fill="none" stroke="black" points="581.5,-433.5 703.5,-433.5 "/>
<text text-anchor="start" x="589.5" y="-421.5" font-family="Helvetica,sans-Serif" font-size="10.00">+ getAddressOffset()</text>
<text text-anchor="start" x="589.5" y="-410.5" font-family="Helvetica,sans-Serif" font-size="10.00"># BankableMIDIOutput()</text>
<text text-anchor="start" x="589.5" y="-399.5" font-family="Helvetica,sans-Serif" font-size="10.00"># BankableMIDIOutput()</text>
</a>
</g>
</g>
<!-- Node2&#45;&gt;Node1 -->
<g id="edge1" class="edge"><title>Node2&#45;&gt;Node1</title>
<path fill="none" stroke="midnightblue" d="M642.5,-382.146C642.5,-373.256 642.5,-364.096 642.5,-355.555"/>
<polygon fill="none" stroke="midnightblue" points="639,-382.405 642.5,-392.405 646,-382.405 639,-382.405"/>
</g>
<!-- Node3 -->
<g id="node3" class="node"><title>Node3</title>
<g id="a_node3"><a xlink:href="../../d4/d6e/classBankableMIDIOutput__Base.html" target="_top" xlink:title=" ">
<polygon fill="white" stroke="black" points="567.5,-508.5 567.5,-631.5 717.5,-631.5 717.5,-508.5 567.5,-508.5"/>
<text text-anchor="middle" x="642.5" y="-619.5" font-family="Helvetica,sans-Serif" font-size="10.00">BankableMIDIOutput_Base</text>
<polyline fill="none" stroke="black" points="567.5,-612.5 717.5,-612.5 "/>
<text text-anchor="start" x="575.5" y="-600.5" font-family="Helvetica,sans-Serif" font-size="10.00"># bank</text>
<text text-anchor="start" x="575.5" y="-589.5" font-family="Helvetica,sans-Serif" font-size="10.00">&#45; lockedSetting</text>
<text text-anchor="start" x="575.5" y="-578.5" font-family="Helvetica,sans-Serif" font-size="10.00">&#45; UNLOCKED</text>
<polyline fill="none" stroke="black" points="567.5,-571.5 717.5,-571.5 "/>
<text text-anchor="start" x="575.5" y="-559.5" font-family="Helvetica,sans-Serif" font-size="10.00">+ getRawBankSetting()</text>
<text text-anchor="start" x="575.5" y="-548.5" font-family="Helvetica,sans-Serif" font-size="10.00">+ getSelection()</text>
<text text-anchor="start" x="575.5" y="-537.5" font-family="Helvetica,sans-Serif" font-size="10.00"># BankableMIDIOutput_Base()</text>
<text text-anchor="start" x="575.5" y="-526.5" font-family="Helvetica,sans-Serif" font-size="10.00"># lock()</text>
<text text-anchor="start" x="575.5" y="-515.5" font-family="Helvetica,sans-Serif" font-size="10.00"># unlock()</text>
</a>
</g>
</g>
<!-- Node3&#45;&gt;Node2 -->
<g id="edge2" class="edge"><title>Node3&#45;&gt;Node2</title>
<path fill="none" stroke="midnightblue" d="M642.5,-497.911C642.5,-488.831 642.5,-479.824 642.5,-471.54"/>
<polygon fill="none" stroke="midnightblue" points="639,-498.16 642.5,-508.16 646,-498.16 639,-498.16"/>
</g>
<!-- Node5 -->
<g id="node5" class="node"><title>Node5</title>
<g id="a_node5"><a xlink:href="../../d1/dd4/classBankable_1_1CCButton.html" target="_top" xlink:title="A class of MIDIOutputElements that read the input of a momentary push button or switch,...">
<polygon fill="white" stroke="black" points="35,-0.5 35,-57.5 142,-57.5 142,-0.5 35,-0.5"/>
<text text-anchor="middle" x="88.5" y="-45.5" font-family="Helvetica,sans-Serif" font-size="10.00">Bankable::CCButton</text>
<polyline fill="none" stroke="black" points="35,-38.5 142,-38.5 "/>
<text text-anchor="middle" x="88.5" y="-26.5" font-family="Helvetica,sans-Serif" font-size="10.00"> </text>
<polyline fill="none" stroke="black" points="35,-19.5 142,-19.5 "/>
<text text-anchor="start" x="43" y="-7.5" font-family="Helvetica,sans-Serif" font-size="10.00">+ CCButton()</text>
</a>
</g>
</g>
<!-- Node4&#45;&gt;Node5 -->
<g id="edge4" class="edge"><title>Node4&#45;&gt;Node5</title>
<path fill="none" stroke="midnightblue" d="M88.5,-105.81C88.5,-89.0425 88.5,-71.6325 88.5,-57.7317"/>
<polygon fill="none" stroke="midnightblue" points="85.0001,-106.131 88.5,-116.131 92.0001,-106.131 85.0001,-106.131"/>
</g>
<!-- Node7 -->
<g id="node7" class="node"><title>Node7</title>
<g id="a_node7"><a xlink:href="../../de/d36/classBankable_1_1NoteButton.html" target="_top" xlink:title="A class of MIDIOutputElements that read the input of a momentary push button or switch,...">
<polygon fill="white" stroke="black" points="210,-0.5 210,-57.5 323,-57.5 323,-0.5 210,-0.5"/>
<text text-anchor="middle" x="266.5" y="-45.5" font-family="Helvetica,sans-Serif" font-size="10.00">Bankable::NoteButton</text>
<polyline fill="none" stroke="black" points="210,-38.5 323,-38.5 "/>
<text text-anchor="middle" x="266.5" y="-26.5" font-family="Helvetica,sans-Serif" font-size="10.00"> </text>
<polyline fill="none" stroke="black" points="210,-19.5 323,-19.5 "/>
<text text-anchor="start" x="218" y="-7.5" font-family="Helvetica,sans-Serif" font-size="10.00">+ NoteButton()</text>
</a>
</g>
</g>
<!-- Node6&#45;&gt;Node7 -->
<g id="edge6" class="edge"><title>Node6&#45;&gt;Node7</title>
<path fill="none" stroke="midnightblue" d="M266.5,-100.328C266.5,-85.2823 266.5,-70.0846 266.5,-57.6856"/>
<polygon fill="none" stroke="midnightblue" points="263,-100.684 266.5,-110.684 270,-100.684 263,-100.684"/>
</g>
<!-- Node9 -->
<g id="node9" class="node"><title>Node9</title>
<g id="a_node9"><a xlink:href="../../d9/d1d/classBankable_1_1CCButtonLatched.html" target="_top" xlink:title="A class of MIDIOutputElements that read the input of a momentary push button, and send out MIDI Contr...">
<polygon fill="white" stroke="black" points="374,-0.5 374,-57.5 515,-57.5 515,-0.5 374,-0.5"/>
<text text-anchor="middle" x="444.5" y="-45.5" font-family="Helvetica,sans-Serif" font-size="10.00">Bankable::CCButtonLatched</text>
<polyline fill="none" stroke="black" points="374,-38.5 515,-38.5 "/>
<text text-anchor="middle" x="444.5" y="-26.5" font-family="Helvetica,sans-Serif" font-size="10.00"> </text>
<polyline fill="none" stroke="black" points="374,-19.5 515,-19.5 "/>
<text text-anchor="start" x="382" y="-7.5" font-family="Helvetica,sans-Serif" font-size="10.00">+ CCButtonLatched()</text>
</a>
</g>
</g>
<!-- Node8&#45;&gt;Node9 -->
<g id="edge8" class="edge"><title>Node8&#45;&gt;Node9</title>
<path fill="none" stroke="midnightblue" d="M444.5,-84.3871C444.5,-74.8611 444.5,-65.7068 444.5,-57.7138"/>
<polygon fill="none" stroke="midnightblue" points="441,-84.4155 444.5,-94.4155 448,-84.4156 441,-84.4155"/>
</g>
<!-- Node11 -->
<g id="node11" class="node"><title>Node11</title>
<g id="a_node11"><a xlink:href="../../d2/dbf/classBankable_1_1NoteButtonLatched.html" target="_top" xlink:title="A class of MIDIOutputElements that read the input of a momentary push button, and send out MIDI Note ...">
<polygon fill="white" stroke="black" points="569,-0.5 569,-57.5 716,-57.5 716,-0.5 569,-0.5"/>
<text text-anchor="middle" x="642.5" y="-45.5" font-family="Helvetica,sans-Serif" font-size="10.00">Bankable::NoteButtonLatched</text>
<polyline fill="none" stroke="black" points="569,-38.5 716,-38.5 "/>
<text text-anchor="middle" x="642.5" y="-26.5" font-family="Helvetica,sans-Serif" font-size="10.00"> </text>
<polyline fill="none" stroke="black" points="569,-19.5 716,-19.5 "/>
<text text-anchor="start" x="577" y="-7.5" font-family="Helvetica,sans-Serif" font-size="10.00">+ NoteButtonLatched()</text>
</a>
</g>
</g>
<!-- Node10&#45;&gt;Node11 -->
<g id="edge10" class="edge"><title>Node10&#45;&gt;Node11</title>
<path fill="none" stroke="midnightblue" d="M642.5,-84.3871C642.5,-74.8611 642.5,-65.7068 642.5,-57.7138"/>
<polygon fill="none" stroke="midnightblue" points="639,-84.4155 642.5,-94.4155 646,-84.4156 639,-84.4155"/>
</g>
<!-- Node13 -->
<g id="node13" class="node"><title>Node13</title>
<g id="a_node13"><a xlink:href="../../d9/df9/classBankable_1_1CCButtonLatching.html" target="_top" xlink:title="A class of MIDIOutputElements that read the input of a latching push button or toggle switch,...">
<polygon fill="white" stroke="black" points="769,-0.5 769,-57.5 912,-57.5 912,-0.5 769,-0.5"/>
<text text-anchor="middle" x="840.5" y="-45.5" font-family="Helvetica,sans-Serif" font-size="10.00">Bankable::CCButtonLatching</text>
<polyline fill="none" stroke="black" points="769,-38.5 912,-38.5 "/>
<text text-anchor="middle" x="840.5" y="-26.5" font-family="Helvetica,sans-Serif" font-size="10.00"> </text>
<polyline fill="none" stroke="black" points="769,-19.5 912,-19.5 "/>
<text text-anchor="start" x="777" y="-7.5" font-family="Helvetica,sans-Serif" font-size="10.00">+ CCButtonLatching()</text>
</a>
</g>
</g>
<!-- Node12&#45;&gt;Node13 -->
<g id="edge12" class="edge"><title>Node12&#45;&gt;Node13</title>
<path fill="none" stroke="midnightblue" d="M840.5,-105.81C840.5,-89.0425 840.5,-71.6325 840.5,-57.7317"/>
<polygon fill="none" stroke="midnightblue" points="837,-106.131 840.5,-116.131 844,-106.131 837,-106.131"/>
</g>
<!-- Node15 -->
<g id="node15" class="node"><title>Node15</title>
<g id="a_node15"><a xlink:href="../../d9/d3f/classBankable_1_1NoteButtonLatching.html" target="_top" xlink:title="A class of MIDIOutputElements that read the input of a latching push button or toggle switch,...">
<polygon fill="white" stroke="black" points="964,-0.5 964,-57.5 1113,-57.5 1113,-0.5 964,-0.5"/>
<text text-anchor="middle" x="1038.5" y="-45.5" font-family="Helvetica,sans-Serif" font-size="10.00">Bankable::NoteButtonLatching</text>
<polyline fill="none" stroke="black" points="964,-38.5 1113,-38.5 "/>
<text text-anchor="middle" x="1038.5" y="-26.5" font-family="Helvetica,sans-Serif" font-size="10.00"> </text>
<polyline fill="none" stroke="black" points="964,-19.5 1113,-19.5 "/>
<text text-anchor="start" x="972" y="-7.5" font-family="Helvetica,sans-Serif" font-size="10.00">+ NoteButtonLatching()</text>
</a>
</g>
</g>
<!-- Node14&#45;&gt;Node15 -->
<g id="edge14" class="edge"><title>Node14&#45;&gt;Node15</title>
<path fill="none" stroke="midnightblue" d="M1038.5,-105.81C1038.5,-89.0425 1038.5,-71.6325 1038.5,-57.7317"/>
<polygon fill="none" stroke="midnightblue" points="1035,-106.131 1038.5,-116.131 1042,-106.131 1035,-106.131"/>
</g>
<!-- Node17 -->
<g id="node17" class="node"><title>Node17</title>
<g id="a_node17"><a xlink:href="../../d7/dc0/classBankable_1_1CCPotentiometer.html" target="_top" xlink:title="A class of MIDIOutputElements that read the analog input from a potentiometer or fader,...">
<polygon fill="white" stroke="black" points="1163,-0.5 1163,-57.5 1302,-57.5 1302,-0.5 1163,-0.5"/>
<text text-anchor="middle" x="1232.5" y="-45.5" font-family="Helvetica,sans-Serif" font-size="10.00">Bankable::CCPotentiometer</text>
<polyline fill="none" stroke="black" points="1163,-38.5 1302,-38.5 "/>
<text text-anchor="middle" x="1232.5" y="-26.5" font-family="Helvetica,sans-Serif" font-size="10.00"> </text>
<polyline fill="none" stroke="black" points="1163,-19.5 1302,-19.5 "/>
<text text-anchor="start" x="1171" y="-7.5" font-family="Helvetica,sans-Serif" font-size="10.00">+ CCPotentiometer()</text>
</a>
</g>
</g>
<!-- Node16&#45;&gt;Node17 -->
<g id="edge16" class="edge"><title>Node16&#45;&gt;Node17</title>
<path fill="none" stroke="midnightblue" d="M1232.5,-84.3871C1232.5,-74.8611 1232.5,-65.7068 1232.5,-57.7138"/>
<polygon fill="none" stroke="midnightblue" points="1229,-84.4155 1232.5,-94.4155 1236,-84.4156 1229,-84.4155"/>
</g>
</g>
</svg>
