<?xml version="1.0" encoding="UTF-8" standalone="no"?>
<!DOCTYPE svg PUBLIC "-//W3C//DTD SVG 1.1//EN"
 "http://www.w3.org/Graphics/SVG/1.1/DTD/svg11.dtd">
<!-- Generated by graphviz version 2.38.0 (20140413.2041)
 -->
<!-- Title: MIDI_Interface::sendPC Pages: 1 -->
<svg width="295pt" height="66pt"
 viewBox="0.00 0.00 295.00 66.00" xmlns="http://www.w3.org/2000/svg" xmlns:xlink="http://www.w3.org/1999/xlink">
<g id="graph0" class="graph" transform="scale(1 1) rotate(0) translate(4 62)">
<title>MIDI_Interface::sendPC</title>
<polygon fill="white" stroke="none" points="-4,4 -4,-62 291,-62 291,4 -4,4"/>
<!-- Node118 -->
<g id="node1" class="node"><title>Node118</title>
<g id="a_node1"><a xlink:title=" ">
<polygon fill="#bfbfbf" stroke="black" points="0,-19.5 0,-38.5 123,-38.5 123,-19.5 0,-19.5"/>
<text text-anchor="middle" x="61.5" y="-26.5" font-family="Helvetica,sans-Serif" font-size="10.00">MIDI_Interface::sendPC</text>
</a>
</g>
</g>
<!-- Node119 -->
<g id="node2" class="node"><title>Node119</title>
<g id="a_node2"><a xlink:href="../../d9/d73/classMIDI__Interface.html#a594e0b59f1f5ed69bae207277154b95f" target="_top" xlink:title="Low&#45;level function for sending a 3&#45;byte MIDI message.">
<polygon fill="white" stroke="black" points="159,-38.5 159,-57.5 287,-57.5 287,-38.5 159,-38.5"/>
<text text-anchor="middle" x="223" y="-45.5" font-family="Helvetica,sans-Serif" font-size="10.00">MIDI_Interface::sendImpl</text>
</a>
</g>
</g>
<!-- Node118&#45;&gt;Node119 -->
<g id="edge1" class="edge"><title>Node118&#45;&gt;Node119</title>
<path fill="none" stroke="midnightblue" d="M123.255,-36.2373C131.608,-37.2322 140.255,-38.2624 148.802,-39.2805"/>
<polygon fill="midnightblue" stroke="midnightblue" points="148.421,-42.7597 158.765,-40.4672 149.249,-35.8089 148.421,-42.7597"/>
</g>
<!-- Node120 -->
<g id="node3" class="node"><title>Node120</title>
<g id="a_node3"><a xlink:href="../../d2/d48/classChannel.html#aaaf93f5670acdabd82a82debabdf6b52" target="_top" xlink:title=" ">
<polygon fill="white" stroke="black" points="177,-0.5 177,-19.5 269,-19.5 269,-0.5 177,-0.5"/>
<text text-anchor="middle" x="223" y="-7.5" font-family="Helvetica,sans-Serif" font-size="10.00">Channel::getRaw</text>
</a>
</g>
</g>
<!-- Node118&#45;&gt;Node120 -->
<g id="edge2" class="edge"><title>Node118&#45;&gt;Node120</title>
<path fill="none" stroke="midnightblue" d="M123.255,-21.7627C137.565,-20.0581 152.742,-18.2502 166.792,-16.5765"/>
<polygon fill="midnightblue" stroke="midnightblue" points="167.279,-20.0433 176.795,-15.3849 166.451,-13.0924 167.279,-20.0433"/>
</g>
</g>
</svg>
