<?xml version="1.0" encoding="UTF-8" standalone="no"?>
<!DOCTYPE svg PUBLIC "-//W3C//DTD SVG 1.1//EN"
 "http://www.w3.org/Graphics/SVG/1.1/DTD/svg11.dtd">
<!-- Generated by graphviz version 2.38.0 (20140413.2041)
 -->
<!-- Title: AudioVU.hpp Pages: 1 -->
<svg width="1038pt" height="778pt"
 viewBox="0.00 0.00 1038.00 778.00" xmlns="http://www.w3.org/2000/svg" xmlns:xlink="http://www.w3.org/1999/xlink">
<g id="graph0" class="graph" transform="scale(1 1) rotate(0) translate(4 774)">
<title>AudioVU.hpp</title>
<polygon fill="white" stroke="none" points="-4,4 -4,-774 1034,-774 1034,4 -4,4"/>
<!-- Node1 -->
<g id="node1" class="node"><title>Node1</title>
<g id="a_node1"><a xlink:title=" ">
<polygon fill="#bfbfbf" stroke="black" points="200,-750.5 200,-769.5 274,-769.5 274,-750.5 200,-750.5"/>
<text text-anchor="middle" x="237" y="-757.5" font-family="Helvetica,sans-Serif" font-size="10.00">AudioVU.hpp</text>
</a>
</g>
</g>
<!-- Node2 -->
<g id="node2" class="node"><title>Node2</title>
<g id="a_node2"><a xlink:title=" ">
<polygon fill="white" stroke="#bfbfbf" points="6,-694.5 6,-713.5 56,-713.5 56,-694.5 6,-694.5"/>
<text text-anchor="middle" x="31" y="-701.5" font-family="Helvetica,sans-Serif" font-size="10.00">Audio.h</text>
</a>
</g>
</g>
<!-- Node1&#45;&gt;Node2 -->
<g id="edge1" class="edge"><title>Node1&#45;&gt;Node2</title>
<path fill="none" stroke="midnightblue" d="M204.359,-750.444C166.555,-740.534 104.528,-724.274 65.821,-714.128"/>
<polygon fill="midnightblue" stroke="midnightblue" points="66.5975,-710.713 56.0368,-711.563 64.8225,-717.484 66.5975,-710.713"/>
</g>
<!-- Node3 -->
<g id="node3" class="node"><title>Node3</title>
<g id="a_node3"><a xlink:href="../../d3/df0/EMA_8hpp.html" target="_top" xlink:title=" ">
<polygon fill="white" stroke="black" points="0,-336.5 0,-355.5 94,-355.5 94,-336.5 0,-336.5"/>
<text text-anchor="middle" x="47" y="-343.5" font-family="Helvetica,sans-Serif" font-size="10.00">Helpers/EMA.hpp</text>
</a>
</g>
</g>
<!-- Node1&#45;&gt;Node3 -->
<g id="edge2" class="edge"><title>Node1&#45;&gt;Node3</title>
<path fill="none" stroke="midnightblue" d="M204.926,-750.463C160.062,-736.353 84,-703.573 84,-643.5 84,-643.5 84,-643.5 84,-457 84,-422.889 67.8185,-385.787 56.8576,-364.568"/>
<polygon fill="midnightblue" stroke="midnightblue" points="59.8067,-362.662 51.99,-355.51 53.6407,-365.976 59.8067,-362.662"/>
</g>
<!-- Node5 -->
<g id="node5" class="node"><title>Node5</title>
<g id="a_node5"><a xlink:href="../../db/dda/VU_8hpp.html" target="_top" xlink:title=" ">
<polygon fill="white" stroke="black" points="323.5,-694.5 323.5,-713.5 456.5,-713.5 456.5,-694.5 323.5,-694.5"/>
<text text-anchor="middle" x="390" y="-701.5" font-family="Helvetica,sans-Serif" font-size="10.00">MIDI_Inputs/MCU/VU.hpp</text>
</a>
</g>
</g>
<!-- Node1&#45;&gt;Node5 -->
<g id="edge4" class="edge"><title>Node1&#45;&gt;Node5</title>
<path fill="none" stroke="midnightblue" d="M261.243,-750.444C286.871,-741.399 327.485,-727.064 356.238,-716.916"/>
<polygon fill="midnightblue" stroke="midnightblue" points="357.605,-720.145 365.87,-713.516 355.275,-713.544 357.605,-720.145"/>
</g>
<!-- Node38 -->
<g id="node38" class="node"><title>Node38</title>
<g id="a_node38"><a xlink:href="../../d9/d4f/MovingCoilBallistics_8hpp.html" target="_top" xlink:title=" ">
<polygon fill="white" stroke="black" points="828,-224.5 828,-243.5 952,-243.5 952,-224.5 828,-224.5"/>
<text text-anchor="middle" x="890" y="-231.5" font-family="Helvetica,sans-Serif" font-size="10.00">MovingCoilBallistics.hpp</text>
</a>
</g>
</g>
<!-- Node1&#45;&gt;Node38 -->
<g id="edge71" class="edge"><title>Node1&#45;&gt;Node38</title>
<path fill="none" stroke="midnightblue" d="M274.184,-757.56C430.963,-751.003 1030,-720.889 1030,-643.5 1030,-643.5 1030,-643.5 1030,-345 1030,-293.347 970.349,-262.258 928.921,-246.895"/>
<polygon fill="midnightblue" stroke="midnightblue" points="929.943,-243.544 919.349,-243.501 927.604,-250.142 929.943,-243.544"/>
</g>
<!-- Node4 -->
<g id="node4" class="node"><title>Node4</title>
<g id="a_node4"><a xlink:title=" ">
<polygon fill="white" stroke="#bfbfbf" points="130.5,-56.5 130.5,-75.5 179.5,-75.5 179.5,-56.5 130.5,-56.5"/>
<text text-anchor="middle" x="155" y="-63.5" font-family="Helvetica,sans-Serif" font-size="10.00">stdint.h</text>
</a>
</g>
</g>
<!-- Node3&#45;&gt;Node4 -->
<g id="edge3" class="edge"><title>Node3&#45;&gt;Node4</title>
<path fill="none" stroke="midnightblue" d="M49.5624,-336.249C54.7486,-317.738 66,-273.179 66,-235 66,-235 66,-235 66,-177 66,-134.846 105.99,-99.7791 132.358,-81.2392"/>
<polygon fill="midnightblue" stroke="midnightblue" points="134.377,-84.0994 140.701,-75.5989 130.456,-78.3003 134.377,-84.0994"/>
</g>
<!-- Node6 -->
<g id="node6" class="node"><title>Node6</title>
<g id="a_node6"><a xlink:href="../../de/d6e/BankableMIDIInput_8hpp.html" target="_top" xlink:title=" ">
<polygon fill="white" stroke="black" points="569,-566 569,-585 719,-585 719,-566 569,-566"/>
<text text-anchor="middle" x="644" y="-573" font-family="Helvetica,sans-Serif" font-size="10.00">Banks/BankableMIDIInput.hpp</text>
</a>
</g>
</g>
<!-- Node5&#45;&gt;Node6 -->
<g id="edge5" class="edge"><title>Node5&#45;&gt;Node6</title>
<path fill="none" stroke="midnightblue" d="M430.186,-694.444C460.111,-687.155 501.42,-675.12 535,-658 570.708,-639.795 606.952,-609.933 627.344,-591.855"/>
<polygon fill="midnightblue" stroke="midnightblue" points="629.739,-594.408 634.827,-585.115 625.054,-589.207 629.739,-594.408"/>
</g>
<!-- Node22 -->
<g id="node22" class="node"><title>Node22</title>
<g id="a_node22"><a xlink:href="../../d7/d79/MinMaxFix_8hpp.html" target="_top" xlink:title=" ">
<polygon fill="white" stroke="black" points="188,-280.5 188,-299.5 308,-299.5 308,-280.5 188,-280.5"/>
<text text-anchor="middle" x="248" y="-287.5" font-family="Helvetica,sans-Serif" font-size="10.00">Helpers/MinMaxFix.hpp</text>
</a>
</g>
</g>
<!-- Node5&#45;&gt;Node22 -->
<g id="edge58" class="edge"><title>Node5&#45;&gt;Node22</title>
<path fill="none" stroke="midnightblue" d="M368.211,-694.466C319.472,-673.954 202.952,-616.607 165,-524 132.287,-444.176 202.03,-346.148 233.571,-307.644"/>
<polygon fill="midnightblue" stroke="midnightblue" points="236.599,-309.481 240.348,-299.572 231.237,-304.981 236.599,-309.481"/>
</g>
<!-- Node31 -->
<g id="node31" class="node"><title>Node31</title>
<g id="a_node31"><a xlink:href="../../dd/ddf/ExtendedInputOutput_8hpp.html" target="_top" xlink:title=" ">
<polygon fill="white" stroke="black" points="737,-560.5 737,-590.5 891,-590.5 891,-560.5 737,-560.5"/>
<text text-anchor="start" x="745" y="-578.5" font-family="Helvetica,sans-Serif" font-size="10.00">Hardware/ExtendedInputOutput</text>
<text text-anchor="middle" x="814" y="-567.5" font-family="Helvetica,sans-Serif" font-size="10.00">/ExtendedInputOutput.hpp</text>
</a>
</g>
</g>
<!-- Node5&#45;&gt;Node31 -->
<g id="edge53" class="edge"><title>Node5&#45;&gt;Node31</title>
<path fill="none" stroke="midnightblue" d="M428.811,-694.464C466.03,-686.042 523.686,-672.373 573,-658 640.638,-638.286 717.553,-611.497 765.924,-594.104"/>
<polygon fill="midnightblue" stroke="midnightblue" points="767.284,-597.335 775.503,-590.649 764.908,-590.75 767.284,-597.335"/>
</g>
<!-- Node33 -->
<g id="node33" class="node"><title>Node33</title>
<g id="a_node33"><a xlink:href="../../d8/d4f/MIDIInputElementChannelPressure_8hpp.html" target="_top" xlink:title=" ">
<polygon fill="white" stroke="black" points="373.5,-627.5 373.5,-657.5 526.5,-657.5 526.5,-627.5 373.5,-627.5"/>
<text text-anchor="start" x="381.5" y="-645.5" font-family="Helvetica,sans-Serif" font-size="10.00">MIDI_Inputs/MIDIInputElement</text>
<text text-anchor="middle" x="450" y="-634.5" font-family="Helvetica,sans-Serif" font-size="10.00">ChannelPressure.hpp</text>
</a>
</g>
</g>
<!-- Node5&#45;&gt;Node33 -->
<g id="edge59" class="edge"><title>Node5&#45;&gt;Node33</title>
<path fill="none" stroke="midnightblue" d="M398.597,-694.475C406.419,-686.718 418.292,-674.943 428.658,-664.665"/>
<polygon fill="midnightblue" stroke="midnightblue" points="431.223,-667.05 435.859,-657.523 426.294,-662.079 431.223,-667.05"/>
</g>
<!-- Node37 -->
<g id="node37" class="node"><title>Node37</title>
<g id="a_node37"><a xlink:title=" ">
<polygon fill="white" stroke="#bfbfbf" points="306.5,-633 306.5,-652 355.5,-652 355.5,-633 306.5,-633"/>
<text text-anchor="middle" x="331" y="-640" font-family="Helvetica,sans-Serif" font-size="10.00">string.h</text>
</a>
</g>
</g>
<!-- Node5&#45;&gt;Node37 -->
<g id="edge70" class="edge"><title>Node5&#45;&gt;Node37</title>
<path fill="none" stroke="midnightblue" d="M381.547,-694.475C372.434,-685.285 357.73,-670.456 346.524,-659.156"/>
<polygon fill="midnightblue" stroke="midnightblue" points="348.964,-656.646 339.438,-652.009 343.993,-661.574 348.964,-656.646"/>
</g>
<!-- Node7 -->
<g id="node7" class="node"><title>Node7</title>
<g id="a_node7"><a xlink:href="../../d4/d57/Bank_8hpp.html" target="_top" xlink:title=" ">
<polygon fill="white" stroke="black" points="814,-504.5 814,-523.5 872,-523.5 872,-504.5 814,-504.5"/>
<text text-anchor="middle" x="843" y="-511.5" font-family="Helvetica,sans-Serif" font-size="10.00">Bank.hpp</text>
</a>
</g>
</g>
<!-- Node6&#45;&gt;Node7 -->
<g id="edge6" class="edge"><title>Node6&#45;&gt;Node7</title>
<path fill="none" stroke="midnightblue" d="M667.611,-565.975C701.415,-555.163 763.578,-536.546 804.171,-525.052"/>
<polygon fill="midnightblue" stroke="midnightblue" points="805.315,-528.366 813.996,-522.293 803.422,-521.627 805.315,-528.366"/>
</g>
<!-- Node8 -->
<g id="node8" class="node"><title>Node8</title>
<g id="a_node8"><a xlink:href="../../df/dee/Debug_8hpp.html" target="_top" xlink:title=" ">
<polygon fill="white" stroke="black" points="701.5,-224.5 701.5,-243.5 802.5,-243.5 802.5,-224.5 701.5,-224.5"/>
<text text-anchor="middle" x="752" y="-231.5" font-family="Helvetica,sans-Serif" font-size="10.00">Helpers/Debug.hpp</text>
</a>
</g>
</g>
<!-- Node6&#45;&gt;Node8 -->
<g id="edge51" class="edge"><title>Node6&#45;&gt;Node8</title>
<path fill="none" stroke="midnightblue" d="M636.02,-565.881C611.737,-538.575 542.67,-452.233 581,-392 601.282,-360.128 628.479,-379.573 658,-356 663.059,-351.96 714.793,-284.078 739.28,-251.798"/>
<polygon fill="midnightblue" stroke="midnightblue" points="742.152,-253.804 745.403,-243.721 736.573,-249.576 742.152,-253.804"/>
</g>
<!-- Node20 -->
<g id="node20" class="node"><title>Node20</title>
<g id="a_node20"><a xlink:href="../../de/dd1/LinkedList_8hpp.html" target="_top" xlink:title=" ">
<polygon fill="white" stroke="black" points="590,-448.5 590,-467.5 706,-467.5 706,-448.5 590,-448.5"/>
<text text-anchor="middle" x="648" y="-455.5" font-family="Helvetica,sans-Serif" font-size="10.00">Helpers/LinkedList.hpp</text>
</a>
</g>
</g>
<!-- Node6&#45;&gt;Node20 -->
<g id="edge52" class="edge"><title>Node6&#45;&gt;Node20</title>
<path fill="none" stroke="midnightblue" d="M644.301,-565.819C644.943,-547.257 646.464,-503.339 647.343,-477.973"/>
<polygon fill="midnightblue" stroke="midnightblue" points="650.848,-477.897 647.696,-467.782 643.852,-477.655 650.848,-477.897"/>
</g>
<!-- Node29 -->
<g id="node29" class="node"><title>Node29</title>
<g id="a_node29"><a xlink:href="../../dd/d1f/BankConfig_8hpp.html" target="_top" xlink:title=" ">
<polygon fill="white" stroke="black" points="448,-448.5 448,-467.5 534,-467.5 534,-448.5 448,-448.5"/>
<text text-anchor="middle" x="491" y="-455.5" font-family="Helvetica,sans-Serif" font-size="10.00">BankConfig.hpp</text>
</a>
</g>
</g>
<!-- Node6&#45;&gt;Node29 -->
<g id="edge47" class="edge"><title>Node6&#45;&gt;Node29</title>
<path fill="none" stroke="midnightblue" d="M632.5,-565.819C606.583,-546.253 543.347,-498.517 510.909,-474.03"/>
<polygon fill="midnightblue" stroke="midnightblue" points="512.723,-471.014 502.633,-467.782 508.506,-476.6 512.723,-471.014"/>
</g>
<!-- Node30 -->
<g id="node30" class="node"><title>Node30</title>
<g id="a_node30"><a xlink:href="../../d8/d38/MIDICNChannelAddress_8hpp.html" target="_top" xlink:title=" ">
<polygon fill="white" stroke="black" points="338.5,-504.5 338.5,-523.5 501.5,-523.5 501.5,-504.5 338.5,-504.5"/>
<text text-anchor="middle" x="420" y="-511.5" font-family="Helvetica,sans-Serif" font-size="10.00">Def/MIDICNChannelAddress.hpp</text>
</a>
</g>
</g>
<!-- Node6&#45;&gt;Node30 -->
<g id="edge49" class="edge"><title>Node6&#45;&gt;Node30</title>
<path fill="none" stroke="midnightblue" d="M611.906,-565.975C572.401,-555.482 505.221,-537.637 461.739,-526.087"/>
<polygon fill="midnightblue" stroke="midnightblue" points="462.598,-522.694 452.034,-523.509 460.801,-529.459 462.598,-522.694"/>
</g>
<!-- Node7&#45;&gt;Node6 -->
<g id="edge46" class="edge"><title>Node7&#45;&gt;Node6</title>
<path fill="none" stroke="midnightblue" d="M819.438,-523.509C786.796,-533.951 727.644,-551.689 687.05,-563.249"/>
<polygon fill="midnightblue" stroke="midnightblue" points="686.082,-559.886 677.412,-565.975 687.988,-566.621 686.082,-559.886"/>
</g>
<!-- Node7&#45;&gt;Node8 -->
<g id="edge7" class="edge"><title>Node7&#45;&gt;Node8</title>
<path fill="none" stroke="midnightblue" d="M862.845,-504.391C894.772,-489.043 954,-453.734 954,-403 954,-403 954,-403 954,-345 954,-304.145 923.8,-301.403 889,-280 863.189,-264.126 831.16,-253.203 804.562,-246.098"/>
<polygon fill="midnightblue" stroke="midnightblue" points="805.215,-242.652 794.659,-243.56 803.476,-249.433 805.215,-242.652"/>
</g>
<!-- Node19 -->
<g id="node19" class="node"><title>Node19</title>
<g id="a_node19"><a xlink:href="../../d1/d93/Error_8hpp.html" target="_top" xlink:title=" ">
<polygon fill="white" stroke="black" points="787.5,-280.5 787.5,-299.5 880.5,-299.5 880.5,-280.5 787.5,-280.5"/>
<text text-anchor="middle" x="834" y="-287.5" font-family="Helvetica,sans-Serif" font-size="10.00">Helpers/Error.hpp</text>
</a>
</g>
</g>
<!-- Node7&#45;&gt;Node19 -->
<g id="edge22" class="edge"><title>Node7&#45;&gt;Node19</title>
<path fill="none" stroke="midnightblue" d="M859.334,-504.387C871.955,-496.72 888.497,-484.213 896,-468 899.733,-459.933 896.974,-456.835 896,-448 890.411,-397.304 893.362,-381.839 871,-336 865.811,-325.364 857.637,-315.051 850.29,-306.987"/>
<polygon fill="midnightblue" stroke="midnightblue" points="852.802,-304.549 843.36,-299.744 847.744,-309.389 852.802,-304.549"/>
</g>
<!-- Node7&#45;&gt;Node20 -->
<g id="edge24" class="edge"><title>Node7&#45;&gt;Node20</title>
<path fill="none" stroke="midnightblue" d="M813.807,-504.916C780.69,-495.745 726.445,-480.723 689.07,-470.373"/>
<polygon fill="midnightblue" stroke="midnightblue" points="689.578,-466.882 679.007,-467.587 687.71,-473.628 689.578,-466.882"/>
</g>
<!-- Node24 -->
<g id="node24" class="node"><title>Node24</title>
<g id="a_node24"><a xlink:href="../../d9/d46/Selectable_8hpp.html" target="_top" xlink:title=" ">
<polygon fill="white" stroke="black" points="762.5,-448.5 762.5,-467.5 887.5,-467.5 887.5,-448.5 762.5,-448.5"/>
<text text-anchor="middle" x="825" y="-455.5" font-family="Helvetica,sans-Serif" font-size="10.00">Selectors/Selectable.hpp</text>
</a>
</g>
</g>
<!-- Node7&#45;&gt;Node24 -->
<g id="edge31" class="edge"><title>Node7&#45;&gt;Node24</title>
<path fill="none" stroke="midnightblue" d="M840.028,-504.083C837.616,-496.849 834.136,-486.409 831.132,-477.397"/>
<polygon fill="midnightblue" stroke="midnightblue" points="834.4,-476.131 827.917,-467.751 827.759,-478.345 834.4,-476.131"/>
</g>
<!-- Node9 -->
<g id="node9" class="node"><title>Node9</title>
<g id="a_node9"><a xlink:href="../../d2/dd5/SettingsWrapper_8hpp.html" target="_top" xlink:title=" ">
<polygon fill="white" stroke="black" points="678.5,-168.5 678.5,-187.5 825.5,-187.5 825.5,-168.5 678.5,-168.5"/>
<text text-anchor="middle" x="752" y="-175.5" font-family="Helvetica,sans-Serif" font-size="10.00">Settings/SettingsWrapper.hpp</text>
</a>
</g>
</g>
<!-- Node8&#45;&gt;Node9 -->
<g id="edge8" class="edge"><title>Node8&#45;&gt;Node9</title>
<path fill="none" stroke="midnightblue" d="M746.834,-224.083C745.324,-216.927 744.894,-206.635 745.542,-197.691"/>
<polygon fill="midnightblue" stroke="midnightblue" points="749.015,-198.126 746.869,-187.751 742.077,-197.2 749.015,-198.126"/>
</g>
<!-- Node18 -->
<g id="node18" class="node"><title>Node18</title>
<g id="a_node18"><a xlink:href="../../dd/d80/PrintStream_8hpp.html" target="_top" xlink:title=" ">
<polygon fill="white" stroke="black" points="857.5,-168.5 857.5,-187.5 944.5,-187.5 944.5,-168.5 857.5,-168.5"/>
<text text-anchor="middle" x="901" y="-175.5" font-family="Helvetica,sans-Serif" font-size="10.00">PrintStream.hpp</text>
</a>
</g>
</g>
<!-- Node8&#45;&gt;Node18 -->
<g id="edge20" class="edge"><title>Node8&#45;&gt;Node18</title>
<path fill="none" stroke="midnightblue" d="M775.609,-224.444C800.458,-215.438 839.774,-201.189 867.754,-191.049"/>
<polygon fill="midnightblue" stroke="midnightblue" points="869.292,-194.214 877.501,-187.516 866.907,-187.633 869.292,-194.214"/>
</g>
<!-- Node9&#45;&gt;Node8 -->
<g id="edge19" class="edge"><title>Node9&#45;&gt;Node8</title>
<path fill="none" stroke="midnightblue" d="M757.131,-187.751C758.657,-194.858 759.104,-205.136 758.472,-214.101"/>
<polygon fill="midnightblue" stroke="midnightblue" points="754.993,-213.713 757.166,-224.083 761.934,-214.622 754.993,-213.713"/>
</g>
<!-- Node10 -->
<g id="node10" class="node"><title>Node10</title>
<g id="a_node10"><a xlink:href="../../dc/dc7/NamespaceSettings_8hpp.html" target="_top" xlink:title=" ">
<polygon fill="white" stroke="black" points="354,-0.5 354,-19.5 478,-19.5 478,-0.5 354,-0.5"/>
<text text-anchor="middle" x="416" y="-7.5" font-family="Helvetica,sans-Serif" font-size="10.00">NamespaceSettings.hpp</text>
</a>
</g>
</g>
<!-- Node9&#45;&gt;Node10 -->
<g id="edge9" class="edge"><title>Node9&#45;&gt;Node10</title>
<path fill="none" stroke="midnightblue" d="M753.193,-168.423C755.754,-146.184 759.17,-86.2938 727,-56 693.53,-24.4819 569.33,-14.9596 488.374,-12.132"/>
<polygon fill="midnightblue" stroke="midnightblue" points="488.342,-8.62919 478.234,-11.8047 488.116,-15.6256 488.342,-8.62919"/>
</g>
<!-- Node11 -->
<g id="node11" class="node"><title>Node11</title>
<g id="a_node11"><a xlink:href="../../db/d02/Settings_8hpp.html" target="_top" xlink:title="All user settings and debugging options can be changed here.">
<polygon fill="white" stroke="black" points="646.5,-112.5 646.5,-131.5 717.5,-131.5 717.5,-112.5 646.5,-112.5"/>
<text text-anchor="middle" x="682" y="-119.5" font-family="Helvetica,sans-Serif" font-size="10.00">Settings.hpp</text>
</a>
</g>
</g>
<!-- Node9&#45;&gt;Node11 -->
<g id="edge10" class="edge"><title>Node9&#45;&gt;Node11</title>
<path fill="none" stroke="midnightblue" d="M740.753,-168.324C730.203,-160.185 714.199,-147.839 701.558,-138.087"/>
<polygon fill="midnightblue" stroke="midnightblue" points="703.507,-135.171 693.451,-131.834 699.231,-140.713 703.507,-135.171"/>
</g>
<!-- Node17 -->
<g id="node17" class="node"><title>Node17</title>
<g id="a_node17"><a xlink:href="../../d9/d98/TeensyUSBTypes_8hpp.html" target="_top" xlink:title=" ">
<polygon fill="white" stroke="black" points="774,-112.5 774,-131.5 926,-131.5 926,-112.5 774,-112.5"/>
<text text-anchor="middle" x="850" y="-119.5" font-family="Helvetica,sans-Serif" font-size="10.00">Helpers/TeensyUSBTypes.hpp</text>
</a>
</g>
</g>
<!-- Node9&#45;&gt;Node17 -->
<g id="edge18" class="edge"><title>Node9&#45;&gt;Node17</title>
<path fill="none" stroke="midnightblue" d="M767.745,-168.324C783.319,-159.743 807.377,-146.486 825.459,-136.522"/>
<polygon fill="midnightblue" stroke="midnightblue" points="827.224,-139.546 834.294,-131.655 823.846,-133.415 827.224,-139.546"/>
</g>
<!-- Node11&#45;&gt;Node4 -->
<g id="edge17" class="edge"><title>Node11&#45;&gt;Node4</title>
<path fill="none" stroke="midnightblue" d="M646.191,-117.331C549.616,-107.435 284.68,-80.2879 189.566,-70.5418"/>
<polygon fill="midnightblue" stroke="midnightblue" points="189.908,-67.0586 179.603,-69.521 189.194,-74.0222 189.908,-67.0586"/>
</g>
<!-- Node12 -->
<g id="node12" class="node"><title>Node12</title>
<g id="a_node12"><a xlink:href="../../dc/d50/Frequency_8hpp.html" target="_top" xlink:title=" ">
<polygon fill="white" stroke="black" points="552,-56.5 552,-75.5 652,-75.5 652,-56.5 552,-56.5"/>
<text text-anchor="middle" x="602" y="-63.5" font-family="Helvetica,sans-Serif" font-size="10.00">Def/Frequency.hpp</text>
</a>
</g>
</g>
<!-- Node11&#45;&gt;Node12 -->
<g id="edge11" class="edge"><title>Node11&#45;&gt;Node12</title>
<path fill="none" stroke="midnightblue" d="M669.147,-112.324C656.784,-103.979 637.87,-91.2122 623.263,-81.3524"/>
<polygon fill="midnightblue" stroke="midnightblue" points="625.068,-78.3483 614.821,-75.6545 621.152,-84.1503 625.068,-78.3483"/>
</g>
<!-- Node13 -->
<g id="node13" class="node"><title>Node13</title>
<g id="a_node13"><a xlink:href="../../d7/d7c/ADCConfig_8hpp.html" target="_top" xlink:title="This file contains the platform&#45;specific ADC resolutions. By default, the library automatically selec...">
<polygon fill="white" stroke="black" points="789,-56.5 789,-75.5 911,-75.5 911,-56.5 789,-56.5"/>
<text text-anchor="middle" x="850" y="-63.5" font-family="Helvetica,sans-Serif" font-size="10.00">Helpers/ADCConfig.hpp</text>
</a>
</g>
</g>
<!-- Node11&#45;&gt;Node13 -->
<g id="edge13" class="edge"><title>Node11&#45;&gt;Node13</title>
<path fill="none" stroke="midnightblue" d="M708.62,-112.444C737.006,-103.32 782.137,-88.8133 813.753,-78.6509"/>
<polygon fill="midnightblue" stroke="midnightblue" points="815.055,-81.9087 823.504,-75.5164 812.913,-75.2445 815.055,-81.9087"/>
</g>
<!-- Node15 -->
<g id="node15" class="node"><title>Node15</title>
<g id="a_node15"><a xlink:title=" ">
<polygon fill="white" stroke="#bfbfbf" points="670,-56.5 670,-75.5 718,-75.5 718,-56.5 670,-56.5"/>
<text text-anchor="middle" x="694" y="-63.5" font-family="Helvetica,sans-Serif" font-size="10.00">limits.h</text>
</a>
</g>
</g>
<!-- Node11&#45;&gt;Node15 -->
<g id="edge15" class="edge"><title>Node11&#45;&gt;Node15</title>
<path fill="none" stroke="midnightblue" d="M683.982,-112.083C685.572,-104.927 687.859,-94.6353 689.846,-85.6911"/>
<polygon fill="midnightblue" stroke="midnightblue" points="693.303,-86.2722 692.055,-75.7511 686.469,-84.7537 693.303,-86.2722"/>
</g>
<!-- Node16 -->
<g id="node16" class="node"><title>Node16</title>
<g id="a_node16"><a xlink:title=" ">
<polygon fill="white" stroke="#bfbfbf" points="482,-56.5 482,-75.5 534,-75.5 534,-56.5 482,-56.5"/>
<text text-anchor="middle" x="508" y="-63.5" font-family="Helvetica,sans-Serif" font-size="10.00">stddef.h</text>
</a>
</g>
</g>
<!-- Node11&#45;&gt;Node16 -->
<g id="edge16" class="edge"><title>Node11&#45;&gt;Node16</title>
<path fill="none" stroke="midnightblue" d="M654.429,-112.444C624.468,-103.145 576.495,-88.2572 543.681,-78.0735"/>
<polygon fill="midnightblue" stroke="midnightblue" points="544.609,-74.6968 534.021,-75.0755 542.534,-81.3822 544.609,-74.6968"/>
</g>
<!-- Node12&#45;&gt;Node10 -->
<g id="edge12" class="edge"><title>Node12&#45;&gt;Node10</title>
<path fill="none" stroke="midnightblue" d="M572.528,-56.4435C540.829,-47.2406 490.268,-32.5617 455.225,-22.3879"/>
<polygon fill="midnightblue" stroke="midnightblue" points="455.914,-18.9434 445.334,-19.5164 453.962,-25.6658 455.914,-18.9434"/>
</g>
<!-- Node14 -->
<g id="node14" class="node"><title>Node14</title>
<g id="a_node14"><a xlink:title=" ">
<polygon fill="white" stroke="#bfbfbf" points="873,-0.5 873,-19.5 931,-19.5 931,-0.5 873,-0.5"/>
<text text-anchor="middle" x="902" y="-7.5" font-family="Helvetica,sans-Serif" font-size="10.00">Arduino.h</text>
</a>
</g>
</g>
<!-- Node13&#45;&gt;Node14 -->
<g id="edge14" class="edge"><title>Node13&#45;&gt;Node14</title>
<path fill="none" stroke="midnightblue" d="M858.587,-56.083C866.159,-48.2195 877.378,-36.5688 886.514,-27.0813"/>
<polygon fill="midnightblue" stroke="midnightblue" points="889.158,-29.3821 893.573,-19.7511 884.115,-24.5266 889.158,-29.3821"/>
</g>
<!-- Node18&#45;&gt;Node14 -->
<g id="edge21" class="edge"><title>Node18&#45;&gt;Node14</title>
<path fill="none" stroke="midnightblue" d="M910.288,-168.395C918.581,-160.025 930.144,-146.483 935,-132 947.229,-95.5293 926.865,-51.7727 913.068,-28.1535"/>
<polygon fill="midnightblue" stroke="midnightblue" points="916.046,-26.3137 907.842,-19.6094 910.074,-29.9664 916.046,-26.3137"/>
</g>
<!-- Node19&#45;&gt;Node8 -->
<g id="edge23" class="edge"><title>Node19&#45;&gt;Node8</title>
<path fill="none" stroke="midnightblue" d="M820.825,-280.324C808.153,-271.979 788.767,-259.212 773.794,-249.352"/>
<polygon fill="midnightblue" stroke="midnightblue" points="775.419,-246.231 765.142,-243.655 771.569,-252.078 775.419,-246.231"/>
</g>
<!-- Node20&#45;&gt;Node8 -->
<g id="edge25" class="edge"><title>Node20&#45;&gt;Node8</title>
<path fill="none" stroke="midnightblue" d="M652.077,-448.297C667.477,-415.425 722.303,-298.391 743.525,-253.09"/>
<polygon fill="midnightblue" stroke="midnightblue" points="746.765,-254.424 747.838,-243.884 740.426,-251.455 746.765,-254.424"/>
</g>
<!-- Node21 -->
<g id="node21" class="node"><title>Node21</title>
<g id="a_node21"><a xlink:title=" ">
<polygon fill="white" stroke="#bfbfbf" points="356,-392.5 356,-411.5 404,-411.5 404,-392.5 356,-392.5"/>
<text text-anchor="middle" x="380" y="-399.5" font-family="Helvetica,sans-Serif" font-size="10.00">stdlib.h</text>
</a>
</g>
</g>
<!-- Node20&#45;&gt;Node21 -->
<g id="edge26" class="edge"><title>Node20&#45;&gt;Node21</title>
<path fill="none" stroke="midnightblue" d="M601.634,-448.483C555.105,-439.806 481.432,-425.711 418,-412 416.733,-411.726 415.443,-411.443 414.14,-411.153"/>
<polygon fill="midnightblue" stroke="midnightblue" points="414.619,-407.672 404.09,-408.856 413.059,-414.496 414.619,-407.672"/>
</g>
<!-- Node20&#45;&gt;Node22 -->
<g id="edge27" class="edge"><title>Node20&#45;&gt;Node22</title>
<path fill="none" stroke="midnightblue" d="M589.692,-448.537C549.716,-441.573 495.985,-429.895 451,-412 428.23,-402.942 377.054,-368.541 356,-356 326.552,-338.46 292.711,-318.051 270.876,-304.85"/>
<polygon fill="midnightblue" stroke="midnightblue" points="272.668,-301.844 262.3,-299.663 269.045,-307.834 272.668,-301.844"/>
</g>
<!-- Node23 -->
<g id="node23" class="node"><title>Node23</title>
<g id="a_node23"><a xlink:title=" ">
<polygon fill="white" stroke="#bfbfbf" points="590.5,-392.5 590.5,-411.5 637.5,-411.5 637.5,-392.5 590.5,-392.5"/>
<text text-anchor="middle" x="614" y="-399.5" font-family="Helvetica,sans-Serif" font-size="10.00">iterator</text>
</a>
</g>
</g>
<!-- Node20&#45;&gt;Node23 -->
<g id="edge30" class="edge"><title>Node20&#45;&gt;Node23</title>
<path fill="none" stroke="midnightblue" d="M642.386,-448.083C637.633,-440.534 630.682,-429.495 624.848,-420.23"/>
<polygon fill="midnightblue" stroke="midnightblue" points="627.8,-418.349 619.51,-411.751 621.876,-422.078 627.8,-418.349"/>
</g>
<!-- Node22&#45;&gt;Node10 -->
<g id="edge29" class="edge"><title>Node22&#45;&gt;Node10</title>
<path fill="none" stroke="midnightblue" d="M242.438,-280.269C231.447,-262.15 208,-218.828 208,-179 208,-179 208,-179 208,-121 208,-57.8292 283.899,-30.8385 344,-19.3684"/>
<polygon fill="midnightblue" stroke="midnightblue" points="344.652,-22.8074 353.875,-17.5935 343.413,-15.9178 344.652,-22.8074"/>
</g>
<!-- Node22&#45;&gt;Node14 -->
<g id="edge28" class="edge"><title>Node22&#45;&gt;Node14</title>
<path fill="none" stroke="midnightblue" d="M252.7,-280.169C272.916,-243.301 356.743,-101.485 473,-56 543.594,-28.3804 770.824,-16.3024 862.803,-12.4578"/>
<polygon fill="midnightblue" stroke="midnightblue" points="862.969,-15.9541 872.818,-12.0496 862.684,-8.95987 862.969,-15.9541"/>
</g>
<!-- Node24&#45;&gt;Node4 -->
<g id="edge45" class="edge"><title>Node24&#45;&gt;Node4</title>
<path fill="none" stroke="midnightblue" d="M801.56,-448.438C767.378,-435.964 701.842,-412.091 646,-392 601.159,-375.867 587.046,-378.43 545,-356 387.583,-272.023 223.799,-129.286 171.843,-82.4145"/>
<polygon fill="midnightblue" stroke="midnightblue" points="173.984,-79.6312 164.226,-75.5044 169.281,-84.8157 173.984,-79.6312"/>
</g>
<!-- Node24&#45;&gt;Node19 -->
<g id="edge43" class="edge"><title>Node24&#45;&gt;Node19</title>
<path fill="none" stroke="midnightblue" d="M834.288,-448.395C842.581,-440.025 854.144,-426.483 859,-412 870.94,-376.391 854.853,-332.889 843.491,-308.949"/>
<polygon fill="midnightblue" stroke="midnightblue" points="846.467,-307.074 838.864,-299.695 840.206,-310.204 846.467,-307.074"/>
</g>
<!-- Node25 -->
<g id="node25" class="node"><title>Node25</title>
<g id="a_node25"><a xlink:href="../../d0/d4e/Def_8hpp.html" target="_top" xlink:title=" ">
<polygon fill="white" stroke="black" points="460,-392.5 460,-411.5 530,-411.5 530,-392.5 460,-392.5"/>
<text text-anchor="middle" x="495" y="-399.5" font-family="Helvetica,sans-Serif" font-size="10.00">Def/Def.hpp</text>
</a>
</g>
</g>
<!-- Node24&#45;&gt;Node25 -->
<g id="edge32" class="edge"><title>Node24&#45;&gt;Node25</title>
<path fill="none" stroke="midnightblue" d="M772.711,-448.444C708.629,-437.957 601.099,-420.362 540.357,-410.422"/>
<polygon fill="midnightblue" stroke="midnightblue" points="540.736,-406.938 530.302,-408.777 539.606,-413.846 540.736,-406.938"/>
</g>
<!-- Node28 -->
<g id="node28" class="node"><title>Node28</title>
<g id="a_node28"><a xlink:href="../../d7/dd7/Helpers_8hpp.html" target="_top" xlink:title=" ">
<polygon fill="white" stroke="black" points="744,-392.5 744,-411.5 850,-411.5 850,-392.5 744,-392.5"/>
<text text-anchor="middle" x="797" y="-399.5" font-family="Helvetica,sans-Serif" font-size="10.00">Helpers/Helpers.hpp</text>
</a>
</g>
</g>
<!-- Node24&#45;&gt;Node28 -->
<g id="edge44" class="edge"><title>Node24&#45;&gt;Node28</title>
<path fill="none" stroke="midnightblue" d="M820.376,-448.083C816.544,-440.691 810.976,-429.953 806.235,-420.811"/>
<polygon fill="midnightblue" stroke="midnightblue" points="809.248,-419.018 801.538,-411.751 803.034,-422.24 809.248,-419.018"/>
</g>
<!-- Node25&#45;&gt;Node4 -->
<g id="edge42" class="edge"><title>Node25&#45;&gt;Node4</title>
<path fill="none" stroke="midnightblue" d="M459.782,-397.035C373.772,-386.377 160,-353.592 160,-291 160,-291 160,-291 160,-177 160,-144.915 157.851,-107.62 156.371,-85.7371"/>
<polygon fill="midnightblue" stroke="midnightblue" points="159.847,-85.2813 155.654,-75.5518 152.865,-85.7729 159.847,-85.2813"/>
</g>
<!-- Node25&#45;&gt;Node10 -->
<g id="edge40" class="edge"><title>Node25&#45;&gt;Node10</title>
<path fill="none" stroke="midnightblue" d="M493.277,-392.492C483.401,-343.742 433.949,-99.6078 419.792,-29.7198"/>
<polygon fill="midnightblue" stroke="midnightblue" points="423.184,-28.8376 417.769,-19.7316 416.324,-30.2274 423.184,-28.8376"/>
</g>
<!-- Node25&#45;&gt;Node12 -->
<g id="edge36" class="edge"><title>Node25&#45;&gt;Node12</title>
<path fill="none" stroke="midnightblue" d="M493.629,-392.299C490.76,-372.138 485.241,-320.832 496,-280 516.491,-202.235 567.125,-119.555 590.2,-84.4156"/>
<polygon fill="midnightblue" stroke="midnightblue" points="593.302,-86.0724 595.93,-75.8087 587.475,-82.1933 593.302,-86.0724"/>
</g>
<!-- Node25&#45;&gt;Node16 -->
<g id="edge41" class="edge"><title>Node25&#45;&gt;Node16</title>
<path fill="none" stroke="midnightblue" d="M495.334,-392.408C497.044,-348.475 504.825,-148.572 507.266,-85.8701"/>
<polygon fill="midnightblue" stroke="midnightblue" points="510.776,-85.6636 507.668,-75.5351 503.781,-85.3913 510.776,-85.6636"/>
</g>
<!-- Node26 -->
<g id="node26" class="node"><title>Node26</title>
<g id="a_node26"><a xlink:href="../../d7/d42/Channel_8hpp.html" target="_top" xlink:title=" ">
<polygon fill="white" stroke="black" points="274.5,-112.5 274.5,-131.5 345.5,-131.5 345.5,-112.5 274.5,-112.5"/>
<text text-anchor="middle" x="310" y="-119.5" font-family="Helvetica,sans-Serif" font-size="10.00">Channel.hpp</text>
</a>
</g>
</g>
<!-- Node25&#45;&gt;Node26 -->
<g id="edge33" class="edge"><title>Node25&#45;&gt;Node26</title>
<path fill="none" stroke="midnightblue" d="M461.446,-392.496C440.717,-385.698 414.934,-374.222 398,-356 338.824,-292.323 318.321,-184.968 312.244,-141.804"/>
<polygon fill="midnightblue" stroke="midnightblue" points="315.71,-141.31 310.944,-131.848 308.769,-142.217 315.71,-141.31"/>
</g>
<!-- Node27 -->
<g id="node27" class="node"><title>Node27</title>
<g id="a_node27"><a xlink:href="../../de/d76/Array_8hpp.html" target="_top" xlink:title=" ">
<polygon fill="white" stroke="black" points="554.5,-336.5 554.5,-355.5 649.5,-355.5 649.5,-336.5 554.5,-336.5"/>
<text text-anchor="middle" x="602" y="-343.5" font-family="Helvetica,sans-Serif" font-size="10.00">Helpers/Array.hpp</text>
</a>
</g>
</g>
<!-- Node25&#45;&gt;Node27 -->
<g id="edge37" class="edge"><title>Node25&#45;&gt;Node27</title>
<path fill="none" stroke="midnightblue" d="M512.191,-392.324C529.351,-383.664 555.946,-370.242 575.747,-360.249"/>
<polygon fill="midnightblue" stroke="midnightblue" points="577.501,-363.285 584.851,-355.655 574.347,-357.035 577.501,-363.285"/>
</g>
<!-- Node26&#45;&gt;Node4 -->
<g id="edge34" class="edge"><title>Node26&#45;&gt;Node4</title>
<path fill="none" stroke="midnightblue" d="M285.44,-112.444C259.477,-103.399 218.332,-89.064 189.203,-78.9158"/>
<polygon fill="midnightblue" stroke="midnightblue" points="190.04,-75.5013 179.445,-75.5164 187.737,-82.1116 190.04,-75.5013"/>
</g>
<!-- Node26&#45;&gt;Node10 -->
<g id="edge35" class="edge"><title>Node26&#45;&gt;Node10</title>
<path fill="none" stroke="midnightblue" d="M318.318,-112.368C336.043,-93.9744 377.771,-50.6712 400.532,-27.0519"/>
<polygon fill="midnightblue" stroke="midnightblue" points="403.302,-29.2209 407.721,-19.5914 398.262,-24.3636 403.302,-29.2209"/>
</g>
<!-- Node27&#45;&gt;Node16 -->
<g id="edge39" class="edge"><title>Node27&#45;&gt;Node16</title>
<path fill="none" stroke="midnightblue" d="M602.141,-336.319C602.298,-304.299 599.588,-190.61 556,-112 549.488,-100.256 538.834,-89.808 529.216,-81.9427"/>
<polygon fill="midnightblue" stroke="midnightblue" points="531.216,-79.0651 521.16,-75.7279 526.94,-84.6074 531.216,-79.0651"/>
</g>
<!-- Node27&#45;&gt;Node19 -->
<g id="edge38" class="edge"><title>Node27&#45;&gt;Node19</title>
<path fill="none" stroke="midnightblue" d="M638.761,-336.444C679.063,-327.063 743.809,-311.993 787.585,-301.804"/>
<polygon fill="midnightblue" stroke="midnightblue" points="788.465,-305.192 797.411,-299.516 786.878,-298.375 788.465,-305.192"/>
</g>
<!-- Node29&#45;&gt;Node25 -->
<g id="edge48" class="edge"><title>Node29&#45;&gt;Node25</title>
<path fill="none" stroke="midnightblue" d="M491.661,-448.083C492.185,-441.006 492.936,-430.861 493.594,-421.986"/>
<polygon fill="midnightblue" stroke="midnightblue" points="497.103,-421.982 494.352,-411.751 490.123,-421.465 497.103,-421.982"/>
</g>
<!-- Node30&#45;&gt;Node25 -->
<g id="edge50" class="edge"><title>Node30&#45;&gt;Node25</title>
<path fill="none" stroke="midnightblue" d="M420.865,-504.306C422.523,-491.138 427.111,-465.79 439,-448 447.257,-435.645 459.959,-425.042 471.179,-417.238"/>
<polygon fill="midnightblue" stroke="midnightblue" points="473.318,-420.02 479.747,-411.598 469.47,-414.173 473.318,-420.02"/>
</g>
<!-- Node31&#45;&gt;Node14 -->
<g id="edge57" class="edge"><title>Node31&#45;&gt;Node14</title>
<path fill="none" stroke="midnightblue" d="M878.514,-560.45C929.454,-545.114 992,-514.902 992,-459 992,-459 992,-459 992,-121 992,-78.6577 951.561,-43.6551 924.896,-25.1778"/>
<polygon fill="midnightblue" stroke="midnightblue" points="926.723,-22.1893 916.46,-19.5584 922.842,-28.0152 926.723,-22.1893"/>
</g>
<!-- Node32 -->
<g id="node32" class="node"><title>Node32</title>
<g id="a_node32"><a xlink:href="../../d4/d57/ExtendedIOElement_8hpp.html" target="_top" xlink:title=" ">
<polygon fill="white" stroke="black" points="672.5,-504.5 672.5,-523.5 795.5,-523.5 795.5,-504.5 672.5,-504.5"/>
<text text-anchor="middle" x="734" y="-511.5" font-family="Helvetica,sans-Serif" font-size="10.00">ExtendedIOElement.hpp</text>
</a>
</g>
</g>
<!-- Node31&#45;&gt;Node32 -->
<g id="edge54" class="edge"><title>Node31&#45;&gt;Node32</title>
<path fill="none" stroke="midnightblue" d="M795.041,-560.399C782.577,-551.129 766.303,-539.025 753.693,-529.647"/>
<polygon fill="midnightblue" stroke="midnightblue" points="755.753,-526.817 745.641,-523.658 751.576,-532.434 755.753,-526.817"/>
</g>
<!-- Node32&#45;&gt;Node20 -->
<g id="edge56" class="edge"><title>Node32&#45;&gt;Node20</title>
<path fill="none" stroke="midnightblue" d="M720.183,-504.324C706.767,-495.9 686.176,-482.971 670.414,-473.074"/>
<polygon fill="midnightblue" stroke="midnightblue" points="672.113,-470.008 661.783,-467.655 668.391,-475.936 672.113,-470.008"/>
</g>
<!-- Node32&#45;&gt;Node25 -->
<g id="edge55" class="edge"><title>Node32&#45;&gt;Node25</title>
<path fill="none" stroke="midnightblue" d="M734.124,-504.4C733.828,-490.413 731.088,-462.811 715,-448 702.223,-436.237 600.643,-419.047 540.075,-409.684"/>
<polygon fill="midnightblue" stroke="midnightblue" points="540.415,-406.196 530,-408.141 539.355,-413.115 540.415,-406.196"/>
</g>
<!-- Node33&#45;&gt;Node20 -->
<g id="edge69" class="edge"><title>Node33&#45;&gt;Node20</title>
<path fill="none" stroke="midnightblue" d="M465.208,-627.483C501.409,-594.116 592.516,-510.141 630.719,-474.928"/>
<polygon fill="midnightblue" stroke="midnightblue" points="633.451,-477.17 638.432,-467.819 628.707,-472.023 633.451,-477.17"/>
</g>
<!-- Node34 -->
<g id="node34" class="node"><title>Node34</title>
<g id="a_node34"><a xlink:href="../../dc/d90/MIDIInputElement_8hpp.html" target="_top" xlink:title=" ">
<polygon fill="white" stroke="black" points="362.5,-566 362.5,-585 477.5,-585 477.5,-566 362.5,-566"/>
<text text-anchor="middle" x="420" y="-573" font-family="Helvetica,sans-Serif" font-size="10.00">MIDIInputElement.hpp</text>
</a>
</g>
</g>
<!-- Node33&#45;&gt;Node34 -->
<g id="edge60" class="edge"><title>Node33&#45;&gt;Node34</title>
<path fill="none" stroke="midnightblue" d="M443.49,-627.396C439.044,-617.763 433.114,-604.914 428.325,-594.537"/>
<polygon fill="midnightblue" stroke="midnightblue" points="431.381,-592.807 424.013,-585.195 425.026,-595.741 431.381,-592.807"/>
</g>
<!-- Node34&#45;&gt;Node30 -->
<g id="edge68" class="edge"><title>Node34&#45;&gt;Node30</title>
<path fill="none" stroke="midnightblue" d="M420,-565.975C420,-557.58 420,-544.481 420,-533.663"/>
<polygon fill="midnightblue" stroke="midnightblue" points="423.5,-533.509 420,-523.509 416.5,-533.509 423.5,-533.509"/>
</g>
<!-- Node35 -->
<g id="node35" class="node"><title>Node35</title>
<g id="a_node35"><a xlink:href="../../db/df6/ChannelMessageMatcher_8hpp.html" target="_top" xlink:title=" ">
<polygon fill="white" stroke="black" points="174,-504.5 174,-523.5 320,-523.5 320,-504.5 174,-504.5"/>
<text text-anchor="middle" x="247" y="-511.5" font-family="Helvetica,sans-Serif" font-size="10.00">ChannelMessageMatcher.hpp</text>
</a>
</g>
</g>
<!-- Node34&#45;&gt;Node35 -->
<g id="edge61" class="edge"><title>Node34&#45;&gt;Node35</title>
<path fill="none" stroke="midnightblue" d="M395.213,-565.975C365.409,-555.725 315.209,-538.459 281.598,-526.899"/>
<polygon fill="midnightblue" stroke="midnightblue" points="282.335,-523.452 271.741,-523.509 280.059,-530.071 282.335,-523.452"/>
</g>
<!-- Node36 -->
<g id="node36" class="node"><title>Node36</title>
<g id="a_node36"><a xlink:href="../../d7/d2d/MIDI__Parser_8hpp.html" target="_top" xlink:title=" ">
<polygon fill="white" stroke="black" points="222.5,-448.5 222.5,-467.5 377.5,-467.5 377.5,-448.5 222.5,-448.5"/>
<text text-anchor="middle" x="300" y="-455.5" font-family="Helvetica,sans-Serif" font-size="10.00">MIDI_Parsers/MIDI_Parser.hpp</text>
</a>
</g>
</g>
<!-- Node35&#45;&gt;Node36 -->
<g id="edge62" class="edge"><title>Node35&#45;&gt;Node36</title>
<path fill="none" stroke="midnightblue" d="M255.752,-504.083C263.47,-496.22 274.905,-484.569 284.217,-475.081"/>
<polygon fill="midnightblue" stroke="midnightblue" points="286.904,-477.34 291.411,-467.751 281.908,-472.436 286.904,-477.34"/>
</g>
<!-- Node36&#45;&gt;Node4 -->
<g id="edge64" class="edge"><title>Node36&#45;&gt;Node4</title>
<path fill="none" stroke="midnightblue" d="M250.89,-448.467C198.203,-436.163 122,-407.849 122,-347 122,-347 122,-347 122,-177 122,-143.245 136.432,-106.028 146.208,-84.6908"/>
<polygon fill="midnightblue" stroke="midnightblue" points="149.409,-86.1095 150.549,-75.5762 143.089,-83.0993 149.409,-86.1095"/>
</g>
<!-- Node36&#45;&gt;Node9 -->
<g id="edge67" class="edge"><title>Node36&#45;&gt;Node9</title>
<path fill="none" stroke="midnightblue" d="M304.469,-448.451C311.831,-435.023 327.643,-408.789 347,-392 465.651,-289.092 642.583,-218.096 717.015,-191.097"/>
<polygon fill="midnightblue" stroke="midnightblue" points="718.59,-194.251 726.821,-187.581 716.227,-187.662 718.59,-194.251"/>
</g>
<!-- Node36&#45;&gt;Node16 -->
<g id="edge63" class="edge"><title>Node36&#45;&gt;Node16</title>
<path fill="none" stroke="midnightblue" d="M302.851,-448.421C307.136,-435.826 315.73,-411.69 325,-392 382.284,-270.322 467.07,-132.163 497.029,-84.3529"/>
<polygon fill="midnightblue" stroke="midnightblue" points="500.052,-86.1212 502.414,-75.793 494.127,-82.394 500.052,-86.1212"/>
</g>
<!-- Node36&#45;&gt;Node21 -->
<g id="edge65" class="edge"><title>Node36&#45;&gt;Node21</title>
<path fill="none" stroke="midnightblue" d="M312.853,-448.324C325.216,-439.979 344.13,-427.212 358.737,-417.352"/>
<polygon fill="midnightblue" stroke="midnightblue" points="360.848,-420.15 367.179,-411.655 356.932,-414.348 360.848,-420.15"/>
</g>
<!-- Node36&#45;&gt;Node25 -->
<g id="edge66" class="edge"><title>Node36&#45;&gt;Node25</title>
<path fill="none" stroke="midnightblue" d="M330.898,-448.444C364.274,-439.201 417.594,-424.436 454.349,-414.257"/>
<polygon fill="midnightblue" stroke="midnightblue" points="455.543,-417.558 464.246,-411.516 453.675,-410.812 455.543,-417.558"/>
</g>
<!-- Node38&#45;&gt;Node9 -->
<g id="edge72" class="edge"><title>Node38&#45;&gt;Node9</title>
<path fill="none" stroke="midnightblue" d="M868.133,-224.444C845.221,-215.478 809.025,-201.314 783.134,-191.183"/>
<polygon fill="midnightblue" stroke="midnightblue" points="784.352,-187.901 773.764,-187.516 781.801,-194.42 784.352,-187.901"/>
</g>
</g>
</svg>
