<?xml version="1.0" encoding="UTF-8" standalone="no"?>
<!DOCTYPE svg PUBLIC "-//W3C//DTD SVG 1.1//EN"
 "http://www.w3.org/Graphics/SVG/1.1/DTD/svg11.dtd">
<!-- Generated by graphviz version 2.38.0 (20140413.2041)
 -->
<!-- Title: MIDIOutputElementPotentiometer Pages: 1 -->
<svg width="491pt" height="567pt"
 viewBox="0.00 0.00 490.50 567.00" xmlns="http://www.w3.org/2000/svg" xmlns:xlink="http://www.w3.org/1999/xlink">
<g id="graph0" class="graph" transform="scale(1 1) rotate(0) translate(4 563)">
<title>MIDIOutputElementPotentiometer</title>
<polygon fill="white" stroke="none" points="-4,4 -4,-563 486.5,-563 486.5,4 -4,4"/>
<!-- Node3 -->
<g id="node1" class="node"><title>Node3</title>
<g id="a_node1"><a xlink:title=" ">
<polygon fill="#bfbfbf" stroke="black" points="0,-116 0,-173 164,-173 164,-116 0,-116"/>
<text text-anchor="middle" x="82" y="-161" font-family="Helvetica,sans-Serif" font-size="10.00">MIDIOutputElementPotentiometer</text>
<polyline fill="none" stroke="black" points="0,-154 164,-154 "/>
<text text-anchor="middle" x="82" y="-142" font-family="Helvetica,sans-Serif" font-size="10.00"> </text>
<polyline fill="none" stroke="black" points="0,-135 164,-135 "/>
<text text-anchor="middle" x="82" y="-123" font-family="Helvetica,sans-Serif" font-size="10.00"> </text>
</a>
</g>
</g>
<!-- Node4 -->
<g id="node2" class="node"><title>Node4</title>
<g id="a_node2"><a xlink:href="../../d5/de0/classUpdatable.html" target="_top" xlink:title=" ">
<polygon fill="white" stroke="black" points="239,-347.5 239,-558.5 379,-558.5 379,-347.5 239,-347.5"/>
<text text-anchor="middle" x="309" y="-546.5" font-family="Helvetica,sans-Serif" font-size="10.00">Updatable&lt; Potentiometer &gt;</text>
<polyline fill="none" stroke="black" points="239,-539.5 379,-539.5 "/>
<text text-anchor="middle" x="309" y="-527.5" font-family="Helvetica,sans-Serif" font-size="10.00"> </text>
<polyline fill="none" stroke="black" points="239,-520.5 379,-520.5 "/>
<text text-anchor="start" x="247" y="-508.5" font-family="Helvetica,sans-Serif" font-size="10.00">+ Updatable()</text>
<text text-anchor="start" x="247" y="-497.5" font-family="Helvetica,sans-Serif" font-size="10.00">+ ~Updatable()</text>
<text text-anchor="start" x="247" y="-486.5" font-family="Helvetica,sans-Serif" font-size="10.00">+ update()</text>
<text text-anchor="start" x="247" y="-475.5" font-family="Helvetica,sans-Serif" font-size="10.00">+ begin()</text>
<text text-anchor="start" x="247" y="-464.5" font-family="Helvetica,sans-Serif" font-size="10.00">+ enable()</text>
<text text-anchor="start" x="247" y="-453.5" font-family="Helvetica,sans-Serif" font-size="10.00">+ disable()</text>
<text text-anchor="start" x="247" y="-442.5" font-family="Helvetica,sans-Serif" font-size="10.00">+ isEnabled()</text>
<text text-anchor="start" x="247" y="-431.5" font-family="Helvetica,sans-Serif" font-size="10.00">+ enable()</text>
<text text-anchor="start" x="247" y="-420.5" font-family="Helvetica,sans-Serif" font-size="10.00">+ enable()</text>
<text text-anchor="start" x="247" y="-409.5" font-family="Helvetica,sans-Serif" font-size="10.00">+ enable()</text>
<text text-anchor="start" x="247" y="-398.5" font-family="Helvetica,sans-Serif" font-size="10.00">+ disable()</text>
<text text-anchor="start" x="247" y="-387.5" font-family="Helvetica,sans-Serif" font-size="10.00">+ disable()</text>
<text text-anchor="start" x="247" y="-376.5" font-family="Helvetica,sans-Serif" font-size="10.00">+ disable()</text>
<text text-anchor="start" x="247" y="-365.5" font-family="Helvetica,sans-Serif" font-size="10.00">+ beginAll()</text>
<text text-anchor="start" x="247" y="-354.5" font-family="Helvetica,sans-Serif" font-size="10.00">+ updateAll()</text>
</a>
</g>
</g>
<!-- Node4&#45;&gt;Node3 -->
<g id="edge1" class="edge"><title>Node4&#45;&gt;Node3</title>
<path fill="none" stroke="midnightblue" d="M232.289,-364.317C212.343,-340.387 191.325,-314.121 173,-289 144.661,-250.153 115.518,-202.599 98.0831,-173.174"/>
<polygon fill="none" stroke="midnightblue" points="229.618,-366.579 238.722,-371.999 234.985,-362.085 229.618,-366.579"/>
</g>
<!-- Node5 -->
<g id="node3" class="node"><title>Node5</title>
<g id="a_node3"><a xlink:href="../../d4/d23/classDoublyLinkable.html" target="_top" xlink:title=" ">
<polygon fill="white" stroke="black" points="182.5,-110.5 182.5,-178.5 319.5,-178.5 319.5,-110.5 182.5,-110.5"/>
<text text-anchor="start" x="190.5" y="-166.5" font-family="Helvetica,sans-Serif" font-size="10.00">DoublyLinkable&lt; Updatable</text>
<text text-anchor="middle" x="251" y="-155.5" font-family="Helvetica,sans-Serif" font-size="10.00">&lt; Potentiometer &gt; &gt;</text>
<polyline fill="none" stroke="black" points="182.5,-148.5 319.5,-148.5 "/>
<text text-anchor="middle" x="251" y="-136.5" font-family="Helvetica,sans-Serif" font-size="10.00"> </text>
<polyline fill="none" stroke="black" points="182.5,-129.5 319.5,-129.5 "/>
<text text-anchor="start" x="190.5" y="-117.5" font-family="Helvetica,sans-Serif" font-size="10.00"># ~DoublyLinkable()</text>
</a>
</g>
</g>
<!-- Node4&#45;&gt;Node5 -->
<g id="edge3" class="edge"><title>Node4&#45;&gt;Node5</title>
<path fill="none" stroke="#404040" d="M253.184,-347.16C251.17,-341.111 249.414,-335.034 248,-329 237.19,-282.874 239.95,-228.425 244.163,-190.882"/>
<polygon fill="none" stroke="#404040" points="244.179,-190.747 240.934,-184.308 245.629,-178.835 248.875,-185.275 244.179,-190.747"/>
<text text-anchor="middle" x="269.5" y="-321" font-family="Helvetica,sans-Serif" font-size="10.00"> #next</text>
<text text-anchor="middle" x="269.5" y="-310" font-family="Helvetica,sans-Serif" font-size="10.00">#previous</text>
</g>
<!-- Node6 -->
<g id="node4" class="node"><title>Node6</title>
<g id="a_node4"><a xlink:href="../../dd/d16/classDoublyLinkedList.html" target="_top" xlink:title=" ">
<polygon fill="white" stroke="black" points="337.5,-0.5 337.5,-288.5 482.5,-288.5 482.5,-0.5 337.5,-0.5"/>
<text text-anchor="start" x="345.5" y="-276.5" font-family="Helvetica,sans-Serif" font-size="10.00">DoublyLinkedList&lt; Updatable</text>
<text text-anchor="middle" x="410" y="-265.5" font-family="Helvetica,sans-Serif" font-size="10.00">&lt; Potentiometer &gt; &gt;</text>
<polyline fill="none" stroke="black" points="337.5,-258.5 482.5,-258.5 "/>
<text text-anchor="middle" x="410" y="-246.5" font-family="Helvetica,sans-Serif" font-size="10.00"> </text>
<polyline fill="none" stroke="black" points="337.5,-239.5 482.5,-239.5 "/>
<text text-anchor="start" x="345.5" y="-227.5" font-family="Helvetica,sans-Serif" font-size="10.00">+ DoublyLinkedList()</text>
<text text-anchor="start" x="345.5" y="-216.5" font-family="Helvetica,sans-Serif" font-size="10.00">+ append()</text>
<text text-anchor="start" x="345.5" y="-205.5" font-family="Helvetica,sans-Serif" font-size="10.00">+ append()</text>
<text text-anchor="start" x="345.5" y="-194.5" font-family="Helvetica,sans-Serif" font-size="10.00">+ insertBefore()</text>
<text text-anchor="start" x="345.5" y="-183.5" font-family="Helvetica,sans-Serif" font-size="10.00">+ insertBefore()</text>
<text text-anchor="start" x="345.5" y="-172.5" font-family="Helvetica,sans-Serif" font-size="10.00">+ insertSorted()</text>
<text text-anchor="start" x="345.5" y="-161.5" font-family="Helvetica,sans-Serif" font-size="10.00">+ insertSorted()</text>
<text text-anchor="start" x="345.5" y="-150.5" font-family="Helvetica,sans-Serif" font-size="10.00">+ remove()</text>
<text text-anchor="start" x="345.5" y="-139.5" font-family="Helvetica,sans-Serif" font-size="10.00">+ remove()</text>
<text text-anchor="start" x="345.5" y="-128.5" font-family="Helvetica,sans-Serif" font-size="10.00">+ moveDown()</text>
<text text-anchor="start" x="345.5" y="-117.5" font-family="Helvetica,sans-Serif" font-size="10.00">+ couldContain()</text>
<text text-anchor="start" x="345.5" y="-106.5" font-family="Helvetica,sans-Serif" font-size="10.00">+ begin()</text>
<text text-anchor="start" x="345.5" y="-95.5" font-family="Helvetica,sans-Serif" font-size="10.00">+ begin()</text>
<text text-anchor="start" x="345.5" y="-84.5" font-family="Helvetica,sans-Serif" font-size="10.00">+ end()</text>
<text text-anchor="start" x="345.5" y="-73.5" font-family="Helvetica,sans-Serif" font-size="10.00">+ end()</text>
<text text-anchor="start" x="345.5" y="-62.5" font-family="Helvetica,sans-Serif" font-size="10.00">+ rbegin()</text>
<text text-anchor="start" x="345.5" y="-51.5" font-family="Helvetica,sans-Serif" font-size="10.00">+ rbegin()</text>
<text text-anchor="start" x="345.5" y="-40.5" font-family="Helvetica,sans-Serif" font-size="10.00">+ rend()</text>
<text text-anchor="start" x="345.5" y="-29.5" font-family="Helvetica,sans-Serif" font-size="10.00">+ rend()</text>
<text text-anchor="start" x="345.5" y="-18.5" font-family="Helvetica,sans-Serif" font-size="10.00">+ getFirst()</text>
<text text-anchor="start" x="345.5" y="-7.5" font-family="Helvetica,sans-Serif" font-size="10.00">+ getLast()</text>
</a>
</g>
</g>
<!-- Node4&#45;&gt;Node6 -->
<g id="edge5" class="edge"><title>Node4&#45;&gt;Node6</title>
<path fill="none" stroke="#404040" d="M335.723,-347.464C339.626,-333.788 343.764,-320.014 348,-307 348.732,-304.751 349.478,-302.488 350.235,-300.213"/>
<polygon fill="none" stroke="#404040" points="350.266,-300.122 348.403,-293.155 354.118,-288.757 355.98,-295.723 350.266,-300.122"/>
<text text-anchor="middle" x="359" y="-321" font-family="Helvetica,sans-Serif" font-size="10.00"> &#45;last</text>
<text text-anchor="middle" x="359" y="-310" font-family="Helvetica,sans-Serif" font-size="10.00">&#45;first</text>
</g>
<!-- Node5&#45;&gt;Node4 -->
<g id="edge2" class="edge"><title>Node5&#45;&gt;Node4</title>
<path fill="none" stroke="midnightblue" d="M264.736,-188.101C274.629,-220.402 287.505,-266.07 295,-307 297.369,-319.936 299.353,-333.599 301.011,-347.161"/>
<polygon fill="none" stroke="midnightblue" points="268.073,-187.043 261.771,-178.525 261.386,-189.113 268.073,-187.043"/>
</g>
<!-- Node6&#45;&gt;Node4 -->
<g id="edge4" class="edge"><title>Node6&#45;&gt;Node4</title>
<path fill="none" stroke="#404040" d="M386.12,-288.854C382.57,-302.569 378.546,-316.145 374,-329 373.2,-331.263 372.364,-333.535 371.496,-335.813"/>
<polygon fill="none" stroke="#404040" points="371.383,-336.095 372.858,-343.153 366.909,-347.23 365.434,-340.171 371.383,-336.095"/>
<text text-anchor="middle" x="408" y="-315.5" font-family="Helvetica,sans-Serif" font-size="10.00"> &#45;updatables</text>
</g>
</g>
</svg>
