<?xml version="1.0" encoding="UTF-8" standalone="no"?>
<!DOCTYPE svg PUBLIC "-//W3C//DTD SVG 1.1//EN"
 "http://www.w3.org/Graphics/SVG/1.1/DTD/svg11.dtd">
<!-- Generated by graphviz version 2.38.0 (20140413.2041)
 -->
<!-- Title: MIDIFilteredAnalog.cpp Pages: 1 -->
<svg width="1174pt" height="733pt"
 viewBox="0.00 0.00 1173.64 733.00" xmlns="http://www.w3.org/2000/svg" xmlns:xlink="http://www.w3.org/1999/xlink">
<g id="graph0" class="graph" transform="scale(1 1) rotate(0) translate(4 729)">
<title>MIDIFilteredAnalog.cpp</title>
<polygon fill="white" stroke="none" points="-4,4 -4,-729 1169.64,-729 1169.64,4 -4,4"/>
<!-- Node0 -->
<g id="node1" class="node"><title>Node0</title>
<g id="a_node1"><a xlink:title=" ">
<polygon fill="#bfbfbf" stroke="black" points="102.64,-705.5 102.64,-724.5 221.64,-724.5 221.64,-705.5 102.64,-705.5"/>
<text text-anchor="middle" x="162.14" y="-712.5" font-family="Helvetica,sans-Serif" font-size="10.00">MIDIFilteredAnalog.cpp</text>
</a>
</g>
</g>
<!-- Node1 -->
<g id="node2" class="node"><title>Node1</title>
<g id="a_node2"><a xlink:href="../../d3/de4/Abstract_2MIDIFilteredAnalog_8hpp.html" target="_top" xlink:title=" ">
<polygon fill="white" stroke="black" points="102.64,-649.5 102.64,-668.5 221.64,-668.5 221.64,-649.5 102.64,-649.5"/>
<text text-anchor="middle" x="162.14" y="-656.5" font-family="Helvetica,sans-Serif" font-size="10.00">MIDIFilteredAnalog.hpp</text>
</a>
</g>
</g>
<!-- Node0&#45;&gt;Node1 -->
<g id="edge1" class="edge"><title>Node0&#45;&gt;Node1</title>
<path fill="none" stroke="midnightblue" d="M162.14,-705.083C162.14,-698.006 162.14,-687.861 162.14,-678.986"/>
<polygon fill="midnightblue" stroke="midnightblue" points="165.64,-678.751 162.14,-668.751 158.64,-678.751 165.64,-678.751"/>
</g>
<!-- Node2 -->
<g id="node3" class="node"><title>Node2</title>
<g id="a_node3"><a xlink:href="../../d0/d4e/Def_8hpp.html" target="_top" xlink:title=" ">
<polygon fill="white" stroke="black" points="267.14,-112.5 267.14,-131.5 337.14,-131.5 337.14,-112.5 267.14,-112.5"/>
<text text-anchor="middle" x="302.14" y="-119.5" font-family="Helvetica,sans-Serif" font-size="10.00">Def/Def.hpp</text>
</a>
</g>
</g>
<!-- Node1&#45;&gt;Node2 -->
<g id="edge2" class="edge"><title>Node1&#45;&gt;Node2</title>
<path fill="none" stroke="midnightblue" d="M126.187,-649.49C78.4604,-635.806 0.139935,-603.984 0.139935,-542.5 0.139935,-542.5 0.139935,-542.5 0.139935,-412 0.139935,-296.718 -2.09902,-239.741 88.1399,-168 113.755,-147.635 201.913,-134.292 256.766,-127.748"/>
<polygon fill="midnightblue" stroke="midnightblue" points="257.402,-131.198 266.931,-126.568 256.594,-124.245 257.402,-131.198"/>
</g>
<!-- Node8 -->
<g id="node9" class="node"><title>Node8</title>
<g id="a_node9"><a xlink:href="../../d8/df3/FilteredAnalog_8hpp.html" target="_top" xlink:title=" ">
<polygon fill="white" stroke="black" points="870.64,-593.5 870.64,-612.5 1013.64,-612.5 1013.64,-593.5 870.64,-593.5"/>
<text text-anchor="middle" x="942.14" y="-600.5" font-family="Helvetica,sans-Serif" font-size="10.00">Hardware/FilteredAnalog.hpp</text>
</a>
</g>
</g>
<!-- Node1&#45;&gt;Node8 -->
<g id="edge10" class="edge"><title>Node1&#45;&gt;Node8</title>
<path fill="none" stroke="midnightblue" d="M221.728,-653.875C359.985,-644.303 702.775,-620.571 860.43,-609.657"/>
<polygon fill="midnightblue" stroke="midnightblue" points="860.809,-613.139 870.543,-608.957 860.325,-606.156 860.809,-613.139"/>
</g>
<!-- Node28 -->
<g id="node29" class="node"><title>Node28</title>
<g id="a_node29"><a xlink:href="../../d1/d41/MIDIOutputElement_8hpp.html" target="_top" xlink:title=" ">
<polygon fill="white" stroke="black" points="99.6399,-459.5 99.6399,-489.5 224.64,-489.5 224.64,-459.5 99.6399,-459.5"/>
<text text-anchor="start" x="107.64" y="-477.5" font-family="Helvetica,sans-Serif" font-size="10.00">MIDI_Outputs/Abstract</text>
<text text-anchor="middle" x="162.14" y="-466.5" font-family="Helvetica,sans-Serif" font-size="10.00">/MIDIOutputElement.hpp</text>
</a>
</g>
</g>
<!-- Node1&#45;&gt;Node28 -->
<g id="edge50" class="edge"><title>Node1&#45;&gt;Node28</title>
<path fill="none" stroke="midnightblue" d="M162.14,-649.198C162.14,-622.392 162.14,-541.091 162.14,-499.931"/>
<polygon fill="midnightblue" stroke="midnightblue" points="165.64,-499.695 162.14,-489.695 158.64,-499.695 165.64,-499.695"/>
</g>
<!-- Node3 -->
<g id="node4" class="node"><title>Node3</title>
<g id="a_node4"><a xlink:href="../../d7/d42/Channel_8hpp.html" target="_top" xlink:title=" ">
<polygon fill="white" stroke="black" points="400.64,-56.5 400.64,-75.5 471.64,-75.5 471.64,-56.5 400.64,-56.5"/>
<text text-anchor="middle" x="436.14" y="-63.5" font-family="Helvetica,sans-Serif" font-size="10.00">Channel.hpp</text>
</a>
</g>
</g>
<!-- Node2&#45;&gt;Node3 -->
<g id="edge3" class="edge"><title>Node2&#45;&gt;Node3</title>
<path fill="none" stroke="midnightblue" d="M323.373,-112.444C345.523,-103.517 380.459,-89.4387 405.576,-79.3168"/>
<polygon fill="midnightblue" stroke="midnightblue" points="407.04,-82.5006 415.007,-75.5164 404.423,-76.0079 407.04,-82.5006"/>
</g>
<!-- Node4 -->
<g id="node5" class="node"><title>Node4</title>
<g id="a_node5"><a xlink:title=" ">
<polygon fill="white" stroke="#bfbfbf" points="475.64,-0.5 475.64,-19.5 524.64,-19.5 524.64,-0.5 475.64,-0.5"/>
<text text-anchor="middle" x="500.14" y="-7.5" font-family="Helvetica,sans-Serif" font-size="10.00">stdint.h</text>
</a>
</g>
</g>
<!-- Node2&#45;&gt;Node4 -->
<g id="edge9" class="edge"><title>Node2&#45;&gt;Node4</title>
<path fill="none" stroke="midnightblue" d="M312.274,-112.337C328.244,-98.9838 360.601,-73.1287 391.14,-56 415.141,-42.5382 443.988,-30.8071 465.975,-22.7004"/>
<polygon fill="midnightblue" stroke="midnightblue" points="467.338,-25.9292 475.552,-19.2375 464.958,-19.3463 467.338,-25.9292"/>
</g>
<!-- Node5 -->
<g id="node6" class="node"><title>Node5</title>
<g id="a_node6"><a xlink:href="../../dc/d50/Frequency_8hpp.html" target="_top" xlink:title=" ">
<polygon fill="white" stroke="black" points="111.64,-56.5 111.64,-75.5 192.64,-75.5 192.64,-56.5 111.64,-56.5"/>
<text text-anchor="middle" x="152.14" y="-63.5" font-family="Helvetica,sans-Serif" font-size="10.00">Frequency.hpp</text>
</a>
</g>
</g>
<!-- Node2&#45;&gt;Node5 -->
<g id="edge5" class="edge"><title>Node2&#45;&gt;Node5</title>
<path fill="none" stroke="midnightblue" d="M278.372,-112.444C253.247,-103.399 213.429,-89.064 185.24,-78.9158"/>
<polygon fill="midnightblue" stroke="midnightblue" points="186.391,-75.6106 175.797,-75.5164 184.02,-82.1968 186.391,-75.6106"/>
</g>
<!-- Node6 -->
<g id="node7" class="node"><title>Node6</title>
<g id="a_node7"><a xlink:href="../../de/d76/Array_8hpp.html" target="_top" xlink:title=" ">
<polygon fill="white" stroke="black" points="210.64,-56.5 210.64,-75.5 305.64,-75.5 305.64,-56.5 210.64,-56.5"/>
<text text-anchor="middle" x="258.14" y="-63.5" font-family="Helvetica,sans-Serif" font-size="10.00">Helpers/Array.hpp</text>
</a>
</g>
</g>
<!-- Node2&#45;&gt;Node6 -->
<g id="edge6" class="edge"><title>Node2&#45;&gt;Node6</title>
<path fill="none" stroke="midnightblue" d="M294.874,-112.083C288.595,-104.377 279.352,-93.0333 271.709,-83.6531"/>
<polygon fill="midnightblue" stroke="midnightblue" points="274.301,-81.2926 265.27,-75.7511 268.874,-85.7143 274.301,-81.2926"/>
</g>
<!-- Node7 -->
<g id="node8" class="node"><title>Node7</title>
<g id="a_node8"><a xlink:title=" ">
<polygon fill="white" stroke="#bfbfbf" points="144.14,-0.5 144.14,-19.5 196.14,-19.5 196.14,-0.5 144.14,-0.5"/>
<text text-anchor="middle" x="170.14" y="-7.5" font-family="Helvetica,sans-Serif" font-size="10.00">stddef.h</text>
</a>
</g>
</g>
<!-- Node2&#45;&gt;Node7 -->
<g id="edge8" class="edge"><title>Node2&#45;&gt;Node7</title>
<path fill="none" stroke="midnightblue" d="M266.739,-118.233C214.923,-113.365 122.372,-101.29 102.14,-76 86.2182,-56.0978 114.98,-36.3048 139.863,-23.8842"/>
<polygon fill="midnightblue" stroke="midnightblue" points="141.572,-26.9473 149.108,-19.5001 138.573,-20.6224 141.572,-26.9473"/>
</g>
<!-- Node3&#45;&gt;Node4 -->
<g id="edge4" class="edge"><title>Node3&#45;&gt;Node4</title>
<path fill="none" stroke="midnightblue" d="M446.423,-56.324C455.976,-48.2631 470.42,-36.0765 481.924,-26.3695"/>
<polygon fill="midnightblue" stroke="midnightblue" points="484.284,-28.9577 489.67,-19.8339 479.77,-23.6076 484.284,-28.9577"/>
</g>
<!-- Node6&#45;&gt;Node7 -->
<g id="edge7" class="edge"><title>Node6&#45;&gt;Node7</title>
<path fill="none" stroke="midnightblue" d="M244.001,-56.324C230.274,-47.9002 209.204,-34.9709 193.076,-25.0741"/>
<polygon fill="midnightblue" stroke="midnightblue" points="194.597,-21.9016 184.244,-19.6545 190.936,-27.8678 194.597,-21.9016"/>
</g>
<!-- Node8&#45;&gt;Node2 -->
<g id="edge11" class="edge"><title>Node8&#45;&gt;Node2</title>
<path fill="none" stroke="midnightblue" d="M946.648,-593.375C956.714,-573.289 980.14,-521.592 980.14,-475.5 980.14,-475.5 980.14,-475.5 980.14,-233 980.14,-175.831 923.68,-185.139 869.14,-168 772.094,-137.503 463.997,-126.947 347.421,-123.988"/>
<polygon fill="midnightblue" stroke="midnightblue" points="347.483,-120.489 337.4,-123.741 347.31,-127.487 347.483,-120.489"/>
</g>
<!-- Node9 -->
<g id="node10" class="node"><title>Node9</title>
<g id="a_node10"><a xlink:href="../../dd/ddf/ExtendedInputOutput_8hpp.html" target="_top" xlink:title=" ">
<polygon fill="white" stroke="black" points="760.14,-459.5 760.14,-489.5 914.14,-489.5 914.14,-459.5 760.14,-459.5"/>
<text text-anchor="start" x="768.14" y="-477.5" font-family="Helvetica,sans-Serif" font-size="10.00">Hardware/ExtendedInputOutput</text>
<text text-anchor="middle" x="837.14" y="-466.5" font-family="Helvetica,sans-Serif" font-size="10.00">/ExtendedInputOutput.hpp</text>
</a>
</g>
</g>
<!-- Node8&#45;&gt;Node9 -->
<g id="edge12" class="edge"><title>Node8&#45;&gt;Node9</title>
<path fill="none" stroke="midnightblue" d="M934.923,-593.305C918.729,-573.796 879.08,-526.028 855.544,-497.672"/>
<polygon fill="midnightblue" stroke="midnightblue" points="858.163,-495.347 849.083,-489.888 852.776,-499.818 858.163,-495.347"/>
</g>
<!-- Node13 -->
<g id="node14" class="node"><title>Node13</title>
<g id="a_node14"><a xlink:href="../../d2/dd5/SettingsWrapper_8hpp.html" target="_top" xlink:title=" ">
<polygon fill="white" stroke="black" points="509.64,-224.5 509.64,-243.5 656.64,-243.5 656.64,-224.5 509.64,-224.5"/>
<text text-anchor="middle" x="583.14" y="-231.5" font-family="Helvetica,sans-Serif" font-size="10.00">Settings/SettingsWrapper.hpp</text>
</a>
</g>
</g>
<!-- Node8&#45;&gt;Node13 -->
<g id="edge30" class="edge"><title>Node8&#45;&gt;Node13</title>
<path fill="none" stroke="midnightblue" d="M942.385,-593.27C942.734,-570.383 941.806,-507.097 923.14,-459 912.166,-430.725 905.141,-424.882 884.14,-403 821.543,-337.777 802.274,-321.846 722.14,-280 693.204,-264.89 658.233,-253.599 630.607,-246.107"/>
<polygon fill="midnightblue" stroke="midnightblue" points="631.348,-242.683 620.786,-243.518 629.564,-249.451 631.348,-242.683"/>
</g>
<!-- Node18 -->
<g id="node19" class="node"><title>Node18</title>
<g id="a_node19"><a xlink:href="../../d3/df0/EMA_8hpp.html" target="_top" xlink:title=" ">
<polygon fill="white" stroke="black" points="739.14,-112.5 739.14,-131.5 833.14,-131.5 833.14,-112.5 739.14,-112.5"/>
<text text-anchor="middle" x="786.14" y="-119.5" font-family="Helvetica,sans-Serif" font-size="10.00">Helpers/EMA.hpp</text>
</a>
</g>
</g>
<!-- Node8&#45;&gt;Node18 -->
<g id="edge26" class="edge"><title>Node8&#45;&gt;Node18</title>
<path fill="none" stroke="midnightblue" d="M956.05,-593.309C967.828,-585.262 984.318,-572.259 994.14,-557 1014.58,-525.249 1018.14,-513.26 1018.14,-475.5 1018.14,-475.5 1018.14,-475.5 1018.14,-233 1018.14,-202.205 1017.39,-188.192 994.14,-168 971.929,-148.712 896.872,-136.008 843.306,-129.16"/>
<polygon fill="midnightblue" stroke="midnightblue" points="843.592,-125.669 833.236,-127.909 842.728,-132.616 843.592,-125.669"/>
</g>
<!-- Node19 -->
<g id="node20" class="node"><title>Node19</title>
<g id="a_node20"><a xlink:href="../../d3/d09/Hysteresis_8hpp.html" target="_top" xlink:title=" ">
<polygon fill="white" stroke="black" points="1046.64,-532 1046.64,-551 1165.64,-551 1165.64,-532 1046.64,-532"/>
<text text-anchor="middle" x="1106.14" y="-539" font-family="Helvetica,sans-Serif" font-size="10.00">Helpers/Hysteresis.hpp</text>
</a>
</g>
</g>
<!-- Node8&#45;&gt;Node19 -->
<g id="edge28" class="edge"><title>Node8&#45;&gt;Node19</title>
<path fill="none" stroke="midnightblue" d="M965.637,-593.475C993.769,-583.269 1041.07,-566.108 1072.93,-554.549"/>
<polygon fill="midnightblue" stroke="midnightblue" points="1074.48,-557.71 1082.69,-551.009 1072.09,-551.13 1074.48,-557.71"/>
</g>
<!-- Node20 -->
<g id="node21" class="node"><title>Node20</title>
<g id="a_node21"><a xlink:href="../../d3/d37/Control__Surface__Class_8hpp.html" target="_top" xlink:title=" ">
<polygon fill="white" stroke="black" points="520.14,-526.5 520.14,-556.5 642.14,-556.5 642.14,-526.5 520.14,-526.5"/>
<text text-anchor="start" x="528.14" y="-544.5" font-family="Helvetica,sans-Serif" font-size="10.00">Control_Surface/Control</text>
<text text-anchor="middle" x="581.14" y="-533.5" font-family="Helvetica,sans-Serif" font-size="10.00">_Surface_Class.hpp</text>
</a>
</g>
</g>
<!-- Node8&#45;&gt;Node20 -->
<g id="edge31" class="edge"><title>Node8&#45;&gt;Node20</title>
<path fill="none" stroke="midnightblue" d="M890.417,-593.475C827.981,-583.184 722.651,-565.824 652.513,-554.264"/>
<polygon fill="midnightblue" stroke="midnightblue" points="652.866,-550.775 642.43,-552.602 651.727,-557.682 652.866,-550.775"/>
</g>
<!-- Node10 -->
<g id="node11" class="node"><title>Node10</title>
<g id="a_node11"><a xlink:href="../../d4/d57/ExtendedIOElement_8hpp.html" target="_top" xlink:title=" ">
<polygon fill="white" stroke="black" points="752.64,-403.5 752.64,-422.5 875.64,-422.5 875.64,-403.5 752.64,-403.5"/>
<text text-anchor="middle" x="814.14" y="-410.5" font-family="Helvetica,sans-Serif" font-size="10.00">ExtendedIOElement.hpp</text>
</a>
</g>
</g>
<!-- Node9&#45;&gt;Node10 -->
<g id="edge13" class="edge"><title>Node9&#45;&gt;Node10</title>
<path fill="none" stroke="midnightblue" d="M831.689,-459.399C828.519,-451.199 824.492,-440.781 821.095,-431.994"/>
<polygon fill="midnightblue" stroke="midnightblue" points="824.357,-430.723 817.487,-422.658 817.828,-433.247 824.357,-430.723"/>
</g>
<!-- Node17 -->
<g id="node18" class="node"><title>Node17</title>
<g id="a_node18"><a xlink:title=" ">
<polygon fill="white" stroke="#bfbfbf" points="780.14,-168.5 780.14,-187.5 838.14,-187.5 838.14,-168.5 780.14,-168.5"/>
<text text-anchor="middle" x="809.14" y="-175.5" font-family="Helvetica,sans-Serif" font-size="10.00">Arduino.h</text>
</a>
</g>
</g>
<!-- Node9&#45;&gt;Node17 -->
<g id="edge25" class="edge"><title>Node9&#45;&gt;Node17</title>
<path fill="none" stroke="midnightblue" d="M854.078,-459.129C864.128,-449.771 876.381,-436.775 884.14,-423 900.124,-394.622 904.14,-385.07 904.14,-352.5 904.14,-352.5 904.14,-352.5 904.14,-289 904.14,-245.739 861.532,-211.086 833.385,-192.915"/>
<polygon fill="midnightblue" stroke="midnightblue" points="835.17,-189.903 824.827,-187.604 831.479,-195.851 835.17,-189.903"/>
</g>
<!-- Node10&#45;&gt;Node2 -->
<g id="edge14" class="edge"><title>Node10&#45;&gt;Node2</title>
<path fill="none" stroke="midnightblue" d="M820.726,-403.442C834.718,-384.378 866.14,-336.501 866.14,-291 866.14,-291 866.14,-291 866.14,-233 866.14,-202.902 870.46,-187.028 847.14,-168 808.811,-136.725 471.636,-126.547 347.639,-123.844"/>
<polygon fill="midnightblue" stroke="midnightblue" points="347.425,-120.339 337.353,-123.627 347.277,-127.338 347.425,-120.339"/>
</g>
<!-- Node11 -->
<g id="node12" class="node"><title>Node11</title>
<g id="a_node12"><a xlink:href="../../de/dd1/LinkedList_8hpp.html" target="_top" xlink:title=" ">
<polygon fill="white" stroke="black" points="593.14,-342 593.14,-361 709.14,-361 709.14,-342 593.14,-342"/>
<text text-anchor="middle" x="651.14" y="-349" font-family="Helvetica,sans-Serif" font-size="10.00">Helpers/LinkedList.hpp</text>
</a>
</g>
</g>
<!-- Node10&#45;&gt;Node11 -->
<g id="edge15" class="edge"><title>Node10&#45;&gt;Node11</title>
<path fill="none" stroke="midnightblue" d="M790.786,-403.475C762.826,-393.269 715.814,-376.108 684.149,-364.549"/>
<polygon fill="midnightblue" stroke="midnightblue" points="685.044,-361.15 674.451,-361.009 682.644,-367.726 685.044,-361.15"/>
</g>
<!-- Node12 -->
<g id="node13" class="node"><title>Node12</title>
<g id="a_node13"><a xlink:href="../../df/dee/Debug_8hpp.html" target="_top" xlink:title=" ">
<polygon fill="white" stroke="black" points="612.64,-280.5 612.64,-299.5 713.64,-299.5 713.64,-280.5 612.64,-280.5"/>
<text text-anchor="middle" x="663.14" y="-287.5" font-family="Helvetica,sans-Serif" font-size="10.00">Helpers/Debug.hpp</text>
</a>
</g>
</g>
<!-- Node11&#45;&gt;Node12 -->
<g id="edge16" class="edge"><title>Node11&#45;&gt;Node12</title>
<path fill="none" stroke="midnightblue" d="M652.859,-341.975C654.57,-333.492 657.25,-320.204 659.445,-309.322"/>
<polygon fill="midnightblue" stroke="midnightblue" points="662.878,-310.004 661.424,-299.509 656.016,-308.62 662.878,-310.004"/>
</g>
<!-- Node15 -->
<g id="node16" class="node"><title>Node15</title>
<g id="a_node16"><a xlink:title=" ">
<polygon fill="white" stroke="#bfbfbf" points="443.14,-224.5 443.14,-243.5 491.14,-243.5 491.14,-224.5 443.14,-224.5"/>
<text text-anchor="middle" x="467.14" y="-231.5" font-family="Helvetica,sans-Serif" font-size="10.00">stdlib.h</text>
</a>
</g>
</g>
<!-- Node11&#45;&gt;Node15 -->
<g id="edge24" class="edge"><title>Node11&#45;&gt;Node15</title>
<path fill="none" stroke="midnightblue" d="M637.31,-341.819C605.742,-322.003 528.136,-273.289 489.601,-249.099"/>
<polygon fill="midnightblue" stroke="midnightblue" points="491.461,-246.134 481.13,-243.782 487.739,-252.063 491.461,-246.134"/>
</g>
<!-- Node12&#45;&gt;Node13 -->
<g id="edge17" class="edge"><title>Node12&#45;&gt;Node13</title>
<path fill="none" stroke="midnightblue" d="M645.172,-280.324C631.352,-272.185 612.724,-259.839 599.363,-250.087"/>
<polygon fill="midnightblue" stroke="midnightblue" points="601.169,-247.065 591.078,-243.834 596.951,-252.652 601.169,-247.065"/>
</g>
<!-- Node12&#45;&gt;Node15 -->
<g id="edge21" class="edge"><title>Node12&#45;&gt;Node15</title>
<path fill="none" stroke="midnightblue" d="M632.083,-280.444C596.366,-270.603 537.924,-254.502 501.047,-244.342"/>
<polygon fill="midnightblue" stroke="midnightblue" points="501.825,-240.926 491.255,-241.644 499.966,-247.674 501.825,-240.926"/>
</g>
<!-- Node16 -->
<g id="node17" class="node"><title>Node16</title>
<g id="a_node17"><a xlink:href="../../dd/d80/PrintStream_8hpp.html" target="_top" xlink:title=" ">
<polygon fill="white" stroke="black" points="674.64,-224.5 674.64,-243.5 761.64,-243.5 761.64,-224.5 674.64,-224.5"/>
<text text-anchor="middle" x="718.14" y="-231.5" font-family="Helvetica,sans-Serif" font-size="10.00">PrintStream.hpp</text>
</a>
</g>
</g>
<!-- Node12&#45;&gt;Node16 -->
<g id="edge22" class="edge"><title>Node12&#45;&gt;Node16</title>
<path fill="none" stroke="midnightblue" d="M672.222,-280.083C680.311,-272.141 692.335,-260.335 702.05,-250.797"/>
<polygon fill="midnightblue" stroke="midnightblue" points="704.543,-253.254 709.227,-243.751 699.639,-248.26 704.543,-253.254"/>
</g>
<!-- Node13&#45;&gt;Node12 -->
<g id="edge20" class="edge"><title>Node13&#45;&gt;Node12</title>
<path fill="none" stroke="midnightblue" d="M601.072,-243.655C614.965,-251.835 633.733,-264.277 647.119,-274.061"/>
<polygon fill="midnightblue" stroke="midnightblue" points="645.314,-277.084 655.401,-280.324 649.537,-271.5 645.314,-277.084"/>
</g>
<!-- Node14 -->
<g id="node15" class="node"><title>Node14</title>
<g id="a_node15"><a xlink:href="../../db/d02/Settings_8hpp.html" target="_top" xlink:title="All user settings and debugging options can be changed here.">
<polygon fill="white" stroke="black" points="506.64,-168.5 506.64,-187.5 577.64,-187.5 577.64,-168.5 506.64,-168.5"/>
<text text-anchor="middle" x="542.14" y="-175.5" font-family="Helvetica,sans-Serif" font-size="10.00">Settings.hpp</text>
</a>
</g>
</g>
<!-- Node13&#45;&gt;Node14 -->
<g id="edge18" class="edge"><title>Node13&#45;&gt;Node14</title>
<path fill="none" stroke="midnightblue" d="M576.37,-224.083C570.578,-216.455 562.081,-205.264 555.002,-195.941"/>
<polygon fill="midnightblue" stroke="midnightblue" points="557.619,-193.599 548.784,-187.751 552.044,-197.832 557.619,-193.599"/>
</g>
<!-- Node14&#45;&gt;Node2 -->
<g id="edge19" class="edge"><title>Node14&#45;&gt;Node2</title>
<path fill="none" stroke="midnightblue" d="M506.469,-168.974C464.101,-159.441 393.374,-143.528 347.246,-133.149"/>
<polygon fill="midnightblue" stroke="midnightblue" points="347.75,-129.675 337.225,-130.894 346.213,-136.504 347.75,-129.675"/>
</g>
<!-- Node16&#45;&gt;Node17 -->
<g id="edge23" class="edge"><title>Node16&#45;&gt;Node17</title>
<path fill="none" stroke="midnightblue" d="M732.761,-224.324C747.089,-215.822 769.152,-202.729 785.889,-192.797"/>
<polygon fill="midnightblue" stroke="midnightblue" points="787.742,-195.768 794.555,-187.655 784.169,-189.748 787.742,-195.768"/>
</g>
<!-- Node18&#45;&gt;Node4 -->
<g id="edge27" class="edge"><title>Node18&#45;&gt;Node4</title>
<path fill="none" stroke="midnightblue" d="M763.698,-112.368C713.158,-92.9302 590.293,-45.6744 531.932,-23.2278"/>
<polygon fill="midnightblue" stroke="midnightblue" points="533.068,-19.9146 522.478,-19.5914 530.555,-26.448 533.068,-19.9146"/>
</g>
<!-- Node19&#45;&gt;Node4 -->
<g id="edge29" class="edge"><title>Node19&#45;&gt;Node4</title>
<path fill="none" stroke="midnightblue" d="M1103.17,-531.723C1096.55,-511.318 1081.14,-458.997 1081.14,-414 1081.14,-414 1081.14,-414 1081.14,-121 1081.14,-65.0762 660.212,-24.6599 534.918,-13.8682"/>
<polygon fill="midnightblue" stroke="midnightblue" points="534.995,-10.3622 524.734,-13.0005 534.4,-17.3369 534.995,-10.3622"/>
</g>
<!-- Node21 -->
<g id="node22" class="node"><title>Node21</title>
<g id="a_node22"><a xlink:href="../../d6/d04/MIDI__Interface_8hpp.html" target="_top" xlink:title=" ">
<polygon fill="white" stroke="black" points="194.14,-336.5 194.14,-366.5 306.14,-366.5 306.14,-336.5 194.14,-336.5"/>
<text text-anchor="start" x="202.14" y="-354.5" font-family="Helvetica,sans-Serif" font-size="10.00">MIDI_Interfaces/MIDI</text>
<text text-anchor="middle" x="250.14" y="-343.5" font-family="Helvetica,sans-Serif" font-size="10.00">_Interface.hpp</text>
</a>
</g>
</g>
<!-- Node20&#45;&gt;Node21 -->
<g id="edge32" class="edge"><title>Node20&#45;&gt;Node21</title>
<path fill="none" stroke="midnightblue" d="M520.127,-533.286C450.64,-521.882 338.213,-493.224 272.14,-423 260.404,-410.526 254.925,-391.875 252.37,-376.89"/>
<polygon fill="midnightblue" stroke="midnightblue" points="255.807,-376.196 250.977,-366.766 248.872,-377.15 255.807,-376.196"/>
</g>
<!-- Node24 -->
<g id="node25" class="node"><title>Node24</title>
<g id="a_node25"><a xlink:href="../../d6/dd2/DisplayElement_8hpp.html" target="_top" xlink:title=" ">
<polygon fill="white" stroke="black" points="511.14,-465 511.14,-484 651.14,-484 651.14,-465 511.14,-465"/>
<text text-anchor="middle" x="581.14" y="-472" font-family="Helvetica,sans-Serif" font-size="10.00">Display/DisplayElement.hpp</text>
</a>
</g>
</g>
<!-- Node20&#45;&gt;Node24 -->
<g id="edge41" class="edge"><title>Node20&#45;&gt;Node24</title>
<path fill="none" stroke="midnightblue" d="M581.14,-526.396C581.14,-517.064 581.14,-504.714 581.14,-494.517"/>
<polygon fill="midnightblue" stroke="midnightblue" points="584.64,-494.195 581.14,-484.195 577.64,-494.195 584.64,-494.195"/>
</g>
<!-- Node25 -->
<g id="node26" class="node"><title>Node25</title>
<g id="a_node26"><a xlink:href="../../dc/d77/DisplayInterface_8hpp.html" target="_top" xlink:title=" ">
<polygon fill="white" stroke="black" points="415.64,-403.5 415.64,-422.5 558.64,-422.5 558.64,-403.5 415.64,-403.5"/>
<text text-anchor="middle" x="487.14" y="-410.5" font-family="Helvetica,sans-Serif" font-size="10.00">Display/DisplayInterface.hpp</text>
</a>
</g>
</g>
<!-- Node20&#45;&gt;Node25 -->
<g id="edge47" class="edge"><title>Node20&#45;&gt;Node25</title>
<path fill="none" stroke="midnightblue" d="M546.857,-526.342C530.89,-518.042 513.053,-506.005 502.14,-490 490.567,-473.027 487.464,-449.251 486.844,-432.833"/>
<polygon fill="midnightblue" stroke="midnightblue" points="490.344,-432.779 486.738,-422.816 483.344,-432.853 490.344,-432.779"/>
</g>
<!-- Node27 -->
<g id="node28" class="node"><title>Node27</title>
<g id="a_node28"><a xlink:href="../../d7/d74/MillisTimer_8hpp.html" target="_top" xlink:title=" ">
<polygon fill="white" stroke="black" points="615.64,-403.5 615.64,-422.5 734.64,-422.5 734.64,-403.5 615.64,-403.5"/>
<text text-anchor="middle" x="675.14" y="-410.5" font-family="Helvetica,sans-Serif" font-size="10.00">Helpers/MillisTimer.hpp</text>
</a>
</g>
</g>
<!-- Node20&#45;&gt;Node27 -->
<g id="edge48" class="edge"><title>Node20&#45;&gt;Node27</title>
<path fill="none" stroke="midnightblue" d="M615.423,-526.342C631.39,-518.042 649.227,-506.005 660.14,-490 671.713,-473.027 674.816,-449.251 675.436,-432.833"/>
<polygon fill="midnightblue" stroke="midnightblue" points="678.936,-432.853 675.542,-422.816 671.936,-432.779 678.936,-432.853"/>
</g>
<!-- Node21&#45;&gt;Node2 -->
<g id="edge33" class="edge"><title>Node21&#45;&gt;Node2</title>
<path fill="none" stroke="midnightblue" d="M258.968,-336.462C264.75,-326.619 271.98,-312.957 276.14,-300 293.981,-244.427 299.639,-175.065 301.387,-142.104"/>
<polygon fill="midnightblue" stroke="midnightblue" points="304.902,-141.852 301.869,-131.701 297.91,-141.528 304.902,-141.852"/>
</g>
<!-- Node22 -->
<g id="node23" class="node"><title>Node22</title>
<g id="a_node23"><a xlink:href="../../d8/d38/MIDICNChannelAddress_8hpp.html" target="_top" xlink:title=" ">
<polygon fill="white" stroke="black" points="104.64,-280.5 104.64,-299.5 267.64,-299.5 267.64,-280.5 104.64,-280.5"/>
<text text-anchor="middle" x="186.14" y="-287.5" font-family="Helvetica,sans-Serif" font-size="10.00">Def/MIDICNChannelAddress.hpp</text>
</a>
</g>
</g>
<!-- Node21&#45;&gt;Node22 -->
<g id="edge34" class="edge"><title>Node21&#45;&gt;Node22</title>
<path fill="none" stroke="midnightblue" d="M234.973,-336.399C225.385,-327.486 212.979,-315.952 203.071,-306.741"/>
<polygon fill="midnightblue" stroke="midnightblue" points="205.16,-303.903 195.453,-299.658 200.393,-309.03 205.16,-303.903"/>
</g>
<!-- Node23 -->
<g id="node24" class="node"><title>Node23</title>
<g id="a_node24"><a xlink:href="../../d7/d2d/MIDI__Parser_8hpp.html" target="_top" xlink:title=" ">
<polygon fill="white" stroke="black" points="362.64,-280.5 362.64,-299.5 517.64,-299.5 517.64,-280.5 362.64,-280.5"/>
<text text-anchor="middle" x="440.14" y="-287.5" font-family="Helvetica,sans-Serif" font-size="10.00">MIDI_Parsers/MIDI_Parser.hpp</text>
</a>
</g>
</g>
<!-- Node21&#45;&gt;Node23 -->
<g id="edge36" class="edge"><title>Node21&#45;&gt;Node23</title>
<path fill="none" stroke="midnightblue" d="M295.167,-336.399C327.998,-326.118 371.961,-312.351 402.837,-302.682"/>
<polygon fill="midnightblue" stroke="midnightblue" points="404.274,-305.9 412.771,-299.571 402.182,-299.219 404.274,-305.9"/>
</g>
<!-- Node22&#45;&gt;Node2 -->
<g id="edge35" class="edge"><title>Node22&#45;&gt;Node2</title>
<path fill="none" stroke="midnightblue" d="M192.377,-280.075C210.873,-253.606 265.657,-175.209 290.114,-140.21"/>
<polygon fill="midnightblue" stroke="midnightblue" points="293.293,-141.77 296.153,-131.568 287.556,-137.76 293.293,-141.77"/>
</g>
<!-- Node23&#45;&gt;Node4 -->
<g id="edge38" class="edge"><title>Node23&#45;&gt;Node4</title>
<path fill="none" stroke="midnightblue" d="M437.965,-280.129C435.196,-267.578 431.112,-243.944 434.14,-224 444.479,-155.899 459.789,-141.807 480.14,-76 484.991,-60.3141 490.473,-42.4895 494.47,-29.4784"/>
<polygon fill="midnightblue" stroke="midnightblue" points="497.841,-30.4207 497.431,-19.8338 491.15,-28.3662 497.841,-30.4207"/>
</g>
<!-- Node23&#45;&gt;Node7 -->
<g id="edge37" class="edge"><title>Node23&#45;&gt;Node7</title>
<path fill="none" stroke="midnightblue" d="M430.106,-280.433C411.191,-263.268 372.14,-222.556 372.14,-179 372.14,-179 372.14,-179 372.14,-121 372.14,-46.5673 265.048,-22.209 206.816,-14.4659"/>
<polygon fill="midnightblue" stroke="midnightblue" points="206.9,-10.9501 196.548,-13.2051 206.047,-17.8979 206.9,-10.9501"/>
</g>
<!-- Node23&#45;&gt;Node13 -->
<g id="edge40" class="edge"><title>Node23&#45;&gt;Node13</title>
<path fill="none" stroke="midnightblue" d="M462.799,-280.444C486.542,-271.478 524.049,-257.314 550.878,-247.183"/>
<polygon fill="midnightblue" stroke="midnightblue" points="552.468,-250.324 560.587,-243.516 549.995,-243.775 552.468,-250.324"/>
</g>
<!-- Node23&#45;&gt;Node15 -->
<g id="edge39" class="edge"><title>Node23&#45;&gt;Node15</title>
<path fill="none" stroke="midnightblue" d="M444.598,-280.083C448.294,-272.691 453.663,-261.953 458.234,-252.811"/>
<polygon fill="midnightblue" stroke="midnightblue" points="461.423,-254.261 462.764,-243.751 455.162,-251.13 461.423,-254.261"/>
</g>
<!-- Node24&#45;&gt;Node11 -->
<g id="edge46" class="edge"><title>Node24&#45;&gt;Node11</title>
<path fill="none" stroke="midnightblue" d="M583.073,-464.787C586.38,-450.988 593.971,-423.564 606.14,-403 613.709,-390.209 624.792,-377.723 634.066,-368.366"/>
<polygon fill="midnightblue" stroke="midnightblue" points="636.593,-370.79 641.313,-361.304 631.708,-365.776 636.593,-370.79"/>
</g>
<!-- Node24&#45;&gt;Node25 -->
<g id="edge42" class="edge"><title>Node24&#45;&gt;Node25</title>
<path fill="none" stroke="midnightblue" d="M567.672,-464.975C552.455,-455.343 527.453,-439.517 509.339,-428.052"/>
<polygon fill="midnightblue" stroke="midnightblue" points="510.904,-424.9 500.583,-422.509 507.16,-430.815 510.904,-424.9"/>
</g>
<!-- Node25&#45;&gt;Node2 -->
<g id="edge43" class="edge"><title>Node25&#45;&gt;Node2</title>
<path fill="none" stroke="midnightblue" d="M558.886,-405.408C617.364,-398.72 694.066,-386.532 718.14,-367 770.657,-324.392 810.4,-278.337 770.14,-224 719.916,-156.216 455.09,-132.425 347.569,-125.479"/>
<polygon fill="midnightblue" stroke="midnightblue" points="347.564,-121.972 337.365,-124.84 347.126,-128.958 347.564,-121.972"/>
</g>
<!-- Node25&#45;&gt;Node11 -->
<g id="edge44" class="edge"><title>Node25&#45;&gt;Node11</title>
<path fill="none" stroke="midnightblue" d="M510.637,-403.475C538.769,-393.269 586.069,-376.108 617.929,-364.549"/>
<polygon fill="midnightblue" stroke="midnightblue" points="619.48,-367.71 627.686,-361.009 617.092,-361.13 619.48,-367.71"/>
</g>
<!-- Node26 -->
<g id="node27" class="node"><title>Node26</title>
<g id="a_node27"><a xlink:title=" ">
<polygon fill="white" stroke="#bfbfbf" points="529.64,-342 529.64,-361 574.64,-361 574.64,-342 529.64,-342"/>
<text text-anchor="middle" x="552.14" y="-349" font-family="Helvetica,sans-Serif" font-size="10.00">Print.h</text>
</a>
</g>
</g>
<!-- Node25&#45;&gt;Node26 -->
<g id="edge45" class="edge"><title>Node25&#45;&gt;Node26</title>
<path fill="none" stroke="midnightblue" d="M496.453,-403.475C506.589,-394.197 523.004,-379.171 535.392,-367.831"/>
<polygon fill="midnightblue" stroke="midnightblue" points="537.831,-370.343 542.844,-361.009 533.105,-365.18 537.831,-370.343"/>
</g>
<!-- Node27&#45;&gt;Node17 -->
<g id="edge49" class="edge"><title>Node27&#45;&gt;Node17</title>
<path fill="none" stroke="midnightblue" d="M702.383,-403.402C721.94,-396.154 747.949,-384.188 766.14,-367 791.023,-343.489 794.725,-332.914 804.14,-300 814.128,-265.083 812.914,-222.197 811.067,-197.994"/>
<polygon fill="midnightblue" stroke="midnightblue" points="814.527,-197.381 810.156,-187.729 807.554,-198 814.527,-197.381"/>
</g>
<!-- Node28&#45;&gt;Node2 -->
<g id="edge51" class="edge"><title>Node28&#45;&gt;Node2</title>
<path fill="none" stroke="midnightblue" d="M143.054,-459.422C117.717,-438.954 76.1399,-398.375 76.1399,-352.5 76.1399,-352.5 76.1399,-352.5 76.1399,-233 76.1399,-153.472 190.682,-131.428 256.677,-125.327"/>
<polygon fill="midnightblue" stroke="midnightblue" points="257.154,-128.799 266.827,-124.478 256.571,-121.824 257.154,-128.799"/>
</g>
<!-- Node28&#45;&gt;Node22 -->
<g id="edge52" class="edge"><title>Node28&#45;&gt;Node22</title>
<path fill="none" stroke="midnightblue" d="M163.983,-459.483C168.242,-427.097 178.771,-347.037 183.62,-310.159"/>
<polygon fill="midnightblue" stroke="midnightblue" points="187.146,-310.19 184.98,-299.819 180.206,-309.277 187.146,-310.19"/>
</g>
<!-- Node29 -->
<g id="node30" class="node"><title>Node29</title>
<g id="a_node30"><a xlink:href="../../d4/d93/Updatable_8hpp.html" target="_top" xlink:title=" ">
<polygon fill="white" stroke="black" points="281.14,-403.5 281.14,-422.5 397.14,-422.5 397.14,-403.5 281.14,-403.5"/>
<text text-anchor="middle" x="339.14" y="-410.5" font-family="Helvetica,sans-Serif" font-size="10.00">Helpers/Updatable.hpp</text>
</a>
</g>
</g>
<!-- Node28&#45;&gt;Node29 -->
<g id="edge53" class="edge"><title>Node28&#45;&gt;Node29</title>
<path fill="none" stroke="midnightblue" d="M204.086,-459.399C234.538,-449.163 275.27,-435.47 304.013,-425.808"/>
<polygon fill="midnightblue" stroke="midnightblue" points="305.28,-429.075 313.643,-422.571 303.049,-422.44 305.28,-429.075"/>
</g>
<!-- Node29&#45;&gt;Node2 -->
<g id="edge59" class="edge"><title>Node29&#45;&gt;Node2</title>
<path fill="none" stroke="midnightblue" d="M338.547,-403.496C337.222,-383.752 334.14,-333.26 334.14,-291 334.14,-291 334.14,-291 334.14,-233 334.14,-199.329 320.145,-162.085 310.665,-140.719"/>
<polygon fill="midnightblue" stroke="midnightblue" points="313.822,-139.207 306.456,-131.592 307.466,-142.138 313.822,-139.207"/>
</g>
<!-- Node29&#45;&gt;Node7 -->
<g id="edge58" class="edge"><title>Node29&#45;&gt;Node7</title>
<path fill="none" stroke="midnightblue" d="M280.864,-407.675C183.939,-396.964 0.139935,-360.152 0.139935,-235 0.139935,-235 0.139935,-235 0.139935,-121 0.139935,-57.691 84.272,-29.0177 134.164,-17.5799"/>
<polygon fill="midnightblue" stroke="midnightblue" points="134.92,-20.9975 143.95,-15.4557 133.435,-14.1568 134.92,-20.9975"/>
</g>
<!-- Node29&#45;&gt;Node11 -->
<g id="edge56" class="edge"><title>Node29&#45;&gt;Node11</title>
<path fill="none" stroke="midnightblue" d="M387.825,-403.431C437.129,-394.657 515.542,-380.438 583.14,-367 589.278,-365.78 595.719,-364.459 602.088,-363.129"/>
<polygon fill="midnightblue" stroke="midnightblue" points="602.92,-366.53 611.984,-361.043 601.477,-359.681 602.92,-366.53"/>
</g>
<!-- Node29&#45;&gt;Node13 -->
<g id="edge57" class="edge"><title>Node29&#45;&gt;Node13</title>
<path fill="none" stroke="midnightblue" d="M344.781,-403.323C355.456,-387.584 380.156,-354.272 409.14,-336 455.164,-306.986 480.474,-329.574 526.14,-300 545.362,-287.552 561.919,-266.852 572.159,-252.159"/>
<polygon fill="midnightblue" stroke="midnightblue" points="575.289,-253.776 577.941,-243.518 569.471,-249.883 575.289,-253.776"/>
</g>
<!-- Node30 -->
<g id="node31" class="node"><title>Node30</title>
<g id="a_node31"><a xlink:href="../../d1/d93/Error_8hpp.html" target="_top" xlink:title=" ">
<polygon fill="white" stroke="black" points="418.64,-342 418.64,-361 511.64,-361 511.64,-342 418.64,-342"/>
<text text-anchor="middle" x="465.14" y="-349" font-family="Helvetica,sans-Serif" font-size="10.00">Helpers/Error.hpp</text>
</a>
</g>
</g>
<!-- Node29&#45;&gt;Node30 -->
<g id="edge54" class="edge"><title>Node29&#45;&gt;Node30</title>
<path fill="none" stroke="midnightblue" d="M357.193,-403.475C378.338,-393.49 413.58,-376.848 438.018,-365.307"/>
<polygon fill="midnightblue" stroke="midnightblue" points="439.573,-368.444 447.121,-361.009 436.584,-362.114 439.573,-368.444"/>
</g>
<!-- Node30&#45;&gt;Node12 -->
<g id="edge55" class="edge"><title>Node30&#45;&gt;Node12</title>
<path fill="none" stroke="midnightblue" d="M493.509,-341.975C528.061,-331.592 586.564,-314.012 625.025,-302.454"/>
<polygon fill="midnightblue" stroke="midnightblue" points="626.254,-305.739 634.824,-299.509 624.24,-299.035 626.254,-305.739"/>
</g>
</g>
</svg>
