<?xml version="1.0" encoding="UTF-8" standalone="no"?>
<!DOCTYPE svg PUBLIC "-//W3C//DTD SVG 1.1//EN"
 "http://www.w3.org/Graphics/SVG/1.1/DTD/svg11.dtd">
<!-- Generated by graphviz version 2.38.0 (20140413.2041)
 -->
<!-- Title: DisplayElement Pages: 1 -->
<svg width="587pt" height="987pt"
 viewBox="0.00 0.00 587.00 987.00" xmlns="http://www.w3.org/2000/svg" xmlns:xlink="http://www.w3.org/1999/xlink">
<g id="graph0" class="graph" transform="scale(1 1) rotate(0) translate(4 983)">
<title>DisplayElement</title>
<polygon fill="white" stroke="none" points="-4,4 -4,-983 583,-983 583,4 -4,4"/>
<!-- Node7 -->
<g id="node1" class="node"><title>Node7</title>
<g id="a_node1"><a xlink:title=" ">
<polygon fill="#bfbfbf" stroke="black" points="128.5,-380.5 128.5,-470.5 235.5,-470.5 235.5,-380.5 128.5,-380.5"/>
<text text-anchor="middle" x="182" y="-458.5" font-family="Helvetica,sans-Serif" font-size="10.00">DisplayElement</text>
<polyline fill="none" stroke="black" points="128.5,-451.5 235.5,-451.5 "/>
<text text-anchor="middle" x="182" y="-439.5" font-family="Helvetica,sans-Serif" font-size="10.00"> </text>
<polyline fill="none" stroke="black" points="128.5,-432.5 235.5,-432.5 "/>
<text text-anchor="start" x="136.5" y="-420.5" font-family="Helvetica,sans-Serif" font-size="10.00">+ ~DisplayElement()</text>
<text text-anchor="start" x="136.5" y="-409.5" font-family="Helvetica,sans-Serif" font-size="10.00">+ draw()</text>
<text text-anchor="start" x="136.5" y="-398.5" font-family="Helvetica,sans-Serif" font-size="10.00">+ drawAll()</text>
<text text-anchor="start" x="136.5" y="-387.5" font-family="Helvetica,sans-Serif" font-size="10.00"># DisplayElement()</text>
</a>
</g>
</g>
<!-- Node8 -->
<g id="node2" class="node"><title>Node8</title>
<g id="a_node2"><a xlink:href="../../d4/d23/classDoublyLinkable.html" target="_top" xlink:title=" ">
<polygon fill="white" stroke="black" points="0,-94 0,-151 170,-151 170,-94 0,-94"/>
<text text-anchor="middle" x="85" y="-139" font-family="Helvetica,sans-Serif" font-size="10.00">DoublyLinkable&lt; DisplayElement &gt;</text>
<polyline fill="none" stroke="black" points="0,-132 170,-132 "/>
<text text-anchor="middle" x="85" y="-120" font-family="Helvetica,sans-Serif" font-size="10.00"> </text>
<polyline fill="none" stroke="black" points="0,-113 170,-113 "/>
<text text-anchor="start" x="8" y="-101" font-family="Helvetica,sans-Serif" font-size="10.00"># ~DoublyLinkable()</text>
</a>
</g>
</g>
<!-- Node7&#45;&gt;Node8 -->
<g id="edge2" class="edge"><title>Node7&#45;&gt;Node8</title>
<path fill="none" stroke="#404040" d="M141.967,-380.358C121.278,-354.558 98.0911,-320.214 87,-285 74.3768,-244.921 75.8468,-196.424 79.236,-163.099"/>
<polygon fill="none" stroke="#404040" points="79.2425,-163.041 75.9488,-156.626 80.6035,-151.118 83.8972,-157.533 79.2425,-163.041"/>
<text text-anchor="middle" x="108.5" y="-277" font-family="Helvetica,sans-Serif" font-size="10.00"> #next</text>
<text text-anchor="middle" x="108.5" y="-266" font-family="Helvetica,sans-Serif" font-size="10.00">#previous</text>
</g>
<!-- Node9 -->
<g id="node3" class="node"><title>Node9</title>
<g id="a_node3"><a xlink:href="../../dd/d16/classDoublyLinkedList.html" target="_top" xlink:title=" ">
<polygon fill="white" stroke="black" points="188,-0.5 188,-244.5 322,-244.5 322,-0.5 188,-0.5"/>
<text text-anchor="start" x="196" y="-232.5" font-family="Helvetica,sans-Serif" font-size="10.00">DoublyLinkedList&lt; Display</text>
<text text-anchor="middle" x="255" y="-221.5" font-family="Helvetica,sans-Serif" font-size="10.00">Element &gt;</text>
<polyline fill="none" stroke="black" points="188,-214.5 322,-214.5 "/>
<text text-anchor="middle" x="255" y="-202.5" font-family="Helvetica,sans-Serif" font-size="10.00"> </text>
<polyline fill="none" stroke="black" points="188,-195.5 322,-195.5 "/>
<text text-anchor="start" x="196" y="-183.5" font-family="Helvetica,sans-Serif" font-size="10.00">+ DoublyLinkedList()</text>
<text text-anchor="start" x="196" y="-172.5" font-family="Helvetica,sans-Serif" font-size="10.00">+ append()</text>
<text text-anchor="start" x="196" y="-161.5" font-family="Helvetica,sans-Serif" font-size="10.00">+ append()</text>
<text text-anchor="start" x="196" y="-150.5" font-family="Helvetica,sans-Serif" font-size="10.00">+ remove()</text>
<text text-anchor="start" x="196" y="-139.5" font-family="Helvetica,sans-Serif" font-size="10.00">+ remove()</text>
<text text-anchor="start" x="196" y="-128.5" font-family="Helvetica,sans-Serif" font-size="10.00">+ moveDown()</text>
<text text-anchor="start" x="196" y="-117.5" font-family="Helvetica,sans-Serif" font-size="10.00">+ couldContain()</text>
<text text-anchor="start" x="196" y="-106.5" font-family="Helvetica,sans-Serif" font-size="10.00">+ begin()</text>
<text text-anchor="start" x="196" y="-95.5" font-family="Helvetica,sans-Serif" font-size="10.00">+ begin()</text>
<text text-anchor="start" x="196" y="-84.5" font-family="Helvetica,sans-Serif" font-size="10.00">+ end()</text>
<text text-anchor="start" x="196" y="-73.5" font-family="Helvetica,sans-Serif" font-size="10.00">+ end()</text>
<text text-anchor="start" x="196" y="-62.5" font-family="Helvetica,sans-Serif" font-size="10.00">+ rbegin()</text>
<text text-anchor="start" x="196" y="-51.5" font-family="Helvetica,sans-Serif" font-size="10.00">+ rbegin()</text>
<text text-anchor="start" x="196" y="-40.5" font-family="Helvetica,sans-Serif" font-size="10.00">+ rend()</text>
<text text-anchor="start" x="196" y="-29.5" font-family="Helvetica,sans-Serif" font-size="10.00">+ rend()</text>
<text text-anchor="start" x="196" y="-18.5" font-family="Helvetica,sans-Serif" font-size="10.00">+ getFirst()</text>
<text text-anchor="start" x="196" y="-7.5" font-family="Helvetica,sans-Serif" font-size="10.00">+ getLast()</text>
</a>
</g>
</g>
<!-- Node7&#45;&gt;Node9 -->
<g id="edge4" class="edge"><title>Node7&#45;&gt;Node9</title>
<path fill="none" stroke="#404040" d="M185.005,-380.474C187.895,-347.717 193.303,-302.107 203,-263 203.537,-260.836 204.096,-258.66 204.676,-256.474"/>
<polygon fill="none" stroke="#404040" points="204.732,-256.274 202.496,-249.418 207.964,-244.717 210.2,-251.573 204.732,-256.274"/>
<text text-anchor="middle" x="214" y="-277" font-family="Helvetica,sans-Serif" font-size="10.00"> &#45;last</text>
<text text-anchor="middle" x="214" y="-266" font-family="Helvetica,sans-Serif" font-size="10.00">&#45;first</text>
</g>
<!-- Node8&#45;&gt;Node7 -->
<g id="edge1" class="edge"><title>Node8&#45;&gt;Node7</title>
<path fill="none" stroke="midnightblue" d="M98.5729,-160.561C108.697,-188.576 122.675,-228.05 134,-263 146.803,-302.513 160.171,-347.881 169.538,-380.452"/>
<polygon fill="none" stroke="midnightblue" points="101.862,-159.364 95.163,-151.156 95.2811,-161.75 101.862,-159.364"/>
</g>
<!-- Node9&#45;&gt;Node7 -->
<g id="edge3" class="edge"><title>Node9&#45;&gt;Node7</title>
<path fill="none" stroke="#404040" d="M237.711,-244.758C235.106,-258.399 232.203,-272.042 229,-285 222.066,-313.057 212.086,-343.549 203.104,-368.849"/>
<polygon fill="none" stroke="#404040" points="202.993,-369.158 204.725,-376.158 198.929,-380.448 197.197,-373.448 202.993,-369.158"/>
<text text-anchor="middle" x="258.5" y="-271.5" font-family="Helvetica,sans-Serif" font-size="10.00"> #elements</text>
</g>
<!-- Node10 -->
<g id="node4" class="node"><title>Node10</title>
<g id="a_node4"><a xlink:href="../../df/d42/classDisplayInterface.html" target="_top" xlink:title=" ">
<polygon fill="white" stroke="black" points="311.5,-606.5 311.5,-883.5 484.5,-883.5 484.5,-606.5 311.5,-606.5"/>
<text text-anchor="middle" x="398" y="-871.5" font-family="Helvetica,sans-Serif" font-size="10.00">DisplayInterface</text>
<polyline fill="none" stroke="black" points="311.5,-864.5 484.5,-864.5 "/>
<text text-anchor="middle" x="398" y="-852.5" font-family="Helvetica,sans-Serif" font-size="10.00"> </text>
<polyline fill="none" stroke="black" points="311.5,-845.5 484.5,-845.5 "/>
<text text-anchor="start" x="319.5" y="-833.5" font-family="Helvetica,sans-Serif" font-size="10.00">+ ~DisplayInterface()</text>
<text text-anchor="start" x="319.5" y="-822.5" font-family="Helvetica,sans-Serif" font-size="10.00">+ begin()</text>
<text text-anchor="start" x="319.5" y="-811.5" font-family="Helvetica,sans-Serif" font-size="10.00">+ clear()</text>
<text text-anchor="start" x="319.5" y="-800.5" font-family="Helvetica,sans-Serif" font-size="10.00">+ drawBackground()</text>
<text text-anchor="start" x="319.5" y="-789.5" font-family="Helvetica,sans-Serif" font-size="10.00">+ display()</text>
<text text-anchor="start" x="319.5" y="-778.5" font-family="Helvetica,sans-Serif" font-size="10.00">+ drawPixel()</text>
<text text-anchor="start" x="319.5" y="-767.5" font-family="Helvetica,sans-Serif" font-size="10.00">+ setTextColor()</text>
<text text-anchor="start" x="319.5" y="-756.5" font-family="Helvetica,sans-Serif" font-size="10.00">+ setTextSize()</text>
<text text-anchor="start" x="319.5" y="-745.5" font-family="Helvetica,sans-Serif" font-size="10.00">+ setCursor()</text>
<text text-anchor="start" x="319.5" y="-734.5" font-family="Helvetica,sans-Serif" font-size="10.00">+ write()</text>
<text text-anchor="start" x="319.5" y="-723.5" font-family="Helvetica,sans-Serif" font-size="10.00">+ drawLine()</text>
<text text-anchor="start" x="319.5" y="-712.5" font-family="Helvetica,sans-Serif" font-size="10.00">+ drawFastVLine()</text>
<text text-anchor="start" x="319.5" y="-701.5" font-family="Helvetica,sans-Serif" font-size="10.00">+ drawFastHLine()</text>
<text text-anchor="start" x="319.5" y="-690.5" font-family="Helvetica,sans-Serif" font-size="10.00">+ drawXBitmap()</text>
<text text-anchor="start" x="319.5" y="-679.5" font-family="Helvetica,sans-Serif" font-size="10.00">+ fillRect()</text>
<text text-anchor="start" x="319.5" y="-668.5" font-family="Helvetica,sans-Serif" font-size="10.00">+ drawCircle()</text>
<text text-anchor="start" x="319.5" y="-657.5" font-family="Helvetica,sans-Serif" font-size="10.00">+ fillCircle()</text>
<text text-anchor="start" x="319.5" y="-646.5" font-family="Helvetica,sans-Serif" font-size="10.00">+ beginAll()</text>
<text text-anchor="start" x="319.5" y="-635.5" font-family="Helvetica,sans-Serif" font-size="10.00">+ clearAllAndDrawAllBackgrounds()</text>
<text text-anchor="start" x="319.5" y="-624.5" font-family="Helvetica,sans-Serif" font-size="10.00">+ displayAll()</text>
<text text-anchor="start" x="319.5" y="-613.5" font-family="Helvetica,sans-Serif" font-size="10.00"># DisplayInterface()</text>
</a>
</g>
</g>
<!-- Node10&#45;&gt;Node7 -->
<g id="edge5" class="edge"><title>Node10&#45;&gt;Node7</title>
<path fill="none" stroke="#404040" d="M311.386,-641.486C288.286,-612.139 264.165,-579.537 244,-548 230.583,-527.018 217.727,-502.77 207.234,-481.48"/>
<polygon fill="none" stroke="#404040" points="207.216,-481.444 200.996,-477.795 201.972,-470.65 208.192,-474.299 207.216,-481.444"/>
<text text-anchor="middle" x="291" y="-574.5" font-family="Helvetica,sans-Serif" font-size="10.00"> #display</text>
</g>
<!-- Node12 -->
<g id="node6" class="node"><title>Node12</title>
<g id="a_node6"><a xlink:href="../../d4/d23/classDoublyLinkable.html" target="_top" xlink:title=" ">
<polygon fill="white" stroke="black" points="253.5,-397 253.5,-454 426.5,-454 426.5,-397 253.5,-397"/>
<text text-anchor="middle" x="340" y="-442" font-family="Helvetica,sans-Serif" font-size="10.00">DoublyLinkable&lt; DisplayInterface &gt;</text>
<polyline fill="none" stroke="black" points="253.5,-435 426.5,-435 "/>
<text text-anchor="middle" x="340" y="-423" font-family="Helvetica,sans-Serif" font-size="10.00"> </text>
<polyline fill="none" stroke="black" points="253.5,-416 426.5,-416 "/>
<text text-anchor="start" x="261.5" y="-404" font-family="Helvetica,sans-Serif" font-size="10.00"># ~DoublyLinkable()</text>
</a>
</g>
</g>
<!-- Node10&#45;&gt;Node12 -->
<g id="edge8" class="edge"><title>Node10&#45;&gt;Node12</title>
<path fill="none" stroke="#404040" d="M341.025,-606.148C339.488,-600.067 338.132,-594.001 337,-588 329.293,-547.129 331.523,-499.409 334.763,-466.493"/>
<polygon fill="none" stroke="#404040" points="334.8,-466.15 331.466,-459.756 336.086,-454.219 339.42,-460.613 334.8,-466.15"/>
<text text-anchor="middle" x="358.5" y="-580" font-family="Helvetica,sans-Serif" font-size="10.00"> #next</text>
<text text-anchor="middle" x="358.5" y="-569" font-family="Helvetica,sans-Serif" font-size="10.00">#previous</text>
</g>
<!-- Node13 -->
<g id="node7" class="node"><title>Node13</title>
<g id="a_node7"><a xlink:href="../../dd/d16/classDoublyLinkedList.html" target="_top" xlink:title=" ">
<polygon fill="white" stroke="black" points="445,-303.5 445,-547.5 579,-547.5 579,-303.5 445,-303.5"/>
<text text-anchor="start" x="453" y="-535.5" font-family="Helvetica,sans-Serif" font-size="10.00">DoublyLinkedList&lt; Display</text>
<text text-anchor="middle" x="512" y="-524.5" font-family="Helvetica,sans-Serif" font-size="10.00">Interface &gt;</text>
<polyline fill="none" stroke="black" points="445,-517.5 579,-517.5 "/>
<text text-anchor="middle" x="512" y="-505.5" font-family="Helvetica,sans-Serif" font-size="10.00"> </text>
<polyline fill="none" stroke="black" points="445,-498.5 579,-498.5 "/>
<text text-anchor="start" x="453" y="-486.5" font-family="Helvetica,sans-Serif" font-size="10.00">+ DoublyLinkedList()</text>
<text text-anchor="start" x="453" y="-475.5" font-family="Helvetica,sans-Serif" font-size="10.00">+ append()</text>
<text text-anchor="start" x="453" y="-464.5" font-family="Helvetica,sans-Serif" font-size="10.00">+ append()</text>
<text text-anchor="start" x="453" y="-453.5" font-family="Helvetica,sans-Serif" font-size="10.00">+ remove()</text>
<text text-anchor="start" x="453" y="-442.5" font-family="Helvetica,sans-Serif" font-size="10.00">+ remove()</text>
<text text-anchor="start" x="453" y="-431.5" font-family="Helvetica,sans-Serif" font-size="10.00">+ moveDown()</text>
<text text-anchor="start" x="453" y="-420.5" font-family="Helvetica,sans-Serif" font-size="10.00">+ couldContain()</text>
<text text-anchor="start" x="453" y="-409.5" font-family="Helvetica,sans-Serif" font-size="10.00">+ begin()</text>
<text text-anchor="start" x="453" y="-398.5" font-family="Helvetica,sans-Serif" font-size="10.00">+ begin()</text>
<text text-anchor="start" x="453" y="-387.5" font-family="Helvetica,sans-Serif" font-size="10.00">+ end()</text>
<text text-anchor="start" x="453" y="-376.5" font-family="Helvetica,sans-Serif" font-size="10.00">+ end()</text>
<text text-anchor="start" x="453" y="-365.5" font-family="Helvetica,sans-Serif" font-size="10.00">+ rbegin()</text>
<text text-anchor="start" x="453" y="-354.5" font-family="Helvetica,sans-Serif" font-size="10.00">+ rbegin()</text>
<text text-anchor="start" x="453" y="-343.5" font-family="Helvetica,sans-Serif" font-size="10.00">+ rend()</text>
<text text-anchor="start" x="453" y="-332.5" font-family="Helvetica,sans-Serif" font-size="10.00">+ rend()</text>
<text text-anchor="start" x="453" y="-321.5" font-family="Helvetica,sans-Serif" font-size="10.00">+ getFirst()</text>
<text text-anchor="start" x="453" y="-310.5" font-family="Helvetica,sans-Serif" font-size="10.00">+ getLast()</text>
</a>
</g>
</g>
<!-- Node10&#45;&gt;Node13 -->
<g id="edge10" class="edge"><title>Node10&#45;&gt;Node13</title>
<path fill="none" stroke="#404040" d="M435.279,-606.33C439.639,-592.617 444.239,-578.977 449,-566 449.824,-563.755 450.667,-561.495 451.529,-559.224"/>
<polygon fill="none" stroke="#404040" points="451.622,-558.984 450.067,-551.942 455.969,-547.799 457.524,-554.841 451.622,-558.984"/>
<text text-anchor="middle" x="460" y="-580" font-family="Helvetica,sans-Serif" font-size="10.00"> &#45;last</text>
<text text-anchor="middle" x="460" y="-569" font-family="Helvetica,sans-Serif" font-size="10.00">&#45;first</text>
</g>
<!-- Node11 -->
<g id="node5" class="node"><title>Node11</title>
<g id="a_node5"><a xlink:title=" ">
<polygon fill="white" stroke="#bfbfbf" points="379.5,-921.5 379.5,-978.5 416.5,-978.5 416.5,-921.5 379.5,-921.5"/>
<text text-anchor="middle" x="398" y="-966.5" font-family="Helvetica,sans-Serif" font-size="10.00">Print</text>
<polyline fill="none" stroke="#bfbfbf" points="379.5,-959.5 416.5,-959.5 "/>
<text text-anchor="middle" x="398" y="-947.5" font-family="Helvetica,sans-Serif" font-size="10.00"> </text>
<polyline fill="none" stroke="#bfbfbf" points="379.5,-940.5 416.5,-940.5 "/>
<text text-anchor="middle" x="398" y="-928.5" font-family="Helvetica,sans-Serif" font-size="10.00"> </text>
</a>
</g>
</g>
<!-- Node11&#45;&gt;Node10 -->
<g id="edge6" class="edge"><title>Node11&#45;&gt;Node10</title>
<path fill="none" stroke="midnightblue" d="M398,-911.135C398,-902.754 398,-893.402 398,-883.527"/>
<polygon fill="none" stroke="midnightblue" points="394.5,-911.199 398,-921.199 401.5,-911.199 394.5,-911.199"/>
</g>
<!-- Node12&#45;&gt;Node10 -->
<g id="edge7" class="edge"><title>Node12&#45;&gt;Node10</title>
<path fill="none" stroke="midnightblue" d="M354.299,-463.762C364.323,-491.522 377.116,-530.588 384,-566 386.514,-578.932 388.579,-592.476 390.275,-606.073"/>
<polygon fill="none" stroke="midnightblue" points="357.476,-462.257 350.748,-454.073 350.904,-464.667 357.476,-462.257"/>
</g>
<!-- Node13&#45;&gt;Node10 -->
<g id="edge9" class="edge"><title>Node13&#45;&gt;Node10</title>
<path fill="none" stroke="#404040" d="M487.464,-547.767C483.735,-561.472 479.58,-575.127 475,-588 474.203,-590.241 473.381,-592.491 472.539,-594.749"/>
<polygon fill="none" stroke="#404040" points="472.484,-594.891 474.05,-601.93 468.155,-606.083 466.589,-599.044 472.484,-594.891"/>
<text text-anchor="middle" x="506" y="-574.5" font-family="Helvetica,sans-Serif" font-size="10.00"> &#45;elements</text>
</g>
</g>
</svg>
