<?xml version="1.0" encoding="UTF-8" standalone="no"?>
<!DOCTYPE svg PUBLIC "-//W3C//DTD SVG 1.1//EN"
 "http://www.w3.org/Graphics/SVG/1.1/DTD/svg11.dtd">
<!-- Generated by graphviz version 2.38.0 (20140413.2041)
 -->
<!-- Title: Bank.hpp Pages: 1 -->
<svg width="2661pt" height="308pt"
 viewBox="0.00 0.00 2661.15 308.00" xmlns="http://www.w3.org/2000/svg" xmlns:xlink="http://www.w3.org/1999/xlink">
<g id="graph0" class="graph" transform="scale(1 1) rotate(0) translate(4 304)">
<title>Bank.hpp</title>
<polygon fill="white" stroke="none" points="-4,4 -4,-304 2657.15,-304 2657.15,4 -4,4"/>
<!-- Node22 -->
<g id="node1" class="node"><title>Node22</title>
<g id="a_node1"><a xlink:title=" ">
<polygon fill="#bfbfbf" stroke="black" points="1779,-280.5 1779,-299.5 1837,-299.5 1837,-280.5 1779,-280.5"/>
<text text-anchor="middle" x="1808" y="-287.5" font-family="Helvetica,sans-Serif" font-size="10.00">Bank.hpp</text>
</a>
</g>
</g>
<!-- Node23 -->
<g id="node2" class="node"><title>Node23</title>
<g id="a_node2"><a xlink:href="../../de/d6e/BankableMIDIInput_8hpp.html" target="_top" xlink:title=" ">
<polygon fill="white" stroke="black" points="574.5,-224.5 574.5,-243.5 693.5,-243.5 693.5,-224.5 574.5,-224.5"/>
<text text-anchor="middle" x="634" y="-231.5" font-family="Helvetica,sans-Serif" font-size="10.00">BankableMIDIInput.hpp</text>
</a>
</g>
</g>
<!-- Node22&#45;&gt;Node23 -->
<g id="edge1" class="edge"><title>Node22&#45;&gt;Node23</title>
<path fill="none" stroke="midnightblue" d="M1768.59,-287.305C1595.43,-279.586 902.237,-247.712 693.635,-237.893"/>
<polygon fill="midnightblue" stroke="midnightblue" points="1768.63,-290.81 1778.77,-287.758 1768.94,-283.817 1768.63,-290.81"/>
</g>
<!-- Node37 -->
<g id="node16" class="node"><title>Node37</title>
<g id="a_node16"><a xlink:href="../../db/df2/BankableMIDIOutput_8hpp.html" target="_top" xlink:title=" ">
<polygon fill="white" stroke="black" points="1744.5,-168.5 1744.5,-187.5 1871.5,-187.5 1871.5,-168.5 1744.5,-168.5"/>
<text text-anchor="middle" x="1808" y="-175.5" font-family="Helvetica,sans-Serif" font-size="10.00">BankableMIDIOutput.hpp</text>
</a>
</g>
</g>
<!-- Node22&#45;&gt;Node37 -->
<g id="edge26" class="edge"><title>Node22&#45;&gt;Node37</title>
<path fill="none" stroke="midnightblue" d="M1808,-270.348C1808,-246.254 1808,-205.308 1808,-187.591"/>
<polygon fill="midnightblue" stroke="midnightblue" points="1804.5,-270.368 1808,-280.368 1811.5,-270.369 1804.5,-270.368"/>
</g>
<!-- Node60 -->
<g id="node39" class="node"><title>Node60</title>
<g id="a_node39"><a xlink:href="../../d0/dcb/ManyAddressesMIDIOuptut_8hpp.html" target="_top" xlink:title=" ">
<polygon fill="white" stroke="black" points="2005.5,-224.5 2005.5,-243.5 2162.5,-243.5 2162.5,-224.5 2005.5,-224.5"/>
<text text-anchor="middle" x="2084" y="-231.5" font-family="Helvetica,sans-Serif" font-size="10.00">ManyAddressesMIDIOuptut.hpp</text>
</a>
</g>
</g>
<!-- Node22&#45;&gt;Node60 -->
<g id="edge63" class="edge"><title>Node22&#45;&gt;Node60</title>
<path fill="none" stroke="midnightblue" d="M1847,-281.369C1898.06,-271.379 1987.31,-253.918 2040.5,-243.51"/>
<polygon fill="midnightblue" stroke="midnightblue" points="1846.16,-277.968 1837.02,-283.323 1847.5,-284.838 1846.16,-277.968"/>
</g>
<!-- Node63 -->
<g id="node42" class="node"><title>Node63</title>
<g id="a_node42"><a xlink:href="../../de/d5e/Transposer_8hpp.html" target="_top" xlink:title=" ">
<polygon fill="white" stroke="black" points="2519,-224.5 2519,-243.5 2603,-243.5 2603,-224.5 2519,-224.5"/>
<text text-anchor="middle" x="2561" y="-231.5" font-family="Helvetica,sans-Serif" font-size="10.00">Transposer.hpp</text>
</a>
</g>
</g>
<!-- Node22&#45;&gt;Node63 -->
<g id="edge67" class="edge"><title>Node22&#45;&gt;Node63</title>
<path fill="none" stroke="midnightblue" d="M1847.25,-286.185C1976.12,-276.944 2385.64,-247.575 2518.76,-238.029"/>
<polygon fill="midnightblue" stroke="midnightblue" points="1846.78,-282.71 1837.06,-286.916 1847.28,-289.692 1846.78,-282.71"/>
</g>
<!-- Node23&#45;&gt;Node22 -->
<g id="edge2" class="edge"><title>Node23&#45;&gt;Node22</title>
<path fill="none" stroke="midnightblue" d="M703.59,-238.048C928.192,-248.155 1627.62,-280.341 1778.98,-287.556"/>
<polygon fill="midnightblue" stroke="midnightblue" points="703.721,-234.55 693.574,-237.597 703.407,-241.543 703.721,-234.55"/>
</g>
<!-- Node24 -->
<g id="node3" class="node"><title>Node24</title>
<g id="a_node3"><a xlink:href="../../d7/d81/VPotRing_8hpp.html" target="_top" xlink:title=" ">
<polygon fill="white" stroke="black" points="119.5,-112.5 119.5,-131.5 196.5,-131.5 196.5,-112.5 119.5,-112.5"/>
<text text-anchor="middle" x="158" y="-119.5" font-family="Helvetica,sans-Serif" font-size="10.00">VPotRing.hpp</text>
</a>
</g>
</g>
<!-- Node23&#45;&gt;Node24 -->
<g id="edge3" class="edge"><title>Node23&#45;&gt;Node24</title>
<path fill="none" stroke="midnightblue" d="M576.353,-222.555C530.35,-213.983 464.339,-201.155 407,-188 327.745,-169.817 235.328,-144.635 188.522,-131.596"/>
<polygon fill="midnightblue" stroke="midnightblue" points="575.964,-226.043 586.435,-224.425 577.241,-219.16 575.964,-226.043"/>
</g>
<!-- Node29 -->
<g id="node8" class="node"><title>Node29</title>
<g id="a_node8"><a xlink:href="../../db/dda/VU_8hpp.html" target="_top" xlink:title=" ">
<polygon fill="white" stroke="black" points="416,-168.5 416,-187.5 466,-187.5 466,-168.5 416,-168.5"/>
<text text-anchor="middle" x="441" y="-175.5" font-family="Helvetica,sans-Serif" font-size="10.00">VU.hpp</text>
</a>
</g>
</g>
<!-- Node23&#45;&gt;Node29 -->
<g id="edge10" class="edge"><title>Node23&#45;&gt;Node29</title>
<path fill="none" stroke="midnightblue" d="M593.585,-221.692C555.167,-210.943 498.586,-195.112 466.21,-186.054"/>
<polygon fill="midnightblue" stroke="midnightblue" points="592.845,-225.12 603.419,-224.444 594.731,-218.378 592.845,-225.12"/>
</g>
<!-- Node34 -->
<g id="node13" class="node"><title>Node34</title>
<g id="a_node13"><a xlink:href="../../d2/d97/MIDINote_8hpp.html" target="_top" xlink:title=" ">
<polygon fill="white" stroke="black" points="595,-112.5 595,-131.5 673,-131.5 673,-112.5 595,-112.5"/>
<text text-anchor="middle" x="634" y="-119.5" font-family="Helvetica,sans-Serif" font-size="10.00">MIDINote.hpp</text>
</a>
</g>
</g>
<!-- Node23&#45;&gt;Node34 -->
<g id="edge20" class="edge"><title>Node23&#45;&gt;Node34</title>
<path fill="none" stroke="midnightblue" d="M634,-214.348C634,-190.254 634,-149.308 634,-131.591"/>
<polygon fill="midnightblue" stroke="midnightblue" points="630.5,-214.368 634,-224.368 637.5,-214.369 630.5,-214.368"/>
</g>
<!-- Node25 -->
<g id="node4" class="node"><title>Node25</title>
<g id="a_node4"><a xlink:href="../../d0/dbf/VPotDisplay_8hpp.html" target="_top" xlink:title=" ">
<polygon fill="white" stroke="black" points="0,-56.5 0,-75.5 90,-75.5 90,-56.5 0,-56.5"/>
<text text-anchor="middle" x="45" y="-63.5" font-family="Helvetica,sans-Serif" font-size="10.00">VPotDisplay.hpp</text>
</a>
</g>
</g>
<!-- Node24&#45;&gt;Node25 -->
<g id="edge4" class="edge"><title>Node24&#45;&gt;Node25</title>
<path fill="none" stroke="midnightblue" d="M130.997,-108.096C109.886,-98.0073 81.1385,-84.2697 62.8214,-75.5164"/>
<polygon fill="midnightblue" stroke="midnightblue" points="129.563,-111.29 140.095,-112.444 132.581,-104.974 129.563,-111.29"/>
</g>
<!-- Node26 -->
<g id="node5" class="node"><title>Node26</title>
<g id="a_node5"><a xlink:href="../../db/dbf/Control__Surface_8h.html" target="_top" xlink:title="The main header file that includes all Control&#45;Surface header files.">
<polygon fill="white" stroke="black" points="1036.5,-0.5 1036.5,-19.5 1131.5,-19.5 1131.5,-0.5 1036.5,-0.5"/>
<text text-anchor="middle" x="1084" y="-7.5" font-family="Helvetica,sans-Serif" font-size="10.00">Control_Surface.h</text>
</a>
</g>
</g>
<!-- Node24&#45;&gt;Node26 -->
<g id="edge7" class="edge"><title>Node24&#45;&gt;Node26</title>
<path fill="none" stroke="midnightblue" d="M144.333,-104.099C134.344,-89.6152 124.529,-69.0773 137,-56 168.308,-23.1685 848.249,-13.5095 1036.22,-11.462"/>
<polygon fill="midnightblue" stroke="midnightblue" points="141.597,-106.285 150.377,-112.215 147.211,-102.104 141.597,-106.285"/>
</g>
<!-- Node28 -->
<g id="node7" class="node"><title>Node28</title>
<g id="a_node7"><a xlink:href="../../dc/d48/VPotRingLEDs_8hpp.html" target="_top" xlink:title=" ">
<polygon fill="white" stroke="black" points="146,-56.5 146,-75.5 248,-75.5 248,-56.5 146,-56.5"/>
<text text-anchor="middle" x="197" y="-63.5" font-family="Helvetica,sans-Serif" font-size="10.00">VPotRingLEDs.hpp</text>
</a>
</g>
</g>
<!-- Node24&#45;&gt;Node28 -->
<g id="edge8" class="edge"><title>Node24&#45;&gt;Node28</title>
<path fill="none" stroke="midnightblue" d="M170.382,-103.855C177.135,-94.5048 185.209,-83.3265 190.68,-75.7511"/>
<polygon fill="midnightblue" stroke="midnightblue" points="167.458,-101.927 164.44,-112.083 173.132,-106.025 167.458,-101.927"/>
</g>
<!-- Node25&#45;&gt;Node26 -->
<g id="edge5" class="edge"><title>Node25&#45;&gt;Node26</title>
<path fill="none" stroke="midnightblue" d="M100.133,-56.4041C101.433,-56.2614 102.724,-56.1263 104,-56 461.201,-20.6543 894.449,-13.007 1036.45,-11.4079"/>
<polygon fill="midnightblue" stroke="midnightblue" points="99.5415,-52.9501 90.0362,-57.6298 100.385,-59.8991 99.5415,-52.9501"/>
</g>
<!-- Node27 -->
<g id="node6" class="node"><title>Node27</title>
<g id="a_node6"><a xlink:href="../../d7/db9/VPotDisplay_8cpp.html" target="_top" xlink:title=" ">
<polygon fill="white" stroke="black" points="0,-0.5 0,-19.5 90,-19.5 90,-0.5 0,-0.5"/>
<text text-anchor="middle" x="45" y="-7.5" font-family="Helvetica,sans-Serif" font-size="10.00">VPotDisplay.cpp</text>
</a>
</g>
</g>
<!-- Node25&#45;&gt;Node27 -->
<g id="edge6" class="edge"><title>Node25&#45;&gt;Node27</title>
<path fill="none" stroke="midnightblue" d="M45,-45.8045C45,-36.9102 45,-26.7798 45,-19.7511"/>
<polygon fill="midnightblue" stroke="midnightblue" points="41.5001,-46.083 45,-56.083 48.5001,-46.083 41.5001,-46.083"/>
</g>
<!-- Node28&#45;&gt;Node26 -->
<g id="edge9" class="edge"><title>Node28&#45;&gt;Node26</title>
<path fill="none" stroke="midnightblue" d="M258.136,-56.388C259.435,-56.2526 260.724,-56.123 262,-56 555.415,-27.7043 909.598,-15.793 1036.18,-12.232"/>
<polygon fill="midnightblue" stroke="midnightblue" points="257.593,-52.927 248.048,-57.5247 258.377,-59.8829 257.593,-52.927"/>
</g>
<!-- Node29&#45;&gt;Node26 -->
<g id="edge17" class="edge"><title>Node29&#45;&gt;Node26</title>
<path fill="none" stroke="midnightblue" d="M405.702,-170.794C367.667,-163.303 310.841,-149.503 298,-132 280.838,-108.608 307.332,-66.8343 323,-56 381.545,-15.5167 879.082,-11.2951 1036.47,-10.9791"/>
<polygon fill="midnightblue" stroke="midnightblue" points="405.401,-174.299 415.88,-172.737 406.714,-167.424 405.401,-174.299"/>
</g>
<!-- Node30 -->
<g id="node9" class="node"><title>Node30</title>
<g id="a_node9"><a xlink:href="../../dc/de8/AudioVU_8hpp.html" target="_top" xlink:title=" ">
<polygon fill="white" stroke="black" points="307,-112.5 307,-131.5 381,-131.5 381,-112.5 307,-112.5"/>
<text text-anchor="middle" x="344" y="-119.5" font-family="Helvetica,sans-Serif" font-size="10.00">AudioVU.hpp</text>
</a>
</g>
</g>
<!-- Node29&#45;&gt;Node30 -->
<g id="edge11" class="edge"><title>Node29&#45;&gt;Node30</title>
<path fill="none" stroke="midnightblue" d="M416.665,-163.453C398.757,-153.483 374.946,-140.228 359.546,-131.655"/>
<polygon fill="midnightblue" stroke="midnightblue" points="414.975,-166.518 425.415,-168.324 418.38,-160.402 414.975,-166.518"/>
</g>
<!-- Node32 -->
<g id="node11" class="node"><title>Node32</title>
<g id="a_node11"><a xlink:href="../../d0/db9/VUDisplay_8hpp.html" target="_top" xlink:title=" ">
<polygon fill="white" stroke="black" points="399.5,-112.5 399.5,-131.5 482.5,-131.5 482.5,-112.5 399.5,-112.5"/>
<text text-anchor="middle" x="441" y="-119.5" font-family="Helvetica,sans-Serif" font-size="10.00">VUDisplay.hpp</text>
</a>
</g>
</g>
<!-- Node29&#45;&gt;Node32 -->
<g id="edge15" class="edge"><title>Node29&#45;&gt;Node32</title>
<path fill="none" stroke="midnightblue" d="M441,-157.805C441,-148.91 441,-138.78 441,-131.751"/>
<polygon fill="midnightblue" stroke="midnightblue" points="437.5,-158.083 441,-168.083 444.5,-158.083 437.5,-158.083"/>
</g>
<!-- Node33 -->
<g id="node12" class="node"><title>Node33</title>
<g id="a_node12"><a xlink:href="../../d3/d52/MIDI__Inputs_2LEDs_2MCU_2VULEDs_8hpp.html" target="_top" xlink:title=" ">
<polygon fill="white" stroke="black" points="501,-112.5 501,-131.5 575,-131.5 575,-112.5 501,-112.5"/>
<text text-anchor="middle" x="538" y="-119.5" font-family="Helvetica,sans-Serif" font-size="10.00">VULEDs.hpp</text>
</a>
</g>
</g>
<!-- Node29&#45;&gt;Node33 -->
<g id="edge18" class="edge"><title>Node29&#45;&gt;Node33</title>
<path fill="none" stroke="midnightblue" d="M465.335,-163.453C483.243,-153.483 507.054,-140.228 522.454,-131.655"/>
<polygon fill="midnightblue" stroke="midnightblue" points="463.62,-160.402 456.585,-168.324 467.025,-166.518 463.62,-160.402"/>
</g>
<!-- Node30&#45;&gt;Node26 -->
<g id="edge14" class="edge"><title>Node30&#45;&gt;Node26</title>
<path fill="none" stroke="midnightblue" d="M333.782,-103.078C326.99,-88.5309 321.268,-68.4556 333,-56 357.18,-30.328 875.204,-15.9414 1036.5,-12.0723"/>
<polygon fill="midnightblue" stroke="midnightblue" points="330.748,-104.832 338.453,-112.105 336.965,-101.615 330.748,-104.832"/>
</g>
<!-- Node31 -->
<g id="node10" class="node"><title>Node31</title>
<g id="a_node10"><a xlink:href="../../d4/dde/AudioVULEDs_8hpp.html" target="_top" xlink:title=" ">
<polygon fill="white" stroke="black" points="342.5,-56.5 342.5,-75.5 441.5,-75.5 441.5,-56.5 342.5,-56.5"/>
<text text-anchor="middle" x="392" y="-63.5" font-family="Helvetica,sans-Serif" font-size="10.00">AudioVULEDs.hpp</text>
</a>
</g>
</g>
<!-- Node30&#45;&gt;Node31 -->
<g id="edge12" class="edge"><title>Node30&#45;&gt;Node31</title>
<path fill="none" stroke="midnightblue" d="M358.728,-104.431C367.14,-94.9673 377.349,-83.4827 384.221,-75.7511"/>
<polygon fill="midnightblue" stroke="midnightblue" points="355.954,-102.284 351.926,-112.083 361.186,-106.934 355.954,-102.284"/>
</g>
<!-- Node31&#45;&gt;Node26 -->
<g id="edge13" class="edge"><title>Node31&#45;&gt;Node26</title>
<path fill="none" stroke="midnightblue" d="M451.558,-56.4878C453.053,-56.3183 454.536,-56.1553 456,-56 672.038,-33.0966 931.151,-18.6325 1036.24,-13.3087"/>
<polygon fill="midnightblue" stroke="midnightblue" points="451.083,-53.0196 441.573,-57.6888 451.919,-59.9695 451.083,-53.0196"/>
</g>
<!-- Node32&#45;&gt;Node26 -->
<g id="edge16" class="edge"><title>Node32&#45;&gt;Node26</title>
<path fill="none" stroke="midnightblue" d="M458.147,-105.829C476.83,-90.2916 508.307,-66.9178 540,-56 631.168,-24.594 921.147,-14.6831 1036.25,-11.9389"/>
<polygon fill="midnightblue" stroke="midnightblue" points="455.846,-103.191 450.509,-112.343 460.389,-108.517 455.846,-103.191"/>
</g>
<!-- Node33&#45;&gt;Node26 -->
<g id="edge19" class="edge"><title>Node33&#45;&gt;Node26</title>
<path fill="none" stroke="midnightblue" d="M537.784,-102.031C538.721,-87.1234 542.646,-67.0853 556,-56 592.5,-25.7011 912.908,-15.0144 1036.06,-12.0051"/>
<polygon fill="midnightblue" stroke="midnightblue" points="534.281,-102.118 537.543,-112.198 541.279,-102.284 534.281,-102.118"/>
</g>
<!-- Node34&#45;&gt;Node26 -->
<g id="edge23" class="edge"><title>Node34&#45;&gt;Node26</title>
<path fill="none" stroke="midnightblue" d="M603.504,-108.055C577.69,-95.3403 547.465,-75.1208 565,-56 596.519,-21.6299 914.131,-13.432 1036.39,-11.5438"/>
<polygon fill="midnightblue" stroke="midnightblue" points="602.179,-111.3 612.718,-112.384 605.156,-104.964 602.179,-111.3"/>
</g>
<!-- Node35 -->
<g id="node14" class="node"><title>Node35</title>
<g id="a_node14"><a xlink:href="../../d2/d24/NoteBitmapDisplay_8hpp.html" target="_top" xlink:title=" ">
<polygon fill="white" stroke="black" points="574,-56.5 574,-75.5 694,-75.5 694,-56.5 574,-56.5"/>
<text text-anchor="middle" x="634" y="-63.5" font-family="Helvetica,sans-Serif" font-size="10.00">NoteBitmapDisplay.hpp</text>
</a>
</g>
</g>
<!-- Node34&#45;&gt;Node35 -->
<g id="edge21" class="edge"><title>Node34&#45;&gt;Node35</title>
<path fill="none" stroke="midnightblue" d="M634,-101.805C634,-92.9102 634,-82.7798 634,-75.7511"/>
<polygon fill="midnightblue" stroke="midnightblue" points="630.5,-102.083 634,-112.083 637.5,-102.083 630.5,-102.083"/>
</g>
<!-- Node36 -->
<g id="node15" class="node"><title>Node36</title>
<g id="a_node15"><a xlink:href="../../db/dff/MIDINoteLED_8hpp.html" target="_top" xlink:title=" ">
<polygon fill="white" stroke="black" points="712,-56.5 712,-75.5 810,-75.5 810,-56.5 712,-56.5"/>
<text text-anchor="middle" x="761" y="-63.5" font-family="Helvetica,sans-Serif" font-size="10.00">MIDINoteLED.hpp</text>
</a>
</g>
</g>
<!-- Node34&#45;&gt;Node36 -->
<g id="edge24" class="edge"><title>Node34&#45;&gt;Node36</title>
<path fill="none" stroke="midnightblue" d="M663.391,-108.503C687.2,-98.3795 720.106,-84.388 740.971,-75.5164"/>
<polygon fill="midnightblue" stroke="midnightblue" points="661.957,-105.31 654.124,-112.444 664.696,-111.751 661.957,-105.31"/>
</g>
<!-- Node35&#45;&gt;Node26 -->
<g id="edge22" class="edge"><title>Node35&#45;&gt;Node26</title>
<path fill="none" stroke="midnightblue" d="M704.415,-55.8363C830.373,-40.2334 966.239,-24.4852 1036.46,-16.4273"/>
<polygon fill="midnightblue" stroke="midnightblue" points="703.698,-52.3983 694.205,-57.1034 704.56,-59.345 703.698,-52.3983"/>
</g>
<!-- Node36&#45;&gt;Node26 -->
<g id="edge25" class="edge"><title>Node36&#45;&gt;Node26</title>
<path fill="none" stroke="midnightblue" d="M820.104,-55.1188C882.26,-44.7274 978.855,-28.5784 1036.33,-18.9699"/>
<polygon fill="midnightblue" stroke="midnightblue" points="819.343,-51.6974 810.057,-56.7986 820.497,-58.6016 819.343,-51.6974"/>
</g>
<!-- Node38 -->
<g id="node17" class="node"><title>Node38</title>
<g id="a_node17"><a xlink:href="../../dd/d2a/Bankable_2Abstract_2MIDIButton_8hpp.html" target="_top" xlink:title=" ">
<polygon fill="white" stroke="black" points="924,-112.5 924,-131.5 1010,-131.5 1010,-112.5 924,-112.5"/>
<text text-anchor="middle" x="967" y="-119.5" font-family="Helvetica,sans-Serif" font-size="10.00">MIDIButton.hpp</text>
</a>
</g>
</g>
<!-- Node37&#45;&gt;Node38 -->
<g id="edge27" class="edge"><title>Node37&#45;&gt;Node38</title>
<path fill="none" stroke="midnightblue" d="M1734.3,-172.268C1563.66,-161.311 1145.68,-134.473 1010.17,-125.772"/>
<polygon fill="midnightblue" stroke="midnightblue" points="1734.24,-175.771 1744.44,-172.919 1734.69,-168.785 1734.24,-175.771"/>
</g>
<!-- Node41 -->
<g id="node20" class="node"><title>Node41</title>
<g id="a_node20"><a xlink:href="../../d7/d4e/Bankable_2Abstract_2MIDIButtonLatched_8hpp.html" target="_top" xlink:title=" ">
<polygon fill="white" stroke="black" points="1158,-112.5 1158,-131.5 1278,-131.5 1278,-112.5 1158,-112.5"/>
<text text-anchor="middle" x="1218" y="-119.5" font-family="Helvetica,sans-Serif" font-size="10.00">MIDIButtonLatched.hpp</text>
</a>
</g>
</g>
<!-- Node37&#45;&gt;Node41 -->
<g id="edge32" class="edge"><title>Node37&#45;&gt;Node41</title>
<path fill="none" stroke="midnightblue" d="M1734.27,-170.252C1616.28,-159.452 1387.25,-138.491 1278.34,-128.523"/>
<polygon fill="midnightblue" stroke="midnightblue" points="1734.02,-173.744 1744.3,-171.17 1734.66,-166.773 1734.02,-173.744"/>
</g>
<!-- Node44 -->
<g id="node23" class="node"><title>Node44</title>
<g id="a_node23"><a xlink:href="../../d4/d8c/Bankable_2Abstract_2MIDIButtonLatching_8hpp.html" target="_top" xlink:title=" ">
<polygon fill="white" stroke="black" points="1430,-112.5 1430,-131.5 1552,-131.5 1552,-112.5 1430,-112.5"/>
<text text-anchor="middle" x="1491" y="-119.5" font-family="Helvetica,sans-Serif" font-size="10.00">MIDIButtonLatching.hpp</text>
</a>
</g>
</g>
<!-- Node37&#45;&gt;Node44 -->
<g id="edge37" class="edge"><title>Node37&#45;&gt;Node44</title>
<path fill="none" stroke="midnightblue" d="M1747.7,-166.727C1687.79,-156.523 1597.01,-141.058 1540.99,-131.516"/>
<polygon fill="midnightblue" stroke="midnightblue" points="1747.32,-170.214 1757.77,-168.444 1748.5,-163.314 1747.32,-170.214"/>
</g>
<!-- Node47 -->
<g id="node26" class="node"><title>Node47</title>
<g id="a_node26"><a xlink:href="../../d5/d5e/Bankable_2Abstract_2MIDIButtonMatrix_8hpp.html" target="_top" xlink:title=" ">
<polygon fill="white" stroke="black" points="1691.5,-112.5 1691.5,-131.5 1804.5,-131.5 1804.5,-112.5 1691.5,-112.5"/>
<text text-anchor="middle" x="1748" y="-119.5" font-family="Helvetica,sans-Serif" font-size="10.00">MIDIButtonMatrix.hpp</text>
</a>
</g>
</g>
<!-- Node37&#45;&gt;Node47 -->
<g id="edge42" class="edge"><title>Node37&#45;&gt;Node47</title>
<path fill="none" stroke="midnightblue" d="M1790.82,-161.537C1780.12,-151.909 1766.74,-139.869 1757.82,-131.834"/>
<polygon fill="midnightblue" stroke="midnightblue" points="1788.59,-164.236 1798.36,-168.324 1793.27,-159.033 1788.59,-164.236"/>
</g>
<!-- Node50 -->
<g id="node29" class="node"><title>Node50</title>
<g id="a_node29"><a xlink:href="../../d9/df7/Bankable_2Abstract_2MIDIButtons_8hpp.html" target="_top" xlink:title=" ">
<polygon fill="white" stroke="black" points="1822.5,-112.5 1822.5,-131.5 1913.5,-131.5 1913.5,-112.5 1822.5,-112.5"/>
<text text-anchor="middle" x="1868" y="-119.5" font-family="Helvetica,sans-Serif" font-size="10.00">MIDIButtons.hpp</text>
</a>
</g>
</g>
<!-- Node37&#45;&gt;Node50 -->
<g id="edge47" class="edge"><title>Node37&#45;&gt;Node50</title>
<path fill="none" stroke="midnightblue" d="M1825.18,-161.537C1835.88,-151.909 1849.26,-139.869 1858.18,-131.834"/>
<polygon fill="midnightblue" stroke="midnightblue" points="1822.73,-159.033 1817.64,-168.324 1827.41,-164.236 1822.73,-159.033"/>
</g>
<!-- Node53 -->
<g id="node32" class="node"><title>Node53</title>
<g id="a_node32"><a xlink:href="../../d5/d4d/Bankable_2Abstract_2MIDIFilteredAnalog_8hpp.html" target="_top" xlink:title=" ">
<polygon fill="white" stroke="black" points="2030.5,-112.5 2030.5,-131.5 2149.5,-131.5 2149.5,-112.5 2030.5,-112.5"/>
<text text-anchor="middle" x="2090" y="-119.5" font-family="Helvetica,sans-Serif" font-size="10.00">MIDIFilteredAnalog.hpp</text>
</a>
</g>
</g>
<!-- Node37&#45;&gt;Node53 -->
<g id="edge52" class="edge"><title>Node37&#45;&gt;Node53</title>
<path fill="none" stroke="midnightblue" d="M1862.64,-166.537C1915.94,-156.332 1996,-140.999 2045.53,-131.516"/>
<polygon fill="midnightblue" stroke="midnightblue" points="1861.85,-163.125 1852.68,-168.444 1863.16,-170 1861.85,-163.125"/>
</g>
<!-- Node56 -->
<g id="node35" class="node"><title>Node56</title>
<g id="a_node35"><a xlink:href="../../de/dc8/Bankable_2Abstract_2MIDIIncrementDecrementButtons_8hpp.html" target="_top" xlink:title=" ">
<polygon fill="white" stroke="black" points="2171,-112.5 2171,-131.5 2353,-131.5 2353,-112.5 2171,-112.5"/>
<text text-anchor="middle" x="2262" y="-119.5" font-family="Helvetica,sans-Serif" font-size="10.00">MIDIIncrementDecrementButtons.hpp</text>
</a>
</g>
</g>
<!-- Node37&#45;&gt;Node56 -->
<g id="edge57" class="edge"><title>Node37&#45;&gt;Node56</title>
<path fill="none" stroke="midnightblue" d="M1881.71,-168.233C1966.83,-158.108 2105.93,-141.564 2190.22,-131.538"/>
<polygon fill="midnightblue" stroke="midnightblue" points="1881.12,-164.778 1871.6,-169.435 1881.95,-171.729 1881.12,-164.778"/>
</g>
<!-- Node58 -->
<g id="node37" class="node"><title>Node58</title>
<g id="a_node37"><a xlink:href="../../da/dd5/Bankable_2Abstract_2MIDIRotaryEncoder_8hpp.html" target="_top" xlink:title=" ">
<polygon fill="white" stroke="black" points="2381,-112.5 2381,-131.5 2503,-131.5 2503,-112.5 2381,-112.5"/>
<text text-anchor="middle" x="2442" y="-119.5" font-family="Helvetica,sans-Serif" font-size="10.00">MIDIRotaryEncoder.hpp</text>
</a>
</g>
</g>
<!-- Node37&#45;&gt;Node58 -->
<g id="edge60" class="edge"><title>Node37&#45;&gt;Node58</title>
<path fill="none" stroke="midnightblue" d="M1881.91,-171.728C1988.18,-163.981 2190.27,-148.63 2362,-132 2368.12,-131.407 2374.5,-130.752 2380.87,-130.074"/>
<polygon fill="midnightblue" stroke="midnightblue" points="1881.34,-168.26 1871.62,-172.476 1881.85,-175.242 1881.34,-168.26"/>
</g>
<!-- Node39 -->
<g id="node18" class="node"><title>Node39</title>
<g id="a_node18"><a xlink:href="../../db/d15/Bankable_2CCButton_8hpp.html" target="_top" xlink:title=" ">
<polygon fill="white" stroke="black" points="827.5,-56.5 827.5,-75.5 906.5,-75.5 906.5,-56.5 827.5,-56.5"/>
<text text-anchor="middle" x="867" y="-63.5" font-family="Helvetica,sans-Serif" font-size="10.00">CCButton.hpp</text>
</a>
</g>
</g>
<!-- Node38&#45;&gt;Node39 -->
<g id="edge28" class="edge"><title>Node38&#45;&gt;Node39</title>
<path fill="none" stroke="midnightblue" d="M941.912,-107.453C923.451,-97.4835 898.903,-84.2279 883.027,-75.6545"/>
<polygon fill="midnightblue" stroke="midnightblue" points="940.471,-110.652 950.933,-112.324 943.797,-104.493 940.471,-110.652"/>
</g>
<!-- Node40 -->
<g id="node19" class="node"><title>Node40</title>
<g id="a_node19"><a xlink:href="../../d5/d8e/Bankable_2NoteButton_8hpp.html" target="_top" xlink:title=" ">
<polygon fill="white" stroke="black" points="924.5,-56.5 924.5,-75.5 1009.5,-75.5 1009.5,-56.5 924.5,-56.5"/>
<text text-anchor="middle" x="967" y="-63.5" font-family="Helvetica,sans-Serif" font-size="10.00">NoteButton.hpp</text>
</a>
</g>
</g>
<!-- Node38&#45;&gt;Node40 -->
<g id="edge30" class="edge"><title>Node38&#45;&gt;Node40</title>
<path fill="none" stroke="midnightblue" d="M967,-101.805C967,-92.9102 967,-82.7798 967,-75.7511"/>
<polygon fill="midnightblue" stroke="midnightblue" points="963.5,-102.083 967,-112.083 970.5,-102.083 963.5,-102.083"/>
</g>
<!-- Node39&#45;&gt;Node26 -->
<g id="edge29" class="edge"><title>Node39&#45;&gt;Node26</title>
<path fill="none" stroke="midnightblue" d="M911.108,-54.0237C952.1,-43.8232 1012.3,-28.8414 1049.78,-19.5164"/>
<polygon fill="midnightblue" stroke="midnightblue" points="910.243,-50.6322 901.384,-56.4435 911.934,-57.425 910.243,-50.6322"/>
</g>
<!-- Node40&#45;&gt;Node26 -->
<g id="edge31" class="edge"><title>Node40&#45;&gt;Node26</title>
<path fill="none" stroke="midnightblue" d="M994.664,-52.2321C1016.55,-42.1312 1046.5,-28.3091 1065.55,-19.5164"/>
<polygon fill="midnightblue" stroke="midnightblue" points="993.152,-49.075 985.539,-56.4435 996.085,-55.4308 993.152,-49.075"/>
</g>
<!-- Node42 -->
<g id="node21" class="node"><title>Node42</title>
<g id="a_node21"><a xlink:href="../../db/d53/Bankable_2CCButtonLatched_8hpp.html" target="_top" xlink:title=" ">
<polygon fill="white" stroke="black" points="1027.5,-56.5 1027.5,-75.5 1140.5,-75.5 1140.5,-56.5 1027.5,-56.5"/>
<text text-anchor="middle" x="1084" y="-63.5" font-family="Helvetica,sans-Serif" font-size="10.00">CCButtonLatched.hpp</text>
</a>
</g>
</g>
<!-- Node41&#45;&gt;Node42 -->
<g id="edge33" class="edge"><title>Node41&#45;&gt;Node42</title>
<path fill="none" stroke="midnightblue" d="M1187.32,-108.638C1162.18,-98.504 1127.25,-84.4274 1105.13,-75.5164"/>
<polygon fill="midnightblue" stroke="midnightblue" points="1186.18,-111.952 1196.77,-112.444 1188.8,-105.459 1186.18,-111.952"/>
</g>
<!-- Node43 -->
<g id="node22" class="node"><title>Node43</title>
<g id="a_node22"><a xlink:href="../../df/de8/Bankable_2NoteButtonLatched_8hpp.html" target="_top" xlink:title=" ">
<polygon fill="white" stroke="black" points="1158.5,-56.5 1158.5,-75.5 1277.5,-75.5 1277.5,-56.5 1158.5,-56.5"/>
<text text-anchor="middle" x="1218" y="-63.5" font-family="Helvetica,sans-Serif" font-size="10.00">NoteButtonLatched.hpp</text>
</a>
</g>
</g>
<!-- Node41&#45;&gt;Node43 -->
<g id="edge35" class="edge"><title>Node41&#45;&gt;Node43</title>
<path fill="none" stroke="midnightblue" d="M1218,-101.805C1218,-92.9102 1218,-82.7798 1218,-75.7511"/>
<polygon fill="midnightblue" stroke="midnightblue" points="1214.5,-102.083 1218,-112.083 1221.5,-102.083 1214.5,-102.083"/>
</g>
<!-- Node42&#45;&gt;Node26 -->
<g id="edge34" class="edge"><title>Node42&#45;&gt;Node26</title>
<path fill="none" stroke="midnightblue" d="M1084,-45.8045C1084,-36.9102 1084,-26.7798 1084,-19.7511"/>
<polygon fill="midnightblue" stroke="midnightblue" points="1080.5,-46.083 1084,-56.083 1087.5,-46.083 1080.5,-46.083"/>
</g>
<!-- Node43&#45;&gt;Node26 -->
<g id="edge36" class="edge"><title>Node43&#45;&gt;Node26</title>
<path fill="none" stroke="midnightblue" d="M1187.32,-52.6377C1162.18,-42.504 1127.25,-28.4274 1105.13,-19.5164"/>
<polygon fill="midnightblue" stroke="midnightblue" points="1186.18,-55.952 1196.77,-56.4435 1188.8,-49.4594 1186.18,-55.952"/>
</g>
<!-- Node45 -->
<g id="node24" class="node"><title>Node45</title>
<g id="a_node24"><a xlink:href="../../d2/dac/Bankable_2CCButtonLatching_8hpp.html" target="_top" xlink:title=" ">
<polygon fill="white" stroke="black" points="1296,-56.5 1296,-75.5 1412,-75.5 1412,-56.5 1296,-56.5"/>
<text text-anchor="middle" x="1354" y="-63.5" font-family="Helvetica,sans-Serif" font-size="10.00">CCButtonLatching.hpp</text>
</a>
</g>
</g>
<!-- Node44&#45;&gt;Node45 -->
<g id="edge38" class="edge"><title>Node44&#45;&gt;Node45</title>
<path fill="none" stroke="midnightblue" d="M1459.98,-108.772C1434.24,-98.6287 1398.31,-84.4669 1375.61,-75.5164"/>
<polygon fill="midnightblue" stroke="midnightblue" points="1458.71,-112.033 1469.29,-112.444 1461.27,-105.52 1458.71,-112.033"/>
</g>
<!-- Node46 -->
<g id="node25" class="node"><title>Node46</title>
<g id="a_node25"><a xlink:href="../../d6/d6e/Bankable_2NoteButtonLatching_8hpp.html" target="_top" xlink:title=" ">
<polygon fill="white" stroke="black" points="1430,-56.5 1430,-75.5 1552,-75.5 1552,-56.5 1430,-56.5"/>
<text text-anchor="middle" x="1491" y="-63.5" font-family="Helvetica,sans-Serif" font-size="10.00">NoteButtonLatching.hpp</text>
</a>
</g>
</g>
<!-- Node44&#45;&gt;Node46 -->
<g id="edge40" class="edge"><title>Node44&#45;&gt;Node46</title>
<path fill="none" stroke="midnightblue" d="M1491,-101.805C1491,-92.9102 1491,-82.7798 1491,-75.7511"/>
<polygon fill="midnightblue" stroke="midnightblue" points="1487.5,-102.083 1491,-112.083 1494.5,-102.083 1487.5,-102.083"/>
</g>
<!-- Node45&#45;&gt;Node26 -->
<g id="edge39" class="edge"><title>Node45&#45;&gt;Node26</title>
<path fill="none" stroke="midnightblue" d="M1301.37,-54.4734C1250.34,-44.2678 1173.9,-28.9794 1126.58,-19.5164"/>
<polygon fill="midnightblue" stroke="midnightblue" points="1300.73,-57.9143 1311.22,-56.4435 1302.1,-51.0503 1300.73,-57.9143"/>
</g>
<!-- Node46&#45;&gt;Node26 -->
<g id="edge41" class="edge"><title>Node46&#45;&gt;Node26</title>
<path fill="none" stroke="midnightblue" d="M1419.54,-55.5188C1336.71,-44.5296 1202.53,-26.727 1131.55,-17.3087"/>
<polygon fill="midnightblue" stroke="midnightblue" points="1419.25,-59.0114 1429.63,-56.8572 1420.17,-52.0723 1419.25,-59.0114"/>
</g>
<!-- Node48 -->
<g id="node27" class="node"><title>Node48</title>
<g id="a_node27"><a xlink:href="../../d9/d55/Bankable_2CCButtonMatrix_8hpp.html" target="_top" xlink:title=" ">
<polygon fill="white" stroke="black" points="1570,-56.5 1570,-75.5 1676,-75.5 1676,-56.5 1570,-56.5"/>
<text text-anchor="middle" x="1623" y="-63.5" font-family="Helvetica,sans-Serif" font-size="10.00">CCButtonMatrix.hpp</text>
</a>
</g>
</g>
<!-- Node47&#45;&gt;Node48 -->
<g id="edge43" class="edge"><title>Node47&#45;&gt;Node48</title>
<path fill="none" stroke="midnightblue" d="M1718.76,-108.368C1695.35,-98.2553 1663.16,-84.3486 1642.71,-75.5164"/>
<polygon fill="midnightblue" stroke="midnightblue" points="1717.63,-111.691 1728.19,-112.444 1720.4,-105.265 1717.63,-111.691"/>
</g>
<!-- Node49 -->
<g id="node28" class="node"><title>Node49</title>
<g id="a_node28"><a xlink:href="../../dc/dde/Bankable_2NoteButtonMatrix_8hpp.html" target="_top" xlink:title=" ">
<polygon fill="white" stroke="black" points="1694,-56.5 1694,-75.5 1806,-75.5 1806,-56.5 1694,-56.5"/>
<text text-anchor="middle" x="1750" y="-63.5" font-family="Helvetica,sans-Serif" font-size="10.00">NoteButtonMatrix.hpp</text>
</a>
</g>
</g>
<!-- Node47&#45;&gt;Node49 -->
<g id="edge45" class="edge"><title>Node47&#45;&gt;Node49</title>
<path fill="none" stroke="midnightblue" d="M1748.71,-101.805C1749.04,-92.9102 1749.42,-82.7798 1749.68,-75.7511"/>
<polygon fill="midnightblue" stroke="midnightblue" points="1745.2,-101.96 1748.33,-112.083 1752.2,-102.219 1745.2,-101.96"/>
</g>
<!-- Node48&#45;&gt;Node26 -->
<g id="edge44" class="edge"><title>Node48&#45;&gt;Node26</title>
<path fill="none" stroke="midnightblue" d="M1559.71,-55.8997C1396.68,-36.6059 1216.06,-21.4295 1131.82,-14.7132"/>
<polygon fill="midnightblue" stroke="midnightblue" points="1559.58,-59.4091 1569.92,-57.1169 1560.41,-52.4583 1559.58,-59.4091"/>
</g>
<!-- Node49&#45;&gt;Node26 -->
<g id="edge46" class="edge"><title>Node49&#45;&gt;Node26</title>
<path fill="none" stroke="midnightblue" d="M1683.6,-55.9115C1471.86,-33.6399 1231.79,-19.1205 1131.62,-13.5453"/>
<polygon fill="midnightblue" stroke="midnightblue" points="1683.34,-59.4042 1693.66,-56.9779 1684.08,-52.4432 1683.34,-59.4042"/>
</g>
<!-- Node51 -->
<g id="node30" class="node"><title>Node51</title>
<g id="a_node30"><a xlink:href="../../d7/d16/Bankable_2CCButtons_8hpp.html" target="_top" xlink:title=" ">
<polygon fill="white" stroke="black" points="1824,-56.5 1824,-75.5 1908,-75.5 1908,-56.5 1824,-56.5"/>
<text text-anchor="middle" x="1866" y="-63.5" font-family="Helvetica,sans-Serif" font-size="10.00">CCButtons.hpp</text>
</a>
</g>
</g>
<!-- Node50&#45;&gt;Node51 -->
<g id="edge48" class="edge"><title>Node50&#45;&gt;Node51</title>
<path fill="none" stroke="midnightblue" d="M1867.29,-101.805C1866.96,-92.9102 1866.58,-82.7798 1866.32,-75.7511"/>
<polygon fill="midnightblue" stroke="midnightblue" points="1863.8,-102.219 1867.67,-112.083 1870.8,-101.96 1863.8,-102.219"/>
</g>
<!-- Node52 -->
<g id="node31" class="node"><title>Node52</title>
<g id="a_node31"><a xlink:href="../../dd/dbb/Bankable_2NoteButtons_8hpp.html" target="_top" xlink:title=" ">
<polygon fill="white" stroke="black" points="1926,-56.5 1926,-75.5 2016,-75.5 2016,-56.5 1926,-56.5"/>
<text text-anchor="middle" x="1971" y="-63.5" font-family="Helvetica,sans-Serif" font-size="10.00">NoteButtons.hpp</text>
</a>
</g>
</g>
<!-- Node50&#45;&gt;Node52 -->
<g id="edge50" class="edge"><title>Node50&#45;&gt;Node52</title>
<path fill="none" stroke="midnightblue" d="M1893.58,-107.59C1912.62,-97.6052 1938.06,-84.2672 1954.49,-75.6545"/>
<polygon fill="midnightblue" stroke="midnightblue" points="1891.78,-104.581 1884.55,-112.324 1895.03,-110.78 1891.78,-104.581"/>
</g>
<!-- Node51&#45;&gt;Node26 -->
<g id="edge49" class="edge"><title>Node51&#45;&gt;Node26</title>
<path fill="none" stroke="midnightblue" d="M1813.63,-55.9715C1550.53,-25.2913 1246.97,-15.0496 1131.63,-12.0667"/>
<polygon fill="midnightblue" stroke="midnightblue" points="1813.41,-59.4706 1823.75,-57.1652 1814.23,-52.5187 1813.41,-59.4706"/>
</g>
<!-- Node52&#45;&gt;Node26 -->
<g id="edge51" class="edge"><title>Node52&#45;&gt;Node26</title>
<path fill="none" stroke="midnightblue" d="M1915.62,-55.9793C1611.3,-23.054 1257.73,-14.0255 1131.58,-11.7204"/>
<polygon fill="midnightblue" stroke="midnightblue" points="1915.65,-59.5033 1925.97,-57.1105 1916.41,-52.5447 1915.65,-59.5033"/>
</g>
<!-- Node54 -->
<g id="node33" class="node"><title>Node54</title>
<g id="a_node33"><a xlink:href="../../d6/ddd/Bankable_2CCPotentiometer_8hpp.html" target="_top" xlink:title=" ">
<polygon fill="white" stroke="black" points="2034.5,-56.5 2034.5,-75.5 2145.5,-75.5 2145.5,-56.5 2034.5,-56.5"/>
<text text-anchor="middle" x="2090" y="-63.5" font-family="Helvetica,sans-Serif" font-size="10.00">CCPotentiometer.hpp</text>
</a>
</g>
</g>
<!-- Node53&#45;&gt;Node54 -->
<g id="edge53" class="edge"><title>Node53&#45;&gt;Node54</title>
<path fill="none" stroke="midnightblue" d="M2090,-101.805C2090,-92.9102 2090,-82.7798 2090,-75.7511"/>
<polygon fill="midnightblue" stroke="midnightblue" points="2086.5,-102.083 2090,-112.083 2093.5,-102.083 2086.5,-102.083"/>
</g>
<!-- Node55 -->
<g id="node34" class="node"><title>Node55</title>
<g id="a_node34"><a xlink:href="../../d9/d99/Bankable_2PBPotentiometer_8hpp.html" target="_top" xlink:title=" ">
<polygon fill="white" stroke="black" points="2164,-56.5 2164,-75.5 2274,-75.5 2274,-56.5 2164,-56.5"/>
<text text-anchor="middle" x="2219" y="-63.5" font-family="Helvetica,sans-Serif" font-size="10.00">PBPotentiometer.hpp</text>
</a>
</g>
</g>
<!-- Node53&#45;&gt;Node55 -->
<g id="edge55" class="edge"><title>Node53&#45;&gt;Node55</title>
<path fill="none" stroke="midnightblue" d="M2119.85,-108.503C2144.04,-98.3795 2177.46,-84.388 2198.66,-75.5164"/>
<polygon fill="midnightblue" stroke="midnightblue" points="2118.31,-105.354 2110.44,-112.444 2121.02,-111.811 2118.31,-105.354"/>
</g>
<!-- Node54&#45;&gt;Node26 -->
<g id="edge54" class="edge"><title>Node54&#45;&gt;Node26</title>
<path fill="none" stroke="midnightblue" d="M2024.33,-56.0344C1675.57,-24.0606 1268.56,-14.2942 1131.6,-11.7666"/>
<polygon fill="midnightblue" stroke="midnightblue" points="2024.09,-59.5272 2034.37,-56.9626 2024.73,-52.5569 2024.09,-59.5272"/>
</g>
<!-- Node55&#45;&gt;Node26 -->
<g id="edge56" class="edge"><title>Node55&#45;&gt;Node26</title>
<path fill="none" stroke="midnightblue" d="M2153.65,-56.0783C1752.12,-20.3971 1280.64,-12.9203 1131.57,-11.3814"/>
<polygon fill="midnightblue" stroke="midnightblue" points="2153.45,-59.5739 2163.72,-56.9802 2154.08,-52.6019 2153.45,-59.5739"/>
</g>
<!-- Node57 -->
<g id="node36" class="node"><title>Node57</title>
<g id="a_node36"><a xlink:href="../../d7/dcc/Bankable_2CCIncrementDecrementButtons_8hpp.html" target="_top" xlink:title=" ">
<polygon fill="white" stroke="black" points="2292,-56.5 2292,-75.5 2468,-75.5 2468,-56.5 2292,-56.5"/>
<text text-anchor="middle" x="2380" y="-63.5" font-family="Helvetica,sans-Serif" font-size="10.00">CCIncrementDecrementButtons.hpp</text>
</a>
</g>
</g>
<!-- Node56&#45;&gt;Node57 -->
<g id="edge58" class="edge"><title>Node56&#45;&gt;Node57</title>
<path fill="none" stroke="midnightblue" d="M2289.9,-108.232C2311.97,-98.1312 2342.18,-84.3091 2361.39,-75.5164"/>
<polygon fill="midnightblue" stroke="midnightblue" points="2288.33,-105.1 2280.7,-112.444 2291.25,-111.465 2288.33,-105.1"/>
</g>
<!-- Node57&#45;&gt;Node26 -->
<g id="edge59" class="edge"><title>Node57&#45;&gt;Node26</title>
<path fill="none" stroke="midnightblue" d="M2281.95,-55.9706C1827.9,-26.7108 1292.33,-14.9031 1131.74,-11.8486"/>
<polygon fill="midnightblue" stroke="midnightblue" points="2281.78,-59.4669 2291.99,-56.6211 2282.24,-52.4816 2281.78,-59.4669"/>
</g>
<!-- Node59 -->
<g id="node38" class="node"><title>Node59</title>
<g id="a_node38"><a xlink:href="../../dc/d8b/Bankable_2CCRotaryEncoder_8hpp.html" target="_top" xlink:title=" ">
<polygon fill="white" stroke="black" points="2486,-56.5 2486,-75.5 2602,-75.5 2602,-56.5 2486,-56.5"/>
<text text-anchor="middle" x="2544" y="-63.5" font-family="Helvetica,sans-Serif" font-size="10.00">CCRotaryEncoder.hpp</text>
</a>
</g>
</g>
<!-- Node58&#45;&gt;Node59 -->
<g id="edge61" class="edge"><title>Node58&#45;&gt;Node59</title>
<path fill="none" stroke="midnightblue" d="M2467.33,-107.59C2486.19,-97.6052 2511.38,-84.2672 2527.65,-75.6545"/>
<polygon fill="midnightblue" stroke="midnightblue" points="2465.59,-104.552 2458.39,-112.324 2468.86,-110.738 2465.59,-104.552"/>
</g>
<!-- Node59&#45;&gt;Node26 -->
<g id="edge62" class="edge"><title>Node59&#45;&gt;Node26</title>
<path fill="none" stroke="midnightblue" d="M2475.73,-55.9907C1942.6,-12.2418 1308.2,-10.3972 1131.61,-10.794"/>
<polygon fill="midnightblue" stroke="midnightblue" points="2475.68,-59.4985 2485.93,-56.8343 2476.26,-52.5222 2475.68,-59.4985"/>
</g>
<!-- Node61 -->
<g id="node40" class="node"><title>Node61</title>
<g id="a_node40"><a xlink:href="../../d4/dba/ManyAddresses_2Abstract_2MIDIFilteredAnalog_8hpp.html" target="_top" xlink:title=" ">
<polygon fill="white" stroke="black" points="2241.5,-168.5 2241.5,-187.5 2360.5,-187.5 2360.5,-168.5 2241.5,-168.5"/>
<text text-anchor="middle" x="2301" y="-175.5" font-family="Helvetica,sans-Serif" font-size="10.00">MIDIFilteredAnalog.hpp</text>
</a>
</g>
</g>
<!-- Node60&#45;&gt;Node61 -->
<g id="edge64" class="edge"><title>Node60&#45;&gt;Node61</title>
<path fill="none" stroke="midnightblue" d="M2128.11,-222.024C2169.1,-211.823 2229.3,-196.841 2266.78,-187.516"/>
<polygon fill="midnightblue" stroke="midnightblue" points="2127.24,-218.632 2118.38,-224.444 2128.93,-225.425 2127.24,-218.632"/>
</g>
<!-- Node62 -->
<g id="node41" class="node"><title>Node62</title>
<g id="a_node41"><a xlink:href="../../d1/d82/ManyAddresses_2CCPotentiometer_8hpp.html" target="_top" xlink:title=" ">
<polygon fill="white" stroke="black" points="2526.5,-112.5 2526.5,-131.5 2637.5,-131.5 2637.5,-112.5 2526.5,-112.5"/>
<text text-anchor="middle" x="2582" y="-119.5" font-family="Helvetica,sans-Serif" font-size="10.00">CCPotentiometer.hpp</text>
</a>
</g>
</g>
<!-- Node61&#45;&gt;Node62 -->
<g id="edge65" class="edge"><title>Node61&#45;&gt;Node62</title>
<path fill="none" stroke="midnightblue" d="M2355.45,-166.537C2408.55,-156.332 2488.34,-140.999 2537.68,-131.516"/>
<polygon fill="midnightblue" stroke="midnightblue" points="2354.69,-163.119 2345.53,-168.444 2356.01,-169.993 2354.69,-163.119"/>
</g>
<!-- Node62&#45;&gt;Node26 -->
<g id="edge66" class="edge"><title>Node62&#45;&gt;Node26</title>
<path fill="none" stroke="midnightblue" d="M2598.5,-104.716C2611.1,-90.351 2624.24,-69.6361 2611,-56 2584.6,-28.8107 1387.47,-14.2946 1131.74,-11.5009"/>
<polygon fill="midnightblue" stroke="midnightblue" points="2595.64,-102.651 2591.35,-112.338 2600.75,-107.441 2595.64,-102.651"/>
</g>
<!-- Node63&#45;&gt;Node26 -->
<g id="edge68" class="edge"><title>Node63&#45;&gt;Node26</title>
<path fill="none" stroke="midnightblue" d="M2579.92,-217.901C2600.71,-199.978 2632.88,-167.954 2646,-132 2657.9,-99.3898 2655.75,-76.8542 2628,-56 2566.77,-9.98328 1384.75,-10.2623 1131.5,-10.8532"/>
<polygon fill="midnightblue" stroke="midnightblue" points="2577.48,-215.378 2572.06,-224.479 2581.98,-220.747 2577.48,-215.378"/>
</g>
</g>
</svg>
