<?xml version="1.0" encoding="UTF-8" standalone="no"?>
<!DOCTYPE svg PUBLIC "-//W3C//DTD SVG 1.1//EN"
 "http://www.w3.org/Graphics/SVG/1.1/DTD/svg11.dtd">
<!-- Generated by graphviz version 2.38.0 (20140413.2041)
 -->
<!-- Title: ButtonMatrix&lt; nb_rows, nb_cols &gt; Pages: 1 -->
<svg width="957pt" height="485pt"
 viewBox="0.00 0.00 957.00 485.00" xmlns="http://www.w3.org/2000/svg" xmlns:xlink="http://www.w3.org/1999/xlink">
<g id="graph0" class="graph" transform="scale(1 1) rotate(0) translate(4 481)">
<title>ButtonMatrix&lt; nb_rows, nb_cols &gt;</title>
<polygon fill="white" stroke="none" points="-4,4 -4,-481 953,-481 953,4 -4,4"/>
<!-- Node1 -->
<g id="node1" class="node"><title>Node1</title>
<g id="a_node1"><a xlink:title="A class that reads the states of a button matrix.">
<polygon fill="#bfbfbf" stroke="black" points="393.5,-276.5 393.5,-476.5 514.5,-476.5 514.5,-276.5 393.5,-276.5"/>
<text text-anchor="start" x="401.5" y="-464.5" font-family="Helvetica,sans-Serif" font-size="10.00">ButtonMatrix&lt; nb_rows,</text>
<text text-anchor="middle" x="454" y="-453.5" font-family="Helvetica,sans-Serif" font-size="10.00"> nb_cols &gt;</text>
<polyline fill="none" stroke="black" points="393.5,-446.5 514.5,-446.5 "/>
<text text-anchor="start" x="401.5" y="-434.5" font-family="Helvetica,sans-Serif" font-size="10.00">&#45; prevRefresh</text>
<text text-anchor="start" x="401.5" y="-423.5" font-family="Helvetica,sans-Serif" font-size="10.00">&#45; prevStates</text>
<text text-anchor="start" x="401.5" y="-412.5" font-family="Helvetica,sans-Serif" font-size="10.00">&#45; rowPins</text>
<text text-anchor="start" x="401.5" y="-401.5" font-family="Helvetica,sans-Serif" font-size="10.00">&#45; colPins</text>
<polyline fill="none" stroke="black" points="393.5,-394.5 514.5,-394.5 "/>
<text text-anchor="start" x="401.5" y="-382.5" font-family="Helvetica,sans-Serif" font-size="10.00">+ ButtonMatrix()</text>
<text text-anchor="start" x="401.5" y="-371.5" font-family="Helvetica,sans-Serif" font-size="10.00">+ ~ButtonMatrix()</text>
<text text-anchor="start" x="401.5" y="-360.5" font-family="Helvetica,sans-Serif" font-size="10.00">+ begin()</text>
<text text-anchor="start" x="401.5" y="-349.5" font-family="Helvetica,sans-Serif" font-size="10.00">+ refresh()</text>
<text text-anchor="start" x="401.5" y="-338.5" font-family="Helvetica,sans-Serif" font-size="10.00">&#45; onButtonChanged()</text>
<text text-anchor="start" x="401.5" y="-327.5" font-family="Helvetica,sans-Serif" font-size="10.00">&#45; getPrevState()</text>
<text text-anchor="start" x="401.5" y="-316.5" font-family="Helvetica,sans-Serif" font-size="10.00">&#45; setPrevState()</text>
<text text-anchor="start" x="401.5" y="-305.5" font-family="Helvetica,sans-Serif" font-size="10.00">&#45; positionToBits()</text>
<text text-anchor="start" x="401.5" y="-294.5" font-family="Helvetica,sans-Serif" font-size="10.00">&#45; bitsToIndex()</text>
<text text-anchor="start" x="401.5" y="-283.5" font-family="Helvetica,sans-Serif" font-size="10.00">&#45; bitsToBitmask()</text>
</a>
</g>
</g>
<!-- Node2 -->
<g id="node2" class="node"><title>Node2</title>
<g id="a_node2"><a xlink:href="../../d3/d65/classBankable_1_1MIDIButtonMatrix.html" target="_top" xlink:title="MIDIButtonMatrix.">
<polygon fill="white" stroke="black" points="0,-116.5 0,-228.5 140,-228.5 140,-116.5 0,-116.5"/>
<text text-anchor="start" x="8" y="-216.5" font-family="Helvetica,sans-Serif" font-size="10.00">Bankable::MIDIButtonMatrix</text>
<text text-anchor="middle" x="70" y="-205.5" font-family="Helvetica,sans-Serif" font-size="10.00">&lt; nb_rows, nb_cols &gt;</text>
<polyline fill="none" stroke="black" points="0,-198.5 140,-198.5 "/>
<text text-anchor="start" x="8" y="-186.5" font-family="Helvetica,sans-Serif" font-size="10.00">+ sender</text>
<text text-anchor="start" x="8" y="-175.5" font-family="Helvetica,sans-Serif" font-size="10.00">&#45; activeButtons</text>
<polyline fill="none" stroke="black" points="0,-168.5 140,-168.5 "/>
<text text-anchor="start" x="8" y="-156.5" font-family="Helvetica,sans-Serif" font-size="10.00">+ begin()</text>
<text text-anchor="start" x="8" y="-145.5" font-family="Helvetica,sans-Serif" font-size="10.00">+ update()</text>
<text text-anchor="start" x="8" y="-134.5" font-family="Helvetica,sans-Serif" font-size="10.00"># MIDIButtonMatrix()</text>
<text text-anchor="start" x="8" y="-123.5" font-family="Helvetica,sans-Serif" font-size="10.00">&#45; onButtonChanged()</text>
</a>
</g>
</g>
<!-- Node1&#45;&gt;Node2 -->
<g id="edge1" class="edge"><title>Node1&#45;&gt;Node2</title>
<path fill="none" stroke="midnightblue" d="M383.762,-350.794C320.063,-326.905 224.815,-287.414 149,-240 143.376,-236.483 137.728,-232.593 132.179,-228.512"/>
<polygon fill="none" stroke="midnightblue" points="382.723,-354.142 393.316,-354.349 385.164,-347.582 382.723,-354.142"/>
</g>
<!-- Node3 -->
<g id="node3" class="node"><title>Node3</title>
<g id="a_node3"><a xlink:href="../../d0/d54/classMIDIButtonMatrix.html" target="_top" xlink:title="MIDIButtonMatrix.">
<polygon fill="white" stroke="black" points="158.5,-111 158.5,-234 271.5,-234 271.5,-111 158.5,-111"/>
<text text-anchor="start" x="166.5" y="-222" font-family="Helvetica,sans-Serif" font-size="10.00">MIDIButtonMatrix&lt; nb</text>
<text text-anchor="middle" x="215" y="-211" font-family="Helvetica,sans-Serif" font-size="10.00">_rows, nb_cols &gt;</text>
<polyline fill="none" stroke="black" points="158.5,-204 271.5,-204 "/>
<text text-anchor="start" x="166.5" y="-192" font-family="Helvetica,sans-Serif" font-size="10.00">+ sender</text>
<text text-anchor="start" x="166.5" y="-181" font-family="Helvetica,sans-Serif" font-size="10.00">&#45; addresses</text>
<text text-anchor="start" x="166.5" y="-170" font-family="Helvetica,sans-Serif" font-size="10.00">&#45; baseChannelCN</text>
<polyline fill="none" stroke="black" points="158.5,-163 271.5,-163 "/>
<text text-anchor="start" x="166.5" y="-151" font-family="Helvetica,sans-Serif" font-size="10.00">+ begin()</text>
<text text-anchor="start" x="166.5" y="-140" font-family="Helvetica,sans-Serif" font-size="10.00">+ update()</text>
<text text-anchor="start" x="166.5" y="-129" font-family="Helvetica,sans-Serif" font-size="10.00"># MIDIButtonMatrix()</text>
<text text-anchor="start" x="166.5" y="-118" font-family="Helvetica,sans-Serif" font-size="10.00">&#45; onButtonChanged()</text>
</a>
</g>
</g>
<!-- Node1&#45;&gt;Node3 -->
<g id="edge2" class="edge"><title>Node1&#45;&gt;Node3</title>
<path fill="none" stroke="midnightblue" d="M385.175,-324.734C352.797,-300.067 314.116,-269.446 281,-240 277.961,-237.298 274.886,-234.489 271.812,-231.621"/>
<polygon fill="none" stroke="midnightblue" points="383.182,-327.616 393.263,-330.873 387.414,-322.04 383.182,-327.616"/>
</g>
<!-- Node4 -->
<g id="node4" class="node"><title>Node4</title>
<g id="a_node4"><a xlink:href="../../d0/d54/classMIDIButtonMatrix.html" target="_top" xlink:title=" ">
<polygon fill="white" stroke="black" points="290,-111 290,-234 444,-234 444,-111 290,-111"/>
<text text-anchor="start" x="298" y="-222" font-family="Helvetica,sans-Serif" font-size="10.00">MIDIButtonMatrix&lt; Digital</text>
<text text-anchor="middle" x="367" y="-211" font-family="Helvetica,sans-Serif" font-size="10.00">CCSender, nb_rows, nb_cols &gt;</text>
<polyline fill="none" stroke="black" points="290,-204 444,-204 "/>
<text text-anchor="start" x="298" y="-192" font-family="Helvetica,sans-Serif" font-size="10.00">+ sender</text>
<text text-anchor="start" x="298" y="-181" font-family="Helvetica,sans-Serif" font-size="10.00">&#45; addresses</text>
<text text-anchor="start" x="298" y="-170" font-family="Helvetica,sans-Serif" font-size="10.00">&#45; baseChannelCN</text>
<polyline fill="none" stroke="black" points="290,-163 444,-163 "/>
<text text-anchor="start" x="298" y="-151" font-family="Helvetica,sans-Serif" font-size="10.00">+ begin()</text>
<text text-anchor="start" x="298" y="-140" font-family="Helvetica,sans-Serif" font-size="10.00">+ update()</text>
<text text-anchor="start" x="298" y="-129" font-family="Helvetica,sans-Serif" font-size="10.00"># MIDIButtonMatrix()</text>
<text text-anchor="start" x="298" y="-118" font-family="Helvetica,sans-Serif" font-size="10.00">&#45; onButtonChanged()</text>
</a>
</g>
</g>
<!-- Node1&#45;&gt;Node4 -->
<g id="edge3" class="edge"><title>Node1&#45;&gt;Node4</title>
<path fill="none" stroke="midnightblue" d="M407.206,-266.852C402.383,-255.654 397.615,-244.583 393.14,-234.192"/>
<polygon fill="none" stroke="midnightblue" points="404.094,-268.475 411.265,-276.275 410.523,-265.706 404.094,-268.475"/>
</g>
<!-- Node6 -->
<g id="node6" class="node"><title>Node6</title>
<g id="a_node6"><a xlink:href="../../d0/d54/classMIDIButtonMatrix.html" target="_top" xlink:title=" ">
<polygon fill="white" stroke="black" points="462,-111 462,-234 622,-234 622,-111 462,-111"/>
<text text-anchor="start" x="470" y="-222" font-family="Helvetica,sans-Serif" font-size="10.00">MIDIButtonMatrix&lt; Digital</text>
<text text-anchor="middle" x="542" y="-211" font-family="Helvetica,sans-Serif" font-size="10.00">NoteSender, nb_rows, nb_cols &gt;</text>
<polyline fill="none" stroke="black" points="462,-204 622,-204 "/>
<text text-anchor="start" x="470" y="-192" font-family="Helvetica,sans-Serif" font-size="10.00">+ sender</text>
<text text-anchor="start" x="470" y="-181" font-family="Helvetica,sans-Serif" font-size="10.00">&#45; addresses</text>
<text text-anchor="start" x="470" y="-170" font-family="Helvetica,sans-Serif" font-size="10.00">&#45; baseChannelCN</text>
<polyline fill="none" stroke="black" points="462,-163 622,-163 "/>
<text text-anchor="start" x="470" y="-151" font-family="Helvetica,sans-Serif" font-size="10.00">+ begin()</text>
<text text-anchor="start" x="470" y="-140" font-family="Helvetica,sans-Serif" font-size="10.00">+ update()</text>
<text text-anchor="start" x="470" y="-129" font-family="Helvetica,sans-Serif" font-size="10.00"># MIDIButtonMatrix()</text>
<text text-anchor="start" x="470" y="-118" font-family="Helvetica,sans-Serif" font-size="10.00">&#45; onButtonChanged()</text>
</a>
</g>
</g>
<!-- Node1&#45;&gt;Node6 -->
<g id="edge5" class="edge"><title>Node1&#45;&gt;Node6</title>
<path fill="none" stroke="midnightblue" d="M501.332,-266.852C506.21,-255.654 511.033,-244.583 515.56,-234.192"/>
<polygon fill="none" stroke="midnightblue" points="498.012,-265.71 497.227,-276.275 504.429,-268.505 498.012,-265.71"/>
</g>
<!-- Node8 -->
<g id="node8" class="node"><title>Node8</title>
<g id="a_node8"><a xlink:href="../../d3/d65/classBankable_1_1MIDIButtonMatrix.html" target="_top" xlink:title=" ">
<polygon fill="white" stroke="black" points="640.5,-105.5 640.5,-239.5 791.5,-239.5 791.5,-105.5 640.5,-105.5"/>
<text text-anchor="start" x="648.5" y="-227.5" font-family="Helvetica,sans-Serif" font-size="10.00">MIDIButtonMatrix&lt; Matrix</text>
<text text-anchor="start" x="648.5" y="-216.5" font-family="Helvetica,sans-Serif" font-size="10.00">Address&lt; nb_rows, nb_cols</text>
<text text-anchor="start" x="648.5" y="-205.5" font-family="Helvetica,sans-Serif" font-size="10.00"> &gt;, DigitalCCSender, nb_rows,</text>
<text text-anchor="middle" x="716" y="-194.5" font-family="Helvetica,sans-Serif" font-size="10.00"> nb_cols &gt;</text>
<polyline fill="none" stroke="black" points="640.5,-187.5 791.5,-187.5 "/>
<text text-anchor="start" x="648.5" y="-175.5" font-family="Helvetica,sans-Serif" font-size="10.00">+ sender</text>
<text text-anchor="start" x="648.5" y="-164.5" font-family="Helvetica,sans-Serif" font-size="10.00">&#45; activeButtons</text>
<polyline fill="none" stroke="black" points="640.5,-157.5 791.5,-157.5 "/>
<text text-anchor="start" x="648.5" y="-145.5" font-family="Helvetica,sans-Serif" font-size="10.00">+ begin()</text>
<text text-anchor="start" x="648.5" y="-134.5" font-family="Helvetica,sans-Serif" font-size="10.00">+ update()</text>
<text text-anchor="start" x="648.5" y="-123.5" font-family="Helvetica,sans-Serif" font-size="10.00"># MIDIButtonMatrix()</text>
<text text-anchor="start" x="648.5" y="-112.5" font-family="Helvetica,sans-Serif" font-size="10.00">&#45; onButtonChanged()</text>
</a>
</g>
</g>
<!-- Node1&#45;&gt;Node8 -->
<g id="edge7" class="edge"><title>Node1&#45;&gt;Node8</title>
<path fill="none" stroke="midnightblue" d="M522.924,-323.003C555.721,-297.954 595.45,-267.512 631,-240 634.112,-237.592 637.285,-235.131 640.488,-232.643"/>
<polygon fill="none" stroke="midnightblue" points="520.566,-320.4 514.741,-329.25 524.814,-325.963 520.566,-320.4"/>
</g>
<!-- Node10 -->
<g id="node10" class="node"><title>Node10</title>
<g id="a_node10"><a xlink:href="../../d3/d65/classBankable_1_1MIDIButtonMatrix.html" target="_top" xlink:title=" ">
<polygon fill="white" stroke="black" points="810,-105.5 810,-239.5 948,-239.5 948,-105.5 810,-105.5"/>
<text text-anchor="start" x="818" y="-227.5" font-family="Helvetica,sans-Serif" font-size="10.00">MIDIButtonMatrix&lt; Matrix</text>
<text text-anchor="start" x="818" y="-216.5" font-family="Helvetica,sans-Serif" font-size="10.00">Address&lt; nb_rows, nb_cols</text>
<text text-anchor="start" x="818" y="-205.5" font-family="Helvetica,sans-Serif" font-size="10.00"> &gt;, DigitalNoteSender, nb</text>
<text text-anchor="middle" x="879" y="-194.5" font-family="Helvetica,sans-Serif" font-size="10.00">_rows, nb_cols &gt;</text>
<polyline fill="none" stroke="black" points="810,-187.5 948,-187.5 "/>
<text text-anchor="start" x="818" y="-175.5" font-family="Helvetica,sans-Serif" font-size="10.00">+ sender</text>
<text text-anchor="start" x="818" y="-164.5" font-family="Helvetica,sans-Serif" font-size="10.00">&#45; activeButtons</text>
<polyline fill="none" stroke="black" points="810,-157.5 948,-157.5 "/>
<text text-anchor="start" x="818" y="-145.5" font-family="Helvetica,sans-Serif" font-size="10.00">+ begin()</text>
<text text-anchor="start" x="818" y="-134.5" font-family="Helvetica,sans-Serif" font-size="10.00">+ update()</text>
<text text-anchor="start" x="818" y="-123.5" font-family="Helvetica,sans-Serif" font-size="10.00"># MIDIButtonMatrix()</text>
<text text-anchor="start" x="818" y="-112.5" font-family="Helvetica,sans-Serif" font-size="10.00">&#45; onButtonChanged()</text>
</a>
</g>
</g>
<!-- Node1&#45;&gt;Node10 -->
<g id="edge9" class="edge"><title>Node1&#45;&gt;Node10</title>
<path fill="none" stroke="midnightblue" d="M524.747,-355.524C597.195,-333.352 711.552,-293.512 801,-240 803.901,-238.264 806.802,-236.42 809.686,-234.492"/>
<polygon fill="none" stroke="midnightblue" points="523.365,-352.286 514.809,-358.535 525.395,-358.985 523.365,-352.286"/>
</g>
<!-- Node5 -->
<g id="node5" class="node"><title>Node5</title>
<g id="a_node5"><a xlink:href="../../d3/d2a/classCCButtonMatrix.html" target="_top" xlink:title="A class of MIDIOutputElements that read the input from a matrix of momentary push buttons or switches...">
<polygon fill="white" stroke="black" points="313.5,-0.5 313.5,-68.5 420.5,-68.5 420.5,-0.5 313.5,-0.5"/>
<text text-anchor="start" x="321.5" y="-56.5" font-family="Helvetica,sans-Serif" font-size="10.00">CCButtonMatrix&lt; nb</text>
<text text-anchor="middle" x="367" y="-45.5" font-family="Helvetica,sans-Serif" font-size="10.00">_rows, nb_cols &gt;</text>
<polyline fill="none" stroke="black" points="313.5,-38.5 420.5,-38.5 "/>
<text text-anchor="middle" x="367" y="-26.5" font-family="Helvetica,sans-Serif" font-size="10.00"> </text>
<polyline fill="none" stroke="black" points="313.5,-19.5 420.5,-19.5 "/>
<text text-anchor="start" x="321.5" y="-7.5" font-family="Helvetica,sans-Serif" font-size="10.00">+ CCButtonMatrix()</text>
</a>
</g>
</g>
<!-- Node4&#45;&gt;Node5 -->
<g id="edge4" class="edge"><title>Node4&#45;&gt;Node5</title>
<path fill="none" stroke="midnightblue" d="M367,-100.478C367,-89.3865 367,-78.4026 367,-68.7095"/>
<polygon fill="none" stroke="midnightblue" points="363.5,-100.66 367,-110.66 370.5,-100.66 363.5,-100.66"/>
</g>
<!-- Node7 -->
<g id="node7" class="node"><title>Node7</title>
<g id="a_node7"><a xlink:href="../../d2/daf/classNoteButtonMatrix.html" target="_top" xlink:title="A class of MIDIOutputElements that read the input from a matrix of momentary push buttons or switches...">
<polygon fill="white" stroke="black" points="485.5,-0.5 485.5,-68.5 598.5,-68.5 598.5,-0.5 485.5,-0.5"/>
<text text-anchor="start" x="493.5" y="-56.5" font-family="Helvetica,sans-Serif" font-size="10.00">NoteButtonMatrix&lt; nb</text>
<text text-anchor="middle" x="542" y="-45.5" font-family="Helvetica,sans-Serif" font-size="10.00">_rows, nb_cols &gt;</text>
<polyline fill="none" stroke="black" points="485.5,-38.5 598.5,-38.5 "/>
<text text-anchor="middle" x="542" y="-26.5" font-family="Helvetica,sans-Serif" font-size="10.00"> </text>
<polyline fill="none" stroke="black" points="485.5,-19.5 598.5,-19.5 "/>
<text text-anchor="start" x="493.5" y="-7.5" font-family="Helvetica,sans-Serif" font-size="10.00">+ NoteButtonMatrix()</text>
</a>
</g>
</g>
<!-- Node6&#45;&gt;Node7 -->
<g id="edge6" class="edge"><title>Node6&#45;&gt;Node7</title>
<path fill="none" stroke="midnightblue" d="M542,-100.478C542,-89.3865 542,-78.4026 542,-68.7095"/>
<polygon fill="none" stroke="midnightblue" points="538.5,-100.66 542,-110.66 545.5,-100.66 538.5,-100.66"/>
</g>
<!-- Node9 -->
<g id="node9" class="node"><title>Node9</title>
<g id="a_node9"><a xlink:href="../../db/d2b/classBankable_1_1CCButtonMatrix.html" target="_top" xlink:title="A class of MIDIOutputElements that read the input from a matrix of momentary push buttons or switches...">
<polygon fill="white" stroke="black" points="649,-0.5 649,-68.5 783,-68.5 783,-0.5 649,-0.5"/>
<text text-anchor="start" x="657" y="-56.5" font-family="Helvetica,sans-Serif" font-size="10.00">Bankable::CCButtonMatrix</text>
<text text-anchor="middle" x="716" y="-45.5" font-family="Helvetica,sans-Serif" font-size="10.00">&lt; nb_rows, nb_cols &gt;</text>
<polyline fill="none" stroke="black" points="649,-38.5 783,-38.5 "/>
<text text-anchor="middle" x="716" y="-26.5" font-family="Helvetica,sans-Serif" font-size="10.00"> </text>
<polyline fill="none" stroke="black" points="649,-19.5 783,-19.5 "/>
<text text-anchor="start" x="657" y="-7.5" font-family="Helvetica,sans-Serif" font-size="10.00">+ CCButtonMatrix()</text>
</a>
</g>
</g>
<!-- Node8&#45;&gt;Node9 -->
<g id="edge8" class="edge"><title>Node8&#45;&gt;Node9</title>
<path fill="none" stroke="midnightblue" d="M716,-95.3667C716,-86.0791 716,-76.9969 716,-68.8265"/>
<polygon fill="none" stroke="midnightblue" points="712.5,-95.4919 716,-105.492 719.5,-95.492 712.5,-95.4919"/>
</g>
<!-- Node11 -->
<g id="node11" class="node"><title>Node11</title>
<g id="a_node11"><a xlink:href="../../d2/d2b/classBankable_1_1NoteButtonMatrix.html" target="_top" xlink:title="A class of MIDIOutputElements that read the input from a matrix of momentary push buttons or switches...">
<polygon fill="white" stroke="black" points="809,-0.5 809,-68.5 949,-68.5 949,-0.5 809,-0.5"/>
<text text-anchor="start" x="817" y="-56.5" font-family="Helvetica,sans-Serif" font-size="10.00">Bankable::NoteButtonMatrix</text>
<text text-anchor="middle" x="879" y="-45.5" font-family="Helvetica,sans-Serif" font-size="10.00">&lt; nb_rows, nb_cols &gt;</text>
<polyline fill="none" stroke="black" points="809,-38.5 949,-38.5 "/>
<text text-anchor="middle" x="879" y="-26.5" font-family="Helvetica,sans-Serif" font-size="10.00"> </text>
<polyline fill="none" stroke="black" points="809,-19.5 949,-19.5 "/>
<text text-anchor="start" x="817" y="-7.5" font-family="Helvetica,sans-Serif" font-size="10.00">+ NoteButtonMatrix()</text>
</a>
</g>
</g>
<!-- Node10&#45;&gt;Node11 -->
<g id="edge10" class="edge"><title>Node10&#45;&gt;Node11</title>
<path fill="none" stroke="midnightblue" d="M879,-95.3667C879,-86.0791 879,-76.9969 879,-68.8265"/>
<polygon fill="none" stroke="midnightblue" points="875.5,-95.4919 879,-105.492 882.5,-95.492 875.5,-95.4919"/>
</g>
</g>
</svg>
