<?xml version="1.0" encoding="UTF-8" standalone="no"?>
<!DOCTYPE svg PUBLIC "-//W3C//DTD SVG 1.1//EN"
 "http://www.w3.org/Graphics/SVG/1.1/DTD/svg11.dtd">
<!-- Generated by graphviz version 2.38.0 (20140413.2041)
 -->
<!-- Title: DigitalNoteSender::sendOff Pages: 1 -->
<svg width="458pt" height="253pt"
 viewBox="0.00 0.00 458.00 252.50" xmlns="http://www.w3.org/2000/svg" xmlns:xlink="http://www.w3.org/1999/xlink">
<g id="graph0" class="graph" transform="scale(1 1) rotate(0) translate(4 248.5)">
<title>DigitalNoteSender::sendOff</title>
<polygon fill="white" stroke="none" points="-4,4 -4,-248.5 454,-248.5 454,4 -4,4"/>
<!-- Node13 -->
<g id="node1" class="node"><title>Node13</title>
<g id="a_node1"><a xlink:title=" ">
<polygon fill="#bfbfbf" stroke="black" points="0,-156.5 0,-186.5 102,-186.5 102,-156.5 0,-156.5"/>
<text text-anchor="start" x="8" y="-174.5" font-family="Helvetica,sans-Serif" font-size="10.00">DigitalNoteSender::</text>
<text text-anchor="middle" x="51" y="-163.5" font-family="Helvetica,sans-Serif" font-size="10.00">sendOff</text>
</a>
</g>
</g>
<!-- Node14 -->
<g id="node2" class="node"><title>Node14</title>
<g id="a_node2"><a xlink:href="../../dc/d45/classControl__Surface__.html#a77ee86088235acc137eb0958051a80ac" target="_top" xlink:title="Get the MIDI interface of the Control Surface.">
<polygon fill="white" stroke="black" points="149.5,-203 149.5,-222 269.5,-222 269.5,-203 149.5,-203"/>
<text text-anchor="middle" x="209.5" y="-210" font-family="Helvetica,sans-Serif" font-size="10.00">Control_Surface_::MIDI</text>
</a>
</g>
</g>
<!-- Node13&#45;&gt;Node14 -->
<g id="edge1" class="edge"><title>Node13&#45;&gt;Node14</title>
<path fill="none" stroke="midnightblue" d="M102.379,-184.698C121.618,-189.738 143.442,-195.456 162.275,-200.39"/>
<polygon fill="midnightblue" stroke="midnightblue" points="161.546,-203.817 172.107,-202.966 163.32,-197.046 161.546,-203.817"/>
</g>
<!-- Node16 -->
<g id="node4" class="node"><title>Node16</title>
<g id="a_node4"><a xlink:href="../../d9/d73/classMIDI__Interface.html#a2c79441f44b904566d237b05b8b3c2fb" target="_top" xlink:title=" ">
<polygon fill="white" stroke="black" points="138,-121 138,-140 281,-140 281,-121 138,-121"/>
<text text-anchor="middle" x="209.5" y="-128" font-family="Helvetica,sans-Serif" font-size="10.00">MIDI_Interface::sendNoteOff</text>
</a>
</g>
</g>
<!-- Node13&#45;&gt;Node16 -->
<g id="edge3" class="edge"><title>Node13&#45;&gt;Node16</title>
<path fill="none" stroke="midnightblue" d="M102.379,-158.302C121.618,-153.262 143.442,-147.544 162.275,-142.61"/>
<polygon fill="midnightblue" stroke="midnightblue" points="163.32,-145.954 172.107,-140.034 161.546,-139.183 163.32,-145.954"/>
</g>
<!-- Node15 -->
<g id="node3" class="node"><title>Node15</title>
<g id="a_node3"><a xlink:href="../../d9/d73/classMIDI__Interface.html#ad61032be4eecf18e9a248f153b5e61a8" target="_top" xlink:title="Return the default MIDI interface.">
<polygon fill="white" stroke="black" points="317,-225 317,-244 450,-244 450,-225 317,-225"/>
<text text-anchor="middle" x="383.5" y="-232" font-family="Helvetica,sans-Serif" font-size="10.00">MIDI_Interface::getDefault</text>
</a>
</g>
</g>
<!-- Node14&#45;&gt;Node15 -->
<g id="edge2" class="edge"><title>Node14&#45;&gt;Node15</title>
<path fill="none" stroke="midnightblue" d="M269.693,-220.071C281.536,-221.586 294.133,-223.197 306.453,-224.773"/>
<polygon fill="midnightblue" stroke="midnightblue" points="306.352,-228.289 316.715,-226.086 307.24,-221.345 306.352,-228.289"/>
</g>
<!-- Node17 -->
<g id="node5" class="node"><title>Node17</title>
<g id="a_node5"><a xlink:href="../../d9/d73/classMIDI__Interface.html#ae9f0d0b1c122306081573173f3d1efff" target="_top" xlink:title="Low&#45;level function for sending a 3&#45;byte MIDI message.">
<polygon fill="white" stroke="black" points="319.5,-187 319.5,-206 447.5,-206 447.5,-187 319.5,-187"/>
<text text-anchor="middle" x="383.5" y="-194" font-family="Helvetica,sans-Serif" font-size="10.00">MIDI_Interface::sendImpl</text>
</a>
</g>
</g>
<!-- Node16&#45;&gt;Node17 -->
<g id="edge4" class="edge"><title>Node16&#45;&gt;Node17</title>
<path fill="none" stroke="midnightblue" d="M230.197,-140.142C251.332,-150.262 286.043,-166.236 317,-177.5 323.354,-179.812 330.133,-182.038 336.831,-184.102"/>
<polygon fill="midnightblue" stroke="midnightblue" points="335.944,-187.489 346.527,-186.999 337.948,-180.782 335.944,-187.489"/>
</g>
<!-- Node18 -->
<g id="node6" class="node"><title>Node18</title>
<g id="a_node6"><a xlink:href="../../d3/d10/classMIDICNChannelAddress.html#a21771509a07a1429ac0109ecbc84b697" target="_top" xlink:title="Get the channel [1, 16].">
<polygon fill="white" stroke="black" points="321,-137.5 321,-167.5 446,-167.5 446,-137.5 321,-137.5"/>
<text text-anchor="start" x="329" y="-155.5" font-family="Helvetica,sans-Serif" font-size="10.00">MIDICNChannelAddress</text>
<text text-anchor="middle" x="383.5" y="-144.5" font-family="Helvetica,sans-Serif" font-size="10.00">::getChannel</text>
</a>
</g>
</g>
<!-- Node16&#45;&gt;Node18 -->
<g id="edge5" class="edge"><title>Node16&#45;&gt;Node18</title>
<path fill="none" stroke="midnightblue" d="M281.452,-139.575C291.136,-140.814 301.083,-142.086 310.78,-143.327"/>
<polygon fill="midnightblue" stroke="midnightblue" points="310.411,-146.808 320.774,-144.605 311.299,-139.864 310.411,-146.808"/>
</g>
<!-- Node19 -->
<g id="node7" class="node"><title>Node19</title>
<g id="a_node7"><a xlink:href="../../d2/d48/classChannel.html#aaaf93f5670acdabd82a82debabdf6b52" target="_top" xlink:title="Get the channel as an integer.">
<polygon fill="white" stroke="black" points="337.5,-99 337.5,-118 429.5,-118 429.5,-99 337.5,-99"/>
<text text-anchor="middle" x="383.5" y="-106" font-family="Helvetica,sans-Serif" font-size="10.00">Channel::getRaw</text>
</a>
</g>
</g>
<!-- Node16&#45;&gt;Node19 -->
<g id="edge6" class="edge"><title>Node16&#45;&gt;Node19</title>
<path fill="none" stroke="midnightblue" d="M281.452,-121.425C296.643,-119.482 312.48,-117.456 326.987,-115.6"/>
<polygon fill="midnightblue" stroke="midnightblue" points="327.813,-119.023 337.288,-114.283 326.925,-112.08 327.813,-119.023"/>
</g>
<!-- Node20 -->
<g id="node8" class="node"><title>Node20</title>
<g id="a_node8"><a xlink:href="../../d3/d10/classMIDICNChannelAddress.html#a65bea05cbf038e58d55b36955a2d2b1b" target="_top" xlink:title="Get the address [0, 127].">
<polygon fill="white" stroke="black" points="321,-49.5 321,-79.5 446,-79.5 446,-49.5 321,-49.5"/>
<text text-anchor="start" x="329" y="-67.5" font-family="Helvetica,sans-Serif" font-size="10.00">MIDICNChannelAddress</text>
<text text-anchor="middle" x="383.5" y="-56.5" font-family="Helvetica,sans-Serif" font-size="10.00">::getAddress</text>
</a>
</g>
</g>
<!-- Node16&#45;&gt;Node20 -->
<g id="edge7" class="edge"><title>Node16&#45;&gt;Node20</title>
<path fill="none" stroke="midnightblue" d="M235.454,-120.87C257.032,-112.549 289.065,-100.208 317,-89.5 322.388,-87.4347 328.026,-85.277 333.638,-83.132"/>
<polygon fill="midnightblue" stroke="midnightblue" points="334.915,-86.3909 343.007,-79.5525 332.417,-79.8518 334.915,-86.3909"/>
</g>
<!-- Node21 -->
<g id="node9" class="node"><title>Node21</title>
<g id="a_node9"><a xlink:href="../../d3/d10/classMIDICNChannelAddress.html#af095bbce791e4b3540dd82d31d0227c1" target="_top" xlink:title="Get the cable number [0, 15].">
<polygon fill="white" stroke="black" points="321,-0.5 321,-30.5 446,-30.5 446,-0.5 321,-0.5"/>
<text text-anchor="start" x="329" y="-18.5" font-family="Helvetica,sans-Serif" font-size="10.00">MIDICNChannelAddress</text>
<text text-anchor="middle" x="383.5" y="-7.5" font-family="Helvetica,sans-Serif" font-size="10.00">::getCableNumber</text>
</a>
</g>
</g>
<!-- Node16&#45;&gt;Node21 -->
<g id="edge8" class="edge"><title>Node16&#45;&gt;Node21</title>
<path fill="none" stroke="midnightblue" d="M219.635,-120.867C237.08,-102.936 276.972,-64.1214 317,-40.5 320.382,-38.5041 323.952,-36.6141 327.609,-34.8352"/>
<polygon fill="midnightblue" stroke="midnightblue" points="329.168,-37.9714 336.821,-30.6446 326.269,-31.5997 329.168,-37.9714"/>
</g>
</g>
</svg>
