<?xml version="1.0" encoding="UTF-8" standalone="no"?>
<!DOCTYPE svg PUBLIC "-//W3C//DTD SVG 1.1//EN"
 "http://www.w3.org/Graphics/SVG/1.1/DTD/svg11.dtd">
<!-- Generated by graphviz version 2.38.0 (20140413.2041)
 -->
<!-- Title: MIDIChordButton.hpp Pages: 1 -->
<svg width="1285pt" height="666pt"
 viewBox="0.00 0.00 1284.50 666.00" xmlns="http://www.w3.org/2000/svg" xmlns:xlink="http://www.w3.org/1999/xlink">
<g id="graph0" class="graph" transform="scale(1 1) rotate(0) translate(4 662)">
<title>MIDIChordButton.hpp</title>
<polygon fill="white" stroke="none" points="-4,4 -4,-662 1280.5,-662 1280.5,4 -4,4"/>
<!-- Node1 -->
<g id="node1" class="node"><title>Node1</title>
<g id="a_node1"><a xlink:title=" ">
<polygon fill="#bfbfbf" stroke="black" points="784,-638.5 784,-657.5 896,-657.5 896,-638.5 784,-638.5"/>
<text text-anchor="middle" x="840" y="-645.5" font-family="Helvetica,sans-Serif" font-size="10.00">MIDIChordButton.hpp</text>
</a>
</g>
</g>
<!-- Node2 -->
<g id="node2" class="node"><title>Node2</title>
<g id="a_node2"><a xlink:href="../../d0/dcc/BankAddresses_8hpp.html" target="_top" xlink:title=" ">
<polygon fill="white" stroke="black" points="707.5,-582.5 707.5,-601.5 842.5,-601.5 842.5,-582.5 707.5,-582.5"/>
<text text-anchor="middle" x="775" y="-589.5" font-family="Helvetica,sans-Serif" font-size="10.00">Banks/BankAddresses.hpp</text>
</a>
</g>
</g>
<!-- Node1&#45;&gt;Node2 -->
<g id="edge1" class="edge"><title>Node1&#45;&gt;Node2</title>
<path fill="none" stroke="midnightblue" d="M829.557,-638.324C819.854,-630.263 805.185,-618.077 793.5,-608.369"/>
<polygon fill="midnightblue" stroke="midnightblue" points="795.562,-605.532 785.633,-601.834 791.089,-610.916 795.562,-605.532"/>
</g>
<!-- Node8 -->
<g id="node8" class="node"><title>Node8</title>
<g id="a_node8"><a xlink:href="../../d0/d4e/Def_8hpp.html" target="_top" xlink:title=" ">
<polygon fill="white" stroke="black" points="672,-112.5 672,-131.5 742,-131.5 742,-112.5 672,-112.5"/>
<text text-anchor="middle" x="707" y="-119.5" font-family="Helvetica,sans-Serif" font-size="10.00">Def/Def.hpp</text>
</a>
</g>
</g>
<!-- Node1&#45;&gt;Node8 -->
<g id="edge48" class="edge"><title>Node1&#45;&gt;Node8</title>
<path fill="none" stroke="midnightblue" d="M783.908,-645.571C595.933,-640.048 0,-616.284 0,-537 0,-537 0,-537 0,-412 0,-240.134 135.231,-216.879 300,-168 334.064,-157.895 563.15,-136.128 661.874,-127.077"/>
<polygon fill="midnightblue" stroke="midnightblue" points="662.212,-130.561 671.852,-126.165 661.574,-123.59 662.212,-130.561"/>
</g>
<!-- Node29 -->
<g id="node29" class="node"><title>Node29</title>
<g id="a_node29"><a xlink:href="../../d4/db3/Button_8hpp.html" target="_top" xlink:title=" ">
<polygon fill="white" stroke="black" points="163.5,-526.5 163.5,-545.5 272.5,-545.5 272.5,-526.5 163.5,-526.5"/>
<text text-anchor="middle" x="218" y="-533.5" font-family="Helvetica,sans-Serif" font-size="10.00">Hardware/Button.hpp</text>
</a>
</g>
</g>
<!-- Node1&#45;&gt;Node29 -->
<g id="edge49" class="edge"><title>Node1&#45;&gt;Node29</title>
<path fill="none" stroke="midnightblue" d="M791.71,-638.46C678.854,-618.502 398.17,-568.863 276.165,-547.286"/>
<polygon fill="midnightblue" stroke="midnightblue" points="276.716,-543.83 266.259,-545.535 275.497,-550.723 276.716,-543.83"/>
</g>
<!-- Node32 -->
<g id="node32" class="node"><title>Node32</title>
<g id="a_node32"><a xlink:href="../../d1/d17/unique__ptr_8hpp.html" target="_top" xlink:title=" ">
<polygon fill="white" stroke="black" points="1159.5,-582.5 1159.5,-601.5 1276.5,-601.5 1276.5,-582.5 1159.5,-582.5"/>
<text text-anchor="middle" x="1218" y="-589.5" font-family="Helvetica,sans-Serif" font-size="10.00">Helpers/unique_ptr.hpp</text>
</a>
</g>
</g>
<!-- Node1&#45;&gt;Node32 -->
<g id="edge56" class="edge"><title>Node1&#45;&gt;Node32</title>
<path fill="none" stroke="midnightblue" d="M896.182,-638.974C963.654,-629.335 1076.79,-613.173 1149.37,-602.805"/>
<polygon fill="midnightblue" stroke="midnightblue" points="1149.93,-606.261 1159.33,-601.381 1148.94,-599.331 1149.93,-606.261"/>
</g>
<!-- Node33 -->
<g id="node33" class="node"><title>Node33</title>
<g id="a_node33"><a xlink:href="../../d9/dac/Chords_8hpp.html" target="_top" xlink:title=" ">
<polygon fill="white" stroke="black" points="1121.5,-168.5 1121.5,-198.5 1244.5,-198.5 1244.5,-168.5 1121.5,-168.5"/>
<text text-anchor="start" x="1129.5" y="-186.5" font-family="Helvetica,sans-Serif" font-size="10.00">MIDI_Constants/Chords</text>
<text text-anchor="middle" x="1183" y="-175.5" font-family="Helvetica,sans-Serif" font-size="10.00">/Chords.hpp</text>
</a>
</g>
</g>
<!-- Node1&#45;&gt;Node33 -->
<g id="edge57" class="edge"><title>Node1&#45;&gt;Node33</title>
<path fill="none" stroke="midnightblue" d="M891.355,-638.463C974.895,-623.106 1131,-587.634 1131,-537 1131,-537 1131,-537 1131,-300 1131,-265.21 1150.86,-229.31 1166.03,-206.958"/>
<polygon fill="midnightblue" stroke="midnightblue" points="1169.07,-208.719 1171.97,-198.529 1163.35,-204.686 1169.07,-208.719"/>
</g>
<!-- Node36 -->
<g id="node36" class="node"><title>Node36</title>
<g id="a_node36"><a xlink:href="../../d1/d41/MIDIOutputElement_8hpp.html" target="_top" xlink:title=" ">
<polygon fill="white" stroke="black" points="849.5,-459.5 849.5,-489.5 974.5,-489.5 974.5,-459.5 849.5,-459.5"/>
<text text-anchor="start" x="857.5" y="-477.5" font-family="Helvetica,sans-Serif" font-size="10.00">MIDI_Outputs/Abstract</text>
<text text-anchor="middle" x="912" y="-466.5" font-family="Helvetica,sans-Serif" font-size="10.00">/MIDIOutputElement.hpp</text>
</a>
</g>
</g>
<!-- Node1&#45;&gt;Node36 -->
<g id="edge62" class="edge"><title>Node1&#45;&gt;Node36</title>
<path fill="none" stroke="midnightblue" d="M843.669,-638.26C854.376,-612.757 885.842,-537.807 902.069,-499.154"/>
<polygon fill="midnightblue" stroke="midnightblue" points="905.385,-500.298 906.029,-489.723 898.931,-497.588 905.385,-500.298"/>
</g>
<!-- Node3 -->
<g id="node3" class="node"><title>Node3</title>
<g id="a_node3"><a xlink:href="../../db/df2/BankableMIDIOutput_8hpp.html" target="_top" xlink:title=" ">
<polygon fill="white" stroke="black" points="694.5,-526.5 694.5,-545.5 821.5,-545.5 821.5,-526.5 694.5,-526.5"/>
<text text-anchor="middle" x="758" y="-533.5" font-family="Helvetica,sans-Serif" font-size="10.00">BankableMIDIOutput.hpp</text>
</a>
</g>
</g>
<!-- Node2&#45;&gt;Node3 -->
<g id="edge2" class="edge"><title>Node2&#45;&gt;Node3</title>
<path fill="none" stroke="midnightblue" d="M772.193,-582.083C769.915,-574.849 766.629,-564.409 763.792,-555.397"/>
<polygon fill="midnightblue" stroke="midnightblue" points="767.096,-554.239 760.755,-545.751 760.419,-556.341 767.096,-554.239"/>
</g>
<!-- Node4 -->
<g id="node4" class="node"><title>Node4</title>
<g id="a_node4"><a xlink:href="../../d4/d57/Bank_8hpp.html" target="_top" xlink:title=" ">
<polygon fill="white" stroke="black" points="492,-465 492,-484 550,-484 550,-465 492,-465"/>
<text text-anchor="middle" x="521" y="-472" font-family="Helvetica,sans-Serif" font-size="10.00">Bank.hpp</text>
</a>
</g>
</g>
<!-- Node3&#45;&gt;Node4 -->
<g id="edge3" class="edge"><title>Node3&#45;&gt;Node4</title>
<path fill="none" stroke="midnightblue" d="M724.044,-526.475C680.611,-515.571 605.561,-496.729 559.882,-485.261"/>
<polygon fill="midnightblue" stroke="midnightblue" points="560.599,-481.833 550.048,-482.793 558.895,-488.622 560.599,-481.833"/>
</g>
<!-- Node27 -->
<g id="node27" class="node"><title>Node27</title>
<g id="a_node27"><a xlink:href="../../dd/d1f/BankConfig_8hpp.html" target="_top" xlink:title=" ">
<polygon fill="white" stroke="black" points="683,-347.5 683,-366.5 769,-366.5 769,-347.5 683,-347.5"/>
<text text-anchor="middle" x="726" y="-354.5" font-family="Helvetica,sans-Serif" font-size="10.00">BankConfig.hpp</text>
</a>
</g>
</g>
<!-- Node3&#45;&gt;Node27 -->
<g id="edge46" class="edge"><title>Node3&#45;&gt;Node27</title>
<path fill="none" stroke="midnightblue" d="M756.457,-526.463C751.569,-499.428 736.348,-415.239 729.455,-377.109"/>
<polygon fill="midnightblue" stroke="midnightblue" points="732.827,-376.086 727.603,-366.868 725.938,-377.332 732.827,-376.086"/>
</g>
<!-- Node28 -->
<g id="node28" class="node"><title>Node28</title>
<g id="a_node28"><a xlink:href="../../d8/d38/MIDICNChannelAddress_8hpp.html" target="_top" xlink:title=" ">
<polygon fill="white" stroke="black" points="787.5,-347.5 787.5,-366.5 950.5,-366.5 950.5,-347.5 787.5,-347.5"/>
<text text-anchor="middle" x="869" y="-354.5" font-family="Helvetica,sans-Serif" font-size="10.00">Def/MIDICNChannelAddress.hpp</text>
</a>
</g>
</g>
<!-- Node3&#45;&gt;Node28 -->
<g id="edge47" class="edge"><title>Node3&#45;&gt;Node28</title>
<path fill="none" stroke="midnightblue" d="M763.354,-526.463C780.527,-499.078 834.476,-413.052 857.929,-375.653"/>
<polygon fill="midnightblue" stroke="midnightblue" points="861.091,-377.2 863.438,-366.868 855.16,-373.481 861.091,-377.2"/>
</g>
<!-- Node5 -->
<g id="node5" class="node"><title>Node5</title>
<g id="a_node5"><a xlink:href="../../df/dee/Debug_8hpp.html" target="_top" xlink:title=" ">
<polygon fill="white" stroke="black" points="396.5,-291.5 396.5,-310.5 497.5,-310.5 497.5,-291.5 396.5,-291.5"/>
<text text-anchor="middle" x="447" y="-298.5" font-family="Helvetica,sans-Serif" font-size="10.00">Helpers/Debug.hpp</text>
</a>
</g>
</g>
<!-- Node4&#45;&gt;Node5 -->
<g id="edge4" class="edge"><title>Node4&#45;&gt;Node5</title>
<path fill="none" stroke="midnightblue" d="M517.229,-464.76C505.648,-437.921 470.437,-356.318 454.719,-319.89"/>
<polygon fill="midnightblue" stroke="midnightblue" points="457.851,-318.314 450.676,-310.519 451.424,-321.088 457.851,-318.314"/>
</g>
<!-- Node19 -->
<g id="node19" class="node"><title>Node19</title>
<g id="a_node19"><a xlink:href="../../d1/d93/Error_8hpp.html" target="_top" xlink:title=" ">
<polygon fill="white" stroke="black" points="361.5,-347.5 361.5,-366.5 454.5,-366.5 454.5,-347.5 361.5,-347.5"/>
<text text-anchor="middle" x="408" y="-354.5" font-family="Helvetica,sans-Serif" font-size="10.00">Helpers/Error.hpp</text>
</a>
</g>
</g>
<!-- Node4&#45;&gt;Node19 -->
<g id="edge25" class="edge"><title>Node4&#45;&gt;Node19</title>
<path fill="none" stroke="midnightblue" d="M511.668,-464.688C501.162,-454.708 483.645,-437.897 469,-423 452.828,-406.549 434.808,-387.218 422.574,-373.939"/>
<polygon fill="midnightblue" stroke="midnightblue" points="425.115,-371.531 415.773,-366.532 419.959,-376.265 425.115,-371.531"/>
</g>
<!-- Node20 -->
<g id="node20" class="node"><title>Node20</title>
<g id="a_node20"><a xlink:href="../../de/dd1/LinkedList_8hpp.html" target="_top" xlink:title=" ">
<polygon fill="white" stroke="black" points="549,-347.5 549,-366.5 665,-366.5 665,-347.5 549,-347.5"/>
<text text-anchor="middle" x="607" y="-354.5" font-family="Helvetica,sans-Serif" font-size="10.00">Helpers/LinkedList.hpp</text>
</a>
</g>
</g>
<!-- Node4&#45;&gt;Node20 -->
<g id="edge27" class="edge"><title>Node4&#45;&gt;Node20</title>
<path fill="none" stroke="midnightblue" d="M521.406,-464.869C522.464,-450.701 526.275,-422.172 540,-403 549.675,-389.484 564.77,-378.832 578.185,-371.292"/>
<polygon fill="midnightblue" stroke="midnightblue" points="579.91,-374.339 587.116,-366.571 576.639,-368.15 579.91,-374.339"/>
</g>
<!-- Node24 -->
<g id="node24" class="node"><title>Node24</title>
<g id="a_node24"><a xlink:href="../../d9/d46/Selectable_8hpp.html" target="_top" xlink:title=" ">
<polygon fill="white" stroke="black" points="270.5,-403.5 270.5,-422.5 395.5,-422.5 395.5,-403.5 270.5,-403.5"/>
<text text-anchor="middle" x="333" y="-410.5" font-family="Helvetica,sans-Serif" font-size="10.00">Selectors/Selectable.hpp</text>
</a>
</g>
</g>
<!-- Node4&#45;&gt;Node24 -->
<g id="edge33" class="edge"><title>Node4&#45;&gt;Node24</title>
<path fill="none" stroke="midnightblue" d="M494.064,-464.975C461.397,-454.636 406.181,-437.161 369.657,-425.602"/>
<polygon fill="midnightblue" stroke="midnightblue" points="370.476,-422.19 359.886,-422.509 368.364,-428.863 370.476,-422.19"/>
</g>
<!-- Node26 -->
<g id="node26" class="node"><title>Node26</title>
<g id="a_node26"><a xlink:href="../../de/d6e/BankableMIDIInput_8hpp.html" target="_top" xlink:title=" ">
<polygon fill="white" stroke="black" points="549,-403.5 549,-422.5 699,-422.5 699,-403.5 549,-403.5"/>
<text text-anchor="middle" x="624" y="-410.5" font-family="Helvetica,sans-Serif" font-size="10.00">Banks/BankableMIDIInput.hpp</text>
</a>
</g>
</g>
<!-- Node4&#45;&gt;Node26 -->
<g id="edge38" class="edge"><title>Node4&#45;&gt;Node26</title>
<path fill="none" stroke="midnightblue" d="M530.857,-464.975C545.764,-455.122 573.763,-438.788 595.3,-427.27"/>
<polygon fill="midnightblue" stroke="midnightblue" points="597.144,-430.255 604.373,-422.509 593.892,-424.056 597.144,-430.255"/>
</g>
<!-- Node6 -->
<g id="node6" class="node"><title>Node6</title>
<g id="a_node6"><a xlink:href="../../d2/dd5/SettingsWrapper_8hpp.html" target="_top" xlink:title=" ">
<polygon fill="white" stroke="black" points="373.5,-235.5 373.5,-254.5 520.5,-254.5 520.5,-235.5 373.5,-235.5"/>
<text text-anchor="middle" x="447" y="-242.5" font-family="Helvetica,sans-Serif" font-size="10.00">Settings/SettingsWrapper.hpp</text>
</a>
</g>
</g>
<!-- Node5&#45;&gt;Node6 -->
<g id="edge5" class="edge"><title>Node5&#45;&gt;Node6</title>
<path fill="none" stroke="midnightblue" d="M441.834,-291.083C440.324,-283.927 439.894,-273.635 440.542,-264.691"/>
<polygon fill="midnightblue" stroke="midnightblue" points="444.015,-265.126 441.869,-254.751 437.077,-264.2 444.015,-265.126"/>
</g>
<!-- Node18 -->
<g id="node18" class="node"><title>Node18</title>
<g id="a_node18"><a xlink:href="../../dd/d80/PrintStream_8hpp.html" target="_top" xlink:title=" ">
<polygon fill="white" stroke="black" points="176.5,-235.5 176.5,-254.5 263.5,-254.5 263.5,-235.5 176.5,-235.5"/>
<text text-anchor="middle" x="220" y="-242.5" font-family="Helvetica,sans-Serif" font-size="10.00">PrintStream.hpp</text>
</a>
</g>
</g>
<!-- Node5&#45;&gt;Node18 -->
<g id="edge23" class="edge"><title>Node5&#45;&gt;Node18</title>
<path fill="none" stroke="midnightblue" d="M411.031,-291.444C371.681,-282.083 308.513,-267.056 265.686,-256.868"/>
<polygon fill="midnightblue" stroke="midnightblue" points="266.339,-253.426 255.801,-254.516 264.719,-260.236 266.339,-253.426"/>
</g>
<!-- Node6&#45;&gt;Node5 -->
<g id="edge22" class="edge"><title>Node6&#45;&gt;Node5</title>
<path fill="none" stroke="midnightblue" d="M452.131,-254.751C453.657,-261.858 454.104,-272.136 453.472,-281.101"/>
<polygon fill="midnightblue" stroke="midnightblue" points="449.993,-280.713 452.166,-291.083 456.934,-281.622 449.993,-280.713"/>
</g>
<!-- Node7 -->
<g id="node7" class="node"><title>Node7</title>
<g id="a_node7"><a xlink:href="../../db/d02/Settings_8hpp.html" target="_top" xlink:title="All user settings and debugging options can be changed here.">
<polygon fill="white" stroke="black" points="531.5,-174 531.5,-193 602.5,-193 602.5,-174 531.5,-174"/>
<text text-anchor="middle" x="567" y="-181" font-family="Helvetica,sans-Serif" font-size="10.00">Settings.hpp</text>
</a>
</g>
</g>
<!-- Node6&#45;&gt;Node7 -->
<g id="edge6" class="edge"><title>Node6&#45;&gt;Node7</title>
<path fill="none" stroke="midnightblue" d="M464.193,-235.475C484.243,-225.534 517.599,-208.995 540.86,-197.461"/>
<polygon fill="midnightblue" stroke="midnightblue" points="542.434,-200.587 549.839,-193.009 539.325,-194.316 542.434,-200.587"/>
</g>
<!-- Node11 -->
<g id="node11" class="node"><title>Node11</title>
<g id="a_node11"><a xlink:href="../../dc/dc7/NamespaceSettings_8hpp.html" target="_top" xlink:title=" ">
<polygon fill="white" stroke="black" points="461.5,-0.5 461.5,-19.5 624.5,-19.5 624.5,-0.5 461.5,-0.5"/>
<text text-anchor="middle" x="543" y="-7.5" font-family="Helvetica,sans-Serif" font-size="10.00">Settings/NamespaceSettings.hpp</text>
</a>
</g>
</g>
<!-- Node6&#45;&gt;Node11 -->
<g id="edge20" class="edge"><title>Node6&#45;&gt;Node11</title>
<path fill="none" stroke="midnightblue" d="M405.949,-235.383C386.04,-228.916 363.906,-217.814 352,-199 344.632,-187.358 347.026,-180.849 352,-168 376.306,-105.213 400.407,-96.7515 454,-56 471.56,-42.648 493.685,-31.4402 511.483,-23.5494"/>
<polygon fill="midnightblue" stroke="midnightblue" points="513.064,-26.6795 520.868,-19.5144 510.299,-20.2486 513.064,-26.6795"/>
</g>
<!-- Node17 -->
<g id="node17" class="node"><title>Node17</title>
<g id="a_node17"><a xlink:href="../../d9/d98/TeensyUSBTypes_8hpp.html" target="_top" xlink:title=" ">
<polygon fill="white" stroke="black" points="361,-174 361,-193 513,-193 513,-174 361,-174"/>
<text text-anchor="middle" x="437" y="-181" font-family="Helvetica,sans-Serif" font-size="10.00">Helpers/TeensyUSBTypes.hpp</text>
</a>
</g>
</g>
<!-- Node6&#45;&gt;Node17 -->
<g id="edge21" class="edge"><title>Node6&#45;&gt;Node17</title>
<path fill="none" stroke="midnightblue" d="M445.567,-235.475C444.156,-227.08 441.955,-213.981 440.137,-203.163"/>
<polygon fill="midnightblue" stroke="midnightblue" points="443.539,-202.291 438.43,-193.009 436.636,-203.451 443.539,-202.291"/>
</g>
<!-- Node7&#45;&gt;Node8 -->
<g id="edge7" class="edge"><title>Node7&#45;&gt;Node8</title>
<path fill="none" stroke="midnightblue" d="M587.059,-173.975C610.762,-163.901 650.406,-147.053 677.583,-135.502"/>
<polygon fill="midnightblue" stroke="midnightblue" points="679.144,-138.642 686.979,-131.509 676.406,-132.199 679.144,-138.642"/>
</g>
<!-- Node16 -->
<g id="node16" class="node"><title>Node16</title>
<g id="a_node16"><a xlink:title=" ">
<polygon fill="white" stroke="#bfbfbf" points="543,-112.5 543,-131.5 591,-131.5 591,-112.5 543,-112.5"/>
<text text-anchor="middle" x="567" y="-119.5" font-family="Helvetica,sans-Serif" font-size="10.00">limits.h</text>
</a>
</g>
</g>
<!-- Node7&#45;&gt;Node16 -->
<g id="edge19" class="edge"><title>Node7&#45;&gt;Node16</title>
<path fill="none" stroke="midnightblue" d="M567,-173.975C567,-165.58 567,-152.481 567,-141.663"/>
<polygon fill="midnightblue" stroke="midnightblue" points="570.5,-141.509 567,-131.509 563.5,-141.509 570.5,-141.509"/>
</g>
<!-- Node9 -->
<g id="node9" class="node"><title>Node9</title>
<g id="a_node9"><a xlink:href="../../d7/d42/Channel_8hpp.html" target="_top" xlink:title=" ">
<polygon fill="white" stroke="black" points="639.5,-56.5 639.5,-75.5 710.5,-75.5 710.5,-56.5 639.5,-56.5"/>
<text text-anchor="middle" x="675" y="-63.5" font-family="Helvetica,sans-Serif" font-size="10.00">Channel.hpp</text>
</a>
</g>
</g>
<!-- Node8&#45;&gt;Node9 -->
<g id="edge8" class="edge"><title>Node8&#45;&gt;Node9</title>
<path fill="none" stroke="midnightblue" d="M701.716,-112.083C697.289,-104.613 690.837,-93.7244 685.382,-84.5199"/>
<polygon fill="midnightblue" stroke="midnightblue" points="688.295,-82.5697 680.186,-75.7511 682.273,-86.1383 688.295,-82.5697"/>
</g>
<!-- Node10 -->
<g id="node10" class="node"><title>Node10</title>
<g id="a_node10"><a xlink:title=" ">
<polygon fill="white" stroke="#bfbfbf" points="682.5,-0.5 682.5,-19.5 731.5,-19.5 731.5,-0.5 682.5,-0.5"/>
<text text-anchor="middle" x="707" y="-7.5" font-family="Helvetica,sans-Serif" font-size="10.00">stdint.h</text>
</a>
</g>
</g>
<!-- Node8&#45;&gt;Node10 -->
<g id="edge18" class="edge"><title>Node8&#45;&gt;Node10</title>
<path fill="none" stroke="midnightblue" d="M710.402,-112.215C714.816,-99.7666 721.654,-76.2531 719,-56 717.844,-47.1813 715.466,-37.6328 713.13,-29.6098"/>
<polygon fill="midnightblue" stroke="midnightblue" points="716.399,-28.3366 710.088,-19.8268 709.715,-30.4151 716.399,-28.3366"/>
</g>
<!-- Node8&#45;&gt;Node11 -->
<g id="edge16" class="edge"><title>Node8&#45;&gt;Node11</title>
<path fill="none" stroke="midnightblue" d="M691.052,-112.372C675.255,-103.665 650.521,-89.6001 630,-76 605.776,-59.9463 579.184,-39.6612 561.857,-26.0595"/>
<polygon fill="midnightblue" stroke="midnightblue" points="563.717,-23.0689 553.702,-19.6138 559.377,-28.5606 563.717,-23.0689"/>
</g>
<!-- Node12 -->
<g id="node12" class="node"><title>Node12</title>
<g id="a_node12"><a xlink:href="../../dc/d50/Frequency_8hpp.html" target="_top" xlink:title=" ">
<polygon fill="white" stroke="black" points="463.5,-56.5 463.5,-75.5 544.5,-75.5 544.5,-56.5 463.5,-56.5"/>
<text text-anchor="middle" x="504" y="-63.5" font-family="Helvetica,sans-Serif" font-size="10.00">Frequency.hpp</text>
</a>
</g>
</g>
<!-- Node8&#45;&gt;Node12 -->
<g id="edge11" class="edge"><title>Node8&#45;&gt;Node12</title>
<path fill="none" stroke="midnightblue" d="M674.834,-112.444C639.941,-103.162 584.107,-88.3093 545.829,-78.127"/>
<polygon fill="midnightblue" stroke="midnightblue" points="546.579,-74.7048 536.015,-75.5164 544.78,-81.4696 546.579,-74.7048"/>
</g>
<!-- Node13 -->
<g id="node13" class="node"><title>Node13</title>
<g id="a_node13"><a xlink:href="../../de/d76/Array_8hpp.html" target="_top" xlink:title=" ">
<polygon fill="white" stroke="black" points="767.5,-56.5 767.5,-75.5 862.5,-75.5 862.5,-56.5 767.5,-56.5"/>
<text text-anchor="middle" x="815" y="-63.5" font-family="Helvetica,sans-Serif" font-size="10.00">Helpers/Array.hpp</text>
</a>
</g>
</g>
<!-- Node8&#45;&gt;Node13 -->
<g id="edge13" class="edge"><title>Node8&#45;&gt;Node13</title>
<path fill="none" stroke="midnightblue" d="M724.352,-112.324C741.672,-103.664 768.515,-90.2424 788.502,-80.249"/>
<polygon fill="midnightblue" stroke="midnightblue" points="790.312,-83.2572 797.691,-75.6545 787.181,-76.9962 790.312,-83.2572"/>
</g>
<!-- Node15 -->
<g id="node15" class="node"><title>Node15</title>
<g id="a_node15"><a xlink:title=" ">
<polygon fill="white" stroke="#bfbfbf" points="865,-0.5 865,-19.5 917,-19.5 917,-0.5 865,-0.5"/>
<text text-anchor="middle" x="891" y="-7.5" font-family="Helvetica,sans-Serif" font-size="10.00">stddef.h</text>
</a>
</g>
</g>
<!-- Node8&#45;&gt;Node15 -->
<g id="edge17" class="edge"><title>Node8&#45;&gt;Node15</title>
<path fill="none" stroke="midnightblue" d="M742.188,-120.783C779.061,-118.641 836.346,-109.606 871,-76 883.306,-64.0662 888.086,-44.7617 889.919,-30.2853"/>
<polygon fill="midnightblue" stroke="midnightblue" points="893.439,-30.2158 890.845,-19.9437 886.467,-29.5919 893.439,-30.2158"/>
</g>
<!-- Node9&#45;&gt;Node10 -->
<g id="edge9" class="edge"><title>Node9&#45;&gt;Node10</title>
<path fill="none" stroke="midnightblue" d="M680.284,-56.083C684.711,-48.6127 691.163,-37.7244 696.618,-28.5199"/>
<polygon fill="midnightblue" stroke="midnightblue" points="699.727,-30.1383 701.814,-19.7511 693.705,-26.5697 699.727,-30.1383"/>
</g>
<!-- Node9&#45;&gt;Node11 -->
<g id="edge10" class="edge"><title>Node9&#45;&gt;Node11</title>
<path fill="none" stroke="midnightblue" d="M654.084,-56.4435C632.264,-47.5171 597.85,-33.4387 573.108,-23.3168"/>
<polygon fill="midnightblue" stroke="midnightblue" points="574.399,-20.0634 563.818,-19.5164 571.748,-26.5422 574.399,-20.0634"/>
</g>
<!-- Node12&#45;&gt;Node11 -->
<g id="edge12" class="edge"><title>Node12&#45;&gt;Node11</title>
<path fill="none" stroke="midnightblue" d="M510.44,-56.083C515.949,-48.4554 524.031,-37.2645 530.765,-27.9408"/>
<polygon fill="midnightblue" stroke="midnightblue" points="533.662,-29.9071 536.68,-19.7511 527.987,-25.8087 533.662,-29.9071"/>
</g>
<!-- Node14 -->
<g id="node14" class="node"><title>Node14</title>
<g id="a_node14"><a xlink:title=" ">
<polygon fill="white" stroke="#bfbfbf" points="268,-0.5 268,-19.5 326,-19.5 326,-0.5 268,-0.5"/>
<text text-anchor="middle" x="297" y="-7.5" font-family="Helvetica,sans-Serif" font-size="10.00">Arduino.h</text>
</a>
</g>
</g>
<!-- Node13&#45;&gt;Node14 -->
<g id="edge14" class="edge"><title>Node13&#45;&gt;Node14</title>
<path fill="none" stroke="midnightblue" d="M767.196,-60.0166C665.666,-49.4323 430.157,-24.8812 336.471,-15.1148"/>
<polygon fill="midnightblue" stroke="midnightblue" points="336.596,-11.6089 326.287,-14.0531 335.87,-18.5712 336.596,-11.6089"/>
</g>
<!-- Node13&#45;&gt;Node15 -->
<g id="edge15" class="edge"><title>Node13&#45;&gt;Node15</title>
<path fill="none" stroke="midnightblue" d="M827.211,-56.324C838.776,-48.1066 856.375,-35.6017 870.161,-25.8069"/>
<polygon fill="midnightblue" stroke="midnightblue" points="872.443,-28.4791 878.567,-19.8339 868.388,-22.7729 872.443,-28.4791"/>
</g>
<!-- Node18&#45;&gt;Node14 -->
<g id="edge24" class="edge"><title>Node18&#45;&gt;Node14</title>
<path fill="none" stroke="midnightblue" d="M216.144,-235.249C212.442,-226.333 207.111,-212.006 205,-199 202.793,-185.4 202.757,-181.594 205,-168 213.559,-116.137 213.251,-99.3367 243,-56 251.283,-43.933 263.658,-33.2955 274.472,-25.3967"/>
<polygon fill="midnightblue" stroke="midnightblue" points="276.49,-28.2567 282.702,-19.6743 272.494,-22.5094 276.49,-28.2567"/>
</g>
<!-- Node19&#45;&gt;Node5 -->
<g id="edge26" class="edge"><title>Node19&#45;&gt;Node5</title>
<path fill="none" stroke="midnightblue" d="M414.44,-347.083C419.949,-339.455 428.031,-328.264 434.765,-318.941"/>
<polygon fill="midnightblue" stroke="midnightblue" points="437.662,-320.907 440.68,-310.751 431.987,-316.809 437.662,-320.907"/>
</g>
<!-- Node20&#45;&gt;Node5 -->
<g id="edge28" class="edge"><title>Node20&#45;&gt;Node5</title>
<path fill="none" stroke="midnightblue" d="M581.648,-347.444C554.731,-338.359 512.004,-323.939 481.913,-313.783"/>
<polygon fill="midnightblue" stroke="midnightblue" points="482.828,-310.398 472.234,-310.516 480.59,-317.031 482.828,-310.398"/>
</g>
<!-- Node21 -->
<g id="node21" class="node"><title>Node21</title>
<g id="a_node21"><a xlink:title=" ">
<polygon fill="white" stroke="#bfbfbf" points="583,-291.5 583,-310.5 631,-310.5 631,-291.5 583,-291.5"/>
<text text-anchor="middle" x="607" y="-298.5" font-family="Helvetica,sans-Serif" font-size="10.00">stdlib.h</text>
</a>
</g>
</g>
<!-- Node20&#45;&gt;Node21 -->
<g id="edge29" class="edge"><title>Node20&#45;&gt;Node21</title>
<path fill="none" stroke="midnightblue" d="M607,-347.083C607,-340.006 607,-329.861 607,-320.986"/>
<polygon fill="midnightblue" stroke="midnightblue" points="610.5,-320.751 607,-310.751 603.5,-320.751 610.5,-320.751"/>
</g>
<!-- Node22 -->
<g id="node22" class="node"><title>Node22</title>
<g id="a_node22"><a xlink:href="../../d7/d79/MinMaxFix_8hpp.html" target="_top" xlink:title=" ">
<polygon fill="white" stroke="black" points="550,-235.5 550,-254.5 670,-254.5 670,-235.5 550,-235.5"/>
<text text-anchor="middle" x="610" y="-242.5" font-family="Helvetica,sans-Serif" font-size="10.00">Helpers/MinMaxFix.hpp</text>
</a>
</g>
</g>
<!-- Node20&#45;&gt;Node22 -->
<g id="edge30" class="edge"><title>Node20&#45;&gt;Node22</title>
<path fill="none" stroke="midnightblue" d="M597.6,-347.495C585.41,-335.379 566.543,-312.257 574,-291 577.785,-280.209 585.367,-270.084 592.6,-262.181"/>
<polygon fill="midnightblue" stroke="midnightblue" points="595.326,-264.4 599.838,-254.815 590.333,-259.494 595.326,-264.4"/>
</g>
<!-- Node23 -->
<g id="node23" class="node"><title>Node23</title>
<g id="a_node23"><a xlink:title=" ">
<polygon fill="white" stroke="#bfbfbf" points="649.5,-291.5 649.5,-310.5 696.5,-310.5 696.5,-291.5 649.5,-291.5"/>
<text text-anchor="middle" x="673" y="-298.5" font-family="Helvetica,sans-Serif" font-size="10.00">iterator</text>
</a>
</g>
</g>
<!-- Node20&#45;&gt;Node23 -->
<g id="edge32" class="edge"><title>Node20&#45;&gt;Node23</title>
<path fill="none" stroke="midnightblue" d="M617.604,-347.324C627.456,-339.263 642.351,-327.077 654.215,-317.369"/>
<polygon fill="midnightblue" stroke="midnightblue" points="656.68,-319.875 662.203,-310.834 652.247,-314.457 656.68,-319.875"/>
</g>
<!-- Node22&#45;&gt;Node14 -->
<g id="edge31" class="edge"><title>Node22&#45;&gt;Node14</title>
<path fill="none" stroke="midnightblue" d="M612.556,-235.468C618.971,-212.116 632.985,-146.6 600,-112 553.885,-63.6267 517.5,-96.8417 454,-76 407.462,-60.7255 355.251,-37.9229 324.3,-23.782"/>
<polygon fill="midnightblue" stroke="midnightblue" points="325.58,-20.518 315.032,-19.5157 322.653,-26.8767 325.58,-20.518"/>
</g>
<!-- Node24&#45;&gt;Node8 -->
<g id="edge34" class="edge"><title>Node24&#45;&gt;Node8</title>
<path fill="none" stroke="midnightblue" d="M333,-403.442C333,-384.936 333,-339.812 333,-302 333,-302 333,-302 333,-244 333,-209.183 325.961,-191.113 352,-168 363.476,-157.814 568.727,-136.543 661.787,-127.368"/>
<polygon fill="midnightblue" stroke="midnightblue" points="662.153,-130.849 671.763,-126.388 661.469,-123.882 662.153,-130.849"/>
</g>
<!-- Node24&#45;&gt;Node10 -->
<g id="edge37" class="edge"><title>Node24&#45;&gt;Node10</title>
<path fill="none" stroke="midnightblue" d="M326.01,-403.218C315.629,-390.37 295.283,-365.922 276,-347 226.423,-298.351 128.353,-292.716 167,-235 270.232,-80.8303 381.752,-147.408 553,-76 596.263,-57.96 646.238,-36.809 677.233,-23.654"/>
<polygon fill="midnightblue" stroke="midnightblue" points="678.76,-26.808 686.597,-19.6779 676.024,-20.3648 678.76,-26.808"/>
</g>
<!-- Node24&#45;&gt;Node19 -->
<g id="edge35" class="edge"><title>Node24&#45;&gt;Node19</title>
<path fill="none" stroke="midnightblue" d="M345.05,-403.324C356.463,-395.107 373.831,-382.602 387.435,-372.807"/>
<polygon fill="midnightblue" stroke="midnightblue" points="389.66,-375.517 395.731,-366.834 385.57,-369.837 389.66,-375.517"/>
</g>
<!-- Node25 -->
<g id="node25" class="node"><title>Node25</title>
<g id="a_node25"><a xlink:href="../../d7/dd7/Helpers_8hpp.html" target="_top" xlink:title=" ">
<polygon fill="white" stroke="black" points="161,-347.5 161,-366.5 267,-366.5 267,-347.5 161,-347.5"/>
<text text-anchor="middle" x="214" y="-354.5" font-family="Helvetica,sans-Serif" font-size="10.00">Helpers/Helpers.hpp</text>
</a>
</g>
</g>
<!-- Node24&#45;&gt;Node25 -->
<g id="edge36" class="edge"><title>Node24&#45;&gt;Node25</title>
<path fill="none" stroke="midnightblue" d="M314.144,-403.444C294.734,-394.636 264.27,-380.812 242.035,-370.722"/>
<polygon fill="midnightblue" stroke="midnightblue" points="243.32,-367.462 232.768,-366.516 240.428,-373.836 243.32,-367.462"/>
</g>
<!-- Node26&#45;&gt;Node4 -->
<g id="edge39" class="edge"><title>Node26&#45;&gt;Node4</title>
<path fill="none" stroke="midnightblue" d="M614.167,-422.509C599.274,-432.355 571.278,-448.688 549.735,-460.212"/>
<polygon fill="midnightblue" stroke="midnightblue" points="547.886,-457.229 540.658,-464.975 551.139,-463.427 547.886,-457.229"/>
</g>
<!-- Node26&#45;&gt;Node5 -->
<g id="edge44" class="edge"><title>Node26&#45;&gt;Node5</title>
<path fill="none" stroke="midnightblue" d="M606.613,-403.445C589.389,-394.794 562.413,-380.77 540,-367 513.893,-350.961 485.177,-330.416 466.661,-316.762"/>
<polygon fill="midnightblue" stroke="midnightblue" points="468.562,-313.814 458.447,-310.662 464.389,-319.434 468.562,-313.814"/>
</g>
<!-- Node26&#45;&gt;Node20 -->
<g id="edge45" class="edge"><title>Node26&#45;&gt;Node20</title>
<path fill="none" stroke="midnightblue" d="M621.193,-403.083C618.915,-395.849 615.629,-385.409 612.792,-376.397"/>
<polygon fill="midnightblue" stroke="midnightblue" points="616.096,-375.239 609.755,-366.751 609.419,-377.341 616.096,-375.239"/>
</g>
<!-- Node26&#45;&gt;Node27 -->
<g id="edge40" class="edge"><title>Node26&#45;&gt;Node27</title>
<path fill="none" stroke="midnightblue" d="M640.388,-403.324C656.671,-394.703 681.867,-381.364 700.716,-371.386"/>
<polygon fill="midnightblue" stroke="midnightblue" points="702.452,-374.427 709.653,-366.655 699.177,-368.24 702.452,-374.427"/>
</g>
<!-- Node26&#45;&gt;Node28 -->
<g id="edge42" class="edge"><title>Node26&#45;&gt;Node28</title>
<path fill="none" stroke="midnightblue" d="M662.821,-403.444C705.561,-394.023 774.332,-378.866 820.566,-368.675"/>
<polygon fill="midnightblue" stroke="midnightblue" points="821.348,-372.087 830.361,-366.516 819.842,-365.251 821.348,-372.087"/>
</g>
<!-- Node27&#45;&gt;Node8 -->
<g id="edge41" class="edge"><title>Node27&#45;&gt;Node8</title>
<path fill="none" stroke="midnightblue" d="M725.301,-347.431C722.555,-313.754 712.463,-189.994 708.558,-142.102"/>
<polygon fill="midnightblue" stroke="midnightblue" points="712.027,-141.578 707.725,-131.896 705.05,-142.147 712.027,-141.578"/>
</g>
<!-- Node28&#45;&gt;Node8 -->
<g id="edge43" class="edge"><title>Node28&#45;&gt;Node8</title>
<path fill="none" stroke="midnightblue" d="M863.042,-347.431C839.331,-313.327 751.386,-186.84 719.04,-140.316"/>
<polygon fill="midnightblue" stroke="midnightblue" points="721.767,-138.108 713.185,-131.896 716.02,-142.104 721.767,-138.108"/>
</g>
<!-- Node29&#45;&gt;Node6 -->
<g id="edge55" class="edge"><title>Node29&#45;&gt;Node6</title>
<path fill="none" stroke="midnightblue" d="M218.788,-526.256C220.372,-503.993 221.962,-444.031 198,-403 181.757,-375.186 133.273,-373.206 152,-347 199.623,-280.358 294.006,-257.21 363.238,-249.423"/>
<polygon fill="midnightblue" stroke="midnightblue" points="363.676,-252.896 373.261,-248.382 362.953,-245.934 363.676,-252.896"/>
</g>
<!-- Node30 -->
<g id="node30" class="node"><title>Node30</title>
<g id="a_node30"><a xlink:href="../../dd/ddf/ExtendedInputOutput_8hpp.html" target="_top" xlink:title=" ">
<polygon fill="white" stroke="black" points="36,-459.5 36,-489.5 190,-489.5 190,-459.5 36,-459.5"/>
<text text-anchor="start" x="44" y="-477.5" font-family="Helvetica,sans-Serif" font-size="10.00">Hardware/ExtendedInputOutput</text>
<text text-anchor="middle" x="113" y="-466.5" font-family="Helvetica,sans-Serif" font-size="10.00">/ExtendedInputOutput.hpp</text>
</a>
</g>
</g>
<!-- Node29&#45;&gt;Node30 -->
<g id="edge50" class="edge"><title>Node29&#45;&gt;Node30</title>
<path fill="none" stroke="midnightblue" d="M202.956,-526.475C188.337,-518.191 165.631,-505.325 146.69,-494.591"/>
<polygon fill="midnightblue" stroke="midnightblue" points="148.172,-491.408 137.746,-489.523 144.721,-497.498 148.172,-491.408"/>
</g>
<!-- Node30&#45;&gt;Node14 -->
<g id="edge54" class="edge"><title>Node30&#45;&gt;Node14</title>
<path fill="none" stroke="midnightblue" d="M92.2334,-459.316C80.3497,-450.211 66.0502,-437.413 57,-423 40.9949,-397.511 38,-388.098 38,-358 38,-358 38,-358 38,-121 38,-26.7106 185.221,-12.0714 257.672,-10.576"/>
<polygon fill="midnightblue" stroke="midnightblue" points="257.84,-14.0742 267.793,-10.4429 257.748,-7.07484 257.84,-14.0742"/>
</g>
<!-- Node31 -->
<g id="node31" class="node"><title>Node31</title>
<g id="a_node31"><a xlink:href="../../d4/d57/ExtendedIOElement_8hpp.html" target="_top" xlink:title=" ">
<polygon fill="white" stroke="black" points="66.5,-403.5 66.5,-422.5 189.5,-422.5 189.5,-403.5 66.5,-403.5"/>
<text text-anchor="middle" x="128" y="-410.5" font-family="Helvetica,sans-Serif" font-size="10.00">ExtendedIOElement.hpp</text>
</a>
</g>
</g>
<!-- Node30&#45;&gt;Node31 -->
<g id="edge51" class="edge"><title>Node30&#45;&gt;Node31</title>
<path fill="none" stroke="midnightblue" d="M116.555,-459.399C118.577,-451.377 121.135,-441.233 123.319,-432.569"/>
<polygon fill="midnightblue" stroke="midnightblue" points="126.767,-433.21 125.817,-422.658 119.979,-431.499 126.767,-433.21"/>
</g>
<!-- Node31&#45;&gt;Node8 -->
<g id="edge52" class="edge"><title>Node31&#45;&gt;Node8</title>
<path fill="none" stroke="midnightblue" d="M129.054,-403.227C130.837,-390.39 135.153,-365.956 144,-347 157.046,-319.048 160.737,-310.048 185,-291 217.915,-265.159 239.662,-281.558 272,-255 307.913,-225.506 290.401,-192.322 330,-168 343.989,-159.408 564.561,-136.933 661.683,-127.388"/>
<polygon fill="midnightblue" stroke="midnightblue" points="662.18,-130.856 671.791,-126.398 661.498,-123.89 662.18,-130.856"/>
</g>
<!-- Node31&#45;&gt;Node20 -->
<g id="edge53" class="edge"><title>Node31&#45;&gt;Node20</title>
<path fill="none" stroke="midnightblue" d="M189.64,-405.051C279.387,-394.933 445.469,-376.21 538.785,-365.69"/>
<polygon fill="midnightblue" stroke="midnightblue" points="539.42,-369.141 548.965,-364.543 538.636,-362.185 539.42,-369.141"/>
</g>
<!-- Node34 -->
<g id="node34" class="node"><title>Node34</title>
<g id="a_node34"><a xlink:href="../../d1/d12/Intervals_8hpp.html" target="_top" xlink:title=" ">
<polygon fill="white" stroke="black" points="955.5,-56.5 955.5,-75.5 1028.5,-75.5 1028.5,-56.5 955.5,-56.5"/>
<text text-anchor="middle" x="992" y="-63.5" font-family="Helvetica,sans-Serif" font-size="10.00">Intervals.hpp</text>
</a>
</g>
</g>
<!-- Node33&#45;&gt;Node34 -->
<g id="edge58" class="edge"><title>Node33&#45;&gt;Node34</title>
<path fill="none" stroke="midnightblue" d="M1159.58,-168.337C1122.82,-146.108 1052,-103.28 1015.31,-81.0933"/>
<polygon fill="midnightblue" stroke="midnightblue" points="1016.7,-77.8491 1006.34,-75.6695 1013.08,-83.8391 1016.7,-77.8491"/>
</g>
<!-- Node35 -->
<g id="node35" class="node"><title>Node35</title>
<g id="a_node35"><a xlink:href="../../d5/db6/ArrayHelpers_8hpp.html" target="_top" xlink:title=" ">
<polygon fill="white" stroke="black" points="848.5,-112.5 848.5,-131.5 977.5,-131.5 977.5,-112.5 848.5,-112.5"/>
<text text-anchor="middle" x="913" y="-119.5" font-family="Helvetica,sans-Serif" font-size="10.00">Helpers/ArrayHelpers.hpp</text>
</a>
</g>
</g>
<!-- Node33&#45;&gt;Node35 -->
<g id="edge60" class="edge"><title>Node33&#45;&gt;Node35</title>
<path fill="none" stroke="midnightblue" d="M1121.39,-168.924C1073.02,-158.264 1006.59,-143.624 961.845,-133.764"/>
<polygon fill="midnightblue" stroke="midnightblue" points="962.322,-130.285 951.803,-131.551 960.815,-137.121 962.322,-130.285"/>
</g>
<!-- Node34&#45;&gt;Node10 -->
<g id="edge59" class="edge"><title>Node34&#45;&gt;Node10</title>
<path fill="none" stroke="midnightblue" d="M955.325,-58.051C900.075,-47.5826 796.202,-27.9015 741.972,-17.6262"/>
<polygon fill="midnightblue" stroke="midnightblue" points="742.293,-14.125 731.817,-15.7021 740.99,-21.0026 742.293,-14.125"/>
</g>
<!-- Node35&#45;&gt;Node13 -->
<g id="edge61" class="edge"><title>Node35&#45;&gt;Node13</title>
<path fill="none" stroke="midnightblue" d="M897.255,-112.324C881.681,-103.743 857.623,-90.486 839.541,-80.5224"/>
<polygon fill="midnightblue" stroke="midnightblue" points="841.154,-77.4152 830.706,-75.6545 837.776,-83.546 841.154,-77.4152"/>
</g>
<!-- Node36&#45;&gt;Node8 -->
<g id="edge63" class="edge"><title>Node36&#45;&gt;Node8</title>
<path fill="none" stroke="midnightblue" d="M974.521,-462.942C997.501,-455.704 1021.25,-443.516 1035,-423 1055.73,-392.078 1199.65,-593.912 1031,-235 1011.71,-193.943 994.884,-187.656 954,-168 888.582,-136.55 803.755,-126.974 752.452,-124.123"/>
<polygon fill="midnightblue" stroke="midnightblue" points="752.503,-120.621 742.343,-123.624 752.158,-127.613 752.503,-120.621"/>
</g>
<!-- Node36&#45;&gt;Node28 -->
<g id="edge64" class="edge"><title>Node36&#45;&gt;Node28</title>
<path fill="none" stroke="midnightblue" d="M906.727,-459.337C898.945,-438.433 884.379,-399.31 875.802,-376.27"/>
<polygon fill="midnightblue" stroke="midnightblue" points="878.997,-374.82 872.228,-366.669 872.437,-377.262 878.997,-374.82"/>
</g>
<!-- Node37 -->
<g id="node37" class="node"><title>Node37</title>
<g id="a_node37"><a xlink:href="../../d4/d93/Updatable_8hpp.html" target="_top" xlink:title=" ">
<polygon fill="white" stroke="black" points="910,-403.5 910,-422.5 1026,-422.5 1026,-403.5 910,-403.5"/>
<text text-anchor="middle" x="968" y="-410.5" font-family="Helvetica,sans-Serif" font-size="10.00">Helpers/Updatable.hpp</text>
</a>
</g>
</g>
<!-- Node36&#45;&gt;Node37 -->
<g id="edge65" class="edge"><title>Node36&#45;&gt;Node37</title>
<path fill="none" stroke="midnightblue" d="M925.271,-459.399C933.576,-450.575 944.299,-439.183 952.924,-430.018"/>
<polygon fill="midnightblue" stroke="midnightblue" points="955.547,-432.339 959.852,-422.658 950.449,-427.541 955.547,-432.339"/>
</g>
<!-- Node37&#45;&gt;Node6 -->
<g id="edge69" class="edge"><title>Node37&#45;&gt;Node6</title>
<path fill="none" stroke="midnightblue" d="M969.64,-403.122C971.649,-389.241 973.222,-362.399 959,-347 929.569,-315.134 657.638,-274.422 522.501,-255.932"/>
<polygon fill="midnightblue" stroke="midnightblue" points="522.605,-252.414 512.224,-254.533 521.66,-259.35 522.605,-252.414"/>
</g>
<!-- Node37&#45;&gt;Node8 -->
<g id="edge66" class="edge"><title>Node37&#45;&gt;Node8</title>
<path fill="none" stroke="midnightblue" d="M974.813,-403.458C988.277,-385.688 1017,-342.976 1017,-302 1017,-302 1017,-302 1017,-244 1017,-187.858 838.331,-147.221 752.276,-130.905"/>
<polygon fill="midnightblue" stroke="midnightblue" points="752.731,-127.429 742.259,-129.036 751.448,-134.31 752.731,-127.429"/>
</g>
<!-- Node37&#45;&gt;Node15 -->
<g id="edge70" class="edge"><title>Node37&#45;&gt;Node15</title>
<path fill="none" stroke="midnightblue" d="M981.377,-403.345C1013.62,-381.31 1093,-319.596 1093,-246 1093,-246 1093,-246 1093,-121 1093,-46.5673 985.908,-22.209 927.676,-14.4659"/>
<polygon fill="midnightblue" stroke="midnightblue" points="927.76,-10.9501 917.408,-13.2051 926.907,-17.8979 927.76,-10.9501"/>
</g>
<!-- Node37&#45;&gt;Node19 -->
<g id="edge67" class="edge"><title>Node37&#45;&gt;Node19</title>
<path fill="none" stroke="midnightblue" d="M909.917,-406.399C802.012,-395.994 571.892,-373.804 464.893,-363.486"/>
<polygon fill="midnightblue" stroke="midnightblue" points="464.912,-359.972 454.622,-362.496 464.24,-366.939 464.912,-359.972"/>
</g>
<!-- Node37&#45;&gt;Node20 -->
<g id="edge68" class="edge"><title>Node37&#45;&gt;Node20</title>
<path fill="none" stroke="midnightblue" d="M910.798,-403.444C846.503,-393.826 742.225,-378.228 674.125,-368.041"/>
<polygon fill="midnightblue" stroke="midnightblue" points="674.342,-364.534 663.934,-366.516 673.306,-371.457 674.342,-364.534"/>
</g>
</g>
</svg>
