<?xml version="1.0" encoding="UTF-8" standalone="no"?>
<!DOCTYPE svg PUBLIC "-//W3C//DTD SVG 1.1//EN"
 "http://www.w3.org/Graphics/SVG/1.1/DTD/svg11.dtd">
<!-- Generated by graphviz version 2.38.0 (20140413.2041)
 -->
<!-- Title: MIDIIncrementDecrementButtons.hpp Pages: 1 -->
<svg width="1520pt" height="688pt"
 viewBox="0.00 0.00 1519.50 688.00" xmlns="http://www.w3.org/2000/svg" xmlns:xlink="http://www.w3.org/1999/xlink">
<g id="graph0" class="graph" transform="scale(1 1) rotate(0) translate(4 684)">
<title>MIDIIncrementDecrementButtons.hpp</title>
<polygon fill="white" stroke="none" points="-4,4 -4,-684 1515.5,-684 1515.5,4 -4,4"/>
<!-- Node1 -->
<g id="node1" class="node"><title>Node1</title>
<g id="a_node1"><a xlink:title=" ">
<polygon fill="#bfbfbf" stroke="black" points="186,-660.5 186,-679.5 368,-679.5 368,-660.5 186,-660.5"/>
<text text-anchor="middle" x="277" y="-667.5" font-family="Helvetica,sans-Serif" font-size="10.00">MIDIIncrementDecrementButtons.hpp</text>
</a>
</g>
</g>
<!-- Node2 -->
<g id="node2" class="node"><title>Node2</title>
<g id="a_node2"><a xlink:href="../../db/df2/BankableMIDIOutput_8hpp.html" target="_top" xlink:title=" ">
<polygon fill="white" stroke="black" points="91,-532 91,-551 249,-551 249,-532 91,-532"/>
<text text-anchor="middle" x="170" y="-539" font-family="Helvetica,sans-Serif" font-size="10.00">Banks/BankableMIDIOutput.hpp</text>
</a>
</g>
</g>
<!-- Node1&#45;&gt;Node2 -->
<g id="edge1" class="edge"><title>Node1&#45;&gt;Node2</title>
<path fill="none" stroke="midnightblue" d="M269.645,-660.305C252.007,-639.452 207.061,-586.315 184.045,-559.105"/>
<polygon fill="midnightblue" stroke="midnightblue" points="186.536,-556.63 177.406,-551.256 181.192,-561.151 186.536,-556.63"/>
</g>
<!-- Node7 -->
<g id="node7" class="node"><title>Node7</title>
<g id="a_node7"><a xlink:href="../../d0/d4e/Def_8hpp.html" target="_top" xlink:title=" ">
<polygon fill="white" stroke="black" points="445,-112.5 445,-131.5 515,-131.5 515,-112.5 445,-112.5"/>
<text text-anchor="middle" x="480" y="-119.5" font-family="Helvetica,sans-Serif" font-size="10.00">Def/Def.hpp</text>
</a>
</g>
</g>
<!-- Node1&#45;&gt;Node7 -->
<g id="edge47" class="edge"><title>Node1&#45;&gt;Node7</title>
<path fill="none" stroke="midnightblue" d="M185.916,-664.256C105.181,-654.549 0,-625.899 0,-542.5 0,-542.5 0,-542.5 0,-233 0,-144.409 314.579,-127.165 434.402,-123.81"/>
<polygon fill="midnightblue" stroke="midnightblue" points="434.799,-127.301 444.704,-123.542 434.617,-120.303 434.799,-127.301"/>
</g>
<!-- Node28 -->
<g id="node28" class="node"><title>Node28</title>
<g id="a_node28"><a xlink:href="../../df/df5/IncrementDecrementButtons_8hpp.html" target="_top" xlink:title=" ">
<polygon fill="white" stroke="black" points="582.5,-593.5 582.5,-623.5 735.5,-623.5 735.5,-593.5 582.5,-593.5"/>
<text text-anchor="start" x="590.5" y="-611.5" font-family="Helvetica,sans-Serif" font-size="10.00">Hardware/IncrementDecrement</text>
<text text-anchor="middle" x="659" y="-600.5" font-family="Helvetica,sans-Serif" font-size="10.00">Buttons.hpp</text>
</a>
</g>
</g>
<!-- Node1&#45;&gt;Node28 -->
<g id="edge48" class="edge"><title>Node1&#45;&gt;Node28</title>
<path fill="none" stroke="midnightblue" d="M331.731,-660.475C394.487,-650.7 498.194,-634.547 572.04,-623.045"/>
<polygon fill="midnightblue" stroke="midnightblue" points="572.913,-626.451 582.255,-621.454 571.835,-619.535 572.913,-626.451"/>
</g>
<!-- Node32 -->
<g id="node32" class="node"><title>Node32</title>
<g id="a_node32"><a xlink:href="../../d1/d41/MIDIOutputElement_8hpp.html" target="_top" xlink:title=" ">
<polygon fill="white" stroke="black" points="206.5,-459.5 206.5,-489.5 331.5,-489.5 331.5,-459.5 206.5,-459.5"/>
<text text-anchor="start" x="214.5" y="-477.5" font-family="Helvetica,sans-Serif" font-size="10.00">MIDI_Outputs/Abstract</text>
<text text-anchor="middle" x="269" y="-466.5" font-family="Helvetica,sans-Serif" font-size="10.00">/MIDIOutputElement.hpp</text>
</a>
</g>
</g>
<!-- Node1&#45;&gt;Node32 -->
<g id="edge56" class="edge"><title>Node1&#45;&gt;Node32</title>
<path fill="none" stroke="midnightblue" d="M276.646,-660.436C275.491,-632.513 271.808,-543.411 270.008,-499.889"/>
<polygon fill="midnightblue" stroke="midnightblue" points="273.494,-499.477 269.584,-489.63 266.5,-499.766 273.494,-499.477"/>
</g>
<!-- Node34 -->
<g id="node34" class="node"><title>Node34</title>
<g id="a_node34"><a xlink:href="../../d1/daa/DigitalNoteSender_8hpp.html" target="_top" xlink:title=" ">
<polygon fill="white" stroke="black" points="946.5,-593.5 946.5,-623.5 1077.5,-623.5 1077.5,-593.5 946.5,-593.5"/>
<text text-anchor="start" x="954.5" y="-611.5" font-family="Helvetica,sans-Serif" font-size="10.00">MIDI_Senders/DigitalNote</text>
<text text-anchor="middle" x="1012" y="-600.5" font-family="Helvetica,sans-Serif" font-size="10.00">Sender.hpp</text>
</a>
</g>
</g>
<!-- Node1&#45;&gt;Node34 -->
<g id="edge65" class="edge"><title>Node1&#45;&gt;Node34</title>
<path fill="none" stroke="midnightblue" d="M368.232,-661.615C514.737,-649.755 799.779,-626.68 935.979,-615.654"/>
<polygon fill="midnightblue" stroke="midnightblue" points="936.631,-619.113 946.316,-614.817 936.066,-612.136 936.631,-619.113"/>
</g>
<!-- Node3 -->
<g id="node3" class="node"><title>Node3</title>
<g id="a_node3"><a xlink:href="../../d4/d57/Bank_8hpp.html" target="_top" xlink:title=" ">
<polygon fill="white" stroke="black" points="606,-465 606,-484 664,-484 664,-465 606,-465"/>
<text text-anchor="middle" x="635" y="-472" font-family="Helvetica,sans-Serif" font-size="10.00">Bank.hpp</text>
</a>
</g>
</g>
<!-- Node2&#45;&gt;Node3 -->
<g id="edge2" class="edge"><title>Node2&#45;&gt;Node3</title>
<path fill="none" stroke="midnightblue" d="M231.269,-531.936C328.273,-518.376 514.512,-492.342 595.627,-481.004"/>
<polygon fill="midnightblue" stroke="midnightblue" points="596.48,-484.419 605.899,-479.568 595.511,-477.486 596.48,-484.419"/>
</g>
<!-- Node26 -->
<g id="node26" class="node"><title>Node26</title>
<g id="a_node26"><a xlink:href="../../dd/d1f/BankConfig_8hpp.html" target="_top" xlink:title=" ">
<polygon fill="white" stroke="black" points="28,-336.5 28,-355.5 114,-355.5 114,-336.5 28,-336.5"/>
<text text-anchor="middle" x="71" y="-343.5" font-family="Helvetica,sans-Serif" font-size="10.00">BankConfig.hpp</text>
</a>
</g>
</g>
<!-- Node2&#45;&gt;Node26 -->
<g id="edge45" class="edge"><title>Node2&#45;&gt;Node26</title>
<path fill="none" stroke="midnightblue" d="M165.618,-531.936C150.578,-502.538 100.841,-405.325 80.1521,-364.888"/>
<polygon fill="midnightblue" stroke="midnightblue" points="83.2277,-363.215 75.557,-355.907 76.9959,-366.404 83.2277,-363.215"/>
</g>
<!-- Node27 -->
<g id="node27" class="node"><title>Node27</title>
<g id="a_node27"><a xlink:href="../../d8/d38/MIDICNChannelAddress_8hpp.html" target="_top" xlink:title=" ">
<polygon fill="white" stroke="black" points="132.5,-336.5 132.5,-355.5 295.5,-355.5 295.5,-336.5 132.5,-336.5"/>
<text text-anchor="middle" x="214" y="-343.5" font-family="Helvetica,sans-Serif" font-size="10.00">Def/MIDICNChannelAddress.hpp</text>
</a>
</g>
</g>
<!-- Node2&#45;&gt;Node27 -->
<g id="edge46" class="edge"><title>Node2&#45;&gt;Node27</title>
<path fill="none" stroke="midnightblue" d="M171.947,-531.936C178.59,-502.725 200.457,-406.558 209.756,-365.666"/>
<polygon fill="midnightblue" stroke="midnightblue" points="213.17,-366.434 211.975,-355.907 206.344,-364.882 213.17,-366.434"/>
</g>
<!-- Node4 -->
<g id="node4" class="node"><title>Node4</title>
<g id="a_node4"><a xlink:href="../../df/dee/Debug_8hpp.html" target="_top" xlink:title=" ">
<polygon fill="white" stroke="black" points="749.5,-280.5 749.5,-299.5 850.5,-299.5 850.5,-280.5 749.5,-280.5"/>
<text text-anchor="middle" x="800" y="-287.5" font-family="Helvetica,sans-Serif" font-size="10.00">Helpers/Debug.hpp</text>
</a>
</g>
</g>
<!-- Node3&#45;&gt;Node4 -->
<g id="edge3" class="edge"><title>Node3&#45;&gt;Node4</title>
<path fill="none" stroke="midnightblue" d="M664.099,-471.305C718.89,-466.503 834.029,-453.006 858,-423 871.436,-406.182 847.009,-341.386 844,-336 837.716,-324.754 827.887,-314.321 819.111,-306.338"/>
<polygon fill="midnightblue" stroke="midnightblue" points="821.334,-303.634 811.48,-299.743 816.757,-308.93 821.334,-303.634"/>
</g>
<!-- Node18 -->
<g id="node18" class="node"><title>Node18</title>
<g id="a_node18"><a xlink:href="../../d1/d93/Error_8hpp.html" target="_top" xlink:title=" ">
<polygon fill="white" stroke="black" points="742.5,-336.5 742.5,-355.5 835.5,-355.5 835.5,-336.5 742.5,-336.5"/>
<text text-anchor="middle" x="789" y="-343.5" font-family="Helvetica,sans-Serif" font-size="10.00">Helpers/Error.hpp</text>
</a>
</g>
</g>
<!-- Node3&#45;&gt;Node18 -->
<g id="edge24" class="edge"><title>Node3&#45;&gt;Node18</title>
<path fill="none" stroke="midnightblue" d="M664.304,-470.694C715.851,-465.085 819.352,-450.596 841,-423 849.504,-412.16 846.728,-404.531 841,-392 835.223,-379.36 823.948,-368.911 813.369,-361.274"/>
<polygon fill="midnightblue" stroke="midnightblue" points="815.042,-358.182 804.783,-355.533 811.151,-364.001 815.042,-358.182"/>
</g>
<!-- Node19 -->
<g id="node19" class="node"><title>Node19</title>
<g id="a_node19"><a xlink:href="../../de/dd1/LinkedList_8hpp.html" target="_top" xlink:title=" ">
<polygon fill="white" stroke="black" points="1006,-336.5 1006,-355.5 1122,-355.5 1122,-336.5 1006,-336.5"/>
<text text-anchor="middle" x="1064" y="-343.5" font-family="Helvetica,sans-Serif" font-size="10.00">Helpers/LinkedList.hpp</text>
</a>
</g>
</g>
<!-- Node3&#45;&gt;Node19 -->
<g id="edge26" class="edge"><title>Node3&#45;&gt;Node19</title>
<path fill="none" stroke="midnightblue" d="M664.387,-470.9C715.722,-465.757 824.591,-452.159 912,-423 960.278,-406.894 1012.51,-377.986 1041.44,-360.842"/>
<polygon fill="midnightblue" stroke="midnightblue" points="1043.55,-363.66 1050.33,-355.514 1039.95,-357.657 1043.55,-363.66"/>
</g>
<!-- Node23 -->
<g id="node23" class="node"><title>Node23</title>
<g id="a_node23"><a xlink:href="../../d9/d46/Selectable_8hpp.html" target="_top" xlink:title=" ">
<polygon fill="white" stroke="black" points="572.5,-398 572.5,-417 697.5,-417 697.5,-398 572.5,-398"/>
<text text-anchor="middle" x="635" y="-405" font-family="Helvetica,sans-Serif" font-size="10.00">Selectors/Selectable.hpp</text>
</a>
</g>
</g>
<!-- Node3&#45;&gt;Node23 -->
<g id="edge32" class="edge"><title>Node3&#45;&gt;Node23</title>
<path fill="none" stroke="midnightblue" d="M635,-464.734C635,-455.183 635,-439.618 635,-427.283"/>
<polygon fill="midnightblue" stroke="midnightblue" points="638.5,-427.127 635,-417.127 631.5,-427.127 638.5,-427.127"/>
</g>
<!-- Node25 -->
<g id="node25" class="node"><title>Node25</title>
<g id="a_node25"><a xlink:href="../../de/d6e/BankableMIDIInput_8hpp.html" target="_top" xlink:title=" ">
<polygon fill="white" stroke="black" points="274,-398 274,-417 424,-417 424,-398 274,-398"/>
<text text-anchor="middle" x="349" y="-405" font-family="Helvetica,sans-Serif" font-size="10.00">Banks/BankableMIDIInput.hpp</text>
</a>
</g>
</g>
<!-- Node3&#45;&gt;Node25 -->
<g id="edge37" class="edge"><title>Node3&#45;&gt;Node25</title>
<path fill="none" stroke="midnightblue" d="M605.84,-467.789C554.974,-456.953 450.311,-433.253 391.436,-419.322"/>
<polygon fill="midnightblue" stroke="midnightblue" points="392.235,-415.915 381.696,-417.007 390.616,-422.725 392.235,-415.915"/>
</g>
<!-- Node5 -->
<g id="node5" class="node"><title>Node5</title>
<g id="a_node5"><a xlink:href="../../d2/dd5/SettingsWrapper_8hpp.html" target="_top" xlink:title=" ">
<polygon fill="white" stroke="black" points="726.5,-224.5 726.5,-243.5 873.5,-243.5 873.5,-224.5 726.5,-224.5"/>
<text text-anchor="middle" x="800" y="-231.5" font-family="Helvetica,sans-Serif" font-size="10.00">Settings/SettingsWrapper.hpp</text>
</a>
</g>
</g>
<!-- Node4&#45;&gt;Node5 -->
<g id="edge4" class="edge"><title>Node4&#45;&gt;Node5</title>
<path fill="none" stroke="midnightblue" d="M794.834,-280.083C793.324,-272.927 792.894,-262.635 793.542,-253.691"/>
<polygon fill="midnightblue" stroke="midnightblue" points="797.015,-254.126 794.869,-243.751 790.077,-253.2 797.015,-254.126"/>
</g>
<!-- Node17 -->
<g id="node17" class="node"><title>Node17</title>
<g id="a_node17"><a xlink:href="../../dd/d80/PrintStream_8hpp.html" target="_top" xlink:title=" ">
<polygon fill="white" stroke="black" points="968.5,-168.5 968.5,-187.5 1055.5,-187.5 1055.5,-168.5 968.5,-168.5"/>
<text text-anchor="middle" x="1012" y="-175.5" font-family="Helvetica,sans-Serif" font-size="10.00">PrintStream.hpp</text>
</a>
</g>
</g>
<!-- Node4&#45;&gt;Node17 -->
<g id="edge22" class="edge"><title>Node4&#45;&gt;Node17</title>
<path fill="none" stroke="midnightblue" d="M816.635,-280.368C853.556,-261.211 942.55,-215.036 986.527,-192.217"/>
<polygon fill="midnightblue" stroke="midnightblue" points="988.178,-195.304 995.442,-187.591 984.954,-189.09 988.178,-195.304"/>
</g>
<!-- Node5&#45;&gt;Node4 -->
<g id="edge21" class="edge"><title>Node5&#45;&gt;Node4</title>
<path fill="none" stroke="midnightblue" d="M805.131,-243.751C806.657,-250.858 807.104,-261.136 806.472,-270.101"/>
<polygon fill="midnightblue" stroke="midnightblue" points="802.993,-269.713 805.166,-280.083 809.934,-270.622 802.993,-269.713"/>
</g>
<!-- Node6 -->
<g id="node6" class="node"><title>Node6</title>
<g id="a_node6"><a xlink:href="../../db/d02/Settings_8hpp.html" target="_top" xlink:title="All user settings and debugging options can be changed here.">
<polygon fill="white" stroke="black" points="802.5,-168.5 802.5,-187.5 873.5,-187.5 873.5,-168.5 802.5,-168.5"/>
<text text-anchor="middle" x="838" y="-175.5" font-family="Helvetica,sans-Serif" font-size="10.00">Settings.hpp</text>
</a>
</g>
</g>
<!-- Node5&#45;&gt;Node6 -->
<g id="edge5" class="edge"><title>Node5&#45;&gt;Node6</title>
<path fill="none" stroke="midnightblue" d="M806.275,-224.083C811.642,-216.455 819.518,-205.264 826.079,-195.941"/>
<polygon fill="midnightblue" stroke="midnightblue" points="828.949,-197.943 831.842,-187.751 823.225,-193.915 828.949,-197.943"/>
</g>
<!-- Node10 -->
<g id="node10" class="node"><title>Node10</title>
<g id="a_node10"><a xlink:href="../../dc/dc7/NamespaceSettings_8hpp.html" target="_top" xlink:title=" ">
<polygon fill="white" stroke="black" points="429.5,-0.5 429.5,-19.5 592.5,-19.5 592.5,-0.5 429.5,-0.5"/>
<text text-anchor="middle" x="511" y="-7.5" font-family="Helvetica,sans-Serif" font-size="10.00">Settings/NamespaceSettings.hpp</text>
</a>
</g>
</g>
<!-- Node5&#45;&gt;Node10 -->
<g id="edge19" class="edge"><title>Node5&#45;&gt;Node10</title>
<path fill="none" stroke="midnightblue" d="M726.236,-226.803C692.237,-220.965 652.895,-209.696 623,-188 565.656,-146.383 530.722,-65.5826 517.304,-29.3524"/>
<polygon fill="midnightblue" stroke="midnightblue" points="520.491,-27.8706 513.829,-19.6322 513.899,-30.2268 520.491,-27.8706"/>
</g>
<!-- Node16 -->
<g id="node16" class="node"><title>Node16</title>
<g id="a_node16"><a xlink:href="../../d9/d98/TeensyUSBTypes_8hpp.html" target="_top" xlink:title=" ">
<polygon fill="white" stroke="black" points="632,-168.5 632,-187.5 784,-187.5 784,-168.5 632,-168.5"/>
<text text-anchor="middle" x="708" y="-175.5" font-family="Helvetica,sans-Serif" font-size="10.00">Helpers/TeensyUSBTypes.hpp</text>
</a>
</g>
</g>
<!-- Node5&#45;&gt;Node16 -->
<g id="edge20" class="edge"><title>Node5&#45;&gt;Node16</title>
<path fill="none" stroke="midnightblue" d="M785.219,-224.324C770.733,-215.822 748.427,-202.729 731.507,-192.797"/>
<polygon fill="midnightblue" stroke="midnightblue" points="733.141,-189.698 722.745,-187.655 729.597,-195.735 733.141,-189.698"/>
</g>
<!-- Node6&#45;&gt;Node7 -->
<g id="edge6" class="edge"><title>Node6&#45;&gt;Node7</title>
<path fill="none" stroke="midnightblue" d="M802.171,-169.651C799.073,-169.071 795.984,-168.512 793,-168 698.121,-151.704 586.363,-136.619 525.367,-128.732"/>
<polygon fill="midnightblue" stroke="midnightblue" points="525.669,-125.242 515.304,-127.437 524.775,-132.185 525.669,-125.242"/>
</g>
<!-- Node15 -->
<g id="node15" class="node"><title>Node15</title>
<g id="a_node15"><a xlink:title=" ">
<polygon fill="white" stroke="#bfbfbf" points="814,-112.5 814,-131.5 862,-131.5 862,-112.5 814,-112.5"/>
<text text-anchor="middle" x="838" y="-119.5" font-family="Helvetica,sans-Serif" font-size="10.00">limits.h</text>
</a>
</g>
</g>
<!-- Node6&#45;&gt;Node15 -->
<g id="edge18" class="edge"><title>Node6&#45;&gt;Node15</title>
<path fill="none" stroke="midnightblue" d="M838,-168.083C838,-161.006 838,-150.861 838,-141.986"/>
<polygon fill="midnightblue" stroke="midnightblue" points="841.5,-141.751 838,-131.751 834.5,-141.751 841.5,-141.751"/>
</g>
<!-- Node8 -->
<g id="node8" class="node"><title>Node8</title>
<g id="a_node8"><a xlink:href="../../d7/d42/Channel_8hpp.html" target="_top" xlink:title=" ">
<polygon fill="white" stroke="black" points="574.5,-56.5 574.5,-75.5 645.5,-75.5 645.5,-56.5 574.5,-56.5"/>
<text text-anchor="middle" x="610" y="-63.5" font-family="Helvetica,sans-Serif" font-size="10.00">Channel.hpp</text>
</a>
</g>
</g>
<!-- Node7&#45;&gt;Node8 -->
<g id="edge7" class="edge"><title>Node7&#45;&gt;Node8</title>
<path fill="none" stroke="midnightblue" d="M500.599,-112.444C521.993,-103.557 555.681,-89.5632 580.024,-79.4514"/>
<polygon fill="midnightblue" stroke="midnightblue" points="581.605,-82.5848 589.497,-75.5164 578.92,-76.1203 581.605,-82.5848"/>
</g>
<!-- Node9 -->
<g id="node9" class="node"><title>Node9</title>
<g id="a_node9"><a xlink:title=" ">
<polygon fill="white" stroke="#bfbfbf" points="668.5,-0.5 668.5,-19.5 717.5,-19.5 717.5,-0.5 668.5,-0.5"/>
<text text-anchor="middle" x="693" y="-7.5" font-family="Helvetica,sans-Serif" font-size="10.00">stdint.h</text>
</a>
</g>
</g>
<!-- Node7&#45;&gt;Node9 -->
<g id="edge17" class="edge"><title>Node7&#45;&gt;Node9</title>
<path fill="none" stroke="midnightblue" d="M515.038,-119.638C552.762,-116.543 612.883,-106.724 654,-76 669.779,-64.2098 680.438,-43.9875 686.571,-29.2231"/>
<polygon fill="midnightblue" stroke="midnightblue" points="689.935,-30.2258 690.245,-19.6355 683.398,-27.7209 689.935,-30.2258"/>
</g>
<!-- Node7&#45;&gt;Node10 -->
<g id="edge15" class="edge"><title>Node7&#45;&gt;Node10</title>
<path fill="none" stroke="midnightblue" d="M463.851,-112.366C443.823,-100.464 413.836,-77.9868 427,-56 436.149,-40.7189 452.459,-30.332 468.288,-23.4255"/>
<polygon fill="midnightblue" stroke="midnightblue" points="470.012,-26.5068 478.014,-19.5623 467.428,-20.0012 470.012,-26.5068"/>
</g>
<!-- Node11 -->
<g id="node11" class="node"><title>Node11</title>
<g id="a_node11"><a xlink:href="../../dc/d50/Frequency_8hpp.html" target="_top" xlink:title=" ">
<polygon fill="white" stroke="black" points="436.5,-56.5 436.5,-75.5 517.5,-75.5 517.5,-56.5 436.5,-56.5"/>
<text text-anchor="middle" x="477" y="-63.5" font-family="Helvetica,sans-Serif" font-size="10.00">Frequency.hpp</text>
</a>
</g>
</g>
<!-- Node7&#45;&gt;Node11 -->
<g id="edge10" class="edge"><title>Node7&#45;&gt;Node11</title>
<path fill="none" stroke="midnightblue" d="M479.505,-112.083C479.111,-105.006 478.548,-94.8611 478.055,-85.9865"/>
<polygon fill="midnightblue" stroke="midnightblue" points="481.536,-85.5415 477.486,-75.7511 474.546,-85.9299 481.536,-85.5415"/>
</g>
<!-- Node12 -->
<g id="node12" class="node"><title>Node12</title>
<g id="a_node12"><a xlink:href="../../de/d76/Array_8hpp.html" target="_top" xlink:title=" ">
<polygon fill="white" stroke="black" points="816.5,-56.5 816.5,-75.5 911.5,-75.5 911.5,-56.5 816.5,-56.5"/>
<text text-anchor="middle" x="864" y="-63.5" font-family="Helvetica,sans-Serif" font-size="10.00">Helpers/Array.hpp</text>
</a>
</g>
</g>
<!-- Node7&#45;&gt;Node12 -->
<g id="edge12" class="edge"><title>Node7&#45;&gt;Node12</title>
<path fill="none" stroke="midnightblue" d="M515.095,-116.065C581.411,-106.739 725.696,-86.449 806.405,-75.0993"/>
<polygon fill="midnightblue" stroke="midnightblue" points="806.985,-78.5522 816.4,-73.6937 806.01,-71.6204 806.985,-78.5522"/>
</g>
<!-- Node14 -->
<g id="node14" class="node"><title>Node14</title>
<g id="a_node14"><a xlink:title=" ">
<polygon fill="white" stroke="#bfbfbf" points="876,-0.5 876,-19.5 928,-19.5 928,-0.5 876,-0.5"/>
<text text-anchor="middle" x="902" y="-7.5" font-family="Helvetica,sans-Serif" font-size="10.00">stddef.h</text>
</a>
</g>
</g>
<!-- Node7&#45;&gt;Node14 -->
<g id="edge16" class="edge"><title>Node7&#45;&gt;Node14</title>
<path fill="none" stroke="midnightblue" d="M515.202,-113.655C554.911,-105.218 621.344,-90.6447 678,-76 744.923,-58.7012 822.195,-35.5712 866.257,-22.0782"/>
<polygon fill="midnightblue" stroke="midnightblue" points="867.397,-25.3895 875.929,-19.1078 865.342,-18.698 867.397,-25.3895"/>
</g>
<!-- Node8&#45;&gt;Node9 -->
<g id="edge8" class="edge"><title>Node8&#45;&gt;Node9</title>
<path fill="none" stroke="midnightblue" d="M623.335,-56.324C636.162,-47.979 655.785,-35.2122 670.94,-25.3524"/>
<polygon fill="midnightblue" stroke="midnightblue" points="673.224,-28.0417 679.698,-19.6545 669.407,-22.1742 673.224,-28.0417"/>
</g>
<!-- Node8&#45;&gt;Node10 -->
<g id="edge9" class="edge"><title>Node8&#45;&gt;Node10</title>
<path fill="none" stroke="midnightblue" d="M594.094,-56.324C578.362,-47.7428 554.058,-34.486 535.791,-24.5224"/>
<polygon fill="midnightblue" stroke="midnightblue" points="537.322,-21.3704 526.867,-19.6545 533.97,-27.5157 537.322,-21.3704"/>
</g>
<!-- Node11&#45;&gt;Node10 -->
<g id="edge11" class="edge"><title>Node11&#45;&gt;Node10</title>
<path fill="none" stroke="midnightblue" d="M482.614,-56.083C487.367,-48.5341 494.318,-37.4948 500.152,-28.2298"/>
<polygon fill="midnightblue" stroke="midnightblue" points="503.124,-30.0783 505.49,-19.7511 497.2,-26.3486 503.124,-30.0783"/>
</g>
<!-- Node13 -->
<g id="node13" class="node"><title>Node13</title>
<g id="a_node13"><a xlink:title=" ">
<polygon fill="white" stroke="#bfbfbf" points="1247,-0.5 1247,-19.5 1305,-19.5 1305,-0.5 1247,-0.5"/>
<text text-anchor="middle" x="1276" y="-7.5" font-family="Helvetica,sans-Serif" font-size="10.00">Arduino.h</text>
</a>
</g>
</g>
<!-- Node12&#45;&gt;Node13 -->
<g id="edge13" class="edge"><title>Node12&#45;&gt;Node13</title>
<path fill="none" stroke="midnightblue" d="M911.664,-58.7528C993.9,-47.9742 1160.91,-26.0847 1236.84,-16.1322"/>
<polygon fill="midnightblue" stroke="midnightblue" points="1237.47,-19.5795 1246.94,-14.8095 1236.56,-12.6388 1237.47,-19.5795"/>
</g>
<!-- Node12&#45;&gt;Node14 -->
<g id="edge14" class="edge"><title>Node12&#45;&gt;Node14</title>
<path fill="none" stroke="midnightblue" d="M870.275,-56.083C875.642,-48.4554 883.518,-37.2645 890.079,-27.9408"/>
<polygon fill="midnightblue" stroke="midnightblue" points="892.949,-29.9434 895.842,-19.7511 887.225,-25.9149 892.949,-29.9434"/>
</g>
<!-- Node17&#45;&gt;Node13 -->
<g id="edge23" class="edge"><title>Node17&#45;&gt;Node13</title>
<path fill="none" stroke="midnightblue" d="M1025.82,-168.309C1068.86,-141.248 1200.74,-58.3239 1253.67,-25.0406"/>
<polygon fill="midnightblue" stroke="midnightblue" points="1255.71,-27.8911 1262.31,-19.6051 1251.99,-21.9653 1255.71,-27.8911"/>
</g>
<!-- Node18&#45;&gt;Node4 -->
<g id="edge25" class="edge"><title>Node18&#45;&gt;Node4</title>
<path fill="none" stroke="midnightblue" d="M790.816,-336.083C792.274,-328.927 794.371,-318.635 796.193,-309.691"/>
<polygon fill="midnightblue" stroke="midnightblue" points="799.651,-310.248 798.217,-299.751 792.792,-308.851 799.651,-310.248"/>
</g>
<!-- Node19&#45;&gt;Node4 -->
<g id="edge27" class="edge"><title>Node19&#45;&gt;Node4</title>
<path fill="none" stroke="midnightblue" d="M1022.17,-336.444C975.921,-326.984 901.388,-311.738 851.564,-301.547"/>
<polygon fill="midnightblue" stroke="midnightblue" points="852.134,-298.091 841.636,-299.516 850.732,-304.949 852.134,-298.091"/>
</g>
<!-- Node20 -->
<g id="node20" class="node"><title>Node20</title>
<g id="a_node20"><a xlink:title=" ">
<polygon fill="white" stroke="#bfbfbf" points="1150,-224.5 1150,-243.5 1198,-243.5 1198,-224.5 1150,-224.5"/>
<text text-anchor="middle" x="1174" y="-231.5" font-family="Helvetica,sans-Serif" font-size="10.00">stdlib.h</text>
</a>
</g>
</g>
<!-- Node19&#45;&gt;Node20 -->
<g id="edge28" class="edge"><title>Node19&#45;&gt;Node20</title>
<path fill="none" stroke="midnightblue" d="M1122.11,-337.456C1166.36,-330.378 1221.99,-318.141 1236,-300 1250.83,-280.796 1224.74,-260.929 1201.99,-248.296"/>
<polygon fill="midnightblue" stroke="midnightblue" points="1203.37,-245.068 1192.89,-243.507 1200.11,-251.262 1203.37,-245.068"/>
</g>
<!-- Node21 -->
<g id="node21" class="node"><title>Node21</title>
<g id="a_node21"><a xlink:href="../../d7/d79/MinMaxFix_8hpp.html" target="_top" xlink:title=" ">
<polygon fill="white" stroke="black" points="1216,-224.5 1216,-243.5 1336,-243.5 1336,-224.5 1216,-224.5"/>
<text text-anchor="middle" x="1276" y="-231.5" font-family="Helvetica,sans-Serif" font-size="10.00">Helpers/MinMaxFix.hpp</text>
</a>
</g>
</g>
<!-- Node19&#45;&gt;Node21 -->
<g id="edge29" class="edge"><title>Node19&#45;&gt;Node21</title>
<path fill="none" stroke="midnightblue" d="M1122.32,-337.312C1170.47,-329.872 1233.87,-317.194 1253,-300 1266.19,-288.139 1271.82,-268.223 1274.22,-253.556"/>
<polygon fill="midnightblue" stroke="midnightblue" points="1277.7,-253.947 1275.5,-243.583 1270.75,-253.058 1277.7,-253.947"/>
</g>
<!-- Node22 -->
<g id="node22" class="node"><title>Node22</title>
<g id="a_node22"><a xlink:title=" ">
<polygon fill="white" stroke="#bfbfbf" points="968.5,-280.5 968.5,-299.5 1015.5,-299.5 1015.5,-280.5 968.5,-280.5"/>
<text text-anchor="middle" x="992" y="-287.5" font-family="Helvetica,sans-Serif" font-size="10.00">iterator</text>
</a>
</g>
</g>
<!-- Node19&#45;&gt;Node22 -->
<g id="edge31" class="edge"><title>Node19&#45;&gt;Node22</title>
<path fill="none" stroke="midnightblue" d="M1052.43,-336.324C1041.58,-328.185 1025.12,-315.839 1012.12,-306.087"/>
<polygon fill="midnightblue" stroke="midnightblue" points="1013.88,-303.034 1003.78,-299.834 1009.68,-308.634 1013.88,-303.034"/>
</g>
<!-- Node21&#45;&gt;Node13 -->
<g id="edge30" class="edge"><title>Node21&#45;&gt;Node13</title>
<path fill="none" stroke="midnightblue" d="M1276,-224.297C1276,-191.633 1276,-75.8661 1276,-29.9573"/>
<polygon fill="midnightblue" stroke="midnightblue" points="1279.5,-29.8837 1276,-19.8837 1272.5,-29.8838 1279.5,-29.8837"/>
</g>
<!-- Node23&#45;&gt;Node7 -->
<g id="edge33" class="edge"><title>Node23&#45;&gt;Node7</title>
<path fill="none" stroke="midnightblue" d="M593.537,-397.981C517.166,-381.09 362,-340.662 362,-291 362,-291 362,-291 362,-233 362,-185.512 413.766,-152.674 448.724,-135.912"/>
<polygon fill="midnightblue" stroke="midnightblue" points="450.457,-138.968 458.082,-131.612 447.534,-132.608 450.457,-138.968"/>
</g>
<!-- Node23&#45;&gt;Node9 -->
<g id="edge36" class="edge"><title>Node23&#45;&gt;Node9</title>
<path fill="none" stroke="midnightblue" d="M632.582,-397.619C624.326,-365.79 599.055,-254.72 623,-168 635.68,-122.08 660.206,-120.19 678,-76 684.023,-61.0437 687.931,-43.1312 690.243,-29.9011"/>
<polygon fill="midnightblue" stroke="midnightblue" points="693.756,-30.0989 691.878,-19.6719 686.844,-28.9944 693.756,-30.0989"/>
</g>
<!-- Node23&#45;&gt;Node18 -->
<g id="edge34" class="edge"><title>Node23&#45;&gt;Node18</title>
<path fill="none" stroke="midnightblue" d="M657.064,-397.975C683.367,-387.813 727.513,-370.756 757.425,-359.2"/>
<polygon fill="midnightblue" stroke="midnightblue" points="758.91,-362.378 766.976,-355.509 756.387,-355.848 758.91,-362.378"/>
</g>
<!-- Node24 -->
<g id="node24" class="node"><title>Node24</title>
<g id="a_node24"><a xlink:href="../../d7/dd7/Helpers_8hpp.html" target="_top" xlink:title=" ">
<polygon fill="white" stroke="black" points="466,-336.5 466,-355.5 572,-355.5 572,-336.5 466,-336.5"/>
<text text-anchor="middle" x="519" y="-343.5" font-family="Helvetica,sans-Serif" font-size="10.00">Helpers/Helpers.hpp</text>
</a>
</g>
</g>
<!-- Node23&#45;&gt;Node24 -->
<g id="edge35" class="edge"><title>Node23&#45;&gt;Node24</title>
<path fill="none" stroke="midnightblue" d="M618.38,-397.975C599.085,-388.078 567.041,-371.642 544.569,-360.115"/>
<polygon fill="midnightblue" stroke="midnightblue" points="546.084,-356.959 535.589,-355.509 542.89,-363.187 546.084,-356.959"/>
</g>
<!-- Node25&#45;&gt;Node3 -->
<g id="edge38" class="edge"><title>Node25&#45;&gt;Node3</title>
<path fill="none" stroke="midnightblue" d="M391.335,-417.044C446.652,-429.03 542.498,-450.791 596.08,-463.511"/>
<polygon fill="midnightblue" stroke="midnightblue" points="595.351,-466.935 605.891,-465.853 596.976,-460.127 595.351,-466.935"/>
</g>
<!-- Node25&#45;&gt;Node4 -->
<g id="edge43" class="edge"><title>Node25&#45;&gt;Node4</title>
<path fill="none" stroke="midnightblue" d="M358.878,-397.802C376.936,-382.447 417.1,-350.763 457,-336 551.295,-301.11 668.94,-292.608 739.075,-290.902"/>
<polygon fill="midnightblue" stroke="midnightblue" points="739.563,-294.393 749.49,-290.691 739.421,-287.395 739.563,-294.393"/>
</g>
<!-- Node25&#45;&gt;Node19 -->
<g id="edge44" class="edge"><title>Node25&#45;&gt;Node19</title>
<path fill="none" stroke="midnightblue" d="M393.344,-397.994C406.106,-395.778 420.072,-393.573 433,-392 636.985,-367.183 879.86,-354.604 995.814,-349.631"/>
<polygon fill="midnightblue" stroke="midnightblue" points="996.118,-353.122 1005.96,-349.202 995.822,-346.128 996.118,-353.122"/>
</g>
<!-- Node25&#45;&gt;Node26 -->
<g id="edge39" class="edge"><title>Node25&#45;&gt;Node26</title>
<path fill="none" stroke="midnightblue" d="M309.169,-397.975C259.521,-387.349 174.653,-369.185 120.771,-357.652"/>
<polygon fill="midnightblue" stroke="midnightblue" points="121.268,-354.18 110.757,-355.509 119.803,-361.025 121.268,-354.18"/>
</g>
<!-- Node25&#45;&gt;Node27 -->
<g id="edge41" class="edge"><title>Node25&#45;&gt;Node27</title>
<path fill="none" stroke="midnightblue" d="M329.658,-397.975C306.901,-387.945 268.908,-371.2 242.712,-359.655"/>
<polygon fill="midnightblue" stroke="midnightblue" points="243.869,-356.339 233.306,-355.509 241.045,-362.745 243.869,-356.339"/>
</g>
<!-- Node26&#45;&gt;Node7 -->
<g id="edge40" class="edge"><title>Node26&#45;&gt;Node7</title>
<path fill="none" stroke="midnightblue" d="M78.6514,-336.379C104.696,-307.601 193.496,-214.068 287,-168 334.414,-144.64 394.426,-133.111 434.84,-127.626"/>
<polygon fill="midnightblue" stroke="midnightblue" points="435.456,-131.076 444.927,-126.327 434.562,-124.133 435.456,-131.076"/>
</g>
<!-- Node27&#45;&gt;Node7 -->
<g id="edge42" class="edge"><title>Node27&#45;&gt;Node7</title>
<path fill="none" stroke="midnightblue" d="M216.052,-336.409C223.362,-307.725 250.916,-214.455 310,-168 345.868,-139.799 397.795,-129.188 434.806,-125.241"/>
<polygon fill="midnightblue" stroke="midnightblue" points="435.197,-128.72 444.824,-124.295 434.54,-121.751 435.197,-128.72"/>
</g>
<!-- Node29 -->
<g id="node29" class="node"><title>Node29</title>
<g id="a_node29"><a xlink:href="../../d4/db3/Button_8hpp.html" target="_top" xlink:title=" ">
<polygon fill="white" stroke="black" points="904,-532 904,-551 968,-551 968,-532 904,-532"/>
<text text-anchor="middle" x="936" y="-539" font-family="Helvetica,sans-Serif" font-size="10.00">Button.hpp</text>
</a>
</g>
</g>
<!-- Node28&#45;&gt;Node29 -->
<g id="edge49" class="edge"><title>Node28&#45;&gt;Node29</title>
<path fill="none" stroke="midnightblue" d="M718.764,-593.476C771.661,-581.063 847.504,-563.266 894.159,-552.318"/>
<polygon fill="midnightblue" stroke="midnightblue" points="895.002,-555.716 903.938,-550.024 893.402,-548.901 895.002,-555.716"/>
</g>
<!-- Node29&#45;&gt;Node5 -->
<g id="edge55" class="edge"><title>Node29&#45;&gt;Node5</title>
<path fill="none" stroke="midnightblue" d="M935.352,-531.563C932.422,-496.415 917.866,-365.436 859,-280 850.263,-267.32 836.823,-256.67 824.975,-248.92"/>
<polygon fill="midnightblue" stroke="midnightblue" points="826.676,-245.856 816.33,-243.572 822.994,-251.809 826.676,-245.856"/>
</g>
<!-- Node30 -->
<g id="node30" class="node"><title>Node30</title>
<g id="a_node30"><a xlink:href="../../dd/ddf/ExtendedInputOutput_8hpp.html" target="_top" xlink:title=" ">
<polygon fill="white" stroke="black" points="964,-459.5 964,-489.5 1118,-489.5 1118,-459.5 964,-459.5"/>
<text text-anchor="start" x="972" y="-477.5" font-family="Helvetica,sans-Serif" font-size="10.00">Hardware/ExtendedInputOutput</text>
<text text-anchor="middle" x="1041" y="-466.5" font-family="Helvetica,sans-Serif" font-size="10.00">/ExtendedInputOutput.hpp</text>
</a>
</g>
</g>
<!-- Node29&#45;&gt;Node30 -->
<g id="edge50" class="edge"><title>Node29&#45;&gt;Node30</title>
<path fill="none" stroke="midnightblue" d="M950.161,-531.734C965.306,-522.358 989.812,-507.188 1009.56,-494.966"/>
<polygon fill="midnightblue" stroke="midnightblue" points="1011.58,-497.829 1018.24,-489.589 1007.9,-491.877 1011.58,-497.829"/>
</g>
<!-- Node30&#45;&gt;Node13 -->
<g id="edge54" class="edge"><title>Node30&#45;&gt;Node13</title>
<path fill="none" stroke="midnightblue" d="M1070.81,-459.291C1089.52,-449.899 1113.84,-436.807 1134,-423 1184.73,-388.256 1311.52,-295.573 1345,-244 1361.39,-218.756 1364,-209.098 1364,-179 1364,-179 1364,-179 1364,-121 1364,-79.0325 1324.46,-43.9022 1298.39,-25.3001"/>
<polygon fill="midnightblue" stroke="midnightblue" points="1300.36,-22.4118 1290.14,-19.6391 1296.4,-28.1834 1300.36,-22.4118"/>
</g>
<!-- Node31 -->
<g id="node31" class="node"><title>Node31</title>
<g id="a_node31"><a xlink:href="../../d4/d57/ExtendedIOElement_8hpp.html" target="_top" xlink:title=" ">
<polygon fill="white" stroke="black" points="1002.5,-398 1002.5,-417 1125.5,-417 1125.5,-398 1002.5,-398"/>
<text text-anchor="middle" x="1064" y="-405" font-family="Helvetica,sans-Serif" font-size="10.00">ExtendedIOElement.hpp</text>
</a>
</g>
</g>
<!-- Node30&#45;&gt;Node31 -->
<g id="edge51" class="edge"><title>Node30&#45;&gt;Node31</title>
<path fill="none" stroke="midnightblue" d="M1045.99,-459.396C1049.36,-449.863 1053.85,-437.182 1057.5,-426.862"/>
<polygon fill="midnightblue" stroke="midnightblue" points="1060.89,-427.789 1060.92,-417.195 1054.29,-425.454 1060.89,-427.789"/>
</g>
<!-- Node31&#45;&gt;Node7 -->
<g id="edge52" class="edge"><title>Node31&#45;&gt;Node7</title>
<path fill="none" stroke="midnightblue" d="M1037.46,-397.999C962.537,-373.973 753.927,-306.859 740,-300 642.334,-251.898 539.097,-171.365 498.202,-138.09"/>
<polygon fill="midnightblue" stroke="midnightblue" points="500.187,-135.192 490.233,-131.56 495.75,-140.606 500.187,-135.192"/>
</g>
<!-- Node31&#45;&gt;Node19 -->
<g id="edge53" class="edge"><title>Node31&#45;&gt;Node19</title>
<path fill="none" stroke="midnightblue" d="M1064,-397.975C1064,-389.58 1064,-376.481 1064,-365.663"/>
<polygon fill="midnightblue" stroke="midnightblue" points="1067.5,-365.509 1064,-355.509 1060.5,-365.509 1067.5,-365.509"/>
</g>
<!-- Node32&#45;&gt;Node7 -->
<g id="edge57" class="edge"><title>Node32&#45;&gt;Node7</title>
<path fill="none" stroke="midnightblue" d="M264.601,-459.258C260.217,-442.425 255.398,-413.931 265,-392 274.461,-370.391 291.431,-375.962 304,-356 320.105,-330.422 324,-321.225 324,-291 324,-291 324,-291 324,-233 324,-178.199 389.094,-148.297 435.185,-133.994"/>
<polygon fill="midnightblue" stroke="midnightblue" points="436.394,-137.286 444.991,-131.093 434.408,-130.573 436.394,-137.286"/>
</g>
<!-- Node32&#45;&gt;Node27 -->
<g id="edge58" class="edge"><title>Node32&#45;&gt;Node27</title>
<path fill="none" stroke="midnightblue" d="M256.316,-459.461C248.25,-449.834 238.195,-436.421 232,-423 223.495,-404.573 218.782,-381.715 216.334,-365.905"/>
<polygon fill="midnightblue" stroke="midnightblue" points="219.774,-365.226 214.931,-355.803 212.84,-366.19 219.774,-365.226"/>
</g>
<!-- Node33 -->
<g id="node33" class="node"><title>Node33</title>
<g id="a_node33"><a xlink:href="../../d4/d93/Updatable_8hpp.html" target="_top" xlink:title=" ">
<polygon fill="white" stroke="black" points="716,-398 716,-417 832,-417 832,-398 716,-398"/>
<text text-anchor="middle" x="774" y="-405" font-family="Helvetica,sans-Serif" font-size="10.00">Helpers/Updatable.hpp</text>
</a>
</g>
</g>
<!-- Node32&#45;&gt;Node33 -->
<g id="edge59" class="edge"><title>Node32&#45;&gt;Node33</title>
<path fill="none" stroke="midnightblue" d="M331.857,-468.128C416.992,-460.422 573.544,-444.725 706,-423 712.803,-421.884 719.954,-420.545 726.961,-419.137"/>
<polygon fill="midnightblue" stroke="midnightblue" points="727.983,-422.499 737.065,-417.043 726.562,-415.645 727.983,-422.499"/>
</g>
<!-- Node33&#45;&gt;Node5 -->
<g id="edge63" class="edge"><title>Node33&#45;&gt;Node5</title>
<path fill="none" stroke="midnightblue" d="M763.576,-397.705C753.547,-388.498 739.042,-373.029 733,-356 726.717,-338.292 732.705,-292.57 740,-280 747.656,-266.808 760.868,-256.266 772.949,-248.712"/>
<polygon fill="midnightblue" stroke="midnightblue" points="774.977,-251.581 781.856,-243.523 771.453,-245.533 774.977,-251.581"/>
</g>
<!-- Node33&#45;&gt;Node7 -->
<g id="edge60" class="edge"><title>Node33&#45;&gt;Node7</title>
<path fill="none" stroke="midnightblue" d="M760.537,-397.99C719.221,-371.339 592.299,-285.437 514,-188 502.43,-173.602 493.057,-154.656 487.105,-140.936"/>
<polygon fill="midnightblue" stroke="midnightblue" points="490.307,-139.519 483.241,-131.625 483.842,-142.203 490.307,-139.519"/>
</g>
<!-- Node33&#45;&gt;Node14 -->
<g id="edge64" class="edge"><title>Node33&#45;&gt;Node14</title>
<path fill="none" stroke="midnightblue" d="M797.18,-397.927C834.066,-382.61 902,-346.823 902,-291 902,-291 902,-291 902,-233 902,-153.928 934.953,-133.646 920,-56 918.21,-46.7047 914.517,-36.8887 910.939,-28.8048"/>
<polygon fill="midnightblue" stroke="midnightblue" points="914.056,-27.2089 906.621,-19.6611 907.727,-30.1981 914.056,-27.2089"/>
</g>
<!-- Node33&#45;&gt;Node18 -->
<g id="edge61" class="edge"><title>Node33&#45;&gt;Node18</title>
<path fill="none" stroke="midnightblue" d="M776.149,-397.975C778.288,-389.492 781.638,-376.204 784.381,-365.322"/>
<polygon fill="midnightblue" stroke="midnightblue" points="787.804,-366.061 786.855,-355.509 781.016,-364.35 787.804,-366.061"/>
</g>
<!-- Node33&#45;&gt;Node19 -->
<g id="edge62" class="edge"><title>Node33&#45;&gt;Node19</title>
<path fill="none" stroke="midnightblue" d="M815.55,-397.975C867.449,-387.327 956.241,-369.109 1012.43,-357.581"/>
<polygon fill="midnightblue" stroke="midnightblue" points="1013.43,-360.948 1022.53,-355.509 1012.03,-354.09 1013.43,-360.948"/>
</g>
<!-- Node35 -->
<g id="node35" class="node"><title>Node35</title>
<g id="a_node35"><a xlink:href="../../d3/d37/Control__Surface__Class_8hpp.html" target="_top" xlink:title=" ">
<polygon fill="white" stroke="black" points="1145,-526.5 1145,-556.5 1267,-556.5 1267,-526.5 1145,-526.5"/>
<text text-anchor="start" x="1153" y="-544.5" font-family="Helvetica,sans-Serif" font-size="10.00">Control_Surface/Control</text>
<text text-anchor="middle" x="1206" y="-533.5" font-family="Helvetica,sans-Serif" font-size="10.00">_Surface_Class.hpp</text>
</a>
</g>
</g>
<!-- Node34&#45;&gt;Node35 -->
<g id="edge66" class="edge"><title>Node34&#45;&gt;Node35</title>
<path fill="none" stroke="midnightblue" d="M1054.1,-593.396C1083.46,-583.558 1122.83,-570.367 1154.13,-559.879"/>
<polygon fill="midnightblue" stroke="midnightblue" points="1155.62,-563.072 1163.99,-556.577 1153.39,-556.435 1155.62,-563.072"/>
</g>
<!-- Node36 -->
<g id="node36" class="node"><title>Node36</title>
<g id="a_node36"><a xlink:href="../../d6/d04/MIDI__Interface_8hpp.html" target="_top" xlink:title=" ">
<polygon fill="white" stroke="black" points="442,-392.5 442,-422.5 554,-422.5 554,-392.5 442,-392.5"/>
<text text-anchor="start" x="450" y="-410.5" font-family="Helvetica,sans-Serif" font-size="10.00">MIDI_Interfaces/MIDI</text>
<text text-anchor="middle" x="498" y="-399.5" font-family="Helvetica,sans-Serif" font-size="10.00">_Interface.hpp</text>
</a>
</g>
</g>
<!-- Node35&#45;&gt;Node36 -->
<g id="edge67" class="edge"><title>Node35&#45;&gt;Node36</title>
<path fill="none" stroke="midnightblue" d="M1144.75,-536.411C995.272,-526.299 622.112,-500.197 597,-490 564.912,-476.97 535.264,-449.68 516.94,-430.273"/>
<polygon fill="midnightblue" stroke="midnightblue" points="519.378,-427.753 510.034,-422.758 514.224,-432.489 519.378,-427.753"/>
</g>
<!-- Node38 -->
<g id="node38" class="node"><title>Node38</title>
<g id="a_node38"><a xlink:href="../../d6/dd2/DisplayElement_8hpp.html" target="_top" xlink:title=" ">
<polygon fill="white" stroke="black" points="1136,-465 1136,-484 1276,-484 1276,-465 1136,-465"/>
<text text-anchor="middle" x="1206" y="-472" font-family="Helvetica,sans-Serif" font-size="10.00">Display/DisplayElement.hpp</text>
</a>
</g>
</g>
<!-- Node35&#45;&gt;Node38 -->
<g id="edge75" class="edge"><title>Node35&#45;&gt;Node38</title>
<path fill="none" stroke="midnightblue" d="M1206,-526.396C1206,-517.064 1206,-504.714 1206,-494.517"/>
<polygon fill="midnightblue" stroke="midnightblue" points="1209.5,-494.195 1206,-484.195 1202.5,-494.195 1209.5,-494.195"/>
</g>
<!-- Node39 -->
<g id="node39" class="node"><title>Node39</title>
<g id="a_node39"><a xlink:href="../../dc/d77/DisplayInterface_8hpp.html" target="_top" xlink:title=" ">
<polygon fill="white" stroke="black" points="1220.5,-398 1220.5,-417 1363.5,-417 1363.5,-398 1220.5,-398"/>
<text text-anchor="middle" x="1292" y="-405" font-family="Helvetica,sans-Serif" font-size="10.00">Display/DisplayInterface.hpp</text>
</a>
</g>
</g>
<!-- Node35&#45;&gt;Node39 -->
<g id="edge81" class="edge"><title>Node35&#45;&gt;Node39</title>
<path fill="none" stroke="midnightblue" d="M1241.86,-526.417C1257.8,-518.246 1275.15,-506.298 1285,-490 1296.51,-470.96 1296.56,-444.697 1294.86,-427.186"/>
<polygon fill="midnightblue" stroke="midnightblue" points="1298.31,-426.591 1293.59,-417.105 1291.36,-427.463 1298.31,-426.591"/>
</g>
<!-- Node41 -->
<g id="node41" class="node"><title>Node41</title>
<g id="a_node41"><a xlink:href="../../d7/d74/MillisTimer_8hpp.html" target="_top" xlink:title=" ">
<polygon fill="white" stroke="black" points="1392.5,-112.5 1392.5,-131.5 1511.5,-131.5 1511.5,-112.5 1392.5,-112.5"/>
<text text-anchor="middle" x="1452" y="-119.5" font-family="Helvetica,sans-Serif" font-size="10.00">Helpers/MillisTimer.hpp</text>
</a>
</g>
</g>
<!-- Node35&#45;&gt;Node41 -->
<g id="edge82" class="edge"><title>Node35&#45;&gt;Node41</title>
<path fill="none" stroke="midnightblue" d="M1267.27,-530.856C1332.67,-516.667 1427,-483.246 1427,-408.5 1427,-408.5 1427,-408.5 1427,-233 1427,-199.995 1437.83,-162.774 1445.24,-141.192"/>
<polygon fill="midnightblue" stroke="midnightblue" points="1448.57,-142.282 1448.63,-131.687 1441.97,-139.93 1448.57,-142.282"/>
</g>
<!-- Node36&#45;&gt;Node7 -->
<g id="edge68" class="edge"><title>Node36&#45;&gt;Node7</title>
<path fill="none" stroke="midnightblue" d="M483.73,-392.154C474.934,-382.609 464.03,-369.4 457,-356 443.017,-329.348 438,-321.098 438,-291 438,-291 438,-291 438,-233 438,-198.412 456.348,-161.492 468.79,-140.432"/>
<polygon fill="midnightblue" stroke="midnightblue" points="471.907,-142.045 474.16,-131.692 465.943,-138.38 471.907,-142.045"/>
</g>
<!-- Node36&#45;&gt;Node27 -->
<g id="edge69" class="edge"><title>Node36&#45;&gt;Node27</title>
<path fill="none" stroke="midnightblue" d="M441.993,-393.943C438.952,-393.281 435.939,-392.63 433,-392 376.31,-379.854 311.22,-366.562 266.83,-357.596"/>
<polygon fill="midnightblue" stroke="midnightblue" points="267.343,-354.129 256.848,-355.583 265.958,-360.991 267.343,-354.129"/>
</g>
<!-- Node37 -->
<g id="node37" class="node"><title>Node37</title>
<g id="a_node37"><a xlink:href="../../d7/d2d/MIDI__Parser_8hpp.html" target="_top" xlink:title=" ">
<polygon fill="white" stroke="black" points="1072.5,-280.5 1072.5,-299.5 1227.5,-299.5 1227.5,-280.5 1072.5,-280.5"/>
<text text-anchor="middle" x="1150" y="-287.5" font-family="Helvetica,sans-Serif" font-size="10.00">MIDI_Parsers/MIDI_Parser.hpp</text>
</a>
</g>
</g>
<!-- Node36&#45;&gt;Node37 -->
<g id="edge70" class="edge"><title>Node36&#45;&gt;Node37</title>
<path fill="none" stroke="midnightblue" d="M536.939,-392.406C583.1,-376.265 662.651,-350.222 733,-336 793.87,-323.694 958.749,-307.809 1062.01,-298.578"/>
<polygon fill="midnightblue" stroke="midnightblue" points="1062.47,-302.052 1072.12,-297.678 1061.85,-295.079 1062.47,-302.052"/>
</g>
<!-- Node37&#45;&gt;Node5 -->
<g id="edge74" class="edge"><title>Node37&#45;&gt;Node5</title>
<path fill="none" stroke="midnightblue" d="M1094.54,-280.444C1032.33,-270.846 931.52,-255.292 865.487,-245.104"/>
<polygon fill="midnightblue" stroke="midnightblue" points="865.616,-241.582 855.199,-243.516 864.548,-248.5 865.616,-241.582"/>
</g>
<!-- Node37&#45;&gt;Node9 -->
<g id="edge72" class="edge"><title>Node37&#45;&gt;Node9</title>
<path fill="none" stroke="midnightblue" d="M1144.76,-280.266C1129.62,-255.295 1085.57,-184.341 1064,-168 967.296,-94.74 917.226,-126.683 807,-76 773.707,-60.6916 737.249,-38.9612 714.745,-24.9213"/>
<polygon fill="midnightblue" stroke="midnightblue" points="716.609,-21.9595 706.282,-19.593 712.88,-27.8831 716.609,-21.9595"/>
</g>
<!-- Node37&#45;&gt;Node14 -->
<g id="edge71" class="edge"><title>Node37&#45;&gt;Node14</title>
<path fill="none" stroke="midnightblue" d="M1146.22,-280.351C1138.58,-262.034 1122,-217.821 1122,-179 1122,-179 1122,-179 1122,-121 1122,-39.8616 1000.8,-18.5703 938.321,-12.9851"/>
<polygon fill="midnightblue" stroke="midnightblue" points="938.349,-9.47616 928.101,-12.1649 937.789,-16.4537 938.349,-9.47616"/>
</g>
<!-- Node37&#45;&gt;Node20 -->
<g id="edge73" class="edge"><title>Node37&#45;&gt;Node20</title>
<path fill="none" stroke="midnightblue" d="M1153.96,-280.083C1157.21,-272.77 1161.92,-262.181 1165.95,-253.103"/>
<polygon fill="midnightblue" stroke="midnightblue" points="1169.25,-254.311 1170.11,-243.751 1162.85,-251.468 1169.25,-254.311"/>
</g>
<!-- Node38&#45;&gt;Node19 -->
<g id="edge80" class="edge"><title>Node38&#45;&gt;Node19</title>
<path fill="none" stroke="midnightblue" d="M1199.72,-464.948C1187.98,-449.294 1161.36,-415.486 1134,-392 1120.1,-380.074 1102.81,-368.926 1088.89,-360.709"/>
<polygon fill="midnightblue" stroke="midnightblue" points="1090.28,-357.474 1079.87,-355.516 1086.79,-363.54 1090.28,-357.474"/>
</g>
<!-- Node38&#45;&gt;Node39 -->
<g id="edge76" class="edge"><title>Node38&#45;&gt;Node39</title>
<path fill="none" stroke="midnightblue" d="M1217.6,-464.734C1231.65,-454.111 1255.55,-436.049 1272.47,-423.264"/>
<polygon fill="midnightblue" stroke="midnightblue" points="1274.72,-425.949 1280.59,-417.127 1270.5,-420.365 1274.72,-425.949"/>
</g>
<!-- Node39&#45;&gt;Node7 -->
<g id="edge77" class="edge"><title>Node39&#45;&gt;Node7</title>
<path fill="none" stroke="midnightblue" d="M1272.26,-397.914C1224.07,-376.856 1101.53,-322.713 1063,-300 977.232,-249.434 974.798,-204.078 882,-168 817.792,-143.038 615.898,-129.907 525.063,-125.134"/>
<polygon fill="midnightblue" stroke="midnightblue" points="525.236,-121.638 515.07,-124.619 524.876,-128.629 525.236,-121.638"/>
</g>
<!-- Node39&#45;&gt;Node19 -->
<g id="edge78" class="edge"><title>Node39&#45;&gt;Node19</title>
<path fill="none" stroke="midnightblue" d="M1259.33,-397.975C1219.12,-387.482 1150.74,-369.637 1106.48,-358.087"/>
<polygon fill="midnightblue" stroke="midnightblue" points="1107.17,-354.648 1096.61,-355.509 1105.4,-361.421 1107.17,-354.648"/>
</g>
<!-- Node40 -->
<g id="node40" class="node"><title>Node40</title>
<g id="a_node40"><a xlink:title=" ">
<polygon fill="white" stroke="#bfbfbf" points="1269.5,-336.5 1269.5,-355.5 1314.5,-355.5 1314.5,-336.5 1269.5,-336.5"/>
<text text-anchor="middle" x="1292" y="-343.5" font-family="Helvetica,sans-Serif" font-size="10.00">Print.h</text>
</a>
</g>
</g>
<!-- Node39&#45;&gt;Node40 -->
<g id="edge79" class="edge"><title>Node39&#45;&gt;Node40</title>
<path fill="none" stroke="midnightblue" d="M1292,-397.975C1292,-389.58 1292,-376.481 1292,-365.663"/>
<polygon fill="midnightblue" stroke="midnightblue" points="1295.5,-365.509 1292,-355.509 1288.5,-365.509 1295.5,-365.509"/>
</g>
<!-- Node41&#45;&gt;Node13 -->
<g id="edge83" class="edge"><title>Node41&#45;&gt;Node13</title>
<path fill="none" stroke="midnightblue" d="M1444.03,-112.485C1431.15,-99.1015 1404.52,-72.9286 1378,-56 1356.83,-42.4863 1330.91,-31.1102 1310.5,-23.1769"/>
<polygon fill="midnightblue" stroke="midnightblue" points="1311.56,-19.8352 1300.97,-19.5646 1309.08,-26.381 1311.56,-19.8352"/>
</g>
</g>
</svg>
