<?xml version="1.0" encoding="UTF-8" standalone="no"?>
<!DOCTYPE svg PUBLIC "-//W3C//DTD SVG 1.1//EN"
 "http://www.w3.org/Graphics/SVG/1.1/DTD/svg11.dtd">
<!-- Generated by graphviz version 2.38.0 (20140413.2041)
 -->
<!-- Title: VU.hpp Pages: 1 -->
<svg width="1005pt" height="610pt"
 viewBox="0.00 0.00 1005.33 610.00" xmlns="http://www.w3.org/2000/svg" xmlns:xlink="http://www.w3.org/1999/xlink">
<g id="graph0" class="graph" transform="scale(1 1) rotate(0) translate(4 606)">
<title>VU.hpp</title>
<polygon fill="white" stroke="none" points="-4,4 -4,-606 1001.33,-606 1001.33,4 -4,4"/>
<!-- Node0 -->
<g id="node1" class="node"><title>Node0</title>
<g id="a_node1"><a xlink:title=" ">
<polygon fill="#bfbfbf" stroke="black" points="344.327,-582.5 344.327,-601.5 394.327,-601.5 394.327,-582.5 344.327,-582.5"/>
<text text-anchor="middle" x="369.327" y="-589.5" font-family="Helvetica,sans-Serif" font-size="10.00">VU.hpp</text>
</a>
</g>
</g>
<!-- Node1 -->
<g id="node2" class="node"><title>Node1</title>
<g id="a_node2"><a xlink:href="../../de/d6e/BankableMIDIInput_8hpp.html" target="_top" xlink:title=" ">
<polygon fill="white" stroke="black" points="243.327,-521 243.327,-540 393.327,-540 393.327,-521 243.327,-521"/>
<text text-anchor="middle" x="318.327" y="-528" font-family="Helvetica,sans-Serif" font-size="10.00">Banks/BankableMIDIInput.hpp</text>
</a>
</g>
</g>
<!-- Node0&#45;&gt;Node1 -->
<g id="edge1" class="edge"><title>Node0&#45;&gt;Node1</title>
<path fill="none" stroke="midnightblue" d="M362.02,-582.475C354.294,-573.462 341.919,-559.025 332.309,-547.812"/>
<polygon fill="midnightblue" stroke="midnightblue" points="334.786,-545.324 325.62,-540.009 329.471,-549.879 334.786,-545.324"/>
</g>
<!-- Node23 -->
<g id="node24" class="node"><title>Node23</title>
<g id="a_node24"><a xlink:href="../../dd/ddf/ExtendedInputOutput_8hpp.html" target="_top" xlink:title=" ">
<polygon fill="white" stroke="black" points="10.327,-515.5 10.327,-545.5 164.327,-545.5 164.327,-515.5 10.327,-515.5"/>
<text text-anchor="start" x="18.327" y="-533.5" font-family="Helvetica,sans-Serif" font-size="10.00">Hardware/ExtendedInputOutput</text>
<text text-anchor="middle" x="87.327" y="-522.5" font-family="Helvetica,sans-Serif" font-size="10.00">/ExtendedInputOutput.hpp</text>
</a>
</g>
</g>
<!-- Node0&#45;&gt;Node23 -->
<g id="edge36" class="edge"><title>Node0&#45;&gt;Node23</title>
<path fill="none" stroke="midnightblue" d="M344.301,-585.72C304.207,-577.26 223.971,-560.331 163.764,-547.628"/>
<polygon fill="midnightblue" stroke="midnightblue" points="164.413,-544.188 153.906,-545.548 162.968,-551.037 164.413,-544.188"/>
</g>
<!-- Node25 -->
<g id="node26" class="node"><title>Node25</title>
<g id="a_node26"><a xlink:href="../../d8/d4f/MIDIInputElementChannelPressure_8hpp.html" target="_top" xlink:title=" ">
<polygon fill="white" stroke="black" points="707.827,-448.5 707.827,-478.5 860.827,-478.5 860.827,-448.5 707.827,-448.5"/>
<text text-anchor="start" x="715.827" y="-466.5" font-family="Helvetica,sans-Serif" font-size="10.00">MIDI_Inputs/MIDIInputElement</text>
<text text-anchor="middle" x="784.327" y="-455.5" font-family="Helvetica,sans-Serif" font-size="10.00">ChannelPressure.hpp</text>
</a>
</g>
</g>
<!-- Node0&#45;&gt;Node25 -->
<g id="edge41" class="edge"><title>Node0&#45;&gt;Node25</title>
<path fill="none" stroke="midnightblue" d="M376.168,-582.336C390.671,-564.207 424.474,-523.261 440.327,-515 541.05,-462.515 581.02,-495.937 693.327,-479 694.617,-478.805 695.918,-478.609 697.226,-478.41"/>
<polygon fill="midnightblue" stroke="midnightblue" points="698.033,-481.827 707.387,-476.852 696.972,-474.908 698.033,-481.827"/>
</g>
<!-- Node29 -->
<g id="node30" class="node"><title>Node29</title>
<g id="a_node30"><a xlink:title=" ">
<polygon fill="white" stroke="#bfbfbf" points="449.827,-521 449.827,-540 498.827,-540 498.827,-521 449.827,-521"/>
<text text-anchor="middle" x="474.327" y="-528" font-family="Helvetica,sans-Serif" font-size="10.00">string.h</text>
</a>
</g>
</g>
<!-- Node0&#45;&gt;Node29 -->
<g id="edge51" class="edge"><title>Node0&#45;&gt;Node29</title>
<path fill="none" stroke="midnightblue" d="M384.371,-582.475C401.602,-572.711 430.067,-556.581 450.361,-545.081"/>
<polygon fill="midnightblue" stroke="midnightblue" points="452.336,-547.984 459.311,-540.009 448.885,-541.894 452.336,-547.984"/>
</g>
<!-- Node2 -->
<g id="node3" class="node"><title>Node2</title>
<g id="a_node3"><a xlink:href="../../d4/d57/Bank_8hpp.html" target="_top" xlink:title=" ">
<polygon fill="white" stroke="black" points="289.327,-454 289.327,-473 347.327,-473 347.327,-454 289.327,-454"/>
<text text-anchor="middle" x="318.327" y="-461" font-family="Helvetica,sans-Serif" font-size="10.00">Bank.hpp</text>
</a>
</g>
</g>
<!-- Node1&#45;&gt;Node2 -->
<g id="edge2" class="edge"><title>Node1&#45;&gt;Node2</title>
<path fill="none" stroke="midnightblue" d="M313.538,-520.734C311.529,-511.183 311.063,-495.618 312.143,-483.283"/>
<polygon fill="midnightblue" stroke="midnightblue" points="315.644,-483.517 313.568,-473.127 308.712,-482.544 315.644,-483.517"/>
</g>
<!-- Node3 -->
<g id="node4" class="node"><title>Node3</title>
<g id="a_node4"><a xlink:href="../../df/dee/Debug_8hpp.html" target="_top" xlink:title=" ">
<polygon fill="white" stroke="black" points="311.827,-280.5 311.827,-299.5 412.827,-299.5 412.827,-280.5 311.827,-280.5"/>
<text text-anchor="middle" x="362.327" y="-287.5" font-family="Helvetica,sans-Serif" font-size="10.00">Helpers/Debug.hpp</text>
</a>
</g>
</g>
<!-- Node1&#45;&gt;Node3 -->
<g id="edge34" class="edge"><title>Node1&#45;&gt;Node3</title>
<path fill="none" stroke="midnightblue" d="M348.848,-520.951C408.143,-502.437 537.211,-452.334 584.327,-356 588.232,-348.015 589.953,-342.881 584.327,-336 564.308,-311.516 481.81,-300.035 423.245,-294.882"/>
<polygon fill="midnightblue" stroke="midnightblue" points="423.232,-291.368 412.974,-294.021 422.647,-298.344 423.232,-291.368"/>
</g>
<!-- Node16 -->
<g id="node17" class="node"><title>Node16</title>
<g id="a_node17"><a xlink:href="../../de/dd1/LinkedList_8hpp.html" target="_top" xlink:title=" ">
<polygon fill="white" stroke="black" points="152.327,-392.5 152.327,-411.5 268.327,-411.5 268.327,-392.5 152.327,-392.5"/>
<text text-anchor="middle" x="210.327" y="-399.5" font-family="Helvetica,sans-Serif" font-size="10.00">Helpers/LinkedList.hpp</text>
</a>
</g>
</g>
<!-- Node1&#45;&gt;Node16 -->
<g id="edge35" class="edge"><title>Node1&#45;&gt;Node16</title>
<path fill="none" stroke="midnightblue" d="M310.904,-520.805C293.101,-499.952 247.734,-446.815 224.504,-419.605"/>
<polygon fill="midnightblue" stroke="midnightblue" points="226.957,-417.088 217.802,-411.756 221.633,-421.634 226.957,-417.088"/>
</g>
<!-- Node21 -->
<g id="node22" class="node"><title>Node21</title>
<g id="a_node22"><a xlink:href="../../dd/d1f/BankConfig_8hpp.html" target="_top" xlink:title=" ">
<polygon fill="white" stroke="black" points="101.327,-280.5 101.327,-299.5 187.327,-299.5 187.327,-280.5 101.327,-280.5"/>
<text text-anchor="middle" x="144.327" y="-287.5" font-family="Helvetica,sans-Serif" font-size="10.00">BankConfig.hpp</text>
</a>
</g>
</g>
<!-- Node1&#45;&gt;Node21 -->
<g id="edge30" class="edge"><title>Node1&#45;&gt;Node21</title>
<path fill="none" stroke="midnightblue" d="M295.811,-520.896C258.053,-505.259 182.285,-468.483 143.327,-412 123.87,-383.791 125.179,-369.879 130.327,-336 131.694,-327.001 134.517,-317.325 137.272,-309.26"/>
<polygon fill="midnightblue" stroke="midnightblue" points="140.592,-310.372 140.727,-299.778 134.015,-307.976 140.592,-310.372"/>
</g>
<!-- Node22 -->
<g id="node23" class="node"><title>Node22</title>
<g id="a_node23"><a xlink:href="../../d8/d38/MIDICNChannelAddress_8hpp.html" target="_top" xlink:title=" ">
<polygon fill="white" stroke="black" points="669.827,-336.5 669.827,-355.5 832.827,-355.5 832.827,-336.5 669.827,-336.5"/>
<text text-anchor="middle" x="751.327" y="-343.5" font-family="Helvetica,sans-Serif" font-size="10.00">Def/MIDICNChannelAddress.hpp</text>
</a>
</g>
</g>
<!-- Node1&#45;&gt;Node22 -->
<g id="edge32" class="edge"><title>Node1&#45;&gt;Node22</title>
<path fill="none" stroke="midnightblue" d="M368.442,-520.953C380.512,-518.948 393.373,-516.857 405.327,-515 516.254,-497.771 559.468,-537.419 655.327,-479 695.872,-454.291 689.235,-430.279 717.327,-392 724.292,-382.509 732.215,-372.006 738.659,-363.537"/>
<polygon fill="midnightblue" stroke="midnightblue" points="741.452,-365.646 744.737,-355.573 735.888,-361.399 741.452,-365.646"/>
</g>
<!-- Node2&#45;&gt;Node1 -->
<g id="edge29" class="edge"><title>Node2&#45;&gt;Node1</title>
<path fill="none" stroke="midnightblue" d="M323.086,-473.127C325.111,-482.62 325.591,-498.17 324.527,-510.537"/>
<polygon fill="midnightblue" stroke="midnightblue" points="321.02,-510.348 323.115,-520.734 327.954,-511.308 321.02,-510.348"/>
</g>
<!-- Node2&#45;&gt;Node3 -->
<g id="edge3" class="edge"><title>Node2&#45;&gt;Node3</title>
<path fill="none" stroke="midnightblue" d="M315.052,-453.703C307.668,-432.366 291.757,-376.629 310.327,-336 316.104,-323.36 327.379,-312.911 337.958,-305.274"/>
<polygon fill="midnightblue" stroke="midnightblue" points="340.176,-308.001 346.544,-299.533 336.285,-302.182 340.176,-308.001"/>
</g>
<!-- Node15 -->
<g id="node16" class="node"><title>Node15</title>
<g id="a_node16"><a xlink:href="../../d1/d93/Error_8hpp.html" target="_top" xlink:title=" ">
<polygon fill="white" stroke="black" points="319.827,-336.5 319.827,-355.5 412.827,-355.5 412.827,-336.5 319.827,-336.5"/>
<text text-anchor="middle" x="366.327" y="-343.5" font-family="Helvetica,sans-Serif" font-size="10.00">Helpers/Error.hpp</text>
</a>
</g>
</g>
<!-- Node2&#45;&gt;Node15 -->
<g id="edge18" class="edge"><title>Node2&#45;&gt;Node15</title>
<path fill="none" stroke="midnightblue" d="M321.935,-453.819C329.718,-435.09 348.23,-390.546 358.725,-365.292"/>
<polygon fill="midnightblue" stroke="midnightblue" points="362.072,-366.36 362.677,-355.782 355.608,-363.673 362.072,-366.36"/>
</g>
<!-- Node2&#45;&gt;Node16 -->
<g id="edge20" class="edge"><title>Node2&#45;&gt;Node16</title>
<path fill="none" stroke="midnightblue" d="M302.853,-453.975C285.049,-444.166 255.586,-427.935 234.695,-416.425"/>
<polygon fill="midnightblue" stroke="midnightblue" points="236.22,-413.269 225.772,-411.509 232.842,-419.4 236.22,-413.269"/>
</g>
<!-- Node19 -->
<g id="node20" class="node"><title>Node19</title>
<g id="a_node20"><a xlink:href="../../d9/d46/Selectable_8hpp.html" target="_top" xlink:title=" ">
<polygon fill="white" stroke="black" points="378.827,-392.5 378.827,-411.5 503.827,-411.5 503.827,-392.5 378.827,-392.5"/>
<text text-anchor="middle" x="441.327" y="-399.5" font-family="Helvetica,sans-Serif" font-size="10.00">Selectors/Selectable.hpp</text>
</a>
</g>
</g>
<!-- Node2&#45;&gt;Node19 -->
<g id="edge24" class="edge"><title>Node2&#45;&gt;Node19</title>
<path fill="none" stroke="midnightblue" d="M335.95,-453.975C356.501,-444.034 390.691,-427.495 414.534,-415.961"/>
<polygon fill="midnightblue" stroke="midnightblue" points="416.259,-419.015 423.737,-411.509 413.211,-412.713 416.259,-419.015"/>
</g>
<!-- Node4 -->
<g id="node5" class="node"><title>Node4</title>
<g id="a_node5"><a xlink:href="../../d2/dd5/SettingsWrapper_8hpp.html" target="_top" xlink:title=" ">
<polygon fill="white" stroke="black" points="401.827,-224.5 401.827,-243.5 548.827,-243.5 548.827,-224.5 401.827,-224.5"/>
<text text-anchor="middle" x="475.327" y="-231.5" font-family="Helvetica,sans-Serif" font-size="10.00">Settings/SettingsWrapper.hpp</text>
</a>
</g>
</g>
<!-- Node3&#45;&gt;Node4 -->
<g id="edge4" class="edge"><title>Node3&#45;&gt;Node4</title>
<path fill="none" stroke="midnightblue" d="M375.368,-280.324C391.91,-271.507 420.453,-257.753 442.908,-247.707"/>
<polygon fill="midnightblue" stroke="midnightblue" points="444.367,-250.89 452.106,-243.655 441.544,-244.484 444.367,-250.89"/>
</g>
<!-- Node13 -->
<g id="node14" class="node"><title>Node13</title>
<g id="a_node14"><a xlink:href="../../dd/d80/PrintStream_8hpp.html" target="_top" xlink:title=" ">
<polygon fill="white" stroke="black" points="257.827,-224.5 257.827,-243.5 344.827,-243.5 344.827,-224.5 257.827,-224.5"/>
<text text-anchor="middle" x="301.327" y="-231.5" font-family="Helvetica,sans-Serif" font-size="10.00">PrintStream.hpp</text>
</a>
</g>
</g>
<!-- Node3&#45;&gt;Node13 -->
<g id="edge16" class="edge"><title>Node3&#45;&gt;Node13</title>
<path fill="none" stroke="midnightblue" d="M352.526,-280.324C343.509,-272.341 329.921,-260.313 319.009,-250.653"/>
<polygon fill="midnightblue" stroke="midnightblue" points="321.114,-247.842 311.306,-243.834 316.474,-253.083 321.114,-247.842"/>
</g>
<!-- Node4&#45;&gt;Node3 -->
<g id="edge15" class="edge"><title>Node4&#45;&gt;Node3</title>
<path fill="none" stroke="midnightblue" d="M462.586,-243.516C446.049,-252.349 417.194,-266.255 394.577,-276.368"/>
<polygon fill="midnightblue" stroke="midnightblue" points="393.063,-273.21 385.321,-280.444 395.883,-279.617 393.063,-273.21"/>
</g>
<!-- Node5 -->
<g id="node6" class="node"><title>Node5</title>
<g id="a_node6"><a xlink:href="../../db/d02/Settings_8hpp.html" target="_top" xlink:title="All user settings and debugging options can be changed here.">
<polygon fill="white" stroke="black" points="541.827,-168.5 541.827,-187.5 612.827,-187.5 612.827,-168.5 541.827,-168.5"/>
<text text-anchor="middle" x="577.327" y="-175.5" font-family="Helvetica,sans-Serif" font-size="10.00">Settings.hpp</text>
</a>
</g>
</g>
<!-- Node4&#45;&gt;Node5 -->
<g id="edge5" class="edge"><title>Node4&#45;&gt;Node5</title>
<path fill="none" stroke="midnightblue" d="M491.715,-224.324C507.998,-215.703 533.194,-202.364 552.043,-192.386"/>
<polygon fill="midnightblue" stroke="midnightblue" points="553.779,-195.427 560.98,-187.655 550.504,-189.24 553.779,-195.427"/>
</g>
<!-- Node12 -->
<g id="node13" class="node"><title>Node12</title>
<g id="a_node13"><a xlink:href="../../d9/d98/TeensyUSBTypes_8hpp.html" target="_top" xlink:title=" ">
<polygon fill="white" stroke="black" points="371.327,-168.5 371.327,-187.5 523.327,-187.5 523.327,-168.5 371.327,-168.5"/>
<text text-anchor="middle" x="447.327" y="-175.5" font-family="Helvetica,sans-Serif" font-size="10.00">Helpers/TeensyUSBTypes.hpp</text>
</a>
</g>
</g>
<!-- Node4&#45;&gt;Node12 -->
<g id="edge14" class="edge"><title>Node4&#45;&gt;Node12</title>
<path fill="none" stroke="midnightblue" d="M470.703,-224.083C466.871,-216.691 461.303,-205.953 456.562,-196.811"/>
<polygon fill="midnightblue" stroke="midnightblue" points="459.575,-195.018 451.865,-187.751 453.361,-198.24 459.575,-195.018"/>
</g>
<!-- Node6 -->
<g id="node7" class="node"><title>Node6</title>
<g id="a_node7"><a xlink:href="../../d0/d4e/Def_8hpp.html" target="_top" xlink:title=" ">
<polygon fill="white" stroke="black" points="401.327,-112.5 401.327,-131.5 471.327,-131.5 471.327,-112.5 401.327,-112.5"/>
<text text-anchor="middle" x="436.327" y="-119.5" font-family="Helvetica,sans-Serif" font-size="10.00">Def/Def.hpp</text>
</a>
</g>
</g>
<!-- Node5&#45;&gt;Node6 -->
<g id="edge6" class="edge"><title>Node5&#45;&gt;Node6</title>
<path fill="none" stroke="midnightblue" d="M554.985,-168.444C531.574,-159.478 494.591,-145.314 468.137,-135.183"/>
<polygon fill="midnightblue" stroke="midnightblue" points="469.155,-131.824 458.564,-131.516 466.651,-138.361 469.155,-131.824"/>
</g>
<!-- Node7 -->
<g id="node8" class="node"><title>Node7</title>
<g id="a_node8"><a xlink:href="../../d7/d42/Channel_8hpp.html" target="_top" xlink:title=" ">
<polygon fill="white" stroke="black" points="432.827,-56.5 432.827,-75.5 503.827,-75.5 503.827,-56.5 432.827,-56.5"/>
<text text-anchor="middle" x="468.327" y="-63.5" font-family="Helvetica,sans-Serif" font-size="10.00">Channel.hpp</text>
</a>
</g>
</g>
<!-- Node6&#45;&gt;Node7 -->
<g id="edge7" class="edge"><title>Node6&#45;&gt;Node7</title>
<path fill="none" stroke="midnightblue" d="M441.611,-112.083C446.038,-104.613 452.49,-93.7244 457.945,-84.5199"/>
<polygon fill="midnightblue" stroke="midnightblue" points="461.054,-86.1383 463.141,-75.7511 455.032,-82.5697 461.054,-86.1383"/>
</g>
<!-- Node8 -->
<g id="node9" class="node"><title>Node8</title>
<g id="a_node9"><a xlink:title=" ">
<polygon fill="white" stroke="#bfbfbf" points="663.827,-0.5 663.827,-19.5 712.827,-19.5 712.827,-0.5 663.827,-0.5"/>
<text text-anchor="middle" x="688.327" y="-7.5" font-family="Helvetica,sans-Serif" font-size="10.00">stdint.h</text>
</a>
</g>
</g>
<!-- Node6&#45;&gt;Node8 -->
<g id="edge13" class="edge"><title>Node6&#45;&gt;Node8</title>
<path fill="none" stroke="midnightblue" d="M471.517,-116.68C508.082,-111.135 566.166,-99.3047 611.327,-76 635.725,-63.4098 659.147,-41.8282 673.62,-27.0109"/>
<polygon fill="midnightblue" stroke="midnightblue" points="676.336,-29.234 680.69,-19.575 671.263,-24.4107 676.336,-29.234"/>
</g>
<!-- Node9 -->
<g id="node10" class="node"><title>Node9</title>
<g id="a_node10"><a xlink:href="../../dc/d50/Frequency_8hpp.html" target="_top" xlink:title=" ">
<polygon fill="white" stroke="black" points="521.827,-56.5 521.827,-75.5 602.827,-75.5 602.827,-56.5 521.827,-56.5"/>
<text text-anchor="middle" x="562.327" y="-63.5" font-family="Helvetica,sans-Serif" font-size="10.00">Frequency.hpp</text>
</a>
</g>
</g>
<!-- Node6&#45;&gt;Node9 -->
<g id="edge9" class="edge"><title>Node6&#45;&gt;Node9</title>
<path fill="none" stroke="midnightblue" d="M456.292,-112.444C476.936,-103.596 509.389,-89.6875 532.959,-79.5865"/>
<polygon fill="midnightblue" stroke="midnightblue" points="534.643,-82.6727 542.455,-75.5164 531.885,-76.2387 534.643,-82.6727"/>
</g>
<!-- Node10 -->
<g id="node11" class="node"><title>Node10</title>
<g id="a_node11"><a xlink:href="../../de/d76/Array_8hpp.html" target="_top" xlink:title=" ">
<polygon fill="white" stroke="black" points="280.827,-56.5 280.827,-75.5 375.827,-75.5 375.827,-56.5 280.827,-56.5"/>
<text text-anchor="middle" x="328.327" y="-63.5" font-family="Helvetica,sans-Serif" font-size="10.00">Helpers/Array.hpp</text>
</a>
</g>
</g>
<!-- Node6&#45;&gt;Node10 -->
<g id="edge10" class="edge"><title>Node6&#45;&gt;Node10</title>
<path fill="none" stroke="midnightblue" d="M418.975,-112.324C401.655,-103.664 374.812,-90.2424 354.825,-80.249"/>
<polygon fill="midnightblue" stroke="midnightblue" points="356.146,-76.9962 345.636,-75.6545 353.015,-83.2572 356.146,-76.9962"/>
</g>
<!-- Node11 -->
<g id="node12" class="node"><title>Node11</title>
<g id="a_node12"><a xlink:title=" ">
<polygon fill="white" stroke="#bfbfbf" points="378.327,-0.5 378.327,-19.5 430.327,-19.5 430.327,-0.5 378.327,-0.5"/>
<text text-anchor="middle" x="404.327" y="-7.5" font-family="Helvetica,sans-Serif" font-size="10.00">stddef.h</text>
</a>
</g>
</g>
<!-- Node6&#45;&gt;Node11 -->
<g id="edge12" class="edge"><title>Node6&#45;&gt;Node11</title>
<path fill="none" stroke="midnightblue" d="M433.816,-112.368C428.629,-94.5366 416.631,-53.2953 409.642,-29.2717"/>
<polygon fill="midnightblue" stroke="midnightblue" points="412.98,-28.2157 406.826,-19.5914 406.259,-30.1711 412.98,-28.2157"/>
</g>
<!-- Node7&#45;&gt;Node8 -->
<g id="edge8" class="edge"><title>Node7&#45;&gt;Node8</title>
<path fill="none" stroke="midnightblue" d="M503.187,-56.4435C544.402,-46.3271 612.576,-29.5934 653.693,-19.5011"/>
<polygon fill="midnightblue" stroke="midnightblue" points="654.653,-22.8694 663.53,-17.0865 652.984,-16.0712 654.653,-22.8694"/>
</g>
<!-- Node10&#45;&gt;Node11 -->
<g id="edge11" class="edge"><title>Node10&#45;&gt;Node11</title>
<path fill="none" stroke="midnightblue" d="M340.538,-56.324C352.103,-48.1066 369.702,-35.6017 383.488,-25.8069"/>
<polygon fill="midnightblue" stroke="midnightblue" points="385.769,-28.4791 391.894,-19.8339 381.715,-22.7729 385.769,-28.4791"/>
</g>
<!-- Node14 -->
<g id="node15" class="node"><title>Node14</title>
<g id="a_node15"><a xlink:title=" ">
<polygon fill="white" stroke="#bfbfbf" points="219.327,-168.5 219.327,-187.5 277.327,-187.5 277.327,-168.5 219.327,-168.5"/>
<text text-anchor="middle" x="248.327" y="-175.5" font-family="Helvetica,sans-Serif" font-size="10.00">Arduino.h</text>
</a>
</g>
</g>
<!-- Node13&#45;&gt;Node14 -->
<g id="edge17" class="edge"><title>Node13&#45;&gt;Node14</title>
<path fill="none" stroke="midnightblue" d="M292.575,-224.083C284.857,-216.22 273.422,-204.569 264.11,-195.081"/>
<polygon fill="midnightblue" stroke="midnightblue" points="266.419,-192.436 256.916,-187.751 261.423,-197.34 266.419,-192.436"/>
</g>
<!-- Node15&#45;&gt;Node3 -->
<g id="edge19" class="edge"><title>Node15&#45;&gt;Node3</title>
<path fill="none" stroke="midnightblue" d="M365.666,-336.083C365.142,-329.006 364.391,-318.861 363.733,-309.986"/>
<polygon fill="midnightblue" stroke="midnightblue" points="367.204,-309.465 362.975,-299.751 360.224,-309.982 367.204,-309.465"/>
</g>
<!-- Node16&#45;&gt;Node3 -->
<g id="edge21" class="edge"><title>Node16&#45;&gt;Node3</title>
<path fill="none" stroke="midnightblue" d="M217.905,-392.194C229.67,-378.88 253.469,-353.343 277.327,-336 294.714,-323.361 316.109,-312.054 333.084,-303.936"/>
<polygon fill="midnightblue" stroke="midnightblue" points="334.923,-306.94 342.504,-299.538 331.962,-300.597 334.923,-306.94"/>
</g>
<!-- Node17 -->
<g id="node18" class="node"><title>Node17</title>
<g id="a_node18"><a xlink:title=" ">
<polygon fill="white" stroke="#bfbfbf" points="191.327,-224.5 191.327,-243.5 239.327,-243.5 239.327,-224.5 191.327,-224.5"/>
<text text-anchor="middle" x="215.327" y="-231.5" font-family="Helvetica,sans-Serif" font-size="10.00">stdlib.h</text>
</a>
</g>
</g>
<!-- Node16&#45;&gt;Node17 -->
<g id="edge22" class="edge"><title>Node16&#45;&gt;Node17</title>
<path fill="none" stroke="midnightblue" d="M210.596,-392.075C211.383,-365.945 213.694,-289.211 214.767,-253.577"/>
<polygon fill="midnightblue" stroke="midnightblue" points="218.266,-253.669 215.069,-243.568 211.269,-253.458 218.266,-253.669"/>
</g>
<!-- Node18 -->
<g id="node19" class="node"><title>Node18</title>
<g id="a_node19"><a xlink:title=" ">
<polygon fill="white" stroke="#bfbfbf" points="139.827,-336.5 139.827,-355.5 186.827,-355.5 186.827,-336.5 139.827,-336.5"/>
<text text-anchor="middle" x="163.327" y="-343.5" font-family="Helvetica,sans-Serif" font-size="10.00">iterator</text>
</a>
</g>
</g>
<!-- Node16&#45;&gt;Node18 -->
<g id="edge23" class="edge"><title>Node16&#45;&gt;Node18</title>
<path fill="none" stroke="midnightblue" d="M202.566,-392.083C195.79,-384.298 185.784,-372.801 177.572,-363.367"/>
<polygon fill="midnightblue" stroke="midnightblue" points="180.149,-360.996 170.944,-355.751 174.869,-365.592 180.149,-360.996"/>
</g>
<!-- Node19&#45;&gt;Node6 -->
<g id="edge25" class="edge"><title>Node19&#45;&gt;Node6</title>
<path fill="none" stroke="midnightblue" d="M441.379,-392.36C441.194,-371.898 438.902,-319.255 421.327,-280 412.931,-261.248 403.672,-261.13 392.327,-244 376.736,-220.459 369.2,-215.386 362.327,-188 360.163,-179.379 357.97,-175.748 362.327,-168 370.548,-153.378 385.658,-142.954 400.09,-135.846"/>
<polygon fill="midnightblue" stroke="midnightblue" points="401.724,-138.949 409.398,-131.644 398.843,-132.569 401.724,-138.949"/>
</g>
<!-- Node19&#45;&gt;Node8 -->
<g id="edge27" class="edge"><title>Node19&#45;&gt;Node8</title>
<path fill="none" stroke="midnightblue" d="M504.176,-394.538C532.028,-388.633 563.2,-377.384 584.327,-356 677.494,-261.7 687.681,-87.1339 688.426,-29.7905"/>
<polygon fill="midnightblue" stroke="midnightblue" points="691.926,-29.6875 688.469,-19.6725 684.926,-29.6573 691.926,-29.6875"/>
</g>
<!-- Node19&#45;&gt;Node15 -->
<g id="edge26" class="edge"><title>Node19&#45;&gt;Node15</title>
<path fill="none" stroke="midnightblue" d="M429.277,-392.324C417.864,-384.107 400.496,-371.602 386.892,-361.807"/>
<polygon fill="midnightblue" stroke="midnightblue" points="388.757,-358.837 378.596,-355.834 384.667,-364.517 388.757,-358.837"/>
</g>
<!-- Node20 -->
<g id="node21" class="node"><title>Node20</title>
<g id="a_node21"><a xlink:href="../../d7/dd7/Helpers_8hpp.html" target="_top" xlink:title=" ">
<polygon fill="white" stroke="black" points="469.327,-336.5 469.327,-355.5 575.327,-355.5 575.327,-336.5 469.327,-336.5"/>
<text text-anchor="middle" x="522.327" y="-343.5" font-family="Helvetica,sans-Serif" font-size="10.00">Helpers/Helpers.hpp</text>
</a>
</g>
</g>
<!-- Node19&#45;&gt;Node20 -->
<g id="edge28" class="edge"><title>Node19&#45;&gt;Node20</title>
<path fill="none" stroke="midnightblue" d="M454.341,-392.324C466.859,-383.979 486.009,-371.212 500.798,-361.352"/>
<polygon fill="midnightblue" stroke="midnightblue" points="502.966,-364.114 509.345,-355.655 499.083,-358.289 502.966,-364.114"/>
</g>
<!-- Node21&#45;&gt;Node6 -->
<g id="edge31" class="edge"><title>Node21&#45;&gt;Node6</title>
<path fill="none" stroke="midnightblue" d="M146.352,-280.297C152.077,-257.756 170.613,-197.2 210.327,-168 238.47,-147.308 333.382,-133.906 390.874,-127.477"/>
<polygon fill="midnightblue" stroke="midnightblue" points="391.587,-130.92 401.149,-126.358 390.829,-123.961 391.587,-130.92"/>
</g>
<!-- Node22&#45;&gt;Node6 -->
<g id="edge33" class="edge"><title>Node22&#45;&gt;Node6</title>
<path fill="none" stroke="midnightblue" d="M719.383,-336.394C699.751,-329.555 675.531,-318.072 660.327,-300 620.945,-253.189 665.623,-210.191 621.327,-168 601.481,-149.097 529.717,-135.801 481.626,-128.78"/>
<polygon fill="midnightblue" stroke="midnightblue" points="481.844,-125.276 471.452,-127.336 480.861,-132.207 481.844,-125.276"/>
</g>
<!-- Node23&#45;&gt;Node14 -->
<g id="edge40" class="edge"><title>Node23&#45;&gt;Node14</title>
<path fill="none" stroke="midnightblue" d="M55.1795,-515.336C40.5015,-507.034 24.5796,-494.997 16.327,-479 -17.3517,-413.717 -0.98467,-388.445 92.327,-280 127.76,-238.82 184.069,-208.117 218.464,-191.924"/>
<polygon fill="midnightblue" stroke="midnightblue" points="220.343,-194.913 227.968,-187.557 217.42,-188.552 220.343,-194.913"/>
</g>
<!-- Node24 -->
<g id="node25" class="node"><title>Node24</title>
<g id="a_node25"><a xlink:href="../../d4/d57/ExtendedIOElement_8hpp.html" target="_top" xlink:title=" ">
<polygon fill="white" stroke="black" points="25.827,-454 25.827,-473 148.827,-473 148.827,-454 25.827,-454"/>
<text text-anchor="middle" x="87.327" y="-461" font-family="Helvetica,sans-Serif" font-size="10.00">ExtendedIOElement.hpp</text>
</a>
</g>
</g>
<!-- Node23&#45;&gt;Node24 -->
<g id="edge37" class="edge"><title>Node23&#45;&gt;Node24</title>
<path fill="none" stroke="midnightblue" d="M87.327,-515.396C87.327,-506.064 87.327,-493.714 87.327,-483.517"/>
<polygon fill="midnightblue" stroke="midnightblue" points="90.8271,-483.195 87.327,-473.195 83.8271,-483.195 90.8271,-483.195"/>
</g>
<!-- Node24&#45;&gt;Node6 -->
<g id="edge38" class="edge"><title>Node24&#45;&gt;Node6</title>
<path fill="none" stroke="midnightblue" d="M80.314,-453.826C66.1202,-435.365 35.327,-390.321 35.327,-347 35.327,-347 35.327,-347 35.327,-233 35.327,-159.905 286.251,-133.62 391.117,-125.827"/>
<polygon fill="midnightblue" stroke="midnightblue" points="391.369,-129.318 401.092,-125.109 390.867,-122.336 391.369,-129.318"/>
</g>
<!-- Node24&#45;&gt;Node16 -->
<g id="edge39" class="edge"><title>Node24&#45;&gt;Node16</title>
<path fill="none" stroke="midnightblue" d="M104.95,-453.975C125.501,-444.034 159.691,-427.495 183.534,-415.961"/>
<polygon fill="midnightblue" stroke="midnightblue" points="185.259,-419.015 192.737,-411.509 182.211,-412.713 185.259,-419.015"/>
</g>
<!-- Node25&#45;&gt;Node16 -->
<g id="edge50" class="edge"><title>Node25&#45;&gt;Node16</title>
<path fill="none" stroke="midnightblue" d="M707.807,-454.568C595.151,-442.89 386.39,-421.25 278.631,-410.08"/>
<polygon fill="midnightblue" stroke="midnightblue" points="278.832,-406.582 268.524,-409.033 278.11,-413.545 278.832,-406.582"/>
</g>
<!-- Node26 -->
<g id="node27" class="node"><title>Node26</title>
<g id="a_node27"><a xlink:href="../../dc/d90/MIDIInputElement_8hpp.html" target="_top" xlink:title=" ">
<polygon fill="white" stroke="black" points="726.827,-392.5 726.827,-411.5 841.827,-411.5 841.827,-392.5 726.827,-392.5"/>
<text text-anchor="middle" x="784.327" y="-399.5" font-family="Helvetica,sans-Serif" font-size="10.00">MIDIInputElement.hpp</text>
</a>
</g>
</g>
<!-- Node25&#45;&gt;Node26 -->
<g id="edge42" class="edge"><title>Node25&#45;&gt;Node26</title>
<path fill="none" stroke="midnightblue" d="M784.327,-448.399C784.327,-440.466 784.327,-430.458 784.327,-421.858"/>
<polygon fill="midnightblue" stroke="midnightblue" points="787.827,-421.658 784.327,-411.658 780.827,-421.658 787.827,-421.658"/>
</g>
<!-- Node26&#45;&gt;Node22 -->
<g id="edge49" class="edge"><title>Node26&#45;&gt;Node22</title>
<path fill="none" stroke="midnightblue" d="M778.878,-392.083C774.312,-384.613 767.659,-373.724 762.034,-364.52"/>
<polygon fill="midnightblue" stroke="midnightblue" points="764.876,-362.459 756.675,-355.751 758.903,-366.109 764.876,-362.459"/>
</g>
<!-- Node27 -->
<g id="node28" class="node"><title>Node27</title>
<g id="a_node28"><a xlink:href="../../db/df6/ChannelMessageMatcher_8hpp.html" target="_top" xlink:title=" ">
<polygon fill="white" stroke="black" points="851.327,-336.5 851.327,-355.5 997.327,-355.5 997.327,-336.5 851.327,-336.5"/>
<text text-anchor="middle" x="924.327" y="-343.5" font-family="Helvetica,sans-Serif" font-size="10.00">ChannelMessageMatcher.hpp</text>
</a>
</g>
</g>
<!-- Node26&#45;&gt;Node27 -->
<g id="edge43" class="edge"><title>Node26&#45;&gt;Node27</title>
<path fill="none" stroke="midnightblue" d="M806.51,-392.444C829.755,-383.478 866.476,-369.314 892.742,-359.183"/>
<polygon fill="midnightblue" stroke="midnightblue" points="894.177,-362.381 902.247,-355.516 891.658,-355.85 894.177,-362.381"/>
</g>
<!-- Node28 -->
<g id="node29" class="node"><title>Node28</title>
<g id="a_node29"><a xlink:href="../../d7/d2d/MIDI__Parser_8hpp.html" target="_top" xlink:title=" ">
<polygon fill="white" stroke="black" points="669.827,-280.5 669.827,-299.5 824.827,-299.5 824.827,-280.5 669.827,-280.5"/>
<text text-anchor="middle" x="747.327" y="-287.5" font-family="Helvetica,sans-Serif" font-size="10.00">MIDI_Parsers/MIDI_Parser.hpp</text>
</a>
</g>
</g>
<!-- Node27&#45;&gt;Node28 -->
<g id="edge44" class="edge"><title>Node27&#45;&gt;Node28</title>
<path fill="none" stroke="midnightblue" d="M896.281,-336.444C866.245,-327.28 818.414,-312.688 785.084,-302.519"/>
<polygon fill="midnightblue" stroke="midnightblue" points="785.828,-299.087 775.242,-299.516 783.785,-305.782 785.828,-299.087"/>
</g>
<!-- Node28&#45;&gt;Node4 -->
<g id="edge48" class="edge"><title>Node28&#45;&gt;Node4</title>
<path fill="none" stroke="midnightblue" d="M704.228,-280.444C656.48,-270.964 579.466,-255.675 528.133,-245.483"/>
<polygon fill="midnightblue" stroke="midnightblue" points="528.715,-242.031 518.225,-243.516 527.352,-248.897 528.715,-242.031"/>
</g>
<!-- Node28&#45;&gt;Node8 -->
<g id="edge46" class="edge"><title>Node28&#45;&gt;Node8</title>
<path fill="none" stroke="midnightblue" d="M748.373,-280.458C750.541,-261.982 755.327,-216.912 755.327,-179 755.327,-179 755.327,-179 755.327,-121 755.327,-82.7036 725.34,-46.4156 705.489,-26.5891"/>
<polygon fill="midnightblue" stroke="midnightblue" points="707.849,-24.0028 698.213,-19.5975 702.998,-29.0501 707.849,-24.0028"/>
</g>
<!-- Node28&#45;&gt;Node11 -->
<g id="edge45" class="edge"><title>Node28&#45;&gt;Node11</title>
<path fill="none" stroke="midnightblue" d="M744.961,-280.066C735.214,-245.11 694.695,-116.562 611.327,-56 560.367,-18.9799 484.942,-11.3528 440.597,-10.3593"/>
<polygon fill="midnightblue" stroke="midnightblue" points="440.602,-6.85923 430.56,-10.2366 440.516,-13.8587 440.602,-6.85923"/>
</g>
<!-- Node28&#45;&gt;Node17 -->
<g id="edge47" class="edge"><title>Node28&#45;&gt;Node17</title>
<path fill="none" stroke="midnightblue" d="M669.398,-286.225C572.841,-281.836 403.268,-271.021 249.472,-243.893"/>
<polygon fill="midnightblue" stroke="midnightblue" points="249.826,-240.401 239.365,-242.082 248.592,-247.291 249.826,-240.401"/>
</g>
</g>
</svg>
