<?xml version="1.0" encoding="UTF-8" standalone="no"?>
<!DOCTYPE svg PUBLIC "-//W3C//DTD SVG 1.1//EN"
 "http://www.w3.org/Graphics/SVG/1.1/DTD/svg11.dtd">
<!-- Generated by graphviz version 2.38.0 (20140413.2041)
 -->
<!-- Title: MIDIIncrementDecrementButtons.hpp Pages: 1 -->
<svg width="461pt" height="140pt"
 viewBox="0.00 0.00 461.00 140.00" xmlns="http://www.w3.org/2000/svg" xmlns:xlink="http://www.w3.org/1999/xlink">
<g id="graph0" class="graph" transform="scale(1 1) rotate(0) translate(4 136)">
<title>MIDIIncrementDecrementButtons.hpp</title>
<polygon fill="white" stroke="none" points="-4,4 -4,-136 457,-136 457,4 -4,4"/>
<!-- Node30 -->
<g id="node1" class="node"><title>Node30</title>
<g id="a_node1"><a xlink:title=" ">
<polygon fill="#bfbfbf" stroke="black" points="98,-112.5 98,-131.5 280,-131.5 280,-112.5 98,-112.5"/>
<text text-anchor="middle" x="189" y="-119.5" font-family="Helvetica,sans-Serif" font-size="10.00">MIDIIncrementDecrementButtons.hpp</text>
</a>
</g>
</g>
<!-- Node31 -->
<g id="node2" class="node"><title>Node31</title>
<g id="a_node2"><a xlink:href="../../d3/d47/MIDIIncrementDecrementButtons_8cpp.html" target="_top" xlink:title=" ">
<polygon fill="white" stroke="black" points="0,-56.5 0,-75.5 182,-75.5 182,-56.5 0,-56.5"/>
<text text-anchor="middle" x="91" y="-63.5" font-family="Helvetica,sans-Serif" font-size="10.00">MIDIIncrementDecrementButtons.cpp</text>
</a>
</g>
</g>
<!-- Node30&#45;&gt;Node31 -->
<g id="edge1" class="edge"><title>Node30&#45;&gt;Node31</title>
<path fill="none" stroke="midnightblue" d="M164.414,-107.453C146.322,-97.4835 122.265,-84.2279 106.706,-75.6545"/>
<polygon fill="midnightblue" stroke="midnightblue" points="162.807,-110.563 173.255,-112.324 166.185,-104.432 162.807,-110.563"/>
</g>
<!-- Node32 -->
<g id="node3" class="node"><title>Node32</title>
<g id="a_node3"><a xlink:href="../../d1/de5/CCIncrementDecrementButtons_8hpp.html" target="_top" xlink:title=" ">
<polygon fill="white" stroke="black" points="200,-56.5 200,-75.5 376,-75.5 376,-56.5 200,-56.5"/>
<text text-anchor="middle" x="288" y="-63.5" font-family="Helvetica,sans-Serif" font-size="10.00">CCIncrementDecrementButtons.hpp</text>
</a>
</g>
</g>
<!-- Node30&#45;&gt;Node32 -->
<g id="edge2" class="edge"><title>Node30&#45;&gt;Node32</title>
<path fill="none" stroke="midnightblue" d="M213.837,-107.453C232.114,-97.4835 256.416,-84.2279 272.133,-75.6545"/>
<polygon fill="midnightblue" stroke="midnightblue" points="212.009,-104.463 204.906,-112.324 215.361,-110.608 212.009,-104.463"/>
</g>
<!-- Node33 -->
<g id="node4" class="node"><title>Node33</title>
<g id="a_node4"><a xlink:href="../../db/dbf/Control__Surface_8h.html" target="_top" xlink:title="The main header file that includes all Control&#45;Surface header files.">
<polygon fill="white" stroke="black" points="163.5,-0.5 163.5,-19.5 258.5,-19.5 258.5,-0.5 163.5,-0.5"/>
<text text-anchor="middle" x="211" y="-7.5" font-family="Helvetica,sans-Serif" font-size="10.00">Control_Surface.h</text>
</a>
</g>
</g>
<!-- Node32&#45;&gt;Node33 -->
<g id="edge3" class="edge"><title>Node32&#45;&gt;Node33</title>
<path fill="none" stroke="midnightblue" d="M267.099,-50.3422C253.089,-40.5169 235.117,-27.9132 223.341,-19.6545"/>
<polygon fill="midnightblue" stroke="midnightblue" points="265.432,-53.4477 275.629,-56.324 269.451,-47.7166 265.432,-53.4477"/>
</g>
<!-- Node34 -->
<g id="node5" class="node"><title>Node34</title>
<g id="a_node5"><a xlink:href="../../d2/dcb/CCIncrementDecrementButtons_8cpp.html" target="_top" xlink:title=" ">
<polygon fill="white" stroke="black" points="277,-0.5 277,-19.5 453,-19.5 453,-0.5 277,-0.5"/>
<text text-anchor="middle" x="365" y="-7.5" font-family="Helvetica,sans-Serif" font-size="10.00">CCIncrementDecrementButtons.cpp</text>
</a>
</g>
</g>
<!-- Node32&#45;&gt;Node34 -->
<g id="edge4" class="edge"><title>Node32&#45;&gt;Node34</title>
<path fill="none" stroke="midnightblue" d="M308.901,-50.3422C322.911,-40.5169 340.883,-27.9132 352.659,-19.6545"/>
<polygon fill="midnightblue" stroke="midnightblue" points="306.549,-47.7166 300.371,-56.324 310.568,-53.4477 306.549,-47.7166"/>
</g>
</g>
</svg>
