<?xml version="1.0" encoding="UTF-8" standalone="no"?>
<!DOCTYPE svg PUBLIC "-//W3C//DTD SVG 1.1//EN"
 "http://www.w3.org/Graphics/SVG/1.1/DTD/svg11.dtd">
<!-- Generated by graphviz version 2.38.0 (20140413.2041)
 -->
<!-- Title: SPIShiftRegisterOut.ipp Pages: 1 -->
<svg width="801pt" height="700pt"
 viewBox="0.00 0.00 800.50 700.00" xmlns="http://www.w3.org/2000/svg" xmlns:xlink="http://www.w3.org/1999/xlink">
<g id="graph0" class="graph" transform="scale(1 1) rotate(0) translate(4 696)">
<title>SPIShiftRegisterOut.ipp</title>
<polygon fill="white" stroke="none" points="-4,4 -4,-696 796.5,-696 796.5,4 -4,4"/>
<!-- Node1 -->
<g id="node1" class="node"><title>Node1</title>
<g id="a_node1"><a xlink:title=" ">
<polygon fill="#bfbfbf" stroke="black" points="616,-672.5 616,-691.5 738,-691.5 738,-672.5 616,-672.5"/>
<text text-anchor="middle" x="677" y="-679.5" font-family="Helvetica,sans-Serif" font-size="10.00">SPIShiftRegisterOut.ipp</text>
</a>
</g>
</g>
<!-- Node2 -->
<g id="node2" class="node"><title>Node2</title>
<g id="a_node2"><a xlink:href="../../d7/d88/SPIShiftRegisterOut_8hpp.html" target="_top" xlink:title=" ">
<polygon fill="white" stroke="black" points="569.5,-616.5 569.5,-635.5 694.5,-635.5 694.5,-616.5 569.5,-616.5"/>
<text text-anchor="middle" x="632" y="-623.5" font-family="Helvetica,sans-Serif" font-size="10.00">SPIShiftRegisterOut.hpp</text>
</a>
</g>
</g>
<!-- Node1&#45;&gt;Node2 -->
<g id="edge1" class="edge"><title>Node1&#45;&gt;Node2</title>
<path fill="none" stroke="midnightblue" d="M664.655,-672.324C656.685,-664.733 646.906,-653.482 639.913,-644.09"/>
<polygon fill="midnightblue" stroke="midnightblue" points="642.775,-642.074 634.213,-635.834 637.014,-646.052 642.775,-642.074"/>
</g>
<!-- Node28 -->
<g id="node28" class="node"><title>Node28</title>
<g id="a_node28"><a xlink:href="../../dd/ddf/ExtendedInputOutput_8hpp.html" target="_top" xlink:title=" ">
<polygon fill="white" stroke="black" points="605,-448.5 605,-467.5 733,-467.5 733,-448.5 605,-448.5"/>
<text text-anchor="middle" x="669" y="-455.5" font-family="Helvetica,sans-Serif" font-size="10.00">ExtendedInputOutput.hpp</text>
</a>
</g>
</g>
<!-- Node1&#45;&gt;Node28 -->
<g id="edge49" class="edge"><title>Node1&#45;&gt;Node28</title>
<path fill="none" stroke="midnightblue" d="M683.89,-672.319C690.269,-663.684 699.308,-649.77 703,-636 718.362,-578.705 692.329,-509.206 677.783,-476.996"/>
<polygon fill="midnightblue" stroke="midnightblue" points="680.78,-475.143 673.367,-467.573 674.442,-478.113 680.78,-475.143"/>
</g>
<!-- Node30 -->
<g id="node30" class="node"><title>Node30</title>
<g id="a_node30"><a xlink:title=" ">
<polygon fill="white" stroke="#bfbfbf" points="751.5,-616.5 751.5,-635.5 792.5,-635.5 792.5,-616.5 751.5,-616.5"/>
<text text-anchor="middle" x="772" y="-623.5" font-family="Helvetica,sans-Serif" font-size="10.00">SPI.h</text>
</a>
</g>
</g>
<!-- Node1&#45;&gt;Node30 -->
<g id="edge50" class="edge"><title>Node1&#45;&gt;Node30</title>
<path fill="none" stroke="midnightblue" d="M692.263,-672.324C707.221,-663.822 730.255,-650.729 747.727,-640.797"/>
<polygon fill="midnightblue" stroke="midnightblue" points="749.81,-643.639 756.774,-635.655 746.351,-637.553 749.81,-643.639"/>
</g>
<!-- Node2&#45;&gt;Node1 -->
<g id="edge48" class="edge"><title>Node2&#45;&gt;Node1</title>
<path fill="none" stroke="midnightblue" d="M644.424,-635.751C652.363,-643.327 662.079,-654.505 669.046,-663.855"/>
<polygon fill="midnightblue" stroke="midnightblue" points="666.169,-665.849 674.735,-672.083 671.927,-661.867 666.169,-665.849"/>
</g>
<!-- Node3 -->
<g id="node3" class="node"><title>Node3</title>
<g id="a_node3"><a xlink:href="../../d8/d93/ShiftRegisterOutBase_8hpp.html" target="_top" xlink:title=" ">
<polygon fill="white" stroke="black" points="421.5,-560.5 421.5,-579.5 552.5,-579.5 552.5,-560.5 421.5,-560.5"/>
<text text-anchor="middle" x="487" y="-567.5" font-family="Helvetica,sans-Serif" font-size="10.00">ShiftRegisterOutBase.hpp</text>
</a>
</g>
</g>
<!-- Node2&#45;&gt;Node3 -->
<g id="edge2" class="edge"><title>Node2&#45;&gt;Node3</title>
<path fill="none" stroke="midnightblue" d="M609.024,-616.444C584.843,-607.438 546.582,-593.189 519.354,-583.049"/>
<polygon fill="midnightblue" stroke="midnightblue" points="520.461,-579.727 509.868,-579.516 518.018,-586.286 520.461,-579.727"/>
</g>
<!-- Node12 -->
<g id="node12" class="node"><title>Node12</title>
<g id="a_node12"><a xlink:title=" ">
<polygon fill="white" stroke="#bfbfbf" points="621,-0.5 621,-19.5 679,-19.5 679,-0.5 621,-0.5"/>
<text text-anchor="middle" x="650" y="-7.5" font-family="Helvetica,sans-Serif" font-size="10.00">Arduino.h</text>
</a>
</g>
</g>
<!-- Node2&#45;&gt;Node12 -->
<g id="edge46" class="edge"><title>Node2&#45;&gt;Node12</title>
<path fill="none" stroke="midnightblue" d="M645.805,-616.451C679.084,-594.66 761,-533.457 761,-459 761,-459 761,-459 761,-121 761,-74.8239 711.937,-41.4259 679.048,-24.2256"/>
<polygon fill="midnightblue" stroke="midnightblue" points="680.352,-20.9641 669.845,-19.6087 677.214,-27.221 680.352,-20.9641"/>
</g>
<!-- Node25 -->
<g id="node25" class="node"><title>Node25</title>
<g id="a_node25"><a xlink:href="../../d1/d40/BitArray_8hpp.html" target="_top" xlink:title=" ">
<polygon fill="white" stroke="black" points="297.5,-504.5 297.5,-523.5 404.5,-523.5 404.5,-504.5 297.5,-504.5"/>
<text text-anchor="middle" x="351" y="-511.5" font-family="Helvetica,sans-Serif" font-size="10.00">Helpers/BitArray.hpp</text>
</a>
</g>
</g>
<!-- Node2&#45;&gt;Node25 -->
<g id="edge47" class="edge"><title>Node2&#45;&gt;Node25</title>
<path fill="none" stroke="midnightblue" d="M569.212,-622.284C523.172,-617.967 460.499,-607.093 412,-580 391.19,-568.375 373.338,-547.207 362.419,-532.189"/>
<polygon fill="midnightblue" stroke="midnightblue" points="365.142,-529.975 356.552,-523.773 359.4,-533.978 365.142,-529.975"/>
</g>
<!-- Node4 -->
<g id="node4" class="node"><title>Node4</title>
<g id="a_node4"><a xlink:href="../../d2/d05/StaticSizeExtendedIOElement_8hpp.html" target="_top" xlink:title=" ">
<polygon fill="white" stroke="black" points="419,-448.5 419,-467.5 587,-467.5 587,-448.5 419,-448.5"/>
<text text-anchor="middle" x="503" y="-455.5" font-family="Helvetica,sans-Serif" font-size="10.00">StaticSizeExtendedIOElement.hpp</text>
</a>
</g>
</g>
<!-- Node3&#45;&gt;Node4 -->
<g id="edge3" class="edge"><title>Node3&#45;&gt;Node4</title>
<path fill="none" stroke="midnightblue" d="M513.211,-560.414C529.85,-553.445 550.057,-541.809 560,-524 571.103,-504.112 549.012,-484.961 529.179,-472.663"/>
<polygon fill="midnightblue" stroke="midnightblue" points="530.755,-469.53 520.354,-467.516 527.229,-475.577 530.755,-469.53"/>
</g>
<!-- Node3&#45;&gt;Node25 -->
<g id="edge34" class="edge"><title>Node3&#45;&gt;Node25</title>
<path fill="none" stroke="midnightblue" d="M465.45,-560.444C442.969,-551.517 407.512,-537.439 382.02,-527.317"/>
<polygon fill="midnightblue" stroke="midnightblue" points="383.035,-523.954 372.449,-523.516 380.451,-530.46 383.035,-523.954"/>
</g>
<!-- Node27 -->
<g id="node27" class="node"><title>Node27</title>
<g id="a_node27"><a xlink:href="../../d5/d47/ShiftRegisterOutBase_8ipp.html" target="_top" xlink:title=" ">
<polygon fill="white" stroke="black" points="423,-504.5 423,-523.5 551,-523.5 551,-504.5 423,-504.5"/>
<text text-anchor="middle" x="487" y="-511.5" font-family="Helvetica,sans-Serif" font-size="10.00">ShiftRegisterOutBase.ipp</text>
</a>
</g>
</g>
<!-- Node3&#45;&gt;Node27 -->
<g id="edge38" class="edge"><title>Node3&#45;&gt;Node27</title>
<path fill="none" stroke="midnightblue" d="M481.834,-560.083C480.324,-552.927 479.894,-542.635 480.542,-533.691"/>
<polygon fill="midnightblue" stroke="midnightblue" points="484.015,-534.126 481.869,-523.751 477.077,-533.2 484.015,-534.126"/>
</g>
<!-- Node5 -->
<g id="node5" class="node"><title>Node5</title>
<g id="a_node5"><a xlink:href="../../d4/d57/ExtendedIOElement_8hpp.html" target="_top" xlink:title=" ">
<polygon fill="white" stroke="black" points="535.5,-392.5 535.5,-411.5 658.5,-411.5 658.5,-392.5 535.5,-392.5"/>
<text text-anchor="middle" x="597" y="-399.5" font-family="Helvetica,sans-Serif" font-size="10.00">ExtendedIOElement.hpp</text>
</a>
</g>
</g>
<!-- Node4&#45;&gt;Node5 -->
<g id="edge4" class="edge"><title>Node4&#45;&gt;Node5</title>
<path fill="none" stroke="midnightblue" d="M518.103,-448.324C532.903,-439.822 555.694,-426.729 572.982,-416.797"/>
<polygon fill="midnightblue" stroke="midnightblue" points="575.007,-419.671 581.935,-411.655 571.52,-413.601 575.007,-419.671"/>
</g>
<!-- Node24 -->
<g id="node24" class="node"><title>Node24</title>
<g id="a_node24"><a xlink:href="../../d5/db6/ArrayHelpers_8hpp.html" target="_top" xlink:title=" ">
<polygon fill="white" stroke="black" points="388.5,-392.5 388.5,-411.5 517.5,-411.5 517.5,-392.5 388.5,-392.5"/>
<text text-anchor="middle" x="453" y="-399.5" font-family="Helvetica,sans-Serif" font-size="10.00">Helpers/ArrayHelpers.hpp</text>
</a>
</g>
</g>
<!-- Node4&#45;&gt;Node24 -->
<g id="edge32" class="edge"><title>Node4&#45;&gt;Node24</title>
<path fill="none" stroke="midnightblue" d="M494.744,-448.083C487.535,-440.298 476.89,-428.801 468.154,-419.367"/>
<polygon fill="midnightblue" stroke="midnightblue" points="470.465,-416.711 461.103,-411.751 465.329,-421.467 470.465,-416.711"/>
</g>
<!-- Node6 -->
<g id="node6" class="node"><title>Node6</title>
<g id="a_node6"><a xlink:href="../../d0/d4e/Def_8hpp.html" target="_top" xlink:title=" ">
<polygon fill="white" stroke="black" points="203,-112.5 203,-131.5 273,-131.5 273,-112.5 203,-112.5"/>
<text text-anchor="middle" x="238" y="-119.5" font-family="Helvetica,sans-Serif" font-size="10.00">Def/Def.hpp</text>
</a>
</g>
</g>
<!-- Node5&#45;&gt;Node6 -->
<g id="edge5" class="edge"><title>Node5&#45;&gt;Node6</title>
<path fill="none" stroke="midnightblue" d="M578.261,-392.419C549.492,-379.399 492.566,-354.241 443,-336 393.137,-317.649 376.043,-324.699 329,-300 311.053,-290.578 267.295,-261.461 257,-244 238.073,-211.9 236.155,-167.046 236.829,-141.942"/>
<polygon fill="midnightblue" stroke="midnightblue" points="240.34,-141.775 237.287,-131.63 233.347,-141.465 240.34,-141.775"/>
</g>
<!-- Node14 -->
<g id="node14" class="node"><title>Node14</title>
<g id="a_node14"><a xlink:href="../../de/dd1/LinkedList_8hpp.html" target="_top" xlink:title=" ">
<polygon fill="white" stroke="black" points="529,-336.5 529,-355.5 645,-355.5 645,-336.5 529,-336.5"/>
<text text-anchor="middle" x="587" y="-343.5" font-family="Helvetica,sans-Serif" font-size="10.00">Helpers/LinkedList.hpp</text>
</a>
</g>
</g>
<!-- Node5&#45;&gt;Node14 -->
<g id="edge17" class="edge"><title>Node5&#45;&gt;Node14</title>
<path fill="none" stroke="midnightblue" d="M595.349,-392.083C594.024,-384.927 592.118,-374.635 590.461,-365.691"/>
<polygon fill="midnightblue" stroke="midnightblue" points="593.883,-364.947 588.621,-355.751 587,-366.221 593.883,-364.947"/>
</g>
<!-- Node7 -->
<g id="node7" class="node"><title>Node7</title>
<g id="a_node7"><a xlink:href="../../d7/d42/Channel_8hpp.html" target="_top" xlink:title=" ">
<polygon fill="white" stroke="black" points="104.5,-56.5 104.5,-75.5 175.5,-75.5 175.5,-56.5 104.5,-56.5"/>
<text text-anchor="middle" x="140" y="-63.5" font-family="Helvetica,sans-Serif" font-size="10.00">Channel.hpp</text>
</a>
</g>
</g>
<!-- Node6&#45;&gt;Node7 -->
<g id="edge6" class="edge"><title>Node6&#45;&gt;Node7</title>
<path fill="none" stroke="midnightblue" d="M222.255,-112.324C206.681,-103.743 182.623,-90.486 164.541,-80.5224"/>
<polygon fill="midnightblue" stroke="midnightblue" points="166.154,-77.4152 155.706,-75.6545 162.776,-83.546 166.154,-77.4152"/>
</g>
<!-- Node8 -->
<g id="node8" class="node"><title>Node8</title>
<g id="a_node8"><a xlink:title=" ">
<polygon fill="white" stroke="#bfbfbf" points="32.5,-0.5 32.5,-19.5 81.5,-19.5 81.5,-0.5 32.5,-0.5"/>
<text text-anchor="middle" x="57" y="-7.5" font-family="Helvetica,sans-Serif" font-size="10.00">stdint.h</text>
</a>
</g>
</g>
<!-- Node6&#45;&gt;Node8 -->
<g id="edge16" class="edge"><title>Node6&#45;&gt;Node8</title>
<path fill="none" stroke="midnightblue" d="M202.908,-117.165C171.717,-112.202 126.334,-100.994 95,-76 79.7053,-63.7998 69.3056,-43.647 63.3052,-29.0109"/>
<polygon fill="midnightblue" stroke="midnightblue" points="66.525,-27.6304 59.7064,-19.5212 59.9798,-30.1125 66.525,-27.6304"/>
</g>
<!-- Node9 -->
<g id="node9" class="node"><title>Node9</title>
<g id="a_node9"><a xlink:href="../../dc/dc7/NamespaceSettings_8hpp.html" target="_top" xlink:title=" ">
<polygon fill="white" stroke="black" points="181.5,-0.5 181.5,-19.5 344.5,-19.5 344.5,-0.5 181.5,-0.5"/>
<text text-anchor="middle" x="263" y="-7.5" font-family="Helvetica,sans-Serif" font-size="10.00">Settings/NamespaceSettings.hpp</text>
</a>
</g>
</g>
<!-- Node6&#45;&gt;Node9 -->
<g id="edge14" class="edge"><title>Node6&#45;&gt;Node9</title>
<path fill="none" stroke="midnightblue" d="M251.064,-112.436C261.914,-104.471 276.573,-91.5154 283,-76 289.544,-60.2003 282.281,-41.4713 274.739,-28.1856"/>
<polygon fill="midnightblue" stroke="midnightblue" points="277.647,-26.2343 269.392,-19.5934 271.704,-29.9328 277.647,-26.2343"/>
</g>
<!-- Node10 -->
<g id="node10" class="node"><title>Node10</title>
<g id="a_node10"><a xlink:href="../../dc/d50/Frequency_8hpp.html" target="_top" xlink:title=" ">
<polygon fill="white" stroke="black" points="193.5,-56.5 193.5,-75.5 274.5,-75.5 274.5,-56.5 193.5,-56.5"/>
<text text-anchor="middle" x="234" y="-63.5" font-family="Helvetica,sans-Serif" font-size="10.00">Frequency.hpp</text>
</a>
</g>
</g>
<!-- Node6&#45;&gt;Node10 -->
<g id="edge9" class="edge"><title>Node6&#45;&gt;Node10</title>
<path fill="none" stroke="midnightblue" d="M237.339,-112.083C236.815,-105.006 236.064,-94.8611 235.406,-85.9865"/>
<polygon fill="midnightblue" stroke="midnightblue" points="238.877,-85.4652 234.648,-75.7511 231.897,-85.9823 238.877,-85.4652"/>
</g>
<!-- Node11 -->
<g id="node11" class="node"><title>Node11</title>
<g id="a_node11"><a xlink:href="../../de/d76/Array_8hpp.html" target="_top" xlink:title=" ">
<polygon fill="white" stroke="black" points="429.5,-56.5 429.5,-75.5 524.5,-75.5 524.5,-56.5 429.5,-56.5"/>
<text text-anchor="middle" x="477" y="-63.5" font-family="Helvetica,sans-Serif" font-size="10.00">Helpers/Array.hpp</text>
</a>
</g>
</g>
<!-- Node6&#45;&gt;Node11 -->
<g id="edge11" class="edge"><title>Node6&#45;&gt;Node11</title>
<path fill="none" stroke="midnightblue" d="M273.009,-113.09C314.32,-103.756 383.214,-88.1902 429.362,-77.7635"/>
<polygon fill="midnightblue" stroke="midnightblue" points="430.15,-81.1736 439.133,-75.5558 428.607,-74.3458 430.15,-81.1736"/>
</g>
<!-- Node13 -->
<g id="node13" class="node"><title>Node13</title>
<g id="a_node13"><a xlink:title=" ">
<polygon fill="white" stroke="#bfbfbf" points="393,-0.5 393,-19.5 445,-19.5 445,-0.5 393,-0.5"/>
<text text-anchor="middle" x="419" y="-7.5" font-family="Helvetica,sans-Serif" font-size="10.00">stddef.h</text>
</a>
</g>
</g>
<!-- Node6&#45;&gt;Node13 -->
<g id="edge15" class="edge"><title>Node6&#45;&gt;Node13</title>
<path fill="none" stroke="midnightblue" d="M252.203,-112.368C283.395,-93.4121 358.117,-48.0006 396.058,-24.9424"/>
<polygon fill="midnightblue" stroke="midnightblue" points="398.135,-27.7759 404.863,-19.5914 394.5,-21.794 398.135,-27.7759"/>
</g>
<!-- Node7&#45;&gt;Node8 -->
<g id="edge7" class="edge"><title>Node7&#45;&gt;Node8</title>
<path fill="none" stroke="midnightblue" d="M126.665,-56.324C113.838,-47.979 94.215,-35.2122 79.0602,-25.3524"/>
<polygon fill="midnightblue" stroke="midnightblue" points="80.5932,-22.1742 70.3023,-19.6545 76.7757,-28.0417 80.5932,-22.1742"/>
</g>
<!-- Node7&#45;&gt;Node9 -->
<g id="edge8" class="edge"><title>Node7&#45;&gt;Node9</title>
<path fill="none" stroke="midnightblue" d="M159.49,-56.4435C179.642,-47.5961 211.323,-33.6875 234.331,-23.5865"/>
<polygon fill="midnightblue" stroke="midnightblue" points="235.852,-26.7411 243.601,-19.5164 233.038,-20.3316 235.852,-26.7411"/>
</g>
<!-- Node10&#45;&gt;Node9 -->
<g id="edge10" class="edge"><title>Node10&#45;&gt;Node9</title>
<path fill="none" stroke="midnightblue" d="M238.789,-56.083C242.758,-48.6913 248.525,-37.9533 253.435,-28.8111"/>
<polygon fill="midnightblue" stroke="midnightblue" points="256.653,-30.217 258.3,-19.7511 250.486,-26.9051 256.653,-30.217"/>
</g>
<!-- Node11&#45;&gt;Node12 -->
<g id="edge12" class="edge"><title>Node11&#45;&gt;Node12</title>
<path fill="none" stroke="midnightblue" d="M504.412,-56.4435C533.769,-47.2801 580.519,-32.6876 613.096,-22.5192"/>
<polygon fill="midnightblue" stroke="midnightblue" points="614.213,-25.8371 622.716,-19.5164 612.127,-19.1551 614.213,-25.8371"/>
</g>
<!-- Node11&#45;&gt;Node13 -->
<g id="edge13" class="edge"><title>Node11&#45;&gt;Node13</title>
<path fill="none" stroke="midnightblue" d="M467.681,-56.324C459.107,-48.3414 446.188,-36.3128 435.812,-26.6529"/>
<polygon fill="midnightblue" stroke="midnightblue" points="438.192,-24.0865 428.488,-19.8339 433.422,-29.2098 438.192,-24.0865"/>
</g>
<!-- Node15 -->
<g id="node15" class="node"><title>Node15</title>
<g id="a_node15"><a xlink:href="../../df/dee/Debug_8hpp.html" target="_top" xlink:title=" ">
<polygon fill="white" stroke="black" points="338.5,-280.5 338.5,-299.5 439.5,-299.5 439.5,-280.5 338.5,-280.5"/>
<text text-anchor="middle" x="389" y="-287.5" font-family="Helvetica,sans-Serif" font-size="10.00">Helpers/Debug.hpp</text>
</a>
</g>
</g>
<!-- Node14&#45;&gt;Node15 -->
<g id="edge18" class="edge"><title>Node14&#45;&gt;Node15</title>
<path fill="none" stroke="midnightblue" d="M555.626,-336.444C521.737,-327.201 467.597,-312.436 430.276,-302.257"/>
<polygon fill="midnightblue" stroke="midnightblue" points="430.795,-298.771 420.227,-299.516 428.954,-305.524 430.795,-298.771"/>
</g>
<!-- Node21 -->
<g id="node21" class="node"><title>Node21</title>
<g id="a_node21"><a xlink:title=" ">
<polygon fill="white" stroke="#bfbfbf" points="496,-280.5 496,-299.5 544,-299.5 544,-280.5 496,-280.5"/>
<text text-anchor="middle" x="520" y="-287.5" font-family="Helvetica,sans-Serif" font-size="10.00">stdlib.h</text>
</a>
</g>
</g>
<!-- Node14&#45;&gt;Node21 -->
<g id="edge28" class="edge"><title>Node14&#45;&gt;Node21</title>
<path fill="none" stroke="midnightblue" d="M576.235,-336.324C566.234,-328.263 551.113,-316.077 539.07,-306.369"/>
<polygon fill="midnightblue" stroke="midnightblue" points="540.943,-303.384 530.961,-299.834 536.55,-308.834 540.943,-303.384"/>
</g>
<!-- Node22 -->
<g id="node22" class="node"><title>Node22</title>
<g id="a_node22"><a xlink:href="../../d7/d79/MinMaxFix_8hpp.html" target="_top" xlink:title=" ">
<polygon fill="white" stroke="black" points="575,-224.5 575,-243.5 695,-243.5 695,-224.5 575,-224.5"/>
<text text-anchor="middle" x="635" y="-231.5" font-family="Helvetica,sans-Serif" font-size="10.00">Helpers/MinMaxFix.hpp</text>
</a>
</g>
</g>
<!-- Node14&#45;&gt;Node22 -->
<g id="edge29" class="edge"><title>Node14&#45;&gt;Node22</title>
<path fill="none" stroke="midnightblue" d="M594.406,-336.257C601.412,-327.575 611.758,-313.628 618,-300 624.831,-285.087 629.287,-266.944 631.916,-253.62"/>
<polygon fill="midnightblue" stroke="midnightblue" points="635.367,-254.202 633.707,-243.738 628.479,-252.953 635.367,-254.202"/>
</g>
<!-- Node23 -->
<g id="node23" class="node"><title>Node23</title>
<g id="a_node23"><a xlink:title=" ">
<polygon fill="white" stroke="#bfbfbf" points="562.5,-280.5 562.5,-299.5 609.5,-299.5 609.5,-280.5 562.5,-280.5"/>
<text text-anchor="middle" x="586" y="-287.5" font-family="Helvetica,sans-Serif" font-size="10.00">iterator</text>
</a>
</g>
</g>
<!-- Node14&#45;&gt;Node23 -->
<g id="edge31" class="edge"><title>Node14&#45;&gt;Node23</title>
<path fill="none" stroke="midnightblue" d="M586.835,-336.083C586.704,-329.006 586.516,-318.861 586.352,-309.986"/>
<polygon fill="midnightblue" stroke="midnightblue" points="589.847,-309.685 586.162,-299.751 582.848,-309.814 589.847,-309.685"/>
</g>
<!-- Node16 -->
<g id="node16" class="node"><title>Node16</title>
<g id="a_node16"><a xlink:href="../../d2/dd5/SettingsWrapper_8hpp.html" target="_top" xlink:title=" ">
<polygon fill="white" stroke="black" points="266.5,-224.5 266.5,-243.5 413.5,-243.5 413.5,-224.5 266.5,-224.5"/>
<text text-anchor="middle" x="340" y="-231.5" font-family="Helvetica,sans-Serif" font-size="10.00">Settings/SettingsWrapper.hpp</text>
</a>
</g>
</g>
<!-- Node15&#45;&gt;Node16 -->
<g id="edge19" class="edge"><title>Node15&#45;&gt;Node16</title>
<path fill="none" stroke="midnightblue" d="M376.012,-280.324C367.393,-272.654 356.648,-261.25 348.942,-251.8"/>
<polygon fill="midnightblue" stroke="midnightblue" points="351.714,-249.663 342.867,-243.834 346.148,-253.908 351.714,-249.663"/>
</g>
<!-- Node20 -->
<g id="node20" class="node"><title>Node20</title>
<g id="a_node20"><a xlink:href="../../dd/d80/PrintStream_8hpp.html" target="_top" xlink:title=" ">
<polygon fill="white" stroke="black" points="431.5,-224.5 431.5,-243.5 518.5,-243.5 518.5,-224.5 431.5,-224.5"/>
<text text-anchor="middle" x="475" y="-231.5" font-family="Helvetica,sans-Serif" font-size="10.00">PrintStream.hpp</text>
</a>
</g>
</g>
<!-- Node15&#45;&gt;Node20 -->
<g id="edge26" class="edge"><title>Node15&#45;&gt;Node20</title>
<path fill="none" stroke="midnightblue" d="M402.817,-280.324C416.233,-271.9 436.824,-258.971 452.586,-249.074"/>
<polygon fill="midnightblue" stroke="midnightblue" points="454.609,-251.936 461.217,-243.655 450.887,-246.008 454.609,-251.936"/>
</g>
<!-- Node16&#45;&gt;Node9 -->
<g id="edge23" class="edge"><title>Node16&#45;&gt;Node9</title>
<path fill="none" stroke="midnightblue" d="M342.863,-224.453C349.167,-204.191 362.574,-151.951 348,-112 334.884,-76.0463 302.711,-44.022 281.924,-26.0994"/>
<polygon fill="midnightblue" stroke="midnightblue" points="283.976,-23.2529 274.06,-19.5211 279.485,-28.622 283.976,-23.2529"/>
</g>
<!-- Node16&#45;&gt;Node15 -->
<g id="edge25" class="edge"><title>Node16&#45;&gt;Node15</title>
<path fill="none" stroke="midnightblue" d="M353.072,-243.751C361.573,-251.327 372.117,-262.505 379.776,-271.855"/>
<polygon fill="midnightblue" stroke="midnightblue" points="377.217,-274.27 386.075,-280.083 382.775,-270.015 377.217,-274.27"/>
</g>
<!-- Node17 -->
<g id="node17" class="node"><title>Node17</title>
<g id="a_node17"><a xlink:href="../../db/d02/Settings_8hpp.html" target="_top" xlink:title="All user settings and debugging options can be changed here.">
<polygon fill="white" stroke="black" points="266.5,-168.5 266.5,-187.5 337.5,-187.5 337.5,-168.5 266.5,-168.5"/>
<text text-anchor="middle" x="302" y="-175.5" font-family="Helvetica,sans-Serif" font-size="10.00">Settings.hpp</text>
</a>
</g>
</g>
<!-- Node16&#45;&gt;Node17 -->
<g id="edge20" class="edge"><title>Node16&#45;&gt;Node17</title>
<path fill="none" stroke="midnightblue" d="M333.725,-224.083C328.358,-216.455 320.482,-205.264 313.921,-195.941"/>
<polygon fill="midnightblue" stroke="midnightblue" points="316.775,-193.915 308.158,-187.751 311.051,-197.943 316.775,-193.915"/>
</g>
<!-- Node19 -->
<g id="node19" class="node"><title>Node19</title>
<g id="a_node19"><a xlink:href="../../d9/d98/TeensyUSBTypes_8hpp.html" target="_top" xlink:title=" ">
<polygon fill="white" stroke="black" points="394,-168.5 394,-187.5 546,-187.5 546,-168.5 394,-168.5"/>
<text text-anchor="middle" x="470" y="-175.5" font-family="Helvetica,sans-Serif" font-size="10.00">Helpers/TeensyUSBTypes.hpp</text>
</a>
</g>
</g>
<!-- Node16&#45;&gt;Node19 -->
<g id="edge24" class="edge"><title>Node16&#45;&gt;Node19</title>
<path fill="none" stroke="midnightblue" d="M360.599,-224.444C381.993,-215.557 415.681,-201.563 440.024,-191.451"/>
<polygon fill="midnightblue" stroke="midnightblue" points="441.605,-194.585 449.497,-187.516 438.92,-188.12 441.605,-194.585"/>
</g>
<!-- Node17&#45;&gt;Node6 -->
<g id="edge21" class="edge"><title>Node17&#45;&gt;Node6</title>
<path fill="none" stroke="midnightblue" d="M291.717,-168.324C282.164,-160.263 267.72,-148.077 256.216,-138.369"/>
<polygon fill="midnightblue" stroke="midnightblue" points="258.37,-135.608 248.47,-131.834 253.856,-140.958 258.37,-135.608"/>
</g>
<!-- Node18 -->
<g id="node18" class="node"><title>Node18</title>
<g id="a_node18"><a xlink:title=" ">
<polygon fill="white" stroke="#bfbfbf" points="291,-112.5 291,-131.5 339,-131.5 339,-112.5 291,-112.5"/>
<text text-anchor="middle" x="315" y="-119.5" font-family="Helvetica,sans-Serif" font-size="10.00">limits.h</text>
</a>
</g>
</g>
<!-- Node17&#45;&gt;Node18 -->
<g id="edge22" class="edge"><title>Node17&#45;&gt;Node18</title>
<path fill="none" stroke="midnightblue" d="M304.147,-168.083C305.869,-160.927 308.347,-150.635 310.5,-141.691"/>
<polygon fill="midnightblue" stroke="midnightblue" points="313.955,-142.293 312.893,-131.751 307.15,-140.654 313.955,-142.293"/>
</g>
<!-- Node20&#45;&gt;Node12 -->
<g id="edge27" class="edge"><title>Node20&#45;&gt;Node12</title>
<path fill="none" stroke="midnightblue" d="M497.596,-224.417C514.982,-216.914 538.712,-204.613 555,-188 601.926,-140.135 631.939,-64.373 643.983,-29.5826"/>
<polygon fill="midnightblue" stroke="midnightblue" points="647.398,-30.408 647.261,-19.814 640.762,-28.181 647.398,-30.408"/>
</g>
<!-- Node22&#45;&gt;Node12 -->
<g id="edge30" class="edge"><title>Node22&#45;&gt;Node12</title>
<path fill="none" stroke="midnightblue" d="M635.588,-224.297C637.795,-191.633 645.617,-75.8661 648.719,-29.9573"/>
<polygon fill="midnightblue" stroke="midnightblue" points="652.218,-30.097 649.4,-19.8837 645.233,-29.625 652.218,-30.097"/>
</g>
<!-- Node24&#45;&gt;Node11 -->
<g id="edge33" class="edge"><title>Node24&#45;&gt;Node11</title>
<path fill="none" stroke="midnightblue" d="M453.763,-392.427C455.941,-371.664 463.623,-317.625 487,-280 499.623,-259.685 512.51,-263.029 527,-244 543.858,-221.861 548.607,-215.082 555,-188 565.208,-144.76 523.63,-103.228 497.263,-81.8809"/>
<polygon fill="midnightblue" stroke="midnightblue" points="499.359,-79.0764 489.322,-75.6827 495.052,-84.5946 499.359,-79.0764"/>
</g>
<!-- Node25&#45;&gt;Node8 -->
<g id="edge37" class="edge"><title>Node25&#45;&gt;Node8</title>
<path fill="none" stroke="midnightblue" d="M297.309,-507.444C198.983,-495.771 0,-464.545 0,-403 0,-403 0,-403 0,-121 0,-84.3005 25.321,-47.6567 42.2099,-27.2973"/>
<polygon fill="midnightblue" stroke="midnightblue" points="44.9535,-29.475 48.8333,-19.6161 39.6522,-24.9037 44.9535,-29.475"/>
</g>
<!-- Node26 -->
<g id="node26" class="node"><title>Node26</title>
<g id="a_node26"><a xlink:href="../../d1/d93/Error_8hpp.html" target="_top" xlink:title=" ">
<polygon fill="white" stroke="black" points="341.5,-336.5 341.5,-355.5 434.5,-355.5 434.5,-336.5 341.5,-336.5"/>
<text text-anchor="middle" x="388" y="-343.5" font-family="Helvetica,sans-Serif" font-size="10.00">Helpers/Error.hpp</text>
</a>
</g>
</g>
<!-- Node25&#45;&gt;Node26 -->
<g id="edge35" class="edge"><title>Node25&#45;&gt;Node26</title>
<path fill="none" stroke="midnightblue" d="M352.989,-504.075C358.813,-477.945 375.917,-401.211 383.859,-365.577"/>
<polygon fill="midnightblue" stroke="midnightblue" points="387.331,-366.09 386.09,-355.568 380.498,-364.567 387.331,-366.09"/>
</g>
<!-- Node26&#45;&gt;Node15 -->
<g id="edge36" class="edge"><title>Node26&#45;&gt;Node15</title>
<path fill="none" stroke="midnightblue" d="M388.165,-336.083C388.296,-329.006 388.484,-318.861 388.648,-309.986"/>
<polygon fill="midnightblue" stroke="midnightblue" points="392.152,-309.814 388.838,-299.751 385.153,-309.685 392.152,-309.814"/>
</g>
<!-- Node27&#45;&gt;Node3 -->
<g id="edge42" class="edge"><title>Node27&#45;&gt;Node3</title>
<path fill="none" stroke="midnightblue" d="M492.131,-523.751C493.657,-530.858 494.104,-541.136 493.472,-550.101"/>
<polygon fill="midnightblue" stroke="midnightblue" points="489.993,-549.713 492.166,-560.083 496.934,-550.622 489.993,-549.713"/>
</g>
<!-- Node27&#45;&gt;Node28 -->
<g id="edge39" class="edge"><title>Node27&#45;&gt;Node28</title>
<path fill="none" stroke="midnightblue" d="M515.838,-504.444C546.856,-495.241 596.329,-480.562 630.618,-470.388"/>
<polygon fill="midnightblue" stroke="midnightblue" points="631.705,-473.716 640.296,-467.516 629.714,-467.006 631.705,-473.716"/>
</g>
<!-- Node29 -->
<g id="node29" class="node"><title>Node29</title>
<g id="a_node29"><a xlink:href="../../d1/d1f/ShiftRegisterOutRGB_8hpp.html" target="_top" xlink:title=" ">
<polygon fill="white" stroke="black" points="152,-280.5 152,-299.5 282,-299.5 282,-280.5 152,-280.5"/>
<text text-anchor="middle" x="217" y="-287.5" font-family="Helvetica,sans-Serif" font-size="10.00">ShiftRegisterOutRGB.hpp</text>
</a>
</g>
</g>
<!-- Node27&#45;&gt;Node29 -->
<g id="edge43" class="edge"><title>Node27&#45;&gt;Node29</title>
<path fill="none" stroke="midnightblue" d="M470.137,-504.49C454.091,-496.086 429.563,-482.43 410,-468 338.494,-415.256 263.683,-339.885 232.288,-307.175"/>
<polygon fill="midnightblue" stroke="midnightblue" points="234.705,-304.639 225.27,-299.818 229.64,-309.47 234.705,-304.639"/>
</g>
<!-- Node28&#45;&gt;Node5 -->
<g id="edge40" class="edge"><title>Node28&#45;&gt;Node5</title>
<path fill="none" stroke="midnightblue" d="M657.432,-448.324C646.58,-440.185 630.119,-427.839 617.117,-418.087"/>
<polygon fill="midnightblue" stroke="midnightblue" points="618.879,-415.034 608.779,-411.834 614.679,-420.634 618.879,-415.034"/>
</g>
<!-- Node28&#45;&gt;Node12 -->
<g id="edge41" class="edge"><title>Node28&#45;&gt;Node12</title>
<path fill="none" stroke="midnightblue" d="M676.737,-448.306C691.668,-430.594 723,-388.485 723,-347 723,-347 723,-347 723,-121 723,-81.7755 690.377,-45.8358 668.747,-26.3184"/>
<polygon fill="midnightblue" stroke="midnightblue" points="670.933,-23.5813 661.087,-19.6696 666.345,-28.8678 670.933,-23.5813"/>
</g>
<!-- Node29&#45;&gt;Node8 -->
<g id="edge44" class="edge"><title>Node29&#45;&gt;Node8</title>
<path fill="none" stroke="midnightblue" d="M167.139,-280.446C114.174,-268.165 38,-239.914 38,-179 38,-179 38,-179 38,-121 38,-88.4885 46.159,-51.3503 51.7838,-29.6103"/>
<polygon fill="midnightblue" stroke="midnightblue" points="55.218,-30.3175 54.4376,-19.7514 48.4586,-28.498 55.218,-30.3175"/>
</g>
<!-- Node29&#45;&gt;Node16 -->
<g id="edge45" class="edge"><title>Node29&#45;&gt;Node16</title>
<path fill="none" stroke="midnightblue" d="M236.49,-280.444C256.642,-271.596 288.323,-257.687 311.331,-247.586"/>
<polygon fill="midnightblue" stroke="midnightblue" points="312.852,-250.741 320.601,-243.516 310.038,-244.332 312.852,-250.741"/>
</g>
</g>
</svg>
