<?xml version="1.0" encoding="UTF-8" standalone="no"?>
<!DOCTYPE svg PUBLIC "-//W3C//DTD SVG 1.1//EN"
 "http://www.w3.org/Graphics/SVG/1.1/DTD/svg11.dtd">
<!-- Generated by graphviz version 2.38.0 (20140413.2041)
 -->
<!-- Title: EncoderSelector&lt; N &gt; Pages: 1 -->
<svg width="150pt" height="860pt"
 viewBox="0.00 0.00 150.00 860.00" xmlns="http://www.w3.org/2000/svg" xmlns:xlink="http://www.w3.org/1999/xlink">
<g id="graph0" class="graph" transform="scale(1 1) rotate(0) translate(4 856)">
<title>EncoderSelector&lt; N &gt;</title>
<polygon fill="white" stroke="none" points="-4,4 -4,-856 146,-856 146,4 -4,4"/>
<!-- Node0 -->
<g id="node1" class="node"><title>Node0</title>
<g id="a_node1"><a xlink:title=" ">
<polygon fill="#bfbfbf" stroke="black" points="14,-0.5 14,-90.5 128,-90.5 128,-0.5 14,-0.5"/>
<text text-anchor="middle" x="71" y="-78.5" font-family="Helvetica,sans-Serif" font-size="10.00">EncoderSelector&lt; N &gt;</text>
<polyline fill="none" stroke="black" points="14,-71.5 128,-71.5 "/>
<text text-anchor="middle" x="71" y="-59.5" font-family="Helvetica,sans-Serif" font-size="10.00"> </text>
<polyline fill="none" stroke="black" points="14,-52.5 128,-52.5 "/>
<text text-anchor="start" x="22" y="-40.5" font-family="Helvetica,sans-Serif" font-size="10.00">+ EncoderSelector()</text>
<text text-anchor="start" x="22" y="-29.5" font-family="Helvetica,sans-Serif" font-size="10.00">+ EncoderSelector()</text>
<text text-anchor="start" x="22" y="-18.5" font-family="Helvetica,sans-Serif" font-size="10.00">+ beginOutput()</text>
<text text-anchor="start" x="22" y="-7.5" font-family="Helvetica,sans-Serif" font-size="10.00">+ updateOutput()</text>
</a>
</g>
</g>
<!-- Node1 -->
<g id="node2" class="node"><title>Node1</title>
<g id="a_node2"><a xlink:href="../../d0/daf/classEncoderSelector__Base.html" target="_top" xlink:title=" ">
<polygon fill="white" stroke="black" points="0,-127.5 0,-272.5 142,-272.5 142,-127.5 0,-127.5"/>
<text text-anchor="middle" x="71" y="-260.5" font-family="Helvetica,sans-Serif" font-size="10.00">EncoderSelector_Base&lt; N &gt;</text>
<polyline fill="none" stroke="black" points="0,-253.5 142,-253.5 "/>
<text text-anchor="start" x="8" y="-241.5" font-family="Helvetica,sans-Serif" font-size="10.00">&#45; encoder</text>
<text text-anchor="start" x="8" y="-230.5" font-family="Helvetica,sans-Serif" font-size="10.00">&#45; switchPin</text>
<text text-anchor="start" x="8" y="-219.5" font-family="Helvetica,sans-Serif" font-size="10.00">&#45; pulsesPerStep</text>
<text text-anchor="start" x="8" y="-208.5" font-family="Helvetica,sans-Serif" font-size="10.00">&#45; wrap</text>
<text text-anchor="start" x="8" y="-197.5" font-family="Helvetica,sans-Serif" font-size="10.00">&#45; previousPosition</text>
<text text-anchor="start" x="8" y="-186.5" font-family="Helvetica,sans-Serif" font-size="10.00">&#45; previousSwitchState</text>
<polyline fill="none" stroke="black" points="0,-179.5 142,-179.5 "/>
<text text-anchor="start" x="8" y="-167.5" font-family="Helvetica,sans-Serif" font-size="10.00">+ EncoderSelector_Base()</text>
<text text-anchor="start" x="8" y="-156.5" font-family="Helvetica,sans-Serif" font-size="10.00">+ EncoderSelector_Base()</text>
<text text-anchor="start" x="8" y="-145.5" font-family="Helvetica,sans-Serif" font-size="10.00">+ beginInput()</text>
<text text-anchor="start" x="8" y="-134.5" font-family="Helvetica,sans-Serif" font-size="10.00">+ update()</text>
</a>
</g>
</g>
<!-- Node1&#45;&gt;Node0 -->
<g id="edge1" class="edge"><title>Node1&#45;&gt;Node0</title>
<path fill="none" stroke="midnightblue" d="M71,-116.941C71,-107.857 71,-98.8847 71,-90.5422"/>
<polygon fill="none" stroke="midnightblue" points="67.5001,-117.215 71,-127.216 74.5001,-117.216 67.5001,-117.215"/>
</g>
<!-- Node2 -->
<g id="node3" class="node"><title>Node2</title>
<g id="a_node3"><a xlink:href="../../d1/d54/classSelector.html" target="_top" xlink:title=" ">
<polygon fill="white" stroke="black" points="27.5,-309.5 27.5,-487.5 114.5,-487.5 114.5,-309.5 27.5,-309.5"/>
<text text-anchor="middle" x="71" y="-475.5" font-family="Helvetica,sans-Serif" font-size="10.00">Selector&lt; N &gt;</text>
<polyline fill="none" stroke="black" points="27.5,-468.5 114.5,-468.5 "/>
<text text-anchor="start" x="35.5" y="-456.5" font-family="Helvetica,sans-Serif" font-size="10.00">&#45; selectable</text>
<text text-anchor="start" x="35.5" y="-445.5" font-family="Helvetica,sans-Serif" font-size="10.00">&#45; setting</text>
<polyline fill="none" stroke="black" points="27.5,-438.5 114.5,-438.5 "/>
<text text-anchor="start" x="35.5" y="-426.5" font-family="Helvetica,sans-Serif" font-size="10.00">+ beginInput()</text>
<text text-anchor="start" x="35.5" y="-415.5" font-family="Helvetica,sans-Serif" font-size="10.00">+ beginOutput()</text>
<text text-anchor="start" x="35.5" y="-404.5" font-family="Helvetica,sans-Serif" font-size="10.00">+ begin()</text>
<text text-anchor="start" x="35.5" y="-393.5" font-family="Helvetica,sans-Serif" font-size="10.00">+ reset()</text>
<text text-anchor="start" x="35.5" y="-382.5" font-family="Helvetica,sans-Serif" font-size="10.00">+ get()</text>
<text text-anchor="start" x="35.5" y="-371.5" font-family="Helvetica,sans-Serif" font-size="10.00">+ set()</text>
<text text-anchor="start" x="35.5" y="-360.5" font-family="Helvetica,sans-Serif" font-size="10.00">+ increment()</text>
<text text-anchor="start" x="35.5" y="-349.5" font-family="Helvetica,sans-Serif" font-size="10.00">+ decrement()</text>
<text text-anchor="start" x="35.5" y="-338.5" font-family="Helvetica,sans-Serif" font-size="10.00"># Selector()</text>
<text text-anchor="start" x="35.5" y="-327.5" font-family="Helvetica,sans-Serif" font-size="10.00"># Selector()</text>
<text text-anchor="start" x="35.5" y="-316.5" font-family="Helvetica,sans-Serif" font-size="10.00">&#45; updateOutput()</text>
</a>
</g>
</g>
<!-- Node2&#45;&gt;Node1 -->
<g id="edge2" class="edge"><title>Node2&#45;&gt;Node1</title>
<path fill="none" stroke="midnightblue" d="M71,-299.234C71,-290.297 71,-281.36 71,-272.719"/>
<polygon fill="none" stroke="midnightblue" points="67.5001,-299.309 71,-309.309 74.5001,-299.309 67.5001,-299.309"/>
</g>
<!-- Node3 -->
<g id="node4" class="node"><title>Node3</title>
<g id="a_node4"><a xlink:href="../../d5/de0/classUpdatable.html" target="_top" xlink:title=" ">
<polygon fill="white" stroke="black" points="30,-524.5 30,-735.5 112,-735.5 112,-524.5 30,-524.5"/>
<text text-anchor="middle" x="71" y="-723.5" font-family="Helvetica,sans-Serif" font-size="10.00">Updatable&lt;&gt;</text>
<polyline fill="none" stroke="black" points="30,-716.5 112,-716.5 "/>
<text text-anchor="start" x="38" y="-704.5" font-family="Helvetica,sans-Serif" font-size="10.00">&#45; updatables</text>
<polyline fill="none" stroke="black" points="30,-697.5 112,-697.5 "/>
<text text-anchor="start" x="38" y="-685.5" font-family="Helvetica,sans-Serif" font-size="10.00">+ Updatable()</text>
<text text-anchor="start" x="38" y="-674.5" font-family="Helvetica,sans-Serif" font-size="10.00">+ ~Updatable()</text>
<text text-anchor="start" x="38" y="-663.5" font-family="Helvetica,sans-Serif" font-size="10.00">+ update()</text>
<text text-anchor="start" x="38" y="-652.5" font-family="Helvetica,sans-Serif" font-size="10.00">+ begin()</text>
<text text-anchor="start" x="38" y="-641.5" font-family="Helvetica,sans-Serif" font-size="10.00">+ enable()</text>
<text text-anchor="start" x="38" y="-630.5" font-family="Helvetica,sans-Serif" font-size="10.00">+ disable()</text>
<text text-anchor="start" x="38" y="-619.5" font-family="Helvetica,sans-Serif" font-size="10.00">+ isEnabled()</text>
<text text-anchor="start" x="38" y="-608.5" font-family="Helvetica,sans-Serif" font-size="10.00">+ enable()</text>
<text text-anchor="start" x="38" y="-597.5" font-family="Helvetica,sans-Serif" font-size="10.00">+ enable()</text>
<text text-anchor="start" x="38" y="-586.5" font-family="Helvetica,sans-Serif" font-size="10.00">+ enable()</text>
<text text-anchor="start" x="38" y="-575.5" font-family="Helvetica,sans-Serif" font-size="10.00">+ disable()</text>
<text text-anchor="start" x="38" y="-564.5" font-family="Helvetica,sans-Serif" font-size="10.00">+ disable()</text>
<text text-anchor="start" x="38" y="-553.5" font-family="Helvetica,sans-Serif" font-size="10.00">+ disable()</text>
<text text-anchor="start" x="38" y="-542.5" font-family="Helvetica,sans-Serif" font-size="10.00">+ beginAll()</text>
<text text-anchor="start" x="38" y="-531.5" font-family="Helvetica,sans-Serif" font-size="10.00">+ updateAll()</text>
</a>
</g>
</g>
<!-- Node3&#45;&gt;Node2 -->
<g id="edge3" class="edge"><title>Node3&#45;&gt;Node2</title>
<path fill="none" stroke="midnightblue" d="M71,-514.215C71,-505.251 71,-496.288 71,-487.544"/>
<polygon fill="none" stroke="midnightblue" points="67.5001,-514.324 71,-524.324 74.5001,-514.324 67.5001,-514.324"/>
</g>
<!-- Node4 -->
<g id="node5" class="node"><title>Node4</title>
<g id="a_node5"><a xlink:href="../../d4/d23/classDoublyLinkable.html" target="_top" xlink:title=" ">
<polygon fill="white" stroke="black" points="2.5,-772.5 2.5,-851.5 139.5,-851.5 139.5,-772.5 2.5,-772.5"/>
<text text-anchor="start" x="10.5" y="-839.5" font-family="Helvetica,sans-Serif" font-size="10.00">DoublyLinkable&lt; Updatable</text>
<text text-anchor="middle" x="71" y="-828.5" font-family="Helvetica,sans-Serif" font-size="10.00">&lt; NormalUpdatable &gt; &gt;</text>
<polyline fill="none" stroke="black" points="2.5,-821.5 139.5,-821.5 "/>
<text text-anchor="start" x="10.5" y="-809.5" font-family="Helvetica,sans-Serif" font-size="10.00"># next</text>
<text text-anchor="start" x="10.5" y="-798.5" font-family="Helvetica,sans-Serif" font-size="10.00"># previous</text>
<polyline fill="none" stroke="black" points="2.5,-791.5 139.5,-791.5 "/>
<text text-anchor="start" x="10.5" y="-779.5" font-family="Helvetica,sans-Serif" font-size="10.00"># ~DoublyLinkable()</text>
</a>
</g>
</g>
<!-- Node4&#45;&gt;Node3 -->
<g id="edge4" class="edge"><title>Node4&#45;&gt;Node3</title>
<path fill="none" stroke="midnightblue" d="M71,-762.16C71,-753.809 71,-744.856 71,-735.694"/>
<polygon fill="none" stroke="midnightblue" points="67.5001,-762.385 71,-772.385 74.5001,-762.386 67.5001,-762.385"/>
</g>
</g>
</svg>
