<?xml version="1.0" encoding="UTF-8" standalone="no"?>
<!DOCTYPE svg PUBLIC "-//W3C//DTD SVG 1.1//EN"
 "http://www.w3.org/Graphics/SVG/1.1/DTD/svg11.dtd">
<!-- Generated by graphviz version 2.38.0 (20140413.2041)
 -->
<!-- Title: ContinuousController&lt; Nx, Nu, Nr &gt; Pages: 1 -->
<svg width="116pt" height="193pt"
 viewBox="0.00 0.00 116.00 193.00" xmlns="http://www.w3.org/2000/svg" xmlns:xlink="http://www.w3.org/1999/xlink">
<g id="graph0" class="graph" transform="scale(1 1) rotate(0) translate(4 189)">
<title>ContinuousController&lt; Nx, Nu, Nr &gt;</title>
<polygon fill="white" stroke="none" points="-4,4 -4,-189 112,-189 112,4 -4,4"/>
<!-- Node2 -->
<g id="node1" class="node"><title>Node2</title>
<g id="a_node1"><a xlink:title=" ">
<polygon fill="#bfbfbf" stroke="black" points="0,-0.5 0,-68.5 108,-68.5 108,-0.5 0,-0.5"/>
<text text-anchor="start" x="8" y="-56.5" font-family="Helvetica,sans-Serif" font-size="10.00">ContinuousController</text>
<text text-anchor="middle" x="54" y="-45.5" font-family="Helvetica,sans-Serif" font-size="10.00">&lt; Nx, Nu, Nr &gt;</text>
<polyline fill="none" stroke="black" points="0,-38.5 108,-38.5 "/>
<text text-anchor="middle" x="54" y="-26.5" font-family="Helvetica,sans-Serif" font-size="10.00"> </text>
<polyline fill="none" stroke="black" points="0,-19.5 108,-19.5 "/>
<text text-anchor="middle" x="54" y="-7.5" font-family="Helvetica,sans-Serif" font-size="10.00"> </text>
</a>
</g>
</g>
<!-- Node3 -->
<g id="node2" class="node"><title>Node3</title>
<g id="a_node2"><a xlink:href="../../d9/d85/classController.html" target="_top" xlink:title="An abstract class for controllers. A controller produces a control signal &#160;given a state &#160;and a refer...">
<polygon fill="white" stroke="black" points="2,-105.5 2,-184.5 106,-184.5 106,-105.5 2,-105.5"/>
<text text-anchor="start" x="10" y="-172.5" font-family="Helvetica,sans-Serif" font-size="10.00">Controller&lt; Nx, Nu,</text>
<text text-anchor="middle" x="54" y="-161.5" font-family="Helvetica,sans-Serif" font-size="10.00"> Nr &gt;</text>
<polyline fill="none" stroke="black" points="2,-154.5 106,-154.5 "/>
<text text-anchor="middle" x="54" y="-142.5" font-family="Helvetica,sans-Serif" font-size="10.00"> </text>
<polyline fill="none" stroke="black" points="2,-135.5 106,-135.5 "/>
<text text-anchor="start" x="10" y="-123.5" font-family="Helvetica,sans-Serif" font-size="10.00">+ operator()()</text>
<text text-anchor="start" x="10" y="-112.5" font-family="Helvetica,sans-Serif" font-size="10.00">+ getControlSignal()</text>
</a>
</g>
</g>
<!-- Node3&#45;&gt;Node2 -->
<g id="edge1" class="edge"><title>Node3&#45;&gt;Node2</title>
<path fill="none" stroke="midnightblue" d="M54,-95.3492C54,-86.2824 54,-77.0048 54,-68.5439"/>
<polygon fill="none" stroke="midnightblue" points="50.5001,-95.4414 54,-105.441 57.5001,-95.4415 50.5001,-95.4414"/>
</g>
</g>
</svg>
