<?xml version="1.0" encoding="UTF-8" standalone="no"?>
<!DOCTYPE svg PUBLIC "-//W3C//DTD SVG 1.1//EN"
 "http://www.w3.org/Graphics/SVG/1.1/DTD/svg11.dtd">
<!-- Generated by graphviz version 2.38.0 (20140413.2041)
 -->
<!-- Title: Attitude::LQRController::getRawControllerOutput Pages: 1 -->
<svg width="508pt" height="85pt"
 viewBox="0.00 0.00 508.00 85.00" xmlns="http://www.w3.org/2000/svg" xmlns:xlink="http://www.w3.org/1999/xlink">
<g id="graph0" class="graph" transform="scale(1 1) rotate(0) translate(4 81)">
<title>Attitude::LQRController::getRawControllerOutput</title>
<polygon fill="white" stroke="none" points="-4,4 -4,-81 504,-81 504,4 -4,4"/>
<!-- Node4 -->
<g id="node1" class="node"><title>Node4</title>
<g id="a_node1"><a xlink:title=" ">
<polygon fill="#bfbfbf" stroke="black" points="0,-14 0,-44 128,-44 128,-14 0,-14"/>
<text text-anchor="start" x="8" y="-32" font-family="Helvetica,sans-Serif" font-size="10.00">Attitude::LQRController</text>
<text text-anchor="middle" x="64" y="-21" font-family="Helvetica,sans-Serif" font-size="10.00">::getRawControllerOutput</text>
</a>
</g>
</g>
<!-- Node5 -->
<g id="node2" class="node"><title>Node5</title>
<g id="a_node2"><a xlink:href="../../d6/d97/QuaternionStateAddSub_8hpp.html#ab18748d10ac3aae1a44c51d72a8f662c" target="_top" xlink:title="Subtract two state vectors where the first 4 elements are to be interpreted as quaternions.">
<polygon fill="white" stroke="black" points="164,-38.5 164,-57.5 271,-57.5 271,-38.5 164,-38.5"/>
<text text-anchor="middle" x="217.5" y="-45.5" font-family="Helvetica,sans-Serif" font-size="10.00">quaternionStatesSub</text>
</a>
</g>
</g>
<!-- Node4&#45;&gt;Node5 -->
<g id="edge1" class="edge"><title>Node4&#45;&gt;Node5</title>
<path fill="none" stroke="midnightblue" d="M128.372,-36.9476C136.788,-38.0031 145.414,-39.0849 153.818,-40.1389"/>
<polygon fill="midnightblue" stroke="midnightblue" points="153.573,-43.6355 163.931,-41.4072 154.444,-36.69 153.573,-43.6355"/>
</g>
<!-- Node9 -->
<g id="node6" class="node"><title>Node9</title>
<g id="a_node6"><a xlink:href="../../d6/d26/ReducedQuaternion_8hpp.html#a5fe62fc3875a27e2cdfb989670073287" target="_top" xlink:title=" ">
<polygon fill="white" stroke="black" points="190.5,-0.5 190.5,-19.5 244.5,-19.5 244.5,-0.5 190.5,-0.5"/>
<text text-anchor="middle" x="217.5" y="-7.5" font-family="Helvetica,sans-Serif" font-size="10.00">quat2red</text>
</a>
</g>
</g>
<!-- Node4&#45;&gt;Node9 -->
<g id="edge5" class="edge"><title>Node4&#45;&gt;Node9</title>
<path fill="none" stroke="midnightblue" d="M128.372,-21.0524C146.028,-18.8381 164.606,-16.5082 180.128,-14.5615"/>
<polygon fill="midnightblue" stroke="midnightblue" points="180.851,-17.9983 190.338,-13.2811 179.98,-11.0528 180.851,-17.9983"/>
</g>
<!-- Node6 -->
<g id="node3" class="node"><title>Node6</title>
<g id="a_node3"><a xlink:href="../../d3/d1f/Quaternion_8hpp.html#acd04d49075ff31e2e7eef1deb6da20d8" target="_top" xlink:title=" ">
<polygon fill="white" stroke="black" points="307,-38.5 307,-57.5 387,-57.5 387,-38.5 307,-38.5"/>
<text text-anchor="middle" x="347" y="-45.5" font-family="Helvetica,sans-Serif" font-size="10.00">quatDifference</text>
</a>
</g>
</g>
<!-- Node5&#45;&gt;Node6 -->
<g id="edge2" class="edge"><title>Node5&#45;&gt;Node6</title>
<path fill="none" stroke="midnightblue" d="M271.095,-48C279.581,-48 288.339,-48 296.742,-48"/>
<polygon fill="midnightblue" stroke="midnightblue" points="296.773,-51.5001 306.773,-48 296.773,-44.5001 296.773,-51.5001"/>
</g>
<!-- Node7 -->
<g id="node4" class="node"><title>Node7</title>
<g id="a_node4"><a xlink:href="../../d3/d1f/Quaternion_8hpp.html#a3bb5f3c98c5da818dd8f8062481245e7" target="_top" xlink:title=" ">
<polygon fill="white" stroke="black" points="427,-57.5 427,-76.5 496,-76.5 496,-57.5 427,-57.5"/>
<text text-anchor="middle" x="461.5" y="-64.5" font-family="Helvetica,sans-Serif" font-size="10.00">quatmultiply</text>
</a>
</g>
</g>
<!-- Node6&#45;&gt;Node7 -->
<g id="edge3" class="edge"><title>Node6&#45;&gt;Node7</title>
<path fill="none" stroke="midnightblue" d="M387.031,-54.592C396.64,-56.2147 406.99,-57.9628 416.804,-59.6202"/>
<polygon fill="midnightblue" stroke="midnightblue" points="416.339,-63.0911 426.782,-61.3054 417.505,-56.1889 416.339,-63.0911"/>
</g>
<!-- Node8 -->
<g id="node5" class="node"><title>Node8</title>
<g id="a_node5"><a xlink:href="../../d3/d1f/Quaternion_8hpp.html#a1f32513659a5b38e8df5f2c20ab71cd0" target="_top" xlink:title=" ">
<polygon fill="white" stroke="black" points="423,-19.5 423,-38.5 500,-38.5 500,-19.5 423,-19.5"/>
<text text-anchor="middle" x="461.5" y="-26.5" font-family="Helvetica,sans-Serif" font-size="10.00">quatconjugate</text>
</a>
</g>
</g>
<!-- Node6&#45;&gt;Node8 -->
<g id="edge4" class="edge"><title>Node6&#45;&gt;Node8</title>
<path fill="none" stroke="midnightblue" d="M387.031,-41.408C395.333,-40.006 404.188,-38.5104 412.773,-37.0606"/>
<polygon fill="midnightblue" stroke="midnightblue" points="413.399,-40.5046 422.676,-35.3881 412.233,-33.6023 413.399,-40.5046"/>
</g>
</g>
</svg>
