<?xml version="1.0" encoding="UTF-8" standalone="no"?>
<!DOCTYPE svg PUBLIC "-//W3C//DTD SVG 1.1//EN"
 "http://www.w3.org/Graphics/SVG/1.1/DTD/svg11.dtd">
<!-- Generated by graphviz version 2.38.0 (20140413.2041)
 -->
<!-- Title: MIDIButtons&lt; Sender, NUMBER_OF_BUTTONS &gt; Pages: 1 -->
<svg width="695pt" height="1113pt"
 viewBox="0.00 0.00 695.36 1113.00" xmlns="http://www.w3.org/2000/svg" xmlns:xlink="http://www.w3.org/1999/xlink">
<g id="graph0" class="graph" transform="scale(1 1) rotate(0) translate(4 1109)">
<title>MIDIButtons&lt; Sender, NUMBER_OF_BUTTONS &gt;</title>
<polygon fill="white" stroke="none" points="-4,4 -4,-1109 691.364,-1109 691.364,4 -4,4"/>
<!-- Node1 -->
<g id="node1" class="node"><title>Node1</title>
<g id="a_node1"><a xlink:title="An abstract class for momentary push buttons that send MIDI events.">
<polygon fill="#bfbfbf" stroke="black" points="198.864,-0.5 198.864,-90.5 343.864,-90.5 343.864,-0.5 198.864,-0.5"/>
<text text-anchor="start" x="206.864" y="-78.5" font-family="Helvetica,sans-Serif" font-size="10.00">MIDIButtons&lt; Sender,</text>
<text text-anchor="middle" x="271.364" y="-67.5" font-family="Helvetica,sans-Serif" font-size="10.00"> NUMBER_OF_BUTTONS &gt;</text>
<polyline fill="none" stroke="black" points="198.864,-60.5 343.864,-60.5 "/>
<text text-anchor="middle" x="271.364" y="-48.5" font-family="Helvetica,sans-Serif" font-size="10.00"> </text>
<polyline fill="none" stroke="black" points="198.864,-41.5 343.864,-41.5 "/>
<text text-anchor="start" x="206.864" y="-29.5" font-family="Helvetica,sans-Serif" font-size="10.00">+ begin()</text>
<text text-anchor="start" x="206.864" y="-18.5" font-family="Helvetica,sans-Serif" font-size="10.00">+ update()</text>
<text text-anchor="start" x="206.864" y="-7.5" font-family="Helvetica,sans-Serif" font-size="10.00"># MIDIButtons()</text>
</a>
</g>
</g>
<!-- Node2 -->
<g id="node2" class="node"><title>Node2</title>
<g id="a_node2"><a xlink:href="../../d5/de0/classUpdatable.html" target="_top" xlink:title=" ">
<polygon fill="white" stroke="black" points="19.3643,-155 19.3643,-366 123.364,-366 123.364,-155 19.3643,-155"/>
<text text-anchor="middle" x="71.3643" y="-354" font-family="Helvetica,sans-Serif" font-size="10.00">MIDIOutputElement</text>
<polyline fill="none" stroke="black" points="19.3643,-347 123.364,-347 "/>
<text text-anchor="middle" x="71.3643" y="-335" font-family="Helvetica,sans-Serif" font-size="10.00"> </text>
<polyline fill="none" stroke="black" points="19.3643,-328 123.364,-328 "/>
<text text-anchor="start" x="27.3643" y="-316" font-family="Helvetica,sans-Serif" font-size="10.00">+ ~Updatable()</text>
<text text-anchor="start" x="27.3643" y="-305" font-family="Helvetica,sans-Serif" font-size="10.00">+ update()</text>
<text text-anchor="start" x="27.3643" y="-294" font-family="Helvetica,sans-Serif" font-size="10.00">+ begin()</text>
<text text-anchor="start" x="27.3643" y="-283" font-family="Helvetica,sans-Serif" font-size="10.00">+ enable()</text>
<text text-anchor="start" x="27.3643" y="-272" font-family="Helvetica,sans-Serif" font-size="10.00">+ disable()</text>
<text text-anchor="start" x="27.3643" y="-261" font-family="Helvetica,sans-Serif" font-size="10.00">+ isEnabled()</text>
<text text-anchor="start" x="27.3643" y="-250" font-family="Helvetica,sans-Serif" font-size="10.00">+ enable()</text>
<text text-anchor="start" x="27.3643" y="-239" font-family="Helvetica,sans-Serif" font-size="10.00">+ enable()</text>
<text text-anchor="start" x="27.3643" y="-228" font-family="Helvetica,sans-Serif" font-size="10.00">+ enable()</text>
<text text-anchor="start" x="27.3643" y="-217" font-family="Helvetica,sans-Serif" font-size="10.00">+ disable()</text>
<text text-anchor="start" x="27.3643" y="-206" font-family="Helvetica,sans-Serif" font-size="10.00">+ disable()</text>
<text text-anchor="start" x="27.3643" y="-195" font-family="Helvetica,sans-Serif" font-size="10.00">+ disable()</text>
<text text-anchor="start" x="27.3643" y="-184" font-family="Helvetica,sans-Serif" font-size="10.00">+ beginAll()</text>
<text text-anchor="start" x="27.3643" y="-173" font-family="Helvetica,sans-Serif" font-size="10.00">+ updateAll()</text>
<text text-anchor="start" x="27.3643" y="-162" font-family="Helvetica,sans-Serif" font-size="10.00"># Updatable()</text>
</a>
</g>
</g>
<!-- Node2&#45;&gt;Node1 -->
<g id="edge1" class="edge"><title>Node2&#45;&gt;Node1</title>
<path fill="none" stroke="midnightblue" d="M125.089,-146.769C127.439,-143.742 129.864,-140.811 132.364,-138 150.989,-117.06 175.456,-98.8522 198.664,-84.3121"/>
<polygon fill="none" stroke="midnightblue" points="122.152,-144.856 119.045,-154.985 127.79,-149.004 122.152,-144.856"/>
</g>
<!-- Node3 -->
<g id="node3" class="node"><title>Node3</title>
<g id="a_node3"><a xlink:href="../../d4/d23/classDoublyLinkable.html" target="_top" xlink:title=" ">
<polygon fill="white" stroke="black" points="20.8643,-1036.5 20.8643,-1104.5 157.864,-1104.5 157.864,-1036.5 20.8643,-1036.5"/>
<text text-anchor="start" x="28.8643" y="-1092.5" font-family="Helvetica,sans-Serif" font-size="10.00">DoublyLinkable&lt; Updatable</text>
<text text-anchor="middle" x="89.3643" y="-1081.5" font-family="Helvetica,sans-Serif" font-size="10.00">&lt; NormalUpdatable &gt; &gt;</text>
<polyline fill="none" stroke="black" points="20.8643,-1074.5 157.864,-1074.5 "/>
<text text-anchor="middle" x="89.3643" y="-1062.5" font-family="Helvetica,sans-Serif" font-size="10.00"> </text>
<polyline fill="none" stroke="black" points="20.8643,-1055.5 157.864,-1055.5 "/>
<text text-anchor="start" x="28.8643" y="-1043.5" font-family="Helvetica,sans-Serif" font-size="10.00"># ~DoublyLinkable()</text>
</a>
</g>
</g>
<!-- Node3&#45;&gt;Node2 -->
<g id="edge2" class="edge"><title>Node3&#45;&gt;Node2</title>
<path fill="none" stroke="midnightblue" d="M58.4319,-1027.8C49.1198,-1012.86 40.1168,-995.403 35.3643,-978 -28.7959,-743.047 9.77919,-672.208 35.3643,-430 37.564,-409.176 41.2524,-387.142 45.4509,-366.116"/>
<polygon fill="none" stroke="midnightblue" points="55.5493,-1029.79 63.9207,-1036.28 61.4261,-1025.98 55.5493,-1029.79"/>
</g>
<!-- Node4 -->
<g id="node4" class="node"><title>Node4</title>
<g id="a_node4"><a xlink:href="../../d5/de0/classUpdatable.html" target="_top" xlink:title=" ">
<polygon fill="white" stroke="black" points="44.8643,-766.5 44.8643,-977.5 199.864,-977.5 199.864,-766.5 44.8643,-766.5"/>
<text text-anchor="middle" x="122.364" y="-965.5" font-family="Helvetica,sans-Serif" font-size="10.00">Updatable&lt; NormalUpdatable &gt;</text>
<polyline fill="none" stroke="black" points="44.8643,-958.5 199.864,-958.5 "/>
<text text-anchor="middle" x="122.364" y="-946.5" font-family="Helvetica,sans-Serif" font-size="10.00"> </text>
<polyline fill="none" stroke="black" points="44.8643,-939.5 199.864,-939.5 "/>
<text text-anchor="start" x="52.8643" y="-927.5" font-family="Helvetica,sans-Serif" font-size="10.00">+ ~Updatable()</text>
<text text-anchor="start" x="52.8643" y="-916.5" font-family="Helvetica,sans-Serif" font-size="10.00">+ update()</text>
<text text-anchor="start" x="52.8643" y="-905.5" font-family="Helvetica,sans-Serif" font-size="10.00">+ begin()</text>
<text text-anchor="start" x="52.8643" y="-894.5" font-family="Helvetica,sans-Serif" font-size="10.00">+ enable()</text>
<text text-anchor="start" x="52.8643" y="-883.5" font-family="Helvetica,sans-Serif" font-size="10.00">+ disable()</text>
<text text-anchor="start" x="52.8643" y="-872.5" font-family="Helvetica,sans-Serif" font-size="10.00">+ isEnabled()</text>
<text text-anchor="start" x="52.8643" y="-861.5" font-family="Helvetica,sans-Serif" font-size="10.00">+ enable()</text>
<text text-anchor="start" x="52.8643" y="-850.5" font-family="Helvetica,sans-Serif" font-size="10.00">+ enable()</text>
<text text-anchor="start" x="52.8643" y="-839.5" font-family="Helvetica,sans-Serif" font-size="10.00">+ enable()</text>
<text text-anchor="start" x="52.8643" y="-828.5" font-family="Helvetica,sans-Serif" font-size="10.00">+ disable()</text>
<text text-anchor="start" x="52.8643" y="-817.5" font-family="Helvetica,sans-Serif" font-size="10.00">+ disable()</text>
<text text-anchor="start" x="52.8643" y="-806.5" font-family="Helvetica,sans-Serif" font-size="10.00">+ disable()</text>
<text text-anchor="start" x="52.8643" y="-795.5" font-family="Helvetica,sans-Serif" font-size="10.00">+ beginAll()</text>
<text text-anchor="start" x="52.8643" y="-784.5" font-family="Helvetica,sans-Serif" font-size="10.00">+ updateAll()</text>
<text text-anchor="start" x="52.8643" y="-773.5" font-family="Helvetica,sans-Serif" font-size="10.00"># Updatable()</text>
</a>
</g>
</g>
<!-- Node3&#45;&gt;Node4 -->
<g id="edge4" class="edge"><title>Node3&#45;&gt;Node4</title>
<path fill="none" stroke="midnightblue" d="M96.6578,-1026.07C99.0881,-1011.6 101.91,-994.794 104.777,-977.727"/>
<polygon fill="none" stroke="midnightblue" points="93.1669,-1025.72 94.9623,-1036.17 100.07,-1026.88 93.1669,-1025.72"/>
</g>
<!-- Node4&#45;&gt;Node3 -->
<g id="edge3" class="edge"><title>Node4&#45;&gt;Node3</title>
<path fill="none" stroke="#404040" d="M107.247,-977.669C105.06,-991.259 102.741,-1004.98 100.364,-1018 99.975,-1020.13 99.5634,-1022.31 99.137,-1024.51"/>
<polygon fill="none" stroke="#404040" points="99.1296,-1024.55 101.865,-1031.22 96.7578,-1036.31 94.0226,-1029.64 99.1296,-1024.55"/>
<text text-anchor="middle" x="125.864" y="-1010" font-family="Helvetica,sans-Serif" font-size="10.00"> #next</text>
<text text-anchor="middle" x="125.864" y="-999" font-family="Helvetica,sans-Serif" font-size="10.00">#previous</text>
</g>
<!-- Node5 -->
<g id="node5" class="node"><title>Node5</title>
<g id="a_node5"><a xlink:href="../../dd/d16/classDoublyLinkedList.html" target="_top" xlink:title=" ">
<polygon fill="white" stroke="black" points="44.8643,-430.5 44.8643,-707.5 189.864,-707.5 189.864,-430.5 44.8643,-430.5"/>
<text text-anchor="start" x="52.8643" y="-695.5" font-family="Helvetica,sans-Serif" font-size="10.00">DoublyLinkedList&lt; Updatable</text>
<text text-anchor="middle" x="117.364" y="-684.5" font-family="Helvetica,sans-Serif" font-size="10.00">&lt; NormalUpdatable &gt; &gt;</text>
<polyline fill="none" stroke="black" points="44.8643,-677.5 189.864,-677.5 "/>
<text text-anchor="middle" x="117.364" y="-665.5" font-family="Helvetica,sans-Serif" font-size="10.00"> </text>
<polyline fill="none" stroke="black" points="44.8643,-658.5 189.864,-658.5 "/>
<text text-anchor="start" x="52.8643" y="-646.5" font-family="Helvetica,sans-Serif" font-size="10.00">+ append()</text>
<text text-anchor="start" x="52.8643" y="-635.5" font-family="Helvetica,sans-Serif" font-size="10.00">+ append()</text>
<text text-anchor="start" x="52.8643" y="-624.5" font-family="Helvetica,sans-Serif" font-size="10.00">+ insertBefore()</text>
<text text-anchor="start" x="52.8643" y="-613.5" font-family="Helvetica,sans-Serif" font-size="10.00">+ insertBefore()</text>
<text text-anchor="start" x="52.8643" y="-602.5" font-family="Helvetica,sans-Serif" font-size="10.00">+ insertSorted()</text>
<text text-anchor="start" x="52.8643" y="-591.5" font-family="Helvetica,sans-Serif" font-size="10.00">+ insertSorted()</text>
<text text-anchor="start" x="52.8643" y="-580.5" font-family="Helvetica,sans-Serif" font-size="10.00">+ remove()</text>
<text text-anchor="start" x="52.8643" y="-569.5" font-family="Helvetica,sans-Serif" font-size="10.00">+ remove()</text>
<text text-anchor="start" x="52.8643" y="-558.5" font-family="Helvetica,sans-Serif" font-size="10.00">+ moveDown()</text>
<text text-anchor="start" x="52.8643" y="-547.5" font-family="Helvetica,sans-Serif" font-size="10.00">+ couldContain()</text>
<text text-anchor="start" x="52.8643" y="-536.5" font-family="Helvetica,sans-Serif" font-size="10.00">+ begin()</text>
<text text-anchor="start" x="52.8643" y="-525.5" font-family="Helvetica,sans-Serif" font-size="10.00">+ begin()</text>
<text text-anchor="start" x="52.8643" y="-514.5" font-family="Helvetica,sans-Serif" font-size="10.00">+ end()</text>
<text text-anchor="start" x="52.8643" y="-503.5" font-family="Helvetica,sans-Serif" font-size="10.00">+ end()</text>
<text text-anchor="start" x="52.8643" y="-492.5" font-family="Helvetica,sans-Serif" font-size="10.00">+ rbegin()</text>
<text text-anchor="start" x="52.8643" y="-481.5" font-family="Helvetica,sans-Serif" font-size="10.00">+ rbegin()</text>
<text text-anchor="start" x="52.8643" y="-470.5" font-family="Helvetica,sans-Serif" font-size="10.00">+ rend()</text>
<text text-anchor="start" x="52.8643" y="-459.5" font-family="Helvetica,sans-Serif" font-size="10.00">+ rend()</text>
<text text-anchor="start" x="52.8643" y="-448.5" font-family="Helvetica,sans-Serif" font-size="10.00">+ getFirst()</text>
<text text-anchor="start" x="52.8643" y="-437.5" font-family="Helvetica,sans-Serif" font-size="10.00">+ getLast()</text>
</a>
</g>
</g>
<!-- Node4&#45;&gt;Node5 -->
<g id="edge6" class="edge"><title>Node4&#45;&gt;Node5</title>
<path fill="none" stroke="#404040" d="M96.8718,-766.258C95.8882,-760.103 95.0369,-753.985 94.3643,-748 93.3367,-738.856 92.8522,-729.452 92.7992,-719.972"/>
<polygon fill="none" stroke="#404040" points="92.7996,-719.934 88.8773,-713.883 92.9544,-707.935 96.8767,-713.986 92.7996,-719.934"/>
<text text-anchor="middle" x="105.364" y="-740" font-family="Helvetica,sans-Serif" font-size="10.00"> &#45;last</text>
<text text-anchor="middle" x="105.364" y="-729" font-family="Helvetica,sans-Serif" font-size="10.00">&#45;first</text>
</g>
<!-- Node5&#45;&gt;Node2 -->
<g id="edge7" class="edge"><title>Node5&#45;&gt;Node2</title>
<path fill="none" stroke="#404040" d="M96.7191,-430.44C94.1244,-413.152 91.4894,-395.594 88.948,-378.661"/>
<polygon fill="none" stroke="#404040" points="88.897,-378.32 84.0507,-372.98 87.1159,-366.453 91.9621,-371.793 88.897,-378.32"/>
<text text-anchor="middle" x="120.364" y="-404" font-family="Helvetica,sans-Serif" font-size="10.00"> &#45;updatables</text>
</g>
<!-- Node5&#45;&gt;Node4 -->
<g id="edge5" class="edge"><title>Node5&#45;&gt;Node4</title>
<path fill="none" stroke="#404040" d="M120.055,-707.806C120.162,-713.955 120.266,-720.041 120.364,-726 120.516,-735.204 120.666,-744.736 120.81,-754.316"/>
<polygon fill="none" stroke="#404040" points="120.812,-754.455 124.901,-760.395 120.99,-766.454 116.902,-760.514 120.812,-754.455"/>
<text text-anchor="middle" x="148.364" y="-734.5" font-family="Helvetica,sans-Serif" font-size="10.00"> &#45;updatables</text>
</g>
<!-- Node6 -->
<g id="node6" class="node"><title>Node6</title>
<g id="a_node6"><a xlink:title=" ">
<polygon fill="white" stroke="#bfbfbf" points="141.864,-232 141.864,-289 188.864,-289 188.864,-232 141.864,-232"/>
<text text-anchor="middle" x="165.364" y="-277" font-family="Helvetica,sans-Serif" font-size="10.00">Sender</text>
<polyline fill="none" stroke="#bfbfbf" points="141.864,-270 188.864,-270 "/>
<text text-anchor="middle" x="165.364" y="-258" font-family="Helvetica,sans-Serif" font-size="10.00"> </text>
<polyline fill="none" stroke="#bfbfbf" points="141.864,-251 188.864,-251 "/>
<text text-anchor="middle" x="165.364" y="-239" font-family="Helvetica,sans-Serif" font-size="10.00"> </text>
</a>
</g>
</g>
<!-- Node6&#45;&gt;Node1 -->
<g id="edge8" class="edge"><title>Node6&#45;&gt;Node1</title>
<path fill="none" stroke="#404040" d="M169.566,-231.797C174.176,-206.384 183.042,-168.217 198.364,-138 204.97,-124.973 213.621,-112.048 222.648,-100.195"/>
<polygon fill="none" stroke="#404040" points="222.853,-99.9357 223.426,-92.7474 230.282,-90.5122 229.709,-97.7005 222.853,-99.9357"/>
<text text-anchor="middle" x="233.364" y="-112" font-family="Helvetica,sans-Serif" font-size="10.00"> &#45;sender</text>
</g>
<!-- Node7 -->
<g id="node7" class="node"><title>Node7</title>
<g id="a_node7"><a xlink:href="../../d7/d6a/structArray.html" target="_top" xlink:title=" ">
<polygon fill="white" stroke="black" points="207.364,-188 207.364,-333 335.364,-333 335.364,-188 207.364,-188"/>
<text text-anchor="start" x="215.364" y="-321" font-family="Helvetica,sans-Serif" font-size="10.00">Array&lt; Button, NUMBER</text>
<text text-anchor="middle" x="271.364" y="-310" font-family="Helvetica,sans-Serif" font-size="10.00">_OF_BUTTONS &gt;</text>
<polyline fill="none" stroke="black" points="207.364,-303 335.364,-303 "/>
<text text-anchor="start" x="215.364" y="-291" font-family="Helvetica,sans-Serif" font-size="10.00">+ length</text>
<polyline fill="none" stroke="black" points="207.364,-284 335.364,-284 "/>
<text text-anchor="start" x="215.364" y="-272" font-family="Helvetica,sans-Serif" font-size="10.00">+ operator[]()</text>
<text text-anchor="start" x="215.364" y="-261" font-family="Helvetica,sans-Serif" font-size="10.00">+ operator[]()</text>
<text text-anchor="start" x="215.364" y="-250" font-family="Helvetica,sans-Serif" font-size="10.00">+ begin()</text>
<text text-anchor="start" x="215.364" y="-239" font-family="Helvetica,sans-Serif" font-size="10.00">+ begin()</text>
<text text-anchor="start" x="215.364" y="-228" font-family="Helvetica,sans-Serif" font-size="10.00">+ end()</text>
<text text-anchor="start" x="215.364" y="-217" font-family="Helvetica,sans-Serif" font-size="10.00">+ end()</text>
<text text-anchor="start" x="215.364" y="-206" font-family="Helvetica,sans-Serif" font-size="10.00">+ operator==()</text>
<text text-anchor="start" x="215.364" y="-195" font-family="Helvetica,sans-Serif" font-size="10.00">+ operator!=()</text>
</a>
</g>
</g>
<!-- Node7&#45;&gt;Node1 -->
<g id="edge9" class="edge"><title>Node7&#45;&gt;Node1</title>
<path fill="none" stroke="#404040" d="M271.364,-187.982C271.364,-160.251 271.364,-128.96 271.364,-102.87"/>
<polygon fill="none" stroke="#404040" points="271.364,-102.518 267.364,-96.5177 271.364,-90.5177 275.364,-96.5176 271.364,-102.518"/>
<text text-anchor="middle" x="290.864" y="-112" font-family="Helvetica,sans-Serif" font-size="10.00"> &#45;buttons</text>
</g>
<!-- Node8 -->
<g id="node8" class="node"><title>Node8</title>
<g id="a_node8"><a xlink:href="../../d1/d19/classButton.html" target="_top" xlink:title="A class for reading and debouncing buttons and switches.">
<polygon fill="white" stroke="black" points="223.364,-480 223.364,-658 319.364,-658 319.364,-480 223.364,-480"/>
<text text-anchor="middle" x="271.364" y="-646" font-family="Helvetica,sans-Serif" font-size="10.00">Button</text>
<polyline fill="none" stroke="black" points="223.364,-639 319.364,-639 "/>
<text text-anchor="start" x="231.364" y="-627" font-family="Helvetica,sans-Serif" font-size="10.00">&#45; pin</text>
<text text-anchor="start" x="231.364" y="-616" font-family="Helvetica,sans-Serif" font-size="10.00">&#45; prevState</text>
<text text-anchor="start" x="231.364" y="-605" font-family="Helvetica,sans-Serif" font-size="10.00">&#45; debouncedState</text>
<text text-anchor="start" x="231.364" y="-594" font-family="Helvetica,sans-Serif" font-size="10.00">&#45; prevBounceTime</text>
<text text-anchor="start" x="231.364" y="-583" font-family="Helvetica,sans-Serif" font-size="10.00">&#45; invertState</text>
<text text-anchor="start" x="231.364" y="-572" font-family="Helvetica,sans-Serif" font-size="10.00">&#45; debounceTime</text>
<polyline fill="none" stroke="black" points="223.364,-565 319.364,-565 "/>
<text text-anchor="start" x="231.364" y="-553" font-family="Helvetica,sans-Serif" font-size="10.00">+ Button()</text>
<text text-anchor="start" x="231.364" y="-542" font-family="Helvetica,sans-Serif" font-size="10.00">+ Button()</text>
<text text-anchor="start" x="231.364" y="-531" font-family="Helvetica,sans-Serif" font-size="10.00">+ begin()</text>
<text text-anchor="start" x="231.364" y="-520" font-family="Helvetica,sans-Serif" font-size="10.00">+ invert()</text>
<text text-anchor="start" x="231.364" y="-509" font-family="Helvetica,sans-Serif" font-size="10.00">+ getState()</text>
<text text-anchor="start" x="231.364" y="-498" font-family="Helvetica,sans-Serif" font-size="10.00">+ stableTime()</text>
<text text-anchor="start" x="231.364" y="-487" font-family="Helvetica,sans-Serif" font-size="10.00">+ getName()</text>
</a>
</g>
</g>
<!-- Node8&#45;&gt;Node7 -->
<g id="edge10" class="edge"><title>Node8&#45;&gt;Node7</title>
<path fill="none" stroke="#404040" d="M271.364,-479.759C271.364,-437.426 271.364,-386.97 271.364,-345.24"/>
<polygon fill="none" stroke="#404040" points="271.364,-345.153 267.364,-339.153 271.364,-333.153 275.364,-339.153 271.364,-345.153"/>
<text text-anchor="middle" x="285.364" y="-404" font-family="Helvetica,sans-Serif" font-size="10.00"> +data</text>
</g>
<!-- Node9 -->
<g id="node9" class="node"><title>Node9</title>
<g id="a_node9"><a xlink:href="../../da/dc7/classRelativeMIDICNChannelAddress.html" target="_top" xlink:title="A class for saving an offset to a MIDI address.">
<polygon fill="white" stroke="black" points="353.364,-221 353.364,-300 529.364,-300 529.364,-221 353.364,-221"/>
<text text-anchor="middle" x="441.364" y="-288" font-family="Helvetica,sans-Serif" font-size="10.00">RelativeMIDICNChannelAddress</text>
<polyline fill="none" stroke="black" points="353.364,-281 529.364,-281 "/>
<text text-anchor="start" x="361.364" y="-269" font-family="Helvetica,sans-Serif" font-size="10.00">&#45; addresses</text>
<polyline fill="none" stroke="black" points="353.364,-262 529.364,-262 "/>
<text text-anchor="start" x="361.364" y="-250" font-family="Helvetica,sans-Serif" font-size="10.00">+ RelativeMIDICNChannelAddress()</text>
<text text-anchor="start" x="361.364" y="-239" font-family="Helvetica,sans-Serif" font-size="10.00">+ RelativeMIDICNChannelAddress()</text>
<text text-anchor="start" x="361.364" y="-228" font-family="Helvetica,sans-Serif" font-size="10.00">+ isValid()</text>
</a>
</g>
</g>
<!-- Node9&#45;&gt;Node1 -->
<g id="edge11" class="edge"><title>Node9&#45;&gt;Node1</title>
<path fill="none" stroke="#404040" d="M410.579,-220.927C383.702,-187.252 344.413,-138.026 314.421,-100.448"/>
<polygon fill="none" stroke="#404040" points="314.105,-100.051 307.236,-97.8568 306.619,-90.6721 313.488,-92.8664 314.105,-100.051"/>
<text text-anchor="middle" x="368.864" y="-112" font-family="Helvetica,sans-Serif" font-size="10.00"> &#45;incrementAddress</text>
</g>
<!-- Node10 -->
<g id="node10" class="node"><title>Node10</title>
<g id="a_node10"><a xlink:href="../../d3/d10/classMIDICNChannelAddress.html" target="_top" xlink:title="A type&#45;safe utility class for saving a MIDI address consisting of a 7&#45;bit address,...">
<polygon fill="white" stroke="black" points="547.364,-138.5 547.364,-382.5 687.364,-382.5 687.364,-138.5 547.364,-138.5"/>
<text text-anchor="middle" x="617.364" y="-370.5" font-family="Helvetica,sans-Serif" font-size="10.00">MIDICNChannelAddress</text>
<polyline fill="none" stroke="black" points="547.364,-363.5 687.364,-363.5 "/>
<text text-anchor="start" x="555.364" y="-351.5" font-family="Helvetica,sans-Serif" font-size="10.00">&#45; addresses</text>
<polyline fill="none" stroke="black" points="547.364,-344.5 687.364,-344.5 "/>
<text text-anchor="start" x="555.364" y="-332.5" font-family="Helvetica,sans-Serif" font-size="10.00">+ MIDICNChannelAddress()</text>
<text text-anchor="start" x="555.364" y="-321.5" font-family="Helvetica,sans-Serif" font-size="10.00">+ MIDICNChannelAddress()</text>
<text text-anchor="start" x="555.364" y="-310.5" font-family="Helvetica,sans-Serif" font-size="10.00">+ MIDICNChannelAddress()</text>
<text text-anchor="start" x="555.364" y="-299.5" font-family="Helvetica,sans-Serif" font-size="10.00">+ MIDICNChannelAddress()</text>
<text text-anchor="start" x="555.364" y="-288.5" font-family="Helvetica,sans-Serif" font-size="10.00">+ MIDICNChannelAddress()</text>
<text text-anchor="start" x="555.364" y="-277.5" font-family="Helvetica,sans-Serif" font-size="10.00">+ operator+=()</text>
<text text-anchor="start" x="555.364" y="-266.5" font-family="Helvetica,sans-Serif" font-size="10.00">+ operator&#45;=()</text>
<text text-anchor="start" x="555.364" y="-255.5" font-family="Helvetica,sans-Serif" font-size="10.00">+ operator+()</text>
<text text-anchor="start" x="555.364" y="-244.5" font-family="Helvetica,sans-Serif" font-size="10.00">+ operator&#45;()</text>
<text text-anchor="start" x="555.364" y="-233.5" font-family="Helvetica,sans-Serif" font-size="10.00">+ operator==()</text>
<text text-anchor="start" x="555.364" y="-222.5" font-family="Helvetica,sans-Serif" font-size="10.00">+ operator!=()</text>
<text text-anchor="start" x="555.364" y="-211.5" font-family="Helvetica,sans-Serif" font-size="10.00">+ getAddress()</text>
<text text-anchor="start" x="555.364" y="-200.5" font-family="Helvetica,sans-Serif" font-size="10.00">+ getChannel()</text>
<text text-anchor="start" x="555.364" y="-189.5" font-family="Helvetica,sans-Serif" font-size="10.00">+ getCableNumber()</text>
<text text-anchor="start" x="555.364" y="-178.5" font-family="Helvetica,sans-Serif" font-size="10.00">+ isValid()</text>
<text text-anchor="start" x="555.364" y="-167.5" font-family="Helvetica,sans-Serif" font-size="10.00">+ operator bool()</text>
<text text-anchor="start" x="555.364" y="-156.5" font-family="Helvetica,sans-Serif" font-size="10.00">+ matchSingle()</text>
<text text-anchor="start" x="555.364" y="-145.5" font-family="Helvetica,sans-Serif" font-size="10.00">+ matchAddressInRange()</text>
</a>
</g>
</g>
<!-- Node10&#45;&gt;Node1 -->
<g id="edge12" class="edge"><title>Node10&#45;&gt;Node1</title>
<path fill="none" stroke="#404040" d="M547.341,-145.631C544.433,-142.951 541.44,-140.398 538.364,-138 485.15,-96.5112 411.929,-73.1816 355.622,-60.4798"/>
<polygon fill="none" stroke="#404040" points="355.604,-60.4758 348.891,-63.1107 343.877,-57.928 350.59,-55.2931 355.604,-60.4758"/>
<text text-anchor="middle" x="539.364" y="-112" font-family="Helvetica,sans-Serif" font-size="10.00"> &#45;baseAddress</text>
</g>
</g>
</svg>
