<?xml version="1.0" encoding="UTF-8" standalone="no"?>
<!DOCTYPE svg PUBLIC "-//W3C//DTD SVG 1.1//EN"
 "http://www.w3.org/Graphics/SVG/1.1/DTD/svg11.dtd">
<!-- Generated by graphviz version 2.38.0 (20140413.2041)
 -->
<!-- Title: IncrementDecrementButtons::getState Pages: 1 -->
<svg width="350pt" height="99pt"
 viewBox="0.00 0.00 350.00 98.50" xmlns="http://www.w3.org/2000/svg" xmlns:xlink="http://www.w3.org/1999/xlink">
<g id="graph0" class="graph" transform="scale(1 1) rotate(0) translate(4 94.5)">
<title>IncrementDecrementButtons::getState</title>
<polygon fill="white" stroke="none" points="-4,4 -4,-94.5 346,-94.5 346,4 -4,4"/>
<!-- Node23 -->
<g id="node1" class="node"><title>Node23</title>
<g id="a_node1"><a xlink:title=" ">
<polygon fill="#bfbfbf" stroke="black" points="200,-33 200,-63 342,-63 342,-33 200,-33"/>
<text text-anchor="start" x="208" y="-51" font-family="Helvetica,sans-Serif" font-size="10.00">IncrementDecrementButtons</text>
<text text-anchor="middle" x="271" y="-40" font-family="Helvetica,sans-Serif" font-size="10.00">::getState</text>
</a>
</g>
</g>
<!-- Node24 -->
<g id="node2" class="node"><title>Node24</title>
<g id="a_node2"><a xlink:href="../../de/d06/classIncrementDecrementSelector__Base.html#a6189ae8fc9b2ecd23bbd3c3835d42eb7" target="_top" xlink:title=" ">
<polygon fill="white" stroke="black" points="10,-60 10,-90 154,-90 154,-60 10,-60"/>
<text text-anchor="start" x="18" y="-78" font-family="Helvetica,sans-Serif" font-size="10.00">IncrementDecrementSelector</text>
<text text-anchor="middle" x="82" y="-67" font-family="Helvetica,sans-Serif" font-size="10.00">_Base::update</text>
</a>
</g>
</g>
<!-- Node23&#45;&gt;Node24 -->
<g id="edge1" class="edge"><title>Node23&#45;&gt;Node24</title>
<path fill="none" stroke="midnightblue" d="M189.938,-59.5597C178.051,-61.276 165.869,-63.035 154.18,-64.7227"/>
<polygon fill="midnightblue" stroke="midnightblue" points="190.439,-63.0238 199.836,-58.1306 189.439,-56.0957 190.439,-63.0238"/>
</g>
<!-- Node25 -->
<g id="node3" class="node"><title>Node25</title>
<g id="a_node3"><a xlink:href="../../dc/dc2/classMIDIIncrementDecrementButtons.html#ae1d01910ae5ff00432d80f76859e1670" target="_top" xlink:title=" ">
<polygon fill="white" stroke="black" points="0,-0.5 0,-41.5 164,-41.5 164,-0.5 0,-0.5"/>
<text text-anchor="start" x="8" y="-29.5" font-family="Helvetica,sans-Serif" font-size="10.00">MIDIIncrementDecrementButtons</text>
<text text-anchor="start" x="8" y="-18.5" font-family="Helvetica,sans-Serif" font-size="10.00">&lt; RelativeCCSender::send</text>
<text text-anchor="middle" x="82" y="-7.5" font-family="Helvetica,sans-Serif" font-size="10.00"> &gt;::update</text>
</a>
</g>
</g>
<!-- Node23&#45;&gt;Node25 -->
<g id="edge2" class="edge"><title>Node23&#45;&gt;Node25</title>
<path fill="none" stroke="midnightblue" d="M189.938,-36.4403C181.432,-35.2122 172.775,-33.9622 164.256,-32.7322"/>
<polygon fill="midnightblue" stroke="midnightblue" points="189.439,-39.9043 199.836,-37.8694 190.439,-32.9762 189.439,-39.9043"/>
</g>
</g>
</svg>
