<?xml version="1.0" encoding="UTF-8" standalone="no"?>
<!DOCTYPE svg PUBLIC "-//W3C//DTD SVG 1.1//EN"
 "http://www.w3.org/Graphics/SVG/1.1/DTD/svg11.dtd">
<!-- Generated by graphviz version 2.38.0 (20140413.2041)
 -->
<!-- Title: IncrementDecrementButtons::begin Pages: 1 -->
<svg width="696pt" height="154pt"
 viewBox="0.00 0.00 696.00 154.00" xmlns="http://www.w3.org/2000/svg" xmlns:xlink="http://www.w3.org/1999/xlink">
<g id="graph0" class="graph" transform="scale(1 1) rotate(0) translate(4 150)">
<title>IncrementDecrementButtons::begin</title>
<polygon fill="white" stroke="none" points="-4,4 -4,-150 692,-150 692,4 -4,4"/>
<!-- Node1 -->
<g id="node1" class="node"><title>Node1</title>
<g id="a_node1"><a xlink:title=" ">
<polygon fill="#bfbfbf" stroke="black" points="0,-49.5 0,-79.5 142,-79.5 142,-49.5 0,-49.5"/>
<text text-anchor="start" x="8" y="-67.5" font-family="Helvetica,sans-Serif" font-size="10.00">IncrementDecrementButtons</text>
<text text-anchor="middle" x="71" y="-56.5" font-family="Helvetica,sans-Serif" font-size="10.00">::begin</text>
</a>
</g>
</g>
<!-- Node2 -->
<g id="node2" class="node"><title>Node2</title>
<g id="a_node2"><a xlink:href="../../d1/d19/classButton.html#a666adf00bc92a8b264758abfa655a6a4" target="_top" xlink:title="Initialize (enable the internal pull&#45;up resistor).">
<polygon fill="white" stroke="black" points="178,-55 178,-74 252,-74 252,-55 178,-55"/>
<text text-anchor="middle" x="215" y="-62" font-family="Helvetica,sans-Serif" font-size="10.00">Button::begin</text>
</a>
</g>
</g>
<!-- Node1&#45;&gt;Node2 -->
<g id="edge1" class="edge"><title>Node1&#45;&gt;Node2</title>
<path fill="none" stroke="midnightblue" d="M142.168,-64.5C150.815,-64.5 159.478,-64.5 167.645,-64.5"/>
<polygon fill="midnightblue" stroke="midnightblue" points="167.685,-68.0001 177.685,-64.5 167.685,-61.0001 167.685,-68.0001"/>
</g>
<!-- Node3 -->
<g id="node3" class="node"><title>Node3</title>
<g id="a_node3"><a xlink:href="../../d8/d3d/namespaceExtIO.html#aab1cbf2a78b56e576a536d371e1984ef" target="_top" xlink:title="An ExtIO version of the Arduino function.">
<polygon fill="white" stroke="black" points="288,-55 288,-74 373,-74 373,-55 288,-55"/>
<text text-anchor="middle" x="330.5" y="-62" font-family="Helvetica,sans-Serif" font-size="10.00">ExtIO::pinMode</text>
</a>
</g>
</g>
<!-- Node2&#45;&gt;Node3 -->
<g id="edge2" class="edge"><title>Node2&#45;&gt;Node3</title>
<path fill="none" stroke="midnightblue" d="M252.224,-64.5C260.25,-64.5 268.908,-64.5 277.425,-64.5"/>
<polygon fill="midnightblue" stroke="midnightblue" points="277.691,-68.0001 287.691,-64.5 277.691,-61.0001 277.691,-68.0001"/>
</g>
<!-- Node4 -->
<g id="node4" class="node"><title>Node4</title>
<g id="a_node4"><a xlink:href="../../d8/d3d/namespaceExtIO.html#ae314377b34b9e49b153f6e36fb354d37" target="_top" xlink:title="Find the IO element of a given extended IO pin number.">
<polygon fill="white" stroke="black" points="409,-99 409,-118 542,-118 542,-99 409,-99"/>
<text text-anchor="middle" x="475.5" y="-106" font-family="Helvetica,sans-Serif" font-size="10.00">ExtIO::getIOElementOfPin</text>
</a>
</g>
</g>
<!-- Node3&#45;&gt;Node4 -->
<g id="edge3" class="edge"><title>Node3&#45;&gt;Node4</title>
<path fill="none" stroke="midnightblue" d="M360.509,-74.0835C375.037,-78.8251 392.914,-84.5735 409,-89.5 416.083,-91.6692 423.616,-93.9129 430.956,-96.0651"/>
<polygon fill="midnightblue" stroke="midnightblue" points="430.205,-99.4918 440.785,-98.9277 432.162,-92.771 430.205,-99.4918"/>
</g>
<!-- Node7 -->
<g id="node7" class="node"><title>Node7</title>
<g id="a_node7"><a xlink:href="../../de/d4e/classExtendedIOElement.html#a955322d29e4e63ec40a587b5ed9db31b" target="_top" xlink:title="Get the smallest global extended IO pin number that belongs to this extended IO element.">
<polygon fill="white" stroke="black" points="420.5,-49.5 420.5,-79.5 530.5,-79.5 530.5,-49.5 420.5,-49.5"/>
<text text-anchor="start" x="428.5" y="-67.5" font-family="Helvetica,sans-Serif" font-size="10.00">ExtendedIOElement::</text>
<text text-anchor="middle" x="475.5" y="-56.5" font-family="Helvetica,sans-Serif" font-size="10.00">getStart</text>
</a>
</g>
</g>
<!-- Node3&#45;&gt;Node7 -->
<g id="edge6" class="edge"><title>Node3&#45;&gt;Node7</title>
<path fill="none" stroke="midnightblue" d="M373.246,-64.5C384.89,-64.5 397.815,-64.5 410.428,-64.5"/>
<polygon fill="midnightblue" stroke="midnightblue" points="410.447,-68.0001 420.447,-64.5 410.447,-61.0001 410.447,-68.0001"/>
</g>
<!-- Node8 -->
<g id="node8" class="node"><title>Node8</title>
<g id="a_node8"><a xlink:href="../../de/d4e/classExtendedIOElement.html#ab0e7b41124b477456bf5a1de8071d1e3" target="_top" xlink:title="Set the mode of a given pin.">
<polygon fill="white" stroke="black" points="420.5,-0.5 420.5,-30.5 530.5,-30.5 530.5,-0.5 420.5,-0.5"/>
<text text-anchor="start" x="428.5" y="-18.5" font-family="Helvetica,sans-Serif" font-size="10.00">ExtendedIOElement::</text>
<text text-anchor="middle" x="475.5" y="-7.5" font-family="Helvetica,sans-Serif" font-size="10.00">pinMode</text>
</a>
</g>
</g>
<!-- Node3&#45;&gt;Node8 -->
<g id="edge7" class="edge"><title>Node3&#45;&gt;Node8</title>
<path fill="none" stroke="midnightblue" d="M359.411,-54.936C376.883,-48.9491 399.97,-41.0382 420.878,-33.874"/>
<polygon fill="midnightblue" stroke="midnightblue" points="422.291,-37.0896 430.617,-30.537 420.022,-30.4676 422.291,-37.0896"/>
</g>
<!-- Node5 -->
<g id="node5" class="node"><title>Node5</title>
<g id="a_node5"><a xlink:href="../../de/d4e/classExtendedIOElement.html#a3151d5bf08e6b32231cdd58ed2f39aee" target="_top" xlink:title="Get the list of all Extended IO elements.">
<polygon fill="white" stroke="black" points="578,-115.5 578,-145.5 688,-145.5 688,-115.5 578,-115.5"/>
<text text-anchor="start" x="586" y="-133.5" font-family="Helvetica,sans-Serif" font-size="10.00">ExtendedIOElement::</text>
<text text-anchor="middle" x="633" y="-122.5" font-family="Helvetica,sans-Serif" font-size="10.00">getAll</text>
</a>
</g>
</g>
<!-- Node4&#45;&gt;Node5 -->
<g id="edge4" class="edge"><title>Node4&#45;&gt;Node5</title>
<path fill="none" stroke="midnightblue" d="M542.446,-117.83C550.803,-119.012 559.345,-120.221 567.676,-121.4"/>
<polygon fill="midnightblue" stroke="midnightblue" points="567.314,-124.883 577.706,-122.818 568.295,-117.952 567.314,-124.883"/>
</g>
<!-- Node6 -->
<g id="node6" class="node"><title>Node6</title>
<g id="a_node6"><a xlink:href="../../d8/d3d/namespaceExtIO.html#aedf6005ecc64cea16059965b80ce5f85" target="_top" xlink:title=" ">
<polygon fill="white" stroke="black" points="591,-77 591,-96 675,-96 675,-77 591,-77"/>
<text text-anchor="middle" x="633" y="-84" font-family="Helvetica,sans-Serif" font-size="10.00">ExtIO::inRange</text>
</a>
</g>
</g>
<!-- Node4&#45;&gt;Node6 -->
<g id="edge5" class="edge"><title>Node4&#45;&gt;Node6</title>
<path fill="none" stroke="midnightblue" d="M542.446,-99.17C555.25,-97.3585 568.492,-95.485 580.738,-93.7525"/>
<polygon fill="midnightblue" stroke="midnightblue" points="581.348,-97.2011 590.759,-92.3347 580.368,-90.2701 581.348,-97.2011"/>
</g>
</g>
</svg>
