<?xml version="1.0" encoding="UTF-8" standalone="no"?>
<!DOCTYPE svg PUBLIC "-//W3C//DTD SVG 1.1//EN"
 "http://www.w3.org/Graphics/SVG/1.1/DTD/svg11.dtd">
<!-- Generated by graphviz version 2.38.0 (20140413.2041)
 -->
<!-- Title: MCU::VPotRing Pages: 1 -->
<svg width="440pt" height="812pt"
 viewBox="0.00 0.00 440.00 812.00" xmlns="http://www.w3.org/2000/svg" xmlns:xlink="http://www.w3.org/1999/xlink">
<g id="graph0" class="graph" transform="scale(1 1) rotate(0) translate(4 808)">
<title>MCU::VPotRing</title>
<polygon fill="white" stroke="none" points="-4,4 -4,-808 436,-808 436,4 -4,4"/>
<!-- Node6 -->
<g id="node1" class="node"><title>Node6</title>
<g id="a_node1"><a xlink:title="A class for MIDI input elements that represent Mackie Control Universal V&#45;Pots. &#160;&#160;This version cannot...">
<polygon fill="#bfbfbf" stroke="black" points="14,-0.5 14,-90.5 102,-90.5 102,-0.5 14,-0.5"/>
<text text-anchor="middle" x="58" y="-78.5" font-family="Helvetica,sans-Serif" font-size="10.00">MCU::VPotRing</text>
<polyline fill="none" stroke="black" points="14,-71.5 102,-71.5 "/>
<text text-anchor="start" x="22" y="-59.5" font-family="Helvetica,sans-Serif" font-size="10.00">&#45; value</text>
<polyline fill="none" stroke="black" points="14,-52.5 102,-52.5 "/>
<text text-anchor="start" x="22" y="-40.5" font-family="Helvetica,sans-Serif" font-size="10.00">+ VPotRing()</text>
<text text-anchor="start" x="22" y="-29.5" font-family="Helvetica,sans-Serif" font-size="10.00">+ reset()</text>
<text text-anchor="start" x="22" y="-18.5" font-family="Helvetica,sans-Serif" font-size="10.00">&#45; updateImpl()</text>
<text text-anchor="start" x="22" y="-7.5" font-family="Helvetica,sans-Serif" font-size="10.00">&#45; getRawValue()</text>
</a>
</g>
</g>
<!-- Node7 -->
<g id="node2" class="node"><title>Node7</title>
<g id="a_node2"><a xlink:href="../../db/dac/classMCU_1_1VPotRing__Base.html" target="_top" xlink:title="An abstract class of MIDI input element that represent Mackie Control Universal V&#45;Pots....">
<polygon fill="white" stroke="black" points="0,-161.5 0,-339.5 116,-339.5 116,-161.5 0,-161.5"/>
<text text-anchor="middle" x="58" y="-327.5" font-family="Helvetica,sans-Serif" font-size="10.00">MCU::VPotRing_Base</text>
<polyline fill="none" stroke="black" points="0,-320.5 116,-320.5 "/>
<text text-anchor="middle" x="58" y="-308.5" font-family="Helvetica,sans-Serif" font-size="10.00"> </text>
<polyline fill="none" stroke="black" points="0,-301.5 116,-301.5 "/>
<text text-anchor="start" x="8" y="-289.5" font-family="Helvetica,sans-Serif" font-size="10.00">+ getPosition()</text>
<text text-anchor="start" x="8" y="-278.5" font-family="Helvetica,sans-Serif" font-size="10.00">+ getCenterLed()</text>
<text text-anchor="start" x="8" y="-267.5" font-family="Helvetica,sans-Serif" font-size="10.00">+ getMode()</text>
<text text-anchor="start" x="8" y="-256.5" font-family="Helvetica,sans-Serif" font-size="10.00">+ getStartOn()</text>
<text text-anchor="start" x="8" y="-245.5" font-family="Helvetica,sans-Serif" font-size="10.00">+ getStartOff()</text>
<text text-anchor="start" x="8" y="-234.5" font-family="Helvetica,sans-Serif" font-size="10.00"># VPotRing_Base()</text>
<text text-anchor="start" x="8" y="-223.5" font-family="Helvetica,sans-Serif" font-size="10.00"># VPotRing_Base()</text>
<text text-anchor="start" x="8" y="-212.5" font-family="Helvetica,sans-Serif" font-size="10.00"># sanitizeValue()</text>
<text text-anchor="start" x="8" y="-201.5" font-family="Helvetica,sans-Serif" font-size="10.00">&#45; getRawValue()</text>
<text text-anchor="start" x="8" y="-190.5" font-family="Helvetica,sans-Serif" font-size="10.00">&#45; getPosition()</text>
<text text-anchor="start" x="8" y="-179.5" font-family="Helvetica,sans-Serif" font-size="10.00">&#45; getCenterLed()</text>
<text text-anchor="start" x="8" y="-168.5" font-family="Helvetica,sans-Serif" font-size="10.00">&#45; getMode()</text>
</a>
</g>
</g>
<!-- Node7&#45;&gt;Node6 -->
<g id="edge1" class="edge"><title>Node7&#45;&gt;Node6</title>
<path fill="none" stroke="midnightblue" d="M58,-151.253C58,-129.945 58,-108.445 58,-90.5162"/>
<polygon fill="none" stroke="midnightblue" points="54.5001,-151.347 58,-161.347 61.5001,-151.347 54.5001,-151.347"/>
</g>
<!-- Node8 -->
<g id="node3" class="node"><title>Node8</title>
<g id="a_node3"><a xlink:href="../../d3/d96/classMIDIInputElementCC.html" target="_top" xlink:title=" ">
<polygon fill="white" stroke="black" points="194,-431.5 194,-554.5 326,-554.5 326,-431.5 194,-431.5"/>
<text text-anchor="middle" x="260" y="-542.5" font-family="Helvetica,sans-Serif" font-size="10.00">MIDIInputElementCC</text>
<polyline fill="none" stroke="black" points="194,-535.5 326,-535.5 "/>
<text text-anchor="middle" x="260" y="-523.5" font-family="Helvetica,sans-Serif" font-size="10.00"> </text>
<polyline fill="none" stroke="black" points="194,-516.5 326,-516.5 "/>
<text text-anchor="start" x="202" y="-504.5" font-family="Helvetica,sans-Serif" font-size="10.00">+ MIDIInputElementCC()</text>
<text text-anchor="start" x="202" y="-493.5" font-family="Helvetica,sans-Serif" font-size="10.00">+ ~MIDIInputElementCC()</text>
<text text-anchor="start" x="202" y="-482.5" font-family="Helvetica,sans-Serif" font-size="10.00">+ beginAll()</text>
<text text-anchor="start" x="202" y="-471.5" font-family="Helvetica,sans-Serif" font-size="10.00">+ updateAll()</text>
<text text-anchor="start" x="202" y="-460.5" font-family="Helvetica,sans-Serif" font-size="10.00">+ resetAll()</text>
<text text-anchor="start" x="202" y="-449.5" font-family="Helvetica,sans-Serif" font-size="10.00">+ updateAllWith()</text>
<text text-anchor="start" x="202" y="-438.5" font-family="Helvetica,sans-Serif" font-size="10.00">&#45; moveDown()</text>
</a>
</g>
</g>
<!-- Node8&#45;&gt;Node7 -->
<g id="edge2" class="edge"><title>Node8&#45;&gt;Node7</title>
<path fill="none" stroke="midnightblue" d="M186.111,-434.962C164.917,-416.55 142.761,-395.138 125,-373 116.785,-362.76 109.031,-351.373 101.914,-339.792"/>
<polygon fill="none" stroke="midnightblue" points="183.995,-437.758 193.867,-441.606 188.549,-432.442 183.995,-437.758"/>
</g>
<!-- Node10 -->
<g id="node5" class="node"><title>Node10</title>
<g id="a_node5"><a xlink:href="../../d4/d23/classDoublyLinkable.html" target="_top" xlink:title=" ">
<polygon fill="white" stroke="black" points="134,-216.5 134,-284.5 270,-284.5 270,-216.5 134,-216.5"/>
<text text-anchor="start" x="142" y="-272.5" font-family="Helvetica,sans-Serif" font-size="10.00">DoublyLinkable&lt; MIDIInput</text>
<text text-anchor="middle" x="202" y="-261.5" font-family="Helvetica,sans-Serif" font-size="10.00">ElementCC &gt;</text>
<polyline fill="none" stroke="black" points="134,-254.5 270,-254.5 "/>
<text text-anchor="middle" x="202" y="-242.5" font-family="Helvetica,sans-Serif" font-size="10.00"> </text>
<polyline fill="none" stroke="black" points="134,-235.5 270,-235.5 "/>
<text text-anchor="start" x="142" y="-223.5" font-family="Helvetica,sans-Serif" font-size="10.00"># ~DoublyLinkable()</text>
</a>
</g>
</g>
<!-- Node8&#45;&gt;Node10 -->
<g id="edge5" class="edge"><title>Node8&#45;&gt;Node10</title>
<path fill="none" stroke="#404040" d="M207.258,-431.263C203.965,-425.355 201.126,-419.232 199,-413 186.154,-375.345 188.468,-329.824 193.084,-296.721"/>
<polygon fill="none" stroke="#404040" points="193.111,-296.544 190.072,-290.005 194.939,-284.684 197.978,-291.224 193.111,-296.544"/>
<text text-anchor="middle" x="220.5" y="-405" font-family="Helvetica,sans-Serif" font-size="10.00"> #next</text>
<text text-anchor="middle" x="220.5" y="-394" font-family="Helvetica,sans-Serif" font-size="10.00">#previous</text>
</g>
<!-- Node11 -->
<g id="node6" class="node"><title>Node11</title>
<g id="a_node6"><a xlink:href="../../dd/d16/classDoublyLinkedList.html" target="_top" xlink:title=" ">
<polygon fill="white" stroke="black" points="288,-128.5 288,-372.5 432,-372.5 432,-128.5 288,-128.5"/>
<text text-anchor="start" x="296" y="-360.5" font-family="Helvetica,sans-Serif" font-size="10.00">DoublyLinkedList&lt; MIDIInput</text>
<text text-anchor="middle" x="360" y="-349.5" font-family="Helvetica,sans-Serif" font-size="10.00">ElementCC &gt;</text>
<polyline fill="none" stroke="black" points="288,-342.5 432,-342.5 "/>
<text text-anchor="middle" x="360" y="-330.5" font-family="Helvetica,sans-Serif" font-size="10.00"> </text>
<polyline fill="none" stroke="black" points="288,-323.5 432,-323.5 "/>
<text text-anchor="start" x="296" y="-311.5" font-family="Helvetica,sans-Serif" font-size="10.00">+ DoublyLinkedList()</text>
<text text-anchor="start" x="296" y="-300.5" font-family="Helvetica,sans-Serif" font-size="10.00">+ append()</text>
<text text-anchor="start" x="296" y="-289.5" font-family="Helvetica,sans-Serif" font-size="10.00">+ append()</text>
<text text-anchor="start" x="296" y="-278.5" font-family="Helvetica,sans-Serif" font-size="10.00">+ remove()</text>
<text text-anchor="start" x="296" y="-267.5" font-family="Helvetica,sans-Serif" font-size="10.00">+ remove()</text>
<text text-anchor="start" x="296" y="-256.5" font-family="Helvetica,sans-Serif" font-size="10.00">+ moveDown()</text>
<text text-anchor="start" x="296" y="-245.5" font-family="Helvetica,sans-Serif" font-size="10.00">+ couldContain()</text>
<text text-anchor="start" x="296" y="-234.5" font-family="Helvetica,sans-Serif" font-size="10.00">+ begin()</text>
<text text-anchor="start" x="296" y="-223.5" font-family="Helvetica,sans-Serif" font-size="10.00">+ begin()</text>
<text text-anchor="start" x="296" y="-212.5" font-family="Helvetica,sans-Serif" font-size="10.00">+ end()</text>
<text text-anchor="start" x="296" y="-201.5" font-family="Helvetica,sans-Serif" font-size="10.00">+ end()</text>
<text text-anchor="start" x="296" y="-190.5" font-family="Helvetica,sans-Serif" font-size="10.00">+ rbegin()</text>
<text text-anchor="start" x="296" y="-179.5" font-family="Helvetica,sans-Serif" font-size="10.00">+ rbegin()</text>
<text text-anchor="start" x="296" y="-168.5" font-family="Helvetica,sans-Serif" font-size="10.00">+ rend()</text>
<text text-anchor="start" x="296" y="-157.5" font-family="Helvetica,sans-Serif" font-size="10.00">+ rend()</text>
<text text-anchor="start" x="296" y="-146.5" font-family="Helvetica,sans-Serif" font-size="10.00">+ getFirst()</text>
<text text-anchor="start" x="296" y="-135.5" font-family="Helvetica,sans-Serif" font-size="10.00">+ getLast()</text>
</a>
</g>
</g>
<!-- Node8&#45;&gt;Node11 -->
<g id="edge7" class="edge"><title>Node8&#45;&gt;Node11</title>
<path fill="none" stroke="#404040" d="M285.234,-431.312C291.299,-416.727 298.013,-400.578 304.858,-384.117"/>
<polygon fill="none" stroke="#404040" points="305.004,-383.766 303.614,-376.69 309.611,-372.686 311.001,-379.762 305.004,-383.766"/>
<text text-anchor="middle" x="312" y="-405" font-family="Helvetica,sans-Serif" font-size="10.00"> &#45;last</text>
<text text-anchor="middle" x="312" y="-394" font-family="Helvetica,sans-Serif" font-size="10.00">&#45;first</text>
</g>
<!-- Node9 -->
<g id="node4" class="node"><title>Node9</title>
<g id="a_node4"><a xlink:href="../../d6/d3d/classMIDIInputElementAddressable.html" target="_top" xlink:title=" ">
<polygon fill="white" stroke="black" points="174.5,-592.5 174.5,-803.5 345.5,-803.5 345.5,-592.5 174.5,-592.5"/>
<text text-anchor="middle" x="260" y="-791.5" font-family="Helvetica,sans-Serif" font-size="10.00">MIDIInputElementAddressable</text>
<polyline fill="none" stroke="black" points="174.5,-784.5 345.5,-784.5 "/>
<text text-anchor="start" x="182.5" y="-772.5" font-family="Helvetica,sans-Serif" font-size="10.00">&#45; baseChannel</text>
<text text-anchor="start" x="182.5" y="-761.5" font-family="Helvetica,sans-Serif" font-size="10.00">&#45; baseAddress</text>
<polyline fill="none" stroke="black" points="174.5,-754.5 345.5,-754.5 "/>
<text text-anchor="start" x="182.5" y="-742.5" font-family="Helvetica,sans-Serif" font-size="10.00">+ ~MIDIInputElementAddressable()</text>
<text text-anchor="start" x="182.5" y="-731.5" font-family="Helvetica,sans-Serif" font-size="10.00">+ begin()</text>
<text text-anchor="start" x="182.5" y="-720.5" font-family="Helvetica,sans-Serif" font-size="10.00">+ display()</text>
<text text-anchor="start" x="182.5" y="-709.5" font-family="Helvetica,sans-Serif" font-size="10.00">+ reset()</text>
<text text-anchor="start" x="182.5" y="-698.5" font-family="Helvetica,sans-Serif" font-size="10.00">+ update()</text>
<text text-anchor="start" x="182.5" y="-687.5" font-family="Helvetica,sans-Serif" font-size="10.00">+ updateWith()</text>
<text text-anchor="start" x="182.5" y="-676.5" font-family="Helvetica,sans-Serif" font-size="10.00">+ getBaseChannel()</text>
<text text-anchor="start" x="182.5" y="-665.5" font-family="Helvetica,sans-Serif" font-size="10.00">+ getBaseAddress()</text>
<text text-anchor="start" x="182.5" y="-654.5" font-family="Helvetica,sans-Serif" font-size="10.00"># MIDIInputElementAddressable()</text>
<text text-anchor="start" x="182.5" y="-643.5" font-family="Helvetica,sans-Serif" font-size="10.00">&#45; updateImpl()</text>
<text text-anchor="start" x="182.5" y="-632.5" font-family="Helvetica,sans-Serif" font-size="10.00">&#45; match()</text>
<text text-anchor="start" x="182.5" y="-621.5" font-family="Helvetica,sans-Serif" font-size="10.00">&#45; matchAddress()</text>
<text text-anchor="start" x="182.5" y="-610.5" font-family="Helvetica,sans-Serif" font-size="10.00">&#45; matchChannel()</text>
<text text-anchor="start" x="182.5" y="-599.5" font-family="Helvetica,sans-Serif" font-size="10.00">&#45; moveDown()</text>
</a>
</g>
</g>
<!-- Node9&#45;&gt;Node8 -->
<g id="edge3" class="edge"><title>Node9&#45;&gt;Node8</title>
<path fill="none" stroke="midnightblue" d="M260,-581.985C260,-572.587 260,-563.346 260,-554.593"/>
<polygon fill="none" stroke="midnightblue" points="256.5,-582.229 260,-592.23 263.5,-582.23 256.5,-582.229"/>
</g>
<!-- Node10&#45;&gt;Node8 -->
<g id="edge4" class="edge"><title>Node10&#45;&gt;Node8</title>
<path fill="none" stroke="midnightblue" d="M217.538,-294.255C226.963,-321.604 238.567,-358.014 246,-391 248.919,-403.952 251.329,-417.984 253.278,-431.351"/>
<polygon fill="none" stroke="midnightblue" points="220.773,-292.902 214.176,-284.612 214.163,-295.207 220.773,-292.902"/>
</g>
<!-- Node11&#45;&gt;Node8 -->
<g id="edge6" class="edge"><title>Node11&#45;&gt;Node8</title>
<path fill="none" stroke="#404040" d="M344.906,-372.887C341.017,-386.778 336.133,-400.444 330,-413 328.663,-415.737 327.204,-418.452 325.646,-421.136"/>
<polygon fill="none" stroke="#404040" points="325.614,-421.186 325.775,-428.396 319.182,-431.317 319.021,-424.108 325.614,-421.186"/>
<text text-anchor="middle" x="361" y="-399.5" font-family="Helvetica,sans-Serif" font-size="10.00"> &#45;elements</text>
</g>
</g>
</svg>
