<?xml version="1.0" encoding="UTF-8" standalone="no"?>
<!DOCTYPE svg PUBLIC "-//W3C//DTD SVG 1.1//EN"
 "http://www.w3.org/Graphics/SVG/1.1/DTD/svg11.dtd">
<!-- Generated by graphviz version 2.38.0 (20140413.2041)
 -->
<!-- Title: BankableMIDIInput&lt; N &gt; Pages: 1 -->
<svg width="622pt" height="601pt"
 viewBox="0.00 0.00 622.00 601.00" xmlns="http://www.w3.org/2000/svg" xmlns:xlink="http://www.w3.org/1999/xlink">
<g id="graph0" class="graph" transform="scale(1 1) rotate(0) translate(4 597)">
<title>BankableMIDIInput&lt; N &gt;</title>
<polygon fill="white" stroke="none" points="-4,4 -4,-597 618,-597 618,4 -4,4"/>
<!-- Node0 -->
<g id="node1" class="node"><title>Node0</title>
<g id="a_node1"><a xlink:title="A base class for all MIDIInputElement::s that can be banked.">
<polygon fill="#bfbfbf" stroke="black" points="252,-298.5 252,-476.5 423,-476.5 423,-298.5 252,-298.5"/>
<text text-anchor="middle" x="337.5" y="-464.5" font-family="Helvetica,sans-Serif" font-size="10.00">BankableMIDIInput&lt; N &gt;</text>
<polyline fill="none" stroke="black" points="252,-457.5 423,-457.5 "/>
<text text-anchor="start" x="260" y="-445.5" font-family="Helvetica,sans-Serif" font-size="10.00">&#45; bank</text>
<text text-anchor="start" x="260" y="-434.5" font-family="Helvetica,sans-Serif" font-size="10.00">&#45; type</text>
<polyline fill="none" stroke="black" points="252,-427.5 423,-427.5 "/>
<text text-anchor="start" x="260" y="-415.5" font-family="Helvetica,sans-Serif" font-size="10.00">+ ~BankableMIDIInput()</text>
<text text-anchor="start" x="260" y="-404.5" font-family="Helvetica,sans-Serif" font-size="10.00">+ getSelection()</text>
<text text-anchor="start" x="260" y="-393.5" font-family="Helvetica,sans-Serif" font-size="10.00">+ getIndex()</text>
<text text-anchor="start" x="260" y="-382.5" font-family="Helvetica,sans-Serif" font-size="10.00"># BankableMIDIInput()</text>
<text text-anchor="start" x="260" y="-371.5" font-family="Helvetica,sans-Serif" font-size="10.00"># BankableMIDIInput()</text>
<text text-anchor="start" x="260" y="-360.5" font-family="Helvetica,sans-Serif" font-size="10.00"># matchBankable()</text>
<text text-anchor="start" x="260" y="-349.5" font-family="Helvetica,sans-Serif" font-size="10.00"># matchBankableInRange()</text>
<text text-anchor="start" x="260" y="-338.5" font-family="Helvetica,sans-Serif" font-size="10.00"># matchBankable()</text>
<text text-anchor="start" x="260" y="-327.5" font-family="Helvetica,sans-Serif" font-size="10.00"># matchBankableAddressInRange()</text>
<text text-anchor="start" x="260" y="-316.5" font-family="Helvetica,sans-Serif" font-size="10.00"># inRange()</text>
<text text-anchor="start" x="260" y="-305.5" font-family="Helvetica,sans-Serif" font-size="10.00">&#45; onBankSettingChange()</text>
</a>
</g>
</g>
<!-- Node2 -->
<g id="node3" class="node"><title>Node2</title>
<g id="a_node3"><a xlink:href="../../d0/d42/classBankable_1_1MIDINote.html" target="_top" xlink:title="A class for Bankable MIDI note input.">
<polygon fill="white" stroke="black" points="15,-133 15,-245 146,-245 146,-133 15,-133"/>
<text text-anchor="middle" x="80.5" y="-233" font-family="Helvetica,sans-Serif" font-size="10.00">Bankable::MIDINote&lt; N &gt;</text>
<polyline fill="none" stroke="black" points="15,-226 146,-226 "/>
<text text-anchor="start" x="23" y="-214" font-family="Helvetica,sans-Serif" font-size="10.00">&#45; values</text>
<polyline fill="none" stroke="black" points="15,-207 146,-207 "/>
<text text-anchor="start" x="23" y="-195" font-family="Helvetica,sans-Serif" font-size="10.00">+ MIDINote()</text>
<text text-anchor="start" x="23" y="-184" font-family="Helvetica,sans-Serif" font-size="10.00">+ getValue()</text>
<text text-anchor="start" x="23" y="-173" font-family="Helvetica,sans-Serif" font-size="10.00">+ reset()</text>
<text text-anchor="start" x="23" y="-162" font-family="Helvetica,sans-Serif" font-size="10.00">&#45; updateImpl()</text>
<text text-anchor="start" x="23" y="-151" font-family="Helvetica,sans-Serif" font-size="10.00">&#45; match()</text>
<text text-anchor="start" x="23" y="-140" font-family="Helvetica,sans-Serif" font-size="10.00">&#45; onBankSettingChange()</text>
</a>
</g>
</g>
<!-- Node0&#45;&gt;Node2 -->
<g id="edge2" class="edge"><title>Node0&#45;&gt;Node2</title>
<path fill="none" stroke="midnightblue" d="M243.704,-319.959C218.387,-301.526 191.177,-281.277 166.5,-262 159.595,-256.606 152.46,-250.883 145.389,-245.114"/>
<polygon fill="none" stroke="midnightblue" points="241.704,-322.832 251.852,-325.877 245.818,-317.169 241.704,-322.832"/>
</g>
<!-- Node4 -->
<g id="node5" class="node"><title>Node4</title>
<g id="a_node5"><a xlink:href="../../da/d93/classMCU_1_1Bankable_1_1VPotRing.html" target="_top" xlink:title="A class for MIDI input elements that represent Mackie Control Universal V&#45;Pots.">
<polygon fill="white" stroke="black" points="175.5,-133 175.5,-245 335.5,-245 335.5,-133 175.5,-133"/>
<text text-anchor="middle" x="255.5" y="-233" font-family="Helvetica,sans-Serif" font-size="10.00">MCU::Bankable::VPotRing&lt; N &gt;</text>
<polyline fill="none" stroke="black" points="175.5,-226 335.5,-226 "/>
<text text-anchor="start" x="183.5" y="-214" font-family="Helvetica,sans-Serif" font-size="10.00">&#45; values</text>
<polyline fill="none" stroke="black" points="175.5,-207 335.5,-207 "/>
<text text-anchor="start" x="183.5" y="-195" font-family="Helvetica,sans-Serif" font-size="10.00">+ VPotRing()</text>
<text text-anchor="start" x="183.5" y="-184" font-family="Helvetica,sans-Serif" font-size="10.00">+ reset()</text>
<text text-anchor="start" x="183.5" y="-173" font-family="Helvetica,sans-Serif" font-size="10.00">&#45; updateImpl()</text>
<text text-anchor="start" x="183.5" y="-162" font-family="Helvetica,sans-Serif" font-size="10.00">&#45; match()</text>
<text text-anchor="start" x="183.5" y="-151" font-family="Helvetica,sans-Serif" font-size="10.00">&#45; getRawValue()</text>
<text text-anchor="start" x="183.5" y="-140" font-family="Helvetica,sans-Serif" font-size="10.00">&#45; onBankSettingChange()</text>
</a>
</g>
</g>
<!-- Node0&#45;&gt;Node4 -->
<g id="edge4" class="edge"><title>Node0&#45;&gt;Node4</title>
<path fill="none" stroke="midnightblue" d="M296.8,-288.969C290.53,-273.944 284.251,-258.897 278.549,-245.233"/>
<polygon fill="none" stroke="midnightblue" points="293.616,-290.428 300.698,-298.309 300.076,-287.732 293.616,-290.428"/>
</g>
<!-- Node6 -->
<g id="node7" class="node"><title>Node6</title>
<g id="a_node7"><a xlink:href="../../d0/d43/classMCU_1_1Bankable_1_1VU.html" target="_top" xlink:title="A class for MIDI input elements that represent Mackie Control Universal VU meters.">
<polygon fill="white" stroke="black" points="353.5,-116.5 353.5,-261.5 485.5,-261.5 485.5,-116.5 353.5,-116.5"/>
<text text-anchor="middle" x="419.5" y="-249.5" font-family="Helvetica,sans-Serif" font-size="10.00">MCU::Bankable::VU&lt; N &gt;</text>
<polyline fill="none" stroke="black" points="353.5,-242.5 485.5,-242.5 "/>
<text text-anchor="start" x="361.5" y="-230.5" font-family="Helvetica,sans-Serif" font-size="10.00">&#45; values</text>
<polyline fill="none" stroke="black" points="353.5,-223.5 485.5,-223.5 "/>
<text text-anchor="start" x="361.5" y="-211.5" font-family="Helvetica,sans-Serif" font-size="10.00">+ VU()</text>
<text text-anchor="start" x="361.5" y="-200.5" font-family="Helvetica,sans-Serif" font-size="10.00">+ updateImpl()</text>
<text text-anchor="start" x="361.5" y="-189.5" font-family="Helvetica,sans-Serif" font-size="10.00">+ match()</text>
<text text-anchor="start" x="361.5" y="-178.5" font-family="Helvetica,sans-Serif" font-size="10.00">+ reset()</text>
<text text-anchor="start" x="361.5" y="-167.5" font-family="Helvetica,sans-Serif" font-size="10.00">&#45; decayAll()</text>
<text text-anchor="start" x="361.5" y="-156.5" font-family="Helvetica,sans-Serif" font-size="10.00">&#45; getRawValue()</text>
<text text-anchor="start" x="361.5" y="-145.5" font-family="Helvetica,sans-Serif" font-size="10.00">&#45; setValue()</text>
<text text-anchor="start" x="361.5" y="-134.5" font-family="Helvetica,sans-Serif" font-size="10.00">&#45; setOverload()</text>
<text text-anchor="start" x="361.5" y="-123.5" font-family="Helvetica,sans-Serif" font-size="10.00">&#45; clearOverload()</text>
</a>
</g>
</g>
<!-- Node0&#45;&gt;Node6 -->
<g id="edge6" class="edge"><title>Node0&#45;&gt;Node6</title>
<path fill="none" stroke="midnightblue" d="M378.266,-288.811C382.076,-279.681 385.888,-270.546 389.572,-261.719"/>
<polygon fill="none" stroke="midnightblue" points="374.924,-287.732 374.302,-298.309 381.384,-290.428 374.924,-287.732"/>
</g>
<!-- Node7 -->
<g id="node8" class="node"><title>Node7</title>
<g id="a_node8"><a xlink:href="../../d0/d43/classMCU_1_1Bankable_1_1VU.html" target="_top" xlink:title=" ">
<polygon fill="white" stroke="black" points="504,-116.5 504,-261.5 593,-261.5 593,-116.5 504,-116.5"/>
<text text-anchor="middle" x="548.5" y="-249.5" font-family="Helvetica,sans-Serif" font-size="10.00">VU&lt; M &gt;</text>
<polyline fill="none" stroke="black" points="504,-242.5 593,-242.5 "/>
<text text-anchor="start" x="512" y="-230.5" font-family="Helvetica,sans-Serif" font-size="10.00">&#45; values</text>
<polyline fill="none" stroke="black" points="504,-223.5 593,-223.5 "/>
<text text-anchor="start" x="512" y="-211.5" font-family="Helvetica,sans-Serif" font-size="10.00">+ VU()</text>
<text text-anchor="start" x="512" y="-200.5" font-family="Helvetica,sans-Serif" font-size="10.00">+ updateImpl()</text>
<text text-anchor="start" x="512" y="-189.5" font-family="Helvetica,sans-Serif" font-size="10.00">+ match()</text>
<text text-anchor="start" x="512" y="-178.5" font-family="Helvetica,sans-Serif" font-size="10.00">+ reset()</text>
<text text-anchor="start" x="512" y="-167.5" font-family="Helvetica,sans-Serif" font-size="10.00">&#45; decayAll()</text>
<text text-anchor="start" x="512" y="-156.5" font-family="Helvetica,sans-Serif" font-size="10.00">&#45; getRawValue()</text>
<text text-anchor="start" x="512" y="-145.5" font-family="Helvetica,sans-Serif" font-size="10.00">&#45; setValue()</text>
<text text-anchor="start" x="512" y="-134.5" font-family="Helvetica,sans-Serif" font-size="10.00">&#45; setOverload()</text>
<text text-anchor="start" x="512" y="-123.5" font-family="Helvetica,sans-Serif" font-size="10.00">&#45; clearOverload()</text>
</a>
</g>
</g>
<!-- Node0&#45;&gt;Node7 -->
<g id="edge7" class="edge"><title>Node0&#45;&gt;Node7</title>
<path fill="none" stroke="midnightblue" d="M431.165,-318.668C452.892,-301.218 475.267,-281.759 494.5,-262 497.661,-258.753 500.798,-255.318 503.877,-251.779"/>
<polygon fill="none" stroke="midnightblue" points="428.846,-316.04 423.197,-325.003 433.203,-321.52 428.846,-316.04"/>
</g>
<!-- Node1 -->
<g id="node2" class="node"><title>Node1</title>
<g id="a_node2"><a xlink:href="../../d4/d23/classDoublyLinkable.html" target="_top" xlink:title=" ">
<polygon fill="white" stroke="black" points="271,-513.5 271,-592.5 404,-592.5 404,-513.5 271,-513.5"/>
<text text-anchor="start" x="279" y="-580.5" font-family="Helvetica,sans-Serif" font-size="10.00">DoublyLinkable&lt; Bankable</text>
<text text-anchor="middle" x="337.5" y="-569.5" font-family="Helvetica,sans-Serif" font-size="10.00">MIDIInput&lt; N &gt; &gt;</text>
<polyline fill="none" stroke="black" points="271,-562.5 404,-562.5 "/>
<text text-anchor="start" x="279" y="-550.5" font-family="Helvetica,sans-Serif" font-size="10.00"># next</text>
<text text-anchor="start" x="279" y="-539.5" font-family="Helvetica,sans-Serif" font-size="10.00"># previous</text>
<polyline fill="none" stroke="black" points="271,-532.5 404,-532.5 "/>
<text text-anchor="start" x="279" y="-520.5" font-family="Helvetica,sans-Serif" font-size="10.00"># ~DoublyLinkable()</text>
</a>
</g>
</g>
<!-- Node1&#45;&gt;Node0 -->
<g id="edge1" class="edge"><title>Node1&#45;&gt;Node0</title>
<path fill="none" stroke="midnightblue" d="M337.5,-503.247C337.5,-494.789 337.5,-485.764 337.5,-476.632"/>
<polygon fill="none" stroke="midnightblue" points="334,-503.253 337.5,-513.253 341,-503.253 334,-503.253"/>
</g>
<!-- Node3 -->
<g id="node4" class="node"><title>Node3</title>
<g id="a_node4"><a xlink:href="../../dc/df8/classBankable_1_1MIDINoteLED.html" target="_top" xlink:title=" ">
<polygon fill="white" stroke="black" points="0,-11.5 0,-68.5 151,-68.5 151,-11.5 0,-11.5"/>
<text text-anchor="middle" x="75.5" y="-56.5" font-family="Helvetica,sans-Serif" font-size="10.00">Bankable::MIDINoteLED&lt; N &gt;</text>
<polyline fill="none" stroke="black" points="0,-49.5 151,-49.5 "/>
<text text-anchor="middle" x="75.5" y="-37.5" font-family="Helvetica,sans-Serif" font-size="10.00"> </text>
<polyline fill="none" stroke="black" points="0,-30.5 151,-30.5 "/>
<text text-anchor="start" x="8" y="-18.5" font-family="Helvetica,sans-Serif" font-size="10.00">+ MIDINoteLED()</text>
</a>
</g>
</g>
<!-- Node2&#45;&gt;Node3 -->
<g id="edge3" class="edge"><title>Node2&#45;&gt;Node3</title>
<path fill="none" stroke="midnightblue" d="M78.2801,-122.735C77.6359,-103.797 76.9667,-84.1203 76.4462,-68.8197"/>
<polygon fill="none" stroke="midnightblue" points="74.7859,-122.969 78.624,-132.844 81.7819,-122.731 74.7859,-122.969"/>
</g>
<!-- Node5 -->
<g id="node6" class="node"><title>Node5</title>
<g id="a_node6"><a xlink:href="../../d2/d89/classMCU_1_1Bankable_1_1VPotRingLEDs.html" target="_top" xlink:title=" ">
<polygon fill="white" stroke="black" points="169,-11.5 169,-68.5 354,-68.5 354,-11.5 169,-11.5"/>
<text text-anchor="middle" x="261.5" y="-56.5" font-family="Helvetica,sans-Serif" font-size="10.00">MCU::Bankable::VPotRingLEDs&lt; N &gt;</text>
<polyline fill="none" stroke="black" points="169,-49.5 354,-49.5 "/>
<text text-anchor="middle" x="261.5" y="-37.5" font-family="Helvetica,sans-Serif" font-size="10.00"> </text>
<polyline fill="none" stroke="black" points="169,-30.5 354,-30.5 "/>
<text text-anchor="start" x="177" y="-18.5" font-family="Helvetica,sans-Serif" font-size="10.00">+ VPotRingLEDs()</text>
</a>
</g>
</g>
<!-- Node4&#45;&gt;Node5 -->
<g id="edge5" class="edge"><title>Node4&#45;&gt;Node5</title>
<path fill="none" stroke="midnightblue" d="M258.164,-122.735C258.937,-103.797 259.74,-84.1203 260.365,-68.8197"/>
<polygon fill="none" stroke="midnightblue" points="254.662,-122.71 257.751,-132.844 261.656,-122.995 254.662,-122.71"/>
</g>
<!-- Node8 -->
<g id="node9" class="node"><title>Node8</title>
<g id="a_node9"><a xlink:href="../../db/d17/classMCU_1_1Bankable_1_1VULEDs.html" target="_top" xlink:title=" ">
<polygon fill="white" stroke="black" points="483,-0.5 483,-79.5 614,-79.5 614,-0.5 483,-0.5"/>
<text text-anchor="start" x="491" y="-67.5" font-family="Helvetica,sans-Serif" font-size="10.00">MCU::Bankable::VULEDs</text>
<text text-anchor="middle" x="548.5" y="-56.5" font-family="Helvetica,sans-Serif" font-size="10.00">&lt; M, N &gt;</text>
<polyline fill="none" stroke="black" points="483,-49.5 614,-49.5 "/>
<text text-anchor="middle" x="548.5" y="-37.5" font-family="Helvetica,sans-Serif" font-size="10.00"> </text>
<polyline fill="none" stroke="black" points="483,-30.5 614,-30.5 "/>
<text text-anchor="start" x="491" y="-18.5" font-family="Helvetica,sans-Serif" font-size="10.00">+ VULEDs()</text>
<text text-anchor="start" x="491" y="-7.5" font-family="Helvetica,sans-Serif" font-size="10.00">&#45; onBankSettingChange()</text>
</a>
</g>
</g>
<!-- Node7&#45;&gt;Node8 -->
<g id="edge8" class="edge"><title>Node7&#45;&gt;Node8</title>
<path fill="none" stroke="midnightblue" d="M548.5,-105.954C548.5,-96.8992 548.5,-88.0195 548.5,-79.875"/>
<polygon fill="none" stroke="midnightblue" points="545,-106.222 548.5,-116.223 552,-106.223 545,-106.222"/>
</g>
</g>
</svg>
