<?xml version="1.0" encoding="UTF-8" standalone="no"?>
<!DOCTYPE svg PUBLIC "-//W3C//DTD SVG 1.1//EN"
 "http://www.w3.org/Graphics/SVG/1.1/DTD/svg11.dtd">
<!-- Generated by graphviz version 2.38.0 (20140413.2041)
 -->
<!-- Title: BitArray.hpp Pages: 1 -->
<svg width="444pt" height="196pt"
 viewBox="0.00 0.00 443.50 196.00" xmlns="http://www.w3.org/2000/svg" xmlns:xlink="http://www.w3.org/1999/xlink">
<g id="graph0" class="graph" transform="scale(1 1) rotate(0) translate(4 192)">
<title>BitArray.hpp</title>
<polygon fill="white" stroke="none" points="-4,4 -4,-192 439.5,-192 439.5,4 -4,4"/>
<!-- Node1 -->
<g id="node1" class="node"><title>Node1</title>
<g id="a_node1"><a xlink:title=" ">
<polygon fill="#bfbfbf" stroke="black" points="146.5,-168.5 146.5,-187.5 217.5,-187.5 217.5,-168.5 146.5,-168.5"/>
<text text-anchor="middle" x="182" y="-175.5" font-family="Helvetica,sans-Serif" font-size="10.00">BitArray.hpp</text>
</a>
</g>
</g>
<!-- Node2 -->
<g id="node2" class="node"><title>Node2</title>
<g id="a_node2"><a xlink:href="../../d2/d25/MAX7219_8hpp.html" target="_top" xlink:title=" ">
<polygon fill="white" stroke="black" points="82,-112.5 82,-131.5 160,-131.5 160,-112.5 82,-112.5"/>
<text text-anchor="middle" x="121" y="-119.5" font-family="Helvetica,sans-Serif" font-size="10.00">MAX7219.hpp</text>
</a>
</g>
</g>
<!-- Node1&#45;&gt;Node2 -->
<g id="edge1" class="edge"><title>Node1&#45;&gt;Node2</title>
<path fill="none" stroke="midnightblue" d="M164.533,-161.537C153.656,-151.909 140.056,-139.869 130.979,-131.834"/>
<polygon fill="midnightblue" stroke="midnightblue" points="162.392,-164.316 172.199,-168.324 167.032,-159.075 162.392,-164.316"/>
</g>
<!-- Node4 -->
<g id="node4" class="node"><title>Node4</title>
<g id="a_node4"><a xlink:href="../../d8/d93/ShiftRegisterOutBase_8hpp.html" target="_top" xlink:title=" ">
<polygon fill="white" stroke="black" points="178.5,-112.5 178.5,-131.5 309.5,-131.5 309.5,-112.5 178.5,-112.5"/>
<text text-anchor="middle" x="244" y="-119.5" font-family="Helvetica,sans-Serif" font-size="10.00">ShiftRegisterOutBase.hpp</text>
</a>
</g>
</g>
<!-- Node1&#45;&gt;Node4 -->
<g id="edge3" class="edge"><title>Node1&#45;&gt;Node4</title>
<path fill="none" stroke="midnightblue" d="M199.754,-161.537C210.808,-151.909 224.631,-139.869 233.857,-131.834"/>
<polygon fill="midnightblue" stroke="midnightblue" points="197.203,-159.117 191.961,-168.324 201.801,-164.395 197.203,-159.117"/>
</g>
<!-- Node5 -->
<g id="node5" class="node"><title>Node5</title>
<g id="a_node5"><a xlink:href="../../d0/db4/ShiftRegisterOut_8hpp.html" target="_top" xlink:title=" ">
<polygon fill="white" stroke="black" points="0,-56.5 0,-75.5 108,-75.5 108,-56.5 0,-56.5"/>
<text text-anchor="middle" x="54" y="-63.5" font-family="Helvetica,sans-Serif" font-size="10.00">ShiftRegisterOut.hpp</text>
</a>
</g>
</g>
<!-- Node1&#45;&gt;Node5 -->
<g id="edge14" class="edge"><title>Node1&#45;&gt;Node5</title>
<path fill="none" stroke="midnightblue" d="M136.592,-167.956C114.617,-161.406 89.4904,-150.359 73,-132 58.5443,-115.906 55.0533,-89.3681 54.233,-75.7135"/>
<polygon fill="midnightblue" stroke="midnightblue" points="135.854,-171.383 146.424,-170.66 137.71,-164.634 135.854,-171.383"/>
</g>
<!-- Node8 -->
<g id="node8" class="node"><title>Node8</title>
<g id="a_node8"><a xlink:href="../../d7/d88/SPIShiftRegisterOut_8hpp.html" target="_top" xlink:title=" ">
<polygon fill="white" stroke="black" points="310.5,-56.5 310.5,-75.5 435.5,-75.5 435.5,-56.5 310.5,-56.5"/>
<text text-anchor="middle" x="373" y="-63.5" font-family="Helvetica,sans-Serif" font-size="10.00">SPIShiftRegisterOut.hpp</text>
</a>
</g>
</g>
<!-- Node1&#45;&gt;Node8 -->
<g id="edge15" class="edge"><title>Node1&#45;&gt;Node8</title>
<path fill="none" stroke="midnightblue" d="M227.503,-168.527C255.35,-161.809 290.742,-150.41 318,-132 340.54,-116.776 359.092,-89.8574 367.744,-75.9199"/>
<polygon fill="midnightblue" stroke="midnightblue" points="226.578,-165.148 217.614,-170.794 228.143,-171.971 226.578,-165.148"/>
</g>
<!-- Node3 -->
<g id="node3" class="node"><title>Node3</title>
<g id="a_node3"><a xlink:href="../../db/dbf/Control__Surface_8h.html" target="_top" xlink:title="The main header file that includes all Control&#45;Surface header files.">
<polygon fill="white" stroke="black" points="124.5,-0.5 124.5,-19.5 219.5,-19.5 219.5,-0.5 124.5,-0.5"/>
<text text-anchor="middle" x="172" y="-7.5" font-family="Helvetica,sans-Serif" font-size="10.00">Control_Surface.h</text>
</a>
</g>
</g>
<!-- Node2&#45;&gt;Node3 -->
<g id="edge2" class="edge"><title>Node2&#45;&gt;Node3</title>
<path fill="none" stroke="midnightblue" d="M129.346,-102.998C140.474,-78.9968 159.728,-37.4683 168.017,-19.5914"/>
<polygon fill="midnightblue" stroke="midnightblue" points="126.033,-101.824 125.002,-112.368 132.384,-104.768 126.033,-101.824"/>
</g>
<!-- Node4&#45;&gt;Node5 -->
<g id="edge4" class="edge"><title>Node4&#45;&gt;Node5</title>
<path fill="none" stroke="midnightblue" d="M204.236,-109.699C168.377,-99.507 116.429,-84.7429 83.9652,-75.5164"/>
<polygon fill="midnightblue" stroke="midnightblue" points="203.318,-113.076 213.894,-112.444 205.232,-106.343 203.318,-113.076"/>
</g>
<!-- Node7 -->
<g id="node7" class="node"><title>Node7</title>
<g id="a_node7"><a xlink:href="../../d5/d47/ShiftRegisterOutBase_8ipp.html" target="_top" xlink:title=" ">
<polygon fill="white" stroke="black" points="164,-56.5 164,-75.5 292,-75.5 292,-56.5 164,-56.5"/>
<text text-anchor="middle" x="228" y="-63.5" font-family="Helvetica,sans-Serif" font-size="10.00">ShiftRegisterOutBase.ipp</text>
</a>
</g>
</g>
<!-- Node4&#45;&gt;Node7 -->
<g id="edge8" class="edge"><title>Node4&#45;&gt;Node7</title>
<path fill="none" stroke="midnightblue" d="M232.146,-102.69C228.755,-93.589 226.054,-83.0141 225.462,-75.7511"/>
<polygon fill="midnightblue" stroke="midnightblue" points="229.021,-104.283 236.192,-112.083 235.45,-101.514 229.021,-104.283"/>
</g>
<!-- Node4&#45;&gt;Node8 -->
<g id="edge10" class="edge"><title>Node4&#45;&gt;Node8</title>
<path fill="none" stroke="midnightblue" d="M273.854,-108.503C298.038,-98.3795 331.462,-84.388 352.655,-75.5164"/>
<polygon fill="midnightblue" stroke="midnightblue" points="272.313,-105.354 264.44,-112.444 275.016,-111.811 272.313,-105.354"/>
</g>
<!-- Node5&#45;&gt;Node3 -->
<g id="edge5" class="edge"><title>Node5&#45;&gt;Node3</title>
<path fill="none" stroke="midnightblue" d="M81.9002,-52.2321C103.973,-42.1312 134.176,-28.3091 153.39,-19.5164"/>
<polygon fill="midnightblue" stroke="midnightblue" points="80.3341,-49.0997 72.6975,-56.4435 83.247,-55.4648 80.3341,-49.0997"/>
</g>
<!-- Node6 -->
<g id="node6" class="node"><title>Node6</title>
<g id="a_node6"><a xlink:href="../../de/d95/ShiftRegisterOut_8ipp.html" target="_top" xlink:title=" ">
<polygon fill="white" stroke="black" points="1.5,-0.5 1.5,-19.5 106.5,-19.5 106.5,-0.5 1.5,-0.5"/>
<text text-anchor="middle" x="54" y="-7.5" font-family="Helvetica,sans-Serif" font-size="10.00">ShiftRegisterOut.ipp</text>
</a>
</g>
</g>
<!-- Node5&#45;&gt;Node6 -->
<g id="edge6" class="edge"><title>Node5&#45;&gt;Node6</title>
<path fill="none" stroke="midnightblue" d="M47.5276,-46.1005C46.8956,-37.1357 47.3427,-26.8579 48.869,-19.7511"/>
<polygon fill="midnightblue" stroke="midnightblue" points="44.0658,-46.6216 48.8337,-56.083 51.0067,-45.7134 44.0658,-46.6216"/>
</g>
<!-- Node6&#45;&gt;Node5 -->
<g id="edge7" class="edge"><title>Node6&#45;&gt;Node5</title>
<path fill="none" stroke="midnightblue" d="M60.4575,-29.6911C61.1062,-38.6353 60.6758,-48.9272 59.1663,-56.083"/>
<polygon fill="midnightblue" stroke="midnightblue" points="63.9231,-29.2002 59.131,-19.7511 56.9846,-30.1262 63.9231,-29.2002"/>
</g>
<!-- Node7&#45;&gt;Node4 -->
<g id="edge9" class="edge"><title>Node7&#45;&gt;Node4</title>
<path fill="none" stroke="midnightblue" d="M239.777,-85.1034C243.178,-94.1814 245.9,-104.77 246.524,-112.083"/>
<polygon fill="midnightblue" stroke="midnightblue" points="242.912,-83.5346 235.724,-75.7511 236.489,-86.3183 242.912,-83.5346"/>
</g>
<!-- Node8&#45;&gt;Node3 -->
<g id="edge11" class="edge"><title>Node8&#45;&gt;Node3</title>
<path fill="none" stroke="midnightblue" d="M331.419,-53.8291C293.469,-43.6333 238.19,-28.7823 203.7,-19.5164"/>
<polygon fill="midnightblue" stroke="midnightblue" points="330.585,-57.229 341.151,-56.4435 332.402,-50.4688 330.585,-57.229"/>
</g>
<!-- Node9 -->
<g id="node9" class="node"><title>Node9</title>
<g id="a_node9"><a xlink:href="../../da/d45/SPIShiftRegisterOut_8ipp.html" target="_top" xlink:title=" ">
<polygon fill="white" stroke="black" points="312,-0.5 312,-19.5 434,-19.5 434,-0.5 312,-0.5"/>
<text text-anchor="middle" x="373" y="-7.5" font-family="Helvetica,sans-Serif" font-size="10.00">SPIShiftRegisterOut.ipp</text>
</a>
</g>
</g>
<!-- Node8&#45;&gt;Node9 -->
<g id="edge12" class="edge"><title>Node8&#45;&gt;Node9</title>
<path fill="none" stroke="midnightblue" d="M366.528,-46.1005C365.896,-37.1357 366.343,-26.8579 367.869,-19.7511"/>
<polygon fill="midnightblue" stroke="midnightblue" points="363.066,-46.6216 367.834,-56.083 370.007,-45.7134 363.066,-46.6216"/>
</g>
<!-- Node9&#45;&gt;Node8 -->
<g id="edge13" class="edge"><title>Node9&#45;&gt;Node8</title>
<path fill="none" stroke="midnightblue" d="M379.458,-29.6911C380.106,-38.6353 379.676,-48.9272 378.166,-56.083"/>
<polygon fill="midnightblue" stroke="midnightblue" points="382.923,-29.2002 378.131,-19.7511 375.985,-30.1262 382.923,-29.2002"/>
</g>
</g>
</svg>
