<?xml version="1.0" encoding="UTF-8" standalone="no"?>
<!DOCTYPE svg PUBLIC "-//W3C//DTD SVG 1.1//EN"
 "http://www.w3.org/Graphics/SVG/1.1/DTD/svg11.dtd">
<!-- Generated by graphviz version 2.38.0 (20140413.2041)
 -->
<!-- Title: ExtendedInputOutput/AnalogMultiplex.h Pages: 1 -->
<svg width="230pt" height="106pt"
 viewBox="0.00 0.00 230.00 106.00" xmlns="http://www.w3.org/2000/svg" xmlns:xlink="http://www.w3.org/1999/xlink">
<g id="graph0" class="graph" transform="scale(1 1) rotate(0) translate(4 102)">
<title>ExtendedInputOutput/AnalogMultiplex.h</title>
<!-- Node7 -->
<g id="node1" class="node"><title>Node7</title>
<polygon fill="#bfbfbf" stroke="black" points="53,-67.5 53,-97.5 162,-97.5 162,-67.5 53,-67.5"/>
<text text-anchor="start" x="61" y="-85.5" font-family="Helvetica,sans-Serif" font-size="10.00">ExtendedInputOutput</text>
<text text-anchor="middle" x="107.5" y="-74.5" font-family="Helvetica,sans-Serif" font-size="10.00">/AnalogMultiplex.h</text>
</g>
<!-- Node8 -->
<g id="node2" class="node"><title>Node8</title>
<g id="a_node2"><a xlink:href="Control__Surface_8h.html" target="_top" xlink:title="Control_Surface.h">
<polygon fill="none" stroke="black" points="0,-6 0,-25 95,-25 95,-6 0,-6"/>
<text text-anchor="middle" x="47.5" y="-13" font-family="Helvetica,sans-Serif" font-size="10.00">Control_Surface.h</text>
</a>
</g>
</g>
<!-- Node7&#45;&gt;Node8 -->
<g id="edge1" class="edge"><title>Node7&#45;&gt;Node8</title>
<path fill="none" stroke="midnightblue" d="M87.6508,-59.9967C76.6991,-48.1323 63.7014,-34.0516 55.5257,-25.1945"/>
<polygon fill="midnightblue" stroke="midnightblue" points="85.1262,-62.4219 94.4809,-67.396 90.2699,-57.6739 85.1262,-62.4219"/>
</g>
<!-- Node9 -->
<g id="node3" class="node"><title>Node9</title>
<g id="a_node3"><a xlink:href="AnalogMultiplex_8cpp.html" target="_top" xlink:title="ExtendedInputOutput\l/AnalogMultiplex.cpp">
<polygon fill="none" stroke="black" points="113,-0.5 113,-30.5 222,-30.5 222,-0.5 113,-0.5"/>
<text text-anchor="start" x="121" y="-18.5" font-family="Helvetica,sans-Serif" font-size="10.00">ExtendedInputOutput</text>
<text text-anchor="middle" x="167.5" y="-7.5" font-family="Helvetica,sans-Serif" font-size="10.00">/AnalogMultiplex.cpp</text>
</a>
</g>
</g>
<!-- Node7&#45;&gt;Node9 -->
<g id="edge2" class="edge"><title>Node7&#45;&gt;Node9</title>
<path fill="none" stroke="midnightblue" d="M127.324,-60.0243C136.263,-50.3398 146.57,-39.1739 154.506,-30.5765"/>
<polygon fill="midnightblue" stroke="midnightblue" points="124.73,-57.6739 120.519,-67.396 129.874,-62.4219 124.73,-57.6739"/>
</g>
</g>
</svg>
