<?xml version="1.0" encoding="UTF-8" standalone="no"?>
<!DOCTYPE svg PUBLIC "-//W3C//DTD SVG 1.1//EN"
 "http://www.w3.org/Graphics/SVG/1.1/DTD/svg11.dtd">
<!-- Generated by graphviz version 2.38.0 (20140413.2041)
 -->
<!-- Title: MIDI_Outputs/Analog.h Pages: 1 -->
<svg width="522pt" height="263pt"
 viewBox="0.00 0.00 522.00 263.00" xmlns="http://www.w3.org/2000/svg" xmlns:xlink="http://www.w3.org/1999/xlink">
<g id="graph0" class="graph" transform="scale(1 1) rotate(0) translate(4 259)">
<title>MIDI_Outputs/Analog.h</title>
<!-- Node0 -->
<g id="node1" class="node"><title>Node0</title>
<polygon fill="#bfbfbf" stroke="black" points="180.5,-235.5 180.5,-254.5 299.5,-254.5 299.5,-235.5 180.5,-235.5"/>
<text text-anchor="middle" x="240" y="-242.5" font-family="Helvetica,sans-Serif" font-size="10.00">MIDI_Outputs/Analog.h</text>
</g>
<!-- Node1 -->
<g id="node2" class="node"><title>Node1</title>
<g id="a_node2"><a xlink:href="SettingsWrapper_8h.html" target="_top" xlink:title="../Settings/SettingsWrapper.h">
<polygon fill="none" stroke="black" points="0,-56.5 0,-75.5 146,-75.5 146,-56.5 0,-56.5"/>
<text text-anchor="middle" x="73" y="-63.5" font-family="Helvetica,sans-Serif" font-size="10.00">../Settings/SettingsWrapper.h</text>
</a>
</g>
</g>
<!-- Node0&#45;&gt;Node1 -->
<g id="edge1" class="edge"><title>Node0&#45;&gt;Node1</title>
<path fill="none" stroke="midnightblue" d="M180.406,-238.639C152.221,-233.033 120.363,-221.718 100,-199 71.5957,-167.31 69.9273,-113.995 71.3396,-85.7964"/>
<polygon fill="midnightblue" stroke="midnightblue" points="74.8399,-85.9111 72.0369,-75.6938 67.8565,-85.4291 74.8399,-85.9111"/>
</g>
<!-- Node3 -->
<g id="node4" class="node"><title>Node3</title>
<g id="a_node4"><a xlink:href="EMA_8h.html" target="_top" xlink:title="../Helpers/EMA.h">
<polygon fill="none" stroke="black" points="259,-174 259,-193 351,-193 351,-174 259,-174"/>
<text text-anchor="middle" x="305" y="-181" font-family="Helvetica,sans-Serif" font-size="10.00">../Helpers/EMA.h</text>
</a>
</g>
</g>
<!-- Node0&#45;&gt;Node3 -->
<g id="edge3" class="edge"><title>Node0&#45;&gt;Node3</title>
<path fill="none" stroke="midnightblue" d="M249.313,-235.475C259.449,-226.197 275.864,-211.171 288.252,-199.831"/>
<polygon fill="midnightblue" stroke="midnightblue" points="290.691,-202.343 295.704,-193.009 285.965,-197.18 290.691,-202.343"/>
</g>
<!-- Node5 -->
<g id="node6" class="node"><title>Node5</title>
<g id="a_node6"><a xlink:href="MIDI__Control__Element_8h.html" target="_top" xlink:title="./MIDI_Control_Element.h">
<polygon fill="none" stroke="black" points="109.5,-174 109.5,-193 240.5,-193 240.5,-174 109.5,-174"/>
<text text-anchor="middle" x="175" y="-181" font-family="Helvetica,sans-Serif" font-size="10.00">./MIDI_Control_Element.h</text>
</a>
</g>
</g>
<!-- Node0&#45;&gt;Node5 -->
<g id="edge5" class="edge"><title>Node0&#45;&gt;Node5</title>
<path fill="none" stroke="midnightblue" d="M230.687,-235.475C220.551,-226.197 204.136,-211.171 191.748,-199.831"/>
<polygon fill="midnightblue" stroke="midnightblue" points="194.035,-197.18 184.296,-193.009 189.309,-202.343 194.035,-197.18"/>
</g>
<!-- Node9 -->
<g id="node10" class="node"><title>Node9</title>
<g id="a_node10"><a xlink:href="ExtendedInputOutput_8h.html" target="_top" xlink:title="../ExtendedInputOutput\l/ExtendedInputOutput.h">
<polygon fill="none" stroke="black" points="369,-168.5 369,-198.5 489,-198.5 489,-168.5 369,-168.5"/>
<text text-anchor="start" x="377" y="-186.5" font-family="Helvetica,sans-Serif" font-size="10.00">../ExtendedInputOutput</text>
<text text-anchor="middle" x="429" y="-175.5" font-family="Helvetica,sans-Serif" font-size="10.00">/ExtendedInputOutput.h</text>
</a>
</g>
</g>
<!-- Node0&#45;&gt;Node9 -->
<g id="edge11" class="edge"><title>Node0&#45;&gt;Node9</title>
<path fill="none" stroke="midnightblue" d="M267.079,-235.475C295.069,-226.664 339.524,-212.668 374.778,-201.57"/>
<polygon fill="midnightblue" stroke="midnightblue" points="375.969,-204.864 384.456,-198.523 373.867,-198.187 375.969,-204.864"/>
</g>
<!-- Node2 -->
<g id="node3" class="node"><title>Node2</title>
<g id="a_node3"><a xlink:href="Settings_8h.html" target="_top" xlink:title="./Settings.h">
<polygon fill="none" stroke="black" points="39.5,-0.5 39.5,-19.5 106.5,-19.5 106.5,-0.5 39.5,-0.5"/>
<text text-anchor="middle" x="73" y="-7.5" font-family="Helvetica,sans-Serif" font-size="10.00">./Settings.h</text>
</a>
</g>
</g>
<!-- Node1&#45;&gt;Node2 -->
<g id="edge2" class="edge"><title>Node1&#45;&gt;Node2</title>
<path fill="none" stroke="midnightblue" d="M73,-56.083C73,-49.0059 73,-38.8611 73,-29.9865"/>
<polygon fill="midnightblue" stroke="midnightblue" points="76.5001,-29.751 73,-19.7511 69.5001,-29.7511 76.5001,-29.751"/>
</g>
<!-- Node4 -->
<g id="node5" class="node"><title>Node4</title>
<polygon fill="none" stroke="#bfbfbf" points="234.5,-56.5 234.5,-75.5 283.5,-75.5 283.5,-56.5 234.5,-56.5"/>
<text text-anchor="middle" x="259" y="-63.5" font-family="Helvetica,sans-Serif" font-size="10.00">stdint.h</text>
</g>
<!-- Node3&#45;&gt;Node4 -->
<g id="edge4" class="edge"><title>Node3&#45;&gt;Node4</title>
<path fill="none" stroke="midnightblue" d="M301.543,-173.819C294.083,-155.09 276.343,-110.546 266.285,-85.2924"/>
<polygon fill="midnightblue" stroke="midnightblue" points="269.449,-83.7773 262.498,-75.782 262.946,-86.3674 269.449,-83.7773"/>
</g>
<!-- Node6 -->
<g id="node7" class="node"><title>Node6</title>
<g id="a_node7"><a xlink:href="MIDI__Element_8h.html" target="_top" xlink:title="../MIDI_Element.h">
<polygon fill="none" stroke="black" points="128.5,-112.5 128.5,-131.5 225.5,-131.5 225.5,-112.5 128.5,-112.5"/>
<text text-anchor="middle" x="177" y="-119.5" font-family="Helvetica,sans-Serif" font-size="10.00">../MIDI_Element.h</text>
</a>
</g>
</g>
<!-- Node5&#45;&gt;Node6 -->
<g id="edge6" class="edge"><title>Node5&#45;&gt;Node6</title>
<path fill="none" stroke="midnightblue" d="M175.287,-173.975C175.569,-165.58 176.009,-152.481 176.373,-141.663"/>
<polygon fill="midnightblue" stroke="midnightblue" points="179.876,-141.621 176.714,-131.509 172.88,-141.386 179.876,-141.621"/>
</g>
<!-- Node8 -->
<g id="node9" class="node"><title>Node8</title>
<g id="a_node9"><a xlink:href="Linked__List_8h.html" target="_top" xlink:title="../Helpers/Linked_List.h">
<polygon fill="none" stroke="black" points="311,-56.5 311,-75.5 431,-75.5 431,-56.5 311,-56.5"/>
<text text-anchor="middle" x="371" y="-63.5" font-family="Helvetica,sans-Serif" font-size="10.00">../Helpers/Linked_List.h</text>
</a>
</g>
</g>
<!-- Node5&#45;&gt;Node8 -->
<g id="edge10" class="edge"><title>Node5&#45;&gt;Node8</title>
<path fill="none" stroke="midnightblue" d="M189.732,-173.819C223.513,-153.912 306.781,-104.843 347.634,-80.7695"/>
<polygon fill="midnightblue" stroke="midnightblue" points="349.526,-83.7168 356.365,-75.6245 345.972,-77.686 349.526,-83.7168"/>
</g>
<!-- Node6&#45;&gt;Node1 -->
<g id="edge9" class="edge"><title>Node6&#45;&gt;Node1</title>
<path fill="none" stroke="midnightblue" d="M160.291,-112.324C143.688,-103.703 117.998,-90.3643 98.7795,-80.3855"/>
<polygon fill="midnightblue" stroke="midnightblue" points="100.156,-77.1565 89.6679,-75.6545 96.93,-83.3689 100.156,-77.1565"/>
</g>
<!-- Node6&#45;&gt;Node4 -->
<g id="edge7" class="edge"><title>Node6&#45;&gt;Node4</title>
<path fill="none" stroke="midnightblue" d="M190.175,-112.324C202.847,-103.979 222.233,-91.2122 237.206,-81.3524"/>
<polygon fill="midnightblue" stroke="midnightblue" points="239.431,-84.0776 245.858,-75.6545 235.581,-78.2313 239.431,-84.0776"/>
</g>
<!-- Node7 -->
<g id="node8" class="node"><title>Node7</title>
<polygon fill="none" stroke="#bfbfbf" points="164,-56.5 164,-75.5 216,-75.5 216,-56.5 164,-56.5"/>
<text text-anchor="middle" x="190" y="-63.5" font-family="Helvetica,sans-Serif" font-size="10.00">stddef.h</text>
</g>
<!-- Node6&#45;&gt;Node7 -->
<g id="edge8" class="edge"><title>Node6&#45;&gt;Node7</title>
<path fill="none" stroke="midnightblue" d="M179.147,-112.083C180.869,-104.927 183.347,-94.6353 185.5,-85.6911"/>
<polygon fill="midnightblue" stroke="midnightblue" points="188.955,-86.2925 187.893,-75.7511 182.15,-84.6541 188.955,-86.2925"/>
</g>
<!-- Node10 -->
<g id="node11" class="node"><title>Node10</title>
<g id="a_node11"><a xlink:href="ExtendedIOElement_8h.html" target="_top" xlink:title="ExtendedIOElement.h">
<polygon fill="none" stroke="black" points="324.5,-112.5 324.5,-131.5 437.5,-131.5 437.5,-112.5 324.5,-112.5"/>
<text text-anchor="middle" x="381" y="-119.5" font-family="Helvetica,sans-Serif" font-size="10.00">ExtendedIOElement.h</text>
</a>
</g>
</g>
<!-- Node9&#45;&gt;Node10 -->
<g id="edge12" class="edge"><title>Node9&#45;&gt;Node10</title>
<path fill="none" stroke="midnightblue" d="M417.625,-168.399C410.65,-159.753 401.686,-148.642 394.372,-139.576"/>
<polygon fill="midnightblue" stroke="midnightblue" points="396.987,-137.243 387.984,-131.658 391.539,-141.638 396.987,-137.243"/>
</g>
<!-- Node11 -->
<g id="node12" class="node"><title>Node11</title>
<polygon fill="none" stroke="#bfbfbf" points="456,-112.5 456,-131.5 514,-131.5 514,-112.5 456,-112.5"/>
<text text-anchor="middle" x="485" y="-119.5" font-family="Helvetica,sans-Serif" font-size="10.00">Arduino.h</text>
</g>
<!-- Node9&#45;&gt;Node11 -->
<g id="edge15" class="edge"><title>Node9&#45;&gt;Node11</title>
<path fill="none" stroke="midnightblue" d="M442.271,-168.399C450.576,-159.575 461.299,-148.183 469.924,-139.018"/>
<polygon fill="midnightblue" stroke="midnightblue" points="472.547,-141.339 476.852,-131.658 467.449,-136.541 472.547,-141.339"/>
</g>
<!-- Node10&#45;&gt;Node4 -->
<g id="edge13" class="edge"><title>Node10&#45;&gt;Node4</title>
<path fill="none" stroke="midnightblue" d="M361.669,-112.444C341.68,-103.596 310.257,-89.6875 287.436,-79.5865"/>
<polygon fill="midnightblue" stroke="midnightblue" points="288.802,-76.3635 278.241,-75.5164 285.968,-82.7645 288.802,-76.3635"/>
</g>
<!-- Node10&#45;&gt;Node8 -->
<g id="edge14" class="edge"><title>Node10&#45;&gt;Node8</title>
<path fill="none" stroke="midnightblue" d="M379.349,-112.083C378.024,-104.927 376.118,-94.6353 374.461,-85.6911"/>
<polygon fill="midnightblue" stroke="midnightblue" points="377.883,-84.9466 372.621,-75.7511 371,-86.2212 377.883,-84.9466"/>
</g>
</g>
</svg>
