<?xml version="1.0" encoding="UTF-8" standalone="no"?>
<!DOCTYPE svg PUBLIC "-//W3C//DTD SVG 1.1//EN"
 "http://www.w3.org/Graphics/SVG/1.1/DTD/svg11.dtd">
<!-- Generated by graphviz version 2.38.0 (20140413.2041)
 -->
<!-- Title: MIDIFilteredAnalog.hpp Pages: 1 -->
<svg width="1537pt" height="520pt"
 viewBox="0.00 0.00 1537.21 520.00" xmlns="http://www.w3.org/2000/svg" xmlns:xlink="http://www.w3.org/1999/xlink">
<g id="graph0" class="graph" transform="scale(1 1) rotate(0) translate(4 516)">
<title>MIDIFilteredAnalog.hpp</title>
<polygon fill="white" stroke="none" points="-4,4 -4,-516 1533.21,-516 1533.21,4 -4,4"/>
<!-- Node0 -->
<g id="node1" class="node"><title>Node0</title>
<g id="a_node1"><a xlink:title=" ">
<polygon fill="#bfbfbf" stroke="black" points="463.706,-492.5 463.706,-511.5 582.706,-511.5 582.706,-492.5 463.706,-492.5"/>
<text text-anchor="middle" x="523.206" y="-499.5" font-family="Helvetica,sans-Serif" font-size="10.00">MIDIFilteredAnalog.hpp</text>
</a>
</g>
</g>
<!-- Node1 -->
<g id="node2" class="node"><title>Node1</title>
<g id="a_node2"><a xlink:href="BankableMIDIOutput_8hpp.html" target="_top" xlink:title=" ">
<polygon fill="white" stroke="black" points="611.206,-431 611.206,-450 769.206,-450 769.206,-431 611.206,-431"/>
<text text-anchor="middle" x="690.206" y="-438" font-family="Helvetica,sans-Serif" font-size="10.00">Banks/BankableMIDIOutput.hpp</text>
</a>
</g>
</g>
<!-- Node0&#45;&gt;Node1 -->
<g id="edge1" class="edge"><title>Node0&#45;&gt;Node1</title>
<path fill="none" stroke="midnightblue" d="M547.133,-492.475C575.903,-482.225 624.362,-464.959 656.807,-453.399"/>
<polygon fill="midnightblue" stroke="midnightblue" points="658.078,-456.662 666.323,-450.009 655.728,-450.068 658.078,-456.662"/>
</g>
<!-- Node14 -->
<g id="node15" class="node"><title>Node14</title>
<g id="a_node15"><a xlink:href="Def_8hpp.html" target="_top" xlink:title=" ">
<polygon fill="white" stroke="black" points="94.2057,-230 94.2057,-249 164.206,-249 164.206,-230 94.2057,-230"/>
<text text-anchor="middle" x="129.206" y="-237" font-family="Helvetica,sans-Serif" font-size="10.00">Def/Def.hpp</text>
</a>
</g>
</g>
<!-- Node0&#45;&gt;Node14 -->
<g id="edge37" class="edge"><title>Node0&#45;&gt;Node14</title>
<path fill="none" stroke="midnightblue" d="M463.668,-497.316C340.582,-488.302 65.0052,-460.42 10.2057,-389 -28.5538,-338.485 58.4871,-279.867 103.884,-253.974"/>
<polygon fill="midnightblue" stroke="midnightblue" points="105.591,-257.03 112.619,-249.102 102.181,-250.917 105.591,-257.03"/>
</g>
<!-- Node19 -->
<g id="node20" class="node"><title>Node19</title>
<g id="a_node20"><a xlink:href="BankableMIDIOutputAddressable_8hpp.html" target="_top" xlink:title=" ">
<polygon fill="white" stroke="black" points="453.706,-425.5 453.706,-455.5 592.706,-455.5 592.706,-425.5 453.706,-425.5"/>
<text text-anchor="start" x="461.706" y="-443.5" font-family="Helvetica,sans-Serif" font-size="10.00">Banks/BankableMIDIOutput</text>
<text text-anchor="middle" x="523.206" y="-432.5" font-family="Helvetica,sans-Serif" font-size="10.00">Addressable.hpp</text>
</a>
</g>
</g>
<!-- Node0&#45;&gt;Node19 -->
<g id="edge34" class="edge"><title>Node0&#45;&gt;Node19</title>
<path fill="none" stroke="midnightblue" d="M523.206,-492.475C523.206,-485.471 523.206,-475.192 523.206,-465.696"/>
<polygon fill="midnightblue" stroke="midnightblue" points="526.706,-465.523 523.206,-455.523 519.706,-465.523 526.706,-465.523"/>
</g>
<!-- Node20 -->
<g id="node21" class="node"><title>Node20</title>
<g id="a_node21"><a xlink:href="FilteredAnalog_8h.html" target="_top" xlink:title=" ">
<polygon fill="white" stroke="black" points="901.206,-431 901.206,-450 1033.21,-450 1033.21,-431 901.206,-431"/>
<text text-anchor="middle" x="967.206" y="-438" font-family="Helvetica,sans-Serif" font-size="10.00">Hardware/FilteredAnalog.h</text>
</a>
</g>
</g>
<!-- Node0&#45;&gt;Node20 -->
<g id="edge38" class="edge"><title>Node0&#45;&gt;Node20</title>
<path fill="none" stroke="midnightblue" d="M583.085,-492.976C663.574,-482.189 806.578,-463.026 893.558,-451.369"/>
<polygon fill="midnightblue" stroke="midnightblue" points="894.172,-454.818 903.619,-450.021 893.243,-447.881 894.172,-454.818"/>
</g>
<!-- Node33 -->
<g id="node34" class="node"><title>Node33</title>
<g id="a_node34"><a xlink:href="MIDIOutputElement_8hpp.html" target="_top" xlink:title=" ">
<polygon fill="white" stroke="black" points="19.7057,-358.5 19.7057,-388.5 144.706,-388.5 144.706,-358.5 19.7057,-358.5"/>
<text text-anchor="start" x="27.7057" y="-376.5" font-family="Helvetica,sans-Serif" font-size="10.00">MIDI_Outputs/Abstract</text>
<text text-anchor="middle" x="82.2057" y="-365.5" font-family="Helvetica,sans-Serif" font-size="10.00">/MIDIOutputElement.hpp</text>
</a>
</g>
</g>
<!-- Node0&#45;&gt;Node33 -->
<g id="edge65" class="edge"><title>Node0&#45;&gt;Node33</title>
<path fill="none" stroke="midnightblue" d="M493.241,-492.405C420.968,-471.673 236.02,-418.621 140.8,-391.308"/>
<polygon fill="midnightblue" stroke="midnightblue" points="141.615,-387.9 131.037,-388.507 139.685,-394.629 141.615,-387.9"/>
</g>
<!-- Node2 -->
<g id="node3" class="node"><title>Node2</title>
<g id="a_node3"><a xlink:href="Bank_8h.html" target="_top" xlink:title=" ">
<polygon fill="white" stroke="black" points="666.706,-364 666.706,-383 713.706,-383 713.706,-364 666.706,-364"/>
<text text-anchor="middle" x="690.206" y="-371" font-family="Helvetica,sans-Serif" font-size="10.00">Bank.h</text>
</a>
</g>
</g>
<!-- Node1&#45;&gt;Node2 -->
<g id="edge2" class="edge"><title>Node1&#45;&gt;Node2</title>
<path fill="none" stroke="midnightblue" d="M690.206,-430.734C690.206,-421.183 690.206,-405.618 690.206,-393.283"/>
<polygon fill="midnightblue" stroke="midnightblue" points="693.706,-393.127 690.206,-383.127 686.706,-393.127 693.706,-393.127"/>
</g>
<!-- Node3 -->
<g id="node4" class="node"><title>Node3</title>
<g id="a_node4"><a xlink:href="Debug_8hpp.html" target="_top" xlink:title=" ">
<polygon fill="white" stroke="black" points="569.706,-168.5 569.706,-187.5 670.706,-187.5 670.706,-168.5 569.706,-168.5"/>
<text text-anchor="middle" x="620.206" y="-175.5" font-family="Helvetica,sans-Serif" font-size="10.00">Helpers/Debug.hpp</text>
</a>
</g>
</g>
<!-- Node2&#45;&gt;Node3 -->
<g id="edge3" class="edge"><title>Node2&#45;&gt;Node3</title>
<path fill="none" stroke="midnightblue" d="M713.917,-369.37C740.602,-364.441 782.76,-352.099 802.206,-322 818.51,-296.764 786.013,-228.66 781.206,-224 766.557,-209.801 719.443,-197.626 679.939,-189.534"/>
<polygon fill="midnightblue" stroke="midnightblue" points="680.575,-186.092 670.084,-187.566 679.204,-192.957 680.575,-186.092"/>
</g>
<!-- Node6 -->
<g id="node7" class="node"><title>Node6</title>
<g id="a_node7"><a xlink:title=" ">
<polygon fill="white" stroke="#bfbfbf" points="160.206,-0.5 160.206,-19.5 212.206,-19.5 212.206,-0.5 160.206,-0.5"/>
<text text-anchor="middle" x="186.206" y="-7.5" font-family="Helvetica,sans-Serif" font-size="10.00">stddef.h</text>
</a>
</g>
</g>
<!-- Node2&#45;&gt;Node6 -->
<g id="edge26" class="edge"><title>Node2&#45;&gt;Node6</title>
<path fill="none" stroke="midnightblue" d="M666.674,-372.201C594.341,-370.841 376.857,-363.328 322.206,-322 223.032,-247.004 194.951,-84.3715 188.142,-29.5043"/>
<polygon fill="midnightblue" stroke="midnightblue" points="191.612,-29.038 186.995,-19.5023 184.658,-29.8362 191.612,-29.038"/>
</g>
<!-- Node7 -->
<g id="node8" class="node"><title>Node7</title>
<g id="a_node8"><a xlink:title=" ">
<polygon fill="white" stroke="#bfbfbf" points="774.706,-0.5 774.706,-19.5 823.706,-19.5 823.706,-0.5 774.706,-0.5"/>
<text text-anchor="middle" x="799.206" y="-7.5" font-family="Helvetica,sans-Serif" font-size="10.00">stdint.h</text>
</a>
</g>
</g>
<!-- Node2&#45;&gt;Node7 -->
<g id="edge27" class="edge"><title>Node2&#45;&gt;Node7</title>
<path fill="none" stroke="midnightblue" d="M713.982,-371.211C776.659,-367.393 944.563,-354.325 988.206,-322 1041.71,-282.369 1039.91,-252.804 1055.21,-188 1080.05,-82.7777 909.667,-33.91 834.06,-17.5835"/>
<polygon fill="midnightblue" stroke="midnightblue" points="834.555,-14.1114 824.05,-15.4932 833.124,-20.9636 834.555,-14.1114"/>
</g>
<!-- Node11 -->
<g id="node12" class="node"><title>Node11</title>
<g id="a_node12"><a xlink:href="Error_8hpp.html" target="_top" xlink:title=" ">
<polygon fill="white" stroke="black" points="503.706,-230 503.706,-249 596.706,-249 596.706,-230 503.706,-230"/>
<text text-anchor="middle" x="550.206" y="-237" font-family="Helvetica,sans-Serif" font-size="10.00">Helpers/Error.hpp</text>
</a>
</g>
</g>
<!-- Node2&#45;&gt;Node11 -->
<g id="edge12" class="edge"><title>Node2&#45;&gt;Node11</title>
<path fill="none" stroke="midnightblue" d="M666.409,-368.83C639.367,-363.393 595.806,-350.573 571.206,-322 556.119,-304.477 551.66,-277.475 550.454,-259.409"/>
<polygon fill="midnightblue" stroke="midnightblue" points="553.945,-259.103 550.055,-249.248 546.95,-259.378 553.945,-259.103"/>
</g>
<!-- Node12 -->
<g id="node13" class="node"><title>Node12</title>
<g id="a_node13"><a xlink:href="LinkedList_8hpp.html" target="_top" xlink:title=" ">
<polygon fill="white" stroke="black" points="849.206,-230 849.206,-249 965.206,-249 965.206,-230 849.206,-230"/>
<text text-anchor="middle" x="907.206" y="-237" font-family="Helvetica,sans-Serif" font-size="10.00">Helpers/LinkedList.hpp</text>
</a>
</g>
</g>
<!-- Node2&#45;&gt;Node12 -->
<g id="edge14" class="edge"><title>Node2&#45;&gt;Node12</title>
<path fill="none" stroke="midnightblue" d="M713.978,-371.969C775.671,-370.041 938.374,-361.258 971.206,-322 990.615,-298.791 956.905,-270.904 931.489,-254.501"/>
<polygon fill="midnightblue" stroke="midnightblue" points="933.29,-251.499 922.946,-249.204 929.601,-257.448 933.29,-251.499"/>
</g>
<!-- Node13 -->
<g id="node14" class="node"><title>Node13</title>
<g id="a_node14"><a xlink:href="Selectable_8hpp.html" target="_top" xlink:title=" ">
<polygon fill="white" stroke="black" points="331.706,-297 331.706,-316 456.706,-316 456.706,-297 331.706,-297"/>
<text text-anchor="middle" x="394.206" y="-304" font-family="Helvetica,sans-Serif" font-size="10.00">Selectors/Selectable.hpp</text>
</a>
</g>
</g>
<!-- Node2&#45;&gt;Node13 -->
<g id="edge17" class="edge"><title>Node2&#45;&gt;Node13</title>
<path fill="none" stroke="midnightblue" d="M666.483,-367.291C618.106,-356.667 507.209,-332.315 442.861,-318.184"/>
<polygon fill="midnightblue" stroke="midnightblue" points="443.467,-314.734 432.949,-316.008 441.966,-321.571 443.467,-314.734"/>
</g>
<!-- Node17 -->
<g id="node18" class="node"><title>Node17</title>
<g id="a_node18"><a xlink:href="BankableMIDIInputAddressable_8hpp.html" target="_top" xlink:title=" ">
<polygon fill="white" stroke="black" points="589.206,-297 589.206,-316 793.206,-316 793.206,-297 589.206,-297"/>
<text text-anchor="middle" x="691.206" y="-304" font-family="Helvetica,sans-Serif" font-size="10.00">Banks/BankableMIDIInputAddressable.hpp</text>
</a>
</g>
</g>
<!-- Node2&#45;&gt;Node17 -->
<g id="edge28" class="edge"><title>Node2&#45;&gt;Node17</title>
<path fill="none" stroke="midnightblue" d="M685.552,-363.734C683.689,-354.183 683.463,-338.618 684.732,-326.283"/>
<polygon fill="midnightblue" stroke="midnightblue" points="688.233,-326.547 686.314,-316.127 681.317,-325.47 688.233,-326.547"/>
</g>
<!-- Node4 -->
<g id="node5" class="node"><title>Node4</title>
<g id="a_node5"><a xlink:href="SettingsWrapper_8h.html" target="_top" xlink:title=" ">
<polygon fill="white" stroke="black" points="415.706,-112.5 415.706,-131.5 552.706,-131.5 552.706,-112.5 415.706,-112.5"/>
<text text-anchor="middle" x="484.206" y="-119.5" font-family="Helvetica,sans-Serif" font-size="10.00">Settings/SettingsWrapper.h</text>
</a>
</g>
</g>
<!-- Node3&#45;&gt;Node4 -->
<g id="edge4" class="edge"><title>Node3&#45;&gt;Node4</title>
<path fill="none" stroke="midnightblue" d="M593.567,-168.444C569.236,-159.557 533.76,-145.563 509.775,-135.451"/>
<polygon fill="midnightblue" stroke="midnightblue" points="511.145,-132.231 500.574,-131.516 508.392,-138.667 511.145,-132.231"/>
</g>
<!-- Node8 -->
<g id="node9" class="node"><title>Node8</title>
<g id="a_node9"><a xlink:title=" ">
<polygon fill="white" stroke="#bfbfbf" points="677.206,-112.5 677.206,-131.5 725.206,-131.5 725.206,-112.5 677.206,-112.5"/>
<text text-anchor="middle" x="701.206" y="-119.5" font-family="Helvetica,sans-Serif" font-size="10.00">stdlib.h</text>
</a>
</g>
</g>
<!-- Node3&#45;&gt;Node8 -->
<g id="edge9" class="edge"><title>Node3&#45;&gt;Node8</title>
<path fill="none" stroke="midnightblue" d="M633.22,-168.324C645.737,-159.979 664.887,-147.212 679.677,-137.352"/>
<polygon fill="midnightblue" stroke="midnightblue" points="681.845,-140.114 688.224,-131.655 677.962,-134.289 681.845,-140.114"/>
</g>
<!-- Node9 -->
<g id="node10" class="node"><title>Node9</title>
<g id="a_node10"><a xlink:href="PrintStream_8h.html" target="_top" xlink:title=" ">
<polygon fill="white" stroke="black" points="581.706,-112.5 581.706,-131.5 658.706,-131.5 658.706,-112.5 581.706,-112.5"/>
<text text-anchor="middle" x="620.206" y="-119.5" font-family="Helvetica,sans-Serif" font-size="10.00">PrintStream.h</text>
</a>
</g>
</g>
<!-- Node3&#45;&gt;Node9 -->
<g id="edge10" class="edge"><title>Node3&#45;&gt;Node9</title>
<path fill="none" stroke="midnightblue" d="M620.206,-168.083C620.206,-161.006 620.206,-150.861 620.206,-141.986"/>
<polygon fill="midnightblue" stroke="midnightblue" points="623.706,-141.751 620.206,-131.751 616.706,-141.751 623.706,-141.751"/>
</g>
<!-- Node4&#45;&gt;Node3 -->
<g id="edge8" class="edge"><title>Node4&#45;&gt;Node3</title>
<path fill="none" stroke="midnightblue" d="M510.734,-131.516C535.032,-140.388 570.509,-154.38 594.528,-164.503"/>
<polygon fill="midnightblue" stroke="midnightblue" points="593.174,-167.73 603.745,-168.444 595.926,-161.294 593.174,-167.73"/>
</g>
<!-- Node5 -->
<g id="node6" class="node"><title>Node5</title>
<g id="a_node6"><a xlink:href="Settings_8h.html" target="_top" xlink:title="All user settings and debugging options can be changed here.">
<polygon fill="white" stroke="black" points="276.706,-56.5 276.706,-75.5 337.706,-75.5 337.706,-56.5 276.706,-56.5"/>
<text text-anchor="middle" x="307.206" y="-63.5" font-family="Helvetica,sans-Serif" font-size="10.00">Settings.h</text>
</a>
</g>
</g>
<!-- Node4&#45;&gt;Node5 -->
<g id="edge5" class="edge"><title>Node4&#45;&gt;Node5</title>
<path fill="none" stroke="midnightblue" d="M456.159,-112.444C426.124,-103.28 378.293,-88.6876 344.963,-78.5192"/>
<polygon fill="midnightblue" stroke="midnightblue" points="345.707,-75.0869 335.121,-75.5164 343.664,-81.7822 345.707,-75.0869"/>
</g>
<!-- Node5&#45;&gt;Node6 -->
<g id="edge6" class="edge"><title>Node5&#45;&gt;Node6</title>
<path fill="none" stroke="midnightblue" d="M288.033,-56.4435C268.297,-47.6356 237.32,-33.8116 214.712,-23.722"/>
<polygon fill="midnightblue" stroke="midnightblue" points="215.847,-20.3957 205.289,-19.5164 212.994,-26.788 215.847,-20.3957"/>
</g>
<!-- Node5&#45;&gt;Node7 -->
<g id="edge7" class="edge"><title>Node5&#45;&gt;Node7</title>
<path fill="none" stroke="midnightblue" d="M338.122,-58.4066C342.827,-57.5221 347.636,-56.6854 352.206,-56 504.756,-33.1215 688.386,-18.735 764.027,-13.3742"/>
<polygon fill="midnightblue" stroke="midnightblue" points="764.656,-16.8388 774.387,-12.6488 764.167,-9.85593 764.656,-16.8388"/>
</g>
<!-- Node10 -->
<g id="node11" class="node"><title>Node10</title>
<g id="a_node11"><a xlink:title=" ">
<polygon fill="white" stroke="#bfbfbf" points="870.206,-56.5 870.206,-75.5 928.206,-75.5 928.206,-56.5 870.206,-56.5"/>
<text text-anchor="middle" x="899.206" y="-63.5" font-family="Helvetica,sans-Serif" font-size="10.00">Arduino.h</text>
</a>
</g>
</g>
<!-- Node9&#45;&gt;Node10 -->
<g id="edge11" class="edge"><title>Node9&#45;&gt;Node10</title>
<path fill="none" stroke="midnightblue" d="M658.706,-113.548C711.681,-103.295 806.536,-84.936 859.92,-74.6036"/>
<polygon fill="midnightblue" stroke="midnightblue" points="860.867,-77.9854 870.02,-72.6489 859.537,-71.113 860.867,-77.9854"/>
</g>
<!-- Node11&#45;&gt;Node3 -->
<g id="edge13" class="edge"><title>Node11&#45;&gt;Node3</title>
<path fill="none" stroke="midnightblue" d="M560.235,-229.975C571.255,-220.608 589.166,-205.384 602.549,-194.008"/>
<polygon fill="midnightblue" stroke="midnightblue" points="604.842,-196.652 610.195,-187.509 600.309,-191.319 604.842,-196.652"/>
</g>
<!-- Node12&#45;&gt;Node3 -->
<g id="edge16" class="edge"><title>Node12&#45;&gt;Node3</title>
<path fill="none" stroke="midnightblue" d="M866.086,-229.975C814.724,-219.327 726.85,-201.109 671.241,-189.581"/>
<polygon fill="midnightblue" stroke="midnightblue" points="671.752,-186.112 661.249,-187.509 670.331,-192.966 671.752,-186.112"/>
</g>
<!-- Node12&#45;&gt;Node8 -->
<g id="edge15" class="edge"><title>Node12&#45;&gt;Node8</title>
<path fill="none" stroke="midnightblue" d="M866.903,-229.988C814.61,-218.604 728.775,-198.625 718.206,-188 706.262,-175.993 702.398,-156.699 701.291,-142.244"/>
<polygon fill="midnightblue" stroke="midnightblue" points="704.775,-141.779 700.892,-131.922 697.78,-142.05 704.775,-141.779"/>
</g>
<!-- Node13&#45;&gt;Node7 -->
<g id="edge24" class="edge"><title>Node13&#45;&gt;Node7</title>
<path fill="none" stroke="midnightblue" d="M411.812,-296.87C426.723,-288.476 447.089,-274.184 456.206,-255 485.105,-194.189 364.946,-165.205 406.206,-112 450.594,-54.7616 677.258,-24.3088 764.718,-14.5427"/>
<polygon fill="midnightblue" stroke="midnightblue" points="765.112,-18.0205 774.672,-13.4538 764.351,-11.062 765.112,-18.0205"/>
</g>
<!-- Node13&#45;&gt;Node11 -->
<g id="edge23" class="edge"><title>Node13&#45;&gt;Node11</title>
<path fill="none" stroke="midnightblue" d="M414.921,-296.869C441.845,-285.65 489.062,-265.977 519.984,-253.092"/>
<polygon fill="midnightblue" stroke="midnightblue" points="521.52,-256.244 529.404,-249.167 518.827,-249.783 521.52,-256.244"/>
</g>
<!-- Node13&#45;&gt;Node14 -->
<g id="edge18" class="edge"><title>Node13&#45;&gt;Node14</title>
<path fill="none" stroke="midnightblue" d="M359.289,-296.936C311.723,-285.268 226.509,-264.367 174.201,-251.537"/>
<polygon fill="midnightblue" stroke="midnightblue" points="174.746,-248.066 164.2,-249.083 173.078,-254.865 174.746,-248.066"/>
</g>
<!-- Node16 -->
<g id="node17" class="node"><title>Node16</title>
<g id="a_node17"><a xlink:href="Helpers_8hpp.html" target="_top" xlink:title=" ">
<polygon fill="white" stroke="black" points="341.206,-230 341.206,-249 447.206,-249 447.206,-230 341.206,-230"/>
<text text-anchor="middle" x="394.206" y="-237" font-family="Helvetica,sans-Serif" font-size="10.00">Helpers/Helpers.hpp</text>
</a>
</g>
</g>
<!-- Node13&#45;&gt;Node16 -->
<g id="edge25" class="edge"><title>Node13&#45;&gt;Node16</title>
<path fill="none" stroke="midnightblue" d="M394.206,-296.734C394.206,-287.183 394.206,-271.618 394.206,-259.283"/>
<polygon fill="midnightblue" stroke="midnightblue" points="397.706,-259.127 394.206,-249.127 390.706,-259.127 397.706,-259.127"/>
</g>
<!-- Node14&#45;&gt;Node6 -->
<g id="edge21" class="edge"><title>Node14&#45;&gt;Node6</title>
<path fill="none" stroke="midnightblue" d="M121.555,-229.731C98.305,-201.978 32.4351,-114.456 72.2057,-56 89.4816,-30.6073 123.517,-19.5432 149.921,-14.7224"/>
<polygon fill="midnightblue" stroke="midnightblue" points="150.654,-18.1498 159.975,-13.1138 149.548,-11.2377 150.654,-18.1498"/>
</g>
<!-- Node14&#45;&gt;Node7 -->
<g id="edge22" class="edge"><title>Node14&#45;&gt;Node7</title>
<path fill="none" stroke="midnightblue" d="M132.582,-229.982C145.05,-199.811 191.721,-97.6182 267.206,-56 310.651,-32.0466 653.512,-16.6846 764.598,-12.2971"/>
<polygon fill="midnightblue" stroke="midnightblue" points="764.751,-15.7939 774.607,-11.9069 764.478,-8.79925 764.751,-15.7939"/>
</g>
<!-- Node15 -->
<g id="node16" class="node"><title>Node15</title>
<g id="a_node16"><a xlink:href="Array_8hpp.html" target="_top" xlink:title=" ">
<polygon fill="white" stroke="black" points="81.7057,-56.5 81.7057,-75.5 176.706,-75.5 176.706,-56.5 81.7057,-56.5"/>
<text text-anchor="middle" x="129.206" y="-63.5" font-family="Helvetica,sans-Serif" font-size="10.00">Helpers/Array.hpp</text>
</a>
</g>
</g>
<!-- Node14&#45;&gt;Node15 -->
<g id="edge19" class="edge"><title>Node14&#45;&gt;Node15</title>
<path fill="none" stroke="midnightblue" d="M129.206,-229.76C129.206,-203.151 129.206,-122.715 129.206,-85.8382"/>
<polygon fill="midnightblue" stroke="midnightblue" points="132.706,-85.5193 129.206,-75.5194 125.706,-85.5194 132.706,-85.5193"/>
</g>
<!-- Node15&#45;&gt;Node6 -->
<g id="edge20" class="edge"><title>Node15&#45;&gt;Node6</title>
<path fill="none" stroke="midnightblue" d="M138.364,-56.324C146.707,-48.4196 159.238,-36.5482 169.383,-26.9377"/>
<polygon fill="midnightblue" stroke="midnightblue" points="172.029,-29.2522 176.881,-19.8339 167.214,-24.1705 172.029,-29.2522"/>
</g>
<!-- Node17&#45;&gt;Node2 -->
<g id="edge29" class="edge"><title>Node17&#45;&gt;Node2</title>
<path fill="none" stroke="midnightblue" d="M695.832,-316.127C697.711,-325.62 697.952,-341.17 696.697,-353.537"/>
<polygon fill="midnightblue" stroke="midnightblue" points="693.19,-353.318 695.129,-363.734 700.109,-354.382 693.19,-353.318"/>
</g>
<!-- Node17&#45;&gt;Node3 -->
<g id="edge32" class="edge"><title>Node17&#45;&gt;Node3</title>
<path fill="none" stroke="midnightblue" d="M713.567,-296.906C730.873,-288.923 753.617,-275.201 764.206,-255 770.602,-242.797 772.367,-235.101 764.206,-224 753.534,-209.485 712.75,-197.575 677.297,-189.662"/>
<polygon fill="midnightblue" stroke="midnightblue" points="677.982,-186.23 667.468,-187.538 676.503,-193.072 677.982,-186.23"/>
</g>
<!-- Node17&#45;&gt;Node12 -->
<g id="edge33" class="edge"><title>Node17&#45;&gt;Node12</title>
<path fill="none" stroke="midnightblue" d="M719.889,-296.869C758.242,-285.327 826.337,-264.835 869.005,-251.996"/>
<polygon fill="midnightblue" stroke="midnightblue" points="870.181,-255.297 878.748,-249.064 868.164,-248.594 870.181,-255.297"/>
</g>
<!-- Node18 -->
<g id="node19" class="node"><title>Node18</title>
<g id="a_node19"><a xlink:href="BankConfigAddressable_8hpp.html" target="_top" xlink:title=" ">
<polygon fill="white" stroke="black" points="615.206,-230 615.206,-249 755.206,-249 755.206,-230 615.206,-230"/>
<text text-anchor="middle" x="685.206" y="-237" font-family="Helvetica,sans-Serif" font-size="10.00">BankConfigAddressable.hpp</text>
</a>
</g>
</g>
<!-- Node17&#45;&gt;Node18 -->
<g id="edge30" class="edge"><title>Node17&#45;&gt;Node18</title>
<path fill="none" stroke="midnightblue" d="M690.396,-296.734C689.515,-287.183 688.078,-271.618 686.939,-259.283"/>
<polygon fill="midnightblue" stroke="midnightblue" points="690.406,-258.763 686.002,-249.127 683.436,-259.407 690.406,-258.763"/>
</g>
<!-- Node18&#45;&gt;Node2 -->
<g id="edge31" class="edge"><title>Node18&#45;&gt;Node2</title>
<path fill="none" stroke="midnightblue" d="M643.842,-249.061C620.853,-256.161 594.148,-268.823 580.206,-291 572.872,-302.664 572.768,-310.402 580.206,-322 596.929,-348.079 630.873,-360.869 656.656,-367.027"/>
<polygon fill="midnightblue" stroke="midnightblue" points="655.919,-370.448 666.433,-369.144 657.401,-363.607 655.919,-370.448"/>
</g>
<!-- Node19&#45;&gt;Node2 -->
<g id="edge35" class="edge"><title>Node19&#45;&gt;Node2</title>
<path fill="none" stroke="midnightblue" d="M559.442,-425.396C589.133,-413.84 630.712,-397.656 658.956,-386.663"/>
<polygon fill="midnightblue" stroke="midnightblue" points="660.3,-389.896 668.349,-383.007 657.761,-383.373 660.3,-389.896"/>
</g>
<!-- Node19&#45;&gt;Node18 -->
<g id="edge36" class="edge"><title>Node19&#45;&gt;Node18</title>
<path fill="none" stroke="midnightblue" d="M524.023,-425.354C526.409,-396.544 535.664,-330.459 571.206,-291 588.305,-272.015 613.871,-259.802 636.461,-252.151"/>
<polygon fill="midnightblue" stroke="midnightblue" points="637.782,-255.404 646.258,-249.047 635.667,-248.731 637.782,-255.404"/>
</g>
<!-- Node20&#45;&gt;Node4 -->
<g id="edge49" class="edge"><title>Node20&#45;&gt;Node4</title>
<path fill="none" stroke="midnightblue" d="M901.005,-432.286C743.892,-414.498 358.873,-366.727 322.206,-322 309.326,-306.289 319.427,-242.822 332.206,-224 350.104,-197.638 367.479,-205.349 394.206,-188 419.352,-171.676 447.167,-151.192 465.124,-137.63"/>
<polygon fill="midnightblue" stroke="midnightblue" points="467.246,-140.413 473.092,-131.577 463.012,-134.839 467.246,-140.413"/>
</g>
<!-- Node20&#45;&gt;Node14 -->
<g id="edge39" class="edge"><title>Node20&#45;&gt;Node14</title>
<path fill="none" stroke="midnightblue" d="M901.021,-432.809C704.76,-412.654 137.996,-352.066 112.206,-322 96.9608,-304.227 107.818,-276.311 117.846,-258.207"/>
<polygon fill="midnightblue" stroke="midnightblue" points="121.05,-259.667 123.162,-249.285 115.037,-256.085 121.05,-259.667"/>
</g>
<!-- Node21 -->
<g id="node22" class="node"><title>Node21</title>
<g id="a_node22"><a xlink:href="ExtendedInputOutput_8h.html" target="_top" xlink:title=" ">
<polygon fill="white" stroke="black" points="890.206,-358.5 890.206,-388.5 1044.21,-388.5 1044.21,-358.5 890.206,-358.5"/>
<text text-anchor="start" x="898.206" y="-376.5" font-family="Helvetica,sans-Serif" font-size="10.00">Hardware/ExtendedInputOutput</text>
<text text-anchor="middle" x="967.206" y="-365.5" font-family="Helvetica,sans-Serif" font-size="10.00">/ExtendedInputOutput.h</text>
</a>
</g>
</g>
<!-- Node20&#45;&gt;Node21 -->
<g id="edge40" class="edge"><title>Node20&#45;&gt;Node21</title>
<path fill="none" stroke="midnightblue" d="M967.206,-430.734C967.206,-422.541 967.206,-409.923 967.206,-398.714"/>
<polygon fill="midnightblue" stroke="midnightblue" points="970.706,-398.589 967.206,-388.589 963.706,-398.589 970.706,-398.589"/>
</g>
<!-- Node23 -->
<g id="node24" class="node"><title>Node23</title>
<g id="a_node24"><a xlink:href="EMA_8h.html" target="_top" xlink:title=" ">
<polygon fill="white" stroke="black" points="1167.71,-56.5 1167.71,-75.5 1250.71,-75.5 1250.71,-56.5 1167.71,-56.5"/>
<text text-anchor="middle" x="1209.21" y="-63.5" font-family="Helvetica,sans-Serif" font-size="10.00">Helpers/EMA.h</text>
</a>
</g>
</g>
<!-- Node20&#45;&gt;Node23 -->
<g id="edge45" class="edge"><title>Node20&#45;&gt;Node23</title>
<path fill="none" stroke="midnightblue" d="M1033.23,-438.985C1123.18,-434.401 1273.21,-411.209 1273.21,-307.5 1273.21,-307.5 1273.21,-307.5 1273.21,-177 1273.21,-139.327 1244.81,-103.04 1225.85,-83.0052"/>
<polygon fill="midnightblue" stroke="midnightblue" points="1228.16,-80.3599 1218.65,-75.6885 1223.17,-85.2705 1228.16,-80.3599"/>
</g>
<!-- Node24 -->
<g id="node25" class="node"><title>Node24</title>
<g id="a_node25"><a xlink:href="Hysteresis_8h.html" target="_top" xlink:title=" ">
<polygon fill="white" stroke="black" points="1371.71,-56.5 1371.71,-75.5 1480.71,-75.5 1480.71,-56.5 1371.71,-56.5"/>
<text text-anchor="middle" x="1426.21" y="-63.5" font-family="Helvetica,sans-Serif" font-size="10.00">Helpers/Hysteresis.h</text>
</a>
</g>
</g>
<!-- Node20&#45;&gt;Node24 -->
<g id="edge47" class="edge"><title>Node20&#45;&gt;Node24</title>
<path fill="none" stroke="midnightblue" d="M1033.33,-437.808C1181.89,-432.214 1529.21,-408.351 1529.21,-307.5 1529.21,-307.5 1529.21,-307.5 1529.21,-177 1529.21,-132.426 1483.58,-98.4604 1453.07,-80.726"/>
<polygon fill="midnightblue" stroke="midnightblue" points="1454.58,-77.5656 1444.15,-75.7495 1451.17,-83.6785 1454.58,-77.5656"/>
</g>
<!-- Node25 -->
<g id="node26" class="node"><title>Node25</title>
<g id="a_node26"><a xlink:href="Control__Surface__Class_8h.html" target="_top" xlink:title=" ">
<polygon fill="white" stroke="black" points="1301.21,-291.5 1301.21,-321.5 1423.21,-321.5 1423.21,-291.5 1301.21,-291.5"/>
<text text-anchor="start" x="1309.21" y="-309.5" font-family="Helvetica,sans-Serif" font-size="10.00">Control_Surface/Control</text>
<text text-anchor="middle" x="1362.21" y="-298.5" font-family="Helvetica,sans-Serif" font-size="10.00">_Surface_Class.h</text>
</a>
</g>
</g>
<!-- Node20&#45;&gt;Node25 -->
<g id="edge50" class="edge"><title>Node20&#45;&gt;Node25</title>
<path fill="none" stroke="midnightblue" d="M1033.48,-434.197C1114.02,-426.87 1244.44,-411.903 1287.21,-389 1312.96,-375.206 1334.56,-349.077 1347.87,-330.114"/>
<polygon fill="midnightblue" stroke="midnightblue" points="1350.84,-331.964 1353.55,-321.721 1345.05,-328.04 1350.84,-331.964"/>
</g>
<!-- Node21&#45;&gt;Node10 -->
<g id="edge44" class="edge"><title>Node21&#45;&gt;Node10</title>
<path fill="none" stroke="midnightblue" d="M974.843,-358.393C979.738,-348.521 985.64,-334.85 988.206,-322 990.903,-308.489 989.622,-304.705 988.206,-291 985.078,-260.74 991.451,-249.061 974.206,-224 957.432,-199.625 934.361,-212.788 918.206,-188 897.766,-156.639 896.453,-111.192 897.626,-85.8614"/>
<polygon fill="midnightblue" stroke="midnightblue" points="901.127,-85.9667 898.281,-75.7613 894.141,-85.514 901.127,-85.9667"/>
</g>
<!-- Node22 -->
<g id="node23" class="node"><title>Node22</title>
<g id="a_node23"><a xlink:href="ExtendedIOElement_8h.html" target="_top" xlink:title=" ">
<polygon fill="white" stroke="black" points="849.706,-297 849.706,-316 962.706,-316 962.706,-297 849.706,-297"/>
<text text-anchor="middle" x="906.206" y="-304" font-family="Helvetica,sans-Serif" font-size="10.00">ExtendedIOElement.h</text>
</a>
</g>
</g>
<!-- Node21&#45;&gt;Node22 -->
<g id="edge41" class="edge"><title>Node21&#45;&gt;Node22</title>
<path fill="none" stroke="midnightblue" d="M953.97,-358.396C944.364,-348.161 931.353,-334.296 921.336,-323.622"/>
<polygon fill="midnightblue" stroke="midnightblue" points="923.76,-321.091 914.365,-316.195 918.656,-325.882 923.76,-321.091"/>
</g>
<!-- Node22&#45;&gt;Node12 -->
<g id="edge43" class="edge"><title>Node22&#45;&gt;Node12</title>
<path fill="none" stroke="midnightblue" d="M906.341,-296.734C906.487,-287.183 906.727,-271.618 906.917,-259.283"/>
<polygon fill="midnightblue" stroke="midnightblue" points="910.419,-259.18 907.073,-249.127 903.419,-259.072 910.419,-259.18"/>
</g>
<!-- Node22&#45;&gt;Node14 -->
<g id="edge42" class="edge"><title>Node22&#45;&gt;Node14</title>
<path fill="none" stroke="midnightblue" d="M849.883,-296.981C834.45,-294.829 817.704,-292.66 802.206,-291 740.191,-284.357 315.776,-253.83 174.695,-243.744"/>
<polygon fill="midnightblue" stroke="midnightblue" points="174.87,-240.248 164.646,-243.026 174.371,-247.23 174.87,-240.248"/>
</g>
<!-- Node23&#45;&gt;Node7 -->
<g id="edge46" class="edge"><title>Node23&#45;&gt;Node7</title>
<path fill="none" stroke="midnightblue" d="M1167.64,-59.525C1086.72,-48.868 909.414,-25.5152 834.127,-15.5994"/>
<polygon fill="midnightblue" stroke="midnightblue" points="834.155,-12.0729 823.783,-14.237 833.24,-19.013 834.155,-12.0729"/>
</g>
<!-- Node24&#45;&gt;Node7 -->
<g id="edge48" class="edge"><title>Node24&#45;&gt;Node7</title>
<path fill="none" stroke="midnightblue" d="M1371.66,-60.3023C1245.77,-49.4598 937.773,-22.934 833.994,-13.9961"/>
<polygon fill="midnightblue" stroke="midnightblue" points="834.023,-10.4858 823.76,-13.1147 833.423,-17.46 834.023,-10.4858"/>
</g>
<!-- Node26 -->
<g id="node27" class="node"><title>Node26</title>
<g id="a_node27"><a xlink:href="MIDI__Interface_8h.html" target="_top" xlink:title=" ">
<polygon fill="white" stroke="black" points="1095.21,-224.5 1095.21,-254.5 1207.21,-254.5 1207.21,-224.5 1095.21,-224.5"/>
<text text-anchor="start" x="1103.21" y="-242.5" font-family="Helvetica,sans-Serif" font-size="10.00">MIDI_Interfaces/MIDI</text>
<text text-anchor="middle" x="1151.21" y="-231.5" font-family="Helvetica,sans-Serif" font-size="10.00">_Interface.h</text>
</a>
</g>
</g>
<!-- Node25&#45;&gt;Node26 -->
<g id="edge51" class="edge"><title>Node25&#45;&gt;Node26</title>
<path fill="none" stroke="midnightblue" d="M1316.68,-291.476C1284.48,-281.557 1241.13,-268.201 1206.87,-257.648"/>
<polygon fill="midnightblue" stroke="midnightblue" points="1207.6,-254.21 1197.01,-254.611 1205.54,-260.9 1207.6,-254.21"/>
</g>
<!-- Node28 -->
<g id="node29" class="node"><title>Node28</title>
<g id="a_node29"><a xlink:href="DisplayElement_8hpp.html" target="_top" xlink:title=" ">
<polygon fill="white" stroke="black" points="1301.21,-230 1301.21,-249 1441.21,-249 1441.21,-230 1301.21,-230"/>
<text text-anchor="middle" x="1371.21" y="-237" font-family="Helvetica,sans-Serif" font-size="10.00">Display/DisplayElement.hpp</text>
</a>
</g>
</g>
<!-- Node25&#45;&gt;Node28 -->
<g id="edge57" class="edge"><title>Node25&#45;&gt;Node28</title>
<path fill="none" stroke="midnightblue" d="M1364.16,-291.396C1365.46,-281.963 1367.2,-269.448 1368.62,-259.189"/>
<polygon fill="midnightblue" stroke="midnightblue" points="1372.1,-259.58 1370,-249.195 1365.16,-258.62 1372.1,-259.58"/>
</g>
<!-- Node29 -->
<g id="node30" class="node"><title>Node29</title>
<g id="a_node30"><a xlink:href="DisplayInterface_8hpp.html" target="_top" xlink:title=" ">
<polygon fill="white" stroke="black" points="1357.71,-168.5 1357.71,-187.5 1500.71,-187.5 1500.71,-168.5 1357.71,-168.5"/>
<text text-anchor="middle" x="1429.21" y="-175.5" font-family="Helvetica,sans-Serif" font-size="10.00">Display/DisplayInterface.hpp</text>
</a>
</g>
</g>
<!-- Node25&#45;&gt;Node29 -->
<g id="edge62" class="edge"><title>Node25&#45;&gt;Node29</title>
<path fill="none" stroke="midnightblue" d="M1405.95,-291.32C1422.88,-283.449 1440.5,-271.768 1450.21,-255 1460.89,-236.557 1450.81,-212.438 1441.27,-196.367"/>
<polygon fill="midnightblue" stroke="midnightblue" points="1443.94,-194.048 1435.59,-187.524 1438.05,-197.83 1443.94,-194.048"/>
</g>
<!-- Node32 -->
<g id="node33" class="node"><title>Node32</title>
<g id="a_node33"><a xlink:href="MillisTimer_8hpp.html" target="_top" xlink:title=" ">
<polygon fill="white" stroke="black" points="927.706,-168.5 927.706,-187.5 1046.71,-187.5 1046.71,-168.5 927.706,-168.5"/>
<text text-anchor="middle" x="987.206" y="-175.5" font-family="Helvetica,sans-Serif" font-size="10.00">Helpers/MillisTimer.hpp</text>
</a>
</g>
</g>
<!-- Node25&#45;&gt;Node32 -->
<g id="edge63" class="edge"><title>Node25&#45;&gt;Node32</title>
<path fill="none" stroke="midnightblue" d="M1341.93,-291.44C1314.61,-273.156 1263.9,-241.495 1216.21,-224 1164.47,-205.02 1103.06,-193.506 1056.86,-186.881"/>
<polygon fill="midnightblue" stroke="midnightblue" points="1057.34,-183.414 1046.95,-185.501 1056.37,-190.347 1057.34,-183.414"/>
</g>
<!-- Node27 -->
<g id="node28" class="node"><title>Node27</title>
<g id="a_node28"><a xlink:href="MIDI__Parser_8h.html" target="_top" xlink:title=" ">
<polygon fill="white" stroke="black" points="727.206,-168.5 727.206,-187.5 871.206,-187.5 871.206,-168.5 727.206,-168.5"/>
<text text-anchor="middle" x="799.206" y="-175.5" font-family="Helvetica,sans-Serif" font-size="10.00">MIDI_Parsers/MIDI_Parser.h</text>
</a>
</g>
</g>
<!-- Node26&#45;&gt;Node27 -->
<g id="edge52" class="edge"><title>Node26&#45;&gt;Node27</title>
<path fill="none" stroke="midnightblue" d="M1095.04,-229.006C1030.83,-218.153 926.099,-200.449 860.011,-189.278"/>
<polygon fill="midnightblue" stroke="midnightblue" points="860.192,-185.759 849.748,-187.543 859.025,-192.661 860.192,-185.759"/>
</g>
<!-- Node27&#45;&gt;Node4 -->
<g id="edge56" class="edge"><title>Node27&#45;&gt;Node4</title>
<path fill="none" stroke="midnightblue" d="M749.293,-168.444C693.536,-158.885 603.319,-143.419 543.879,-133.23"/>
<polygon fill="midnightblue" stroke="midnightblue" points="544.332,-129.756 533.885,-131.516 543.15,-136.656 544.332,-129.756"/>
</g>
<!-- Node27&#45;&gt;Node6 -->
<g id="edge53" class="edge"><title>Node27&#45;&gt;Node6</title>
<path fill="none" stroke="midnightblue" d="M793.178,-168.175C782.889,-153.864 760.482,-125.808 734.206,-112 558.951,-19.9059 313.698,-10.5088 222.356,-10.4446"/>
<polygon fill="midnightblue" stroke="midnightblue" points="222.233,-6.94485 212.244,-10.4763 222.255,-13.9448 222.233,-6.94485"/>
</g>
<!-- Node27&#45;&gt;Node7 -->
<g id="edge54" class="edge"><title>Node27&#45;&gt;Node7</title>
<path fill="none" stroke="midnightblue" d="M799.206,-168.075C799.206,-141.945 799.206,-65.2106 799.206,-29.577"/>
<polygon fill="midnightblue" stroke="midnightblue" points="802.706,-29.5681 799.206,-19.5681 795.706,-29.5681 802.706,-29.5681"/>
</g>
<!-- Node27&#45;&gt;Node8 -->
<g id="edge55" class="edge"><title>Node27&#45;&gt;Node8</title>
<path fill="none" stroke="midnightblue" d="M783.46,-168.324C767.887,-159.743 743.828,-146.486 725.746,-136.522"/>
<polygon fill="midnightblue" stroke="midnightblue" points="727.36,-133.415 716.912,-131.655 723.981,-139.546 727.36,-133.415"/>
</g>
<!-- Node28&#45;&gt;Node29 -->
<g id="edge58" class="edge"><title>Node28&#45;&gt;Node29</title>
<path fill="none" stroke="midnightblue" d="M1379.52,-229.975C1388.39,-220.873 1402.65,-206.241 1413.63,-194.983"/>
<polygon fill="midnightblue" stroke="midnightblue" points="1416.44,-197.113 1420.91,-187.509 1411.42,-192.227 1416.44,-197.113"/>
</g>
<!-- Node30 -->
<g id="node31" class="node"><title>Node30</title>
<g id="a_node31"><a xlink:href="LinkedList_8h.html" target="_top" xlink:title=" ">
<polygon fill="white" stroke="black" points="1301.21,-112.5 1301.21,-131.5 1407.21,-131.5 1407.21,-112.5 1301.21,-112.5"/>
<text text-anchor="middle" x="1354.21" y="-119.5" font-family="Helvetica,sans-Serif" font-size="10.00">Helpers/LinkedList.h</text>
</a>
</g>
</g>
<!-- Node28&#45;&gt;Node30 -->
<g id="edge61" class="edge"><title>Node28&#45;&gt;Node30</title>
<path fill="none" stroke="midnightblue" d="M1366.16,-229.926C1360.73,-220.161 1352.44,-203.541 1349.21,-188 1345.99,-172.574 1347.75,-154.703 1350.03,-141.608"/>
<polygon fill="midnightblue" stroke="midnightblue" points="1353.52,-142.004 1352.05,-131.512 1346.65,-140.631 1353.52,-142.004"/>
</g>
<!-- Node29&#45;&gt;Node30 -->
<g id="edge59" class="edge"><title>Node29&#45;&gt;Node30</title>
<path fill="none" stroke="midnightblue" d="M1417.16,-168.324C1405.74,-160.107 1388.37,-147.602 1374.77,-137.807"/>
<polygon fill="midnightblue" stroke="midnightblue" points="1376.64,-134.837 1366.47,-131.834 1372.55,-140.517 1376.64,-134.837"/>
</g>
<!-- Node31 -->
<g id="node32" class="node"><title>Node31</title>
<g id="a_node32"><a xlink:title=" ">
<polygon fill="white" stroke="#bfbfbf" points="1425.71,-112.5 1425.71,-131.5 1470.71,-131.5 1470.71,-112.5 1425.71,-112.5"/>
<text text-anchor="middle" x="1448.21" y="-119.5" font-family="Helvetica,sans-Serif" font-size="10.00">Print.h</text>
</a>
</g>
</g>
<!-- Node29&#45;&gt;Node31 -->
<g id="edge60" class="edge"><title>Node29&#45;&gt;Node31</title>
<path fill="none" stroke="midnightblue" d="M1432.34,-168.083C1434.89,-160.849 1438.56,-150.409 1441.73,-141.397"/>
<polygon fill="midnightblue" stroke="midnightblue" points="1445.11,-142.346 1445.13,-131.751 1438.51,-140.023 1445.11,-142.346"/>
</g>
<!-- Node32&#45;&gt;Node10 -->
<g id="edge64" class="edge"><title>Node32&#45;&gt;Node10</title>
<path fill="none" stroke="midnightblue" d="M980.3,-168.368C965.714,-150.135 931.546,-107.426 912.546,-83.6752"/>
<polygon fill="midnightblue" stroke="midnightblue" points="915.059,-81.2137 906.079,-75.5914 909.593,-85.5866 915.059,-81.2137"/>
</g>
<!-- Node33&#45;&gt;Node14 -->
<g id="edge72" class="edge"><title>Node33&#45;&gt;Node14</title>
<path fill="none" stroke="midnightblue" d="M78.248,-358.327C74.3265,-341.56 70.1036,-313.13 79.2057,-291 85.1145,-276.634 97.3056,-264.183 108.17,-255.239"/>
<polygon fill="midnightblue" stroke="midnightblue" points="110.326,-257.997 116.094,-249.11 106.043,-252.46 110.326,-257.997"/>
</g>
<!-- Node34 -->
<g id="node35" class="node"><title>Node34</title>
<g id="a_node35"><a xlink:href="Updatable_8hpp.html" target="_top" xlink:title=" ">
<polygon fill="white" stroke="black" points="121.206,-297 121.206,-316 237.206,-316 237.206,-297 121.206,-297"/>
<text text-anchor="middle" x="179.206" y="-304" font-family="Helvetica,sans-Serif" font-size="10.00">Helpers/Updatable.hpp</text>
</a>
</g>
</g>
<!-- Node33&#45;&gt;Node34 -->
<g id="edge66" class="edge"><title>Node33&#45;&gt;Node34</title>
<path fill="none" stroke="midnightblue" d="M103.253,-358.396C119.52,-347.496 141.93,-332.479 158.189,-321.584"/>
<polygon fill="midnightblue" stroke="midnightblue" points="160.152,-324.481 166.511,-316.007 156.255,-318.666 160.152,-324.481"/>
</g>
<!-- Node34&#45;&gt;Node4 -->
<g id="edge69" class="edge"><title>Node34&#45;&gt;Node4</title>
<path fill="none" stroke="midnightblue" d="M191.214,-296.772C212.535,-281.406 258.582,-248.804 299.206,-224 354.681,-190.128 422.238,-154.635 458.403,-136.078"/>
<polygon fill="midnightblue" stroke="midnightblue" points="460.005,-139.191 467.315,-131.523 456.818,-132.958 460.005,-139.191"/>
</g>
<!-- Node34&#45;&gt;Node6 -->
<g id="edge70" class="edge"><title>Node34&#45;&gt;Node6</title>
<path fill="none" stroke="midnightblue" d="M147.972,-296.934C100.389,-281.764 15.2057,-245.343 15.2057,-179 15.2057,-179 15.2057,-179 15.2057,-121 15.2057,-57.4282 99.8326,-28.8619 150.019,-17.5106"/>
<polygon fill="midnightblue" stroke="midnightblue" points="150.816,-20.9194 159.862,-15.4038 149.351,-14.0744 150.816,-20.9194"/>
</g>
<!-- Node34&#45;&gt;Node11 -->
<g id="edge67" class="edge"><title>Node34&#45;&gt;Node11</title>
<path fill="none" stroke="midnightblue" d="M228.089,-296.936C296.681,-284.918 421.196,-263.103 493.683,-250.403"/>
<polygon fill="midnightblue" stroke="midnightblue" points="494.309,-253.847 503.555,-248.673 493.101,-246.952 494.309,-253.847"/>
</g>
<!-- Node34&#45;&gt;Node12 -->
<g id="edge68" class="edge"><title>Node34&#45;&gt;Node12</title>
<path fill="none" stroke="midnightblue" d="M237.277,-299.349C263.248,-296.665 294.249,-293.556 322.206,-291 518.482,-273.058 567.929,-272.942 764.206,-255 788.667,-252.764 815.461,-250.103 839.175,-247.676"/>
<polygon fill="midnightblue" stroke="midnightblue" points="839.545,-251.156 849.135,-246.651 838.829,-244.193 839.545,-251.156"/>
</g>
<!-- Node34&#45;&gt;Node14 -->
<g id="edge71" class="edge"><title>Node34&#45;&gt;Node14</title>
<path fill="none" stroke="midnightblue" d="M172.462,-296.734C164.666,-286.598 151.659,-269.69 141.941,-257.056"/>
<polygon fill="midnightblue" stroke="midnightblue" points="144.713,-254.92 135.842,-249.127 139.165,-259.188 144.713,-254.92"/>
</g>
</g>
</svg>
