<?xml version="1.0" encoding="UTF-8" standalone="no"?>
<!DOCTYPE svg PUBLIC "-//W3C//DTD SVG 1.1//EN"
 "http://www.w3.org/Graphics/SVG/1.1/DTD/svg11.dtd">
<!-- Generated by graphviz version 2.38.0 (20140413.2041)
 -->
<!-- Title: BankableMIDIOutput.hpp Pages: 1 -->
<svg width="248pt" height="196pt"
 viewBox="0.00 0.00 247.50 196.00" xmlns="http://www.w3.org/2000/svg" xmlns:xlink="http://www.w3.org/1999/xlink">
<g id="graph0" class="graph" transform="scale(1 1) rotate(0) translate(4 192)">
<title>BankableMIDIOutput.hpp</title>
<polygon fill="white" stroke="none" points="-4,4 -4,-192 243.5,-192 243.5,4 -4,4"/>
<!-- Node18 -->
<g id="node1" class="node"><title>Node18</title>
<g id="a_node1"><a xlink:title=" ">
<polygon fill="#bfbfbf" stroke="black" points="56,-168.5 56,-187.5 183,-187.5 183,-168.5 56,-168.5"/>
<text text-anchor="middle" x="119.5" y="-175.5" font-family="Helvetica,sans-Serif" font-size="10.00">BankableMIDIOutput.hpp</text>
</a>
</g>
</g>
<!-- Node19 -->
<g id="node2" class="node"><title>Node19</title>
<g id="a_node2"><a xlink:href="Bankable_2Abstract_2MIDIFilteredAnalog_8hpp.html" target="_top" xlink:title=" ">
<polygon fill="white" stroke="black" points="60,-112.5 60,-131.5 179,-131.5 179,-112.5 60,-112.5"/>
<text text-anchor="middle" x="119.5" y="-119.5" font-family="Helvetica,sans-Serif" font-size="10.00">MIDIFilteredAnalog.hpp</text>
</a>
</g>
</g>
<!-- Node18&#45;&gt;Node19 -->
<g id="edge1" class="edge"><title>Node18&#45;&gt;Node19</title>
<path fill="none" stroke="midnightblue" d="M119.5,-157.805C119.5,-148.91 119.5,-138.78 119.5,-131.751"/>
<polygon fill="midnightblue" stroke="midnightblue" points="116,-158.083 119.5,-168.083 123,-158.083 116,-158.083"/>
</g>
<!-- Node20 -->
<g id="node3" class="node"><title>Node20</title>
<g id="a_node3"><a xlink:href="Bankable_2CCPotentiometer_8hpp.html" target="_top" xlink:title=" ">
<polygon fill="white" stroke="black" points="0,-56.5 0,-75.5 111,-75.5 111,-56.5 0,-56.5"/>
<text text-anchor="middle" x="55.5" y="-63.5" font-family="Helvetica,sans-Serif" font-size="10.00">CCPotentiometer.hpp</text>
</a>
</g>
</g>
<!-- Node19&#45;&gt;Node20 -->
<g id="edge2" class="edge"><title>Node19&#45;&gt;Node20</title>
<path fill="none" stroke="midnightblue" d="M101.509,-105.82C90.0424,-96.1452 75.5867,-83.9481 65.9698,-75.8339"/>
<polygon fill="midnightblue" stroke="midnightblue" points="99.3173,-108.55 109.217,-112.324 103.831,-103.2 99.3173,-108.55"/>
</g>
<!-- Node22 -->
<g id="node5" class="node"><title>Node22</title>
<g id="a_node5"><a xlink:href="Bankable_2PBPotentiometer_8hpp.html" target="_top" xlink:title=" ">
<polygon fill="white" stroke="black" points="129.5,-56.5 129.5,-75.5 239.5,-75.5 239.5,-56.5 129.5,-56.5"/>
<text text-anchor="middle" x="184.5" y="-63.5" font-family="Helvetica,sans-Serif" font-size="10.00">PBPotentiometer.hpp</text>
</a>
</g>
</g>
<!-- Node19&#45;&gt;Node22 -->
<g id="edge4" class="edge"><title>Node19&#45;&gt;Node22</title>
<path fill="none" stroke="midnightblue" d="M137.773,-105.82C149.418,-96.1452 164.099,-83.9481 173.867,-75.8339"/>
<polygon fill="midnightblue" stroke="midnightblue" points="135.399,-103.242 129.943,-112.324 139.872,-108.626 135.399,-103.242"/>
</g>
<!-- Node21 -->
<g id="node4" class="node"><title>Node21</title>
<g id="a_node4"><a xlink:href="Control__Surface_8h.html" target="_top" xlink:title="The main header file that includes all Control&#45;Surface header files.">
<polygon fill="white" stroke="black" points="72,-0.5 72,-19.5 167,-19.5 167,-0.5 72,-0.5"/>
<text text-anchor="middle" x="119.5" y="-7.5" font-family="Helvetica,sans-Serif" font-size="10.00">Control_Surface.h</text>
</a>
</g>
</g>
<!-- Node20&#45;&gt;Node21 -->
<g id="edge3" class="edge"><title>Node20&#45;&gt;Node21</title>
<path fill="none" stroke="midnightblue" d="M73.4915,-49.8197C84.9576,-40.1452 99.4133,-27.9481 109.03,-19.8339"/>
<polygon fill="midnightblue" stroke="midnightblue" points="71.1686,-47.2002 65.7827,-56.324 75.6827,-52.5502 71.1686,-47.2002"/>
</g>
<!-- Node22&#45;&gt;Node21 -->
<g id="edge5" class="edge"><title>Node22&#45;&gt;Node21</title>
<path fill="none" stroke="midnightblue" d="M166.227,-49.8197C154.582,-40.1452 139.901,-27.9481 130.133,-19.8339"/>
<polygon fill="midnightblue" stroke="midnightblue" points="164.128,-52.6259 174.057,-56.324 168.601,-47.2416 164.128,-52.6259"/>
</g>
</g>
</svg>
