<?xml version="1.0" encoding="UTF-8" standalone="no"?>
<!DOCTYPE svg PUBLIC "-//W3C//DTD SVG 1.1//EN"
 "http://www.w3.org/Graphics/SVG/1.1/DTD/svg11.dtd">
<!-- Generated by graphviz version 2.38.0 (20140413.2041)
 -->
<!-- Title: Selector Pages: 1 -->
<svg width="160pt" height="130pt"
 viewBox="0.00 0.00 159.50 130.00" xmlns="http://www.w3.org/2000/svg" xmlns:xlink="http://www.w3.org/1999/xlink">
<g id="graph0" class="graph" transform="scale(1 1) rotate(0) translate(4 126)">
<title>Selector</title>
<!-- Node3 -->
<g id="node1" class="node"><title>Node3</title>
<polygon fill="#bfbfbf" stroke="black" points="40.5,-12.5 40.5,-31.5 93.5,-31.5 93.5,-12.5 40.5,-12.5"/>
<text text-anchor="middle" x="67" y="-19.5" font-family="Helvetica,sans-Serif" font-size="10.00">Selector</text>
</g>
<!-- Node3&#45;&gt;Node3 -->
<g id="edge2" class="edge"><title>Node3&#45;&gt;Node3</title>
<path fill="none" stroke="#9a32cd" stroke-dasharray="5,2" d="M104.094,-30.0806C108.571,-28.6211 111.5,-25.9276 111.5,-22 111.5,-15.5547 103.613,-12.4327 93.9381,-12.6342"/>
<polygon fill="#9a32cd" stroke="#9a32cd" points="103.419,-26.6379 93.9381,-31.3658 104.298,-33.5825 103.419,-26.6379"/>
<text text-anchor="middle" x="131.5" y="-36" font-family="Helvetica,sans-Serif" font-size="10.00"> previous</text>
<text text-anchor="middle" x="131.5" y="-25" font-family="Helvetica,sans-Serif" font-size="10.00">next</text>
<text text-anchor="middle" x="131.5" y="-14" font-family="Helvetica,sans-Serif" font-size="10.00">last</text>
<text text-anchor="middle" x="131.5" y="-3" font-family="Helvetica,sans-Serif" font-size="10.00">first</text>
</g>
<!-- Node4 -->
<g id="node2" class="node"><title>Node4</title>
<g id="a_node2"><a xlink:href="structSelector_1_1debouncedButton.html" target="_top" xlink:title="Selector::debouncedButton">
<polygon fill="none" stroke="black" points="0,-102.5 0,-121.5 134,-121.5 134,-102.5 0,-102.5"/>
<text text-anchor="middle" x="67" y="-109.5" font-family="Helvetica,sans-Serif" font-size="10.00">Selector::debouncedButton</text>
</a>
</g>
</g>
<!-- Node4&#45;&gt;Node3 -->
<g id="edge1" class="edge"><title>Node4&#45;&gt;Node3</title>
<path fill="none" stroke="#9a32cd" stroke-dasharray="5,2" d="M67,-91.9784C67,-73.3096 67,-45.6696 67,-31.7241"/>
<polygon fill="#9a32cd" stroke="#9a32cd" points="63.5001,-92.2405 67,-102.241 70.5001,-92.2405 63.5001,-92.2405"/>
<text text-anchor="middle" x="91" y="-76" font-family="Helvetica,sans-Serif" font-size="10.00"> dbButton1</text>
<text text-anchor="middle" x="91" y="-65" font-family="Helvetica,sans-Serif" font-size="10.00">dbButton2</text>
</g>
</g>
</svg>
