<?xml version="1.0" encoding="UTF-8" standalone="no"?>
<!DOCTYPE svg PUBLIC "-//W3C//DTD SVG 1.1//EN"
 "http://www.w3.org/Graphics/SVG/1.1/DTD/svg11.dtd">
<!-- Generated by graphviz version 2.38.0 (20140413.2041)
 -->
<!-- Title: CCButtonLatch Pages: 1 -->
<svg width="145pt" height="491pt"
 viewBox="0.00 0.00 145.00 491.00" xmlns="http://www.w3.org/2000/svg" xmlns:xlink="http://www.w3.org/1999/xlink">
<g id="graph0" class="graph" transform="scale(1 1) rotate(0) translate(4 487)">
<title>CCButtonLatch</title>
<!-- Node0 -->
<g id="node1" class="node"><title>Node0</title>
<polygon fill="#bfbfbf" stroke="black" points="26.5,-0.5 26.5,-57.5 110.5,-57.5 110.5,-0.5 26.5,-0.5"/>
<text text-anchor="middle" x="68.5" y="-45.5" font-family="Helvetica,sans-Serif" font-size="10.00">CCButtonLatch</text>
<polyline fill="none" stroke="black" points="26.5,-38.5 110.5,-38.5 "/>
<text text-anchor="middle" x="68.5" y="-26.5" font-family="Helvetica,sans-Serif" font-size="10.00"> </text>
<polyline fill="none" stroke="black" points="26.5,-19.5 110.5,-19.5 "/>
<text text-anchor="middle" x="68.5" y="-7.5" font-family="Helvetica,sans-Serif" font-size="10.00"> </text>
</g>
<!-- Node1 -->
<g id="node2" class="node"><title>Node1</title>
<g id="a_node2"><a xlink:href="classDigitalCCOut.html" target="_top" xlink:title="A class for MIDI_Control_Elements that send MIDI Control Change on/off values. ">
<polygon fill="none" stroke="black" points="23.5,-94.5 23.5,-184.5 113.5,-184.5 113.5,-94.5 23.5,-94.5"/>
<text text-anchor="middle" x="68.5" y="-172.5" font-family="Helvetica,sans-Serif" font-size="10.00">DigitalCCOut</text>
<polyline fill="none" stroke="black" points="23.5,-165.5 113.5,-165.5 "/>
<text text-anchor="middle" x="68.5" y="-153.5" font-family="Helvetica,sans-Serif" font-size="10.00"> </text>
<polyline fill="none" stroke="black" points="23.5,-146.5 113.5,-146.5 "/>
<text text-anchor="start" x="31.5" y="-134.5" font-family="Helvetica,sans-Serif" font-size="10.00">+ DigitalCCOut()</text>
<text text-anchor="start" x="31.5" y="-123.5" font-family="Helvetica,sans-Serif" font-size="10.00"># sendOn()</text>
<text text-anchor="start" x="31.5" y="-112.5" font-family="Helvetica,sans-Serif" font-size="10.00"># sendOff()</text>
<text text-anchor="start" x="31.5" y="-101.5" font-family="Helvetica,sans-Serif" font-size="10.00"># refresh()</text>
</a>
</g>
</g>
<!-- Node1&#45;&gt;Node0 -->
<g id="edge1" class="edge"><title>Node1&#45;&gt;Node0</title>
<path fill="none" stroke="midnightblue" d="M68.5,-84.3531C68.5,-75.074 68.5,-65.7909 68.5,-57.5896"/>
<polygon fill="none" stroke="midnightblue" points="65.0001,-84.3689 68.5,-94.3689 72.0001,-84.3689 65.0001,-84.3689"/>
</g>
<!-- Node2 -->
<g id="node3" class="node"><title>Node2</title>
<g id="a_node3"><a xlink:href="classMIDI__Control__Element.html" target="_top" xlink:title="{MIDI_Control_Element\n||+ MIDI_Control_Element()\l+ ~MIDI_Control_Element()\l+ getNext()\l+ getFirst()\l}">
<polygon fill="none" stroke="black" points="0,-221.5 0,-311.5 137,-311.5 137,-221.5 0,-221.5"/>
<text text-anchor="middle" x="68.5" y="-299.5" font-family="Helvetica,sans-Serif" font-size="10.00">MIDI_Control_Element</text>
<polyline fill="none" stroke="black" points="0,-292.5 137,-292.5 "/>
<text text-anchor="middle" x="68.5" y="-280.5" font-family="Helvetica,sans-Serif" font-size="10.00"> </text>
<polyline fill="none" stroke="black" points="0,-273.5 137,-273.5 "/>
<text text-anchor="start" x="8" y="-261.5" font-family="Helvetica,sans-Serif" font-size="10.00">+ MIDI_Control_Element()</text>
<text text-anchor="start" x="8" y="-250.5" font-family="Helvetica,sans-Serif" font-size="10.00">+ ~MIDI_Control_Element()</text>
<text text-anchor="start" x="8" y="-239.5" font-family="Helvetica,sans-Serif" font-size="10.00">+ getNext()</text>
<text text-anchor="start" x="8" y="-228.5" font-family="Helvetica,sans-Serif" font-size="10.00">+ getFirst()</text>
</a>
</g>
</g>
<!-- Node2&#45;&gt;Node1 -->
<g id="edge2" class="edge"><title>Node2&#45;&gt;Node1</title>
<path fill="none" stroke="midnightblue" d="M68.5,-211.157C68.5,-202.282 68.5,-193.183 68.5,-184.594"/>
<polygon fill="none" stroke="midnightblue" points="65.0001,-211.43 68.5,-221.43 72.0001,-211.43 65.0001,-211.43"/>
</g>
<!-- Node3 -->
<g id="node4" class="node"><title>Node3</title>
<g id="a_node4"><a xlink:href="classMIDI__Element.html" target="_top" xlink:title="{MIDI_Element\n|# channelOffset\l# addressOffset\l# tracksPerBank\l|+ map()\l+ setChannelOffset()\l+ setAddressOffset()\l+ settracksPerBank()\l# reset()\l# update()\l}">
<polygon fill="none" stroke="black" points="13.5,-348.5 13.5,-482.5 123.5,-482.5 123.5,-348.5 13.5,-348.5"/>
<text text-anchor="middle" x="68.5" y="-470.5" font-family="Helvetica,sans-Serif" font-size="10.00">MIDI_Element</text>
<polyline fill="none" stroke="black" points="13.5,-463.5 123.5,-463.5 "/>
<text text-anchor="start" x="21.5" y="-451.5" font-family="Helvetica,sans-Serif" font-size="10.00"># channelOffset</text>
<text text-anchor="start" x="21.5" y="-440.5" font-family="Helvetica,sans-Serif" font-size="10.00"># addressOffset</text>
<text text-anchor="start" x="21.5" y="-429.5" font-family="Helvetica,sans-Serif" font-size="10.00"># tracksPerBank</text>
<polyline fill="none" stroke="black" points="13.5,-422.5 123.5,-422.5 "/>
<text text-anchor="start" x="21.5" y="-410.5" font-family="Helvetica,sans-Serif" font-size="10.00">+ map()</text>
<text text-anchor="start" x="21.5" y="-399.5" font-family="Helvetica,sans-Serif" font-size="10.00">+ setChannelOffset()</text>
<text text-anchor="start" x="21.5" y="-388.5" font-family="Helvetica,sans-Serif" font-size="10.00">+ setAddressOffset()</text>
<text text-anchor="start" x="21.5" y="-377.5" font-family="Helvetica,sans-Serif" font-size="10.00">+ settracksPerBank()</text>
<text text-anchor="start" x="21.5" y="-366.5" font-family="Helvetica,sans-Serif" font-size="10.00"># reset()</text>
<text text-anchor="start" x="21.5" y="-355.5" font-family="Helvetica,sans-Serif" font-size="10.00"># update()</text>
</a>
</g>
</g>
<!-- Node3&#45;&gt;Node2 -->
<g id="edge3" class="edge"><title>Node3&#45;&gt;Node2</title>
<path fill="none" stroke="midnightblue" d="M68.5,-338.15C68.5,-329.147 68.5,-320.2 68.5,-311.853"/>
<polygon fill="none" stroke="midnightblue" points="65.0001,-338.31 68.5,-348.311 72.0001,-338.311 65.0001,-338.31"/>
</g>
</g>
</svg>
