<?xml version="1.0" encoding="UTF-8" standalone="no"?>
<!DOCTYPE svg PUBLIC "-//W3C//DTD SVG 1.1//EN"
 "http://www.w3.org/Graphics/SVG/1.1/DTD/svg11.dtd">
<!-- Generated by graphviz version 2.38.0 (20140413.2041)
 -->
<!-- Title: Control_Surface_ Pages: 1 -->
<svg width="213pt" height="240pt"
 viewBox="0.00 0.00 213.00 240.00" xmlns="http://www.w3.org/2000/svg" xmlns:xlink="http://www.w3.org/1999/xlink">
<g id="graph0" class="graph" transform="scale(1 1) rotate(0) translate(4 236)">
<title>Control_Surface_</title>
<!-- Node1 -->
<g id="node1" class="node"><title>Node1</title>
<polygon fill="#bfbfbf" stroke="black" points="0,-0.5 0,-19.5 92,-19.5 92,-0.5 0,-0.5"/>
<text text-anchor="middle" x="46" y="-7.5" font-family="Helvetica,sans-Serif" font-size="10.00">Control_Surface_</text>
</g>
<!-- Node2 -->
<g id="node2" class="node"><title>Node2</title>
<g id="a_node2"><a xlink:href="classMIDI__Interface.html" target="_top" xlink:title="MIDI_Interface">
<polygon fill="none" stroke="black" points="5,-78.5 5,-97.5 87,-97.5 87,-78.5 5,-78.5"/>
<text text-anchor="middle" x="46" y="-85.5" font-family="Helvetica,sans-Serif" font-size="10.00">MIDI_Interface</text>
</a>
</g>
</g>
<!-- Node2&#45;&gt;Node1 -->
<g id="edge1" class="edge"><title>Node2&#45;&gt;Node1</title>
<path fill="none" stroke="#9a32cd" stroke-dasharray="5,2" d="M46,-68.2239C46,-52.6974 46,-31.3582 46,-19.6165"/>
<polygon fill="#9a32cd" stroke="#9a32cd" points="42.5001,-68.2818 46,-78.2818 49.5001,-68.2819 42.5001,-68.2818"/>
<text text-anchor="middle" x="67" y="-52" font-family="Helvetica,sans-Serif" font-size="10.00"> midi</text>
<text text-anchor="middle" x="67" y="-41" font-family="Helvetica,sans-Serif" font-size="10.00">new_midi</text>
</g>
<!-- Node2&#45;&gt;Node2 -->
<g id="edge4" class="edge"><title>Node2&#45;&gt;Node2</title>
<path fill="none" stroke="#9a32cd" stroke-dasharray="5,2" d="M97.2579,-92.7945C102.006,-91.8052 105,-90.207 105,-88 105,-84.4688 97.3363,-82.4962 87.0831,-82.0824"/>
<polygon fill="#9a32cd" stroke="#9a32cd" points="96.6387,-89.3415 87.0831,-93.9176 97.4068,-96.2992 96.6387,-89.3415"/>
<text text-anchor="middle" x="155" y="-85.5" font-family="Helvetica,sans-Serif" font-size="10.00"> DefaultMIDI_Interface</text>
</g>
<!-- Node3 -->
<g id="node3" class="node"><title>Node3</title>
<g id="a_node3"><a xlink:href="classMIDI__Parser.html" target="_top" xlink:title="MIDI_Parser">
<polygon fill="none" stroke="black" points="10,-145.5 10,-164.5 82,-164.5 82,-145.5 10,-145.5"/>
<text text-anchor="middle" x="46" y="-152.5" font-family="Helvetica,sans-Serif" font-size="10.00">MIDI_Parser</text>
</a>
</g>
</g>
<!-- Node3&#45;&gt;Node2 -->
<g id="edge2" class="edge"><title>Node3&#45;&gt;Node2</title>
<path fill="none" stroke="#9a32cd" stroke-dasharray="5,2" d="M46,-135.037C46,-122.67 46,-107.12 46,-97.6273"/>
<polygon fill="#9a32cd" stroke="#9a32cd" points="42.5001,-135.234 46,-145.234 49.5001,-135.234 42.5001,-135.234"/>
<text text-anchor="middle" x="61.5" y="-119" font-family="Helvetica,sans-Serif" font-size="10.00"> parser</text>
</g>
<!-- Node4 -->
<g id="node4" class="node"><title>Node4</title>
<g id="a_node4"><a xlink:href="structMIDI__message.html" target="_top" xlink:title="MIDI_message">
<polygon fill="none" stroke="black" points="4.5,-212.5 4.5,-231.5 87.5,-231.5 87.5,-212.5 4.5,-212.5"/>
<text text-anchor="middle" x="46" y="-219.5" font-family="Helvetica,sans-Serif" font-size="10.00">MIDI_message</text>
</a>
</g>
</g>
<!-- Node4&#45;&gt;Node3 -->
<g id="edge3" class="edge"><title>Node4&#45;&gt;Node3</title>
<path fill="none" stroke="#9a32cd" stroke-dasharray="5,2" d="M46,-202.037C46,-189.67 46,-174.12 46,-164.627"/>
<polygon fill="#9a32cd" stroke="#9a32cd" points="42.5001,-202.234 46,-212.234 49.5001,-202.234 42.5001,-202.234"/>
<text text-anchor="middle" x="66" y="-186" font-family="Helvetica,sans-Serif" font-size="10.00"> midimsg</text>
</g>
</g>
</svg>
