<?xml version="1.0" encoding="UTF-8" standalone="no"?>
<!DOCTYPE svg PUBLIC "-//W3C//DTD SVG 1.1//EN"
 "http://www.w3.org/Graphics/SVG/1.1/DTD/svg11.dtd">
<!-- Generated by graphviz version 2.38.0 (20140413.2041)
 -->
<!-- Title: MCU_VPotRing_Bankable_LEDs&lt; NUMBER_OF_BANKS &gt; Pages: 1 -->
<svg width="488pt" height="929pt"
 viewBox="0.00 0.00 487.50 929.00" xmlns="http://www.w3.org/2000/svg" xmlns:xlink="http://www.w3.org/1999/xlink">
<g id="graph0" class="graph" transform="scale(1 1) rotate(0) translate(4 925)">
<title>MCU_VPotRing_Bankable_LEDs&lt; NUMBER_OF_BANKS &gt;</title>
<!-- Node7 -->
<g id="node1" class="node"><title>Node7</title>
<polygon fill="#bfbfbf" stroke="black" points="95,-0.5 95,-68.5 273,-68.5 273,-0.5 95,-0.5"/>
<text text-anchor="start" x="103" y="-56.5" font-family="Helvetica,sans-Serif" font-size="10.00">MCU_VPotRing_Bankable</text>
<text text-anchor="middle" x="184" y="-45.5" font-family="Helvetica,sans-Serif" font-size="10.00">_LEDs&lt; NUMBER_OF_BANKS &gt;</text>
<polyline fill="none" stroke="black" points="95,-38.5 273,-38.5 "/>
<text text-anchor="middle" x="184" y="-26.5" font-family="Helvetica,sans-Serif" font-size="10.00"> </text>
<polyline fill="none" stroke="black" points="95,-19.5 273,-19.5 "/>
<text text-anchor="start" x="103" y="-7.5" font-family="Helvetica,sans-Serif" font-size="10.00">+ MCU_VPotRing_Bankable_LEDs()</text>
</g>
<!-- Node8 -->
<g id="node2" class="node"><title>Node8</title>
<g id="a_node2"><a xlink:href="classMCU__VPotRing__Bankable.html" target="_top" xlink:title="{MCU_VPotRing_Bankable\l\&lt; NUMBER_OF_BANKS \&gt;\n|&#45; values\l|+ MCU_VPotRing_Bankable()\l&#45; updateImpl()\l&#45; matchAddress()\l&#45; getValue()\l&#45; onBankSettingChange()\l}">
<polygon fill="none" stroke="black" points="178,-128.5 178,-240.5 326,-240.5 326,-128.5 178,-128.5"/>
<text text-anchor="start" x="186" y="-228.5" font-family="Helvetica,sans-Serif" font-size="10.00">MCU_VPotRing_Bankable</text>
<text text-anchor="middle" x="252" y="-217.5" font-family="Helvetica,sans-Serif" font-size="10.00">&lt; NUMBER_OF_BANKS &gt;</text>
<polyline fill="none" stroke="black" points="178,-210.5 326,-210.5 "/>
<text text-anchor="start" x="186" y="-198.5" font-family="Helvetica,sans-Serif" font-size="10.00">&#45; values</text>
<polyline fill="none" stroke="black" points="178,-191.5 326,-191.5 "/>
<text text-anchor="start" x="186" y="-179.5" font-family="Helvetica,sans-Serif" font-size="10.00">+ MCU_VPotRing_Bankable()</text>
<text text-anchor="start" x="186" y="-168.5" font-family="Helvetica,sans-Serif" font-size="10.00">&#45; updateImpl()</text>
<text text-anchor="start" x="186" y="-157.5" font-family="Helvetica,sans-Serif" font-size="10.00">&#45; matchAddress()</text>
<text text-anchor="start" x="186" y="-146.5" font-family="Helvetica,sans-Serif" font-size="10.00">&#45; getValue()</text>
<text text-anchor="start" x="186" y="-135.5" font-family="Helvetica,sans-Serif" font-size="10.00">&#45; onBankSettingChange()</text>
</a>
</g>
</g>
<!-- Node8&#45;&gt;Node7 -->
<g id="edge1" class="edge"><title>Node8&#45;&gt;Node7</title>
<path fill="none" stroke="midnightblue" d="M222.305,-118.87C214.352,-101.56 206.079,-83.5546 199.266,-68.7256"/>
<polygon fill="none" stroke="midnightblue" points="219.324,-120.765 226.679,-128.39 225.685,-117.842 219.324,-120.765"/>
</g>
<!-- Node9 -->
<g id="node3" class="node"><title>Node9</title>
<g id="a_node3"><a xlink:href="classMCU__VPotRing__Base.html" target="_top" xlink:title="{MCU_VPotRing_Base\n||+ MCU_VPotRing_Base()\l+ getPosition()\l+ getCenterLed()\l+ getMode()\l+ getStartOn()\l+ getStartOff()\l# MCU_VPotRing_Base()\l# sanitizeValue()\l&#45; updateImpl()\l&#45; getValue()\l&#45; getPosition()\l&#45; getCenterLed()\l&#45; getMode()\l}">
<polygon fill="none" stroke="black" points="80,-327 80,-516 210,-516 210,-327 80,-327"/>
<text text-anchor="middle" x="145" y="-504" font-family="Helvetica,sans-Serif" font-size="10.00">MCU_VPotRing_Base</text>
<polyline fill="none" stroke="black" points="80,-497 210,-497 "/>
<text text-anchor="middle" x="145" y="-485" font-family="Helvetica,sans-Serif" font-size="10.00"> </text>
<polyline fill="none" stroke="black" points="80,-478 210,-478 "/>
<text text-anchor="start" x="88" y="-466" font-family="Helvetica,sans-Serif" font-size="10.00">+ MCU_VPotRing_Base()</text>
<text text-anchor="start" x="88" y="-455" font-family="Helvetica,sans-Serif" font-size="10.00">+ getPosition()</text>
<text text-anchor="start" x="88" y="-444" font-family="Helvetica,sans-Serif" font-size="10.00">+ getCenterLed()</text>
<text text-anchor="start" x="88" y="-433" font-family="Helvetica,sans-Serif" font-size="10.00">+ getMode()</text>
<text text-anchor="start" x="88" y="-422" font-family="Helvetica,sans-Serif" font-size="10.00">+ getStartOn()</text>
<text text-anchor="start" x="88" y="-411" font-family="Helvetica,sans-Serif" font-size="10.00">+ getStartOff()</text>
<text text-anchor="start" x="88" y="-400" font-family="Helvetica,sans-Serif" font-size="10.00"># MCU_VPotRing_Base()</text>
<text text-anchor="start" x="88" y="-389" font-family="Helvetica,sans-Serif" font-size="10.00"># sanitizeValue()</text>
<text text-anchor="start" x="88" y="-378" font-family="Helvetica,sans-Serif" font-size="10.00">&#45; updateImpl()</text>
<text text-anchor="start" x="88" y="-367" font-family="Helvetica,sans-Serif" font-size="10.00">&#45; getValue()</text>
<text text-anchor="start" x="88" y="-356" font-family="Helvetica,sans-Serif" font-size="10.00">&#45; getPosition()</text>
<text text-anchor="start" x="88" y="-345" font-family="Helvetica,sans-Serif" font-size="10.00">&#45; getCenterLed()</text>
<text text-anchor="start" x="88" y="-334" font-family="Helvetica,sans-Serif" font-size="10.00">&#45; getMode()</text>
</a>
</g>
</g>
<!-- Node9&#45;&gt;Node8 -->
<g id="edge2" class="edge"><title>Node9&#45;&gt;Node8</title>
<path fill="none" stroke="midnightblue" d="M191.847,-317.612C203.929,-291.077 216.47,-263.533 226.955,-240.505"/>
<polygon fill="none" stroke="midnightblue" points="188.555,-316.395 187.597,-326.947 194.926,-319.296 188.555,-316.395"/>
</g>
<!-- Node14 -->
<g id="node8" class="node"><title>Node14</title>
<g id="a_node8"><a xlink:href="classMCU__VPotRing__LEDs__Base.html" target="_top" xlink:title="{MCU_VPotRing_LEDs_Base\n|&#45; ledPins\l|+ MCU_VPotRing_LEDs_Base()\l&#45; display()\l}">
<polygon fill="none" stroke="black" points="0,-150.5 0,-218.5 160,-218.5 160,-150.5 0,-150.5"/>
<text text-anchor="middle" x="80" y="-206.5" font-family="Helvetica,sans-Serif" font-size="10.00">MCU_VPotRing_LEDs_Base</text>
<polyline fill="none" stroke="black" points="0,-199.5 160,-199.5 "/>
<text text-anchor="start" x="8" y="-187.5" font-family="Helvetica,sans-Serif" font-size="10.00">&#45; ledPins</text>
<polyline fill="none" stroke="black" points="0,-180.5 160,-180.5 "/>
<text text-anchor="start" x="8" y="-168.5" font-family="Helvetica,sans-Serif" font-size="10.00">+ MCU_VPotRing_LEDs_Base()</text>
<text text-anchor="start" x="8" y="-157.5" font-family="Helvetica,sans-Serif" font-size="10.00">&#45; display()</text>
</a>
</g>
</g>
<!-- Node9&#45;&gt;Node14 -->
<g id="edge11" class="edge"><title>Node9&#45;&gt;Node14</title>
<path fill="none" stroke="midnightblue" d="M116.376,-317.012C106.578,-281.59 96.304,-244.445 89.1834,-218.701"/>
<polygon fill="none" stroke="midnightblue" points="113.084,-318.242 119.124,-326.947 119.831,-316.375 113.084,-318.242"/>
</g>
<!-- Node10 -->
<g id="node4" class="node"><title>Node10</title>
<g id="a_node4"><a xlink:href="classMIDI__Input__CC.html" target="_top" xlink:title="{MIDI_Input_CC\n||+ MIDI_Input_CC()\l+ ~MIDI_Input_CC()\l+ updateAll()\l+ resetAll()\l+ updateAllWith()\l&#45; moveDown()\l}">
<polygon fill="none" stroke="black" points="91.5,-559.5 91.5,-671.5 198.5,-671.5 198.5,-559.5 91.5,-559.5"/>
<text text-anchor="middle" x="145" y="-659.5" font-family="Helvetica,sans-Serif" font-size="10.00">MIDI_Input_CC</text>
<polyline fill="none" stroke="black" points="91.5,-652.5 198.5,-652.5 "/>
<text text-anchor="middle" x="145" y="-640.5" font-family="Helvetica,sans-Serif" font-size="10.00"> </text>
<polyline fill="none" stroke="black" points="91.5,-633.5 198.5,-633.5 "/>
<text text-anchor="start" x="99.5" y="-621.5" font-family="Helvetica,sans-Serif" font-size="10.00">+ MIDI_Input_CC()</text>
<text text-anchor="start" x="99.5" y="-610.5" font-family="Helvetica,sans-Serif" font-size="10.00">+ ~MIDI_Input_CC()</text>
<text text-anchor="start" x="99.5" y="-599.5" font-family="Helvetica,sans-Serif" font-size="10.00">+ updateAll()</text>
<text text-anchor="start" x="99.5" y="-588.5" font-family="Helvetica,sans-Serif" font-size="10.00">+ resetAll()</text>
<text text-anchor="start" x="99.5" y="-577.5" font-family="Helvetica,sans-Serif" font-size="10.00">+ updateAllWith()</text>
<text text-anchor="start" x="99.5" y="-566.5" font-family="Helvetica,sans-Serif" font-size="10.00">&#45; moveDown()</text>
</a>
</g>
</g>
<!-- Node10&#45;&gt;Node9 -->
<g id="edge3" class="edge"><title>Node10&#45;&gt;Node9</title>
<path fill="none" stroke="midnightblue" d="M145,-549.443C145,-538.771 145,-527.527 145,-516.323"/>
<polygon fill="none" stroke="midnightblue" points="141.5,-549.48 145,-559.481 148.5,-549.481 141.5,-549.48"/>
</g>
<!-- Node10&#45;&gt;Node10 -->
<g id="edge5" class="edge"><title>Node10&#45;&gt;Node10</title>
<path fill="none" stroke="#404040" d="M198.632,-628.758C209.08,-627.218 216.5,-622.799 216.5,-615.5 216.5,-611.394 214.152,-608.2 210.239,-605.917"/>
<polygon fill="none" stroke="#404040" points="210.073,-605.864 203.145,-607.867 198.632,-602.242 205.56,-600.24 210.073,-605.864"/>
<text text-anchor="middle" x="236.5" y="-629.5" font-family="Helvetica,sans-Serif" font-size="10.00"> &#45;last</text>
<text text-anchor="middle" x="236.5" y="-618.5" font-family="Helvetica,sans-Serif" font-size="10.00">&#45;previous</text>
<text text-anchor="middle" x="236.5" y="-607.5" font-family="Helvetica,sans-Serif" font-size="10.00">&#45;next</text>
<text text-anchor="middle" x="236.5" y="-596.5" font-family="Helvetica,sans-Serif" font-size="10.00">&#45;first</text>
</g>
<!-- Node11 -->
<g id="node5" class="node"><title>Node11</title>
<g id="a_node5"><a xlink:href="classMIDI__Input__Element__Addressable.html" target="_top" xlink:title="{MIDI_Input_Element\l_Addressable\n|&#45; baseChannel\l&#45; baseAddress\l|+ display()\l+ reset()\l+ update()\l+ updateWith()\l+ getBaseChannel()\l+ getBaseAddress()\l# MIDI_Input_Element\l_Addressable()\l&#45; updateImpl()\l&#45; match()\l&#45; matchAddress()\l&#45; matchChannel()\l&#45; moveDown()\l}">
<polygon fill="none" stroke="black" points="87.5,-709.5 87.5,-920.5 202.5,-920.5 202.5,-709.5 87.5,-709.5"/>
<text text-anchor="start" x="95.5" y="-908.5" font-family="Helvetica,sans-Serif" font-size="10.00">MIDI_Input_Element</text>
<text text-anchor="middle" x="145" y="-897.5" font-family="Helvetica,sans-Serif" font-size="10.00">_Addressable</text>
<polyline fill="none" stroke="black" points="87.5,-890.5 202.5,-890.5 "/>
<text text-anchor="start" x="95.5" y="-878.5" font-family="Helvetica,sans-Serif" font-size="10.00">&#45; baseChannel</text>
<text text-anchor="start" x="95.5" y="-867.5" font-family="Helvetica,sans-Serif" font-size="10.00">&#45; baseAddress</text>
<polyline fill="none" stroke="black" points="87.5,-860.5 202.5,-860.5 "/>
<text text-anchor="start" x="95.5" y="-848.5" font-family="Helvetica,sans-Serif" font-size="10.00">+ display()</text>
<text text-anchor="start" x="95.5" y="-837.5" font-family="Helvetica,sans-Serif" font-size="10.00">+ reset()</text>
<text text-anchor="start" x="95.5" y="-826.5" font-family="Helvetica,sans-Serif" font-size="10.00">+ update()</text>
<text text-anchor="start" x="95.5" y="-815.5" font-family="Helvetica,sans-Serif" font-size="10.00">+ updateWith()</text>
<text text-anchor="start" x="95.5" y="-804.5" font-family="Helvetica,sans-Serif" font-size="10.00">+ getBaseChannel()</text>
<text text-anchor="start" x="95.5" y="-793.5" font-family="Helvetica,sans-Serif" font-size="10.00">+ getBaseAddress()</text>
<text text-anchor="start" x="95.5" y="-782.5" font-family="Helvetica,sans-Serif" font-size="10.00"># MIDI_Input_Element</text>
<text text-anchor="start" x="95.5" y="-771.5" font-family="Helvetica,sans-Serif" font-size="10.00">_Addressable()</text>
<text text-anchor="start" x="95.5" y="-760.5" font-family="Helvetica,sans-Serif" font-size="10.00">&#45; updateImpl()</text>
<text text-anchor="start" x="95.5" y="-749.5" font-family="Helvetica,sans-Serif" font-size="10.00">&#45; match()</text>
<text text-anchor="start" x="95.5" y="-738.5" font-family="Helvetica,sans-Serif" font-size="10.00">&#45; matchAddress()</text>
<text text-anchor="start" x="95.5" y="-727.5" font-family="Helvetica,sans-Serif" font-size="10.00">&#45; matchChannel()</text>
<text text-anchor="start" x="95.5" y="-716.5" font-family="Helvetica,sans-Serif" font-size="10.00">&#45; moveDown()</text>
</a>
</g>
</g>
<!-- Node11&#45;&gt;Node10 -->
<g id="edge4" class="edge"><title>Node11&#45;&gt;Node10</title>
<path fill="none" stroke="midnightblue" d="M145,-699.419C145,-689.833 145,-680.451 145,-671.648"/>
<polygon fill="none" stroke="midnightblue" points="141.5,-699.467 145,-709.467 148.5,-699.467 141.5,-699.467"/>
</g>
<!-- Node12 -->
<g id="node6" class="node"><title>Node12</title>
<g id="a_node6"><a xlink:href="classBankable.html" target="_top" xlink:title="{Bankable\n|&#45; channelsPerBank\l&#45; addressesPerBank\l|+ ~Bankable()\l+ getAddressesPerBank()\l+ getChannelsPerBank()\l+ getAddressIndex()\l+ getChannelIndex()\l+ getIndex()\l+ getBankSetting()\l# matchAddress()\l# matchChannel()\l&#45; onBankSettingChange()\l&#45; onBankSettingChangeAll()\l&#45; setBank()\l&#45; removeBank()\l}">
<polygon fill="none" stroke="black" points="281.5,-321.5 281.5,-521.5 418.5,-521.5 418.5,-321.5 281.5,-321.5"/>
<text text-anchor="middle" x="350" y="-509.5" font-family="Helvetica,sans-Serif" font-size="10.00">Bankable</text>
<polyline fill="none" stroke="black" points="281.5,-502.5 418.5,-502.5 "/>
<text text-anchor="start" x="289.5" y="-490.5" font-family="Helvetica,sans-Serif" font-size="10.00">&#45; channelsPerBank</text>
<text text-anchor="start" x="289.5" y="-479.5" font-family="Helvetica,sans-Serif" font-size="10.00">&#45; addressesPerBank</text>
<polyline fill="none" stroke="black" points="281.5,-472.5 418.5,-472.5 "/>
<text text-anchor="start" x="289.5" y="-460.5" font-family="Helvetica,sans-Serif" font-size="10.00">+ ~Bankable()</text>
<text text-anchor="start" x="289.5" y="-449.5" font-family="Helvetica,sans-Serif" font-size="10.00">+ getAddressesPerBank()</text>
<text text-anchor="start" x="289.5" y="-438.5" font-family="Helvetica,sans-Serif" font-size="10.00">+ getChannelsPerBank()</text>
<text text-anchor="start" x="289.5" y="-427.5" font-family="Helvetica,sans-Serif" font-size="10.00">+ getAddressIndex()</text>
<text text-anchor="start" x="289.5" y="-416.5" font-family="Helvetica,sans-Serif" font-size="10.00">+ getChannelIndex()</text>
<text text-anchor="start" x="289.5" y="-405.5" font-family="Helvetica,sans-Serif" font-size="10.00">+ getIndex()</text>
<text text-anchor="start" x="289.5" y="-394.5" font-family="Helvetica,sans-Serif" font-size="10.00">+ getBankSetting()</text>
<text text-anchor="start" x="289.5" y="-383.5" font-family="Helvetica,sans-Serif" font-size="10.00"># matchAddress()</text>
<text text-anchor="start" x="289.5" y="-372.5" font-family="Helvetica,sans-Serif" font-size="10.00"># matchChannel()</text>
<text text-anchor="start" x="289.5" y="-361.5" font-family="Helvetica,sans-Serif" font-size="10.00">&#45; onBankSettingChange()</text>
<text text-anchor="start" x="289.5" y="-350.5" font-family="Helvetica,sans-Serif" font-size="10.00">&#45; onBankSettingChangeAll()</text>
<text text-anchor="start" x="289.5" y="-339.5" font-family="Helvetica,sans-Serif" font-size="10.00">&#45; setBank()</text>
<text text-anchor="start" x="289.5" y="-328.5" font-family="Helvetica,sans-Serif" font-size="10.00">&#45; removeBank()</text>
</a>
</g>
</g>
<!-- Node12&#45;&gt;Node8 -->
<g id="edge6" class="edge"><title>Node12&#45;&gt;Node8</title>
<path fill="none" stroke="midnightblue" d="M304.657,-311.77C294.382,-287.13 283.891,-261.972 275.005,-240.664"/>
<polygon fill="none" stroke="midnightblue" points="301.502,-313.297 308.581,-321.179 307.963,-310.603 301.502,-313.297"/>
</g>
<!-- Node12&#45;&gt;Node12 -->
<g id="edge7" class="edge"><title>Node12&#45;&gt;Node12</title>
<path fill="none" stroke="#404040" d="M418.525,-441.776C429.213,-438.745 436.5,-431.986 436.5,-421.5 436.5,-415.274 433.931,-410.362 429.607,-406.764"/>
<polygon fill="none" stroke="#404040" points="429.259,-406.59 422.103,-407.484 418.525,-401.224 425.681,-400.329 429.259,-406.59"/>
<text text-anchor="middle" x="458" y="-424.5" font-family="Helvetica,sans-Serif" font-size="10.00"> &#45;previous</text>
<text text-anchor="middle" x="458" y="-413.5" font-family="Helvetica,sans-Serif" font-size="10.00">&#45;next</text>
</g>
<!-- Node13 -->
<g id="node7" class="node"><title>Node13</title>
<g id="a_node7"><a xlink:href="classBank.html" target="_top" xlink:title="A class that groups MIDI_Elements and allows the user to change the MIDI addresses (Controller number...">
<polygon fill="none" stroke="black" points="344.5,-106.5 344.5,-262.5 457.5,-262.5 457.5,-106.5 344.5,-106.5"/>
<text text-anchor="middle" x="401" y="-250.5" font-family="Helvetica,sans-Serif" font-size="10.00">Bank</text>
<polyline fill="none" stroke="black" points="344.5,-243.5 457.5,-243.5 "/>
<text text-anchor="start" x="352.5" y="-231.5" font-family="Helvetica,sans-Serif" font-size="10.00">&#45; tracksPerBank</text>
<text text-anchor="start" x="352.5" y="-220.5" font-family="Helvetica,sans-Serif" font-size="10.00">&#45; bankSetting</text>
<polyline fill="none" stroke="black" points="344.5,-213.5 457.5,-213.5 "/>
<text text-anchor="start" x="352.5" y="-201.5" font-family="Helvetica,sans-Serif" font-size="10.00">+ Bank()</text>
<text text-anchor="start" x="352.5" y="-190.5" font-family="Helvetica,sans-Serif" font-size="10.00">+ add()</text>
<text text-anchor="start" x="352.5" y="-179.5" font-family="Helvetica,sans-Serif" font-size="10.00">+ add()</text>
<text text-anchor="start" x="352.5" y="-168.5" font-family="Helvetica,sans-Serif" font-size="10.00">+ add()</text>
<text text-anchor="start" x="352.5" y="-157.5" font-family="Helvetica,sans-Serif" font-size="10.00">+ add()</text>
<text text-anchor="start" x="352.5" y="-146.5" font-family="Helvetica,sans-Serif" font-size="10.00">+ setBankSetting()</text>
<text text-anchor="start" x="352.5" y="-135.5" font-family="Helvetica,sans-Serif" font-size="10.00">+ getBankSetting()</text>
<text text-anchor="start" x="352.5" y="-124.5" font-family="Helvetica,sans-Serif" font-size="10.00">+ getTracksPerBank()</text>
<text text-anchor="start" x="352.5" y="-113.5" font-family="Helvetica,sans-Serif" font-size="10.00">+ remove()</text>
</a>
</g>
</g>
<!-- Node12&#45;&gt;Node13 -->
<g id="edge9" class="edge"><title>Node12&#45;&gt;Node13</title>
<path fill="none" stroke="#404040" d="M374.922,-321.228C376.338,-315.069 377.709,-308.955 379,-303 380.979,-293.873 382.942,-284.324 384.834,-274.783"/>
<polygon fill="none" stroke="#404040" points="384.887,-274.513 382.111,-267.857 387.187,-262.736 389.963,-269.391 384.887,-274.513"/>
<text text-anchor="middle" x="395" y="-295" font-family="Helvetica,sans-Serif" font-size="10.00"> &#45;last</text>
<text text-anchor="middle" x="395" y="-284" font-family="Helvetica,sans-Serif" font-size="10.00">&#45;first</text>
</g>
<!-- Node13&#45;&gt;Node12 -->
<g id="edge8" class="edge"><title>Node13&#45;&gt;Node12</title>
<path fill="none" stroke="#404040" d="M356.787,-262.737C354.497,-268.791 352.519,-274.917 351,-281 348.731,-290.087 347.124,-299.612 346.032,-309.235"/>
<polygon fill="none" stroke="#404040" points="346.007,-309.502 349.443,-315.842 344.912,-321.452 341.476,-315.111 346.007,-309.502"/>
<text text-anchor="middle" x="365" y="-289.5" font-family="Helvetica,sans-Serif" font-size="10.00"> &#45;bank</text>
</g>
<!-- Node14&#45;&gt;Node7 -->
<g id="edge10" class="edge"><title>Node14&#45;&gt;Node7</title>
<path fill="none" stroke="midnightblue" d="M109.16,-142.002C125.462,-118.805 145.5,-90.2885 160.738,-68.6032"/>
<polygon fill="none" stroke="midnightblue" points="106.225,-140.092 103.34,-150.286 111.953,-144.116 106.225,-140.092"/>
</g>
</g>
</svg>
