<?xml version="1.0" encoding="UTF-8" standalone="no"?>
<!DOCTYPE svg PUBLIC "-//W3C//DTD SVG 1.1//EN"
 "http://www.w3.org/Graphics/SVG/1.1/DTD/svg11.dtd">
<!-- Generated by graphviz version 2.38.0 (20140413.2041)
 -->
<!-- Title: BankableMIDIOutput::getChannelsPerBank Pages: 1 -->
<svg width="458pt" height="50pt"
 viewBox="0.00 0.00 458.00 50.00" xmlns="http://www.w3.org/2000/svg" xmlns:xlink="http://www.w3.org/1999/xlink">
<g id="graph0" class="graph" transform="scale(1 1) rotate(0) translate(4 46)">
<title>BankableMIDIOutput::getChannelsPerBank</title>
<polygon fill="white" stroke="none" points="-4,4 -4,-46 454,-46 454,4 -4,4"/>
<!-- Node8 -->
<g id="node1" class="node"><title>Node8</title>
<g id="a_node1"><a xlink:title=" ">
<polygon fill="#bfbfbf" stroke="black" points="335,-6 335,-36 450,-36 450,-6 335,-6"/>
<text text-anchor="start" x="343" y="-24" font-family="Helvetica,sans-Serif" font-size="10.00">BankableMIDIOutput</text>
<text text-anchor="middle" x="392.5" y="-13" font-family="Helvetica,sans-Serif" font-size="10.00">::getChannelsPerBank</text>
</a>
</g>
</g>
<!-- Node9 -->
<g id="node2" class="node"><title>Node9</title>
<g id="a_node2"><a xlink:href="classBankableMIDIOutput.html#a2732386557c854745227c4a5ea50de57" target="_top" xlink:title=" ">
<polygon fill="white" stroke="black" points="191,-6 191,-36 299,-36 299,-6 191,-6"/>
<text text-anchor="start" x="199" y="-24" font-family="Helvetica,sans-Serif" font-size="10.00">BankableMIDIOutput</text>
<text text-anchor="middle" x="245" y="-13" font-family="Helvetica,sans-Serif" font-size="10.00">::getChannel</text>
</a>
</g>
</g>
<!-- Node8&#45;&gt;Node9 -->
<g id="edge1" class="edge"><title>Node8&#45;&gt;Node9</title>
<path fill="none" stroke="midnightblue" d="M324.612,-21C316.168,-21 307.618,-21 299.42,-21"/>
<polygon fill="midnightblue" stroke="midnightblue" points="324.829,-24.5001 334.829,-21 324.829,-17.5001 324.829,-24.5001"/>
</g>
<!-- Node10 -->
<g id="node3" class="node"><title>Node10</title>
<g id="a_node3"><a xlink:href="classBankable_1_1MIDIFilteredAnalog.html#ab1a0f9e5acac4550476df16a31036a10" target="_top" xlink:title=" ">
<polygon fill="white" stroke="black" points="0,-0.5 0,-41.5 155,-41.5 155,-0.5 0,-0.5"/>
<text text-anchor="start" x="8" y="-29.5" font-family="Helvetica,sans-Serif" font-size="10.00">Bankable::MIDIFilteredAnalog</text>
<text text-anchor="start" x="8" y="-18.5" font-family="Helvetica,sans-Serif" font-size="10.00">&lt; PitchBendSender&lt; 8 &gt;::send,</text>
<text text-anchor="middle" x="77.5" y="-7.5" font-family="Helvetica,sans-Serif" font-size="10.00"> 8 &gt;::update</text>
</a>
</g>
</g>
<!-- Node9&#45;&gt;Node10 -->
<g id="edge2" class="edge"><title>Node9&#45;&gt;Node10</title>
<path fill="none" stroke="midnightblue" d="M180.702,-21C172.352,-21 163.722,-21 155.179,-21"/>
<polygon fill="midnightblue" stroke="midnightblue" points="180.724,-24.5001 190.724,-21 180.724,-17.5001 180.724,-24.5001"/>
</g>
</g>
</svg>
