<?xml version="1.0" encoding="UTF-8" standalone="no"?>
<!DOCTYPE svg PUBLIC "-//W3C//DTD SVG 1.1//EN"
 "http://www.w3.org/Graphics/SVG/1.1/DTD/svg11.dtd">
<!-- Generated by graphviz version 2.38.0 (20140413.2041)
 -->
<!-- Title: MCU_AssignmentDisplay Pages: 1 -->
<svg width="195pt" height="280pt"
 viewBox="0.00 0.00 194.50 280.00" xmlns="http://www.w3.org/2000/svg" xmlns:xlink="http://www.w3.org/1999/xlink">
<g id="graph0" class="graph" transform="scale(1 1) rotate(0) translate(4 276)">
<title>MCU_AssignmentDisplay</title>
<!-- Node5 -->
<g id="node1" class="node"><title>Node5</title>
<polygon fill="#bfbfbf" stroke="black" points="0,-0.5 0,-19.5 130,-19.5 130,-0.5 0,-0.5"/>
<text text-anchor="middle" x="65" y="-7.5" font-family="Helvetica,sans-Serif" font-size="10.00">MCU_AssignmentDisplay</text>
</g>
<!-- Node6 -->
<g id="node2" class="node"><title>Node6</title>
<g id="a_node2"><a xlink:href="classMCU__7SegmentDisplay.html" target="_top" xlink:title="MCU_7SegmentDisplay">
<polygon fill="none" stroke="black" points="4,-57.5 4,-76.5 126,-76.5 126,-57.5 4,-57.5"/>
<text text-anchor="middle" x="65" y="-64.5" font-family="Helvetica,sans-Serif" font-size="10.00">MCU_7SegmentDisplay</text>
</a>
</g>
</g>
<!-- Node6&#45;&gt;Node5 -->
<g id="edge1" class="edge"><title>Node6&#45;&gt;Node5</title>
<path fill="none" stroke="midnightblue" d="M65,-47.1166C65,-37.8173 65,-27.0557 65,-19.7149"/>
<polygon fill="midnightblue" stroke="midnightblue" points="61.5001,-47.4062 65,-57.4062 68.5001,-47.4063 61.5001,-47.4062"/>
</g>
<!-- Node7 -->
<g id="node3" class="node"><title>Node7</title>
<g id="a_node3"><a xlink:href="classMIDI__Input__Element__CC.html" target="_top" xlink:title="MIDI_Input_Element_CC">
<polygon fill="none" stroke="black" points="1.5,-126.5 1.5,-145.5 128.5,-145.5 128.5,-126.5 1.5,-126.5"/>
<text text-anchor="middle" x="65" y="-133.5" font-family="Helvetica,sans-Serif" font-size="10.00">MIDI_Input_Element_CC</text>
</a>
</g>
</g>
<!-- Node7&#45;&gt;Node6 -->
<g id="edge2" class="edge"><title>Node7&#45;&gt;Node6</title>
<path fill="none" stroke="midnightblue" d="M65,-116.018C65,-103.034 65,-86.4419 65,-76.5494"/>
<polygon fill="midnightblue" stroke="midnightblue" points="61.5001,-116.241 65,-126.241 68.5001,-116.241 61.5001,-116.241"/>
</g>
<!-- Node7&#45;&gt;Node7 -->
<g id="edge5" class="edge"><title>Node7&#45;&gt;Node7</title>
<path fill="none" stroke="#9a32cd" stroke-dasharray="5,2" d="M138.542,-141.397C143.494,-140.151 146.5,-138.352 146.5,-136 146.5,-132.328 139.174,-130.005 128.558,-129.029"/>
<polygon fill="#9a32cd" stroke="#9a32cd" points="137.891,-137.956 128.558,-142.971 138.981,-144.871 137.891,-137.956"/>
<text text-anchor="middle" x="166.5" y="-150" font-family="Helvetica,sans-Serif" font-size="10.00"> previous</text>
<text text-anchor="middle" x="166.5" y="-139" font-family="Helvetica,sans-Serif" font-size="10.00">next</text>
<text text-anchor="middle" x="166.5" y="-128" font-family="Helvetica,sans-Serif" font-size="10.00">last</text>
<text text-anchor="middle" x="166.5" y="-117" font-family="Helvetica,sans-Serif" font-size="10.00">first</text>
</g>
<!-- Node8 -->
<g id="node4" class="node"><title>Node8</title>
<g id="a_node4"><a xlink:href="classMIDI__Input__Element.html" target="_top" xlink:title="MIDI_Input_Element">
<polygon fill="none" stroke="black" points="11.5,-195.5 11.5,-214.5 118.5,-214.5 118.5,-195.5 11.5,-195.5"/>
<text text-anchor="middle" x="65" y="-202.5" font-family="Helvetica,sans-Serif" font-size="10.00">MIDI_Input_Element</text>
</a>
</g>
</g>
<!-- Node8&#45;&gt;Node7 -->
<g id="edge3" class="edge"><title>Node8&#45;&gt;Node7</title>
<path fill="none" stroke="midnightblue" d="M65,-185.018C65,-172.034 65,-155.442 65,-145.549"/>
<polygon fill="midnightblue" stroke="midnightblue" points="61.5001,-185.241 65,-195.241 68.5001,-185.241 61.5001,-185.241"/>
</g>
<!-- Node9 -->
<g id="node5" class="node"><title>Node9</title>
<g id="a_node5"><a xlink:href="classMIDI__Element.html" target="_top" xlink:title="MIDI_Element">
<polygon fill="none" stroke="black" points="25,-252.5 25,-271.5 105,-271.5 105,-252.5 25,-252.5"/>
<text text-anchor="middle" x="65" y="-259.5" font-family="Helvetica,sans-Serif" font-size="10.00">MIDI_Element</text>
</a>
</g>
</g>
<!-- Node9&#45;&gt;Node8 -->
<g id="edge4" class="edge"><title>Node9&#45;&gt;Node8</title>
<path fill="none" stroke="midnightblue" d="M65,-242.117C65,-232.817 65,-222.056 65,-214.715"/>
<polygon fill="midnightblue" stroke="midnightblue" points="61.5001,-242.406 65,-252.406 68.5001,-242.406 61.5001,-242.406"/>
</g>
</g>
</svg>
