<?xml version="1.0" encoding="UTF-8" standalone="no"?>
<!DOCTYPE svg PUBLIC "-//W3C//DTD SVG 1.1//EN"
 "http://www.w3.org/Graphics/SVG/1.1/DTD/svg11.dtd">
<!-- Generated by graphviz version 2.38.0 (20140413.2041)
 -->
<!-- Title: StreamDebugMIDI_Interface Pages: 1 -->
<svg width="377pt" height="938pt"
 viewBox="0.00 0.00 377.00 938.00" xmlns="http://www.w3.org/2000/svg" xmlns:xlink="http://www.w3.org/1999/xlink">
<g id="graph0" class="graph" transform="scale(1 1) rotate(0) translate(4 934)">
<title>StreamDebugMIDI_Interface</title>
<polygon fill="white" stroke="none" points="-4,4 -4,-934 373,-934 373,4 -4,4"/>
<!-- Node10 -->
<g id="node1" class="node"><title>Node10</title>
<g id="a_node1"><a xlink:title="A class for MIDI interfaces sending and receiving human&#45;readable MIDI messages over a Stream.">
<polygon fill="#bfbfbf" stroke="black" points="55,-0.5 55,-145.5 212,-145.5 212,-0.5 55,-0.5"/>
<text text-anchor="middle" x="133.5" y="-133.5" font-family="Helvetica,sans-Serif" font-size="10.00">StreamDebugMIDI_Interface</text>
<polyline fill="none" stroke="black" points="55,-126.5 212,-126.5 "/>
<text text-anchor="start" x="63" y="-114.5" font-family="Helvetica,sans-Serif" font-size="10.00">&#45; firstChar</text>
<text text-anchor="start" x="63" y="-103.5" font-family="Helvetica,sans-Serif" font-size="10.00">&#45; secondChar</text>
<polyline fill="none" stroke="black" points="55,-96.5 212,-96.5 "/>
<text text-anchor="start" x="63" y="-84.5" font-family="Helvetica,sans-Serif" font-size="10.00">+ StreamDebugMIDI_Interface()</text>
<text text-anchor="start" x="63" y="-73.5" font-family="Helvetica,sans-Serif" font-size="10.00">+ read()</text>
<text text-anchor="start" x="63" y="-62.5" font-family="Helvetica,sans-Serif" font-size="10.00"># sendImpl()</text>
<text text-anchor="start" x="63" y="-51.5" font-family="Helvetica,sans-Serif" font-size="10.00"># sendImpl()</text>
<text text-anchor="start" x="63" y="-40.5" font-family="Helvetica,sans-Serif" font-size="10.00">&#45; isHexChar()</text>
<text text-anchor="start" x="63" y="-29.5" font-family="Helvetica,sans-Serif" font-size="10.00">&#45; toLowerCase()</text>
<text text-anchor="start" x="63" y="-18.5" font-family="Helvetica,sans-Serif" font-size="10.00">&#45; hexCharToNibble()</text>
<text text-anchor="start" x="63" y="-7.5" font-family="Helvetica,sans-Serif" font-size="10.00">&#45; isWhiteSpace()</text>
</a>
</g>
</g>
<!-- Node11 -->
<g id="node2" class="node"><title>Node11</title>
<g id="a_node2"><a xlink:href="classStreamMIDI__Interface.html" target="_top" xlink:title="A class for MIDI interfaces sending and receiving MIDI messages over a Stream.">
<polygon fill="white" stroke="black" points="69.5,-183.5 69.5,-273.5 197.5,-273.5 197.5,-183.5 69.5,-183.5"/>
<text text-anchor="middle" x="133.5" y="-261.5" font-family="Helvetica,sans-Serif" font-size="10.00">StreamMIDI_Interface</text>
<polyline fill="none" stroke="black" points="69.5,-254.5 197.5,-254.5 "/>
<text text-anchor="start" x="77.5" y="-242.5" font-family="Helvetica,sans-Serif" font-size="10.00"># stream</text>
<polyline fill="none" stroke="black" points="69.5,-235.5 197.5,-235.5 "/>
<text text-anchor="start" x="77.5" y="-223.5" font-family="Helvetica,sans-Serif" font-size="10.00">+ StreamMIDI_Interface()</text>
<text text-anchor="start" x="77.5" y="-212.5" font-family="Helvetica,sans-Serif" font-size="10.00">+ read()</text>
<text text-anchor="start" x="77.5" y="-201.5" font-family="Helvetica,sans-Serif" font-size="10.00"># sendImpl()</text>
<text text-anchor="start" x="77.5" y="-190.5" font-family="Helvetica,sans-Serif" font-size="10.00"># sendImpl()</text>
</a>
</g>
</g>
<!-- Node11&#45;&gt;Node10 -->
<g id="edge1" class="edge"><title>Node11&#45;&gt;Node10</title>
<path fill="none" stroke="midnightblue" d="M133.5,-172.98C133.5,-164.165 133.5,-154.921 133.5,-145.771"/>
<polygon fill="none" stroke="midnightblue" points="130,-173.101 133.5,-183.101 137,-173.101 130,-173.101"/>
</g>
<!-- Node12 -->
<g id="node3" class="node"><title>Node12</title>
<g id="a_node3"><a xlink:href="classMIDI__Interface.html" target="_top" xlink:title="An abstract class for MIDI interfaces.">
<polygon fill="white" stroke="black" points="127,-321.5 127,-554.5 248,-554.5 248,-321.5 127,-321.5"/>
<text text-anchor="middle" x="187.5" y="-542.5" font-family="Helvetica,sans-Serif" font-size="10.00">MIDI_Interface</text>
<polyline fill="none" stroke="black" points="127,-535.5 248,-535.5 "/>
<text text-anchor="middle" x="187.5" y="-523.5" font-family="Helvetica,sans-Serif" font-size="10.00"> </text>
<polyline fill="none" stroke="black" points="127,-516.5 248,-516.5 "/>
<text text-anchor="start" x="135" y="-504.5" font-family="Helvetica,sans-Serif" font-size="10.00">+ setCallbacks()</text>
<text text-anchor="start" x="135" y="-493.5" font-family="Helvetica,sans-Serif" font-size="10.00">+ ~MIDI_Interface()</text>
<text text-anchor="start" x="135" y="-482.5" font-family="Helvetica,sans-Serif" font-size="10.00">+ begin()</text>
<text text-anchor="start" x="135" y="-471.5" font-family="Helvetica,sans-Serif" font-size="10.00">+ send()</text>
<text text-anchor="start" x="135" y="-460.5" font-family="Helvetica,sans-Serif" font-size="10.00">+ send()</text>
<text text-anchor="start" x="135" y="-449.5" font-family="Helvetica,sans-Serif" font-size="10.00">+ update()</text>
<text text-anchor="start" x="135" y="-438.5" font-family="Helvetica,sans-Serif" font-size="10.00">+ read()</text>
<text text-anchor="start" x="135" y="-427.5" font-family="Helvetica,sans-Serif" font-size="10.00">+ setAsDefault()</text>
<text text-anchor="start" x="135" y="-416.5" font-family="Helvetica,sans-Serif" font-size="10.00">+ getChannelMessage()</text>
<text text-anchor="start" x="135" y="-405.5" font-family="Helvetica,sans-Serif" font-size="10.00">+ getSysExLength()</text>
<text text-anchor="start" x="135" y="-394.5" font-family="Helvetica,sans-Serif" font-size="10.00">+ getSysExBuffer()</text>
<text text-anchor="start" x="135" y="-383.5" font-family="Helvetica,sans-Serif" font-size="10.00">+ getDefault()</text>
<text text-anchor="start" x="135" y="-372.5" font-family="Helvetica,sans-Serif" font-size="10.00"># MIDI_Interface()</text>
<text text-anchor="start" x="135" y="-361.5" font-family="Helvetica,sans-Serif" font-size="10.00"># onChannelMessage()</text>
<text text-anchor="start" x="135" y="-350.5" font-family="Helvetica,sans-Serif" font-size="10.00"># onSysExMessage()</text>
<text text-anchor="start" x="135" y="-339.5" font-family="Helvetica,sans-Serif" font-size="10.00">&#45; sendImpl()</text>
<text text-anchor="start" x="135" y="-328.5" font-family="Helvetica,sans-Serif" font-size="10.00">&#45; sendImpl()</text>
</a>
</g>
</g>
<!-- Node12&#45;&gt;Node11 -->
<g id="edge2" class="edge"><title>Node12&#45;&gt;Node11</title>
<path fill="none" stroke="midnightblue" d="M154.855,-311.557C151.358,-298.119 147.993,-285.189 145.009,-273.725"/>
<polygon fill="none" stroke="midnightblue" points="151.515,-312.623 157.421,-321.419 158.29,-310.86 151.515,-312.623"/>
</g>
<!-- Node12&#45;&gt;Node12 -->
<g id="edge6" class="edge"><title>Node12&#45;&gt;Node12</title>
<path fill="none" stroke="#404040" d="M248.062,-462.609C258.641,-459.328 266,-451.125 266,-438 266,-430.002 263.267,-423.832 258.738,-419.489"/>
<polygon fill="none" stroke="#404040" points="258.482,-419.342 251.288,-419.84 248.062,-413.391 255.255,-412.893 258.482,-419.342"/>
<text text-anchor="middle" x="317.5" y="-435.5" font-family="Helvetica,sans-Serif" font-size="10.00"> &#45;DefaultMIDI_Interface</text>
</g>
<!-- Node13 -->
<g id="node4" class="node"><title>Node13</title>
<g id="a_node4"><a xlink:href="classMIDI__Parser.html" target="_top" xlink:title=" ">
<polygon fill="white" stroke="black" points="0,-602.5 0,-791.5 121,-791.5 121,-602.5 0,-602.5"/>
<text text-anchor="middle" x="60.5" y="-779.5" font-family="Helvetica,sans-Serif" font-size="10.00">MIDI_Parser</text>
<polyline fill="none" stroke="black" points="0,-772.5 121,-772.5 "/>
<text text-anchor="start" x="8" y="-760.5" font-family="Helvetica,sans-Serif" font-size="10.00"># SysExBuffer</text>
<text text-anchor="start" x="8" y="-749.5" font-family="Helvetica,sans-Serif" font-size="10.00"># SysExLength</text>
<text text-anchor="start" x="8" y="-738.5" font-family="Helvetica,sans-Serif" font-size="10.00"># receivingSysEx</text>
<text text-anchor="start" x="8" y="-727.5" font-family="Helvetica,sans-Serif" font-size="10.00"># bufferSize</text>
<polyline fill="none" stroke="black" points="0,-720.5 121,-720.5 "/>
<text text-anchor="start" x="8" y="-708.5" font-family="Helvetica,sans-Serif" font-size="10.00">+ getChannelMessage()</text>
<text text-anchor="start" x="8" y="-697.5" font-family="Helvetica,sans-Serif" font-size="10.00">+ getSysExBuffer()</text>
<text text-anchor="start" x="8" y="-686.5" font-family="Helvetica,sans-Serif" font-size="10.00">+ getSysExLength()</text>
<text text-anchor="start" x="8" y="-675.5" font-family="Helvetica,sans-Serif" font-size="10.00">+ getSysExMessage()</text>
<text text-anchor="start" x="8" y="-664.5" font-family="Helvetica,sans-Serif" font-size="10.00">+ isStatus()</text>
<text text-anchor="start" x="8" y="-653.5" font-family="Helvetica,sans-Serif" font-size="10.00">+ isData()</text>
<text text-anchor="start" x="8" y="-642.5" font-family="Helvetica,sans-Serif" font-size="10.00"># startSysEx()</text>
<text text-anchor="start" x="8" y="-631.5" font-family="Helvetica,sans-Serif" font-size="10.00"># endSysEx()</text>
<text text-anchor="start" x="8" y="-620.5" font-family="Helvetica,sans-Serif" font-size="10.00"># addSysExByte()</text>
<text text-anchor="start" x="8" y="-609.5" font-family="Helvetica,sans-Serif" font-size="10.00"># hasSpaceLeft()</text>
</a>
</g>
</g>
<!-- Node13&#45;&gt;Node12 -->
<g id="edge3" class="edge"><title>Node13&#45;&gt;Node12</title>
<path fill="none" stroke="#404040" d="M106.709,-602.49C112.633,-590.502 118.775,-578.073 124.905,-565.668"/>
<polygon fill="none" stroke="#404040" points="124.968,-565.542 124.04,-558.39 130.284,-554.783 131.212,-561.935 124.968,-565.542"/>
<text text-anchor="middle" x="137.5" y="-576" font-family="Helvetica,sans-Serif" font-size="10.00"> &#45;parser</text>
</g>
<!-- Node16 -->
<g id="node7" class="node"><title>Node16</title>
<g id="a_node7"><a xlink:href="classSerialMIDI__Parser.html" target="_top" xlink:title=" ">
<polygon fill="white" stroke="black" points="12,-409.5 12,-466.5 109,-466.5 109,-409.5 12,-409.5"/>
<text text-anchor="middle" x="60.5" y="-454.5" font-family="Helvetica,sans-Serif" font-size="10.00">SerialMIDI_Parser</text>
<polyline fill="none" stroke="black" points="12,-447.5 109,-447.5 "/>
<text text-anchor="start" x="20" y="-435.5" font-family="Helvetica,sans-Serif" font-size="10.00">&#45; thirdByte</text>
<polyline fill="none" stroke="black" points="12,-428.5 109,-428.5 "/>
<text text-anchor="start" x="20" y="-416.5" font-family="Helvetica,sans-Serif" font-size="10.00">+ parse()</text>
</a>
</g>
</g>
<!-- Node13&#45;&gt;Node16 -->
<g id="edge8" class="edge"><title>Node13&#45;&gt;Node16</title>
<path fill="none" stroke="midnightblue" d="M60.5,-592.223C60.5,-546.599 60.5,-496.653 60.5,-466.58"/>
<polygon fill="none" stroke="midnightblue" points="57.0001,-592.49 60.5,-602.49 64.0001,-592.49 57.0001,-592.49"/>
</g>
<!-- Node14 -->
<g id="node5" class="node"><title>Node14</title>
<g id="a_node5"><a xlink:href="structMIDI__message.html" target="_top" xlink:title=" ">
<polygon fill="white" stroke="black" points="19,-839.5 19,-929.5 102,-929.5 102,-839.5 19,-839.5"/>
<text text-anchor="middle" x="60.5" y="-917.5" font-family="Helvetica,sans-Serif" font-size="10.00">MIDI_message</text>
<polyline fill="none" stroke="black" points="19,-910.5 102,-910.5 "/>
<text text-anchor="start" x="27" y="-898.5" font-family="Helvetica,sans-Serif" font-size="10.00">+ header</text>
<text text-anchor="start" x="27" y="-887.5" font-family="Helvetica,sans-Serif" font-size="10.00">+ data1</text>
<text text-anchor="start" x="27" y="-876.5" font-family="Helvetica,sans-Serif" font-size="10.00">+ data2</text>
<polyline fill="none" stroke="black" points="19,-869.5 102,-869.5 "/>
<text text-anchor="start" x="27" y="-857.5" font-family="Helvetica,sans-Serif" font-size="10.00">+ operator==()</text>
<text text-anchor="start" x="27" y="-846.5" font-family="Helvetica,sans-Serif" font-size="10.00">+ operator!=()</text>
</a>
</g>
</g>
<!-- Node14&#45;&gt;Node13 -->
<g id="edge4" class="edge"><title>Node14&#45;&gt;Node13</title>
<path fill="none" stroke="#404040" d="M60.5,-839.068C60.5,-828.296 60.5,-816.318 60.5,-804.021"/>
<polygon fill="none" stroke="#404040" points="60.5001,-803.652 56.5,-797.652 60.5,-791.652 64.5,-797.652 60.5001,-803.652"/>
<text text-anchor="middle" x="83.5" y="-813" font-family="Helvetica,sans-Serif" font-size="10.00"> #midimsg</text>
</g>
<!-- Node15 -->
<g id="node6" class="node"><title>Node15</title>
<g id="a_node6"><a xlink:href="classMIDI__Callbacks.html" target="_top" xlink:title="A class for callbacks from MIDI input.">
<polygon fill="white" stroke="black" points="139,-657.5 139,-736.5 254,-736.5 254,-657.5 139,-657.5"/>
<text text-anchor="middle" x="196.5" y="-724.5" font-family="Helvetica,sans-Serif" font-size="10.00">MIDI_Callbacks</text>
<polyline fill="none" stroke="black" points="139,-717.5 254,-717.5 "/>
<text text-anchor="middle" x="196.5" y="-705.5" font-family="Helvetica,sans-Serif" font-size="10.00"> </text>
<polyline fill="none" stroke="black" points="139,-698.5 254,-698.5 "/>
<text text-anchor="start" x="147" y="-686.5" font-family="Helvetica,sans-Serif" font-size="10.00">+ ~MIDI_Callbacks()</text>
<text text-anchor="start" x="147" y="-675.5" font-family="Helvetica,sans-Serif" font-size="10.00">&#45; onChannelMessage()</text>
<text text-anchor="start" x="147" y="-664.5" font-family="Helvetica,sans-Serif" font-size="10.00">&#45; onSysExMessage()</text>
</a>
</g>
</g>
<!-- Node15&#45;&gt;Node12 -->
<g id="edge5" class="edge"><title>Node15&#45;&gt;Node12</title>
<path fill="none" stroke="#404040" d="M195.143,-657.246C194.288,-632.831 193.13,-599.781 191.975,-566.794"/>
<polygon fill="none" stroke="#404040" points="191.97,-566.652 187.763,-560.796 191.55,-554.659 195.758,-560.516 191.97,-566.652"/>
<text text-anchor="middle" x="217.5" y="-576" font-family="Helvetica,sans-Serif" font-size="10.00"> &#45;callbacks</text>
</g>
<!-- Node16&#45;&gt;Node11 -->
<g id="edge7" class="edge"><title>Node16&#45;&gt;Node11</title>
<path fill="none" stroke="#404040" d="M70.1802,-409.472C80.437,-380.305 97.107,-332.905 111.5,-292 112.32,-289.669 113.158,-287.288 114.004,-284.884"/>
<polygon fill="none" stroke="#404040" points="114.01,-284.867 112.229,-277.879 117.994,-273.547 119.775,-280.535 114.01,-284.867"/>
<text text-anchor="middle" x="129.5" y="-295" font-family="Helvetica,sans-Serif" font-size="10.00"> #parser</text>
</g>
</g>
</svg>
