<?xml version="1.0" encoding="UTF-8" standalone="no"?>
<!DOCTYPE svg PUBLIC "-//W3C//DTD SVG 1.1//EN"
 "http://www.w3.org/Graphics/SVG/1.1/DTD/svg11.dtd">
<!-- Generated by graphviz version 2.38.0 (20140413.2041)
 -->
<!-- Title: MCU::SevenSegmentDisplay::getCharacterAt Pages: 1 -->
<svg width="336pt" height="110pt"
 viewBox="0.00 0.00 336.00 110.00" xmlns="http://www.w3.org/2000/svg" xmlns:xlink="http://www.w3.org/1999/xlink">
<g id="graph0" class="graph" transform="scale(1 1) rotate(0) translate(4 106)">
<title>MCU::SevenSegmentDisplay::getCharacterAt</title>
<polygon fill="white" stroke="none" points="-4,4 -4,-106 332,-106 332,4 -4,4"/>
<!-- Node32 -->
<g id="node1" class="node"><title>Node32</title>
<g id="a_node1"><a xlink:title="Get the character at the given index.">
<polygon fill="#bfbfbf" stroke="black" points="182,-36 182,-66 328,-66 328,-36 182,-36"/>
<text text-anchor="start" x="190" y="-54" font-family="Helvetica,sans-Serif" font-size="10.00">MCU::SevenSegmentDisplay</text>
<text text-anchor="middle" x="255" y="-43" font-family="Helvetica,sans-Serif" font-size="10.00">::getCharacterAt</text>
</a>
</g>
</g>
<!-- Node33 -->
<g id="node2" class="node"><title>Node33</title>
<g id="a_node2"><a xlink:href="classMCU_1_1SevenSegmentDisplay.html#a8ce47a066566b38c61278cd702ce11e8" target="_top" xlink:title="Copy the ASCII text into the given buffer.">
<polygon fill="white" stroke="black" points="0,-60.5 0,-101.5 146,-101.5 146,-60.5 0,-60.5"/>
<text text-anchor="start" x="8" y="-89.5" font-family="Helvetica,sans-Serif" font-size="10.00">MCU::SevenSegmentDisplay</text>
<text text-anchor="start" x="8" y="-78.5" font-family="Helvetica,sans-Serif" font-size="10.00">&lt; TimeDisplayLength &gt;::</text>
<text text-anchor="middle" x="73" y="-67.5" font-family="Helvetica,sans-Serif" font-size="10.00">getText</text>
</a>
</g>
</g>
<!-- Node32&#45;&gt;Node33 -->
<g id="edge1" class="edge"><title>Node32&#45;&gt;Node33</title>
<path fill="none" stroke="midnightblue" d="M171.84,-64.6933C163.282,-66.1197 154.628,-67.562 146.192,-68.968"/>
<polygon fill="midnightblue" stroke="midnightblue" points="172.536,-68.1257 181.824,-63.0293 171.385,-61.221 172.536,-68.1257"/>
</g>
<!-- Node34 -->
<g id="node3" class="node"><title>Node34</title>
<g id="a_node3"><a xlink:href="classMCU_1_1SevenSegmentDisplay.html#a3a6b88b2ced14db4c783b80e22a2c8b1" target="_top" xlink:title="Print out the text of the display to the given Print.">
<polygon fill="white" stroke="black" points="0,-0.5 0,-41.5 146,-41.5 146,-0.5 0,-0.5"/>
<text text-anchor="start" x="8" y="-29.5" font-family="Helvetica,sans-Serif" font-size="10.00">MCU::SevenSegmentDisplay</text>
<text text-anchor="start" x="8" y="-18.5" font-family="Helvetica,sans-Serif" font-size="10.00">&lt; TimeDisplayLength &gt;::</text>
<text text-anchor="middle" x="73" y="-7.5" font-family="Helvetica,sans-Serif" font-size="10.00">printTo</text>
</a>
</g>
</g>
<!-- Node32&#45;&gt;Node34 -->
<g id="edge2" class="edge"><title>Node32&#45;&gt;Node34</title>
<path fill="none" stroke="midnightblue" d="M171.84,-37.3067C163.282,-35.8803 154.628,-34.438 146.192,-33.032"/>
<polygon fill="midnightblue" stroke="midnightblue" points="171.385,-40.779 181.824,-38.9707 172.536,-33.8743 171.385,-40.779"/>
</g>
</g>
</svg>
