<?xml version="1.0" encoding="UTF-8" standalone="no"?>
<!DOCTYPE svg PUBLIC "-//W3C//DTD SVG 1.1//EN"
 "http://www.w3.org/Graphics/SVG/1.1/DTD/svg11.dtd">
<!-- Generated by graphviz version 2.38.0 (20140413.2041)
 -->
<!-- Title: ShiftRegisterOut::digitalRead Pages: 1 -->
<svg width="778pt" height="85pt"
 viewBox="0.00 0.00 778.00 85.00" xmlns="http://www.w3.org/2000/svg" xmlns:xlink="http://www.w3.org/1999/xlink">
<g id="graph0" class="graph" transform="scale(1 1) rotate(0) translate(4 81)">
<title>ShiftRegisterOut::digitalRead</title>
<polygon fill="white" stroke="none" points="-4,4 -4,-81 774,-81 774,4 -4,4"/>
<!-- Node51 -->
<g id="node1" class="node"><title>Node51</title>
<g id="a_node1"><a xlink:title="Get the current state of a given output pin.">
<polygon fill="#bfbfbf" stroke="black" points="0,-19.5 0,-38.5 144,-38.5 144,-19.5 0,-19.5"/>
<text text-anchor="middle" x="72" y="-26.5" font-family="Helvetica,sans-Serif" font-size="10.00">ShiftRegisterOut::digitalRead</text>
</a>
</g>
</g>
<!-- Node52 -->
<g id="node2" class="node"><title>Node52</title>
<g id="a_node2"><a xlink:href="classBitArray.html#a66ea19e962b49a96a8f10f208c050b00" target="_top" xlink:title=" ">
<polygon fill="white" stroke="black" points="206,-38.5 206,-57.5 277,-57.5 277,-38.5 206,-38.5"/>
<text text-anchor="middle" x="241.5" y="-45.5" font-family="Helvetica,sans-Serif" font-size="10.00">BitArray::get</text>
</a>
</g>
</g>
<!-- Node51&#45;&gt;Node52 -->
<g id="edge1" class="edge"><title>Node51&#45;&gt;Node52</title>
<path fill="none" stroke="midnightblue" d="M144.035,-37.0577C161.589,-39.0489 179.907,-41.1267 195.805,-42.9301"/>
<polygon fill="midnightblue" stroke="midnightblue" points="195.539,-46.4223 205.87,-44.0718 196.328,-39.4669 195.539,-46.4223"/>
</g>
<!-- Node58 -->
<g id="node8" class="node"><title>Node58</title>
<g id="a_node8"><a xlink:href="classExtendedIOElement.html#a163cffb9da0f3b7fdcb3c49b58393c03" target="_top" xlink:title="Get the extended IO pin number of a given physical pin of this extended IO element.">
<polygon fill="white" stroke="black" points="180,-0.5 180,-19.5 303,-19.5 303,-0.5 180,-0.5"/>
<text text-anchor="middle" x="241.5" y="-7.5" font-family="Helvetica,sans-Serif" font-size="10.00">ExtendedIOElement::pin</text>
</a>
</g>
</g>
<!-- Node51&#45;&gt;Node58 -->
<g id="edge7" class="edge"><title>Node51&#45;&gt;Node58</title>
<path fill="none" stroke="midnightblue" d="M144.035,-20.9423C152.623,-19.9682 161.393,-18.9733 169.973,-18"/>
<polygon fill="midnightblue" stroke="midnightblue" points="170.394,-21.4748 179.936,-16.8699 169.605,-14.5194 170.394,-21.4748"/>
</g>
<!-- Node53 -->
<g id="node3" class="node"><title>Node53</title>
<g id="a_node3"><a xlink:href="classBitArray.html#abd9fb6d2f1b9ff72e11b2a7896138e44" target="_top" xlink:title=" ">
<polygon fill="white" stroke="black" points="339,-57.5 339,-76.5 461,-76.5 461,-57.5 339,-57.5"/>
<text text-anchor="middle" x="400" y="-64.5" font-family="Helvetica,sans-Serif" font-size="10.00">BitArray::getBufferIndex</text>
</a>
</g>
</g>
<!-- Node52&#45;&gt;Node53 -->
<g id="edge2" class="edge"><title>Node52&#45;&gt;Node53</title>
<path fill="none" stroke="midnightblue" d="M277.232,-52.2167C292.363,-54.0537 310.677,-56.2771 328.455,-58.4354"/>
<polygon fill="midnightblue" stroke="midnightblue" points="328.483,-61.9645 338.832,-59.6953 329.327,-55.0155 328.483,-61.9645"/>
</g>
<!-- Node56 -->
<g id="node6" class="node"><title>Node56</title>
<g id="a_node6"><a xlink:href="classBitArray.html#a22f43403e0dbd04b67c248f6e5f56525" target="_top" xlink:title=" ">
<polygon fill="white" stroke="black" points="339,-19.5 339,-38.5 461,-38.5 461,-19.5 339,-19.5"/>
<text text-anchor="middle" x="400" y="-26.5" font-family="Helvetica,sans-Serif" font-size="10.00">BitArray::getBufferMask</text>
</a>
</g>
</g>
<!-- Node52&#45;&gt;Node56 -->
<g id="edge5" class="edge"><title>Node52&#45;&gt;Node56</title>
<path fill="none" stroke="midnightblue" d="M277.232,-43.7833C292.363,-41.9463 310.677,-39.7229 328.455,-37.5646"/>
<polygon fill="midnightblue" stroke="midnightblue" points="329.327,-40.9845 338.832,-36.3047 328.483,-34.0355 329.327,-40.9845"/>
</g>
<!-- Node54 -->
<g id="node4" class="node"><title>Node54</title>
<g id="a_node4"><a xlink:href="classBitArray.html#a04c467b2f19a2329a4318d5da74bb35e" target="_top" xlink:title=" ">
<polygon fill="white" stroke="black" points="501.5,-57.5 501.5,-76.5 602.5,-76.5 602.5,-57.5 501.5,-57.5"/>
<text text-anchor="middle" x="552" y="-64.5" font-family="Helvetica,sans-Serif" font-size="10.00">BitArray::safeIndex</text>
</a>
</g>
</g>
<!-- Node53&#45;&gt;Node54 -->
<g id="edge3" class="edge"><title>Node53&#45;&gt;Node54</title>
<path fill="none" stroke="midnightblue" d="M461.146,-67C471.067,-67 481.349,-67 491.26,-67"/>
<polygon fill="midnightblue" stroke="midnightblue" points="491.423,-70.5001 501.423,-67 491.423,-63.5001 491.423,-70.5001"/>
</g>
<!-- Node55 -->
<g id="node5" class="node"><title>Node55</title>
<g id="a_node5"><a xlink:href="classBitArray.html#aacefcc4192572972267e4a488078c55f" target="_top" xlink:title=" ">
<polygon fill="white" stroke="black" points="643,-57.5 643,-76.5 770,-76.5 770,-57.5 643,-57.5"/>
<text text-anchor="middle" x="706.5" y="-64.5" font-family="Helvetica,sans-Serif" font-size="10.00">BitArray::getBufferLength</text>
</a>
</g>
</g>
<!-- Node54&#45;&gt;Node55 -->
<g id="edge4" class="edge"><title>Node54&#45;&gt;Node55</title>
<path fill="none" stroke="midnightblue" d="M602.512,-67C612.166,-67 622.475,-67 632.7,-67"/>
<polygon fill="midnightblue" stroke="midnightblue" points="632.871,-70.5001 642.871,-67 632.871,-63.5001 632.871,-70.5001"/>
</g>
<!-- Node57 -->
<g id="node7" class="node"><title>Node57</title>
<g id="a_node7"><a xlink:href="classBitArray.html#a7e058b8579faec7721f6683c7dcbad24" target="_top" xlink:title=" ">
<polygon fill="white" stroke="black" points="497,-19.5 497,-38.5 607,-38.5 607,-19.5 497,-19.5"/>
<text text-anchor="middle" x="552" y="-26.5" font-family="Helvetica,sans-Serif" font-size="10.00">BitArray::getBufferBit</text>
</a>
</g>
</g>
<!-- Node56&#45;&gt;Node57 -->
<g id="edge6" class="edge"><title>Node56&#45;&gt;Node57</title>
<path fill="none" stroke="midnightblue" d="M461.146,-29C469.491,-29 478.09,-29 486.51,-29"/>
<polygon fill="midnightblue" stroke="midnightblue" points="486.661,-32.5001 496.661,-29 486.661,-25.5001 486.661,-32.5001"/>
</g>
</g>
</svg>
