<?xml version="1.0" encoding="UTF-8" standalone="no"?>
<!DOCTYPE svg PUBLIC "-//W3C//DTD SVG 1.1//EN"
 "http://www.w3.org/Graphics/SVG/1.1/DTD/svg11.dtd">
<!-- Generated by graphviz version 2.38.0 (20140413.2041)
 -->
<!-- Title: Selector::decrement Pages: 1 -->
<svg width="389pt" height="104pt"
 viewBox="0.00 0.00 389.00 104.00" xmlns="http://www.w3.org/2000/svg" xmlns:xlink="http://www.w3.org/1999/xlink">
<g id="graph0" class="graph" transform="scale(1 1) rotate(0) translate(4 100)">
<title>Selector::decrement</title>
<polygon fill="white" stroke="none" points="-4,4 -4,-100 385,-100 385,4 -4,4"/>
<!-- Node24 -->
<g id="node1" class="node"><title>Node24</title>
<g id="a_node1"><a xlink:title=" ">
<polygon fill="#bfbfbf" stroke="black" points="0,-57.5 0,-76.5 104,-76.5 104,-57.5 0,-57.5"/>
<text text-anchor="middle" x="52" y="-64.5" font-family="Helvetica,sans-Serif" font-size="10.00">Selector::decrement</text>
</a>
</g>
</g>
<!-- Node25 -->
<g id="node2" class="node"><title>Node25</title>
<g id="a_node2"><a xlink:href="classSelector.html#a3752b5ddd24addec01b3898f55c0a8ab" target="_top" xlink:title=" ">
<polygon fill="white" stroke="black" points="278.5,-76.5 278.5,-95.5 350.5,-95.5 350.5,-76.5 278.5,-76.5"/>
<text text-anchor="middle" x="314.5" y="-83.5" font-family="Helvetica,sans-Serif" font-size="10.00">Selector::get</text>
</a>
</g>
</g>
<!-- Node24&#45;&gt;Node25 -->
<g id="edge1" class="edge"><title>Node24&#45;&gt;Node25</title>
<path fill="none" stroke="midnightblue" d="M104.156,-70.7311C151.856,-74.2102 222.334,-79.3506 268.088,-82.6878"/>
<polygon fill="midnightblue" stroke="midnightblue" points="268.08,-86.1964 278.308,-83.4332 268.589,-79.215 268.08,-86.1964"/>
</g>
<!-- Node26 -->
<g id="node3" class="node"><title>Node26</title>
<g id="a_node3"><a xlink:href="classSelector.html#ab567692bb6cb8509a2856a6cd6f46361" target="_top" xlink:title=" ">
<polygon fill="white" stroke="black" points="140,-38.5 140,-57.5 212,-57.5 212,-38.5 140,-38.5"/>
<text text-anchor="middle" x="176" y="-45.5" font-family="Helvetica,sans-Serif" font-size="10.00">Selector::set</text>
</a>
</g>
</g>
<!-- Node24&#45;&gt;Node26 -->
<g id="edge2" class="edge"><title>Node24&#45;&gt;Node26</title>
<path fill="none" stroke="midnightblue" d="M104.032,-59.0524C112.574,-57.7222 121.383,-56.3502 129.766,-55.0447"/>
<polygon fill="midnightblue" stroke="midnightblue" points="130.391,-58.4896 139.733,-53.4924 129.314,-51.573 130.391,-58.4896"/>
</g>
<!-- Node26&#45;&gt;Node25 -->
<g id="edge5" class="edge"><title>Node26&#45;&gt;Node25</title>
<path fill="none" stroke="midnightblue" d="M211.445,-57.589C228.985,-62.4719 250.51,-68.4643 269.263,-73.685"/>
<polygon fill="midnightblue" stroke="midnightblue" points="268.494,-77.1039 279.066,-76.4141 270.371,-70.3603 268.494,-77.1039"/>
</g>
<!-- Node27 -->
<g id="node4" class="node"><title>Node27</title>
<g id="a_node4"><a xlink:href="classSelectable.html#a84428fa44ab8703ba47eee0a896a3a96" target="_top" xlink:title=" ">
<polygon fill="white" stroke="black" points="248,-38.5 248,-57.5 381,-57.5 381,-38.5 248,-38.5"/>
<text text-anchor="middle" x="314.5" y="-45.5" font-family="Helvetica,sans-Serif" font-size="10.00">Selectable::validateSetting</text>
</a>
</g>
</g>
<!-- Node26&#45;&gt;Node27 -->
<g id="edge3" class="edge"><title>Node26&#45;&gt;Node27</title>
<path fill="none" stroke="midnightblue" d="M212.152,-48C220.13,-48 228.903,-48 237.849,-48"/>
<polygon fill="midnightblue" stroke="midnightblue" points="237.988,-51.5001 247.988,-48 237.988,-44.5001 237.988,-51.5001"/>
</g>
<!-- Node28 -->
<g id="node5" class="node"><title>Node28</title>
<g id="a_node5"><a xlink:href="classSelector.html#ac237b74d01da9cb157c4180624afa111" target="_top" xlink:title=" ">
<polygon fill="white" stroke="black" points="256,-0.5 256,-19.5 373,-19.5 373,-0.5 256,-0.5"/>
<text text-anchor="middle" x="314.5" y="-7.5" font-family="Helvetica,sans-Serif" font-size="10.00">Selector::updateOutput</text>
</a>
</g>
</g>
<!-- Node26&#45;&gt;Node28 -->
<g id="edge4" class="edge"><title>Node26&#45;&gt;Node28</title>
<path fill="none" stroke="midnightblue" d="M211.445,-38.411C228.985,-33.5281 250.51,-27.5357 269.263,-22.315"/>
<polygon fill="midnightblue" stroke="midnightblue" points="270.371,-25.6397 279.066,-19.5859 268.494,-18.8961 270.371,-25.6397"/>
</g>
</g>
</svg>
