<?xml version="1.0" encoding="UTF-8" standalone="no"?>
<!DOCTYPE svg PUBLIC "-//W3C//DTD SVG 1.1//EN"
 "http://www.w3.org/Graphics/SVG/1.1/DTD/svg11.dtd">
<!-- Generated by graphviz version 2.38.0 (20140413.2041)
 -->
<!-- Title: MCU_VPot_Ring Pages: 1 -->
<svg width="135pt" height="252pt"
 viewBox="0.00 0.00 135.00 252.00" xmlns="http://www.w3.org/2000/svg" xmlns:xlink="http://www.w3.org/1999/xlink">
<g id="graph0" class="graph" transform="scale(1 1) rotate(0) translate(4 248)">
<title>MCU_VPot_Ring</title>
<!-- Node0 -->
<g id="node1" class="node"><title>Node0</title>
<polygon fill="#bfbfbf" stroke="black" points="17.5,-56.5 17.5,-75.5 109.5,-75.5 109.5,-56.5 17.5,-56.5"/>
<text text-anchor="middle" x="63.5" y="-63.5" font-family="Helvetica,sans-Serif" font-size="10.00">MCU_VPot_Ring</text>
</g>
<!-- Node4 -->
<g id="node5" class="node"><title>Node4</title>
<g id="a_node5"><a xlink:href="classMCU__VPot__Ring__LED.html" target="_top" xlink:title="MCU_VPot_Ring_LED">
<polygon fill="none" stroke="black" points="5,-0.5 5,-19.5 122,-19.5 122,-0.5 5,-0.5"/>
<text text-anchor="middle" x="63.5" y="-7.5" font-family="Helvetica,sans-Serif" font-size="10.00">MCU_VPot_Ring_LED</text>
</a>
</g>
</g>
<!-- Node0&#45;&gt;Node4 -->
<g id="edge4" class="edge"><title>Node0&#45;&gt;Node4</title>
<path fill="none" stroke="midnightblue" d="M63.5,-45.8045C63.5,-36.9102 63.5,-26.7798 63.5,-19.7511"/>
<polygon fill="midnightblue" stroke="midnightblue" points="60.0001,-46.083 63.5,-56.083 67.0001,-46.083 60.0001,-46.083"/>
</g>
<!-- Node1 -->
<g id="node2" class="node"><title>Node1</title>
<g id="a_node2"><a xlink:href="classMIDI__Input__Element__CC.html" target="_top" xlink:title="MIDI_Input_Element_CC">
<polygon fill="none" stroke="black" points="0,-112.5 0,-131.5 127,-131.5 127,-112.5 0,-112.5"/>
<text text-anchor="middle" x="63.5" y="-119.5" font-family="Helvetica,sans-Serif" font-size="10.00">MIDI_Input_Element_CC</text>
</a>
</g>
</g>
<!-- Node1&#45;&gt;Node0 -->
<g id="edge1" class="edge"><title>Node1&#45;&gt;Node0</title>
<path fill="none" stroke="midnightblue" d="M63.5,-101.805C63.5,-92.9102 63.5,-82.7798 63.5,-75.7511"/>
<polygon fill="midnightblue" stroke="midnightblue" points="60.0001,-102.083 63.5,-112.083 67.0001,-102.083 60.0001,-102.083"/>
</g>
<!-- Node2 -->
<g id="node3" class="node"><title>Node2</title>
<g id="a_node3"><a xlink:href="classMIDI__Input__Element.html" target="_top" xlink:title="MIDI_Input_Element">
<polygon fill="none" stroke="black" points="10,-168.5 10,-187.5 117,-187.5 117,-168.5 10,-168.5"/>
<text text-anchor="middle" x="63.5" y="-175.5" font-family="Helvetica,sans-Serif" font-size="10.00">MIDI_Input_Element</text>
</a>
</g>
</g>
<!-- Node2&#45;&gt;Node1 -->
<g id="edge2" class="edge"><title>Node2&#45;&gt;Node1</title>
<path fill="none" stroke="midnightblue" d="M63.5,-157.805C63.5,-148.91 63.5,-138.78 63.5,-131.751"/>
<polygon fill="midnightblue" stroke="midnightblue" points="60.0001,-158.083 63.5,-168.083 67.0001,-158.083 60.0001,-158.083"/>
</g>
<!-- Node3 -->
<g id="node4" class="node"><title>Node3</title>
<g id="a_node4"><a xlink:href="classMIDI__Element.html" target="_top" xlink:title="MIDI_Element">
<polygon fill="none" stroke="black" points="23.5,-224.5 23.5,-243.5 103.5,-243.5 103.5,-224.5 23.5,-224.5"/>
<text text-anchor="middle" x="63.5" y="-231.5" font-family="Helvetica,sans-Serif" font-size="10.00">MIDI_Element</text>
</a>
</g>
</g>
<!-- Node3&#45;&gt;Node2 -->
<g id="edge3" class="edge"><title>Node3&#45;&gt;Node2</title>
<path fill="none" stroke="midnightblue" d="M63.5,-213.805C63.5,-204.91 63.5,-194.78 63.5,-187.751"/>
<polygon fill="midnightblue" stroke="midnightblue" points="60.0001,-214.083 63.5,-224.083 67.0001,-214.083 60.0001,-214.083"/>
</g>
</g>
</svg>
