<?xml version="1.0" encoding="UTF-8" standalone="no"?>
<!DOCTYPE svg PUBLIC "-//W3C//DTD SVG 1.1//EN"
 "http://www.w3.org/Graphics/SVG/1.1/DTD/svg11.dtd">
<!-- Generated by graphviz version 2.38.0 (20140413.2041)
 -->
<!-- Title: AnalogMultiplex&lt; N &gt; Pages: 1 -->
<svg width="437pt" height="523pt"
 viewBox="0.00 0.00 437.00 523.00" xmlns="http://www.w3.org/2000/svg" xmlns:xlink="http://www.w3.org/1999/xlink">
<g id="graph0" class="graph" transform="scale(1 1) rotate(0) translate(4 519)">
<title>AnalogMultiplex&lt; N &gt;</title>
<polygon fill="white" stroke="none" points="-4,4 -4,-519 433,-519 433,4 -4,4"/>
<!-- Node3 -->
<g id="node1" class="node"><title>Node3</title>
<g id="a_node1"><a xlink:title="A class for reading multiplexed analog inputs. Supports 74HC4067, 74HC4051, etc.">
<polygon fill="#bfbfbf" stroke="black" points="312.5,-11.5 312.5,-211.5 423.5,-211.5 423.5,-11.5 312.5,-11.5"/>
<text text-anchor="middle" x="368" y="-199.5" font-family="Helvetica,sans-Serif" font-size="10.00">AnalogMultiplex&lt; N &gt;</text>
<polyline fill="none" stroke="black" points="312.5,-192.5 423.5,-192.5 "/>
<text text-anchor="start" x="320.5" y="-180.5" font-family="Helvetica,sans-Serif" font-size="10.00">&#45; analogPin</text>
<text text-anchor="start" x="320.5" y="-169.5" font-family="Helvetica,sans-Serif" font-size="10.00">&#45; enablePin</text>
<text text-anchor="start" x="320.5" y="-158.5" font-family="Helvetica,sans-Serif" font-size="10.00">&#45; ENABLED</text>
<text text-anchor="start" x="320.5" y="-147.5" font-family="Helvetica,sans-Serif" font-size="10.00">&#45; DISABLED</text>
<polyline fill="none" stroke="black" points="312.5,-140.5 423.5,-140.5 "/>
<text text-anchor="start" x="320.5" y="-128.5" font-family="Helvetica,sans-Serif" font-size="10.00">+ AnalogMultiplex()</text>
<text text-anchor="start" x="320.5" y="-117.5" font-family="Helvetica,sans-Serif" font-size="10.00">+ pinMode()</text>
<text text-anchor="start" x="320.5" y="-106.5" font-family="Helvetica,sans-Serif" font-size="10.00">+ digitalWrite()</text>
<text text-anchor="start" x="320.5" y="-95.5" font-family="Helvetica,sans-Serif" font-size="10.00">+ digitalRead()</text>
<text text-anchor="start" x="320.5" y="-84.5" font-family="Helvetica,sans-Serif" font-size="10.00">+ analogRead()</text>
<text text-anchor="start" x="320.5" y="-73.5" font-family="Helvetica,sans-Serif" font-size="10.00">+ analogWrite()</text>
<text text-anchor="start" x="320.5" y="-62.5" font-family="Helvetica,sans-Serif" font-size="10.00">+ begin()</text>
<text text-anchor="start" x="320.5" y="-51.5" font-family="Helvetica,sans-Serif" font-size="10.00">+ update()</text>
<text text-anchor="start" x="320.5" y="-40.5" font-family="Helvetica,sans-Serif" font-size="10.00">&#45; setMuxAddress()</text>
<text text-anchor="start" x="320.5" y="-29.5" font-family="Helvetica,sans-Serif" font-size="10.00">&#45; prepareReading()</text>
<text text-anchor="start" x="320.5" y="-18.5" font-family="Helvetica,sans-Serif" font-size="10.00">&#45; afterReading()</text>
</a>
</g>
</g>
<!-- Node4 -->
<g id="node2" class="node"><title>Node4</title>
<g id="a_node2"><a xlink:href="classExtendedIOElement.html" target="_top" xlink:title="An abstract base class for Extended Input/Output elements.">
<polygon fill="white" stroke="black" points="115.5,-281.5 115.5,-514.5 240.5,-514.5 240.5,-281.5 115.5,-281.5"/>
<text text-anchor="middle" x="178" y="-502.5" font-family="Helvetica,sans-Serif" font-size="10.00">ExtendedIOElement</text>
<polyline fill="none" stroke="black" points="115.5,-495.5 240.5,-495.5 "/>
<text text-anchor="start" x="123.5" y="-483.5" font-family="Helvetica,sans-Serif" font-size="10.00">&#45; length</text>
<text text-anchor="start" x="123.5" y="-472.5" font-family="Helvetica,sans-Serif" font-size="10.00">&#45; start</text>
<text text-anchor="start" x="123.5" y="-461.5" font-family="Helvetica,sans-Serif" font-size="10.00">&#45; end</text>
<text text-anchor="start" x="123.5" y="-450.5" font-family="Helvetica,sans-Serif" font-size="10.00">&#45; offset</text>
<polyline fill="none" stroke="black" points="115.5,-443.5 240.5,-443.5 "/>
<text text-anchor="start" x="123.5" y="-431.5" font-family="Helvetica,sans-Serif" font-size="10.00">+ ~ExtendedIOElement()</text>
<text text-anchor="start" x="123.5" y="-420.5" font-family="Helvetica,sans-Serif" font-size="10.00">+ pinMode()</text>
<text text-anchor="start" x="123.5" y="-409.5" font-family="Helvetica,sans-Serif" font-size="10.00">+ digitalWrite()</text>
<text text-anchor="start" x="123.5" y="-398.5" font-family="Helvetica,sans-Serif" font-size="10.00">+ digitalRead()</text>
<text text-anchor="start" x="123.5" y="-387.5" font-family="Helvetica,sans-Serif" font-size="10.00">+ analogRead()</text>
<text text-anchor="start" x="123.5" y="-376.5" font-family="Helvetica,sans-Serif" font-size="10.00">+ analogWrite()</text>
<text text-anchor="start" x="123.5" y="-365.5" font-family="Helvetica,sans-Serif" font-size="10.00">+ begin()</text>
<text text-anchor="start" x="123.5" y="-354.5" font-family="Helvetica,sans-Serif" font-size="10.00">+ update()</text>
<text text-anchor="start" x="123.5" y="-343.5" font-family="Helvetica,sans-Serif" font-size="10.00">+ pin()</text>
<text text-anchor="start" x="123.5" y="-332.5" font-family="Helvetica,sans-Serif" font-size="10.00">+ getEnd()</text>
<text text-anchor="start" x="123.5" y="-321.5" font-family="Helvetica,sans-Serif" font-size="10.00">+ getStart()</text>
<text text-anchor="start" x="123.5" y="-310.5" font-family="Helvetica,sans-Serif" font-size="10.00">+ beginAll()</text>
<text text-anchor="start" x="123.5" y="-299.5" font-family="Helvetica,sans-Serif" font-size="10.00">+ getAll()</text>
<text text-anchor="start" x="123.5" y="-288.5" font-family="Helvetica,sans-Serif" font-size="10.00"># ExtendedIOElement()</text>
</a>
</g>
</g>
<!-- Node4&#45;&gt;Node3 -->
<g id="edge1" class="edge"><title>Node4&#45;&gt;Node3</title>
<path fill="none" stroke="midnightblue" d="M246.654,-304.741C265.417,-278.648 285.414,-249.998 303,-223 306.098,-218.244 309.223,-213.34 312.34,-208.363"/>
<polygon fill="none" stroke="midnightblue" points="243.623,-302.96 240.61,-313.117 249.3,-307.056 243.623,-302.96"/>
</g>
<!-- Node5 -->
<g id="node3" class="node"><title>Node5</title>
<g id="a_node3"><a xlink:href="classDoublyLinkable.html" target="_top" xlink:title=" ">
<polygon fill="white" stroke="black" points="0,-77.5 0,-145.5 134,-145.5 134,-77.5 0,-77.5"/>
<text text-anchor="start" x="8" y="-133.5" font-family="Helvetica,sans-Serif" font-size="10.00">DoublyLinkable&lt; Extended</text>
<text text-anchor="middle" x="67" y="-122.5" font-family="Helvetica,sans-Serif" font-size="10.00">IOElement &gt;</text>
<polyline fill="none" stroke="black" points="0,-115.5 134,-115.5 "/>
<text text-anchor="middle" x="67" y="-103.5" font-family="Helvetica,sans-Serif" font-size="10.00"> </text>
<polyline fill="none" stroke="black" points="0,-96.5 134,-96.5 "/>
<text text-anchor="start" x="8" y="-84.5" font-family="Helvetica,sans-Serif" font-size="10.00"># ~DoublyLinkable()</text>
</a>
</g>
</g>
<!-- Node4&#45;&gt;Node5 -->
<g id="edge3" class="edge"><title>Node4&#45;&gt;Node5</title>
<path fill="none" stroke="#404040" d="M115.347,-334.707C98.0756,-313.669 81.4912,-288.902 72,-263 59.628,-229.236 59.1075,-188.307 61.2746,-157.659"/>
<polygon fill="none" stroke="#404040" points="61.2813,-157.58 57.8047,-151.262 62.2994,-145.623 65.7759,-151.941 61.2813,-157.58"/>
<text text-anchor="middle" x="93.5" y="-255" font-family="Helvetica,sans-Serif" font-size="10.00"> #next</text>
<text text-anchor="middle" x="93.5" y="-244" font-family="Helvetica,sans-Serif" font-size="10.00">#previous</text>
</g>
<!-- Node6 -->
<g id="node4" class="node"><title>Node6</title>
<g id="a_node4"><a xlink:href="classDoublyLinkedList.html" target="_top" xlink:title=" ">
<polygon fill="white" stroke="black" points="152,-0.5 152,-222.5 294,-222.5 294,-0.5 152,-0.5"/>
<text text-anchor="start" x="160" y="-210.5" font-family="Helvetica,sans-Serif" font-size="10.00">DoublyLinkedList&lt; Extended</text>
<text text-anchor="middle" x="223" y="-199.5" font-family="Helvetica,sans-Serif" font-size="10.00">IOElement &gt;</text>
<polyline fill="none" stroke="black" points="152,-192.5 294,-192.5 "/>
<text text-anchor="middle" x="223" y="-180.5" font-family="Helvetica,sans-Serif" font-size="10.00"> </text>
<polyline fill="none" stroke="black" points="152,-173.5 294,-173.5 "/>
<text text-anchor="start" x="160" y="-161.5" font-family="Helvetica,sans-Serif" font-size="10.00">+ DoublyLinkedList()</text>
<text text-anchor="start" x="160" y="-150.5" font-family="Helvetica,sans-Serif" font-size="10.00">+ append()</text>
<text text-anchor="start" x="160" y="-139.5" font-family="Helvetica,sans-Serif" font-size="10.00">+ append()</text>
<text text-anchor="start" x="160" y="-128.5" font-family="Helvetica,sans-Serif" font-size="10.00">+ remove()</text>
<text text-anchor="start" x="160" y="-117.5" font-family="Helvetica,sans-Serif" font-size="10.00">+ remove()</text>
<text text-anchor="start" x="160" y="-106.5" font-family="Helvetica,sans-Serif" font-size="10.00">+ moveDown()</text>
<text text-anchor="start" x="160" y="-95.5" font-family="Helvetica,sans-Serif" font-size="10.00">+ couldContain()</text>
<text text-anchor="start" x="160" y="-84.5" font-family="Helvetica,sans-Serif" font-size="10.00">+ begin()</text>
<text text-anchor="start" x="160" y="-73.5" font-family="Helvetica,sans-Serif" font-size="10.00">+ begin()</text>
<text text-anchor="start" x="160" y="-62.5" font-family="Helvetica,sans-Serif" font-size="10.00">+ end()</text>
<text text-anchor="start" x="160" y="-51.5" font-family="Helvetica,sans-Serif" font-size="10.00">+ end()</text>
<text text-anchor="start" x="160" y="-40.5" font-family="Helvetica,sans-Serif" font-size="10.00">+ rbegin()</text>
<text text-anchor="start" x="160" y="-29.5" font-family="Helvetica,sans-Serif" font-size="10.00">+ rbegin()</text>
<text text-anchor="start" x="160" y="-18.5" font-family="Helvetica,sans-Serif" font-size="10.00">+ rend()</text>
<text text-anchor="start" x="160" y="-7.5" font-family="Helvetica,sans-Serif" font-size="10.00">+ rend()</text>
</a>
</g>
</g>
<!-- Node4&#45;&gt;Node6 -->
<g id="edge5" class="edge"><title>Node4&#45;&gt;Node6</title>
<path fill="none" stroke="#404040" d="M170.678,-281.158C171.321,-267.558 172.664,-253.929 175,-241 175.396,-238.81 175.826,-236.609 176.289,-234.401"/>
<polygon fill="none" stroke="#404040" points="176.33,-234.225 173.794,-227.475 179.051,-222.538 181.586,-229.289 176.33,-234.225"/>
<text text-anchor="middle" x="186" y="-255" font-family="Helvetica,sans-Serif" font-size="10.00"> &#45;last</text>
<text text-anchor="middle" x="186" y="-244" font-family="Helvetica,sans-Serif" font-size="10.00">&#45;first</text>
</g>
<!-- Node5&#45;&gt;Node4 -->
<g id="edge2" class="edge"><title>Node5&#45;&gt;Node4</title>
<path fill="none" stroke="midnightblue" d="M84.5778,-155.231C94.7712,-180.185 107.772,-212.312 119,-241 124.118,-254.078 129.415,-267.799 134.638,-281.451"/>
<polygon fill="none" stroke="midnightblue" points="87.7035,-153.627 80.6775,-145.697 81.2247,-156.278 87.7035,-153.627"/>
</g>
<!-- Node6&#45;&gt;Node4 -->
<g id="edge4" class="edge"><title>Node6&#45;&gt;Node4</title>
<path fill="none" stroke="#404040" d="M207.214,-222.689C205.174,-236.273 203.072,-249.96 201,-263 200.675,-265.043 200.346,-267.104 200.013,-269.178"/>
<polygon fill="none" stroke="#404040" points="199.987,-269.336 202.974,-275.9 198.064,-281.181 195.077,-274.618 199.987,-269.336"/>
<text text-anchor="middle" x="228" y="-249.5" font-family="Helvetica,sans-Serif" font-size="10.00"> &#45;elements</text>
</g>
<!-- Node7 -->
<g id="node5" class="node"><title>Node7</title>
<g id="a_node5"><a xlink:href="structArray.html" target="_top" xlink:title=" ">
<polygon fill="white" stroke="black" points="322,-331 322,-465 414,-465 414,-331 322,-331"/>
<text text-anchor="middle" x="368" y="-453" font-family="Helvetica,sans-Serif" font-size="10.00">Array&lt; pin_t, N &gt;</text>
<polyline fill="none" stroke="black" points="322,-446 414,-446 "/>
<text text-anchor="start" x="330" y="-434" font-family="Helvetica,sans-Serif" font-size="10.00">+ data</text>
<polyline fill="none" stroke="black" points="322,-427 414,-427 "/>
<text text-anchor="start" x="330" y="-415" font-family="Helvetica,sans-Serif" font-size="10.00">+ operator[]()</text>
<text text-anchor="start" x="330" y="-404" font-family="Helvetica,sans-Serif" font-size="10.00">+ operator[]()</text>
<text text-anchor="start" x="330" y="-393" font-family="Helvetica,sans-Serif" font-size="10.00">+ begin()</text>
<text text-anchor="start" x="330" y="-382" font-family="Helvetica,sans-Serif" font-size="10.00">+ begin()</text>
<text text-anchor="start" x="330" y="-371" font-family="Helvetica,sans-Serif" font-size="10.00">+ end()</text>
<text text-anchor="start" x="330" y="-360" font-family="Helvetica,sans-Serif" font-size="10.00">+ end()</text>
<text text-anchor="start" x="330" y="-349" font-family="Helvetica,sans-Serif" font-size="10.00">+ operator==()</text>
<text text-anchor="start" x="330" y="-338" font-family="Helvetica,sans-Serif" font-size="10.00">+ operator!=()</text>
</a>
</g>
</g>
<!-- Node7&#45;&gt;Node3 -->
<g id="edge6" class="edge"><title>Node7&#45;&gt;Node3</title>
<path fill="none" stroke="#404040" d="M368,-330.656C368,-298.866 368,-259.923 368,-223.783"/>
<polygon fill="none" stroke="#404040" points="368,-223.648 364,-217.648 368,-211.648 372,-217.648 368,-223.648"/>
<text text-anchor="middle" x="398.5" y="-249.5" font-family="Helvetica,sans-Serif" font-size="10.00"> &#45;addressPins</text>
</g>
</g>
</svg>
