<?xml version="1.0" encoding="UTF-8" standalone="no"?>
<!DOCTYPE svg PUBLIC "-//W3C//DTD SVG 1.1//EN"
 "http://www.w3.org/Graphics/SVG/1.1/DTD/svg11.dtd">
<!-- Generated by graphviz version 2.38.0 (20140413.2041)
 -->
<!-- Title: Abstract Pages: 1 -->
<svg width="213pt" height="367pt"
 viewBox="0.00 0.00 212.82 367.00" xmlns="http://www.w3.org/2000/svg" xmlns:xlink="http://www.w3.org/1999/xlink">
<g id="graph0" class="graph" transform="scale(1 1) rotate(0) translate(4 363)">
<title>Abstract</title>
<polygon fill="white" stroke="none" points="-4,4 -4,-363 208.824,-363 208.824,4 -4,4"/>
<g id="clust1" class="cluster"><title>clusterdir_44ddf4232b360beb1a0694523e04aed4</title>
<g id="a_clust1"><a xlink:href="dir_44ddf4232b360beb1a0694523e04aed4.html" target="_top" xlink:title="Bankable">
<polygon fill="#ddddee" stroke="black" points="9.82437,-280 9.82437,-351 79.8244,-351 79.8244,-280 9.82437,-280"/>
<text text-anchor="middle" x="44.8244" y="-339" font-family="Helvetica,sans-Serif" font-size="10.00">Bankable</text>
</a>
</g>
</g>
<!-- dir_17c7570321f71b5574e9cb129eeda335 -->
<g id="node1" class="node"><title>dir_17c7570321f71b5574e9cb129eeda335</title>
<g id="a_node1"><a xlink:href="dir_17c7570321f71b5574e9cb129eeda335.html" target="_top" xlink:title="Abstract">
<polygon fill="#eeeeff" stroke="black" points="71.8244,-324 17.8244,-324 17.8244,-288 71.8244,-288 71.8244,-324"/>
<text text-anchor="middle" x="44.8244" y="-303.5" font-family="Helvetica,sans-Serif" font-size="10.00">Abstract</text>
</a>
</g>
</g>
<!-- dir_4c1305a51ad6ea1ac7063bb4084ac14b -->
<g id="node2" class="node"><title>dir_4c1305a51ad6ea1ac7063bb4084ac14b</title>
<g id="a_node2"><a xlink:href="dir_4c1305a51ad6ea1ac7063bb4084ac14b.html" target="_top" xlink:title="Abstract">
<polygon fill="none" stroke="black" points="71.8244,-252 17.8244,-252 17.8244,-216 71.8244,-216 71.8244,-252"/>
<text text-anchor="middle" x="44.8244" y="-231.5" font-family="Helvetica,sans-Serif" font-size="10.00">Abstract</text>
</a>
</g>
</g>
<!-- dir_17c7570321f71b5574e9cb129eeda335&#45;&gt;dir_4c1305a51ad6ea1ac7063bb4084ac14b -->
<g id="edge10" class="edge"><title>dir_17c7570321f71b5574e9cb129eeda335&#45;&gt;dir_4c1305a51ad6ea1ac7063bb4084ac14b</title>
<path fill="none" stroke="black" d="M44.8244,-287.697C44.8244,-279.983 44.8244,-270.712 44.8244,-262.112"/>
<polygon fill="black" stroke="black" points="48.3245,-262.104 44.8244,-252.104 41.3245,-262.104 48.3245,-262.104"/>
<g id="a_edge10&#45;headlabel"><a xlink:href="dir_000024_000023.html" target="_top" xlink:title="6">
<text text-anchor="middle" x="51.1636" y="-263.199" font-family="Helvetica,sans-Serif" font-size="10.00">6</text>
</a>
</g>
</g>
<!-- dir_bba0a06b7c5bf1521d83c5188eb207fb -->
<g id="node3" class="node"><title>dir_bba0a06b7c5bf1521d83c5188eb207fb</title>
<g id="a_node3"><a xlink:href="dir_bba0a06b7c5bf1521d83c5188eb207fb.html" target="_top" xlink:title="Helpers">
<polygon fill="none" stroke="black" points="88.8244,-108 34.8244,-108 34.8244,-72 88.8244,-72 88.8244,-108"/>
<text text-anchor="middle" x="61.8244" y="-87.5" font-family="Helvetica,sans-Serif" font-size="10.00">Helpers</text>
</a>
</g>
</g>
<!-- dir_17c7570321f71b5574e9cb129eeda335&#45;&gt;dir_bba0a06b7c5bf1521d83c5188eb207fb -->
<g id="edge11" class="edge"><title>dir_17c7570321f71b5574e9cb129eeda335&#45;&gt;dir_bba0a06b7c5bf1521d83c5188eb207fb</title>
<path fill="none" stroke="black" d="M29.2145,-287.774C21.4514,-278.03 12.8784,-265.184 8.82437,-252 4.12158,-236.707 5.63764,-231.679 8.82437,-216 16.1188,-180.11 34.0823,-141.739 47.077,-117.12"/>
<polygon fill="black" stroke="black" points="50.2857,-118.544 51.9526,-108.081 44.1248,-115.221 50.2857,-118.544"/>
<g id="a_edge11&#45;headlabel"><a xlink:href="dir_000024_000003.html" target="_top" xlink:title="3">
<text text-anchor="middle" x="51.0782" y="-120.556" font-family="Helvetica,sans-Serif" font-size="10.00">3</text>
</a>
</g>
</g>
<!-- dir_c90f87021e89d05236fc514cb49c4dcf -->
<g id="node4" class="node"><title>dir_c90f87021e89d05236fc514cb49c4dcf</title>
<g id="a_node4"><a xlink:href="dir_c90f87021e89d05236fc514cb49c4dcf.html" target="_top" xlink:title="Def">
<polygon fill="none" stroke="black" points="88.8244,-36 34.8244,-36 34.8244,-0 88.8244,-0 88.8244,-36"/>
<text text-anchor="middle" x="61.8244" y="-15.5" font-family="Helvetica,sans-Serif" font-size="10.00">Def</text>
</a>
</g>
</g>
<!-- dir_17c7570321f71b5574e9cb129eeda335&#45;&gt;dir_c90f87021e89d05236fc514cb49c4dcf -->
<g id="edge12" class="edge"><title>dir_17c7570321f71b5574e9cb129eeda335&#45;&gt;dir_c90f87021e89d05236fc514cb49c4dcf</title>
<path fill="none" stroke="black" d="M26.2202,-287.756C17.2937,-278.198 7.5342,-265.527 2.82437,-252 -2.43685,-236.89 2.04934,-231.981 2.82437,-216 5.93914,-151.774 -8.24149,-131.215 16.8244,-72 21.1746,-61.7231 28.2519,-51.9566 35.5191,-43.6721"/>
<polygon fill="black" stroke="black" points="38.2093,-45.919 42.462,-36.2151 33.086,-41.149 38.2093,-45.919"/>
<g id="a_edge12&#45;headlabel"><a xlink:href="dir_000024_000011.html" target="_top" xlink:title="6">
<text text-anchor="middle" x="37.8378" y="-47.9846" font-family="Helvetica,sans-Serif" font-size="10.00">6</text>
</a>
</g>
</g>
<!-- dir_392e5fed41b2de721750e308647dcb9c -->
<g id="node5" class="node"><title>dir_392e5fed41b2de721750e308647dcb9c</title>
<g id="a_node5"><a xlink:href="dir_392e5fed41b2de721750e308647dcb9c.html" target="_top" xlink:title="Hardware">
<polygon fill="white" stroke="red" points="132.324,-180 73.3244,-180 73.3244,-144 132.324,-144 132.324,-180"/>
<text text-anchor="middle" x="102.824" y="-159.5" font-family="Helvetica,sans-Serif" font-size="10.00">Hardware</text>
</a>
</g>
</g>
<!-- dir_17c7570321f71b5574e9cb129eeda335&#45;&gt;dir_392e5fed41b2de721750e308647dcb9c -->
<g id="edge13" class="edge"><title>dir_17c7570321f71b5574e9cb129eeda335&#45;&gt;dir_392e5fed41b2de721750e308647dcb9c</title>
<path fill="none" stroke="black" d="M58.83,-287.781C66.3058,-277.839 75.1159,-264.8 80.8244,-252 89.6577,-232.193 95.3204,-208.257 98.6851,-190.199"/>
<polygon fill="black" stroke="black" points="102.138,-190.774 100.407,-180.322 95.2416,-189.572 102.138,-190.774"/>
<g id="a_edge13&#45;headlabel"><a xlink:href="dir_000024_000001.html" target="_top" xlink:title="5">
<text text-anchor="middle" x="104.317" y="-192.303" font-family="Helvetica,sans-Serif" font-size="10.00">5</text>
</a>
</g>
</g>
<!-- dir_96809ae32da64306a703eb7e36380126 -->
<g id="node6" class="node"><title>dir_96809ae32da64306a703eb7e36380126</title>
<g id="a_node6"><a xlink:href="dir_96809ae32da64306a703eb7e36380126.html" target="_top" xlink:title="Banks">
<polygon fill="none" stroke="black" points="204.824,-180 150.824,-180 150.824,-144 204.824,-144 204.824,-180"/>
<text text-anchor="middle" x="177.824" y="-159.5" font-family="Helvetica,sans-Serif" font-size="10.00">Banks</text>
</a>
</g>
</g>
<!-- dir_17c7570321f71b5574e9cb129eeda335&#45;&gt;dir_96809ae32da64306a703eb7e36380126 -->
<g id="edge14" class="edge"><title>dir_17c7570321f71b5574e9cb129eeda335&#45;&gt;dir_96809ae32da64306a703eb7e36380126</title>
<path fill="none" stroke="black" d="M64.3476,-287.865C75.6053,-277.736 89.8553,-264.486 101.824,-252 121.699,-231.267 142.796,-206.296 157.707,-188.088"/>
<polygon fill="black" stroke="black" points="160.498,-190.202 164.096,-180.237 155.069,-185.784 160.498,-190.202"/>
<g id="a_edge14&#45;headlabel"><a xlink:href="dir_000024_000007.html" target="_top" xlink:title="6">
<text text-anchor="middle" x="160.432" y="-192.283" font-family="Helvetica,sans-Serif" font-size="10.00">6</text>
</a>
</g>
</g>
<!-- dir_4c1305a51ad6ea1ac7063bb4084ac14b&#45;&gt;dir_bba0a06b7c5bf1521d83c5188eb207fb -->
<g id="edge1" class="edge"><title>dir_4c1305a51ad6ea1ac7063bb4084ac14b&#45;&gt;dir_bba0a06b7c5bf1521d83c5188eb207fb</title>
<path fill="none" stroke="black" d="M46.875,-215.871C49.7723,-191.67 55.0949,-147.211 58.5449,-118.393"/>
<polygon fill="black" stroke="black" points="62.0529,-118.534 59.7665,-108.189 55.1025,-117.702 62.0529,-118.534"/>
<g id="a_edge1&#45;headlabel"><a xlink:href="dir_000023_000003.html" target="_top" xlink:title="3">
<text text-anchor="middle" x="64.4448" y="-119.941" font-family="Helvetica,sans-Serif" font-size="10.00">3</text>
</a>
</g>
</g>
<!-- dir_4c1305a51ad6ea1ac7063bb4084ac14b&#45;&gt;dir_c90f87021e89d05236fc514cb49c4dcf -->
<g id="edge2" class="edge"><title>dir_4c1305a51ad6ea1ac7063bb4084ac14b&#45;&gt;dir_c90f87021e89d05236fc514cb49c4dcf</title>
<path fill="none" stroke="black" d="M38.2228,-215.661C27.8089,-185.697 10.2719,-122.576 25.8244,-72 28.8333,-62.2153 34.3313,-52.6161 40.14,-44.3336"/>
<polygon fill="black" stroke="black" points="43.0192,-46.3279 46.2145,-36.2264 37.4172,-42.1306 43.0192,-46.3279"/>
<g id="a_edge2&#45;headlabel"><a xlink:href="dir_000023_000011.html" target="_top" xlink:title="10">
<text text-anchor="middle" x="43.136" y="-48.4071" font-family="Helvetica,sans-Serif" font-size="10.00">10</text>
</a>
</g>
</g>
<!-- dir_4c1305a51ad6ea1ac7063bb4084ac14b&#45;&gt;dir_392e5fed41b2de721750e308647dcb9c -->
<g id="edge3" class="edge"><title>dir_4c1305a51ad6ea1ac7063bb4084ac14b&#45;&gt;dir_392e5fed41b2de721750e308647dcb9c</title>
<path fill="none" stroke="black" d="M59.1615,-215.697C66.1149,-207.305 74.5945,-197.07 82.225,-187.861"/>
<polygon fill="black" stroke="black" points="84.9671,-190.038 88.6522,-180.104 79.5769,-185.571 84.9671,-190.038"/>
<g id="a_edge3&#45;headlabel"><a xlink:href="dir_000023_000001.html" target="_top" xlink:title="7">
<text text-anchor="middle" x="84.86" y="-192.117" font-family="Helvetica,sans-Serif" font-size="10.00">7</text>
</a>
</g>
</g>
<!-- dir_bba0a06b7c5bf1521d83c5188eb207fb&#45;&gt;dir_c90f87021e89d05236fc514cb49c4dcf -->
<g id="edge4" class="edge"><title>dir_bba0a06b7c5bf1521d83c5188eb207fb&#45;&gt;dir_c90f87021e89d05236fc514cb49c4dcf</title>
<path fill="none" stroke="black" d="M55.9086,-71.6966C55.113,-63.9827 54.8864,-54.7125 55.2291,-46.1124"/>
<polygon fill="black" stroke="black" points="58.7227,-46.3243 55.9293,-36.1043 51.7398,-45.8356 58.7227,-46.3243"/>
<g id="a_edge4&#45;headlabel"><a xlink:href="dir_000003_000011.html" target="_top" xlink:title="1">
<text text-anchor="middle" x="61.3043" y="-47.6083" font-family="Helvetica,sans-Serif" font-size="10.00">1</text>
</a>
</g>
</g>
<!-- dir_c90f87021e89d05236fc514cb49c4dcf&#45;&gt;dir_bba0a06b7c5bf1521d83c5188eb207fb -->
<g id="edge5" class="edge"><title>dir_c90f87021e89d05236fc514cb49c4dcf&#45;&gt;dir_bba0a06b7c5bf1521d83c5188eb207fb</title>
<path fill="none" stroke="black" d="M67.7194,-36.1043C68.5249,-43.7913 68.7612,-53.0537 68.4284,-61.6651"/>
<polygon fill="black" stroke="black" points="64.9329,-61.4805 67.7401,-71.6966 71.9165,-61.9597 64.9329,-61.4805"/>
<g id="a_edge5&#45;headlabel"><a xlink:href="dir_000011_000003.html" target="_top" xlink:title="1">
<text text-anchor="middle" x="62.3463" y="-55.2" font-family="Helvetica,sans-Serif" font-size="10.00">1</text>
</a>
</g>
</g>
<!-- dir_392e5fed41b2de721750e308647dcb9c&#45;&gt;dir_bba0a06b7c5bf1521d83c5188eb207fb -->
<g id="edge6" class="edge"><title>dir_392e5fed41b2de721750e308647dcb9c&#45;&gt;dir_bba0a06b7c5bf1521d83c5188eb207fb</title>
<path fill="none" stroke="black" d="M92.6895,-143.697C87.9728,-135.644 82.2626,-125.894 77.0427,-116.982"/>
<polygon fill="black" stroke="black" points="79.9168,-114.964 71.8426,-108.104 73.8766,-118.502 79.9168,-114.964"/>
<g id="a_edge6&#45;headlabel"><a xlink:href="dir_000001_000003.html" target="_top" xlink:title="11">
<text text-anchor="middle" x="84.1834" y="-114.131" font-family="Helvetica,sans-Serif" font-size="10.00">11</text>
</a>
</g>
</g>
<!-- dir_392e5fed41b2de721750e308647dcb9c&#45;&gt;dir_c90f87021e89d05236fc514cb49c4dcf -->
<g id="edge7" class="edge"><title>dir_392e5fed41b2de721750e308647dcb9c&#45;&gt;dir_c90f87021e89d05236fc514cb49c4dcf</title>
<path fill="none" stroke="black" d="M104.526,-143.757C105.728,-125.442 105.912,-95.8937 97.8244,-72 94.5421,-62.3035 88.9672,-52.7291 83.1723,-44.4422"/>
<polygon fill="black" stroke="black" points="85.913,-42.2622 77.1405,-36.3213 80.2934,-46.4361 85.913,-42.2622"/>
<g id="a_edge7&#45;headlabel"><a xlink:href="dir_000001_000011.html" target="_top" xlink:title="4">
<text text-anchor="middle" x="90.3356" y="-40.955" font-family="Helvetica,sans-Serif" font-size="10.00">4</text>
</a>
</g>
</g>
<!-- dir_96809ae32da64306a703eb7e36380126&#45;&gt;dir_bba0a06b7c5bf1521d83c5188eb207fb -->
<g id="edge8" class="edge"><title>dir_96809ae32da64306a703eb7e36380126&#45;&gt;dir_bba0a06b7c5bf1521d83c5188eb207fb</title>
<path fill="none" stroke="black" d="M150.628,-144.588C134.775,-135.022 114.597,-122.845 97.4822,-112.518"/>
<polygon fill="black" stroke="black" points="99.2211,-109.479 88.8508,-107.309 95.6044,-115.472 99.2211,-109.479"/>
<g id="a_edge8&#45;headlabel"><a xlink:href="dir_000007_000003.html" target="_top" xlink:title="5">
<text text-anchor="middle" x="103.766" y="-106.405" font-family="Helvetica,sans-Serif" font-size="10.00">5</text>
</a>
</g>
</g>
<!-- dir_96809ae32da64306a703eb7e36380126&#45;&gt;dir_c90f87021e89d05236fc514cb49c4dcf -->
<g id="edge9" class="edge"><title>dir_96809ae32da64306a703eb7e36380126&#45;&gt;dir_c90f87021e89d05236fc514cb49c4dcf</title>
<path fill="none" stroke="black" d="M167.281,-143.918C155.596,-125.48 135.757,-95.5886 115.824,-72 107.412,-62.0449 97.409,-51.8452 88.3119,-43.0859"/>
<polygon fill="black" stroke="black" points="90.606,-40.438 80.9383,-36.1038 85.793,-45.5209 90.606,-40.438"/>
<g id="a_edge9&#45;headlabel"><a xlink:href="dir_000007_000011.html" target="_top" xlink:title="3">
<text text-anchor="middle" x="95.1683" y="-38.3478" font-family="Helvetica,sans-Serif" font-size="10.00">3</text>
</a>
</g>
</g>
</g>
</svg>
