<?xml version="1.0" encoding="UTF-8" standalone="no"?>
<!DOCTYPE svg PUBLIC "-//W3C//DTD SVG 1.1//EN"
 "http://www.w3.org/Graphics/SVG/1.1/DTD/svg11.dtd">
<!-- Generated by graphviz version 2.38.0 (20140413.2041)
 -->
<!-- Title: ExtendedInputOutput/ExtendedIOElement.cpp Pages: 1 -->
<svg width="217pt" height="151pt"
 viewBox="0.00 0.00 216.50 151.00" xmlns="http://www.w3.org/2000/svg" xmlns:xlink="http://www.w3.org/1999/xlink">
<g id="graph0" class="graph" transform="scale(1 1) rotate(0) translate(4 147)">
<title>ExtendedInputOutput/ExtendedIOElement.cpp</title>
<!-- Node0 -->
<g id="node1" class="node"><title>Node0</title>
<polygon fill="#bfbfbf" stroke="black" points="64.5,-112.5 64.5,-142.5 190.5,-142.5 190.5,-112.5 64.5,-112.5"/>
<text text-anchor="start" x="72.5" y="-130.5" font-family="Helvetica,sans-Serif" font-size="10.00">ExtendedInputOutput</text>
<text text-anchor="middle" x="127.5" y="-119.5" font-family="Helvetica,sans-Serif" font-size="10.00">/ExtendedIOElement.cpp</text>
</g>
<!-- Node1 -->
<g id="node2" class="node"><title>Node1</title>
<g id="a_node2"><a xlink:href="ExtendedIOElement_8h.html" target="_top" xlink:title="ExtendedIOElement.h">
<polygon fill="none" stroke="black" points="19,-56.5 19,-75.5 132,-75.5 132,-56.5 19,-56.5"/>
<text text-anchor="middle" x="75.5" y="-63.5" font-family="Helvetica,sans-Serif" font-size="10.00">ExtendedIOElement.h</text>
</a>
</g>
</g>
<!-- Node0&#45;&gt;Node1 -->
<g id="edge1" class="edge"><title>Node0&#45;&gt;Node1</title>
<path fill="none" stroke="midnightblue" d="M115.177,-112.399C107.543,-103.664 97.7093,-92.4126 89.7421,-83.2962"/>
<polygon fill="midnightblue" stroke="midnightblue" points="92.2825,-80.8843 83.0665,-75.6578 87.0117,-85.4907 92.2825,-80.8843"/>
</g>
<!-- Node4 -->
<g id="node5" class="node"><title>Node4</title>
<polygon fill="none" stroke="#bfbfbf" points="150.5,-56.5 150.5,-75.5 208.5,-75.5 208.5,-56.5 150.5,-56.5"/>
<text text-anchor="middle" x="179.5" y="-63.5" font-family="Helvetica,sans-Serif" font-size="10.00">Arduino.h</text>
</g>
<!-- Node0&#45;&gt;Node4 -->
<g id="edge4" class="edge"><title>Node0&#45;&gt;Node4</title>
<path fill="none" stroke="midnightblue" d="M139.823,-112.399C147.457,-103.664 157.291,-92.4126 165.258,-83.2962"/>
<polygon fill="midnightblue" stroke="midnightblue" points="167.988,-85.4907 171.934,-75.6578 162.718,-80.8843 167.988,-85.4907"/>
</g>
<!-- Node2 -->
<g id="node3" class="node"><title>Node2</title>
<polygon fill="none" stroke="#bfbfbf" points="0,-0.5 0,-19.5 49,-19.5 49,-0.5 0,-0.5"/>
<text text-anchor="middle" x="24.5" y="-7.5" font-family="Helvetica,sans-Serif" font-size="10.00">stdint.h</text>
</g>
<!-- Node1&#45;&gt;Node2 -->
<g id="edge2" class="edge"><title>Node1&#45;&gt;Node2</title>
<path fill="none" stroke="midnightblue" d="M67.0784,-56.083C59.6518,-48.2195 48.6483,-36.5688 39.6878,-27.0813"/>
<polygon fill="midnightblue" stroke="midnightblue" points="42.1757,-24.618 32.7649,-19.7511 37.0866,-29.4244 42.1757,-24.618"/>
</g>
<!-- Node3 -->
<g id="node4" class="node"><title>Node3</title>
<g id="a_node4"><a xlink:href="Linked__List_8h.html" target="_top" xlink:title="../Helpers/Linked_List.h">
<polygon fill="none" stroke="black" points="66.5,-0.5 66.5,-19.5 186.5,-19.5 186.5,-0.5 66.5,-0.5"/>
<text text-anchor="middle" x="126.5" y="-7.5" font-family="Helvetica,sans-Serif" font-size="10.00">../Helpers/Linked_List.h</text>
</a>
</g>
</g>
<!-- Node1&#45;&gt;Node3 -->
<g id="edge3" class="edge"><title>Node1&#45;&gt;Node3</title>
<path fill="none" stroke="midnightblue" d="M83.9216,-56.083C91.3482,-48.2195 102.352,-36.5688 111.312,-27.0813"/>
<polygon fill="midnightblue" stroke="midnightblue" points="113.913,-29.4244 118.235,-19.7511 108.824,-24.618 113.913,-29.4244"/>
</g>
</g>
</svg>
