<?xml version="1.0" encoding="UTF-8" standalone="no"?>
<!DOCTYPE svg PUBLIC "-//W3C//DTD SVG 1.1//EN"
 "http://www.w3.org/Graphics/SVG/1.1/DTD/svg11.dtd">
<!-- Generated by graphviz version 2.38.0 (20140413.2041)
 -->
<!-- Title: MIDI_Inputs/MCU_VPotRing.hpp Pages: 1 -->
<svg width="599pt" height="498pt"
 viewBox="0.00 0.00 599.00 498.00" xmlns="http://www.w3.org/2000/svg" xmlns:xlink="http://www.w3.org/1999/xlink">
<g id="graph0" class="graph" transform="scale(1 1) rotate(0) translate(4 494)">
<title>MIDI_Inputs/MCU_VPotRing.hpp</title>
<!-- Node0 -->
<g id="node1" class="node"><title>Node0</title>
<polygon fill="#bfbfbf" stroke="black" points="406.5,-470.5 406.5,-489.5 569.5,-489.5 569.5,-470.5 406.5,-470.5"/>
<text text-anchor="middle" x="488" y="-477.5" font-family="Helvetica,sans-Serif" font-size="10.00">MIDI_Inputs/MCU_VPotRing.hpp</text>
</g>
<!-- Node1 -->
<g id="node2" class="node"><title>Node1</title>
<g id="a_node2"><a xlink:href="MIDI__Input__CC_8hpp.html" target="_top" xlink:title="MIDI_Input_CC.hpp">
<polygon fill="none" stroke="black" points="395,-414.5 395,-433.5 499,-433.5 499,-414.5 395,-414.5"/>
<text text-anchor="middle" x="447" y="-421.5" font-family="Helvetica,sans-Serif" font-size="10.00">MIDI_Input_CC.hpp</text>
</a>
</g>
</g>
<!-- Node0&#45;&gt;Node1 -->
<g id="edge1" class="edge"><title>Node0&#45;&gt;Node1</title>
<path fill="none" stroke="midnightblue" d="M481.23,-470.083C475.438,-462.455 466.942,-451.264 459.862,-441.941"/>
<polygon fill="midnightblue" stroke="midnightblue" points="462.479,-439.599 453.644,-433.751 456.904,-443.832 462.479,-439.599"/>
</g>
<!-- Node14 -->
<g id="node15" class="node"><title>Node14</title>
<g id="a_node15"><a xlink:href="Bankable_8hpp.html" target="_top" xlink:title="../Banks/Bankable.hpp">
<polygon fill="none" stroke="black" points="475,-291.5 475,-310.5 591,-310.5 591,-291.5 475,-291.5"/>
<text text-anchor="middle" x="533" y="-298.5" font-family="Helvetica,sans-Serif" font-size="10.00">../Banks/Bankable.hpp</text>
</a>
</g>
</g>
<!-- Node0&#45;&gt;Node14 -->
<g id="edge15" class="edge"><title>Node0&#45;&gt;Node14</title>
<path fill="none" stroke="midnightblue" d="M492.608,-470.27C497.129,-461.371 503.922,-447.057 508,-434 520.3,-394.614 527.539,-346.628 530.838,-320.736"/>
<polygon fill="midnightblue" stroke="midnightblue" points="534.349,-320.854 532.08,-310.505 527.4,-320.01 534.349,-320.854"/>
</g>
<!-- Node2 -->
<g id="node3" class="node"><title>Node2</title>
<g id="a_node3"><a xlink:href="LinkedList_8h.html" target="_top" xlink:title="../Helpers/LinkedList.h">
<polygon fill="none" stroke="black" points="406.5,-168.5 406.5,-187.5 521.5,-187.5 521.5,-168.5 406.5,-168.5"/>
<text text-anchor="middle" x="464" y="-175.5" font-family="Helvetica,sans-Serif" font-size="10.00">../Helpers/LinkedList.h</text>
</a>
</g>
</g>
<!-- Node1&#45;&gt;Node2 -->
<g id="edge2" class="edge"><title>Node1&#45;&gt;Node2</title>
<path fill="none" stroke="midnightblue" d="M447.605,-414.316C450.053,-379.185 459.254,-247.119 462.693,-197.763"/>
<polygon fill="midnightblue" stroke="midnightblue" points="466.199,-197.799 463.402,-187.58 459.216,-197.313 466.199,-197.799"/>
</g>
<!-- Node3 -->
<g id="node4" class="node"><title>Node3</title>
<g id="a_node4"><a xlink:href="MIDI__Input__Element__Addressable_8hpp.html" target="_top" xlink:title="MIDI_Input_Element\l_Addressable.hpp">
<polygon fill="none" stroke="black" points="265.5,-347.5 265.5,-377.5 372.5,-377.5 372.5,-347.5 265.5,-347.5"/>
<text text-anchor="start" x="273.5" y="-365.5" font-family="Helvetica,sans-Serif" font-size="10.00">MIDI_Input_Element</text>
<text text-anchor="middle" x="319" y="-354.5" font-family="Helvetica,sans-Serif" font-size="10.00">_Addressable.hpp</text>
</a>
</g>
</g>
<!-- Node1&#45;&gt;Node3 -->
<g id="edge3" class="edge"><title>Node1&#45;&gt;Node3</title>
<path fill="none" stroke="midnightblue" d="M428.661,-414.475C410.434,-406.002 381.897,-392.737 358.503,-381.863"/>
<polygon fill="midnightblue" stroke="midnightblue" points="359.711,-378.564 349.167,-377.523 356.76,-384.912 359.711,-378.564"/>
</g>
<!-- Node4 -->
<g id="node5" class="node"><title>Node4</title>
<g id="a_node5"><a xlink:href="MIDI__message__matcher_8h.html" target="_top" xlink:title="MIDI_message_matcher.h">
<polygon fill="none" stroke="black" points="212,-291.5 212,-310.5 344,-310.5 344,-291.5 212,-291.5"/>
<text text-anchor="middle" x="278" y="-298.5" font-family="Helvetica,sans-Serif" font-size="10.00">MIDI_message_matcher.h</text>
</a>
</g>
</g>
<!-- Node3&#45;&gt;Node4 -->
<g id="edge4" class="edge"><title>Node3&#45;&gt;Node4</title>
<path fill="none" stroke="midnightblue" d="M309.284,-347.399C303.449,-338.932 295.984,-328.099 289.81,-319.139"/>
<polygon fill="midnightblue" stroke="midnightblue" points="292.522,-316.906 283.966,-310.658 286.758,-320.878 292.522,-316.906"/>
</g>
<!-- Node5 -->
<g id="node6" class="node"><title>Node5</title>
<g id="a_node6"><a xlink:href="MIDI__Parser_8h.html" target="_top" xlink:title="../MIDI_Parsers/MIDI\l_Parser.h">
<polygon fill="none" stroke="black" points="199.5,-224.5 199.5,-254.5 310.5,-254.5 310.5,-224.5 199.5,-224.5"/>
<text text-anchor="start" x="207.5" y="-242.5" font-family="Helvetica,sans-Serif" font-size="10.00">../MIDI_Parsers/MIDI</text>
<text text-anchor="middle" x="255" y="-231.5" font-family="Helvetica,sans-Serif" font-size="10.00">_Parser.h</text>
</a>
</g>
</g>
<!-- Node4&#45;&gt;Node5 -->
<g id="edge5" class="edge"><title>Node4&#45;&gt;Node5</title>
<path fill="none" stroke="midnightblue" d="M274.705,-291.475C271.939,-284.32 267.852,-273.748 264.117,-264.084"/>
<polygon fill="midnightblue" stroke="midnightblue" points="267.291,-262.588 260.421,-254.523 260.762,-265.112 267.291,-262.588"/>
</g>
<!-- Node6 -->
<g id="node7" class="node"><title>Node6</title>
<polygon fill="none" stroke="#bfbfbf" points="298,-168.5 298,-187.5 350,-187.5 350,-168.5 298,-168.5"/>
<text text-anchor="middle" x="324" y="-175.5" font-family="Helvetica,sans-Serif" font-size="10.00">stddef.h</text>
</g>
<!-- Node5&#45;&gt;Node6 -->
<g id="edge6" class="edge"><title>Node5&#45;&gt;Node6</title>
<path fill="none" stroke="midnightblue" d="M271.352,-224.399C281.895,-215.308 295.6,-203.49 306.384,-194.191"/>
<polygon fill="midnightblue" stroke="midnightblue" points="308.672,-196.839 313.96,-187.658 304.101,-191.538 308.672,-196.839"/>
</g>
<!-- Node7 -->
<g id="node8" class="node"><title>Node7</title>
<polygon fill="none" stroke="#bfbfbf" points="230.5,-168.5 230.5,-187.5 279.5,-187.5 279.5,-168.5 230.5,-168.5"/>
<text text-anchor="middle" x="255" y="-175.5" font-family="Helvetica,sans-Serif" font-size="10.00">stdint.h</text>
</g>
<!-- Node5&#45;&gt;Node7 -->
<g id="edge7" class="edge"><title>Node5&#45;&gt;Node7</title>
<path fill="none" stroke="midnightblue" d="M255,-224.399C255,-216.466 255,-206.458 255,-197.858"/>
<polygon fill="midnightblue" stroke="midnightblue" points="258.5,-197.658 255,-187.658 251.5,-197.658 258.5,-197.658"/>
</g>
<!-- Node8 -->
<g id="node9" class="node"><title>Node8</title>
<polygon fill="none" stroke="#bfbfbf" points="164,-168.5 164,-187.5 212,-187.5 212,-168.5 164,-168.5"/>
<text text-anchor="middle" x="188" y="-175.5" font-family="Helvetica,sans-Serif" font-size="10.00">stdlib.h</text>
</g>
<!-- Node5&#45;&gt;Node8 -->
<g id="edge8" class="edge"><title>Node5&#45;&gt;Node8</title>
<path fill="none" stroke="midnightblue" d="M239.122,-224.399C228.985,-215.397 215.838,-203.721 205.415,-194.465"/>
<polygon fill="midnightblue" stroke="midnightblue" points="207.55,-191.681 197.749,-187.658 202.902,-196.915 207.55,-191.681"/>
</g>
<!-- Node9 -->
<g id="node10" class="node"><title>Node9</title>
<g id="a_node10"><a xlink:href="SettingsWrapper_8h.html" target="_top" xlink:title="../Settings/SettingsWrapper.h">
<polygon fill="none" stroke="black" points="0,-168.5 0,-187.5 146,-187.5 146,-168.5 0,-168.5"/>
<text text-anchor="middle" x="73" y="-175.5" font-family="Helvetica,sans-Serif" font-size="10.00">../Settings/SettingsWrapper.h</text>
</a>
</g>
</g>
<!-- Node5&#45;&gt;Node9 -->
<g id="edge9" class="edge"><title>Node5&#45;&gt;Node9</title>
<path fill="none" stroke="midnightblue" d="M211.869,-224.399C180.42,-214.118 138.308,-200.351 108.733,-190.682"/>
<polygon fill="midnightblue" stroke="midnightblue" points="109.81,-187.352 99.2169,-187.571 107.634,-194.005 109.81,-187.352"/>
</g>
<!-- Node10 -->
<g id="node11" class="node"><title>Node10</title>
<g id="a_node11"><a xlink:href="Settings_8h.html" target="_top" xlink:title="All user settings and debugging options can be changed here. ">
<polygon fill="none" stroke="black" points="42.5,-112.5 42.5,-131.5 103.5,-131.5 103.5,-112.5 42.5,-112.5"/>
<text text-anchor="middle" x="73" y="-119.5" font-family="Helvetica,sans-Serif" font-size="10.00">Settings.h</text>
</a>
</g>
</g>
<!-- Node9&#45;&gt;Node10 -->
<g id="edge10" class="edge"><title>Node9&#45;&gt;Node10</title>
<path fill="none" stroke="midnightblue" d="M73,-168.083C73,-161.006 73,-150.861 73,-141.986"/>
<polygon fill="midnightblue" stroke="midnightblue" points="76.5001,-141.751 73,-131.751 69.5001,-141.751 76.5001,-141.751"/>
</g>
<!-- Node11 -->
<g id="node12" class="node"><title>Node11</title>
<g id="a_node12"><a xlink:href="Debug_8hpp.html" target="_top" xlink:title="../Helpers/Debug.hpp">
<polygon fill="none" stroke="black" points="222,-112.5 222,-131.5 332,-131.5 332,-112.5 222,-112.5"/>
<text text-anchor="middle" x="277" y="-119.5" font-family="Helvetica,sans-Serif" font-size="10.00">../Helpers/Debug.hpp</text>
</a>
</g>
</g>
<!-- Node9&#45;&gt;Node11 -->
<g id="edge11" class="edge"><title>Node9&#45;&gt;Node11</title>
<path fill="none" stroke="midnightblue" d="M100.236,-168.444C133.405,-159.122 189.686,-144.183 229.894,-133.997"/>
<polygon fill="midnightblue" stroke="midnightblue" points="230.904,-137.352 239.747,-131.516 229.195,-130.564 230.904,-137.352"/>
</g>
<!-- Node11&#45;&gt;Node9 -->
<g id="edge12" class="edge"><title>Node11&#45;&gt;Node9</title>
<path fill="none" stroke="midnightblue" d="M249.907,-131.516C216.803,-140.822 160.533,-155.76 120.279,-165.959"/>
<polygon fill="midnightblue" stroke="midnightblue" points="119.256,-162.607 110.413,-168.444 120.965,-169.395 119.256,-162.607"/>
</g>
<!-- Node12 -->
<g id="node13" class="node"><title>Node12</title>
<g id="a_node13"><a xlink:href="PrintStream_8h.html" target="_top" xlink:title="PrintStream.h">
<polygon fill="none" stroke="black" points="238.5,-56.5 238.5,-75.5 315.5,-75.5 315.5,-56.5 238.5,-56.5"/>
<text text-anchor="middle" x="277" y="-63.5" font-family="Helvetica,sans-Serif" font-size="10.00">PrintStream.h</text>
</a>
</g>
</g>
<!-- Node11&#45;&gt;Node12 -->
<g id="edge13" class="edge"><title>Node11&#45;&gt;Node12</title>
<path fill="none" stroke="midnightblue" d="M277,-112.083C277,-105.006 277,-94.8611 277,-85.9865"/>
<polygon fill="midnightblue" stroke="midnightblue" points="280.5,-85.751 277,-75.7511 273.5,-85.7511 280.5,-85.751"/>
</g>
<!-- Node13 -->
<g id="node14" class="node"><title>Node13</title>
<polygon fill="none" stroke="#bfbfbf" points="248,-0.5 248,-19.5 306,-19.5 306,-0.5 248,-0.5"/>
<text text-anchor="middle" x="277" y="-7.5" font-family="Helvetica,sans-Serif" font-size="10.00">Arduino.h</text>
</g>
<!-- Node12&#45;&gt;Node13 -->
<g id="edge14" class="edge"><title>Node12&#45;&gt;Node13</title>
<path fill="none" stroke="midnightblue" d="M277,-56.083C277,-49.0059 277,-38.8611 277,-29.9865"/>
<polygon fill="midnightblue" stroke="midnightblue" points="280.5,-29.751 277,-19.7511 273.5,-29.7511 280.5,-29.751"/>
</g>
<!-- Node14&#45;&gt;Node11 -->
<g id="edge16" class="edge"><title>Node14&#45;&gt;Node11</title>
<path fill="none" stroke="midnightblue" d="M536.189,-291.314C544.081,-268.133 561.755,-204.124 531,-168 507.148,-139.985 409.273,-129.394 342.225,-125.401"/>
<polygon fill="midnightblue" stroke="midnightblue" points="342.338,-121.902 332.157,-124.837 341.946,-128.891 342.338,-121.902"/>
</g>
<!-- Node15 -->
<g id="node16" class="node"><title>Node15</title>
<g id="a_node16"><a xlink:href="Bank_8h.html" target="_top" xlink:title="Bank.h">
<polygon fill="none" stroke="black" points="354.5,-230 354.5,-249 401.5,-249 401.5,-230 354.5,-230"/>
<text text-anchor="middle" x="378" y="-237" font-family="Helvetica,sans-Serif" font-size="10.00">Bank.h</text>
</a>
</g>
</g>
<!-- Node14&#45;&gt;Node15 -->
<g id="edge17" class="edge"><title>Node14&#45;&gt;Node15</title>
<path fill="none" stroke="midnightblue" d="M510.792,-291.475C484.319,-281.313 439.886,-264.256 409.78,-252.7"/>
<polygon fill="midnightblue" stroke="midnightblue" points="410.757,-249.325 400.167,-249.009 408.248,-255.86 410.757,-249.325"/>
</g>
<!-- Node15&#45;&gt;Node2 -->
<g id="edge18" class="edge"><title>Node15&#45;&gt;Node2</title>
<path fill="none" stroke="midnightblue" d="M390.322,-229.975C404.116,-220.431 426.699,-204.807 443.232,-193.368"/>
<polygon fill="midnightblue" stroke="midnightblue" points="445.469,-196.077 451.701,-187.509 441.486,-190.32 445.469,-196.077"/>
</g>
<!-- Node15&#45;&gt;Node6 -->
<g id="edge20" class="edge"><title>Node15&#45;&gt;Node6</title>
<path fill="none" stroke="midnightblue" d="M370.263,-229.975C362.003,-220.873 348.723,-206.241 338.506,-194.983"/>
<polygon fill="midnightblue" stroke="midnightblue" points="341.035,-192.562 331.723,-187.509 335.851,-197.266 341.035,-192.562"/>
</g>
<!-- Node15&#45;&gt;Node7 -->
<g id="edge21" class="edge"><title>Node15&#45;&gt;Node7</title>
<path fill="none" stroke="midnightblue" d="M360.377,-229.975C339.826,-220.034 305.636,-203.495 281.793,-191.961"/>
<polygon fill="midnightblue" stroke="midnightblue" points="283.116,-188.713 272.59,-187.509 280.068,-195.015 283.116,-188.713"/>
</g>
<!-- Node15&#45;&gt;Node11 -->
<g id="edge19" class="edge"><title>Node15&#45;&gt;Node11</title>
<path fill="none" stroke="midnightblue" d="M377.783,-229.727C376.997,-215.355 373.569,-186.538 359,-168 347.533,-153.409 329.963,-142.877 314.024,-135.688"/>
<polygon fill="midnightblue" stroke="midnightblue" points="314.954,-132.283 304.379,-131.638 312.244,-138.737 314.954,-132.283"/>
</g>
</g>
</svg>
