<?xml version="1.0" encoding="UTF-8" standalone="no"?>
<!DOCTYPE svg PUBLIC "-//W3C//DTD SVG 1.1//EN"
 "http://www.w3.org/Graphics/SVG/1.1/DTD/svg11.dtd">
<!-- Generated by graphviz version 2.38.0 (20140413.2041)
 -->
<!-- Title: MIDI_Inputs/MIDI_Input_V&#45;Pot_Ring.cpp Pages: 1 -->
<svg width="489pt" height="520pt"
 viewBox="0.00 0.00 489.00 520.00" xmlns="http://www.w3.org/2000/svg" xmlns:xlink="http://www.w3.org/1999/xlink">
<g id="graph0" class="graph" transform="scale(1 1) rotate(0) translate(4 516)">
<title>MIDI_Inputs/MIDI_Input_V&#45;Pot_Ring.cpp</title>
<!-- Node0 -->
<g id="node1" class="node"><title>Node0</title>
<polygon fill="#bfbfbf" stroke="black" points="163,-481.5 163,-511.5 285,-511.5 285,-481.5 163,-481.5"/>
<text text-anchor="start" x="171" y="-499.5" font-family="Helvetica,sans-Serif" font-size="10.00">MIDI_Inputs/MIDI_Input</text>
<text text-anchor="middle" x="224" y="-488.5" font-family="Helvetica,sans-Serif" font-size="10.00">_V&#45;Pot_Ring.cpp</text>
</g>
<!-- Node1 -->
<g id="node2" class="node"><title>Node1</title>
<g id="a_node2"><a xlink:href="MIDI__Input__V-Pot__Ring_8h.html" target="_top" xlink:title="./MIDI_Input_V&#45;Pot\l_Ring.h">
<polygon fill="none" stroke="black" points="173.5,-414.5 173.5,-444.5 274.5,-444.5 274.5,-414.5 173.5,-414.5"/>
<text text-anchor="start" x="181.5" y="-432.5" font-family="Helvetica,sans-Serif" font-size="10.00">./MIDI_Input_V&#45;Pot</text>
<text text-anchor="middle" x="224" y="-421.5" font-family="Helvetica,sans-Serif" font-size="10.00">_Ring.h</text>
</a>
</g>
</g>
<!-- Node0&#45;&gt;Node1 -->
<g id="edge1" class="edge"><title>Node0&#45;&gt;Node1</title>
<path fill="none" stroke="midnightblue" d="M224,-481.396C224,-473.645 224,-463.812 224,-454.86"/>
<polygon fill="midnightblue" stroke="midnightblue" points="227.5,-454.576 224,-444.577 220.5,-454.577 227.5,-454.576"/>
</g>
<!-- Node17 -->
<g id="node18" class="node"><title>Node17</title>
<g id="a_node18"><a xlink:href="Copy_8hpp.html" target="_top" xlink:title="../Helpers/Copy.hpp">
<polygon fill="none" stroke="black" points="5,-353 5,-372 109,-372 109,-353 5,-353"/>
<text text-anchor="middle" x="57" y="-360" font-family="Helvetica,sans-Serif" font-size="10.00">../Helpers/Copy.hpp</text>
</a>
</g>
</g>
<!-- Node0&#45;&gt;Node17 -->
<g id="edge23" class="edge"><title>Node0&#45;&gt;Node17</title>
<path fill="none" stroke="midnightblue" d="M206.128,-481.374C174.44,-456.327 108.687,-404.355 76.1251,-378.617"/>
<polygon fill="midnightblue" stroke="midnightblue" points="77.8924,-375.552 67.8768,-372.097 73.5517,-381.044 77.8924,-375.552"/>
</g>
<!-- Node18 -->
<g id="node19" class="node"><title>Node18</title>
<polygon fill="none" stroke="#bfbfbf" points="292.5,-420 292.5,-439 341.5,-439 341.5,-420 292.5,-420"/>
<text text-anchor="middle" x="317" y="-427" font-family="Helvetica,sans-Serif" font-size="10.00">string.h</text>
</g>
<!-- Node0&#45;&gt;Node18 -->
<g id="edge25" class="edge"><title>Node0&#45;&gt;Node18</title>
<path fill="none" stroke="midnightblue" d="M244.18,-481.396C259.631,-470.597 280.864,-455.756 296.415,-444.887"/>
<polygon fill="midnightblue" stroke="midnightblue" points="298.637,-447.605 304.828,-439.007 294.627,-441.867 298.637,-447.605"/>
</g>
<!-- Node2 -->
<g id="node3" class="node"><title>Node2</title>
<g id="a_node3"><a xlink:href="ExtendedInputOutput_8h.html" target="_top" xlink:title="../Hardware/ExtendedInput\lOutput/ExtendedInputOutput.h">
<polygon fill="none" stroke="black" points="310.5,-347.5 310.5,-377.5 459.5,-377.5 459.5,-347.5 310.5,-347.5"/>
<text text-anchor="start" x="318.5" y="-365.5" font-family="Helvetica,sans-Serif" font-size="10.00">../Hardware/ExtendedInput</text>
<text text-anchor="middle" x="385" y="-354.5" font-family="Helvetica,sans-Serif" font-size="10.00">Output/ExtendedInputOutput.h</text>
</a>
</g>
</g>
<!-- Node1&#45;&gt;Node2 -->
<g id="edge2" class="edge"><title>Node1&#45;&gt;Node2</title>
<path fill="none" stroke="midnightblue" d="M258.935,-414.396C282.881,-404.728 314.847,-391.823 340.598,-381.426"/>
<polygon fill="midnightblue" stroke="midnightblue" points="342.171,-384.566 350.134,-377.577 339.55,-378.075 342.171,-384.566"/>
</g>
<!-- Node7 -->
<g id="node8" class="node"><title>Node7</title>
<g id="a_node8"><a xlink:href="MIDI__Input__Element_8h.html" target="_top" xlink:title="MIDI_Input_Element.h">
<polygon fill="none" stroke="black" points="166.5,-353 166.5,-372 281.5,-372 281.5,-353 166.5,-353"/>
<text text-anchor="middle" x="224" y="-360" font-family="Helvetica,sans-Serif" font-size="10.00">MIDI_Input_Element.h</text>
</a>
</g>
</g>
<!-- Node1&#45;&gt;Node7 -->
<g id="edge7" class="edge"><title>Node1&#45;&gt;Node7</title>
<path fill="none" stroke="midnightblue" d="M224,-414.396C224,-405.064 224,-392.714 224,-382.517"/>
<polygon fill="midnightblue" stroke="midnightblue" points="227.5,-382.195 224,-372.195 220.5,-382.195 227.5,-382.195"/>
</g>
<!-- Node3 -->
<g id="node4" class="node"><title>Node3</title>
<g id="a_node4"><a xlink:href="ExtendedIOElement_8h.html" target="_top" xlink:title="ExtendedIOElement.h">
<polygon fill="none" stroke="black" points="328.5,-291.5 328.5,-310.5 441.5,-310.5 441.5,-291.5 328.5,-291.5"/>
<text text-anchor="middle" x="385" y="-298.5" font-family="Helvetica,sans-Serif" font-size="10.00">ExtendedIOElement.h</text>
</a>
</g>
</g>
<!-- Node2&#45;&gt;Node3 -->
<g id="edge3" class="edge"><title>Node2&#45;&gt;Node3</title>
<path fill="none" stroke="midnightblue" d="M385,-347.399C385,-339.466 385,-329.458 385,-320.858"/>
<polygon fill="midnightblue" stroke="midnightblue" points="388.5,-320.658 385,-310.658 381.5,-320.658 388.5,-320.658"/>
</g>
<!-- Node6 -->
<g id="node7" class="node"><title>Node6</title>
<polygon fill="none" stroke="#bfbfbf" points="370,-0.5 370,-19.5 428,-19.5 428,-0.5 370,-0.5"/>
<text text-anchor="middle" x="399" y="-7.5" font-family="Helvetica,sans-Serif" font-size="10.00">Arduino.h</text>
</g>
<!-- Node2&#45;&gt;Node6 -->
<g id="edge6" class="edge"><title>Node2&#45;&gt;Node6</title>
<path fill="none" stroke="midnightblue" d="M409.188,-347.402C422.919,-338.411 439.589,-325.703 451,-311 471.878,-284.099 481,-274.552 481,-240.5 481,-240.5 481,-240.5 481,-121 481,-80.2686 444.413,-44.8717 420.117,-25.8565"/>
<polygon fill="midnightblue" stroke="midnightblue" points="421.909,-22.8246 411.812,-19.6125 417.702,-28.4196 421.909,-22.8246"/>
</g>
<!-- Node4 -->
<g id="node5" class="node"><title>Node4</title>
<g id="a_node5"><a xlink:href="LinkedList_8h.html" target="_top" xlink:title="../../Helpers/LinkedList.h">
<polygon fill="none" stroke="black" points="291,-230 291,-249 415,-249 415,-230 291,-230"/>
<text text-anchor="middle" x="353" y="-237" font-family="Helvetica,sans-Serif" font-size="10.00">../../Helpers/LinkedList.h</text>
</a>
</g>
</g>
<!-- Node3&#45;&gt;Node4 -->
<g id="edge4" class="edge"><title>Node3&#45;&gt;Node4</title>
<path fill="none" stroke="midnightblue" d="M380.415,-291.475C375.758,-282.815 368.408,-269.149 362.49,-258.145"/>
<polygon fill="midnightblue" stroke="midnightblue" points="365.395,-256.158 357.576,-249.009 359.23,-259.474 365.395,-256.158"/>
</g>
<!-- Node5 -->
<g id="node6" class="node"><title>Node5</title>
<polygon fill="none" stroke="#bfbfbf" points="309.5,-168.5 309.5,-187.5 358.5,-187.5 358.5,-168.5 309.5,-168.5"/>
<text text-anchor="middle" x="334" y="-175.5" font-family="Helvetica,sans-Serif" font-size="10.00">stdint.h</text>
</g>
<!-- Node3&#45;&gt;Node5 -->
<g id="edge5" class="edge"><title>Node3&#45;&gt;Node5</title>
<path fill="none" stroke="midnightblue" d="M395.406,-291.324C411.343,-276.952 438.502,-247.465 424,-224 411.901,-204.423 388.419,-193.078 368.475,-186.677"/>
<polygon fill="midnightblue" stroke="midnightblue" points="369.322,-183.278 358.742,-183.84 367.363,-189.998 369.322,-183.278"/>
</g>
<!-- Node7&#45;&gt;Node4 -->
<g id="edge8" class="edge"><title>Node7&#45;&gt;Node4</title>
<path fill="none" stroke="midnightblue" d="M233.277,-352.798C254.847,-332.566 308.626,-282.122 336.167,-256.289"/>
<polygon fill="midnightblue" stroke="midnightblue" points="338.908,-258.517 343.807,-249.123 334.119,-253.412 338.908,-258.517"/>
</g>
<!-- Node8 -->
<g id="node9" class="node"><title>Node8</title>
<g id="a_node9"><a xlink:href="MIDI__Element_8h.html" target="_top" xlink:title="../MIDI_Element.h">
<polygon fill="none" stroke="black" points="175.5,-230 175.5,-249 272.5,-249 272.5,-230 175.5,-230"/>
<text text-anchor="middle" x="224" y="-237" font-family="Helvetica,sans-Serif" font-size="10.00">../MIDI_Element.h</text>
</a>
</g>
</g>
<!-- Node7&#45;&gt;Node8 -->
<g id="edge9" class="edge"><title>Node7&#45;&gt;Node8</title>
<path fill="none" stroke="midnightblue" d="M224,-352.798C224,-333.35 224,-285.99 224,-259.404"/>
<polygon fill="midnightblue" stroke="midnightblue" points="227.5,-259.123 224,-249.123 220.5,-259.123 227.5,-259.123"/>
</g>
<!-- Node13 -->
<g id="node14" class="node"><title>Node13</title>
<g id="a_node14"><a xlink:href="MIDI__message__matcher_8h.html" target="_top" xlink:title="./MIDI_message_matcher.h">
<polygon fill="none" stroke="black" points="52,-291.5 52,-310.5 190,-310.5 190,-291.5 52,-291.5"/>
<text text-anchor="middle" x="121" y="-298.5" font-family="Helvetica,sans-Serif" font-size="10.00">./MIDI_message_matcher.h</text>
</a>
</g>
</g>
<!-- Node7&#45;&gt;Node13 -->
<g id="edge17" class="edge"><title>Node7&#45;&gt;Node13</title>
<path fill="none" stroke="midnightblue" d="M209.243,-352.975C192.339,-343.211 164.417,-327.081 144.51,-315.581"/>
<polygon fill="midnightblue" stroke="midnightblue" points="146.14,-312.481 135.73,-310.509 142.638,-318.542 146.14,-312.481"/>
</g>
<!-- Node8&#45;&gt;Node5 -->
<g id="edge10" class="edge"><title>Node8&#45;&gt;Node5</title>
<path fill="none" stroke="midnightblue" d="M239.76,-229.975C257.976,-220.122 288.173,-203.788 309.468,-192.27"/>
<polygon fill="midnightblue" stroke="midnightblue" points="311.138,-195.345 318.269,-187.509 307.808,-189.188 311.138,-195.345"/>
</g>
<!-- Node9 -->
<g id="node10" class="node"><title>Node9</title>
<g id="a_node10"><a xlink:href="SettingsWrapper_8h.html" target="_top" xlink:title="./Settings/SettingsWrapper.h">
<polygon fill="none" stroke="black" points="148.5,-168.5 148.5,-187.5 291.5,-187.5 291.5,-168.5 148.5,-168.5"/>
<text text-anchor="middle" x="220" y="-175.5" font-family="Helvetica,sans-Serif" font-size="10.00">./Settings/SettingsWrapper.h</text>
</a>
</g>
</g>
<!-- Node8&#45;&gt;Node9 -->
<g id="edge11" class="edge"><title>Node8&#45;&gt;Node9</title>
<path fill="none" stroke="midnightblue" d="M223.427,-229.975C222.863,-221.58 221.982,-208.481 221.255,-197.663"/>
<polygon fill="midnightblue" stroke="midnightblue" points="224.735,-197.252 220.572,-187.509 217.751,-197.721 224.735,-197.252"/>
</g>
<!-- Node10 -->
<g id="node11" class="node"><title>Node10</title>
<g id="a_node11"><a xlink:href="Settings_8h.html" target="_top" xlink:title="All user settings and debugging options can be changed here. ">
<polygon fill="none" stroke="black" points="293.5,-112.5 293.5,-131.5 354.5,-131.5 354.5,-112.5 293.5,-112.5"/>
<text text-anchor="middle" x="324" y="-119.5" font-family="Helvetica,sans-Serif" font-size="10.00">Settings.h</text>
</a>
</g>
</g>
<!-- Node9&#45;&gt;Node10 -->
<g id="edge12" class="edge"><title>Node9&#45;&gt;Node10</title>
<path fill="none" stroke="midnightblue" d="M236.709,-168.324C253.312,-159.703 279.002,-146.364 298.22,-136.386"/>
<polygon fill="midnightblue" stroke="midnightblue" points="300.07,-139.369 307.332,-131.655 296.844,-133.156 300.07,-139.369"/>
</g>
<!-- Node11 -->
<g id="node12" class="node"><title>Node11</title>
<g id="a_node12"><a xlink:href="Debug_8hpp.html" target="_top" xlink:title="../Helpers/Debug.hpp">
<polygon fill="none" stroke="black" points="165,-112.5 165,-131.5 275,-131.5 275,-112.5 165,-112.5"/>
<text text-anchor="middle" x="220" y="-119.5" font-family="Helvetica,sans-Serif" font-size="10.00">../Helpers/Debug.hpp</text>
</a>
</g>
</g>
<!-- Node9&#45;&gt;Node11 -->
<g id="edge13" class="edge"><title>Node9&#45;&gt;Node11</title>
<path fill="none" stroke="midnightblue" d="M214.834,-168.083C213.324,-160.927 212.894,-150.635 213.542,-141.691"/>
<polygon fill="midnightblue" stroke="midnightblue" points="217.015,-142.126 214.869,-131.751 210.077,-141.2 217.015,-142.126"/>
</g>
<!-- Node11&#45;&gt;Node9 -->
<g id="edge14" class="edge"><title>Node11&#45;&gt;Node9</title>
<path fill="none" stroke="midnightblue" d="M225.131,-131.751C226.657,-138.858 227.104,-149.136 226.472,-158.101"/>
<polygon fill="midnightblue" stroke="midnightblue" points="222.993,-157.713 225.166,-168.083 229.934,-158.622 222.993,-157.713"/>
</g>
<!-- Node12 -->
<g id="node13" class="node"><title>Node12</title>
<g id="a_node13"><a xlink:href="PrintStream_8h.html" target="_top" xlink:title="PrintStream.h">
<polygon fill="none" stroke="black" points="278.5,-56.5 278.5,-75.5 355.5,-75.5 355.5,-56.5 278.5,-56.5"/>
<text text-anchor="middle" x="317" y="-63.5" font-family="Helvetica,sans-Serif" font-size="10.00">PrintStream.h</text>
</a>
</g>
</g>
<!-- Node11&#45;&gt;Node12 -->
<g id="edge15" class="edge"><title>Node11&#45;&gt;Node12</title>
<path fill="none" stroke="midnightblue" d="M235.585,-112.324C250.999,-103.743 274.812,-90.486 292.71,-80.5224"/>
<polygon fill="midnightblue" stroke="midnightblue" points="294.419,-83.5767 301.454,-75.6545 291.014,-77.4606 294.419,-83.5767"/>
</g>
<!-- Node12&#45;&gt;Node6 -->
<g id="edge16" class="edge"><title>Node12&#45;&gt;Node6</title>
<path fill="none" stroke="midnightblue" d="M330.175,-56.324C342.847,-47.979 362.233,-35.2122 377.206,-25.3524"/>
<polygon fill="midnightblue" stroke="midnightblue" points="379.431,-28.0776 385.858,-19.6545 375.581,-22.2313 379.431,-28.0776"/>
</g>
<!-- Node14 -->
<g id="node15" class="node"><title>Node14</title>
<g id="a_node15"><a xlink:href="MIDI__Parser_8h.html" target="_top" xlink:title="../MIDI_Parsers/MIDI\l_Parser.h">
<polygon fill="none" stroke="black" points="46.5,-224.5 46.5,-254.5 157.5,-254.5 157.5,-224.5 46.5,-224.5"/>
<text text-anchor="start" x="54.5" y="-242.5" font-family="Helvetica,sans-Serif" font-size="10.00">../MIDI_Parsers/MIDI</text>
<text text-anchor="middle" x="102" y="-231.5" font-family="Helvetica,sans-Serif" font-size="10.00">_Parser.h</text>
</a>
</g>
</g>
<!-- Node13&#45;&gt;Node14 -->
<g id="edge18" class="edge"><title>Node13&#45;&gt;Node14</title>
<path fill="none" stroke="midnightblue" d="M118.278,-291.475C115.993,-284.32 112.617,-273.748 109.531,-264.084"/>
<polygon fill="midnightblue" stroke="midnightblue" points="112.854,-262.984 106.478,-254.523 106.186,-265.114 112.854,-262.984"/>
</g>
<!-- Node14&#45;&gt;Node5 -->
<g id="edge20" class="edge"><title>Node14&#45;&gt;Node5</title>
<path fill="none" stroke="midnightblue" d="M157.51,-224.485C194.972,-214.994 245.782,-202.058 299.742,-188.05"/>
<polygon fill="midnightblue" stroke="midnightblue" points="300.695,-191.418 309.493,-185.515 298.934,-184.643 300.695,-191.418"/>
</g>
<!-- Node14&#45;&gt;Node9 -->
<g id="edge22" class="edge"><title>Node14&#45;&gt;Node9</title>
<path fill="none" stroke="midnightblue" d="M129.964,-224.399C149.321,-214.639 174.908,-201.737 193.856,-192.183"/>
<polygon fill="midnightblue" stroke="midnightblue" points="195.477,-195.285 202.83,-187.658 192.325,-189.035 195.477,-195.285"/>
</g>
<!-- Node15 -->
<g id="node16" class="node"><title>Node15</title>
<polygon fill="none" stroke="#bfbfbf" points="0,-168.5 0,-187.5 52,-187.5 52,-168.5 0,-168.5"/>
<text text-anchor="middle" x="26" y="-175.5" font-family="Helvetica,sans-Serif" font-size="10.00">stddef.h</text>
</g>
<!-- Node14&#45;&gt;Node15 -->
<g id="edge19" class="edge"><title>Node14&#45;&gt;Node15</title>
<path fill="none" stroke="midnightblue" d="M83.9891,-224.399C72.2622,-215.218 56.9849,-203.258 45.0551,-193.918"/>
<polygon fill="midnightblue" stroke="midnightblue" points="47.0902,-191.066 37.0587,-187.658 42.7751,-196.578 47.0902,-191.066"/>
</g>
<!-- Node16 -->
<g id="node17" class="node"><title>Node16</title>
<polygon fill="none" stroke="#bfbfbf" points="78,-168.5 78,-187.5 126,-187.5 126,-168.5 78,-168.5"/>
<text text-anchor="middle" x="102" y="-175.5" font-family="Helvetica,sans-Serif" font-size="10.00">stdlib.h</text>
</g>
<!-- Node14&#45;&gt;Node16 -->
<g id="edge21" class="edge"><title>Node14&#45;&gt;Node16</title>
<path fill="none" stroke="midnightblue" d="M102,-224.399C102,-216.466 102,-206.458 102,-197.858"/>
<polygon fill="midnightblue" stroke="midnightblue" points="105.5,-197.658 102,-187.658 98.5001,-197.658 105.5,-197.658"/>
</g>
<!-- Node17&#45;&gt;Node15 -->
<g id="edge24" class="edge"><title>Node17&#45;&gt;Node15</title>
<path fill="none" stroke="midnightblue" d="M54.1341,-352.653C50.9886,-342.643 45.9895,-325.804 43,-311 34.9486,-271.129 29.9316,-223.675 27.583,-197.92"/>
<polygon fill="midnightblue" stroke="midnightblue" points="31.0488,-197.375 26.6904,-187.719 24.0755,-197.986 31.0488,-197.375"/>
</g>
</g>
</svg>
