<?xml version="1.0" encoding="UTF-8" standalone="no"?>
<!DOCTYPE svg PUBLIC "-//W3C//DTD SVG 1.1//EN"
 "http://www.w3.org/Graphics/SVG/1.1/DTD/svg11.dtd">
<!-- Generated by graphviz version 2.38.0 (20140413.2041)
 -->
<!-- Title: MIDI_Inputs/MIDI_Input_Element.cpp Pages: 1 -->
<svg width="627pt" height="330pt"
 viewBox="0.00 0.00 626.50 330.00" xmlns="http://www.w3.org/2000/svg" xmlns:xlink="http://www.w3.org/1999/xlink">
<g id="graph0" class="graph" transform="scale(1 1) rotate(0) translate(4 326)">
<title>MIDI_Inputs/MIDI_Input_Element.cpp</title>
<!-- Node0 -->
<g id="node1" class="node"><title>Node0</title>
<polygon fill="#bfbfbf" stroke="black" points="378.5,-291.5 378.5,-321.5 500.5,-321.5 500.5,-291.5 378.5,-291.5"/>
<text text-anchor="start" x="386.5" y="-309.5" font-family="Helvetica,sans-Serif" font-size="10.00">MIDI_Inputs/MIDI_Input</text>
<text text-anchor="middle" x="439.5" y="-298.5" font-family="Helvetica,sans-Serif" font-size="10.00">_Element.cpp</text>
</g>
<!-- Node1 -->
<g id="node2" class="node"><title>Node1</title>
<g id="a_node2"><a xlink:href="MIDI__Input__Element_8h.html" target="_top" xlink:title="MIDI_Input_Element.h">
<polygon fill="none" stroke="black" points="252,-235.5 252,-254.5 367,-254.5 367,-235.5 252,-235.5"/>
<text text-anchor="middle" x="309.5" y="-242.5" font-family="Helvetica,sans-Serif" font-size="10.00">MIDI_Input_Element.h</text>
</a>
</g>
</g>
<!-- Node0&#45;&gt;Node1 -->
<g id="edge1" class="edge"><title>Node0&#45;&gt;Node1</title>
<path fill="none" stroke="midnightblue" d="M408.692,-291.399C387.172,-281.55 358.663,-268.501 337.732,-258.922"/>
<polygon fill="midnightblue" stroke="midnightblue" points="338.966,-255.637 328.416,-254.658 336.052,-262.002 338.966,-255.637"/>
</g>
<!-- Node11 -->
<g id="node12" class="node"><title>Node11</title>
<g id="a_node12"><a xlink:href="StreamOut_8h.html" target="_top" xlink:title="../Helpers/StreamOut.h">
<polygon fill="none" stroke="black" points="448.5,-235.5 448.5,-254.5 566.5,-254.5 566.5,-235.5 448.5,-235.5"/>
<text text-anchor="middle" x="507.5" y="-242.5" font-family="Helvetica,sans-Serif" font-size="10.00">../Helpers/StreamOut.h</text>
</a>
</g>
</g>
<!-- Node0&#45;&gt;Node11 -->
<g id="edge14" class="edge"><title>Node0&#45;&gt;Node11</title>
<path fill="none" stroke="midnightblue" d="M455.615,-291.399C465.904,-282.397 479.247,-270.721 489.826,-261.465"/>
<polygon fill="midnightblue" stroke="midnightblue" points="492.384,-263.877 497.605,-254.658 487.775,-258.609 492.384,-263.877"/>
</g>
<!-- Node2 -->
<g id="node3" class="node"><title>Node2</title>
<g id="a_node3"><a xlink:href="MIDI__Element_8h.html" target="_top" xlink:title="../MIDI_Element.h">
<polygon fill="none" stroke="black" points="84,-118 84,-137 181,-137 181,-118 84,-118"/>
<text text-anchor="middle" x="132.5" y="-125" font-family="Helvetica,sans-Serif" font-size="10.00">../MIDI_Element.h</text>
</a>
</g>
</g>
<!-- Node1&#45;&gt;Node2 -->
<g id="edge2" class="edge"><title>Node1&#45;&gt;Node2</title>
<path fill="none" stroke="midnightblue" d="M251.76,-235.852C224.37,-229.56 192.654,-218.472 169.5,-199 153.341,-185.41 143.292,-162.938 137.815,-147.022"/>
<polygon fill="midnightblue" stroke="midnightblue" points="141.077,-145.727 134.735,-137.24 134.4,-147.829 141.077,-145.727"/>
</g>
<!-- Node7 -->
<g id="node8" class="node"><title>Node7</title>
<g id="a_node8"><a xlink:href="Linked__List_8h.html" target="_top" xlink:title="../Helpers/Linked_List.h">
<polygon fill="none" stroke="black" points="334.5,-179.5 334.5,-198.5 454.5,-198.5 454.5,-179.5 334.5,-179.5"/>
<text text-anchor="middle" x="394.5" y="-186.5" font-family="Helvetica,sans-Serif" font-size="10.00">../Helpers/Linked_List.h</text>
</a>
</g>
</g>
<!-- Node1&#45;&gt;Node7 -->
<g id="edge7" class="edge"><title>Node1&#45;&gt;Node7</title>
<path fill="none" stroke="midnightblue" d="M323.157,-235.324C336.416,-226.9 356.768,-213.971 372.346,-204.074"/>
<polygon fill="midnightblue" stroke="midnightblue" points="374.313,-206.971 380.877,-198.655 370.56,-201.063 374.313,-206.971"/>
</g>
<!-- Node8 -->
<g id="node9" class="node"><title>Node8</title>
<g id="a_node9"><a xlink:href="MIDI__message__matcher_8h.html" target="_top" xlink:title="./MIDI_message_matcher.h">
<polygon fill="none" stroke="black" points="178.5,-179.5 178.5,-198.5 316.5,-198.5 316.5,-179.5 178.5,-179.5"/>
<text text-anchor="middle" x="247.5" y="-186.5" font-family="Helvetica,sans-Serif" font-size="10.00">./MIDI_message_matcher.h</text>
</a>
</g>
</g>
<!-- Node1&#45;&gt;Node8 -->
<g id="edge8" class="edge"><title>Node1&#45;&gt;Node8</title>
<path fill="none" stroke="midnightblue" d="M299.539,-235.324C290.373,-227.341 276.563,-215.313 265.472,-205.653"/>
<polygon fill="midnightblue" stroke="midnightblue" points="267.482,-202.762 257.643,-198.834 262.885,-208.041 267.482,-202.762"/>
</g>
<!-- Node3 -->
<g id="node4" class="node"><title>Node3</title>
<polygon fill="none" stroke="#bfbfbf" points="161,-56.5 161,-75.5 210,-75.5 210,-56.5 161,-56.5"/>
<text text-anchor="middle" x="185.5" y="-63.5" font-family="Helvetica,sans-Serif" font-size="10.00">stdint.h</text>
</g>
<!-- Node2&#45;&gt;Node3 -->
<g id="edge3" class="edge"><title>Node2&#45;&gt;Node3</title>
<path fill="none" stroke="midnightblue" d="M140.094,-117.975C148.201,-108.873 161.235,-94.241 171.263,-82.983"/>
<polygon fill="midnightblue" stroke="midnightblue" points="173.883,-85.3043 177.92,-75.5091 168.656,-80.6483 173.883,-85.3043"/>
</g>
<!-- Node4 -->
<g id="node5" class="node"><title>Node4</title>
<polygon fill="none" stroke="#bfbfbf" points="228.5,-56.5 228.5,-75.5 280.5,-75.5 280.5,-56.5 228.5,-56.5"/>
<text text-anchor="middle" x="254.5" y="-63.5" font-family="Helvetica,sans-Serif" font-size="10.00">stddef.h</text>
</g>
<!-- Node2&#45;&gt;Node4 -->
<g id="edge4" class="edge"><title>Node2&#45;&gt;Node4</title>
<path fill="none" stroke="midnightblue" d="M149.98,-117.975C170.363,-108.034 204.275,-91.4947 227.925,-79.961"/>
<polygon fill="midnightblue" stroke="midnightblue" points="229.599,-83.0385 237.053,-75.5091 226.531,-76.7468 229.599,-83.0385"/>
</g>
<!-- Node5 -->
<g id="node6" class="node"><title>Node5</title>
<g id="a_node6"><a xlink:href="SettingsWrapper_8h.html" target="_top" xlink:title="./Settings/SettingsWrapper.h">
<polygon fill="none" stroke="black" points="0,-56.5 0,-75.5 143,-75.5 143,-56.5 0,-56.5"/>
<text text-anchor="middle" x="71.5" y="-63.5" font-family="Helvetica,sans-Serif" font-size="10.00">./Settings/SettingsWrapper.h</text>
</a>
</g>
</g>
<!-- Node2&#45;&gt;Node5 -->
<g id="edge5" class="edge"><title>Node2&#45;&gt;Node5</title>
<path fill="none" stroke="midnightblue" d="M123.76,-117.975C114.338,-108.785 99.1359,-93.9563 87.5507,-82.656"/>
<polygon fill="midnightblue" stroke="midnightblue" points="89.826,-79.9861 80.2236,-75.5091 84.9383,-84.9971 89.826,-79.9861"/>
</g>
<!-- Node6 -->
<g id="node7" class="node"><title>Node6</title>
<g id="a_node7"><a xlink:href="Settings_8h.html" target="_top" xlink:title="./Settings.h">
<polygon fill="none" stroke="black" points="38,-0.5 38,-19.5 105,-19.5 105,-0.5 38,-0.5"/>
<text text-anchor="middle" x="71.5" y="-7.5" font-family="Helvetica,sans-Serif" font-size="10.00">./Settings.h</text>
</a>
</g>
</g>
<!-- Node5&#45;&gt;Node6 -->
<g id="edge6" class="edge"><title>Node5&#45;&gt;Node6</title>
<path fill="none" stroke="midnightblue" d="M71.5,-56.083C71.5,-49.0059 71.5,-38.8611 71.5,-29.9865"/>
<polygon fill="midnightblue" stroke="midnightblue" points="75.0001,-29.751 71.5,-19.7511 68.0001,-29.7511 75.0001,-29.751"/>
</g>
<!-- Node9 -->
<g id="node10" class="node"><title>Node9</title>
<g id="a_node10"><a xlink:href="MIDI__Parser_8h.html" target="_top" xlink:title="../MIDI_Parsers/MIDI\l_Parser.h">
<polygon fill="none" stroke="black" points="199,-112.5 199,-142.5 310,-142.5 310,-112.5 199,-112.5"/>
<text text-anchor="start" x="207" y="-130.5" font-family="Helvetica,sans-Serif" font-size="10.00">../MIDI_Parsers/MIDI</text>
<text text-anchor="middle" x="254.5" y="-119.5" font-family="Helvetica,sans-Serif" font-size="10.00">_Parser.h</text>
</a>
</g>
</g>
<!-- Node8&#45;&gt;Node9 -->
<g id="edge9" class="edge"><title>Node8&#45;&gt;Node9</title>
<path fill="none" stroke="midnightblue" d="M248.503,-179.475C249.327,-172.471 250.536,-162.192 251.653,-152.696"/>
<polygon fill="midnightblue" stroke="midnightblue" points="255.158,-152.863 252.85,-142.523 248.206,-152.046 255.158,-152.863"/>
</g>
<!-- Node9&#45;&gt;Node3 -->
<g id="edge10" class="edge"><title>Node9&#45;&gt;Node3</title>
<path fill="none" stroke="midnightblue" d="M238.148,-112.399C227.605,-103.308 213.9,-91.4899 203.116,-82.1909"/>
<polygon fill="midnightblue" stroke="midnightblue" points="205.399,-79.5377 195.54,-75.6578 200.828,-84.8389 205.399,-79.5377"/>
</g>
<!-- Node9&#45;&gt;Node4 -->
<g id="edge11" class="edge"><title>Node9&#45;&gt;Node4</title>
<path fill="none" stroke="midnightblue" d="M254.5,-112.399C254.5,-104.466 254.5,-94.458 254.5,-85.8583"/>
<polygon fill="midnightblue" stroke="midnightblue" points="258,-85.6577 254.5,-75.6578 251,-85.6578 258,-85.6577"/>
</g>
<!-- Node9&#45;&gt;Node5 -->
<g id="edge13" class="edge"><title>Node9&#45;&gt;Node5</title>
<path fill="none" stroke="midnightblue" d="M211.132,-112.399C179.51,-102.118 137.167,-88.3506 107.429,-78.6818"/>
<polygon fill="midnightblue" stroke="midnightblue" points="108.453,-75.3345 97.861,-75.5709 106.289,-81.9915 108.453,-75.3345"/>
</g>
<!-- Node10 -->
<g id="node11" class="node"><title>Node10</title>
<polygon fill="none" stroke="#bfbfbf" points="298.5,-56.5 298.5,-75.5 346.5,-75.5 346.5,-56.5 298.5,-56.5"/>
<text text-anchor="middle" x="322.5" y="-63.5" font-family="Helvetica,sans-Serif" font-size="10.00">stdlib.h</text>
</g>
<!-- Node9&#45;&gt;Node10 -->
<g id="edge12" class="edge"><title>Node9&#45;&gt;Node10</title>
<path fill="none" stroke="midnightblue" d="M270.615,-112.399C280.904,-103.397 294.247,-91.7214 304.826,-82.4652"/>
<polygon fill="midnightblue" stroke="midnightblue" points="307.384,-84.8769 312.605,-75.6578 302.775,-79.6088 307.384,-84.8769"/>
</g>
<!-- Node12 -->
<g id="node13" class="node"><title>Node12</title>
<polygon fill="none" stroke="#bfbfbf" points="560.5,-179.5 560.5,-198.5 618.5,-198.5 618.5,-179.5 560.5,-179.5"/>
<text text-anchor="middle" x="589.5" y="-186.5" font-family="Helvetica,sans-Serif" font-size="10.00">Arduino.h</text>
</g>
<!-- Node11&#45;&gt;Node12 -->
<g id="edge15" class="edge"><title>Node11&#45;&gt;Node12</title>
<path fill="none" stroke="midnightblue" d="M520.675,-235.324C533.347,-226.979 552.733,-214.212 567.706,-204.352"/>
<polygon fill="midnightblue" stroke="midnightblue" points="569.931,-207.078 576.358,-198.655 566.081,-201.231 569.931,-207.078"/>
</g>
<!-- Node13 -->
<g id="node14" class="node"><title>Node13</title>
<polygon fill="none" stroke="#bfbfbf" points="473,-179.5 473,-198.5 542,-198.5 542,-179.5 473,-179.5"/>
<text text-anchor="middle" x="507.5" y="-186.5" font-family="Helvetica,sans-Serif" font-size="10.00">is_integral.h</text>
</g>
<!-- Node11&#45;&gt;Node13 -->
<g id="edge16" class="edge"><title>Node11&#45;&gt;Node13</title>
<path fill="none" stroke="midnightblue" d="M507.5,-235.083C507.5,-228.006 507.5,-217.861 507.5,-208.986"/>
<polygon fill="midnightblue" stroke="midnightblue" points="511,-208.751 507.5,-198.751 504,-208.751 511,-208.751"/>
</g>
</g>
</svg>
