<?xml version="1.0" encoding="UTF-8" standalone="no"?>
<!DOCTYPE svg PUBLIC "-//W3C//DTD SVG 1.1//EN"
 "http://www.w3.org/Graphics/SVG/1.1/DTD/svg11.dtd">
<!-- Generated by graphviz version 2.38.0 (20140413.2041)
 -->
<!-- Title: MIDI_Outputs/RotaryEncoder.h Pages: 1 -->
<svg width="289pt" height="252pt"
 viewBox="0.00 0.00 289.00 252.00" xmlns="http://www.w3.org/2000/svg" xmlns:xlink="http://www.w3.org/1999/xlink">
<g id="graph0" class="graph" transform="scale(1 1) rotate(0) translate(4 248)">
<title>MIDI_Outputs/RotaryEncoder.h</title>
<!-- Node0 -->
<g id="node1" class="node"><title>Node0</title>
<polygon fill="#bfbfbf" stroke="black" points="22,-224.5 22,-243.5 177,-243.5 177,-224.5 22,-224.5"/>
<text text-anchor="middle" x="99.5" y="-231.5" font-family="Helvetica,sans-Serif" font-size="10.00">MIDI_Outputs/RotaryEncoder.h</text>
</g>
<!-- Node1 -->
<g id="node2" class="node"><title>Node1</title>
<polygon fill="none" stroke="#bfbfbf" points="12,-168.5 12,-187.5 73,-187.5 73,-168.5 12,-168.5"/>
<text text-anchor="middle" x="42.5" y="-175.5" font-family="Helvetica,sans-Serif" font-size="10.00">Encoder.h</text>
</g>
<!-- Node0&#45;&gt;Node1 -->
<g id="edge1" class="edge"><title>Node0&#45;&gt;Node1</title>
<path fill="none" stroke="midnightblue" d="M90.342,-224.324C81.9985,-216.42 69.4676,-204.548 59.3231,-194.938"/>
<polygon fill="midnightblue" stroke="midnightblue" points="61.4913,-192.171 51.8247,-187.834 56.6771,-197.252 61.4913,-192.171"/>
</g>
<!-- Node2 -->
<g id="node3" class="node"><title>Node2</title>
<g id="a_node3"><a xlink:href="MIDI__Control__Element_8h.html" target="_top" xlink:title="./MIDI_Control_Element.h">
<polygon fill="none" stroke="black" points="91,-168.5 91,-187.5 222,-187.5 222,-168.5 91,-168.5"/>
<text text-anchor="middle" x="156.5" y="-175.5" font-family="Helvetica,sans-Serif" font-size="10.00">./MIDI_Control_Element.h</text>
</a>
</g>
</g>
<!-- Node0&#45;&gt;Node2 -->
<g id="edge2" class="edge"><title>Node0&#45;&gt;Node2</title>
<path fill="none" stroke="midnightblue" d="M108.658,-224.324C117.001,-216.42 129.532,-204.548 139.677,-194.938"/>
<polygon fill="midnightblue" stroke="midnightblue" points="142.323,-197.252 147.175,-187.834 137.509,-192.171 142.323,-197.252"/>
</g>
<!-- Node3 -->
<g id="node4" class="node"><title>Node3</title>
<g id="a_node4"><a xlink:href="MIDI__Element_8h.html" target="_top" xlink:title="../MIDI_Element.h">
<polygon fill="none" stroke="black" points="45,-112.5 45,-131.5 142,-131.5 142,-112.5 45,-112.5"/>
<text text-anchor="middle" x="93.5" y="-119.5" font-family="Helvetica,sans-Serif" font-size="10.00">../MIDI_Element.h</text>
</a>
</g>
</g>
<!-- Node2&#45;&gt;Node3 -->
<g id="edge3" class="edge"><title>Node2&#45;&gt;Node3</title>
<path fill="none" stroke="midnightblue" d="M146.378,-168.324C136.974,-160.263 122.756,-148.077 111.431,-138.369"/>
<polygon fill="midnightblue" stroke="midnightblue" points="113.677,-135.684 103.806,-131.834 109.121,-140.999 113.677,-135.684"/>
</g>
<!-- Node8 -->
<g id="node9" class="node"><title>Node8</title>
<g id="a_node9"><a xlink:href="Linked__List_8h.html" target="_top" xlink:title="../Helpers/Linked_List.h">
<polygon fill="none" stroke="black" points="159.5,-112.5 159.5,-131.5 279.5,-131.5 279.5,-112.5 159.5,-112.5"/>
<text text-anchor="middle" x="219.5" y="-119.5" font-family="Helvetica,sans-Serif" font-size="10.00">../Helpers/Linked_List.h</text>
</a>
</g>
</g>
<!-- Node2&#45;&gt;Node8 -->
<g id="edge8" class="edge"><title>Node2&#45;&gt;Node8</title>
<path fill="none" stroke="midnightblue" d="M166.622,-168.324C176.026,-160.263 190.244,-148.077 201.569,-138.369"/>
<polygon fill="midnightblue" stroke="midnightblue" points="203.879,-140.999 209.194,-131.834 199.323,-135.684 203.879,-140.999"/>
</g>
<!-- Node4 -->
<g id="node5" class="node"><title>Node4</title>
<polygon fill="none" stroke="#bfbfbf" points="-3.55271e-15,-56.5 -3.55271e-15,-75.5 49,-75.5 49,-56.5 -3.55271e-15,-56.5"/>
<text text-anchor="middle" x="24.5" y="-63.5" font-family="Helvetica,sans-Serif" font-size="10.00">stdint.h</text>
</g>
<!-- Node3&#45;&gt;Node4 -->
<g id="edge4" class="edge"><title>Node3&#45;&gt;Node4</title>
<path fill="none" stroke="midnightblue" d="M82.414,-112.324C72.014,-104.185 56.2394,-91.8395 43.7784,-82.0874"/>
<polygon fill="midnightblue" stroke="midnightblue" points="45.8199,-79.2407 35.7878,-75.8339 41.5057,-84.7533 45.8199,-79.2407"/>
</g>
<!-- Node5 -->
<g id="node6" class="node"><title>Node5</title>
<polygon fill="none" stroke="#bfbfbf" points="67.5,-56.5 67.5,-75.5 119.5,-75.5 119.5,-56.5 67.5,-56.5"/>
<text text-anchor="middle" x="93.5" y="-63.5" font-family="Helvetica,sans-Serif" font-size="10.00">stddef.h</text>
</g>
<!-- Node3&#45;&gt;Node5 -->
<g id="edge5" class="edge"><title>Node3&#45;&gt;Node5</title>
<path fill="none" stroke="midnightblue" d="M93.5,-112.083C93.5,-105.006 93.5,-94.8611 93.5,-85.9865"/>
<polygon fill="midnightblue" stroke="midnightblue" points="97.0001,-85.751 93.5,-75.7511 90.0001,-85.7511 97.0001,-85.751"/>
</g>
<!-- Node6 -->
<g id="node7" class="node"><title>Node6</title>
<g id="a_node7"><a xlink:href="SettingsWrapper_8h.html" target="_top" xlink:title="./Settings/SettingsWrapper.h">
<polygon fill="none" stroke="black" points="138,-56.5 138,-75.5 281,-75.5 281,-56.5 138,-56.5"/>
<text text-anchor="middle" x="209.5" y="-63.5" font-family="Helvetica,sans-Serif" font-size="10.00">./Settings/SettingsWrapper.h</text>
</a>
</g>
</g>
<!-- Node3&#45;&gt;Node6 -->
<g id="edge6" class="edge"><title>Node3&#45;&gt;Node6</title>
<path fill="none" stroke="midnightblue" d="M111.881,-112.444C130.716,-103.675 160.231,-89.9355 181.879,-79.8579"/>
<polygon fill="midnightblue" stroke="midnightblue" points="183.617,-82.9098 191.205,-75.5164 180.662,-76.5637 183.617,-82.9098"/>
</g>
<!-- Node7 -->
<g id="node8" class="node"><title>Node7</title>
<g id="a_node8"><a xlink:href="Settings_8h.html" target="_top" xlink:title="./Settings.h">
<polygon fill="none" stroke="black" points="176,-0.5 176,-19.5 243,-19.5 243,-0.5 176,-0.5"/>
<text text-anchor="middle" x="209.5" y="-7.5" font-family="Helvetica,sans-Serif" font-size="10.00">./Settings.h</text>
</a>
</g>
</g>
<!-- Node6&#45;&gt;Node7 -->
<g id="edge7" class="edge"><title>Node6&#45;&gt;Node7</title>
<path fill="none" stroke="midnightblue" d="M209.5,-56.083C209.5,-49.0059 209.5,-38.8611 209.5,-29.9865"/>
<polygon fill="midnightblue" stroke="midnightblue" points="213,-29.751 209.5,-19.7511 206,-29.7511 213,-29.751"/>
</g>
</g>
</svg>
