<?xml version="1.0" encoding="UTF-8" standalone="no"?>
<!DOCTYPE svg PUBLIC "-//W3C//DTD SVG 1.1//EN"
 "http://www.w3.org/Graphics/SVG/1.1/DTD/svg11.dtd">
<!-- Generated by graphviz version 2.38.0 (20140413.2041)
 -->
<!-- Title: Selectors/SelectorPC.h Pages: 1 -->
<svg width="1100pt" height="576pt"
 viewBox="0.00 0.00 1099.50 576.00" xmlns="http://www.w3.org/2000/svg" xmlns:xlink="http://www.w3.org/1999/xlink">
<g id="graph0" class="graph" transform="scale(1 1) rotate(0) translate(4 572)">
<title>Selectors/SelectorPC.h</title>
<!-- Node0 -->
<g id="node1" class="node"><title>Node0</title>
<polygon fill="#bfbfbf" stroke="black" points="631,-548.5 631,-567.5 750,-567.5 750,-548.5 631,-548.5"/>
<text text-anchor="middle" x="690.5" y="-555.5" font-family="Helvetica,sans-Serif" font-size="10.00">Selectors/SelectorPC.h</text>
</g>
<!-- Node1 -->
<g id="node2" class="node"><title>Node1</title>
<g id="a_node2"><a xlink:href="Control__Surface__Class_8h.html" target="_top" xlink:title="../Control_Surface\l/Control_Surface_Class.h">
<polygon fill="none" stroke="black" points="552,-481.5 552,-511.5 681,-511.5 681,-481.5 552,-481.5"/>
<text text-anchor="start" x="560" y="-499.5" font-family="Helvetica,sans-Serif" font-size="10.00">../Control_Surface</text>
<text text-anchor="middle" x="616.5" y="-488.5" font-family="Helvetica,sans-Serif" font-size="10.00">/Control_Surface_Class.h</text>
</a>
</g>
</g>
<!-- Node0&#45;&gt;Node1 -->
<g id="edge1" class="edge"><title>Node0&#45;&gt;Node1</title>
<path fill="none" stroke="midnightblue" d="M679.898,-548.475C670.063,-540.567 655.036,-528.485 642.08,-518.067"/>
<polygon fill="midnightblue" stroke="midnightblue" points="643.927,-515.062 633.94,-511.523 639.54,-520.517 643.927,-515.062"/>
</g>
<!-- Node8 -->
<g id="node9" class="node"><title>Node8</title>
<g id="a_node9"><a xlink:href="SettingsWrapper_8h.html" target="_top" xlink:title="../Settings/SettingsWrapper.h">
<polygon fill="none" stroke="black" points="43.5,-168.5 43.5,-187.5 189.5,-187.5 189.5,-168.5 43.5,-168.5"/>
<text text-anchor="middle" x="116.5" y="-175.5" font-family="Helvetica,sans-Serif" font-size="10.00">../Settings/SettingsWrapper.h</text>
</a>
</g>
</g>
<!-- Node0&#45;&gt;Node8 -->
<g id="edge29" class="edge"><title>Node0&#45;&gt;Node8</title>
<path fill="none" stroke="midnightblue" d="M630.752,-556.785C480.439,-554.639 98.5,-538.554 98.5,-430.5 98.5,-430.5 98.5,-430.5 98.5,-294.5 98.5,-259.952 106.46,-220.276 111.793,-197.57"/>
<polygon fill="midnightblue" stroke="midnightblue" points="115.25,-198.166 114.22,-187.622 108.45,-196.507 115.25,-198.166"/>
</g>
<!-- Node21 -->
<g id="node22" class="node"><title>Node21</title>
<g id="a_node22"><a xlink:href="Copy_8hpp.html" target="_top" xlink:title="../Helpers/Copy.hpp">
<polygon fill="none" stroke="black" points="987.5,-420 987.5,-439 1091.5,-439 1091.5,-420 987.5,-420"/>
<text text-anchor="middle" x="1039.5" y="-427" font-family="Helvetica,sans-Serif" font-size="10.00">../Helpers/Copy.hpp</text>
</a>
</g>
</g>
<!-- Node0&#45;&gt;Node21 -->
<g id="edge27" class="edge"><title>Node0&#45;&gt;Node21</title>
<path fill="none" stroke="midnightblue" d="M714.214,-548.405C774.898,-526.409 935.962,-468.029 1006.09,-442.61"/>
<polygon fill="midnightblue" stroke="midnightblue" points="1007.54,-445.806 1015.75,-439.107 1005.16,-439.224 1007.54,-445.806"/>
</g>
<!-- Node22 -->
<g id="node23" class="node"><title>Node22</title>
<g id="a_node23"><a xlink:href="Selector_8h.html" target="_top" xlink:title="./Selector.h">
<polygon fill="none" stroke="black" points="732,-487 732,-506 799,-506 799,-487 732,-487"/>
<text text-anchor="middle" x="765.5" y="-494" font-family="Helvetica,sans-Serif" font-size="10.00">./Selector.h</text>
</a>
</g>
</g>
<!-- Node0&#45;&gt;Node22 -->
<g id="edge30" class="edge"><title>Node0&#45;&gt;Node22</title>
<path fill="none" stroke="midnightblue" d="M701.246,-548.475C713.053,-539.108 732.243,-523.884 746.582,-512.508"/>
<polygon fill="midnightblue" stroke="midnightblue" points="749.115,-514.966 754.774,-506.009 744.765,-509.482 749.115,-514.966"/>
</g>
<!-- Node2 -->
<g id="node3" class="node"><title>Node2</title>
<g id="a_node3"><a xlink:href="USBMIDI__Interface_8h.html" target="_top" xlink:title="../MIDI_Interfaces\l/USBMIDI_Interface.h">
<polygon fill="none" stroke="black" points="298.5,-414.5 298.5,-444.5 412.5,-444.5 412.5,-414.5 298.5,-414.5"/>
<text text-anchor="start" x="306.5" y="-432.5" font-family="Helvetica,sans-Serif" font-size="10.00">../MIDI_Interfaces</text>
<text text-anchor="middle" x="355.5" y="-421.5" font-family="Helvetica,sans-Serif" font-size="10.00">/USBMIDI_Interface.h</text>
</a>
</g>
</g>
<!-- Node1&#45;&gt;Node2 -->
<g id="edge2" class="edge"><title>Node1&#45;&gt;Node2</title>
<path fill="none" stroke="midnightblue" d="M560.188,-481.476C519.592,-471.366 464.653,-457.684 421.914,-447.04"/>
<polygon fill="midnightblue" stroke="midnightblue" points="422.71,-443.631 412.161,-444.611 421.019,-450.424 422.71,-443.631"/>
</g>
<!-- Node16 -->
<g id="node17" class="node"><title>Node16</title>
<g id="a_node17"><a xlink:href="Display_8hpp.html" target="_top" xlink:title="../Display/Display.hpp">
<polygon fill="none" stroke="black" points="651,-353 651,-372 764,-372 764,-353 651,-353"/>
<text text-anchor="middle" x="707.5" y="-360" font-family="Helvetica,sans-Serif" font-size="10.00">../Display/Display.hpp</text>
</a>
</g>
</g>
<!-- Node1&#45;&gt;Node16 -->
<g id="edge21" class="edge"><title>Node1&#45;&gt;Node16</title>
<path fill="none" stroke="midnightblue" d="M633.568,-481.261C644.237,-471.758 657.754,-458.557 667.5,-445 681.976,-424.863 693.768,-398.692 700.707,-381.511"/>
<polygon fill="midnightblue" stroke="midnightblue" points="704.001,-382.697 704.38,-372.109 697.481,-380.15 704.001,-382.697"/>
</g>
<!-- Node18 -->
<g id="node19" class="node"><title>Node18</title>
<g id="a_node19"><a xlink:href="DisplayElement_8hpp.html" target="_top" xlink:title="../Display/DisplayElement.hpp">
<polygon fill="none" stroke="black" points="510,-420 510,-439 659,-439 659,-420 510,-420"/>
<text text-anchor="middle" x="584.5" y="-427" font-family="Helvetica,sans-Serif" font-size="10.00">../Display/DisplayElement.hpp</text>
</a>
</g>
</g>
<!-- Node1&#45;&gt;Node18 -->
<g id="edge23" class="edge"><title>Node1&#45;&gt;Node18</title>
<path fill="none" stroke="midnightblue" d="M609.556,-481.396C604.765,-471.662 598.357,-458.646 593.221,-448.214"/>
<polygon fill="midnightblue" stroke="midnightblue" points="596.337,-446.62 588.78,-439.195 590.057,-449.712 596.337,-446.62"/>
</g>
<!-- Node3 -->
<g id="node4" class="node"><title>Node3</title>
<g id="a_node4"><a xlink:href="USBMIDI__Parser_8h.html" target="_top" xlink:title="../MIDI_Parsers/USBMIDI\l_Parser.h">
<polygon fill="none" stroke="black" points="336.5,-347.5 336.5,-377.5 468.5,-377.5 468.5,-347.5 336.5,-347.5"/>
<text text-anchor="start" x="344.5" y="-365.5" font-family="Helvetica,sans-Serif" font-size="10.00">../MIDI_Parsers/USBMIDI</text>
<text text-anchor="middle" x="402.5" y="-354.5" font-family="Helvetica,sans-Serif" font-size="10.00">_Parser.h</text>
</a>
</g>
</g>
<!-- Node2&#45;&gt;Node3 -->
<g id="edge3" class="edge"><title>Node2&#45;&gt;Node3</title>
<path fill="none" stroke="midnightblue" d="M365.698,-414.396C371.734,-406.049 379.515,-395.287 386.367,-385.811"/>
<polygon fill="midnightblue" stroke="midnightblue" points="389.298,-387.731 392.322,-377.577 383.626,-383.629 389.298,-387.731"/>
</g>
<!-- Node13 -->
<g id="node14" class="node"><title>Node13</title>
<g id="a_node14"><a xlink:href="MIDI__Interface_8h.html" target="_top" xlink:title="MIDI_Interface.h">
<polygon fill="none" stroke="black" points="399.5,-286 399.5,-305 489.5,-305 489.5,-286 399.5,-286"/>
<text text-anchor="middle" x="444.5" y="-293" font-family="Helvetica,sans-Serif" font-size="10.00">MIDI_Interface.h</text>
</a>
</g>
</g>
<!-- Node2&#45;&gt;Node13 -->
<g id="edge13" class="edge"><title>Node2&#45;&gt;Node13</title>
<path fill="none" stroke="midnightblue" d="M343.412,-414.282C330.459,-397.218 313.526,-368.251 327.5,-347 336.631,-333.114 375.342,-318.133 405.768,-308.125"/>
<polygon fill="midnightblue" stroke="midnightblue" points="406.859,-311.451 415.308,-305.059 404.717,-304.787 406.859,-311.451"/>
</g>
<!-- Node14 -->
<g id="node15" class="node"><title>Node14</title>
<g id="a_node15"><a xlink:href="SerialMIDI__Interface_8h.html" target="_top" xlink:title="SerialMIDI_Interface.h">
<polygon fill="none" stroke="black" points="165,-353 165,-372 280,-372 280,-353 165,-353"/>
<text text-anchor="middle" x="222.5" y="-360" font-family="Helvetica,sans-Serif" font-size="10.00">SerialMIDI_Interface.h</text>
</a>
</g>
</g>
<!-- Node2&#45;&gt;Node14 -->
<g id="edge15" class="edge"><title>Node2&#45;&gt;Node14</title>
<path fill="none" stroke="midnightblue" d="M326.641,-414.396C303.614,-403.142 271.61,-387.501 249.177,-376.538"/>
<polygon fill="midnightblue" stroke="midnightblue" points="250.428,-373.253 239.907,-372.007 247.354,-379.543 250.428,-373.253"/>
</g>
<!-- Node4 -->
<g id="node5" class="node"><title>Node4</title>
<g id="a_node5"><a xlink:href="MIDI__Parser_8h.html" target="_top" xlink:title="MIDI_Parser.h">
<polygon fill="none" stroke="black" points="441.5,-224.5 441.5,-243.5 521.5,-243.5 521.5,-224.5 441.5,-224.5"/>
<text text-anchor="middle" x="481.5" y="-231.5" font-family="Helvetica,sans-Serif" font-size="10.00">MIDI_Parser.h</text>
</a>
</g>
</g>
<!-- Node3&#45;&gt;Node4 -->
<g id="edge4" class="edge"><title>Node3&#45;&gt;Node4</title>
<path fill="none" stroke="midnightblue" d="M452.125,-347.404C469.948,-339.683 488.181,-328.088 498.5,-311 509.381,-292.981 500.74,-268.77 492.297,-252.563"/>
<polygon fill="midnightblue" stroke="midnightblue" points="495.214,-250.611 487.242,-243.632 489.123,-254.059 495.214,-250.611"/>
</g>
<!-- Node5 -->
<g id="node6" class="node"><title>Node5</title>
<polygon fill="none" stroke="#bfbfbf" points="809.5,-168.5 809.5,-187.5 861.5,-187.5 861.5,-168.5 809.5,-168.5"/>
<text text-anchor="middle" x="835.5" y="-175.5" font-family="Helvetica,sans-Serif" font-size="10.00">stddef.h</text>
</g>
<!-- Node4&#45;&gt;Node5 -->
<g id="edge5" class="edge"><title>Node4&#45;&gt;Node5</title>
<path fill="none" stroke="midnightblue" d="M521.764,-226.858C591.258,-216.257 732.654,-194.688 799.258,-184.528"/>
<polygon fill="midnightblue" stroke="midnightblue" points="799.925,-187.967 809.283,-182.999 798.87,-181.047 799.925,-187.967"/>
</g>
<!-- Node6 -->
<g id="node7" class="node"><title>Node6</title>
<polygon fill="none" stroke="#bfbfbf" points="597,-168.5 597,-187.5 646,-187.5 646,-168.5 597,-168.5"/>
<text text-anchor="middle" x="621.5" y="-175.5" font-family="Helvetica,sans-Serif" font-size="10.00">stdint.h</text>
</g>
<!-- Node4&#45;&gt;Node6 -->
<g id="edge6" class="edge"><title>Node4&#45;&gt;Node6</title>
<path fill="none" stroke="midnightblue" d="M503.683,-224.444C526.928,-215.478 563.649,-201.314 589.915,-191.183"/>
<polygon fill="midnightblue" stroke="midnightblue" points="591.35,-194.381 599.42,-187.516 588.831,-187.85 591.35,-194.381"/>
</g>
<!-- Node7 -->
<g id="node8" class="node"><title>Node7</title>
<polygon fill="none" stroke="#bfbfbf" points="457.5,-168.5 457.5,-187.5 505.5,-187.5 505.5,-168.5 457.5,-168.5"/>
<text text-anchor="middle" x="481.5" y="-175.5" font-family="Helvetica,sans-Serif" font-size="10.00">stdlib.h</text>
</g>
<!-- Node4&#45;&gt;Node7 -->
<g id="edge7" class="edge"><title>Node4&#45;&gt;Node7</title>
<path fill="none" stroke="midnightblue" d="M481.5,-224.083C481.5,-217.006 481.5,-206.861 481.5,-197.986"/>
<polygon fill="midnightblue" stroke="midnightblue" points="485,-197.751 481.5,-187.751 478,-197.751 485,-197.751"/>
</g>
<!-- Node4&#45;&gt;Node8 -->
<g id="edge8" class="edge"><title>Node4&#45;&gt;Node8</title>
<path fill="none" stroke="midnightblue" d="M441.395,-227.067C379.363,-217.889 259.44,-200.147 183.923,-188.975"/>
<polygon fill="midnightblue" stroke="midnightblue" points="184.433,-185.512 174.029,-187.511 183.409,-192.437 184.433,-185.512"/>
</g>
<!-- Node9 -->
<g id="node10" class="node"><title>Node9</title>
<g id="a_node10"><a xlink:href="Settings_8h.html" target="_top" xlink:title="All user settings and debugging options can be changed here. ">
<polygon fill="none" stroke="black" points="0,-112.5 0,-131.5 61,-131.5 61,-112.5 0,-112.5"/>
<text text-anchor="middle" x="30.5" y="-119.5" font-family="Helvetica,sans-Serif" font-size="10.00">Settings.h</text>
</a>
</g>
</g>
<!-- Node8&#45;&gt;Node9 -->
<g id="edge9" class="edge"><title>Node8&#45;&gt;Node9</title>
<path fill="none" stroke="midnightblue" d="M102.683,-168.324C89.267,-159.9 68.6759,-146.971 52.9144,-137.074"/>
<polygon fill="midnightblue" stroke="midnightblue" points="54.6132,-134.008 44.2831,-131.655 50.8908,-139.936 54.6132,-134.008"/>
</g>
<!-- Node10 -->
<g id="node11" class="node"><title>Node10</title>
<g id="a_node11"><a xlink:href="Debug_8hpp.html" target="_top" xlink:title="../Helpers/Debug.hpp">
<polygon fill="none" stroke="black" points="79.5,-112.5 79.5,-131.5 189.5,-131.5 189.5,-112.5 79.5,-112.5"/>
<text text-anchor="middle" x="134.5" y="-119.5" font-family="Helvetica,sans-Serif" font-size="10.00">../Helpers/Debug.hpp</text>
</a>
</g>
</g>
<!-- Node8&#45;&gt;Node10 -->
<g id="edge10" class="edge"><title>Node8&#45;&gt;Node10</title>
<path fill="none" stroke="midnightblue" d="M119.472,-168.083C121.884,-160.849 125.364,-150.409 128.368,-141.397"/>
<polygon fill="midnightblue" stroke="midnightblue" points="131.741,-142.345 131.583,-131.751 125.1,-140.131 131.741,-142.345"/>
</g>
<!-- Node11 -->
<g id="node12" class="node"><title>Node11</title>
<g id="a_node12"><a xlink:href="PrintStream_8h.html" target="_top" xlink:title="PrintStream.h">
<polygon fill="none" stroke="black" points="104,-56.5 104,-75.5 181,-75.5 181,-56.5 104,-56.5"/>
<text text-anchor="middle" x="142.5" y="-63.5" font-family="Helvetica,sans-Serif" font-size="10.00">PrintStream.h</text>
</a>
</g>
</g>
<!-- Node10&#45;&gt;Node11 -->
<g id="edge11" class="edge"><title>Node10&#45;&gt;Node11</title>
<path fill="none" stroke="midnightblue" d="M135.821,-112.083C136.881,-104.927 138.406,-94.6353 139.731,-85.6911"/>
<polygon fill="midnightblue" stroke="midnightblue" points="143.2,-86.1561 141.204,-75.7511 136.276,-85.1302 143.2,-86.1561"/>
</g>
<!-- Node12 -->
<g id="node13" class="node"><title>Node12</title>
<polygon fill="none" stroke="#bfbfbf" points="188.5,-0.5 188.5,-19.5 246.5,-19.5 246.5,-0.5 188.5,-0.5"/>
<text text-anchor="middle" x="217.5" y="-7.5" font-family="Helvetica,sans-Serif" font-size="10.00">Arduino.h</text>
</g>
<!-- Node11&#45;&gt;Node12 -->
<g id="edge12" class="edge"><title>Node11&#45;&gt;Node12</title>
<path fill="none" stroke="midnightblue" d="M154.55,-56.324C165.963,-48.1066 183.331,-35.6017 196.935,-25.8069"/>
<polygon fill="midnightblue" stroke="midnightblue" points="199.16,-28.5174 205.231,-19.8339 195.07,-22.8366 199.16,-28.5174"/>
</g>
<!-- Node13&#45;&gt;Node4 -->
<g id="edge14" class="edge"><title>Node13&#45;&gt;Node4</title>
<path fill="none" stroke="midnightblue" d="M449.801,-285.975C455.241,-277.227 463.859,-263.369 470.736,-252.309"/>
<polygon fill="midnightblue" stroke="midnightblue" points="473.9,-253.849 476.209,-243.509 467.956,-250.153 473.9,-253.849"/>
</g>
<!-- Node14&#45;&gt;Node8 -->
<g id="edge18" class="edge"><title>Node14&#45;&gt;Node8</title>
<path fill="none" stroke="midnightblue" d="M218.586,-352.859C208.449,-330.764 180.063,-270.663 150.5,-224 144.277,-214.178 136.512,-203.785 129.974,-195.465"/>
<polygon fill="midnightblue" stroke="midnightblue" points="132.703,-193.274 123.721,-187.655 127.239,-197.649 132.703,-193.274"/>
</g>
<!-- Node14&#45;&gt;Node12 -->
<g id="edge20" class="edge"><title>Node14&#45;&gt;Node12</title>
<path fill="none" stroke="midnightblue" d="M221.926,-352.915C220.613,-332.492 217.5,-279.397 217.5,-235 217.5,-235 217.5,-235 217.5,-121 217.5,-88.948 217.5,-51.6426 217.5,-29.7489"/>
<polygon fill="midnightblue" stroke="midnightblue" points="221,-29.5577 217.5,-19.5578 214,-29.5578 221,-29.5577"/>
</g>
<!-- Node14&#45;&gt;Node13 -->
<g id="edge19" class="edge"><title>Node14&#45;&gt;Node13</title>
<path fill="none" stroke="midnightblue" d="M251.98,-352.869C291.481,-341.303 361.681,-320.749 405.515,-307.914"/>
<polygon fill="midnightblue" stroke="midnightblue" points="406.638,-311.233 415.252,-305.064 404.671,-304.515 406.638,-311.233"/>
</g>
<!-- Node15 -->
<g id="node16" class="node"><title>Node15</title>
<g id="a_node16"><a xlink:href="SerialMIDI__Parser_8h.html" target="_top" xlink:title="../MIDI_Parsers/SerialMIDI\l_Parser.h">
<polygon fill="none" stroke="black" points="245.5,-280.5 245.5,-310.5 381.5,-310.5 381.5,-280.5 245.5,-280.5"/>
<text text-anchor="start" x="253.5" y="-298.5" font-family="Helvetica,sans-Serif" font-size="10.00">../MIDI_Parsers/SerialMIDI</text>
<text text-anchor="middle" x="313.5" y="-287.5" font-family="Helvetica,sans-Serif" font-size="10.00">_Parser.h</text>
</a>
</g>
</g>
<!-- Node14&#45;&gt;Node15 -->
<g id="edge16" class="edge"><title>Node14&#45;&gt;Node15</title>
<path fill="none" stroke="midnightblue" d="M234.773,-352.734C247.662,-343.527 268.374,-328.733 285.319,-316.629"/>
<polygon fill="midnightblue" stroke="midnightblue" points="287.672,-319.25 293.775,-310.589 283.604,-313.553 287.672,-319.25"/>
</g>
<!-- Node15&#45;&gt;Node4 -->
<g id="edge17" class="edge"><title>Node15&#45;&gt;Node4</title>
<path fill="none" stroke="midnightblue" d="M353.314,-280.399C382.005,-270.238 420.31,-256.672 447.555,-247.022"/>
<polygon fill="midnightblue" stroke="midnightblue" points="448.797,-250.296 457.055,-243.658 446.46,-243.697 448.797,-250.296"/>
</g>
<!-- Node17 -->
<g id="node18" class="node"><title>Node17</title>
<g id="a_node18"><a xlink:href="LinkedList_8h.html" target="_top" xlink:title="../Helpers/LinkedList.h">
<polygon fill="none" stroke="black" points="684,-286 684,-305 799,-305 799,-286 684,-286"/>
<text text-anchor="middle" x="741.5" y="-293" font-family="Helvetica,sans-Serif" font-size="10.00">../Helpers/LinkedList.h</text>
</a>
</g>
</g>
<!-- Node16&#45;&gt;Node17 -->
<g id="edge22" class="edge"><title>Node16&#45;&gt;Node17</title>
<path fill="none" stroke="midnightblue" d="M712.085,-352.734C717.234,-342.89 725.724,-326.66 732.263,-314.159"/>
<polygon fill="midnightblue" stroke="midnightblue" points="735.454,-315.611 736.987,-305.127 729.251,-312.366 735.454,-315.611"/>
</g>
<!-- Node18&#45;&gt;Node17 -->
<g id="edge24" class="edge"><title>Node18&#45;&gt;Node17</title>
<path fill="none" stroke="midnightblue" d="M588.709,-419.836C596.911,-403.699 616.447,-368.711 641.5,-347 660.787,-330.286 686.575,-317.438 707.132,-308.885"/>
<polygon fill="midnightblue" stroke="midnightblue" points="708.48,-312.115 716.459,-305.146 705.875,-305.618 708.48,-312.115"/>
</g>
<!-- Node19 -->
<g id="node20" class="node"><title>Node19</title>
<g id="a_node20"><a xlink:href="DisplayHelpers_8hpp.html" target="_top" xlink:title="./DisplayHelpers.hpp">
<polygon fill="none" stroke="black" points="486.5,-353 486.5,-372 594.5,-372 594.5,-353 486.5,-353"/>
<text text-anchor="middle" x="540.5" y="-360" font-family="Helvetica,sans-Serif" font-size="10.00">./DisplayHelpers.hpp</text>
</a>
</g>
</g>
<!-- Node18&#45;&gt;Node19 -->
<g id="edge25" class="edge"><title>Node18&#45;&gt;Node19</title>
<path fill="none" stroke="midnightblue" d="M578.566,-419.734C571.771,-409.695 560.479,-393.014 551.954,-380.421"/>
<polygon fill="midnightblue" stroke="midnightblue" points="554.844,-378.446 546.34,-372.127 549.047,-382.37 554.844,-378.446"/>
</g>
<!-- Node20 -->
<g id="node21" class="node"><title>Node20</title>
<polygon fill="none" stroke="#bfbfbf" points="545.5,-286 545.5,-305 629.5,-305 629.5,-286 545.5,-286"/>
<text text-anchor="middle" x="587.5" y="-293" font-family="Helvetica,sans-Serif" font-size="10.00">Adafruit_GFX.h</text>
</g>
<!-- Node19&#45;&gt;Node20 -->
<g id="edge26" class="edge"><title>Node19&#45;&gt;Node20</title>
<path fill="none" stroke="midnightblue" d="M546.839,-352.734C554.097,-342.695 566.159,-326.014 575.265,-313.421"/>
<polygon fill="midnightblue" stroke="midnightblue" points="578.239,-315.282 581.262,-305.127 572.566,-311.18 578.239,-315.282"/>
</g>
<!-- Node21&#45;&gt;Node5 -->
<g id="edge28" class="edge"><title>Node21&#45;&gt;Node5</title>
<path fill="none" stroke="midnightblue" d="M1032.48,-419.912C1002.93,-383.773 888.405,-243.705 848.949,-195.449"/>
<polygon fill="midnightblue" stroke="midnightblue" points="851.532,-193.078 842.493,-187.552 846.113,-197.509 851.532,-193.078"/>
</g>
<!-- Node22&#45;&gt;Node8 -->
<g id="edge39" class="edge"><title>Node22&#45;&gt;Node8</title>
<path fill="none" stroke="midnightblue" d="M731.947,-488.359C718.763,-485.747 703.468,-482.956 689.5,-481 565.082,-463.576 136.5,-489.132 136.5,-363.5 136.5,-363.5 136.5,-363.5 136.5,-294.5 136.5,-259.856 127.656,-220.212 121.73,-197.538"/>
<polygon fill="midnightblue" stroke="midnightblue" points="125.031,-196.339 119.033,-187.605 118.276,-198.173 125.031,-196.339"/>
</g>
<!-- Node22&#45;&gt;Node17 -->
<g id="edge38" class="edge"><title>Node22&#45;&gt;Node17</title>
<path fill="none" stroke="midnightblue" d="M767.767,-486.912C773.482,-463.775 787.022,-398.415 772.5,-347 769.025,-334.696 761.618,-322.436 754.915,-313.078"/>
<polygon fill="midnightblue" stroke="midnightblue" points="757.688,-310.941 748.857,-305.088 752.11,-315.171 757.688,-310.941"/>
</g>
<!-- Node22&#45;&gt;Node21 -->
<g id="edge37" class="edge"><title>Node22&#45;&gt;Node21</title>
<path fill="none" stroke="midnightblue" d="M799.098,-487.53C847.932,-475.945 938.672,-454.419 993.624,-441.383"/>
<polygon fill="midnightblue" stroke="midnightblue" points="994.528,-444.766 1003.45,-439.052 992.913,-437.955 994.528,-444.766"/>
</g>
<!-- Node23 -->
<g id="node24" class="node"><title>Node23</title>
<polygon fill="none" stroke="#bfbfbf" points="715,-420 715,-439 764,-439 764,-420 715,-420"/>
<text text-anchor="middle" x="739.5" y="-427" font-family="Helvetica,sans-Serif" font-size="10.00">string.h</text>
</g>
<!-- Node22&#45;&gt;Node23 -->
<g id="edge31" class="edge"><title>Node22&#45;&gt;Node23</title>
<path fill="none" stroke="midnightblue" d="M761.994,-486.734C758.095,-476.988 751.692,-460.981 746.713,-448.532"/>
<polygon fill="midnightblue" stroke="midnightblue" points="749.915,-447.112 742.951,-439.127 743.415,-449.712 749.915,-447.112"/>
</g>
<!-- Node24 -->
<g id="node25" class="node"><title>Node24</title>
<g id="a_node25"><a xlink:href="ExtendedInputOutput_8h.html" target="_top" xlink:title="../Hardware/ExtendedInput\lOutput/ExtendedInputOutput.h">
<polygon fill="none" stroke="black" points="820,-414.5 820,-444.5 969,-444.5 969,-414.5 820,-414.5"/>
<text text-anchor="start" x="828" y="-432.5" font-family="Helvetica,sans-Serif" font-size="10.00">../Hardware/ExtendedInput</text>
<text text-anchor="middle" x="894.5" y="-421.5" font-family="Helvetica,sans-Serif" font-size="10.00">Output/ExtendedInputOutput.h</text>
</a>
</g>
</g>
<!-- Node22&#45;&gt;Node24 -->
<g id="edge32" class="edge"><title>Node22&#45;&gt;Node24</title>
<path fill="none" stroke="midnightblue" d="M782.63,-486.869C801.591,-477.315 832.724,-461.627 857.339,-449.225"/>
<polygon fill="midnightblue" stroke="midnightblue" points="859.059,-452.277 866.414,-444.652 855.909,-446.026 859.059,-452.277"/>
</g>
<!-- Node24&#45;&gt;Node12 -->
<g id="edge36" class="edge"><title>Node24&#45;&gt;Node12</title>
<path fill="none" stroke="midnightblue" d="M912.414,-414.395C922.987,-405.138 935.774,-392.154 943.5,-378 961.321,-345.354 962.5,-333.694 962.5,-296.5 962.5,-296.5 962.5,-296.5 962.5,-121 962.5,-49.0214 411.223,-19.4803 257.102,-12.6279"/>
<polygon fill="midnightblue" stroke="midnightblue" points="256.848,-9.11355 246.705,-12.1735 256.542,-16.1069 256.848,-9.11355"/>
</g>
<!-- Node25 -->
<g id="node26" class="node"><title>Node25</title>
<g id="a_node26"><a xlink:href="ExtendedIOElement_8h.html" target="_top" xlink:title="ExtendedIOElement.h">
<polygon fill="none" stroke="black" points="821,-353 821,-372 934,-372 934,-353 821,-353"/>
<text text-anchor="middle" x="877.5" y="-360" font-family="Helvetica,sans-Serif" font-size="10.00">ExtendedIOElement.h</text>
</a>
</g>
</g>
<!-- Node24&#45;&gt;Node25 -->
<g id="edge33" class="edge"><title>Node24&#45;&gt;Node25</title>
<path fill="none" stroke="midnightblue" d="M890.811,-414.396C888.344,-404.963 885.071,-392.448 882.388,-382.189"/>
<polygon fill="midnightblue" stroke="midnightblue" points="885.69,-380.984 879.774,-372.195 878.918,-382.755 885.69,-380.984"/>
</g>
<!-- Node25&#45;&gt;Node6 -->
<g id="edge35" class="edge"><title>Node25&#45;&gt;Node6</title>
<path fill="none" stroke="midnightblue" d="M871.787,-352.984C860.806,-337.093 835.362,-302.499 807.5,-280 758.294,-240.265 691.175,-208.305 652.473,-191.627"/>
<polygon fill="midnightblue" stroke="midnightblue" points="653.384,-188.211 642.811,-187.527 650.65,-194.655 653.384,-188.211"/>
</g>
<!-- Node25&#45;&gt;Node17 -->
<g id="edge34" class="edge"><title>Node25&#45;&gt;Node17</title>
<path fill="none" stroke="midnightblue" d="M859.44,-352.869C836.273,-341.796 795.871,-322.486 768.905,-309.598"/>
<polygon fill="midnightblue" stroke="midnightblue" points="770.166,-306.322 759.634,-305.167 767.148,-312.637 770.166,-306.322"/>
</g>
</g>
</svg>
