<?xml version="1.0" encoding="UTF-8" standalone="no"?>
<!DOCTYPE svg PUBLIC "-//W3C//DTD SVG 1.1//EN"
 "http://www.w3.org/Graphics/SVG/1.1/DTD/svg11.dtd">
<!-- Generated by graphviz version 2.38.0 (20140413.2041)
 -->
<!-- Title: Selectors/Selector.h Pages: 1 -->
<svg width="611pt" height="207pt"
 viewBox="0.00 0.00 611.00 207.00" xmlns="http://www.w3.org/2000/svg" xmlns:xlink="http://www.w3.org/1999/xlink">
<g id="graph0" class="graph" transform="scale(1 1) rotate(0) translate(4 203)">
<title>Selectors/Selector.h</title>
<!-- Node0 -->
<g id="node1" class="node"><title>Node0</title>
<polygon fill="#bfbfbf" stroke="black" points="170,-179.5 170,-198.5 275,-198.5 275,-179.5 170,-179.5"/>
<text text-anchor="middle" x="222.5" y="-186.5" font-family="Helvetica,sans-Serif" font-size="10.00">Selectors/Selector.h</text>
</g>
<!-- Node1 -->
<g id="node2" class="node"><title>Node1</title>
<polygon fill="none" stroke="#bfbfbf" points="0,-118 0,-137 49,-137 49,-118 0,-118"/>
<text text-anchor="middle" x="24.5" y="-125" font-family="Helvetica,sans-Serif" font-size="10.00">string.h</text>
</g>
<!-- Node0&#45;&gt;Node1 -->
<g id="edge1" class="edge"><title>Node0&#45;&gt;Node1</title>
<path fill="none" stroke="midnightblue" d="M189.379,-179.456C157.053,-170.922 106.585,-157.081 63.5,-143 61.0968,-142.215 58.6218,-141.373 56.1394,-140.505"/>
<polygon fill="midnightblue" stroke="midnightblue" points="57.2601,-137.189 46.6657,-137.091 54.8871,-143.774 57.2601,-137.189"/>
</g>
<!-- Node2 -->
<g id="node3" class="node"><title>Node2</title>
<g id="a_node3"><a xlink:href="Linked__List_8h.html" target="_top" xlink:title="../Helpers/Linked_List.h">
<polygon fill="none" stroke="black" points="19.5,-0.5 19.5,-19.5 139.5,-19.5 139.5,-0.5 19.5,-0.5"/>
<text text-anchor="middle" x="79.5" y="-7.5" font-family="Helvetica,sans-Serif" font-size="10.00">../Helpers/Linked_List.h</text>
</a>
</g>
</g>
<!-- Node0&#45;&gt;Node2 -->
<g id="edge2" class="edge"><title>Node0&#45;&gt;Node2</title>
<path fill="none" stroke="midnightblue" d="M169.683,-182.062C143.723,-176.327 114.273,-165.072 96.5,-143 70.1349,-110.258 72.6579,-57.3857 76.3248,-29.5322"/>
<polygon fill="midnightblue" stroke="midnightblue" points="79.7978,-29.9733 77.833,-19.5623 72.8766,-28.9262 79.7978,-29.9733"/>
</g>
<!-- Node3 -->
<g id="node4" class="node"><title>Node3</title>
<g id="a_node4"><a xlink:href="Copy_8hpp.html" target="_top" xlink:title="../Helpers/Copy.hpp">
<polygon fill="none" stroke="black" points="105.5,-118 105.5,-137 209.5,-137 209.5,-118 105.5,-118"/>
<text text-anchor="middle" x="157.5" y="-125" font-family="Helvetica,sans-Serif" font-size="10.00">../Helpers/Copy.hpp</text>
</a>
</g>
</g>
<!-- Node0&#45;&gt;Node3 -->
<g id="edge3" class="edge"><title>Node0&#45;&gt;Node3</title>
<path fill="none" stroke="midnightblue" d="M213.187,-179.475C203.051,-170.197 186.636,-155.171 174.248,-143.831"/>
<polygon fill="midnightblue" stroke="midnightblue" points="176.535,-141.18 166.796,-137.009 171.809,-146.343 176.535,-141.18"/>
</g>
<!-- Node4 -->
<g id="node5" class="node"><title>Node4</title>
<g id="a_node5"><a xlink:href="ExtendedInputOutput_8h.html" target="_top" xlink:title="../ExtendedInputOutput\l/ExtendedInputOutput.h">
<polygon fill="none" stroke="black" points="227.5,-112.5 227.5,-142.5 347.5,-142.5 347.5,-112.5 227.5,-112.5"/>
<text text-anchor="start" x="235.5" y="-130.5" font-family="Helvetica,sans-Serif" font-size="10.00">../ExtendedInputOutput</text>
<text text-anchor="middle" x="287.5" y="-119.5" font-family="Helvetica,sans-Serif" font-size="10.00">/ExtendedInputOutput.h</text>
</a>
</g>
</g>
<!-- Node0&#45;&gt;Node4 -->
<g id="edge4" class="edge"><title>Node0&#45;&gt;Node4</title>
<path fill="none" stroke="midnightblue" d="M231.813,-179.475C240.369,-171.643 253.4,-159.714 264.706,-149.366"/>
<polygon fill="midnightblue" stroke="midnightblue" points="267.168,-151.857 272.181,-142.523 262.441,-146.693 267.168,-151.857"/>
</g>
<!-- Node8 -->
<g id="node9" class="node"><title>Node8</title>
<g id="a_node9"><a xlink:href="SettingsWrapper_8h.html" target="_top" xlink:title="../Settings/SettingsWrapper.h">
<polygon fill="none" stroke="black" points="365.5,-118 365.5,-137 511.5,-137 511.5,-118 365.5,-118"/>
<text text-anchor="middle" x="438.5" y="-125" font-family="Helvetica,sans-Serif" font-size="10.00">../Settings/SettingsWrapper.h</text>
</a>
</g>
</g>
<!-- Node0&#45;&gt;Node8 -->
<g id="edge9" class="edge"><title>Node0&#45;&gt;Node8</title>
<path fill="none" stroke="midnightblue" d="M253.448,-179.475C291.381,-169.026 355.778,-151.287 397.72,-139.733"/>
<polygon fill="midnightblue" stroke="midnightblue" points="398.898,-143.039 407.61,-137.009 397.039,-136.291 398.898,-143.039"/>
</g>
<!-- Node10 -->
<g id="node11" class="node"><title>Node10</title>
<polygon fill="none" stroke="#bfbfbf" points="530,-118 530,-137 603,-137 603,-118 530,-118"/>
<text text-anchor="middle" x="566.5" y="-125" font-family="Helvetica,sans-Serif" font-size="10.00">initializer_list</text>
</g>
<!-- Node0&#45;&gt;Node10 -->
<g id="edge11" class="edge"><title>Node0&#45;&gt;Node10</title>
<path fill="none" stroke="midnightblue" d="M275.182,-182.554C335.101,-175.781 435.63,-162.659 520.5,-143 524.337,-142.111 528.316,-141.06 532.256,-139.935"/>
<polygon fill="midnightblue" stroke="midnightblue" points="533.301,-143.276 541.867,-137.041 531.282,-136.573 533.301,-143.276"/>
</g>
<!-- Node5 -->
<g id="node6" class="node"><title>Node5</title>
<g id="a_node6"><a xlink:href="ExtendedIOElement_8h.html" target="_top" xlink:title="ExtendedIOElement.h">
<polygon fill="none" stroke="black" points="126,-56.5 126,-75.5 239,-75.5 239,-56.5 126,-56.5"/>
<text text-anchor="middle" x="182.5" y="-63.5" font-family="Helvetica,sans-Serif" font-size="10.00">ExtendedIOElement.h</text>
</a>
</g>
</g>
<!-- Node4&#45;&gt;Node5 -->
<g id="edge5" class="edge"><title>Node4&#45;&gt;Node5</title>
<path fill="none" stroke="midnightblue" d="M262.616,-112.399C245.786,-102.862 223.661,-90.3248 206.927,-80.8422"/>
<polygon fill="midnightblue" stroke="midnightblue" points="208.204,-77.5429 197.778,-75.6578 204.753,-83.633 208.204,-77.5429"/>
</g>
<!-- Node7 -->
<g id="node8" class="node"><title>Node7</title>
<polygon fill="none" stroke="#bfbfbf" points="258.5,-56.5 258.5,-75.5 316.5,-75.5 316.5,-56.5 258.5,-56.5"/>
<text text-anchor="middle" x="287.5" y="-63.5" font-family="Helvetica,sans-Serif" font-size="10.00">Arduino.h</text>
</g>
<!-- Node4&#45;&gt;Node7 -->
<g id="edge8" class="edge"><title>Node4&#45;&gt;Node7</title>
<path fill="none" stroke="midnightblue" d="M287.5,-112.399C287.5,-104.466 287.5,-94.458 287.5,-85.8583"/>
<polygon fill="midnightblue" stroke="midnightblue" points="291,-85.6577 287.5,-75.6578 284,-85.6578 291,-85.6577"/>
</g>
<!-- Node5&#45;&gt;Node2 -->
<g id="edge7" class="edge"><title>Node5&#45;&gt;Node2</title>
<path fill="none" stroke="midnightblue" d="M165.951,-56.324C149.508,-47.7034 124.065,-34.3643 105.032,-24.3855"/>
<polygon fill="midnightblue" stroke="midnightblue" points="106.489,-21.198 96.0077,-19.6545 103.239,-27.3977 106.489,-21.198"/>
</g>
<!-- Node6 -->
<g id="node7" class="node"><title>Node6</title>
<polygon fill="none" stroke="#bfbfbf" points="158,-0.5 158,-19.5 207,-19.5 207,-0.5 158,-0.5"/>
<text text-anchor="middle" x="182.5" y="-7.5" font-family="Helvetica,sans-Serif" font-size="10.00">stdint.h</text>
</g>
<!-- Node5&#45;&gt;Node6 -->
<g id="edge6" class="edge"><title>Node5&#45;&gt;Node6</title>
<path fill="none" stroke="midnightblue" d="M182.5,-56.083C182.5,-49.0059 182.5,-38.8611 182.5,-29.9865"/>
<polygon fill="midnightblue" stroke="midnightblue" points="186,-29.751 182.5,-19.7511 179,-29.7511 186,-29.751"/>
</g>
<!-- Node9 -->
<g id="node10" class="node"><title>Node9</title>
<g id="a_node10"><a xlink:href="Settings_8h.html" target="_top" xlink:title="./Settings.h">
<polygon fill="none" stroke="black" points="405,-56.5 405,-75.5 472,-75.5 472,-56.5 405,-56.5"/>
<text text-anchor="middle" x="438.5" y="-63.5" font-family="Helvetica,sans-Serif" font-size="10.00">./Settings.h</text>
</a>
</g>
</g>
<!-- Node8&#45;&gt;Node9 -->
<g id="edge10" class="edge"><title>Node8&#45;&gt;Node9</title>
<path fill="none" stroke="midnightblue" d="M438.5,-117.975C438.5,-109.58 438.5,-96.4806 438.5,-85.6631"/>
<polygon fill="midnightblue" stroke="midnightblue" points="442,-85.5091 438.5,-75.5091 435,-85.5091 442,-85.5091"/>
</g>
</g>
</svg>
