<?xml version="1.0" encoding="UTF-8" standalone="no"?>
<!DOCTYPE svg PUBLIC "-//W3C//DTD SVG 1.1//EN"
 "http://www.w3.org/Graphics/SVG/1.1/DTD/svg11.dtd">
<!-- Generated by graphviz version 2.38.0 (20140413.2041)
 -->
<!-- Title: USBMIDI_Interface.h Pages: 1 -->
<svg width="363pt" height="375pt"
 viewBox="0.00 0.00 363.00 375.00" xmlns="http://www.w3.org/2000/svg" xmlns:xlink="http://www.w3.org/1999/xlink">
<g id="graph0" class="graph" transform="scale(1 1) rotate(0) translate(4 371)">
<title>USBMIDI_Interface.h</title>
<polygon fill="white" stroke="none" points="-4,4 -4,-371 359,-371 359,4 -4,4"/>
<!-- Node0 -->
<g id="node1" class="node"><title>Node0</title>
<g id="a_node1"><a xlink:title=" ">
<polygon fill="#bfbfbf" stroke="black" points="157.5,-347.5 157.5,-366.5 268.5,-366.5 268.5,-347.5 157.5,-347.5"/>
<text text-anchor="middle" x="213" y="-354.5" font-family="Helvetica,sans-Serif" font-size="10.00">USBMIDI_Interface.h</text>
</a>
</g>
</g>
<!-- Node1 -->
<g id="node2" class="node"><title>Node1</title>
<g id="a_node2"><a xlink:href="USBMIDI__Parser_8h.html" target="_top" xlink:title=" ">
<polygon fill="white" stroke="black" points="151.5,-280.5 151.5,-310.5 274.5,-310.5 274.5,-280.5 151.5,-280.5"/>
<text text-anchor="start" x="159.5" y="-298.5" font-family="Helvetica,sans-Serif" font-size="10.00">MIDI_Parsers/USBMIDI</text>
<text text-anchor="middle" x="213" y="-287.5" font-family="Helvetica,sans-Serif" font-size="10.00">_Parser.h</text>
</a>
</g>
</g>
<!-- Node0&#45;&gt;Node1 -->
<g id="edge1" class="edge"><title>Node0&#45;&gt;Node1</title>
<path fill="none" stroke="midnightblue" d="M213,-347.475C213,-340.471 213,-330.192 213,-320.696"/>
<polygon fill="midnightblue" stroke="midnightblue" points="216.5,-320.523 213,-310.523 209.5,-320.523 216.5,-320.523"/>
</g>
<!-- Node11 -->
<g id="node12" class="node"><title>Node11</title>
<g id="a_node12"><a xlink:href="MIDI__Interface_8h.html" target="_top" xlink:title=" ">
<polygon fill="white" stroke="black" points="43,-286 43,-305 133,-305 133,-286 43,-286"/>
<text text-anchor="middle" x="88" y="-293" font-family="Helvetica,sans-Serif" font-size="10.00">MIDI_Interface.h</text>
</a>
</g>
</g>
<!-- Node0&#45;&gt;Node11 -->
<g id="edge15" class="edge"><title>Node0&#45;&gt;Node11</title>
<path fill="none" stroke="midnightblue" d="M195.091,-347.475C174.113,-337.49 139.15,-320.848 114.907,-309.307"/>
<polygon fill="midnightblue" stroke="midnightblue" points="116.41,-306.147 105.876,-305.009 113.401,-312.467 116.41,-306.147"/>
</g>
<!-- Node12 -->
<g id="node13" class="node"><title>Node12</title>
<g id="a_node13"><a xlink:title=" ">
<polygon fill="white" stroke="#bfbfbf" points="293,-286 293,-305 355,-305 355,-286 293,-286"/>
<text text-anchor="middle" x="324" y="-293" font-family="Helvetica,sans-Serif" font-size="10.00">usb_dev.h</text>
</a>
</g>
</g>
<!-- Node0&#45;&gt;Node12 -->
<g id="edge17" class="edge"><title>Node0&#45;&gt;Node12</title>
<path fill="none" stroke="midnightblue" d="M228.904,-347.475C247.285,-337.622 277.756,-321.288 299.245,-309.77"/>
<polygon fill="midnightblue" stroke="midnightblue" points="300.966,-312.818 308.126,-305.009 297.659,-306.649 300.966,-312.818"/>
</g>
<!-- Node2 -->
<g id="node3" class="node"><title>Node2</title>
<g id="a_node3"><a xlink:href="MIDI__Parser_8h.html" target="_top" xlink:title=" ">
<polygon fill="white" stroke="black" points="110,-224.5 110,-243.5 190,-243.5 190,-224.5 110,-224.5"/>
<text text-anchor="middle" x="150" y="-231.5" font-family="Helvetica,sans-Serif" font-size="10.00">MIDI_Parser.h</text>
</a>
</g>
</g>
<!-- Node1&#45;&gt;Node2 -->
<g id="edge2" class="edge"><title>Node1&#45;&gt;Node2</title>
<path fill="none" stroke="midnightblue" d="M198.07,-280.399C188.632,-271.486 176.42,-259.952 166.667,-250.741"/>
<polygon fill="midnightblue" stroke="midnightblue" points="168.84,-247.979 159.167,-243.658 164.034,-253.069 168.84,-247.979"/>
</g>
<!-- Node3 -->
<g id="node4" class="node"><title>Node3</title>
<g id="a_node4"><a xlink:title=" ">
<polygon fill="white" stroke="#bfbfbf" points="0,-56.5 0,-75.5 52,-75.5 52,-56.5 0,-56.5"/>
<text text-anchor="middle" x="26" y="-63.5" font-family="Helvetica,sans-Serif" font-size="10.00">stddef.h</text>
</a>
</g>
</g>
<!-- Node2&#45;&gt;Node3 -->
<g id="edge3" class="edge"><title>Node2&#45;&gt;Node3</title>
<path fill="none" stroke="midnightblue" d="M133.527,-224.467C106.896,-209.679 55.0479,-176.547 32,-132 24.5954,-117.688 23.5652,-99.2227 24.1127,-85.6325"/>
<polygon fill="midnightblue" stroke="midnightblue" points="27.6105,-85.7874 24.8384,-75.5617 20.6286,-85.2843 27.6105,-85.7874"/>
</g>
<!-- Node4 -->
<g id="node5" class="node"><title>Node4</title>
<g id="a_node5"><a xlink:title=" ">
<polygon fill="white" stroke="#bfbfbf" points="80.5,-56.5 80.5,-75.5 129.5,-75.5 129.5,-56.5 80.5,-56.5"/>
<text text-anchor="middle" x="105" y="-63.5" font-family="Helvetica,sans-Serif" font-size="10.00">stdint.h</text>
</a>
</g>
</g>
<!-- Node2&#45;&gt;Node4 -->
<g id="edge4" class="edge"><title>Node2&#45;&gt;Node4</title>
<path fill="none" stroke="midnightblue" d="M147.581,-224.075C140.497,-197.945 119.696,-121.211 110.036,-85.577"/>
<polygon fill="midnightblue" stroke="midnightblue" points="113.317,-84.304 107.323,-75.5681 106.561,-86.1355 113.317,-84.304"/>
</g>
<!-- Node5 -->
<g id="node6" class="node"><title>Node5</title>
<g id="a_node6"><a xlink:title=" ">
<polygon fill="white" stroke="#bfbfbf" points="153,-56.5 153,-75.5 201,-75.5 201,-56.5 153,-56.5"/>
<text text-anchor="middle" x="177" y="-63.5" font-family="Helvetica,sans-Serif" font-size="10.00">stdlib.h</text>
</a>
</g>
</g>
<!-- Node2&#45;&gt;Node5 -->
<g id="edge5" class="edge"><title>Node2&#45;&gt;Node5</title>
<path fill="none" stroke="midnightblue" d="M151.452,-224.075C155.702,-197.945 168.183,-121.211 173.978,-85.577"/>
<polygon fill="midnightblue" stroke="midnightblue" points="177.456,-86.0003 175.606,-75.5681 170.546,-84.8765 177.456,-86.0003"/>
</g>
<!-- Node6 -->
<g id="node7" class="node"><title>Node6</title>
<g id="a_node7"><a xlink:href="SettingsWrapper_8h.html" target="_top" xlink:title=" ">
<polygon fill="white" stroke="black" points="197.5,-168.5 197.5,-187.5 334.5,-187.5 334.5,-168.5 197.5,-168.5"/>
<text text-anchor="middle" x="266" y="-175.5" font-family="Helvetica,sans-Serif" font-size="10.00">Settings/SettingsWrapper.h</text>
</a>
</g>
</g>
<!-- Node2&#45;&gt;Node6 -->
<g id="edge6" class="edge"><title>Node2&#45;&gt;Node6</title>
<path fill="none" stroke="midnightblue" d="M168.381,-224.444C187.216,-215.675 216.731,-201.935 238.379,-191.858"/>
<polygon fill="midnightblue" stroke="midnightblue" points="240.117,-194.91 247.705,-187.516 237.162,-188.564 240.117,-194.91"/>
</g>
<!-- Node7 -->
<g id="node8" class="node"><title>Node7</title>
<g id="a_node8"><a xlink:href="Settings_8h.html" target="_top" xlink:title="All user settings and debugging options can be changed here.">
<polygon fill="white" stroke="black" points="41.5,-112.5 41.5,-131.5 102.5,-131.5 102.5,-112.5 41.5,-112.5"/>
<text text-anchor="middle" x="72" y="-119.5" font-family="Helvetica,sans-Serif" font-size="10.00">Settings.h</text>
</a>
</g>
</g>
<!-- Node6&#45;&gt;Node7 -->
<g id="edge7" class="edge"><title>Node6&#45;&gt;Node7</title>
<path fill="none" stroke="midnightblue" d="M235.26,-168.444C202.056,-159.201 149.009,-144.436 112.443,-134.257"/>
<polygon fill="midnightblue" stroke="midnightblue" points="113.168,-130.826 102.596,-131.516 111.291,-137.57 113.168,-130.826"/>
</g>
<!-- Node8 -->
<g id="node9" class="node"><title>Node8</title>
<g id="a_node9"><a xlink:href="Debug_8hpp.html" target="_top" xlink:title=" ">
<polygon fill="white" stroke="black" points="215.5,-112.5 215.5,-131.5 316.5,-131.5 316.5,-112.5 215.5,-112.5"/>
<text text-anchor="middle" x="266" y="-119.5" font-family="Helvetica,sans-Serif" font-size="10.00">Helpers/Debug.hpp</text>
</a>
</g>
</g>
<!-- Node6&#45;&gt;Node8 -->
<g id="edge10" class="edge"><title>Node6&#45;&gt;Node8</title>
<path fill="none" stroke="midnightblue" d="M260.834,-168.083C259.324,-160.927 258.894,-150.635 259.542,-141.691"/>
<polygon fill="midnightblue" stroke="midnightblue" points="263.015,-142.126 260.869,-131.751 256.077,-141.2 263.015,-142.126"/>
</g>
<!-- Node7&#45;&gt;Node3 -->
<g id="edge8" class="edge"><title>Node7&#45;&gt;Node3</title>
<path fill="none" stroke="midnightblue" d="M64.404,-112.083C57.7725,-104.298 47.979,-92.8015 39.9419,-83.3665"/>
<polygon fill="midnightblue" stroke="midnightblue" points="42.6037,-81.0939 33.4546,-75.7511 37.275,-85.6332 42.6037,-81.0939"/>
</g>
<!-- Node7&#45;&gt;Node4 -->
<g id="edge9" class="edge"><title>Node7&#45;&gt;Node4</title>
<path fill="none" stroke="midnightblue" d="M77.4493,-112.083C82.0145,-104.613 88.6684,-93.7244 94.2934,-84.5199"/>
<polygon fill="midnightblue" stroke="midnightblue" points="97.4241,-86.109 99.6521,-75.7511 91.4511,-82.4588 97.4241,-86.109"/>
</g>
<!-- Node8&#45;&gt;Node5 -->
<g id="edge12" class="edge"><title>Node8&#45;&gt;Node5</title>
<path fill="none" stroke="midnightblue" d="M251.701,-112.324C237.817,-103.9 216.508,-90.9709 200.196,-81.0741"/>
<polygon fill="midnightblue" stroke="midnightblue" points="201.629,-77.8495 191.264,-75.6545 197.998,-83.8341 201.629,-77.8495"/>
</g>
<!-- Node8&#45;&gt;Node6 -->
<g id="edge11" class="edge"><title>Node8&#45;&gt;Node6</title>
<path fill="none" stroke="midnightblue" d="M271.131,-131.751C272.657,-138.858 273.104,-149.136 272.472,-158.101"/>
<polygon fill="midnightblue" stroke="midnightblue" points="268.993,-157.713 271.166,-168.083 275.934,-158.622 268.993,-157.713"/>
</g>
<!-- Node9 -->
<g id="node10" class="node"><title>Node9</title>
<g id="a_node10"><a xlink:href="PrintStream_8h.html" target="_top" xlink:title=" ">
<polygon fill="white" stroke="black" points="227.5,-56.5 227.5,-75.5 304.5,-75.5 304.5,-56.5 227.5,-56.5"/>
<text text-anchor="middle" x="266" y="-63.5" font-family="Helvetica,sans-Serif" font-size="10.00">PrintStream.h</text>
</a>
</g>
</g>
<!-- Node8&#45;&gt;Node9 -->
<g id="edge13" class="edge"><title>Node8&#45;&gt;Node9</title>
<path fill="none" stroke="midnightblue" d="M266,-112.083C266,-105.006 266,-94.8611 266,-85.9865"/>
<polygon fill="midnightblue" stroke="midnightblue" points="269.5,-85.751 266,-75.7511 262.5,-85.7511 269.5,-85.751"/>
</g>
<!-- Node10 -->
<g id="node11" class="node"><title>Node10</title>
<g id="a_node11"><a xlink:title=" ">
<polygon fill="white" stroke="#bfbfbf" points="237,-0.5 237,-19.5 295,-19.5 295,-0.5 237,-0.5"/>
<text text-anchor="middle" x="266" y="-7.5" font-family="Helvetica,sans-Serif" font-size="10.00">Arduino.h</text>
</a>
</g>
</g>
<!-- Node9&#45;&gt;Node10 -->
<g id="edge14" class="edge"><title>Node9&#45;&gt;Node10</title>
<path fill="none" stroke="midnightblue" d="M266,-56.083C266,-49.0059 266,-38.8611 266,-29.9865"/>
<polygon fill="midnightblue" stroke="midnightblue" points="269.5,-29.751 266,-19.7511 262.5,-29.7511 269.5,-29.751"/>
</g>
<!-- Node11&#45;&gt;Node2 -->
<g id="edge16" class="edge"><title>Node11&#45;&gt;Node2</title>
<path fill="none" stroke="midnightblue" d="M96.8831,-285.975C106.459,-276.785 121.911,-261.956 133.686,-250.656"/>
<polygon fill="midnightblue" stroke="midnightblue" points="136.342,-252.958 141.133,-243.509 131.495,-247.908 136.342,-252.958"/>
</g>
</g>
</svg>
