<?xml version="1.0" encoding="UTF-8" standalone="no"?>
<!DOCTYPE svg PUBLIC "-//W3C//DTD SVG 1.1//EN"
 "http://www.w3.org/Graphics/SVG/1.1/DTD/svg11.dtd">
<!-- Generated by graphviz version 2.38.0 (20140413.2041)
 -->
<!-- Title: VU.hpp Pages: 1 -->
<svg width="327pt" height="140pt"
 viewBox="0.00 0.00 326.50 140.00" xmlns="http://www.w3.org/2000/svg" xmlns:xlink="http://www.w3.org/1999/xlink">
<g id="graph0" class="graph" transform="scale(1 1) rotate(0) translate(4 136)">
<title>VU.hpp</title>
<polygon fill="white" stroke="none" points="-4,4 -4,-136 322.5,-136 322.5,4 -4,4"/>
<!-- Node27 -->
<g id="node1" class="node"><title>Node27</title>
<g id="a_node1"><a xlink:title=" ">
<polygon fill="#bfbfbf" stroke="black" points="156.5,-112.5 156.5,-131.5 206.5,-131.5 206.5,-112.5 156.5,-112.5"/>
<text text-anchor="middle" x="181.5" y="-119.5" font-family="Helvetica,sans-Serif" font-size="10.00">VU.hpp</text>
</a>
</g>
</g>
<!-- Node28 -->
<g id="node2" class="node"><title>Node28</title>
<g id="a_node2"><a xlink:href="AudioVU_8hpp.html" target="_top" xlink:title=" ">
<polygon fill="white" stroke="black" points="12.5,-56.5 12.5,-75.5 86.5,-75.5 86.5,-56.5 12.5,-56.5"/>
<text text-anchor="middle" x="49.5" y="-63.5" font-family="Helvetica,sans-Serif" font-size="10.00">AudioVU.hpp</text>
</a>
</g>
</g>
<!-- Node27&#45;&gt;Node28 -->
<g id="edge1" class="edge"><title>Node27&#45;&gt;Node28</title>
<path fill="none" stroke="midnightblue" d="M151.281,-108.638C126.51,-98.504 92.1004,-84.4274 70.3179,-75.5164"/>
<polygon fill="midnightblue" stroke="midnightblue" points="150.003,-111.897 160.584,-112.444 152.654,-105.418 150.003,-111.897"/>
</g>
<!-- Node30 -->
<g id="node4" class="node"><title>Node30</title>
<g id="a_node4"><a xlink:href="VUDisplay_8hpp.html" target="_top" xlink:title=" ">
<polygon fill="white" stroke="black" points="105,-56.5 105,-75.5 188,-75.5 188,-56.5 105,-56.5"/>
<text text-anchor="middle" x="146.5" y="-63.5" font-family="Helvetica,sans-Serif" font-size="10.00">VUDisplay.hpp</text>
</a>
</g>
</g>
<!-- Node27&#45;&gt;Node30 -->
<g id="edge3" class="edge"><title>Node27&#45;&gt;Node30</title>
<path fill="none" stroke="midnightblue" d="M170.2,-103.566C164.178,-94.2747 157.031,-83.2484 152.172,-75.7511"/>
<polygon fill="midnightblue" stroke="midnightblue" points="167.344,-105.595 175.72,-112.083 173.219,-101.788 167.344,-105.595"/>
</g>
<!-- Node31 -->
<g id="node5" class="node"><title>Node31</title>
<g id="a_node5"><a xlink:href="Control__Surface_8h.html" target="_top" xlink:title="The main header file that includes all Control&#45;Surface header files.">
<polygon fill="white" stroke="black" points="143,-0.5 143,-19.5 238,-19.5 238,-0.5 143,-0.5"/>
<text text-anchor="middle" x="190.5" y="-7.5" font-family="Helvetica,sans-Serif" font-size="10.00">Control_Surface.h</text>
</a>
</g>
</g>
<!-- Node27&#45;&gt;Node31 -->
<g id="edge5" class="edge"><title>Node27&#45;&gt;Node31</title>
<path fill="none" stroke="midnightblue" d="M189.557,-102.827C192.705,-94.7781 195.932,-85.0902 197.5,-76 200.934,-56.091 196.208,-32.4431 193.01,-19.8809"/>
<polygon fill="midnightblue" stroke="midnightblue" points="186.235,-101.701 185.611,-112.277 192.694,-104.398 186.235,-101.701"/>
</g>
<!-- Node32 -->
<g id="node6" class="node"><title>Node32</title>
<g id="a_node6"><a xlink:href="MIDI__Inputs_2LEDs_2MCU_2VULEDs_8hpp.html" target="_top" xlink:title=" ">
<polygon fill="white" stroke="black" points="244.5,-56.5 244.5,-75.5 318.5,-75.5 318.5,-56.5 244.5,-56.5"/>
<text text-anchor="middle" x="281.5" y="-63.5" font-family="Helvetica,sans-Serif" font-size="10.00">VULEDs.hpp</text>
</a>
</g>
</g>
<!-- Node27&#45;&gt;Node32 -->
<g id="edge6" class="edge"><title>Node27&#45;&gt;Node32</title>
<path fill="none" stroke="midnightblue" d="M206.588,-107.453C225.049,-97.4835 249.597,-84.2279 265.473,-75.6545"/>
<polygon fill="midnightblue" stroke="midnightblue" points="204.703,-104.493 197.567,-112.324 208.029,-110.652 204.703,-104.493"/>
</g>
<!-- Node29 -->
<g id="node3" class="node"><title>Node29</title>
<g id="a_node3"><a xlink:href="AudioVULEDs_8hpp.html" target="_top" xlink:title=" ">
<polygon fill="white" stroke="black" points="0,-0.5 0,-19.5 99,-19.5 99,-0.5 0,-0.5"/>
<text text-anchor="middle" x="49.5" y="-7.5" font-family="Helvetica,sans-Serif" font-size="10.00">AudioVULEDs.hpp</text>
</a>
</g>
</g>
<!-- Node28&#45;&gt;Node29 -->
<g id="edge2" class="edge"><title>Node28&#45;&gt;Node29</title>
<path fill="none" stroke="midnightblue" d="M49.5,-45.8045C49.5,-36.9102 49.5,-26.7798 49.5,-19.7511"/>
<polygon fill="midnightblue" stroke="midnightblue" points="46.0001,-46.083 49.5,-56.083 53.0001,-46.083 46.0001,-46.083"/>
</g>
<!-- Node30&#45;&gt;Node31 -->
<g id="edge4" class="edge"><title>Node30&#45;&gt;Node31</title>
<path fill="none" stroke="midnightblue" d="M160.235,-48.144C167.901,-38.7357 177.133,-27.4046 183.369,-19.7511"/>
<polygon fill="midnightblue" stroke="midnightblue" points="157.369,-46.1198 153.766,-56.083 162.796,-50.5415 157.369,-46.1198"/>
</g>
</g>
</svg>
