<?xml version="1.0" encoding="UTF-8" standalone="no"?>
<!DOCTYPE svg PUBLIC "-//W3C//DTD SVG 1.1//EN"
 "http://www.w3.org/Graphics/SVG/1.1/DTD/svg11.dtd">
<!-- Generated by graphviz version 2.38.0 (20140413.2041)
 -->
<!-- Title: Bankable::CCIncrementDecrementButtons Pages: 1 -->
<svg width="834pt" height="1307pt"
 viewBox="0.00 0.00 833.97 1307.00" xmlns="http://www.w3.org/2000/svg" xmlns:xlink="http://www.w3.org/1999/xlink">
<g id="graph0" class="graph" transform="scale(1 1) rotate(0) translate(4 1303)">
<title>Bankable::CCIncrementDecrementButtons</title>
<polygon fill="white" stroke="none" points="-4,4 -4,-1303 829.967,-1303 829.967,4 -4,4"/>
<!-- Node1 -->
<g id="node1" class="node"><title>Node1</title>
<g id="a_node1"><a xlink:title="A class of MIDIOutputElements that read the input of two momentary push buttons to increment or decre...">
<polygon fill="#bfbfbf" stroke="black" points="358.467,-0.5 358.467,-68.5 530.467,-68.5 530.467,-0.5 358.467,-0.5"/>
<text text-anchor="start" x="366.467" y="-56.5" font-family="Helvetica,sans-Serif" font-size="10.00">Bankable::CCIncrementDecrement</text>
<text text-anchor="middle" x="444.467" y="-45.5" font-family="Helvetica,sans-Serif" font-size="10.00">Buttons</text>
<polyline fill="none" stroke="black" points="358.467,-38.5 530.467,-38.5 "/>
<text text-anchor="middle" x="444.467" y="-26.5" font-family="Helvetica,sans-Serif" font-size="10.00"> </text>
<polyline fill="none" stroke="black" points="358.467,-19.5 530.467,-19.5 "/>
<text text-anchor="start" x="366.467" y="-7.5" font-family="Helvetica,sans-Serif" font-size="10.00">+ CCIncrementDecrementButtons()</text>
</a>
</g>
</g>
<!-- Node2 -->
<g id="node2" class="node"><title>Node2</title>
<g id="a_node2"><a xlink:href="../../d1/d2f/classBankable_1_1MIDIIncrementDecrementButtons.html" target="_top" xlink:title=" ">
<polygon fill="white" stroke="black" points="346.467,-106.5 346.467,-229.5 542.467,-229.5 542.467,-106.5 346.467,-106.5"/>
<text text-anchor="start" x="354.467" y="-217.5" font-family="Helvetica,sans-Serif" font-size="10.00">Bankable::MIDIIncrementDecrement</text>
<text text-anchor="start" x="354.467" y="-206.5" font-family="Helvetica,sans-Serif" font-size="10.00">Buttons&lt; TwoSingleAddresses,</text>
<text text-anchor="middle" x="444.467" y="-195.5" font-family="Helvetica,sans-Serif" font-size="10.00"> RelativeCCSender, DigitalNoteSender &gt;</text>
<polyline fill="none" stroke="black" points="346.467,-188.5 542.467,-188.5 "/>
<text text-anchor="start" x="354.467" y="-176.5" font-family="Helvetica,sans-Serif" font-size="10.00">&#45; multiplier</text>
<polyline fill="none" stroke="black" points="346.467,-169.5 542.467,-169.5 "/>
<text text-anchor="start" x="354.467" y="-157.5" font-family="Helvetica,sans-Serif" font-size="10.00">+ begin()</text>
<text text-anchor="start" x="354.467" y="-146.5" font-family="Helvetica,sans-Serif" font-size="10.00">+ update()</text>
<text text-anchor="start" x="354.467" y="-135.5" font-family="Helvetica,sans-Serif" font-size="10.00">+ send()</text>
<text text-anchor="start" x="354.467" y="-124.5" font-family="Helvetica,sans-Serif" font-size="10.00">+ reset()</text>
<text text-anchor="start" x="354.467" y="-113.5" font-family="Helvetica,sans-Serif" font-size="10.00"># MIDIIncrementDecrementButtons()</text>
</a>
</g>
</g>
<!-- Node2&#45;&gt;Node1 -->
<g id="edge1" class="edge"><title>Node2&#45;&gt;Node1</title>
<path fill="none" stroke="midnightblue" d="M444.467,-96.2434C444.467,-86.6538 444.467,-77.207 444.467,-68.7255"/>
<polygon fill="none" stroke="midnightblue" points="440.967,-96.254 444.467,-106.254 447.967,-96.254 440.967,-96.254"/>
</g>
<!-- Node3 -->
<g id="node3" class="node"><title>Node3</title>
<g id="a_node3"><a xlink:href="../../d5/de0/classUpdatable.html" target="_top" xlink:title=" ">
<polygon fill="white" stroke="black" points="84.4671,-277.5 84.4671,-488.5 188.467,-488.5 188.467,-277.5 84.4671,-277.5"/>
<text text-anchor="middle" x="136.467" y="-476.5" font-family="Helvetica,sans-Serif" font-size="10.00">MIDIOutputElement</text>
<polyline fill="none" stroke="black" points="84.4671,-469.5 188.467,-469.5 "/>
<text text-anchor="middle" x="136.467" y="-457.5" font-family="Helvetica,sans-Serif" font-size="10.00"> </text>
<polyline fill="none" stroke="black" points="84.4671,-450.5 188.467,-450.5 "/>
<text text-anchor="start" x="92.4671" y="-438.5" font-family="Helvetica,sans-Serif" font-size="10.00">+ ~Updatable()</text>
<text text-anchor="start" x="92.4671" y="-427.5" font-family="Helvetica,sans-Serif" font-size="10.00">+ update()</text>
<text text-anchor="start" x="92.4671" y="-416.5" font-family="Helvetica,sans-Serif" font-size="10.00">+ begin()</text>
<text text-anchor="start" x="92.4671" y="-405.5" font-family="Helvetica,sans-Serif" font-size="10.00">+ enable()</text>
<text text-anchor="start" x="92.4671" y="-394.5" font-family="Helvetica,sans-Serif" font-size="10.00">+ disable()</text>
<text text-anchor="start" x="92.4671" y="-383.5" font-family="Helvetica,sans-Serif" font-size="10.00">+ isEnabled()</text>
<text text-anchor="start" x="92.4671" y="-372.5" font-family="Helvetica,sans-Serif" font-size="10.00">+ enable()</text>
<text text-anchor="start" x="92.4671" y="-361.5" font-family="Helvetica,sans-Serif" font-size="10.00">+ enable()</text>
<text text-anchor="start" x="92.4671" y="-350.5" font-family="Helvetica,sans-Serif" font-size="10.00">+ enable()</text>
<text text-anchor="start" x="92.4671" y="-339.5" font-family="Helvetica,sans-Serif" font-size="10.00">+ disable()</text>
<text text-anchor="start" x="92.4671" y="-328.5" font-family="Helvetica,sans-Serif" font-size="10.00">+ disable()</text>
<text text-anchor="start" x="92.4671" y="-317.5" font-family="Helvetica,sans-Serif" font-size="10.00">+ disable()</text>
<text text-anchor="start" x="92.4671" y="-306.5" font-family="Helvetica,sans-Serif" font-size="10.00">+ beginAll()</text>
<text text-anchor="start" x="92.4671" y="-295.5" font-family="Helvetica,sans-Serif" font-size="10.00">+ updateAll()</text>
<text text-anchor="start" x="92.4671" y="-284.5" font-family="Helvetica,sans-Serif" font-size="10.00"># Updatable()</text>
</a>
</g>
</g>
<!-- Node3&#45;&gt;Node2 -->
<g id="edge2" class="edge"><title>Node3&#45;&gt;Node2</title>
<path fill="none" stroke="midnightblue" d="M195.538,-285.368C198.426,-282.433 201.403,-279.631 204.467,-277 245.46,-241.803 299.79,-216.079 346.389,-198.586"/>
<polygon fill="none" stroke="midnightblue" points="192.775,-283.201 188.548,-292.917 197.911,-287.958 192.775,-283.201"/>
</g>
<!-- Node4 -->
<g id="node4" class="node"><title>Node4</title>
<g id="a_node4"><a xlink:href="../../d4/d23/classDoublyLinkable.html" target="_top" xlink:title=" ">
<polygon fill="white" stroke="black" points="26.9671,-1214 26.9671,-1282 163.967,-1282 163.967,-1214 26.9671,-1214"/>
<text text-anchor="start" x="34.9671" y="-1270" font-family="Helvetica,sans-Serif" font-size="10.00">DoublyLinkable&lt; Updatable</text>
<text text-anchor="middle" x="95.4671" y="-1259" font-family="Helvetica,sans-Serif" font-size="10.00">&lt; NormalUpdatable &gt; &gt;</text>
<polyline fill="none" stroke="black" points="26.9671,-1252 163.967,-1252 "/>
<text text-anchor="middle" x="95.4671" y="-1240" font-family="Helvetica,sans-Serif" font-size="10.00"> </text>
<polyline fill="none" stroke="black" points="26.9671,-1233 163.967,-1233 "/>
<text text-anchor="start" x="34.9671" y="-1221" font-family="Helvetica,sans-Serif" font-size="10.00"># ~DoublyLinkable()</text>
</a>
</g>
</g>
<!-- Node4&#45;&gt;Node3 -->
<g id="edge3" class="edge"><title>Node4&#45;&gt;Node3</title>
<path fill="none" stroke="midnightblue" d="M68.6162,-1204.73C57.9162,-1185.47 46.8724,-1161.9 41.4671,-1139 -18.998,-882.866 -11.2512,-801.837 54.4671,-547 61.1514,-521.08 72.357,-494.513 84.371,-470.549"/>
<polygon fill="none" stroke="midnightblue" points="65.6488,-1206.6 73.6502,-1213.54 71.726,-1203.12 65.6488,-1206.6"/>
</g>
<!-- Node5 -->
<g id="node5" class="node"><title>Node5</title>
<g id="a_node5"><a xlink:href="../../d5/de0/classUpdatable.html" target="_top" xlink:title=" ">
<polygon fill="white" stroke="black" points="50.9671,-905.5 50.9671,-1116.5 205.967,-1116.5 205.967,-905.5 50.9671,-905.5"/>
<text text-anchor="middle" x="128.467" y="-1104.5" font-family="Helvetica,sans-Serif" font-size="10.00">Updatable&lt; NormalUpdatable &gt;</text>
<polyline fill="none" stroke="black" points="50.9671,-1097.5 205.967,-1097.5 "/>
<text text-anchor="middle" x="128.467" y="-1085.5" font-family="Helvetica,sans-Serif" font-size="10.00"> </text>
<polyline fill="none" stroke="black" points="50.9671,-1078.5 205.967,-1078.5 "/>
<text text-anchor="start" x="58.9671" y="-1066.5" font-family="Helvetica,sans-Serif" font-size="10.00">+ ~Updatable()</text>
<text text-anchor="start" x="58.9671" y="-1055.5" font-family="Helvetica,sans-Serif" font-size="10.00">+ update()</text>
<text text-anchor="start" x="58.9671" y="-1044.5" font-family="Helvetica,sans-Serif" font-size="10.00">+ begin()</text>
<text text-anchor="start" x="58.9671" y="-1033.5" font-family="Helvetica,sans-Serif" font-size="10.00">+ enable()</text>
<text text-anchor="start" x="58.9671" y="-1022.5" font-family="Helvetica,sans-Serif" font-size="10.00">+ disable()</text>
<text text-anchor="start" x="58.9671" y="-1011.5" font-family="Helvetica,sans-Serif" font-size="10.00">+ isEnabled()</text>
<text text-anchor="start" x="58.9671" y="-1000.5" font-family="Helvetica,sans-Serif" font-size="10.00">+ enable()</text>
<text text-anchor="start" x="58.9671" y="-989.5" font-family="Helvetica,sans-Serif" font-size="10.00">+ enable()</text>
<text text-anchor="start" x="58.9671" y="-978.5" font-family="Helvetica,sans-Serif" font-size="10.00">+ enable()</text>
<text text-anchor="start" x="58.9671" y="-967.5" font-family="Helvetica,sans-Serif" font-size="10.00">+ disable()</text>
<text text-anchor="start" x="58.9671" y="-956.5" font-family="Helvetica,sans-Serif" font-size="10.00">+ disable()</text>
<text text-anchor="start" x="58.9671" y="-945.5" font-family="Helvetica,sans-Serif" font-size="10.00">+ disable()</text>
<text text-anchor="start" x="58.9671" y="-934.5" font-family="Helvetica,sans-Serif" font-size="10.00">+ beginAll()</text>
<text text-anchor="start" x="58.9671" y="-923.5" font-family="Helvetica,sans-Serif" font-size="10.00">+ updateAll()</text>
<text text-anchor="start" x="58.9671" y="-912.5" font-family="Helvetica,sans-Serif" font-size="10.00"># Updatable()</text>
</a>
</g>
</g>
<!-- Node4&#45;&gt;Node5 -->
<g id="edge5" class="edge"><title>Node4&#45;&gt;Node5</title>
<path fill="none" stroke="midnightblue" d="M101.538,-1203.77C104.99,-1179.19 109.474,-1147.26 113.789,-1116.53"/>
<polygon fill="none" stroke="midnightblue" points="98.0499,-1203.44 100.125,-1213.83 104.982,-1204.41 98.0499,-1203.44"/>
</g>
<!-- Node5&#45;&gt;Node4 -->
<g id="edge4" class="edge"><title>Node5&#45;&gt;Node4</title>
<path fill="none" stroke="#404040" d="M115.149,-1116.74C112.387,-1137.39 109.417,-1158.89 106.467,-1179 105.386,-1186.37 104.181,-1194.17 102.975,-1201.76"/>
<polygon fill="none" stroke="#404040" points="102.941,-1201.98 105.936,-1208.54 101.034,-1213.83 98.0379,-1207.27 102.941,-1201.98"/>
<text text-anchor="middle" x="130.967" y="-1171" font-family="Helvetica,sans-Serif" font-size="10.00"> #next</text>
<text text-anchor="middle" x="130.967" y="-1160" font-family="Helvetica,sans-Serif" font-size="10.00">#previous</text>
</g>
<!-- Node6 -->
<g id="node6" class="node"><title>Node6</title>
<g id="a_node6"><a xlink:href="../../dd/d16/classDoublyLinkedList.html" target="_top" xlink:title=" ">
<polygon fill="white" stroke="black" points="63.9671,-547.5 63.9671,-824.5 208.967,-824.5 208.967,-547.5 63.9671,-547.5"/>
<text text-anchor="start" x="71.9671" y="-812.5" font-family="Helvetica,sans-Serif" font-size="10.00">DoublyLinkedList&lt; Updatable</text>
<text text-anchor="middle" x="136.467" y="-801.5" font-family="Helvetica,sans-Serif" font-size="10.00">&lt; NormalUpdatable &gt; &gt;</text>
<polyline fill="none" stroke="black" points="63.9671,-794.5 208.967,-794.5 "/>
<text text-anchor="middle" x="136.467" y="-782.5" font-family="Helvetica,sans-Serif" font-size="10.00"> </text>
<polyline fill="none" stroke="black" points="63.9671,-775.5 208.967,-775.5 "/>
<text text-anchor="start" x="71.9671" y="-763.5" font-family="Helvetica,sans-Serif" font-size="10.00">+ append()</text>
<text text-anchor="start" x="71.9671" y="-752.5" font-family="Helvetica,sans-Serif" font-size="10.00">+ append()</text>
<text text-anchor="start" x="71.9671" y="-741.5" font-family="Helvetica,sans-Serif" font-size="10.00">+ insertBefore()</text>
<text text-anchor="start" x="71.9671" y="-730.5" font-family="Helvetica,sans-Serif" font-size="10.00">+ insertBefore()</text>
<text text-anchor="start" x="71.9671" y="-719.5" font-family="Helvetica,sans-Serif" font-size="10.00">+ insertSorted()</text>
<text text-anchor="start" x="71.9671" y="-708.5" font-family="Helvetica,sans-Serif" font-size="10.00">+ insertSorted()</text>
<text text-anchor="start" x="71.9671" y="-697.5" font-family="Helvetica,sans-Serif" font-size="10.00">+ remove()</text>
<text text-anchor="start" x="71.9671" y="-686.5" font-family="Helvetica,sans-Serif" font-size="10.00">+ remove()</text>
<text text-anchor="start" x="71.9671" y="-675.5" font-family="Helvetica,sans-Serif" font-size="10.00">+ moveDown()</text>
<text text-anchor="start" x="71.9671" y="-664.5" font-family="Helvetica,sans-Serif" font-size="10.00">+ couldContain()</text>
<text text-anchor="start" x="71.9671" y="-653.5" font-family="Helvetica,sans-Serif" font-size="10.00">+ begin()</text>
<text text-anchor="start" x="71.9671" y="-642.5" font-family="Helvetica,sans-Serif" font-size="10.00">+ begin()</text>
<text text-anchor="start" x="71.9671" y="-631.5" font-family="Helvetica,sans-Serif" font-size="10.00">+ end()</text>
<text text-anchor="start" x="71.9671" y="-620.5" font-family="Helvetica,sans-Serif" font-size="10.00">+ end()</text>
<text text-anchor="start" x="71.9671" y="-609.5" font-family="Helvetica,sans-Serif" font-size="10.00">+ rbegin()</text>
<text text-anchor="start" x="71.9671" y="-598.5" font-family="Helvetica,sans-Serif" font-size="10.00">+ rbegin()</text>
<text text-anchor="start" x="71.9671" y="-587.5" font-family="Helvetica,sans-Serif" font-size="10.00">+ rend()</text>
<text text-anchor="start" x="71.9671" y="-576.5" font-family="Helvetica,sans-Serif" font-size="10.00">+ rend()</text>
<text text-anchor="start" x="71.9671" y="-565.5" font-family="Helvetica,sans-Serif" font-size="10.00">+ getFirst()</text>
<text text-anchor="start" x="71.9671" y="-554.5" font-family="Helvetica,sans-Serif" font-size="10.00">+ getLast()</text>
</a>
</g>
</g>
<!-- Node5&#45;&gt;Node6 -->
<g id="edge7" class="edge"><title>Node5&#45;&gt;Node6</title>
<path fill="none" stroke="#404040" d="M111.477,-905.256C109.821,-891.743 108.408,-878.066 107.467,-865 106.803,-855.778 106.678,-846.314 106.976,-836.788"/>
<polygon fill="none" stroke="#404040" points="106.981,-836.687 103.281,-830.498 107.572,-824.702 111.272,-830.892 106.981,-836.687"/>
<text text-anchor="middle" x="118.467" y="-857" font-family="Helvetica,sans-Serif" font-size="10.00"> &#45;last</text>
<text text-anchor="middle" x="118.467" y="-846" font-family="Helvetica,sans-Serif" font-size="10.00">&#45;first</text>
</g>
<!-- Node6&#45;&gt;Node3 -->
<g id="edge8" class="edge"><title>Node6&#45;&gt;Node3</title>
<path fill="none" stroke="#404040" d="M136.467,-547.273C136.467,-531.76 136.467,-516.066 136.467,-500.854"/>
<polygon fill="none" stroke="#404040" points="136.467,-500.771 132.467,-494.771 136.467,-488.771 140.467,-494.771 136.467,-500.771"/>
<text text-anchor="middle" x="163.467" y="-515.5" font-family="Helvetica,sans-Serif" font-size="10.00"> &#45;updatables</text>
</g>
<!-- Node6&#45;&gt;Node5 -->
<g id="edge6" class="edge"><title>Node6&#45;&gt;Node5</title>
<path fill="none" stroke="#404040" d="M134.391,-824.512C134.112,-838.192 133.804,-851.869 133.467,-865 133.231,-874.207 132.96,-883.741 132.669,-893.322"/>
<polygon fill="none" stroke="#404040" points="132.665,-893.467 136.476,-899.589 132.292,-905.462 128.48,-899.34 132.665,-893.467"/>
<text text-anchor="middle" x="161.467" y="-851.5" font-family="Helvetica,sans-Serif" font-size="10.00"> &#45;updatables</text>
</g>
<!-- Node7 -->
<g id="node7" class="node"><title>Node7</title>
<g id="a_node7"><a xlink:href="../../d3/dd0/classRelativeCCSender.html" target="_top" xlink:title=" ">
<polygon fill="white" stroke="black" points="213.967,-327 213.967,-439 348.967,-439 348.967,-327 213.967,-327"/>
<text text-anchor="middle" x="281.467" y="-427" font-family="Helvetica,sans-Serif" font-size="10.00">RelativeCCSender</text>
<polyline fill="none" stroke="black" points="213.967,-420 348.967,-420 "/>
<text text-anchor="start" x="221.967" y="-408" font-family="Helvetica,sans-Serif" font-size="10.00">&#45; mode</text>
<polyline fill="none" stroke="black" points="213.967,-401 348.967,-401 "/>
<text text-anchor="start" x="221.967" y="-389" font-family="Helvetica,sans-Serif" font-size="10.00">+ toTwosComplement7bit()</text>
<text text-anchor="start" x="221.967" y="-378" font-family="Helvetica,sans-Serif" font-size="10.00">+ toBinaryOffset7bit()</text>
<text text-anchor="start" x="221.967" y="-367" font-family="Helvetica,sans-Serif" font-size="10.00">+ toSignedMagnitude7bit()</text>
<text text-anchor="start" x="221.967" y="-356" font-family="Helvetica,sans-Serif" font-size="10.00">+ mapRelativeCC()</text>
<text text-anchor="start" x="221.967" y="-345" font-family="Helvetica,sans-Serif" font-size="10.00">+ send()</text>
<text text-anchor="start" x="221.967" y="-334" font-family="Helvetica,sans-Serif" font-size="10.00">+ setMode()</text>
</a>
</g>
</g>
<!-- Node7&#45;&gt;Node2 -->
<g id="edge9" class="edge"><title>Node7&#45;&gt;Node2</title>
<path fill="none" stroke="#404040" d="M313.929,-326.912C329.405,-302.047 348.808,-272.766 368.467,-248 370.893,-244.944 373.417,-241.871 376.009,-238.803"/>
<polygon fill="none" stroke="#404040" points="376.095,-238.704 377.004,-231.551 383.956,-229.638 383.048,-236.792 376.095,-238.704"/>
<text text-anchor="middle" x="404.467" y="-251" font-family="Helvetica,sans-Serif" font-size="10.00"> +relativeSender</text>
</g>
<!-- Node8 -->
<g id="node8" class="node"><title>Node8</title>
<g id="a_node8"><a xlink:href="../../d3/df8/classBankable_1_1TwoSingleAddresses.html" target="_top" xlink:title=" ">
<polygon fill="white" stroke="black" points="366.967,-343.5 366.967,-422.5 521.967,-422.5 521.967,-343.5 366.967,-343.5"/>
<text text-anchor="middle" x="444.467" y="-410.5" font-family="Helvetica,sans-Serif" font-size="10.00">Bankable::TwoSingleAddresses</text>
<polyline fill="none" stroke="black" points="366.967,-403.5 521.967,-403.5 "/>
<text text-anchor="middle" x="444.467" y="-391.5" font-family="Helvetica,sans-Serif" font-size="10.00"> </text>
<polyline fill="none" stroke="black" points="366.967,-384.5 521.967,-384.5 "/>
<text text-anchor="start" x="374.967" y="-372.5" font-family="Helvetica,sans-Serif" font-size="10.00">+ TwoSingleAddresses()</text>
<text text-anchor="start" x="374.967" y="-361.5" font-family="Helvetica,sans-Serif" font-size="10.00">+ getBaseAddress()</text>
<text text-anchor="start" x="374.967" y="-350.5" font-family="Helvetica,sans-Serif" font-size="10.00">+ getActiveAddress()</text>
</a>
</g>
</g>
<!-- Node8&#45;&gt;Node2 -->
<g id="edge10" class="edge"><title>Node8&#45;&gt;Node2</title>
<path fill="none" stroke="#404040" d="M444.467,-343.427C444.467,-315.24 444.467,-276.156 444.467,-242.128"/>
<polygon fill="none" stroke="#404040" points="444.467,-241.85 440.467,-235.85 444.467,-229.85 448.467,-235.85 444.467,-241.85"/>
<text text-anchor="middle" x="470.467" y="-251" font-family="Helvetica,sans-Serif" font-size="10.00"> &#45;addresses</text>
</g>
<!-- Node9 -->
<g id="node9" class="node"><title>Node9</title>
<g id="a_node9"><a xlink:href="../../d3/d43/classBankableMIDIOutput.html" target="_top" xlink:title="A base class for all MIDIOutputElements that can be banked.">
<polygon fill="white" stroke="black" points="234.467,-646.5 234.467,-725.5 356.467,-725.5 356.467,-646.5 234.467,-646.5"/>
<text text-anchor="middle" x="295.467" y="-713.5" font-family="Helvetica,sans-Serif" font-size="10.00">BankableMIDIOutput</text>
<polyline fill="none" stroke="black" points="234.467,-706.5 356.467,-706.5 "/>
<text text-anchor="start" x="242.467" y="-694.5" font-family="Helvetica,sans-Serif" font-size="10.00">&#45; type</text>
<polyline fill="none" stroke="black" points="234.467,-687.5 356.467,-687.5 "/>
<text text-anchor="start" x="242.467" y="-675.5" font-family="Helvetica,sans-Serif" font-size="10.00">+ getAddressOffset()</text>
<text text-anchor="start" x="242.467" y="-664.5" font-family="Helvetica,sans-Serif" font-size="10.00"># BankableMIDIOutput()</text>
<text text-anchor="start" x="242.467" y="-653.5" font-family="Helvetica,sans-Serif" font-size="10.00"># BankableMIDIOutput()</text>
</a>
</g>
</g>
<!-- Node9&#45;&gt;Node8 -->
<g id="edge11" class="edge"><title>Node9&#45;&gt;Node8</title>
<path fill="none" stroke="midnightblue" d="M319.186,-637.084C348.625,-577.613 398.25,-477.364 425.367,-422.586"/>
<polygon fill="none" stroke="midnightblue" points="315.941,-635.751 314.641,-646.266 322.214,-638.856 315.941,-635.751"/>
</g>
<!-- Node10 -->
<g id="node10" class="node"><title>Node10</title>
<g id="a_node10"><a xlink:href="../../d4/d6e/classBankableMIDIOutput__Base.html" target="_top" xlink:title=" ">
<polygon fill="white" stroke="black" points="224.467,-955 224.467,-1067 374.467,-1067 374.467,-955 224.467,-955"/>
<text text-anchor="middle" x="299.467" y="-1055" font-family="Helvetica,sans-Serif" font-size="10.00">BankableMIDIOutput_Base</text>
<polyline fill="none" stroke="black" points="224.467,-1048 374.467,-1048 "/>
<text text-anchor="start" x="232.467" y="-1036" font-family="Helvetica,sans-Serif" font-size="10.00">&#45; lockedSetting</text>
<text text-anchor="start" x="232.467" y="-1025" font-family="Helvetica,sans-Serif" font-size="10.00">&#45; UNLOCKED</text>
<polyline fill="none" stroke="black" points="224.467,-1018 374.467,-1018 "/>
<text text-anchor="start" x="232.467" y="-1006" font-family="Helvetica,sans-Serif" font-size="10.00">+ getRawBankSetting()</text>
<text text-anchor="start" x="232.467" y="-995" font-family="Helvetica,sans-Serif" font-size="10.00">+ getSelection()</text>
<text text-anchor="start" x="232.467" y="-984" font-family="Helvetica,sans-Serif" font-size="10.00">+ lock()</text>
<text text-anchor="start" x="232.467" y="-973" font-family="Helvetica,sans-Serif" font-size="10.00">+ unlock()</text>
<text text-anchor="start" x="232.467" y="-962" font-family="Helvetica,sans-Serif" font-size="10.00"># BankableMIDIOutput_Base()</text>
</a>
</g>
</g>
<!-- Node10&#45;&gt;Node9 -->
<g id="edge12" class="edge"><title>Node10&#45;&gt;Node9</title>
<path fill="none" stroke="midnightblue" d="M298.657,-944.594C297.843,-878.889 296.617,-779.835 295.946,-725.702"/>
<polygon fill="none" stroke="midnightblue" points="295.16,-944.885 298.784,-954.841 302.16,-944.799 295.16,-944.885"/>
</g>
<!-- Node11 -->
<g id="node11" class="node"><title>Node11</title>
<g id="a_node11"><a xlink:href="../../d9/d36/classOutputBank.html" target="_top" xlink:title="A class for changing the address of BankableMIDIOutputs.">
<polygon fill="white" stroke="black" points="242.967,-1197.5 242.967,-1298.5 355.967,-1298.5 355.967,-1197.5 242.967,-1197.5"/>
<text text-anchor="middle" x="299.467" y="-1286.5" font-family="Helvetica,sans-Serif" font-size="10.00">OutputBank</text>
<polyline fill="none" stroke="black" points="242.967,-1279.5 355.967,-1279.5 "/>
<text text-anchor="start" x="250.967" y="-1267.5" font-family="Helvetica,sans-Serif" font-size="10.00">&#45; tracksPerBank</text>
<text text-anchor="start" x="250.967" y="-1256.5" font-family="Helvetica,sans-Serif" font-size="10.00">&#45; bankSetting</text>
<polyline fill="none" stroke="black" points="242.967,-1249.5 355.967,-1249.5 "/>
<text text-anchor="start" x="250.967" y="-1237.5" font-family="Helvetica,sans-Serif" font-size="10.00">+ OutputBank()</text>
<text text-anchor="start" x="250.967" y="-1226.5" font-family="Helvetica,sans-Serif" font-size="10.00">+ select()</text>
<text text-anchor="start" x="250.967" y="-1215.5" font-family="Helvetica,sans-Serif" font-size="10.00">+ getSelection()</text>
<text text-anchor="start" x="250.967" y="-1204.5" font-family="Helvetica,sans-Serif" font-size="10.00">+ getTracksPerBank()</text>
</a>
</g>
</g>
<!-- Node11&#45;&gt;Node10 -->
<g id="edge13" class="edge"><title>Node11&#45;&gt;Node10</title>
<path fill="none" stroke="#404040" d="M299.467,-1197.45C299.467,-1163.21 299.467,-1117.24 299.467,-1079.64"/>
<polygon fill="none" stroke="#404040" points="299.467,-1079.24 295.467,-1073.24 299.467,-1067.24 303.467,-1073.24 299.467,-1079.24"/>
<text text-anchor="middle" x="314.467" y="-1165.5" font-family="Helvetica,sans-Serif" font-size="10.00"> #bank</text>
</g>
<!-- Node12 -->
<g id="node12" class="node"><title>Node12</title>
<g id="a_node12"><a xlink:href="../../d7/d6a/structArray.html" target="_top" xlink:title=" ">
<polygon fill="white" stroke="black" points="374.467,-619 374.467,-753 552.467,-753 552.467,-619 374.467,-619"/>
<text text-anchor="middle" x="463.467" y="-741" font-family="Helvetica,sans-Serif" font-size="10.00">Array&lt; MIDICNChannelAddress, 2 &gt;</text>
<polyline fill="none" stroke="black" points="374.467,-734 552.467,-734 "/>
<text text-anchor="start" x="382.467" y="-722" font-family="Helvetica,sans-Serif" font-size="10.00">+ length</text>
<polyline fill="none" stroke="black" points="374.467,-715 552.467,-715 "/>
<text text-anchor="start" x="382.467" y="-703" font-family="Helvetica,sans-Serif" font-size="10.00">+ operator[]()</text>
<text text-anchor="start" x="382.467" y="-692" font-family="Helvetica,sans-Serif" font-size="10.00">+ operator[]()</text>
<text text-anchor="start" x="382.467" y="-681" font-family="Helvetica,sans-Serif" font-size="10.00">+ begin()</text>
<text text-anchor="start" x="382.467" y="-670" font-family="Helvetica,sans-Serif" font-size="10.00">+ begin()</text>
<text text-anchor="start" x="382.467" y="-659" font-family="Helvetica,sans-Serif" font-size="10.00">+ end()</text>
<text text-anchor="start" x="382.467" y="-648" font-family="Helvetica,sans-Serif" font-size="10.00">+ end()</text>
<text text-anchor="start" x="382.467" y="-637" font-family="Helvetica,sans-Serif" font-size="10.00">+ operator==()</text>
<text text-anchor="start" x="382.467" y="-626" font-family="Helvetica,sans-Serif" font-size="10.00">+ operator!=()</text>
</a>
</g>
</g>
<!-- Node12&#45;&gt;Node8 -->
<g id="edge14" class="edge"><title>Node12&#45;&gt;Node8</title>
<path fill="none" stroke="#404040" d="M459.298,-618.944C455.803,-563.586 450.886,-485.689 447.688,-435.027"/>
<polygon fill="none" stroke="#404040" points="447.67,-434.74 443.3,-429.004 446.914,-422.764 451.284,-428.5 447.67,-434.74"/>
<text text-anchor="middle" x="479.467" y="-515.5" font-family="Helvetica,sans-Serif" font-size="10.00"> &#45;addresses</text>
</g>
<!-- Node13 -->
<g id="node13" class="node"><title>Node13</title>
<g id="a_node13"><a xlink:href="../../d3/d10/classMIDICNChannelAddress.html" target="_top" xlink:title="A type&#45;safe utility class for saving a MIDI address consisting of a 7&#45;bit address,...">
<polygon fill="white" stroke="black" points="393.467,-883.5 393.467,-1138.5 533.467,-1138.5 533.467,-883.5 393.467,-883.5"/>
<text text-anchor="middle" x="463.467" y="-1126.5" font-family="Helvetica,sans-Serif" font-size="10.00">MIDICNChannelAddress</text>
<polyline fill="none" stroke="black" points="393.467,-1119.5 533.467,-1119.5 "/>
<text text-anchor="start" x="401.467" y="-1107.5" font-family="Helvetica,sans-Serif" font-size="10.00">&#45; addresses</text>
<polyline fill="none" stroke="black" points="393.467,-1100.5 533.467,-1100.5 "/>
<text text-anchor="start" x="401.467" y="-1088.5" font-family="Helvetica,sans-Serif" font-size="10.00">+ MIDICNChannelAddress()</text>
<text text-anchor="start" x="401.467" y="-1077.5" font-family="Helvetica,sans-Serif" font-size="10.00">+ MIDICNChannelAddress()</text>
<text text-anchor="start" x="401.467" y="-1066.5" font-family="Helvetica,sans-Serif" font-size="10.00">+ MIDICNChannelAddress()</text>
<text text-anchor="start" x="401.467" y="-1055.5" font-family="Helvetica,sans-Serif" font-size="10.00">+ MIDICNChannelAddress()</text>
<text text-anchor="start" x="401.467" y="-1044.5" font-family="Helvetica,sans-Serif" font-size="10.00">+ MIDICNChannelAddress()</text>
<text text-anchor="start" x="401.467" y="-1033.5" font-family="Helvetica,sans-Serif" font-size="10.00">+ operator+=()</text>
<text text-anchor="start" x="401.467" y="-1022.5" font-family="Helvetica,sans-Serif" font-size="10.00">+ operator&#45;=()</text>
<text text-anchor="start" x="401.467" y="-1011.5" font-family="Helvetica,sans-Serif" font-size="10.00">+ operator+()</text>
<text text-anchor="start" x="401.467" y="-1000.5" font-family="Helvetica,sans-Serif" font-size="10.00">+ operator&#45;()</text>
<text text-anchor="start" x="401.467" y="-989.5" font-family="Helvetica,sans-Serif" font-size="10.00">+ operator==()</text>
<text text-anchor="start" x="401.467" y="-978.5" font-family="Helvetica,sans-Serif" font-size="10.00">+ operator!=()</text>
<text text-anchor="start" x="401.467" y="-967.5" font-family="Helvetica,sans-Serif" font-size="10.00">+ getAddress()</text>
<text text-anchor="start" x="401.467" y="-956.5" font-family="Helvetica,sans-Serif" font-size="10.00">+ getChannel()</text>
<text text-anchor="start" x="401.467" y="-945.5" font-family="Helvetica,sans-Serif" font-size="10.00">+ getRawChannel()</text>
<text text-anchor="start" x="401.467" y="-934.5" font-family="Helvetica,sans-Serif" font-size="10.00">+ getCableNumber()</text>
<text text-anchor="start" x="401.467" y="-923.5" font-family="Helvetica,sans-Serif" font-size="10.00">+ isValid()</text>
<text text-anchor="start" x="401.467" y="-912.5" font-family="Helvetica,sans-Serif" font-size="10.00">+ operator bool()</text>
<text text-anchor="start" x="401.467" y="-901.5" font-family="Helvetica,sans-Serif" font-size="10.00">+ matchSingle()</text>
<text text-anchor="start" x="401.467" y="-890.5" font-family="Helvetica,sans-Serif" font-size="10.00">+ matchAddressInRange()</text>
</a>
</g>
</g>
<!-- Node13&#45;&gt;Node12 -->
<g id="edge15" class="edge"><title>Node13&#45;&gt;Node12</title>
<path fill="none" stroke="#404040" d="M463.467,-883.269C463.467,-843.586 463.467,-800.963 463.467,-765.611"/>
<polygon fill="none" stroke="#404040" points="463.467,-765.426 459.467,-759.426 463.467,-753.426 467.467,-759.426 463.467,-765.426"/>
<text text-anchor="middle" x="477.467" y="-851.5" font-family="Helvetica,sans-Serif" font-size="10.00"> +data</text>
</g>
<!-- Node14 -->
<g id="node14" class="node"><title>Node14</title>
<g id="a_node14"><a xlink:href="../../d5/d20/classIncrementDecrementButtons.html" target="_top" xlink:title="A class for buttons that increment and decrement some counter or setting.">
<polygon fill="white" stroke="black" points="539.967,-338 539.967,-428 696.967,-428 696.967,-338 539.967,-338"/>
<text text-anchor="middle" x="618.467" y="-416" font-family="Helvetica,sans-Serif" font-size="10.00">IncrementDecrementButtons</text>
<polyline fill="none" stroke="black" points="539.967,-409 696.967,-409 "/>
<text text-anchor="start" x="547.967" y="-397" font-family="Helvetica,sans-Serif" font-size="10.00">&#45; longPressState</text>
<text text-anchor="start" x="547.967" y="-386" font-family="Helvetica,sans-Serif" font-size="10.00">&#45; longPressRepeat</text>
<polyline fill="none" stroke="black" points="539.967,-379 696.967,-379 "/>
<text text-anchor="start" x="547.967" y="-367" font-family="Helvetica,sans-Serif" font-size="10.00">+ IncrementDecrementButtons()</text>
<text text-anchor="start" x="547.967" y="-356" font-family="Helvetica,sans-Serif" font-size="10.00">+ begin()</text>
<text text-anchor="start" x="547.967" y="-345" font-family="Helvetica,sans-Serif" font-size="10.00">+ getState()</text>
</a>
</g>
</g>
<!-- Node14&#45;&gt;Node2 -->
<g id="edge16" class="edge"><title>Node14&#45;&gt;Node2</title>
<path fill="none" stroke="#404040" d="M582.414,-337.866C559.13,-309.363 528.329,-271.659 501.739,-239.109"/>
<polygon fill="none" stroke="#404040" points="501.591,-238.928 494.697,-236.812 493.999,-229.634 500.893,-231.75 501.591,-238.928"/>
<text text-anchor="middle" x="535.967" y="-251" font-family="Helvetica,sans-Serif" font-size="10.00"> &#45;buttons</text>
</g>
<!-- Node15 -->
<g id="node15" class="node"><title>Node15</title>
<g id="a_node15"><a xlink:href="../../d1/d19/classButton.html" target="_top" xlink:title="A class for reading and debouncing buttons and switches.">
<polygon fill="white" stroke="black" points="570.467,-597 570.467,-775 666.467,-775 666.467,-597 570.467,-597"/>
<text text-anchor="middle" x="618.467" y="-763" font-family="Helvetica,sans-Serif" font-size="10.00">Button</text>
<polyline fill="none" stroke="black" points="570.467,-756 666.467,-756 "/>
<text text-anchor="start" x="578.467" y="-744" font-family="Helvetica,sans-Serif" font-size="10.00">&#45; pin</text>
<text text-anchor="start" x="578.467" y="-733" font-family="Helvetica,sans-Serif" font-size="10.00">&#45; prevState</text>
<text text-anchor="start" x="578.467" y="-722" font-family="Helvetica,sans-Serif" font-size="10.00">&#45; debouncedState</text>
<text text-anchor="start" x="578.467" y="-711" font-family="Helvetica,sans-Serif" font-size="10.00">&#45; prevBounceTime</text>
<text text-anchor="start" x="578.467" y="-700" font-family="Helvetica,sans-Serif" font-size="10.00">&#45; invertState</text>
<text text-anchor="start" x="578.467" y="-689" font-family="Helvetica,sans-Serif" font-size="10.00">&#45; debounceTime</text>
<polyline fill="none" stroke="black" points="570.467,-682 666.467,-682 "/>
<text text-anchor="start" x="578.467" y="-670" font-family="Helvetica,sans-Serif" font-size="10.00">+ Button()</text>
<text text-anchor="start" x="578.467" y="-659" font-family="Helvetica,sans-Serif" font-size="10.00">+ Button()</text>
<text text-anchor="start" x="578.467" y="-648" font-family="Helvetica,sans-Serif" font-size="10.00">+ begin()</text>
<text text-anchor="start" x="578.467" y="-637" font-family="Helvetica,sans-Serif" font-size="10.00">+ invert()</text>
<text text-anchor="start" x="578.467" y="-626" font-family="Helvetica,sans-Serif" font-size="10.00">+ getState()</text>
<text text-anchor="start" x="578.467" y="-615" font-family="Helvetica,sans-Serif" font-size="10.00">+ stableTime()</text>
<text text-anchor="start" x="578.467" y="-604" font-family="Helvetica,sans-Serif" font-size="10.00">+ getName()</text>
</a>
</g>
</g>
<!-- Node15&#45;&gt;Node14 -->
<g id="edge17" class="edge"><title>Node15&#45;&gt;Node14</title>
<path fill="none" stroke="#404040" d="M618.467,-596.724C618.467,-546.251 618.467,-484.445 618.467,-440.487"/>
<polygon fill="none" stroke="#404040" points="618.467,-440.303 614.467,-434.303 618.467,-428.303 622.467,-434.303 618.467,-440.303"/>
<text text-anchor="middle" x="658.967" y="-521" font-family="Helvetica,sans-Serif" font-size="10.00"> &#45;decrementButton</text>
<text text-anchor="middle" x="658.967" y="-510" font-family="Helvetica,sans-Serif" font-size="10.00">&#45;incrementButton</text>
</g>
<!-- Node16 -->
<g id="node16" class="node"><title>Node16</title>
<g id="a_node16"><a xlink:href="../../dc/dd4/classDigitalNoteSender.html" target="_top" xlink:title=" ">
<polygon fill="white" stroke="black" points="714.967,-332.5 714.967,-433.5 825.967,-433.5 825.967,-332.5 714.967,-332.5"/>
<text text-anchor="middle" x="770.467" y="-421.5" font-family="Helvetica,sans-Serif" font-size="10.00">DigitalNoteSender</text>
<polyline fill="none" stroke="black" points="714.967,-414.5 825.967,-414.5 "/>
<text text-anchor="start" x="722.967" y="-402.5" font-family="Helvetica,sans-Serif" font-size="10.00">&#45; velocity</text>
<polyline fill="none" stroke="black" points="714.967,-395.5 825.967,-395.5 "/>
<text text-anchor="start" x="722.967" y="-383.5" font-family="Helvetica,sans-Serif" font-size="10.00">+ DigitalNoteSender()</text>
<text text-anchor="start" x="722.967" y="-372.5" font-family="Helvetica,sans-Serif" font-size="10.00">+ sendOn()</text>
<text text-anchor="start" x="722.967" y="-361.5" font-family="Helvetica,sans-Serif" font-size="10.00">+ sendOff()</text>
<text text-anchor="start" x="722.967" y="-350.5" font-family="Helvetica,sans-Serif" font-size="10.00">+ setVelocity()</text>
<text text-anchor="start" x="722.967" y="-339.5" font-family="Helvetica,sans-Serif" font-size="10.00">+ getVelocity()</text>
</a>
</g>
</g>
<!-- Node16&#45;&gt;Node2 -->
<g id="edge18" class="edge"><title>Node16&#45;&gt;Node2</title>
<path fill="none" stroke="#404040" d="M748.103,-332.33C737.436,-313.025 723.111,-291.995 705.467,-277 662.047,-240.099 604.271,-214.446 554.117,-197.433"/>
<polygon fill="none" stroke="#404040" points="553.941,-197.375 546.99,-199.292 542.546,-193.613 549.497,-191.695 553.941,-197.375"/>
<text text-anchor="middle" x="712.467" y="-251" font-family="Helvetica,sans-Serif" font-size="10.00"> +resetSender</text>
</g>
</g>
</svg>
