<?xml version="1.0" encoding="UTF-8" standalone="no"?>
<!DOCTYPE svg PUBLIC "-//W3C//DTD SVG 1.1//EN"
 "http://www.w3.org/Graphics/SVG/1.1/DTD/svg11.dtd">
<!-- Generated by graphviz version 2.38.0 (20140413.2041)
 -->
<!-- Title: IncrementDecrementSelector.hpp Pages: 1 -->
<svg width="664pt" height="554pt"
 viewBox="0.00 0.00 663.95 554.00" xmlns="http://www.w3.org/2000/svg" xmlns:xlink="http://www.w3.org/1999/xlink">
<g id="graph0" class="graph" transform="scale(1 1) rotate(0) translate(4 550)">
<title>IncrementDecrementSelector.hpp</title>
<polygon fill="white" stroke="none" points="-4,4 -4,-550 659.946,-550 659.946,4 -4,4"/>
<!-- Node0 -->
<g id="node1" class="node"><title>Node0</title>
<g id="a_node1"><a xlink:title=" ">
<polygon fill="#bfbfbf" stroke="black" points="313.277,-526.5 313.277,-545.5 476.277,-545.5 476.277,-526.5 313.277,-526.5"/>
<text text-anchor="middle" x="394.777" y="-533.5" font-family="Helvetica,sans-Serif" font-size="10.00">IncrementDecrementSelector.hpp</text>
</a>
</g>
</g>
<!-- Node1 -->
<g id="node2" class="node"><title>Node1</title>
<g id="a_node2"><a xlink:href="../../d6/d16/Selector_8hpp.html" target="_top" xlink:title=" ">
<polygon fill="white" stroke="black" points="259.277,-342 259.277,-361 330.277,-361 330.277,-342 259.277,-342"/>
<text text-anchor="middle" x="294.777" y="-349" font-family="Helvetica,sans-Serif" font-size="10.00">Selector.hpp</text>
</a>
</g>
</g>
<!-- Node0&#45;&gt;Node1 -->
<g id="edge1" class="edge"><title>Node0&#45;&gt;Node1</title>
<path fill="none" stroke="midnightblue" d="M389.953,-526.198C374.41,-497.831 325.429,-408.44 304.458,-370.169"/>
<polygon fill="midnightblue" stroke="midnightblue" points="307.426,-368.302 299.551,-361.214 301.287,-371.666 307.426,-368.302"/>
</g>
<!-- Node18 -->
<g id="node19" class="node"><title>Node18</title>
<g id="a_node19"><a xlink:href="../../df/df5/IncrementDecrementButtons_8hpp.html" target="_top" xlink:title=" ">
<polygon fill="white" stroke="black" points="380.277,-459.5 380.277,-489.5 533.277,-489.5 533.277,-459.5 380.277,-459.5"/>
<text text-anchor="start" x="388.277" y="-477.5" font-family="Helvetica,sans-Serif" font-size="10.00">Hardware/IncrementDecrement</text>
<text text-anchor="middle" x="456.777" y="-466.5" font-family="Helvetica,sans-Serif" font-size="10.00">Buttons.hpp</text>
</a>
</g>
</g>
<!-- Node0&#45;&gt;Node18 -->
<g id="edge31" class="edge"><title>Node0&#45;&gt;Node18</title>
<path fill="none" stroke="midnightblue" d="M403.66,-526.475C411.743,-518.718 424.012,-506.943 434.723,-496.665"/>
<polygon fill="midnightblue" stroke="midnightblue" points="437.373,-498.972 442.164,-489.523 432.526,-493.922 437.373,-498.972"/>
</g>
<!-- Node2 -->
<g id="node3" class="node"><title>Node2</title>
<g id="a_node3"><a xlink:href="../../d9/d46/Selectable_8hpp.html" target="_top" xlink:title=" ">
<polygon fill="white" stroke="black" points="195.277,-280.5 195.277,-299.5 276.277,-299.5 276.277,-280.5 195.277,-280.5"/>
<text text-anchor="middle" x="235.777" y="-287.5" font-family="Helvetica,sans-Serif" font-size="10.00">Selectable.hpp</text>
</a>
</g>
</g>
<!-- Node1&#45;&gt;Node2 -->
<g id="edge2" class="edge"><title>Node1&#45;&gt;Node2</title>
<path fill="none" stroke="midnightblue" d="M286.323,-341.975C277.21,-332.785 262.506,-317.956 251.301,-306.656"/>
<polygon fill="midnightblue" stroke="midnightblue" points="253.741,-304.146 244.214,-299.509 248.77,-309.074 253.741,-304.146"/>
</g>
<!-- Node3 -->
<g id="node4" class="node"><title>Node3</title>
<g id="a_node4"><a xlink:href="../../d0/d4e/Def_8hpp.html" target="_top" xlink:title=" ">
<polygon fill="white" stroke="black" points="152.777,-224.5 152.777,-243.5 222.777,-243.5 222.777,-224.5 152.777,-224.5"/>
<text text-anchor="middle" x="187.777" y="-231.5" font-family="Helvetica,sans-Serif" font-size="10.00">Def/Def.hpp</text>
</a>
</g>
</g>
<!-- Node1&#45;&gt;Node3 -->
<g id="edge30" class="edge"><title>Node1&#45;&gt;Node3</title>
<path fill="none" stroke="midnightblue" d="M258.889,-348.076C199.804,-343.255 86.1361,-330.205 61.7765,-300 56.1964,-293.081 56.6561,-287.266 61.7765,-280 71.5078,-266.191 110.857,-253.547 143.026,-245.202"/>
<polygon fill="midnightblue" stroke="midnightblue" points="143.897,-248.592 152.738,-242.753 142.186,-241.804 143.897,-248.592"/>
</g>
<!-- Node8 -->
<g id="node9" class="node"><title>Node8</title>
<g id="a_node9"><a xlink:href="../../df/dee/Debug_8hpp.html" target="_top" xlink:title=" ">
<polygon fill="white" stroke="black" points="428.777,-168.5 428.777,-187.5 492.777,-187.5 492.777,-168.5 428.777,-168.5"/>
<text text-anchor="middle" x="460.777" y="-175.5" font-family="Helvetica,sans-Serif" font-size="10.00">Debug.hpp</text>
</a>
</g>
</g>
<!-- Node1&#45;&gt;Node8 -->
<g id="edge20" class="edge"><title>Node1&#45;&gt;Node8</title>
<path fill="none" stroke="midnightblue" d="M330.332,-344.502C358.188,-338.041 396.074,-325.1 419.777,-300 446.971,-271.203 456.176,-223.704 459.256,-197.607"/>
<polygon fill="midnightblue" stroke="midnightblue" points="462.749,-197.856 460.26,-187.557 455.784,-197.16 462.749,-197.856"/>
</g>
<!-- Node15 -->
<g id="node16" class="node"><title>Node15</title>
<g id="a_node16"><a xlink:href="../../db/d44/LinkedList_8h.html" target="_top" xlink:title=" ">
<polygon fill="white" stroke="black" points="70.7765,-280.5 70.7765,-299.5 176.777,-299.5 176.777,-280.5 70.7765,-280.5"/>
<text text-anchor="middle" x="123.777" y="-287.5" font-family="Helvetica,sans-Serif" font-size="10.00">Helpers/LinkedList.h</text>
</a>
</g>
</g>
<!-- Node1&#45;&gt;Node15 -->
<g id="edge21" class="edge"><title>Node1&#45;&gt;Node15</title>
<path fill="none" stroke="midnightblue" d="M270.276,-341.975C240.817,-331.725 191.197,-314.459 157.975,-302.899"/>
<polygon fill="midnightblue" stroke="midnightblue" points="158.826,-299.49 148.231,-299.509 156.526,-306.101 158.826,-299.49"/>
</g>
<!-- Node16 -->
<g id="node17" class="node"><title>Node16</title>
<g id="a_node17"><a xlink:href="../../d4/d93/Updatable_8hpp.html" target="_top" xlink:title=" ">
<polygon fill="white" stroke="black" points="294.777,-280.5 294.777,-299.5 410.777,-299.5 410.777,-280.5 294.777,-280.5"/>
<text text-anchor="middle" x="352.777" y="-287.5" font-family="Helvetica,sans-Serif" font-size="10.00">Helpers/Updatable.hpp</text>
</a>
</g>
</g>
<!-- Node1&#45;&gt;Node16 -->
<g id="edge22" class="edge"><title>Node1&#45;&gt;Node16</title>
<path fill="none" stroke="midnightblue" d="M303.087,-341.975C311.959,-332.873 326.222,-318.241 337.196,-306.983"/>
<polygon fill="midnightblue" stroke="midnightblue" points="340.008,-309.113 344.482,-299.509 334.995,-304.227 340.008,-309.113"/>
</g>
<!-- Node2&#45;&gt;Node3 -->
<g id="edge3" class="edge"><title>Node2&#45;&gt;Node3</title>
<path fill="none" stroke="midnightblue" d="M227.85,-280.083C220.93,-272.298 210.711,-260.801 202.325,-251.367"/>
<polygon fill="midnightblue" stroke="midnightblue" points="204.815,-248.9 195.555,-243.751 199.583,-253.55 204.815,-248.9"/>
</g>
<!-- Node6 -->
<g id="node7" class="node"><title>Node6</title>
<g id="a_node7"><a xlink:title=" ">
<polygon fill="white" stroke="#bfbfbf" points="56.2765,-0.5 56.2765,-19.5 105.277,-19.5 105.277,-0.5 56.2765,-0.5"/>
<text text-anchor="middle" x="80.7765" y="-7.5" font-family="Helvetica,sans-Serif" font-size="10.00">stdint.h</text>
</a>
</g>
</g>
<!-- Node2&#45;&gt;Node6 -->
<g id="edge18" class="edge"><title>Node2&#45;&gt;Node6</title>
<path fill="none" stroke="midnightblue" d="M195.17,-281.651C134.412,-270.498 26.2298,-249.963 19.7765,-244 -2.32955,-223.575 0.776518,-209.098 0.776518,-179 0.776518,-179 0.776518,-179 0.776518,-121 0.776518,-80.6206 36.4711,-45.1055 60.1745,-25.9729"/>
<polygon fill="midnightblue" stroke="midnightblue" points="62.5213,-28.582 68.2765,-19.6866 58.2302,-23.0515 62.5213,-28.582"/>
</g>
<!-- Node7 -->
<g id="node8" class="node"><title>Node7</title>
<g id="a_node8"><a xlink:href="../../d1/d93/Error_8hpp.html" target="_top" xlink:title=" ">
<polygon fill="white" stroke="black" points="241.277,-224.5 241.277,-243.5 334.277,-243.5 334.277,-224.5 241.277,-224.5"/>
<text text-anchor="middle" x="287.777" y="-231.5" font-family="Helvetica,sans-Serif" font-size="10.00">Helpers/Error.hpp</text>
</a>
</g>
</g>
<!-- Node2&#45;&gt;Node7 -->
<g id="edge8" class="edge"><title>Node2&#45;&gt;Node7</title>
<path fill="none" stroke="midnightblue" d="M244.363,-280.083C251.935,-272.22 263.155,-260.569 272.291,-251.081"/>
<polygon fill="midnightblue" stroke="midnightblue" points="274.934,-253.382 279.35,-243.751 269.892,-248.527 274.934,-253.382"/>
</g>
<!-- Node14 -->
<g id="node15" class="node"><title>Node14</title>
<g id="a_node15"><a xlink:href="../../d7/dd7/Helpers_8hpp.html" target="_top" xlink:title=" ">
<polygon fill="white" stroke="black" points="28.7765,-224.5 28.7765,-243.5 134.777,-243.5 134.777,-224.5 28.7765,-224.5"/>
<text text-anchor="middle" x="81.7765" y="-231.5" font-family="Helvetica,sans-Serif" font-size="10.00">Helpers/Helpers.hpp</text>
</a>
</g>
</g>
<!-- Node2&#45;&gt;Node14 -->
<g id="edge19" class="edge"><title>Node2&#45;&gt;Node14</title>
<path fill="none" stroke="midnightblue" d="M211.375,-280.444C185.58,-271.399 144.7,-257.064 115.759,-246.916"/>
<polygon fill="midnightblue" stroke="midnightblue" points="116.659,-243.523 106.064,-243.516 114.343,-250.128 116.659,-243.523"/>
</g>
<!-- Node4 -->
<g id="node5" class="node"><title>Node4</title>
<g id="a_node5"><a xlink:href="../../de/d76/Array_8hpp.html" target="_top" xlink:title=" ">
<polygon fill="white" stroke="black" points="227.277,-168.5 227.277,-187.5 322.277,-187.5 322.277,-168.5 227.277,-168.5"/>
<text text-anchor="middle" x="274.777" y="-175.5" font-family="Helvetica,sans-Serif" font-size="10.00">Helpers/Array.hpp</text>
</a>
</g>
</g>
<!-- Node3&#45;&gt;Node4 -->
<g id="edge4" class="edge"><title>Node3&#45;&gt;Node4</title>
<path fill="none" stroke="midnightblue" d="M201.755,-224.324C215.326,-215.9 236.157,-202.971 252.102,-193.074"/>
<polygon fill="midnightblue" stroke="midnightblue" points="254.183,-195.902 260.833,-187.655 250.491,-189.954 254.183,-195.902"/>
</g>
<!-- Node5 -->
<g id="node6" class="node"><title>Node5</title>
<g id="a_node6"><a xlink:title=" ">
<polygon fill="white" stroke="#bfbfbf" points="200.777,-0.5 200.777,-19.5 252.777,-19.5 252.777,-0.5 200.777,-0.5"/>
<text text-anchor="middle" x="226.777" y="-7.5" font-family="Helvetica,sans-Serif" font-size="10.00">stddef.h</text>
</a>
</g>
</g>
<!-- Node3&#45;&gt;Node5 -->
<g id="edge6" class="edge"><title>Node3&#45;&gt;Node5</title>
<path fill="none" stroke="midnightblue" d="M189.305,-224.297C195.044,-191.633 215.381,-75.8661 223.446,-29.9573"/>
<polygon fill="midnightblue" stroke="midnightblue" points="226.933,-30.3385 225.216,-19.8837 220.038,-29.1273 226.933,-30.3385"/>
</g>
<!-- Node3&#45;&gt;Node6 -->
<g id="edge7" class="edge"><title>Node3&#45;&gt;Node6</title>
<path fill="none" stroke="midnightblue" d="M181.87,-224.164C166.495,-200.843 124.702,-135.346 99.7765,-76 93.3743,-60.7567 88.2725,-42.6465 84.9744,-29.4188"/>
<polygon fill="midnightblue" stroke="midnightblue" points="88.3634,-28.5413 82.6392,-19.6259 81.5543,-30.1651 88.3634,-28.5413"/>
</g>
<!-- Node4&#45;&gt;Node5 -->
<g id="edge5" class="edge"><title>Node4&#45;&gt;Node5</title>
<path fill="none" stroke="midnightblue" d="M272.196,-168.075C264.64,-141.945 242.452,-65.2106 232.148,-29.577"/>
<polygon fill="midnightblue" stroke="midnightblue" points="235.394,-28.2023 229.254,-19.5681 228.67,-30.1468 235.394,-28.2023"/>
</g>
<!-- Node7&#45;&gt;Node8 -->
<g id="edge9" class="edge"><title>Node7&#45;&gt;Node8</title>
<path fill="none" stroke="midnightblue" d="M315.189,-224.444C344.546,-215.28 391.296,-200.688 423.872,-190.519"/>
<polygon fill="midnightblue" stroke="midnightblue" points="424.99,-193.837 433.492,-187.516 422.904,-187.155 424.99,-193.837"/>
</g>
<!-- Node9 -->
<g id="node10" class="node"><title>Node9</title>
<g id="a_node10"><a xlink:href="../../d4/d6b/SettingsWrapper_8h.html" target="_top" xlink:title=" ">
<polygon fill="white" stroke="black" points="346.277,-112.5 346.277,-131.5 483.277,-131.5 483.277,-112.5 346.277,-112.5"/>
<text text-anchor="middle" x="414.777" y="-119.5" font-family="Helvetica,sans-Serif" font-size="10.00">Settings/SettingsWrapper.h</text>
</a>
</g>
</g>
<!-- Node8&#45;&gt;Node9 -->
<g id="edge10" class="edge"><title>Node8&#45;&gt;Node9</title>
<path fill="none" stroke="midnightblue" d="M448.271,-168.324C440.161,-160.733 430.173,-149.482 423.006,-140.09"/>
<polygon fill="midnightblue" stroke="midnightblue" points="425.792,-137.968 417.153,-131.834 420.081,-142.016 425.792,-137.968"/>
</g>
<!-- Node11 -->
<g id="node12" class="node"><title>Node11</title>
<g id="a_node12"><a xlink:title=" ">
<polygon fill="white" stroke="#bfbfbf" points="596.777,-112.5 596.777,-131.5 644.777,-131.5 644.777,-112.5 596.777,-112.5"/>
<text text-anchor="middle" x="620.777" y="-119.5" font-family="Helvetica,sans-Serif" font-size="10.00">stdlib.h</text>
</a>
</g>
</g>
<!-- Node8&#45;&gt;Node11 -->
<g id="edge15" class="edge"><title>Node8&#45;&gt;Node11</title>
<path fill="none" stroke="midnightblue" d="M486.129,-168.444C513.363,-159.252 556.78,-144.599 586.92,-134.426"/>
<polygon fill="midnightblue" stroke="midnightblue" points="588.234,-137.677 596.59,-131.163 585.996,-131.045 588.234,-137.677"/>
</g>
<!-- Node12 -->
<g id="node13" class="node"><title>Node12</title>
<g id="a_node13"><a xlink:href="../../dc/d48/PrintStream_8h.html" target="_top" xlink:title=" ">
<polygon fill="white" stroke="black" points="501.277,-112.5 501.277,-131.5 578.277,-131.5 578.277,-112.5 501.277,-112.5"/>
<text text-anchor="middle" x="539.777" y="-119.5" font-family="Helvetica,sans-Serif" font-size="10.00">PrintStream.h</text>
</a>
</g>
</g>
<!-- Node8&#45;&gt;Node12 -->
<g id="edge16" class="edge"><title>Node8&#45;&gt;Node12</title>
<path fill="none" stroke="midnightblue" d="M473.469,-168.324C485.678,-159.979 504.355,-147.212 518.779,-137.352"/>
<polygon fill="midnightblue" stroke="midnightblue" points="520.835,-140.187 527.115,-131.655 516.885,-134.408 520.835,-140.187"/>
</g>
<!-- Node9&#45;&gt;Node8 -->
<g id="edge14" class="edge"><title>Node9&#45;&gt;Node8</title>
<path fill="none" stroke="midnightblue" d="M427.362,-131.751C435.442,-139.327 445.365,-150.505 452.505,-159.855"/>
<polygon fill="midnightblue" stroke="midnightblue" points="449.704,-161.955 458.347,-168.083 455.411,-157.903 449.704,-161.955"/>
</g>
<!-- Node10 -->
<g id="node11" class="node"><title>Node10</title>
<g id="a_node11"><a xlink:href="../../dd/dbc/Settings_8h.html" target="_top" xlink:title="All user settings and debugging options can be changed here.">
<polygon fill="white" stroke="black" points="109.277,-56.5 109.277,-75.5 170.277,-75.5 170.277,-56.5 109.277,-56.5"/>
<text text-anchor="middle" x="139.777" y="-63.5" font-family="Helvetica,sans-Serif" font-size="10.00">Settings.h</text>
</a>
</g>
</g>
<!-- Node9&#45;&gt;Node10 -->
<g id="edge11" class="edge"><title>Node9&#45;&gt;Node10</title>
<path fill="none" stroke="midnightblue" d="M371.202,-112.444C318.777,-102.149 231.458,-85.003 180.39,-74.9751"/>
<polygon fill="midnightblue" stroke="midnightblue" points="180.862,-71.5009 170.375,-73.0084 179.513,-78.3697 180.862,-71.5009"/>
</g>
<!-- Node10&#45;&gt;Node5 -->
<g id="edge12" class="edge"><title>Node10&#45;&gt;Node5</title>
<path fill="none" stroke="midnightblue" d="M153.755,-56.324C167.326,-47.9002 188.157,-34.9709 204.102,-25.0741"/>
<polygon fill="midnightblue" stroke="midnightblue" points="206.183,-27.9019 212.833,-19.6545 202.491,-21.9544 206.183,-27.9019"/>
</g>
<!-- Node10&#45;&gt;Node6 -->
<g id="edge13" class="edge"><title>Node10&#45;&gt;Node6</title>
<path fill="none" stroke="midnightblue" d="M130.297,-56.324C121.575,-48.3414 108.433,-36.3128 97.8787,-26.6529"/>
<polygon fill="midnightblue" stroke="midnightblue" points="100.168,-24.0036 90.4284,-19.8339 95.4421,-29.1674 100.168,-24.0036"/>
</g>
<!-- Node13 -->
<g id="node14" class="node"><title>Node13</title>
<g id="a_node14"><a xlink:title=" ">
<polygon fill="white" stroke="#bfbfbf" points="576.777,-56.5 576.777,-75.5 634.777,-75.5 634.777,-56.5 576.777,-56.5"/>
<text text-anchor="middle" x="605.777" y="-63.5" font-family="Helvetica,sans-Serif" font-size="10.00">Arduino.h</text>
</a>
</g>
</g>
<!-- Node12&#45;&gt;Node13 -->
<g id="edge17" class="edge"><title>Node12&#45;&gt;Node13</title>
<path fill="none" stroke="midnightblue" d="M550.381,-112.324C560.233,-104.263 575.127,-92.0765 586.992,-82.3695"/>
<polygon fill="midnightblue" stroke="midnightblue" points="589.456,-84.8752 594.98,-75.8339 585.024,-79.4575 589.456,-84.8752"/>
</g>
<!-- Node16&#45;&gt;Node3 -->
<g id="edge29" class="edge"><title>Node16&#45;&gt;Node3</title>
<path fill="none" stroke="midnightblue" d="M326.632,-280.444C298.753,-271.32 254.428,-256.813 223.377,-246.651"/>
<polygon fill="midnightblue" stroke="midnightblue" points="224.392,-243.3 213.799,-243.516 222.214,-249.953 224.392,-243.3"/>
</g>
<!-- Node16&#45;&gt;Node5 -->
<g id="edge28" class="edge"><title>Node16&#45;&gt;Node5</title>
<path fill="none" stroke="midnightblue" d="M351.581,-280.141C349.851,-267.605 346.452,-243.988 342.777,-224 338.173,-198.966 340.63,-191.469 330.777,-168 307.682,-112.99 289.768,-105.71 256.777,-56 250.665,-46.7918 243.832,-36.5382 238.232,-28.1472"/>
<polygon fill="midnightblue" stroke="midnightblue" points="241.002,-25.9928 232.538,-19.6198 235.18,-29.8799 241.002,-25.9928"/>
</g>
<!-- Node16&#45;&gt;Node7 -->
<g id="edge23" class="edge"><title>Node16&#45;&gt;Node7</title>
<path fill="none" stroke="midnightblue" d="M342.333,-280.324C332.63,-272.263 317.961,-260.077 306.277,-250.369"/>
<polygon fill="midnightblue" stroke="midnightblue" points="308.338,-247.532 298.41,-243.834 303.865,-252.916 308.338,-247.532"/>
</g>
<!-- Node16&#45;&gt;Node9 -->
<g id="edge27" class="edge"><title>Node16&#45;&gt;Node9</title>
<path fill="none" stroke="midnightblue" d="M358.059,-280.273C363.292,-271.376 371.297,-257.064 376.777,-244 391.554,-208.767 403.757,-165.706 410.086,-141.616"/>
<polygon fill="midnightblue" stroke="midnightblue" points="413.534,-142.261 412.638,-131.704 406.755,-140.515 413.534,-142.261"/>
</g>
<!-- Node17 -->
<g id="node18" class="node"><title>Node17</title>
<g id="a_node18"><a xlink:href="../../de/dd1/LinkedList_8hpp.html" target="_top" xlink:title=" ">
<polygon fill="white" stroke="black" points="466.777,-224.5 466.777,-243.5 582.777,-243.5 582.777,-224.5 466.777,-224.5"/>
<text text-anchor="middle" x="524.777" y="-231.5" font-family="Helvetica,sans-Serif" font-size="10.00">Helpers/LinkedList.hpp</text>
</a>
</g>
</g>
<!-- Node16&#45;&gt;Node17 -->
<g id="edge24" class="edge"><title>Node16&#45;&gt;Node17</title>
<path fill="none" stroke="midnightblue" d="M380.03,-280.444C409.218,-271.28 455.698,-256.688 488.086,-246.519"/>
<polygon fill="midnightblue" stroke="midnightblue" points="489.158,-249.851 497.65,-243.516 487.061,-243.173 489.158,-249.851"/>
</g>
<!-- Node17&#45;&gt;Node8 -->
<g id="edge26" class="edge"><title>Node17&#45;&gt;Node8</title>
<path fill="none" stroke="midnightblue" d="M514.494,-224.324C504.94,-216.263 490.497,-204.077 478.992,-194.369"/>
<polygon fill="midnightblue" stroke="midnightblue" points="481.146,-191.608 471.246,-187.834 476.632,-196.958 481.146,-191.608"/>
</g>
<!-- Node17&#45;&gt;Node11 -->
<g id="edge25" class="edge"><title>Node17&#45;&gt;Node11</title>
<path fill="none" stroke="midnightblue" d="M532.309,-224.368C548.292,-206.055 585.825,-163.049 606.497,-139.362"/>
<polygon fill="midnightblue" stroke="midnightblue" points="609.34,-141.427 613.279,-131.591 604.066,-136.824 609.34,-141.427"/>
</g>
<!-- Node19 -->
<g id="node20" class="node"><title>Node19</title>
<g id="a_node20"><a xlink:href="../../d0/d79/Button_8h.html" target="_top" xlink:title=" ">
<polygon fill="white" stroke="black" points="507.277,-403.5 507.277,-422.5 560.277,-422.5 560.277,-403.5 507.277,-403.5"/>
<text text-anchor="middle" x="533.777" y="-410.5" font-family="Helvetica,sans-Serif" font-size="10.00">Button.h</text>
</a>
</g>
</g>
<!-- Node18&#45;&gt;Node19 -->
<g id="edge32" class="edge"><title>Node18&#45;&gt;Node19</title>
<path fill="none" stroke="midnightblue" d="M475.024,-459.399C486.906,-450.218 502.384,-438.258 514.471,-428.918"/>
<polygon fill="midnightblue" stroke="midnightblue" points="516.8,-431.542 522.572,-422.658 512.519,-426.003 516.8,-431.542"/>
</g>
<!-- Node19&#45;&gt;Node9 -->
<g id="edge38" class="edge"><title>Node19&#45;&gt;Node9</title>
<path fill="none" stroke="midnightblue" d="M560.296,-405.998C580.496,-399.883 606.948,-388.191 619.777,-367 640.919,-332.075 629.838,-276.248 591.777,-224 557.808,-177.372 495.305,-149.167 454.396,-134.834"/>
<polygon fill="midnightblue" stroke="midnightblue" points="455.34,-131.458 444.746,-131.569 453.097,-138.089 455.34,-131.458"/>
</g>
<!-- Node20 -->
<g id="node21" class="node"><title>Node20</title>
<g id="a_node21"><a xlink:href="../../d4/d8e/ExtendedInputOutput_8h.html" target="_top" xlink:title=" ">
<polygon fill="white" stroke="black" points="456.777,-336.5 456.777,-366.5 610.777,-366.5 610.777,-336.5 456.777,-336.5"/>
<text text-anchor="start" x="464.777" y="-354.5" font-family="Helvetica,sans-Serif" font-size="10.00">Hardware/ExtendedInputOutput</text>
<text text-anchor="middle" x="533.777" y="-343.5" font-family="Helvetica,sans-Serif" font-size="10.00">/ExtendedInputOutput.h</text>
</a>
</g>
</g>
<!-- Node19&#45;&gt;Node20 -->
<g id="edge33" class="edge"><title>Node19&#45;&gt;Node20</title>
<path fill="none" stroke="midnightblue" d="M533.777,-403.475C533.777,-396.471 533.777,-386.192 533.777,-376.696"/>
<polygon fill="midnightblue" stroke="midnightblue" points="537.277,-376.523 533.777,-366.523 530.277,-376.523 537.277,-376.523"/>
</g>
<!-- Node20&#45;&gt;Node13 -->
<g id="edge37" class="edge"><title>Node20&#45;&gt;Node13</title>
<path fill="none" stroke="midnightblue" d="M553.592,-336.469C565.429,-327.239 580.012,-314.258 589.777,-300 634.924,-234.077 639.315,-210.582 653.777,-132 655.385,-123.258 657.31,-120.156 653.777,-112 648.508,-99.8399 638.157,-89.4594 628.412,-81.7429"/>
<polygon fill="midnightblue" stroke="midnightblue" points="630.278,-78.7707 620.147,-75.6698 626.133,-84.4116 630.278,-78.7707"/>
</g>
<!-- Node21 -->
<g id="node22" class="node"><title>Node21</title>
<g id="a_node22"><a xlink:href="../../d9/d98/ExtendedIOElement_8h.html" target="_top" xlink:title=" ">
<polygon fill="white" stroke="black" points="468.277,-280.5 468.277,-299.5 581.277,-299.5 581.277,-280.5 468.277,-280.5"/>
<text text-anchor="middle" x="524.777" y="-287.5" font-family="Helvetica,sans-Serif" font-size="10.00">ExtendedIOElement.h</text>
</a>
</g>
</g>
<!-- Node20&#45;&gt;Node21 -->
<g id="edge34" class="edge"><title>Node20&#45;&gt;Node21</title>
<path fill="none" stroke="midnightblue" d="M531.644,-336.399C530.43,-328.377 528.896,-318.233 527.585,-309.569"/>
<polygon fill="midnightblue" stroke="midnightblue" points="531.042,-309.022 526.086,-299.658 524.121,-310.069 531.042,-309.022"/>
</g>
<!-- Node21&#45;&gt;Node3 -->
<g id="edge35" class="edge"><title>Node21&#45;&gt;Node3</title>
<path fill="none" stroke="midnightblue" d="M468.196,-281.155C411.219,-273.065 320.563,-259.675 232.681,-244.09"/>
<polygon fill="midnightblue" stroke="midnightblue" points="233.27,-240.64 222.811,-242.329 232.04,-247.531 233.27,-240.64"/>
</g>
<!-- Node21&#45;&gt;Node17 -->
<g id="edge36" class="edge"><title>Node21&#45;&gt;Node17</title>
<path fill="none" stroke="midnightblue" d="M524.777,-280.083C524.777,-273.006 524.777,-262.861 524.777,-253.986"/>
<polygon fill="midnightblue" stroke="midnightblue" points="528.277,-253.751 524.777,-243.751 521.277,-253.751 528.277,-253.751"/>
</g>
</g>
</svg>
