<?xml version="1.0" encoding="UTF-8" standalone="no"?>
<!DOCTYPE svg PUBLIC "-//W3C//DTD SVG 1.1//EN"
 "http://www.w3.org/Graphics/SVG/1.1/DTD/svg11.dtd">
<!-- Generated by graphviz version 2.38.0 (20140413.2041)
 -->
<!-- Title: DigitalNoteSender.hpp Pages: 1 -->
<svg width="1569pt" height="196pt"
 viewBox="0.00 0.00 1568.50 196.00" xmlns="http://www.w3.org/2000/svg" xmlns:xlink="http://www.w3.org/1999/xlink">
<g id="graph0" class="graph" transform="scale(1 1) rotate(0) translate(4 192)">
<title>DigitalNoteSender.hpp</title>
<polygon fill="white" stroke="none" points="-4,4 -4,-192 1564.5,-192 1564.5,4 -4,4"/>
<!-- Node24 -->
<g id="node1" class="node"><title>Node24</title>
<g id="a_node1"><a xlink:title=" ">
<polygon fill="#bfbfbf" stroke="black" points="725.5,-168.5 725.5,-187.5 840.5,-187.5 840.5,-168.5 725.5,-168.5"/>
<text text-anchor="middle" x="783" y="-175.5" font-family="Helvetica,sans-Serif" font-size="10.00">DigitalNoteSender.hpp</text>
</a>
</g>
</g>
<!-- Node25 -->
<g id="node2" class="node"><title>Node25</title>
<g id="a_node2"><a xlink:href="../../db/d20/Abstract_2MIDIIncrementDecrementButtons_8hpp.html" target="_top" xlink:title=" ">
<polygon fill="white" stroke="black" points="3,-112.5 3,-131.5 185,-131.5 185,-112.5 3,-112.5"/>
<text text-anchor="middle" x="94" y="-119.5" font-family="Helvetica,sans-Serif" font-size="10.00">MIDIIncrementDecrementButtons.hpp</text>
</a>
</g>
</g>
<!-- Node24&#45;&gt;Node25 -->
<g id="edge1" class="edge"><title>Node24&#45;&gt;Node25</title>
<path fill="none" stroke="midnightblue" d="M715.279,-171.692C590.753,-161.933 325.363,-141.133 185.155,-130.144"/>
<polygon fill="midnightblue" stroke="midnightblue" points="715.198,-175.197 725.441,-172.489 715.745,-168.218 715.198,-175.197"/>
</g>
<!-- Node28 -->
<g id="node5" class="node"><title>Node28</title>
<g id="a_node5"><a xlink:href="../../de/dc8/Bankable_2Abstract_2MIDIIncrementDecrementButtons_8hpp.html" target="_top" xlink:title=" ">
<polygon fill="white" stroke="black" points="250,-112.5 250,-131.5 432,-131.5 432,-112.5 250,-112.5"/>
<text text-anchor="middle" x="341" y="-119.5" font-family="Helvetica,sans-Serif" font-size="10.00">MIDIIncrementDecrementButtons.hpp</text>
</a>
</g>
</g>
<!-- Node24&#45;&gt;Node28 -->
<g id="edge4" class="edge"><title>Node24&#45;&gt;Node28</title>
<path fill="none" stroke="midnightblue" d="M715.196,-168.716C632.717,-158.64 494.199,-141.717 410.819,-131.53"/>
<polygon fill="midnightblue" stroke="midnightblue" points="714.866,-172.202 725.216,-169.94 715.714,-165.253 714.866,-172.202"/>
</g>
<!-- Node30 -->
<g id="node7" class="node"><title>Node30</title>
<g id="a_node7"><a xlink:href="../../d5/d8e/Bankable_2NoteButton_8hpp.html" target="_top" xlink:title=" ">
<polygon fill="white" stroke="black" points="388.5,-56.5 388.5,-75.5 473.5,-75.5 473.5,-56.5 388.5,-56.5"/>
<text text-anchor="middle" x="431" y="-63.5" font-family="Helvetica,sans-Serif" font-size="10.00">NoteButton.hpp</text>
</a>
</g>
</g>
<!-- Node24&#45;&gt;Node30 -->
<g id="edge7" class="edge"><title>Node24&#45;&gt;Node30</title>
<path fill="none" stroke="midnightblue" d="M745.81,-165.378C674.773,-143.179 521.279,-95.2121 458.553,-75.6104"/>
<polygon fill="midnightblue" stroke="midnightblue" points="745.083,-168.818 755.672,-168.46 747.171,-162.137 745.083,-168.818"/>
</g>
<!-- Node31 -->
<g id="node8" class="node"><title>Node31</title>
<g id="a_node8"><a xlink:href="../../df/de8/Bankable_2NoteButtonLatched_8hpp.html" target="_top" xlink:title=" ">
<polygon fill="white" stroke="black" points="491.5,-56.5 491.5,-75.5 610.5,-75.5 610.5,-56.5 491.5,-56.5"/>
<text text-anchor="middle" x="551" y="-63.5" font-family="Helvetica,sans-Serif" font-size="10.00">NoteButtonLatched.hpp</text>
</a>
</g>
</g>
<!-- Node24&#45;&gt;Node31 -->
<g id="edge9" class="edge"><title>Node24&#45;&gt;Node31</title>
<path fill="none" stroke="midnightblue" d="M755.627,-164.021C707.646,-141.272 609.614,-94.791 569.12,-75.5914"/>
<polygon fill="midnightblue" stroke="midnightblue" points="754.26,-167.247 764.795,-168.368 757.259,-160.922 754.26,-167.247"/>
</g>
<!-- Node32 -->
<g id="node9" class="node"><title>Node32</title>
<g id="a_node9"><a xlink:href="../../d6/d6e/Bankable_2NoteButtonLatching_8hpp.html" target="_top" xlink:title=" ">
<polygon fill="white" stroke="black" points="629,-56.5 629,-75.5 751,-75.5 751,-56.5 629,-56.5"/>
<text text-anchor="middle" x="690" y="-63.5" font-family="Helvetica,sans-Serif" font-size="10.00">NoteButtonLatching.hpp</text>
</a>
</g>
</g>
<!-- Node24&#45;&gt;Node32 -->
<g id="edge11" class="edge"><title>Node24&#45;&gt;Node32</title>
<path fill="none" stroke="midnightblue" d="M768.296,-160.795C760.662,-152.297 751.233,-141.67 743,-132 726.009,-112.045 706.709,-88.0166 696.747,-75.5086"/>
<polygon fill="midnightblue" stroke="midnightblue" points="765.923,-163.39 775.222,-168.469 771.12,-158.7 765.923,-163.39"/>
</g>
<!-- Node33 -->
<g id="node10" class="node"><title>Node33</title>
<g id="a_node10"><a xlink:href="../../dc/dde/Bankable_2NoteButtonMatrix_8hpp.html" target="_top" xlink:title=" ">
<polygon fill="white" stroke="black" points="769,-56.5 769,-75.5 881,-75.5 881,-56.5 769,-56.5"/>
<text text-anchor="middle" x="825" y="-63.5" font-family="Helvetica,sans-Serif" font-size="10.00">NoteButtonMatrix.hpp</text>
</a>
</g>
</g>
<!-- Node24&#45;&gt;Node33 -->
<g id="edge13" class="edge"><title>Node24&#45;&gt;Node33</title>
<path fill="none" stroke="midnightblue" d="M765.67,-161.043C753.423,-147.753 740.705,-128.416 750,-112 760.175,-94.0293 780.706,-82.4522 797.718,-75.5474"/>
<polygon fill="midnightblue" stroke="midnightblue" points="763.503,-163.828 773.034,-168.457 768.47,-158.895 763.503,-163.828"/>
</g>
<!-- Node34 -->
<g id="node11" class="node"><title>Node34</title>
<g id="a_node11"><a xlink:href="../../dd/dbb/Bankable_2NoteButtons_8hpp.html" target="_top" xlink:title=" ">
<polygon fill="white" stroke="black" points="899,-56.5 899,-75.5 989,-75.5 989,-56.5 899,-56.5"/>
<text text-anchor="middle" x="944" y="-63.5" font-family="Helvetica,sans-Serif" font-size="10.00">NoteButtons.hpp</text>
</a>
</g>
</g>
<!-- Node24&#45;&gt;Node34 -->
<g id="edge15" class="edge"><title>Node24&#45;&gt;Node34</title>
<path fill="none" stroke="midnightblue" d="M779.167,-158.169C777.409,-143.939 777.624,-124.743 788,-112 795.586,-102.683 862.265,-85.8156 905.959,-75.5879"/>
<polygon fill="midnightblue" stroke="midnightblue" points="775.758,-159.005 780.844,-168.3 782.664,-157.862 775.758,-159.005"/>
</g>
<!-- Node35 -->
<g id="node12" class="node"><title>Node35</title>
<g id="a_node12"><a xlink:href="../../de/de3/Bankable_2NoteChordButton_8hpp.html" target="_top" xlink:title=" ">
<polygon fill="white" stroke="black" points="1007.5,-56.5 1007.5,-75.5 1118.5,-75.5 1118.5,-56.5 1007.5,-56.5"/>
<text text-anchor="middle" x="1063" y="-63.5" font-family="Helvetica,sans-Serif" font-size="10.00">NoteChordButton.hpp</text>
</a>
</g>
</g>
<!-- Node24&#45;&gt;Node35 -->
<g id="edge17" class="edge"><title>Node24&#45;&gt;Node35</title>
<path fill="none" stroke="midnightblue" d="M788.938,-158.499C794.716,-143.566 804.995,-123.253 821,-112 836.076,-101.4 940.713,-84.6533 1007.37,-74.8562"/>
<polygon fill="midnightblue" stroke="midnightblue" points="785.537,-157.62 785.509,-168.215 792.137,-159.95 785.537,-157.62"/>
</g>
<!-- Node36 -->
<g id="node13" class="node"><title>Node36</title>
<g id="a_node13"><a xlink:href="../../d3/d80/NoteButton_8hpp.html" target="_top" xlink:title=" ">
<polygon fill="white" stroke="black" points="830.5,-112.5 830.5,-131.5 915.5,-131.5 915.5,-112.5 830.5,-112.5"/>
<text text-anchor="middle" x="873" y="-119.5" font-family="Helvetica,sans-Serif" font-size="10.00">NoteButton.hpp</text>
</a>
</g>
</g>
<!-- Node24&#45;&gt;Node36 -->
<g id="edge19" class="edge"><title>Node24&#45;&gt;Node36</title>
<path fill="none" stroke="midnightblue" d="M806.038,-163.177C822.599,-153.241 844.418,-140.149 858.576,-131.655"/>
<polygon fill="midnightblue" stroke="midnightblue" points="804.234,-160.178 797.46,-168.324 807.836,-166.18 804.234,-160.178"/>
</g>
<!-- Node37 -->
<g id="node14" class="node"><title>Node37</title>
<g id="a_node14"><a xlink:href="../../d0/d4e/NoteButtonLatched_8hpp.html" target="_top" xlink:title=" ">
<polygon fill="white" stroke="black" points="933.5,-112.5 933.5,-131.5 1052.5,-131.5 1052.5,-112.5 933.5,-112.5"/>
<text text-anchor="middle" x="993" y="-119.5" font-family="Helvetica,sans-Serif" font-size="10.00">NoteButtonLatched.hpp</text>
</a>
</g>
</g>
<!-- Node24&#45;&gt;Node37 -->
<g id="edge21" class="edge"><title>Node24&#45;&gt;Node37</title>
<path fill="none" stroke="midnightblue" d="M826.19,-165.894C865.847,-155.697 923.77,-140.802 959.881,-131.516"/>
<polygon fill="midnightblue" stroke="midnightblue" points="825.088,-162.563 816.275,-168.444 826.832,-169.343 825.088,-162.563"/>
</g>
<!-- Node38 -->
<g id="node15" class="node"><title>Node38</title>
<g id="a_node15"><a xlink:href="../../d6/d09/NoteButtonLatching_8hpp.html" target="_top" xlink:title=" ">
<polygon fill="white" stroke="black" points="1071,-112.5 1071,-131.5 1193,-131.5 1193,-112.5 1071,-112.5"/>
<text text-anchor="middle" x="1132" y="-119.5" font-family="Helvetica,sans-Serif" font-size="10.00">NoteButtonLatching.hpp</text>
</a>
</g>
</g>
<!-- Node24&#45;&gt;Node38 -->
<g id="edge23" class="edge"><title>Node24&#45;&gt;Node38</title>
<path fill="none" stroke="midnightblue" d="M848.575,-166.854C914.515,-156.651 1015.04,-141.098 1076.96,-131.516"/>
<polygon fill="midnightblue" stroke="midnightblue" points="847.647,-163.456 838.3,-168.444 848.718,-170.373 847.647,-163.456"/>
</g>
<!-- Node39 -->
<g id="node16" class="node"><title>Node39</title>
<g id="a_node16"><a xlink:href="../../d2/da8/NoteButtonMatrix_8hpp.html" target="_top" xlink:title=" ">
<polygon fill="white" stroke="black" points="1211,-112.5 1211,-131.5 1323,-131.5 1323,-112.5 1211,-112.5"/>
<text text-anchor="middle" x="1267" y="-119.5" font-family="Helvetica,sans-Serif" font-size="10.00">NoteButtonMatrix.hpp</text>
</a>
</g>
</g>
<!-- Node24&#45;&gt;Node39 -->
<g id="edge25" class="edge"><title>Node24&#45;&gt;Node39</title>
<path fill="none" stroke="midnightblue" d="M850.719,-170.371C933.623,-162.106 1078.27,-147.207 1202,-132 1204.94,-131.639 1207.95,-131.258 1210.99,-130.865"/>
<polygon fill="midnightblue" stroke="midnightblue" points="850.278,-166.897 840.673,-171.37 850.971,-173.863 850.278,-166.897"/>
</g>
<!-- Node40 -->
<g id="node17" class="node"><title>Node40</title>
<g id="a_node17"><a xlink:href="../../d4/db7/NoteButtons_8hpp.html" target="_top" xlink:title=" ">
<polygon fill="white" stroke="black" points="1341,-112.5 1341,-131.5 1431,-131.5 1431,-112.5 1341,-112.5"/>
<text text-anchor="middle" x="1386" y="-119.5" font-family="Helvetica,sans-Serif" font-size="10.00">NoteButtons.hpp</text>
</a>
</g>
</g>
<!-- Node24&#45;&gt;Node40 -->
<g id="edge27" class="edge"><title>Node24&#45;&gt;Node40</title>
<path fill="none" stroke="midnightblue" d="M850.901,-173.261C954.793,-167.128 1159.33,-153.428 1332,-132 1334.92,-131.637 1337.93,-131.23 1340.96,-130.795"/>
<polygon fill="midnightblue" stroke="midnightblue" points="850.641,-169.77 840.862,-173.848 851.05,-176.758 850.641,-169.77"/>
</g>
<!-- Node41 -->
<g id="node18" class="node"><title>Node41</title>
<g id="a_node18"><a xlink:href="../../df/de2/NoteChordButton_8hpp.html" target="_top" xlink:title=" ">
<polygon fill="white" stroke="black" points="1449.5,-112.5 1449.5,-131.5 1560.5,-131.5 1560.5,-112.5 1449.5,-112.5"/>
<text text-anchor="middle" x="1505" y="-119.5" font-family="Helvetica,sans-Serif" font-size="10.00">NoteChordButton.hpp</text>
</a>
</g>
</g>
<!-- Node24&#45;&gt;Node41 -->
<g id="edge29" class="edge"><title>Node24&#45;&gt;Node41</title>
<path fill="none" stroke="midnightblue" d="M850.759,-173.908C970.069,-168.118 1225.35,-154.185 1440,-132 1443.06,-131.684 1446.2,-131.334 1449.36,-130.962"/>
<polygon fill="midnightblue" stroke="midnightblue" points="850.498,-170.417 840.678,-174.394 850.835,-177.408 850.498,-170.417"/>
</g>
<!-- Node26 -->
<g id="node3" class="node"><title>Node26</title>
<g id="a_node3"><a xlink:href="../../d1/de5/CCIncrementDecrementButtons_8hpp.html" target="_top" xlink:title=" ">
<polygon fill="white" stroke="black" points="0,-56.5 0,-75.5 176,-75.5 176,-56.5 0,-56.5"/>
<text text-anchor="middle" x="88" y="-63.5" font-family="Helvetica,sans-Serif" font-size="10.00">CCIncrementDecrementButtons.hpp</text>
</a>
</g>
</g>
<!-- Node25&#45;&gt;Node26 -->
<g id="edge2" class="edge"><title>Node25&#45;&gt;Node26</title>
<path fill="none" stroke="midnightblue" d="M91.9001,-102.101C90.904,-93.1357 89.762,-82.8579 88.9723,-75.7511"/>
<polygon fill="midnightblue" stroke="midnightblue" points="88.4262,-102.531 93.0092,-112.083 95.3834,-101.758 88.4262,-102.531"/>
</g>
<!-- Node27 -->
<g id="node4" class="node"><title>Node27</title>
<g id="a_node4"><a xlink:href="../../db/dbf/Control__Surface_8h.html" target="_top" xlink:title="The main header file that includes all Control&#45;Surface header files.">
<polygon fill="white" stroke="black" points="955.5,-0.5 955.5,-19.5 1050.5,-19.5 1050.5,-0.5 955.5,-0.5"/>
<text text-anchor="middle" x="1003" y="-7.5" font-family="Helvetica,sans-Serif" font-size="10.00">Control_Surface.h</text>
</a>
</g>
</g>
<!-- Node26&#45;&gt;Node27 -->
<g id="edge3" class="edge"><title>Node26&#45;&gt;Node27</title>
<path fill="none" stroke="midnightblue" d="M186.194,-55.9393C485.43,-34.0309 831.078,-18.3304 955.474,-12.9894"/>
<polygon fill="midnightblue" stroke="midnightblue" points="185.733,-52.4637 176.016,-56.6882 186.246,-59.4448 185.733,-52.4637"/>
</g>
<!-- Node29 -->
<g id="node6" class="node"><title>Node29</title>
<g id="a_node6"><a xlink:href="../../d7/dcc/Bankable_2CCIncrementDecrementButtons_8hpp.html" target="_top" xlink:title=" ">
<polygon fill="white" stroke="black" points="194,-56.5 194,-75.5 370,-75.5 370,-56.5 194,-56.5"/>
<text text-anchor="middle" x="282" y="-63.5" font-family="Helvetica,sans-Serif" font-size="10.00">CCIncrementDecrementButtons.hpp</text>
</a>
</g>
</g>
<!-- Node28&#45;&gt;Node29 -->
<g id="edge5" class="edge"><title>Node28&#45;&gt;Node29</title>
<path fill="none" stroke="midnightblue" d="M324.105,-105.537C313.585,-95.9087 300.431,-83.8694 291.652,-75.8339"/>
<polygon fill="midnightblue" stroke="midnightblue" points="321.781,-108.154 331.521,-112.324 326.507,-102.99 321.781,-108.154"/>
</g>
<!-- Node29&#45;&gt;Node27 -->
<g id="edge6" class="edge"><title>Node29&#45;&gt;Node27</title>
<path fill="none" stroke="midnightblue" d="M380.209,-55.9158C601.611,-37.7646 852.274,-20.883 955.221,-14.1098"/>
<polygon fill="midnightblue" stroke="midnightblue" points="379.701,-52.4457 370.022,-56.7536 380.275,-59.4221 379.701,-52.4457"/>
</g>
<!-- Node30&#45;&gt;Node27 -->
<g id="edge8" class="edge"><title>Node30&#45;&gt;Node27</title>
<path fill="none" stroke="midnightblue" d="M483.701,-55.8788C663.408,-32.6964 865.336,-19.1055 955.436,-13.6945"/>
<polygon fill="midnightblue" stroke="midnightblue" points="482.997,-52.4409 473.533,-57.2039 483.902,-59.3822 482.997,-52.4409"/>
</g>
<!-- Node31&#45;&gt;Node27 -->
<g id="edge10" class="edge"><title>Node31&#45;&gt;Node27</title>
<path fill="none" stroke="midnightblue" d="M621.122,-55.8746C748.038,-40.1938 884.618,-24.462 955.209,-16.417"/>
<polygon fill="midnightblue" stroke="midnightblue" points="620.327,-52.4461 610.833,-57.1483 621.187,-59.393 620.327,-52.4461"/>
</g>
<!-- Node32&#45;&gt;Node27 -->
<g id="edge12" class="edge"><title>Node32&#45;&gt;Node27</title>
<path fill="none" stroke="midnightblue" d="M749.648,-54.7093C809.442,-44.3934 900.317,-28.7153 955.431,-19.2068"/>
<polygon fill="midnightblue" stroke="midnightblue" points="748.855,-51.2943 739.596,-56.4435 750.045,-58.1924 748.855,-51.2943"/>
</g>
<!-- Node33&#45;&gt;Node27 -->
<g id="edge14" class="edge"><title>Node33&#45;&gt;Node27</title>
<path fill="none" stroke="midnightblue" d="M863.117,-53.4363C896.678,-43.2551 944.774,-28.664 974.927,-19.5164"/>
<polygon fill="midnightblue" stroke="midnightblue" points="861.758,-50.1911 853.205,-56.4435 863.79,-56.8897 861.758,-50.1911"/>
</g>
<!-- Node34&#45;&gt;Node27 -->
<g id="edge16" class="edge"><title>Node34&#45;&gt;Node27</title>
<path fill="none" stroke="midnightblue" d="M960.895,-49.5372C971.415,-39.9087 984.569,-27.8694 993.348,-19.8339"/>
<polygon fill="midnightblue" stroke="midnightblue" points="958.493,-46.9905 953.479,-56.324 963.219,-52.1542 958.493,-46.9905"/>
</g>
<!-- Node35&#45;&gt;Node27 -->
<g id="edge18" class="edge"><title>Node35&#45;&gt;Node27</title>
<path fill="none" stroke="midnightblue" d="M1045.82,-49.5372C1035.12,-39.9087 1021.74,-27.8694 1012.82,-19.8339"/>
<polygon fill="midnightblue" stroke="midnightblue" points="1043.59,-52.2358 1053.36,-56.324 1048.27,-47.0327 1043.59,-52.2358"/>
</g>
<!-- Node36&#45;&gt;Node27 -->
<g id="edge20" class="edge"><title>Node36&#45;&gt;Node27</title>
<path fill="none" stroke="midnightblue" d="M925.913,-111.652C1000.32,-98.504 1126.9,-76.1212 1127,-76 1152.38,-45.7328 1095.57,-27.7005 1050.7,-18.566"/>
<polygon fill="midnightblue" stroke="midnightblue" points="925.017,-108.256 915.779,-113.443 926.235,-115.15 925.017,-108.256"/>
</g>
<!-- Node37&#45;&gt;Node27 -->
<g id="edge22" class="edge"><title>Node37&#45;&gt;Node27</title>
<path fill="none" stroke="midnightblue" d="M1062.75,-111.008C1103.26,-103.619 1148.69,-92.0441 1161,-76 1192.42,-35.0561 1108.14,-19.742 1050.92,-14.1322"/>
<polygon fill="midnightblue" stroke="midnightblue" points="1062.09,-107.57 1052.85,-112.751 1063.3,-114.464 1062.09,-107.57"/>
</g>
<!-- Node38&#45;&gt;Node27 -->
<g id="edge24" class="edge"><title>Node38&#45;&gt;Node27</title>
<path fill="none" stroke="midnightblue" d="M1154.46,-106.511C1172.3,-93.1995 1192.21,-73.0144 1179,-56 1163.38,-35.8847 1097.42,-23.24 1050.86,-16.6457"/>
<polygon fill="midnightblue" stroke="midnightblue" points="1152.19,-103.83 1146.03,-112.45 1156.22,-109.553 1152.19,-103.83"/>
</g>
<!-- Node39&#45;&gt;Node27 -->
<g id="edge26" class="edge"><title>Node39&#45;&gt;Node27</title>
<path fill="none" stroke="midnightblue" d="M1253.39,-104.412C1240.24,-89.494 1218.99,-68.1184 1196,-56 1150.04,-31.7706 1091.15,-20.4681 1050.58,-15.2726"/>
<polygon fill="midnightblue" stroke="midnightblue" points="1250.99,-106.994 1260.15,-112.33 1256.32,-102.451 1250.99,-106.994"/>
</g>
<!-- Node40&#45;&gt;Node27 -->
<g id="edge28" class="edge"><title>Node40&#45;&gt;Node27</title>
<path fill="none" stroke="midnightblue" d="M1358.6,-108.129C1326.99,-93.7134 1273.19,-70.4783 1225,-56 1166.06,-38.2919 1096.22,-25.4173 1050.83,-18.0843"/>
<polygon fill="midnightblue" stroke="midnightblue" points="1357.49,-111.474 1368.04,-112.477 1360.42,-105.116 1357.49,-111.474"/>
</g>
<!-- Node41&#45;&gt;Node27 -->
<g id="edge30" class="edge"><title>Node41&#45;&gt;Node27</title>
<path fill="none" stroke="midnightblue" d="M1467.33,-109.483C1420.64,-95.4958 1338.5,-71.8169 1267,-56 1192.1,-39.4291 1104.08,-25.5252 1050.97,-17.7343"/>
<polygon fill="midnightblue" stroke="midnightblue" points="1466.43,-112.867 1477.01,-112.398 1468.44,-106.164 1466.43,-112.867"/>
</g>
</g>
</svg>
