<?xml version="1.0" encoding="UTF-8" standalone="no"?>
<!DOCTYPE svg PUBLIC "-//W3C//DTD SVG 1.1//EN"
 "http://www.w3.org/Graphics/SVG/1.1/DTD/svg11.dtd">
<!-- Generated by graphviz version 2.38.0 (20140413.2041)
 -->
<!-- Title: DigitalNoteSender.hpp Pages: 1 -->
<svg width="1087pt" height="196pt"
 viewBox="0.00 0.00 1087.00 196.00" xmlns="http://www.w3.org/2000/svg" xmlns:xlink="http://www.w3.org/1999/xlink">
<g id="graph0" class="graph" transform="scale(1 1) rotate(0) translate(4 192)">
<title>DigitalNoteSender.hpp</title>
<polygon fill="white" stroke="none" points="-4,4 -4,-192 1083,-192 1083,4 -4,4"/>
<!-- Node24 -->
<g id="node1" class="node"><title>Node24</title>
<g id="a_node1"><a xlink:title=" ">
<polygon fill="#bfbfbf" stroke="black" points="476.5,-168.5 476.5,-187.5 591.5,-187.5 591.5,-168.5 476.5,-168.5"/>
<text text-anchor="middle" x="534" y="-175.5" font-family="Helvetica,sans-Serif" font-size="10.00">DigitalNoteSender.hpp</text>
</a>
</g>
</g>
<!-- Node25 -->
<g id="node2" class="node"><title>Node25</title>
<g id="a_node2"><a xlink:href="../../dc/dc5/MIDIIncrementDecrementButtons_8hpp.html" target="_top" xlink:title=" ">
<polygon fill="white" stroke="black" points="12,-112.5 12,-131.5 194,-131.5 194,-112.5 12,-112.5"/>
<text text-anchor="middle" x="103" y="-119.5" font-family="Helvetica,sans-Serif" font-size="10.00">MIDIIncrementDecrementButtons.hpp</text>
</a>
</g>
</g>
<!-- Node24&#45;&gt;Node25 -->
<g id="edge1" class="edge"><title>Node24&#45;&gt;Node25</title>
<path fill="none" stroke="midnightblue" d="M466.274,-168.515C385.633,-158.411 251.738,-141.635 170.984,-131.518"/>
<polygon fill="midnightblue" stroke="midnightblue" points="465.963,-172.003 476.321,-169.773 466.833,-165.057 465.963,-172.003"/>
</g>
<!-- Node28 -->
<g id="node5" class="node"><title>Node28</title>
<g id="a_node5"><a xlink:href="../../d5/d8e/Bankable_2NoteButton_8hpp.html" target="_top" xlink:title=" ">
<polygon fill="white" stroke="black" points="194.5,-56.5 194.5,-75.5 279.5,-75.5 279.5,-56.5 194.5,-56.5"/>
<text text-anchor="middle" x="237" y="-63.5" font-family="Helvetica,sans-Serif" font-size="10.00">NoteButton.hpp</text>
</a>
</g>
</g>
<!-- Node24&#45;&gt;Node28 -->
<g id="edge4" class="edge"><title>Node24&#45;&gt;Node28</title>
<path fill="none" stroke="midnightblue" d="M501.235,-164.865C440.689,-142.44 312.685,-95.0315 260.197,-75.5914"/>
<polygon fill="midnightblue" stroke="midnightblue" points="500.102,-168.177 510.695,-168.368 502.533,-161.613 500.102,-168.177"/>
</g>
<!-- Node29 -->
<g id="node6" class="node"><title>Node29</title>
<g id="a_node6"><a xlink:href="../../d6/d6e/Bankable_2NoteButtonLatching_8hpp.html" target="_top" xlink:title=" ">
<polygon fill="white" stroke="black" points="298,-56.5 298,-75.5 420,-75.5 420,-56.5 298,-56.5"/>
<text text-anchor="middle" x="359" y="-63.5" font-family="Helvetica,sans-Serif" font-size="10.00">NoteButtonLatching.hpp</text>
</a>
</g>
</g>
<!-- Node24&#45;&gt;Node29 -->
<g id="edge6" class="edge"><title>Node24&#45;&gt;Node29</title>
<path fill="none" stroke="midnightblue" d="M511.741,-163.009C475.008,-139.919 402.767,-94.5104 372.668,-75.5914"/>
<polygon fill="midnightblue" stroke="midnightblue" points="509.939,-166.01 520.268,-168.368 513.664,-160.083 509.939,-166.01"/>
</g>
<!-- Node30 -->
<g id="node7" class="node"><title>Node30</title>
<g id="a_node7"><a xlink:href="../../dc/dde/Bankable_2NoteButtonMatrix_8hpp.html" target="_top" xlink:title=" ">
<polygon fill="white" stroke="black" points="438,-56.5 438,-75.5 550,-75.5 550,-56.5 438,-56.5"/>
<text text-anchor="middle" x="494" y="-63.5" font-family="Helvetica,sans-Serif" font-size="10.00">NoteButtonMatrix.hpp</text>
</a>
</g>
</g>
<!-- Node24&#45;&gt;Node30 -->
<g id="edge8" class="edge"><title>Node24&#45;&gt;Node30</title>
<path fill="none" stroke="midnightblue" d="M518.587,-160.446C512.044,-152.446 505.014,-142.348 501,-132 493.612,-112.953 493.153,-88.5557 493.531,-75.7486"/>
<polygon fill="midnightblue" stroke="midnightblue" points="516.132,-162.957 525.33,-168.215 521.418,-158.369 516.132,-162.957"/>
</g>
<!-- Node31 -->
<g id="node8" class="node"><title>Node31</title>
<g id="a_node8"><a xlink:href="../../dd/dbb/Bankable_2NoteButtons_8hpp.html" target="_top" xlink:title=" ">
<polygon fill="white" stroke="black" points="568,-56.5 568,-75.5 658,-75.5 658,-56.5 568,-56.5"/>
<text text-anchor="middle" x="613" y="-63.5" font-family="Helvetica,sans-Serif" font-size="10.00">NoteButtons.hpp</text>
</a>
</g>
</g>
<!-- Node24&#45;&gt;Node31 -->
<g id="edge10" class="edge"><title>Node24&#45;&gt;Node31</title>
<path fill="none" stroke="midnightblue" d="M531.093,-158.013C529.971,-144.246 530.58,-125.714 539,-112 549.856,-94.3167 570.512,-82.6218 587.247,-75.5975"/>
<polygon fill="midnightblue" stroke="midnightblue" points="527.654,-158.73 532.31,-168.247 534.605,-157.903 527.654,-158.73"/>
</g>
<!-- Node32 -->
<g id="node9" class="node"><title>Node32</title>
<g id="a_node9"><a xlink:href="../../d3/d80/NoteButton_8hpp.html" target="_top" xlink:title=" ">
<polygon fill="white" stroke="black" points="676.5,-56.5 676.5,-75.5 761.5,-75.5 761.5,-56.5 676.5,-56.5"/>
<text text-anchor="middle" x="719" y="-63.5" font-family="Helvetica,sans-Serif" font-size="10.00">NoteButton.hpp</text>
</a>
</g>
</g>
<!-- Node24&#45;&gt;Node32 -->
<g id="edge12" class="edge"><title>Node24&#45;&gt;Node32</title>
<path fill="none" stroke="midnightblue" d="M540.281,-158.958C546.266,-144.303 556.658,-124.14 572,-112 588.796,-98.7092 642.313,-84.3956 679.904,-75.566"/>
<polygon fill="midnightblue" stroke="midnightblue" points="536.95,-157.87 536.693,-168.462 543.499,-160.342 536.95,-157.87"/>
</g>
<!-- Node33 -->
<g id="node10" class="node"><title>Node33</title>
<g id="a_node10"><a xlink:href="../../d0/d4e/NoteButtonLatched_8hpp.html" target="_top" xlink:title=" ">
<polygon fill="white" stroke="black" points="581.5,-112.5 581.5,-131.5 700.5,-131.5 700.5,-112.5 581.5,-112.5"/>
<text text-anchor="middle" x="641" y="-119.5" font-family="Helvetica,sans-Serif" font-size="10.00">NoteButtonLatched.hpp</text>
</a>
</g>
</g>
<!-- Node24&#45;&gt;Node33 -->
<g id="edge14" class="edge"><title>Node24&#45;&gt;Node33</title>
<path fill="none" stroke="midnightblue" d="M560.302,-163.726C580.115,-153.727 606.707,-140.307 623.851,-131.655"/>
<polygon fill="midnightblue" stroke="midnightblue" points="558.542,-160.694 551.191,-168.324 561.696,-166.943 558.542,-160.694"/>
</g>
<!-- Node34 -->
<g id="node11" class="node"><title>Node34</title>
<g id="a_node11"><a xlink:href="../../d6/d09/NoteButtonLatching_8hpp.html" target="_top" xlink:title=" ">
<polygon fill="white" stroke="black" points="719,-112.5 719,-131.5 841,-131.5 841,-112.5 719,-112.5"/>
<text text-anchor="middle" x="780" y="-119.5" font-family="Helvetica,sans-Serif" font-size="10.00">NoteButtonLatching.hpp</text>
</a>
</g>
</g>
<!-- Node24&#45;&gt;Node34 -->
<g id="edge16" class="edge"><title>Node24&#45;&gt;Node34</title>
<path fill="none" stroke="midnightblue" d="M582.829,-166.281C629.316,-156.077 698.363,-140.92 741.203,-131.516"/>
<polygon fill="midnightblue" stroke="midnightblue" points="581.996,-162.881 572.979,-168.444 583.497,-169.718 581.996,-162.881"/>
</g>
<!-- Node35 -->
<g id="node12" class="node"><title>Node35</title>
<g id="a_node12"><a xlink:href="../../d2/da8/NoteButtonMatrix_8hpp.html" target="_top" xlink:title=" ">
<polygon fill="white" stroke="black" points="859,-112.5 859,-131.5 971,-131.5 971,-112.5 859,-112.5"/>
<text text-anchor="middle" x="915" y="-119.5" font-family="Helvetica,sans-Serif" font-size="10.00">NoteButtonMatrix.hpp</text>
</a>
</g>
</g>
<!-- Node24&#45;&gt;Node35 -->
<g id="edge18" class="edge"><title>Node24&#45;&gt;Node35</title>
<path fill="none" stroke="midnightblue" d="M601.912,-167.375C675.152,-156.994 790.416,-140.658 858.768,-130.97"/>
<polygon fill="midnightblue" stroke="midnightblue" points="601.276,-163.93 591.866,-168.799 602.258,-170.861 601.276,-163.93"/>
</g>
<!-- Node36 -->
<g id="node13" class="node"><title>Node36</title>
<g id="a_node13"><a xlink:href="../../d4/db7/NoteButtons_8hpp.html" target="_top" xlink:title=" ">
<polygon fill="white" stroke="black" points="989,-112.5 989,-131.5 1079,-131.5 1079,-112.5 989,-112.5"/>
<text text-anchor="middle" x="1034" y="-119.5" font-family="Helvetica,sans-Serif" font-size="10.00">NoteButtons.hpp</text>
</a>
</g>
</g>
<!-- Node24&#45;&gt;Node36 -->
<g id="edge20" class="edge"><title>Node24&#45;&gt;Node36</title>
<path fill="none" stroke="midnightblue" d="M601.58,-171.55C689.09,-164.178 846.254,-149.874 980,-132 982.92,-131.61 985.925,-131.182 988.952,-130.732"/>
<polygon fill="midnightblue" stroke="midnightblue" points="601.191,-168.07 591.519,-172.392 601.776,-175.045 601.191,-168.07"/>
</g>
<!-- Node26 -->
<g id="node3" class="node"><title>Node26</title>
<g id="a_node3"><a xlink:href="../../d1/de5/CCIncrementDecrementButtons_8hpp.html" target="_top" xlink:title=" ">
<polygon fill="white" stroke="black" points="0,-56.5 0,-75.5 176,-75.5 176,-56.5 0,-56.5"/>
<text text-anchor="middle" x="88" y="-63.5" font-family="Helvetica,sans-Serif" font-size="10.00">CCIncrementDecrementButtons.hpp</text>
</a>
</g>
</g>
<!-- Node25&#45;&gt;Node26 -->
<g id="edge2" class="edge"><title>Node25&#45;&gt;Node26</title>
<path fill="none" stroke="midnightblue" d="M97.8321,-102.396C95.3228,-93.362 92.4267,-82.936 90.4309,-75.7511"/>
<polygon fill="midnightblue" stroke="midnightblue" points="94.4742,-103.385 100.523,-112.083 101.219,-101.511 94.4742,-103.385"/>
</g>
<!-- Node27 -->
<g id="node4" class="node"><title>Node27</title>
<g id="a_node4"><a xlink:href="../../db/dbf/Control__Surface_8h.html" target="_top" xlink:title="The main header file that includes all Control&#45;Surface header files.">
<polygon fill="white" stroke="black" points="618.5,-0.5 618.5,-19.5 713.5,-19.5 713.5,-0.5 618.5,-0.5"/>
<text text-anchor="middle" x="666" y="-7.5" font-family="Helvetica,sans-Serif" font-size="10.00">Control_Surface.h</text>
</a>
</g>
</g>
<!-- Node26&#45;&gt;Node27 -->
<g id="edge3" class="edge"><title>Node26&#45;&gt;Node27</title>
<path fill="none" stroke="midnightblue" d="M186.099,-55.8351C311.569,-44.113 523.896,-24.2761 618.297,-15.4567"/>
<polygon fill="midnightblue" stroke="midnightblue" points="185.731,-52.3541 176.1,-56.7692 186.382,-59.3237 185.731,-52.3541"/>
</g>
<!-- Node28&#45;&gt;Node27 -->
<g id="edge5" class="edge"><title>Node28&#45;&gt;Node27</title>
<path fill="none" stroke="midnightblue" d="M289.648,-55.978C414.368,-37.9461 548.521,-23.1994 618.283,-15.8824"/>
<polygon fill="midnightblue" stroke="midnightblue" points="288.929,-52.5458 279.538,-57.4502 289.938,-59.4727 288.929,-52.5458"/>
</g>
<!-- Node29&#45;&gt;Node27 -->
<g id="edge7" class="edge"><title>Node29&#45;&gt;Node27</title>
<path fill="none" stroke="midnightblue" d="M417.807,-54.6561C476.096,-44.4033 564.282,-28.8917 618.34,-19.3832"/>
<polygon fill="midnightblue" stroke="midnightblue" points="416.888,-51.264 407.645,-56.4435 418.1,-58.1582 416.888,-51.264"/>
</g>
<!-- Node30&#45;&gt;Node27 -->
<g id="edge9" class="edge"><title>Node30&#45;&gt;Node27</title>
<path fill="none" stroke="midnightblue" d="M530.832,-53.4363C563.262,-43.2551 609.737,-28.664 638.874,-19.5164"/>
<polygon fill="midnightblue" stroke="midnightblue" points="529.746,-50.1088 521.254,-56.4435 531.843,-56.7874 529.746,-50.1088"/>
</g>
<!-- Node31&#45;&gt;Node27 -->
<g id="edge11" class="edge"><title>Node31&#45;&gt;Node27</title>
<path fill="none" stroke="midnightblue" d="M628.981,-48.7175C638.322,-39.1997 649.746,-27.5608 657.411,-19.7511"/>
<polygon fill="midnightblue" stroke="midnightblue" points="626.259,-46.4945 621.752,-56.083 631.254,-51.3978 626.259,-46.4945"/>
</g>
<!-- Node32&#45;&gt;Node27 -->
<g id="edge13" class="edge"><title>Node32&#45;&gt;Node27</title>
<path fill="none" stroke="midnightblue" d="M703.019,-48.7175C693.678,-39.1997 682.254,-27.5608 674.589,-19.7511"/>
<polygon fill="midnightblue" stroke="midnightblue" points="700.746,-51.3978 710.248,-56.083 705.741,-46.4945 700.746,-51.3978"/>
</g>
<!-- Node33&#45;&gt;Node27 -->
<g id="edge15" class="edge"><title>Node33&#45;&gt;Node27</title>
<path fill="none" stroke="midnightblue" d="M690.523,-109.996C722.698,-101.729 760.384,-89.5381 770,-76 789.912,-47.9652 743.31,-29.4335 706.192,-19.5721"/>
<polygon fill="midnightblue" stroke="midnightblue" points="689.608,-106.617 680.752,-112.433 691.302,-113.409 689.608,-106.617"/>
</g>
<!-- Node34&#45;&gt;Node27 -->
<g id="edge17" class="edge"><title>Node34&#45;&gt;Node27</title>
<path fill="none" stroke="midnightblue" d="M788.101,-102.568C792.898,-88.5805 796.394,-69.517 787,-56 770.499,-32.2586 739.904,-21.0177 713.608,-15.7074"/>
<polygon fill="midnightblue" stroke="midnightblue" points="784.757,-101.51 784.372,-112.098 791.275,-104.061 784.757,-101.51"/>
</g>
<!-- Node35&#45;&gt;Node27 -->
<g id="edge19" class="edge"><title>Node35&#45;&gt;Node27</title>
<path fill="none" stroke="midnightblue" d="M894.035,-106.88C872.242,-92.6505 836.793,-70.7422 804,-56 769.179,-40.346 727.241,-27.4599 698.805,-19.5481"/>
<polygon fill="midnightblue" stroke="midnightblue" points="892.218,-109.875 902.492,-112.466 896.076,-104.034 892.218,-109.875"/>
</g>
<!-- Node36&#45;&gt;Node27 -->
<g id="edge21" class="edge"><title>Node36&#45;&gt;Node27</title>
<path fill="none" stroke="midnightblue" d="M1000.01,-109.08C960.904,-95.5305 894.656,-73.0805 837,-56 790.2,-42.1356 735.57,-28.1343 700.89,-19.5144"/>
<polygon fill="midnightblue" stroke="midnightblue" points="998.988,-112.43 1009.58,-112.407 1001.29,-105.818 998.988,-112.43"/>
</g>
</g>
</svg>
