<?xml version="1.0" encoding="UTF-8" standalone="no"?>
<!DOCTYPE svg PUBLIC "-//W3C//DTD SVG 1.1//EN"
 "http://www.w3.org/Graphics/SVG/1.1/DTD/svg11.dtd">
<!-- Generated by graphviz version 2.38.0 (20140413.2041)
 -->
<!-- Title: SelectorLEDs.hpp Pages: 1 -->
<svg width="727pt" height="543pt"
 viewBox="0.00 0.00 727.00 543.00" xmlns="http://www.w3.org/2000/svg" xmlns:xlink="http://www.w3.org/1999/xlink">
<g id="graph0" class="graph" transform="scale(1 1) rotate(0) translate(4 539)">
<title>SelectorLEDs.hpp</title>
<polygon fill="white" stroke="none" points="-4,4 -4,-539 723,-539 723,4 -4,4"/>
<!-- Node0 -->
<g id="node1" class="node"><title>Node0</title>
<g id="a_node1"><a xlink:title=" ">
<polygon fill="#bfbfbf" stroke="black" points="554,-515.5 554,-534.5 650,-534.5 650,-515.5 554,-515.5"/>
<text text-anchor="middle" x="602" y="-522.5" font-family="Helvetica,sans-Serif" font-size="10.00">SelectorLEDs.hpp</text>
</a>
</g>
</g>
<!-- Node1 -->
<g id="node2" class="node"><title>Node1</title>
<g id="a_node2"><a xlink:href="../../d0/d4e/Def_8hpp.html" target="_top" xlink:title=" ">
<polygon fill="white" stroke="black" points="236,-112.5 236,-131.5 306,-131.5 306,-112.5 236,-112.5"/>
<text text-anchor="middle" x="271" y="-119.5" font-family="Helvetica,sans-Serif" font-size="10.00">Def/Def.hpp</text>
</a>
</g>
</g>
<!-- Node0&#45;&gt;Node1 -->
<g id="edge1" class="edge"><title>Node0&#45;&gt;Node1</title>
<path fill="none" stroke="midnightblue" d="M629.194,-515.405C647.895,-508.275 672.127,-496.453 688,-479 712.544,-452.012 719,-439.48 719,-403 719,-403 719,-403 719,-233 719,-189.558 685.605,-185.851 646,-168 588.053,-141.882 402.808,-129.514 316.304,-125.05"/>
<polygon fill="midnightblue" stroke="midnightblue" points="316.423,-121.552 306.259,-124.544 316.071,-128.543 316.423,-121.552"/>
</g>
<!-- Node7 -->
<g id="node8" class="node"><title>Node7</title>
<g id="a_node8"><a xlink:href="../../dd/ddf/ExtendedInputOutput_8hpp.html" target="_top" xlink:title=" ">
<polygon fill="white" stroke="black" points="525,-448.5 525,-478.5 679,-478.5 679,-448.5 525,-448.5"/>
<text text-anchor="start" x="533" y="-466.5" font-family="Helvetica,sans-Serif" font-size="10.00">Hardware/ExtendedInputOutput</text>
<text text-anchor="middle" x="602" y="-455.5" font-family="Helvetica,sans-Serif" font-size="10.00">/ExtendedInputOutput.hpp</text>
</a>
</g>
</g>
<!-- Node0&#45;&gt;Node7 -->
<g id="edge9" class="edge"><title>Node0&#45;&gt;Node7</title>
<path fill="none" stroke="midnightblue" d="M602,-515.475C602,-508.471 602,-498.192 602,-488.696"/>
<polygon fill="midnightblue" stroke="midnightblue" points="605.5,-488.523 602,-478.523 598.5,-488.523 605.5,-488.523"/>
</g>
<!-- Node18 -->
<g id="node19" class="node"><title>Node18</title>
<g id="a_node19"><a xlink:href="../../d6/d16/Selector_8hpp.html" target="_top" xlink:title=" ">
<polygon fill="white" stroke="black" points="287,-454 287,-473 403,-473 403,-454 287,-454"/>
<text text-anchor="middle" x="345" y="-461" font-family="Helvetica,sans-Serif" font-size="10.00">Selectors/Selector.hpp</text>
</a>
</g>
</g>
<!-- Node0&#45;&gt;Node18 -->
<g id="edge25" class="edge"><title>Node0&#45;&gt;Node18</title>
<path fill="none" stroke="midnightblue" d="M565.178,-515.475C519.471,-504.893 441.475,-486.836 391.634,-475.297"/>
<polygon fill="midnightblue" stroke="midnightblue" points="392.285,-471.855 381.754,-473.009 390.706,-478.674 392.285,-471.855"/>
</g>
<!-- Node2 -->
<g id="node3" class="node"><title>Node2</title>
<g id="a_node3"><a xlink:href="../../d7/d42/Channel_8hpp.html" target="_top" xlink:title=" ">
<polygon fill="white" stroke="black" points="235.5,-56.5 235.5,-75.5 306.5,-75.5 306.5,-56.5 235.5,-56.5"/>
<text text-anchor="middle" x="271" y="-63.5" font-family="Helvetica,sans-Serif" font-size="10.00">Channel.hpp</text>
</a>
</g>
</g>
<!-- Node1&#45;&gt;Node2 -->
<g id="edge2" class="edge"><title>Node1&#45;&gt;Node2</title>
<path fill="none" stroke="midnightblue" d="M271,-112.083C271,-105.006 271,-94.8611 271,-85.9865"/>
<polygon fill="midnightblue" stroke="midnightblue" points="274.5,-85.751 271,-75.7511 267.5,-85.7511 274.5,-85.751"/>
</g>
<!-- Node3 -->
<g id="node4" class="node"><title>Node3</title>
<g id="a_node4"><a xlink:title=" ">
<polygon fill="white" stroke="#bfbfbf" points="83.5,-0.5 83.5,-19.5 132.5,-19.5 132.5,-0.5 83.5,-0.5"/>
<text text-anchor="middle" x="108" y="-7.5" font-family="Helvetica,sans-Serif" font-size="10.00">stdint.h</text>
</a>
</g>
</g>
<!-- Node1&#45;&gt;Node3 -->
<g id="edge8" class="edge"><title>Node1&#45;&gt;Node3</title>
<path fill="none" stroke="midnightblue" d="M235.975,-119.182C203.441,-115.622 155.807,-105.345 127,-76 115.042,-63.8188 110.537,-44.5475 108.876,-30.1462"/>
<polygon fill="midnightblue" stroke="midnightblue" points="112.341,-29.5636 108.067,-19.8693 105.363,-30.1132 112.341,-29.5636"/>
</g>
<!-- Node4 -->
<g id="node5" class="node"><title>Node4</title>
<g id="a_node5"><a xlink:href="../../dc/d50/Frequency_8hpp.html" target="_top" xlink:title=" ">
<polygon fill="white" stroke="black" points="136.5,-56.5 136.5,-75.5 217.5,-75.5 217.5,-56.5 136.5,-56.5"/>
<text text-anchor="middle" x="177" y="-63.5" font-family="Helvetica,sans-Serif" font-size="10.00">Frequency.hpp</text>
</a>
</g>
</g>
<!-- Node1&#45;&gt;Node4 -->
<g id="edge4" class="edge"><title>Node1&#45;&gt;Node4</title>
<path fill="none" stroke="midnightblue" d="M255.897,-112.324C241.097,-103.822 218.306,-90.7288 201.018,-80.7975"/>
<polygon fill="midnightblue" stroke="midnightblue" points="202.48,-77.6009 192.065,-75.6545 198.993,-83.6707 202.48,-77.6009"/>
</g>
<!-- Node5 -->
<g id="node6" class="node"><title>Node5</title>
<g id="a_node6"><a xlink:href="../../de/d76/Array_8hpp.html" target="_top" xlink:title=" ">
<polygon fill="white" stroke="black" points="363.5,-56.5 363.5,-75.5 458.5,-75.5 458.5,-56.5 363.5,-56.5"/>
<text text-anchor="middle" x="411" y="-63.5" font-family="Helvetica,sans-Serif" font-size="10.00">Helpers/Array.hpp</text>
</a>
</g>
</g>
<!-- Node1&#45;&gt;Node5 -->
<g id="edge5" class="edge"><title>Node1&#45;&gt;Node5</title>
<path fill="none" stroke="midnightblue" d="M293.183,-112.444C316.428,-103.478 353.149,-89.314 379.415,-79.1827"/>
<polygon fill="midnightblue" stroke="midnightblue" points="380.85,-82.3807 388.92,-75.5164 378.331,-75.8497 380.85,-82.3807"/>
</g>
<!-- Node6 -->
<g id="node7" class="node"><title>Node6</title>
<g id="a_node7"><a xlink:title=" ">
<polygon fill="white" stroke="#bfbfbf" points="385,-0.5 385,-19.5 437,-19.5 437,-0.5 385,-0.5"/>
<text text-anchor="middle" x="411" y="-7.5" font-family="Helvetica,sans-Serif" font-size="10.00">stddef.h</text>
</a>
</g>
</g>
<!-- Node1&#45;&gt;Node6 -->
<g id="edge7" class="edge"><title>Node1&#45;&gt;Node6</title>
<path fill="none" stroke="midnightblue" d="M281.986,-112.368C305.805,-93.6531 362.444,-49.1509 392.122,-25.8324"/>
<polygon fill="midnightblue" stroke="midnightblue" points="394.365,-28.5218 400.065,-19.5914 390.04,-23.0176 394.365,-28.5218"/>
</g>
<!-- Node2&#45;&gt;Node3 -->
<g id="edge3" class="edge"><title>Node2&#45;&gt;Node3</title>
<path fill="none" stroke="midnightblue" d="M245.172,-56.4435C217.428,-47.2522 173.196,-32.5987 142.491,-22.4265"/>
<polygon fill="midnightblue" stroke="midnightblue" points="143.233,-18.9854 132.64,-19.1629 141.032,-25.6302 143.233,-18.9854"/>
</g>
<!-- Node5&#45;&gt;Node6 -->
<g id="edge6" class="edge"><title>Node5&#45;&gt;Node6</title>
<path fill="none" stroke="midnightblue" d="M411,-56.083C411,-49.0059 411,-38.8611 411,-29.9865"/>
<polygon fill="midnightblue" stroke="midnightblue" points="414.5,-29.751 411,-19.7511 407.5,-29.7511 414.5,-29.751"/>
</g>
<!-- Node8 -->
<g id="node9" class="node"><title>Node8</title>
<g id="a_node9"><a xlink:href="../../d4/d57/ExtendedIOElement_8hpp.html" target="_top" xlink:title=" ">
<polygon fill="white" stroke="black" points="529.5,-392.5 529.5,-411.5 652.5,-411.5 652.5,-392.5 529.5,-392.5"/>
<text text-anchor="middle" x="591" y="-399.5" font-family="Helvetica,sans-Serif" font-size="10.00">ExtendedIOElement.hpp</text>
</a>
</g>
</g>
<!-- Node7&#45;&gt;Node8 -->
<g id="edge10" class="edge"><title>Node7&#45;&gt;Node8</title>
<path fill="none" stroke="midnightblue" d="M599.393,-448.399C597.91,-440.377 596.035,-430.233 594.433,-421.569"/>
<polygon fill="midnightblue" stroke="midnightblue" points="597.86,-420.855 592.601,-411.658 590.977,-422.127 597.86,-420.855"/>
</g>
<!-- Node16 -->
<g id="node17" class="node"><title>Node16</title>
<g id="a_node17"><a xlink:title=" ">
<polygon fill="white" stroke="#bfbfbf" points="557,-168.5 557,-187.5 615,-187.5 615,-168.5 557,-168.5"/>
<text text-anchor="middle" x="586" y="-175.5" font-family="Helvetica,sans-Serif" font-size="10.00">Arduino.h</text>
</a>
</g>
</g>
<!-- Node7&#45;&gt;Node16 -->
<g id="edge24" class="edge"><title>Node7&#45;&gt;Node16</title>
<path fill="none" stroke="midnightblue" d="M623.821,-448.492C636.32,-439.448 651.384,-426.655 661,-412 677.582,-386.729 681,-377.225 681,-347 681,-347 681,-347 681,-289 681,-245.739 638.392,-211.086 610.245,-192.915"/>
<polygon fill="midnightblue" stroke="midnightblue" points="612.03,-189.903 601.687,-187.604 608.339,-195.851 612.03,-189.903"/>
</g>
<!-- Node8&#45;&gt;Node1 -->
<g id="edge11" class="edge"><title>Node8&#45;&gt;Node1</title>
<path fill="none" stroke="midnightblue" d="M598.45,-392.256C612.829,-374.454 643,-332.191 643,-291 643,-291 643,-291 643,-233 643,-202.902 646.892,-187.541 624,-168 578.611,-129.254 400.692,-123.36 316.122,-122.8"/>
<polygon fill="midnightblue" stroke="midnightblue" points="316.059,-119.3 306.044,-122.756 316.028,-126.3 316.059,-119.3"/>
</g>
<!-- Node9 -->
<g id="node10" class="node"><title>Node9</title>
<g id="a_node10"><a xlink:href="../../de/dd1/LinkedList_8hpp.html" target="_top" xlink:title=" ">
<polygon fill="white" stroke="black" points="459,-336.5 459,-355.5 575,-355.5 575,-336.5 459,-336.5"/>
<text text-anchor="middle" x="517" y="-343.5" font-family="Helvetica,sans-Serif" font-size="10.00">Helpers/LinkedList.hpp</text>
</a>
</g>
</g>
<!-- Node8&#45;&gt;Node9 -->
<g id="edge12" class="edge"><title>Node8&#45;&gt;Node9</title>
<path fill="none" stroke="midnightblue" d="M579.111,-392.324C567.85,-384.107 550.713,-371.602 537.291,-361.807"/>
<polygon fill="midnightblue" stroke="midnightblue" points="539.247,-358.901 529.106,-355.834 535.12,-364.556 539.247,-358.901"/>
</g>
<!-- Node10 -->
<g id="node11" class="node"><title>Node10</title>
<g id="a_node11"><a xlink:href="../../df/dee/Debug_8hpp.html" target="_top" xlink:title=" ">
<polygon fill="white" stroke="black" points="372.5,-280.5 372.5,-299.5 473.5,-299.5 473.5,-280.5 372.5,-280.5"/>
<text text-anchor="middle" x="423" y="-287.5" font-family="Helvetica,sans-Serif" font-size="10.00">Helpers/Debug.hpp</text>
</a>
</g>
</g>
<!-- Node9&#45;&gt;Node10 -->
<g id="edge13" class="edge"><title>Node9&#45;&gt;Node10</title>
<path fill="none" stroke="midnightblue" d="M501.897,-336.324C487.097,-327.822 464.306,-314.729 447.018,-304.797"/>
<polygon fill="midnightblue" stroke="midnightblue" points="448.48,-301.601 438.065,-299.655 444.993,-307.671 448.48,-301.601"/>
</g>
<!-- Node14 -->
<g id="node15" class="node"><title>Node14</title>
<g id="a_node15"><a xlink:title=" ">
<polygon fill="white" stroke="#bfbfbf" points="529,-224.5 529,-243.5 577,-243.5 577,-224.5 529,-224.5"/>
<text text-anchor="middle" x="553" y="-231.5" font-family="Helvetica,sans-Serif" font-size="10.00">stdlib.h</text>
</a>
</g>
</g>
<!-- Node9&#45;&gt;Node14 -->
<g id="edge22" class="edge"><title>Node9&#45;&gt;Node14</title>
<path fill="none" stroke="midnightblue" d="M524.648,-336.414C531.784,-327.849 542.052,-313.986 547,-300 552.262,-285.126 553.575,-267.206 553.678,-253.953"/>
<polygon fill="midnightblue" stroke="midnightblue" points="557.174,-253.647 553.526,-243.7 550.175,-253.751 557.174,-253.647"/>
</g>
<!-- Node17 -->
<g id="node18" class="node"><title>Node17</title>
<g id="a_node18"><a xlink:title=" ">
<polygon fill="white" stroke="#bfbfbf" points="491.5,-280.5 491.5,-299.5 538.5,-299.5 538.5,-280.5 491.5,-280.5"/>
<text text-anchor="middle" x="515" y="-287.5" font-family="Helvetica,sans-Serif" font-size="10.00">iterator</text>
</a>
</g>
</g>
<!-- Node9&#45;&gt;Node17 -->
<g id="edge23" class="edge"><title>Node9&#45;&gt;Node17</title>
<path fill="none" stroke="midnightblue" d="M516.67,-336.083C516.408,-329.006 516.032,-318.861 515.703,-309.986"/>
<polygon fill="midnightblue" stroke="midnightblue" points="519.192,-309.615 515.324,-299.751 512.197,-309.874 519.192,-309.615"/>
</g>
<!-- Node11 -->
<g id="node12" class="node"><title>Node11</title>
<g id="a_node12"><a xlink:href="../../d2/dd5/SettingsWrapper_8hpp.html" target="_top" xlink:title=" ">
<polygon fill="white" stroke="black" points="258.5,-224.5 258.5,-243.5 405.5,-243.5 405.5,-224.5 258.5,-224.5"/>
<text text-anchor="middle" x="332" y="-231.5" font-family="Helvetica,sans-Serif" font-size="10.00">Settings/SettingsWrapper.hpp</text>
</a>
</g>
</g>
<!-- Node10&#45;&gt;Node11 -->
<g id="edge14" class="edge"><title>Node10&#45;&gt;Node11</title>
<path fill="none" stroke="midnightblue" d="M403.264,-280.324C387.395,-271.979 365.571,-259.212 350.143,-249.352"/>
<polygon fill="midnightblue" stroke="midnightblue" points="351.753,-246.222 341.474,-243.655 347.908,-252.072 351.753,-246.222"/>
</g>
<!-- Node10&#45;&gt;Node14 -->
<g id="edge19" class="edge"><title>Node10&#45;&gt;Node14</title>
<path fill="none" stroke="midnightblue" d="M443.599,-280.444C464.993,-271.557 498.681,-257.563 523.024,-247.451"/>
<polygon fill="midnightblue" stroke="midnightblue" points="524.605,-250.585 532.497,-243.516 521.92,-244.12 524.605,-250.585"/>
</g>
<!-- Node15 -->
<g id="node16" class="node"><title>Node15</title>
<g id="a_node16"><a xlink:href="../../dd/d80/PrintStream_8hpp.html" target="_top" xlink:title=" ">
<polygon fill="white" stroke="black" points="423.5,-224.5 423.5,-243.5 510.5,-243.5 510.5,-224.5 423.5,-224.5"/>
<text text-anchor="middle" x="467" y="-231.5" font-family="Helvetica,sans-Serif" font-size="10.00">PrintStream.hpp</text>
</a>
</g>
</g>
<!-- Node10&#45;&gt;Node15 -->
<g id="edge20" class="edge"><title>Node10&#45;&gt;Node15</title>
<path fill="none" stroke="midnightblue" d="M430.266,-280.083C436.545,-272.377 445.788,-261.033 453.431,-251.653"/>
<polygon fill="midnightblue" stroke="midnightblue" points="456.266,-253.714 459.869,-243.751 450.839,-249.293 456.266,-253.714"/>
</g>
<!-- Node11&#45;&gt;Node10 -->
<g id="edge18" class="edge"><title>Node11&#45;&gt;Node10</title>
<path fill="none" stroke="midnightblue" d="M351.695,-243.655C367.554,-251.992 389.378,-264.757 404.817,-274.622"/>
<polygon fill="midnightblue" stroke="midnightblue" points="403.215,-277.757 413.494,-280.324 407.059,-271.907 403.215,-277.757"/>
</g>
<!-- Node12 -->
<g id="node13" class="node"><title>Node12</title>
<g id="a_node13"><a xlink:href="../../db/d02/Settings_8hpp.html" target="_top" xlink:title="All user settings and debugging options can be changed here.">
<polygon fill="white" stroke="black" points="426.5,-168.5 426.5,-187.5 497.5,-187.5 497.5,-168.5 426.5,-168.5"/>
<text text-anchor="middle" x="462" y="-175.5" font-family="Helvetica,sans-Serif" font-size="10.00">Settings.hpp</text>
</a>
</g>
</g>
<!-- Node11&#45;&gt;Node12 -->
<g id="edge15" class="edge"><title>Node11&#45;&gt;Node12</title>
<path fill="none" stroke="midnightblue" d="M352.599,-224.444C373.993,-215.557 407.681,-201.563 432.024,-191.451"/>
<polygon fill="midnightblue" stroke="midnightblue" points="433.605,-194.585 441.497,-187.516 430.92,-188.12 433.605,-194.585"/>
</g>
<!-- Node13 -->
<g id="node14" class="node"><title>Node13</title>
<g id="a_node14"><a xlink:href="../../d9/d98/TeensyUSBTypes_8hpp.html" target="_top" xlink:title=" ">
<polygon fill="white" stroke="black" points="256,-168.5 256,-187.5 408,-187.5 408,-168.5 256,-168.5"/>
<text text-anchor="middle" x="332" y="-175.5" font-family="Helvetica,sans-Serif" font-size="10.00">Helpers/TeensyUSBTypes.hpp</text>
</a>
</g>
</g>
<!-- Node11&#45;&gt;Node13 -->
<g id="edge17" class="edge"><title>Node11&#45;&gt;Node13</title>
<path fill="none" stroke="midnightblue" d="M332,-224.083C332,-217.006 332,-206.861 332,-197.986"/>
<polygon fill="midnightblue" stroke="midnightblue" points="335.5,-197.751 332,-187.751 328.5,-197.751 335.5,-197.751"/>
</g>
<!-- Node12&#45;&gt;Node1 -->
<g id="edge16" class="edge"><title>Node12&#45;&gt;Node1</title>
<path fill="none" stroke="midnightblue" d="M431.735,-168.444C399.045,-159.201 346.818,-144.436 310.817,-134.257"/>
<polygon fill="midnightblue" stroke="midnightblue" points="311.698,-130.869 301.123,-131.516 309.794,-137.605 311.698,-130.869"/>
</g>
<!-- Node15&#45;&gt;Node16 -->
<g id="edge21" class="edge"><title>Node15&#45;&gt;Node16</title>
<path fill="none" stroke="midnightblue" d="M485.856,-224.444C505.266,-215.636 535.73,-201.812 557.965,-191.722"/>
<polygon fill="midnightblue" stroke="midnightblue" points="559.572,-194.836 567.232,-187.516 556.68,-188.462 559.572,-194.836"/>
</g>
<!-- Node18&#45;&gt;Node1 -->
<g id="edge32" class="edge"><title>Node18&#45;&gt;Node1</title>
<path fill="none" stroke="midnightblue" d="M326.606,-453.946C297.014,-438.99 240.027,-404.949 219,-356 186.275,-279.819 236.448,-180.42 259.944,-140.609"/>
<polygon fill="midnightblue" stroke="midnightblue" points="263.08,-142.186 265.276,-131.822 257.096,-138.555 263.08,-142.186"/>
</g>
<!-- Node18&#45;&gt;Node10 -->
<g id="edge33" class="edge"><title>Node18&#45;&gt;Node10</title>
<path fill="none" stroke="midnightblue" d="M363.858,-453.847C379.633,-445.522 401.234,-431.347 412,-412 430.056,-379.552 428.481,-334.513 425.735,-309.543"/>
<polygon fill="midnightblue" stroke="midnightblue" points="429.204,-309.073 424.458,-299.6 422.261,-309.965 429.204,-309.073"/>
</g>
<!-- Node19 -->
<g id="node20" class="node"><title>Node19</title>
<g id="a_node20"><a xlink:href="../../d9/d46/Selectable_8hpp.html" target="_top" xlink:title=" ">
<polygon fill="white" stroke="black" points="78.5,-392.5 78.5,-411.5 159.5,-411.5 159.5,-392.5 78.5,-392.5"/>
<text text-anchor="middle" x="119" y="-399.5" font-family="Helvetica,sans-Serif" font-size="10.00">Selectable.hpp</text>
</a>
</g>
</g>
<!-- Node18&#45;&gt;Node19 -->
<g id="edge26" class="edge"><title>Node18&#45;&gt;Node19</title>
<path fill="none" stroke="midnightblue" d="M312.62,-453.975C272.762,-443.482 204.981,-425.637 161.112,-414.087"/>
<polygon fill="midnightblue" stroke="midnightblue" points="161.882,-410.67 151.32,-411.509 160.1,-417.44 161.882,-410.67"/>
</g>
<!-- Node22 -->
<g id="node23" class="node"><title>Node22</title>
<g id="a_node23"><a xlink:href="../../d4/d93/Updatable_8hpp.html" target="_top" xlink:title=" ">
<polygon fill="white" stroke="black" points="287,-392.5 287,-411.5 403,-411.5 403,-392.5 287,-392.5"/>
<text text-anchor="middle" x="345" y="-399.5" font-family="Helvetica,sans-Serif" font-size="10.00">Helpers/Updatable.hpp</text>
</a>
</g>
</g>
<!-- Node18&#45;&gt;Node22 -->
<g id="edge34" class="edge"><title>Node18&#45;&gt;Node22</title>
<path fill="none" stroke="midnightblue" d="M345,-453.975C345,-445.58 345,-432.481 345,-421.663"/>
<polygon fill="midnightblue" stroke="midnightblue" points="348.5,-421.509 345,-411.509 341.5,-421.509 348.5,-421.509"/>
</g>
<!-- Node19&#45;&gt;Node1 -->
<g id="edge27" class="edge"><title>Node19&#45;&gt;Node1</title>
<path fill="none" stroke="midnightblue" d="M101.542,-392.479C87.5431,-384.788 68.4123,-372.201 57,-356 39.6675,-331.394 38,-321.098 38,-291 38,-291 38,-291 38,-233 38,-150.775 158.125,-129.918 225.87,-124.693"/>
<polygon fill="midnightblue" stroke="midnightblue" points="226.129,-128.183 235.865,-124.006 225.649,-121.2 226.129,-128.183"/>
</g>
<!-- Node19&#45;&gt;Node3 -->
<g id="edge30" class="edge"><title>Node19&#45;&gt;Node3</title>
<path fill="none" stroke="midnightblue" d="M96.8959,-392.442C62.482,-377.501 0,-343.189 0,-291 0,-291 0,-291 0,-121 0,-75.2057 48.2493,-41.486 80.2487,-24.1584"/>
<polygon fill="midnightblue" stroke="midnightblue" points="81.9302,-27.229 89.1878,-19.5104 78.7009,-21.0184 81.9302,-27.229"/>
</g>
<!-- Node20 -->
<g id="node21" class="node"><title>Node20</title>
<g id="a_node21"><a xlink:href="../../d1/d93/Error_8hpp.html" target="_top" xlink:title=" ">
<polygon fill="white" stroke="black" points="228.5,-336.5 228.5,-355.5 321.5,-355.5 321.5,-336.5 228.5,-336.5"/>
<text text-anchor="middle" x="275" y="-343.5" font-family="Helvetica,sans-Serif" font-size="10.00">Helpers/Error.hpp</text>
</a>
</g>
</g>
<!-- Node19&#45;&gt;Node20 -->
<g id="edge28" class="edge"><title>Node19&#45;&gt;Node20</title>
<path fill="none" stroke="midnightblue" d="M143.719,-392.444C169.848,-383.399 211.259,-369.064 240.576,-358.916"/>
<polygon fill="midnightblue" stroke="midnightblue" points="242.092,-362.095 250.397,-355.516 239.802,-355.48 242.092,-362.095"/>
</g>
<!-- Node21 -->
<g id="node22" class="node"><title>Node21</title>
<g id="a_node22"><a xlink:href="../../d7/dd7/Helpers_8hpp.html" target="_top" xlink:title=" ">
<polygon fill="white" stroke="black" points="66,-336.5 66,-355.5 172,-355.5 172,-336.5 66,-336.5"/>
<text text-anchor="middle" x="119" y="-343.5" font-family="Helvetica,sans-Serif" font-size="10.00">Helpers/Helpers.hpp</text>
</a>
</g>
</g>
<!-- Node19&#45;&gt;Node21 -->
<g id="edge31" class="edge"><title>Node19&#45;&gt;Node21</title>
<path fill="none" stroke="midnightblue" d="M119,-392.083C119,-385.006 119,-374.861 119,-365.986"/>
<polygon fill="midnightblue" stroke="midnightblue" points="122.5,-365.751 119,-355.751 115.5,-365.751 122.5,-365.751"/>
</g>
<!-- Node20&#45;&gt;Node10 -->
<g id="edge29" class="edge"><title>Node20&#45;&gt;Node10</title>
<path fill="none" stroke="midnightblue" d="M298.451,-336.444C323.133,-327.438 362.185,-313.189 389.977,-303.049"/>
<polygon fill="midnightblue" stroke="midnightblue" points="391.464,-306.232 399.659,-299.516 389.065,-299.656 391.464,-306.232"/>
</g>
<!-- Node22&#45;&gt;Node1 -->
<g id="edge39" class="edge"><title>Node22&#45;&gt;Node1</title>
<path fill="none" stroke="midnightblue" d="M344.336,-392.118C343.069,-379.146 339.522,-354.545 330,-336 305.116,-287.537 269.146,-294.616 249,-244 236.504,-212.606 238.805,-200.781 247,-168 249.439,-158.245 254.437,-148.29 259.243,-140.231"/>
<polygon fill="midnightblue" stroke="midnightblue" points="262.213,-142.083 264.633,-131.768 256.309,-138.322 262.213,-142.083"/>
</g>
<!-- Node22&#45;&gt;Node6 -->
<g id="edge38" class="edge"><title>Node22&#45;&gt;Node6</title>
<path fill="none" stroke="midnightblue" d="M403.044,-398.251C466.193,-393.911 561.219,-382.976 584,-356 621.856,-311.172 609.184,-277.899 586,-224 576.808,-202.629 562.654,-206.069 548,-188 504.644,-134.539 512.497,-107.651 467,-56 456.852,-44.4795 443.516,-33.6338 432.404,-25.4776"/>
<polygon fill="midnightblue" stroke="midnightblue" points="434.25,-22.4955 424.072,-19.5515 430.192,-28.1998 434.25,-22.4955"/>
</g>
<!-- Node22&#45;&gt;Node9 -->
<g id="edge36" class="edge"><title>Node22&#45;&gt;Node9</title>
<path fill="none" stroke="midnightblue" d="M372.254,-392.444C401.441,-383.28 447.921,-368.688 480.309,-358.519"/>
<polygon fill="midnightblue" stroke="midnightblue" points="481.381,-361.851 489.874,-355.516 479.284,-355.173 481.381,-361.851"/>
</g>
<!-- Node22&#45;&gt;Node11 -->
<g id="edge37" class="edge"><title>Node22&#45;&gt;Node11</title>
<path fill="none" stroke="midnightblue" d="M349.876,-392.372C354.559,-383.552 361.308,-369.299 364,-356 371.512,-318.897 353.979,-276.254 342.01,-252.796"/>
<polygon fill="midnightblue" stroke="midnightblue" points="344.962,-250.893 337.162,-243.722 338.788,-254.192 344.962,-250.893"/>
</g>
<!-- Node22&#45;&gt;Node20 -->
<g id="edge35" class="edge"><title>Node22&#45;&gt;Node20</title>
<path fill="none" stroke="midnightblue" d="M333.753,-392.324C323.203,-384.185 307.199,-371.839 294.558,-362.087"/>
<polygon fill="midnightblue" stroke="midnightblue" points="296.507,-359.171 286.451,-355.834 292.231,-364.713 296.507,-359.171"/>
</g>
</g>
</svg>
