<?xml version="1.0" encoding="UTF-8" standalone="no"?>
<!DOCTYPE svg PUBLIC "-//W3C//DTD SVG 1.1//EN"
 "http://www.w3.org/Graphics/SVG/1.1/DTD/svg11.dtd">
<!-- Generated by graphviz version 2.38.0 (20140413.2041)
 -->
<!-- Title: MIDI_Callbacks::onChannelMessage Pages: 1 -->
<svg width="619pt" height="88pt"
 viewBox="0.00 0.00 619.00 88.00" xmlns="http://www.w3.org/2000/svg" xmlns:xlink="http://www.w3.org/1999/xlink">
<g id="graph0" class="graph" transform="scale(1 1) rotate(0) translate(4 84)">
<title>MIDI_Callbacks::onChannelMessage</title>
<polygon fill="white" stroke="none" points="-4,4 -4,-84 615,-84 615,4 -4,4"/>
<!-- Node1 -->
<g id="node1" class="node"><title>Node1</title>
<g id="a_node1"><a xlink:title=" ">
<polygon fill="#bfbfbf" stroke="black" points="471,-24.5 471,-54.5 611,-54.5 611,-24.5 471,-24.5"/>
<text text-anchor="start" x="479" y="-42.5" font-family="Helvetica,sans-Serif" font-size="10.00">MIDI_Callbacks::onChannel</text>
<text text-anchor="middle" x="541" y="-31.5" font-family="Helvetica,sans-Serif" font-size="10.00">Message</text>
</a>
</g>
</g>
<!-- Node2 -->
<g id="node2" class="node"><title>Node2</title>
<g id="a_node2"><a xlink:href="../../de/d76/classParsing__MIDI__Interface.html#a728bff81c711e74de11236e8b6ce5ce7" target="_top" xlink:title=" ">
<polygon fill="white" stroke="black" points="315,-24.5 315,-54.5 435,-54.5 435,-24.5 315,-24.5"/>
<text text-anchor="start" x="323" y="-42.5" font-family="Helvetica,sans-Serif" font-size="10.00">Parsing_MIDI_Interface</text>
<text text-anchor="middle" x="375" y="-31.5" font-family="Helvetica,sans-Serif" font-size="10.00">::onChannelMessage</text>
</a>
</g>
</g>
<!-- Node1&#45;&gt;Node2 -->
<g id="edge1" class="edge"><title>Node1&#45;&gt;Node2</title>
<path fill="none" stroke="midnightblue" d="M460.814,-39.5C452.165,-39.5 443.475,-39.5 435.128,-39.5"/>
<polygon fill="midnightblue" stroke="midnightblue" points="460.925,-43.0001 470.925,-39.5 460.925,-36.0001 460.925,-43.0001"/>
</g>
<!-- Node3 -->
<g id="node3" class="node"><title>Node3</title>
<g id="a_node3"><a xlink:href="../../de/d76/classParsing__MIDI__Interface.html#a90c1d508903e580cddf9ae95372c6413" target="_top" xlink:title=" ">
<polygon fill="white" stroke="black" points="159,-24.5 159,-54.5 279,-54.5 279,-24.5 159,-24.5"/>
<text text-anchor="start" x="167" y="-42.5" font-family="Helvetica,sans-Serif" font-size="10.00">Parsing_MIDI_Interface</text>
<text text-anchor="middle" x="219" y="-31.5" font-family="Helvetica,sans-Serif" font-size="10.00">::dispatchMIDIEvent</text>
</a>
</g>
</g>
<!-- Node2&#45;&gt;Node3 -->
<g id="edge2" class="edge"><title>Node2&#45;&gt;Node3</title>
<path fill="none" stroke="midnightblue" d="M304.631,-39.5C296.138,-39.5 287.52,-39.5 279.196,-39.5"/>
<polygon fill="midnightblue" stroke="midnightblue" points="304.9,-43.0001 314.9,-39.5 304.9,-36.0001 304.9,-43.0001"/>
</g>
<!-- Node4 -->
<g id="node4" class="node"><title>Node4</title>
<g id="a_node4"><a xlink:href="../../d0/d89/classBluetoothMIDI__Interface.html#a909f59e5057d1599122a66aaf937ea07" target="_top" xlink:title=" ">
<polygon fill="white" stroke="black" points="0,-49.5 0,-79.5 123,-79.5 123,-49.5 0,-49.5"/>
<text text-anchor="start" x="8" y="-67.5" font-family="Helvetica,sans-Serif" font-size="10.00">BluetoothMIDI_Interface</text>
<text text-anchor="middle" x="61.5" y="-56.5" font-family="Helvetica,sans-Serif" font-size="10.00">::parse</text>
</a>
</g>
</g>
<!-- Node3&#45;&gt;Node4 -->
<g id="edge3" class="edge"><title>Node3&#45;&gt;Node4</title>
<path fill="none" stroke="midnightblue" d="M148.805,-50.6246C140.241,-52.0015 131.536,-53.4009 123.114,-54.7549"/>
<polygon fill="midnightblue" stroke="midnightblue" points="149.451,-54.0658 158.769,-49.0227 148.34,-47.1545 149.451,-54.0658"/>
</g>
<!-- Node5 -->
<g id="node5" class="node"><title>Node5</title>
<g id="a_node5"><a xlink:href="../../de/d76/classParsing__MIDI__Interface.html#ad255fae4e87cda134bf93b684f333ae5" target="_top" xlink:title="Read the MIDI interface and call the callback if a message is received.">
<polygon fill="white" stroke="black" points="1.5,-0.5 1.5,-30.5 121.5,-30.5 121.5,-0.5 1.5,-0.5"/>
<text text-anchor="start" x="9.5" y="-18.5" font-family="Helvetica,sans-Serif" font-size="10.00">Parsing_MIDI_Interface</text>
<text text-anchor="middle" x="61.5" y="-7.5" font-family="Helvetica,sans-Serif" font-size="10.00">::update</text>
</a>
</g>
</g>
<!-- Node3&#45;&gt;Node5 -->
<g id="edge4" class="edge"><title>Node3&#45;&gt;Node5</title>
<path fill="none" stroke="midnightblue" d="M148.653,-28.7969C139.612,-27.4015 130.418,-25.9825 121.567,-24.6164"/>
<polygon fill="midnightblue" stroke="midnightblue" points="148.352,-32.2918 158.769,-30.3582 149.419,-25.3737 148.352,-32.2918"/>
</g>
</g>
</svg>
