<?xml version="1.0" encoding="UTF-8" standalone="no"?>
<!DOCTYPE svg PUBLIC "-//W3C//DTD SVG 1.1//EN"
 "http://www.w3.org/Graphics/SVG/1.1/DTD/svg11.dtd">
<!-- Generated by graphviz version 2.38.0 (20140413.2041)
 -->
<!-- Title: MIDIInputElementChannelPressure Pages: 1 -->
<svg width="252pt" height="348pt"
 viewBox="0.00 0.00 252.00 348.00" xmlns="http://www.w3.org/2000/svg" xmlns:xlink="http://www.w3.org/1999/xlink">
<g id="graph0" class="graph" transform="scale(1 1) rotate(0) translate(4 344)">
<title>MIDIInputElementChannelPressure</title>
<polygon fill="white" stroke="none" points="-4,4 -4,-344 248,-344 248,4 -4,4"/>
<!-- Node10 -->
<g id="node1" class="node"><title>Node10</title>
<g id="a_node1"><a xlink:title=" ">
<polygon fill="#bfbfbf" stroke="black" points="-1.42109e-14,-0.5 -1.42109e-14,-134.5 186,-134.5 186,-0.5 -1.42109e-14,-0.5"/>
<text text-anchor="middle" x="93" y="-122.5" font-family="Helvetica,sans-Serif" font-size="10.00">MIDIInputElementChannelPressure</text>
<polyline fill="none" stroke="black" points="-1.42109e-14,-115.5 186,-115.5 "/>
<text text-anchor="middle" x="93" y="-103.5" font-family="Helvetica,sans-Serif" font-size="10.00"> </text>
<polyline fill="none" stroke="black" points="-1.42109e-14,-96.5 186,-96.5 "/>
<text text-anchor="start" x="8" y="-84.5" font-family="Helvetica,sans-Serif" font-size="10.00">+ MIDIInputElementChannelPressure()</text>
<text text-anchor="start" x="8" y="-73.5" font-family="Helvetica,sans-Serif" font-size="10.00">+ ~MIDIInputElementChannel</text>
<text text-anchor="start" x="8" y="-62.5" font-family="Helvetica,sans-Serif" font-size="10.00">Pressure()</text>
<text text-anchor="start" x="8" y="-51.5" font-family="Helvetica,sans-Serif" font-size="10.00">+ beginAll()</text>
<text text-anchor="start" x="8" y="-40.5" font-family="Helvetica,sans-Serif" font-size="10.00">+ resetAll()</text>
<text text-anchor="start" x="8" y="-29.5" font-family="Helvetica,sans-Serif" font-size="10.00">+ updateAll()</text>
<text text-anchor="start" x="8" y="-18.5" font-family="Helvetica,sans-Serif" font-size="10.00">+ updateAllWith()</text>
<text text-anchor="start" x="8" y="-7.5" font-family="Helvetica,sans-Serif" font-size="10.00">&#45; moveDown()</text>
</a>
</g>
</g>
<!-- Node10&#45;&gt;Node10 -->
<g id="edge2" class="edge"><title>Node10&#45;&gt;Node10</title>
<path fill="none" stroke="#404040" d="M186.121,-80.9419C196.953,-78.4611 204,-73.9805 204,-67.5 204,-63.7535 201.645,-60.6754 197.564,-58.2656"/>
<polygon fill="none" stroke="#404040" points="197.384,-58.1993 190.372,-59.883 186.121,-54.0581 193.133,-52.3744 197.384,-58.1993"/>
<text text-anchor="middle" x="224" y="-81.5" font-family="Helvetica,sans-Serif" font-size="10.00"> &#45;last</text>
<text text-anchor="middle" x="224" y="-70.5" font-family="Helvetica,sans-Serif" font-size="10.00">&#45;previous</text>
<text text-anchor="middle" x="224" y="-59.5" font-family="Helvetica,sans-Serif" font-size="10.00">&#45;next</text>
<text text-anchor="middle" x="224" y="-48.5" font-family="Helvetica,sans-Serif" font-size="10.00">&#45;first</text>
</g>
<!-- Node11 -->
<g id="node2" class="node"><title>Node11</title>
<g id="a_node2"><a xlink:href="../../d9/db1/classMIDIInputElement.html" target="_top" xlink:title=" ">
<polygon fill="white" stroke="black" points="34.5,-172.5 34.5,-339.5 151.5,-339.5 151.5,-172.5 34.5,-172.5"/>
<text text-anchor="middle" x="93" y="-327.5" font-family="Helvetica,sans-Serif" font-size="10.00">MIDIInputElement</text>
<polyline fill="none" stroke="black" points="34.5,-320.5 151.5,-320.5 "/>
<text text-anchor="start" x="42.5" y="-308.5" font-family="Helvetica,sans-Serif" font-size="10.00">&#45; baseChannel</text>
<polyline fill="none" stroke="black" points="34.5,-301.5 151.5,-301.5 "/>
<text text-anchor="start" x="42.5" y="-289.5" font-family="Helvetica,sans-Serif" font-size="10.00">+ ~MIDIInputElement()</text>
<text text-anchor="start" x="42.5" y="-278.5" font-family="Helvetica,sans-Serif" font-size="10.00">+ begin()</text>
<text text-anchor="start" x="42.5" y="-267.5" font-family="Helvetica,sans-Serif" font-size="10.00">+ display()</text>
<text text-anchor="start" x="42.5" y="-256.5" font-family="Helvetica,sans-Serif" font-size="10.00">+ update()</text>
<text text-anchor="start" x="42.5" y="-245.5" font-family="Helvetica,sans-Serif" font-size="10.00">+ reset()</text>
<text text-anchor="start" x="42.5" y="-234.5" font-family="Helvetica,sans-Serif" font-size="10.00">+ updateWith()</text>
<text text-anchor="start" x="42.5" y="-223.5" font-family="Helvetica,sans-Serif" font-size="10.00">+ getBaseChannel()</text>
<text text-anchor="start" x="42.5" y="-212.5" font-family="Helvetica,sans-Serif" font-size="10.00"># MIDIInputElement()</text>
<text text-anchor="start" x="42.5" y="-201.5" font-family="Helvetica,sans-Serif" font-size="10.00">&#45; updateImpl()</text>
<text text-anchor="start" x="42.5" y="-190.5" font-family="Helvetica,sans-Serif" font-size="10.00">&#45; matchChannel()</text>
<text text-anchor="start" x="42.5" y="-179.5" font-family="Helvetica,sans-Serif" font-size="10.00">&#45; moveDown()</text>
</a>
</g>
</g>
<!-- Node11&#45;&gt;Node10 -->
<g id="edge1" class="edge"><title>Node11&#45;&gt;Node10</title>
<path fill="none" stroke="midnightblue" d="M93,-162.252C93,-152.896 93,-143.534 93,-134.541"/>
<polygon fill="none" stroke="midnightblue" points="89.5001,-162.384 93,-172.384 96.5001,-162.384 89.5001,-162.384"/>
</g>
</g>
</svg>
