<?xml version="1.0" encoding="UTF-8" standalone="no"?>
<!DOCTYPE svg PUBLIC "-//W3C//DTD SVG 1.1//EN"
 "http://www.w3.org/Graphics/SVG/1.1/DTD/svg11.dtd">
<!-- Generated by graphviz version 2.38.0 (20140413.2041)
 -->
<!-- Title: MIDIButtonMatrix.cpp Pages: 1 -->
<svg width="918pt" height="487pt"
 viewBox="0.00 0.00 918.00 487.00" xmlns="http://www.w3.org/2000/svg" xmlns:xlink="http://www.w3.org/1999/xlink">
<g id="graph0" class="graph" transform="scale(1 1) rotate(0) translate(4 483)">
<title>MIDIButtonMatrix.cpp</title>
<polygon fill="white" stroke="none" points="-4,4 -4,-483 914,-483 914,4 -4,4"/>
<!-- Node0 -->
<g id="node1" class="node"><title>Node0</title>
<g id="a_node1"><a xlink:title=" ">
<polygon fill="#bfbfbf" stroke="black" points="39.5,-459.5 39.5,-478.5 152.5,-478.5 152.5,-459.5 39.5,-459.5"/>
<text text-anchor="middle" x="96" y="-466.5" font-family="Helvetica,sans-Serif" font-size="10.00">MIDIButtonMatrix.cpp</text>
</a>
</g>
</g>
<!-- Node1 -->
<g id="node2" class="node"><title>Node1</title>
<g id="a_node2"><a xlink:href="../../d7/d33/Abstract_2MIDIButtonMatrix_8hpp.html" target="_top" xlink:title=" ">
<polygon fill="white" stroke="black" points="39.5,-403.5 39.5,-422.5 152.5,-422.5 152.5,-403.5 39.5,-403.5"/>
<text text-anchor="middle" x="96" y="-410.5" font-family="Helvetica,sans-Serif" font-size="10.00">MIDIButtonMatrix.hpp</text>
</a>
</g>
</g>
<!-- Node0&#45;&gt;Node1 -->
<g id="edge1" class="edge"><title>Node0&#45;&gt;Node1</title>
<path fill="none" stroke="midnightblue" d="M96,-459.083C96,-452.006 96,-441.861 96,-432.986"/>
<polygon fill="midnightblue" stroke="midnightblue" points="99.5001,-432.751 96,-422.751 92.5001,-432.751 99.5001,-432.751"/>
</g>
<!-- Node2 -->
<g id="node3" class="node"><title>Node2</title>
<g id="a_node3"><a xlink:href="../../d0/d4e/Def_8hpp.html" target="_top" xlink:title=" ">
<polygon fill="white" stroke="black" points="249,-112.5 249,-131.5 319,-131.5 319,-112.5 249,-112.5"/>
<text text-anchor="middle" x="284" y="-119.5" font-family="Helvetica,sans-Serif" font-size="10.00">Def/Def.hpp</text>
</a>
</g>
</g>
<!-- Node1&#45;&gt;Node2 -->
<g id="edge2" class="edge"><title>Node1&#45;&gt;Node2</title>
<path fill="none" stroke="midnightblue" d="M81.8349,-403.3C55.1309,-385.686 0,-343.022 0,-291 0,-291 0,-291 0,-233 0,-182.46 158.367,-146.062 238.581,-130.867"/>
<polygon fill="midnightblue" stroke="midnightblue" points="239.7,-134.219 248.891,-128.95 238.42,-127.337 239.7,-134.219"/>
</g>
<!-- Node8 -->
<g id="node9" class="node"><title>Node8</title>
<g id="a_node9"><a xlink:href="../../d9/d4b/ButtonMatrix_8hpp.html" target="_top" xlink:title=" ">
<polygon fill="white" stroke="black" points="28,-280.5 28,-299.5 164,-299.5 164,-280.5 28,-280.5"/>
<text text-anchor="middle" x="96" y="-287.5" font-family="Helvetica,sans-Serif" font-size="10.00">Hardware/ButtonMatrix.hpp</text>
</a>
</g>
</g>
<!-- Node1&#45;&gt;Node8 -->
<g id="edge10" class="edge"><title>Node1&#45;&gt;Node8</title>
<path fill="none" stroke="midnightblue" d="M96,-403.298C96,-383.85 96,-336.49 96,-309.904"/>
<polygon fill="midnightblue" stroke="midnightblue" points="99.5001,-309.623 96,-299.623 92.5001,-309.623 99.5001,-309.623"/>
</g>
<!-- Node16 -->
<g id="node17" class="node"><title>Node16</title>
<g id="a_node17"><a xlink:href="../../d1/d41/MIDIOutputElement_8hpp.html" target="_top" xlink:title=" ">
<polygon fill="white" stroke="black" points="148.5,-336.5 148.5,-366.5 273.5,-366.5 273.5,-336.5 148.5,-336.5"/>
<text text-anchor="start" x="156.5" y="-354.5" font-family="Helvetica,sans-Serif" font-size="10.00">MIDI_Outputs/Abstract</text>
<text text-anchor="middle" x="211" y="-343.5" font-family="Helvetica,sans-Serif" font-size="10.00">/MIDIOutputElement.hpp</text>
</a>
</g>
</g>
<!-- Node1&#45;&gt;Node16 -->
<g id="edge21" class="edge"><title>Node1&#45;&gt;Node16</title>
<path fill="none" stroke="midnightblue" d="M112.477,-403.475C128.707,-395.078 154.036,-381.973 174.947,-371.153"/>
<polygon fill="midnightblue" stroke="midnightblue" points="176.623,-374.227 183.897,-366.523 173.407,-368.01 176.623,-374.227"/>
</g>
<!-- Node3 -->
<g id="node4" class="node"><title>Node3</title>
<g id="a_node4"><a xlink:href="../../d7/d42/Channel_8hpp.html" target="_top" xlink:title=" ">
<polygon fill="white" stroke="black" points="184.5,-56.5 184.5,-75.5 255.5,-75.5 255.5,-56.5 184.5,-56.5"/>
<text text-anchor="middle" x="220" y="-63.5" font-family="Helvetica,sans-Serif" font-size="10.00">Channel.hpp</text>
</a>
</g>
</g>
<!-- Node2&#45;&gt;Node3 -->
<g id="edge3" class="edge"><title>Node2&#45;&gt;Node3</title>
<path fill="none" stroke="midnightblue" d="M273.717,-112.324C264.164,-104.263 249.72,-92.0765 238.216,-82.3695"/>
<polygon fill="midnightblue" stroke="midnightblue" points="240.37,-79.6076 230.47,-75.8339 235.856,-84.9577 240.37,-79.6076"/>
</g>
<!-- Node4 -->
<g id="node5" class="node"><title>Node4</title>
<g id="a_node5"><a xlink:title=" ">
<polygon fill="white" stroke="#bfbfbf" points="163.5,-0.5 163.5,-19.5 212.5,-19.5 212.5,-0.5 163.5,-0.5"/>
<text text-anchor="middle" x="188" y="-7.5" font-family="Helvetica,sans-Serif" font-size="10.00">stdint.h</text>
</a>
</g>
</g>
<!-- Node2&#45;&gt;Node4 -->
<g id="edge9" class="edge"><title>Node2&#45;&gt;Node4</title>
<path fill="none" stroke="midnightblue" d="M248.815,-116.714C223.607,-111.601 191.336,-100.418 175,-76 165.628,-61.9918 171.234,-42.7382 177.748,-28.8254"/>
<polygon fill="midnightblue" stroke="midnightblue" points="180.938,-30.2764 182.45,-19.79 174.729,-27.0448 180.938,-30.2764"/>
</g>
<!-- Node5 -->
<g id="node6" class="node"><title>Node5</title>
<g id="a_node6"><a xlink:href="../../dc/d50/Frequency_8hpp.html" target="_top" xlink:title=" ">
<polygon fill="white" stroke="black" points="312.5,-56.5 312.5,-75.5 393.5,-75.5 393.5,-56.5 312.5,-56.5"/>
<text text-anchor="middle" x="353" y="-63.5" font-family="Helvetica,sans-Serif" font-size="10.00">Frequency.hpp</text>
</a>
</g>
</g>
<!-- Node2&#45;&gt;Node5 -->
<g id="edge5" class="edge"><title>Node2&#45;&gt;Node5</title>
<path fill="none" stroke="midnightblue" d="M295.086,-112.324C305.486,-104.185 321.261,-91.8395 333.722,-82.0874"/>
<polygon fill="midnightblue" stroke="midnightblue" points="335.994,-84.7533 341.712,-75.8339 331.68,-79.2407 335.994,-84.7533"/>
</g>
<!-- Node6 -->
<g id="node7" class="node"><title>Node6</title>
<g id="a_node7"><a xlink:href="../../de/d76/Array_8hpp.html" target="_top" xlink:title=" ">
<polygon fill="white" stroke="black" points="411.5,-56.5 411.5,-75.5 506.5,-75.5 506.5,-56.5 411.5,-56.5"/>
<text text-anchor="middle" x="459" y="-63.5" font-family="Helvetica,sans-Serif" font-size="10.00">Helpers/Array.hpp</text>
</a>
</g>
</g>
<!-- Node2&#45;&gt;Node6 -->
<g id="edge6" class="edge"><title>Node2&#45;&gt;Node6</title>
<path fill="none" stroke="midnightblue" d="M311.729,-112.444C341.426,-103.28 388.716,-88.6876 421.669,-78.5192"/>
<polygon fill="midnightblue" stroke="midnightblue" points="422.877,-81.8094 431.4,-75.5164 420.813,-75.1206 422.877,-81.8094"/>
</g>
<!-- Node7 -->
<g id="node8" class="node"><title>Node7</title>
<g id="a_node8"><a xlink:title=" ">
<polygon fill="white" stroke="#bfbfbf" points="433,-0.5 433,-19.5 485,-19.5 485,-0.5 433,-0.5"/>
<text text-anchor="middle" x="459" y="-7.5" font-family="Helvetica,sans-Serif" font-size="10.00">stddef.h</text>
</a>
</g>
</g>
<!-- Node2&#45;&gt;Node7 -->
<g id="edge8" class="edge"><title>Node2&#45;&gt;Node7</title>
<path fill="none" stroke="midnightblue" d="M284.027,-112.091C284.565,-98.1682 287.676,-71.2695 303,-56 334.757,-24.3556 387.268,-14.6617 422.487,-11.858"/>
<polygon fill="midnightblue" stroke="midnightblue" points="423.066,-15.328 432.82,-11.1924 422.616,-8.34252 423.066,-15.328"/>
</g>
<!-- Node3&#45;&gt;Node4 -->
<g id="edge4" class="edge"><title>Node3&#45;&gt;Node4</title>
<path fill="none" stroke="midnightblue" d="M214.716,-56.083C210.289,-48.6127 203.837,-37.7244 198.382,-28.5199"/>
<polygon fill="midnightblue" stroke="midnightblue" points="201.295,-26.5697 193.186,-19.7511 195.273,-30.1383 201.295,-26.5697"/>
</g>
<!-- Node6&#45;&gt;Node7 -->
<g id="edge7" class="edge"><title>Node6&#45;&gt;Node7</title>
<path fill="none" stroke="midnightblue" d="M459,-56.083C459,-49.0059 459,-38.8611 459,-29.9865"/>
<polygon fill="midnightblue" stroke="midnightblue" points="462.5,-29.751 459,-19.7511 455.5,-29.7511 462.5,-29.751"/>
</g>
<!-- Node8&#45;&gt;Node2 -->
<g id="edge19" class="edge"><title>Node8&#45;&gt;Node2</title>
<path fill="none" stroke="midnightblue" d="M103.13,-280.287C110.27,-271.4 121.402,-257.096 130,-244 151.3,-211.558 143.837,-193.606 173,-168 191.768,-151.522 217.358,-140.6 239.237,-133.649"/>
<polygon fill="midnightblue" stroke="midnightblue" points="240.415,-136.95 248.991,-130.728 238.408,-130.244 240.415,-136.95"/>
</g>
<!-- Node9 -->
<g id="node10" class="node"><title>Node9</title>
<g id="a_node10"><a xlink:href="../../d2/dd5/SettingsWrapper_8hpp.html" target="_top" xlink:title=" ">
<polygon fill="white" stroke="black" points="518.5,-224.5 518.5,-243.5 665.5,-243.5 665.5,-224.5 518.5,-224.5"/>
<text text-anchor="middle" x="592" y="-231.5" font-family="Helvetica,sans-Serif" font-size="10.00">Settings/SettingsWrapper.hpp</text>
</a>
</g>
</g>
<!-- Node8&#45;&gt;Node9 -->
<g id="edge11" class="edge"><title>Node8&#45;&gt;Node9</title>
<path fill="none" stroke="midnightblue" d="M164.186,-281.577C253.819,-271.818 411.217,-254.682 508.067,-244.138"/>
<polygon fill="midnightblue" stroke="midnightblue" points="508.554,-247.606 518.117,-243.044 507.797,-240.647 508.554,-247.606"/>
</g>
<!-- Node15 -->
<g id="node16" class="node"><title>Node15</title>
<g id="a_node16"><a xlink:title=" ">
<polygon fill="white" stroke="#bfbfbf" points="33,-224.5 33,-243.5 121,-243.5 121,-224.5 33,-224.5"/>
<text text-anchor="middle" x="77" y="-231.5" font-family="Helvetica,sans-Serif" font-size="10.00">ButtonMatrix.ipp</text>
</a>
</g>
</g>
<!-- Node8&#45;&gt;Node15 -->
<g id="edge20" class="edge"><title>Node8&#45;&gt;Node15</title>
<path fill="none" stroke="midnightblue" d="M92.8625,-280.083C90.3171,-272.849 86.6438,-262.409 83.4729,-253.397"/>
<polygon fill="midnightblue" stroke="midnightblue" points="86.6998,-252.023 80.0791,-243.751 80.0966,-254.346 86.6998,-252.023"/>
</g>
<!-- Node10 -->
<g id="node11" class="node"><title>Node10</title>
<g id="a_node11"><a xlink:href="../../db/d02/Settings_8hpp.html" target="_top" xlink:title="All user settings and debugging options can be changed here.">
<polygon fill="white" stroke="black" points="435.5,-168.5 435.5,-187.5 506.5,-187.5 506.5,-168.5 435.5,-168.5"/>
<text text-anchor="middle" x="471" y="-175.5" font-family="Helvetica,sans-Serif" font-size="10.00">Settings.hpp</text>
</a>
</g>
</g>
<!-- Node9&#45;&gt;Node10 -->
<g id="edge12" class="edge"><title>Node9&#45;&gt;Node10</title>
<path fill="none" stroke="midnightblue" d="M572.827,-224.444C553.091,-215.636 522.115,-201.812 499.507,-191.722"/>
<polygon fill="midnightblue" stroke="midnightblue" points="500.641,-188.396 490.083,-187.516 497.789,-194.788 500.641,-188.396"/>
</g>
<!-- Node11 -->
<g id="node12" class="node"><title>Node11</title>
<g id="a_node12"><a xlink:href="../../df/dee/Debug_8hpp.html" target="_top" xlink:title=" ">
<polygon fill="white" stroke="black" points="679.5,-168.5 679.5,-187.5 780.5,-187.5 780.5,-168.5 679.5,-168.5"/>
<text text-anchor="middle" x="730" y="-175.5" font-family="Helvetica,sans-Serif" font-size="10.00">Helpers/Debug.hpp</text>
</a>
</g>
</g>
<!-- Node9&#45;&gt;Node11 -->
<g id="edge14" class="edge"><title>Node9&#45;&gt;Node11</title>
<path fill="none" stroke="midnightblue" d="M608.778,-224.444C629.816,-215.438 666.017,-201.189 693.478,-191.049"/>
<polygon fill="midnightblue" stroke="midnightblue" points="694.962,-194.233 703.156,-187.516 692.562,-187.658 694.962,-194.233"/>
</g>
<!-- Node10&#45;&gt;Node2 -->
<g id="edge13" class="edge"><title>Node10&#45;&gt;Node2</title>
<path fill="none" stroke="midnightblue" d="M441.369,-168.444C409.5,-159.241 358.667,-144.562 323.436,-134.388"/>
<polygon fill="midnightblue" stroke="midnightblue" points="324.071,-130.928 313.492,-131.516 322.128,-137.653 324.071,-130.928"/>
</g>
<!-- Node11&#45;&gt;Node9 -->
<g id="edge15" class="edge"><title>Node11&#45;&gt;Node9</title>
<path fill="none" stroke="midnightblue" d="M713.316,-187.516C692.322,-196.506 656.131,-210.754 628.644,-220.906"/>
<polygon fill="midnightblue" stroke="midnightblue" points="627.148,-217.726 618.955,-224.444 629.549,-224.301 627.148,-217.726"/>
</g>
<!-- Node12 -->
<g id="node13" class="node"><title>Node12</title>
<g id="a_node13"><a xlink:title=" ">
<polygon fill="white" stroke="#bfbfbf" points="801,-112.5 801,-131.5 849,-131.5 849,-112.5 801,-112.5"/>
<text text-anchor="middle" x="825" y="-119.5" font-family="Helvetica,sans-Serif" font-size="10.00">stdlib.h</text>
</a>
</g>
</g>
<!-- Node11&#45;&gt;Node12 -->
<g id="edge16" class="edge"><title>Node11&#45;&gt;Node12</title>
<path fill="none" stroke="midnightblue" d="M745.263,-168.324C760.221,-159.822 783.255,-146.729 800.727,-136.797"/>
<polygon fill="midnightblue" stroke="midnightblue" points="802.81,-139.639 809.774,-131.655 799.351,-133.553 802.81,-139.639"/>
</g>
<!-- Node13 -->
<g id="node14" class="node"><title>Node13</title>
<g id="a_node14"><a xlink:href="../../dd/d80/PrintStream_8hpp.html" target="_top" xlink:title=" ">
<polygon fill="white" stroke="black" points="686.5,-112.5 686.5,-131.5 773.5,-131.5 773.5,-112.5 686.5,-112.5"/>
<text text-anchor="middle" x="730" y="-119.5" font-family="Helvetica,sans-Serif" font-size="10.00">PrintStream.hpp</text>
</a>
</g>
</g>
<!-- Node11&#45;&gt;Node13 -->
<g id="edge17" class="edge"><title>Node11&#45;&gt;Node13</title>
<path fill="none" stroke="midnightblue" d="M730,-168.083C730,-161.006 730,-150.861 730,-141.986"/>
<polygon fill="midnightblue" stroke="midnightblue" points="733.5,-141.751 730,-131.751 726.5,-141.751 733.5,-141.751"/>
</g>
<!-- Node14 -->
<g id="node15" class="node"><title>Node14</title>
<g id="a_node15"><a xlink:title=" ">
<polygon fill="white" stroke="#bfbfbf" points="701,-56.5 701,-75.5 759,-75.5 759,-56.5 701,-56.5"/>
<text text-anchor="middle" x="730" y="-63.5" font-family="Helvetica,sans-Serif" font-size="10.00">Arduino.h</text>
</a>
</g>
</g>
<!-- Node13&#45;&gt;Node14 -->
<g id="edge18" class="edge"><title>Node13&#45;&gt;Node14</title>
<path fill="none" stroke="midnightblue" d="M730,-112.083C730,-105.006 730,-94.8611 730,-85.9865"/>
<polygon fill="midnightblue" stroke="midnightblue" points="733.5,-85.751 730,-75.7511 726.5,-85.7511 733.5,-85.751"/>
</g>
<!-- Node16&#45;&gt;Node2 -->
<g id="edge22" class="edge"><title>Node16&#45;&gt;Node2</title>
<path fill="none" stroke="midnightblue" d="M205.995,-336.488C195.391,-304.211 174.137,-223.168 206,-168 214.677,-152.977 230.487,-142.523 245.617,-135.499"/>
<polygon fill="midnightblue" stroke="midnightblue" points="247.047,-138.694 254.879,-131.559 244.307,-132.253 247.047,-138.694"/>
</g>
<!-- Node17 -->
<g id="node18" class="node"><title>Node17</title>
<g id="a_node18"><a xlink:href="../../d8/d38/MIDICNChannelAddress_8hpp.html" target="_top" xlink:title=" ">
<polygon fill="white" stroke="black" points="215.5,-168.5 215.5,-187.5 378.5,-187.5 378.5,-168.5 215.5,-168.5"/>
<text text-anchor="middle" x="297" y="-175.5" font-family="Helvetica,sans-Serif" font-size="10.00">Def/MIDICNChannelAddress.hpp</text>
</a>
</g>
</g>
<!-- Node16&#45;&gt;Node17 -->
<g id="edge23" class="edge"><title>Node16&#45;&gt;Node17</title>
<path fill="none" stroke="midnightblue" d="M218.038,-336.465C233.598,-305.436 270.899,-231.049 288.071,-196.806"/>
<polygon fill="midnightblue" stroke="midnightblue" points="291.354,-198.068 292.708,-187.56 285.096,-194.93 291.354,-198.068"/>
</g>
<!-- Node18 -->
<g id="node19" class="node"><title>Node18</title>
<g id="a_node19"><a xlink:href="../../d4/d93/Updatable_8hpp.html" target="_top" xlink:title=" ">
<polygon fill="white" stroke="black" points="483,-280.5 483,-299.5 599,-299.5 599,-280.5 483,-280.5"/>
<text text-anchor="middle" x="541" y="-287.5" font-family="Helvetica,sans-Serif" font-size="10.00">Helpers/Updatable.hpp</text>
</a>
</g>
</g>
<!-- Node16&#45;&gt;Node18 -->
<g id="edge25" class="edge"><title>Node16&#45;&gt;Node18</title>
<path fill="none" stroke="midnightblue" d="M273.847,-339.168C334.269,-328.274 424.82,-311.948 483.412,-301.383"/>
<polygon fill="midnightblue" stroke="midnightblue" points="484.387,-304.764 493.607,-299.545 483.145,-297.875 484.387,-304.764"/>
</g>
<!-- Node17&#45;&gt;Node2 -->
<g id="edge24" class="edge"><title>Node17&#45;&gt;Node2</title>
<path fill="none" stroke="midnightblue" d="M294.853,-168.083C293.131,-160.927 290.653,-150.635 288.5,-141.691"/>
<polygon fill="midnightblue" stroke="midnightblue" points="291.85,-140.654 286.107,-131.751 285.045,-142.293 291.85,-140.654"/>
</g>
<!-- Node18&#45;&gt;Node2 -->
<g id="edge33" class="edge"><title>Node18&#45;&gt;Node2</title>
<path fill="none" stroke="midnightblue" d="M527.774,-280.414C514.441,-271.626 493.4,-257.397 476,-244 434.786,-212.267 431.088,-195.601 387,-168 365.536,-154.563 339.367,-143.186 318.778,-135.233"/>
<polygon fill="midnightblue" stroke="midnightblue" points="319.755,-131.861 309.164,-131.61 317.287,-138.412 319.755,-131.861"/>
</g>
<!-- Node18&#45;&gt;Node7 -->
<g id="edge32" class="edge"><title>Node18&#45;&gt;Node7</title>
<path fill="none" stroke="midnightblue" d="M532.249,-280.286C524.437,-271.84 513.549,-258.246 509,-244 501.386,-220.155 512.935,-212.946 515,-188 519.839,-129.533 540.356,-108.904 515,-56 508.747,-42.9542 496.664,-32.4921 485.318,-24.9506"/>
<polygon fill="midnightblue" stroke="midnightblue" points="486.854,-21.7869 476.502,-19.5351 483.191,-27.7515 486.854,-21.7869"/>
</g>
<!-- Node18&#45;&gt;Node9 -->
<g id="edge31" class="edge"><title>Node18&#45;&gt;Node9</title>
<path fill="none" stroke="midnightblue" d="M549.422,-280.083C556.848,-272.22 567.852,-260.569 576.812,-251.081"/>
<polygon fill="midnightblue" stroke="midnightblue" points="579.413,-253.424 583.735,-243.751 574.324,-248.618 579.413,-253.424"/>
</g>
<!-- Node19 -->
<g id="node20" class="node"><title>Node19</title>
<g id="a_node20"><a xlink:href="../../d1/d93/Error_8hpp.html" target="_top" xlink:title=" ">
<polygon fill="white" stroke="black" points="683.5,-224.5 683.5,-243.5 776.5,-243.5 776.5,-224.5 683.5,-224.5"/>
<text text-anchor="middle" x="730" y="-231.5" font-family="Helvetica,sans-Serif" font-size="10.00">Helpers/Error.hpp</text>
</a>
</g>
</g>
<!-- Node18&#45;&gt;Node19 -->
<g id="edge26" class="edge"><title>Node18&#45;&gt;Node19</title>
<path fill="none" stroke="midnightblue" d="M570.948,-280.444C603.158,-271.241 654.534,-256.562 690.142,-246.388"/>
<polygon fill="midnightblue" stroke="midnightblue" points="691.539,-249.629 700.192,-243.516 689.616,-242.898 691.539,-249.629"/>
</g>
<!-- Node20 -->
<g id="node21" class="node"><title>Node20</title>
<g id="a_node21"><a xlink:href="../../de/dd1/LinkedList_8hpp.html" target="_top" xlink:title=" ">
<polygon fill="white" stroke="black" points="794,-224.5 794,-243.5 910,-243.5 910,-224.5 794,-224.5"/>
<text text-anchor="middle" x="852" y="-231.5" font-family="Helvetica,sans-Serif" font-size="10.00">Helpers/LinkedList.hpp</text>
</a>
</g>
</g>
<!-- Node18&#45;&gt;Node20 -->
<g id="edge28" class="edge"><title>Node18&#45;&gt;Node20</title>
<path fill="none" stroke="midnightblue" d="M590.279,-280.444C645.328,-270.885 734.399,-255.419 793.084,-245.23"/>
<polygon fill="midnightblue" stroke="midnightblue" points="793.698,-248.676 802.952,-243.516 792.5,-241.779 793.698,-248.676"/>
</g>
<!-- Node19&#45;&gt;Node11 -->
<g id="edge27" class="edge"><title>Node19&#45;&gt;Node11</title>
<path fill="none" stroke="midnightblue" d="M730,-224.083C730,-217.006 730,-206.861 730,-197.986"/>
<polygon fill="midnightblue" stroke="midnightblue" points="733.5,-197.751 730,-187.751 726.5,-197.751 733.5,-197.751"/>
</g>
<!-- Node20&#45;&gt;Node11 -->
<g id="edge29" class="edge"><title>Node20&#45;&gt;Node11</title>
<path fill="none" stroke="midnightblue" d="M832.669,-224.444C812.68,-215.596 781.257,-201.687 758.436,-191.586"/>
<polygon fill="midnightblue" stroke="midnightblue" points="759.802,-188.363 749.241,-187.516 756.968,-194.764 759.802,-188.363"/>
</g>
<!-- Node20&#45;&gt;Node12 -->
<g id="edge30" class="edge"><title>Node20&#45;&gt;Node12</title>
<path fill="none" stroke="midnightblue" d="M849.881,-224.368C845.524,-206.617 835.473,-165.666 829.565,-141.597"/>
<polygon fill="midnightblue" stroke="midnightblue" points="832.892,-140.469 827.109,-131.591 826.094,-142.137 832.892,-140.469"/>
</g>
</g>
</svg>
