<?xml version="1.0" encoding="UTF-8" standalone="no"?>
<!DOCTYPE svg PUBLIC "-//W3C//DTD SVG 1.1//EN"
 "http://www.w3.org/Graphics/SVG/1.1/DTD/svg11.dtd">
<!-- Generated by graphviz version 2.38.0 (20140413.2041)
 -->
<!-- Title: CCRotaryEncoder.hpp Pages: 1 -->
<svg width="1053pt" height="677pt"
 viewBox="0.00 0.00 1053.00 677.00" xmlns="http://www.w3.org/2000/svg" xmlns:xlink="http://www.w3.org/1999/xlink">
<g id="graph0" class="graph" transform="scale(1 1) rotate(0) translate(4 673)">
<title>CCRotaryEncoder.hpp</title>
<polygon fill="white" stroke="none" points="-4,4 -4,-673 1049,-673 1049,4 -4,4"/>
<!-- Node1 -->
<g id="node1" class="node"><title>Node1</title>
<g id="a_node1"><a xlink:title=" ">
<polygon fill="#bfbfbf" stroke="black" points="562,-649.5 562,-668.5 678,-668.5 678,-649.5 562,-649.5"/>
<text text-anchor="middle" x="620" y="-656.5" font-family="Helvetica,sans-Serif" font-size="10.00">CCRotaryEncoder.hpp</text>
</a>
</g>
</g>
<!-- Node2 -->
<g id="node2" class="node"><title>Node2</title>
<g id="a_node2"><a xlink:href="../../db/d50/Abstract_2MIDIRotaryEncoder_8hpp.html" target="_top" xlink:title=" ">
<polygon fill="white" stroke="black" points="261.5,-526.5 261.5,-556.5 386.5,-556.5 386.5,-526.5 261.5,-526.5"/>
<text text-anchor="start" x="269.5" y="-544.5" font-family="Helvetica,sans-Serif" font-size="10.00">MIDI_Outputs/Abstract</text>
<text text-anchor="middle" x="324" y="-533.5" font-family="Helvetica,sans-Serif" font-size="10.00">/MIDIRotaryEncoder.hpp</text>
</a>
</g>
</g>
<!-- Node1&#45;&gt;Node2 -->
<g id="edge1" class="edge"><title>Node1&#45;&gt;Node2</title>
<path fill="none" stroke="midnightblue" d="M597.752,-649.319C549.411,-630.456 433.968,-585.41 369.504,-560.256"/>
<polygon fill="midnightblue" stroke="midnightblue" points="370.583,-556.92 359.995,-556.545 368.038,-563.441 370.583,-556.92"/>
</g>
<!-- Node26 -->
<g id="node26" class="node"><title>Node26</title>
<g id="a_node26"><a xlink:href="../../d9/d24/RelativeCCSender_8hpp.html" target="_top" xlink:title=" ">
<polygon fill="white" stroke="black" points="667.5,-593.5 667.5,-612.5 850.5,-612.5 850.5,-593.5 667.5,-593.5"/>
<text text-anchor="middle" x="759" y="-600.5" font-family="Helvetica,sans-Serif" font-size="10.00">MIDI_Senders/RelativeCCSender.hpp</text>
</a>
</g>
</g>
<!-- Node1&#45;&gt;Node26 -->
<g id="edge41" class="edge"><title>Node1&#45;&gt;Node26</title>
<path fill="none" stroke="midnightblue" d="M642.025,-649.444C665.104,-640.478 701.562,-626.314 727.641,-616.183"/>
<polygon fill="midnightblue" stroke="midnightblue" points="729.024,-619.4 737.078,-612.516 726.489,-612.875 729.024,-619.4"/>
</g>
<!-- Node3 -->
<g id="node3" class="node"><title>Node3</title>
<g id="a_node3"><a xlink:href="../../d0/d4e/Def_8hpp.html" target="_top" xlink:title=" ">
<polygon fill="white" stroke="black" points="251,-112.5 251,-131.5 321,-131.5 321,-112.5 251,-112.5"/>
<text text-anchor="middle" x="286" y="-119.5" font-family="Helvetica,sans-Serif" font-size="10.00">Def/Def.hpp</text>
</a>
</g>
</g>
<!-- Node2&#45;&gt;Node3 -->
<g id="edge2" class="edge"><title>Node2&#45;&gt;Node3</title>
<path fill="none" stroke="midnightblue" d="M261.145,-529.217C166.924,-510.488 0,-469.479 0,-414 0,-414 0,-414 0,-233 0,-196.004 20.326,-187.117 52,-168 110.528,-132.676 190.996,-124.205 240.693,-122.638"/>
<polygon fill="midnightblue" stroke="midnightblue" points="240.897,-126.135 250.812,-122.402 240.733,-119.137 240.897,-126.135"/>
</g>
<!-- Node8 -->
<g id="node8" class="node"><title>Node8</title>
<g id="a_node8"><a xlink:href="../../de/d76/Array_8hpp.html" target="_top" xlink:title=" ">
<polygon fill="white" stroke="black" points="700.5,-56.5 700.5,-75.5 795.5,-75.5 795.5,-56.5 700.5,-56.5"/>
<text text-anchor="middle" x="748" y="-63.5" font-family="Helvetica,sans-Serif" font-size="10.00">Helpers/Array.hpp</text>
</a>
</g>
</g>
<!-- Node2&#45;&gt;Node8 -->
<g id="edge15" class="edge"><title>Node2&#45;&gt;Node8</title>
<path fill="none" stroke="midnightblue" d="M386.625,-530.791C498.708,-509.472 722,-447.376 722,-291 722,-291 722,-291 722,-177 722,-143.929 733.268,-106.729 740.968,-85.1685"/>
<polygon fill="midnightblue" stroke="midnightblue" points="744.293,-86.2679 744.494,-75.675 737.731,-83.8308 744.293,-86.2679"/>
</g>
<!-- Node11 -->
<g id="node11" class="node"><title>Node11</title>
<g id="a_node11"><a xlink:title=" ">
<polygon fill="white" stroke="#bfbfbf" points="182.5,-465 182.5,-484 243.5,-484 243.5,-465 182.5,-465"/>
<text text-anchor="middle" x="213" y="-472" font-family="Helvetica,sans-Serif" font-size="10.00">Encoder.h</text>
</a>
</g>
</g>
<!-- Node2&#45;&gt;Node11 -->
<g id="edge14" class="edge"><title>Node2&#45;&gt;Node11</title>
<path fill="none" stroke="midnightblue" d="M299.915,-526.396C281.042,-515.344 254.942,-500.061 236.279,-489.132"/>
<polygon fill="midnightblue" stroke="midnightblue" points="237.925,-486.04 227.527,-484.007 234.388,-492.081 237.925,-486.04"/>
</g>
<!-- Node12 -->
<g id="node12" class="node"><title>Node12</title>
<g id="a_node12"><a xlink:href="../../d1/d41/MIDIOutputElement_8hpp.html" target="_top" xlink:title=" ">
<polygon fill="white" stroke="black" points="261.5,-459.5 261.5,-489.5 386.5,-489.5 386.5,-459.5 261.5,-459.5"/>
<text text-anchor="start" x="269.5" y="-477.5" font-family="Helvetica,sans-Serif" font-size="10.00">MIDI_Outputs/Abstract</text>
<text text-anchor="middle" x="324" y="-466.5" font-family="Helvetica,sans-Serif" font-size="10.00">/MIDIOutputElement.hpp</text>
</a>
</g>
</g>
<!-- Node2&#45;&gt;Node12 -->
<g id="edge16" class="edge"><title>Node2&#45;&gt;Node12</title>
<path fill="none" stroke="midnightblue" d="M324,-526.396C324,-518.645 324,-508.812 324,-499.86"/>
<polygon fill="midnightblue" stroke="midnightblue" points="327.5,-499.576 324,-489.577 320.5,-499.577 327.5,-499.576"/>
</g>
<!-- Node4 -->
<g id="node4" class="node"><title>Node4</title>
<g id="a_node4"><a xlink:href="../../d7/d42/Channel_8hpp.html" target="_top" xlink:title=" ">
<polygon fill="white" stroke="black" points="250.5,-56.5 250.5,-75.5 321.5,-75.5 321.5,-56.5 250.5,-56.5"/>
<text text-anchor="middle" x="286" y="-63.5" font-family="Helvetica,sans-Serif" font-size="10.00">Channel.hpp</text>
</a>
</g>
</g>
<!-- Node3&#45;&gt;Node4 -->
<g id="edge3" class="edge"><title>Node3&#45;&gt;Node4</title>
<path fill="none" stroke="midnightblue" d="M286,-112.083C286,-105.006 286,-94.8611 286,-85.9865"/>
<polygon fill="midnightblue" stroke="midnightblue" points="289.5,-85.751 286,-75.7511 282.5,-85.7511 289.5,-85.751"/>
</g>
<!-- Node5 -->
<g id="node5" class="node"><title>Node5</title>
<g id="a_node5"><a xlink:title=" ">
<polygon fill="white" stroke="#bfbfbf" points="197.5,-0.5 197.5,-19.5 246.5,-19.5 246.5,-0.5 197.5,-0.5"/>
<text text-anchor="middle" x="222" y="-7.5" font-family="Helvetica,sans-Serif" font-size="10.00">stdint.h</text>
</a>
</g>
</g>
<!-- Node3&#45;&gt;Node5 -->
<g id="edge13" class="edge"><title>Node3&#45;&gt;Node5</title>
<path fill="none" stroke="midnightblue" d="M274.392,-112.233C264.196,-103.949 249.673,-90.6382 241,-76 232.479,-61.618 227.562,-43.1602 224.874,-29.5908"/>
<polygon fill="midnightblue" stroke="midnightblue" points="228.286,-28.7839 223.111,-19.5391 221.391,-29.9935 228.286,-28.7839"/>
</g>
<!-- Node6 -->
<g id="node6" class="node"><title>Node6</title>
<g id="a_node6"><a xlink:href="../../dc/dc7/NamespaceSettings_8hpp.html" target="_top" xlink:title=" ">
<polygon fill="white" stroke="black" points="333.5,-0.5 333.5,-19.5 496.5,-19.5 496.5,-0.5 333.5,-0.5"/>
<text text-anchor="middle" x="415" y="-7.5" font-family="Helvetica,sans-Serif" font-size="10.00">Settings/NamespaceSettings.hpp</text>
</a>
</g>
</g>
<!-- Node3&#45;&gt;Node6 -->
<g id="edge11" class="edge"><title>Node3&#45;&gt;Node6</title>
<path fill="none" stroke="midnightblue" d="M321.171,-120.906C354.976,-118.702 404.444,-109.471 429,-76 439,-62.3692 432.977,-43.0612 425.99,-29.0327"/>
<polygon fill="midnightblue" stroke="midnightblue" points="428.848,-26.9676 420.948,-19.9075 422.721,-30.353 428.848,-26.9676"/>
</g>
<!-- Node7 -->
<g id="node7" class="node"><title>Node7</title>
<g id="a_node7"><a xlink:href="../../dc/d50/Frequency_8hpp.html" target="_top" xlink:title=" ">
<polygon fill="white" stroke="black" points="339.5,-56.5 339.5,-75.5 420.5,-75.5 420.5,-56.5 339.5,-56.5"/>
<text text-anchor="middle" x="380" y="-63.5" font-family="Helvetica,sans-Serif" font-size="10.00">Frequency.hpp</text>
</a>
</g>
</g>
<!-- Node3&#45;&gt;Node7 -->
<g id="edge6" class="edge"><title>Node3&#45;&gt;Node7</title>
<path fill="none" stroke="midnightblue" d="M301.103,-112.324C315.903,-103.822 338.694,-90.7288 355.982,-80.7975"/>
<polygon fill="midnightblue" stroke="midnightblue" points="358.007,-83.6707 364.935,-75.6545 354.52,-77.6009 358.007,-83.6707"/>
</g>
<!-- Node3&#45;&gt;Node8 -->
<g id="edge8" class="edge"><title>Node3&#45;&gt;Node8</title>
<path fill="none" stroke="midnightblue" d="M321.104,-116.897C400.24,-107.647 593.196,-85.094 690.25,-73.75"/>
<polygon fill="midnightblue" stroke="midnightblue" points="690.941,-77.1932 700.467,-72.5558 690.128,-70.2405 690.941,-77.1932"/>
</g>
<!-- Node10 -->
<g id="node10" class="node"><title>Node10</title>
<g id="a_node10"><a xlink:title=" ">
<polygon fill="white" stroke="#bfbfbf" points="617,-0.5 617,-19.5 669,-19.5 669,-0.5 617,-0.5"/>
<text text-anchor="middle" x="643" y="-7.5" font-family="Helvetica,sans-Serif" font-size="10.00">stddef.h</text>
</a>
</g>
</g>
<!-- Node3&#45;&gt;Node10 -->
<g id="edge12" class="edge"><title>Node3&#45;&gt;Node10</title>
<path fill="none" stroke="midnightblue" d="M317.997,-112.451C350.384,-103.693 401.845,-89.4865 446,-76 503.352,-58.4829 569.437,-36.2551 608.633,-22.8547"/>
<polygon fill="midnightblue" stroke="midnightblue" points="609.909,-26.1175 618.235,-19.5649 607.64,-19.4954 609.909,-26.1175"/>
</g>
<!-- Node4&#45;&gt;Node5 -->
<g id="edge4" class="edge"><title>Node4&#45;&gt;Node5</title>
<path fill="none" stroke="midnightblue" d="M275.717,-56.324C266.164,-48.2631 251.72,-36.0765 240.216,-26.3695"/>
<polygon fill="midnightblue" stroke="midnightblue" points="242.37,-23.6076 232.47,-19.8339 237.856,-28.9577 242.37,-23.6076"/>
</g>
<!-- Node4&#45;&gt;Node6 -->
<g id="edge5" class="edge"><title>Node4&#45;&gt;Node6</title>
<path fill="none" stroke="midnightblue" d="M306.44,-56.4435C327.67,-47.5566 361.099,-33.5632 385.255,-23.4514"/>
<polygon fill="midnightblue" stroke="midnightblue" points="386.782,-26.6064 394.655,-19.5164 384.079,-20.1493 386.782,-26.6064"/>
</g>
<!-- Node7&#45;&gt;Node6 -->
<g id="edge7" class="edge"><title>Node7&#45;&gt;Node6</title>
<path fill="none" stroke="midnightblue" d="M385.78,-56.083C390.672,-48.5341 397.827,-37.4948 403.833,-28.2298"/>
<polygon fill="midnightblue" stroke="midnightblue" points="406.826,-30.0463 409.328,-19.7511 400.952,-26.239 406.826,-30.0463"/>
</g>
<!-- Node9 -->
<g id="node9" class="node"><title>Node9</title>
<g id="a_node9"><a xlink:title=" ">
<polygon fill="white" stroke="#bfbfbf" points="847,-0.5 847,-19.5 905,-19.5 905,-0.5 847,-0.5"/>
<text text-anchor="middle" x="876" y="-7.5" font-family="Helvetica,sans-Serif" font-size="10.00">Arduino.h</text>
</a>
</g>
</g>
<!-- Node8&#45;&gt;Node9 -->
<g id="edge9" class="edge"><title>Node8&#45;&gt;Node9</title>
<path fill="none" stroke="midnightblue" d="M768.282,-56.4435C789.347,-47.5566 822.517,-33.5632 846.486,-23.4514"/>
<polygon fill="midnightblue" stroke="midnightblue" points="847.96,-26.6283 855.813,-19.5164 845.239,-20.1787 847.96,-26.6283"/>
</g>
<!-- Node8&#45;&gt;Node10 -->
<g id="edge10" class="edge"><title>Node8&#45;&gt;Node10</title>
<path fill="none" stroke="midnightblue" d="M731.13,-56.324C714.291,-47.6641 688.193,-34.2424 668.762,-24.249"/>
<polygon fill="midnightblue" stroke="midnightblue" points="670.322,-21.1155 659.828,-19.6545 667.12,-27.3405 670.322,-21.1155"/>
</g>
<!-- Node12&#45;&gt;Node3 -->
<g id="edge17" class="edge"><title>Node12&#45;&gt;Node3</title>
<path fill="none" stroke="midnightblue" d="M261.236,-460.176C177.047,-440.462 38,-400.618 38,-352.5 38,-352.5 38,-352.5 38,-233 38,-145.234 169.391,-126.955 240.9,-123.506"/>
<polygon fill="midnightblue" stroke="midnightblue" points="241.143,-126.999 250.994,-123.098 240.86,-120.005 241.143,-126.999"/>
</g>
<!-- Node13 -->
<g id="node13" class="node"><title>Node13</title>
<g id="a_node13"><a xlink:href="../../d8/d38/MIDICNChannelAddress_8hpp.html" target="_top" xlink:title=" ">
<polygon fill="white" stroke="black" points="66.5,-280.5 66.5,-299.5 229.5,-299.5 229.5,-280.5 66.5,-280.5"/>
<text text-anchor="middle" x="148" y="-287.5" font-family="Helvetica,sans-Serif" font-size="10.00">Def/MIDICNChannelAddress.hpp</text>
</a>
</g>
</g>
<!-- Node12&#45;&gt;Node13 -->
<g id="edge18" class="edge"><title>Node12&#45;&gt;Node13</title>
<path fill="none" stroke="midnightblue" d="M310.482,-459.483C278.439,-426.256 197.999,-342.846 163.792,-307.375"/>
<polygon fill="midnightblue" stroke="midnightblue" points="165.966,-304.587 156.505,-299.819 160.927,-309.446 165.966,-304.587"/>
</g>
<!-- Node14 -->
<g id="node14" class="node"><title>Node14</title>
<g id="a_node14"><a xlink:href="../../d4/d93/Updatable_8hpp.html" target="_top" xlink:title=" ">
<polygon fill="white" stroke="black" points="526,-403.5 526,-422.5 642,-422.5 642,-403.5 526,-403.5"/>
<text text-anchor="middle" x="584" y="-410.5" font-family="Helvetica,sans-Serif" font-size="10.00">Helpers/Updatable.hpp</text>
</a>
</g>
</g>
<!-- Node12&#45;&gt;Node14 -->
<g id="edge20" class="edge"><title>Node12&#45;&gt;Node14</title>
<path fill="none" stroke="midnightblue" d="M385.287,-459.475C431.709,-448.851 494.537,-434.473 537.022,-424.751"/>
<polygon fill="midnightblue" stroke="midnightblue" points="537.862,-428.149 546.829,-422.506 536.301,-421.325 537.862,-428.149"/>
</g>
<!-- Node13&#45;&gt;Node3 -->
<g id="edge19" class="edge"><title>Node13&#45;&gt;Node3</title>
<path fill="none" stroke="midnightblue" d="M150.368,-280.367C156.598,-259.002 175.258,-202.871 208,-168 220.939,-154.22 239.054,-143.419 254.571,-135.856"/>
<polygon fill="midnightblue" stroke="midnightblue" points="256.224,-138.948 263.826,-131.569 253.281,-132.596 256.224,-138.948"/>
</g>
<!-- Node14&#45;&gt;Node3 -->
<g id="edge21" class="edge"><title>Node14&#45;&gt;Node3</title>
<path fill="none" stroke="midnightblue" d="M525.751,-409.841C454.963,-405.987 341.212,-395.438 311,-367 247.694,-307.411 269.463,-187.674 280.874,-141.63"/>
<polygon fill="midnightblue" stroke="midnightblue" points="284.296,-142.378 283.431,-131.818 277.522,-140.612 284.296,-142.378"/>
</g>
<!-- Node14&#45;&gt;Node10 -->
<g id="edge40" class="edge"><title>Node14&#45;&gt;Node10</title>
<path fill="none" stroke="midnightblue" d="M584.332,-403.042C584.972,-388.762 586.712,-360.001 591,-336 595.531,-310.635 596.337,-303.886 606,-280 612.864,-263.032 620.215,-261.365 626,-244 649.82,-172.5 643.877,-151.189 649,-76 650.061,-60.4342 648.245,-42.8118 646.34,-29.8466"/>
<polygon fill="midnightblue" stroke="midnightblue" points="649.77,-29.1308 644.713,-19.8206 642.86,-30.2521 649.77,-29.1308"/>
</g>
<!-- Node15 -->
<g id="node15" class="node"><title>Node15</title>
<g id="a_node15"><a xlink:href="../../d1/d93/Error_8hpp.html" target="_top" xlink:title=" ">
<polygon fill="white" stroke="black" points="600.5,-342 600.5,-361 693.5,-361 693.5,-342 600.5,-342"/>
<text text-anchor="middle" x="647" y="-349" font-family="Helvetica,sans-Serif" font-size="10.00">Helpers/Error.hpp</text>
</a>
</g>
</g>
<!-- Node14&#45;&gt;Node15 -->
<g id="edge22" class="edge"><title>Node14&#45;&gt;Node15</title>
<path fill="none" stroke="midnightblue" d="M593.026,-403.475C602.757,-394.285 618.458,-379.456 630.423,-368.156"/>
<polygon fill="midnightblue" stroke="midnightblue" points="633.123,-370.42 637.99,-361.009 628.317,-365.331 633.123,-370.42"/>
</g>
<!-- Node17 -->
<g id="node17" class="node"><title>Node17</title>
<g id="a_node17"><a xlink:href="../../d2/dd5/SettingsWrapper_8hpp.html" target="_top" xlink:title=" ">
<polygon fill="white" stroke="black" points="470.5,-224.5 470.5,-243.5 617.5,-243.5 617.5,-224.5 470.5,-224.5"/>
<text text-anchor="middle" x="544" y="-231.5" font-family="Helvetica,sans-Serif" font-size="10.00">Settings/SettingsWrapper.hpp</text>
</a>
</g>
</g>
<!-- Node14&#45;&gt;Node17 -->
<g id="edge39" class="edge"><title>Node14&#45;&gt;Node17</title>
<path fill="none" stroke="midnightblue" d="M562.517,-403.36C547.608,-396.09 528.889,-384.117 520,-367 513.65,-354.773 518.396,-349.684 520,-336 523.451,-306.548 532.38,-273.234 538.319,-253.188"/>
<polygon fill="midnightblue" stroke="midnightblue" points="541.697,-254.111 541.258,-243.525 535,-252.074 541.697,-254.111"/>
</g>
<!-- Node22 -->
<g id="node22" class="node"><title>Node22</title>
<g id="a_node22"><a xlink:href="../../de/dd1/LinkedList_8hpp.html" target="_top" xlink:title=" ">
<polygon fill="white" stroke="black" points="750,-342 750,-361 866,-361 866,-342 750,-342"/>
<text text-anchor="middle" x="808" y="-349" font-family="Helvetica,sans-Serif" font-size="10.00">Helpers/LinkedList.hpp</text>
</a>
</g>
</g>
<!-- Node14&#45;&gt;Node22 -->
<g id="edge33" class="edge"><title>Node14&#45;&gt;Node22</title>
<path fill="none" stroke="midnightblue" d="M616.094,-403.475C655.599,-392.982 722.779,-375.137 766.261,-363.587"/>
<polygon fill="midnightblue" stroke="midnightblue" points="767.199,-366.959 775.966,-361.009 765.402,-360.194 767.199,-366.959"/>
</g>
<!-- Node16 -->
<g id="node16" class="node"><title>Node16</title>
<g id="a_node16"><a xlink:href="../../df/dee/Debug_8hpp.html" target="_top" xlink:title=" ">
<polygon fill="white" stroke="black" points="615,-280.5 615,-299.5 679,-299.5 679,-280.5 615,-280.5"/>
<text text-anchor="middle" x="647" y="-287.5" font-family="Helvetica,sans-Serif" font-size="10.00">Debug.hpp</text>
</a>
</g>
</g>
<!-- Node15&#45;&gt;Node16 -->
<g id="edge23" class="edge"><title>Node15&#45;&gt;Node16</title>
<path fill="none" stroke="midnightblue" d="M647,-341.975C647,-333.58 647,-320.481 647,-309.663"/>
<polygon fill="midnightblue" stroke="midnightblue" points="650.5,-309.509 647,-299.509 643.5,-309.509 650.5,-309.509"/>
</g>
<!-- Node16&#45;&gt;Node17 -->
<g id="edge24" class="edge"><title>Node16&#45;&gt;Node17</title>
<path fill="none" stroke="midnightblue" d="M625.591,-280.444C607.446,-271.912 581.906,-258.675 564.139,-248.683"/>
<polygon fill="midnightblue" stroke="midnightblue" points="565.577,-245.472 555.164,-243.516 562.085,-251.539 565.577,-245.472"/>
</g>
<!-- Node21 -->
<g id="node21" class="node"><title>Node21</title>
<g id="a_node21"><a xlink:href="../../dd/d80/PrintStream_8hpp.html" target="_top" xlink:title=" ">
<polygon fill="white" stroke="black" points="755.5,-168.5 755.5,-187.5 842.5,-187.5 842.5,-168.5 755.5,-168.5"/>
<text text-anchor="middle" x="799" y="-175.5" font-family="Helvetica,sans-Serif" font-size="10.00">PrintStream.hpp</text>
</a>
</g>
</g>
<!-- Node16&#45;&gt;Node21 -->
<g id="edge31" class="edge"><title>Node16&#45;&gt;Node21</title>
<path fill="none" stroke="midnightblue" d="M658.927,-280.368C684.899,-261.573 746.811,-216.768 778.918,-193.533"/>
<polygon fill="midnightblue" stroke="midnightblue" points="781.079,-196.29 787.128,-187.591 776.975,-190.619 781.079,-196.29"/>
</g>
<!-- Node17&#45;&gt;Node6 -->
<g id="edge28" class="edge"><title>Node17&#45;&gt;Node6</title>
<path fill="none" stroke="midnightblue" d="M552.751,-224.286C560.563,-215.84 571.451,-202.246 576,-188 582.782,-166.761 567.972,-116.476 565,-112 536.113,-68.4877 481.426,-38.8759 446.669,-23.4734"/>
<polygon fill="midnightblue" stroke="midnightblue" points="448.002,-20.2368 437.433,-19.5061 445.24,-26.6686 448.002,-20.2368"/>
</g>
<!-- Node17&#45;&gt;Node16 -->
<g id="edge30" class="edge"><title>Node17&#45;&gt;Node16</title>
<path fill="none" stroke="midnightblue" d="M565.618,-243.655C583.664,-252.149 608.924,-265.241 626.612,-275.177"/>
<polygon fill="midnightblue" stroke="midnightblue" points="625.152,-278.375 635.566,-280.324 628.64,-272.306 625.152,-278.375"/>
</g>
<!-- Node18 -->
<g id="node18" class="node"><title>Node18</title>
<g id="a_node18"><a xlink:href="../../db/d02/Settings_8hpp.html" target="_top" xlink:title="All user settings and debugging options can be changed here.">
<polygon fill="white" stroke="black" points="496.5,-168.5 496.5,-187.5 567.5,-187.5 567.5,-168.5 496.5,-168.5"/>
<text text-anchor="middle" x="532" y="-175.5" font-family="Helvetica,sans-Serif" font-size="10.00">Settings.hpp</text>
</a>
</g>
</g>
<!-- Node17&#45;&gt;Node18 -->
<g id="edge25" class="edge"><title>Node17&#45;&gt;Node18</title>
<path fill="none" stroke="midnightblue" d="M542.018,-224.083C540.428,-216.927 538.141,-206.635 536.154,-197.691"/>
<polygon fill="midnightblue" stroke="midnightblue" points="539.531,-196.754 533.945,-187.751 532.697,-198.272 539.531,-196.754"/>
</g>
<!-- Node20 -->
<g id="node20" class="node"><title>Node20</title>
<g id="a_node20"><a xlink:href="../../d9/d98/TeensyUSBTypes_8hpp.html" target="_top" xlink:title=" ">
<polygon fill="white" stroke="black" points="326,-168.5 326,-187.5 478,-187.5 478,-168.5 326,-168.5"/>
<text text-anchor="middle" x="402" y="-175.5" font-family="Helvetica,sans-Serif" font-size="10.00">Helpers/TeensyUSBTypes.hpp</text>
</a>
</g>
</g>
<!-- Node17&#45;&gt;Node20 -->
<g id="edge29" class="edge"><title>Node17&#45;&gt;Node20</title>
<path fill="none" stroke="midnightblue" d="M521.5,-224.444C497.923,-215.478 460.678,-201.314 434.036,-191.183"/>
<polygon fill="midnightblue" stroke="midnightblue" points="434.986,-187.8 424.395,-187.516 432.498,-194.342 434.986,-187.8"/>
</g>
<!-- Node18&#45;&gt;Node3 -->
<g id="edge26" class="edge"><title>Node18&#45;&gt;Node3</title>
<path fill="none" stroke="midnightblue" d="M496.492,-169.206C452.858,-159.627 378.766,-143.363 331.134,-132.907"/>
<polygon fill="midnightblue" stroke="midnightblue" points="331.617,-129.43 321.099,-130.705 330.116,-136.267 331.617,-129.43"/>
</g>
<!-- Node19 -->
<g id="node19" class="node"><title>Node19</title>
<g id="a_node19"><a xlink:title=" ">
<polygon fill="white" stroke="#bfbfbf" points="508,-112.5 508,-131.5 556,-131.5 556,-112.5 508,-112.5"/>
<text text-anchor="middle" x="532" y="-119.5" font-family="Helvetica,sans-Serif" font-size="10.00">limits.h</text>
</a>
</g>
</g>
<!-- Node18&#45;&gt;Node19 -->
<g id="edge27" class="edge"><title>Node18&#45;&gt;Node19</title>
<path fill="none" stroke="midnightblue" d="M532,-168.083C532,-161.006 532,-150.861 532,-141.986"/>
<polygon fill="midnightblue" stroke="midnightblue" points="535.5,-141.751 532,-131.751 528.5,-141.751 535.5,-141.751"/>
</g>
<!-- Node21&#45;&gt;Node9 -->
<g id="edge32" class="edge"><title>Node21&#45;&gt;Node9</title>
<path fill="none" stroke="midnightblue" d="M803.14,-168.075C815.365,-141.719 851.472,-63.878 867.808,-28.6608"/>
<polygon fill="midnightblue" stroke="midnightblue" points="870.993,-30.1125 872.026,-19.5681 864.643,-27.1669 870.993,-30.1125"/>
</g>
<!-- Node22&#45;&gt;Node16 -->
<g id="edge34" class="edge"><title>Node22&#45;&gt;Node16</title>
<path fill="none" stroke="midnightblue" d="M784.933,-341.975C757.315,-331.769 710.88,-314.608 679.604,-303.049"/>
<polygon fill="midnightblue" stroke="midnightblue" points="680.618,-299.693 670.025,-299.509 678.191,-306.259 680.618,-299.693"/>
</g>
<!-- Node23 -->
<g id="node23" class="node"><title>Node23</title>
<g id="a_node23"><a xlink:title=" ">
<polygon fill="white" stroke="#bfbfbf" points="750,-224.5 750,-243.5 798,-243.5 798,-224.5 750,-224.5"/>
<text text-anchor="middle" x="774" y="-231.5" font-family="Helvetica,sans-Serif" font-size="10.00">stdlib.h</text>
</a>
</g>
</g>
<!-- Node22&#45;&gt;Node23 -->
<g id="edge35" class="edge"><title>Node22&#45;&gt;Node23</title>
<path fill="none" stroke="midnightblue" d="M809.313,-341.976C811.059,-328.437 813.157,-301.363 806,-280 802.511,-269.586 795.737,-259.481 789.316,-251.494"/>
<polygon fill="midnightblue" stroke="midnightblue" points="791.83,-249.049 782.659,-243.744 786.52,-253.61 791.83,-249.049"/>
</g>
<!-- Node24 -->
<g id="node24" class="node"><title>Node24</title>
<g id="a_node24"><a xlink:href="../../d7/d79/MinMaxFix_8hpp.html" target="_top" xlink:title=" ">
<polygon fill="white" stroke="black" points="816,-224.5 816,-243.5 936,-243.5 936,-224.5 816,-224.5"/>
<text text-anchor="middle" x="876" y="-231.5" font-family="Helvetica,sans-Serif" font-size="10.00">Helpers/MinMaxFix.hpp</text>
</a>
</g>
</g>
<!-- Node22&#45;&gt;Node24 -->
<g id="edge36" class="edge"><title>Node22&#45;&gt;Node24</title>
<path fill="none" stroke="midnightblue" d="M813.111,-341.819C824.236,-322.922 850.832,-277.748 865.626,-252.621"/>
<polygon fill="midnightblue" stroke="midnightblue" points="868.772,-254.175 870.83,-243.782 862.74,-250.624 868.772,-254.175"/>
</g>
<!-- Node25 -->
<g id="node25" class="node"><title>Node25</title>
<g id="a_node25"><a xlink:title=" ">
<polygon fill="white" stroke="#bfbfbf" points="750.5,-280.5 750.5,-299.5 797.5,-299.5 797.5,-280.5 750.5,-280.5"/>
<text text-anchor="middle" x="774" y="-287.5" font-family="Helvetica,sans-Serif" font-size="10.00">iterator</text>
</a>
</g>
</g>
<!-- Node22&#45;&gt;Node25 -->
<g id="edge38" class="edge"><title>Node22&#45;&gt;Node25</title>
<path fill="none" stroke="midnightblue" d="M803.129,-341.975C798.13,-333.227 790.211,-319.369 783.891,-308.309"/>
<polygon fill="midnightblue" stroke="midnightblue" points="786.863,-306.455 778.862,-299.509 780.785,-309.928 786.863,-306.455"/>
</g>
<!-- Node24&#45;&gt;Node9 -->
<g id="edge37" class="edge"><title>Node24&#45;&gt;Node9</title>
<path fill="none" stroke="midnightblue" d="M876,-224.297C876,-191.633 876,-75.8661 876,-29.9573"/>
<polygon fill="midnightblue" stroke="midnightblue" points="879.5,-29.8837 876,-19.8837 872.5,-29.8838 879.5,-29.8837"/>
</g>
<!-- Node26&#45;&gt;Node9 -->
<g id="edge60" class="edge"><title>Node26&#45;&gt;Node9</title>
<path fill="none" stroke="midnightblue" d="M850.672,-598.501C934.326,-589.805 1045,-561.961 1045,-475.5 1045,-475.5 1045,-475.5 1045,-121 1045,-59.2633 964.803,-30.3841 914.899,-18.39"/>
<polygon fill="midnightblue" stroke="midnightblue" points="915.58,-14.9555 905.052,-16.1462 914.025,-21.7806 915.58,-14.9555"/>
</g>
<!-- Node27 -->
<g id="node27" class="node"><title>Node27</title>
<g id="a_node27"><a xlink:href="../../d3/d37/Control__Surface__Class_8hpp.html" target="_top" xlink:title=" ">
<polygon fill="white" stroke="black" points="698,-526.5 698,-556.5 820,-556.5 820,-526.5 698,-526.5"/>
<text text-anchor="start" x="706" y="-544.5" font-family="Helvetica,sans-Serif" font-size="10.00">Control_Surface/Control</text>
<text text-anchor="middle" x="759" y="-533.5" font-family="Helvetica,sans-Serif" font-size="10.00">_Surface_Class.hpp</text>
</a>
</g>
</g>
<!-- Node26&#45;&gt;Node27 -->
<g id="edge42" class="edge"><title>Node26&#45;&gt;Node27</title>
<path fill="none" stroke="midnightblue" d="M759,-593.475C759,-586.471 759,-576.192 759,-566.696"/>
<polygon fill="midnightblue" stroke="midnightblue" points="762.5,-566.523 759,-556.523 755.5,-566.523 762.5,-566.523"/>
</g>
<!-- Node28 -->
<g id="node28" class="node"><title>Node28</title>
<g id="a_node28"><a xlink:href="../../d6/d04/MIDI__Interface_8hpp.html" target="_top" xlink:title=" ">
<polygon fill="white" stroke="black" points="320,-336.5 320,-366.5 432,-366.5 432,-336.5 320,-336.5"/>
<text text-anchor="start" x="328" y="-354.5" font-family="Helvetica,sans-Serif" font-size="10.00">MIDI_Interfaces/MIDI</text>
<text text-anchor="middle" x="376" y="-343.5" font-family="Helvetica,sans-Serif" font-size="10.00">_Interface.hpp</text>
</a>
</g>
</g>
<!-- Node27&#45;&gt;Node28 -->
<g id="edge43" class="edge"><title>Node27&#45;&gt;Node28</title>
<path fill="none" stroke="midnightblue" d="M719.845,-526.431C694.241,-516.895 660.245,-503.595 631,-490 548.946,-451.855 456.285,-399.417 408.448,-371.613"/>
<polygon fill="midnightblue" stroke="midnightblue" points="410.174,-368.568 399.772,-366.555 406.648,-374.615 410.174,-368.568"/>
</g>
<!-- Node30 -->
<g id="node30" class="node"><title>Node30</title>
<g id="a_node30"><a xlink:href="../../d6/dd2/DisplayElement_8hpp.html" target="_top" xlink:title=" ">
<polygon fill="white" stroke="black" points="640,-465 640,-484 780,-484 780,-465 640,-465"/>
<text text-anchor="middle" x="710" y="-472" font-family="Helvetica,sans-Serif" font-size="10.00">Display/DisplayElement.hpp</text>
</a>
</g>
</g>
<!-- Node27&#45;&gt;Node30 -->
<g id="edge51" class="edge"><title>Node27&#45;&gt;Node30</title>
<path fill="none" stroke="midnightblue" d="M748.368,-526.396C740.803,-516.361 730.609,-502.838 722.63,-492.253"/>
<polygon fill="midnightblue" stroke="midnightblue" points="725.369,-490.073 716.554,-484.195 719.779,-494.287 725.369,-490.073"/>
</g>
<!-- Node31 -->
<g id="node31" class="node"><title>Node31</title>
<g id="a_node31"><a xlink:href="../../dc/d77/DisplayInterface_8hpp.html" target="_top" xlink:title=" ">
<polygon fill="white" stroke="black" points="736.5,-403.5 736.5,-422.5 879.5,-422.5 879.5,-403.5 736.5,-403.5"/>
<text text-anchor="middle" x="808" y="-410.5" font-family="Helvetica,sans-Serif" font-size="10.00">Display/DisplayInterface.hpp</text>
</a>
</g>
</g>
<!-- Node27&#45;&gt;Node31 -->
<g id="edge57" class="edge"><title>Node27&#45;&gt;Node31</title>
<path fill="none" stroke="midnightblue" d="M768.831,-526.498C775.344,-516.671 783.643,-503.013 789,-490 796.749,-471.176 801.931,-448.385 804.9,-432.7"/>
<polygon fill="midnightblue" stroke="midnightblue" points="808.375,-433.15 806.675,-422.693 801.482,-431.927 808.375,-433.15"/>
</g>
<!-- Node33 -->
<g id="node33" class="node"><title>Node33</title>
<g id="a_node33"><a xlink:href="../../d7/d74/MillisTimer_8hpp.html" target="_top" xlink:title=" ">
<polygon fill="white" stroke="black" points="897.5,-403.5 897.5,-422.5 1016.5,-422.5 1016.5,-403.5 897.5,-403.5"/>
<text text-anchor="middle" x="957" y="-410.5" font-family="Helvetica,sans-Serif" font-size="10.00">Helpers/MillisTimer.hpp</text>
</a>
</g>
</g>
<!-- Node27&#45;&gt;Node33 -->
<g id="edge58" class="edge"><title>Node27&#45;&gt;Node33</title>
<path fill="none" stroke="midnightblue" d="M780.946,-526.479C818.817,-502.284 896.057,-452.936 934.385,-428.448"/>
<polygon fill="midnightblue" stroke="midnightblue" points="936.701,-431.122 943.244,-422.789 932.933,-425.223 936.701,-431.122"/>
</g>
<!-- Node28&#45;&gt;Node3 -->
<g id="edge44" class="edge"><title>Node28&#45;&gt;Node3</title>
<path fill="none" stroke="midnightblue" d="M355.645,-336.438C343.758,-327.288 329.312,-314.401 320,-300 286.981,-248.936 282.65,-228.794 284,-168 284.191,-159.391 284.588,-149.863 284.978,-141.799"/>
<polygon fill="midnightblue" stroke="midnightblue" points="288.483,-141.79 285.503,-131.623 281.492,-141.429 288.483,-141.79"/>
</g>
<!-- Node28&#45;&gt;Node13 -->
<g id="edge45" class="edge"><title>Node28&#45;&gt;Node13</title>
<path fill="none" stroke="midnightblue" d="M322.256,-336.475C282.062,-325.986 227.845,-311.837 190.619,-302.122"/>
<polygon fill="midnightblue" stroke="midnightblue" points="191.156,-298.645 180.596,-299.506 189.388,-305.418 191.156,-298.645"/>
</g>
<!-- Node29 -->
<g id="node29" class="node"><title>Node29</title>
<g id="a_node29"><a xlink:href="../../d7/d2d/MIDI__Parser_8hpp.html" target="_top" xlink:title=" ">
<polygon fill="white" stroke="black" points="362.5,-280.5 362.5,-299.5 517.5,-299.5 517.5,-280.5 362.5,-280.5"/>
<text text-anchor="middle" x="440" y="-287.5" font-family="Helvetica,sans-Serif" font-size="10.00">MIDI_Parsers/MIDI_Parser.hpp</text>
</a>
</g>
</g>
<!-- Node28&#45;&gt;Node29 -->
<g id="edge46" class="edge"><title>Node28&#45;&gt;Node29</title>
<path fill="none" stroke="midnightblue" d="M391.167,-336.399C400.755,-327.486 413.161,-315.952 423.069,-306.741"/>
<polygon fill="midnightblue" stroke="midnightblue" points="425.747,-309.03 430.687,-299.658 420.98,-303.903 425.747,-309.03"/>
</g>
<!-- Node29&#45;&gt;Node5 -->
<g id="edge48" class="edge"><title>Node29&#45;&gt;Node5</title>
<path fill="none" stroke="midnightblue" d="M422.457,-280.392C383.378,-260.261 288.921,-206.14 242,-132 221.955,-100.328 220.021,-54.9977 220.768,-29.7703"/>
<polygon fill="midnightblue" stroke="midnightblue" points="224.267,-29.8696 221.245,-19.7151 217.275,-29.5382 224.267,-29.8696"/>
</g>
<!-- Node29&#45;&gt;Node10 -->
<g id="edge47" class="edge"><title>Node29&#45;&gt;Node10</title>
<path fill="none" stroke="midnightblue" d="M440.371,-280.112C441.433,-266.219 445.5,-239.359 461,-224 499.043,-186.302 537.038,-224.747 576,-188 622.157,-144.467 636.802,-65.8998 641.213,-29.9205"/>
<polygon fill="midnightblue" stroke="midnightblue" points="644.708,-30.154 642.312,-19.8337 637.749,-29.3956 644.708,-30.154"/>
</g>
<!-- Node29&#45;&gt;Node17 -->
<g id="edge50" class="edge"><title>Node29&#45;&gt;Node17</title>
<path fill="none" stroke="midnightblue" d="M456.709,-280.324C473.312,-271.703 499.002,-258.364 518.22,-248.386"/>
<polygon fill="midnightblue" stroke="midnightblue" points="520.07,-251.369 527.332,-243.655 516.844,-245.156 520.07,-251.369"/>
</g>
<!-- Node29&#45;&gt;Node23 -->
<g id="edge49" class="edge"><title>Node29&#45;&gt;Node23</title>
<path fill="none" stroke="midnightblue" d="M492.923,-280.444C562.016,-269.273 681.012,-250.034 739.503,-240.577"/>
<polygon fill="midnightblue" stroke="midnightblue" points="740.382,-243.981 749.695,-238.93 739.264,-237.071 740.382,-243.981"/>
</g>
<!-- Node30&#45;&gt;Node22 -->
<g id="edge56" class="edge"><title>Node30&#45;&gt;Node22</title>
<path fill="none" stroke="midnightblue" d="M710.045,-464.829C710.533,-450.603 713.299,-421.992 727,-403 739.076,-386.261 758.576,-373.856 775.417,-365.53"/>
<polygon fill="midnightblue" stroke="midnightblue" points="777.357,-368.487 784.949,-361.097 774.405,-362.14 777.357,-368.487"/>
</g>
<!-- Node30&#45;&gt;Node31 -->
<g id="edge52" class="edge"><title>Node30&#45;&gt;Node31</title>
<path fill="none" stroke="midnightblue" d="M724.041,-464.975C740.051,-455.255 766.45,-439.227 785.374,-427.737"/>
<polygon fill="midnightblue" stroke="midnightblue" points="787.254,-430.691 793.985,-422.509 783.621,-424.707 787.254,-430.691"/>
</g>
<!-- Node31&#45;&gt;Node3 -->
<g id="edge53" class="edge"><title>Node31&#45;&gt;Node3</title>
<path fill="none" stroke="midnightblue" d="M763.094,-403.483C654.357,-382.507 383.592,-328.027 353,-300 306.218,-257.14 291.89,-178.231 287.674,-142.042"/>
<polygon fill="midnightblue" stroke="midnightblue" points="291.135,-141.484 286.632,-131.894 284.172,-142.199 291.135,-141.484"/>
</g>
<!-- Node31&#45;&gt;Node22 -->
<g id="edge54" class="edge"><title>Node31&#45;&gt;Node22</title>
<path fill="none" stroke="midnightblue" d="M808,-403.475C808,-395.08 808,-381.981 808,-371.163"/>
<polygon fill="midnightblue" stroke="midnightblue" points="811.5,-371.009 808,-361.009 804.5,-371.009 811.5,-371.009"/>
</g>
<!-- Node32 -->
<g id="node32" class="node"><title>Node32</title>
<g id="a_node32"><a xlink:title=" ">
<polygon fill="white" stroke="#bfbfbf" points="884.5,-342 884.5,-361 929.5,-361 929.5,-342 884.5,-342"/>
<text text-anchor="middle" x="907" y="-349" font-family="Helvetica,sans-Serif" font-size="10.00">Print.h</text>
</a>
</g>
</g>
<!-- Node31&#45;&gt;Node32 -->
<g id="edge55" class="edge"><title>Node31&#45;&gt;Node32</title>
<path fill="none" stroke="midnightblue" d="M822.184,-403.475C838.358,-393.755 865.026,-377.727 884.143,-366.237"/>
<polygon fill="midnightblue" stroke="midnightblue" points="886.074,-369.16 892.842,-361.009 882.468,-363.161 886.074,-369.16"/>
</g>
<!-- Node33&#45;&gt;Node9 -->
<g id="edge59" class="edge"><title>Node33&#45;&gt;Node9</title>
<path fill="none" stroke="midnightblue" d="M957.858,-403.204C959.728,-383.264 964,-333.084 964,-291 964,-291 964,-291 964,-121 964,-79.0325 924.459,-43.9022 898.388,-25.3001"/>
<polygon fill="midnightblue" stroke="midnightblue" points="900.364,-22.4118 890.139,-19.6391 896.403,-28.1834 900.364,-22.4118"/>
</g>
</g>
</svg>
