<?xml version="1.0" encoding="UTF-8" standalone="no"?>
<!DOCTYPE svg PUBLIC "-//W3C//DTD SVG 1.1//EN"
 "http://www.w3.org/Graphics/SVG/1.1/DTD/svg11.dtd">
<!-- Generated by graphviz version 2.38.0 (20140413.2041)
 -->
<!-- Title: Control_Surface_::updateMidiInput Pages: 1 -->
<svg width="873pt" height="160pt"
 viewBox="0.00 0.00 873.00 159.50" xmlns="http://www.w3.org/2000/svg" xmlns:xlink="http://www.w3.org/1999/xlink">
<g id="graph0" class="graph" transform="scale(1 1) rotate(0) translate(4 155.5)">
<title>Control_Surface_::updateMidiInput</title>
<polygon fill="white" stroke="none" points="-4,4 -4,-155.5 869,-155.5 869,4 -4,4"/>
<!-- Node91 -->
<g id="node1" class="node"><title>Node91</title>
<g id="a_node1"><a xlink:title=" ">
<polygon fill="#bfbfbf" stroke="black" points="0,-107.5 0,-137.5 128,-137.5 128,-107.5 0,-107.5"/>
<text text-anchor="start" x="8" y="-125.5" font-family="Helvetica,sans-Serif" font-size="10.00">Control_Surface_::update</text>
<text text-anchor="middle" x="64" y="-114.5" font-family="Helvetica,sans-Serif" font-size="10.00">MidiInput</text>
</a>
</g>
</g>
<!-- Node92 -->
<g id="node2" class="node"><title>Node92</title>
<g id="a_node2"><a xlink:href="../../dc/d45/classControl__Surface__.html#a77ee86088235acc137eb0958051a80ac" target="_top" xlink:title="Get the MIDI interface of the Control Surface.">
<polygon fill="white" stroke="black" points="164,-132 164,-151 284,-151 284,-132 164,-132"/>
<text text-anchor="middle" x="224" y="-139" font-family="Helvetica,sans-Serif" font-size="10.00">Control_Surface_::MIDI</text>
</a>
</g>
</g>
<!-- Node91&#45;&gt;Node92 -->
<g id="edge1" class="edge"><title>Node91&#45;&gt;Node92</title>
<path fill="none" stroke="midnightblue" d="M128.354,-130.119C136.808,-131.135 145.511,-132.182 154.054,-133.209"/>
<polygon fill="midnightblue" stroke="midnightblue" points="153.639,-136.684 163.986,-134.403 154.475,-129.734 153.639,-136.684"/>
</g>
<!-- Node94 -->
<g id="node4" class="node"><title>Node94</title>
<g id="a_node4"><a xlink:href="../../d9/d73/classMIDI__Interface.html#a4cc60259e20bec7d1cf3a62a7a9cfad4" target="_top" xlink:title=" ">
<polygon fill="white" stroke="black" points="165.5,-94 165.5,-113 282.5,-113 282.5,-94 165.5,-94"/>
<text text-anchor="middle" x="224" y="-101" font-family="Helvetica,sans-Serif" font-size="10.00">MIDI_Interface::update</text>
</a>
</g>
</g>
<!-- Node91&#45;&gt;Node94 -->
<g id="edge3" class="edge"><title>Node91&#45;&gt;Node94</title>
<path fill="none" stroke="midnightblue" d="M128.354,-114.881C137.212,-113.816 146.343,-112.718 155.277,-111.644"/>
<polygon fill="midnightblue" stroke="midnightblue" points="155.746,-115.113 165.256,-110.444 154.91,-108.163 155.746,-115.113"/>
</g>
<!-- Node93 -->
<g id="node3" class="node"><title>Node93</title>
<g id="a_node3"><a xlink:href="../../d9/d73/classMIDI__Interface.html#ad61032be4eecf18e9a248f153b5e61a8" target="_top" xlink:title="Return the default MIDI interface.">
<polygon fill="white" stroke="black" points="320,-132 320,-151 453,-151 453,-132 320,-132"/>
<text text-anchor="middle" x="386.5" y="-139" font-family="Helvetica,sans-Serif" font-size="10.00">MIDI_Interface::getDefault</text>
</a>
</g>
</g>
<!-- Node92&#45;&gt;Node93 -->
<g id="edge2" class="edge"><title>Node92&#45;&gt;Node93</title>
<path fill="none" stroke="midnightblue" d="M284.308,-141.5C292.652,-141.5 301.321,-141.5 309.917,-141.5"/>
<polygon fill="midnightblue" stroke="midnightblue" points="309.953,-145 319.953,-141.5 309.953,-138 309.953,-145"/>
</g>
<!-- Node95 -->
<g id="node5" class="node"><title>Node95</title>
<g id="a_node5"><a xlink:href="../../d9/d73/classMIDI__Interface.html#abe06bcd0cff0d52418e3d4d0abce006a" target="_top" xlink:title=" ">
<polygon fill="white" stroke="black" points="333,-94 333,-113 440,-113 440,-94 333,-94"/>
<text text-anchor="middle" x="386.5" y="-101" font-family="Helvetica,sans-Serif" font-size="10.00">MIDI_Interface::read</text>
</a>
</g>
</g>
<!-- Node94&#45;&gt;Node95 -->
<g id="edge4" class="edge"><title>Node94&#45;&gt;Node95</title>
<path fill="none" stroke="midnightblue" d="M282.944,-103.5C295.839,-103.5 309.569,-103.5 322.65,-103.5"/>
<polygon fill="midnightblue" stroke="midnightblue" points="322.974,-107 332.974,-103.5 322.974,-100 322.974,-107"/>
</g>
<!-- Node96 -->
<g id="node6" class="node"><title>Node96</title>
<g id="a_node6"><a xlink:href="../../d9/d73/classMIDI__Interface.html#a58470aacb3262891701b456daadced6d" target="_top" xlink:title=" ">
<polygon fill="white" stroke="black" points="324,-44.5 324,-74.5 449,-74.5 449,-44.5 324,-44.5"/>
<text text-anchor="start" x="332" y="-62.5" font-family="Helvetica,sans-Serif" font-size="10.00">MIDI_Interface::dispatch</text>
<text text-anchor="middle" x="386.5" y="-51.5" font-family="Helvetica,sans-Serif" font-size="10.00">MIDIEvent</text>
</a>
</g>
</g>
<!-- Node94&#45;&gt;Node96 -->
<g id="edge5" class="edge"><title>Node94&#45;&gt;Node96</title>
<path fill="none" stroke="midnightblue" d="M259.826,-93.9527C277.655,-89.0651 299.943,-82.9549 320.779,-77.2429"/>
<polygon fill="midnightblue" stroke="midnightblue" points="321.827,-80.5848 330.546,-74.5654 319.976,-73.8339 321.827,-80.5848"/>
</g>
<!-- Node97 -->
<g id="node7" class="node"><title>Node97</title>
<g id="a_node7"><a xlink:href="../../d9/d73/classMIDI__Interface.html#a98c1745757137226f6b942be1be0a0fc" target="_top" xlink:title=" ">
<polygon fill="white" stroke="black" points="505.5,-88.5 505.5,-118.5 639.5,-118.5 639.5,-88.5 505.5,-88.5"/>
<text text-anchor="start" x="513.5" y="-106.5" font-family="Helvetica,sans-Serif" font-size="10.00">MIDI_Interface::onChannel</text>
<text text-anchor="middle" x="572.5" y="-95.5" font-family="Helvetica,sans-Serif" font-size="10.00">Message</text>
</a>
</g>
</g>
<!-- Node96&#45;&gt;Node97 -->
<g id="edge6" class="edge"><title>Node96&#45;&gt;Node97</title>
<path fill="none" stroke="midnightblue" d="M449.025,-74.2125C464.858,-77.9986 482.048,-82.1092 498.405,-86.0206"/>
<polygon fill="midnightblue" stroke="midnightblue" points="497.922,-89.5038 508.462,-88.4256 499.55,-82.6958 497.922,-89.5038"/>
</g>
<!-- Node99 -->
<g id="node9" class="node"><title>Node99</title>
<g id="a_node9"><a xlink:href="../../d9/d73/classMIDI__Interface.html#a3058e51eff2e68b7480b1c18c1aa8dbd" target="_top" xlink:title=" ">
<polygon fill="white" stroke="black" points="489,-50 489,-69 656,-69 656,-50 489,-50"/>
<text text-anchor="middle" x="572.5" y="-57" font-family="Helvetica,sans-Serif" font-size="10.00">MIDI_Interface::onSysExMessage</text>
</a>
</g>
</g>
<!-- Node96&#45;&gt;Node99 -->
<g id="edge8" class="edge"><title>Node96&#45;&gt;Node99</title>
<path fill="none" stroke="midnightblue" d="M449.025,-59.5C458.584,-59.5 468.639,-59.5 478.705,-59.5"/>
<polygon fill="midnightblue" stroke="midnightblue" points="478.759,-63.0001 488.759,-59.5 478.759,-56.0001 478.759,-63.0001"/>
</g>
<!-- Node101 -->
<g id="node11" class="node"><title>Node101</title>
<g id="a_node11"><a xlink:href="../../d9/d73/classMIDI__Interface.html#a5455d6ad189a4ee548aaaf7065b1b6e1" target="_top" xlink:title=" ">
<polygon fill="white" stroke="black" points="504,-0.5 504,-30.5 641,-30.5 641,-0.5 504,-0.5"/>
<text text-anchor="start" x="512" y="-18.5" font-family="Helvetica,sans-Serif" font-size="10.00">MIDI_Interface::onRealtime</text>
<text text-anchor="middle" x="572.5" y="-7.5" font-family="Helvetica,sans-Serif" font-size="10.00">Message</text>
</a>
</g>
</g>
<!-- Node96&#45;&gt;Node101 -->
<g id="edge10" class="edge"><title>Node96&#45;&gt;Node101</title>
<path fill="none" stroke="midnightblue" d="M449.025,-44.7875C464.858,-41.0014 482.048,-36.8908 498.405,-32.9794"/>
<polygon fill="midnightblue" stroke="midnightblue" points="499.55,-36.3042 508.462,-30.5744 497.922,-29.4962 499.55,-36.3042"/>
</g>
<!-- Node98 -->
<g id="node8" class="node"><title>Node98</title>
<g id="a_node8"><a xlink:href="../../de/d55/classMIDI__Callbacks.html#a9e34bd5a9b4999c18a3d55ef7a53502d" target="_top" xlink:title=" ">
<polygon fill="white" stroke="black" points="708.5,-88.5 708.5,-118.5 848.5,-118.5 848.5,-88.5 708.5,-88.5"/>
<text text-anchor="start" x="716.5" y="-106.5" font-family="Helvetica,sans-Serif" font-size="10.00">MIDI_Callbacks::onChannel</text>
<text text-anchor="middle" x="778.5" y="-95.5" font-family="Helvetica,sans-Serif" font-size="10.00">Message</text>
</a>
</g>
</g>
<!-- Node97&#45;&gt;Node98 -->
<g id="edge7" class="edge"><title>Node97&#45;&gt;Node98</title>
<path fill="none" stroke="midnightblue" d="M639.733,-103.5C658.458,-103.5 679.023,-103.5 698.423,-103.5"/>
<polygon fill="midnightblue" stroke="midnightblue" points="698.445,-107 708.445,-103.5 698.445,-100 698.445,-107"/>
</g>
<!-- Node100 -->
<g id="node10" class="node"><title>Node100</title>
<g id="a_node10"><a xlink:href="../../de/d55/classMIDI__Callbacks.html#aac33c1093979493c5a3ca81c49ce0942" target="_top" xlink:title=" ">
<polygon fill="white" stroke="black" points="692,-50 692,-69 865,-69 865,-50 692,-50"/>
<text text-anchor="middle" x="778.5" y="-57" font-family="Helvetica,sans-Serif" font-size="10.00">MIDI_Callbacks::onSysExMessage</text>
</a>
</g>
</g>
<!-- Node99&#45;&gt;Node100 -->
<g id="edge9" class="edge"><title>Node99&#45;&gt;Node100</title>
<path fill="none" stroke="midnightblue" d="M656.181,-59.5C664.504,-59.5 673.005,-59.5 681.452,-59.5"/>
<polygon fill="midnightblue" stroke="midnightblue" points="681.712,-63.0001 691.712,-59.5 681.712,-56.0001 681.712,-63.0001"/>
</g>
<!-- Node102 -->
<g id="node12" class="node"><title>Node102</title>
<g id="a_node12"><a xlink:href="../../de/d55/classMIDI__Callbacks.html#acd19dca90db2414d72b353f9e4254e9e" target="_top" xlink:title=" ">
<polygon fill="white" stroke="black" points="707,-0.5 707,-30.5 850,-30.5 850,-0.5 707,-0.5"/>
<text text-anchor="start" x="715" y="-18.5" font-family="Helvetica,sans-Serif" font-size="10.00">MIDI_Callbacks::onRealtime</text>
<text text-anchor="middle" x="778.5" y="-7.5" font-family="Helvetica,sans-Serif" font-size="10.00">Message</text>
</a>
</g>
</g>
<!-- Node101&#45;&gt;Node102 -->
<g id="edge11" class="edge"><title>Node101&#45;&gt;Node102</title>
<path fill="none" stroke="midnightblue" d="M641.146,-15.5C658.956,-15.5 678.349,-15.5 696.772,-15.5"/>
<polygon fill="midnightblue" stroke="midnightblue" points="696.892,-19.0001 706.892,-15.5 696.892,-12.0001 696.892,-19.0001"/>
</g>
</g>
</svg>
