<?xml version="1.0" encoding="UTF-8" standalone="no"?>
<!DOCTYPE svg PUBLIC "-//W3C//DTD SVG 1.1//EN"
 "http://www.w3.org/Graphics/SVG/1.1/DTD/svg11.dtd">
<!-- Generated by graphviz version 2.38.0 (20140413.2041)
 -->
<!-- Title: BitArray.hpp Pages: 1 -->
<svg width="396pt" height="420pt"
 viewBox="0.00 0.00 396.00 420.00" xmlns="http://www.w3.org/2000/svg" xmlns:xlink="http://www.w3.org/1999/xlink">
<g id="graph0" class="graph" transform="scale(1 1) rotate(0) translate(4 416)">
<title>BitArray.hpp</title>
<polygon fill="white" stroke="none" points="-4,4 -4,-416 392,-416 392,4 -4,4"/>
<!-- Node0 -->
<g id="node1" class="node"><title>Node0</title>
<g id="a_node1"><a xlink:title=" ">
<polygon fill="#bfbfbf" stroke="black" points="307.5,-392.5 307.5,-411.5 378.5,-411.5 378.5,-392.5 307.5,-392.5"/>
<text text-anchor="middle" x="343" y="-399.5" font-family="Helvetica,sans-Serif" font-size="10.00">BitArray.hpp</text>
</a>
</g>
</g>
<!-- Node1 -->
<g id="node2" class="node"><title>Node1</title>
<g id="a_node2"><a xlink:href="../../d1/d93/Error_8hpp.html" target="_top" xlink:title=" ">
<polygon fill="white" stroke="black" points="252.5,-336.5 252.5,-355.5 345.5,-355.5 345.5,-336.5 252.5,-336.5"/>
<text text-anchor="middle" x="299" y="-343.5" font-family="Helvetica,sans-Serif" font-size="10.00">Helpers/Error.hpp</text>
</a>
</g>
</g>
<!-- Node0&#45;&gt;Node1 -->
<g id="edge1" class="edge"><title>Node0&#45;&gt;Node1</title>
<path fill="none" stroke="midnightblue" d="M335.734,-392.083C329.455,-384.377 320.212,-373.033 312.569,-363.653"/>
<polygon fill="midnightblue" stroke="midnightblue" points="315.161,-361.293 306.131,-355.751 309.734,-365.714 315.161,-361.293"/>
</g>
<!-- Node7 -->
<g id="node8" class="node"><title>Node7</title>
<g id="a_node8"><a xlink:title=" ">
<polygon fill="white" stroke="#bfbfbf" points="292.5,-0.5 292.5,-19.5 341.5,-19.5 341.5,-0.5 292.5,-0.5"/>
<text text-anchor="middle" x="317" y="-7.5" font-family="Helvetica,sans-Serif" font-size="10.00">stdint.h</text>
</a>
</g>
</g>
<!-- Node0&#45;&gt;Node7 -->
<g id="edge18" class="edge"><title>Node0&#45;&gt;Node7</title>
<path fill="none" stroke="midnightblue" d="M349.257,-392.37C361.622,-374.437 388,-331.442 388,-291 388,-291 388,-291 388,-121 388,-82.101 356.27,-46.0516 335.234,-26.4257"/>
<polygon fill="midnightblue" stroke="midnightblue" points="337.563,-23.8128 327.783,-19.7363 332.886,-29.0215 337.563,-23.8128"/>
</g>
<!-- Node2 -->
<g id="node3" class="node"><title>Node2</title>
<g id="a_node3"><a xlink:href="../../df/dee/Debug_8hpp.html" target="_top" xlink:title=" ">
<polygon fill="white" stroke="black" points="213,-280.5 213,-299.5 277,-299.5 277,-280.5 213,-280.5"/>
<text text-anchor="middle" x="245" y="-287.5" font-family="Helvetica,sans-Serif" font-size="10.00">Debug.hpp</text>
</a>
</g>
</g>
<!-- Node1&#45;&gt;Node2 -->
<g id="edge2" class="edge"><title>Node1&#45;&gt;Node2</title>
<path fill="none" stroke="midnightblue" d="M290.083,-336.083C282.22,-328.22 270.569,-316.569 261.081,-307.081"/>
<polygon fill="midnightblue" stroke="midnightblue" points="263.297,-304.347 253.751,-299.751 258.347,-309.297 263.297,-304.347"/>
</g>
<!-- Node3 -->
<g id="node4" class="node"><title>Node3</title>
<g id="a_node4"><a xlink:href="../../d2/dd5/SettingsWrapper_8hpp.html" target="_top" xlink:title=" ">
<polygon fill="white" stroke="black" points="171.5,-224.5 171.5,-243.5 318.5,-243.5 318.5,-224.5 171.5,-224.5"/>
<text text-anchor="middle" x="245" y="-231.5" font-family="Helvetica,sans-Serif" font-size="10.00">Settings/SettingsWrapper.hpp</text>
</a>
</g>
</g>
<!-- Node2&#45;&gt;Node3 -->
<g id="edge3" class="edge"><title>Node2&#45;&gt;Node3</title>
<path fill="none" stroke="midnightblue" d="M239.834,-280.083C238.324,-272.927 237.894,-262.635 238.542,-253.691"/>
<polygon fill="midnightblue" stroke="midnightblue" points="242.015,-254.126 239.869,-243.751 235.077,-253.2 242.015,-254.126"/>
</g>
<!-- Node12 -->
<g id="node13" class="node"><title>Node12</title>
<g id="a_node13"><a xlink:title=" ">
<polygon fill="white" stroke="#bfbfbf" points="0,-224.5 0,-243.5 48,-243.5 48,-224.5 0,-224.5"/>
<text text-anchor="middle" x="24" y="-231.5" font-family="Helvetica,sans-Serif" font-size="10.00">stdlib.h</text>
</a>
</g>
</g>
<!-- Node2&#45;&gt;Node12 -->
<g id="edge15" class="edge"><title>Node2&#45;&gt;Node12</title>
<path fill="none" stroke="midnightblue" d="M212.991,-281.66C177.493,-273.449 118.287,-259.547 58.1718,-244.242"/>
<polygon fill="midnightblue" stroke="midnightblue" points="58.6829,-240.76 48.1275,-241.674 56.9486,-247.542 58.6829,-240.76"/>
</g>
<!-- Node13 -->
<g id="node14" class="node"><title>Node13</title>
<g id="a_node14"><a xlink:href="../../dd/d80/PrintStream_8hpp.html" target="_top" xlink:title=" ">
<polygon fill="white" stroke="black" points="66.5,-224.5 66.5,-243.5 153.5,-243.5 153.5,-224.5 66.5,-224.5"/>
<text text-anchor="middle" x="110" y="-231.5" font-family="Helvetica,sans-Serif" font-size="10.00">PrintStream.hpp</text>
</a>
</g>
</g>
<!-- Node2&#45;&gt;Node13 -->
<g id="edge16" class="edge"><title>Node2&#45;&gt;Node13</title>
<path fill="none" stroke="midnightblue" d="M223.609,-280.444C201.293,-271.517 166.097,-257.439 140.792,-247.317"/>
<polygon fill="midnightblue" stroke="midnightblue" points="141.876,-243.981 131.291,-243.516 139.276,-250.48 141.876,-243.981"/>
</g>
<!-- Node3&#45;&gt;Node2 -->
<g id="edge14" class="edge"><title>Node3&#45;&gt;Node2</title>
<path fill="none" stroke="midnightblue" d="M250.131,-243.751C251.657,-250.858 252.104,-261.136 251.472,-270.101"/>
<polygon fill="midnightblue" stroke="midnightblue" points="247.993,-269.713 250.166,-280.083 254.934,-270.622 247.993,-269.713"/>
</g>
<!-- Node4 -->
<g id="node5" class="node"><title>Node4</title>
<g id="a_node5"><a xlink:href="../../db/d02/Settings_8hpp.html" target="_top" xlink:title="All user settings and debugging options can be changed here.">
<polygon fill="white" stroke="black" points="118.5,-168.5 118.5,-187.5 189.5,-187.5 189.5,-168.5 118.5,-168.5"/>
<text text-anchor="middle" x="154" y="-175.5" font-family="Helvetica,sans-Serif" font-size="10.00">Settings.hpp</text>
</a>
</g>
</g>
<!-- Node3&#45;&gt;Node4 -->
<g id="edge4" class="edge"><title>Node3&#45;&gt;Node4</title>
<path fill="none" stroke="midnightblue" d="M230.379,-224.324C216.051,-215.822 193.987,-202.729 177.251,-192.797"/>
<polygon fill="midnightblue" stroke="midnightblue" points="178.97,-189.748 168.584,-187.655 175.398,-195.768 178.97,-189.748"/>
</g>
<!-- Node11 -->
<g id="node12" class="node"><title>Node11</title>
<g id="a_node12"><a xlink:href="../../d9/d98/TeensyUSBTypes_8hpp.html" target="_top" xlink:title=" ">
<polygon fill="white" stroke="black" points="208,-168.5 208,-187.5 360,-187.5 360,-168.5 208,-168.5"/>
<text text-anchor="middle" x="284" y="-175.5" font-family="Helvetica,sans-Serif" font-size="10.00">Helpers/TeensyUSBTypes.hpp</text>
</a>
</g>
</g>
<!-- Node3&#45;&gt;Node11 -->
<g id="edge13" class="edge"><title>Node3&#45;&gt;Node11</title>
<path fill="none" stroke="midnightblue" d="M251.44,-224.083C256.949,-216.455 265.031,-205.264 271.765,-195.941"/>
<polygon fill="midnightblue" stroke="midnightblue" points="274.662,-197.907 277.68,-187.751 268.987,-193.809 274.662,-197.907"/>
</g>
<!-- Node5 -->
<g id="node6" class="node"><title>Node5</title>
<g id="a_node6"><a xlink:href="../../d0/d4e/Def_8hpp.html" target="_top" xlink:title=" ">
<polygon fill="white" stroke="black" points="134,-112.5 134,-131.5 204,-131.5 204,-112.5 134,-112.5"/>
<text text-anchor="middle" x="169" y="-119.5" font-family="Helvetica,sans-Serif" font-size="10.00">Def/Def.hpp</text>
</a>
</g>
</g>
<!-- Node4&#45;&gt;Node5 -->
<g id="edge5" class="edge"><title>Node4&#45;&gt;Node5</title>
<path fill="none" stroke="midnightblue" d="M156.477,-168.083C158.486,-160.849 161.386,-150.409 163.89,-141.397"/>
<polygon fill="midnightblue" stroke="midnightblue" points="167.265,-142.323 166.569,-131.751 160.52,-140.449 167.265,-142.323"/>
</g>
<!-- Node6 -->
<g id="node7" class="node"><title>Node6</title>
<g id="a_node7"><a xlink:href="../../d7/d42/Channel_8hpp.html" target="_top" xlink:title=" ">
<polygon fill="white" stroke="black" points="281.5,-56.5 281.5,-75.5 352.5,-75.5 352.5,-56.5 281.5,-56.5"/>
<text text-anchor="middle" x="317" y="-63.5" font-family="Helvetica,sans-Serif" font-size="10.00">Channel.hpp</text>
</a>
</g>
</g>
<!-- Node5&#45;&gt;Node6 -->
<g id="edge6" class="edge"><title>Node5&#45;&gt;Node6</title>
<path fill="none" stroke="midnightblue" d="M192.451,-112.444C217.133,-103.438 256.185,-89.1891 283.977,-79.049"/>
<polygon fill="midnightblue" stroke="midnightblue" points="285.464,-82.2321 293.659,-75.5164 283.065,-75.6561 285.464,-82.2321"/>
</g>
<!-- Node5&#45;&gt;Node7 -->
<g id="edge12" class="edge"><title>Node5&#45;&gt;Node7</title>
<path fill="none" stroke="midnightblue" d="M182.108,-112.257C195.349,-103.347 216.32,-89.0256 234,-76 256.587,-59.3597 281.882,-39.3433 298.544,-25.9594"/>
<polygon fill="midnightblue" stroke="midnightblue" points="300.822,-28.619 306.411,-19.6181 296.429,-23.1692 300.822,-28.619"/>
</g>
<!-- Node8 -->
<g id="node9" class="node"><title>Node8</title>
<g id="a_node9"><a xlink:href="../../dc/d50/Frequency_8hpp.html" target="_top" xlink:title=" ">
<polygon fill="white" stroke="black" points="30.5,-56.5 30.5,-75.5 111.5,-75.5 111.5,-56.5 30.5,-56.5"/>
<text text-anchor="middle" x="71" y="-63.5" font-family="Helvetica,sans-Serif" font-size="10.00">Frequency.hpp</text>
</a>
</g>
</g>
<!-- Node5&#45;&gt;Node8 -->
<g id="edge8" class="edge"><title>Node5&#45;&gt;Node8</title>
<path fill="none" stroke="midnightblue" d="M153.255,-112.324C137.681,-103.743 113.623,-90.486 95.5407,-80.5224"/>
<polygon fill="midnightblue" stroke="midnightblue" points="97.1539,-77.4152 86.7063,-75.6545 93.7756,-83.546 97.1539,-77.4152"/>
</g>
<!-- Node9 -->
<g id="node10" class="node"><title>Node9</title>
<g id="a_node10"><a xlink:href="../../de/d76/Array_8hpp.html" target="_top" xlink:title=" ">
<polygon fill="white" stroke="black" points="129.5,-56.5 129.5,-75.5 224.5,-75.5 224.5,-56.5 129.5,-56.5"/>
<text text-anchor="middle" x="177" y="-63.5" font-family="Helvetica,sans-Serif" font-size="10.00">Helpers/Array.hpp</text>
</a>
</g>
</g>
<!-- Node5&#45;&gt;Node9 -->
<g id="edge9" class="edge"><title>Node5&#45;&gt;Node9</title>
<path fill="none" stroke="midnightblue" d="M170.321,-112.083C171.381,-104.927 172.906,-94.6353 174.231,-85.6911"/>
<polygon fill="midnightblue" stroke="midnightblue" points="177.7,-86.1561 175.704,-75.7511 170.776,-85.1302 177.7,-86.1561"/>
</g>
<!-- Node10 -->
<g id="node11" class="node"><title>Node10</title>
<g id="a_node11"><a xlink:title=" ">
<polygon fill="white" stroke="#bfbfbf" points="64,-0.5 64,-19.5 116,-19.5 116,-0.5 64,-0.5"/>
<text text-anchor="middle" x="90" y="-7.5" font-family="Helvetica,sans-Serif" font-size="10.00">stddef.h</text>
</a>
</g>
</g>
<!-- Node5&#45;&gt;Node10 -->
<g id="edge11" class="edge"><title>Node5&#45;&gt;Node10</title>
<path fill="none" stroke="midnightblue" d="M133.945,-121.376C98.9681,-119.635 46.8256,-110.845 21,-76 5.88064,-55.6001 34.0493,-36.1795 58.8192,-23.9677"/>
<polygon fill="midnightblue" stroke="midnightblue" points="60.4718,-27.0588 68.0488,-19.6534 57.5075,-20.7174 60.4718,-27.0588"/>
</g>
<!-- Node6&#45;&gt;Node7 -->
<g id="edge7" class="edge"><title>Node6&#45;&gt;Node7</title>
<path fill="none" stroke="midnightblue" d="M317,-56.083C317,-49.0059 317,-38.8611 317,-29.9865"/>
<polygon fill="midnightblue" stroke="midnightblue" points="320.5,-29.751 317,-19.7511 313.5,-29.7511 320.5,-29.751"/>
</g>
<!-- Node9&#45;&gt;Node10 -->
<g id="edge10" class="edge"><title>Node9&#45;&gt;Node10</title>
<path fill="none" stroke="midnightblue" d="M163.022,-56.324C149.45,-47.9002 128.62,-34.9709 112.675,-25.0741"/>
<polygon fill="midnightblue" stroke="midnightblue" points="114.286,-21.9544 103.943,-19.6545 110.594,-27.9019 114.286,-21.9544"/>
</g>
<!-- Node14 -->
<g id="node15" class="node"><title>Node14</title>
<g id="a_node15"><a xlink:title=" ">
<polygon fill="white" stroke="#bfbfbf" points="42,-168.5 42,-187.5 100,-187.5 100,-168.5 42,-168.5"/>
<text text-anchor="middle" x="71" y="-175.5" font-family="Helvetica,sans-Serif" font-size="10.00">Arduino.h</text>
</a>
</g>
</g>
<!-- Node13&#45;&gt;Node14 -->
<g id="edge17" class="edge"><title>Node13&#45;&gt;Node14</title>
<path fill="none" stroke="midnightblue" d="M103.56,-224.083C98.0511,-216.455 89.9688,-205.264 83.235,-195.941"/>
<polygon fill="midnightblue" stroke="midnightblue" points="86.0126,-193.809 77.3202,-187.751 80.3378,-197.907 86.0126,-193.809"/>
</g>
</g>
</svg>
