<?xml version="1.0" encoding="UTF-8" standalone="no"?>
<!DOCTYPE svg PUBLIC "-//W3C//DTD SVG 1.1//EN"
 "http://www.w3.org/Graphics/SVG/1.1/DTD/svg11.dtd">
<!-- Generated by graphviz version 2.38.0 (20140413.2041)
 -->
<!-- Title: ExtIO::digitalRead Pages: 1 -->
<svg width="919pt" height="815pt"
 viewBox="0.00 0.00 919.00 814.50" xmlns="http://www.w3.org/2000/svg" xmlns:xlink="http://www.w3.org/1999/xlink">
<g id="graph0" class="graph" transform="scale(1 1) rotate(0) translate(4 810.5)">
<title>ExtIO::digitalRead</title>
<polygon fill="white" stroke="none" points="-4,4 -4,-810.5 915,-810.5 915,4 -4,4"/>
<!-- Node1 -->
<g id="node1" class="node"><title>Node1</title>
<g id="a_node1"><a xlink:title="An ExtIO version of the Arduino function.">
<polygon fill="#bfbfbf" stroke="black" points="814,-685 814,-704 911,-704 911,-685 814,-685"/>
<text text-anchor="middle" x="862.5" y="-692" font-family="Helvetica,sans-Serif" font-size="10.00">ExtIO::digitalRead</text>
</a>
</g>
</g>
<!-- Node2 -->
<g id="node2" class="node"><title>Node2</title>
<g id="a_node2"><a xlink:href="../../d8/d3d/namespaceExtIO.html#a9e1b1e3ddc71a977fbf6df93c10cce82" target="_top" xlink:title="An ExtIO version of the Arduino function.">
<polygon fill="white" stroke="black" points="657.5,-748 657.5,-767 754.5,-767 754.5,-748 657.5,-748"/>
<text text-anchor="middle" x="706" y="-755" font-family="Helvetica,sans-Serif" font-size="10.00">ExtIO::digitalRead</text>
</a>
</g>
</g>
<!-- Node1&#45;&gt;Node2 -->
<g id="edge1" class="edge"><title>Node1&#45;&gt;Node2</title>
<path fill="none" stroke="midnightblue" d="M822.901,-708.669C809.055,-715.645 793.124,-723.578 778,-729.5 758.871,-736.991 735.72,-742.574 721.173,-747.926"/>
<polygon fill="midnightblue" stroke="midnightblue" points="824.759,-711.652 832.117,-704.028 821.611,-705.399 824.759,-711.652"/>
</g>
<!-- Node3 -->
<g id="node3" class="node"><title>Node3</title>
<g id="a_node3"><a xlink:href="../../d8/d6c/classButtonMatrix.html#a1ba9c4b8860d3d9115a70f8d97f21cef" target="_top" xlink:title="Scan the matrix, read all button states, and call the onButtonChanged callback.">
<polygon fill="white" stroke="black" points="652,-710 652,-729 760,-729 760,-710 652,-710"/>
<text text-anchor="middle" x="706" y="-717" font-family="Helvetica,sans-Serif" font-size="10.00">ButtonMatrix::refresh</text>
</a>
</g>
</g>
<!-- Node1&#45;&gt;Node3 -->
<g id="edge3" class="edge"><title>Node1&#45;&gt;Node3</title>
<path fill="none" stroke="midnightblue" d="M803.681,-703.856C789.397,-706.167 774.165,-708.632 760.116,-710.905"/>
<polygon fill="midnightblue" stroke="midnightblue" points="804.572,-707.257 813.884,-702.205 803.454,-700.347 804.572,-707.257"/>
</g>
<!-- Node6 -->
<g id="node6" class="node"><title>Node6</title>
<g id="a_node6"><a xlink:href="../../de/d1e/classGenericManyButtonsSelector.html#af38cfd08b7a3ed6de264fd0862210719" target="_top" xlink:title=" ">
<polygon fill="white" stroke="black" points="634,-650 634,-691 778,-691 778,-650 634,-650"/>
<text text-anchor="start" x="642" y="-679" font-family="Helvetica,sans-Serif" font-size="10.00">GenericManyButtonsSelector</text>
<text text-anchor="start" x="642" y="-668" font-family="Helvetica,sans-Serif" font-size="10.00">&lt; N, SelectorLEDsCallback</text>
<text text-anchor="middle" x="706" y="-657" font-family="Helvetica,sans-Serif" font-size="10.00">&lt; N &gt; &gt;::update</text>
</a>
</g>
</g>
<!-- Node1&#45;&gt;Node6 -->
<g id="edge6" class="edge"><title>Node1&#45;&gt;Node6</title>
<path fill="none" stroke="midnightblue" d="M803.82,-685.54C795.41,-684.234 786.669,-682.876 778.032,-681.534"/>
<polygon fill="midnightblue" stroke="midnightblue" points="803.465,-689.027 813.884,-687.103 804.54,-682.11 803.465,-689.027"/>
</g>
<!-- Node7 -->
<g id="node7" class="node"><title>Node7</title>
<g id="a_node7"><a xlink:href="../../da/dbf/classGenericEncoderSelector.html#afcda0e9d0abab5b33ee98bfc1c010cd1" target="_top" xlink:title=" ">
<polygon fill="white" stroke="black" points="637,-590 637,-631 775,-631 775,-590 637,-590"/>
<text text-anchor="start" x="645" y="-619" font-family="Helvetica,sans-Serif" font-size="10.00">GenericEncoderSelector</text>
<text text-anchor="start" x="645" y="-608" font-family="Helvetica,sans-Serif" font-size="10.00">&lt; N, SelectorLEDsCallback</text>
<text text-anchor="middle" x="706" y="-597" font-family="Helvetica,sans-Serif" font-size="10.00">&lt; N &gt; &gt;::update</text>
</a>
</g>
</g>
<!-- Node1&#45;&gt;Node7 -->
<g id="edge7" class="edge"><title>Node1&#45;&gt;Node7</title>
<path fill="none" stroke="midnightblue" d="M839.96,-679.081C823.459,-667.642 799.885,-652.087 778,-640.5 771.85,-637.244 765.269,-634.073 758.686,-631.087"/>
<polygon fill="midnightblue" stroke="midnightblue" points="838.146,-682.084 848.343,-684.961 842.166,-676.353 838.146,-682.084"/>
</g>
<!-- Node8 -->
<g id="node8" class="node"><title>Node8</title>
<g id="a_node8"><a xlink:href="../../d1/d19/classButton.html#a34d7c959b929e8b5c10b27d63115c3b0" target="_top" xlink:title="Read the button and return its new state.">
<polygon fill="white" stroke="black" points="666,-397 666,-416 746,-416 746,-397 666,-397"/>
<text text-anchor="middle" x="706" y="-404" font-family="Helvetica,sans-Serif" font-size="10.00">Button::update</text>
</a>
</g>
</g>
<!-- Node1&#45;&gt;Node8 -->
<g id="edge8" class="edge"><title>Node1&#45;&gt;Node8</title>
<path fill="none" stroke="midnightblue" d="M851.498,-675.856C821.719,-620.345 734.33,-457.445 712.16,-416.118"/>
<polygon fill="midnightblue" stroke="midnightblue" points="848.548,-677.76 856.36,-684.918 854.716,-674.451 848.548,-677.76"/>
</g>
<!-- Node2&#45;&gt;Node1 -->
<g id="edge2" class="edge"><title>Node2&#45;&gt;Node1</title>
<path fill="none" stroke="midnightblue" d="M764.765,-752.189C769.283,-750.741 773.741,-749.168 778,-747.5 807.6,-735.909 840.29,-716.617 854.388,-704.036"/>
<polygon fill="midnightblue" stroke="midnightblue" points="763.418,-748.938 754.832,-755.145 765.415,-755.647 763.418,-748.938"/>
</g>
<!-- Node4 -->
<g id="node4" class="node"><title>Node4</title>
<g id="a_node4"><a xlink:href="../../d0/d54/classMIDIButtonMatrix.html#a8882f74a53c6e8777d814e335cf31dbc" target="_top" xlink:title=" ">
<polygon fill="white" stroke="black" points="437,-765 437,-806 568,-806 568,-765 437,-765"/>
<text text-anchor="start" x="445" y="-794" font-family="Helvetica,sans-Serif" font-size="10.00">MIDIButtonMatrix&lt; Digital</text>
<text text-anchor="start" x="445" y="-783" font-family="Helvetica,sans-Serif" font-size="10.00">NoteSender, nb_rows, nb</text>
<text text-anchor="middle" x="502.5" y="-772" font-family="Helvetica,sans-Serif" font-size="10.00">_cols &gt;::update</text>
</a>
</g>
</g>
<!-- Node3&#45;&gt;Node4 -->
<g id="edge4" class="edge"><title>Node3&#45;&gt;Node4</title>
<path fill="none" stroke="midnightblue" d="M654.39,-731.844C647.477,-733.878 640.52,-736.11 634,-738.5 617.387,-744.589 614.469,-749.031 598,-755.5 588.467,-759.245 578.261,-762.869 568.209,-766.227"/>
<polygon fill="midnightblue" stroke="midnightblue" points="655.757,-735.095 664.431,-729.011 653.856,-728.358 655.757,-735.095"/>
</g>
<!-- Node5 -->
<g id="node5" class="node"><title>Node5</title>
<g id="a_node5"><a xlink:href="../../d3/d65/classBankable_1_1MIDIButtonMatrix.html#a87bad2f591a5d00f801a5e9d92f6922d" target="_top" xlink:title=" ">
<polygon fill="white" stroke="black" points="430,-693.5 430,-745.5 575,-745.5 575,-693.5 430,-693.5"/>
<text text-anchor="start" x="438" y="-733.5" font-family="Helvetica,sans-Serif" font-size="10.00">Bankable::MIDIButtonMatrix</text>
<text text-anchor="start" x="438" y="-722.5" font-family="Helvetica,sans-Serif" font-size="10.00">&lt; MatrixAddress&lt; nb_rows,</text>
<text text-anchor="start" x="438" y="-711.5" font-family="Helvetica,sans-Serif" font-size="10.00"> nb_cols &gt;, DigitalCCSender,</text>
<text text-anchor="middle" x="502.5" y="-700.5" font-family="Helvetica,sans-Serif" font-size="10.00"> nb_rows, nb_cols &gt;::update</text>
</a>
</g>
</g>
<!-- Node3&#45;&gt;Node5 -->
<g id="edge5" class="edge"><title>Node3&#45;&gt;Node5</title>
<path fill="none" stroke="midnightblue" d="M641.663,-719.5C620.567,-719.5 596.92,-719.5 575.234,-719.5"/>
<polygon fill="midnightblue" stroke="midnightblue" points="641.795,-723 651.795,-719.5 641.795,-716 641.795,-723"/>
</g>
<!-- Node9 -->
<g id="node9" class="node"><title>Node9</title>
<g id="a_node9"><a xlink:href="../../d2/d1c/classGenericSwitchSelector.html#a241f999c75890c801a002961c6a71858" target="_top" xlink:title=" ">
<polygon fill="white" stroke="black" points="444.5,-644.5 444.5,-674.5 560.5,-674.5 560.5,-644.5 444.5,-644.5"/>
<text text-anchor="start" x="452.5" y="-662.5" font-family="Helvetica,sans-Serif" font-size="10.00">GenericSwitchSelector</text>
<text text-anchor="middle" x="502.5" y="-651.5" font-family="Helvetica,sans-Serif" font-size="10.00">&lt;&gt;::update</text>
</a>
</g>
</g>
<!-- Node8&#45;&gt;Node9 -->
<g id="edge9" class="edge"><title>Node8&#45;&gt;Node9</title>
<path fill="none" stroke="midnightblue" d="M697.175,-425.624C675.59,-478.012 615.635,-620.91 598,-635.5 587.436,-644.24 574.096,-649.852 560.795,-653.441"/>
<polygon fill="midnightblue" stroke="midnightblue" points="700.502,-426.737 701.064,-416.157 694.027,-424.078 700.502,-426.737"/>
</g>
<!-- Node10 -->
<g id="node10" class="node"><title>Node10</title>
<g id="a_node10"><a xlink:href="../../d6/d72/classMIDIButton.html#a25687b7d9e7d7d9de37ffcd060c490d5" target="_top" xlink:title=" ">
<polygon fill="white" stroke="black" points="429.5,-595.5 429.5,-625.5 575.5,-625.5 575.5,-595.5 429.5,-595.5"/>
<text text-anchor="start" x="437.5" y="-613.5" font-family="Helvetica,sans-Serif" font-size="10.00">MIDIButton&lt; ProgramChange</text>
<text text-anchor="middle" x="502.5" y="-602.5" font-family="Helvetica,sans-Serif" font-size="10.00">Sender &gt;::update</text>
</a>
</g>
</g>
<!-- Node8&#45;&gt;Node10 -->
<g id="edge10" class="edge"><title>Node8&#45;&gt;Node10</title>
<path fill="none" stroke="midnightblue" d="M699.128,-425.711C686.771,-462.8 654.463,-544.321 598,-586.5 591.355,-591.464 583.792,-595.407 575.905,-598.538"/>
<polygon fill="midnightblue" stroke="midnightblue" points="702.487,-426.698 702.208,-416.107 695.822,-424.56 702.487,-426.698"/>
</g>
<!-- Node11 -->
<g id="node11" class="node"><title>Node11</title>
<g id="a_node11"><a xlink:href="../../d8/de1/classMIDIButtonLatching.html#a4f9140ee21e358de47ceb77fa6d2fbb6" target="_top" xlink:title=" ">
<polygon fill="white" stroke="black" points="448.5,-536 448.5,-577 556.5,-577 556.5,-536 448.5,-536"/>
<text text-anchor="start" x="456.5" y="-565" font-family="Helvetica,sans-Serif" font-size="10.00">MIDIButtonLatching</text>
<text text-anchor="start" x="456.5" y="-554" font-family="Helvetica,sans-Serif" font-size="10.00">&lt; DigitalCCSender &gt;</text>
<text text-anchor="middle" x="502.5" y="-543" font-family="Helvetica,sans-Serif" font-size="10.00">::update</text>
</a>
</g>
</g>
<!-- Node8&#45;&gt;Node11 -->
<g id="edge11" class="edge"><title>Node8&#45;&gt;Node11</title>
<path fill="none" stroke="midnightblue" d="M693.429,-424.765C675.896,-451.001 640.141,-499.191 598,-526.5 585.577,-534.551 570.836,-540.578 556.737,-545.033"/>
<polygon fill="midnightblue" stroke="midnightblue" points="696.503,-426.459 699.042,-416.172 690.643,-422.631 696.503,-426.459"/>
</g>
<!-- Node12 -->
<g id="node12" class="node"><title>Node12</title>
<g id="a_node12"><a xlink:href="../../d9/df9/classBankable_1_1MIDIButton.html#a57f73101773052463a19c27408a90c44" target="_top" xlink:title=" ">
<polygon fill="white" stroke="black" points="418.5,-476 418.5,-517 586.5,-517 586.5,-476 418.5,-476"/>
<text text-anchor="start" x="426.5" y="-505" font-family="Helvetica,sans-Serif" font-size="10.00">Bankable::MIDIButton</text>
<text text-anchor="start" x="426.5" y="-494" font-family="Helvetica,sans-Serif" font-size="10.00">&lt; SingleAddress, DigitalCCSender</text>
<text text-anchor="middle" x="502.5" y="-483" font-family="Helvetica,sans-Serif" font-size="10.00"> &gt;::update</text>
</a>
</g>
</g>
<!-- Node8&#45;&gt;Node12 -->
<g id="edge12" class="edge"><title>Node8&#45;&gt;Node12</title>
<path fill="none" stroke="midnightblue" d="M681.623,-421.446C660.408,-434.558 627.956,-453.508 598,-466.5 590.262,-469.856 582.024,-473.026 573.761,-475.959"/>
<polygon fill="midnightblue" stroke="midnightblue" points="683.634,-424.316 690.258,-416.046 679.923,-418.38 683.634,-424.316"/>
</g>
<!-- Node13 -->
<g id="node13" class="node"><title>Node13</title>
<g id="a_node13"><a xlink:href="../../d3/d0b/classBankable_1_1MIDIButtonLatching.html#a5bd9840484f4cca50874b93d3fd8015c" target="_top" xlink:title=" ">
<polygon fill="white" stroke="black" points="418.5,-416 418.5,-457 586.5,-457 586.5,-416 418.5,-416"/>
<text text-anchor="start" x="426.5" y="-445" font-family="Helvetica,sans-Serif" font-size="10.00">Bankable::MIDIButtonLatching</text>
<text text-anchor="start" x="426.5" y="-434" font-family="Helvetica,sans-Serif" font-size="10.00">&lt; SingleAddress, DigitalCCSender</text>
<text text-anchor="middle" x="502.5" y="-423" font-family="Helvetica,sans-Serif" font-size="10.00"> &gt;::update</text>
</a>
</g>
</g>
<!-- Node8&#45;&gt;Node13 -->
<g id="edge13" class="edge"><title>Node8&#45;&gt;Node13</title>
<path fill="none" stroke="midnightblue" d="M655.55,-413.862C634.868,-416.941 610.253,-420.606 586.917,-424.081"/>
<polygon fill="midnightblue" stroke="midnightblue" points="656.295,-417.29 665.67,-412.356 655.264,-410.366 656.295,-417.29"/>
</g>
<!-- Node14 -->
<g id="node14" class="node"><title>Node14</title>
<g id="a_node14"><a xlink:href="../../d3/d88/classMIDIButtonLatched.html#a30aa22dd2256830b3db9950aba9d3cab" target="_top" xlink:title=" ">
<polygon fill="white" stroke="black" points="448.5,-356 448.5,-397 556.5,-397 556.5,-356 448.5,-356"/>
<text text-anchor="start" x="456.5" y="-385" font-family="Helvetica,sans-Serif" font-size="10.00">MIDIButtonLatched&lt;</text>
<text text-anchor="start" x="456.5" y="-374" font-family="Helvetica,sans-Serif" font-size="10.00"> DigitalCCSender &gt;::</text>
<text text-anchor="middle" x="502.5" y="-363" font-family="Helvetica,sans-Serif" font-size="10.00">update</text>
</a>
</g>
</g>
<!-- Node8&#45;&gt;Node14 -->
<g id="edge14" class="edge"><title>Node8&#45;&gt;Node14</title>
<path fill="none" stroke="midnightblue" d="M655.456,-399.124C625.537,-394.669 587.413,-388.993 556.836,-384.441"/>
<polygon fill="midnightblue" stroke="midnightblue" points="655.264,-402.634 665.67,-400.644 656.295,-395.71 655.264,-402.634"/>
</g>
<!-- Node15 -->
<g id="node15" class="node"><title>Node15</title>
<g id="a_node15"><a xlink:href="../../df/dca/classBankable_1_1MIDIButtonLatched.html#adf0b13f826da759ca2419d2fece6da3b" target="_top" xlink:title=" ">
<polygon fill="white" stroke="black" points="418.5,-296 418.5,-337 586.5,-337 586.5,-296 418.5,-296"/>
<text text-anchor="start" x="426.5" y="-325" font-family="Helvetica,sans-Serif" font-size="10.00">Bankable::MIDIButtonLatched</text>
<text text-anchor="start" x="426.5" y="-314" font-family="Helvetica,sans-Serif" font-size="10.00">&lt; SingleAddress, DigitalCCSender</text>
<text text-anchor="middle" x="502.5" y="-303" font-family="Helvetica,sans-Serif" font-size="10.00"> &gt;::update</text>
</a>
</g>
</g>
<!-- Node8&#45;&gt;Node15 -->
<g id="edge15" class="edge"><title>Node8&#45;&gt;Node15</title>
<path fill="none" stroke="midnightblue" d="M681.623,-391.554C660.408,-378.442 627.956,-359.492 598,-346.5 590.262,-343.144 582.024,-339.974 573.761,-337.041"/>
<polygon fill="midnightblue" stroke="midnightblue" points="679.923,-394.62 690.258,-396.954 683.634,-388.684 679.923,-394.62"/>
</g>
<!-- Node16 -->
<g id="node16" class="node"><title>Node16</title>
<g id="a_node16"><a xlink:href="../../dd/d29/classMIDIChordButton.html#a1dab786cd92de03e00877e1a82e8fd5f" target="_top" xlink:title=" ">
<polygon fill="white" stroke="black" points="437.5,-247.5 437.5,-277.5 567.5,-277.5 567.5,-247.5 437.5,-247.5"/>
<text text-anchor="start" x="445.5" y="-265.5" font-family="Helvetica,sans-Serif" font-size="10.00">MIDIChordButton&lt; Digital</text>
<text text-anchor="middle" x="502.5" y="-254.5" font-family="Helvetica,sans-Serif" font-size="10.00">NoteSender &gt;::update</text>
</a>
</g>
</g>
<!-- Node8&#45;&gt;Node16 -->
<g id="edge16" class="edge"><title>Node8&#45;&gt;Node16</title>
<path fill="none" stroke="midnightblue" d="M693.892,-388.298C676.713,-361.74 641.137,-312.69 598,-286.5 588.74,-280.878 578.203,-276.567 567.608,-273.262"/>
<polygon fill="midnightblue" stroke="midnightblue" points="691.073,-390.39 699.368,-396.981 696.994,-386.655 691.073,-390.39"/>
</g>
<!-- Node17 -->
<g id="node17" class="node"><title>Node17</title>
<g id="a_node17"><a xlink:href="../../da/d96/classBankable_1_1MIDIChordButton.html#ab532f1b2919086c9b55b909e4ff66723" target="_top" xlink:title=" ">
<polygon fill="white" stroke="black" points="428,-198.5 428,-228.5 577,-228.5 577,-198.5 428,-198.5"/>
<text text-anchor="start" x="436" y="-216.5" font-family="Helvetica,sans-Serif" font-size="10.00">Bankable::MIDIChordButton</text>
<text text-anchor="middle" x="502.5" y="-205.5" font-family="Helvetica,sans-Serif" font-size="10.00">&lt; DigitalNoteSender &gt;::update</text>
</a>
</g>
</g>
<!-- Node8&#45;&gt;Node17 -->
<g id="edge17" class="edge"><title>Node8&#45;&gt;Node17</title>
<path fill="none" stroke="midnightblue" d="M698.168,-387.166C684.717,-351.98 651.385,-277.518 598,-238.5 591.697,-233.894 584.609,-230.135 577.22,-227.069"/>
<polygon fill="midnightblue" stroke="midnightblue" points="694.957,-388.575 701.704,-396.743 701.523,-386.15 694.957,-388.575"/>
</g>
<!-- Node18 -->
<g id="node18" class="node"><title>Node18</title>
<g id="a_node18"><a xlink:href="../../df/d38/classIncrementButton.html#a4b2727839c1c58fe13c1c45848378956" target="_top" xlink:title=" ">
<polygon fill="white" stroke="black" points="407,-160 407,-179 598,-179 598,-160 407,-160"/>
<text text-anchor="middle" x="502.5" y="-167" font-family="Helvetica,sans-Serif" font-size="10.00">IncrementButton::updateImplementation</text>
</a>
</g>
</g>
<!-- Node8&#45;&gt;Node18 -->
<g id="edge18" class="edge"><title>Node8&#45;&gt;Node18</title>
<path fill="none" stroke="midnightblue" d="M701.292,-386.775C692.104,-343.671 664.069,-240.843 598,-189.5 592.439,-185.178 586.158,-181.736 579.545,-179.001"/>
<polygon fill="midnightblue" stroke="midnightblue" points="697.91,-387.709 703.318,-396.82 704.772,-386.325 697.91,-387.709"/>
</g>
<!-- Node21 -->
<g id="node21" class="node"><title>Node21</title>
<g id="a_node21"><a xlink:href="../../d5/d20/classIncrementDecrementButtons.html#afc0fb16d76d70d5e6640473ba66aaaa1" target="_top" xlink:title=" ">
<polygon fill="white" stroke="black" points="431.5,-91.5 431.5,-121.5 573.5,-121.5 573.5,-91.5 431.5,-91.5"/>
<text text-anchor="start" x="439.5" y="-109.5" font-family="Helvetica,sans-Serif" font-size="10.00">IncrementDecrementButtons</text>
<text text-anchor="middle" x="502.5" y="-98.5" font-family="Helvetica,sans-Serif" font-size="10.00">::updateImplementation</text>
</a>
</g>
</g>
<!-- Node8&#45;&gt;Node21 -->
<g id="edge21" class="edge"><title>Node8&#45;&gt;Node21</title>
<path fill="none" stroke="midnightblue" d="M701.766,-386.721C693.15,-339.865 665.526,-220.773 598,-150.5 585.837,-137.842 569.324,-128.46 553.503,-121.687"/>
<polygon fill="midnightblue" stroke="midnightblue" points="698.353,-387.521 703.521,-396.77 705.248,-386.317 698.353,-387.521"/>
</g>
<!-- Node19 -->
<g id="node19" class="node"><title>Node19</title>
<g id="a_node19"><a xlink:href="../../df/d38/classIncrementButton.html#a29191b973840543f6e9ce409d6d5da23" target="_top" xlink:title="Update and return the state of the increment button.">
<polygon fill="white" stroke="black" points="238,-198 238,-217 362,-217 362,-198 238,-198"/>
<text text-anchor="middle" x="300" y="-205" font-family="Helvetica,sans-Serif" font-size="10.00">IncrementButton::update</text>
</a>
</g>
</g>
<!-- Node18&#45;&gt;Node19 -->
<g id="edge19" class="edge"><title>Node18&#45;&gt;Node19</title>
<path fill="none" stroke="midnightblue" d="M441.254,-180.918C412.566,-186.355 378.65,-192.783 351.357,-197.956"/>
<polygon fill="midnightblue" stroke="midnightblue" points="441.991,-184.341 451.164,-179.04 440.687,-177.463 441.991,-184.341"/>
</g>
<!-- Node20 -->
<g id="node20" class="node"><title>Node20</title>
<g id="a_node20"><a xlink:href="../../d1/d94/classGenericIncrementSelector.html#a8ef9ecc55918d2daf76a02a9914c29a3" target="_top" xlink:title=" ">
<polygon fill="white" stroke="black" points="27.5,-192 27.5,-233 165.5,-233 165.5,-192 27.5,-192"/>
<text text-anchor="start" x="35.5" y="-221" font-family="Helvetica,sans-Serif" font-size="10.00">GenericIncrementSelector</text>
<text text-anchor="start" x="35.5" y="-210" font-family="Helvetica,sans-Serif" font-size="10.00">&lt; N, SelectorLEDsCallback</text>
<text text-anchor="middle" x="96.5" y="-199" font-family="Helvetica,sans-Serif" font-size="10.00">&lt; N &gt; &gt;::update</text>
</a>
</g>
</g>
<!-- Node19&#45;&gt;Node20 -->
<g id="edge20" class="edge"><title>Node19&#45;&gt;Node20</title>
<path fill="none" stroke="midnightblue" d="M227.917,-209.264C207.7,-209.766 185.733,-210.311 165.691,-210.808"/>
<polygon fill="midnightblue" stroke="midnightblue" points="228.086,-212.761 237.997,-209.014 227.913,-205.763 228.086,-212.761"/>
</g>
<!-- Node22 -->
<g id="node22" class="node"><title>Node22</title>
<g id="a_node22"><a xlink:href="../../d5/d20/classIncrementDecrementButtons.html#a647ab3866544ba639c1fdb6ddff1957a" target="_top" xlink:title="Update and return the state of the increment/decrement button.">
<polygon fill="white" stroke="black" points="229,-82.5 229,-112.5 371,-112.5 371,-82.5 229,-82.5"/>
<text text-anchor="start" x="237" y="-100.5" font-family="Helvetica,sans-Serif" font-size="10.00">IncrementDecrementButtons</text>
<text text-anchor="middle" x="300" y="-89.5" font-family="Helvetica,sans-Serif" font-size="10.00">::update</text>
</a>
</g>
</g>
<!-- Node21&#45;&gt;Node22 -->
<g id="edge22" class="edge"><title>Node21&#45;&gt;Node22</title>
<path fill="none" stroke="midnightblue" d="M421.169,-102.894C404.594,-102.15 387.262,-101.372 371.086,-100.646"/>
<polygon fill="midnightblue" stroke="midnightblue" points="421.228,-106.4 431.375,-103.352 421.542,-99.4072 421.228,-106.4"/>
</g>
<!-- Node23 -->
<g id="node23" class="node"><title>Node23</title>
<g id="a_node23"><a xlink:href="../../d3/d78/classGenericIncrementDecrementSelector.html#a8e172d6785251c71b516c5f378d5d315" target="_top" xlink:title=" ">
<polygon fill="white" stroke="black" points="9.5,-132 9.5,-173 183.5,-173 183.5,-132 9.5,-132"/>
<text text-anchor="start" x="17.5" y="-161" font-family="Helvetica,sans-Serif" font-size="10.00">GenericIncrementDecrement</text>
<text text-anchor="start" x="17.5" y="-150" font-family="Helvetica,sans-Serif" font-size="10.00">Selector&lt; N, SelectorLEDsCallback</text>
<text text-anchor="middle" x="96.5" y="-139" font-family="Helvetica,sans-Serif" font-size="10.00">&lt; N &gt; &gt;::update</text>
</a>
</g>
</g>
<!-- Node22&#45;&gt;Node23 -->
<g id="edge23" class="edge"><title>Node22&#45;&gt;Node23</title>
<path fill="none" stroke="midnightblue" d="M234.229,-115.18C214.685,-120.514 193.062,-126.416 172.889,-131.922"/>
<polygon fill="midnightblue" stroke="midnightblue" points="235.214,-118.539 243.939,-112.529 233.371,-111.786 235.214,-118.539"/>
</g>
<!-- Node24 -->
<g id="node24" class="node"><title>Node24</title>
<g id="a_node24"><a xlink:href="../../dc/dc2/classMIDIIncrementDecrementButtons.html#a78a8c0eba892a286583a7c2d72d38af4" target="_top" xlink:title=" ">
<polygon fill="white" stroke="black" points="0,-72 0,-113 193,-113 193,-72 0,-72"/>
<text text-anchor="start" x="8" y="-101" font-family="Helvetica,sans-Serif" font-size="10.00">MIDIIncrementDecrementButtons</text>
<text text-anchor="start" x="8" y="-90" font-family="Helvetica,sans-Serif" font-size="10.00">&lt; RelativeCCSender, DigitalNoteSender</text>
<text text-anchor="middle" x="96.5" y="-79" font-family="Helvetica,sans-Serif" font-size="10.00"> &gt;::update</text>
</a>
</g>
</g>
<!-- Node22&#45;&gt;Node24 -->
<g id="edge24" class="edge"><title>Node22&#45;&gt;Node24</title>
<path fill="none" stroke="midnightblue" d="M218.73,-95.5082C210.375,-95.3009 201.823,-95.0887 193.319,-94.8776"/>
<polygon fill="midnightblue" stroke="midnightblue" points="218.724,-99.009 228.808,-95.7583 218.898,-92.0112 218.724,-99.009"/>
</g>
<!-- Node25 -->
<g id="node25" class="node"><title>Node25</title>
<g id="a_node25"><a xlink:href="../../d1/d2f/classBankable_1_1MIDIIncrementDecrementButtons.html#a7901208546fb74ac054dc1823358a0b9" target="_top" xlink:title=" ">
<polygon fill="white" stroke="black" points="3,-0.5 3,-52.5 190,-52.5 190,-0.5 3,-0.5"/>
<text text-anchor="start" x="11" y="-40.5" font-family="Helvetica,sans-Serif" font-size="10.00">Bankable::MIDIIncrementDecrement</text>
<text text-anchor="start" x="11" y="-29.5" font-family="Helvetica,sans-Serif" font-size="10.00">Buttons&lt; TwoSingleAddresses,</text>
<text text-anchor="start" x="11" y="-18.5" font-family="Helvetica,sans-Serif" font-size="10.00"> RelativeCCSender, DigitalNoteSender</text>
<text text-anchor="middle" x="96.5" y="-7.5" font-family="Helvetica,sans-Serif" font-size="10.00"> &gt;::update</text>
</a>
</g>
</g>
<!-- Node22&#45;&gt;Node25 -->
<g id="edge25" class="edge"><title>Node22&#45;&gt;Node25</title>
<path fill="none" stroke="midnightblue" d="M246.731,-79.0826C223.806,-71.0048 196.483,-61.3775 171.521,-52.5818"/>
<polygon fill="midnightblue" stroke="midnightblue" points="245.672,-82.4204 256.267,-82.4427 247.999,-75.8183 245.672,-82.4204"/>
</g>
</g>
</svg>
