<?xml version="1.0" encoding="UTF-8" standalone="no"?>
<!DOCTYPE svg PUBLIC "-//W3C//DTD SVG 1.1//EN"
 "http://www.w3.org/Graphics/SVG/1.1/DTD/svg11.dtd">
<!-- Generated by graphviz version 2.38.0 (20140413.2041)
 -->
<!-- Title: ExtIO::digitalRead Pages: 1 -->
<svg width="800pt" height="411pt"
 viewBox="0.00 0.00 800.00 411.00" xmlns="http://www.w3.org/2000/svg" xmlns:xlink="http://www.w3.org/1999/xlink">
<g id="graph0" class="graph" transform="scale(1 1) rotate(0) translate(4 407)">
<title>ExtIO::digitalRead</title>
<polygon fill="white" stroke="none" points="-4,4 -4,-407 796,-407 796,4 -4,4"/>
<!-- Node52 -->
<g id="node1" class="node"><title>Node52</title>
<g id="a_node1"><a xlink:title=" ">
<polygon fill="#bfbfbf" stroke="black" points="695,-208 695,-227 792,-227 792,-208 695,-208"/>
<text text-anchor="middle" x="743.5" y="-215" font-family="Helvetica,sans-Serif" font-size="10.00">ExtIO::digitalRead</text>
</a>
</g>
</g>
<!-- Node53 -->
<g id="node2" class="node"><title>Node53</title>
<g id="a_node2"><a xlink:href="../../d8/d3d/namespaceExtIO.html#a9bda9dc007f42a200626d1d4ea94250b" target="_top" xlink:title=" ">
<polygon fill="white" stroke="black" points="562,-208 562,-227 659,-227 659,-208 562,-208"/>
<text text-anchor="middle" x="610.5" y="-215" font-family="Helvetica,sans-Serif" font-size="10.00">ExtIO::digitalRead</text>
</a>
</g>
</g>
<!-- Node52&#45;&gt;Node53 -->
<g id="edge1" class="edge"><title>Node52&#45;&gt;Node53</title>
<path fill="none" stroke="midnightblue" d="M684.649,-210.791C676.197,-210.7 667.572,-210.76 659.349,-210.973"/>
<polygon fill="midnightblue" stroke="midnightblue" points="684.773,-214.294 694.835,-210.978 684.901,-207.295 684.773,-214.294"/>
</g>
<!-- Node53&#45;&gt;Node52 -->
<g id="edge15" class="edge"><title>Node53&#45;&gt;Node52</title>
<path fill="none" stroke="midnightblue" d="M669.54,-224.211C677.995,-224.3 686.618,-224.237 694.835,-224.022"/>
<polygon fill="midnightblue" stroke="midnightblue" points="669.41,-220.708 659.349,-224.027 669.284,-227.707 669.41,-220.708"/>
</g>
<!-- Node54 -->
<g id="node3" class="node"><title>Node54</title>
<g id="a_node3"><a xlink:href="../../d7/d8d/classAnalogMultiplex.html#ac59d85d61812add9eb6d3e28c1c24beb" target="_top" xlink:title="Read the digital state of the given input.">
<polygon fill="white" stroke="black" points="386,-268 386,-287 526,-287 526,-268 386,-268"/>
<text text-anchor="middle" x="456" y="-275" font-family="Helvetica,sans-Serif" font-size="10.00">AnalogMultiplex::digitalRead</text>
</a>
</g>
</g>
<!-- Node53&#45;&gt;Node54 -->
<g id="edge2" class="edge"><title>Node53&#45;&gt;Node54</title>
<path fill="none" stroke="midnightblue" d="M583.456,-231.865C567.261,-240.397 545.817,-250.982 526,-258.5 516.706,-262.026 506.483,-265.203 496.818,-267.906"/>
<polygon fill="midnightblue" stroke="midnightblue" points="585.165,-234.92 592.332,-227.118 581.863,-228.748 585.165,-234.92"/>
</g>
<!-- Node55 -->
<g id="node4" class="node"><title>Node55</title>
<g id="a_node4"><a xlink:href="../../d1/d19/classButton.html#a444805aabacda3e290d668d2fdf4c735" target="_top" xlink:title="Get the state of the button.">
<polygon fill="white" stroke="black" points="412,-230 412,-249 500,-249 500,-230 412,-230"/>
<text text-anchor="middle" x="456" y="-237" font-family="Helvetica,sans-Serif" font-size="10.00">Button::getState</text>
</a>
</g>
</g>
<!-- Node53&#45;&gt;Node55 -->
<g id="edge3" class="edge"><title>Node53&#45;&gt;Node55</title>
<path fill="none" stroke="midnightblue" d="M551.739,-225.833C534.569,-228.31 516.067,-230.979 500.011,-233.295"/>
<polygon fill="midnightblue" stroke="midnightblue" points="552.269,-229.293 561.666,-224.401 551.269,-222.364 552.269,-229.293"/>
</g>
<!-- Node66 -->
<g id="node15" class="node"><title>Node66</title>
<g id="a_node15"><a xlink:href="../../d0/daf/classEncoderSelector__Base.html#ae2862f751184a7163e83947716a5b515" target="_top" xlink:title=" ">
<polygon fill="white" stroke="black" points="398,-180.5 398,-210.5 514,-210.5 514,-180.5 398,-180.5"/>
<text text-anchor="start" x="406" y="-198.5" font-family="Helvetica,sans-Serif" font-size="10.00">EncoderSelector_Base</text>
<text text-anchor="middle" x="456" y="-187.5" font-family="Helvetica,sans-Serif" font-size="10.00">::update</text>
</a>
</g>
</g>
<!-- Node53&#45;&gt;Node66 -->
<g id="edge14" class="edge"><title>Node53&#45;&gt;Node66</title>
<path fill="none" stroke="midnightblue" d="M551.53,-209.137C539.239,-207.364 526.274,-205.494 514.018,-203.726"/>
<polygon fill="midnightblue" stroke="midnightblue" points="551.269,-212.636 561.666,-210.599 552.269,-205.707 551.269,-212.636"/>
</g>
<!-- Node67 -->
<g id="node16" class="node"><title>Node67</title>
<g id="a_node16"><a xlink:href="../../d1/d3d/classManyButtonsSelector__Base.html#a66850c8ca52bae22eabd86568cb948b1" target="_top" xlink:title=" ">
<polygon fill="white" stroke="black" points="401,-131.5 401,-161.5 511,-161.5 511,-131.5 401,-131.5"/>
<text text-anchor="start" x="409" y="-149.5" font-family="Helvetica,sans-Serif" font-size="10.00">ManyButtonsSelector</text>
<text text-anchor="middle" x="456" y="-138.5" font-family="Helvetica,sans-Serif" font-size="10.00">_Base::update</text>
</a>
</g>
</g>
<!-- Node53&#45;&gt;Node67 -->
<g id="edge16" class="edge"><title>Node53&#45;&gt;Node67</title>
<path fill="none" stroke="midnightblue" d="M585.647,-202.569C569.259,-192.689 546.789,-179.876 526,-170.5 518.947,-167.319 511.338,-164.291 503.838,-161.525"/>
<polygon fill="midnightblue" stroke="midnightblue" points="584.176,-205.772 594.534,-207.999 587.826,-199.798 584.176,-205.772"/>
</g>
<!-- Node56 -->
<g id="node5" class="node"><title>Node56</title>
<g id="a_node5"><a xlink:href="../../df/d38/classIncrementButton.html#a5c8d067118823e19c19ea3a4a0c0d965" target="_top" xlink:title=" ">
<polygon fill="white" stroke="black" points="209.5,-375 209.5,-394 340.5,-394 340.5,-375 209.5,-375"/>
<text text-anchor="middle" x="275" y="-382" font-family="Helvetica,sans-Serif" font-size="10.00">IncrementButton::getState</text>
</a>
</g>
</g>
<!-- Node55&#45;&gt;Node56 -->
<g id="edge4" class="edge"><title>Node55&#45;&gt;Node56</title>
<path fill="none" stroke="midnightblue" d="M402.297,-248.059C396.315,-250.683 390.693,-254.088 386,-258.5 350.058,-292.293 385.809,-329.567 350,-363.5 344.959,-368.277 338.913,-371.979 332.478,-374.847"/>
<polygon fill="midnightblue" stroke="midnightblue" points="403.721,-251.265 411.913,-244.546 401.319,-244.69 403.721,-251.265"/>
</g>
<!-- Node58 -->
<g id="node7" class="node"><title>Node58</title>
<g id="a_node7"><a xlink:href="../../d5/d20/classIncrementDecrementButtons.html#ad6efab932f5a392210ad3bf71890466e" target="_top" xlink:title=" ">
<polygon fill="white" stroke="black" points="204,-323.5 204,-353.5 346,-353.5 346,-323.5 204,-323.5"/>
<text text-anchor="start" x="212" y="-341.5" font-family="Helvetica,sans-Serif" font-size="10.00">IncrementDecrementButtons</text>
<text text-anchor="middle" x="275" y="-330.5" font-family="Helvetica,sans-Serif" font-size="10.00">::getState</text>
</a>
</g>
</g>
<!-- Node55&#45;&gt;Node58 -->
<g id="edge6" class="edge"><title>Node55&#45;&gt;Node58</title>
<path fill="none" stroke="midnightblue" d="M402.155,-249.688C396.413,-252.041 390.888,-254.936 386,-258.5 362.393,-275.711 373.106,-295.622 350,-313.5 345.066,-317.317 339.517,-320.57 333.731,-323.337"/>
<polygon fill="midnightblue" stroke="midnightblue" points="403.692,-252.857 411.95,-246.22 401.355,-246.258 403.692,-252.857"/>
</g>
<!-- Node61 -->
<g id="node10" class="node"><title>Node61</title>
<g id="a_node10"><a xlink:href="../../d6/d72/classMIDIButton.html#a500ab1a23dcdbb686b31f1a475328e77" target="_top" xlink:title=" ">
<polygon fill="white" stroke="black" points="224,-285 224,-304 326,-304 326,-285 224,-285"/>
<text text-anchor="middle" x="275" y="-292" font-family="Helvetica,sans-Serif" font-size="10.00">MIDIButton::update</text>
</a>
</g>
</g>
<!-- Node55&#45;&gt;Node61 -->
<g id="edge9" class="edge"><title>Node55&#45;&gt;Node61</title>
<path fill="none" stroke="midnightblue" d="M406.37,-251.906C399.48,-253.948 392.524,-256.167 386,-258.5 369.514,-264.396 366.5,-268.643 350,-274.5 339.089,-278.373 327.047,-281.924 315.904,-284.923"/>
<polygon fill="midnightblue" stroke="midnightblue" points="407.71,-255.163 416.36,-249.045 405.783,-248.433 407.71,-255.163"/>
</g>
<!-- Node62 -->
<g id="node11" class="node"><title>Node62</title>
<g id="a_node11"><a xlink:href="../../d9/df9/classBankable_1_1MIDIButton.html#adca6f4fa37b6061aacc171aaddd741af" target="_top" xlink:title=" ">
<polygon fill="white" stroke="black" points="204,-213.5 204,-265.5 346,-265.5 346,-213.5 204,-213.5"/>
<text text-anchor="start" x="212" y="-253.5" font-family="Helvetica,sans-Serif" font-size="10.00">Bankable::MIDIButton</text>
<text text-anchor="start" x="212" y="-242.5" font-family="Helvetica,sans-Serif" font-size="10.00">&lt; DigitalCCSender::sendOn,</text>
<text text-anchor="start" x="212" y="-231.5" font-family="Helvetica,sans-Serif" font-size="10.00"> DigitalCCSender::sendOff</text>
<text text-anchor="middle" x="275" y="-220.5" font-family="Helvetica,sans-Serif" font-size="10.00"> &gt;::update</text>
</a>
</g>
</g>
<!-- Node55&#45;&gt;Node62 -->
<g id="edge10" class="edge"><title>Node55&#45;&gt;Node62</title>
<path fill="none" stroke="midnightblue" d="M401.199,-239.5C383.894,-239.5 364.461,-239.5 346.16,-239.5"/>
<polygon fill="midnightblue" stroke="midnightblue" points="401.669,-243 411.669,-239.5 401.669,-236 401.669,-243"/>
</g>
<!-- Node63 -->
<g id="node12" class="node"><title>Node63</title>
<g id="a_node12"><a xlink:href="../../d3/d88/classMIDIButtonLatched.html#a4776b093f3fb05ee9ec5d2e7543958ff" target="_top" xlink:title=" ">
<polygon fill="white" stroke="black" points="207,-142.5 207,-194.5 343,-194.5 343,-142.5 207,-142.5"/>
<text text-anchor="start" x="215" y="-182.5" font-family="Helvetica,sans-Serif" font-size="10.00">MIDIButtonLatched&lt;</text>
<text text-anchor="start" x="215" y="-171.5" font-family="Helvetica,sans-Serif" font-size="10.00"> DigitalNoteSender::</text>
<text text-anchor="start" x="215" y="-160.5" font-family="Helvetica,sans-Serif" font-size="10.00">sendOn, DigitalNoteSender</text>
<text text-anchor="middle" x="275" y="-149.5" font-family="Helvetica,sans-Serif" font-size="10.00">::sendOff &gt;::update</text>
</a>
</g>
</g>
<!-- Node55&#45;&gt;Node63 -->
<g id="edge11" class="edge"><title>Node55&#45;&gt;Node63</title>
<path fill="none" stroke="midnightblue" d="M408.358,-227.029C400.82,-224.714 393.147,-222.175 386,-219.5 380.086,-217.286 355.546,-205.942 331.142,-194.513"/>
<polygon fill="midnightblue" stroke="midnightblue" points="407.552,-230.441 418.135,-229.936 409.547,-223.731 407.552,-230.441"/>
</g>
<!-- Node64 -->
<g id="node13" class="node"><title>Node64</title>
<g id="a_node13"><a xlink:href="../../d8/de1/classMIDIButtonLatching.html#aefb3b2f7cfb598d2cd68a622c94ea772" target="_top" xlink:title=" ">
<polygon fill="white" stroke="black" points="204,-71.5 204,-123.5 346,-123.5 346,-71.5 204,-71.5"/>
<text text-anchor="start" x="212" y="-111.5" font-family="Helvetica,sans-Serif" font-size="10.00">MIDIButtonLatching</text>
<text text-anchor="start" x="212" y="-100.5" font-family="Helvetica,sans-Serif" font-size="10.00">&lt; DigitalCCSender::sendOn,</text>
<text text-anchor="start" x="212" y="-89.5" font-family="Helvetica,sans-Serif" font-size="10.00"> DigitalCCSender::sendOff</text>
<text text-anchor="middle" x="275" y="-78.5" font-family="Helvetica,sans-Serif" font-size="10.00"> &gt;::update</text>
</a>
</g>
</g>
<!-- Node55&#45;&gt;Node64 -->
<g id="edge12" class="edge"><title>Node55&#45;&gt;Node64</title>
<path fill="none" stroke="midnightblue" d="M402.306,-229.757C396.369,-227.114 390.756,-223.759 386,-219.5 354.825,-191.585 378.849,-162.812 350,-132.5 346.963,-129.309 343.576,-126.377 339.969,-123.689"/>
<polygon fill="midnightblue" stroke="midnightblue" points="401.233,-233.093 411.825,-233.351 403.706,-226.544 401.233,-233.093"/>
</g>
<!-- Node65 -->
<g id="node14" class="node"><title>Node65</title>
<g id="a_node14"><a xlink:href="../../d3/d0b/classBankable_1_1MIDIButtonLatching.html#a4ee20ec0f37d2f24009c9d89815310e5" target="_top" xlink:title=" ">
<polygon fill="white" stroke="black" points="200,-0.5 200,-52.5 350,-52.5 350,-0.5 200,-0.5"/>
<text text-anchor="start" x="208" y="-40.5" font-family="Helvetica,sans-Serif" font-size="10.00">Bankable::MIDIButtonLatching</text>
<text text-anchor="start" x="208" y="-29.5" font-family="Helvetica,sans-Serif" font-size="10.00">&lt; DigitalCCSender::sendOn,</text>
<text text-anchor="start" x="208" y="-18.5" font-family="Helvetica,sans-Serif" font-size="10.00"> DigitalCCSender::sendOff</text>
<text text-anchor="middle" x="275" y="-7.5" font-family="Helvetica,sans-Serif" font-size="10.00"> &gt;::update</text>
</a>
</g>
</g>
<!-- Node55&#45;&gt;Node65 -->
<g id="edge13" class="edge"><title>Node55&#45;&gt;Node65</title>
<path fill="none" stroke="midnightblue" d="M402.034,-230.707C396.046,-227.913 390.494,-224.263 386,-219.5 336.574,-167.115 395.091,-117.66 350,-61.5 347.42,-58.2863 344.474,-55.3515 341.28,-52.6738"/>
<polygon fill="midnightblue" stroke="midnightblue" points="401.123,-234.106 411.713,-234.429 403.636,-227.573 401.123,-234.106"/>
</g>
<!-- Node57 -->
<g id="node6" class="node"><title>Node57</title>
<g id="a_node6"><a xlink:href="../../d4/de9/classIncrementSelector__Base.html#a1826ffc345c70d8d4ffe104fcc1e5f59" target="_top" xlink:title=" ">
<polygon fill="white" stroke="black" points="20,-372.5 20,-402.5 144,-402.5 144,-372.5 20,-372.5"/>
<text text-anchor="start" x="28" y="-390.5" font-family="Helvetica,sans-Serif" font-size="10.00">IncrementSelector_Base</text>
<text text-anchor="middle" x="82" y="-379.5" font-family="Helvetica,sans-Serif" font-size="10.00">::update</text>
</a>
</g>
</g>
<!-- Node56&#45;&gt;Node57 -->
<g id="edge5" class="edge"><title>Node56&#45;&gt;Node57</title>
<path fill="none" stroke="midnightblue" d="M199.297,-385.673C180.996,-385.961 161.624,-386.265 144.049,-386.541"/>
<polygon fill="midnightblue" stroke="midnightblue" points="199.392,-389.172 209.336,-385.516 199.282,-382.173 199.392,-389.172"/>
</g>
<!-- Node59 -->
<g id="node8" class="node"><title>Node59</title>
<g id="a_node8"><a xlink:href="../../de/d06/classIncrementDecrementSelector__Base.html#a6189ae8fc9b2ecd23bbd3c3835d42eb7" target="_top" xlink:title=" ">
<polygon fill="white" stroke="black" points="10,-323.5 10,-353.5 154,-353.5 154,-323.5 10,-323.5"/>
<text text-anchor="start" x="18" y="-341.5" font-family="Helvetica,sans-Serif" font-size="10.00">IncrementDecrementSelector</text>
<text text-anchor="middle" x="82" y="-330.5" font-family="Helvetica,sans-Serif" font-size="10.00">_Base::update</text>
</a>
</g>
</g>
<!-- Node58&#45;&gt;Node59 -->
<g id="edge7" class="edge"><title>Node58&#45;&gt;Node59</title>
<path fill="none" stroke="midnightblue" d="M193.601,-338.5C180.553,-338.5 167.12,-338.5 154.308,-338.5"/>
<polygon fill="midnightblue" stroke="midnightblue" points="193.963,-342 203.963,-338.5 193.963,-335 193.963,-342"/>
</g>
<!-- Node60 -->
<g id="node9" class="node"><title>Node60</title>
<g id="a_node9"><a xlink:href="../../dc/dc2/classMIDIIncrementDecrementButtons.html#ae1d01910ae5ff00432d80f76859e1670" target="_top" xlink:title=" ">
<polygon fill="white" stroke="black" points="0,-264 0,-305 164,-305 164,-264 0,-264"/>
<text text-anchor="start" x="8" y="-293" font-family="Helvetica,sans-Serif" font-size="10.00">MIDIIncrementDecrementButtons</text>
<text text-anchor="start" x="8" y="-282" font-family="Helvetica,sans-Serif" font-size="10.00">&lt; RelativeCCSender::send</text>
<text text-anchor="middle" x="82" y="-271" font-family="Helvetica,sans-Serif" font-size="10.00"> &gt;::update</text>
</a>
</g>
</g>
<!-- Node58&#45;&gt;Node60 -->
<g id="edge8" class="edge"><title>Node58&#45;&gt;Node60</title>
<path fill="none" stroke="midnightblue" d="M211.114,-320.721C193.336,-315.694 173.844,-310.184 155.547,-305.011"/>
<polygon fill="midnightblue" stroke="midnightblue" points="210.221,-324.105 220.796,-323.458 212.125,-317.369 210.221,-324.105"/>
</g>
</g>
</svg>
