<?xml version="1.0" encoding="UTF-8" standalone="no"?>
<!DOCTYPE svg PUBLIC "-//W3C//DTD SVG 1.1//EN"
 "http://www.w3.org/Graphics/SVG/1.1/DTD/svg11.dtd">
<!-- Generated by graphviz version 2.38.0 (20140413.2041)
 -->
<!-- Title: ExtIO::pinMode Pages: 1 -->
<svg width="672pt" height="633pt"
 viewBox="0.00 0.00 672.00 632.50" xmlns="http://www.w3.org/2000/svg" xmlns:xlink="http://www.w3.org/1999/xlink">
<g id="graph0" class="graph" transform="scale(1 1) rotate(0) translate(4 628.5)">
<title>ExtIO::pinMode</title>
<polygon fill="white" stroke="none" points="-4,4 -4,-628.5 668,-628.5 668,4 -4,4"/>
<!-- Node233 -->
<g id="node1" class="node"><title>Node233</title>
<g id="a_node1"><a xlink:title=" ">
<polygon fill="#bfbfbf" stroke="black" points="579,-164.5 579,-183.5 664,-183.5 664,-164.5 579,-164.5"/>
<text text-anchor="middle" x="621.5" y="-171.5" font-family="Helvetica,sans-Serif" font-size="10.00">ExtIO::pinMode</text>
</a>
</g>
</g>
<!-- Node234 -->
<g id="node2" class="node"><title>Node234</title>
<g id="a_node2"><a xlink:href="../../d1/d19/classButton.html#a666adf00bc92a8b264758abfa655a6a4" target="_top" xlink:title="Initialize (enable the internal pull&#45;up resistor).">
<polygon fill="white" stroke="black" points="438,-344.5 438,-363.5 512,-363.5 512,-344.5 438,-344.5"/>
<text text-anchor="middle" x="475" y="-351.5" font-family="Helvetica,sans-Serif" font-size="10.00">Button::begin</text>
</a>
</g>
</g>
<!-- Node233&#45;&gt;Node234 -->
<g id="edge1" class="edge"><title>Node233&#45;&gt;Node234</title>
<path fill="none" stroke="midnightblue" d="M614.321,-193.448C603.888,-223.641 580.205,-282.145 543,-319 531.719,-330.175 516.134,-338.605 502.834,-344.389"/>
<polygon fill="midnightblue" stroke="midnightblue" points="617.729,-194.291 617.566,-183.698 611.088,-192.081 617.729,-194.291"/>
</g>
<!-- Node247 -->
<g id="node15" class="node"><title>Node247</title>
<g id="a_node15"><a xlink:href="../../d0/daf/classEncoderSelector__Base.html#a0f55e2edbd610515285e8cb54a5cd401" target="_top" xlink:title=" ">
<polygon fill="white" stroke="black" points="417,-279 417,-309 533,-309 533,-279 417,-279"/>
<text text-anchor="start" x="425" y="-297" font-family="Helvetica,sans-Serif" font-size="10.00">EncoderSelector_Base</text>
<text text-anchor="middle" x="475" y="-286" font-family="Helvetica,sans-Serif" font-size="10.00">::beginInput</text>
</a>
</g>
</g>
<!-- Node233&#45;&gt;Node247 -->
<g id="edge14" class="edge"><title>Node233&#45;&gt;Node247</title>
<path fill="none" stroke="midnightblue" d="M609.682,-192.486C596.427,-213.67 572.106,-248.141 543,-269 537.752,-272.761 531.872,-276.025 525.833,-278.84"/>
<polygon fill="midnightblue" stroke="midnightblue" points="612.768,-194.148 614.971,-183.785 606.786,-190.512 612.768,-194.148"/>
</g>
<!-- Node248 -->
<g id="node16" class="node"><title>Node248</title>
<g id="a_node16"><a xlink:href="../../d6/df4/Exit_8cpp.html#a70341be23d4638984587786720541e43" target="_top" xlink:title=" ">
<polygon fill="white" stroke="black" points="438,-240.5 438,-259.5 512,-259.5 512,-240.5 438,-240.5"/>
<text text-anchor="middle" x="475" y="-247.5" font-family="Helvetica,sans-Serif" font-size="10.00">fatalErrorExit</text>
</a>
</g>
</g>
<!-- Node233&#45;&gt;Node248 -->
<g id="edge15" class="edge"><title>Node233&#45;&gt;Node248</title>
<path fill="none" stroke="midnightblue" d="M601.833,-190.732C586.863,-203.374 564.82,-220.319 543,-231 533.444,-235.678 522.541,-239.385 512.345,-242.236"/>
<polygon fill="midnightblue" stroke="midnightblue" points="604.499,-193.053 609.774,-183.865 599.92,-187.758 604.499,-193.053"/>
</g>
<!-- Node249 -->
<g id="node17" class="node"><title>Node249</title>
<g id="a_node17"><a xlink:href="../../d8/d3d/namespaceExtIO.html#aa2255838f49566f984eb61c8609a6a7a" target="_top" xlink:title=" ">
<polygon fill="white" stroke="black" points="432.5,-202.5 432.5,-221.5 517.5,-221.5 517.5,-202.5 432.5,-202.5"/>
<text text-anchor="middle" x="475" y="-209.5" font-family="Helvetica,sans-Serif" font-size="10.00">ExtIO::pinMode</text>
</a>
</g>
</g>
<!-- Node233&#45;&gt;Node249 -->
<g id="edge16" class="edge"><title>Node233&#45;&gt;Node249</title>
<path fill="none" stroke="midnightblue" d="M574.167,-186.184C554.106,-191.46 530.971,-197.544 512.201,-202.48"/>
<polygon fill="midnightblue" stroke="midnightblue" points="575.256,-189.517 584.037,-183.589 573.475,-182.747 575.256,-189.517"/>
</g>
<!-- Node250 -->
<g id="node18" class="node"><title>Node250</title>
<g id="a_node18"><a xlink:href="../../d2/d1b/classLEDs.html#af3aa0b3cc118a008ddcf1ad3af5bed26" target="_top" xlink:title=" ">
<polygon fill="white" stroke="black" points="425.5,-164.5 425.5,-183.5 524.5,-183.5 524.5,-164.5 425.5,-164.5"/>
<text text-anchor="middle" x="475" y="-171.5" font-family="Helvetica,sans-Serif" font-size="10.00">LEDs&lt; 11 &gt;::begin</text>
</a>
</g>
</g>
<!-- Node233&#45;&gt;Node250 -->
<g id="edge17" class="edge"><title>Node233&#45;&gt;Node250</title>
<path fill="none" stroke="midnightblue" d="M568.514,-174C554.189,-174 538.708,-174 524.583,-174"/>
<polygon fill="midnightblue" stroke="midnightblue" points="568.705,-177.5 578.705,-174 568.705,-170.5 568.705,-177.5"/>
</g>
<!-- Node251 -->
<g id="node19" class="node"><title>Node251</title>
<g id="a_node19"><a xlink:href="../../d1/d3d/classManyButtonsSelector__Base.html#ac692bcd41c1cae3cf89d51b36b3193d8" target="_top" xlink:title=" ">
<polygon fill="white" stroke="black" points="420,-115 420,-145 530,-145 530,-115 420,-115"/>
<text text-anchor="start" x="428" y="-133" font-family="Helvetica,sans-Serif" font-size="10.00">ManyButtonsSelector</text>
<text text-anchor="middle" x="475" y="-122" font-family="Helvetica,sans-Serif" font-size="10.00">_Base::beginInput</text>
</a>
</g>
</g>
<!-- Node233&#45;&gt;Node251 -->
<g id="edge18" class="edge"><title>Node233&#45;&gt;Node251</title>
<path fill="none" stroke="midnightblue" d="M579.123,-161.401C562.394,-156.307 542.946,-150.385 525.476,-145.065"/>
<polygon fill="midnightblue" stroke="midnightblue" points="578.56,-164.888 589.146,-164.453 580.599,-158.191 578.56,-164.888"/>
</g>
<!-- Node252 -->
<g id="node20" class="node"><title>Node252</title>
<g id="a_node20"><a xlink:href="../../da/dd0/classMAX7219__Base.html#abc1d2ae777d19ca9aaf8eb7d1f500716" target="_top" xlink:title=" ">
<polygon fill="white" stroke="black" points="422,-76.5 422,-95.5 528,-95.5 528,-76.5 422,-76.5"/>
<text text-anchor="middle" x="475" y="-83.5" font-family="Helvetica,sans-Serif" font-size="10.00">MAX7219_Base::init</text>
</a>
</g>
</g>
<!-- Node233&#45;&gt;Node252 -->
<g id="edge19" class="edge"><title>Node233&#45;&gt;Node252</title>
<path fill="none" stroke="midnightblue" d="M605.731,-157.035C591.233,-141.385 567.746,-118.579 543,-105 536.004,-101.161 528.162,-98.0387 520.376,-95.5186"/>
<polygon fill="midnightblue" stroke="midnightblue" points="603.154,-159.403 612.453,-164.48 608.35,-154.712 603.154,-159.403"/>
</g>
<!-- Node255 -->
<g id="node23" class="node"><title>Node255</title>
<g id="a_node23"><a xlink:href="../../d3/db4/classMIDINoteLED__Base.html#a75da3183d48daa3aebc466d0895d7405" target="_top" xlink:title="Initialize the input element.">
<polygon fill="white" stroke="black" points="407,-38.5 407,-57.5 543,-57.5 543,-38.5 407,-38.5"/>
<text text-anchor="middle" x="475" y="-45.5" font-family="Helvetica,sans-Serif" font-size="10.00">MIDINoteLED_Base::begin</text>
</a>
</g>
</g>
<!-- Node233&#45;&gt;Node255 -->
<g id="edge22" class="edge"><title>Node233&#45;&gt;Node255</title>
<path fill="none" stroke="midnightblue" d="M611.833,-155.189C599.792,-131.14 575.733,-89.8845 543,-67 537.451,-63.1205 531.123,-60.0291 524.624,-57.5666"/>
<polygon fill="midnightblue" stroke="midnightblue" points="608.75,-156.853 616.248,-164.338 615.055,-153.811 608.75,-156.853"/>
</g>
<!-- Node256 -->
<g id="node24" class="node"><title>Node256</title>
<g id="a_node24"><a xlink:href="../../dd/d8b/classSelectorLEDs.html#ab233434c25c75a83b32972a332c52fd0" target="_top" xlink:title=" ">
<polygon fill="white" stroke="black" points="407,-0.5 407,-19.5 543,-19.5 543,-0.5 407,-0.5"/>
<text text-anchor="middle" x="475" y="-7.5" font-family="Helvetica,sans-Serif" font-size="10.00">SelectorLEDs::beginOutput</text>
</a>
</g>
</g>
<!-- Node233&#45;&gt;Node256 -->
<g id="edge23" class="edge"><title>Node233&#45;&gt;Node256</title>
<path fill="none" stroke="midnightblue" d="M615.437,-154.456C606.323,-123.21 584.16,-62.1575 543,-29 538.198,-25.1317 532.65,-22.0506 526.845,-19.5965"/>
<polygon fill="midnightblue" stroke="midnightblue" points="612.085,-155.467 618.126,-164.171 618.831,-153.599 612.085,-155.467"/>
</g>
<!-- Node235 -->
<g id="node3" class="node"><title>Node235</title>
<g id="a_node3"><a xlink:href="../../df/d38/classIncrementButton.html#a03eb36a87c5651067e384134843bdb65" target="_top" xlink:title=" ">
<polygon fill="white" stroke="black" points="232.5,-585.5 232.5,-604.5 350.5,-604.5 350.5,-585.5 232.5,-585.5"/>
<text text-anchor="middle" x="291.5" y="-592.5" font-family="Helvetica,sans-Serif" font-size="10.00">IncrementButton::begin</text>
</a>
</g>
</g>
<!-- Node234&#45;&gt;Node235 -->
<g id="edge2" class="edge"><title>Node234&#45;&gt;Node235</title>
<path fill="none" stroke="midnightblue" d="M467.811,-373.409C454.978,-411.14 422.314,-495.372 371,-549 355.493,-565.206 333.036,-577.587 316.111,-585.4"/>
<polygon fill="midnightblue" stroke="midnightblue" points="471.215,-374.263 471.03,-363.669 464.569,-372.066 471.215,-374.263"/>
</g>
<!-- Node237 -->
<g id="node5" class="node"><title>Node237</title>
<g id="a_node5"><a xlink:href="../../d5/d20/classIncrementDecrementButtons.html#af661941dbb4a67e2b3919306bae23c8f" target="_top" xlink:title=" ">
<polygon fill="white" stroke="black" points="220.5,-509 220.5,-539 362.5,-539 362.5,-509 220.5,-509"/>
<text text-anchor="start" x="228.5" y="-527" font-family="Helvetica,sans-Serif" font-size="10.00">IncrementDecrementButtons</text>
<text text-anchor="middle" x="291.5" y="-516" font-family="Helvetica,sans-Serif" font-size="10.00">::begin</text>
</a>
</g>
</g>
<!-- Node234&#45;&gt;Node237 -->
<g id="edge4" class="edge"><title>Node234&#45;&gt;Node237</title>
<path fill="none" stroke="midnightblue" d="M465.507,-373.01C450.73,-403.948 417.377,-465.133 371,-499 365.687,-502.88 359.748,-506.173 353.581,-508.964"/>
<polygon fill="midnightblue" stroke="midnightblue" points="468.764,-374.304 469.797,-363.76 462.414,-371.359 468.764,-374.304"/>
</g>
<!-- Node241 -->
<g id="node9" class="node"><title>Node241</title>
<g id="a_node9"><a xlink:href="../../d6/d72/classMIDIButton.html#a04eb4983b55b7362a561fc808a605ba1" target="_top" xlink:title=" ">
<polygon fill="white" stroke="black" points="243.5,-470.5 243.5,-489.5 339.5,-489.5 339.5,-470.5 243.5,-470.5"/>
<text text-anchor="middle" x="291.5" y="-477.5" font-family="Helvetica,sans-Serif" font-size="10.00">MIDIButton::begin</text>
</a>
</g>
</g>
<!-- Node234&#45;&gt;Node241 -->
<g id="edge8" class="edge"><title>Node234&#45;&gt;Node241</title>
<path fill="none" stroke="midnightblue" d="M461.777,-372.012C444.46,-396.09 410.463,-438.355 371,-461 361.514,-466.444 350.521,-470.334 339.82,-473.112"/>
<polygon fill="midnightblue" stroke="midnightblue" points="464.694,-373.949 467.574,-363.753 458.964,-369.928 464.694,-373.949"/>
</g>
<!-- Node242 -->
<g id="node10" class="node"><title>Node242</title>
<g id="a_node10"><a xlink:href="../../d9/df9/classBankable_1_1MIDIButton.html#a125820966ab551393b8b4df765cd6447" target="_top" xlink:title=" ">
<polygon fill="white" stroke="black" points="220.5,-399 220.5,-451 362.5,-451 362.5,-399 220.5,-399"/>
<text text-anchor="start" x="228.5" y="-439" font-family="Helvetica,sans-Serif" font-size="10.00">Bankable::MIDIButton</text>
<text text-anchor="start" x="228.5" y="-428" font-family="Helvetica,sans-Serif" font-size="10.00">&lt; DigitalCCSender::sendOn,</text>
<text text-anchor="start" x="228.5" y="-417" font-family="Helvetica,sans-Serif" font-size="10.00"> DigitalCCSender::sendOff</text>
<text text-anchor="middle" x="291.5" y="-406" font-family="Helvetica,sans-Serif" font-size="10.00"> &gt;::begin</text>
</a>
</g>
</g>
<!-- Node234&#45;&gt;Node242 -->
<g id="edge9" class="edge"><title>Node234&#45;&gt;Node242</title>
<path fill="none" stroke="midnightblue" d="M439.986,-367.306C417.249,-376.2 386.578,-388.198 359.096,-398.949"/>
<polygon fill="midnightblue" stroke="midnightblue" points="441.484,-370.478 449.522,-363.575 438.934,-363.959 441.484,-370.478"/>
</g>
<!-- Node243 -->
<g id="node11" class="node"><title>Node243</title>
<g id="a_node11"><a xlink:href="../../d3/d88/classMIDIButtonLatched.html#ac12d94686b713f745b22c0343f8d1349" target="_top" xlink:title=" ">
<polygon fill="white" stroke="black" points="223.5,-328 223.5,-380 359.5,-380 359.5,-328 223.5,-328"/>
<text text-anchor="start" x="231.5" y="-368" font-family="Helvetica,sans-Serif" font-size="10.00">MIDIButtonLatched&lt;</text>
<text text-anchor="start" x="231.5" y="-357" font-family="Helvetica,sans-Serif" font-size="10.00"> DigitalCCSender::sendOn,</text>
<text text-anchor="start" x="231.5" y="-346" font-family="Helvetica,sans-Serif" font-size="10.00"> DigitalCCSender::sendOff</text>
<text text-anchor="middle" x="291.5" y="-335" font-family="Helvetica,sans-Serif" font-size="10.00"> &gt;::begin</text>
</a>
</g>
</g>
<!-- Node234&#45;&gt;Node243 -->
<g id="edge10" class="edge"><title>Node234&#45;&gt;Node243</title>
<path fill="none" stroke="midnightblue" d="M427.61,-354C406.942,-354 382.204,-354 359.576,-354"/>
<polygon fill="midnightblue" stroke="midnightblue" points="427.707,-357.5 437.707,-354 427.707,-350.5 427.707,-357.5"/>
</g>
<!-- Node244 -->
<g id="node12" class="node"><title>Node244</title>
<g id="a_node12"><a xlink:href="../../df/dca/classBankable_1_1MIDIButtonLatched.html#ac100ef66e13d05bbeddb1691a6fd2ce0" target="_top" xlink:title=" ">
<polygon fill="white" stroke="black" points="217.5,-257 217.5,-309 365.5,-309 365.5,-257 217.5,-257"/>
<text text-anchor="start" x="225.5" y="-297" font-family="Helvetica,sans-Serif" font-size="10.00">Bankable::MIDIButtonLatched</text>
<text text-anchor="start" x="225.5" y="-286" font-family="Helvetica,sans-Serif" font-size="10.00">&lt; DigitalCCSender::sendOn,</text>
<text text-anchor="start" x="225.5" y="-275" font-family="Helvetica,sans-Serif" font-size="10.00"> DigitalCCSender::sendOff</text>
<text text-anchor="middle" x="291.5" y="-264" font-family="Helvetica,sans-Serif" font-size="10.00"> &gt;::begin</text>
</a>
</g>
</g>
<!-- Node234&#45;&gt;Node244 -->
<g id="edge11" class="edge"><title>Node234&#45;&gt;Node244</title>
<path fill="none" stroke="midnightblue" d="M439.986,-340.694C417.249,-331.8 386.578,-319.802 359.096,-309.051"/>
<polygon fill="midnightblue" stroke="midnightblue" points="438.934,-344.041 449.522,-344.425 441.484,-337.522 438.934,-344.041"/>
</g>
<!-- Node245 -->
<g id="node13" class="node"><title>Node245</title>
<g id="a_node13"><a xlink:href="../../d8/de1/classMIDIButtonLatching.html#a2008b6b51e779d44e87129e43f5ccc3c" target="_top" xlink:title=" ">
<polygon fill="white" stroke="black" points="220.5,-186 220.5,-238 362.5,-238 362.5,-186 220.5,-186"/>
<text text-anchor="start" x="228.5" y="-226" font-family="Helvetica,sans-Serif" font-size="10.00">MIDIButtonLatching</text>
<text text-anchor="start" x="228.5" y="-215" font-family="Helvetica,sans-Serif" font-size="10.00">&lt; DigitalCCSender::sendOn,</text>
<text text-anchor="start" x="228.5" y="-204" font-family="Helvetica,sans-Serif" font-size="10.00"> DigitalCCSender::sendOff</text>
<text text-anchor="middle" x="291.5" y="-193" font-family="Helvetica,sans-Serif" font-size="10.00"> &gt;::begin</text>
</a>
</g>
</g>
<!-- Node234&#45;&gt;Node245 -->
<g id="edge12" class="edge"><title>Node234&#45;&gt;Node245</title>
<path fill="none" stroke="midnightblue" d="M437.738,-340.162C426.906,-334.763 415.632,-327.737 407,-319 382.135,-293.831 396.504,-272.521 371,-248 367.217,-244.363 363.001,-241.047 358.542,-238.034"/>
<polygon fill="midnightblue" stroke="midnightblue" points="436.521,-343.456 447.065,-344.49 439.467,-337.106 436.521,-343.456"/>
</g>
<!-- Node246 -->
<g id="node14" class="node"><title>Node246</title>
<g id="a_node14"><a xlink:href="../../d3/d0b/classBankable_1_1MIDIButtonLatching.html#a1b550d81a44c65797651145102e39d70" target="_top" xlink:title=" ">
<polygon fill="white" stroke="black" points="216.5,-115 216.5,-167 366.5,-167 366.5,-115 216.5,-115"/>
<text text-anchor="start" x="224.5" y="-155" font-family="Helvetica,sans-Serif" font-size="10.00">Bankable::MIDIButtonLatching</text>
<text text-anchor="start" x="224.5" y="-144" font-family="Helvetica,sans-Serif" font-size="10.00">&lt; DigitalCCSender::sendOn,</text>
<text text-anchor="start" x="224.5" y="-133" font-family="Helvetica,sans-Serif" font-size="10.00"> DigitalCCSender::sendOff</text>
<text text-anchor="middle" x="291.5" y="-122" font-family="Helvetica,sans-Serif" font-size="10.00"> &gt;::begin</text>
</a>
</g>
</g>
<!-- Node234&#45;&gt;Node246 -->
<g id="edge13" class="edge"><title>Node234&#45;&gt;Node246</title>
<path fill="none" stroke="midnightblue" d="M434.299,-340.149C424.14,-334.921 414.095,-327.992 407,-319 366.404,-267.549 413.171,-226.169 371,-176 368.312,-172.802 365.272,-169.884 361.991,-167.225"/>
<polygon fill="midnightblue" stroke="midnightblue" points="433.038,-343.422 443.58,-344.481 435.999,-337.08 433.038,-343.422"/>
</g>
<!-- Node236 -->
<g id="node4" class="node"><title>Node236</title>
<g id="a_node4"><a xlink:href="../../d4/de9/classIncrementSelector__Base.html#a54033279b3d555050b23e21f870cf851" target="_top" xlink:title=" ">
<polygon fill="white" stroke="black" points="26,-594 26,-624 150,-624 150,-594 26,-594"/>
<text text-anchor="start" x="34" y="-612" font-family="Helvetica,sans-Serif" font-size="10.00">IncrementSelector_Base</text>
<text text-anchor="middle" x="88" y="-601" font-family="Helvetica,sans-Serif" font-size="10.00">::beginInput</text>
</a>
</g>
</g>
<!-- Node235&#45;&gt;Node236 -->
<g id="edge3" class="edge"><title>Node235&#45;&gt;Node236</title>
<path fill="none" stroke="midnightblue" d="M222.297,-599.739C198.91,-601.364 172.901,-603.171 150.111,-604.754"/>
<polygon fill="midnightblue" stroke="midnightblue" points="222.755,-603.215 232.488,-599.031 222.27,-596.232 222.755,-603.215"/>
</g>
<!-- Node238 -->
<g id="node6" class="node"><title>Node238</title>
<g id="a_node6"><a xlink:href="../../de/d06/classIncrementDecrementSelector__Base.html#a1b9217b63785445fbf994e06f87d59b1" target="_top" xlink:title=" ">
<polygon fill="white" stroke="black" points="16,-545 16,-575 160,-575 160,-545 16,-545"/>
<text text-anchor="start" x="24" y="-563" font-family="Helvetica,sans-Serif" font-size="10.00">IncrementDecrementSelector</text>
<text text-anchor="middle" x="88" y="-552" font-family="Helvetica,sans-Serif" font-size="10.00">_Base::beginInput</text>
</a>
</g>
</g>
<!-- Node237&#45;&gt;Node238 -->
<g id="edge5" class="edge"><title>Node237&#45;&gt;Node238</title>
<path fill="none" stroke="midnightblue" d="M210.162,-538.353C193.682,-541.298 176.441,-544.378 160.306,-547.261"/>
<polygon fill="midnightblue" stroke="midnightblue" points="211.079,-541.745 220.308,-536.541 209.848,-534.854 211.079,-541.745"/>
</g>
<!-- Node239 -->
<g id="node7" class="node"><title>Node239</title>
<g id="a_node7"><a xlink:href="../../dc/dc2/classMIDIIncrementDecrementButtons.html#ab4a676fd35e419713549f8be2b4cbc3a" target="_top" xlink:title=" ">
<polygon fill="white" stroke="black" points="6,-496 6,-526 170,-526 170,-496 6,-496"/>
<text text-anchor="start" x="14" y="-514" font-family="Helvetica,sans-Serif" font-size="10.00">MIDIIncrementDecrementButtons</text>
<text text-anchor="middle" x="88" y="-503" font-family="Helvetica,sans-Serif" font-size="10.00">::begin</text>
</a>
</g>
</g>
<!-- Node237&#45;&gt;Node239 -->
<g id="edge6" class="edge"><title>Node237&#45;&gt;Node239</title>
<path fill="none" stroke="midnightblue" d="M209.965,-518.804C196.921,-517.963 183.405,-517.091 170.342,-516.248"/>
<polygon fill="midnightblue" stroke="midnightblue" points="210.103,-522.32 220.308,-519.471 210.554,-515.335 210.103,-522.32"/>
</g>
<!-- Node240 -->
<g id="node8" class="node"><title>Node240</title>
<g id="a_node8"><a xlink:href="../../d1/d2f/classBankable_1_1MIDIIncrementDecrementButtons.html#ad96a50ea1490e5d061d57a6d208deaf7" target="_top" xlink:title=" ">
<polygon fill="white" stroke="black" points="-1.42109e-14,-436.5 -1.42109e-14,-477.5 176,-477.5 176,-436.5 -1.42109e-14,-436.5"/>
<text text-anchor="start" x="8" y="-465.5" font-family="Helvetica,sans-Serif" font-size="10.00">Bankable::MIDIIncrementDecrement</text>
<text text-anchor="start" x="8" y="-454.5" font-family="Helvetica,sans-Serif" font-size="10.00">Buttons&lt; RelativeCCSender</text>
<text text-anchor="middle" x="88" y="-443.5" font-family="Helvetica,sans-Serif" font-size="10.00">::send &gt;::begin</text>
</a>
</g>
</g>
<!-- Node237&#45;&gt;Node240 -->
<g id="edge7" class="edge"><title>Node237&#45;&gt;Node240</title>
<path fill="none" stroke="midnightblue" d="M233.086,-505.867C225.978,-503.577 218.817,-501.249 212,-499 191.214,-492.142 168.521,-484.451 148.35,-477.543"/>
<polygon fill="midnightblue" stroke="midnightblue" points="232.118,-509.232 242.709,-508.954 234.257,-502.567 232.118,-509.232"/>
</g>
<!-- Node253 -->
<g id="node21" class="node"><title>Node253</title>
<g id="a_node21"><a xlink:href="../../dc/d19/classMAX7219.html#ade26fbae73442246ab3e1887c0b79b68" target="_top" xlink:title="Initialize the extended IO element.">
<polygon fill="white" stroke="black" points="247,-76.5 247,-95.5 336,-95.5 336,-76.5 247,-76.5"/>
<text text-anchor="middle" x="291.5" y="-83.5" font-family="Helvetica,sans-Serif" font-size="10.00">MAX7219::begin</text>
</a>
</g>
</g>
<!-- Node252&#45;&gt;Node253 -->
<g id="edge20" class="edge"><title>Node252&#45;&gt;Node253</title>
<path fill="none" stroke="midnightblue" d="M411.906,-86C387.013,-86 358.916,-86 336.233,-86"/>
<polygon fill="midnightblue" stroke="midnightblue" points="411.989,-89.5001 421.989,-86 411.989,-82.5001 411.989,-89.5001"/>
</g>
<!-- Node254 -->
<g id="node22" class="node"><title>Node254</title>
<g id="a_node22"><a xlink:href="../../d4/d26/classMAX7219SevenSegmentDisplay.html#aced7b9dd40938f24383caf0896d8ba7e" target="_top" xlink:title=" ">
<polygon fill="white" stroke="black" points="212,-27 212,-57 371,-57 371,-27 212,-27"/>
<text text-anchor="start" x="220" y="-45" font-family="Helvetica,sans-Serif" font-size="10.00">MAX7219SevenSegmentDisplay</text>
<text text-anchor="middle" x="291.5" y="-34" font-family="Helvetica,sans-Serif" font-size="10.00">::begin</text>
</a>
</g>
</g>
<!-- Node252&#45;&gt;Node254 -->
<g id="edge21" class="edge"><title>Node252&#45;&gt;Node254</title>
<path fill="none" stroke="midnightblue" d="M424.685,-74.045C403.095,-68.8108 377.519,-62.6107 354.645,-57.0654"/>
<polygon fill="midnightblue" stroke="midnightblue" points="424.074,-77.4981 434.617,-76.4527 425.723,-70.6951 424.074,-77.4981"/>
</g>
</g>
</svg>
