<?xml version="1.0" encoding="UTF-8" standalone="no"?>
<!DOCTYPE svg PUBLIC "-//W3C//DTD SVG 1.1//EN"
 "http://www.w3.org/Graphics/SVG/1.1/DTD/svg11.dtd">
<!-- Generated by graphviz version 2.38.0 (20140413.2041)
 -->
<!-- Title: PerfTimer::getDuration Pages: 1 -->
<svg width="503pt" height="91pt"
 viewBox="0.00 0.00 503.00 91.00" xmlns="http://www.w3.org/2000/svg" xmlns:xlink="http://www.w3.org/1999/xlink">
<g id="graph0" class="graph" transform="scale(1 1) rotate(0) translate(4 87)">
<title>PerfTimer::getDuration</title>
<polygon fill="white" stroke="none" points="-4,4 -4,-87 499,-87 499,4 -4,4"/>
<!-- Node5 -->
<g id="node1" class="node"><title>Node5</title>
<g id="a_node1"><a xlink:title=" ">
<polygon fill="#bfbfbf" stroke="black" points="379,-22.5 379,-41.5 495,-41.5 495,-22.5 379,-22.5"/>
<text text-anchor="middle" x="437" y="-29.5" font-family="Helvetica,sans-Serif" font-size="10.00">PerfTimer::getDuration</text>
</a>
</g>
</g>
<!-- Node6 -->
<g id="node2" class="node"><title>Node6</title>
<g id="a_node2"><a xlink:href="../../d3/d2a/structDroneParamsAndMatrices.html#adacdec3d0bc26c93da462c407c282828" target="_top" xlink:title="Loads all system matrices and parameters from the respective files in the given folder.">
<polygon fill="white" stroke="black" points="212,-39 212,-69 343,-69 343,-39 212,-39"/>
<text text-anchor="start" x="220" y="-57" font-family="Helvetica,sans-Serif" font-size="10.00">DroneParamsAndMatrices</text>
<text text-anchor="middle" x="277.5" y="-46" font-family="Helvetica,sans-Serif" font-size="10.00">::load</text>
</a>
</g>
</g>
<!-- Node5&#45;&gt;Node6 -->
<g id="edge1" class="edge"><title>Node5&#45;&gt;Node6</title>
<path fill="none" stroke="midnightblue" d="M368.562,-41.42C360.163,-42.5932 351.588,-43.7908 343.232,-44.9581"/>
<polygon fill="midnightblue" stroke="midnightblue" points="369.274,-44.8546 378.693,-40.0047 368.305,-37.9219 369.274,-44.8546"/>
</g>
<!-- Node9 -->
<g id="node5" class="node"><title>Node9</title>
<g id="a_node5"><a xlink:href="../../d6/dba/plot-simulation_2main_8cpp.html#abf9e6b7e6f15df4b525a2e7705ba3089" target="_top" xlink:title=" ">
<polygon fill="white" stroke="black" points="258.5,-0.5 258.5,-19.5 296.5,-19.5 296.5,-0.5 258.5,-0.5"/>
<text text-anchor="middle" x="277.5" y="-7.5" font-family="Helvetica,sans-Serif" font-size="10.00">main</text>
</a>
</g>
</g>
<!-- Node5&#45;&gt;Node9 -->
<g id="edge4" class="edge"><title>Node5&#45;&gt;Node9</title>
<path fill="none" stroke="midnightblue" d="M368.754,-22.6069C342.533,-18.9443 314.573,-15.0388 296.842,-12.562"/>
<polygon fill="midnightblue" stroke="midnightblue" points="368.305,-26.0781 378.693,-23.9953 369.274,-19.1454 368.305,-26.0781"/>
</g>
<!-- Node7 -->
<g id="node3" class="node"><title>Node7</title>
<g id="a_node3"><a xlink:href="../../dd/d92/structDrone.html#a6b42deda4aba13c4fd56c6b95a21e2f0" target="_top" xlink:title="Create a drone, loading the parameters from a given path.">
<polygon fill="white" stroke="black" points="50.5,-63.5 50.5,-82.5 125.5,-82.5 125.5,-63.5 50.5,-63.5"/>
<text text-anchor="middle" x="88" y="-70.5" font-family="Helvetica,sans-Serif" font-size="10.00">Drone::Drone</text>
</a>
</g>
</g>
<!-- Node6&#45;&gt;Node7 -->
<g id="edge2" class="edge"><title>Node6&#45;&gt;Node7</title>
<path fill="none" stroke="midnightblue" d="M201.695,-61.5802C175.563,-64.2283 147.381,-67.0841 125.736,-69.2774"/>
<polygon fill="midnightblue" stroke="midnightblue" points="202.377,-65.0291 211.973,-60.5387 201.671,-58.0648 202.377,-65.0291"/>
</g>
<!-- Node8 -->
<g id="node4" class="node"><title>Node8</title>
<g id="a_node4"><a xlink:href="../../dd/d2c/PyDrone_8hpp.html#aed0ee5ed76a43abda91eddf6407965d3" target="_top" xlink:title=" ">
<polygon fill="white" stroke="black" points="-1.42109e-14,-25.5 -1.42109e-14,-44.5 176,-44.5 176,-25.5 -1.42109e-14,-25.5"/>
<text text-anchor="middle" x="88" y="-32.5" font-family="Helvetica,sans-Serif" font-size="10.00">PYBIND11_EMBEDDED_MODULE</text>
</a>
</g>
</g>
<!-- Node6&#45;&gt;Node8 -->
<g id="edge3" class="edge"><title>Node6&#45;&gt;Node8</title>
<path fill="none" stroke="midnightblue" d="M201.815,-46.4319C193.384,-45.5775 184.737,-44.7014 176.165,-43.8327"/>
<polygon fill="midnightblue" stroke="midnightblue" points="201.671,-49.9352 211.973,-47.4613 202.377,-42.9709 201.671,-49.9352"/>
</g>
</g>
</svg>
