<?xml version="1.0" encoding="UTF-8" standalone="no"?>
<!DOCTYPE svg PUBLIC "-//W3C//DTD SVG 1.1//EN"
 "http://www.w3.org/Graphics/SVG/1.1/DTD/svg11.dtd">
<!-- Generated by graphviz version 2.38.0 (20140413.2041)
 -->
<!-- Title: MCU::VU_Base::setOverloadHelper Pages: 1 -->
<svg width="459pt" height="78pt"
 viewBox="0.00 0.00 459.00 77.50" xmlns="http://www.w3.org/2000/svg" xmlns:xlink="http://www.w3.org/1999/xlink">
<g id="graph0" class="graph" transform="scale(1 1) rotate(0) translate(4 73.5)">
<title>MCU::VU_Base::setOverloadHelper</title>
<polygon fill="white" stroke="none" points="-4,4 -4,-73.5 455,-73.5 455,4 -4,4"/>
<!-- Node101 -->
<g id="node1" class="node"><title>Node101</title>
<g id="a_node1"><a xlink:title=" ">
<polygon fill="#bfbfbf" stroke="black" points="305,-22.5 305,-52.5 451,-52.5 451,-22.5 305,-22.5"/>
<text text-anchor="start" x="313" y="-40.5" font-family="Helvetica,sans-Serif" font-size="10.00">MCU::VU_Base::setOverload</text>
<text text-anchor="middle" x="378" y="-29.5" font-family="Helvetica,sans-Serif" font-size="10.00">Helper</text>
</a>
</g>
</g>
<!-- Node102 -->
<g id="node2" class="node"><title>Node102</title>
<g id="a_node2"><a xlink:href="../../d8/d4c/classMCU_1_1VU.html#aa83d44795e9fe02a921d3948039f58f1" target="_top" xlink:title=" ">
<polygon fill="white" stroke="black" points="150,-50 150,-69 269,-69 269,-50 150,-50"/>
<text text-anchor="middle" x="209.5" y="-57" font-family="Helvetica,sans-Serif" font-size="10.00">MCU::VU::setOverload</text>
</a>
</g>
</g>
<!-- Node101&#45;&gt;Node102 -->
<g id="edge1" class="edge"><title>Node101&#45;&gt;Node102</title>
<path fill="none" stroke="midnightblue" d="M294.802,-48.361C286.142,-49.5053 277.466,-50.6516 269.15,-51.7504"/>
<polygon fill="midnightblue" stroke="midnightblue" points="295.484,-51.8014 304.939,-47.0216 294.567,-44.8617 295.484,-51.8014"/>
</g>
<!-- Node104 -->
<g id="node4" class="node"><title>Node104</title>
<g id="a_node4"><a xlink:href="../../d0/d43/classMCU_1_1Bankable_1_1VU.html#a2aee3878a065f2a1c6a962fff740bcf8" target="_top" xlink:title=" ">
<polygon fill="white" stroke="black" points="153,-0.5 153,-30.5 266,-30.5 266,-0.5 153,-0.5"/>
<text text-anchor="start" x="161" y="-18.5" font-family="Helvetica,sans-Serif" font-size="10.00">MCU::Bankable::VU&lt;</text>
<text text-anchor="middle" x="209.5" y="-7.5" font-family="Helvetica,sans-Serif" font-size="10.00"> M &gt;::setOverload</text>
</a>
</g>
</g>
<!-- Node101&#45;&gt;Node104 -->
<g id="edge3" class="edge"><title>Node101&#45;&gt;Node104</title>
<path fill="none" stroke="midnightblue" d="M294.827,-26.6423C285.095,-25.3564 275.344,-24.0679 266.105,-22.8472"/>
<polygon fill="midnightblue" stroke="midnightblue" points="294.567,-30.1383 304.939,-27.9784 295.484,-23.1986 294.567,-30.1383"/>
</g>
<!-- Node103 -->
<g id="node3" class="node"><title>Node103</title>
<g id="a_node3"><a xlink:href="../../d8/d4c/classMCU_1_1VU.html#af448f099f51e14a31e7017f855a12ec9" target="_top" xlink:title=" ">
<polygon fill="white" stroke="black" points="0,-50 0,-69 114,-69 114,-50 0,-50"/>
<text text-anchor="middle" x="57" y="-57" font-family="Helvetica,sans-Serif" font-size="10.00">MCU::VU::updateImpl</text>
</a>
</g>
</g>
<!-- Node102&#45;&gt;Node103 -->
<g id="edge2" class="edge"><title>Node102&#45;&gt;Node103</title>
<path fill="none" stroke="midnightblue" d="M139.606,-59.5C131.113,-59.5 122.511,-59.5 114.238,-59.5"/>
<polygon fill="midnightblue" stroke="midnightblue" points="139.882,-63.0001 149.882,-59.5 139.882,-56.0001 139.882,-63.0001"/>
</g>
</g>
</svg>
