<?xml version="1.0" encoding="UTF-8" standalone="no"?>
<!DOCTYPE svg PUBLIC "-//W3C//DTD SVG 1.1//EN"
 "http://www.w3.org/Graphics/SVG/1.1/DTD/svg11.dtd">
<!-- Generated by graphviz version 2.38.0 (20140413.2041)
 -->
<!-- Title: MCU::VU_Base::getOverload Pages: 1 -->
<svg width="342pt" height="78pt"
 viewBox="0.00 0.00 342.00 77.50" xmlns="http://www.w3.org/2000/svg" xmlns:xlink="http://www.w3.org/1999/xlink">
<g id="graph0" class="graph" transform="scale(1 1) rotate(0) translate(4 73.5)">
<title>MCU::VU_Base::getOverload</title>
<polygon fill="white" stroke="none" points="-4,4 -4,-73.5 338,-73.5 338,4 -4,4"/>
<!-- Node39 -->
<g id="node1" class="node"><title>Node39</title>
<g id="a_node1"><a xlink:title="Return the overload status.">
<polygon fill="#bfbfbf" stroke="black" points="0,-22.5 0,-41.5 146,-41.5 146,-22.5 0,-22.5"/>
<text text-anchor="middle" x="73" y="-29.5" font-family="Helvetica,sans-Serif" font-size="10.00">MCU::VU_Base::getOverload</text>
</a>
</g>
</g>
<!-- Node40 -->
<g id="node2" class="node"><title>Node40</title>
<g id="a_node2"><a xlink:href="../../d4/d71/classMCU_1_1VU__Base.html#ae7b6c222b00073816f565bcc32103ed3" target="_top" xlink:title="Get the overload status value from the raw value.">
<polygon fill="white" stroke="black" points="185,-39 185,-69 331,-69 331,-39 185,-39"/>
<text text-anchor="start" x="193" y="-57" font-family="Helvetica,sans-Serif" font-size="10.00">MCU::VU_Base::getOverload</text>
<text text-anchor="middle" x="258" y="-46" font-family="Helvetica,sans-Serif" font-size="10.00">Helper</text>
</a>
</g>
</g>
<!-- Node39&#45;&gt;Node40 -->
<g id="edge1" class="edge"><title>Node39&#45;&gt;Node40</title>
<path fill="none" stroke="midnightblue" d="M146.064,-40.6634C155.392,-41.7849 165.003,-42.9403 174.484,-44.0801"/>
<polygon fill="midnightblue" stroke="midnightblue" points="174.355,-47.5897 184.702,-45.3084 175.191,-40.6398 174.355,-47.5897"/>
</g>
<!-- Node41 -->
<g id="node3" class="node"><title>Node41</title>
<g id="a_node3"><a xlink:href="../../d4/d71/classMCU_1_1VU__Base.html#a892b4e23aab768cca932963a2b61e866" target="_top" xlink:title="Return the raw value of the VU meter, this includes the actual VU value and the overload status in a ...">
<polygon fill="white" stroke="black" points="182,-0.5 182,-19.5 334,-19.5 334,-0.5 182,-0.5"/>
<text text-anchor="middle" x="258" y="-7.5" font-family="Helvetica,sans-Serif" font-size="10.00">MCU::VU_Base::getRawValue</text>
</a>
</g>
</g>
<!-- Node39&#45;&gt;Node41 -->
<g id="edge2" class="edge"><title>Node39&#45;&gt;Node41</title>
<path fill="none" stroke="midnightblue" d="M146.064,-23.3366C154.547,-22.3168 163.263,-21.2689 171.903,-20.2302"/>
<polygon fill="midnightblue" stroke="midnightblue" points="172.482,-23.686 181.992,-19.0173 171.646,-16.736 172.482,-23.686"/>
</g>
</g>
</svg>
