<?xml version="1.0" encoding="UTF-8" standalone="no"?>
<!DOCTYPE svg PUBLIC "-//W3C//DTD SVG 1.1//EN"
 "http://www.w3.org/Graphics/SVG/1.1/DTD/svg11.dtd">
<!-- Generated by graphviz version 2.38.0 (20140413.2041)
 -->
<!-- Title: CCRotaryEncoder.hpp Pages: 1 -->
<svg width="1412pt" height="688pt"
 viewBox="0.00 0.00 1412.29 688.00" xmlns="http://www.w3.org/2000/svg" xmlns:xlink="http://www.w3.org/1999/xlink">
<g id="graph0" class="graph" transform="scale(1 1) rotate(0) translate(4 684)">
<title>CCRotaryEncoder.hpp</title>
<polygon fill="white" stroke="none" points="-4,4 -4,-684 1408.29,-684 1408.29,4 -4,4"/>
<!-- Node1 -->
<g id="node1" class="node"><title>Node1</title>
<g id="a_node1"><a xlink:title=" ">
<polygon fill="#bfbfbf" stroke="black" points="627,-660.5 627,-679.5 743,-679.5 743,-660.5 627,-660.5"/>
<text text-anchor="middle" x="685" y="-667.5" font-family="Helvetica,sans-Serif" font-size="10.00">CCRotaryEncoder.hpp</text>
</a>
</g>
</g>
<!-- Node2 -->
<g id="node2" class="node"><title>Node2</title>
<g id="a_node2"><a xlink:href="../../da/dd5/Bankable_2Abstract_2MIDIRotaryEncoder_8hpp.html" target="_top" xlink:title=" ">
<polygon fill="white" stroke="black" points="200.5,-593.5 200.5,-623.5 365.5,-623.5 365.5,-593.5 200.5,-593.5"/>
<text text-anchor="start" x="208.5" y="-611.5" font-family="Helvetica,sans-Serif" font-size="10.00">MIDI_Outputs/Bankable</text>
<text text-anchor="middle" x="283" y="-600.5" font-family="Helvetica,sans-Serif" font-size="10.00">/Abstract/MIDIRotaryEncoder.hpp</text>
</a>
</g>
</g>
<!-- Node1&#45;&gt;Node2 -->
<g id="edge1" class="edge"><title>Node1&#45;&gt;Node2</title>
<path fill="none" stroke="midnightblue" d="M627.403,-660.475C561.747,-650.757 453.494,-634.735 375.873,-623.246"/>
<polygon fill="midnightblue" stroke="midnightblue" points="376.014,-619.729 365.609,-621.727 374.989,-626.654 376.014,-619.729"/>
</g>
<!-- Node31 -->
<g id="node31" class="node"><title>Node31</title>
<g id="a_node31"><a xlink:href="../../d9/d24/RelativeCCSender_8hpp.html" target="_top" xlink:title=" ">
<polygon fill="white" stroke="black" points="924.5,-599 924.5,-618 1107.5,-618 1107.5,-599 924.5,-599"/>
<text text-anchor="middle" x="1016" y="-606" font-family="Helvetica,sans-Serif" font-size="10.00">MIDI_Senders/RelativeCCSender.hpp</text>
</a>
</g>
</g>
<!-- Node1&#45;&gt;Node31 -->
<g id="edge58" class="edge"><title>Node1&#45;&gt;Node31</title>
<path fill="none" stroke="midnightblue" d="M732.424,-660.475C792.152,-649.739 894.691,-631.306 958.729,-619.795"/>
<polygon fill="midnightblue" stroke="midnightblue" points="959.441,-623.223 968.664,-618.009 958.202,-616.334 959.441,-623.223"/>
</g>
<!-- Node3 -->
<g id="node3" class="node"><title>Node3</title>
<g id="a_node3"><a xlink:href="../../db/df2/BankableMIDIOutput_8hpp.html" target="_top" xlink:title=" ">
<polygon fill="white" stroke="black" points="141,-532 141,-551 299,-551 299,-532 141,-532"/>
<text text-anchor="middle" x="220" y="-539" font-family="Helvetica,sans-Serif" font-size="10.00">Banks/BankableMIDIOutput.hpp</text>
</a>
</g>
</g>
<!-- Node2&#45;&gt;Node3 -->
<g id="edge2" class="edge"><title>Node2&#45;&gt;Node3</title>
<path fill="none" stroke="midnightblue" d="M269.33,-593.396C259.41,-583.161 245.971,-569.296 235.626,-558.622"/>
<polygon fill="midnightblue" stroke="midnightblue" points="237.9,-555.939 228.427,-551.195 232.874,-560.811 237.9,-555.939"/>
</g>
<!-- Node8 -->
<g id="node8" class="node"><title>Node8</title>
<g id="a_node8"><a xlink:href="../../d0/d4e/Def_8hpp.html" target="_top" xlink:title=" ">
<polygon fill="white" stroke="black" points="425,-112.5 425,-131.5 495,-131.5 495,-112.5 425,-112.5"/>
<text text-anchor="middle" x="460" y="-119.5" font-family="Helvetica,sans-Serif" font-size="10.00">Def/Def.hpp</text>
</a>
</g>
</g>
<!-- Node2&#45;&gt;Node8 -->
<g id="edge46" class="edge"><title>Node2&#45;&gt;Node8</title>
<path fill="none" stroke="midnightblue" d="M200.384,-603.144C116.853,-593.755 0,-564.681 0,-475.5 0,-475.5 0,-475.5 0,-233 0,-186.842 38.4357,-185.856 81,-168 140.302,-143.122 327.571,-130.099 414.654,-125.257"/>
<polygon fill="midnightblue" stroke="midnightblue" points="414.967,-128.745 424.762,-124.706 414.586,-121.755 414.967,-128.745"/>
</g>
<!-- Node13 -->
<g id="node13" class="node"><title>Node13</title>
<g id="a_node13"><a xlink:href="../../de/d76/Array_8hpp.html" target="_top" xlink:title=" ">
<polygon fill="white" stroke="black" points="1092.5,-56.5 1092.5,-75.5 1187.5,-75.5 1187.5,-56.5 1092.5,-56.5"/>
<text text-anchor="middle" x="1140" y="-63.5" font-family="Helvetica,sans-Serif" font-size="10.00">Helpers/Array.hpp</text>
</a>
</g>
</g>
<!-- Node2&#45;&gt;Node13 -->
<g id="edge48" class="edge"><title>Node2&#45;&gt;Node13</title>
<path fill="none" stroke="midnightblue" d="M365.736,-606.087C618.903,-600.678 1366,-576.184 1366,-475.5 1366,-475.5 1366,-475.5 1366,-406.5 1366,-349.647 1402.51,-334.089 1385,-280 1366.08,-221.555 1349.02,-209.799 1304,-168 1261.89,-128.902 1202.42,-96.784 1167.86,-79.8926"/>
<polygon fill="midnightblue" stroke="midnightblue" points="1169.34,-76.7204 1158.82,-75.5389 1166.31,-83.0283 1169.34,-76.7204"/>
</g>
<!-- Node28 -->
<g id="node28" class="node"><title>Node28</title>
<g id="a_node28"><a xlink:title=" ">
<polygon fill="white" stroke="#bfbfbf" points="316.5,-532 316.5,-551 377.5,-551 377.5,-532 316.5,-532"/>
<text text-anchor="middle" x="347" y="-539" font-family="Helvetica,sans-Serif" font-size="10.00">Encoder.h</text>
</a>
</g>
</g>
<!-- Node2&#45;&gt;Node28 -->
<g id="edge47" class="edge"><title>Node2&#45;&gt;Node28</title>
<path fill="none" stroke="midnightblue" d="M296.887,-593.396C306.965,-583.161 320.616,-569.296 331.126,-558.622"/>
<polygon fill="midnightblue" stroke="midnightblue" points="333.917,-560.776 338.439,-551.195 328.929,-555.865 333.917,-560.776"/>
</g>
<!-- Node29 -->
<g id="node29" class="node"><title>Node29</title>
<g id="a_node29"><a xlink:href="../../d1/d41/MIDIOutputElement_8hpp.html" target="_top" xlink:title=" ">
<polygon fill="white" stroke="black" points="28.5,-459.5 28.5,-489.5 153.5,-489.5 153.5,-459.5 28.5,-459.5"/>
<text text-anchor="start" x="36.5" y="-477.5" font-family="Helvetica,sans-Serif" font-size="10.00">MIDI_Outputs/Abstract</text>
<text text-anchor="middle" x="91" y="-466.5" font-family="Helvetica,sans-Serif" font-size="10.00">/MIDIOutputElement.hpp</text>
</a>
</g>
</g>
<!-- Node2&#45;&gt;Node29 -->
<g id="edge49" class="edge"><title>Node2&#45;&gt;Node29</title>
<path fill="none" stroke="midnightblue" d="M203.675,-593.454C178.583,-585.936 152.164,-574.463 132,-557 114.503,-541.848 103.622,-517.437 97.5051,-499.276"/>
<polygon fill="midnightblue" stroke="midnightblue" points="100.83,-498.181 94.5125,-489.676 94.147,-500.264 100.83,-498.181"/>
</g>
<!-- Node4 -->
<g id="node4" class="node"><title>Node4</title>
<g id="a_node4"><a xlink:href="../../d4/d57/Bank_8hpp.html" target="_top" xlink:title=" ">
<polygon fill="white" stroke="black" points="579,-465 579,-484 637,-484 637,-465 579,-465"/>
<text text-anchor="middle" x="608" y="-472" font-family="Helvetica,sans-Serif" font-size="10.00">Bank.hpp</text>
</a>
</g>
</g>
<!-- Node3&#45;&gt;Node4 -->
<g id="edge3" class="edge"><title>Node3&#45;&gt;Node4</title>
<path fill="none" stroke="midnightblue" d="M271.123,-531.936C349.611,-518.787 498.114,-493.909 568.756,-482.074"/>
<polygon fill="midnightblue" stroke="midnightblue" points="569.716,-485.462 579,-480.358 568.559,-478.559 569.716,-485.462"/>
</g>
<!-- Node26 -->
<g id="node26" class="node"><title>Node26</title>
<g id="a_node26"><a xlink:href="../../dd/d1f/BankConfig_8hpp.html" target="_top" xlink:title=" ">
<polygon fill="white" stroke="black" points="251,-336.5 251,-355.5 337,-355.5 337,-336.5 251,-336.5"/>
<text text-anchor="middle" x="294" y="-343.5" font-family="Helvetica,sans-Serif" font-size="10.00">BankConfig.hpp</text>
</a>
</g>
</g>
<!-- Node3&#45;&gt;Node26 -->
<g id="edge44" class="edge"><title>Node3&#45;&gt;Node26</title>
<path fill="none" stroke="midnightblue" d="M218.989,-531.783C216.628,-507.764 212.789,-439.283 239,-392 246.032,-379.314 258.206,-368.789 269.315,-361.115"/>
<polygon fill="midnightblue" stroke="midnightblue" points="271.376,-363.951 277.878,-355.586 267.578,-358.071 271.376,-363.951"/>
</g>
<!-- Node27 -->
<g id="node27" class="node"><title>Node27</title>
<g id="a_node27"><a xlink:href="../../d8/d38/MIDICNChannelAddress_8hpp.html" target="_top" xlink:title=" ">
<polygon fill="white" stroke="black" points="69.5,-336.5 69.5,-355.5 232.5,-355.5 232.5,-336.5 69.5,-336.5"/>
<text text-anchor="middle" x="151" y="-343.5" font-family="Helvetica,sans-Serif" font-size="10.00">Def/MIDICNChannelAddress.hpp</text>
</a>
</g>
</g>
<!-- Node3&#45;&gt;Node27 -->
<g id="edge45" class="edge"><title>Node3&#45;&gt;Node27</title>
<path fill="none" stroke="midnightblue" d="M216.946,-531.936C206.508,-502.662 172.091,-406.147 157.563,-365.405"/>
<polygon fill="midnightblue" stroke="midnightblue" points="160.832,-364.15 154.176,-355.907 154.238,-366.501 160.832,-364.15"/>
</g>
<!-- Node5 -->
<g id="node5" class="node"><title>Node5</title>
<g id="a_node5"><a xlink:href="../../df/dee/Debug_8hpp.html" target="_top" xlink:title=" ">
<polygon fill="white" stroke="black" points="745.5,-280.5 745.5,-299.5 846.5,-299.5 846.5,-280.5 745.5,-280.5"/>
<text text-anchor="middle" x="796" y="-287.5" font-family="Helvetica,sans-Serif" font-size="10.00">Helpers/Debug.hpp</text>
</a>
</g>
</g>
<!-- Node4&#45;&gt;Node5 -->
<g id="edge4" class="edge"><title>Node4&#45;&gt;Node5</title>
<path fill="none" stroke="midnightblue" d="M637.082,-470.776C691.306,-465.101 804.818,-450.222 832,-423 859.724,-395.234 863.139,-371.764 847,-336 841.384,-323.555 830.437,-313.172 820.121,-305.527"/>
<polygon fill="midnightblue" stroke="midnightblue" points="821.958,-302.543 811.734,-299.764 817.994,-308.312 821.958,-302.543"/>
</g>
<!-- Node18 -->
<g id="node18" class="node"><title>Node18</title>
<g id="a_node18"><a xlink:href="../../d1/d93/Error_8hpp.html" target="_top" xlink:title=" ">
<polygon fill="white" stroke="black" points="745.5,-336.5 745.5,-355.5 838.5,-355.5 838.5,-336.5 745.5,-336.5"/>
<text text-anchor="middle" x="792" y="-343.5" font-family="Helvetica,sans-Serif" font-size="10.00">Helpers/Error.hpp</text>
</a>
</g>
</g>
<!-- Node4&#45;&gt;Node18 -->
<g id="edge23" class="edge"><title>Node4&#45;&gt;Node18</title>
<path fill="none" stroke="midnightblue" d="M637.304,-470.694C688.851,-465.085 792.352,-450.596 814,-423 827.448,-405.857 815.784,-380.779 804.965,-364.181"/>
<polygon fill="midnightblue" stroke="midnightblue" points="807.802,-362.131 799.206,-355.937 802.063,-366.14 807.802,-362.131"/>
</g>
<!-- Node19 -->
<g id="node19" class="node"><title>Node19</title>
<g id="a_node19"><a xlink:href="../../de/dd1/LinkedList_8hpp.html" target="_top" xlink:title=" ">
<polygon fill="white" stroke="black" points="895,-336.5 895,-355.5 1011,-355.5 1011,-336.5 895,-336.5"/>
<text text-anchor="middle" x="953" y="-343.5" font-family="Helvetica,sans-Serif" font-size="10.00">Helpers/LinkedList.hpp</text>
</a>
</g>
</g>
<!-- Node4&#45;&gt;Node19 -->
<g id="edge25" class="edge"><title>Node4&#45;&gt;Node19</title>
<path fill="none" stroke="midnightblue" d="M637.166,-474.212C690.039,-474.252 803.756,-468.51 885,-423 910.023,-408.983 930.607,-382.272 942.35,-364.546"/>
<polygon fill="midnightblue" stroke="midnightblue" points="945.524,-366.077 947.936,-355.76 939.617,-362.321 945.524,-366.077"/>
</g>
<!-- Node23 -->
<g id="node23" class="node"><title>Node23</title>
<g id="a_node23"><a xlink:href="../../d9/d46/Selectable_8hpp.html" target="_top" xlink:title=" ">
<polygon fill="white" stroke="black" points="545.5,-398 545.5,-417 670.5,-417 670.5,-398 545.5,-398"/>
<text text-anchor="middle" x="608" y="-405" font-family="Helvetica,sans-Serif" font-size="10.00">Selectors/Selectable.hpp</text>
</a>
</g>
</g>
<!-- Node4&#45;&gt;Node23 -->
<g id="edge31" class="edge"><title>Node4&#45;&gt;Node23</title>
<path fill="none" stroke="midnightblue" d="M608,-464.734C608,-455.183 608,-439.618 608,-427.283"/>
<polygon fill="midnightblue" stroke="midnightblue" points="611.5,-427.127 608,-417.127 604.5,-427.127 611.5,-427.127"/>
</g>
<!-- Node25 -->
<g id="node25" class="node"><title>Node25</title>
<g id="a_node25"><a xlink:href="../../de/d6e/BankableMIDIInput_8hpp.html" target="_top" xlink:title=" ">
<polygon fill="white" stroke="black" points="378,-398 378,-417 528,-417 528,-398 378,-398"/>
<text text-anchor="middle" x="453" y="-405" font-family="Helvetica,sans-Serif" font-size="10.00">Banks/BankableMIDIInput.hpp</text>
</a>
</g>
</g>
<!-- Node4&#45;&gt;Node25 -->
<g id="edge36" class="edge"><title>Node4&#45;&gt;Node25</title>
<path fill="none" stroke="midnightblue" d="M582.657,-464.869C553.767,-453.748 507.179,-434.317 478.313,-421.429"/>
<polygon fill="midnightblue" stroke="midnightblue" points="479.454,-418.103 468.9,-417.167 476.567,-424.48 479.454,-418.103"/>
</g>
<!-- Node6 -->
<g id="node6" class="node"><title>Node6</title>
<g id="a_node6"><a xlink:href="../../d2/dd5/SettingsWrapper_8hpp.html" target="_top" xlink:title=" ">
<polygon fill="white" stroke="black" points="669.5,-224.5 669.5,-243.5 816.5,-243.5 816.5,-224.5 669.5,-224.5"/>
<text text-anchor="middle" x="743" y="-231.5" font-family="Helvetica,sans-Serif" font-size="10.00">Settings/SettingsWrapper.hpp</text>
</a>
</g>
</g>
<!-- Node5&#45;&gt;Node6 -->
<g id="edge5" class="edge"><title>Node5&#45;&gt;Node6</title>
<path fill="none" stroke="midnightblue" d="M782.37,-280.324C773.088,-272.576 761.356,-261.017 752.93,-251.511"/>
<polygon fill="midnightblue" stroke="midnightblue" points="755.617,-249.268 746.522,-243.834 750.243,-253.754 755.617,-249.268"/>
</g>
<!-- Node16 -->
<g id="node16" class="node"><title>Node16</title>
<g id="a_node16"><a xlink:href="../../dd/d80/PrintStream_8hpp.html" target="_top" xlink:title=" ">
<polygon fill="white" stroke="black" points="834.5,-224.5 834.5,-243.5 921.5,-243.5 921.5,-224.5 834.5,-224.5"/>
<text text-anchor="middle" x="878" y="-231.5" font-family="Helvetica,sans-Serif" font-size="10.00">PrintStream.hpp</text>
</a>
</g>
</g>
<!-- Node5&#45;&gt;Node16 -->
<g id="edge21" class="edge"><title>Node5&#45;&gt;Node16</title>
<path fill="none" stroke="midnightblue" d="M809.175,-280.324C821.847,-271.979 841.233,-259.212 856.206,-249.352"/>
<polygon fill="midnightblue" stroke="midnightblue" points="858.431,-252.078 864.858,-243.655 854.581,-246.231 858.431,-252.078"/>
</g>
<!-- Node6&#45;&gt;Node5 -->
<g id="edge20" class="edge"><title>Node6&#45;&gt;Node5</title>
<path fill="none" stroke="midnightblue" d="M756.72,-243.751C765.875,-251.405 777.389,-262.736 785.764,-272.144"/>
<polygon fill="midnightblue" stroke="midnightblue" points="783.31,-274.665 792.414,-280.083 788.676,-270.17 783.31,-274.665"/>
</g>
<!-- Node7 -->
<g id="node7" class="node"><title>Node7</title>
<g id="a_node7"><a xlink:href="../../db/d02/Settings_8hpp.html" target="_top" xlink:title="All user settings and debugging options can be changed here.">
<polygon fill="white" stroke="black" points="507.5,-168.5 507.5,-187.5 578.5,-187.5 578.5,-168.5 507.5,-168.5"/>
<text text-anchor="middle" x="543" y="-175.5" font-family="Helvetica,sans-Serif" font-size="10.00">Settings.hpp</text>
</a>
</g>
</g>
<!-- Node6&#45;&gt;Node7 -->
<g id="edge6" class="edge"><title>Node6&#45;&gt;Node7</title>
<path fill="none" stroke="midnightblue" d="M711.309,-224.444C676.932,-215.162 621.923,-200.309 584.211,-190.127"/>
<polygon fill="midnightblue" stroke="midnightblue" points="585.109,-186.744 574.542,-187.516 583.284,-193.502 585.109,-186.744"/>
</g>
<!-- Node11 -->
<g id="node11" class="node"><title>Node11</title>
<g id="a_node11"><a xlink:href="../../dc/dc7/NamespaceSettings_8hpp.html" target="_top" xlink:title=" ">
<polygon fill="white" stroke="black" points="408.5,-0.5 408.5,-19.5 571.5,-19.5 571.5,-0.5 408.5,-0.5"/>
<text text-anchor="middle" x="490" y="-7.5" font-family="Helvetica,sans-Serif" font-size="10.00">Settings/NamespaceSettings.hpp</text>
</a>
</g>
</g>
<!-- Node6&#45;&gt;Node11 -->
<g id="edge18" class="edge"><title>Node6&#45;&gt;Node11</title>
<path fill="none" stroke="midnightblue" d="M722.659,-224.364C705.735,-216.523 681.645,-203.787 664,-188 609.939,-139.63 621.928,-104.518 568,-56 553.467,-42.9247 534.521,-31.8861 518.941,-24.0143"/>
<polygon fill="midnightblue" stroke="midnightblue" points="520.267,-20.7672 509.744,-19.5323 517.2,-27.0597 520.267,-20.7672"/>
</g>
<!-- Node15 -->
<g id="node15" class="node"><title>Node15</title>
<g id="a_node15"><a xlink:href="../../d9/d98/TeensyUSBTypes_8hpp.html" target="_top" xlink:title=" ">
<polygon fill="white" stroke="black" points="673,-168.5 673,-187.5 825,-187.5 825,-168.5 673,-168.5"/>
<text text-anchor="middle" x="749" y="-175.5" font-family="Helvetica,sans-Serif" font-size="10.00">Helpers/TeensyUSBTypes.hpp</text>
</a>
</g>
</g>
<!-- Node6&#45;&gt;Node15 -->
<g id="edge19" class="edge"><title>Node6&#45;&gt;Node15</title>
<path fill="none" stroke="midnightblue" d="M743.991,-224.083C744.786,-216.927 745.929,-206.635 746.923,-197.691"/>
<polygon fill="midnightblue" stroke="midnightblue" points="750.402,-198.076 748.028,-187.751 743.445,-197.303 750.402,-198.076"/>
</g>
<!-- Node7&#45;&gt;Node8 -->
<g id="edge7" class="edge"><title>Node7&#45;&gt;Node8</title>
<path fill="none" stroke="midnightblue" d="M529.665,-168.324C516.838,-159.979 497.215,-147.212 482.06,-137.352"/>
<polygon fill="midnightblue" stroke="midnightblue" points="483.593,-134.174 473.302,-131.655 479.776,-140.042 483.593,-134.174"/>
</g>
<!-- Node9 -->
<g id="node9" class="node"><title>Node9</title>
<g id="a_node9"><a xlink:href="../../d7/d42/Channel_8hpp.html" target="_top" xlink:title=" ">
<polygon fill="white" stroke="black" points="488.5,-56.5 488.5,-75.5 559.5,-75.5 559.5,-56.5 488.5,-56.5"/>
<text text-anchor="middle" x="524" y="-63.5" font-family="Helvetica,sans-Serif" font-size="10.00">Channel.hpp</text>
</a>
</g>
</g>
<!-- Node8&#45;&gt;Node9 -->
<g id="edge8" class="edge"><title>Node8&#45;&gt;Node9</title>
<path fill="none" stroke="midnightblue" d="M470.283,-112.324C479.836,-104.263 494.28,-92.0765 505.784,-82.3695"/>
<polygon fill="midnightblue" stroke="midnightblue" points="508.144,-84.9577 513.53,-75.8339 503.63,-79.6076 508.144,-84.9577"/>
</g>
<!-- Node10 -->
<g id="node10" class="node"><title>Node10</title>
<g id="a_node10"><a xlink:title=" ">
<polygon fill="white" stroke="#bfbfbf" points="620.5,-0.5 620.5,-19.5 669.5,-19.5 669.5,-0.5 620.5,-0.5"/>
<text text-anchor="middle" x="645" y="-7.5" font-family="Helvetica,sans-Serif" font-size="10.00">stdint.h</text>
</a>
</g>
</g>
<!-- Node8&#45;&gt;Node10 -->
<g id="edge17" class="edge"><title>Node8&#45;&gt;Node10</title>
<path fill="none" stroke="midnightblue" d="M486.838,-112.407C509.383,-104.594 541.992,-91.8721 568,-76 591.184,-61.8516 614.567,-40.9582 629.381,-26.7042"/>
<polygon fill="midnightblue" stroke="midnightblue" points="631.984,-29.0537 636.674,-19.5534 627.083,-24.0555 631.984,-29.0537"/>
</g>
<!-- Node8&#45;&gt;Node11 -->
<g id="edge15" class="edge"><title>Node8&#45;&gt;Node11</title>
<path fill="none" stroke="midnightblue" d="M462.354,-112.368C467.217,-94.5366 478.465,-53.2953 485.017,-29.2717"/>
<polygon fill="midnightblue" stroke="midnightblue" points="488.402,-30.16 487.657,-19.5914 481.649,-28.3181 488.402,-30.16"/>
</g>
<!-- Node12 -->
<g id="node12" class="node"><title>Node12</title>
<g id="a_node12"><a xlink:href="../../dc/d50/Frequency_8hpp.html" target="_top" xlink:title=" ">
<polygon fill="white" stroke="black" points="350.5,-56.5 350.5,-75.5 431.5,-75.5 431.5,-56.5 350.5,-56.5"/>
<text text-anchor="middle" x="391" y="-63.5" font-family="Helvetica,sans-Serif" font-size="10.00">Frequency.hpp</text>
</a>
</g>
</g>
<!-- Node8&#45;&gt;Node12 -->
<g id="edge11" class="edge"><title>Node8&#45;&gt;Node12</title>
<path fill="none" stroke="midnightblue" d="M448.914,-112.324C438.514,-104.185 422.739,-91.8395 410.278,-82.0874"/>
<polygon fill="midnightblue" stroke="midnightblue" points="412.32,-79.2407 402.288,-75.8339 408.006,-84.7533 412.32,-79.2407"/>
</g>
<!-- Node8&#45;&gt;Node13 -->
<g id="edge13" class="edge"><title>Node8&#45;&gt;Node13</title>
<path fill="none" stroke="midnightblue" d="M495.32,-118.412C585.869,-111.744 833.679,-93.2876 1040,-76 1053.63,-74.8576 1068.31,-73.5696 1082.1,-72.3328"/>
<polygon fill="midnightblue" stroke="midnightblue" points="1082.8,-75.7839 1092.45,-71.4002 1082.18,-68.8122 1082.8,-75.7839"/>
</g>
<!-- Node14 -->
<g id="node14" class="node"><title>Node14</title>
<g id="a_node14"><a xlink:title=" ">
<polygon fill="white" stroke="#bfbfbf" points="1076,-0.5 1076,-19.5 1128,-19.5 1128,-0.5 1076,-0.5"/>
<text text-anchor="middle" x="1102" y="-7.5" font-family="Helvetica,sans-Serif" font-size="10.00">stddef.h</text>
</a>
</g>
</g>
<!-- Node8&#45;&gt;Node14 -->
<g id="edge16" class="edge"><title>Node8&#45;&gt;Node14</title>
<path fill="none" stroke="midnightblue" d="M495.431,-114.929C607.464,-95.7336 953.279,-36.4818 1066.04,-17.1611"/>
<polygon fill="midnightblue" stroke="midnightblue" points="1066.64,-20.6094 1075.91,-15.4708 1065.46,-13.7099 1066.64,-20.6094"/>
</g>
<!-- Node9&#45;&gt;Node10 -->
<g id="edge9" class="edge"><title>Node9&#45;&gt;Node10</title>
<path fill="none" stroke="midnightblue" d="M543.173,-56.4435C562.909,-47.6356 593.885,-33.8116 616.493,-23.722"/>
<polygon fill="midnightblue" stroke="midnightblue" points="618.211,-26.788 625.917,-19.5164 615.359,-20.3957 618.211,-26.788"/>
</g>
<!-- Node9&#45;&gt;Node11 -->
<g id="edge10" class="edge"><title>Node9&#45;&gt;Node11</title>
<path fill="none" stroke="midnightblue" d="M518.386,-56.083C513.633,-48.5341 506.682,-37.4948 500.848,-28.2298"/>
<polygon fill="midnightblue" stroke="midnightblue" points="503.8,-26.3486 495.51,-19.7511 497.876,-30.0783 503.8,-26.3486"/>
</g>
<!-- Node12&#45;&gt;Node11 -->
<g id="edge12" class="edge"><title>Node12&#45;&gt;Node11</title>
<path fill="none" stroke="midnightblue" d="M406.906,-56.324C422.638,-47.7428 446.942,-34.486 465.209,-24.5224"/>
<polygon fill="midnightblue" stroke="midnightblue" points="467.03,-27.5157 474.133,-19.6545 463.678,-21.3704 467.03,-27.5157"/>
</g>
<!-- Node13&#45;&gt;Node14 -->
<g id="edge14" class="edge"><title>Node13&#45;&gt;Node14</title>
<path fill="none" stroke="midnightblue" d="M1133.73,-56.083C1128.36,-48.4554 1120.48,-37.2645 1113.92,-27.9408"/>
<polygon fill="midnightblue" stroke="midnightblue" points="1116.78,-25.9149 1108.16,-19.7511 1111.05,-29.9434 1116.78,-25.9149"/>
</g>
<!-- Node17 -->
<g id="node17" class="node"><title>Node17</title>
<g id="a_node17"><a xlink:title=" ">
<polygon fill="white" stroke="#bfbfbf" points="1237,-168.5 1237,-187.5 1295,-187.5 1295,-168.5 1237,-168.5"/>
<text text-anchor="middle" x="1266" y="-175.5" font-family="Helvetica,sans-Serif" font-size="10.00">Arduino.h</text>
</a>
</g>
</g>
<!-- Node16&#45;&gt;Node17 -->
<g id="edge22" class="edge"><title>Node16&#45;&gt;Node17</title>
<path fill="none" stroke="midnightblue" d="M921.754,-226.91C997.974,-216.303 1153.92,-194.599 1226.81,-184.454"/>
<polygon fill="midnightblue" stroke="midnightblue" points="1227.53,-187.888 1236.95,-183.043 1226.56,-180.955 1227.53,-187.888"/>
</g>
<!-- Node18&#45;&gt;Node5 -->
<g id="edge24" class="edge"><title>Node18&#45;&gt;Node5</title>
<path fill="none" stroke="midnightblue" d="M792.661,-336.083C793.185,-329.006 793.936,-318.861 794.594,-309.986"/>
<polygon fill="midnightblue" stroke="midnightblue" points="798.103,-309.982 795.352,-299.751 791.123,-309.465 798.103,-309.982"/>
</g>
<!-- Node19&#45;&gt;Node5 -->
<g id="edge26" class="edge"><title>Node19&#45;&gt;Node5</title>
<path fill="none" stroke="midnightblue" d="M928.123,-336.444C901.711,-327.359 859.785,-312.939 830.258,-302.783"/>
<polygon fill="midnightblue" stroke="midnightblue" points="831.355,-299.459 820.761,-299.516 829.079,-306.079 831.355,-299.459"/>
</g>
<!-- Node20 -->
<g id="node20" class="node"><title>Node20</title>
<g id="a_node20"><a xlink:title=" ">
<polygon fill="white" stroke="#bfbfbf" points="1094,-224.5 1094,-243.5 1142,-243.5 1142,-224.5 1094,-224.5"/>
<text text-anchor="middle" x="1118" y="-231.5" font-family="Helvetica,sans-Serif" font-size="10.00">stdlib.h</text>
</a>
</g>
</g>
<!-- Node19&#45;&gt;Node20 -->
<g id="edge27" class="edge"><title>Node19&#45;&gt;Node20</title>
<path fill="none" stroke="midnightblue" d="M1011.13,-338.128C1057.52,-331.307 1117.12,-319.079 1132,-300 1142.61,-286.391 1136.05,-266.509 1128.76,-252.322"/>
<polygon fill="midnightblue" stroke="midnightblue" points="1131.77,-250.534 1123.8,-243.558 1125.68,-253.984 1131.77,-250.534"/>
</g>
<!-- Node21 -->
<g id="node21" class="node"><title>Node21</title>
<g id="a_node21"><a xlink:href="../../d7/d79/MinMaxFix_8hpp.html" target="_top" xlink:title=" ">
<polygon fill="white" stroke="black" points="1162,-224.5 1162,-243.5 1282,-243.5 1282,-224.5 1162,-224.5"/>
<text text-anchor="middle" x="1222" y="-231.5" font-family="Helvetica,sans-Serif" font-size="10.00">Helpers/MinMaxFix.hpp</text>
</a>
</g>
</g>
<!-- Node19&#45;&gt;Node21 -->
<g id="edge28" class="edge"><title>Node19&#45;&gt;Node21</title>
<path fill="none" stroke="midnightblue" d="M1003.17,-336.418C1052.5,-327.458 1123.95,-312.933 1149,-300 1172.44,-287.896 1194.34,-266.517 1207.92,-251.595"/>
<polygon fill="midnightblue" stroke="midnightblue" points="1210.91,-253.49 1214.9,-243.674 1205.66,-248.861 1210.91,-253.49"/>
</g>
<!-- Node22 -->
<g id="node22" class="node"><title>Node22</title>
<g id="a_node22"><a xlink:title=" ">
<polygon fill="white" stroke="#bfbfbf" points="864.5,-280.5 864.5,-299.5 911.5,-299.5 911.5,-280.5 864.5,-280.5"/>
<text text-anchor="middle" x="888" y="-287.5" font-family="Helvetica,sans-Serif" font-size="10.00">iterator</text>
</a>
</g>
</g>
<!-- Node19&#45;&gt;Node22 -->
<g id="edge30" class="edge"><title>Node19&#45;&gt;Node22</title>
<path fill="none" stroke="midnightblue" d="M942.557,-336.324C932.854,-328.263 918.185,-316.077 906.5,-306.369"/>
<polygon fill="midnightblue" stroke="midnightblue" points="908.562,-303.532 898.633,-299.834 904.089,-308.916 908.562,-303.532"/>
</g>
<!-- Node21&#45;&gt;Node17 -->
<g id="edge29" class="edge"><title>Node21&#45;&gt;Node17</title>
<path fill="none" stroke="midnightblue" d="M1229.27,-224.083C1235.54,-216.377 1244.79,-205.033 1252.43,-195.653"/>
<polygon fill="midnightblue" stroke="midnightblue" points="1255.27,-197.714 1258.87,-187.751 1249.84,-193.293 1255.27,-197.714"/>
</g>
<!-- Node23&#45;&gt;Node8 -->
<g id="edge32" class="edge"><title>Node23&#45;&gt;Node8</title>
<path fill="none" stroke="midnightblue" d="M569.267,-397.888C519.934,-384.369 441,-353.043 441,-291 441,-291 441,-291 441,-233 441,-200.489 449.159,-163.35 454.784,-141.61"/>
<polygon fill="midnightblue" stroke="midnightblue" points="458.218,-142.317 457.438,-131.751 451.459,-140.498 458.218,-142.317"/>
</g>
<!-- Node23&#45;&gt;Node10 -->
<g id="edge34" class="edge"><title>Node23&#45;&gt;Node10</title>
<path fill="none" stroke="midnightblue" d="M611.035,-397.684C614.333,-387.703 619.467,-370.889 622,-356 642.965,-232.761 645.041,-81.7242 645.086,-29.6682"/>
<polygon fill="midnightblue" stroke="midnightblue" points="648.586,-29.6044 645.069,-19.6105 641.586,-29.6165 648.586,-29.6044"/>
</g>
<!-- Node23&#45;&gt;Node18 -->
<g id="edge33" class="edge"><title>Node23&#45;&gt;Node18</title>
<path fill="none" stroke="midnightblue" d="M634.363,-397.975C666.335,-387.636 720.376,-370.161 756.122,-358.602"/>
<polygon fill="midnightblue" stroke="midnightblue" points="757.248,-361.916 765.686,-355.509 755.094,-355.256 757.248,-361.916"/>
</g>
<!-- Node24 -->
<g id="node24" class="node"><title>Node24</title>
<g id="a_node24"><a xlink:href="../../d7/dd7/Helpers_8hpp.html" target="_top" xlink:title=" ">
<polygon fill="white" stroke="black" points="507,-336.5 507,-355.5 613,-355.5 613,-336.5 507,-336.5"/>
<text text-anchor="middle" x="560" y="-343.5" font-family="Helvetica,sans-Serif" font-size="10.00">Helpers/Helpers.hpp</text>
</a>
</g>
</g>
<!-- Node23&#45;&gt;Node24 -->
<g id="edge35" class="edge"><title>Node23&#45;&gt;Node24</title>
<path fill="none" stroke="midnightblue" d="M601.123,-397.975C593.851,-388.962 582.205,-374.525 573.159,-363.312"/>
<polygon fill="midnightblue" stroke="midnightblue" points="575.867,-361.095 566.864,-355.509 570.419,-365.49 575.867,-361.095"/>
</g>
<!-- Node25&#45;&gt;Node4 -->
<g id="edge37" class="edge"><title>Node25&#45;&gt;Node4</title>
<path fill="none" stroke="midnightblue" d="M478.167,-417.064C507.065,-428.182 553.831,-447.686 582.751,-460.6"/>
<polygon fill="midnightblue" stroke="midnightblue" points="581.624,-463.932 592.177,-464.869 584.511,-457.555 581.624,-463.932"/>
</g>
<!-- Node25&#45;&gt;Node5 -->
<g id="edge42" class="edge"><title>Node25&#45;&gt;Node5</title>
<path fill="none" stroke="midnightblue" d="M455.818,-397.856C461.284,-382.586 474.867,-351.033 498,-336 536.078,-311.254 659.53,-299.377 735.071,-294.295"/>
<polygon fill="midnightblue" stroke="midnightblue" points="735.646,-297.765 745.398,-293.622 735.191,-290.779 735.646,-297.765"/>
</g>
<!-- Node25&#45;&gt;Node19 -->
<g id="edge43" class="edge"><title>Node25&#45;&gt;Node19</title>
<path fill="none" stroke="midnightblue" d="M498.579,-397.985C510.714,-395.869 523.833,-393.717 536,-392 658.51,-374.708 802.095,-360.546 884.81,-352.977"/>
<polygon fill="midnightblue" stroke="midnightblue" points="885.194,-356.457 894.836,-352.065 884.56,-349.486 885.194,-356.457"/>
</g>
<!-- Node25&#45;&gt;Node26 -->
<g id="edge38" class="edge"><title>Node25&#45;&gt;Node26</title>
<path fill="none" stroke="midnightblue" d="M430.219,-397.975C402.945,-387.769 357.087,-370.608 326.199,-359.049"/>
<polygon fill="midnightblue" stroke="midnightblue" points="327.331,-355.736 316.739,-355.509 324.878,-362.292 327.331,-355.736"/>
</g>
<!-- Node25&#45;&gt;Node27 -->
<g id="edge40" class="edge"><title>Node25&#45;&gt;Node27</title>
<path fill="none" stroke="midnightblue" d="M409.731,-397.975C355.572,-387.305 262.834,-369.034 204.339,-357.509"/>
<polygon fill="midnightblue" stroke="midnightblue" points="204.677,-354.008 194.189,-355.509 203.324,-360.876 204.677,-354.008"/>
</g>
<!-- Node26&#45;&gt;Node8 -->
<g id="edge39" class="edge"><title>Node26&#45;&gt;Node8</title>
<path fill="none" stroke="midnightblue" d="M294.315,-336.37C295.793,-308.343 304.141,-218.765 351,-168 367.798,-149.801 393.061,-138.753 415.037,-132.162"/>
<polygon fill="midnightblue" stroke="midnightblue" points="416.159,-135.483 424.86,-129.438 414.288,-128.738 416.159,-135.483"/>
</g>
<!-- Node27&#45;&gt;Node8 -->
<g id="edge41" class="edge"><title>Node27&#45;&gt;Node8</title>
<path fill="none" stroke="midnightblue" d="M157.567,-336.28C179.308,-307.979 252.119,-217.654 332,-168 357.52,-152.137 389.39,-140.909 414.945,-133.636"/>
<polygon fill="midnightblue" stroke="midnightblue" points="416.039,-136.966 424.758,-130.947 414.189,-130.214 416.039,-136.966"/>
</g>
<!-- Node29&#45;&gt;Node8 -->
<g id="edge50" class="edge"><title>Node29&#45;&gt;Node8</title>
<path fill="none" stroke="midnightblue" d="M81.3595,-459.421C66.8301,-436.792 41,-390.452 41,-347 41,-347 41,-347 41,-233 41,-156.394 306.33,-132.052 414.708,-125.305"/>
<polygon fill="midnightblue" stroke="midnightblue" points="415.224,-128.78 424.997,-124.688 414.805,-121.793 415.224,-128.78"/>
</g>
<!-- Node29&#45;&gt;Node27 -->
<g id="edge51" class="edge"><title>Node29&#45;&gt;Node27</title>
<path fill="none" stroke="midnightblue" d="M97.6503,-459.479C108.591,-436.411 130.376,-390.482 142.449,-365.029"/>
<polygon fill="midnightblue" stroke="midnightblue" points="145.708,-366.324 146.832,-355.789 139.384,-363.324 145.708,-366.324"/>
</g>
<!-- Node30 -->
<g id="node30" class="node"><title>Node30</title>
<g id="a_node30"><a xlink:href="../../d4/d93/Updatable_8hpp.html" target="_top" xlink:title=" ">
<polygon fill="white" stroke="black" points="689,-398 689,-417 805,-417 805,-398 689,-398"/>
<text text-anchor="middle" x="747" y="-405" font-family="Helvetica,sans-Serif" font-size="10.00">Helpers/Updatable.hpp</text>
</a>
</g>
</g>
<!-- Node29&#45;&gt;Node30 -->
<g id="edge52" class="edge"><title>Node29&#45;&gt;Node30</title>
<path fill="none" stroke="midnightblue" d="M153.524,-470.69C261.279,-465.276 488.733,-451.344 679,-423 686.223,-421.924 693.83,-420.547 701.236,-419.071"/>
<polygon fill="midnightblue" stroke="midnightblue" points="702.074,-422.472 711.156,-417.016 700.654,-415.617 702.074,-422.472"/>
</g>
<!-- Node30&#45;&gt;Node6 -->
<g id="edge56" class="edge"><title>Node30&#45;&gt;Node6</title>
<path fill="none" stroke="midnightblue" d="M744.468,-397.655C741.746,-387.647 737.594,-370.81 736,-356 732.385,-322.416 733.396,-313.677 736,-280 736.679,-271.22 738.092,-261.563 739.472,-253.453"/>
<polygon fill="midnightblue" stroke="midnightblue" points="742.922,-254.045 741.261,-243.581 736.034,-252.796 742.922,-254.045"/>
</g>
<!-- Node30&#45;&gt;Node8 -->
<g id="edge53" class="edge"><title>Node30&#45;&gt;Node8</title>
<path fill="none" stroke="midnightblue" d="M734.612,-397.884C696,-370.592 575.775,-282.274 498,-188 485.936,-173.376 475.345,-154.46 468.43,-140.808"/>
<polygon fill="midnightblue" stroke="midnightblue" points="471.438,-138.993 463.895,-131.554 465.152,-142.074 471.438,-138.993"/>
</g>
<!-- Node30&#45;&gt;Node14 -->
<g id="edge57" class="edge"><title>Node30&#45;&gt;Node14</title>
<path fill="none" stroke="midnightblue" d="M805.119,-398.503C860.801,-390.197 946.924,-375.657 1020,-356 1145.85,-322.148 1175.97,-305.254 1291,-244 1342.14,-216.768 1404,-236.938 1404,-179 1404,-179 1404,-179 1404,-121 1404,-64.994 1218.31,-29.1854 1138.14,-16.3352"/>
<polygon fill="midnightblue" stroke="midnightblue" points="1138.43,-12.8377 1128.01,-14.7435 1137.35,-19.7529 1138.43,-12.8377"/>
</g>
<!-- Node30&#45;&gt;Node18 -->
<g id="edge54" class="edge"><title>Node30&#45;&gt;Node18</title>
<path fill="none" stroke="midnightblue" d="M753.447,-397.975C760.197,-389.05 770.969,-374.807 779.413,-363.643"/>
<polygon fill="midnightblue" stroke="midnightblue" points="782.324,-365.596 785.565,-355.509 776.741,-361.374 782.324,-365.596"/>
</g>
<!-- Node30&#45;&gt;Node19 -->
<g id="edge55" class="edge"><title>Node30&#45;&gt;Node19</title>
<path fill="none" stroke="midnightblue" d="M776.515,-397.975C812.616,-387.548 873.848,-369.862 913.854,-358.307"/>
<polygon fill="midnightblue" stroke="midnightblue" points="914.904,-361.647 923.54,-355.509 912.961,-354.922 914.904,-361.647"/>
</g>
<!-- Node31&#45;&gt;Node17 -->
<g id="edge77" class="edge"><title>Node31&#45;&gt;Node17</title>
<path fill="none" stroke="midnightblue" d="M1107.89,-605.851C1202.13,-602.268 1340.36,-591.146 1380,-557 1408.61,-532.354 1404,-513.26 1404,-475.5 1404,-475.5 1404,-475.5 1404,-345 1404,-314.902 1401.39,-305.246 1385,-280 1360.19,-241.775 1316.62,-210.185 1289.65,-193.009"/>
<polygon fill="midnightblue" stroke="midnightblue" points="1291.2,-189.852 1280.86,-187.548 1287.5,-195.798 1291.2,-189.852"/>
</g>
<!-- Node32 -->
<g id="node32" class="node"><title>Node32</title>
<g id="a_node32"><a xlink:href="../../d3/d37/Control__Surface__Class_8hpp.html" target="_top" xlink:title=" ">
<polygon fill="white" stroke="black" points="955,-526.5 955,-556.5 1077,-556.5 1077,-526.5 955,-526.5"/>
<text text-anchor="start" x="963" y="-544.5" font-family="Helvetica,sans-Serif" font-size="10.00">Control_Surface/Control</text>
<text text-anchor="middle" x="1016" y="-533.5" font-family="Helvetica,sans-Serif" font-size="10.00">_Surface_Class.hpp</text>
</a>
</g>
</g>
<!-- Node31&#45;&gt;Node32 -->
<g id="edge59" class="edge"><title>Node31&#45;&gt;Node32</title>
<path fill="none" stroke="midnightblue" d="M1016,-598.734C1016,-590.541 1016,-577.923 1016,-566.714"/>
<polygon fill="midnightblue" stroke="midnightblue" points="1019.5,-566.589 1016,-556.589 1012.5,-566.589 1019.5,-566.589"/>
</g>
<!-- Node33 -->
<g id="node33" class="node"><title>Node33</title>
<g id="a_node33"><a xlink:href="../../d6/d04/MIDI__Interface_8hpp.html" target="_top" xlink:title=" ">
<polygon fill="white" stroke="black" points="248,-392.5 248,-422.5 360,-422.5 360,-392.5 248,-392.5"/>
<text text-anchor="start" x="256" y="-410.5" font-family="Helvetica,sans-Serif" font-size="10.00">MIDI_Interfaces/MIDI</text>
<text text-anchor="middle" x="304" y="-399.5" font-family="Helvetica,sans-Serif" font-size="10.00">_Interface.hpp</text>
</a>
</g>
</g>
<!-- Node32&#45;&gt;Node33 -->
<g id="edge60" class="edge"><title>Node32&#45;&gt;Node33</title>
<path fill="none" stroke="midnightblue" d="M954.839,-537.157C868.377,-531.624 705.802,-518.24 570,-490 492.095,-473.8 404.298,-444.698 351.604,-426.009"/>
<polygon fill="midnightblue" stroke="midnightblue" points="352.779,-422.712 342.184,-422.646 350.425,-429.304 352.779,-422.712"/>
</g>
<!-- Node35 -->
<g id="node35" class="node"><title>Node35</title>
<g id="a_node35"><a xlink:href="../../d6/dd2/DisplayElement_8hpp.html" target="_top" xlink:title=" ">
<polygon fill="white" stroke="black" points="897,-465 897,-484 1037,-484 1037,-465 897,-465"/>
<text text-anchor="middle" x="967" y="-472" font-family="Helvetica,sans-Serif" font-size="10.00">Display/DisplayElement.hpp</text>
</a>
</g>
</g>
<!-- Node32&#45;&gt;Node35 -->
<g id="edge68" class="edge"><title>Node32&#45;&gt;Node35</title>
<path fill="none" stroke="midnightblue" d="M1005.37,-526.396C997.803,-516.361 987.609,-502.838 979.63,-492.253"/>
<polygon fill="midnightblue" stroke="midnightblue" points="982.369,-490.073 973.554,-484.195 976.779,-494.287 982.369,-490.073"/>
</g>
<!-- Node36 -->
<g id="node36" class="node"><title>Node36</title>
<g id="a_node36"><a xlink:href="../../dc/d77/DisplayInterface_8hpp.html" target="_top" xlink:title=" ">
<polygon fill="white" stroke="black" points="993.5,-398 993.5,-417 1136.5,-417 1136.5,-398 993.5,-398"/>
<text text-anchor="middle" x="1065" y="-405" font-family="Helvetica,sans-Serif" font-size="10.00">Display/DisplayInterface.hpp</text>
</a>
</g>
</g>
<!-- Node32&#45;&gt;Node36 -->
<g id="edge74" class="edge"><title>Node32&#45;&gt;Node36</title>
<path fill="none" stroke="midnightblue" d="M1026.18,-526.095C1032.68,-516.315 1040.82,-502.866 1046,-490 1054.28,-469.411 1059.45,-444.376 1062.26,-427.531"/>
<polygon fill="midnightblue" stroke="midnightblue" points="1065.77,-427.751 1063.85,-417.333 1058.85,-426.676 1065.77,-427.751"/>
</g>
<!-- Node38 -->
<g id="node38" class="node"><title>Node38</title>
<g id="a_node38"><a xlink:href="../../d7/d74/MillisTimer_8hpp.html" target="_top" xlink:title=" ">
<polygon fill="white" stroke="black" points="1256.5,-280.5 1256.5,-299.5 1375.5,-299.5 1375.5,-280.5 1256.5,-280.5"/>
<text text-anchor="middle" x="1316" y="-287.5" font-family="Helvetica,sans-Serif" font-size="10.00">Helpers/MillisTimer.hpp</text>
</a>
</g>
</g>
<!-- Node32&#45;&gt;Node38 -->
<g id="edge75" class="edge"><title>Node32&#45;&gt;Node38</title>
<path fill="none" stroke="midnightblue" d="M1032.99,-526.371C1085.35,-482.827 1243.94,-350.93 1297.84,-306.101"/>
<polygon fill="midnightblue" stroke="midnightblue" points="1300.11,-308.765 1305.56,-299.68 1295.64,-303.383 1300.11,-308.765"/>
</g>
<!-- Node33&#45;&gt;Node8 -->
<g id="edge61" class="edge"><title>Node33&#45;&gt;Node8</title>
<path fill="none" stroke="midnightblue" d="M318.633,-392.215C327.65,-382.693 338.821,-369.489 346,-356 360.14,-329.431 365,-321.098 365,-291 365,-291 365,-291 365,-233 365,-189.739 407.608,-155.086 435.755,-136.915"/>
<polygon fill="midnightblue" stroke="midnightblue" points="437.661,-139.851 444.313,-131.604 433.97,-133.903 437.661,-139.851"/>
</g>
<!-- Node33&#45;&gt;Node27 -->
<g id="edge62" class="edge"><title>Node33&#45;&gt;Node27</title>
<path fill="none" stroke="midnightblue" d="M267.741,-392.399C241.956,-382.372 207.643,-369.028 182.899,-359.405"/>
<polygon fill="midnightblue" stroke="midnightblue" points="183.851,-356.02 173.263,-355.658 181.314,-362.544 183.851,-356.02"/>
</g>
<!-- Node34 -->
<g id="node34" class="node"><title>Node34</title>
<g id="a_node34"><a xlink:href="../../d7/d2d/MIDI__Parser_8hpp.html" target="_top" xlink:title=" ">
<polygon fill="white" stroke="black" points="968.5,-280.5 968.5,-299.5 1123.5,-299.5 1123.5,-280.5 968.5,-280.5"/>
<text text-anchor="middle" x="1046" y="-287.5" font-family="Helvetica,sans-Serif" font-size="10.00">MIDI_Parsers/MIDI_Parser.hpp</text>
</a>
</g>
</g>
<!-- Node33&#45;&gt;Node34 -->
<g id="edge63" class="edge"><title>Node33&#45;&gt;Node34</title>
<path fill="none" stroke="midnightblue" d="M334.822,-392.382C372.464,-375.831 438.485,-349.012 498,-336 520.064,-331.176 809.067,-308.886 958.22,-297.594"/>
<polygon fill="midnightblue" stroke="midnightblue" points="958.567,-301.078 968.275,-296.834 958.039,-294.098 958.567,-301.078"/>
</g>
<!-- Node34&#45;&gt;Node6 -->
<g id="edge67" class="edge"><title>Node34&#45;&gt;Node6</title>
<path fill="none" stroke="midnightblue" d="M997.989,-280.444C944.466,-270.905 857.935,-255.483 800.755,-245.293"/>
<polygon fill="midnightblue" stroke="midnightblue" points="801.246,-241.825 790.787,-243.516 800.017,-248.717 801.246,-241.825"/>
</g>
<!-- Node34&#45;&gt;Node10 -->
<g id="edge65" class="edge"><title>Node34&#45;&gt;Node10</title>
<path fill="none" stroke="midnightblue" d="M1037.69,-280.411C1021.65,-262.887 988,-221.099 988,-179 988,-179 988,-179 988,-121 988,-56.7657 767.124,-24.7883 679.863,-14.6616"/>
<polygon fill="midnightblue" stroke="midnightblue" points="679.998,-11.1545 669.668,-13.5077 679.211,-18.1101 679.998,-11.1545"/>
</g>
<!-- Node34&#45;&gt;Node14 -->
<g id="edge64" class="edge"><title>Node34&#45;&gt;Node14</title>
<path fill="none" stroke="midnightblue" d="M1048.43,-280.24C1053.34,-261.711 1064,-217.122 1064,-179 1064,-179 1064,-179 1064,-121 1064,-86.8131 1080.6,-49.7639 1091.86,-28.5707"/>
<polygon fill="midnightblue" stroke="midnightblue" points="1094.95,-30.2151 1096.72,-19.769 1088.82,-26.832 1094.95,-30.2151"/>
</g>
<!-- Node34&#45;&gt;Node20 -->
<g id="edge66" class="edge"><title>Node34&#45;&gt;Node20</title>
<path fill="none" stroke="midnightblue" d="M1057.57,-280.324C1068.42,-272.185 1084.88,-259.839 1097.88,-250.087"/>
<polygon fill="midnightblue" stroke="midnightblue" points="1100.32,-252.634 1106.22,-243.834 1096.12,-247.034 1100.32,-252.634"/>
</g>
<!-- Node35&#45;&gt;Node19 -->
<g id="edge73" class="edge"><title>Node35&#45;&gt;Node19</title>
<path fill="none" stroke="midnightblue" d="M966.038,-464.805C963.79,-444.494 958.152,-393.553 955.078,-365.777"/>
<polygon fill="midnightblue" stroke="midnightblue" points="958.548,-365.31 953.969,-355.756 951.59,-366.08 958.548,-365.31"/>
</g>
<!-- Node35&#45;&gt;Node36 -->
<g id="edge69" class="edge"><title>Node35&#45;&gt;Node36</title>
<path fill="none" stroke="midnightblue" d="M980.217,-464.734C996.454,-453.964 1024.22,-435.55 1043.53,-422.739"/>
<polygon fill="midnightblue" stroke="midnightblue" points="1045.59,-425.571 1051.99,-417.127 1041.72,-419.738 1045.59,-425.571"/>
</g>
<!-- Node36&#45;&gt;Node8 -->
<g id="edge70" class="edge"><title>Node36&#45;&gt;Node8</title>
<path fill="none" stroke="midnightblue" d="M1061.1,-397.777C1054.38,-383.476 1039.43,-354.761 1020,-336 997.354,-314.132 979.306,-324.056 959,-300 935.679,-272.374 953.391,-251.567 930,-224 898.042,-186.336 880.827,-183.721 834,-168 719.953,-129.71 576.696,-123.213 505.095,-122.588"/>
<polygon fill="midnightblue" stroke="midnightblue" points="505.081,-119.088 495.063,-122.536 505.044,-126.088 505.081,-119.088"/>
</g>
<!-- Node36&#45;&gt;Node19 -->
<g id="edge71" class="edge"><title>Node36&#45;&gt;Node19</title>
<path fill="none" stroke="midnightblue" d="M1048.95,-397.975C1030.41,-388.122 999.66,-371.788 977.978,-360.27"/>
<polygon fill="midnightblue" stroke="midnightblue" points="979.49,-357.11 969.017,-355.509 976.206,-363.292 979.49,-357.11"/>
</g>
<!-- Node37 -->
<g id="node37" class="node"><title>Node37</title>
<g id="a_node37"><a xlink:title=" ">
<polygon fill="white" stroke="#bfbfbf" points="1105.5,-336.5 1105.5,-355.5 1150.5,-355.5 1150.5,-336.5 1105.5,-336.5"/>
<text text-anchor="middle" x="1128" y="-343.5" font-family="Helvetica,sans-Serif" font-size="10.00">Print.h</text>
</a>
</g>
</g>
<!-- Node36&#45;&gt;Node37 -->
<g id="edge72" class="edge"><title>Node36&#45;&gt;Node37</title>
<path fill="none" stroke="midnightblue" d="M1074.03,-397.975C1083.76,-388.785 1099.46,-373.956 1111.42,-362.656"/>
<polygon fill="midnightblue" stroke="midnightblue" points="1114.12,-364.92 1118.99,-355.509 1109.32,-359.831 1114.12,-364.92"/>
</g>
<!-- Node38&#45;&gt;Node17 -->
<g id="edge76" class="edge"><title>Node38&#45;&gt;Node17</title>
<path fill="none" stroke="midnightblue" d="M1313.13,-280.428C1308.83,-267.842 1300.21,-243.717 1291,-224 1286.65,-214.689 1281.16,-204.662 1276.44,-196.442"/>
<polygon fill="midnightblue" stroke="midnightblue" points="1279.43,-194.63 1271.36,-187.773 1273.39,-198.17 1279.43,-194.63"/>
</g>
</g>
</svg>
