<?xml version="1.0" encoding="UTF-8" standalone="no"?>
<!DOCTYPE svg PUBLIC "-//W3C//DTD SVG 1.1//EN"
 "http://www.w3.org/Graphics/SVG/1.1/DTD/svg11.dtd">
<!-- Generated by graphviz version 2.38.0 (20140413.2041)
 -->
<!-- Title: MIDICNChannelAddress::getAddress Pages: 1 -->
<svg width="516pt" height="540pt"
 viewBox="0.00 0.00 516.00 540.00" xmlns="http://www.w3.org/2000/svg" xmlns:xlink="http://www.w3.org/1999/xlink">
<g id="graph0" class="graph" transform="scale(1 1) rotate(0) translate(4 536)">
<title>MIDICNChannelAddress::getAddress</title>
<polygon fill="white" stroke="none" points="-4,4 -4,-536 512,-536 512,4 -4,4"/>
<!-- Node1 -->
<g id="node1" class="node"><title>Node1</title>
<g id="a_node1"><a xlink:title="Get the address [0, 127].">
<polygon fill="#bfbfbf" stroke="black" points="383,-257.5 383,-287.5 508,-287.5 508,-257.5 383,-257.5"/>
<text text-anchor="start" x="391" y="-275.5" font-family="Helvetica,sans-Serif" font-size="10.00">MIDICNChannelAddress</text>
<text text-anchor="middle" x="445.5" y="-264.5" font-family="Helvetica,sans-Serif" font-size="10.00">::getAddress</text>
</a>
</g>
</g>
<!-- Node2 -->
<g id="node2" class="node"><title>Node2</title>
<g id="a_node2"><a xlink:href="../../db/d6e/classBankableMIDIInput.html#ab1bd85c23ad830c167ffd6f93c791ab5" target="_top" xlink:title="Calculate the bank setting of a given MIDI address, relative to a base address.">
<polygon fill="white" stroke="black" points="185.5,-501.5 185.5,-531.5 328.5,-531.5 328.5,-501.5 185.5,-501.5"/>
<text text-anchor="start" x="193.5" y="-519.5" font-family="Helvetica,sans-Serif" font-size="10.00">BankableMIDIInput&lt;</text>
<text text-anchor="middle" x="257" y="-508.5" font-family="Helvetica,sans-Serif" font-size="10.00"> NumBanks &gt;::getBankIndex</text>
</a>
</g>
</g>
<!-- Node1&#45;&gt;Node2 -->
<g id="edge1" class="edge"><title>Node1&#45;&gt;Node2</title>
<path fill="none" stroke="midnightblue" d="M440.577,-297.68C432.087,-343.492 407.646,-440.53 347,-492.5 341.532,-497.186 335.236,-500.966 328.572,-504.014"/>
<polygon fill="midnightblue" stroke="midnightblue" points="444.047,-298.152 442.321,-287.699 437.152,-296.947 444.047,-298.152"/>
</g>
<!-- Node3 -->
<g id="node3" class="node"><title>Node3</title>
<g id="a_node3"><a xlink:href="../../d5/d54/classMCU_1_1SevenSegmentDisplay.html#a063e5583d785cffaf8688866d50c7d8c" target="_top" xlink:title=" ">
<polygon fill="white" stroke="black" points="184,-442 184,-483 330,-483 330,-442 184,-442"/>
<text text-anchor="start" x="192" y="-471" font-family="Helvetica,sans-Serif" font-size="10.00">MCU::SevenSegmentDisplay</text>
<text text-anchor="start" x="192" y="-460" font-family="Helvetica,sans-Serif" font-size="10.00">&lt; TimeDisplayLength &gt;::</text>
<text text-anchor="middle" x="257" y="-449" font-family="Helvetica,sans-Serif" font-size="10.00">getRangeIndex</text>
</a>
</g>
</g>
<!-- Node1&#45;&gt;Node3 -->
<g id="edge2" class="edge"><title>Node1&#45;&gt;Node3</title>
<path fill="none" stroke="midnightblue" d="M435.757,-297.174C422.129,-332.191 392.559,-396.084 347,-432.5 341.905,-436.572 336.23,-440.104 330.279,-443.166"/>
<polygon fill="midnightblue" stroke="midnightblue" points="439.075,-298.295 439.327,-287.703 432.525,-295.826 439.075,-298.295"/>
</g>
<!-- Node4 -->
<g id="node4" class="node"><title>Node4</title>
<g id="a_node4"><a xlink:href="../../d2/df4/classNoteCCRange.html#aeca4e0af06ac8109dc04703cea2e3112" target="_top" xlink:title=" ">
<polygon fill="white" stroke="black" points="167,-382 167,-423 347,-423 347,-382 167,-382"/>
<text text-anchor="start" x="175" y="-411" font-family="Helvetica,sans-Serif" font-size="10.00">NoteCCRange&lt; MIDIInputElement</text>
<text text-anchor="start" x="175" y="-400" font-family="Helvetica,sans-Serif" font-size="10.00">Note, RangeLen, 1, NoteCCFastLED</text>
<text text-anchor="middle" x="257" y="-389" font-family="Helvetica,sans-Serif" font-size="10.00">&lt; ColorMapper &gt; &gt;::getRangeIndex</text>
</a>
</g>
</g>
<!-- Node1&#45;&gt;Node4 -->
<g id="edge3" class="edge"><title>Node1&#45;&gt;Node4</title>
<path fill="none" stroke="midnightblue" d="M427.467,-295.899C409.735,-318.703 379.979,-352.869 347,-373.5 342.04,-376.603 336.715,-379.406 331.226,-381.933"/>
<polygon fill="midnightblue" stroke="midnightblue" points="430.385,-297.845 433.656,-287.768 424.815,-293.605 430.385,-297.845"/>
</g>
<!-- Node5 -->
<g id="node5" class="node"><title>Node5</title>
<g id="a_node5"><a xlink:href="../../db/d6e/classBankableMIDIInput.html#a03b0913cbb2d2bdc203683dc60af1fc1" target="_top" xlink:title="If matchBankableAddressInRange returned true, get the index of the message in the range.">
<polygon fill="white" stroke="black" points="182.5,-333.5 182.5,-363.5 331.5,-363.5 331.5,-333.5 182.5,-333.5"/>
<text text-anchor="start" x="190.5" y="-351.5" font-family="Helvetica,sans-Serif" font-size="10.00">BankableMIDIInput&lt;</text>
<text text-anchor="middle" x="257" y="-340.5" font-family="Helvetica,sans-Serif" font-size="10.00"> NumBanks &gt;::getRangeIndex</text>
</a>
</g>
</g>
<!-- Node1&#45;&gt;Node5 -->
<g id="edge4" class="edge"><title>Node1&#45;&gt;Node5</title>
<path fill="none" stroke="midnightblue" d="M411.128,-292.728C392.703,-303.268 369.128,-315.747 347,-324.5 338.666,-327.796 329.72,-330.799 320.828,-333.479"/>
<polygon fill="midnightblue" stroke="midnightblue" points="413.104,-295.628 419.994,-287.58 409.589,-289.575 413.104,-295.628"/>
</g>
<!-- Node6 -->
<g id="node6" class="node"><title>Node6</title>
<g id="a_node6"><a xlink:href="../../db/d6e/classBankableMIDIInput.html#aee737e5e10cdda105bc65c0424f71cc0" target="_top" xlink:title="Check whether a given address is part of the bank relative to the base address.">
<polygon fill="white" stroke="black" points="181.5,-284.5 181.5,-314.5 332.5,-314.5 332.5,-284.5 181.5,-284.5"/>
<text text-anchor="start" x="189.5" y="-302.5" font-family="Helvetica,sans-Serif" font-size="10.00">BankableMIDIInput&lt;</text>
<text text-anchor="middle" x="257" y="-291.5" font-family="Helvetica,sans-Serif" font-size="10.00"> NumBanks &gt;::matchBankable</text>
</a>
</g>
</g>
<!-- Node1&#45;&gt;Node6 -->
<g id="edge5" class="edge"><title>Node1&#45;&gt;Node6</title>
<path fill="none" stroke="midnightblue" d="M372.93,-282.861C359.689,-284.778 345.831,-286.785 332.505,-288.714"/>
<polygon fill="midnightblue" stroke="midnightblue" points="373.521,-286.312 382.916,-281.416 372.518,-279.385 373.521,-286.312"/>
</g>
<!-- Node7 -->
<g id="node7" class="node"><title>Node7</title>
<g id="a_node7"><a xlink:href="../../db/d6e/classBankableMIDIInput.html#a39912b6c8d039c840aa9a1e73e645318" target="_top" xlink:title="Check whether a given address is part of the bank relative to the base address and within a range wit...">
<polygon fill="white" stroke="black" points="181.5,-225 181.5,-266 332.5,-266 332.5,-225 181.5,-225"/>
<text text-anchor="start" x="189.5" y="-254" font-family="Helvetica,sans-Serif" font-size="10.00">BankableMIDIInput&lt;</text>
<text text-anchor="start" x="189.5" y="-243" font-family="Helvetica,sans-Serif" font-size="10.00"> NumBanks &gt;::matchBankable</text>
<text text-anchor="middle" x="257" y="-232" font-family="Helvetica,sans-Serif" font-size="10.00">AddressInRange</text>
</a>
</g>
</g>
<!-- Node1&#45;&gt;Node7 -->
<g id="edge6" class="edge"><title>Node1&#45;&gt;Node7</title>
<path fill="none" stroke="midnightblue" d="M372.93,-262.139C359.689,-260.222 345.831,-258.215 332.505,-256.286"/>
<polygon fill="midnightblue" stroke="midnightblue" points="372.518,-265.615 382.916,-263.584 373.521,-258.688 372.518,-265.615"/>
</g>
<!-- Node8 -->
<g id="node8" class="node"><title>Node8</title>
<g id="a_node8"><a xlink:href="../../d9/d73/classMIDI__Interface.html#a3549169b2cfd90f2d11a19f551407b12" target="_top" xlink:title="Send a MIDI Control Change event.">
<polygon fill="white" stroke="black" points="195,-187 195,-206 319,-206 319,-187 195,-187"/>
<text text-anchor="middle" x="257" y="-194" font-family="Helvetica,sans-Serif" font-size="10.00">MIDI_Interface::sendCC</text>
</a>
</g>
</g>
<!-- Node1&#45;&gt;Node8 -->
<g id="edge7" class="edge"><title>Node1&#45;&gt;Node8</title>
<path fill="none" stroke="midnightblue" d="M414.688,-251.701C396.004,-239.538 370.991,-224.796 347,-215.5 337.129,-211.675 326.329,-208.551 315.762,-206.023"/>
<polygon fill="midnightblue" stroke="midnightblue" points="412.791,-254.643 423.06,-257.253 416.661,-248.809 412.791,-254.643"/>
</g>
<!-- Node13 -->
<g id="node13" class="node"><title>Node13</title>
<g id="a_node13"><a xlink:href="../../d9/d73/classMIDI__Interface.html#a2c79441f44b904566d237b05b8b3c2fb" target="_top" xlink:title="Send a MIDI Note Off event.">
<polygon fill="white" stroke="black" points="185.5,-146 185.5,-165 328.5,-165 328.5,-146 185.5,-146"/>
<text text-anchor="middle" x="257" y="-153" font-family="Helvetica,sans-Serif" font-size="10.00">MIDI_Interface::sendNoteOff</text>
</a>
</g>
</g>
<!-- Node1&#45;&gt;Node13 -->
<g id="edge12" class="edge"><title>Node1&#45;&gt;Node13</title>
<path fill="none" stroke="midnightblue" d="M426.931,-249.38C409.136,-227.588 379.642,-195.646 347,-177.5 337.401,-172.164 326.511,-168.106 315.723,-165.025"/>
<polygon fill="midnightblue" stroke="midnightblue" points="424.408,-251.829 433.379,-257.465 429.881,-247.465 424.408,-251.829"/>
</g>
<!-- Node15 -->
<g id="node15" class="node"><title>Node15</title>
<g id="a_node15"><a xlink:href="../../d9/d73/classMIDI__Interface.html#a80c4843f88185a213ebe20a26c0fd579" target="_top" xlink:title="Send a MIDI Note On event.">
<polygon fill="white" stroke="black" points="185.5,-101 185.5,-120 328.5,-120 328.5,-101 185.5,-101"/>
<text text-anchor="middle" x="257" y="-108" font-family="Helvetica,sans-Serif" font-size="10.00">MIDI_Interface::sendNoteOn</text>
</a>
</g>
</g>
<!-- Node1&#45;&gt;Node15 -->
<g id="edge14" class="edge"><title>Node1&#45;&gt;Node15</title>
<path fill="none" stroke="midnightblue" d="M433.396,-248.179C418.204,-217.602 388.066,-165.602 347,-136.5 336.624,-129.147 324.177,-123.856 311.925,-120.055"/>
<polygon fill="midnightblue" stroke="midnightblue" points="430.299,-249.814 437.799,-257.297 436.603,-246.77 430.299,-249.814"/>
</g>
<!-- Node17 -->
<g id="node17" class="node"><title>Node17</title>
<g id="a_node17"><a xlink:href="../../d9/d73/classMIDI__Interface.html#a0edc29552233fd53f5412e09a3ae5b71" target="_top" xlink:title="Send a MIDI Program Change event.">
<polygon fill="white" stroke="black" points="195.5,-50 195.5,-69 318.5,-69 318.5,-50 195.5,-50"/>
<text text-anchor="middle" x="257" y="-57" font-family="Helvetica,sans-Serif" font-size="10.00">MIDI_Interface::sendPC</text>
</a>
</g>
</g>
<!-- Node1&#45;&gt;Node17 -->
<g id="edge16" class="edge"><title>Node1&#45;&gt;Node17</title>
<path fill="none" stroke="midnightblue" d="M437.365,-247.309C425.134,-208.518 396.568,-134.185 347,-91.5 334.807,-80.9998 318.906,-73.8494 303.924,-69.0228"/>
<polygon fill="midnightblue" stroke="midnightblue" points="434.13,-248.701 440.386,-257.252 440.828,-246.666 434.13,-248.701"/>
</g>
<!-- Node9 -->
<g id="node9" class="node"><title>Node9</title>
<g id="a_node9"><a xlink:href="../../da/d07/classContinuousCCSender.html#a3dcde6121fc02f88b5a60a73b7e67ace" target="_top" xlink:title=" ">
<polygon fill="white" stroke="black" points="9.5,-301.5 9.5,-331.5 121.5,-331.5 121.5,-301.5 9.5,-301.5"/>
<text text-anchor="start" x="17.5" y="-319.5" font-family="Helvetica,sans-Serif" font-size="10.00">ContinuousCCSender</text>
<text text-anchor="middle" x="65.5" y="-308.5" font-family="Helvetica,sans-Serif" font-size="10.00">::send</text>
</a>
</g>
</g>
<!-- Node8&#45;&gt;Node9 -->
<g id="edge8" class="edge"><title>Node8&#45;&gt;Node9</title>
<path fill="none" stroke="midnightblue" d="M185.054,-205.194C178.566,-207.845 172.411,-211.219 167,-215.5 137.69,-238.691 158.37,-266.048 131,-291.5 126.866,-295.344 122.077,-298.619 117.011,-301.404"/>
<polygon fill="midnightblue" stroke="midnightblue" points="186.463,-208.409 194.749,-201.806 184.154,-201.801 186.463,-208.409"/>
</g>
<!-- Node10 -->
<g id="node10" class="node"><title>Node10</title>
<g id="a_node10"><a xlink:href="../../d3/dd0/classRelativeCCSender.html#a7436ec272c39bdbbe698d68a200e56c1" target="_top" xlink:title=" ">
<polygon fill="white" stroke="black" points="3,-263 3,-282 128,-282 128,-263 3,-263"/>
<text text-anchor="middle" x="65.5" y="-270" font-family="Helvetica,sans-Serif" font-size="10.00">RelativeCCSender::send</text>
</a>
</g>
</g>
<!-- Node8&#45;&gt;Node10 -->
<g id="edge9" class="edge"><title>Node8&#45;&gt;Node10</title>
<path fill="none" stroke="midnightblue" d="M184.927,-207.537C178.678,-209.728 172.606,-212.354 167,-215.5 146.712,-226.885 150.84,-241.351 131,-253.5 124.728,-257.341 117.637,-260.442 110.509,-262.934"/>
<polygon fill="midnightblue" stroke="midnightblue" points="186.348,-210.76 194.85,-204.438 184.261,-204.078 186.348,-210.76"/>
</g>
<!-- Node11 -->
<g id="node11" class="node"><title>Node11</title>
<g id="a_node11"><a xlink:href="../../d5/db5/classDigitalCCSender.html#ac2147259833611c3f7d023f4bb05b32e" target="_top" xlink:title=" ">
<polygon fill="white" stroke="black" points="0,-225 0,-244 131,-244 131,-225 0,-225"/>
<text text-anchor="middle" x="65.5" y="-232" font-family="Helvetica,sans-Serif" font-size="10.00">DigitalCCSender::sendOff</text>
</a>
</g>
</g>
<!-- Node8&#45;&gt;Node11 -->
<g id="edge10" class="edge"><title>Node8&#45;&gt;Node11</title>
<path fill="none" stroke="midnightblue" d="M198.105,-208.11C171.154,-213.514 139.49,-219.864 113.975,-224.98"/>
<polygon fill="midnightblue" stroke="midnightblue" points="199.065,-211.487 208.181,-206.089 197.688,-204.624 199.065,-211.487"/>
</g>
<!-- Node12 -->
<g id="node12" class="node"><title>Node12</title>
<g id="a_node12"><a xlink:href="../../d5/db5/classDigitalCCSender.html#a289dc5bbfa0ad2409834b4be952323fd" target="_top" xlink:title=" ">
<polygon fill="white" stroke="black" points="0.5,-187 0.5,-206 130.5,-206 130.5,-187 0.5,-187"/>
<text text-anchor="middle" x="65.5" y="-194" font-family="Helvetica,sans-Serif" font-size="10.00">DigitalCCSender::sendOn</text>
</a>
</g>
</g>
<!-- Node8&#45;&gt;Node12 -->
<g id="edge11" class="edge"><title>Node8&#45;&gt;Node12</title>
<path fill="none" stroke="midnightblue" d="M184.703,-196.5C166.954,-196.5 148.034,-196.5 130.652,-196.5"/>
<polygon fill="midnightblue" stroke="midnightblue" points="184.998,-200 194.998,-196.5 184.998,-193 184.998,-200"/>
</g>
<!-- Node14 -->
<g id="node14" class="node"><title>Node14</title>
<g id="a_node14"><a xlink:href="../../dc/dd4/classDigitalNoteSender.html#a69fe04157ae8d5e14f09a31c9e0304a0" target="_top" xlink:title=" ">
<polygon fill="white" stroke="black" points="14.5,-137.5 14.5,-167.5 116.5,-167.5 116.5,-137.5 14.5,-137.5"/>
<text text-anchor="start" x="22.5" y="-155.5" font-family="Helvetica,sans-Serif" font-size="10.00">DigitalNoteSender::</text>
<text text-anchor="middle" x="65.5" y="-144.5" font-family="Helvetica,sans-Serif" font-size="10.00">sendOff</text>
</a>
</g>
</g>
<!-- Node13&#45;&gt;Node14 -->
<g id="edge13" class="edge"><title>Node13&#45;&gt;Node14</title>
<path fill="none" stroke="midnightblue" d="M175.428,-154.224C155.5,-153.909 134.717,-153.58 116.711,-153.295"/>
<polygon fill="midnightblue" stroke="midnightblue" points="175.383,-157.724 185.437,-154.383 175.494,-150.725 175.383,-157.724"/>
</g>
<!-- Node16 -->
<g id="node16" class="node"><title>Node16</title>
<g id="a_node16"><a xlink:href="../../dc/dd4/classDigitalNoteSender.html#af60f52313c3d9ad166bc9327de681d3c" target="_top" xlink:title=" ">
<polygon fill="white" stroke="black" points="14.5,-88.5 14.5,-118.5 116.5,-118.5 116.5,-88.5 14.5,-88.5"/>
<text text-anchor="start" x="22.5" y="-106.5" font-family="Helvetica,sans-Serif" font-size="10.00">DigitalNoteSender::</text>
<text text-anchor="middle" x="65.5" y="-95.5" font-family="Helvetica,sans-Serif" font-size="10.00">sendOn</text>
</a>
</g>
</g>
<!-- Node15&#45;&gt;Node16 -->
<g id="edge15" class="edge"><title>Node15&#45;&gt;Node16</title>
<path fill="none" stroke="midnightblue" d="M175.428,-107.524C155.5,-106.788 134.717,-106.02 116.711,-105.355"/>
<polygon fill="midnightblue" stroke="midnightblue" points="175.315,-111.022 185.437,-107.893 175.573,-104.027 175.315,-111.022"/>
</g>
<!-- Node18 -->
<g id="node18" class="node"><title>Node18</title>
<g id="a_node18"><a xlink:href="../../de/d43/classProgramChanger.html#a272cadb089ee0c7beebc5e9c496cd7d5" target="_top" xlink:title=" ">
<polygon fill="white" stroke="black" points="4.5,-50 4.5,-69 126.5,-69 126.5,-50 4.5,-50"/>
<text text-anchor="middle" x="65.5" y="-57" font-family="Helvetica,sans-Serif" font-size="10.00">ProgramChanger::select</text>
</a>
</g>
</g>
<!-- Node17&#45;&gt;Node18 -->
<g id="edge17" class="edge"><title>Node17&#45;&gt;Node18</title>
<path fill="none" stroke="midnightblue" d="M185.039,-59.5C165.796,-59.5 145.153,-59.5 126.573,-59.5"/>
<polygon fill="midnightblue" stroke="midnightblue" points="185.259,-63.0001 195.259,-59.5 185.259,-56.0001 185.259,-63.0001"/>
</g>
<!-- Node19 -->
<g id="node19" class="node"><title>Node19</title>
<g id="a_node19"><a xlink:href="../../db/d8b/classProgramChangeSender.html#a5f0a29a1f0bd70bd2c07396bcf9dc48a" target="_top" xlink:title=" ">
<polygon fill="white" stroke="black" points="6.5,-0.5 6.5,-30.5 124.5,-30.5 124.5,-0.5 6.5,-0.5"/>
<text text-anchor="start" x="14.5" y="-18.5" font-family="Helvetica,sans-Serif" font-size="10.00">ProgramChangeSender</text>
<text text-anchor="middle" x="65.5" y="-7.5" font-family="Helvetica,sans-Serif" font-size="10.00">::sendOn</text>
</a>
</g>
</g>
<!-- Node17&#45;&gt;Node19 -->
<g id="edge18" class="edge"><title>Node17&#45;&gt;Node19</title>
<path fill="none" stroke="midnightblue" d="M204.973,-47.652C180.241,-41.9095 150.418,-34.985 124.793,-29.0352"/>
<polygon fill="midnightblue" stroke="midnightblue" points="204.349,-51.1002 214.881,-49.9527 205.932,-44.2815 204.349,-51.1002"/>
</g>
</g>
</svg>
