<?xml version="1.0" encoding="UTF-8" standalone="no"?>
<!DOCTYPE svg PUBLIC "-//W3C//DTD SVG 1.1//EN"
 "http://www.w3.org/Graphics/SVG/1.1/DTD/svg11.dtd">
<!-- Generated by graphviz version 2.38.0 (20140413.2041)
 -->
<!-- Title: MIDICNChannelAddress::getRawChannel Pages: 1 -->
<svg width="487pt" height="345pt"
 viewBox="0.00 0.00 487.00 345.00" xmlns="http://www.w3.org/2000/svg" xmlns:xlink="http://www.w3.org/1999/xlink">
<g id="graph0" class="graph" transform="scale(1 1) rotate(0) translate(4 341)">
<title>MIDICNChannelAddress::getRawChannel</title>
<polygon fill="white" stroke="none" points="-4,4 -4,-341 483,-341 483,4 -4,4"/>
<!-- Node1 -->
<g id="node1" class="node"><title>Node1</title>
<g id="a_node1"><a xlink:title="Get the channel [0, 15].">
<polygon fill="#bfbfbf" stroke="black" points="354,-175.5 354,-205.5 479,-205.5 479,-175.5 354,-175.5"/>
<text text-anchor="start" x="362" y="-193.5" font-family="Helvetica,sans-Serif" font-size="10.00">MIDICNChannelAddress</text>
<text text-anchor="middle" x="416.5" y="-182.5" font-family="Helvetica,sans-Serif" font-size="10.00">::getRawChannel</text>
</a>
</g>
</g>
<!-- Node2 -->
<g id="node2" class="node"><title>Node2</title>
<g id="a_node2"><a xlink:href="../../db/d6e/classBankableMIDIInput.html#ab1bd85c23ad830c167ffd6f93c791ab5" target="_top" xlink:title="Calculate the bank setting of a given MIDI address, relative to a base address.">
<polygon fill="white" stroke="black" points="171,-306.5 171,-336.5 314,-336.5 314,-306.5 171,-306.5"/>
<text text-anchor="start" x="179" y="-324.5" font-family="Helvetica,sans-Serif" font-size="10.00">BankableMIDIInput&lt;</text>
<text text-anchor="middle" x="242.5" y="-313.5" font-family="Helvetica,sans-Serif" font-size="10.00"> NumBanks &gt;::getBankIndex</text>
</a>
</g>
</g>
<!-- Node1&#45;&gt;Node2 -->
<g id="edge1" class="edge"><title>Node1&#45;&gt;Node2</title>
<path fill="none" stroke="midnightblue" d="M399.881,-213.835C382.552,-238.023 352.447,-275.336 318,-297.5 312.743,-300.882 306.97,-303.824 301.036,-306.374"/>
<polygon fill="midnightblue" stroke="midnightblue" points="402.801,-215.767 405.672,-205.569 397.068,-211.751 402.801,-215.767"/>
</g>
<!-- Node3 -->
<g id="node3" class="node"><title>Node3</title>
<g id="a_node3"><a xlink:href="../../db/d6e/classBankableMIDIInput.html#aee737e5e10cdda105bc65c0424f71cc0" target="_top" xlink:title="Check whether a given address is part of the bank relative to the base address.">
<polygon fill="white" stroke="black" points="167,-257.5 167,-287.5 318,-287.5 318,-257.5 167,-257.5"/>
<text text-anchor="start" x="175" y="-275.5" font-family="Helvetica,sans-Serif" font-size="10.00">BankableMIDIInput&lt;</text>
<text text-anchor="middle" x="242.5" y="-264.5" font-family="Helvetica,sans-Serif" font-size="10.00"> NumBanks &gt;::matchBankable</text>
</a>
</g>
</g>
<!-- Node1&#45;&gt;Node3 -->
<g id="edge2" class="edge"><title>Node1&#45;&gt;Node3</title>
<path fill="none" stroke="midnightblue" d="M383.908,-211.202C365.243,-222.859 340.859,-237.116 318,-247.5 310.175,-251.055 301.689,-254.374 293.342,-257.358"/>
<polygon fill="midnightblue" stroke="midnightblue" points="386,-214.02 392.58,-205.717 382.258,-208.105 386,-214.02"/>
</g>
<!-- Node4 -->
<g id="node4" class="node"><title>Node4</title>
<g id="a_node4"><a xlink:href="../../d9/d73/classMIDI__Interface.html#a3549169b2cfd90f2d11a19f551407b12" target="_top" xlink:title="Send a MIDI Control Change event.">
<polygon fill="white" stroke="black" points="180.5,-219 180.5,-238 304.5,-238 304.5,-219 180.5,-219"/>
<text text-anchor="middle" x="242.5" y="-226" font-family="Helvetica,sans-Serif" font-size="10.00">MIDI_Interface::sendCC</text>
</a>
</g>
</g>
<!-- Node1&#45;&gt;Node4 -->
<g id="edge3" class="edge"><title>Node1&#45;&gt;Node4</title>
<path fill="none" stroke="midnightblue" d="M344.106,-206.273C324.589,-210.585 304.037,-215.125 286.633,-218.971"/>
<polygon fill="midnightblue" stroke="midnightblue" points="344.88,-209.686 353.89,-204.112 343.37,-202.851 344.88,-209.686"/>
</g>
<!-- Node9 -->
<g id="node9" class="node"><title>Node9</title>
<g id="a_node9"><a xlink:href="../../d9/d73/classMIDI__Interface.html#a0db3bdef733c4a4775609bbc6f1a3a7a" target="_top" xlink:title="Send a MIDI Key Pressure event.">
<polygon fill="white" stroke="black" points="181.5,-181 181.5,-200 303.5,-200 303.5,-181 181.5,-181"/>
<text text-anchor="middle" x="242.5" y="-188" font-family="Helvetica,sans-Serif" font-size="10.00">MIDI_Interface::sendKP</text>
</a>
</g>
</g>
<!-- Node1&#45;&gt;Node9 -->
<g id="edge8" class="edge"><title>Node1&#45;&gt;Node9</title>
<path fill="none" stroke="midnightblue" d="M343.767,-190.5C330.379,-190.5 316.517,-190.5 303.527,-190.5"/>
<polygon fill="midnightblue" stroke="midnightblue" points="343.89,-194 353.89,-190.5 343.89,-187 343.89,-194"/>
</g>
<!-- Node10 -->
<g id="node10" class="node"><title>Node10</title>
<g id="a_node10"><a xlink:href="../../d9/d73/classMIDI__Interface.html#a2c79441f44b904566d237b05b8b3c2fb" target="_top" xlink:title="Send a MIDI Note Off event.">
<polygon fill="white" stroke="black" points="171,-143 171,-162 314,-162 314,-143 171,-143"/>
<text text-anchor="middle" x="242.5" y="-150" font-family="Helvetica,sans-Serif" font-size="10.00">MIDI_Interface::sendNoteOff</text>
</a>
</g>
</g>
<!-- Node1&#45;&gt;Node10 -->
<g id="edge9" class="edge"><title>Node1&#45;&gt;Node10</title>
<path fill="none" stroke="midnightblue" d="M344.106,-174.727C324.589,-170.415 304.037,-165.875 286.633,-162.029"/>
<polygon fill="midnightblue" stroke="midnightblue" points="343.37,-178.149 353.89,-176.888 344.88,-171.314 343.37,-178.149"/>
</g>
<!-- Node12 -->
<g id="node12" class="node"><title>Node12</title>
<g id="a_node12"><a xlink:href="../../d9/d73/classMIDI__Interface.html#a80c4843f88185a213ebe20a26c0fd579" target="_top" xlink:title="Send a MIDI Note On event.">
<polygon fill="white" stroke="black" points="171,-99 171,-118 314,-118 314,-99 171,-99"/>
<text text-anchor="middle" x="242.5" y="-106" font-family="Helvetica,sans-Serif" font-size="10.00">MIDI_Interface::sendNoteOn</text>
</a>
</g>
</g>
<!-- Node1&#45;&gt;Node12 -->
<g id="edge11" class="edge"><title>Node1&#45;&gt;Node12</title>
<path fill="none" stroke="midnightblue" d="M383.908,-169.798C365.243,-158.141 340.859,-143.884 318,-133.5 304.833,-127.519 289.798,-122.205 276.698,-118.031"/>
<polygon fill="midnightblue" stroke="midnightblue" points="382.258,-172.895 392.58,-175.283 386,-166.98 382.258,-172.895"/>
</g>
<!-- Node14 -->
<g id="node14" class="node"><title>Node14</title>
<g id="a_node14"><a xlink:href="../../d9/d73/classMIDI__Interface.html#a0edc29552233fd53f5412e09a3ae5b71" target="_top" xlink:title="Send a MIDI Program Change event.">
<polygon fill="white" stroke="black" points="181,-50 181,-69 304,-69 304,-50 181,-50"/>
<text text-anchor="middle" x="242.5" y="-57" font-family="Helvetica,sans-Serif" font-size="10.00">MIDI_Interface::sendPC</text>
</a>
</g>
</g>
<!-- Node1&#45;&gt;Node14 -->
<g id="edge13" class="edge"><title>Node1&#45;&gt;Node14</title>
<path fill="none" stroke="midnightblue" d="M397.861,-167.196C379.861,-144.753 350.081,-111.116 318,-89.5 305.049,-80.7737 289.17,-73.9407 275.405,-69.0147"/>
<polygon fill="midnightblue" stroke="midnightblue" points="395.227,-169.509 404.163,-175.201 400.727,-165.179 395.227,-169.509"/>
</g>
<!-- Node5 -->
<g id="node5" class="node"><title>Node5</title>
<g id="a_node5"><a xlink:href="../../da/d07/classContinuousCCSender.html#a3dcde6121fc02f88b5a60a73b7e67ace" target="_top" xlink:title=" ">
<polygon fill="white" stroke="black" points="9.5,-301.5 9.5,-331.5 121.5,-331.5 121.5,-301.5 9.5,-301.5"/>
<text text-anchor="start" x="17.5" y="-319.5" font-family="Helvetica,sans-Serif" font-size="10.00">ContinuousCCSender</text>
<text text-anchor="middle" x="65.5" y="-308.5" font-family="Helvetica,sans-Serif" font-size="10.00">::send</text>
</a>
</g>
</g>
<!-- Node4&#45;&gt;Node5 -->
<g id="edge4" class="edge"><title>Node4&#45;&gt;Node5</title>
<path fill="none" stroke="midnightblue" d="M179.867,-241.74C175.367,-243.694 171.022,-245.933 167,-248.5 145.989,-261.909 151.26,-276.982 131,-291.5 125.729,-295.277 119.811,-298.574 113.755,-301.424"/>
<polygon fill="midnightblue" stroke="midnightblue" points="181.197,-244.979 189.27,-238.117 178.68,-238.447 181.197,-244.979"/>
</g>
<!-- Node6 -->
<g id="node6" class="node"><title>Node6</title>
<g id="a_node6"><a xlink:href="../../d3/dd0/classRelativeCCSender.html#a7436ec272c39bdbbe698d68a200e56c1" target="_top" xlink:title=" ">
<polygon fill="white" stroke="black" points="3,-263 3,-282 128,-282 128,-263 3,-263"/>
<text text-anchor="middle" x="65.5" y="-270" font-family="Helvetica,sans-Serif" font-size="10.00">RelativeCCSender::send</text>
</a>
</g>
</g>
<!-- Node4&#45;&gt;Node6 -->
<g id="edge5" class="edge"><title>Node4&#45;&gt;Node6</title>
<path fill="none" stroke="midnightblue" d="M193.527,-240.562C165.461,-247.618 130.524,-256.402 104.398,-262.971"/>
<polygon fill="midnightblue" stroke="midnightblue" points="194.683,-243.88 203.528,-238.047 192.976,-237.091 194.683,-243.88"/>
</g>
<!-- Node7 -->
<g id="node7" class="node"><title>Node7</title>
<g id="a_node7"><a xlink:href="../../d5/db5/classDigitalCCSender.html#ac2147259833611c3f7d023f4bb05b32e" target="_top" xlink:title=" ">
<polygon fill="white" stroke="black" points="0,-225 0,-244 131,-244 131,-225 0,-225"/>
<text text-anchor="middle" x="65.5" y="-232" font-family="Helvetica,sans-Serif" font-size="10.00">DigitalCCSender::sendOff</text>
</a>
</g>
</g>
<!-- Node4&#45;&gt;Node7 -->
<g id="edge6" class="edge"><title>Node4&#45;&gt;Node7</title>
<path fill="none" stroke="midnightblue" d="M170.104,-230.948C157.242,-231.389 143.9,-231.846 131.24,-232.28"/>
<polygon fill="midnightblue" stroke="midnightblue" points="170.419,-234.439 180.293,-230.599 170.179,-227.443 170.419,-234.439"/>
</g>
<!-- Node8 -->
<g id="node8" class="node"><title>Node8</title>
<g id="a_node8"><a xlink:href="../../d5/db5/classDigitalCCSender.html#a289dc5bbfa0ad2409834b4be952323fd" target="_top" xlink:title=" ">
<polygon fill="white" stroke="black" points="0.5,-187 0.5,-206 130.5,-206 130.5,-187 0.5,-187"/>
<text text-anchor="middle" x="65.5" y="-194" font-family="Helvetica,sans-Serif" font-size="10.00">DigitalCCSender::sendOn</text>
</a>
</g>
</g>
<!-- Node4&#45;&gt;Node8 -->
<g id="edge7" class="edge"><title>Node4&#45;&gt;Node8</title>
<path fill="none" stroke="midnightblue" d="M179.559,-217.174C159.637,-213.531 137.778,-209.534 118.634,-206.033"/>
<polygon fill="midnightblue" stroke="midnightblue" points="179.002,-220.63 189.468,-218.986 180.261,-213.744 179.002,-220.63"/>
</g>
<!-- Node11 -->
<g id="node11" class="node"><title>Node11</title>
<g id="a_node11"><a xlink:href="../../dc/dd4/classDigitalNoteSender.html#a69fe04157ae8d5e14f09a31c9e0304a0" target="_top" xlink:title=" ">
<polygon fill="white" stroke="black" points="14.5,-137.5 14.5,-167.5 116.5,-167.5 116.5,-137.5 14.5,-137.5"/>
<text text-anchor="start" x="22.5" y="-155.5" font-family="Helvetica,sans-Serif" font-size="10.00">DigitalNoteSender::</text>
<text text-anchor="middle" x="65.5" y="-144.5" font-family="Helvetica,sans-Serif" font-size="10.00">sendOff</text>
</a>
</g>
</g>
<!-- Node10&#45;&gt;Node11 -->
<g id="edge10" class="edge"><title>Node10&#45;&gt;Node11</title>
<path fill="none" stroke="midnightblue" d="M160.55,-152.5C145.617,-152.5 130.428,-152.5 116.737,-152.5"/>
<polygon fill="midnightblue" stroke="midnightblue" points="160.825,-156 170.825,-152.5 160.825,-149 160.825,-156"/>
</g>
<!-- Node13 -->
<g id="node13" class="node"><title>Node13</title>
<g id="a_node13"><a xlink:href="../../dc/dd4/classDigitalNoteSender.html#af60f52313c3d9ad166bc9327de681d3c" target="_top" xlink:title=" ">
<polygon fill="white" stroke="black" points="14.5,-88.5 14.5,-118.5 116.5,-118.5 116.5,-88.5 14.5,-88.5"/>
<text text-anchor="start" x="22.5" y="-106.5" font-family="Helvetica,sans-Serif" font-size="10.00">DigitalNoteSender::</text>
<text text-anchor="middle" x="65.5" y="-95.5" font-family="Helvetica,sans-Serif" font-size="10.00">sendOn</text>
</a>
</g>
</g>
<!-- Node12&#45;&gt;Node13 -->
<g id="edge12" class="edge"><title>Node12&#45;&gt;Node13</title>
<path fill="none" stroke="midnightblue" d="M160.55,-106.187C145.617,-105.76 130.428,-105.327 116.737,-104.935"/>
<polygon fill="midnightblue" stroke="midnightblue" points="160.729,-109.694 170.825,-106.481 160.929,-102.696 160.729,-109.694"/>
</g>
<!-- Node15 -->
<g id="node15" class="node"><title>Node15</title>
<g id="a_node15"><a xlink:href="../../de/d43/classProgramChanger.html#a272cadb089ee0c7beebc5e9c496cd7d5" target="_top" xlink:title=" ">
<polygon fill="white" stroke="black" points="4.5,-50 4.5,-69 126.5,-69 126.5,-50 4.5,-50"/>
<text text-anchor="middle" x="65.5" y="-57" font-family="Helvetica,sans-Serif" font-size="10.00">ProgramChanger::select</text>
</a>
</g>
</g>
<!-- Node14&#45;&gt;Node15 -->
<g id="edge14" class="edge"><title>Node14&#45;&gt;Node15</title>
<path fill="none" stroke="midnightblue" d="M170.753,-59.5C156.083,-59.5 140.759,-59.5 126.517,-59.5"/>
<polygon fill="midnightblue" stroke="midnightblue" points="170.785,-63.0001 180.785,-59.5 170.785,-56.0001 170.785,-63.0001"/>
</g>
<!-- Node16 -->
<g id="node16" class="node"><title>Node16</title>
<g id="a_node16"><a xlink:href="../../db/d8b/classProgramChangeSender.html#a5f0a29a1f0bd70bd2c07396bcf9dc48a" target="_top" xlink:title=" ">
<polygon fill="white" stroke="black" points="6.5,-0.5 6.5,-30.5 124.5,-30.5 124.5,-0.5 6.5,-0.5"/>
<text text-anchor="start" x="14.5" y="-18.5" font-family="Helvetica,sans-Serif" font-size="10.00">ProgramChangeSender</text>
<text text-anchor="middle" x="65.5" y="-7.5" font-family="Helvetica,sans-Serif" font-size="10.00">::sendOn</text>
</a>
</g>
</g>
<!-- Node14&#45;&gt;Node16 -->
<g id="edge15" class="edge"><title>Node14&#45;&gt;Node16</title>
<path fill="none" stroke="midnightblue" d="M193.731,-47.4894C172.421,-42.1315 147.119,-35.77 124.714,-30.1366"/>
<polygon fill="midnightblue" stroke="midnightblue" points="192.976,-50.9085 203.528,-49.9527 194.683,-44.1198 192.976,-50.9085"/>
</g>
</g>
</svg>
