<?xml version="1.0" encoding="UTF-8" standalone="no"?>
<!DOCTYPE svg PUBLIC "-//W3C//DTD SVG 1.1//EN"
 "http://www.w3.org/Graphics/SVG/1.1/DTD/svg11.dtd">
<!-- Generated by graphviz version 2.38.0 (20140413.2041)
 -->
<!-- Title: MIDICNChannelAddress::getCableNumber Pages: 1 -->
<svg width="487pt" height="419pt"
 viewBox="0.00 0.00 487.00 419.00" xmlns="http://www.w3.org/2000/svg" xmlns:xlink="http://www.w3.org/1999/xlink">
<g id="graph0" class="graph" transform="scale(1 1) rotate(0) translate(4 415)">
<title>MIDICNChannelAddress::getCableNumber</title>
<polygon fill="white" stroke="none" points="-4,4 -4,-415 483,-415 483,4 -4,4"/>
<!-- Node1 -->
<g id="node1" class="node"><title>Node1</title>
<g id="a_node1"><a xlink:title="Get the cable number [0, 15].">
<polygon fill="#bfbfbf" stroke="black" points="354,-207.5 354,-237.5 479,-237.5 479,-207.5 354,-207.5"/>
<text text-anchor="start" x="362" y="-225.5" font-family="Helvetica,sans-Serif" font-size="10.00">MIDICNChannelAddress</text>
<text text-anchor="middle" x="416.5" y="-214.5" font-family="Helvetica,sans-Serif" font-size="10.00">::getCableNumber</text>
</a>
</g>
</g>
<!-- Node2 -->
<g id="node2" class="node"><title>Node2</title>
<g id="a_node2"><a xlink:href="../../db/d6e/classBankableMIDIInput.html#ab1bd85c23ad830c167ffd6f93c791ab5" target="_top" xlink:title="Calculate the bank setting of a given MIDI address, relative to a base address.">
<polygon fill="white" stroke="black" points="171,-380.5 171,-410.5 314,-410.5 314,-380.5 171,-380.5"/>
<text text-anchor="start" x="179" y="-398.5" font-family="Helvetica,sans-Serif" font-size="10.00">BankableMIDIInput&lt;</text>
<text text-anchor="middle" x="242.5" y="-387.5" font-family="Helvetica,sans-Serif" font-size="10.00"> NumBanks &gt;::getBankIndex</text>
</a>
</g>
</g>
<!-- Node1&#45;&gt;Node2 -->
<g id="edge1" class="edge"><title>Node1&#45;&gt;Node2</title>
<path fill="none" stroke="midnightblue" d="M405.738,-246.988C391.368,-279.979 361.441,-338.373 318,-371.5 313.462,-374.961 308.407,-377.932 303.128,-380.481"/>
<polygon fill="midnightblue" stroke="midnightblue" points="409.027,-248.195 409.696,-237.622 402.579,-245.471 409.027,-248.195"/>
</g>
<!-- Node3 -->
<g id="node3" class="node"><title>Node3</title>
<g id="a_node3"><a xlink:href="../../db/d6e/classBankableMIDIInput.html#aee737e5e10cdda105bc65c0424f71cc0" target="_top" xlink:title="Check whether a given address is part of the bank relative to the base address.">
<polygon fill="white" stroke="black" points="167,-331.5 167,-361.5 318,-361.5 318,-331.5 167,-331.5"/>
<text text-anchor="start" x="175" y="-349.5" font-family="Helvetica,sans-Serif" font-size="10.00">BankableMIDIInput&lt;</text>
<text text-anchor="middle" x="242.5" y="-338.5" font-family="Helvetica,sans-Serif" font-size="10.00"> NumBanks &gt;::matchBankable</text>
</a>
</g>
</g>
<!-- Node1&#45;&gt;Node3 -->
<g id="edge2" class="edge"><title>Node1&#45;&gt;Node3</title>
<path fill="none" stroke="midnightblue" d="M398.432,-245.684C380.672,-268.274 350.895,-302.112 318,-322.5 312.571,-325.865 306.625,-328.803 300.534,-331.358"/>
<polygon fill="midnightblue" stroke="midnightblue" points="401.306,-247.687 404.631,-237.628 395.759,-243.418 401.306,-247.687"/>
</g>
<!-- Node4 -->
<g id="node4" class="node"><title>Node4</title>
<g id="a_node4"><a xlink:href="../../db/d6e/classBankableMIDIInput.html#a39912b6c8d039c840aa9a1e73e645318" target="_top" xlink:title="Check whether a given address is part of the bank relative to the base address and within a range wit...">
<polygon fill="white" stroke="black" points="167,-272 167,-313 318,-313 318,-272 167,-272"/>
<text text-anchor="start" x="175" y="-301" font-family="Helvetica,sans-Serif" font-size="10.00">BankableMIDIInput&lt;</text>
<text text-anchor="start" x="175" y="-290" font-family="Helvetica,sans-Serif" font-size="10.00"> NumBanks &gt;::matchBankable</text>
<text text-anchor="middle" x="242.5" y="-279" font-family="Helvetica,sans-Serif" font-size="10.00">AddressInRange</text>
</a>
</g>
</g>
<!-- Node1&#45;&gt;Node4 -->
<g id="edge3" class="edge"><title>Node1&#45;&gt;Node4</title>
<path fill="none" stroke="midnightblue" d="M369.634,-241.388C353.34,-248.08 334.861,-255.647 318,-262.5 310.508,-265.545 302.587,-268.75 294.815,-271.887"/>
<polygon fill="midnightblue" stroke="midnightblue" points="371.027,-244.6 378.946,-237.562 368.367,-238.125 371.027,-244.6"/>
</g>
<!-- Node5 -->
<g id="node5" class="node"><title>Node5</title>
<g id="a_node5"><a xlink:href="../../d9/d73/classMIDI__Interface.html#a3549169b2cfd90f2d11a19f551407b12" target="_top" xlink:title="Send a MIDI Control Change event.">
<polygon fill="white" stroke="black" points="180.5,-234 180.5,-253 304.5,-253 304.5,-234 180.5,-234"/>
<text text-anchor="middle" x="242.5" y="-241" font-family="Helvetica,sans-Serif" font-size="10.00">MIDI_Interface::sendCC</text>
</a>
</g>
</g>
<!-- Node1&#45;&gt;Node5 -->
<g id="edge4" class="edge"><title>Node1&#45;&gt;Node5</title>
<path fill="none" stroke="midnightblue" d="M343.623,-231.276C330.675,-232.856 317.289,-234.491 304.68,-236.03"/>
<polygon fill="midnightblue" stroke="midnightblue" points="344.388,-234.708 353.89,-230.022 343.539,-227.76 344.388,-234.708"/>
</g>
<!-- Node10 -->
<g id="node10" class="node"><title>Node10</title>
<g id="a_node10"><a xlink:href="../../d9/d73/classMIDI__Interface.html#a2c79441f44b904566d237b05b8b3c2fb" target="_top" xlink:title="Send a MIDI Note Off event.">
<polygon fill="white" stroke="black" points="171,-193 171,-212 314,-212 314,-193 171,-193"/>
<text text-anchor="middle" x="242.5" y="-200" font-family="Helvetica,sans-Serif" font-size="10.00">MIDI_Interface::sendNoteOff</text>
</a>
</g>
</g>
<!-- Node1&#45;&gt;Node10 -->
<g id="edge9" class="edge"><title>Node1&#45;&gt;Node10</title>
<path fill="none" stroke="midnightblue" d="M343.762,-214.158C333.934,-213.016 323.85,-211.843 314.043,-210.703"/>
<polygon fill="midnightblue" stroke="midnightblue" points="343.553,-217.658 353.89,-215.336 344.361,-210.704 343.553,-217.658"/>
</g>
<!-- Node12 -->
<g id="node12" class="node"><title>Node12</title>
<g id="a_node12"><a xlink:href="../../d9/d73/classMIDI__Interface.html#a80c4843f88185a213ebe20a26c0fd579" target="_top" xlink:title="Send a MIDI Note On event.">
<polygon fill="white" stroke="black" points="171,-150 171,-169 314,-169 314,-150 171,-150"/>
<text text-anchor="middle" x="242.5" y="-157" font-family="Helvetica,sans-Serif" font-size="10.00">MIDI_Interface::sendNoteOn</text>
</a>
</g>
</g>
<!-- Node1&#45;&gt;Node12 -->
<g id="edge11" class="edge"><title>Node1&#45;&gt;Node12</title>
<path fill="none" stroke="midnightblue" d="M370.268,-203.655C353.895,-197.034 335.204,-189.703 318,-183.5 303.939,-178.43 288.206,-173.285 274.835,-169.067"/>
<polygon fill="midnightblue" stroke="midnightblue" points="369.029,-206.929 379.61,-207.457 371.668,-200.446 369.029,-206.929"/>
</g>
<!-- Node14 -->
<g id="node14" class="node"><title>Node14</title>
<g id="a_node14"><a xlink:href="../../d9/d73/classMIDI__Interface.html#a095f45d6e0780a90e3d4482639196a8f" target="_top" xlink:title="Send a MIDI Pitch Bend event.">
<polygon fill="white" stroke="black" points="181.5,-101 181.5,-120 303.5,-120 303.5,-101 181.5,-101"/>
<text text-anchor="middle" x="242.5" y="-108" font-family="Helvetica,sans-Serif" font-size="10.00">MIDI_Interface::sendPB</text>
</a>
</g>
</g>
<!-- Node1&#45;&gt;Node14 -->
<g id="edge13" class="edge"><title>Node1&#45;&gt;Node14</title>
<path fill="none" stroke="midnightblue" d="M393.017,-199.987C374.214,-182.09 346.035,-157.345 318,-140.5 304.136,-132.17 287.54,-125.229 273.534,-120.129"/>
<polygon fill="midnightblue" stroke="midnightblue" points="390.851,-202.762 400.473,-207.196 395.716,-197.729 390.851,-202.762"/>
</g>
<!-- Node16 -->
<g id="node16" class="node"><title>Node16</title>
<g id="a_node16"><a xlink:href="../../d9/d73/classMIDI__Interface.html#a0edc29552233fd53f5412e09a3ae5b71" target="_top" xlink:title="Send a MIDI Program Change event.">
<polygon fill="white" stroke="black" points="181,-50 181,-69 304,-69 304,-50 181,-50"/>
<text text-anchor="middle" x="242.5" y="-57" font-family="Helvetica,sans-Serif" font-size="10.00">MIDI_Interface::sendPC</text>
</a>
</g>
</g>
<!-- Node1&#45;&gt;Node16 -->
<g id="edge15" class="edge"><title>Node1&#45;&gt;Node16</title>
<path fill="none" stroke="midnightblue" d="M402.634,-198.093C386.34,-169.225 355.784,-121.332 318,-91.5 305.516,-81.643 289.537,-74.253 275.581,-69.0726"/>
<polygon fill="midnightblue" stroke="midnightblue" points="399.708,-200.035 407.602,-207.101 405.837,-196.654 399.708,-200.035"/>
</g>
<!-- Node6 -->
<g id="node6" class="node"><title>Node6</title>
<g id="a_node6"><a xlink:href="../../da/d07/classContinuousCCSender.html#a3dcde6121fc02f88b5a60a73b7e67ace" target="_top" xlink:title=" ">
<polygon fill="white" stroke="black" points="9.5,-350.5 9.5,-380.5 121.5,-380.5 121.5,-350.5 9.5,-350.5"/>
<text text-anchor="start" x="17.5" y="-368.5" font-family="Helvetica,sans-Serif" font-size="10.00">ContinuousCCSender</text>
<text text-anchor="middle" x="65.5" y="-357.5" font-family="Helvetica,sans-Serif" font-size="10.00">::send</text>
</a>
</g>
</g>
<!-- Node5&#45;&gt;Node6 -->
<g id="edge5" class="edge"><title>Node5&#45;&gt;Node6</title>
<path fill="none" stroke="midnightblue" d="M173.418,-257.883C171.17,-259.284 169.02,-260.819 167,-262.5 137.652,-286.923 158.83,-314.361 131,-340.5 126.886,-344.364 122.108,-347.652 117.049,-350.446"/>
<polygon fill="midnightblue" stroke="midnightblue" points="175.277,-260.86 182.506,-253.115 172.025,-254.661 175.277,-260.86"/>
</g>
<!-- Node7 -->
<g id="node7" class="node"><title>Node7</title>
<g id="a_node7"><a xlink:href="../../d3/dd0/classRelativeCCSender.html#a7436ec272c39bdbbe698d68a200e56c1" target="_top" xlink:title=" ">
<polygon fill="white" stroke="black" points="3,-312 3,-331 128,-331 128,-312 3,-312"/>
<text text-anchor="middle" x="65.5" y="-319" font-family="Helvetica,sans-Serif" font-size="10.00">RelativeCCSender::send</text>
</a>
</g>
</g>
<!-- Node5&#45;&gt;Node7 -->
<g id="edge6" class="edge"><title>Node5&#45;&gt;Node7</title>
<path fill="none" stroke="midnightblue" d="M178.407,-256.688C174.439,-258.397 170.598,-260.324 167,-262.5 146.533,-274.876 151.236,-289.75 131,-302.5 124.876,-306.358 117.936,-309.462 110.933,-311.951"/>
<polygon fill="midnightblue" stroke="midnightblue" points="179.751,-259.922 187.847,-253.088 177.257,-253.381 179.751,-259.922"/>
</g>
<!-- Node8 -->
<g id="node8" class="node"><title>Node8</title>
<g id="a_node8"><a xlink:href="../../d5/db5/classDigitalCCSender.html#ac2147259833611c3f7d023f4bb05b32e" target="_top" xlink:title=" ">
<polygon fill="white" stroke="black" points="0,-274 0,-293 131,-293 131,-274 0,-274"/>
<text text-anchor="middle" x="65.5" y="-281" font-family="Helvetica,sans-Serif" font-size="10.00">DigitalCCSender::sendOff</text>
</a>
</g>
</g>
<!-- Node5&#45;&gt;Node8 -->
<g id="edge7" class="edge"><title>Node5&#45;&gt;Node8</title>
<path fill="none" stroke="midnightblue" d="M189.521,-255.381C163.518,-261.325 132.472,-268.421 108.075,-273.997"/>
<polygon fill="midnightblue" stroke="midnightblue" points="190.614,-258.721 199.583,-253.081 189.055,-251.897 190.614,-258.721"/>
</g>
<!-- Node9 -->
<g id="node9" class="node"><title>Node9</title>
<g id="a_node9"><a xlink:href="../../d5/db5/classDigitalCCSender.html#a289dc5bbfa0ad2409834b4be952323fd" target="_top" xlink:title=" ">
<polygon fill="white" stroke="black" points="0.5,-236 0.5,-255 130.5,-255 130.5,-236 0.5,-236"/>
<text text-anchor="middle" x="65.5" y="-243" font-family="Helvetica,sans-Serif" font-size="10.00">DigitalCCSender::sendOn</text>
</a>
</g>
</g>
<!-- Node5&#45;&gt;Node9 -->
<g id="edge8" class="edge"><title>Node5&#45;&gt;Node9</title>
<path fill="none" stroke="midnightblue" d="M169.976,-244.317C156.951,-244.466 143.437,-244.621 130.643,-244.767"/>
<polygon fill="midnightblue" stroke="midnightblue" points="170.334,-247.814 180.293,-244.2 170.254,-240.814 170.334,-247.814"/>
</g>
<!-- Node11 -->
<g id="node11" class="node"><title>Node11</title>
<g id="a_node11"><a xlink:href="../../dc/dd4/classDigitalNoteSender.html#a69fe04157ae8d5e14f09a31c9e0304a0" target="_top" xlink:title=" ">
<polygon fill="white" stroke="black" points="14.5,-186.5 14.5,-216.5 116.5,-216.5 116.5,-186.5 14.5,-186.5"/>
<text text-anchor="start" x="22.5" y="-204.5" font-family="Helvetica,sans-Serif" font-size="10.00">DigitalNoteSender::</text>
<text text-anchor="middle" x="65.5" y="-193.5" font-family="Helvetica,sans-Serif" font-size="10.00">sendOff</text>
</a>
</g>
</g>
<!-- Node10&#45;&gt;Node11 -->
<g id="edge10" class="edge"><title>Node10&#45;&gt;Node11</title>
<path fill="none" stroke="midnightblue" d="M160.55,-202.037C145.617,-201.952 130.428,-201.865 116.737,-201.787"/>
<polygon fill="midnightblue" stroke="midnightblue" points="160.805,-205.539 170.825,-202.096 160.845,-198.539 160.805,-205.539"/>
</g>
<!-- Node13 -->
<g id="node13" class="node"><title>Node13</title>
<g id="a_node13"><a xlink:href="../../dc/dd4/classDigitalNoteSender.html#af60f52313c3d9ad166bc9327de681d3c" target="_top" xlink:title=" ">
<polygon fill="white" stroke="black" points="14.5,-137.5 14.5,-167.5 116.5,-167.5 116.5,-137.5 14.5,-137.5"/>
<text text-anchor="start" x="22.5" y="-155.5" font-family="Helvetica,sans-Serif" font-size="10.00">DigitalNoteSender::</text>
<text text-anchor="middle" x="65.5" y="-144.5" font-family="Helvetica,sans-Serif" font-size="10.00">sendOn</text>
</a>
</g>
</g>
<!-- Node12&#45;&gt;Node13 -->
<g id="edge12" class="edge"><title>Node12&#45;&gt;Node13</title>
<path fill="none" stroke="midnightblue" d="M160.55,-156.262C145.617,-155.665 130.428,-155.057 116.737,-154.509"/>
<polygon fill="midnightblue" stroke="midnightblue" points="160.693,-159.77 170.825,-156.673 160.973,-152.776 160.693,-159.77"/>
</g>
<!-- Node15 -->
<g id="node15" class="node"><title>Node15</title>
<g id="a_node15"><a xlink:href="../../de/d46/classPitchBendSender.html#ad351c6a6e015e2a54fa81516ee7eefcf" target="_top" xlink:title=" ">
<polygon fill="white" stroke="black" points="9.5,-88.5 9.5,-118.5 121.5,-118.5 121.5,-88.5 9.5,-88.5"/>
<text text-anchor="start" x="17.5" y="-106.5" font-family="Helvetica,sans-Serif" font-size="10.00">PitchBendSender&lt; 10</text>
<text text-anchor="middle" x="65.5" y="-95.5" font-family="Helvetica,sans-Serif" font-size="10.00"> &gt;::send</text>
</a>
</g>
</g>
<!-- Node14&#45;&gt;Node15 -->
<g id="edge14" class="edge"><title>Node14&#45;&gt;Node15</title>
<path fill="none" stroke="midnightblue" d="M171.129,-107.685C154.624,-107.025 137.272,-106.331 121.548,-105.702"/>
<polygon fill="midnightblue" stroke="midnightblue" points="171.143,-111.188 181.275,-108.091 171.423,-104.194 171.143,-111.188"/>
</g>
<!-- Node17 -->
<g id="node17" class="node"><title>Node17</title>
<g id="a_node17"><a xlink:href="../../de/d43/classProgramChanger.html#a272cadb089ee0c7beebc5e9c496cd7d5" target="_top" xlink:title=" ">
<polygon fill="white" stroke="black" points="4.5,-50 4.5,-69 126.5,-69 126.5,-50 4.5,-50"/>
<text text-anchor="middle" x="65.5" y="-57" font-family="Helvetica,sans-Serif" font-size="10.00">ProgramChanger::select</text>
</a>
</g>
</g>
<!-- Node16&#45;&gt;Node17 -->
<g id="edge16" class="edge"><title>Node16&#45;&gt;Node17</title>
<path fill="none" stroke="midnightblue" d="M170.753,-59.5C156.083,-59.5 140.759,-59.5 126.517,-59.5"/>
<polygon fill="midnightblue" stroke="midnightblue" points="170.785,-63.0001 180.785,-59.5 170.785,-56.0001 170.785,-63.0001"/>
</g>
<!-- Node18 -->
<g id="node18" class="node"><title>Node18</title>
<g id="a_node18"><a xlink:href="../../db/d8b/classProgramChangeSender.html#a5f0a29a1f0bd70bd2c07396bcf9dc48a" target="_top" xlink:title=" ">
<polygon fill="white" stroke="black" points="6.5,-0.5 6.5,-30.5 124.5,-30.5 124.5,-0.5 6.5,-0.5"/>
<text text-anchor="start" x="14.5" y="-18.5" font-family="Helvetica,sans-Serif" font-size="10.00">ProgramChangeSender</text>
<text text-anchor="middle" x="65.5" y="-7.5" font-family="Helvetica,sans-Serif" font-size="10.00">::sendOn</text>
</a>
</g>
</g>
<!-- Node16&#45;&gt;Node18 -->
<g id="edge17" class="edge"><title>Node16&#45;&gt;Node18</title>
<path fill="none" stroke="midnightblue" d="M193.731,-47.4894C172.421,-42.1315 147.119,-35.77 124.714,-30.1366"/>
<polygon fill="midnightblue" stroke="midnightblue" points="192.976,-50.9085 203.528,-49.9527 194.683,-44.1198 192.976,-50.9085"/>
</g>
</g>
</svg>
