<?xml version="1.0" encoding="UTF-8" standalone="no"?>
<!DOCTYPE svg PUBLIC "-//W3C//DTD SVG 1.1//EN"
 "http://www.w3.org/Graphics/SVG/1.1/DTD/svg11.dtd">
<!-- Generated by graphviz version 2.38.0 (20140413.2041)
 -->
<!-- Title: MIDICNChannelAddress::getCableNumber Pages: 1 -->
<svg width="496pt" height="448pt"
 viewBox="0.00 0.00 496.00 448.00" xmlns="http://www.w3.org/2000/svg" xmlns:xlink="http://www.w3.org/1999/xlink">
<g id="graph0" class="graph" transform="scale(1 1) rotate(0) translate(4 444)">
<title>MIDICNChannelAddress::getCableNumber</title>
<polygon fill="white" stroke="none" points="-4,4 -4,-444 492,-444 492,4 -4,4"/>
<!-- Node1 -->
<g id="node1" class="node"><title>Node1</title>
<g id="a_node1"><a xlink:title="Get the cable number [0, 15].">
<polygon fill="#bfbfbf" stroke="black" points="363,-142.5 363,-172.5 488,-172.5 488,-142.5 363,-142.5"/>
<text text-anchor="start" x="371" y="-160.5" font-family="Helvetica,sans-Serif" font-size="10.00">MIDICNChannelAddress</text>
<text text-anchor="middle" x="425.5" y="-149.5" font-family="Helvetica,sans-Serif" font-size="10.00">::getCableNumber</text>
</a>
</g>
</g>
<!-- Node2 -->
<g id="node2" class="node"><title>Node2</title>
<g id="a_node2"><a xlink:href="../../db/d6e/classBankableMIDIInput.html#a239ccb004b25fa96f720406e271ac881" target="_top" xlink:title="Calculate the bank setting of a given MIDI address, relative to a base address.">
<polygon fill="white" stroke="black" points="195,-335.5 195,-365.5 302,-365.5 302,-335.5 195,-335.5"/>
<text text-anchor="start" x="203" y="-353.5" font-family="Helvetica,sans-Serif" font-size="10.00">BankableMIDIInput::</text>
<text text-anchor="middle" x="248.5" y="-342.5" font-family="Helvetica,sans-Serif" font-size="10.00">getIndex</text>
</a>
</g>
</g>
<!-- Node1&#45;&gt;Node2 -->
<g id="edge1" class="edge"><title>Node1&#45;&gt;Node2</title>
<path fill="none" stroke="midnightblue" d="M410.662,-181.671C393.416,-210.536 361.926,-259.322 327,-294.5 311.211,-310.403 290.522,-325.106 274.493,-335.453"/>
<polygon fill="midnightblue" stroke="midnightblue" points="413.89,-183.087 415.949,-172.694 407.858,-179.535 413.89,-183.087"/>
</g>
<!-- Node6 -->
<g id="node6" class="node"><title>Node6</title>
<g id="a_node6"><a xlink:href="../../db/d6e/classBankableMIDIInput.html#aee737e5e10cdda105bc65c0424f71cc0" target="_top" xlink:title="Check whether a given address is part of the bank relative to the base address.">
<polygon fill="white" stroke="black" points="195,-254.5 195,-284.5 302,-284.5 302,-254.5 195,-254.5"/>
<text text-anchor="start" x="203" y="-272.5" font-family="Helvetica,sans-Serif" font-size="10.00">BankableMIDIInput::</text>
<text text-anchor="middle" x="248.5" y="-261.5" font-family="Helvetica,sans-Serif" font-size="10.00">matchBankable</text>
</a>
</g>
</g>
<!-- Node1&#45;&gt;Node6 -->
<g id="edge5" class="edge"><title>Node1&#45;&gt;Node6</title>
<path fill="none" stroke="midnightblue" d="M404.451,-180.065C386.034,-199.564 357.103,-227.252 327,-244.5 319.272,-248.928 310.654,-252.69 302.052,-255.847"/>
<polygon fill="midnightblue" stroke="midnightblue" points="407.212,-182.235 411.44,-172.52 402.077,-177.478 407.212,-182.235"/>
</g>
<!-- Node7 -->
<g id="node7" class="node"><title>Node7</title>
<g id="a_node7"><a xlink:href="../../db/d6e/classBankableMIDIInput.html#a39912b6c8d039c840aa9a1e73e645318" target="_top" xlink:title="Check whether a given address is part of the bank relative to the base address and within a range wit...">
<polygon fill="white" stroke="black" points="170,-205.5 170,-235.5 327,-235.5 327,-205.5 170,-205.5"/>
<text text-anchor="start" x="178" y="-223.5" font-family="Helvetica,sans-Serif" font-size="10.00">BankableMIDIInput::</text>
<text text-anchor="middle" x="248.5" y="-212.5" font-family="Helvetica,sans-Serif" font-size="10.00">matchBankableAddressInRange</text>
</a>
</g>
</g>
<!-- Node1&#45;&gt;Node7 -->
<g id="edge6" class="edge"><title>Node1&#45;&gt;Node7</title>
<path fill="none" stroke="midnightblue" d="M377.546,-176.452C361.581,-182.722 343.584,-189.599 327,-195.5 317.543,-198.865 307.371,-202.286 297.607,-205.474"/>
<polygon fill="midnightblue" stroke="midnightblue" points="379.178,-179.571 387.193,-172.641 376.607,-173.06 379.178,-179.571"/>
</g>
<!-- Node8 -->
<g id="node8" class="node"><title>Node8</title>
<g id="a_node8"><a xlink:href="../../d9/d73/classMIDI__Interface.html#a3549169b2cfd90f2d11a19f551407b12" target="_top" xlink:title=" ">
<polygon fill="white" stroke="black" points="186.5,-167 186.5,-186 310.5,-186 310.5,-167 186.5,-167"/>
<text text-anchor="middle" x="248.5" y="-174" font-family="Helvetica,sans-Serif" font-size="10.00">MIDI_Interface::sendCC</text>
</a>
</g>
</g>
<!-- Node1&#45;&gt;Node8 -->
<g id="edge7" class="edge"><title>Node1&#45;&gt;Node8</title>
<path fill="none" stroke="midnightblue" d="M352.744,-165.291C338.767,-166.808 324.236,-168.386 310.641,-169.862"/>
<polygon fill="midnightblue" stroke="midnightblue" points="353.238,-168.758 362.802,-164.199 352.482,-161.799 353.238,-168.758"/>
</g>
<!-- Node13 -->
<g id="node13" class="node"><title>Node13</title>
<g id="a_node13"><a xlink:href="../../d9/d73/classMIDI__Interface.html#a2c79441f44b904566d237b05b8b3c2fb" target="_top" xlink:title=" ">
<polygon fill="white" stroke="black" points="177,-129 177,-148 320,-148 320,-129 177,-129"/>
<text text-anchor="middle" x="248.5" y="-136" font-family="Helvetica,sans-Serif" font-size="10.00">MIDI_Interface::sendNoteOff</text>
</a>
</g>
</g>
<!-- Node1&#45;&gt;Node13 -->
<g id="edge12" class="edge"><title>Node1&#45;&gt;Node13</title>
<path fill="none" stroke="midnightblue" d="M352.649,-149.699C341.933,-148.536 330.894,-147.337 320.202,-146.176"/>
<polygon fill="midnightblue" stroke="midnightblue" points="352.482,-153.201 362.802,-150.801 353.238,-146.242 352.482,-153.201"/>
</g>
<!-- Node15 -->
<g id="node15" class="node"><title>Node15</title>
<g id="a_node15"><a xlink:href="../../d9/d73/classMIDI__Interface.html#a80c4843f88185a213ebe20a26c0fd579" target="_top" xlink:title=" ">
<polygon fill="white" stroke="black" points="177,-91 177,-110 320,-110 320,-91 177,-91"/>
<text text-anchor="middle" x="248.5" y="-98" font-family="Helvetica,sans-Serif" font-size="10.00">MIDI_Interface::sendNoteOn</text>
</a>
</g>
</g>
<!-- Node1&#45;&gt;Node15 -->
<g id="edge14" class="edge"><title>Node1&#45;&gt;Node15</title>
<path fill="none" stroke="midnightblue" d="M379.869,-138.686C363.419,-132.13 344.522,-125.036 327,-119.5 316.036,-116.036 304.035,-112.821 292.822,-110.057"/>
<polygon fill="midnightblue" stroke="midnightblue" points="378.659,-141.972 389.242,-142.468 381.278,-135.48 378.659,-141.972"/>
</g>
<!-- Node17 -->
<g id="node17" class="node"><title>Node17</title>
<g id="a_node17"><a xlink:href="../../d9/d73/classMIDI__Interface.html#a095f45d6e0780a90e3d4482639196a8f" target="_top" xlink:title=" ">
<polygon fill="white" stroke="black" points="187.5,-53 187.5,-72 309.5,-72 309.5,-53 187.5,-53"/>
<text text-anchor="middle" x="248.5" y="-60" font-family="Helvetica,sans-Serif" font-size="10.00">MIDI_Interface::sendPB</text>
</a>
</g>
</g>
<!-- Node1&#45;&gt;Node17 -->
<g id="edge16" class="edge"><title>Node1&#45;&gt;Node17</title>
<path fill="none" stroke="midnightblue" d="M401.966,-135.382C383.325,-118.276 355.391,-95.2587 327,-81.5 319.021,-77.6335 310.188,-74.5127 301.427,-72.0065"/>
<polygon fill="midnightblue" stroke="midnightblue" points="399.669,-138.026 409.36,-142.307 404.454,-132.916 399.669,-138.026"/>
</g>
<!-- Node19 -->
<g id="node19" class="node"><title>Node19</title>
<g id="a_node19"><a xlink:href="../../d9/d73/classMIDI__Interface.html#a0edc29552233fd53f5412e09a3ae5b71" target="_top" xlink:title=" ">
<polygon fill="white" stroke="black" points="187,-15 187,-34 310,-34 310,-15 187,-15"/>
<text text-anchor="middle" x="248.5" y="-22" font-family="Helvetica,sans-Serif" font-size="10.00">MIDI_Interface::sendPC</text>
</a>
</g>
</g>
<!-- Node1&#45;&gt;Node19 -->
<g id="edge18" class="edge"><title>Node1&#45;&gt;Node19</title>
<path fill="none" stroke="midnightblue" d="M410.586,-133.722C394.02,-107.56 363.899,-66.2164 327,-43.5 320.748,-39.6508 313.762,-36.581 306.616,-34.133"/>
<polygon fill="midnightblue" stroke="midnightblue" points="407.641,-135.613 415.869,-142.287 413.598,-131.938 407.641,-135.613"/>
</g>
<!-- Node3 -->
<g id="node3" class="node"><title>Node3</title>
<g id="a_node3"><a xlink:href="../../d0/d42/classBankable_1_1MIDINote.html#a4769f4ef31bc2d8e1b9f98793d20386f" target="_top" xlink:title="Update the internal state with the new MIDI message.">
<polygon fill="white" stroke="black" points="14,-409.5 14,-439.5 120,-439.5 120,-409.5 14,-409.5"/>
<text text-anchor="start" x="22" y="-427.5" font-family="Helvetica,sans-Serif" font-size="10.00">Bankable::MIDINote</text>
<text text-anchor="middle" x="67" y="-416.5" font-family="Helvetica,sans-Serif" font-size="10.00">::updateImpl</text>
</a>
</g>
</g>
<!-- Node2&#45;&gt;Node3 -->
<g id="edge2" class="edge"><title>Node2&#45;&gt;Node3</title>
<path fill="none" stroke="midnightblue" d="M205.563,-369.767C184.271,-379.347 157.912,-390.898 134,-400.5 126.533,-403.499 118.529,-406.546 110.761,-409.419"/>
<polygon fill="midnightblue" stroke="midnightblue" points="207.292,-372.827 214.962,-365.518 204.408,-366.448 207.292,-372.827"/>
</g>
<!-- Node4 -->
<g id="node4" class="node"><title>Node4</title>
<g id="a_node4"><a xlink:href="../../da/d93/classMCU_1_1Bankable_1_1VPotRing.html#a69a9006a95b273f56fa7e5aaa7da5b90" target="_top" xlink:title="Update the internal state with the new MIDI message.">
<polygon fill="white" stroke="black" points="0,-360.5 0,-390.5 134,-390.5 134,-360.5 0,-360.5"/>
<text text-anchor="start" x="8" y="-378.5" font-family="Helvetica,sans-Serif" font-size="10.00">MCU::Bankable::VPotRing</text>
<text text-anchor="middle" x="67" y="-367.5" font-family="Helvetica,sans-Serif" font-size="10.00">::updateImpl</text>
</a>
</g>
</g>
<!-- Node2&#45;&gt;Node4 -->
<g id="edge3" class="edge"><title>Node2&#45;&gt;Node4</title>
<path fill="none" stroke="midnightblue" d="M184.644,-359.254C168.324,-361.527 150.697,-363.982 134.21,-366.279"/>
<polygon fill="midnightblue" stroke="midnightblue" points="185.193,-362.712 194.615,-357.866 184.228,-355.779 185.193,-362.712"/>
</g>
<!-- Node5 -->
<g id="node5" class="node"><title>Node5</title>
<g id="a_node5"><a xlink:href="../../d0/d43/classMCU_1_1Bankable_1_1VU.html#ae57a47a82c7dc3ed4a8733de43f253ae" target="_top" xlink:title=" ">
<polygon fill="white" stroke="black" points="10.5,-311.5 10.5,-341.5 123.5,-341.5 123.5,-311.5 10.5,-311.5"/>
<text text-anchor="start" x="18.5" y="-329.5" font-family="Helvetica,sans-Serif" font-size="10.00">MCU::Bankable::VU&lt;</text>
<text text-anchor="middle" x="67" y="-318.5" font-family="Helvetica,sans-Serif" font-size="10.00"> M &gt;::updateImpl</text>
</a>
</g>
</g>
<!-- Node2&#45;&gt;Node5 -->
<g id="edge4" class="edge"><title>Node2&#45;&gt;Node5</title>
<path fill="none" stroke="midnightblue" d="M184.447,-342.07C164.626,-339.419 142.894,-336.514 123.627,-333.938"/>
<polygon fill="midnightblue" stroke="midnightblue" points="184.239,-345.573 194.615,-343.429 185.167,-338.635 184.239,-345.573"/>
</g>
<!-- Node9 -->
<g id="node9" class="node"><title>Node9</title>
<g id="a_node9"><a xlink:href="../../da/d07/classContinuousCCSender.html#a3dcde6121fc02f88b5a60a73b7e67ace" target="_top" xlink:title=" ">
<polygon fill="white" stroke="black" points="11,-262.5 11,-292.5 123,-292.5 123,-262.5 11,-262.5"/>
<text text-anchor="start" x="19" y="-280.5" font-family="Helvetica,sans-Serif" font-size="10.00">ContinuousCCSender</text>
<text text-anchor="middle" x="67" y="-269.5" font-family="Helvetica,sans-Serif" font-size="10.00">::send</text>
</a>
</g>
</g>
<!-- Node8&#45;&gt;Node9 -->
<g id="edge8" class="edge"><title>Node8&#45;&gt;Node9</title>
<path fill="none" stroke="midnightblue" d="M178.564,-190.244C175.572,-191.812 172.698,-193.558 170,-195.5 145.683,-213.006 157.208,-233.548 134,-252.5 129.35,-256.297 124.062,-259.557 118.55,-262.346"/>
<polygon fill="midnightblue" stroke="midnightblue" points="180.169,-193.36 187.84,-186.052 177.286,-186.981 180.169,-193.36"/>
</g>
<!-- Node10 -->
<g id="node10" class="node"><title>Node10</title>
<g id="a_node10"><a xlink:href="../../d3/dd0/classRelativeCCSender.html#a7436ec272c39bdbbe698d68a200e56c1" target="_top" xlink:title=" ">
<polygon fill="white" stroke="black" points="4.5,-224 4.5,-243 129.5,-243 129.5,-224 4.5,-224"/>
<text text-anchor="middle" x="67" y="-231" font-family="Helvetica,sans-Serif" font-size="10.00">RelativeCCSender::send</text>
</a>
</g>
</g>
<!-- Node8&#45;&gt;Node10 -->
<g id="edge9" class="edge"><title>Node8&#45;&gt;Node10</title>
<path fill="none" stroke="midnightblue" d="M190.941,-188.645C183.809,-190.678 176.678,-192.963 170,-195.5 153.087,-201.924 150.781,-207.74 134,-214.5 125.152,-218.064 115.389,-221.257 106.146,-223.961"/>
<polygon fill="midnightblue" stroke="midnightblue" points="191.883,-192.016 200.624,-186.03 190.058,-185.259 191.883,-192.016"/>
</g>
<!-- Node11 -->
<g id="node11" class="node"><title>Node11</title>
<g id="a_node11"><a xlink:href="../../d5/db5/classDigitalCCSender.html#ac2147259833611c3f7d023f4bb05b32e" target="_top" xlink:title=" ">
<polygon fill="white" stroke="black" points="1.5,-186 1.5,-205 132.5,-205 132.5,-186 1.5,-186"/>
<text text-anchor="middle" x="67" y="-193" font-family="Helvetica,sans-Serif" font-size="10.00">DigitalCCSender::sendOff</text>
</a>
</g>
</g>
<!-- Node8&#45;&gt;Node11 -->
<g id="edge10" class="edge"><title>Node8&#45;&gt;Node11</title>
<path fill="none" stroke="midnightblue" d="M176.134,-184.054C161.736,-185.578 146.679,-187.172 132.532,-188.669"/>
<polygon fill="midnightblue" stroke="midnightblue" points="176.903,-187.492 186.479,-182.959 176.166,-180.531 176.903,-187.492"/>
</g>
<!-- Node12 -->
<g id="node12" class="node"><title>Node12</title>
<g id="a_node12"><a xlink:href="../../d5/db5/classDigitalCCSender.html#a289dc5bbfa0ad2409834b4be952323fd" target="_top" xlink:title=" ">
<polygon fill="white" stroke="black" points="2,-148 2,-167 132,-167 132,-148 2,-148"/>
<text text-anchor="middle" x="67" y="-155" font-family="Helvetica,sans-Serif" font-size="10.00">DigitalCCSender::sendOn</text>
</a>
</g>
</g>
<!-- Node8&#45;&gt;Node12 -->
<g id="edge11" class="edge"><title>Node8&#45;&gt;Node12</title>
<path fill="none" stroke="midnightblue" d="M176.495,-168.984C161.883,-167.438 146.578,-165.817 132.223,-164.298"/>
<polygon fill="midnightblue" stroke="midnightblue" points="176.166,-172.469 186.479,-170.041 176.903,-165.508 176.166,-172.469"/>
</g>
<!-- Node14 -->
<g id="node14" class="node"><title>Node14</title>
<g id="a_node14"><a xlink:href="../../dc/dd4/classDigitalNoteSender.html#a69fe04157ae8d5e14f09a31c9e0304a0" target="_top" xlink:title=" ">
<polygon fill="white" stroke="black" points="16,-98.5 16,-128.5 118,-128.5 118,-98.5 16,-98.5"/>
<text text-anchor="start" x="24" y="-116.5" font-family="Helvetica,sans-Serif" font-size="10.00">DigitalNoteSender::</text>
<text text-anchor="middle" x="67" y="-105.5" font-family="Helvetica,sans-Serif" font-size="10.00">sendOff</text>
</a>
</g>
</g>
<!-- Node13&#45;&gt;Node14 -->
<g id="edge13" class="edge"><title>Node13&#45;&gt;Node14</title>
<path fill="none" stroke="midnightblue" d="M169.025,-127.57C151.722,-125.16 133.852,-122.672 118.041,-120.469"/>
<polygon fill="midnightblue" stroke="midnightblue" points="168.739,-131.064 179.127,-128.977 169.705,-124.131 168.739,-131.064"/>
</g>
<!-- Node16 -->
<g id="node16" class="node"><title>Node16</title>
<g id="a_node16"><a xlink:href="../../dc/dd4/classDigitalNoteSender.html#af60f52313c3d9ad166bc9327de681d3c" target="_top" xlink:title=" ">
<polygon fill="white" stroke="black" points="16,-49.5 16,-79.5 118,-79.5 118,-49.5 16,-49.5"/>
<text text-anchor="start" x="24" y="-67.5" font-family="Helvetica,sans-Serif" font-size="10.00">DigitalNoteSender::</text>
<text text-anchor="middle" x="67" y="-56.5" font-family="Helvetica,sans-Serif" font-size="10.00">sendOn</text>
</a>
</g>
</g>
<!-- Node15&#45;&gt;Node16 -->
<g id="edge15" class="edge"><title>Node15&#45;&gt;Node16</title>
<path fill="none" stroke="midnightblue" d="M189.846,-88.937C166.731,-84.3012 140.345,-79.0094 118.052,-74.5383"/>
<polygon fill="midnightblue" stroke="midnightblue" points="189.376,-92.4123 199.869,-90.9472 190.752,-85.549 189.376,-92.4123"/>
</g>
<!-- Node18 -->
<g id="node18" class="node"><title>Node18</title>
<g id="a_node18"><a xlink:href="../../de/d46/classPitchBendSender.html#ad351c6a6e015e2a54fa81516ee7eefcf" target="_top" xlink:title=" ">
<polygon fill="white" stroke="black" points="11,-0.5 11,-30.5 123,-30.5 123,-0.5 11,-0.5"/>
<text text-anchor="start" x="19" y="-18.5" font-family="Helvetica,sans-Serif" font-size="10.00">PitchBendSender&lt; 10</text>
<text text-anchor="middle" x="67" y="-7.5" font-family="Helvetica,sans-Serif" font-size="10.00"> &gt;::send</text>
</a>
</g>
</g>
<!-- Node17&#45;&gt;Node18 -->
<g id="edge17" class="edge"><title>Node17&#45;&gt;Node18</title>
<path fill="none" stroke="midnightblue" d="M197.765,-50.5216C188.524,-48.235 178.96,-45.8278 170,-43.5 154.27,-39.4137 137.226,-34.8064 121.656,-30.5267"/>
<polygon fill="midnightblue" stroke="midnightblue" points="197.076,-53.9563 207.622,-52.9459 198.748,-47.1589 197.076,-53.9563"/>
</g>
</g>
</svg>
