<?xml version="1.0" encoding="UTF-8" standalone="no"?>
<!DOCTYPE svg PUBLIC "-//W3C//DTD SVG 1.1//EN"
 "http://www.w3.org/Graphics/SVG/1.1/DTD/svg11.dtd">
<!-- Generated by graphviz version 2.38.0 (20140413.2041)
 -->
<!-- Title: MIDICNChannelAddress::getCableNumber Pages: 1 -->
<svg width="496pt" height="448pt"
 viewBox="0.00 0.00 496.00 448.00" xmlns="http://www.w3.org/2000/svg" xmlns:xlink="http://www.w3.org/1999/xlink">
<g id="graph0" class="graph" transform="scale(1 1) rotate(0) translate(4 444)">
<title>MIDICNChannelAddress::getCableNumber</title>
<polygon fill="white" stroke="none" points="-4,4 -4,-444 492,-444 492,4 -4,4"/>
<!-- Node1 -->
<g id="node1" class="node"><title>Node1</title>
<g id="a_node1"><a xlink:title="Get the cable number [0, 15].">
<polygon fill="#bfbfbf" stroke="black" points="363,-161.5 363,-191.5 488,-191.5 488,-161.5 363,-161.5"/>
<text text-anchor="start" x="371" y="-179.5" font-family="Helvetica,sans-Serif" font-size="10.00">MIDICNChannelAddress</text>
<text text-anchor="middle" x="425.5" y="-168.5" font-family="Helvetica,sans-Serif" font-size="10.00">::getCableNumber</text>
</a>
</g>
</g>
<!-- Node2 -->
<g id="node2" class="node"><title>Node2</title>
<g id="a_node2"><a xlink:href="../../db/d6e/classBankableMIDIInput.html#a239ccb004b25fa96f720406e271ac881" target="_top" xlink:title="Calculate the bank setting of a given MIDI address, relative to a base address.">
<polygon fill="white" stroke="black" points="195,-335.5 195,-365.5 302,-365.5 302,-335.5 195,-335.5"/>
<text text-anchor="start" x="203" y="-353.5" font-family="Helvetica,sans-Serif" font-size="10.00">BankableMIDIInput::</text>
<text text-anchor="middle" x="248.5" y="-342.5" font-family="Helvetica,sans-Serif" font-size="10.00">getIndex</text>
</a>
</g>
</g>
<!-- Node1&#45;&gt;Node2 -->
<g id="edge1" class="edge"><title>Node1&#45;&gt;Node2</title>
<path fill="none" stroke="midnightblue" d="M407.995,-199.856C389.756,-224.799 358.742,-264.752 327,-294.5 310.527,-309.938 289.684,-324.778 273.764,-335.298"/>
<polygon fill="midnightblue" stroke="midnightblue" points="410.869,-201.855 413.893,-191.701 405.197,-197.752 410.869,-201.855"/>
</g>
<!-- Node6 -->
<g id="node6" class="node"><title>Node6</title>
<g id="a_node6"><a xlink:href="../../db/d6e/classBankableMIDIInput.html#aee737e5e10cdda105bc65c0424f71cc0" target="_top" xlink:title="Check whether a given address is part of the bank relative to the base address.">
<polygon fill="white" stroke="black" points="195,-254.5 195,-284.5 302,-284.5 302,-254.5 195,-254.5"/>
<text text-anchor="start" x="203" y="-272.5" font-family="Helvetica,sans-Serif" font-size="10.00">BankableMIDIInput::</text>
<text text-anchor="middle" x="248.5" y="-261.5" font-family="Helvetica,sans-Serif" font-size="10.00">matchBankable</text>
</a>
</g>
</g>
<!-- Node1&#45;&gt;Node6 -->
<g id="edge5" class="edge"><title>Node1&#45;&gt;Node6</title>
<path fill="none" stroke="midnightblue" d="M398.628,-197.746C379.709,-212.459 352.928,-231.637 327,-244.5 319.148,-248.395 310.553,-251.87 302.037,-254.9"/>
<polygon fill="midnightblue" stroke="midnightblue" points="400.804,-200.488 406.482,-191.542 396.465,-194.994 400.804,-200.488"/>
</g>
<!-- Node7 -->
<g id="node7" class="node"><title>Node7</title>
<g id="a_node7"><a xlink:href="../../db/d6e/classBankableMIDIInput.html#a39912b6c8d039c840aa9a1e73e645318" target="_top" xlink:title="Check whether a given address is part of the bank relative to the base address and within a range wit...">
<polygon fill="white" stroke="black" points="170,-205.5 170,-235.5 327,-235.5 327,-205.5 170,-205.5"/>
<text text-anchor="start" x="178" y="-223.5" font-family="Helvetica,sans-Serif" font-size="10.00">BankableMIDIInput::</text>
<text text-anchor="middle" x="248.5" y="-212.5" font-family="Helvetica,sans-Serif" font-size="10.00">matchBankableAddressInRange</text>
</a>
</g>
</g>
<!-- Node1&#45;&gt;Node7 -->
<g id="edge6" class="edge"><title>Node1&#45;&gt;Node7</title>
<path fill="none" stroke="midnightblue" d="M354.956,-193.985C339.835,-197.787 323.966,-201.777 309.263,-205.474"/>
<polygon fill="midnightblue" stroke="midnightblue" points="355.92,-197.352 364.764,-191.519 354.213,-190.563 355.92,-197.352"/>
</g>
<!-- Node8 -->
<g id="node8" class="node"><title>Node8</title>
<g id="a_node8"><a xlink:href="../../d9/d73/classMIDI__Interface.html#a3549169b2cfd90f2d11a19f551407b12" target="_top" xlink:title=" ">
<polygon fill="white" stroke="black" points="186.5,-167 186.5,-186 310.5,-186 310.5,-167 186.5,-167"/>
<text text-anchor="middle" x="248.5" y="-174" font-family="Helvetica,sans-Serif" font-size="10.00">MIDI_Interface::sendCC</text>
</a>
</g>
</g>
<!-- Node1&#45;&gt;Node8 -->
<g id="edge7" class="edge"><title>Node1&#45;&gt;Node8</title>
<path fill="none" stroke="midnightblue" d="M352.744,-176.5C338.767,-176.5 324.236,-176.5 310.641,-176.5"/>
<polygon fill="midnightblue" stroke="midnightblue" points="352.802,-180 362.802,-176.5 352.802,-173 352.802,-180"/>
</g>
<!-- Node13 -->
<g id="node13" class="node"><title>Node13</title>
<g id="a_node13"><a xlink:href="../../d9/d73/classMIDI__Interface.html#a2c79441f44b904566d237b05b8b3c2fb" target="_top" xlink:title=" ">
<polygon fill="white" stroke="black" points="177,-126 177,-145 320,-145 320,-126 177,-126"/>
<text text-anchor="middle" x="248.5" y="-133" font-family="Helvetica,sans-Serif" font-size="10.00">MIDI_Interface::sendNoteOff</text>
</a>
</g>
</g>
<!-- Node1&#45;&gt;Node13 -->
<g id="edge12" class="edge"><title>Node1&#45;&gt;Node13</title>
<path fill="none" stroke="midnightblue" d="M353.063,-159.763C331.621,-154.74 308.846,-149.404 290.131,-145.019"/>
<polygon fill="midnightblue" stroke="midnightblue" points="352.267,-163.171 362.802,-162.045 353.864,-156.356 352.267,-163.171"/>
</g>
<!-- Node15 -->
<g id="node15" class="node"><title>Node15</title>
<g id="a_node15"><a xlink:href="../../d9/d73/classMIDI__Interface.html#a80c4843f88185a213ebe20a26c0fd579" target="_top" xlink:title=" ">
<polygon fill="white" stroke="black" points="177,-81 177,-100 320,-100 320,-81 177,-81"/>
<text text-anchor="middle" x="248.5" y="-88" font-family="Helvetica,sans-Serif" font-size="10.00">MIDI_Interface::sendNoteOn</text>
</a>
</g>
</g>
<!-- Node1&#45;&gt;Node15 -->
<g id="edge14" class="edge"><title>Node1&#45;&gt;Node15</title>
<path fill="none" stroke="midnightblue" d="M394.795,-155.756C375.974,-143.243 350.777,-127.626 327,-116.5 313.118,-110.004 297.155,-104.361 283.338,-100.009"/>
<polygon fill="midnightblue" stroke="midnightblue" points="392.978,-158.751 403.227,-161.436 396.889,-152.946 392.978,-158.751"/>
</g>
<!-- Node17 -->
<g id="node17" class="node"><title>Node17</title>
<g id="a_node17"><a xlink:href="../../d9/d73/classMIDI__Interface.html#a095f45d6e0780a90e3d4482639196a8f" target="_top" xlink:title=" ">
<polygon fill="white" stroke="black" points="187.5,-29 187.5,-48 309.5,-48 309.5,-29 187.5,-29"/>
<text text-anchor="middle" x="248.5" y="-36" font-family="Helvetica,sans-Serif" font-size="10.00">MIDI_Interface::sendPB</text>
</a>
</g>
</g>
<!-- Node1&#45;&gt;Node17 -->
<g id="edge16" class="edge"><title>Node1&#45;&gt;Node17</title>
<path fill="none" stroke="midnightblue" d="M407.555,-153.147C389.697,-129.896 359.668,-94.4533 327,-71.5 312.641,-61.4112 294.715,-53.5297 279.721,-48.0029"/>
<polygon fill="midnightblue" stroke="midnightblue" points="404.97,-155.531 413.784,-161.409 410.559,-151.317 404.97,-155.531"/>
</g>
<!-- Node3 -->
<g id="node3" class="node"><title>Node3</title>
<g id="a_node3"><a xlink:href="../../d0/d42/classBankable_1_1MIDINote.html#a4769f4ef31bc2d8e1b9f98793d20386f" target="_top" xlink:title="Update the internal state with the new MIDI message.">
<polygon fill="white" stroke="black" points="14,-409.5 14,-439.5 120,-439.5 120,-409.5 14,-409.5"/>
<text text-anchor="start" x="22" y="-427.5" font-family="Helvetica,sans-Serif" font-size="10.00">Bankable::MIDINote</text>
<text text-anchor="middle" x="67" y="-416.5" font-family="Helvetica,sans-Serif" font-size="10.00">::updateImpl</text>
</a>
</g>
</g>
<!-- Node2&#45;&gt;Node3 -->
<g id="edge2" class="edge"><title>Node2&#45;&gt;Node3</title>
<path fill="none" stroke="midnightblue" d="M205.563,-369.767C184.271,-379.347 157.912,-390.898 134,-400.5 126.533,-403.499 118.529,-406.546 110.761,-409.419"/>
<polygon fill="midnightblue" stroke="midnightblue" points="207.292,-372.827 214.962,-365.518 204.408,-366.448 207.292,-372.827"/>
</g>
<!-- Node4 -->
<g id="node4" class="node"><title>Node4</title>
<g id="a_node4"><a xlink:href="../../da/d93/classMCU_1_1Bankable_1_1VPotRing.html#a69a9006a95b273f56fa7e5aaa7da5b90" target="_top" xlink:title="Update the internal state with the new MIDI message.">
<polygon fill="white" stroke="black" points="0,-360.5 0,-390.5 134,-390.5 134,-360.5 0,-360.5"/>
<text text-anchor="start" x="8" y="-378.5" font-family="Helvetica,sans-Serif" font-size="10.00">MCU::Bankable::VPotRing</text>
<text text-anchor="middle" x="67" y="-367.5" font-family="Helvetica,sans-Serif" font-size="10.00">::updateImpl</text>
</a>
</g>
</g>
<!-- Node2&#45;&gt;Node4 -->
<g id="edge3" class="edge"><title>Node2&#45;&gt;Node4</title>
<path fill="none" stroke="midnightblue" d="M184.644,-359.254C168.324,-361.527 150.697,-363.982 134.21,-366.279"/>
<polygon fill="midnightblue" stroke="midnightblue" points="185.193,-362.712 194.615,-357.866 184.228,-355.779 185.193,-362.712"/>
</g>
<!-- Node5 -->
<g id="node5" class="node"><title>Node5</title>
<g id="a_node5"><a xlink:href="../../d0/d43/classMCU_1_1Bankable_1_1VU.html#ae57a47a82c7dc3ed4a8733de43f253ae" target="_top" xlink:title=" ">
<polygon fill="white" stroke="black" points="10.5,-311.5 10.5,-341.5 123.5,-341.5 123.5,-311.5 10.5,-311.5"/>
<text text-anchor="start" x="18.5" y="-329.5" font-family="Helvetica,sans-Serif" font-size="10.00">MCU::Bankable::VU&lt;</text>
<text text-anchor="middle" x="67" y="-318.5" font-family="Helvetica,sans-Serif" font-size="10.00"> M &gt;::updateImpl</text>
</a>
</g>
</g>
<!-- Node2&#45;&gt;Node5 -->
<g id="edge4" class="edge"><title>Node2&#45;&gt;Node5</title>
<path fill="none" stroke="midnightblue" d="M184.447,-342.07C164.626,-339.419 142.894,-336.514 123.627,-333.938"/>
<polygon fill="midnightblue" stroke="midnightblue" points="184.239,-345.573 194.615,-343.429 185.167,-338.635 184.239,-345.573"/>
</g>
<!-- Node9 -->
<g id="node9" class="node"><title>Node9</title>
<g id="a_node9"><a xlink:href="../../da/d07/classContinuousCCSender.html#a3dcde6121fc02f88b5a60a73b7e67ace" target="_top" xlink:title=" ">
<polygon fill="white" stroke="black" points="11,-262.5 11,-292.5 123,-292.5 123,-262.5 11,-262.5"/>
<text text-anchor="start" x="19" y="-280.5" font-family="Helvetica,sans-Serif" font-size="10.00">ContinuousCCSender</text>
<text text-anchor="middle" x="67" y="-269.5" font-family="Helvetica,sans-Serif" font-size="10.00">::send</text>
</a>
</g>
</g>
<!-- Node8&#45;&gt;Node9 -->
<g id="edge8" class="edge"><title>Node8&#45;&gt;Node9</title>
<path fill="none" stroke="midnightblue" d="M178.564,-190.244C175.572,-191.812 172.698,-193.558 170,-195.5 145.683,-213.006 157.208,-233.548 134,-252.5 129.35,-256.297 124.062,-259.557 118.55,-262.346"/>
<polygon fill="midnightblue" stroke="midnightblue" points="180.169,-193.36 187.84,-186.052 177.286,-186.981 180.169,-193.36"/>
</g>
<!-- Node10 -->
<g id="node10" class="node"><title>Node10</title>
<g id="a_node10"><a xlink:href="../../d3/dd0/classRelativeCCSender.html#a7436ec272c39bdbbe698d68a200e56c1" target="_top" xlink:title=" ">
<polygon fill="white" stroke="black" points="4.5,-224 4.5,-243 129.5,-243 129.5,-224 4.5,-224"/>
<text text-anchor="middle" x="67" y="-231" font-family="Helvetica,sans-Serif" font-size="10.00">RelativeCCSender::send</text>
</a>
</g>
</g>
<!-- Node8&#45;&gt;Node10 -->
<g id="edge9" class="edge"><title>Node8&#45;&gt;Node10</title>
<path fill="none" stroke="midnightblue" d="M190.941,-188.645C183.809,-190.678 176.678,-192.963 170,-195.5 153.087,-201.924 150.781,-207.74 134,-214.5 125.152,-218.064 115.389,-221.257 106.146,-223.961"/>
<polygon fill="midnightblue" stroke="midnightblue" points="191.883,-192.016 200.624,-186.03 190.058,-185.259 191.883,-192.016"/>
</g>
<!-- Node11 -->
<g id="node11" class="node"><title>Node11</title>
<g id="a_node11"><a xlink:href="../../d5/db5/classDigitalCCSender.html#ac2147259833611c3f7d023f4bb05b32e" target="_top" xlink:title=" ">
<polygon fill="white" stroke="black" points="1.5,-186 1.5,-205 132.5,-205 132.5,-186 1.5,-186"/>
<text text-anchor="middle" x="67" y="-193" font-family="Helvetica,sans-Serif" font-size="10.00">DigitalCCSender::sendOff</text>
</a>
</g>
</g>
<!-- Node8&#45;&gt;Node11 -->
<g id="edge10" class="edge"><title>Node8&#45;&gt;Node11</title>
<path fill="none" stroke="midnightblue" d="M176.134,-184.054C161.736,-185.578 146.679,-187.172 132.532,-188.669"/>
<polygon fill="midnightblue" stroke="midnightblue" points="176.903,-187.492 186.479,-182.959 176.166,-180.531 176.903,-187.492"/>
</g>
<!-- Node12 -->
<g id="node12" class="node"><title>Node12</title>
<g id="a_node12"><a xlink:href="../../d5/db5/classDigitalCCSender.html#a289dc5bbfa0ad2409834b4be952323fd" target="_top" xlink:title=" ">
<polygon fill="white" stroke="black" points="2,-148 2,-167 132,-167 132,-148 2,-148"/>
<text text-anchor="middle" x="67" y="-155" font-family="Helvetica,sans-Serif" font-size="10.00">DigitalCCSender::sendOn</text>
</a>
</g>
</g>
<!-- Node8&#45;&gt;Node12 -->
<g id="edge11" class="edge"><title>Node8&#45;&gt;Node12</title>
<path fill="none" stroke="midnightblue" d="M176.495,-168.984C161.883,-167.438 146.578,-165.817 132.223,-164.298"/>
<polygon fill="midnightblue" stroke="midnightblue" points="176.166,-172.469 186.479,-170.041 176.903,-165.508 176.166,-172.469"/>
</g>
<!-- Node14 -->
<g id="node14" class="node"><title>Node14</title>
<g id="a_node14"><a xlink:href="../../dc/dd4/classDigitalNoteSender.html#a69fe04157ae8d5e14f09a31c9e0304a0" target="_top" xlink:title=" ">
<polygon fill="white" stroke="black" points="16,-98.5 16,-128.5 118,-128.5 118,-98.5 16,-98.5"/>
<text text-anchor="start" x="24" y="-116.5" font-family="Helvetica,sans-Serif" font-size="10.00">DigitalNoteSender::</text>
<text text-anchor="middle" x="67" y="-105.5" font-family="Helvetica,sans-Serif" font-size="10.00">sendOff</text>
</a>
</g>
</g>
<!-- Node13&#45;&gt;Node14 -->
<g id="edge13" class="edge"><title>Node13&#45;&gt;Node14</title>
<path fill="none" stroke="midnightblue" d="M166.605,-125.585C150.09,-123.561 133.172,-121.488 118.116,-119.642"/>
<polygon fill="midnightblue" stroke="midnightblue" points="166.463,-129.094 176.815,-126.837 167.315,-122.146 166.463,-129.094"/>
</g>
<!-- Node16 -->
<g id="node16" class="node"><title>Node16</title>
<g id="a_node16"><a xlink:href="../../dc/dd4/classDigitalNoteSender.html#af60f52313c3d9ad166bc9327de681d3c" target="_top" xlink:title=" ">
<polygon fill="white" stroke="black" points="16,-49.5 16,-79.5 118,-79.5 118,-49.5 16,-49.5"/>
<text text-anchor="start" x="24" y="-67.5" font-family="Helvetica,sans-Serif" font-size="10.00">DigitalNoteSender::</text>
<text text-anchor="middle" x="67" y="-56.5" font-family="Helvetica,sans-Serif" font-size="10.00">sendOn</text>
</a>
</g>
</g>
<!-- Node15&#45;&gt;Node16 -->
<g id="edge15" class="edge"><title>Node15&#45;&gt;Node16</title>
<path fill="none" stroke="midnightblue" d="M171.712,-79.5223C153.59,-76.8974 134.69,-74.1598 118.064,-71.7516"/>
<polygon fill="midnightblue" stroke="midnightblue" points="171.282,-82.9965 181.68,-80.9662 172.285,-76.0688 171.282,-82.9965"/>
</g>
<!-- Node18 -->
<g id="node18" class="node"><title>Node18</title>
<g id="a_node18"><a xlink:href="../../de/d46/classPitchBendSender.html#ad351c6a6e015e2a54fa81516ee7eefcf" target="_top" xlink:title=" ">
<polygon fill="white" stroke="black" points="11,-0.5 11,-30.5 123,-30.5 123,-0.5 11,-0.5"/>
<text text-anchor="start" x="19" y="-18.5" font-family="Helvetica,sans-Serif" font-size="10.00">PitchBendSender&lt; 10</text>
<text text-anchor="middle" x="67" y="-7.5" font-family="Helvetica,sans-Serif" font-size="10.00"> &gt;::send</text>
</a>
</g>
</g>
<!-- Node17&#45;&gt;Node18 -->
<g id="edge17" class="edge"><title>Node17&#45;&gt;Node18</title>
<path fill="none" stroke="midnightblue" d="M176.887,-29.452C159.074,-27.1697 140.207,-24.7522 123.272,-22.5822"/>
<polygon fill="midnightblue" stroke="midnightblue" points="176.866,-32.9779 187.23,-30.7773 177.756,-26.0347 176.866,-32.9779"/>
</g>
</g>
</svg>
