<?xml version="1.0" encoding="UTF-8" standalone="no"?>
<!DOCTYPE svg PUBLIC "-//W3C//DTD SVG 1.1//EN"
 "http://www.w3.org/Graphics/SVG/1.1/DTD/svg11.dtd">
<!-- Generated by graphviz version 2.38.0 (20140413.2041)
 -->
<!-- Title: MCU::VPotRing_Base::sanitizeValue Pages: 1 -->
<svg width="302pt" height="78pt"
 viewBox="0.00 0.00 302.00 77.50" xmlns="http://www.w3.org/2000/svg" xmlns:xlink="http://www.w3.org/1999/xlink">
<g id="graph0" class="graph" transform="scale(1 1) rotate(0) translate(4 73.5)">
<title>MCU::VPotRing_Base::sanitizeValue</title>
<polygon fill="white" stroke="none" points="-4,4 -4,-73.5 298,-73.5 298,4 -4,4"/>
<!-- Node112 -->
<g id="node1" class="node"><title>Node112</title>
<g id="a_node1"><a xlink:title="Make sure that the received value is valid and will not result in array out of bounds conditions.">
<polygon fill="#bfbfbf" stroke="black" points="178,-22.5 178,-52.5 294,-52.5 294,-22.5 178,-22.5"/>
<text text-anchor="start" x="186" y="-40.5" font-family="Helvetica,sans-Serif" font-size="10.00">MCU::VPotRing_Base</text>
<text text-anchor="middle" x="236" y="-29.5" font-family="Helvetica,sans-Serif" font-size="10.00">::sanitizeValue</text>
</a>
</g>
</g>
<!-- Node113 -->
<g id="node2" class="node"><title>Node113</title>
<g id="a_node2"><a xlink:href="../../d5/ddb/classMCU_1_1VPotRing.html#a5e3f3cc104ed67148544e9d323725f4c" target="_top" xlink:title=" ">
<polygon fill="white" stroke="black" points="0,-50 0,-69 142,-69 142,-50 0,-50"/>
<text text-anchor="middle" x="71" y="-57" font-family="Helvetica,sans-Serif" font-size="10.00">MCU::VPotRing::updateImpl</text>
</a>
</g>
</g>
<!-- Node112&#45;&gt;Node113 -->
<g id="edge1" class="edge"><title>Node112&#45;&gt;Node113</title>
<path fill="none" stroke="midnightblue" d="M167.803,-46.5695C159.344,-47.7113 150.672,-48.8816 142.169,-50.0294"/>
<polygon fill="midnightblue" stroke="midnightblue" points="168.549,-50.0007 177.991,-45.1945 167.612,-43.0636 168.549,-50.0007"/>
</g>
<!-- Node114 -->
<g id="node3" class="node"><title>Node114</title>
<g id="a_node3"><a xlink:href="../../da/d93/classMCU_1_1Bankable_1_1VPotRing.html#a5b0faa934f92505e1a85857996ee9a0a" target="_top" xlink:title="Update the internal state with the new MIDI message.">
<polygon fill="white" stroke="black" points="4,-0.5 4,-30.5 138,-30.5 138,-0.5 4,-0.5"/>
<text text-anchor="start" x="12" y="-18.5" font-family="Helvetica,sans-Serif" font-size="10.00">MCU::Bankable::VPotRing</text>
<text text-anchor="middle" x="71" y="-7.5" font-family="Helvetica,sans-Serif" font-size="10.00">::updateImpl</text>
</a>
</g>
</g>
<!-- Node112&#45;&gt;Node114 -->
<g id="edge2" class="edge"><title>Node112&#45;&gt;Node114</title>
<path fill="none" stroke="midnightblue" d="M167.896,-28.443C158.085,-27.1189 147.988,-25.756 138.196,-24.4344"/>
<polygon fill="midnightblue" stroke="midnightblue" points="167.612,-31.9364 177.991,-29.8055 168.549,-24.9993 167.612,-31.9364"/>
</g>
</g>
</svg>
