<?xml version="1.0" encoding="UTF-8" standalone="no"?>
<!DOCTYPE svg PUBLIC "-//W3C//DTD SVG 1.1//EN"
 "http://www.w3.org/Graphics/SVG/1.1/DTD/svg11.dtd">
<!-- Generated by graphviz version 2.38.0 (20140413.2041)
 -->
<!-- Title: USBMIDI_Interface Pages: 1 -->
<svg width="406pt" height="810pt"
 viewBox="0.00 0.00 405.50 810.00" xmlns="http://www.w3.org/2000/svg" xmlns:xlink="http://www.w3.org/1999/xlink">
<g id="graph0" class="graph" transform="scale(1 1) rotate(0) translate(4 806)">
<title>USBMIDI_Interface</title>
<polygon fill="white" stroke="none" points="-4,4 -4,-806 401.5,-806 401.5,4 -4,4"/>
<!-- Node2 -->
<g id="node1" class="node"><title>Node2</title>
<g id="a_node1"><a xlink:title="A class for MIDI interfaces sending MIDI messages over a USB MIDI connection.">
<polygon fill="#bfbfbf" stroke="black" points="102,-0.5 102,-90.5 220,-90.5 220,-0.5 102,-0.5"/>
<text text-anchor="middle" x="161" y="-78.5" font-family="Helvetica,sans-Serif" font-size="10.00">USBMIDI_Interface</text>
<polyline fill="none" stroke="black" points="102,-71.5 220,-71.5 "/>
<text text-anchor="start" x="110" y="-59.5" font-family="Helvetica,sans-Serif" font-size="10.00">&#45; rx_packet</text>
<polyline fill="none" stroke="black" points="102,-52.5 220,-52.5 "/>
<text text-anchor="start" x="110" y="-40.5" font-family="Helvetica,sans-Serif" font-size="10.00">+ USBMIDI_Interface()</text>
<text text-anchor="start" x="110" y="-29.5" font-family="Helvetica,sans-Serif" font-size="10.00">+ read()</text>
<text text-anchor="start" x="110" y="-18.5" font-family="Helvetica,sans-Serif" font-size="10.00">&#45; sendImpl()</text>
<text text-anchor="start" x="110" y="-7.5" font-family="Helvetica,sans-Serif" font-size="10.00">&#45; sendImpl()</text>
</a>
</g>
</g>
<!-- Node3 -->
<g id="node2" class="node"><title>Node3</title>
<g id="a_node2"><a xlink:href="../../d9/d73/classMIDI__Interface.html" target="_top" xlink:title="An abstract class for MIDI interfaces.">
<polygon fill="white" stroke="black" points="155.5,-138.5 155.5,-459.5 276.5,-459.5 276.5,-138.5 155.5,-138.5"/>
<text text-anchor="middle" x="216" y="-447.5" font-family="Helvetica,sans-Serif" font-size="10.00">MIDI_Interface</text>
<polyline fill="none" stroke="black" points="155.5,-440.5 276.5,-440.5 "/>
<text text-anchor="middle" x="216" y="-428.5" font-family="Helvetica,sans-Serif" font-size="10.00"> </text>
<polyline fill="none" stroke="black" points="155.5,-421.5 276.5,-421.5 "/>
<text text-anchor="start" x="163.5" y="-409.5" font-family="Helvetica,sans-Serif" font-size="10.00">+ setCallbacks()</text>
<text text-anchor="start" x="163.5" y="-398.5" font-family="Helvetica,sans-Serif" font-size="10.00">+ ~MIDI_Interface()</text>
<text text-anchor="start" x="163.5" y="-387.5" font-family="Helvetica,sans-Serif" font-size="10.00">+ begin()</text>
<text text-anchor="start" x="163.5" y="-376.5" font-family="Helvetica,sans-Serif" font-size="10.00">+ send()</text>
<text text-anchor="start" x="163.5" y="-365.5" font-family="Helvetica,sans-Serif" font-size="10.00">+ send()</text>
<text text-anchor="start" x="163.5" y="-354.5" font-family="Helvetica,sans-Serif" font-size="10.00">+ sendNoteOn()</text>
<text text-anchor="start" x="163.5" y="-343.5" font-family="Helvetica,sans-Serif" font-size="10.00">+ sendNoteOff()</text>
<text text-anchor="start" x="163.5" y="-332.5" font-family="Helvetica,sans-Serif" font-size="10.00">+ sendCC()</text>
<text text-anchor="start" x="163.5" y="-321.5" font-family="Helvetica,sans-Serif" font-size="10.00">+ sendPB()</text>
<text text-anchor="start" x="163.5" y="-310.5" font-family="Helvetica,sans-Serif" font-size="10.00">+ sendPB()</text>
<text text-anchor="start" x="163.5" y="-299.5" font-family="Helvetica,sans-Serif" font-size="10.00">+ sendPC()</text>
<text text-anchor="start" x="163.5" y="-288.5" font-family="Helvetica,sans-Serif" font-size="10.00">+ update()</text>
<text text-anchor="start" x="163.5" y="-277.5" font-family="Helvetica,sans-Serif" font-size="10.00">+ read()</text>
<text text-anchor="start" x="163.5" y="-266.5" font-family="Helvetica,sans-Serif" font-size="10.00">+ setAsDefault()</text>
<text text-anchor="start" x="163.5" y="-255.5" font-family="Helvetica,sans-Serif" font-size="10.00">+ getChannelMessage()</text>
<text text-anchor="start" x="163.5" y="-244.5" font-family="Helvetica,sans-Serif" font-size="10.00">+ getSysExMessage()</text>
<text text-anchor="start" x="163.5" y="-233.5" font-family="Helvetica,sans-Serif" font-size="10.00">+ getCN()</text>
<text text-anchor="start" x="163.5" y="-222.5" font-family="Helvetica,sans-Serif" font-size="10.00">+ getDefault()</text>
<text text-anchor="start" x="163.5" y="-211.5" font-family="Helvetica,sans-Serif" font-size="10.00"># MIDI_Interface()</text>
<text text-anchor="start" x="163.5" y="-200.5" font-family="Helvetica,sans-Serif" font-size="10.00"># onChannelMessage()</text>
<text text-anchor="start" x="163.5" y="-189.5" font-family="Helvetica,sans-Serif" font-size="10.00"># onSysExMessage()</text>
<text text-anchor="start" x="163.5" y="-178.5" font-family="Helvetica,sans-Serif" font-size="10.00"># onRealtimeMessage()</text>
<text text-anchor="start" x="163.5" y="-167.5" font-family="Helvetica,sans-Serif" font-size="10.00"># dispatchMIDIEvent()</text>
<text text-anchor="start" x="163.5" y="-156.5" font-family="Helvetica,sans-Serif" font-size="10.00">&#45; sendImpl()</text>
<text text-anchor="start" x="163.5" y="-145.5" font-family="Helvetica,sans-Serif" font-size="10.00">&#45; sendImpl()</text>
</a>
</g>
</g>
<!-- Node3&#45;&gt;Node2 -->
<g id="edge1" class="edge"><title>Node3&#45;&gt;Node2</title>
<path fill="none" stroke="midnightblue" d="M178.899,-128.346C175.928,-114.761 173.128,-101.958 170.664,-90.6915"/>
<polygon fill="none" stroke="midnightblue" points="175.534,-129.343 181.09,-138.365 182.372,-127.848 175.534,-129.343"/>
</g>
<!-- Node3&#45;&gt;Node3 -->
<g id="edge5" class="edge"><title>Node3&#45;&gt;Node3</title>
<path fill="none" stroke="#404040" d="M276.562,-331.344C287.141,-327.031 294.5,-316.25 294.5,-299 294.5,-287.949 291.48,-279.553 286.527,-273.812"/>
<polygon fill="none" stroke="#404040" points="286.309,-273.655 279.102,-273.405 276.562,-266.656 283.768,-266.907 286.309,-273.655"/>
<text text-anchor="middle" x="346" y="-296.5" font-family="Helvetica,sans-Serif" font-size="10.00"> &#45;DefaultMIDI_Interface</text>
</g>
<!-- Node4 -->
<g id="node3" class="node"><title>Node4</title>
<g id="a_node3"><a xlink:href="../../df/d0c/classMIDI__Parser.html" target="_top" xlink:title=" ">
<polygon fill="white" stroke="black" points="110.5,-518.5 110.5,-641.5 231.5,-641.5 231.5,-518.5 110.5,-518.5"/>
<text text-anchor="middle" x="171" y="-629.5" font-family="Helvetica,sans-Serif" font-size="10.00">MIDI_Parser</text>
<polyline fill="none" stroke="black" points="110.5,-622.5 231.5,-622.5 "/>
<text text-anchor="middle" x="171" y="-610.5" font-family="Helvetica,sans-Serif" font-size="10.00"> </text>
<polyline fill="none" stroke="black" points="110.5,-603.5 231.5,-603.5 "/>
<text text-anchor="start" x="118.5" y="-591.5" font-family="Helvetica,sans-Serif" font-size="10.00">+ getChannelMessage()</text>
<text text-anchor="start" x="118.5" y="-580.5" font-family="Helvetica,sans-Serif" font-size="10.00">+ getSysEx()</text>
<text text-anchor="start" x="118.5" y="-569.5" font-family="Helvetica,sans-Serif" font-size="10.00">+ getSysExBuffer()</text>
<text text-anchor="start" x="118.5" y="-558.5" font-family="Helvetica,sans-Serif" font-size="10.00">+ getSysExLength()</text>
<text text-anchor="start" x="118.5" y="-547.5" font-family="Helvetica,sans-Serif" font-size="10.00">+ getCN()</text>
<text text-anchor="start" x="118.5" y="-536.5" font-family="Helvetica,sans-Serif" font-size="10.00">+ isStatus()</text>
<text text-anchor="start" x="118.5" y="-525.5" font-family="Helvetica,sans-Serif" font-size="10.00">+ isData()</text>
</a>
</g>
</g>
<!-- Node4&#45;&gt;Node3 -->
<g id="edge2" class="edge"><title>Node4&#45;&gt;Node3</title>
<path fill="none" stroke="#404040" d="M180.764,-518.461C183.063,-504.211 185.626,-488.321 188.292,-471.791"/>
<polygon fill="none" stroke="#404040" points="188.338,-471.503 185.345,-464.943 190.249,-459.656 193.243,-466.217 188.338,-471.503"/>
<text text-anchor="middle" x="204" y="-481" font-family="Helvetica,sans-Serif" font-size="10.00"> &#45;parser</text>
</g>
<!-- Node7 -->
<g id="node6" class="node"><title>Node7</title>
<g id="a_node6"><a xlink:href="../../db/db0/classUSBMIDI__Parser.html" target="_top" xlink:title=" ">
<polygon fill="white" stroke="black" points="38.5,-237.5 38.5,-360.5 137.5,-360.5 137.5,-237.5 38.5,-237.5"/>
<text text-anchor="middle" x="88" y="-348.5" font-family="Helvetica,sans-Serif" font-size="10.00">USBMIDI_Parser</text>
<polyline fill="none" stroke="black" points="38.5,-341.5 137.5,-341.5 "/>
<text text-anchor="start" x="46.5" y="-329.5" font-family="Helvetica,sans-Serif" font-size="10.00"># CN</text>
<polyline fill="none" stroke="black" points="38.5,-322.5 137.5,-322.5 "/>
<text text-anchor="start" x="46.5" y="-310.5" font-family="Helvetica,sans-Serif" font-size="10.00">+ parse()</text>
<text text-anchor="start" x="46.5" y="-299.5" font-family="Helvetica,sans-Serif" font-size="10.00">+ getSysEx()</text>
<text text-anchor="start" x="46.5" y="-288.5" font-family="Helvetica,sans-Serif" font-size="10.00">+ getCN()</text>
<text text-anchor="start" x="46.5" y="-277.5" font-family="Helvetica,sans-Serif" font-size="10.00"># startSysEx()</text>
<text text-anchor="start" x="46.5" y="-266.5" font-family="Helvetica,sans-Serif" font-size="10.00"># endSysEx()</text>
<text text-anchor="start" x="46.5" y="-255.5" font-family="Helvetica,sans-Serif" font-size="10.00"># addSysExByte()</text>
<text text-anchor="start" x="46.5" y="-244.5" font-family="Helvetica,sans-Serif" font-size="10.00"># receivingSysEx()</text>
</a>
</g>
</g>
<!-- Node4&#45;&gt;Node7 -->
<g id="edge7" class="edge"><title>Node4&#45;&gt;Node7</title>
<path fill="none" stroke="midnightblue" d="M150.075,-508.662C136.529,-463.129 119.069,-404.436 106.118,-360.902"/>
<polygon fill="none" stroke="midnightblue" points="146.784,-509.874 152.99,-518.461 153.493,-507.878 146.784,-509.874"/>
</g>
<!-- Node5 -->
<g id="node4" class="node"><title>Node5</title>
<g id="a_node4"><a xlink:href="../../de/df8/structMIDI__message.html" target="_top" xlink:title=" ">
<polygon fill="white" stroke="black" points="129.5,-700.5 129.5,-801.5 212.5,-801.5 212.5,-700.5 129.5,-700.5"/>
<text text-anchor="middle" x="171" y="-789.5" font-family="Helvetica,sans-Serif" font-size="10.00">MIDI_message</text>
<polyline fill="none" stroke="black" points="129.5,-782.5 212.5,-782.5 "/>
<text text-anchor="start" x="137.5" y="-770.5" font-family="Helvetica,sans-Serif" font-size="10.00">+ header</text>
<text text-anchor="start" x="137.5" y="-759.5" font-family="Helvetica,sans-Serif" font-size="10.00">+ data1</text>
<text text-anchor="start" x="137.5" y="-748.5" font-family="Helvetica,sans-Serif" font-size="10.00">+ data2</text>
<text text-anchor="start" x="137.5" y="-737.5" font-family="Helvetica,sans-Serif" font-size="10.00">+ CN</text>
<polyline fill="none" stroke="black" points="129.5,-730.5 212.5,-730.5 "/>
<text text-anchor="start" x="137.5" y="-718.5" font-family="Helvetica,sans-Serif" font-size="10.00">+ operator==()</text>
<text text-anchor="start" x="137.5" y="-707.5" font-family="Helvetica,sans-Serif" font-size="10.00">+ operator!=()</text>
</a>
</g>
</g>
<!-- Node5&#45;&gt;Node4 -->
<g id="edge3" class="edge"><title>Node5&#45;&gt;Node4</title>
<path fill="none" stroke="#404040" d="M171,-700.208C171,-685.765 171,-669.684 171,-654.127"/>
<polygon fill="none" stroke="#404040" points="171,-653.804 167,-647.804 171,-641.804 175,-647.804 171,-653.804"/>
<text text-anchor="middle" x="194" y="-674" font-family="Helvetica,sans-Serif" font-size="10.00"> #midimsg</text>
</g>
<!-- Node6 -->
<g id="node5" class="node"><title>Node6</title>
<g id="a_node5"><a xlink:href="../../de/d55/classMIDI__Callbacks.html" target="_top" xlink:title="A class for callbacks from MIDI input.">
<polygon fill="white" stroke="black" points="250,-535 250,-625 368,-625 368,-535 250,-535"/>
<text text-anchor="middle" x="309" y="-613" font-family="Helvetica,sans-Serif" font-size="10.00">MIDI_Callbacks</text>
<polyline fill="none" stroke="black" points="250,-606 368,-606 "/>
<text text-anchor="middle" x="309" y="-594" font-family="Helvetica,sans-Serif" font-size="10.00"> </text>
<polyline fill="none" stroke="black" points="250,-587 368,-587 "/>
<text text-anchor="start" x="258" y="-575" font-family="Helvetica,sans-Serif" font-size="10.00">+ ~MIDI_Callbacks()</text>
<text text-anchor="start" x="258" y="-564" font-family="Helvetica,sans-Serif" font-size="10.00">&#45; onChannelMessage()</text>
<text text-anchor="start" x="258" y="-553" font-family="Helvetica,sans-Serif" font-size="10.00">&#45; onSysExMessage()</text>
<text text-anchor="start" x="258" y="-542" font-family="Helvetica,sans-Serif" font-size="10.00">&#45; onRealtimeMessage()</text>
</a>
</g>
</g>
<!-- Node6&#45;&gt;Node3 -->
<g id="edge4" class="edge"><title>Node6&#45;&gt;Node3</title>
<path fill="none" stroke="#404040" d="M294.264,-534.792C288.256,-516.767 280.893,-494.678 273.11,-471.331"/>
<polygon fill="none" stroke="#404040" points="273.055,-471.166 267.363,-466.739 269.261,-459.782 274.953,-464.209 273.055,-471.166"/>
<text text-anchor="middle" x="303" y="-481" font-family="Helvetica,sans-Serif" font-size="10.00"> &#45;callbacks</text>
</g>
<!-- Node7&#45;&gt;Node2 -->
<g id="edge6" class="edge"><title>Node7&#45;&gt;Node2</title>
<path fill="none" stroke="#404040" d="M102.552,-237.15C111.842,-199.9 124.622,-151.403 138,-109 138.704,-106.767 139.441,-104.497 140.201,-102.208"/>
<polygon fill="none" stroke="#404040" points="140.252,-102.059 138.416,-95.0856 144.147,-90.7088 145.983,-97.6823 140.252,-102.059"/>
<text text-anchor="middle" x="155" y="-112" font-family="Helvetica,sans-Serif" font-size="10.00"> &#45;parser</text>
</g>
<!-- Node8 -->
<g id="node7" class="node"><title>Node8</title>
<g id="a_node7"><a xlink:href="../../d1/db1/classSysExBuffer.html" target="_top" xlink:title=" ">
<polygon fill="white" stroke="black" points="0,-507.5 0,-652.5 92,-652.5 92,-507.5 0,-507.5"/>
<text text-anchor="middle" x="46" y="-640.5" font-family="Helvetica,sans-Serif" font-size="10.00">SysExBuffer</text>
<polyline fill="none" stroke="black" points="0,-633.5 92,-633.5 "/>
<text text-anchor="start" x="8" y="-621.5" font-family="Helvetica,sans-Serif" font-size="10.00">&#45; SysExBuffer</text>
<text text-anchor="start" x="8" y="-610.5" font-family="Helvetica,sans-Serif" font-size="10.00">&#45; SysExLength</text>
<text text-anchor="start" x="8" y="-599.5" font-family="Helvetica,sans-Serif" font-size="10.00">&#45; receiving</text>
<polyline fill="none" stroke="black" points="0,-592.5 92,-592.5 "/>
<text text-anchor="start" x="8" y="-580.5" font-family="Helvetica,sans-Serif" font-size="10.00">+ start()</text>
<text text-anchor="start" x="8" y="-569.5" font-family="Helvetica,sans-Serif" font-size="10.00">+ end()</text>
<text text-anchor="start" x="8" y="-558.5" font-family="Helvetica,sans-Serif" font-size="10.00">+ add()</text>
<text text-anchor="start" x="8" y="-547.5" font-family="Helvetica,sans-Serif" font-size="10.00">+ hasSpaceLeft()</text>
<text text-anchor="start" x="8" y="-536.5" font-family="Helvetica,sans-Serif" font-size="10.00">+ isReceiving()</text>
<text text-anchor="start" x="8" y="-525.5" font-family="Helvetica,sans-Serif" font-size="10.00">+ getBuffer()</text>
<text text-anchor="start" x="8" y="-514.5" font-family="Helvetica,sans-Serif" font-size="10.00">+ getLength()</text>
</a>
</g>
</g>
<!-- Node8&#45;&gt;Node7 -->
<g id="edge8" class="edge"><title>Node8&#45;&gt;Node7</title>
<path fill="none" stroke="#404040" d="M50.6882,-507.442C51.6229,-497.534 52.7203,-487.501 54,-478 58.6923,-443.164 65.7649,-404.831 72.2465,-372.688"/>
<polygon fill="none" stroke="#404040" points="72.295,-372.45 69.576,-365.771 74.6954,-360.693 77.4144,-367.372 72.295,-372.45"/>
<text text-anchor="middle" x="85.5" y="-481" font-family="Helvetica,sans-Serif" font-size="10.00"> &#45;sysexbuffers</text>
</g>
</g>
</svg>
