<?xml version="1.0" encoding="UTF-8" standalone="no"?>
<!DOCTYPE svg PUBLIC "-//W3C//DTD SVG 1.1//EN"
 "http://www.w3.org/Graphics/SVG/1.1/DTD/svg11.dtd">
<!-- Generated by graphviz version 2.38.0 (20140413.2041)
 -->
<!-- Title: DigitalCCSender.hpp Pages: 1 -->
<svg width="967pt" height="498pt"
 viewBox="0.00 0.00 967.00 498.00" xmlns="http://www.w3.org/2000/svg" xmlns:xlink="http://www.w3.org/1999/xlink">
<g id="graph0" class="graph" transform="scale(1 1) rotate(0) translate(4 494)">
<title>DigitalCCSender.hpp</title>
<polygon fill="white" stroke="none" points="-4,4 -4,-494 963,-494 963,4 -4,4"/>
<!-- Node0 -->
<g id="node1" class="node"><title>Node0</title>
<g id="a_node1"><a xlink:title=" ">
<polygon fill="#bfbfbf" stroke="black" points="715,-470.5 715,-489.5 824,-489.5 824,-470.5 715,-470.5"/>
<text text-anchor="middle" x="769.5" y="-477.5" font-family="Helvetica,sans-Serif" font-size="10.00">DigitalCCSender.hpp</text>
</a>
</g>
</g>
<!-- Node1 -->
<g id="node2" class="node"><title>Node1</title>
<g id="a_node2"><a xlink:href="../../d3/d37/Control__Surface__Class_8hpp.html" target="_top" xlink:title=" ">
<polygon fill="white" stroke="black" points="708.5,-403.5 708.5,-433.5 830.5,-433.5 830.5,-403.5 708.5,-403.5"/>
<text text-anchor="start" x="716.5" y="-421.5" font-family="Helvetica,sans-Serif" font-size="10.00">Control_Surface/Control</text>
<text text-anchor="middle" x="769.5" y="-410.5" font-family="Helvetica,sans-Serif" font-size="10.00">_Surface_Class.hpp</text>
</a>
</g>
</g>
<!-- Node0&#45;&gt;Node1 -->
<g id="edge1" class="edge"><title>Node0&#45;&gt;Node1</title>
<path fill="none" stroke="midnightblue" d="M769.5,-470.475C769.5,-463.471 769.5,-453.192 769.5,-443.696"/>
<polygon fill="midnightblue" stroke="midnightblue" points="773,-443.523 769.5,-433.523 766,-443.523 773,-443.523"/>
</g>
<!-- Node2 -->
<g id="node3" class="node"><title>Node2</title>
<g id="a_node3"><a xlink:href="../../d6/d04/MIDI__Interface_8hpp.html" target="_top" xlink:title=" ">
<polygon fill="white" stroke="black" points="272.5,-336.5 272.5,-366.5 384.5,-366.5 384.5,-336.5 272.5,-336.5"/>
<text text-anchor="start" x="280.5" y="-354.5" font-family="Helvetica,sans-Serif" font-size="10.00">MIDI_Interfaces/MIDI</text>
<text text-anchor="middle" x="328.5" y="-343.5" font-family="Helvetica,sans-Serif" font-size="10.00">_Interface.hpp</text>
</a>
</g>
</g>
<!-- Node1&#45;&gt;Node2 -->
<g id="edge2" class="edge"><title>Node1&#45;&gt;Node2</title>
<path fill="none" stroke="midnightblue" d="M708.181,-408.462C625.739,-396.311 479.73,-374.79 394.811,-362.274"/>
<polygon fill="midnightblue" stroke="midnightblue" points="395.169,-358.789 384.766,-360.793 394.149,-365.714 395.169,-358.789"/>
</g>
<!-- Node18 -->
<g id="node19" class="node"><title>Node18</title>
<g id="a_node19"><a xlink:href="../../d6/dd2/DisplayElement_8hpp.html" target="_top" xlink:title=" ">
<polygon fill="white" stroke="black" points="650.5,-342 650.5,-361 790.5,-361 790.5,-342 650.5,-342"/>
<text text-anchor="middle" x="720.5" y="-349" font-family="Helvetica,sans-Serif" font-size="10.00">Display/DisplayElement.hpp</text>
</a>
</g>
</g>
<!-- Node1&#45;&gt;Node18 -->
<g id="edge25" class="edge"><title>Node1&#45;&gt;Node18</title>
<path fill="none" stroke="midnightblue" d="M758.868,-403.396C751.303,-393.361 741.109,-379.838 733.13,-369.253"/>
<polygon fill="midnightblue" stroke="midnightblue" points="735.869,-367.073 727.054,-361.195 730.279,-371.287 735.869,-367.073"/>
</g>
<!-- Node19 -->
<g id="node20" class="node"><title>Node19</title>
<g id="a_node20"><a xlink:href="../../dc/d77/DisplayInterface_8hpp.html" target="_top" xlink:title=" ">
<polygon fill="white" stroke="black" points="747,-280.5 747,-299.5 890,-299.5 890,-280.5 747,-280.5"/>
<text text-anchor="middle" x="818.5" y="-287.5" font-family="Helvetica,sans-Serif" font-size="10.00">Display/DisplayInterface.hpp</text>
</a>
</g>
</g>
<!-- Node1&#45;&gt;Node19 -->
<g id="edge34" class="edge"><title>Node1&#45;&gt;Node19</title>
<path fill="none" stroke="midnightblue" d="M779.331,-403.498C785.844,-393.671 794.143,-380.013 799.5,-367 807.249,-348.176 812.431,-325.385 815.4,-309.7"/>
<polygon fill="midnightblue" stroke="midnightblue" points="818.875,-310.15 817.175,-299.693 811.982,-308.927 818.875,-310.15"/>
</g>
<!-- Node23 -->
<g id="node24" class="node"><title>Node23</title>
<g id="a_node24"><a xlink:href="../../d7/d74/MillisTimer_8hpp.html" target="_top" xlink:title=" ">
<polygon fill="white" stroke="black" points="840,-112.5 840,-131.5 959,-131.5 959,-112.5 840,-112.5"/>
<text text-anchor="middle" x="899.5" y="-119.5" font-family="Helvetica,sans-Serif" font-size="10.00">Helpers/MillisTimer.hpp</text>
</a>
</g>
</g>
<!-- Node1&#45;&gt;Node23 -->
<g id="edge35" class="edge"><title>Node1&#45;&gt;Node23</title>
<path fill="none" stroke="midnightblue" d="M810.092,-403.385C854.515,-385.043 919.5,-348.401 919.5,-291 919.5,-291 919.5,-291 919.5,-233 919.5,-200.438 910.912,-163.315 904.991,-141.592"/>
<polygon fill="midnightblue" stroke="midnightblue" points="908.293,-140.408 902.197,-131.742 901.558,-142.317 908.293,-140.408"/>
</g>
<!-- Node3 -->
<g id="node4" class="node"><title>Node3</title>
<g id="a_node4"><a xlink:href="../../d0/d4e/Def_8hpp.html" target="_top" xlink:title=" ">
<polygon fill="white" stroke="black" points="208.5,-112.5 208.5,-131.5 278.5,-131.5 278.5,-112.5 208.5,-112.5"/>
<text text-anchor="middle" x="243.5" y="-119.5" font-family="Helvetica,sans-Serif" font-size="10.00">Def/Def.hpp</text>
</a>
</g>
</g>
<!-- Node2&#45;&gt;Node3 -->
<g id="edge3" class="edge"><title>Node2&#45;&gt;Node3</title>
<path fill="none" stroke="midnightblue" d="M313.095,-336.23C286.05,-309.999 230.963,-251.004 210.5,-188 204.856,-170.622 216.074,-152.171 226.93,-139.385"/>
<polygon fill="midnightblue" stroke="midnightblue" points="229.645,-141.602 233.83,-131.869 224.489,-136.868 229.645,-141.602"/>
</g>
<!-- Node9 -->
<g id="node10" class="node"><title>Node9</title>
<g id="a_node10"><a xlink:href="../../d8/d38/MIDICNChannelAddress_8hpp.html" target="_top" xlink:title=" ">
<polygon fill="white" stroke="black" points="0,-280.5 0,-299.5 163,-299.5 163,-280.5 0,-280.5"/>
<text text-anchor="middle" x="81.5" y="-287.5" font-family="Helvetica,sans-Serif" font-size="10.00">Def/MIDICNChannelAddress.hpp</text>
</a>
</g>
</g>
<!-- Node2&#45;&gt;Node9 -->
<g id="edge11" class="edge"><title>Node2&#45;&gt;Node9</title>
<path fill="none" stroke="midnightblue" d="M272.452,-336.999C228.402,-326.387 167.837,-311.798 126.816,-301.916"/>
<polygon fill="midnightblue" stroke="midnightblue" points="127.63,-298.512 117.088,-299.573 125.991,-305.318 127.63,-298.512"/>
</g>
<!-- Node10 -->
<g id="node11" class="node"><title>Node10</title>
<g id="a_node11"><a xlink:href="../../d7/d2d/MIDI__Parser_8hpp.html" target="_top" xlink:title=" ">
<polygon fill="white" stroke="black" points="387,-280.5 387,-299.5 542,-299.5 542,-280.5 387,-280.5"/>
<text text-anchor="middle" x="464.5" y="-287.5" font-family="Helvetica,sans-Serif" font-size="10.00">MIDI_Parsers/MIDI_Parser.hpp</text>
</a>
</g>
</g>
<!-- Node2&#45;&gt;Node10 -->
<g id="edge13" class="edge"><title>Node2&#45;&gt;Node10</title>
<path fill="none" stroke="midnightblue" d="M360.73,-336.399C383.345,-326.505 413.338,-313.383 435.261,-303.792"/>
<polygon fill="midnightblue" stroke="midnightblue" points="436.952,-306.873 444.711,-299.658 434.146,-300.459 436.952,-306.873"/>
</g>
<!-- Node4 -->
<g id="node5" class="node"><title>Node4</title>
<g id="a_node5"><a xlink:href="../../d7/d42/Channel_8hpp.html" target="_top" xlink:title=" ">
<polygon fill="white" stroke="black" points="45,-56.5 45,-75.5 116,-75.5 116,-56.5 45,-56.5"/>
<text text-anchor="middle" x="80.5" y="-63.5" font-family="Helvetica,sans-Serif" font-size="10.00">Channel.hpp</text>
</a>
</g>
</g>
<!-- Node3&#45;&gt;Node4 -->
<g id="edge4" class="edge"><title>Node3&#45;&gt;Node4</title>
<path fill="none" stroke="midnightblue" d="M217.672,-112.444C190.251,-103.359 146.723,-88.9388 116.068,-78.7831"/>
<polygon fill="midnightblue" stroke="midnightblue" points="116.8,-75.3389 106.207,-75.5164 114.599,-81.9837 116.8,-75.3389"/>
</g>
<!-- Node5 -->
<g id="node6" class="node"><title>Node5</title>
<g id="a_node6"><a xlink:title=" ">
<polygon fill="white" stroke="#bfbfbf" points="219,-0.5 219,-19.5 268,-19.5 268,-0.5 219,-0.5"/>
<text text-anchor="middle" x="243.5" y="-7.5" font-family="Helvetica,sans-Serif" font-size="10.00">stdint.h</text>
</a>
</g>
</g>
<!-- Node3&#45;&gt;Node5 -->
<g id="edge10" class="edge"><title>Node3&#45;&gt;Node5</title>
<path fill="none" stroke="midnightblue" d="M243.5,-112.368C243.5,-94.617 243.5,-53.6664 243.5,-29.5974"/>
<polygon fill="midnightblue" stroke="midnightblue" points="247,-29.5914 243.5,-19.5914 240,-29.5915 247,-29.5914"/>
</g>
<!-- Node6 -->
<g id="node7" class="node"><title>Node6</title>
<g id="a_node7"><a xlink:href="../../dc/d50/Frequency_8hpp.html" target="_top" xlink:title=" ">
<polygon fill="white" stroke="black" points="134,-56.5 134,-75.5 215,-75.5 215,-56.5 134,-56.5"/>
<text text-anchor="middle" x="174.5" y="-63.5" font-family="Helvetica,sans-Serif" font-size="10.00">Frequency.hpp</text>
</a>
</g>
</g>
<!-- Node3&#45;&gt;Node6 -->
<g id="edge6" class="edge"><title>Node3&#45;&gt;Node6</title>
<path fill="none" stroke="midnightblue" d="M232.414,-112.324C222.014,-104.185 206.239,-91.8395 193.778,-82.0874"/>
<polygon fill="midnightblue" stroke="midnightblue" points="195.82,-79.2407 185.788,-75.8339 191.506,-84.7533 195.82,-79.2407"/>
</g>
<!-- Node7 -->
<g id="node8" class="node"><title>Node7</title>
<g id="a_node8"><a xlink:href="../../de/d76/Array_8hpp.html" target="_top" xlink:title=" ">
<polygon fill="white" stroke="black" points="348,-56.5 348,-75.5 443,-75.5 443,-56.5 348,-56.5"/>
<text text-anchor="middle" x="395.5" y="-63.5" font-family="Helvetica,sans-Serif" font-size="10.00">Helpers/Array.hpp</text>
</a>
</g>
</g>
<!-- Node3&#45;&gt;Node7 -->
<g id="edge7" class="edge"><title>Node3&#45;&gt;Node7</title>
<path fill="none" stroke="midnightblue" d="M267.585,-112.444C293.045,-103.399 333.394,-89.064 361.959,-78.9158"/>
<polygon fill="midnightblue" stroke="midnightblue" points="363.277,-82.1622 371.528,-75.5164 360.933,-75.5661 363.277,-82.1622"/>
</g>
<!-- Node8 -->
<g id="node9" class="node"><title>Node8</title>
<g id="a_node9"><a xlink:title=" ">
<polygon fill="white" stroke="#bfbfbf" points="369.5,-0.5 369.5,-19.5 421.5,-19.5 421.5,-0.5 369.5,-0.5"/>
<text text-anchor="middle" x="395.5" y="-7.5" font-family="Helvetica,sans-Serif" font-size="10.00">stddef.h</text>
</a>
</g>
</g>
<!-- Node3&#45;&gt;Node8 -->
<g id="edge9" class="edge"><title>Node3&#45;&gt;Node8</title>
<path fill="none" stroke="midnightblue" d="M255.427,-112.368C281.399,-93.5728 343.311,-48.7684 375.418,-25.5334"/>
<polygon fill="midnightblue" stroke="midnightblue" points="377.579,-28.2896 383.628,-19.5914 373.475,-22.6187 377.579,-28.2896"/>
</g>
<!-- Node4&#45;&gt;Node5 -->
<g id="edge5" class="edge"><title>Node4&#45;&gt;Node5</title>
<path fill="none" stroke="midnightblue" d="M106.328,-56.4435C134.072,-47.2522 178.304,-32.5987 209.009,-22.4265"/>
<polygon fill="midnightblue" stroke="midnightblue" points="210.468,-25.6302 218.86,-19.1629 208.267,-18.9854 210.468,-25.6302"/>
</g>
<!-- Node7&#45;&gt;Node8 -->
<g id="edge8" class="edge"><title>Node7&#45;&gt;Node8</title>
<path fill="none" stroke="midnightblue" d="M395.5,-56.083C395.5,-49.0059 395.5,-38.8611 395.5,-29.9865"/>
<polygon fill="midnightblue" stroke="midnightblue" points="399,-29.751 395.5,-19.7511 392,-29.7511 399,-29.751"/>
</g>
<!-- Node9&#45;&gt;Node3 -->
<g id="edge12" class="edge"><title>Node9&#45;&gt;Node3</title>
<path fill="none" stroke="midnightblue" d="M87.0154,-280.356C100.632,-259.436 137.643,-205.076 177.5,-168 190.165,-156.219 206.156,-145.236 219.225,-137.069"/>
<polygon fill="midnightblue" stroke="midnightblue" points="221.411,-139.836 228.136,-131.65 217.774,-133.856 221.411,-139.836"/>
</g>
<!-- Node10&#45;&gt;Node5 -->
<g id="edge15" class="edge"><title>Node10&#45;&gt;Node5</title>
<path fill="none" stroke="midnightblue" d="M433.037,-280.482C390.391,-266.804 319.5,-235.56 319.5,-179 319.5,-179 319.5,-179 319.5,-121 319.5,-81.2757 285.536,-45.5045 263.018,-26.1536"/>
<polygon fill="midnightblue" stroke="midnightblue" points="264.982,-23.2364 255.043,-19.5672 260.524,-28.6337 264.982,-23.2364"/>
</g>
<!-- Node10&#45;&gt;Node8 -->
<g id="edge14" class="edge"><title>Node10&#45;&gt;Node8</title>
<path fill="none" stroke="midnightblue" d="M499.016,-280.438C555.549,-264.549 658.644,-226.681 627.5,-168 585.753,-89.3417 485.039,-42.8857 431.066,-22.8068"/>
<polygon fill="midnightblue" stroke="midnightblue" points="432.151,-19.4774 421.557,-19.3628 429.767,-26.059 432.151,-19.4774"/>
</g>
<!-- Node11 -->
<g id="node12" class="node"><title>Node11</title>
<g id="a_node12"><a xlink:title=" ">
<polygon fill="white" stroke="#bfbfbf" points="675.5,-168.5 675.5,-187.5 723.5,-187.5 723.5,-168.5 675.5,-168.5"/>
<text text-anchor="middle" x="699.5" y="-175.5" font-family="Helvetica,sans-Serif" font-size="10.00">stdlib.h</text>
</a>
</g>
</g>
<!-- Node10&#45;&gt;Node11 -->
<g id="edge16" class="edge"><title>Node10&#45;&gt;Node11</title>
<path fill="none" stroke="midnightblue" d="M513.539,-280.425C545.55,-273.531 587.545,-261.978 621.5,-244 645.686,-231.195 669.223,-210.015 684.004,-195.328"/>
<polygon fill="midnightblue" stroke="midnightblue" points="686.757,-197.52 691.263,-187.931 681.761,-192.617 686.757,-197.52"/>
</g>
<!-- Node12 -->
<g id="node13" class="node"><title>Node12</title>
<g id="a_node13"><a xlink:href="../../d2/dd5/SettingsWrapper_8hpp.html" target="_top" xlink:title=" ">
<polygon fill="white" stroke="black" points="391,-224.5 391,-243.5 538,-243.5 538,-224.5 391,-224.5"/>
<text text-anchor="middle" x="464.5" y="-231.5" font-family="Helvetica,sans-Serif" font-size="10.00">Settings/SettingsWrapper.hpp</text>
</a>
</g>
</g>
<!-- Node10&#45;&gt;Node12 -->
<g id="edge17" class="edge"><title>Node10&#45;&gt;Node12</title>
<path fill="none" stroke="midnightblue" d="M464.5,-280.083C464.5,-273.006 464.5,-262.861 464.5,-253.986"/>
<polygon fill="midnightblue" stroke="midnightblue" points="468,-253.751 464.5,-243.751 461,-253.751 468,-253.751"/>
</g>
<!-- Node13 -->
<g id="node14" class="node"><title>Node13</title>
<g id="a_node14"><a xlink:href="../../db/d02/Settings_8hpp.html" target="_top" xlink:title="All user settings and debugging options can be changed here.">
<polygon fill="white" stroke="black" points="220,-168.5 220,-187.5 291,-187.5 291,-168.5 220,-168.5"/>
<text text-anchor="middle" x="255.5" y="-175.5" font-family="Helvetica,sans-Serif" font-size="10.00">Settings.hpp</text>
</a>
</g>
</g>
<!-- Node12&#45;&gt;Node13 -->
<g id="edge18" class="edge"><title>Node12&#45;&gt;Node13</title>
<path fill="none" stroke="midnightblue" d="M431.383,-224.444C395.382,-215.142 337.73,-200.246 298.314,-190.062"/>
<polygon fill="midnightblue" stroke="midnightblue" points="299.019,-186.629 288.462,-187.516 297.268,-193.407 299.019,-186.629"/>
</g>
<!-- Node14 -->
<g id="node15" class="node"><title>Node14</title>
<g id="a_node15"><a xlink:href="../../d9/d98/TeensyUSBTypes_8hpp.html" target="_top" xlink:title=" ">
<polygon fill="white" stroke="black" points="347.5,-168.5 347.5,-187.5 499.5,-187.5 499.5,-168.5 347.5,-168.5"/>
<text text-anchor="middle" x="423.5" y="-175.5" font-family="Helvetica,sans-Serif" font-size="10.00">Helpers/TeensyUSBTypes.hpp</text>
</a>
</g>
</g>
<!-- Node12&#45;&gt;Node14 -->
<g id="edge20" class="edge"><title>Node12&#45;&gt;Node14</title>
<path fill="none" stroke="midnightblue" d="M457.73,-224.083C451.938,-216.455 443.442,-205.264 436.362,-195.941"/>
<polygon fill="midnightblue" stroke="midnightblue" points="438.979,-193.599 430.144,-187.751 433.404,-197.832 438.979,-193.599"/>
</g>
<!-- Node15 -->
<g id="node16" class="node"><title>Node15</title>
<g id="a_node16"><a xlink:href="../../df/dee/Debug_8hpp.html" target="_top" xlink:title=" ">
<polygon fill="white" stroke="black" points="518,-168.5 518,-187.5 619,-187.5 619,-168.5 518,-168.5"/>
<text text-anchor="middle" x="568.5" y="-175.5" font-family="Helvetica,sans-Serif" font-size="10.00">Helpers/Debug.hpp</text>
</a>
</g>
</g>
<!-- Node12&#45;&gt;Node15 -->
<g id="edge21" class="edge"><title>Node12&#45;&gt;Node15</title>
<path fill="none" stroke="midnightblue" d="M476.095,-224.324C491.033,-215.585 516.951,-201.998 537.641,-191.977"/>
<polygon fill="midnightblue" stroke="midnightblue" points="539.197,-195.113 546.722,-187.655 536.188,-188.793 539.197,-195.113"/>
</g>
<!-- Node13&#45;&gt;Node3 -->
<g id="edge19" class="edge"><title>Node13&#45;&gt;Node3</title>
<path fill="none" stroke="midnightblue" d="M253.518,-168.083C251.928,-160.927 249.641,-150.635 247.654,-141.691"/>
<polygon fill="midnightblue" stroke="midnightblue" points="251.031,-140.754 245.445,-131.751 244.197,-142.272 251.031,-140.754"/>
</g>
<!-- Node15&#45;&gt;Node12 -->
<g id="edge22" class="edge"><title>Node15&#45;&gt;Node12</title>
<path fill="none" stroke="midnightblue" d="M557.178,-187.516C542.248,-196.27 516.049,-210.007 495.207,-220.096"/>
<polygon fill="midnightblue" stroke="midnightblue" points="493.595,-216.987 486.068,-224.444 496.602,-223.308 493.595,-216.987"/>
</g>
<!-- Node16 -->
<g id="node17" class="node"><title>Node16</title>
<g id="a_node17"><a xlink:href="../../dd/d80/PrintStream_8hpp.html" target="_top" xlink:title=" ">
<polygon fill="white" stroke="black" points="715,-112.5 715,-131.5 802,-131.5 802,-112.5 715,-112.5"/>
<text text-anchor="middle" x="758.5" y="-119.5" font-family="Helvetica,sans-Serif" font-size="10.00">PrintStream.hpp</text>
</a>
</g>
</g>
<!-- Node15&#45;&gt;Node16 -->
<g id="edge23" class="edge"><title>Node15&#45;&gt;Node16</title>
<path fill="none" stroke="midnightblue" d="M598.606,-168.444C631.126,-159.201 683.079,-144.436 718.891,-134.257"/>
<polygon fill="midnightblue" stroke="midnightblue" points="719.873,-137.617 728.535,-131.516 717.959,-130.884 719.873,-137.617"/>
</g>
<!-- Node17 -->
<g id="node18" class="node"><title>Node17</title>
<g id="a_node18"><a xlink:title=" ">
<polygon fill="white" stroke="#bfbfbf" points="789.5,-56.5 789.5,-75.5 847.5,-75.5 847.5,-56.5 789.5,-56.5"/>
<text text-anchor="middle" x="818.5" y="-63.5" font-family="Helvetica,sans-Serif" font-size="10.00">Arduino.h</text>
</a>
</g>
</g>
<!-- Node16&#45;&gt;Node17 -->
<g id="edge24" class="edge"><title>Node16&#45;&gt;Node17</title>
<path fill="none" stroke="midnightblue" d="M768.14,-112.324C777.01,-104.341 790.375,-92.3128 801.108,-82.6529"/>
<polygon fill="midnightblue" stroke="midnightblue" points="803.593,-85.1251 808.685,-75.8339 798.91,-79.922 803.593,-85.1251"/>
</g>
<!-- Node18&#45;&gt;Node19 -->
<g id="edge26" class="edge"><title>Node18&#45;&gt;Node19</title>
<path fill="none" stroke="midnightblue" d="M734.541,-341.975C750.551,-332.255 776.95,-316.227 795.874,-304.737"/>
<polygon fill="midnightblue" stroke="midnightblue" points="797.754,-307.691 804.485,-299.509 794.121,-301.707 797.754,-307.691"/>
</g>
<!-- Node20 -->
<g id="node21" class="node"><title>Node20</title>
<g id="a_node21"><a xlink:href="../../de/dd1/LinkedList_8hpp.html" target="_top" xlink:title=" ">
<polygon fill="white" stroke="black" points="673.5,-224.5 673.5,-243.5 789.5,-243.5 789.5,-224.5 673.5,-224.5"/>
<text text-anchor="middle" x="731.5" y="-231.5" font-family="Helvetica,sans-Serif" font-size="10.00">Helpers/LinkedList.hpp</text>
</a>
</g>
</g>
<!-- Node18&#45;&gt;Node20 -->
<g id="edge33" class="edge"><title>Node18&#45;&gt;Node20</title>
<path fill="none" stroke="midnightblue" d="M721.327,-341.819C723.095,-323.257 727.277,-279.339 729.693,-253.973"/>
<polygon fill="midnightblue" stroke="midnightblue" points="733.2,-254.069 730.664,-243.782 726.231,-253.405 733.2,-254.069"/>
</g>
<!-- Node19&#45;&gt;Node3 -->
<g id="edge27" class="edge"><title>Node19&#45;&gt;Node3</title>
<path fill="none" stroke="midnightblue" d="M820.203,-280.355C824.057,-257.953 830.773,-197.703 798.5,-168 761.313,-133.775 414.534,-125.437 288.776,-123.531"/>
<polygon fill="midnightblue" stroke="midnightblue" points="288.755,-120.031 278.705,-123.385 288.654,-127.03 288.755,-120.031"/>
</g>
<!-- Node19&#45;&gt;Node20 -->
<g id="edge28" class="edge"><title>Node19&#45;&gt;Node20</title>
<path fill="none" stroke="midnightblue" d="M804.522,-280.324C790.95,-271.9 770.12,-258.971 754.175,-249.074"/>
<polygon fill="midnightblue" stroke="midnightblue" points="755.786,-245.954 745.443,-243.655 752.094,-251.902 755.786,-245.954"/>
</g>
<!-- Node22 -->
<g id="node23" class="node"><title>Node22</title>
<g id="a_node23"><a xlink:title=" ">
<polygon fill="white" stroke="#bfbfbf" points="846,-224.5 846,-243.5 891,-243.5 891,-224.5 846,-224.5"/>
<text text-anchor="middle" x="868.5" y="-231.5" font-family="Helvetica,sans-Serif" font-size="10.00">Print.h</text>
</a>
</g>
</g>
<!-- Node19&#45;&gt;Node22 -->
<g id="edge32" class="edge"><title>Node19&#45;&gt;Node22</title>
<path fill="none" stroke="midnightblue" d="M826.756,-280.083C833.965,-272.298 844.61,-260.801 853.346,-251.367"/>
<polygon fill="midnightblue" stroke="midnightblue" points="856.171,-253.467 860.397,-243.751 851.035,-248.711 856.171,-253.467"/>
</g>
<!-- Node20&#45;&gt;Node11 -->
<g id="edge30" class="edge"><title>Node20&#45;&gt;Node11</title>
<path fill="none" stroke="midnightblue" d="M726.216,-224.083C721.789,-216.613 715.337,-205.724 709.882,-196.52"/>
<polygon fill="midnightblue" stroke="midnightblue" points="712.795,-194.57 704.686,-187.751 706.773,-198.138 712.795,-194.57"/>
</g>
<!-- Node20&#45;&gt;Node15 -->
<g id="edge29" class="edge"><title>Node20&#45;&gt;Node15</title>
<path fill="none" stroke="midnightblue" d="M705.672,-224.444C678.251,-215.359 634.723,-200.939 604.068,-190.783"/>
<polygon fill="midnightblue" stroke="midnightblue" points="604.8,-187.339 594.207,-187.516 602.599,-193.984 604.8,-187.339"/>
</g>
<!-- Node21 -->
<g id="node22" class="node"><title>Node21</title>
<g id="a_node22"><a xlink:title=" ">
<polygon fill="white" stroke="#bfbfbf" points="742,-168.5 742,-187.5 789,-187.5 789,-168.5 742,-168.5"/>
<text text-anchor="middle" x="765.5" y="-175.5" font-family="Helvetica,sans-Serif" font-size="10.00">iterator</text>
</a>
</g>
</g>
<!-- Node20&#45;&gt;Node21 -->
<g id="edge31" class="edge"><title>Node20&#45;&gt;Node21</title>
<path fill="none" stroke="midnightblue" d="M737.114,-224.083C741.867,-216.534 748.818,-205.495 754.652,-196.23"/>
<polygon fill="midnightblue" stroke="midnightblue" points="757.624,-198.078 759.99,-187.751 751.7,-194.349 757.624,-198.078"/>
</g>
<!-- Node23&#45;&gt;Node17 -->
<g id="edge36" class="edge"><title>Node23&#45;&gt;Node17</title>
<path fill="none" stroke="midnightblue" d="M886.486,-112.324C873.968,-103.979 854.818,-91.2122 840.029,-81.3524"/>
<polygon fill="midnightblue" stroke="midnightblue" points="841.744,-78.2894 831.482,-75.6545 837.861,-84.1137 841.744,-78.2894"/>
</g>
</g>
</svg>
