<?xml version="1.0" encoding="UTF-8" standalone="no"?>
<!DOCTYPE svg PUBLIC "-//W3C//DTD SVG 1.1//EN"
 "http://www.w3.org/Graphics/SVG/1.1/DTD/svg11.dtd">
<!-- Generated by graphviz version 2.38.0 (20140413.2041)
 -->
<!-- Title: RelativeCCSender.cpp Pages: 1 -->
<svg width="808pt" height="498pt"
 viewBox="0.00 0.00 807.50 498.00" xmlns="http://www.w3.org/2000/svg" xmlns:xlink="http://www.w3.org/1999/xlink">
<g id="graph0" class="graph" transform="scale(1 1) rotate(0) translate(4 494)">
<title>RelativeCCSender.cpp</title>
<polygon fill="white" stroke="none" points="-4,4 -4,-494 803.5,-494 803.5,4 -4,4"/>
<!-- Node0 -->
<g id="node1" class="node"><title>Node0</title>
<g id="a_node1"><a xlink:title=" ">
<polygon fill="#bfbfbf" stroke="black" points="495,-470.5 495,-489.5 612,-489.5 612,-470.5 495,-470.5"/>
<text text-anchor="middle" x="553.5" y="-477.5" font-family="Helvetica,sans-Serif" font-size="10.00">RelativeCCSender.cpp</text>
</a>
</g>
</g>
<!-- Node1 -->
<g id="node2" class="node"><title>Node1</title>
<g id="a_node2"><a xlink:href="../../d9/d24/RelativeCCSender_8hpp.html" target="_top" xlink:title=" ">
<polygon fill="white" stroke="black" points="495,-414.5 495,-433.5 612,-433.5 612,-414.5 495,-414.5"/>
<text text-anchor="middle" x="553.5" y="-421.5" font-family="Helvetica,sans-Serif" font-size="10.00">RelativeCCSender.hpp</text>
</a>
</g>
</g>
<!-- Node0&#45;&gt;Node1 -->
<g id="edge1" class="edge"><title>Node0&#45;&gt;Node1</title>
<path fill="none" stroke="midnightblue" d="M553.5,-470.083C553.5,-463.006 553.5,-452.861 553.5,-443.986"/>
<polygon fill="midnightblue" stroke="midnightblue" points="557,-443.751 553.5,-433.751 550,-443.751 557,-443.751"/>
</g>
<!-- Node2 -->
<g id="node3" class="node"><title>Node2</title>
<g id="a_node3"><a xlink:href="../../d5/de0/Control__Surface__Class_8h.html" target="_top" xlink:title=" ">
<polygon fill="white" stroke="black" points="247.5,-347.5 247.5,-377.5 369.5,-377.5 369.5,-347.5 247.5,-347.5"/>
<text text-anchor="start" x="255.5" y="-365.5" font-family="Helvetica,sans-Serif" font-size="10.00">Control_Surface/Control</text>
<text text-anchor="middle" x="308.5" y="-354.5" font-family="Helvetica,sans-Serif" font-size="10.00">_Surface_Class.h</text>
</a>
</g>
</g>
<!-- Node1&#45;&gt;Node2 -->
<g id="edge2" class="edge"><title>Node1&#45;&gt;Node2</title>
<path fill="none" stroke="midnightblue" d="M518.397,-414.475C481.417,-405.494 422.263,-391.128 376.164,-379.933"/>
<polygon fill="midnightblue" stroke="midnightblue" points="376.785,-376.482 366.242,-377.523 375.133,-383.284 376.785,-376.482"/>
</g>
<!-- Node14 -->
<g id="node15" class="node"><title>Node14</title>
<g id="a_node15"><a xlink:title=" ">
<polygon fill="white" stroke="#bfbfbf" points="346.5,-0.5 346.5,-19.5 404.5,-19.5 404.5,-0.5 346.5,-0.5"/>
<text text-anchor="middle" x="375.5" y="-7.5" font-family="Helvetica,sans-Serif" font-size="10.00">Arduino.h</text>
</a>
</g>
</g>
<!-- Node1&#45;&gt;Node14 -->
<g id="edge33" class="edge"><title>Node1&#45;&gt;Node14</title>
<path fill="none" stroke="midnightblue" d="M612.111,-418.222C684.872,-408.716 799.5,-380.422 799.5,-296.5 799.5,-296.5 799.5,-296.5 799.5,-121 799.5,-86.6051 786.692,-74.1883 757.5,-56 700.916,-20.7452 500.209,-13.1099 414.625,-11.4567"/>
<polygon fill="midnightblue" stroke="midnightblue" points="414.596,-7.95572 404.536,-11.2795 414.473,-14.9546 414.596,-7.95572"/>
</g>
<!-- Node3 -->
<g id="node4" class="node"><title>Node3</title>
<g id="a_node4"><a xlink:href="../../dc/dbb/MIDI__Interface_8h.html" target="_top" xlink:title=" ">
<polygon fill="white" stroke="black" points="396.5,-280.5 396.5,-310.5 508.5,-310.5 508.5,-280.5 396.5,-280.5"/>
<text text-anchor="start" x="404.5" y="-298.5" font-family="Helvetica,sans-Serif" font-size="10.00">MIDI_Interfaces/MIDI</text>
<text text-anchor="middle" x="452.5" y="-287.5" font-family="Helvetica,sans-Serif" font-size="10.00">_Interface.h</text>
</a>
</g>
</g>
<!-- Node2&#45;&gt;Node3 -->
<g id="edge3" class="edge"><title>Node2&#45;&gt;Node3</title>
<path fill="none" stroke="midnightblue" d="M339.746,-347.396C360.975,-337.814 389.251,-325.05 412.177,-314.702"/>
<polygon fill="midnightblue" stroke="midnightblue" points="413.641,-317.881 421.315,-310.577 410.761,-311.501 413.641,-317.881"/>
</g>
<!-- Node15 -->
<g id="node16" class="node"><title>Node15</title>
<g id="a_node16"><a xlink:href="../../d6/dd2/DisplayElement_8hpp.html" target="_top" xlink:title=" ">
<polygon fill="white" stroke="black" points="238.5,-286 238.5,-305 378.5,-305 378.5,-286 238.5,-286"/>
<text text-anchor="middle" x="308.5" y="-293" font-family="Helvetica,sans-Serif" font-size="10.00">Display/DisplayElement.hpp</text>
</a>
</g>
</g>
<!-- Node2&#45;&gt;Node15 -->
<g id="edge22" class="edge"><title>Node2&#45;&gt;Node15</title>
<path fill="none" stroke="midnightblue" d="M308.5,-347.396C308.5,-338.064 308.5,-325.714 308.5,-315.517"/>
<polygon fill="midnightblue" stroke="midnightblue" points="312,-315.195 308.5,-305.195 305,-315.195 312,-315.195"/>
</g>
<!-- Node16 -->
<g id="node17" class="node"><title>Node16</title>
<g id="a_node17"><a xlink:href="../../dc/d77/DisplayInterface_8hpp.html" target="_top" xlink:title=" ">
<polygon fill="white" stroke="black" points="138,-224.5 138,-243.5 281,-243.5 281,-224.5 138,-224.5"/>
<text text-anchor="middle" x="209.5" y="-231.5" font-family="Helvetica,sans-Serif" font-size="10.00">Display/DisplayInterface.hpp</text>
</a>
</g>
</g>
<!-- Node2&#45;&gt;Node16 -->
<g id="edge30" class="edge"><title>Node2&#45;&gt;Node16</title>
<path fill="none" stroke="midnightblue" d="M275.44,-347.462C259.382,-339.072 241.099,-326.919 229.5,-311 217.227,-294.156 212.48,-270.355 210.647,-253.896"/>
<polygon fill="midnightblue" stroke="midnightblue" points="214.127,-253.515 209.786,-243.85 207.152,-254.112 214.127,-253.515"/>
</g>
<!-- Node19 -->
<g id="node20" class="node"><title>Node19</title>
<g id="a_node20"><a xlink:href="../../d7/d74/MillisTimer_8hpp.html" target="_top" xlink:title=" ">
<polygon fill="white" stroke="black" points="0,-224.5 0,-243.5 119,-243.5 119,-224.5 0,-224.5"/>
<text text-anchor="middle" x="59.5" y="-231.5" font-family="Helvetica,sans-Serif" font-size="10.00">Helpers/MillisTimer.hpp</text>
</a>
</g>
</g>
<!-- Node2&#45;&gt;Node19 -->
<g id="edge31" class="edge"><title>Node2&#45;&gt;Node19</title>
<path fill="none" stroke="midnightblue" d="M280.901,-347.479C232.451,-322.865 132.762,-272.219 85.4799,-248.199"/>
<polygon fill="midnightblue" stroke="midnightblue" points="86.9885,-245.039 76.4877,-243.63 83.8179,-251.28 86.9885,-245.039"/>
</g>
<!-- Node4 -->
<g id="node5" class="node"><title>Node4</title>
<g id="a_node5"><a xlink:href="../../d0/d4e/Def_8hpp.html" target="_top" xlink:title=" ">
<polygon fill="white" stroke="black" points="517.5,-168.5 517.5,-187.5 587.5,-187.5 587.5,-168.5 517.5,-168.5"/>
<text text-anchor="middle" x="552.5" y="-175.5" font-family="Helvetica,sans-Serif" font-size="10.00">Def/Def.hpp</text>
</a>
</g>
</g>
<!-- Node3&#45;&gt;Node4 -->
<g id="edge4" class="edge"><title>Node3&#45;&gt;Node4</title>
<path fill="none" stroke="midnightblue" d="M486.618,-280.301C502.935,-271.931 521.484,-259.845 533.5,-244 543.702,-230.547 548.437,-211.733 550.629,-197.806"/>
<polygon fill="midnightblue" stroke="midnightblue" points="554.101,-198.243 551.896,-187.88 547.157,-197.356 554.101,-198.243"/>
</g>
<!-- Node8 -->
<g id="node9" class="node"><title>Node8</title>
<g id="a_node9"><a xlink:href="../../d4/d36/MIDI__Parser_8h.html" target="_top" xlink:title=" ">
<polygon fill="white" stroke="black" points="380.5,-224.5 380.5,-243.5 524.5,-243.5 524.5,-224.5 380.5,-224.5"/>
<text text-anchor="middle" x="452.5" y="-231.5" font-family="Helvetica,sans-Serif" font-size="10.00">MIDI_Parsers/MIDI_Parser.h</text>
</a>
</g>
</g>
<!-- Node3&#45;&gt;Node8 -->
<g id="edge9" class="edge"><title>Node3&#45;&gt;Node8</title>
<path fill="none" stroke="midnightblue" d="M452.5,-280.399C452.5,-272.466 452.5,-262.458 452.5,-253.858"/>
<polygon fill="midnightblue" stroke="midnightblue" points="456,-253.658 452.5,-243.658 449,-253.658 456,-253.658"/>
</g>
<!-- Node5 -->
<g id="node6" class="node"><title>Node5</title>
<g id="a_node6"><a xlink:href="../../de/d76/Array_8hpp.html" target="_top" xlink:title=" ">
<polygon fill="white" stroke="black" points="521,-112.5 521,-131.5 616,-131.5 616,-112.5 521,-112.5"/>
<text text-anchor="middle" x="568.5" y="-119.5" font-family="Helvetica,sans-Serif" font-size="10.00">Helpers/Array.hpp</text>
</a>
</g>
</g>
<!-- Node4&#45;&gt;Node5 -->
<g id="edge5" class="edge"><title>Node4&#45;&gt;Node5</title>
<path fill="none" stroke="midnightblue" d="M555.142,-168.083C557.286,-160.849 560.379,-150.409 563.049,-141.397"/>
<polygon fill="midnightblue" stroke="midnightblue" points="566.422,-142.333 565.907,-131.751 559.71,-140.345 566.422,-142.333"/>
</g>
<!-- Node6 -->
<g id="node7" class="node"><title>Node6</title>
<g id="a_node7"><a xlink:title=" ">
<polygon fill="white" stroke="#bfbfbf" points="504.5,-56.5 504.5,-75.5 556.5,-75.5 556.5,-56.5 504.5,-56.5"/>
<text text-anchor="middle" x="530.5" y="-63.5" font-family="Helvetica,sans-Serif" font-size="10.00">stddef.h</text>
</a>
</g>
</g>
<!-- Node4&#45;&gt;Node6 -->
<g id="edge7" class="edge"><title>Node4&#45;&gt;Node6</title>
<path fill="none" stroke="midnightblue" d="M540.959,-168.49C531.021,-160.379 517.378,-147.178 511.5,-132 505.41,-116.274 512.11,-97.7647 519.178,-84.5279"/>
<polygon fill="midnightblue" stroke="midnightblue" points="522.396,-85.9608 524.45,-75.5669 516.363,-82.4113 522.396,-85.9608"/>
</g>
<!-- Node7 -->
<g id="node8" class="node"><title>Node7</title>
<g id="a_node8"><a xlink:title=" ">
<polygon fill="white" stroke="#bfbfbf" points="699,-56.5 699,-75.5 748,-75.5 748,-56.5 699,-56.5"/>
<text text-anchor="middle" x="723.5" y="-63.5" font-family="Helvetica,sans-Serif" font-size="10.00">stdint.h</text>
</a>
</g>
</g>
<!-- Node4&#45;&gt;Node7 -->
<g id="edge8" class="edge"><title>Node4&#45;&gt;Node7</title>
<path fill="none" stroke="midnightblue" d="M587.803,-175.892C622.135,-172.909 673.514,-163.093 704.5,-132 716.549,-119.909 721.043,-100.626 722.675,-86.197"/>
<polygon fill="midnightblue" stroke="midnightblue" points="726.19,-86.1336 723.46,-75.8964 719.21,-85.6013 726.19,-86.1336"/>
</g>
<!-- Node5&#45;&gt;Node6 -->
<g id="edge6" class="edge"><title>Node5&#45;&gt;Node6</title>
<path fill="none" stroke="midnightblue" d="M562.225,-112.083C556.858,-104.455 548.982,-93.2645 542.421,-83.9408"/>
<polygon fill="midnightblue" stroke="midnightblue" points="545.275,-81.9149 536.658,-75.7511 539.551,-85.9434 545.275,-81.9149"/>
</g>
<!-- Node8&#45;&gt;Node6 -->
<g id="edge10" class="edge"><title>Node8&#45;&gt;Node6</title>
<path fill="none" stroke="midnightblue" d="M455.954,-224.364C464.034,-204.341 485.037,-153.306 505.5,-112 510.063,-102.79 515.571,-92.7742 520.255,-84.5345"/>
<polygon fill="midnightblue" stroke="midnightblue" points="523.308,-86.2448 525.268,-75.8327 517.243,-82.7503 523.308,-86.2448"/>
</g>
<!-- Node8&#45;&gt;Node7 -->
<g id="edge11" class="edge"><title>Node8&#45;&gt;Node7</title>
<path fill="none" stroke="midnightblue" d="M524.666,-228.842C589.447,-220.766 680.722,-197.614 723.5,-132 732.351,-118.424 731.271,-99.6249 728.618,-85.7347"/>
<polygon fill="midnightblue" stroke="midnightblue" points="731.99,-84.7854 726.312,-75.841 725.173,-86.3745 731.99,-84.7854"/>
</g>
<!-- Node9 -->
<g id="node10" class="node"><title>Node9</title>
<g id="a_node10"><a xlink:title=" ">
<polygon fill="white" stroke="#bfbfbf" points="270.5,-56.5 270.5,-75.5 318.5,-75.5 318.5,-56.5 270.5,-56.5"/>
<text text-anchor="middle" x="294.5" y="-63.5" font-family="Helvetica,sans-Serif" font-size="10.00">stdlib.h</text>
</a>
</g>
</g>
<!-- Node8&#45;&gt;Node9 -->
<g id="edge12" class="edge"><title>Node8&#45;&gt;Node9</title>
<path fill="none" stroke="midnightblue" d="M380.231,-224.72C356.063,-218.384 331.085,-207.307 314.5,-188 289.725,-159.158 289.782,-111.677 292.083,-85.5948"/>
<polygon fill="midnightblue" stroke="midnightblue" points="295.573,-85.8718 293.179,-75.5512 288.615,-85.1126 295.573,-85.8718"/>
</g>
<!-- Node10 -->
<g id="node11" class="node"><title>Node10</title>
<g id="a_node11"><a xlink:href="../../d4/d6b/SettingsWrapper_8h.html" target="_top" xlink:title=" ">
<polygon fill="white" stroke="black" points="324,-168.5 324,-187.5 461,-187.5 461,-168.5 324,-168.5"/>
<text text-anchor="middle" x="392.5" y="-175.5" font-family="Helvetica,sans-Serif" font-size="10.00">Settings/SettingsWrapper.h</text>
</a>
</g>
</g>
<!-- Node8&#45;&gt;Node10 -->
<g id="edge13" class="edge"><title>Node8&#45;&gt;Node10</title>
<path fill="none" stroke="midnightblue" d="M442.86,-224.324C433.99,-216.341 420.625,-204.313 409.892,-194.653"/>
<polygon fill="midnightblue" stroke="midnightblue" points="412.09,-191.922 402.315,-187.834 407.407,-197.125 412.09,-191.922"/>
</g>
<!-- Node11 -->
<g id="node12" class="node"><title>Node11</title>
<g id="a_node12"><a xlink:href="../../dd/dbc/Settings_8h.html" target="_top" xlink:title="All user settings and debugging options can be changed here.">
<polygon fill="white" stroke="black" points="634,-112.5 634,-131.5 695,-131.5 695,-112.5 634,-112.5"/>
<text text-anchor="middle" x="664.5" y="-119.5" font-family="Helvetica,sans-Serif" font-size="10.00">Settings.h</text>
</a>
</g>
</g>
<!-- Node10&#45;&gt;Node11 -->
<g id="edge14" class="edge"><title>Node10&#45;&gt;Node11</title>
<path fill="none" stroke="midnightblue" d="M438.8,-168.439C483.58,-160.064 553.605,-146.723 624.011,-132.052"/>
<polygon fill="midnightblue" stroke="midnightblue" points="624.874,-135.447 633.945,-129.973 623.441,-128.595 624.874,-135.447"/>
</g>
<!-- Node12 -->
<g id="node13" class="node"><title>Node12</title>
<g id="a_node13"><a xlink:href="../../df/dee/Debug_8hpp.html" target="_top" xlink:title=" ">
<polygon fill="white" stroke="black" points="325,-112.5 325,-131.5 426,-131.5 426,-112.5 325,-112.5"/>
<text text-anchor="middle" x="375.5" y="-119.5" font-family="Helvetica,sans-Serif" font-size="10.00">Helpers/Debug.hpp</text>
</a>
</g>
</g>
<!-- Node10&#45;&gt;Node12 -->
<g id="edge17" class="edge"><title>Node10&#45;&gt;Node12</title>
<path fill="none" stroke="midnightblue" d="M384.526,-168.083C380.764,-160.927 377.094,-150.635 374.927,-141.691"/>
<polygon fill="midnightblue" stroke="midnightblue" points="378.352,-140.966 373.124,-131.751 371.465,-142.215 378.352,-140.966"/>
</g>
<!-- Node11&#45;&gt;Node6 -->
<g id="edge15" class="edge"><title>Node11&#45;&gt;Node6</title>
<path fill="none" stroke="midnightblue" d="M643.267,-112.444C621.116,-103.517 586.181,-89.4387 561.064,-79.3168"/>
<polygon fill="midnightblue" stroke="midnightblue" points="562.217,-76.0079 551.633,-75.5164 559.6,-82.5006 562.217,-76.0079"/>
</g>
<!-- Node11&#45;&gt;Node7 -->
<g id="edge16" class="edge"><title>Node11&#45;&gt;Node7</title>
<path fill="none" stroke="midnightblue" d="M673.979,-112.324C682.701,-104.341 695.843,-92.3128 706.398,-82.6529"/>
<polygon fill="midnightblue" stroke="midnightblue" points="708.834,-85.1674 713.848,-75.8339 704.108,-80.0036 708.834,-85.1674"/>
</g>
<!-- Node12&#45;&gt;Node9 -->
<g id="edge19" class="edge"><title>Node12&#45;&gt;Node9</title>
<path fill="none" stroke="midnightblue" d="M362.486,-112.324C349.968,-103.979 330.818,-91.2122 316.029,-81.3524"/>
<polygon fill="midnightblue" stroke="midnightblue" points="317.744,-78.2894 307.482,-75.6545 313.861,-84.1137 317.744,-78.2894"/>
</g>
<!-- Node12&#45;&gt;Node10 -->
<g id="edge18" class="edge"><title>Node12&#45;&gt;Node10</title>
<path fill="none" stroke="midnightblue" d="M383.386,-131.751C387.15,-138.858 390.832,-149.136 393.023,-158.101"/>
<polygon fill="midnightblue" stroke="midnightblue" points="389.607,-158.881 394.859,-168.083 396.492,-157.615 389.607,-158.881"/>
</g>
<!-- Node13 -->
<g id="node14" class="node"><title>Node13</title>
<g id="a_node14"><a xlink:href="../../dc/d48/PrintStream_8h.html" target="_top" xlink:title=" ">
<polygon fill="white" stroke="black" points="337,-56.5 337,-75.5 414,-75.5 414,-56.5 337,-56.5"/>
<text text-anchor="middle" x="375.5" y="-63.5" font-family="Helvetica,sans-Serif" font-size="10.00">PrintStream.h</text>
</a>
</g>
</g>
<!-- Node12&#45;&gt;Node13 -->
<g id="edge20" class="edge"><title>Node12&#45;&gt;Node13</title>
<path fill="none" stroke="midnightblue" d="M375.5,-112.083C375.5,-105.006 375.5,-94.8611 375.5,-85.9865"/>
<polygon fill="midnightblue" stroke="midnightblue" points="379,-85.751 375.5,-75.7511 372,-85.7511 379,-85.751"/>
</g>
<!-- Node13&#45;&gt;Node14 -->
<g id="edge21" class="edge"><title>Node13&#45;&gt;Node14</title>
<path fill="none" stroke="midnightblue" d="M375.5,-56.083C375.5,-49.0059 375.5,-38.8611 375.5,-29.9865"/>
<polygon fill="midnightblue" stroke="midnightblue" points="379,-29.751 375.5,-19.7511 372,-29.7511 379,-29.751"/>
</g>
<!-- Node15&#45;&gt;Node16 -->
<g id="edge23" class="edge"><title>Node15&#45;&gt;Node16</title>
<path fill="none" stroke="midnightblue" d="M294.316,-285.975C278.142,-276.255 251.474,-260.227 232.357,-248.737"/>
<polygon fill="midnightblue" stroke="midnightblue" points="234.032,-245.661 223.658,-243.509 230.426,-251.66 234.032,-245.661"/>
</g>
<!-- Node17 -->
<g id="node18" class="node"><title>Node17</title>
<g id="a_node18"><a xlink:href="../../de/dd1/LinkedList_8hpp.html" target="_top" xlink:title=" ">
<polygon fill="white" stroke="black" points="151.5,-168.5 151.5,-187.5 267.5,-187.5 267.5,-168.5 151.5,-168.5"/>
<text text-anchor="middle" x="209.5" y="-175.5" font-family="Helvetica,sans-Serif" font-size="10.00">Helpers/LinkedList.hpp</text>
</a>
</g>
</g>
<!-- Node15&#45;&gt;Node17 -->
<g id="edge29" class="edge"><title>Node15&#45;&gt;Node17</title>
<path fill="none" stroke="midnightblue" d="M308.261,-285.744C307.444,-271.396 303.971,-242.614 289.5,-224 278.242,-209.518 260.933,-198.962 245.292,-191.728"/>
<polygon fill="midnightblue" stroke="midnightblue" points="246.406,-188.397 235.837,-187.649 243.632,-194.824 246.406,-188.397"/>
</g>
<!-- Node16&#45;&gt;Node4 -->
<g id="edge24" class="edge"><title>Node16&#45;&gt;Node4</title>
<path fill="none" stroke="midnightblue" d="M263.849,-224.444C331.13,-213.851 444.489,-196.005 507.259,-186.123"/>
<polygon fill="midnightblue" stroke="midnightblue" points="507.921,-189.561 517.255,-184.549 506.832,-182.647 507.921,-189.561"/>
</g>
<!-- Node16&#45;&gt;Node17 -->
<g id="edge25" class="edge"><title>Node16&#45;&gt;Node17</title>
<path fill="none" stroke="midnightblue" d="M209.5,-224.083C209.5,-217.006 209.5,-206.861 209.5,-197.986"/>
<polygon fill="midnightblue" stroke="midnightblue" points="213,-197.751 209.5,-187.751 206,-197.751 213,-197.751"/>
</g>
<!-- Node18 -->
<g id="node19" class="node"><title>Node18</title>
<g id="a_node19"><a xlink:title=" ">
<polygon fill="white" stroke="#bfbfbf" points="88,-168.5 88,-187.5 133,-187.5 133,-168.5 88,-168.5"/>
<text text-anchor="middle" x="110.5" y="-175.5" font-family="Helvetica,sans-Serif" font-size="10.00">Print.h</text>
</a>
</g>
</g>
<!-- Node16&#45;&gt;Node18 -->
<g id="edge28" class="edge"><title>Node16&#45;&gt;Node18</title>
<path fill="none" stroke="midnightblue" d="M193.594,-224.324C177.862,-215.743 153.558,-202.486 135.291,-192.522"/>
<polygon fill="midnightblue" stroke="midnightblue" points="136.822,-189.37 126.367,-187.655 133.47,-195.516 136.822,-189.37"/>
</g>
<!-- Node17&#45;&gt;Node9 -->
<g id="edge26" class="edge"><title>Node17&#45;&gt;Node9</title>
<path fill="none" stroke="midnightblue" d="M216.17,-168.368C230.259,-150.135 263.262,-107.426 281.615,-83.6752"/>
<polygon fill="midnightblue" stroke="midnightblue" points="284.516,-85.6444 287.861,-75.5914 278.977,-81.3642 284.516,-85.6444"/>
</g>
<!-- Node17&#45;&gt;Node12 -->
<g id="edge27" class="edge"><title>Node17&#45;&gt;Node12</title>
<path fill="none" stroke="midnightblue" d="M235.803,-168.444C263.851,-159.32 308.444,-144.813 339.684,-134.651"/>
<polygon fill="midnightblue" stroke="midnightblue" points="340.893,-137.938 349.32,-131.516 338.728,-131.282 340.893,-137.938"/>
</g>
<!-- Node19&#45;&gt;Node14 -->
<g id="edge32" class="edge"><title>Node19&#45;&gt;Node14</title>
<path fill="none" stroke="midnightblue" d="M60.0861,-224.107C61.381,-210.679 65.4997,-184.996 78.5,-168 144.594,-81.5942 272.04,-37.7542 336.35,-20.3224"/>
<polygon fill="midnightblue" stroke="midnightblue" points="337.333,-23.6829 346.11,-17.749 335.548,-16.9142 337.333,-23.6829"/>
</g>
</g>
</svg>
