<?xml version="1.0" encoding="UTF-8" standalone="no"?>
<!DOCTYPE svg PUBLIC "-//W3C//DTD SVG 1.1//EN"
 "http://www.w3.org/Graphics/SVG/1.1/DTD/svg11.dtd">
<!-- Generated by graphviz version 2.38.0 (20140413.2041)
 -->
<!-- Title: MIDIIncrementDecrementButtons::update Pages: 1 -->
<svg width="955pt" height="165pt"
 viewBox="0.00 0.00 955.00 164.50" xmlns="http://www.w3.org/2000/svg" xmlns:xlink="http://www.w3.org/1999/xlink">
<g id="graph0" class="graph" transform="scale(1 1) rotate(0) translate(4 160.5)">
<title>MIDIIncrementDecrementButtons::update</title>
<polygon fill="white" stroke="none" points="-4,4 -4,-160.5 951,-160.5 951,4 -4,4"/>
<!-- Node12 -->
<g id="node1" class="node"><title>Node12</title>
<g id="a_node1"><a xlink:title="Update this updatable.">
<polygon fill="#bfbfbf" stroke="black" points="0,-49.5 0,-79.5 164,-79.5 164,-49.5 0,-49.5"/>
<text text-anchor="start" x="8" y="-67.5" font-family="Helvetica,sans-Serif" font-size="10.00">MIDIIncrementDecrementButtons</text>
<text text-anchor="middle" x="82" y="-56.5" font-family="Helvetica,sans-Serif" font-size="10.00">::update</text>
</a>
</g>
</g>
<!-- Node13 -->
<g id="node2" class="node"><title>Node13</title>
<g id="a_node2"><a xlink:href="../../d5/d20/classIncrementDecrementButtons.html#a2e207d948f38c1cca993dc4d967ebef6" target="_top" xlink:title="Get the state of the increment button.">
<polygon fill="white" stroke="black" points="211,-74.5 211,-104.5 353,-104.5 353,-74.5 211,-74.5"/>
<text text-anchor="start" x="219" y="-92.5" font-family="Helvetica,sans-Serif" font-size="10.00">IncrementDecrementButtons</text>
<text text-anchor="middle" x="282" y="-81.5" font-family="Helvetica,sans-Serif" font-size="10.00">::getState</text>
</a>
</g>
</g>
<!-- Node12&#45;&gt;Node13 -->
<g id="edge1" class="edge"><title>Node12&#45;&gt;Node13</title>
<path fill="none" stroke="midnightblue" d="M164.105,-74.7406C176.204,-76.2681 188.671,-77.8422 200.751,-79.3675"/>
<polygon fill="midnightblue" stroke="midnightblue" points="200.431,-82.8549 210.791,-80.6352 201.308,-75.91 200.431,-82.8549"/>
</g>
<!-- Node23 -->
<g id="node12" class="node"><title>Node23</title>
<g id="a_node12"><a xlink:href="../../dc/dc2/classMIDIIncrementDecrementButtons.html#a69209779d0451467db9f6a8a9e15b77f" target="_top" xlink:title=" ">
<polygon fill="white" stroke="black" points="200,-25.5 200,-55.5 364,-55.5 364,-25.5 200,-25.5"/>
<text text-anchor="start" x="208" y="-43.5" font-family="Helvetica,sans-Serif" font-size="10.00">MIDIIncrementDecrementButtons</text>
<text text-anchor="middle" x="282" y="-32.5" font-family="Helvetica,sans-Serif" font-size="10.00">::reset</text>
</a>
</g>
</g>
<!-- Node12&#45;&gt;Node23 -->
<g id="edge12" class="edge"><title>Node12&#45;&gt;Node23</title>
<path fill="none" stroke="midnightblue" d="M164.105,-54.669C172.549,-53.6456 181.172,-52.6003 189.719,-51.5644"/>
<polygon fill="midnightblue" stroke="midnightblue" points="190.194,-55.0325 199.7,-50.3545 189.352,-48.0833 190.194,-55.0325"/>
</g>
<!-- Node14 -->
<g id="node3" class="node"><title>Node14</title>
<g id="a_node3"><a xlink:href="../../d1/d19/classButton.html#a444805aabacda3e290d668d2fdf4c735" target="_top" xlink:title="Get the state of the button.">
<polygon fill="white" stroke="black" points="405.5,-99 405.5,-118 493.5,-118 493.5,-99 405.5,-99"/>
<text text-anchor="middle" x="449.5" y="-106" font-family="Helvetica,sans-Serif" font-size="10.00">Button::getState</text>
</a>
</g>
</g>
<!-- Node13&#45;&gt;Node14 -->
<g id="edge2" class="edge"><title>Node13&#45;&gt;Node14</title>
<path fill="none" stroke="midnightblue" d="M353.187,-97.5577C367.228,-99.1697 381.763,-100.838 395.124,-102.372"/>
<polygon fill="midnightblue" stroke="midnightblue" points="394.75,-105.852 405.084,-103.516 395.549,-98.8979 394.75,-105.852"/>
</g>
<!-- Node22 -->
<g id="node11" class="node"><title>Node22</title>
<g id="a_node11"><a xlink:href="../../d1/d19/classButton.html#a051753574468288ae7fce0d29c60feea" target="_top" xlink:title="Return the time (in milliseconds) that the button has been stable for.">
<polygon fill="white" stroke="black" points="400,-61 400,-80 499,-80 499,-61 400,-61"/>
<text text-anchor="middle" x="449.5" y="-68" font-family="Helvetica,sans-Serif" font-size="10.00">Button::stableTime</text>
</a>
</g>
</g>
<!-- Node13&#45;&gt;Node22 -->
<g id="edge11" class="edge"><title>Node13&#45;&gt;Node22</title>
<path fill="none" stroke="midnightblue" d="M353.187,-81.4423C365.316,-80.0499 377.813,-78.6151 389.604,-77.2614"/>
<polygon fill="midnightblue" stroke="midnightblue" points="390.222,-80.7137 399.757,-76.0959 389.423,-73.7593 390.222,-80.7137"/>
</g>
<!-- Node15 -->
<g id="node4" class="node"><title>Node15</title>
<g id="a_node4"><a xlink:href="../../d8/d3d/namespaceExtIO.html#a9bda9dc007f42a200626d1d4ea94250b" target="_top" xlink:title="An ExtIO version of the Arduino function.">
<polygon fill="white" stroke="black" points="535,-99 535,-118 632,-118 632,-99 535,-99"/>
<text text-anchor="middle" x="583.5" y="-106" font-family="Helvetica,sans-Serif" font-size="10.00">ExtIO::digitalRead</text>
</a>
</g>
</g>
<!-- Node14&#45;&gt;Node15 -->
<g id="edge3" class="edge"><title>Node14&#45;&gt;Node15</title>
<path fill="none" stroke="midnightblue" d="M493.722,-108.5C503.534,-108.5 514.112,-108.5 524.427,-108.5"/>
<polygon fill="midnightblue" stroke="midnightblue" points="524.618,-112 534.617,-108.5 524.617,-105 524.618,-112"/>
</g>
<!-- Node16 -->
<g id="node5" class="node"><title>Node16</title>
<g id="a_node5"><a xlink:href="../../d8/d3d/namespaceExtIO.html#a9e1b1e3ddc71a977fbf6df93c10cce82" target="_top" xlink:title="An ExtIO version of the Arduino function.">
<polygon fill="white" stroke="black" points="686,-137 686,-156 783,-156 783,-137 686,-137"/>
<text text-anchor="middle" x="734.5" y="-144" font-family="Helvetica,sans-Serif" font-size="10.00">ExtIO::digitalRead</text>
</a>
</g>
</g>
<!-- Node15&#45;&gt;Node16 -->
<g id="edge4" class="edge"><title>Node15&#45;&gt;Node16</title>
<path fill="none" stroke="midnightblue" d="M632.054,-114.287C655.952,-119.625 684.124,-127.103 704.709,-133.695"/>
<polygon fill="midnightblue" stroke="midnightblue" points="703.841,-137.095 714.435,-136.946 706.06,-130.456 703.841,-137.095"/>
</g>
<!-- Node17 -->
<g id="node6" class="node"><title>Node17</title>
<g id="a_node6"><a xlink:href="../../d8/d3d/namespaceExtIO.html#ae314377b34b9e49b153f6e36fb354d37" target="_top" xlink:title="Find the IO element of a given extended IO pin number.">
<polygon fill="white" stroke="black" points="668,-99 668,-118 801,-118 801,-99 668,-99"/>
<text text-anchor="middle" x="734.5" y="-106" font-family="Helvetica,sans-Serif" font-size="10.00">ExtIO::getIOElementOfPin</text>
</a>
</g>
</g>
<!-- Node15&#45;&gt;Node17 -->
<g id="edge6" class="edge"><title>Node15&#45;&gt;Node17</title>
<path fill="none" stroke="midnightblue" d="M632.054,-108.5C640.257,-108.5 648.963,-108.5 657.694,-108.5"/>
<polygon fill="midnightblue" stroke="midnightblue" points="657.925,-112 667.925,-108.5 657.924,-105 657.925,-112"/>
</g>
<!-- Node20 -->
<g id="node9" class="node"><title>Node20</title>
<g id="a_node9"><a xlink:href="../../de/d4e/classExtendedIOElement.html#af799512582ef9f7b56616d29fd78324a" target="_top" xlink:title="Read the state of the given pin.">
<polygon fill="white" stroke="black" points="679.5,-49.5 679.5,-79.5 789.5,-79.5 789.5,-49.5 679.5,-49.5"/>
<text text-anchor="start" x="687.5" y="-67.5" font-family="Helvetica,sans-Serif" font-size="10.00">ExtendedIOElement::</text>
<text text-anchor="middle" x="734.5" y="-56.5" font-family="Helvetica,sans-Serif" font-size="10.00">digitalRead</text>
</a>
</g>
</g>
<!-- Node15&#45;&gt;Node20 -->
<g id="edge9" class="edge"><title>Node15&#45;&gt;Node20</title>
<path fill="none" stroke="midnightblue" d="M616.831,-98.9527C633.232,-94.1094 653.699,-88.0654 672.891,-82.398"/>
<polygon fill="midnightblue" stroke="midnightblue" points="673.884,-85.7543 682.483,-79.5654 671.901,-79.0408 673.884,-85.7543"/>
</g>
<!-- Node21 -->
<g id="node10" class="node"><title>Node21</title>
<g id="a_node10"><a xlink:href="../../de/d4e/classExtendedIOElement.html#a955322d29e4e63ec40a587b5ed9db31b" target="_top" xlink:title="Get the smallest global extended IO pin number that belongs to this extended IO element.">
<polygon fill="white" stroke="black" points="679.5,-0.5 679.5,-30.5 789.5,-30.5 789.5,-0.5 679.5,-0.5"/>
<text text-anchor="start" x="687.5" y="-18.5" font-family="Helvetica,sans-Serif" font-size="10.00">ExtendedIOElement::</text>
<text text-anchor="middle" x="734.5" y="-7.5" font-family="Helvetica,sans-Serif" font-size="10.00">getStart</text>
</a>
</g>
</g>
<!-- Node15&#45;&gt;Node21 -->
<g id="edge10" class="edge"><title>Node15&#45;&gt;Node21</title>
<path fill="none" stroke="midnightblue" d="M594.504,-98.5311C609.419,-84.116 638.864,-57.3384 668,-40.5 671.458,-38.5016 675.105,-36.6048 678.837,-34.8163"/>
<polygon fill="midnightblue" stroke="midnightblue" points="680.54,-37.8886 688.227,-30.5978 677.671,-31.5034 680.54,-37.8886"/>
</g>
<!-- Node16&#45;&gt;Node15 -->
<g id="edge5" class="edge"><title>Node16&#45;&gt;Node15</title>
<path fill="none" stroke="midnightblue" d="M685.916,-140.707C662.066,-135.378 633.963,-127.92 613.396,-121.338"/>
<polygon fill="midnightblue" stroke="midnightblue" points="614.268,-117.94 603.674,-118.092 612.051,-124.579 614.268,-117.94"/>
</g>
<!-- Node18 -->
<g id="node7" class="node"><title>Node18</title>
<g id="a_node7"><a xlink:href="../../de/d4e/classExtendedIOElement.html#a3151d5bf08e6b32231cdd58ed2f39aee" target="_top" xlink:title="Get the list of all Extended IO elements.">
<polygon fill="white" stroke="black" points="837,-115.5 837,-145.5 947,-145.5 947,-115.5 837,-115.5"/>
<text text-anchor="start" x="845" y="-133.5" font-family="Helvetica,sans-Serif" font-size="10.00">ExtendedIOElement::</text>
<text text-anchor="middle" x="892" y="-122.5" font-family="Helvetica,sans-Serif" font-size="10.00">getAll</text>
</a>
</g>
</g>
<!-- Node17&#45;&gt;Node18 -->
<g id="edge7" class="edge"><title>Node17&#45;&gt;Node18</title>
<path fill="none" stroke="midnightblue" d="M801.446,-117.83C809.803,-119.012 818.345,-120.221 826.676,-121.4"/>
<polygon fill="midnightblue" stroke="midnightblue" points="826.314,-124.883 836.706,-122.818 827.295,-117.952 826.314,-124.883"/>
</g>
<!-- Node19 -->
<g id="node8" class="node"><title>Node19</title>
<g id="a_node8"><a xlink:href="../../d8/d3d/namespaceExtIO.html#aedf6005ecc64cea16059965b80ce5f85" target="_top" xlink:title=" ">
<polygon fill="white" stroke="black" points="850,-77 850,-96 934,-96 934,-77 850,-77"/>
<text text-anchor="middle" x="892" y="-84" font-family="Helvetica,sans-Serif" font-size="10.00">ExtIO::inRange</text>
</a>
</g>
</g>
<!-- Node17&#45;&gt;Node19 -->
<g id="edge8" class="edge"><title>Node17&#45;&gt;Node19</title>
<path fill="none" stroke="midnightblue" d="M801.446,-99.17C814.25,-97.3585 827.492,-95.485 839.738,-93.7525"/>
<polygon fill="midnightblue" stroke="midnightblue" points="840.348,-97.2011 849.759,-92.3347 839.368,-90.2701 840.348,-97.2011"/>
</g>
</g>
</svg>
