<?xml version="1.0" encoding="UTF-8" standalone="no"?>
<!DOCTYPE svg PUBLIC "-//W3C//DTD SVG 1.1//EN"
 "http://www.w3.org/Graphics/SVG/1.1/DTD/svg11.dtd">
<!-- Generated by graphviz version 2.38.0 (20140413.2041)
 -->
<!-- Title: DisplayInterface::setCursor Pages: 1 -->
<svg width="315pt" height="154pt"
 viewBox="0.00 0.00 315.00 153.50" xmlns="http://www.w3.org/2000/svg" xmlns:xlink="http://www.w3.org/1999/xlink">
<g id="graph0" class="graph" transform="scale(1 1) rotate(0) translate(4 149.5)">
<title>DisplayInterface::setCursor</title>
<polygon fill="white" stroke="none" points="-4,4 -4,-149.5 311,-149.5 311,4 -4,4"/>
<!-- Node1 -->
<g id="node1" class="node"><title>Node1</title>
<g id="a_node1"><a xlink:title="Set the cursor position.">
<polygon fill="#bfbfbf" stroke="black" points="170,-57.5 170,-76.5 307,-76.5 307,-57.5 170,-57.5"/>
<text text-anchor="middle" x="238.5" y="-64.5" font-family="Helvetica,sans-Serif" font-size="10.00">DisplayInterface::setCursor</text>
</a>
</g>
</g>
<!-- Node2 -->
<g id="node2" class="node"><title>Node2</title>
<g id="a_node2"><a xlink:href="../../d1/dc8/classMCU_1_1TimeDisplayDisplay.html#a995f9d05fe9aa554561c802f36cf2c7c" target="_top" xlink:title="Draw this DisplayElement to the display buffer.">
<polygon fill="white" stroke="black" points="0,-115 0,-145 134,-145 134,-115 0,-115"/>
<text text-anchor="start" x="8" y="-133" font-family="Helvetica,sans-Serif" font-size="10.00">MCU::TimeDisplayDisplay</text>
<text text-anchor="middle" x="67" y="-122" font-family="Helvetica,sans-Serif" font-size="10.00">::draw</text>
</a>
</g>
</g>
<!-- Node1&#45;&gt;Node2 -->
<g id="edge1" class="edge"><title>Node1&#45;&gt;Node2</title>
<path fill="none" stroke="midnightblue" d="M202.212,-80.116C174.91,-90.2634 137.074,-104.326 108.532,-114.935"/>
<polygon fill="midnightblue" stroke="midnightblue" points="203.603,-83.3331 211.757,-76.5683 201.164,-76.7716 203.603,-83.3331"/>
</g>
<!-- Node3 -->
<g id="node3" class="node"><title>Node3</title>
<g id="a_node3"><a xlink:href="../../d3/d51/classSelectorDisplay.html#a63b4f3fb0b38d7f6edd9e6eae39fc9ba" target="_top" xlink:title="Draw this DisplayElement to the display buffer.">
<polygon fill="white" stroke="black" points="10.5,-76.5 10.5,-95.5 123.5,-95.5 123.5,-76.5 10.5,-76.5"/>
<text text-anchor="middle" x="67" y="-83.5" font-family="Helvetica,sans-Serif" font-size="10.00">SelectorDisplay::draw</text>
</a>
</g>
</g>
<!-- Node1&#45;&gt;Node3 -->
<g id="edge2" class="edge"><title>Node1&#45;&gt;Node3</title>
<path fill="none" stroke="midnightblue" d="M159.476,-75.7461C147.424,-77.097 135.189,-78.4684 123.756,-79.7501"/>
<polygon fill="midnightblue" stroke="midnightblue" points="159.987,-79.2108 169.535,-74.6185 159.207,-72.2544 159.987,-79.2108"/>
</g>
<!-- Node4 -->
<g id="node4" class="node"><title>Node4</title>
<g id="a_node4"><a xlink:href="../../d6/dc4/classBankDisplay.html#ad14e41055aa26b4f664dee1940e33532" target="_top" xlink:title="Draw this DisplayElement to the display buffer.">
<polygon fill="white" stroke="black" points="17.5,-38.5 17.5,-57.5 116.5,-57.5 116.5,-38.5 17.5,-38.5"/>
<text text-anchor="middle" x="67" y="-45.5" font-family="Helvetica,sans-Serif" font-size="10.00">BankDisplay::draw</text>
</a>
</g>
</g>
<!-- Node1&#45;&gt;Node4 -->
<g id="edge3" class="edge"><title>Node1&#45;&gt;Node4</title>
<path fill="none" stroke="midnightblue" d="M159.502,-58.2568C144.917,-56.622 130.064,-54.9571 116.685,-53.4574"/>
<polygon fill="midnightblue" stroke="midnightblue" points="159.207,-61.7456 169.535,-59.3815 159.987,-54.7892 159.207,-61.7456"/>
</g>
<!-- Node5 -->
<g id="node5" class="node"><title>Node5</title>
<g id="a_node5"><a xlink:href="../../d7/dae/classMCU_1_1LCDDisplay.html#ac051681d7aaf2d5d2f6140f19835baa7" target="_top" xlink:title="Draw this DisplayElement to the display buffer.">
<polygon fill="white" stroke="black" points="4,-0.5 4,-19.5 130,-19.5 130,-0.5 4,-0.5"/>
<text text-anchor="middle" x="67" y="-7.5" font-family="Helvetica,sans-Serif" font-size="10.00">MCU::LCDDisplay::draw</text>
</a>
</g>
</g>
<!-- Node1&#45;&gt;Node5 -->
<g id="edge4" class="edge"><title>Node1&#45;&gt;Node5</title>
<path fill="none" stroke="midnightblue" d="M203.641,-53.8732C183.529,-46.2508 157.452,-36.6701 134,-29 124.027,-25.7383 113.112,-22.4739 103.08,-19.5941"/>
<polygon fill="midnightblue" stroke="midnightblue" points="202.406,-57.1482 212.997,-57.4408 204.9,-50.6075 202.406,-57.1482"/>
</g>
</g>
</svg>
