<?xml version="1.0" encoding="UTF-8" standalone="no"?>
<!DOCTYPE svg PUBLIC "-//W3C//DTD SVG 1.1//EN"
 "http://www.w3.org/Graphics/SVG/1.1/DTD/svg11.dtd">
<!-- Generated by graphviz version 2.38.0 (20140413.2041)
 -->
<!-- Title: DisplayInterface::setTextColor Pages: 1 -->
<svg width="305pt" height="78pt"
 viewBox="0.00 0.00 305.00 77.50" xmlns="http://www.w3.org/2000/svg" xmlns:xlink="http://www.w3.org/1999/xlink">
<g id="graph0" class="graph" transform="scale(1 1) rotate(0) translate(4 73.5)">
<title>DisplayInterface::setTextColor</title>
<polygon fill="white" stroke="none" points="-4,4 -4,-73.5 301,-73.5 301,4 -4,4"/>
<!-- Node1 -->
<g id="node1" class="node"><title>Node1</title>
<g id="a_node1"><a xlink:title="Set the text color.">
<polygon fill="#bfbfbf" stroke="black" points="170,-17 170,-47 297,-47 297,-17 170,-17"/>
<text text-anchor="start" x="178" y="-35" font-family="Helvetica,sans-Serif" font-size="10.00">DisplayInterface::setText</text>
<text text-anchor="middle" x="233.5" y="-24" font-family="Helvetica,sans-Serif" font-size="10.00">Color</text>
</a>
</g>
</g>
<!-- Node2 -->
<g id="node2" class="node"><title>Node2</title>
<g id="a_node2"><a xlink:href="../../d1/dc8/classMCU_1_1TimeDisplayDisplay.html#a995f9d05fe9aa554561c802f36cf2c7c" target="_top" xlink:title="Draw this DisplayElement to the display buffer.">
<polygon fill="white" stroke="black" points="0,-39 0,-69 134,-69 134,-39 0,-39"/>
<text text-anchor="start" x="8" y="-57" font-family="Helvetica,sans-Serif" font-size="10.00">MCU::TimeDisplayDisplay</text>
<text text-anchor="middle" x="67" y="-46" font-family="Helvetica,sans-Serif" font-size="10.00">::draw</text>
</a>
</g>
</g>
<!-- Node1&#45;&gt;Node2 -->
<g id="edge1" class="edge"><title>Node1&#45;&gt;Node2</title>
<path fill="none" stroke="midnightblue" d="M159.847,-41.7165C151.259,-42.865 142.53,-44.0324 134.041,-45.1678"/>
<polygon fill="midnightblue" stroke="midnightblue" points="160.393,-45.1748 169.84,-40.38 159.465,-38.2366 160.393,-45.1748"/>
</g>
<!-- Node3 -->
<g id="node3" class="node"><title>Node3</title>
<g id="a_node3"><a xlink:href="../../d3/d51/classSelectorDisplay.html#adc2e20fd87b2e53c357f36b634cc6006" target="_top" xlink:title="Draw this DisplayElement to the display buffer.">
<polygon fill="white" stroke="black" points="10.5,-0.5 10.5,-19.5 123.5,-19.5 123.5,-0.5 10.5,-0.5"/>
<text text-anchor="middle" x="67" y="-7.5" font-family="Helvetica,sans-Serif" font-size="10.00">SelectorDisplay::draw</text>
</a>
</g>
</g>
<!-- Node1&#45;&gt;Node3 -->
<g id="edge2" class="edge"><title>Node1&#45;&gt;Node3</title>
<path fill="none" stroke="midnightblue" d="M159.778,-22.2742C147.692,-20.658 135.329,-19.0045 123.75,-17.456"/>
<polygon fill="midnightblue" stroke="midnightblue" points="159.465,-25.7634 169.84,-23.62 160.393,-18.8252 159.465,-25.7634"/>
</g>
</g>
</svg>
