<?xml version="1.0" encoding="UTF-8" standalone="no"?>
<!DOCTYPE svg PUBLIC "-//W3C//DTD SVG 1.1//EN"
 "http://www.w3.org/Graphics/SVG/1.1/DTD/svg11.dtd">
<!-- Generated by graphviz version 2.38.0 (20140413.2041)
 -->
<!-- Title: DisplayInterface::setTextColor Pages: 1 -->
<svg width="305pt" height="78pt"
 viewBox="0.00 0.00 305.00 77.50" xmlns="http://www.w3.org/2000/svg" xmlns:xlink="http://www.w3.org/1999/xlink">
<g id="graph0" class="graph" transform="scale(1 1) rotate(0) translate(4 73.5)">
<title>DisplayInterface::setTextColor</title>
<polygon fill="white" stroke="none" points="-4,4 -4,-73.5 301,-73.5 301,4 -4,4"/>
<!-- Node73 -->
<g id="node1" class="node"><title>Node73</title>
<g id="a_node1"><a xlink:title="Set the text color.">
<polygon fill="#bfbfbf" stroke="black" points="170,-22.5 170,-52.5 297,-52.5 297,-22.5 170,-22.5"/>
<text text-anchor="start" x="178" y="-40.5" font-family="Helvetica,sans-Serif" font-size="10.00">DisplayInterface::setText</text>
<text text-anchor="middle" x="233.5" y="-29.5" font-family="Helvetica,sans-Serif" font-size="10.00">Color</text>
</a>
</g>
</g>
<!-- Node74 -->
<g id="node2" class="node"><title>Node74</title>
<g id="a_node2"><a xlink:href="../../d3/d51/classSelectorDisplay.html#adc2e20fd87b2e53c357f36b634cc6006" target="_top" xlink:title="Draw this DisplayElement to the display buffer.">
<polygon fill="white" stroke="black" points="10.5,-50 10.5,-69 123.5,-69 123.5,-50 10.5,-50"/>
<text text-anchor="middle" x="67" y="-57" font-family="Helvetica,sans-Serif" font-size="10.00">SelectorDisplay::draw</text>
</a>
</g>
</g>
<!-- Node73&#45;&gt;Node74 -->
<g id="edge1" class="edge"><title>Node73&#45;&gt;Node74</title>
<path fill="none" stroke="midnightblue" d="M159.778,-47.2258C147.692,-48.842 135.329,-50.4955 123.75,-52.044"/>
<polygon fill="midnightblue" stroke="midnightblue" points="160.393,-50.6748 169.84,-45.88 159.465,-43.7366 160.393,-50.6748"/>
</g>
<!-- Node75 -->
<g id="node3" class="node"><title>Node75</title>
<g id="a_node3"><a xlink:href="../../d1/dc8/classMCU_1_1TimeDisplayDisplay.html#a995f9d05fe9aa554561c802f36cf2c7c" target="_top" xlink:title="Draw this DisplayElement to the display buffer.">
<polygon fill="white" stroke="black" points="0,-0.5 0,-30.5 134,-30.5 134,-0.5 0,-0.5"/>
<text text-anchor="start" x="8" y="-18.5" font-family="Helvetica,sans-Serif" font-size="10.00">MCU::TimeDisplayDisplay</text>
<text text-anchor="middle" x="67" y="-7.5" font-family="Helvetica,sans-Serif" font-size="10.00">::draw</text>
</a>
</g>
</g>
<!-- Node73&#45;&gt;Node75 -->
<g id="edge2" class="edge"><title>Node73&#45;&gt;Node75</title>
<path fill="none" stroke="midnightblue" d="M159.847,-27.7835C151.259,-26.635 142.53,-25.4676 134.041,-24.3322"/>
<polygon fill="midnightblue" stroke="midnightblue" points="159.465,-31.2634 169.84,-29.12 160.393,-24.3252 159.465,-31.2634"/>
</g>
</g>
</svg>
