<?xml version="1.0" encoding="UTF-8" standalone="no"?>
<!DOCTYPE svg PUBLIC "-//W3C//DTD SVG 1.1//EN"
 "http://www.w3.org/Graphics/SVG/1.1/DTD/svg11.dtd">
<!-- Generated by graphviz version 2.38.0 (20140413.2041)
 -->
<!-- Title: DisplayInterface::setCursor Pages: 1 -->
<svg width="315pt" height="116pt"
 viewBox="0.00 0.00 315.00 115.50" xmlns="http://www.w3.org/2000/svg" xmlns:xlink="http://www.w3.org/1999/xlink">
<g id="graph0" class="graph" transform="scale(1 1) rotate(0) translate(4 111.5)">
<title>DisplayInterface::setCursor</title>
<polygon fill="white" stroke="none" points="-4,4 -4,-111.5 311,-111.5 311,4 -4,4"/>
<!-- Node1 -->
<g id="node1" class="node"><title>Node1</title>
<g id="a_node1"><a xlink:title="Set the cursor position.">
<polygon fill="#bfbfbf" stroke="black" points="170,-38.5 170,-57.5 307,-57.5 307,-38.5 170,-38.5"/>
<text text-anchor="middle" x="238.5" y="-45.5" font-family="Helvetica,sans-Serif" font-size="10.00">DisplayInterface::setCursor</text>
</a>
</g>
</g>
<!-- Node2 -->
<g id="node2" class="node"><title>Node2</title>
<g id="a_node2"><a xlink:href="../../d1/dc8/classMCU_1_1TimeDisplayDisplay.html#a995f9d05fe9aa554561c802f36cf2c7c" target="_top" xlink:title="Draw this DisplayElement to the display buffer.">
<polygon fill="white" stroke="black" points="0,-77 0,-107 134,-107 134,-77 0,-77"/>
<text text-anchor="start" x="8" y="-95" font-family="Helvetica,sans-Serif" font-size="10.00">MCU::TimeDisplayDisplay</text>
<text text-anchor="middle" x="67" y="-84" font-family="Helvetica,sans-Serif" font-size="10.00">::draw</text>
</a>
</g>
</g>
<!-- Node1&#45;&gt;Node2 -->
<g id="edge1" class="edge"><title>Node1&#45;&gt;Node2</title>
<path fill="none" stroke="midnightblue" d="M190.898,-60.0974C170.85,-65.3013 147.205,-71.4395 126.036,-76.9346"/>
<polygon fill="midnightblue" stroke="midnightblue" points="191.921,-63.4477 200.721,-57.5473 190.162,-56.6723 191.921,-63.4477"/>
</g>
<!-- Node3 -->
<g id="node3" class="node"><title>Node3</title>
<g id="a_node3"><a xlink:href="../../d3/d51/classSelectorDisplay.html#a63b4f3fb0b38d7f6edd9e6eae39fc9ba" target="_top" xlink:title="Draw this DisplayElement to the display buffer.">
<polygon fill="white" stroke="black" points="10.5,-38.5 10.5,-57.5 123.5,-57.5 123.5,-38.5 10.5,-38.5"/>
<text text-anchor="middle" x="67" y="-45.5" font-family="Helvetica,sans-Serif" font-size="10.00">SelectorDisplay::draw</text>
</a>
</g>
</g>
<!-- Node1&#45;&gt;Node3 -->
<g id="edge2" class="edge"><title>Node1&#45;&gt;Node3</title>
<path fill="none" stroke="midnightblue" d="M159.476,-48C147.424,-48 135.189,-48 123.756,-48"/>
<polygon fill="midnightblue" stroke="midnightblue" points="159.535,-51.5001 169.535,-48 159.534,-44.5001 159.535,-51.5001"/>
</g>
<!-- Node4 -->
<g id="node4" class="node"><title>Node4</title>
<g id="a_node4"><a xlink:href="../../d6/dc4/classBankDisplay.html#ad14e41055aa26b4f664dee1940e33532" target="_top" xlink:title="Draw this DisplayElement to the display buffer.">
<polygon fill="white" stroke="black" points="17.5,-0.5 17.5,-19.5 116.5,-19.5 116.5,-0.5 17.5,-0.5"/>
<text text-anchor="middle" x="67" y="-7.5" font-family="Helvetica,sans-Serif" font-size="10.00">BankDisplay::draw</text>
</a>
</g>
</g>
<!-- Node1&#45;&gt;Node4 -->
<g id="edge3" class="edge"><title>Node1&#45;&gt;Node4</title>
<path fill="none" stroke="midnightblue" d="M184.758,-36.1757C160.861,-30.8184 132.985,-24.5689 110.464,-19.5201"/>
<polygon fill="midnightblue" stroke="midnightblue" points="184.205,-39.6386 194.728,-38.411 185.736,-32.8081 184.205,-39.6386"/>
</g>
</g>
</svg>
