<?xml version="1.0" encoding="UTF-8" standalone="no"?>
<!DOCTYPE svg PUBLIC "-//W3C//DTD SVG 1.1//EN"
 "http://www.w3.org/Graphics/SVG/1.1/DTD/svg11.dtd">
<!-- Generated by graphviz version 2.38.0 (20140413.2041)
 -->
<!-- Title: DisplayInterface::drawBackground Pages: 1 -->
<svg width="659pt" height="78pt"
 viewBox="0.00 0.00 659.00 77.50" xmlns="http://www.w3.org/2000/svg" xmlns:xlink="http://www.w3.org/1999/xlink">
<g id="graph0" class="graph" transform="scale(1 1) rotate(0) translate(4 73.5)">
<title>DisplayInterface::drawBackground</title>
<polygon fill="white" stroke="none" points="-4,4 -4,-73.5 655,-73.5 655,4 -4,4"/>
<!-- Node18 -->
<g id="node1" class="node"><title>Node18</title>
<g id="a_node1"><a xlink:title="Draw a custom background.">
<polygon fill="#bfbfbf" stroke="black" points="484,-28 484,-47 651,-47 651,-28 484,-28"/>
<text text-anchor="middle" x="567.5" y="-35" font-family="Helvetica,sans-Serif" font-size="10.00">DisplayInterface::drawBackground</text>
</a>
</g>
</g>
<!-- Node19 -->
<g id="node2" class="node"><title>Node19</title>
<g id="a_node2"><a xlink:href="../../df/d42/classDisplayInterface.html#a37445a6dc517bc34bbfb67fc6eea3996" target="_top" xlink:title="Initialize the display.">
<polygon fill="white" stroke="black" points="323.5,-50 323.5,-69 440.5,-69 440.5,-50 323.5,-50"/>
<text text-anchor="middle" x="382" y="-57" font-family="Helvetica,sans-Serif" font-size="10.00">DisplayInterface::begin</text>
</a>
</g>
</g>
<!-- Node18&#45;&gt;Node19 -->
<g id="edge1" class="edge"><title>Node18&#45;&gt;Node19</title>
<path fill="none" stroke="midnightblue" d="M476.797,-48.2545C464.518,-49.7268 452.189,-51.2049 440.692,-52.5833"/>
<polygon fill="midnightblue" stroke="midnightblue" points="477.569,-51.6872 487.081,-47.0216 476.736,-44.7369 477.569,-51.6872"/>
</g>
<!-- Node20 -->
<g id="node3" class="node"><title>Node20</title>
<g id="a_node3"><a xlink:href="../../df/d42/classDisplayInterface.html#a038339dfbfd1a343040583e03f4be48b" target="_top" xlink:title="Clear the frame buffer, and draw the custom background.">
<polygon fill="white" stroke="black" points="316,-0.5 316,-30.5 448,-30.5 448,-0.5 316,-0.5"/>
<text text-anchor="start" x="324" y="-18.5" font-family="Helvetica,sans-Serif" font-size="10.00">DisplayInterface::clearAnd</text>
<text text-anchor="middle" x="382" y="-7.5" font-family="Helvetica,sans-Serif" font-size="10.00">DrawBackground</text>
</a>
</g>
</g>
<!-- Node18&#45;&gt;Node20 -->
<g id="edge2" class="edge"><title>Node18&#45;&gt;Node20</title>
<path fill="none" stroke="midnightblue" d="M476.994,-26.769C467.285,-25.605 457.543,-24.437 448.202,-23.3171"/>
<polygon fill="midnightblue" stroke="midnightblue" points="476.736,-30.2631 487.081,-27.9784 477.569,-23.3128 476.736,-30.2631"/>
</g>
<!-- Node21 -->
<g id="node4" class="node"><title>Node21</title>
<g id="a_node4"><a xlink:href="../../dc/d45/classControl__Surface__.html#aff515a0b3c0cd86ab716bb2ff01a07ef" target="_top" xlink:title="Clear, draw and display all displays.">
<polygon fill="white" stroke="black" points="152,-0.5 152,-30.5 280,-30.5 280,-0.5 152,-0.5"/>
<text text-anchor="start" x="160" y="-18.5" font-family="Helvetica,sans-Serif" font-size="10.00">Control_Surface_::update</text>
<text text-anchor="middle" x="216" y="-7.5" font-family="Helvetica,sans-Serif" font-size="10.00">Displays</text>
</a>
</g>
</g>
<!-- Node20&#45;&gt;Node21 -->
<g id="edge3" class="edge"><title>Node20&#45;&gt;Node21</title>
<path fill="none" stroke="midnightblue" d="M305.47,-15.5C297.016,-15.5 288.469,-15.5 280.193,-15.5"/>
<polygon fill="midnightblue" stroke="midnightblue" points="305.712,-19.0001 315.712,-15.5 305.712,-12.0001 305.712,-19.0001"/>
</g>
<!-- Node22 -->
<g id="node5" class="node"><title>Node22</title>
<g id="a_node5"><a xlink:href="../../dc/d45/classControl__Surface__.html#a69fd0ae13604c39d6dc0da12fc94a18f" target="_top" xlink:title="Update all MIDI elements, send MIDI events and read MIDI input.">
<polygon fill="white" stroke="black" points="-7.10543e-15,-6 -7.10543e-15,-25 116,-25 116,-6 -7.10543e-15,-6"/>
<text text-anchor="middle" x="58" y="-13" font-family="Helvetica,sans-Serif" font-size="10.00">Control_Surface_::loop</text>
</a>
</g>
</g>
<!-- Node21&#45;&gt;Node22 -->
<g id="edge4" class="edge"><title>Node21&#45;&gt;Node22</title>
<path fill="none" stroke="midnightblue" d="M141.921,-15.5C133.284,-15.5 124.566,-15.5 116.192,-15.5"/>
<polygon fill="midnightblue" stroke="midnightblue" points="141.999,-19.0001 151.998,-15.5 141.998,-12.0001 141.999,-19.0001"/>
</g>
</g>
</svg>
