<?xml version="1.0" encoding="UTF-8" standalone="no"?>
<!DOCTYPE svg PUBLIC "-//W3C//DTD SVG 1.1//EN"
 "http://www.w3.org/Graphics/SVG/1.1/DTD/svg11.dtd">
<!-- Generated by graphviz version 2.38.0 (20140413.2041)
 -->
<!-- Title: BankableMIDIOutput.cpp Pages: 1 -->
<svg width="854pt" height="588pt"
 viewBox="0.00 0.00 854.00 588.00" xmlns="http://www.w3.org/2000/svg" xmlns:xlink="http://www.w3.org/1999/xlink">
<g id="graph0" class="graph" transform="scale(1 1) rotate(0) translate(4 584)">
<title>BankableMIDIOutput.cpp</title>
<polygon fill="white" stroke="none" points="-4,4 -4,-584 850,-584 850,4 -4,4"/>
<!-- Node0 -->
<g id="node1" class="node"><title>Node0</title>
<g id="a_node1"><a xlink:title=" ">
<polygon fill="#bfbfbf" stroke="black" points="546.5,-560.5 546.5,-579.5 673.5,-579.5 673.5,-560.5 546.5,-560.5"/>
<text text-anchor="middle" x="610" y="-567.5" font-family="Helvetica,sans-Serif" font-size="10.00">BankableMIDIOutput.cpp</text>
</a>
</g>
</g>
<!-- Node1 -->
<g id="node2" class="node"><title>Node1</title>
<g id="a_node2"><a xlink:href="../../db/df2/BankableMIDIOutput_8hpp.html" target="_top" xlink:title=" ">
<polygon fill="white" stroke="black" points="546.5,-504.5 546.5,-523.5 673.5,-523.5 673.5,-504.5 546.5,-504.5"/>
<text text-anchor="middle" x="610" y="-511.5" font-family="Helvetica,sans-Serif" font-size="10.00">BankableMIDIOutput.hpp</text>
</a>
</g>
</g>
<!-- Node0&#45;&gt;Node1 -->
<g id="edge1" class="edge"><title>Node0&#45;&gt;Node1</title>
<path fill="none" stroke="midnightblue" d="M610,-560.083C610,-553.006 610,-542.861 610,-533.986"/>
<polygon fill="midnightblue" stroke="midnightblue" points="613.5,-533.751 610,-523.751 606.5,-533.751 613.5,-533.751"/>
</g>
<!-- Node2 -->
<g id="node3" class="node"><title>Node2</title>
<g id="a_node3"><a xlink:href="../../d4/d57/Bank_8hpp.html" target="_top" xlink:title=" ">
<polygon fill="white" stroke="black" points="375,-448.5 375,-467.5 433,-467.5 433,-448.5 375,-448.5"/>
<text text-anchor="middle" x="404" y="-455.5" font-family="Helvetica,sans-Serif" font-size="10.00">Bank.hpp</text>
</a>
</g>
</g>
<!-- Node1&#45;&gt;Node2 -->
<g id="edge2" class="edge"><title>Node1&#45;&gt;Node2</title>
<path fill="none" stroke="midnightblue" d="M577.359,-504.444C540.908,-494.889 481.94,-479.431 443.067,-469.241"/>
<polygon fill="midnightblue" stroke="midnightblue" points="443.719,-465.793 433.158,-466.643 441.944,-472.565 443.719,-465.793"/>
</g>
<!-- Node20 -->
<g id="node21" class="node"><title>Node20</title>
<g id="a_node21"><a xlink:href="../../dd/d1f/BankConfig_8hpp.html" target="_top" xlink:title=" ">
<polygon fill="white" stroke="black" points="550,-336.5 550,-355.5 636,-355.5 636,-336.5 550,-336.5"/>
<text text-anchor="middle" x="593" y="-343.5" font-family="Helvetica,sans-Serif" font-size="10.00">BankConfig.hpp</text>
</a>
</g>
</g>
<!-- Node1&#45;&gt;Node20 -->
<g id="edge38" class="edge"><title>Node1&#45;&gt;Node20</title>
<path fill="none" stroke="midnightblue" d="M609.086,-504.075C606.41,-477.945 598.552,-401.211 594.902,-365.577"/>
<polygon fill="midnightblue" stroke="midnightblue" points="598.378,-365.159 593.877,-355.568 591.415,-365.873 598.378,-365.159"/>
</g>
<!-- Node21 -->
<g id="node22" class="node"><title>Node21</title>
<g id="a_node22"><a xlink:href="../../d8/d38/MIDICNChannelAddress_8hpp.html" target="_top" xlink:title=" ">
<polygon fill="white" stroke="black" points="654.5,-336.5 654.5,-355.5 817.5,-355.5 817.5,-336.5 654.5,-336.5"/>
<text text-anchor="middle" x="736" y="-343.5" font-family="Helvetica,sans-Serif" font-size="10.00">Def/MIDICNChannelAddress.hpp</text>
</a>
</g>
</g>
<!-- Node1&#45;&gt;Node21 -->
<g id="edge39" class="edge"><title>Node1&#45;&gt;Node21</title>
<path fill="none" stroke="midnightblue" d="M616.774,-504.075C636.951,-477.493 696.881,-398.538 723.276,-363.763"/>
<polygon fill="midnightblue" stroke="midnightblue" points="726.238,-365.65 729.496,-355.568 720.663,-361.417 726.238,-365.65"/>
</g>
<!-- Node3 -->
<g id="node4" class="node"><title>Node3</title>
<g id="a_node4"><a xlink:href="../../df/dee/Debug_8hpp.html" target="_top" xlink:title=" ">
<polygon fill="white" stroke="black" points="356.5,-280.5 356.5,-299.5 457.5,-299.5 457.5,-280.5 356.5,-280.5"/>
<text text-anchor="middle" x="407" y="-287.5" font-family="Helvetica,sans-Serif" font-size="10.00">Helpers/Debug.hpp</text>
</a>
</g>
</g>
<!-- Node2&#45;&gt;Node3 -->
<g id="edge3" class="edge"><title>Node2&#45;&gt;Node3</title>
<path fill="none" stroke="midnightblue" d="M397.757,-448.361C384.089,-428.331 353.902,-377.281 369,-336 373.057,-324.908 381.188,-314.665 388.891,-306.763"/>
<polygon fill="midnightblue" stroke="midnightblue" points="391.475,-309.135 396.286,-299.695 386.638,-304.075 391.475,-309.135"/>
</g>
<!-- Node8 -->
<g id="node9" class="node"><title>Node8</title>
<g id="a_node9"><a xlink:title=" ">
<polygon fill="white" stroke="#bfbfbf" points="167.5,-0.5 167.5,-19.5 216.5,-19.5 216.5,-0.5 167.5,-0.5"/>
<text text-anchor="middle" x="192" y="-7.5" font-family="Helvetica,sans-Serif" font-size="10.00">stdint.h</text>
</a>
</g>
</g>
<!-- Node2&#45;&gt;Node8 -->
<g id="edge29" class="edge"><title>Node2&#45;&gt;Node8</title>
<path fill="none" stroke="midnightblue" d="M374.945,-455.37C282.312,-449.389 0,-424.781 0,-347 0,-347 0,-347 0,-121 0,-49.3607 101.881,-23.7225 157.214,-15.0809"/>
<polygon fill="midnightblue" stroke="midnightblue" points="157.901,-18.5179 167.292,-13.6141 156.893,-11.5909 157.901,-18.5179"/>
</g>
<!-- Node11 -->
<g id="node12" class="node"><title>Node11</title>
<g id="a_node12"><a xlink:title=" ">
<polygon fill="white" stroke="#bfbfbf" points="510,-0.5 510,-19.5 562,-19.5 562,-0.5 510,-0.5"/>
<text text-anchor="middle" x="536" y="-7.5" font-family="Helvetica,sans-Serif" font-size="10.00">stddef.h</text>
</a>
</g>
</g>
<!-- Node2&#45;&gt;Node11 -->
<g id="edge28" class="edge"><title>Node2&#45;&gt;Node11</title>
<path fill="none" stroke="midnightblue" d="M433.001,-456.038C531.334,-451.999 846,-432.403 846,-347 846,-347 846,-347 846,-121 846,-63.487 654.093,-28.3804 572.264,-16.0252"/>
<polygon fill="midnightblue" stroke="midnightblue" points="572.568,-12.5322 562.163,-14.5317 571.544,-19.4569 572.568,-12.5322"/>
</g>
<!-- Node15 -->
<g id="node16" class="node"><title>Node15</title>
<g id="a_node16"><a xlink:href="../../d1/d93/Error_8hpp.html" target="_top" xlink:title=" ">
<polygon fill="white" stroke="black" points="228.5,-336.5 228.5,-355.5 321.5,-355.5 321.5,-336.5 228.5,-336.5"/>
<text text-anchor="middle" x="275" y="-343.5" font-family="Helvetica,sans-Serif" font-size="10.00">Helpers/Error.hpp</text>
</a>
</g>
</g>
<!-- Node2&#45;&gt;Node15 -->
<g id="edge18" class="edge"><title>Node2&#45;&gt;Node15</title>
<path fill="none" stroke="midnightblue" d="M388.978,-448.446C374.714,-440.011 352.987,-426.333 336,-412 318.173,-396.958 300.193,-377.098 288.42,-363.306"/>
<polygon fill="midnightblue" stroke="midnightblue" points="291.06,-361.007 281.948,-355.601 285.699,-365.509 291.06,-361.007"/>
</g>
<!-- Node16 -->
<g id="node17" class="node"><title>Node16</title>
<g id="a_node17"><a xlink:href="../../de/dd1/LinkedList_8hpp.html" target="_top" xlink:title=" ">
<polygon fill="white" stroke="black" points="378,-336.5 378,-355.5 494,-355.5 494,-336.5 378,-336.5"/>
<text text-anchor="middle" x="436" y="-343.5" font-family="Helvetica,sans-Serif" font-size="10.00">Helpers/LinkedList.hpp</text>
</a>
</g>
</g>
<!-- Node2&#45;&gt;Node16 -->
<g id="edge20" class="edge"><title>Node2&#45;&gt;Node16</title>
<path fill="none" stroke="midnightblue" d="M406.511,-448.368C411.698,-430.537 423.696,-389.295 430.685,-365.272"/>
<polygon fill="midnightblue" stroke="midnightblue" points="434.068,-366.171 433.501,-355.591 427.347,-364.216 434.068,-366.171"/>
</g>
<!-- Node17 -->
<g id="node18" class="node"><title>Node17</title>
<g id="a_node18"><a xlink:href="../../d9/d46/Selectable_8hpp.html" target="_top" xlink:title=" ">
<polygon fill="white" stroke="black" points="137.5,-392.5 137.5,-411.5 262.5,-411.5 262.5,-392.5 137.5,-392.5"/>
<text text-anchor="middle" x="200" y="-399.5" font-family="Helvetica,sans-Serif" font-size="10.00">Selectors/Selectable.hpp</text>
</a>
</g>
</g>
<!-- Node2&#45;&gt;Node17 -->
<g id="edge23" class="edge"><title>Node2&#45;&gt;Node17</title>
<path fill="none" stroke="midnightblue" d="M374.772,-449.263C340.009,-440.061 281.716,-424.631 242.097,-414.143"/>
<polygon fill="midnightblue" stroke="midnightblue" points="242.766,-410.7 232.203,-411.524 240.974,-417.467 242.766,-410.7"/>
</g>
<!-- Node19 -->
<g id="node20" class="node"><title>Node19</title>
<g id="a_node20"><a xlink:href="../../de/d6e/BankableMIDIInput_8hpp.html" target="_top" xlink:title=" ">
<polygon fill="white" stroke="black" points="432,-392.5 432,-411.5 582,-411.5 582,-392.5 432,-392.5"/>
<text text-anchor="middle" x="507" y="-399.5" font-family="Helvetica,sans-Serif" font-size="10.00">Banks/BankableMIDIInput.hpp</text>
</a>
</g>
</g>
<!-- Node2&#45;&gt;Node19 -->
<g id="edge30" class="edge"><title>Node2&#45;&gt;Node19</title>
<path fill="none" stroke="midnightblue" d="M415.434,-448.324C430.143,-439.625 455.646,-426.12 476.104,-416.113"/>
<polygon fill="midnightblue" stroke="midnightblue" points="477.885,-419.141 485.382,-411.655 474.853,-412.831 477.885,-419.141"/>
</g>
<!-- Node4 -->
<g id="node5" class="node"><title>Node4</title>
<g id="a_node5"><a xlink:href="../../d2/dd5/SettingsWrapper_8hpp.html" target="_top" xlink:title=" ">
<polygon fill="white" stroke="black" points="333.5,-224.5 333.5,-243.5 480.5,-243.5 480.5,-224.5 333.5,-224.5"/>
<text text-anchor="middle" x="407" y="-231.5" font-family="Helvetica,sans-Serif" font-size="10.00">Settings/SettingsWrapper.hpp</text>
</a>
</g>
</g>
<!-- Node3&#45;&gt;Node4 -->
<g id="edge4" class="edge"><title>Node3&#45;&gt;Node4</title>
<path fill="none" stroke="midnightblue" d="M401.834,-280.083C400.324,-272.927 399.894,-262.635 400.542,-253.691"/>
<polygon fill="midnightblue" stroke="midnightblue" points="404.015,-254.126 401.869,-243.751 397.077,-253.2 404.015,-254.126"/>
</g>
<!-- Node12 -->
<g id="node13" class="node"><title>Node12</title>
<g id="a_node13"><a xlink:title=" ">
<polygon fill="white" stroke="#bfbfbf" points="499,-224.5 499,-243.5 547,-243.5 547,-224.5 499,-224.5"/>
<text text-anchor="middle" x="523" y="-231.5" font-family="Helvetica,sans-Serif" font-size="10.00">stdlib.h</text>
</a>
</g>
</g>
<!-- Node3&#45;&gt;Node12 -->
<g id="edge15" class="edge"><title>Node3&#45;&gt;Node12</title>
<path fill="none" stroke="midnightblue" d="M425.381,-280.444C444.216,-271.675 473.731,-257.935 495.379,-247.858"/>
<polygon fill="midnightblue" stroke="midnightblue" points="497.117,-250.91 504.705,-243.516 494.162,-244.564 497.117,-250.91"/>
</g>
<!-- Node13 -->
<g id="node14" class="node"><title>Node13</title>
<g id="a_node14"><a xlink:href="../../dd/d80/PrintStream_8hpp.html" target="_top" xlink:title=" ">
<polygon fill="white" stroke="black" points="228.5,-224.5 228.5,-243.5 315.5,-243.5 315.5,-224.5 228.5,-224.5"/>
<text text-anchor="middle" x="272" y="-231.5" font-family="Helvetica,sans-Serif" font-size="10.00">PrintStream.hpp</text>
</a>
</g>
</g>
<!-- Node3&#45;&gt;Node13 -->
<g id="edge16" class="edge"><title>Node3&#45;&gt;Node13</title>
<path fill="none" stroke="midnightblue" d="M385.609,-280.444C363.293,-271.517 328.097,-257.439 302.792,-247.317"/>
<polygon fill="midnightblue" stroke="midnightblue" points="303.876,-243.981 293.291,-243.516 301.276,-250.48 303.876,-243.981"/>
</g>
<!-- Node4&#45;&gt;Node3 -->
<g id="edge14" class="edge"><title>Node4&#45;&gt;Node3</title>
<path fill="none" stroke="midnightblue" d="M412.131,-243.751C413.657,-250.858 414.104,-261.136 413.472,-270.101"/>
<polygon fill="midnightblue" stroke="midnightblue" points="409.993,-269.713 412.166,-280.083 416.934,-270.622 409.993,-269.713"/>
</g>
<!-- Node5 -->
<g id="node6" class="node"><title>Node5</title>
<g id="a_node6"><a xlink:href="../../db/d02/Settings_8hpp.html" target="_top" xlink:title="All user settings and debugging options can be changed here.">
<polygon fill="white" stroke="black" points="371.5,-168.5 371.5,-187.5 442.5,-187.5 442.5,-168.5 371.5,-168.5"/>
<text text-anchor="middle" x="407" y="-175.5" font-family="Helvetica,sans-Serif" font-size="10.00">Settings.hpp</text>
</a>
</g>
</g>
<!-- Node4&#45;&gt;Node5 -->
<g id="edge5" class="edge"><title>Node4&#45;&gt;Node5</title>
<path fill="none" stroke="midnightblue" d="M407,-224.083C407,-217.006 407,-206.861 407,-197.986"/>
<polygon fill="midnightblue" stroke="midnightblue" points="410.5,-197.751 407,-187.751 403.5,-197.751 410.5,-197.751"/>
</g>
<!-- Node6 -->
<g id="node7" class="node"><title>Node6</title>
<g id="a_node7"><a xlink:href="../../d0/d4e/Def_8hpp.html" target="_top" xlink:title=" ">
<polygon fill="white" stroke="black" points="372,-112.5 372,-131.5 442,-131.5 442,-112.5 372,-112.5"/>
<text text-anchor="middle" x="407" y="-119.5" font-family="Helvetica,sans-Serif" font-size="10.00">Def/Def.hpp</text>
</a>
</g>
</g>
<!-- Node5&#45;&gt;Node6 -->
<g id="edge6" class="edge"><title>Node5&#45;&gt;Node6</title>
<path fill="none" stroke="midnightblue" d="M407,-168.083C407,-161.006 407,-150.861 407,-141.986"/>
<polygon fill="midnightblue" stroke="midnightblue" points="410.5,-141.751 407,-131.751 403.5,-141.751 410.5,-141.751"/>
</g>
<!-- Node7 -->
<g id="node8" class="node"><title>Node7</title>
<g id="a_node8"><a xlink:href="../../d7/d42/Channel_8hpp.html" target="_top" xlink:title=" ">
<polygon fill="white" stroke="black" points="360.5,-56.5 360.5,-75.5 431.5,-75.5 431.5,-56.5 360.5,-56.5"/>
<text text-anchor="middle" x="396" y="-63.5" font-family="Helvetica,sans-Serif" font-size="10.00">Channel.hpp</text>
</a>
</g>
</g>
<!-- Node6&#45;&gt;Node7 -->
<g id="edge7" class="edge"><title>Node6&#45;&gt;Node7</title>
<path fill="none" stroke="midnightblue" d="M405.184,-112.083C403.726,-104.927 401.629,-94.6353 399.807,-85.6911"/>
<polygon fill="midnightblue" stroke="midnightblue" points="403.208,-84.8512 397.783,-75.7511 396.349,-86.2485 403.208,-84.8512"/>
</g>
<!-- Node6&#45;&gt;Node8 -->
<g id="edge13" class="edge"><title>Node6&#45;&gt;Node8</title>
<path fill="none" stroke="midnightblue" d="M371.858,-116.345C338.917,-110.75 289.294,-99.0693 252,-76 231.882,-63.5558 214.252,-42.555 203.399,-27.7994"/>
<polygon fill="midnightblue" stroke="midnightblue" points="206.193,-25.6879 197.556,-19.5514 200.481,-29.7345 206.193,-25.6879"/>
</g>
<!-- Node9 -->
<g id="node10" class="node"><title>Node9</title>
<g id="a_node10"><a xlink:href="../../dc/d50/Frequency_8hpp.html" target="_top" xlink:title=" ">
<polygon fill="white" stroke="black" points="261.5,-56.5 261.5,-75.5 342.5,-75.5 342.5,-56.5 261.5,-56.5"/>
<text text-anchor="middle" x="302" y="-63.5" font-family="Helvetica,sans-Serif" font-size="10.00">Frequency.hpp</text>
</a>
</g>
</g>
<!-- Node6&#45;&gt;Node9 -->
<g id="edge9" class="edge"><title>Node6&#45;&gt;Node9</title>
<path fill="none" stroke="midnightblue" d="M390.13,-112.324C373.291,-103.664 347.193,-90.2424 327.762,-80.249"/>
<polygon fill="midnightblue" stroke="midnightblue" points="329.322,-77.1155 318.828,-75.6545 326.12,-83.3405 329.322,-77.1155"/>
</g>
<!-- Node10 -->
<g id="node11" class="node"><title>Node10</title>
<g id="a_node11"><a xlink:href="../../de/d76/Array_8hpp.html" target="_top" xlink:title=" ">
<polygon fill="white" stroke="black" points="488.5,-56.5 488.5,-75.5 583.5,-75.5 583.5,-56.5 488.5,-56.5"/>
<text text-anchor="middle" x="536" y="-63.5" font-family="Helvetica,sans-Serif" font-size="10.00">Helpers/Array.hpp</text>
</a>
</g>
</g>
<!-- Node6&#45;&gt;Node10 -->
<g id="edge10" class="edge"><title>Node6&#45;&gt;Node10</title>
<path fill="none" stroke="midnightblue" d="M427.44,-112.444C448.67,-103.557 482.099,-89.5632 506.255,-79.4514"/>
<polygon fill="midnightblue" stroke="midnightblue" points="507.782,-82.6064 515.655,-75.5164 505.079,-76.1493 507.782,-82.6064"/>
</g>
<!-- Node6&#45;&gt;Node11 -->
<g id="edge12" class="edge"><title>Node6&#45;&gt;Node11</title>
<path fill="none" stroke="midnightblue" d="M416.146,-112.386C429.654,-99.7478 455.841,-75.5584 479,-56 491.161,-45.7295 505.19,-34.6446 516.287,-26.0465"/>
<polygon fill="midnightblue" stroke="midnightblue" points="518.68,-28.6218 524.467,-19.7471 514.408,-23.0759 518.68,-28.6218"/>
</g>
<!-- Node7&#45;&gt;Node8 -->
<g id="edge8" class="edge"><title>Node7&#45;&gt;Node8</title>
<path fill="none" stroke="midnightblue" d="M363.676,-56.4435C326.239,-46.5337 264.814,-30.2743 226.483,-20.1278"/>
<polygon fill="midnightblue" stroke="midnightblue" points="227.356,-16.7386 216.794,-17.5631 225.565,-23.5055 227.356,-16.7386"/>
</g>
<!-- Node10&#45;&gt;Node11 -->
<g id="edge11" class="edge"><title>Node10&#45;&gt;Node11</title>
<path fill="none" stroke="midnightblue" d="M536,-56.083C536,-49.0059 536,-38.8611 536,-29.9865"/>
<polygon fill="midnightblue" stroke="midnightblue" points="539.5,-29.751 536,-19.7511 532.5,-29.7511 539.5,-29.751"/>
</g>
<!-- Node14 -->
<g id="node15" class="node"><title>Node14</title>
<g id="a_node15"><a xlink:title=" ">
<polygon fill="white" stroke="#bfbfbf" points="243,-168.5 243,-187.5 301,-187.5 301,-168.5 243,-168.5"/>
<text text-anchor="middle" x="272" y="-175.5" font-family="Helvetica,sans-Serif" font-size="10.00">Arduino.h</text>
</a>
</g>
</g>
<!-- Node13&#45;&gt;Node14 -->
<g id="edge17" class="edge"><title>Node13&#45;&gt;Node14</title>
<path fill="none" stroke="midnightblue" d="M272,-224.083C272,-217.006 272,-206.861 272,-197.986"/>
<polygon fill="midnightblue" stroke="midnightblue" points="275.5,-197.751 272,-187.751 268.5,-197.751 275.5,-197.751"/>
</g>
<!-- Node15&#45;&gt;Node3 -->
<g id="edge19" class="edge"><title>Node15&#45;&gt;Node3</title>
<path fill="none" stroke="midnightblue" d="M295.916,-336.444C317.736,-327.517 352.15,-313.439 376.892,-303.317"/>
<polygon fill="midnightblue" stroke="midnightblue" points="378.252,-306.542 386.182,-299.516 375.601,-300.063 378.252,-306.542"/>
</g>
<!-- Node16&#45;&gt;Node3 -->
<g id="edge21" class="edge"><title>Node16&#45;&gt;Node3</title>
<path fill="none" stroke="midnightblue" d="M431.211,-336.083C427.242,-328.691 421.475,-317.953 416.565,-308.811"/>
<polygon fill="midnightblue" stroke="midnightblue" points="419.514,-306.905 411.7,-299.751 413.347,-310.217 419.514,-306.905"/>
</g>
<!-- Node16&#45;&gt;Node12 -->
<g id="edge22" class="edge"><title>Node16&#45;&gt;Node12</title>
<path fill="none" stroke="midnightblue" d="M442.827,-336.368C457.248,-318.135 491.027,-275.426 509.811,-251.675"/>
<polygon fill="midnightblue" stroke="midnightblue" points="512.747,-253.606 516.205,-243.591 507.256,-249.264 512.747,-253.606"/>
</g>
<!-- Node17&#45;&gt;Node6 -->
<g id="edge24" class="edge"><title>Node17&#45;&gt;Node6</title>
<path fill="none" stroke="midnightblue" d="M200,-392.442C200,-373.936 200,-328.812 200,-291 200,-291 200,-291 200,-233 200,-200.398 208.479,-188.288 234,-168 270.528,-138.961 323.829,-128.51 361.598,-124.83"/>
<polygon fill="midnightblue" stroke="midnightblue" points="362.144,-128.296 371.812,-123.961 361.551,-121.321 362.144,-128.296"/>
</g>
<!-- Node17&#45;&gt;Node8 -->
<g id="edge26" class="edge"><title>Node17&#45;&gt;Node8</title>
<path fill="none" stroke="midnightblue" d="M194.716,-392.231C184.275,-374.043 162,-330.601 162,-291 162,-291 162,-291 162,-121 162,-87.6405 175.001,-50.5319 183.886,-29.0673"/>
<polygon fill="midnightblue" stroke="midnightblue" points="187.213,-30.1901 187.954,-19.6212 180.784,-27.4213 187.213,-30.1901"/>
</g>
<!-- Node17&#45;&gt;Node15 -->
<g id="edge25" class="edge"><title>Node17&#45;&gt;Node15</title>
<path fill="none" stroke="midnightblue" d="M212.05,-392.324C223.463,-384.107 240.831,-371.602 254.435,-361.807"/>
<polygon fill="midnightblue" stroke="midnightblue" points="256.66,-364.517 262.731,-355.834 252.57,-358.837 256.66,-364.517"/>
</g>
<!-- Node18 -->
<g id="node19" class="node"><title>Node18</title>
<g id="a_node19"><a xlink:href="../../d7/dd7/Helpers_8hpp.html" target="_top" xlink:title=" ">
<polygon fill="white" stroke="black" points="28,-336.5 28,-355.5 134,-355.5 134,-336.5 28,-336.5"/>
<text text-anchor="middle" x="81" y="-343.5" font-family="Helvetica,sans-Serif" font-size="10.00">Helpers/Helpers.hpp</text>
</a>
</g>
</g>
<!-- Node17&#45;&gt;Node18 -->
<g id="edge27" class="edge"><title>Node17&#45;&gt;Node18</title>
<path fill="none" stroke="midnightblue" d="M181.144,-392.444C161.734,-383.636 131.27,-369.812 109.035,-359.722"/>
<polygon fill="midnightblue" stroke="midnightblue" points="110.32,-356.462 99.7677,-355.516 107.428,-362.836 110.32,-356.462"/>
</g>
<!-- Node19&#45;&gt;Node2 -->
<g id="edge31" class="edge"><title>Node19&#45;&gt;Node2</title>
<path fill="none" stroke="midnightblue" d="M495.836,-411.516C481.068,-420.27 455.123,-434.007 434.468,-444.096"/>
<polygon fill="midnightblue" stroke="midnightblue" points="432.911,-440.961 425.409,-448.444 435.939,-447.272 432.911,-440.961"/>
</g>
<!-- Node19&#45;&gt;Node3 -->
<g id="edge36" class="edge"><title>Node19&#45;&gt;Node3</title>
<path fill="none" stroke="midnightblue" d="M509.09,-392.112C511.709,-378.692 514.567,-353.018 503,-336 492.262,-320.201 474.453,-309.816 457.071,-303.052"/>
<polygon fill="midnightblue" stroke="midnightblue" points="458.1,-299.704 447.506,-299.656 455.758,-306.3 458.1,-299.704"/>
</g>
<!-- Node19&#45;&gt;Node16 -->
<g id="edge37" class="edge"><title>Node19&#45;&gt;Node16</title>
<path fill="none" stroke="midnightblue" d="M495.593,-392.324C484.891,-384.185 468.659,-371.839 455.837,-362.087"/>
<polygon fill="midnightblue" stroke="midnightblue" points="457.693,-359.102 447.615,-355.834 453.456,-364.673 457.693,-359.102"/>
</g>
<!-- Node19&#45;&gt;Node20 -->
<g id="edge32" class="edge"><title>Node19&#45;&gt;Node20</title>
<path fill="none" stroke="midnightblue" d="M520.817,-392.324C534.233,-383.9 554.824,-370.971 570.586,-361.074"/>
<polygon fill="midnightblue" stroke="midnightblue" points="572.609,-363.936 579.217,-355.655 568.887,-358.008 572.609,-363.936"/>
</g>
<!-- Node19&#45;&gt;Node21 -->
<g id="edge34" class="edge"><title>Node19&#45;&gt;Node21</title>
<path fill="none" stroke="midnightblue" d="M543.286,-392.444C582.983,-383.083 646.707,-368.056 689.912,-357.868"/>
<polygon fill="midnightblue" stroke="midnightblue" points="690.954,-361.218 699.884,-355.516 689.348,-354.405 690.954,-361.218"/>
</g>
<!-- Node20&#45;&gt;Node6 -->
<g id="edge33" class="edge"><title>Node20&#45;&gt;Node6</title>
<path fill="none" stroke="midnightblue" d="M592.305,-336.202C590.232,-314.94 582.485,-259.876 556,-224 525.001,-182.009 471.032,-151.82 437.257,-135.906"/>
<polygon fill="midnightblue" stroke="midnightblue" points="438.437,-132.596 427.887,-131.613 435.521,-138.96 438.437,-132.596"/>
</g>
<!-- Node21&#45;&gt;Node6 -->
<g id="edge35" class="edge"><title>Node21&#45;&gt;Node6</title>
<path fill="none" stroke="midnightblue" d="M727.843,-336.483C700.943,-308.803 611.687,-220.167 523,-168 498.888,-153.817 469.487,-142.468 446.318,-134.715"/>
<polygon fill="midnightblue" stroke="midnightblue" points="447.396,-131.386 436.804,-131.615 445.227,-138.041 447.396,-131.386"/>
</g>
</g>
</svg>
