<?xml version="1.0" encoding="UTF-8" standalone="no"?>
<!DOCTYPE svg PUBLIC "-//W3C//DTD SVG 1.1//EN"
 "http://www.w3.org/Graphics/SVG/1.1/DTD/svg11.dtd">
<!-- Generated by graphviz version 2.38.0 (20140413.2041)
 -->
<!-- Title: Drone::getAltitudeController Pages: 1 -->
<svg width="828pt" height="228pt"
 viewBox="0.00 0.00 828.00 228.00" xmlns="http://www.w3.org/2000/svg" xmlns:xlink="http://www.w3.org/1999/xlink">
<g id="graph0" class="graph" transform="scale(1 1) rotate(0) translate(4 224)">
<title>Drone::getAltitudeController</title>
<polygon fill="white" stroke="none" points="-4,4 -4,-224 824,-224 824,4 -4,4"/>
<!-- Node40 -->
<g id="node1" class="node"><title>Node40</title>
<g id="a_node1"><a xlink:title=" ">
<polygon fill="#bfbfbf" stroke="black" points="0,-57.5 0,-76.5 137,-76.5 137,-57.5 0,-57.5"/>
<text text-anchor="middle" x="68.5" y="-64.5" font-family="Helvetica,sans-Serif" font-size="10.00">Drone::getAltitudeController</text>
</a>
</g>
</g>
<!-- Node41 -->
<g id="node2" class="node"><title>Node41</title>
<g id="a_node2"><a xlink:href="../../d1/d8b/DLQR_8hpp.html#ab8dcb1e59c9dc36c588cd927e69ebfbf" target="_top" xlink:title=" ">
<polygon fill="white" stroke="black" points="173,-57.5 173,-76.5 205,-76.5 205,-57.5 173,-57.5"/>
<text text-anchor="middle" x="189" y="-64.5" font-family="Helvetica,sans-Serif" font-size="10.00">dlqr</text>
</a>
</g>
</g>
<!-- Node40&#45;&gt;Node41 -->
<g id="edge1" class="edge"><title>Node40&#45;&gt;Node41</title>
<path fill="none" stroke="midnightblue" d="M137.058,-67C146.243,-67 155.156,-67 162.891,-67"/>
<polygon fill="midnightblue" stroke="midnightblue" points="162.947,-70.5001 172.947,-67 162.947,-63.5001 162.947,-70.5001"/>
</g>
<!-- Node42 -->
<g id="node3" class="node"><title>Node42</title>
<g id="a_node3"><a xlink:href="../../d1/d8b/DLQR_8hpp.html#a8b2180fee16d2b9e2d195b6ea4805c99" target="_top" xlink:title=" ">
<polygon fill="white" stroke="black" points="241,-105.5 241,-124.5 276,-124.5 276,-105.5 241,-105.5"/>
<text text-anchor="middle" x="258.5" y="-112.5" font-family="Helvetica,sans-Serif" font-size="10.00">dare</text>
</a>
</g>
</g>
<!-- Node41&#45;&gt;Node42 -->
<g id="edge2" class="edge"><title>Node41&#45;&gt;Node42</title>
<path fill="none" stroke="midnightblue" d="M203.66,-76.7135C212.809,-83.2196 225.055,-91.928 235.556,-99.3956"/>
<polygon fill="midnightblue" stroke="midnightblue" points="233.683,-102.358 243.861,-105.301 237.739,-96.6533 233.683,-102.358"/>
</g>
<!-- Node46 -->
<g id="node7" class="node"><title>Node46</title>
<g id="a_node7"><a xlink:href="../../d0/d7e/LeastSquares_8hpp.html#a3e86962f655361a684f770b14c9fe1e2" target="_top" xlink:title=" ">
<polygon fill="white" stroke="black" points="398,-10.5 398,-29.5 498,-29.5 498,-10.5 398,-10.5"/>
<text text-anchor="middle" x="448" y="-17.5" font-family="Helvetica,sans-Serif" font-size="10.00">solveLeastSquares</text>
</a>
</g>
</g>
<!-- Node41&#45;&gt;Node46 -->
<g id="edge24" class="edge"><title>Node41&#45;&gt;Node46</title>
<path fill="none" stroke="midnightblue" d="M205.319,-63.0386C228.35,-57.1846 273.321,-46.1468 312,-39 336.633,-34.4485 363.973,-30.4128 387.571,-27.2445"/>
<polygon fill="midnightblue" stroke="midnightblue" points="388.325,-30.6754 397.78,-25.8961 387.408,-23.7357 388.325,-30.6754"/>
</g>
<!-- Node43 -->
<g id="node4" class="node"><title>Node43</title>
<g id="a_node4"><a xlink:href="../../d9/d1c/Matrix_8hpp.html#a6b703886d2a8afc3e2ae96a34f375ee1" target="_top" xlink:title=" ">
<polygon fill="white" stroke="black" points="319.5,-48.5 319.5,-67.5 354.5,-67.5 354.5,-48.5 319.5,-48.5"/>
<text text-anchor="middle" x="337" y="-55.5" font-family="Helvetica,sans-Serif" font-size="10.00">vcat</text>
</a>
</g>
</g>
<!-- Node42&#45;&gt;Node43 -->
<g id="edge3" class="edge"><title>Node42&#45;&gt;Node43</title>
<path fill="none" stroke="midnightblue" d="M272.477,-105.331C284.087,-96.6804 301.319,-83.8409 314.907,-73.7164"/>
<polygon fill="midnightblue" stroke="midnightblue" points="317.287,-76.3079 323.214,-67.5265 313.104,-70.6947 317.287,-76.3079"/>
</g>
<!-- Node44 -->
<g id="node5" class="node"><title>Node44</title>
<g id="a_node5"><a xlink:href="../../d9/d1c/Matrix_8hpp.html#a7eea18ba1f057f95394a4f1911c05b03" target="_top" xlink:title=" ">
<polygon fill="white" stroke="black" points="319.5,-200.5 319.5,-219.5 354.5,-219.5 354.5,-200.5 319.5,-200.5"/>
<text text-anchor="middle" x="337" y="-207.5" font-family="Helvetica,sans-Serif" font-size="10.00">hcat</text>
</a>
</g>
</g>
<!-- Node42&#45;&gt;Node44 -->
<g id="edge4" class="edge"><title>Node42&#45;&gt;Node44</title>
<path fill="none" stroke="midnightblue" d="M264.835,-124.544C273.53,-139.626 291.826,-169.467 312,-191 312.763,-191.814 313.562,-192.623 314.387,-193.421"/>
<polygon fill="midnightblue" stroke="midnightblue" points="312.347,-196.286 322.19,-200.206 316.94,-191.003 312.347,-196.286"/>
</g>
<!-- Node45 -->
<g id="node6" class="node"><title>Node45</title>
<g id="a_node6"><a xlink:href="../../d0/d7e/LeastSquares_8hpp.html#abc455a395ab6414f5312b56e5b479195" target="_top" xlink:title=" ">
<polygon fill="white" stroke="black" points="322.5,-86.5 322.5,-105.5 351.5,-105.5 351.5,-86.5 322.5,-86.5"/>
<text text-anchor="middle" x="337" y="-93.5" font-family="Helvetica,sans-Serif" font-size="10.00">inv</text>
</a>
</g>
</g>
<!-- Node42&#45;&gt;Node45 -->
<g id="edge5" class="edge"><title>Node42&#45;&gt;Node45</title>
<path fill="none" stroke="midnightblue" d="M276.099,-110.877C286.731,-108.237 300.69,-104.77 312.458,-101.847"/>
<polygon fill="midnightblue" stroke="midnightblue" points="313.63,-105.162 322.491,-99.3551 311.942,-98.3688 313.63,-105.162"/>
</g>
<!-- Node55 -->
<g id="node16" class="node"><title>Node55</title>
<g id="a_node16"><a xlink:href="../../d1/d8b/DLQR_8hpp.html#addc7ce42a0a635b8c6b85cce35a63565" target="_top" xlink:title=" ">
<polygon fill="white" stroke="black" points="312,-162.5 312,-181.5 362,-181.5 362,-162.5 312,-162.5"/>
<text text-anchor="middle" x="337" y="-169.5" font-family="Helvetica,sans-Serif" font-size="10.00">balance</text>
</a>
</g>
</g>
<!-- Node42&#45;&gt;Node55 -->
<g id="edge16" class="edge"><title>Node42&#45;&gt;Node55</title>
<path fill="none" stroke="midnightblue" d="M272.477,-124.669C284.087,-133.32 301.319,-146.159 314.907,-156.284"/>
<polygon fill="midnightblue" stroke="midnightblue" points="313.104,-159.305 323.214,-162.474 317.287,-153.692 313.104,-159.305"/>
</g>
<!-- Node57 -->
<g id="node18" class="node"><title>Node57</title>
<g id="a_node18"><a xlink:href="../../d1/d8b/DLQR_8hpp.html#a1aef813db920b8197c070b00d9e6ec90" target="_top" xlink:title=" ">
<polygon fill="white" stroke="black" points="318,-124.5 318,-143.5 356,-143.5 356,-124.5 318,-124.5"/>
<text text-anchor="middle" x="337" y="-131.5" font-family="Helvetica,sans-Serif" font-size="10.00">qz_Z</text>
</a>
</g>
</g>
<!-- Node42&#45;&gt;Node57 -->
<g id="edge18" class="edge"><title>Node42&#45;&gt;Node57</title>
<path fill="none" stroke="midnightblue" d="M276.099,-119.123C285.424,-121.439 297.307,-124.39 308.028,-127.053"/>
<polygon fill="midnightblue" stroke="midnightblue" points="307.279,-130.473 317.828,-129.487 308.967,-123.679 307.279,-130.473"/>
</g>
<!-- Node45&#45;&gt;Node46 -->
<g id="edge6" class="edge"><title>Node45&#45;&gt;Node46</title>
<path fill="none" stroke="midnightblue" d="M350.843,-86.111C354.492,-83.2265 358.441,-80.0334 362,-77 378.52,-62.9213 380.07,-56.2323 398,-44 403.113,-40.5117 408.808,-37.2405 414.456,-34.3028"/>
<polygon fill="midnightblue" stroke="midnightblue" points="416.381,-37.2558 423.803,-29.6945 413.286,-30.9774 416.381,-37.2558"/>
</g>
<!-- Node47 -->
<g id="node8" class="node"><title>Node47</title>
<g id="a_node8"><a xlink:href="../../d9/d52/HouseholderQR_8hpp.html#a16f7547f23439d1eda0fcbde69451ef9" target="_top" xlink:title=" ">
<polygon fill="white" stroke="black" points="545.5,-86.5 545.5,-105.5 629.5,-105.5 629.5,-86.5 545.5,-86.5"/>
<text text-anchor="middle" x="587.5" y="-93.5" font-family="Helvetica,sans-Serif" font-size="10.00">householderQR</text>
</a>
</g>
</g>
<!-- Node46&#45;&gt;Node47 -->
<g id="edge7" class="edge"><title>Node46&#45;&gt;Node47</title>
<path fill="none" stroke="midnightblue" d="M461.364,-29.7087C477.402,-41.9605 506.58,-63.1071 534,-77 538.049,-79.0516 542.373,-80.9883 546.737,-82.7836"/>
<polygon fill="midnightblue" stroke="midnightblue" points="545.671,-86.1243 556.26,-86.4776 548.203,-79.5981 545.671,-86.1243"/>
</g>
<!-- Node51 -->
<g id="node12" class="node"><title>Node51</title>
<g id="a_node12"><a xlink:href="../../de/d76/Array_8hpp.html#a8210ee35a21cf8114e4f40920a6e0abf" target="_top" xlink:title=" ">
<polygon fill="white" stroke="black" points="678.5,-19.5 678.5,-38.5 713.5,-38.5 713.5,-19.5 678.5,-19.5"/>
<text text-anchor="middle" x="696" y="-26.5" font-family="Helvetica,sans-Serif" font-size="10.00">sum</text>
</a>
</g>
</g>
<!-- Node46&#45;&gt;Node51 -->
<g id="edge15" class="edge"><title>Node46&#45;&gt;Node51</title>
<path fill="none" stroke="midnightblue" d="M498.191,-21.7997C549.309,-23.6698 627.416,-26.5274 668.159,-28.018"/>
<polygon fill="midnightblue" stroke="midnightblue" points="668.252,-31.5237 678.374,-28.3917 668.508,-24.5284 668.252,-31.5237"/>
</g>
<!-- Node54 -->
<g id="node15" class="node"><title>Node54</title>
<g id="a_node15"><a xlink:href="../../da/d0b/structQR.html#a8001dce66a751b468c5ae4b85d964ff2" target="_top" xlink:title=" ">
<polygon fill="white" stroke="black" points="534,-48.5 534,-67.5 641,-67.5 641,-48.5 534,-48.5"/>
<text text-anchor="middle" x="587.5" y="-55.5" font-family="Helvetica,sans-Serif" font-size="10.00">QR::applyTranspose</text>
</a>
</g>
</g>
<!-- Node46&#45;&gt;Node54 -->
<g id="edge14" class="edge"><title>Node46&#45;&gt;Node54</title>
<path fill="none" stroke="midnightblue" d="M483.697,-29.589C501.366,-34.4719 523.049,-40.4643 541.939,-45.685"/>
<polygon fill="midnightblue" stroke="midnightblue" points="541.243,-49.1238 551.814,-48.4141 543.108,-42.3767 541.243,-49.1238"/>
</g>
<!-- Node48 -->
<g id="node9" class="node"><title>Node48</title>
<g id="a_node9"><a xlink:href="../../d9/d1c/Matrix_8hpp.html#af6752e536d7af62cde48d70f45309a2c" target="_top" xlink:title=" ">
<polygon fill="white" stroke="black" points="677,-114.5 677,-133.5 715,-133.5 715,-114.5 677,-114.5"/>
<text text-anchor="middle" x="696" y="-121.5" font-family="Helvetica,sans-Serif" font-size="10.00">norm</text>
</a>
</g>
</g>
<!-- Node47&#45;&gt;Node48 -->
<g id="edge8" class="edge"><title>Node47&#45;&gt;Node48</title>
<path fill="none" stroke="midnightblue" d="M624.853,-105.558C638.642,-109.183 654.117,-113.251 667.017,-116.643"/>
<polygon fill="midnightblue" stroke="midnightblue" points="666.168,-120.039 676.729,-119.196 667.948,-113.269 666.168,-120.039"/>
</g>
<!-- Node50 -->
<g id="node11" class="node"><title>Node50</title>
<g id="a_node11"><a xlink:href="../../d9/d52/HouseholderQR_8hpp.html#ae91f1ecebb987562f092671e0cb75c40" target="_top" xlink:title=" ">
<polygon fill="white" stroke="black" points="678.5,-76.5 678.5,-95.5 713.5,-95.5 713.5,-76.5 678.5,-76.5"/>
<text text-anchor="middle" x="696" y="-83.5" font-family="Helvetica,sans-Serif" font-size="10.00">sign</text>
</a>
</g>
</g>
<!-- Node47&#45;&gt;Node50 -->
<g id="edge10" class="edge"><title>Node47&#45;&gt;Node50</title>
<path fill="none" stroke="midnightblue" d="M629.676,-92.1337C642.672,-90.9134 656.681,-89.598 668.381,-88.4995"/>
<polygon fill="midnightblue" stroke="midnightblue" points="668.751,-91.9801 678.38,-87.5605 668.097,-85.0108 668.751,-91.9801"/>
</g>
<!-- Node47&#45;&gt;Node51 -->
<g id="edge11" class="edge"><title>Node47&#45;&gt;Node51</title>
<path fill="none" stroke="midnightblue" d="M621.03,-86.4082C627.85,-83.8045 634.836,-80.669 641,-77 655.118,-68.596 668.925,-56.2258 679.044,-46.1483"/>
<polygon fill="midnightblue" stroke="midnightblue" points="681.845,-48.2882 686.304,-38.6773 676.825,-43.4099 681.845,-48.2882"/>
</g>
<!-- Node49 -->
<g id="node10" class="node"><title>Node49</title>
<g id="a_node10"><a xlink:href="../../d9/d1c/Matrix_8hpp.html#a49ccaf0f0f1746a2824dc79538165c9c" target="_top" xlink:title=" ">
<polygon fill="white" stroke="black" points="761,-114.5 761,-133.5 810,-133.5 810,-114.5 761,-114.5"/>
<text text-anchor="middle" x="785.5" y="-121.5" font-family="Helvetica,sans-Serif" font-size="10.00">normsq</text>
</a>
</g>
</g>
<!-- Node48&#45;&gt;Node49 -->
<g id="edge9" class="edge"><title>Node48&#45;&gt;Node49</title>
<path fill="none" stroke="midnightblue" d="M715.13,-124C725.351,-124 738.453,-124 750.512,-124"/>
<polygon fill="midnightblue" stroke="midnightblue" points="750.742,-127.5 760.742,-124 750.742,-120.5 750.742,-127.5"/>
</g>
<!-- Node52 -->
<g id="node13" class="node"><title>Node52</title>
<g id="a_node13"><a xlink:href="../../d7/d6a/structArray.html#a9e1b59b422182878c7909c6ca7bfa430" target="_top" xlink:title=" ">
<polygon fill="white" stroke="black" points="751,-0.5 751,-19.5 820,-19.5 820,-0.5 751,-0.5"/>
<text text-anchor="middle" x="785.5" y="-7.5" font-family="Helvetica,sans-Serif" font-size="10.00">Array::begin</text>
</a>
</g>
</g>
<!-- Node51&#45;&gt;Node52 -->
<g id="edge12" class="edge"><title>Node51&#45;&gt;Node52</title>
<path fill="none" stroke="midnightblue" d="M713.871,-25.3366C721.611,-23.6559 731.184,-21.5772 740.756,-19.4987"/>
<polygon fill="midnightblue" stroke="midnightblue" points="741.625,-22.8916 750.655,-17.3493 740.14,-16.0511 741.625,-22.8916"/>
</g>
<!-- Node53 -->
<g id="node14" class="node"><title>Node53</title>
<g id="a_node14"><a xlink:href="../../d7/d6a/structArray.html#ab2762fef4f8caa072636dde951d90702" target="_top" xlink:title=" ">
<polygon fill="white" stroke="black" points="754.5,-38.5 754.5,-57.5 816.5,-57.5 816.5,-38.5 754.5,-38.5"/>
<text text-anchor="middle" x="785.5" y="-45.5" font-family="Helvetica,sans-Serif" font-size="10.00">Array::end</text>
</a>
</g>
</g>
<!-- Node51&#45;&gt;Node53 -->
<g id="edge13" class="edge"><title>Node51&#45;&gt;Node53</title>
<path fill="none" stroke="midnightblue" d="M713.871,-32.6634C722.527,-34.5429 733.474,-36.9201 744.15,-39.2383"/>
<polygon fill="midnightblue" stroke="midnightblue" points="743.704,-42.7229 754.219,-41.4247 745.189,-35.8823 743.704,-42.7229"/>
</g>
<!-- Node56 -->
<g id="node17" class="node"><title>Node56</title>
<g id="a_node17"><a xlink:href="../../d9/d1c/Matrix_8hpp.html#a41e84f690cb186f410d21dda49afb8fb" target="_top" xlink:title="Get a raw pointer to the internal buffer of the matrix.">
<polygon fill="white" stroke="black" points="408.5,-162.5 408.5,-181.5 487.5,-181.5 487.5,-162.5 408.5,-162.5"/>
<text text-anchor="middle" x="448" y="-169.5" font-family="Helvetica,sans-Serif" font-size="10.00">toArrayPointer</text>
</a>
</g>
</g>
<!-- Node55&#45;&gt;Node56 -->
<g id="edge17" class="edge"><title>Node55&#45;&gt;Node56</title>
<path fill="none" stroke="midnightblue" d="M362.191,-172C372.775,-172 385.595,-172 398.027,-172"/>
<polygon fill="midnightblue" stroke="midnightblue" points="398.321,-175.5 408.321,-172 398.321,-168.5 398.321,-175.5"/>
</g>
<!-- Node57&#45;&gt;Node47 -->
<g id="edge20" class="edge"><title>Node57&#45;&gt;Node47</title>
<path fill="none" stroke="midnightblue" d="M356.122,-127.184C367.894,-123.027 383.661,-117.96 398,-115 443.786,-105.549 496.838,-100.735 534.973,-98.3234"/>
<polygon fill="midnightblue" stroke="midnightblue" points="535.542,-101.796 545.316,-97.7049 535.124,-94.8082 535.542,-101.796"/>
</g>
<!-- Node57&#45;&gt;Node54 -->
<g id="edge21" class="edge"><title>Node57&#45;&gt;Node54</title>
<path fill="none" stroke="midnightblue" d="M350.644,-124.374C362.331,-115.936 380.486,-103.961 398,-97 438.31,-80.9792 486.201,-71.1784 523.624,-65.4088"/>
<polygon fill="midnightblue" stroke="midnightblue" points="524.508,-68.816 533.886,-63.8865 523.481,-61.8918 524.508,-68.816"/>
</g>
<!-- Node57&#45;&gt;Node56 -->
<g id="edge19" class="edge"><title>Node57&#45;&gt;Node56</title>
<path fill="none" stroke="midnightblue" d="M356.49,-140.446C371.045,-145.52 391.801,-152.756 409.766,-159.019"/>
<polygon fill="midnightblue" stroke="midnightblue" points="408.807,-162.392 419.402,-162.379 411.112,-155.782 408.807,-162.392"/>
</g>
<!-- Node58 -->
<g id="node19" class="node"><title>Node58</title>
<g id="a_node19"><a xlink:href="../../da/d0b/structQR.html#a32582d3e86096bc0ae8294798455116b" target="_top" xlink:title=" ">
<polygon fill="white" stroke="black" points="425.5,-124.5 425.5,-143.5 470.5,-143.5 470.5,-124.5 425.5,-124.5"/>
<text text-anchor="middle" x="448" y="-131.5" font-family="Helvetica,sans-Serif" font-size="10.00">QR::Q</text>
</a>
</g>
</g>
<!-- Node57&#45;&gt;Node58 -->
<g id="edge22" class="edge"><title>Node57&#45;&gt;Node58</title>
<path fill="none" stroke="midnightblue" d="M356.49,-134C372.582,-134 396.255,-134 415.355,-134"/>
<polygon fill="midnightblue" stroke="midnightblue" points="415.418,-137.5 425.418,-134 415.418,-130.5 415.418,-137.5"/>
</g>
<!-- Node59 -->
<g id="node20" class="node"><title>Node59</title>
<g id="a_node20"><a xlink:href="../../da/d0b/structQR.html#aa61fe3635ba82acfc32da54920b79309" target="_top" xlink:title=" ">
<polygon fill="white" stroke="black" points="557,-124.5 557,-143.5 618,-143.5 618,-124.5 557,-124.5"/>
<text text-anchor="middle" x="587.5" y="-131.5" font-family="Helvetica,sans-Serif" font-size="10.00">QR::apply</text>
</a>
</g>
</g>
<!-- Node58&#45;&gt;Node59 -->
<g id="edge23" class="edge"><title>Node58&#45;&gt;Node59</title>
<path fill="none" stroke="midnightblue" d="M470.787,-134C491.129,-134 521.978,-134 546.709,-134"/>
<polygon fill="midnightblue" stroke="midnightblue" points="546.885,-137.5 556.885,-134 546.885,-130.5 546.885,-137.5"/>
</g>
</g>
</svg>
