<?xml version="1.0" encoding="UTF-8" standalone="no"?>
<!DOCTYPE svg PUBLIC "-//W3C//DTD SVG 1.1//EN"
 "http://www.w3.org/Graphics/SVG/1.1/DTD/svg11.dtd">
<!-- Generated by graphviz version 2.38.0 (20140413.2041)
 -->
<!-- Title: Drone::getClampedDiscreteController Pages: 1 -->
<svg width="1440pt" height="268pt"
 viewBox="0.00 0.00 1440.00 267.50" xmlns="http://www.w3.org/2000/svg" xmlns:xlink="http://www.w3.org/1999/xlink">
<g id="graph0" class="graph" transform="scale(1 1) rotate(0) translate(4 263.5)">
<title>Drone::getClampedDiscreteController</title>
<polygon fill="white" stroke="none" points="-4,4 -4,-263.5 1436,-263.5 1436,4 -4,4"/>
<!-- Node22 -->
<g id="node1" class="node"><title>Node22</title>
<g id="a_node1"><a xlink:title="TODO.">
<polygon fill="#bfbfbf" stroke="black" points="0,-163 0,-193 138,-193 138,-163 0,-163"/>
<text text-anchor="start" x="8" y="-181" font-family="Helvetica,sans-Serif" font-size="10.00">Drone::getClampedDiscrete</text>
<text text-anchor="middle" x="69" y="-170" font-family="Helvetica,sans-Serif" font-size="10.00">Controller</text>
</a>
</g>
</g>
<!-- Node23 -->
<g id="node2" class="node"><title>Node23</title>
<g id="a_node2"><a xlink:href="../../dd/d92/structDrone.html#aacb3333f307540c512124a507b03944b" target="_top" xlink:title="TODO.">
<polygon fill="white" stroke="black" points="174,-168.5 174,-187.5 315,-187.5 315,-168.5 174,-168.5"/>
<text text-anchor="middle" x="244.5" y="-175.5" font-family="Helvetica,sans-Serif" font-size="10.00">Drone::getDiscreteController</text>
</a>
</g>
</g>
<!-- Node22&#45;&gt;Node23 -->
<g id="edge1" class="edge"><title>Node22&#45;&gt;Node23</title>
<path fill="none" stroke="midnightblue" d="M138.074,-178C146.535,-178 155.245,-178 163.861,-178"/>
<polygon fill="midnightblue" stroke="midnightblue" points="163.911,-181.5 173.911,-178 163.911,-174.5 163.911,-181.5"/>
</g>
<!-- Node24 -->
<g id="node3" class="node"><title>Node24</title>
<g id="a_node3"><a xlink:href="../../dd/d92/structDrone.html#a07a900ca13005cc5e312b571b4f235f5" target="_top" xlink:title="TODO.">
<polygon fill="white" stroke="black" points="351,-163 351,-193 489,-193 489,-163 351,-163"/>
<text text-anchor="start" x="359" y="-181" font-family="Helvetica,sans-Serif" font-size="10.00">Drone::getReducedDiscrete</text>
<text text-anchor="middle" x="420" y="-170" font-family="Helvetica,sans-Serif" font-size="10.00">ControllerMatrixK</text>
</a>
</g>
</g>
<!-- Node23&#45;&gt;Node24 -->
<g id="edge2" class="edge"><title>Node23&#45;&gt;Node24</title>
<path fill="none" stroke="midnightblue" d="M315.069,-178C323.539,-178 332.237,-178 340.822,-178"/>
<polygon fill="midnightblue" stroke="midnightblue" points="340.827,-181.5 350.827,-178 340.827,-174.5 340.827,-181.5"/>
</g>
<!-- Node26 -->
<g id="node5" class="node"><title>Node26</title>
<g id="a_node5"><a xlink:href="../../dd/d92/structDrone.html#a28a986fa593f97576b8a94f4f85cc84b" target="_top" xlink:title="Get a discrete&#45;time system representing the drone, a discretized version of getLinearFullContinuousSy...">
<polygon fill="white" stroke="black" points="725,-229 725,-259 866,-259 866,-229 725,-229"/>
<text text-anchor="start" x="733" y="-247" font-family="Helvetica,sans-Serif" font-size="10.00">Drone::getLinearFullDiscrete</text>
<text text-anchor="middle" x="795.5" y="-236" font-family="Helvetica,sans-Serif" font-size="10.00">System</text>
</a>
</g>
</g>
<!-- Node23&#45;&gt;Node26 -->
<g id="edge24" class="edge"><title>Node23&#45;&gt;Node26</title>
<path fill="none" stroke="midnightblue" d="M283.407,-187.569C303.414,-192.379 328.433,-198.016 351,-202 477.14,-224.267 625.689,-235.301 714.859,-240.318"/>
<polygon fill="midnightblue" stroke="midnightblue" points="714.722,-243.815 724.899,-240.871 715.107,-236.826 714.722,-243.815"/>
</g>
<!-- Node31 -->
<g id="node10" class="node"><title>Node31</title>
<g id="a_node10"><a xlink:href="../../d9/d1c/Matrix_8hpp.html#a07bcc0ebfb2b3a118a99ea9b418fa8ec" target="_top" xlink:title=" ">
<polygon fill="white" stroke="black" points="961.5,-0.5 961.5,-19.5 996.5,-19.5 996.5,-0.5 961.5,-0.5"/>
<text text-anchor="middle" x="979" y="-7.5" font-family="Helvetica,sans-Serif" font-size="10.00">hcat</text>
</a>
</g>
</g>
<!-- Node23&#45;&gt;Node31 -->
<g id="edge23" class="edge"><title>Node23&#45;&gt;Node31</title>
<path fill="none" stroke="midnightblue" d="M285.559,-168.423C305.261,-163.735 329.366,-158.03 351,-153 583.277,-98.9923 864.428,-35.5604 951.204,-16.0264"/>
<polygon fill="midnightblue" stroke="midnightblue" points="952.042,-19.4254 961.03,-13.8151 950.505,-12.5961 952.042,-19.4254"/>
</g>
<!-- Node25 -->
<g id="node4" class="node"><title>Node25</title>
<g id="a_node4"><a xlink:href="../../dd/d92/structDrone.html#a1a308cb44334d2f0c61861a681eb0652" target="_top" xlink:title="Get a reduced discrete&#45;time system representing the drone, linearized around the equilibrium ,...">
<polygon fill="white" stroke="black" points="525,-185 525,-215 689,-215 689,-185 525,-185"/>
<text text-anchor="start" x="533" y="-203" font-family="Helvetica,sans-Serif" font-size="10.00">Drone::getLinearReducedDiscrete</text>
<text text-anchor="middle" x="607" y="-192" font-family="Helvetica,sans-Serif" font-size="10.00">System</text>
</a>
</g>
</g>
<!-- Node24&#45;&gt;Node25 -->
<g id="edge3" class="edge"><title>Node24&#45;&gt;Node25</title>
<path fill="none" stroke="midnightblue" d="M489.099,-186.098C497.467,-187.093 506.121,-188.123 514.761,-189.15"/>
<polygon fill="midnightblue" stroke="midnightblue" points="514.536,-192.648 524.879,-190.353 515.362,-185.697 514.536,-192.648"/>
</g>
<!-- Node28 -->
<g id="node7" class="node"><title>Node28</title>
<g id="a_node7"><a xlink:href="../../d1/d8b/DLQR_8hpp.html#ab8dcb1e59c9dc36c588cd927e69ebfbf" target="_top" xlink:title=" ">
<polygon fill="white" stroke="black" points="591,-146.5 591,-165.5 623,-165.5 623,-146.5 591,-146.5"/>
<text text-anchor="middle" x="607" y="-153.5" font-family="Helvetica,sans-Serif" font-size="10.00">dlqr</text>
</a>
</g>
</g>
<!-- Node24&#45;&gt;Node28 -->
<g id="edge6" class="edge"><title>Node24&#45;&gt;Node28</title>
<path fill="none" stroke="midnightblue" d="M489.099,-169.902C520.94,-166.115 556.935,-161.835 580.468,-159.036"/>
<polygon fill="midnightblue" stroke="midnightblue" points="581.128,-162.483 590.645,-157.826 580.301,-155.531 581.128,-162.483"/>
</g>
<!-- Node25&#45;&gt;Node26 -->
<g id="edge4" class="edge"><title>Node25&#45;&gt;Node26</title>
<path fill="none" stroke="midnightblue" d="M671.661,-215.019C687.478,-218.751 704.562,-222.781 720.815,-226.616"/>
<polygon fill="midnightblue" stroke="midnightblue" points="720.273,-230.084 730.809,-228.974 721.88,-223.271 720.273,-230.084"/>
</g>
<!-- Node27 -->
<g id="node6" class="node"><title>Node27</title>
<g id="a_node6"><a xlink:href="../../dd/d92/structDrone.html#afacf349a70bb159dc441638aa9c1dc61" target="_top" xlink:title="Get a continuous&#45;time system representing the drone, linearized around the equilibrium .">
<polygon fill="white" stroke="black" points="902,-229 902,-259 1056,-259 1056,-229 902,-229"/>
<text text-anchor="start" x="910" y="-247" font-family="Helvetica,sans-Serif" font-size="10.00">Drone::getLinearFullContinuous</text>
<text text-anchor="middle" x="979" y="-236" font-family="Helvetica,sans-Serif" font-size="10.00">System</text>
</a>
</g>
</g>
<!-- Node26&#45;&gt;Node27 -->
<g id="edge5" class="edge"><title>Node26&#45;&gt;Node27</title>
<path fill="none" stroke="midnightblue" d="M866.154,-244C874.56,-244 883.223,-244 891.83,-244"/>
<polygon fill="midnightblue" stroke="midnightblue" points="891.89,-247.5 901.89,-244 891.89,-240.5 891.89,-247.5"/>
</g>
<!-- Node29 -->
<g id="node8" class="node"><title>Node29</title>
<g id="a_node8"><a xlink:href="../../d1/d8b/DLQR_8hpp.html#a8b2180fee16d2b9e2d195b6ea4805c99" target="_top" xlink:title=" ">
<polygon fill="white" stroke="black" points="778,-95.5 778,-114.5 813,-114.5 813,-95.5 778,-95.5"/>
<text text-anchor="middle" x="795.5" y="-102.5" font-family="Helvetica,sans-Serif" font-size="10.00">dare</text>
</a>
</g>
</g>
<!-- Node28&#45;&gt;Node29 -->
<g id="edge7" class="edge"><title>Node28&#45;&gt;Node29</title>
<path fill="none" stroke="midnightblue" d="M623.262,-151.826C655.046,-143.135 728.662,-123.004 768.226,-112.185"/>
<polygon fill="midnightblue" stroke="midnightblue" points="769.24,-115.536 777.962,-109.522 767.393,-108.784 769.24,-115.536"/>
</g>
<!-- Node33 -->
<g id="node12" class="node"><title>Node33</title>
<g id="a_node12"><a xlink:href="../../d0/d7e/LeastSquares_8hpp.html#a3e86962f655361a684f770b14c9fe1e2" target="_top" xlink:title=" ">
<polygon fill="white" stroke="black" points="1092,-76.5 1092,-95.5 1192,-95.5 1192,-76.5 1092,-76.5"/>
<text text-anchor="middle" x="1142" y="-83.5" font-family="Helvetica,sans-Serif" font-size="10.00">solveLeastSquares</text>
</a>
</g>
</g>
<!-- Node28&#45;&gt;Node33 -->
<g id="edge22" class="edge"><title>Node28&#45;&gt;Node33</title>
<path fill="none" stroke="midnightblue" d="M623.054,-158.664C691.822,-170.557 976.174,-216.691 1056,-181 1091,-165.35 1117.56,-127.372 1131.07,-104.456"/>
<polygon fill="midnightblue" stroke="midnightblue" points="1134.17,-106.092 1136.05,-95.6653 1128.07,-102.642 1134.17,-106.092"/>
</g>
<!-- Node30 -->
<g id="node9" class="node"><title>Node30</title>
<g id="a_node9"><a xlink:href="../../d9/d1c/Matrix_8hpp.html#af15e4f88d4e60baf25c17dcbb90542a3" target="_top" xlink:title=" ">
<polygon fill="white" stroke="black" points="961.5,-114.5 961.5,-133.5 996.5,-133.5 996.5,-114.5 961.5,-114.5"/>
<text text-anchor="middle" x="979" y="-121.5" font-family="Helvetica,sans-Serif" font-size="10.00">vcat</text>
</a>
</g>
</g>
<!-- Node29&#45;&gt;Node30 -->
<g id="edge8" class="edge"><title>Node29&#45;&gt;Node30</title>
<path fill="none" stroke="midnightblue" d="M813.25,-106.753C844.72,-110.048 912.925,-117.188 950.97,-121.17"/>
<polygon fill="midnightblue" stroke="midnightblue" points="950.981,-124.691 961.291,-122.251 951.71,-117.729 950.981,-124.691"/>
</g>
<!-- Node29&#45;&gt;Node31 -->
<g id="edge9" class="edge"><title>Node29&#45;&gt;Node31</title>
<path fill="none" stroke="midnightblue" d="M808.158,-95.4959C826.914,-80.5997 865.406,-51.6373 902,-34 917.747,-26.4103 936.461,-20.4666 951.378,-16.3928"/>
<polygon fill="midnightblue" stroke="midnightblue" points="952.68,-19.6705 961.473,-13.76 950.913,-12.8971 952.68,-19.6705"/>
</g>
<!-- Node32 -->
<g id="node11" class="node"><title>Node32</title>
<g id="a_node11"><a xlink:href="../../d0/d7e/LeastSquares_8hpp.html#abc455a395ab6414f5312b56e5b479195" target="_top" xlink:title=" ">
<polygon fill="white" stroke="black" points="964.5,-76.5 964.5,-95.5 993.5,-95.5 993.5,-76.5 964.5,-76.5"/>
<text text-anchor="middle" x="979" y="-83.5" font-family="Helvetica,sans-Serif" font-size="10.00">inv</text>
</a>
</g>
</g>
<!-- Node29&#45;&gt;Node32 -->
<g id="edge10" class="edge"><title>Node29&#45;&gt;Node32</title>
<path fill="none" stroke="midnightblue" d="M813.25,-103.247C845.678,-99.8519 917.114,-92.3737 954.361,-88.4746"/>
<polygon fill="midnightblue" stroke="midnightblue" points="954.74,-91.9542 964.321,-87.432 954.011,-84.9922 954.74,-91.9542"/>
</g>
<!-- Node38 -->
<g id="node17" class="node"><title>Node38</title>
<g id="a_node17"><a xlink:href="../../d1/d8b/DLQR_8hpp.html#addc7ce42a0a635b8c6b85cce35a63565" target="_top" xlink:title=" ">
<polygon fill="white" stroke="black" points="954,-152.5 954,-171.5 1004,-171.5 1004,-152.5 954,-152.5"/>
<text text-anchor="middle" x="979" y="-159.5" font-family="Helvetica,sans-Serif" font-size="10.00">balance</text>
</a>
</g>
</g>
<!-- Node29&#45;&gt;Node38 -->
<g id="edge16" class="edge"><title>Node29&#45;&gt;Node38</title>
<path fill="none" stroke="midnightblue" d="M813.135,-111.581C833.778,-119.61 870.151,-133.31 902,-143 915.552,-147.123 930.658,-151.037 943.809,-154.228"/>
<polygon fill="midnightblue" stroke="midnightblue" points="943.331,-157.712 953.87,-156.623 944.952,-150.902 943.331,-157.712"/>
</g>
<!-- Node39 -->
<g id="node18" class="node"><title>Node39</title>
<g id="a_node18"><a xlink:href="../../d1/d8b/DLQR_8hpp.html#a1aef813db920b8197c070b00d9e6ec90" target="_top" xlink:title=" ">
<polygon fill="white" stroke="black" points="1123,-38.5 1123,-57.5 1161,-57.5 1161,-38.5 1123,-38.5"/>
<text text-anchor="middle" x="1142" y="-45.5" font-family="Helvetica,sans-Serif" font-size="10.00">qz_Z</text>
</a>
</g>
</g>
<!-- Node29&#45;&gt;Node39 -->
<g id="edge17" class="edge"><title>Node29&#45;&gt;Node39</title>
<path fill="none" stroke="midnightblue" d="M813.266,-97.3794C833.741,-88.4475 869.649,-73.9808 902,-67 976.801,-50.8591 1067.42,-48.1022 1112.57,-47.8305"/>
<polygon fill="midnightblue" stroke="midnightblue" points="1112.78,-51.3301 1122.77,-47.8078 1112.76,-44.3301 1112.78,-51.3301"/>
</g>
<!-- Node32&#45;&gt;Node33 -->
<g id="edge11" class="edge"><title>Node32&#45;&gt;Node33</title>
<path fill="none" stroke="midnightblue" d="M993.727,-86C1013.15,-86 1049.83,-86 1081.73,-86"/>
<polygon fill="midnightblue" stroke="midnightblue" points="1081.88,-89.5001 1091.88,-86 1081.88,-82.5001 1081.88,-89.5001"/>
</g>
<!-- Node34 -->
<g id="node13" class="node"><title>Node34</title>
<g id="a_node13"><a xlink:href="../../d9/d52/HouseholderQR_8hpp.html#a16f7547f23439d1eda0fcbde69451ef9" target="_top" xlink:title=" ">
<polygon fill="white" stroke="black" points="1239.5,-76.5 1239.5,-95.5 1323.5,-95.5 1323.5,-76.5 1239.5,-76.5"/>
<text text-anchor="middle" x="1281.5" y="-83.5" font-family="Helvetica,sans-Serif" font-size="10.00">householderQR</text>
</a>
</g>
</g>
<!-- Node33&#45;&gt;Node34 -->
<g id="edge12" class="edge"><title>Node33&#45;&gt;Node34</title>
<path fill="none" stroke="midnightblue" d="M1192.25,-86C1204.17,-86 1216.94,-86 1228.97,-86"/>
<polygon fill="midnightblue" stroke="midnightblue" points="1229.3,-89.5001 1239.3,-86 1229.3,-82.5001 1229.3,-89.5001"/>
</g>
<!-- Node37 -->
<g id="node16" class="node"><title>Node37</title>
<g id="a_node16"><a xlink:href="../../da/d0b/structQR.html#a8001dce66a751b468c5ae4b85d964ff2" target="_top" xlink:title=" ">
<polygon fill="white" stroke="black" points="1228,-38.5 1228,-57.5 1335,-57.5 1335,-38.5 1228,-38.5"/>
<text text-anchor="middle" x="1281.5" y="-45.5" font-family="Helvetica,sans-Serif" font-size="10.00">QR::applyTranspose</text>
</a>
</g>
</g>
<!-- Node33&#45;&gt;Node37 -->
<g id="edge15" class="edge"><title>Node33&#45;&gt;Node37</title>
<path fill="none" stroke="midnightblue" d="M1177.7,-76.411C1195.37,-71.5281 1217.05,-65.5357 1235.94,-60.315"/>
<polygon fill="midnightblue" stroke="midnightblue" points="1237.11,-63.6233 1245.81,-57.5859 1235.24,-56.8762 1237.11,-63.6233"/>
</g>
<!-- Node35 -->
<g id="node14" class="node"><title>Node35</title>
<g id="a_node14"><a xlink:href="../../d9/d1c/Matrix_8hpp.html#af6752e536d7af62cde48d70f45309a2c" target="_top" xlink:title=" ">
<polygon fill="white" stroke="black" points="1382.5,-95.5 1382.5,-114.5 1420.5,-114.5 1420.5,-95.5 1382.5,-95.5"/>
<text text-anchor="middle" x="1401.5" y="-102.5" font-family="Helvetica,sans-Serif" font-size="10.00">norm</text>
</a>
</g>
</g>
<!-- Node34&#45;&gt;Node35 -->
<g id="edge13" class="edge"><title>Node34&#45;&gt;Node35</title>
<path fill="none" stroke="midnightblue" d="M1323.77,-92.6453C1339.92,-95.2459 1358.03,-98.1611 1372.59,-100.506"/>
<polygon fill="midnightblue" stroke="midnightblue" points="1372.06,-103.966 1382.49,-102.101 1373.18,-97.0555 1372.06,-103.966"/>
</g>
<!-- Node36 -->
<g id="node15" class="node"><title>Node36</title>
<g id="a_node15"><a xlink:href="../../d9/d52/HouseholderQR_8hpp.html#ae91f1ecebb987562f092671e0cb75c40" target="_top" xlink:title=" ">
<polygon fill="white" stroke="black" points="1384,-57.5 1384,-76.5 1419,-76.5 1419,-57.5 1384,-57.5"/>
<text text-anchor="middle" x="1401.5" y="-64.5" font-family="Helvetica,sans-Serif" font-size="10.00">sign</text>
</a>
</g>
</g>
<!-- Node34&#45;&gt;Node36 -->
<g id="edge14" class="edge"><title>Node34&#45;&gt;Node36</title>
<path fill="none" stroke="midnightblue" d="M1323.77,-79.3547C1340.35,-76.6853 1358.99,-73.6843 1373.74,-71.3085"/>
<polygon fill="midnightblue" stroke="midnightblue" points="1374.4,-74.748 1383.71,-69.7027 1373.29,-67.837 1374.4,-74.748"/>
</g>
<!-- Node39&#45;&gt;Node34 -->
<g id="edge18" class="edge"><title>Node39&#45;&gt;Node34</title>
<path fill="none" stroke="midnightblue" d="M1161.26,-53.0461C1180.28,-58.3039 1210.81,-66.739 1236.21,-73.7587"/>
<polygon fill="midnightblue" stroke="midnightblue" points="1235.44,-77.1783 1246.01,-76.4687 1237.31,-70.4313 1235.44,-77.1783"/>
</g>
<!-- Node39&#45;&gt;Node37 -->
<g id="edge19" class="edge"><title>Node39&#45;&gt;Node37</title>
<path fill="none" stroke="midnightblue" d="M1161.26,-48C1175.82,-48 1197.13,-48 1217.71,-48"/>
<polygon fill="midnightblue" stroke="midnightblue" points="1217.73,-51.5001 1227.73,-48 1217.73,-44.5001 1217.73,-51.5001"/>
</g>
<!-- Node40 -->
<g id="node19" class="node"><title>Node40</title>
<g id="a_node19"><a xlink:href="../../da/d0b/structQR.html#a32582d3e86096bc0ae8294798455116b" target="_top" xlink:title=" ">
<polygon fill="white" stroke="black" points="1259,-0.5 1259,-19.5 1304,-19.5 1304,-0.5 1259,-0.5"/>
<text text-anchor="middle" x="1281.5" y="-7.5" font-family="Helvetica,sans-Serif" font-size="10.00">QR::Q</text>
</a>
</g>
</g>
<!-- Node39&#45;&gt;Node40 -->
<g id="edge20" class="edge"><title>Node39&#45;&gt;Node40</title>
<path fill="none" stroke="midnightblue" d="M1161.26,-42.9539C1183.67,-36.7598 1222.04,-26.1562 1249.19,-18.6518"/>
<polygon fill="midnightblue" stroke="midnightblue" points="1250.29,-21.9804 1259,-15.943 1248.42,-15.2334 1250.29,-21.9804"/>
</g>
<!-- Node41 -->
<g id="node20" class="node"><title>Node41</title>
<g id="a_node20"><a xlink:href="../../da/d0b/structQR.html#aa61fe3635ba82acfc32da54920b79309" target="_top" xlink:title=" ">
<polygon fill="white" stroke="black" points="1371,-0.5 1371,-19.5 1432,-19.5 1432,-0.5 1371,-0.5"/>
<text text-anchor="middle" x="1401.5" y="-7.5" font-family="Helvetica,sans-Serif" font-size="10.00">QR::apply</text>
</a>
</g>
</g>
<!-- Node40&#45;&gt;Node41 -->
<g id="edge21" class="edge"><title>Node40&#45;&gt;Node41</title>
<path fill="none" stroke="midnightblue" d="M1304.14,-10C1319.97,-10 1341.9,-10 1360.84,-10"/>
<polygon fill="midnightblue" stroke="midnightblue" points="1360.99,-13.5001 1370.99,-10 1360.99,-6.5001 1360.99,-13.5001"/>
</g>
</g>
</svg>
