<?xml version="1.0" encoding="UTF-8" standalone="no"?>
<!DOCTYPE svg PUBLIC "-//W3C//DTD SVG 1.1//EN"
 "http://www.w3.org/Graphics/SVG/1.1/DTD/svg11.dtd">
<!-- Generated by graphviz version 2.38.0 (20140413.2041)
 -->
<!-- Title: StreamDebugMIDI_Interface Pages: 1 -->
<svg width="404pt" height="960pt"
 viewBox="0.00 0.00 403.50 960.00" xmlns="http://www.w3.org/2000/svg" xmlns:xlink="http://www.w3.org/1999/xlink">
<g id="graph0" class="graph" transform="scale(1 1) rotate(0) translate(4 956)">
<title>StreamDebugMIDI_Interface</title>
<polygon fill="white" stroke="none" points="-4,4 -4,-956 399.5,-956 399.5,4 -4,4"/>
<!-- Node10 -->
<g id="node1" class="node"><title>Node10</title>
<g id="a_node1"><a xlink:title="A class for MIDI interfaces sending and receiving human&#45;readable MIDI messages over a Stream.">
<polygon fill="#bfbfbf" stroke="black" points="81.5,-0.5 81.5,-112.5 238.5,-112.5 238.5,-0.5 81.5,-0.5"/>
<text text-anchor="middle" x="160" y="-100.5" font-family="Helvetica,sans-Serif" font-size="10.00">StreamDebugMIDI_Interface</text>
<polyline fill="none" stroke="black" points="81.5,-93.5 238.5,-93.5 "/>
<text text-anchor="start" x="89.5" y="-81.5" font-family="Helvetica,sans-Serif" font-size="10.00">&#45; firstChar</text>
<text text-anchor="start" x="89.5" y="-70.5" font-family="Helvetica,sans-Serif" font-size="10.00">&#45; secondChar</text>
<polyline fill="none" stroke="black" points="81.5,-63.5 238.5,-63.5 "/>
<text text-anchor="start" x="89.5" y="-51.5" font-family="Helvetica,sans-Serif" font-size="10.00">+ StreamDebugMIDI_Interface()</text>
<text text-anchor="start" x="89.5" y="-40.5" font-family="Helvetica,sans-Serif" font-size="10.00">+ read()</text>
<text text-anchor="start" x="89.5" y="-29.5" font-family="Helvetica,sans-Serif" font-size="10.00"># sendImpl()</text>
<text text-anchor="start" x="89.5" y="-18.5" font-family="Helvetica,sans-Serif" font-size="10.00"># sendImpl()</text>
<text text-anchor="start" x="89.5" y="-7.5" font-family="Helvetica,sans-Serif" font-size="10.00">&#45; hexCharToNibble()</text>
</a>
</g>
</g>
<!-- Node11 -->
<g id="node2" class="node"><title>Node11</title>
<g id="a_node2"><a xlink:href="../../d3/dc3/classStreamMIDI__Interface.html" target="_top" xlink:title="A class for MIDI interfaces sending and receiving MIDI messages over a Stream.">
<polygon fill="white" stroke="black" points="96,-150.5 96,-240.5 224,-240.5 224,-150.5 96,-150.5"/>
<text text-anchor="middle" x="160" y="-228.5" font-family="Helvetica,sans-Serif" font-size="10.00">StreamMIDI_Interface</text>
<polyline fill="none" stroke="black" points="96,-221.5 224,-221.5 "/>
<text text-anchor="start" x="104" y="-209.5" font-family="Helvetica,sans-Serif" font-size="10.00"># stream</text>
<polyline fill="none" stroke="black" points="96,-202.5 224,-202.5 "/>
<text text-anchor="start" x="104" y="-190.5" font-family="Helvetica,sans-Serif" font-size="10.00">+ StreamMIDI_Interface()</text>
<text text-anchor="start" x="104" y="-179.5" font-family="Helvetica,sans-Serif" font-size="10.00">+ read()</text>
<text text-anchor="start" x="104" y="-168.5" font-family="Helvetica,sans-Serif" font-size="10.00"># sendImpl()</text>
<text text-anchor="start" x="104" y="-157.5" font-family="Helvetica,sans-Serif" font-size="10.00"># sendImpl()</text>
</a>
</g>
</g>
<!-- Node11&#45;&gt;Node10 -->
<g id="edge1" class="edge"><title>Node11&#45;&gt;Node10</title>
<path fill="none" stroke="midnightblue" d="M160,-140.293C160,-131.178 160,-121.709 160,-112.572"/>
<polygon fill="none" stroke="midnightblue" points="156.5,-140.398 160,-150.398 163.5,-140.398 156.5,-140.398"/>
</g>
<!-- Node12 -->
<g id="node3" class="node"><title>Node12</title>
<g id="a_node3"><a xlink:href="../../d9/d73/classMIDI__Interface.html" target="_top" xlink:title="An abstract class for MIDI interfaces.">
<polygon fill="white" stroke="black" points="153.5,-288.5 153.5,-609.5 274.5,-609.5 274.5,-288.5 153.5,-288.5"/>
<text text-anchor="middle" x="214" y="-597.5" font-family="Helvetica,sans-Serif" font-size="10.00">MIDI_Interface</text>
<polyline fill="none" stroke="black" points="153.5,-590.5 274.5,-590.5 "/>
<text text-anchor="middle" x="214" y="-578.5" font-family="Helvetica,sans-Serif" font-size="10.00"> </text>
<polyline fill="none" stroke="black" points="153.5,-571.5 274.5,-571.5 "/>
<text text-anchor="start" x="161.5" y="-559.5" font-family="Helvetica,sans-Serif" font-size="10.00">+ setCallbacks()</text>
<text text-anchor="start" x="161.5" y="-548.5" font-family="Helvetica,sans-Serif" font-size="10.00">+ ~MIDI_Interface()</text>
<text text-anchor="start" x="161.5" y="-537.5" font-family="Helvetica,sans-Serif" font-size="10.00">+ begin()</text>
<text text-anchor="start" x="161.5" y="-526.5" font-family="Helvetica,sans-Serif" font-size="10.00">+ send()</text>
<text text-anchor="start" x="161.5" y="-515.5" font-family="Helvetica,sans-Serif" font-size="10.00">+ send()</text>
<text text-anchor="start" x="161.5" y="-504.5" font-family="Helvetica,sans-Serif" font-size="10.00">+ sendNoteOn()</text>
<text text-anchor="start" x="161.5" y="-493.5" font-family="Helvetica,sans-Serif" font-size="10.00">+ sendNoteOff()</text>
<text text-anchor="start" x="161.5" y="-482.5" font-family="Helvetica,sans-Serif" font-size="10.00">+ sendCC()</text>
<text text-anchor="start" x="161.5" y="-471.5" font-family="Helvetica,sans-Serif" font-size="10.00">+ sendPB()</text>
<text text-anchor="start" x="161.5" y="-460.5" font-family="Helvetica,sans-Serif" font-size="10.00">+ sendPB()</text>
<text text-anchor="start" x="161.5" y="-449.5" font-family="Helvetica,sans-Serif" font-size="10.00">+ sendPC()</text>
<text text-anchor="start" x="161.5" y="-438.5" font-family="Helvetica,sans-Serif" font-size="10.00">+ update()</text>
<text text-anchor="start" x="161.5" y="-427.5" font-family="Helvetica,sans-Serif" font-size="10.00">+ read()</text>
<text text-anchor="start" x="161.5" y="-416.5" font-family="Helvetica,sans-Serif" font-size="10.00">+ setAsDefault()</text>
<text text-anchor="start" x="161.5" y="-405.5" font-family="Helvetica,sans-Serif" font-size="10.00">+ getChannelMessage()</text>
<text text-anchor="start" x="161.5" y="-394.5" font-family="Helvetica,sans-Serif" font-size="10.00">+ getSysExMessage()</text>
<text text-anchor="start" x="161.5" y="-383.5" font-family="Helvetica,sans-Serif" font-size="10.00">+ getCN()</text>
<text text-anchor="start" x="161.5" y="-372.5" font-family="Helvetica,sans-Serif" font-size="10.00">+ getDefault()</text>
<text text-anchor="start" x="161.5" y="-361.5" font-family="Helvetica,sans-Serif" font-size="10.00"># MIDI_Interface()</text>
<text text-anchor="start" x="161.5" y="-350.5" font-family="Helvetica,sans-Serif" font-size="10.00"># onChannelMessage()</text>
<text text-anchor="start" x="161.5" y="-339.5" font-family="Helvetica,sans-Serif" font-size="10.00"># onSysExMessage()</text>
<text text-anchor="start" x="161.5" y="-328.5" font-family="Helvetica,sans-Serif" font-size="10.00"># onRealtimeMessage()</text>
<text text-anchor="start" x="161.5" y="-317.5" font-family="Helvetica,sans-Serif" font-size="10.00"># dispatchMIDIEvent()</text>
<text text-anchor="start" x="161.5" y="-306.5" font-family="Helvetica,sans-Serif" font-size="10.00">&#45; sendImpl()</text>
<text text-anchor="start" x="161.5" y="-295.5" font-family="Helvetica,sans-Serif" font-size="10.00">&#45; sendImpl()</text>
</a>
</g>
</g>
<!-- Node12&#45;&gt;Node11 -->
<g id="edge2" class="edge"><title>Node12&#45;&gt;Node11</title>
<path fill="none" stroke="midnightblue" d="M177.573,-278.346C174.656,-264.761 171.908,-251.958 169.488,-240.691"/>
<polygon fill="none" stroke="midnightblue" points="174.203,-279.322 179.724,-288.365 181.047,-277.853 174.203,-279.322"/>
</g>
<!-- Node12&#45;&gt;Node12 -->
<g id="edge6" class="edge"><title>Node12&#45;&gt;Node12</title>
<path fill="none" stroke="#404040" d="M274.562,-481.344C285.141,-477.031 292.5,-466.25 292.5,-449 292.5,-437.949 289.48,-429.553 284.527,-423.812"/>
<polygon fill="none" stroke="#404040" points="284.309,-423.655 277.102,-423.405 274.562,-416.656 281.768,-416.907 284.309,-423.655"/>
<text text-anchor="middle" x="344" y="-446.5" font-family="Helvetica,sans-Serif" font-size="10.00"> &#45;DefaultMIDI_Interface</text>
</g>
<!-- Node13 -->
<g id="node4" class="node"><title>Node13</title>
<g id="a_node4"><a xlink:href="../../df/d0c/classMIDI__Parser.html" target="_top" xlink:title=" ">
<polygon fill="white" stroke="black" points="110.5,-668.5 110.5,-791.5 231.5,-791.5 231.5,-668.5 110.5,-668.5"/>
<text text-anchor="middle" x="171" y="-779.5" font-family="Helvetica,sans-Serif" font-size="10.00">MIDI_Parser</text>
<polyline fill="none" stroke="black" points="110.5,-772.5 231.5,-772.5 "/>
<text text-anchor="middle" x="171" y="-760.5" font-family="Helvetica,sans-Serif" font-size="10.00"> </text>
<polyline fill="none" stroke="black" points="110.5,-753.5 231.5,-753.5 "/>
<text text-anchor="start" x="118.5" y="-741.5" font-family="Helvetica,sans-Serif" font-size="10.00">+ getChannelMessage()</text>
<text text-anchor="start" x="118.5" y="-730.5" font-family="Helvetica,sans-Serif" font-size="10.00">+ getSysEx()</text>
<text text-anchor="start" x="118.5" y="-719.5" font-family="Helvetica,sans-Serif" font-size="10.00">+ getSysExBuffer()</text>
<text text-anchor="start" x="118.5" y="-708.5" font-family="Helvetica,sans-Serif" font-size="10.00">+ getSysExLength()</text>
<text text-anchor="start" x="118.5" y="-697.5" font-family="Helvetica,sans-Serif" font-size="10.00">+ getCN()</text>
<text text-anchor="start" x="118.5" y="-686.5" font-family="Helvetica,sans-Serif" font-size="10.00">+ isStatus()</text>
<text text-anchor="start" x="118.5" y="-675.5" font-family="Helvetica,sans-Serif" font-size="10.00">+ isData()</text>
</a>
</g>
</g>
<!-- Node13&#45;&gt;Node12 -->
<g id="edge3" class="edge"><title>Node13&#45;&gt;Node12</title>
<path fill="none" stroke="#404040" d="M180.33,-668.461C182.527,-654.211 184.976,-638.321 187.523,-621.791"/>
<polygon fill="none" stroke="#404040" points="187.566,-621.516 184.526,-614.977 189.394,-609.656 192.433,-616.195 187.566,-621.516"/>
<text text-anchor="middle" x="204" y="-631" font-family="Helvetica,sans-Serif" font-size="10.00"> &#45;parser</text>
</g>
<!-- Node16 -->
<g id="node7" class="node"><title>Node16</title>
<g id="a_node7"><a xlink:href="../../d0/d0d/classSerialMIDI__Parser.html" target="_top" xlink:title=" ">
<polygon fill="white" stroke="black" points="38.5,-398.5 38.5,-499.5 135.5,-499.5 135.5,-398.5 38.5,-398.5"/>
<text text-anchor="middle" x="87" y="-487.5" font-family="Helvetica,sans-Serif" font-size="10.00">SerialMIDI_Parser</text>
<polyline fill="none" stroke="black" points="38.5,-480.5 135.5,-480.5 "/>
<text text-anchor="start" x="46.5" y="-468.5" font-family="Helvetica,sans-Serif" font-size="10.00">&#45; thirdByte</text>
<polyline fill="none" stroke="black" points="38.5,-461.5 135.5,-461.5 "/>
<text text-anchor="start" x="46.5" y="-449.5" font-family="Helvetica,sans-Serif" font-size="10.00">+ parse()</text>
<text text-anchor="start" x="46.5" y="-438.5" font-family="Helvetica,sans-Serif" font-size="10.00">+ getSysEx()</text>
<text text-anchor="start" x="46.5" y="-427.5" font-family="Helvetica,sans-Serif" font-size="10.00"># addSysExByte()</text>
<text text-anchor="start" x="46.5" y="-416.5" font-family="Helvetica,sans-Serif" font-size="10.00"># startSysEx()</text>
<text text-anchor="start" x="46.5" y="-405.5" font-family="Helvetica,sans-Serif" font-size="10.00"># endSysEx()</text>
</a>
</g>
</g>
<!-- Node13&#45;&gt;Node16 -->
<g id="edge8" class="edge"><title>Node13&#45;&gt;Node16</title>
<path fill="none" stroke="midnightblue" d="M149.854,-658.765C134.928,-609.189 115.292,-543.972 101.968,-499.716"/>
<polygon fill="none" stroke="midnightblue" points="146.539,-659.895 152.773,-668.461 153.242,-657.877 146.539,-659.895"/>
</g>
<!-- Node14 -->
<g id="node5" class="node"><title>Node14</title>
<g id="a_node5"><a xlink:href="../../de/df8/structMIDI__message.html" target="_top" xlink:title=" ">
<polygon fill="white" stroke="black" points="129.5,-850.5 129.5,-951.5 212.5,-951.5 212.5,-850.5 129.5,-850.5"/>
<text text-anchor="middle" x="171" y="-939.5" font-family="Helvetica,sans-Serif" font-size="10.00">MIDI_message</text>
<polyline fill="none" stroke="black" points="129.5,-932.5 212.5,-932.5 "/>
<text text-anchor="start" x="137.5" y="-920.5" font-family="Helvetica,sans-Serif" font-size="10.00">+ header</text>
<text text-anchor="start" x="137.5" y="-909.5" font-family="Helvetica,sans-Serif" font-size="10.00">+ data1</text>
<text text-anchor="start" x="137.5" y="-898.5" font-family="Helvetica,sans-Serif" font-size="10.00">+ data2</text>
<text text-anchor="start" x="137.5" y="-887.5" font-family="Helvetica,sans-Serif" font-size="10.00">+ CN</text>
<polyline fill="none" stroke="black" points="129.5,-880.5 212.5,-880.5 "/>
<text text-anchor="start" x="137.5" y="-868.5" font-family="Helvetica,sans-Serif" font-size="10.00">+ operator==()</text>
<text text-anchor="start" x="137.5" y="-857.5" font-family="Helvetica,sans-Serif" font-size="10.00">+ operator!=()</text>
</a>
</g>
</g>
<!-- Node14&#45;&gt;Node13 -->
<g id="edge4" class="edge"><title>Node14&#45;&gt;Node13</title>
<path fill="none" stroke="#404040" d="M171,-850.208C171,-835.765 171,-819.684 171,-804.127"/>
<polygon fill="none" stroke="#404040" points="171,-803.804 167,-797.804 171,-791.804 175,-797.804 171,-803.804"/>
<text text-anchor="middle" x="194" y="-824" font-family="Helvetica,sans-Serif" font-size="10.00"> #midimsg</text>
</g>
<!-- Node15 -->
<g id="node6" class="node"><title>Node15</title>
<g id="a_node6"><a xlink:href="../../de/d55/classMIDI__Callbacks.html" target="_top" xlink:title="A class for callbacks from MIDI input.">
<polygon fill="white" stroke="black" points="250,-685 250,-775 368,-775 368,-685 250,-685"/>
<text text-anchor="middle" x="309" y="-763" font-family="Helvetica,sans-Serif" font-size="10.00">MIDI_Callbacks</text>
<polyline fill="none" stroke="black" points="250,-756 368,-756 "/>
<text text-anchor="middle" x="309" y="-744" font-family="Helvetica,sans-Serif" font-size="10.00"> </text>
<polyline fill="none" stroke="black" points="250,-737 368,-737 "/>
<text text-anchor="start" x="258" y="-725" font-family="Helvetica,sans-Serif" font-size="10.00">+ ~MIDI_Callbacks()</text>
<text text-anchor="start" x="258" y="-714" font-family="Helvetica,sans-Serif" font-size="10.00">&#45; onChannelMessage()</text>
<text text-anchor="start" x="258" y="-703" font-family="Helvetica,sans-Serif" font-size="10.00">&#45; onSysExMessage()</text>
<text text-anchor="start" x="258" y="-692" font-family="Helvetica,sans-Serif" font-size="10.00">&#45; onRealtimeMessage()</text>
</a>
</g>
</g>
<!-- Node15&#45;&gt;Node12 -->
<g id="edge5" class="edge"><title>Node15&#45;&gt;Node12</title>
<path fill="none" stroke="#404040" d="M293.947,-684.792C287.81,-666.767 280.288,-644.678 272.339,-621.331"/>
<polygon fill="none" stroke="#404040" points="272.274,-621.141 266.553,-616.751 268.406,-609.782 274.127,-614.172 272.274,-621.141"/>
<text text-anchor="middle" x="303" y="-631" font-family="Helvetica,sans-Serif" font-size="10.00"> &#45;callbacks</text>
</g>
<!-- Node16&#45;&gt;Node11 -->
<g id="edge7" class="edge"><title>Node16&#45;&gt;Node11</title>
<path fill="none" stroke="#404040" d="M97.7701,-398.145C106.52,-359.738 119.862,-305.518 135,-259 135.732,-256.75 136.505,-254.464 137.308,-252.163"/>
<polygon fill="none" stroke="#404040" points="137.405,-251.896 135.702,-244.888 141.515,-240.621 143.218,-247.629 137.405,-251.896"/>
<text text-anchor="middle" x="153" y="-262" font-family="Helvetica,sans-Serif" font-size="10.00"> #parser</text>
</g>
<!-- Node17 -->
<g id="node8" class="node"><title>Node17</title>
<g id="a_node8"><a xlink:href="../../d1/db1/classSysExBuffer.html" target="_top" xlink:title=" ">
<polygon fill="white" stroke="black" points="0,-657.5 0,-802.5 92,-802.5 92,-657.5 0,-657.5"/>
<text text-anchor="middle" x="46" y="-790.5" font-family="Helvetica,sans-Serif" font-size="10.00">SysExBuffer</text>
<polyline fill="none" stroke="black" points="0,-783.5 92,-783.5 "/>
<text text-anchor="start" x="8" y="-771.5" font-family="Helvetica,sans-Serif" font-size="10.00">&#45; SysExBuffer</text>
<text text-anchor="start" x="8" y="-760.5" font-family="Helvetica,sans-Serif" font-size="10.00">&#45; SysExLength</text>
<text text-anchor="start" x="8" y="-749.5" font-family="Helvetica,sans-Serif" font-size="10.00">&#45; receiving</text>
<polyline fill="none" stroke="black" points="0,-742.5 92,-742.5 "/>
<text text-anchor="start" x="8" y="-730.5" font-family="Helvetica,sans-Serif" font-size="10.00">+ start()</text>
<text text-anchor="start" x="8" y="-719.5" font-family="Helvetica,sans-Serif" font-size="10.00">+ end()</text>
<text text-anchor="start" x="8" y="-708.5" font-family="Helvetica,sans-Serif" font-size="10.00">+ add()</text>
<text text-anchor="start" x="8" y="-697.5" font-family="Helvetica,sans-Serif" font-size="10.00">+ hasSpaceLeft()</text>
<text text-anchor="start" x="8" y="-686.5" font-family="Helvetica,sans-Serif" font-size="10.00">+ isReceiving()</text>
<text text-anchor="start" x="8" y="-675.5" font-family="Helvetica,sans-Serif" font-size="10.00">+ getBuffer()</text>
<text text-anchor="start" x="8" y="-664.5" font-family="Helvetica,sans-Serif" font-size="10.00">+ getLength()</text>
</a>
</g>
</g>
<!-- Node17&#45;&gt;Node16 -->
<g id="edge9" class="edge"><title>Node17&#45;&gt;Node16</title>
<path fill="none" stroke="#404040" d="M51.5787,-657.457C52.5836,-647.547 53.7242,-637.509 55,-628 60.2061,-589.198 67.9321,-545.967 74.4883,-511.827"/>
<polygon fill="none" stroke="#404040" points="74.5584,-511.466 71.7744,-504.813 76.844,-499.685 79.628,-506.337 74.5584,-511.466"/>
<text text-anchor="middle" x="85" y="-631" font-family="Helvetica,sans-Serif" font-size="10.00"> #sysexbuffer</text>
</g>
</g>
</svg>
