<?xml version="1.0" encoding="UTF-8" standalone="no"?>
<!DOCTYPE svg PUBLIC "-//W3C//DTD SVG 1.1//EN"
 "http://www.w3.org/Graphics/SVG/1.1/DTD/svg11.dtd">
<!-- Generated by graphviz version 2.38.0 (20140413.2041)
 -->
<!-- Title: MIDIFilteredAnalog.hpp Pages: 1 -->
<svg width="1103pt" height="599pt"
 viewBox="0.00 0.00 1103.00 599.00" xmlns="http://www.w3.org/2000/svg" xmlns:xlink="http://www.w3.org/1999/xlink">
<g id="graph0" class="graph" transform="scale(1 1) rotate(0) translate(4 595)">
<title>MIDIFilteredAnalog.hpp</title>
<polygon fill="white" stroke="none" points="-4,4 -4,-595 1099,-595 1099,4 -4,4"/>
<!-- Node1 -->
<g id="node1" class="node"><title>Node1</title>
<g id="a_node1"><a xlink:title=" ">
<polygon fill="#bfbfbf" stroke="black" points="213,-571.5 213,-590.5 332,-590.5 332,-571.5 213,-571.5"/>
<text text-anchor="middle" x="272.5" y="-578.5" font-family="Helvetica,sans-Serif" font-size="10.00">MIDIFilteredAnalog.hpp</text>
</a>
</g>
</g>
<!-- Node2 -->
<g id="node2" class="node"><title>Node2</title>
<g id="a_node2"><a xlink:href="../../d0/d4e/Def_8hpp.html" target="_top" xlink:title=" ">
<polygon fill="white" stroke="black" points="494.5,-112.5 494.5,-131.5 564.5,-131.5 564.5,-112.5 494.5,-112.5"/>
<text text-anchor="middle" x="529.5" y="-119.5" font-family="Helvetica,sans-Serif" font-size="10.00">Def/Def.hpp</text>
</a>
</g>
</g>
<!-- Node1&#45;&gt;Node2 -->
<g id="edge1" class="edge"><title>Node1&#45;&gt;Node2</title>
<path fill="none" stroke="midnightblue" d="M235.059,-571.473C186.377,-557.912 107.5,-526.391 107.5,-464.5 107.5,-464.5 107.5,-464.5 107.5,-289 107.5,-208.728 375.269,-151.01 484.213,-130.848"/>
<polygon fill="midnightblue" stroke="midnightblue" points="485.038,-134.256 494.246,-129.015 483.78,-127.37 485.038,-134.256"/>
</g>
<!-- Node8 -->
<g id="node8" class="node"><title>Node8</title>
<g id="a_node8"><a xlink:href="../../d8/df3/FilteredAnalog_8hpp.html" target="_top" xlink:title=" ">
<polygon fill="white" stroke="black" points="201,-515.5 201,-534.5 344,-534.5 344,-515.5 201,-515.5"/>
<text text-anchor="middle" x="272.5" y="-522.5" font-family="Helvetica,sans-Serif" font-size="10.00">Hardware/FilteredAnalog.hpp</text>
</a>
</g>
</g>
<!-- Node1&#45;&gt;Node8 -->
<g id="edge9" class="edge"><title>Node1&#45;&gt;Node8</title>
<path fill="none" stroke="midnightblue" d="M272.5,-571.083C272.5,-564.006 272.5,-553.861 272.5,-544.986"/>
<polygon fill="midnightblue" stroke="midnightblue" points="276,-544.751 272.5,-534.751 269,-544.751 276,-544.751"/>
</g>
<!-- Node25 -->
<g id="node25" class="node"><title>Node25</title>
<g id="a_node25"><a xlink:href="../../d1/d41/MIDIOutputElement_8hpp.html" target="_top" xlink:title=" ">
<polygon fill="white" stroke="black" points="798,-448.5 798,-478.5 923,-478.5 923,-448.5 798,-448.5"/>
<text text-anchor="start" x="806" y="-466.5" font-family="Helvetica,sans-Serif" font-size="10.00">MIDI_Outputs/Abstract</text>
<text text-anchor="middle" x="860.5" y="-455.5" font-family="Helvetica,sans-Serif" font-size="10.00">/MIDIOutputElement.hpp</text>
</a>
</g>
</g>
<!-- Node1&#45;&gt;Node25 -->
<g id="edge36" class="edge"><title>Node1&#45;&gt;Node25</title>
<path fill="none" stroke="midnightblue" d="M316.215,-571.413C416.529,-551.708 664.103,-503.078 787.768,-478.787"/>
<polygon fill="midnightblue" stroke="midnightblue" points="788.76,-482.159 797.897,-476.797 787.41,-475.29 788.76,-482.159"/>
</g>
<!-- Node3 -->
<g id="node3" class="node"><title>Node3</title>
<g id="a_node3"><a xlink:href="../../d7/d42/Channel_8hpp.html" target="_top" xlink:title=" ">
<polygon fill="white" stroke="black" points="160,-56.5 160,-75.5 231,-75.5 231,-56.5 160,-56.5"/>
<text text-anchor="middle" x="195.5" y="-63.5" font-family="Helvetica,sans-Serif" font-size="10.00">Channel.hpp</text>
</a>
</g>
</g>
<!-- Node2&#45;&gt;Node3 -->
<g id="edge2" class="edge"><title>Node2&#45;&gt;Node3</title>
<path fill="none" stroke="midnightblue" d="M494.387,-115.323C433.532,-105.484 308.524,-85.2733 241.065,-74.3668"/>
<polygon fill="midnightblue" stroke="midnightblue" points="241.578,-70.9043 231.147,-72.7633 240.461,-77.8146 241.578,-70.9043"/>
</g>
<!-- Node4 -->
<g id="node4" class="node"><title>Node4</title>
<g id="a_node4"><a xlink:title=" ">
<polygon fill="white" stroke="#bfbfbf" points="139,-0.5 139,-19.5 188,-19.5 188,-0.5 139,-0.5"/>
<text text-anchor="middle" x="163.5" y="-7.5" font-family="Helvetica,sans-Serif" font-size="10.00">stdint.h</text>
</a>
</g>
</g>
<!-- Node2&#45;&gt;Node4 -->
<g id="edge8" class="edge"><title>Node2&#45;&gt;Node4</title>
<path fill="none" stroke="midnightblue" d="M501.085,-112.46C434.811,-92.5415 270.177,-43.0614 198.158,-21.4163"/>
<polygon fill="midnightblue" stroke="midnightblue" points="198.811,-17.958 188.227,-18.4315 196.796,-24.6618 198.811,-17.958"/>
</g>
<!-- Node5 -->
<g id="node5" class="node"><title>Node5</title>
<g id="a_node5"><a xlink:href="../../dc/d50/Frequency_8hpp.html" target="_top" xlink:title=" ">
<polygon fill="white" stroke="black" points="595,-56.5 595,-75.5 676,-75.5 676,-56.5 595,-56.5"/>
<text text-anchor="middle" x="635.5" y="-63.5" font-family="Helvetica,sans-Serif" font-size="10.00">Frequency.hpp</text>
</a>
</g>
</g>
<!-- Node2&#45;&gt;Node5 -->
<g id="edge4" class="edge"><title>Node2&#45;&gt;Node5</title>
<path fill="none" stroke="midnightblue" d="M546.531,-112.324C563.53,-103.664 589.876,-90.2424 609.493,-80.249"/>
<polygon fill="midnightblue" stroke="midnightblue" points="611.19,-83.3125 618.512,-75.6545 608.012,-77.0752 611.19,-83.3125"/>
</g>
<!-- Node6 -->
<g id="node6" class="node"><title>Node6</title>
<g id="a_node6"><a xlink:href="../../de/d76/Array_8hpp.html" target="_top" xlink:title=" ">
<polygon fill="white" stroke="black" points="482,-56.5 482,-75.5 577,-75.5 577,-56.5 482,-56.5"/>
<text text-anchor="middle" x="529.5" y="-63.5" font-family="Helvetica,sans-Serif" font-size="10.00">Helpers/Array.hpp</text>
</a>
</g>
</g>
<!-- Node2&#45;&gt;Node6 -->
<g id="edge5" class="edge"><title>Node2&#45;&gt;Node6</title>
<path fill="none" stroke="midnightblue" d="M529.5,-112.083C529.5,-105.006 529.5,-94.8611 529.5,-85.9865"/>
<polygon fill="midnightblue" stroke="midnightblue" points="533,-85.751 529.5,-75.7511 526,-85.7511 533,-85.751"/>
</g>
<!-- Node7 -->
<g id="node7" class="node"><title>Node7</title>
<g id="a_node7"><a xlink:title=" ">
<polygon fill="white" stroke="#bfbfbf" points="465.5,-0.5 465.5,-19.5 517.5,-19.5 517.5,-0.5 465.5,-0.5"/>
<text text-anchor="middle" x="491.5" y="-7.5" font-family="Helvetica,sans-Serif" font-size="10.00">stddef.h</text>
</a>
</g>
</g>
<!-- Node2&#45;&gt;Node7 -->
<g id="edge7" class="edge"><title>Node2&#45;&gt;Node7</title>
<path fill="none" stroke="midnightblue" d="M511.418,-112.39C497.938,-104.872 480.528,-92.5651 472.5,-76 465.074,-60.6754 472.133,-41.8839 479.664,-28.4543"/>
<polygon fill="midnightblue" stroke="midnightblue" points="482.762,-30.0986 485.03,-19.7495 476.803,-26.4252 482.762,-30.0986"/>
</g>
<!-- Node3&#45;&gt;Node4 -->
<g id="edge3" class="edge"><title>Node3&#45;&gt;Node4</title>
<path fill="none" stroke="midnightblue" d="M190.216,-56.083C185.789,-48.6127 179.337,-37.7244 173.882,-28.5199"/>
<polygon fill="midnightblue" stroke="midnightblue" points="176.795,-26.5697 168.686,-19.7511 170.773,-30.1383 176.795,-26.5697"/>
</g>
<!-- Node6&#45;&gt;Node7 -->
<g id="edge6" class="edge"><title>Node6&#45;&gt;Node7</title>
<path fill="none" stroke="midnightblue" d="M523.225,-56.083C517.858,-48.4554 509.982,-37.2645 503.421,-27.9408"/>
<polygon fill="midnightblue" stroke="midnightblue" points="506.275,-25.9149 497.658,-19.7511 500.551,-29.9434 506.275,-25.9149"/>
</g>
<!-- Node8&#45;&gt;Node2 -->
<g id="edge10" class="edge"><title>Node8&#45;&gt;Node2</title>
<path fill="none" stroke="midnightblue" d="M264.807,-515.314C257.54,-506.675 246.836,-492.758 240.5,-479 225.936,-447.375 221.5,-437.817 221.5,-403 221.5,-403 221.5,-403 221.5,-345 221.5,-216.895 399.016,-155.349 484.516,-133.135"/>
<polygon fill="midnightblue" stroke="midnightblue" points="485.631,-136.464 494.468,-130.619 483.916,-129.677 485.631,-136.464"/>
</g>
<!-- Node9 -->
<g id="node9" class="node"><title>Node9</title>
<g id="a_node9"><a xlink:href="../../dd/ddf/ExtendedInputOutput_8hpp.html" target="_top" xlink:title=" ">
<polygon fill="white" stroke="black" points="415.5,-448.5 415.5,-478.5 569.5,-478.5 569.5,-448.5 415.5,-448.5"/>
<text text-anchor="start" x="423.5" y="-466.5" font-family="Helvetica,sans-Serif" font-size="10.00">Hardware/ExtendedInputOutput</text>
<text text-anchor="middle" x="492.5" y="-455.5" font-family="Helvetica,sans-Serif" font-size="10.00">/ExtendedInputOutput.hpp</text>
</a>
</g>
</g>
<!-- Node8&#45;&gt;Node9 -->
<g id="edge11" class="edge"><title>Node8&#45;&gt;Node9</title>
<path fill="none" stroke="midnightblue" d="M304.021,-515.475C337.019,-506.551 389.678,-492.309 430.958,-481.144"/>
<polygon fill="midnightblue" stroke="midnightblue" points="431.911,-484.512 440.65,-478.523 430.083,-477.755 431.911,-484.512"/>
</g>
<!-- Node13 -->
<g id="node13" class="node"><title>Node13</title>
<g id="a_node13"><a xlink:href="../../d2/dd5/SettingsWrapper_8hpp.html" target="_top" xlink:title=" ">
<polygon fill="white" stroke="black" points="648,-224.5 648,-243.5 795,-243.5 795,-224.5 648,-224.5"/>
<text text-anchor="middle" x="721.5" y="-231.5" font-family="Helvetica,sans-Serif" font-size="10.00">Settings/SettingsWrapper.hpp</text>
</a>
</g>
</g>
<!-- Node8&#45;&gt;Node13 -->
<g id="edge35" class="edge"><title>Node8&#45;&gt;Node13</title>
<path fill="none" stroke="midnightblue" d="M344,-520.712C422.254,-515.874 541.525,-504.479 578.5,-479 638.466,-437.677 605.686,-386.141 658.5,-336 684.735,-311.093 712.397,-330.72 731.5,-300 740.244,-285.938 735.871,-266.947 730.437,-253.125"/>
<polygon fill="midnightblue" stroke="midnightblue" points="733.525,-251.455 726.274,-243.73 727.125,-254.291 733.525,-251.455"/>
</g>
<!-- Node21 -->
<g id="node21" class="node"><title>Node21</title>
<g id="a_node21"><a xlink:href="../../d3/df0/EMA_8hpp.html" target="_top" xlink:title=" ">
<polygon fill="white" stroke="black" points="137.5,-112.5 137.5,-131.5 231.5,-131.5 231.5,-112.5 137.5,-112.5"/>
<text text-anchor="middle" x="184.5" y="-119.5" font-family="Helvetica,sans-Serif" font-size="10.00">Helpers/EMA.hpp</text>
</a>
</g>
</g>
<!-- Node8&#45;&gt;Node21 -->
<g id="edge28" class="edge"><title>Node8&#45;&gt;Node21</title>
<path fill="none" stroke="midnightblue" d="M253.994,-515.459C239.399,-507.833 219.559,-495.347 207.5,-479 186.472,-450.495 183.5,-438.422 183.5,-403 183.5,-403 183.5,-403 183.5,-233 183.5,-200.947 183.93,-163.642 184.226,-141.748"/>
<polygon fill="midnightblue" stroke="midnightblue" points="187.728,-141.606 184.369,-131.558 180.729,-141.507 187.728,-141.606"/>
</g>
<!-- Node22 -->
<g id="node22" class="node"><title>Node22</title>
<g id="a_node22"><a xlink:href="../../d3/d09/Hysteresis_8hpp.html" target="_top" xlink:title=" ">
<polygon fill="white" stroke="black" points="0,-112.5 0,-131.5 119,-131.5 119,-112.5 0,-112.5"/>
<text text-anchor="middle" x="59.5" y="-119.5" font-family="Helvetica,sans-Serif" font-size="10.00">Helpers/Hysteresis.hpp</text>
</a>
</g>
</g>
<!-- Node8&#45;&gt;Node22 -->
<g id="edge30" class="edge"><title>Node8&#45;&gt;Node22</title>
<path fill="none" stroke="midnightblue" d="M246.698,-515.452C227.88,-508.167 202.756,-496.133 185.5,-479 158.413,-452.106 145.5,-441.171 145.5,-403 145.5,-403 145.5,-403 145.5,-289 145.5,-228.112 99.3199,-167.322 74.6401,-139.181"/>
<polygon fill="midnightblue" stroke="midnightblue" points="77.0409,-136.617 67.746,-131.532 71.8412,-141.304 77.0409,-136.617"/>
</g>
<!-- Node23 -->
<g id="node23" class="node"><title>Node23</title>
<g id="a_node23"><a xlink:href="../../d5/dee/IncreaseBitDepth_8hpp.html" target="_top" xlink:title=" ">
<polygon fill="white" stroke="black" points="249.5,-454 249.5,-473 397.5,-473 397.5,-454 249.5,-454"/>
<text text-anchor="middle" x="323.5" y="-461" font-family="Helvetica,sans-Serif" font-size="10.00">Helpers/IncreaseBitDepth.hpp</text>
</a>
</g>
</g>
<!-- Node8&#45;&gt;Node23 -->
<g id="edge32" class="edge"><title>Node8&#45;&gt;Node23</title>
<path fill="none" stroke="midnightblue" d="M279.807,-515.475C287.533,-506.462 299.908,-492.025 309.518,-480.812"/>
<polygon fill="midnightblue" stroke="midnightblue" points="312.356,-482.879 316.206,-473.009 307.041,-478.324 312.356,-482.879"/>
</g>
<!-- Node10 -->
<g id="node10" class="node"><title>Node10</title>
<g id="a_node10"><a xlink:href="../../d4/d57/ExtendedIOElement_8hpp.html" target="_top" xlink:title=" ">
<polygon fill="white" stroke="black" points="431,-392.5 431,-411.5 554,-411.5 554,-392.5 431,-392.5"/>
<text text-anchor="middle" x="492.5" y="-399.5" font-family="Helvetica,sans-Serif" font-size="10.00">ExtendedIOElement.hpp</text>
</a>
</g>
</g>
<!-- Node9&#45;&gt;Node10 -->
<g id="edge12" class="edge"><title>Node9&#45;&gt;Node10</title>
<path fill="none" stroke="midnightblue" d="M492.5,-448.399C492.5,-440.466 492.5,-430.458 492.5,-421.858"/>
<polygon fill="midnightblue" stroke="midnightblue" points="496,-421.658 492.5,-411.658 489,-421.658 496,-421.658"/>
</g>
<!-- Node17 -->
<g id="node17" class="node"><title>Node17</title>
<g id="a_node17"><a xlink:title=" ">
<polygon fill="white" stroke="#bfbfbf" points="394.5,-168.5 394.5,-187.5 452.5,-187.5 452.5,-168.5 394.5,-168.5"/>
<text text-anchor="middle" x="423.5" y="-175.5" font-family="Helvetica,sans-Serif" font-size="10.00">Arduino.h</text>
</a>
</g>
</g>
<!-- Node9&#45;&gt;Node17 -->
<g id="edge27" class="edge"><title>Node9&#45;&gt;Node17</title>
<path fill="none" stroke="midnightblue" d="M465.626,-448.461C450.936,-439.652 433.369,-427.105 421.5,-412 371.833,-348.794 369.661,-322.943 354.5,-244 352.824,-235.271 350.266,-231.816 354.5,-224 362.249,-209.696 376.734,-199.219 390.44,-191.992"/>
<polygon fill="midnightblue" stroke="midnightblue" points="392.238,-195.01 399.712,-187.501 389.186,-188.71 392.238,-195.01"/>
</g>
<!-- Node10&#45;&gt;Node2 -->
<g id="edge13" class="edge"><title>Node10&#45;&gt;Node2</title>
<path fill="none" stroke="midnightblue" d="M488.049,-392.339C477.726,-370.909 454.915,-314.641 480.5,-280 512.823,-236.236 565.177,-287.764 597.5,-244 622.742,-209.823 552.743,-194.061 548.5,-188 538.913,-174.305 534.114,-155.771 531.742,-141.998"/>
<polygon fill="midnightblue" stroke="midnightblue" points="535.158,-141.159 530.269,-131.76 528.229,-142.156 535.158,-141.159"/>
</g>
<!-- Node11 -->
<g id="node11" class="node"><title>Node11</title>
<g id="a_node11"><a xlink:href="../../de/dd1/LinkedList_8hpp.html" target="_top" xlink:title=" ">
<polygon fill="white" stroke="black" points="492.5,-336.5 492.5,-355.5 608.5,-355.5 608.5,-336.5 492.5,-336.5"/>
<text text-anchor="middle" x="550.5" y="-343.5" font-family="Helvetica,sans-Serif" font-size="10.00">Helpers/LinkedList.hpp</text>
</a>
</g>
</g>
<!-- Node10&#45;&gt;Node11 -->
<g id="edge14" class="edge"><title>Node10&#45;&gt;Node11</title>
<path fill="none" stroke="midnightblue" d="M501.819,-392.324C510.393,-384.341 523.312,-372.313 533.688,-362.653"/>
<polygon fill="midnightblue" stroke="midnightblue" points="536.078,-365.21 541.012,-355.834 531.308,-360.086 536.078,-365.21"/>
</g>
<!-- Node12 -->
<g id="node12" class="node"><title>Node12</title>
<g id="a_node12"><a xlink:href="../../df/dee/Debug_8hpp.html" target="_top" xlink:title=" ">
<polygon fill="white" stroke="black" points="622,-280.5 622,-299.5 723,-299.5 723,-280.5 622,-280.5"/>
<text text-anchor="middle" x="672.5" y="-287.5" font-family="Helvetica,sans-Serif" font-size="10.00">Helpers/Debug.hpp</text>
</a>
</g>
</g>
<!-- Node11&#45;&gt;Node12 -->
<g id="edge15" class="edge"><title>Node11&#45;&gt;Node12</title>
<path fill="none" stroke="midnightblue" d="M569.831,-336.444C589.82,-327.596 621.243,-313.687 644.064,-303.586"/>
<polygon fill="midnightblue" stroke="midnightblue" points="645.532,-306.764 653.259,-299.516 642.698,-300.363 645.532,-306.764"/>
</g>
<!-- Node18 -->
<g id="node18" class="node"><title>Node18</title>
<g id="a_node18"><a xlink:title=" ">
<polygon fill="white" stroke="#bfbfbf" points="555.5,-280.5 555.5,-299.5 603.5,-299.5 603.5,-280.5 555.5,-280.5"/>
<text text-anchor="middle" x="579.5" y="-287.5" font-family="Helvetica,sans-Serif" font-size="10.00">stdlib.h</text>
</a>
</g>
</g>
<!-- Node11&#45;&gt;Node18 -->
<g id="edge23" class="edge"><title>Node11&#45;&gt;Node18</title>
<path fill="none" stroke="midnightblue" d="M555.289,-336.083C559.258,-328.691 565.025,-317.953 569.935,-308.811"/>
<polygon fill="midnightblue" stroke="midnightblue" points="573.153,-310.217 574.8,-299.751 566.986,-306.905 573.153,-310.217"/>
</g>
<!-- Node19 -->
<g id="node19" class="node"><title>Node19</title>
<g id="a_node19"><a xlink:href="../../d7/d79/MinMaxFix_8hpp.html" target="_top" xlink:title=" ">
<polygon fill="white" stroke="black" points="363.5,-224.5 363.5,-243.5 483.5,-243.5 483.5,-224.5 363.5,-224.5"/>
<text text-anchor="middle" x="423.5" y="-231.5" font-family="Helvetica,sans-Serif" font-size="10.00">Helpers/MinMaxFix.hpp</text>
</a>
</g>
</g>
<!-- Node11&#45;&gt;Node19 -->
<g id="edge24" class="edge"><title>Node11&#45;&gt;Node19</title>
<path fill="none" stroke="midnightblue" d="M534.618,-336.499C519.834,-328.202 497.576,-314.71 480.5,-300 463.523,-285.375 446.961,-265.701 436.104,-251.841"/>
<polygon fill="midnightblue" stroke="midnightblue" points="438.711,-249.488 429.847,-243.685 433.157,-253.749 438.711,-249.488"/>
</g>
<!-- Node20 -->
<g id="node20" class="node"><title>Node20</title>
<g id="a_node20"><a xlink:title=" ">
<polygon fill="white" stroke="#bfbfbf" points="490,-280.5 490,-299.5 537,-299.5 537,-280.5 490,-280.5"/>
<text text-anchor="middle" x="513.5" y="-287.5" font-family="Helvetica,sans-Serif" font-size="10.00">iterator</text>
</a>
</g>
</g>
<!-- Node11&#45;&gt;Node20 -->
<g id="edge26" class="edge"><title>Node11&#45;&gt;Node20</title>
<path fill="none" stroke="midnightblue" d="M544.39,-336.083C539.218,-328.534 531.654,-317.495 525.306,-308.23"/>
<polygon fill="midnightblue" stroke="midnightblue" points="528.036,-306.022 519.496,-299.751 522.261,-309.979 528.036,-306.022"/>
</g>
<!-- Node12&#45;&gt;Node13 -->
<g id="edge16" class="edge"><title>Node12&#45;&gt;Node13</title>
<path fill="none" stroke="midnightblue" d="M675.425,-280.083C680.956,-272.141 691.323,-260.335 700.961,-250.797"/>
<polygon fill="midnightblue" stroke="midnightblue" points="703.557,-253.16 708.428,-243.751 698.753,-248.068 703.557,-253.16"/>
</g>
<!-- Node16 -->
<g id="node16" class="node"><title>Node16</title>
<g id="a_node16"><a xlink:href="../../dd/d80/PrintStream_8hpp.html" target="_top" xlink:title=" ">
<polygon fill="white" stroke="black" points="502,-224.5 502,-243.5 589,-243.5 589,-224.5 502,-224.5"/>
<text text-anchor="middle" x="545.5" y="-231.5" font-family="Helvetica,sans-Serif" font-size="10.00">PrintStream.hpp</text>
</a>
</g>
</g>
<!-- Node12&#45;&gt;Node16 -->
<g id="edge21" class="edge"><title>Node12&#45;&gt;Node16</title>
<path fill="none" stroke="midnightblue" d="M652.376,-280.444C631.476,-271.557 598.565,-257.563 574.784,-247.451"/>
<polygon fill="midnightblue" stroke="midnightblue" points="576.102,-244.208 565.529,-243.516 573.362,-250.65 576.102,-244.208"/>
</g>
<!-- Node13&#45;&gt;Node12 -->
<g id="edge20" class="edge"><title>Node13&#45;&gt;Node12</title>
<path fill="none" stroke="midnightblue" d="M718.633,-243.834C713.106,-251.791 702.674,-263.673 692.988,-273.253"/>
<polygon fill="midnightblue" stroke="midnightblue" points="690.363,-270.918 685.488,-280.324 695.165,-276.011 690.363,-270.918"/>
</g>
<!-- Node14 -->
<g id="node14" class="node"><title>Node14</title>
<g id="a_node14"><a xlink:href="../../db/d02/Settings_8hpp.html" target="_top" xlink:title="All user settings and debugging options can be changed here.">
<polygon fill="white" stroke="black" points="558,-168.5 558,-187.5 629,-187.5 629,-168.5 558,-168.5"/>
<text text-anchor="middle" x="593.5" y="-175.5" font-family="Helvetica,sans-Serif" font-size="10.00">Settings.hpp</text>
</a>
</g>
</g>
<!-- Node13&#45;&gt;Node14 -->
<g id="edge17" class="edge"><title>Node13&#45;&gt;Node14</title>
<path fill="none" stroke="midnightblue" d="M701.218,-224.444C680.153,-215.557 646.983,-201.563 623.014,-191.451"/>
<polygon fill="midnightblue" stroke="midnightblue" points="624.261,-188.179 613.687,-187.516 621.54,-194.628 624.261,-188.179"/>
</g>
<!-- Node15 -->
<g id="node15" class="node"><title>Node15</title>
<g id="a_node15"><a xlink:href="../../d9/d98/TeensyUSBTypes_8hpp.html" target="_top" xlink:title=" ">
<polygon fill="white" stroke="black" points="647.5,-168.5 647.5,-187.5 799.5,-187.5 799.5,-168.5 647.5,-168.5"/>
<text text-anchor="middle" x="723.5" y="-175.5" font-family="Helvetica,sans-Serif" font-size="10.00">Helpers/TeensyUSBTypes.hpp</text>
</a>
</g>
</g>
<!-- Node13&#45;&gt;Node15 -->
<g id="edge19" class="edge"><title>Node13&#45;&gt;Node15</title>
<path fill="none" stroke="midnightblue" d="M721.83,-224.083C722.092,-217.006 722.468,-206.861 722.797,-197.986"/>
<polygon fill="midnightblue" stroke="midnightblue" points="726.303,-197.874 723.176,-187.751 719.308,-197.615 726.303,-197.874"/>
</g>
<!-- Node14&#45;&gt;Node2 -->
<g id="edge18" class="edge"><title>Node14&#45;&gt;Node2</title>
<path fill="none" stroke="midnightblue" d="M583.217,-168.324C573.664,-160.263 559.22,-148.077 547.716,-138.369"/>
<polygon fill="midnightblue" stroke="midnightblue" points="549.87,-135.608 539.97,-131.834 545.356,-140.958 549.87,-135.608"/>
</g>
<!-- Node16&#45;&gt;Node17 -->
<g id="edge22" class="edge"><title>Node16&#45;&gt;Node17</title>
<path fill="none" stroke="midnightblue" d="M526.169,-224.444C506.18,-215.596 474.757,-201.687 451.936,-191.586"/>
<polygon fill="midnightblue" stroke="midnightblue" points="453.302,-188.363 442.741,-187.516 450.468,-194.764 453.302,-188.363"/>
</g>
<!-- Node19&#45;&gt;Node17 -->
<g id="edge25" class="edge"><title>Node19&#45;&gt;Node17</title>
<path fill="none" stroke="midnightblue" d="M423.5,-224.083C423.5,-217.006 423.5,-206.861 423.5,-197.986"/>
<polygon fill="midnightblue" stroke="midnightblue" points="427,-197.751 423.5,-187.751 420,-197.751 427,-197.751"/>
</g>
<!-- Node21&#45;&gt;Node4 -->
<g id="edge29" class="edge"><title>Node21&#45;&gt;Node4</title>
<path fill="none" stroke="midnightblue" d="M175.212,-112.395C166.919,-104.025 155.356,-90.4826 150.5,-76 145.304,-60.5027 149.875,-42.1936 154.975,-28.963"/>
<polygon fill="midnightblue" stroke="midnightblue" points="158.269,-30.1614 159.002,-19.5919 151.838,-27.3977 158.269,-30.1614"/>
</g>
<!-- Node22&#45;&gt;Node4 -->
<g id="edge31" class="edge"><title>Node22&#45;&gt;Node4</title>
<path fill="none" stroke="midnightblue" d="M67.6607,-112.368C85.0515,-93.9744 125.993,-50.6712 148.324,-27.0519"/>
<polygon fill="midnightblue" stroke="midnightblue" points="151.05,-29.2625 155.377,-19.5914 145.964,-24.4534 151.05,-29.2625"/>
</g>
<!-- Node23&#45;&gt;Node7 -->
<g id="edge34" class="edge"><title>Node23&#45;&gt;Node7</title>
<path fill="none" stroke="midnightblue" d="M313.484,-453.804C303.293,-444.442 287.723,-428.639 278.5,-412 263.909,-385.676 259.5,-377.098 259.5,-347 259.5,-347 259.5,-347 259.5,-121 259.5,-35.4941 389.757,-16.3678 455.068,-12.152"/>
<polygon fill="midnightblue" stroke="midnightblue" points="455.549,-15.6306 465.338,-11.5776 455.158,-8.64153 455.549,-15.6306"/>
</g>
<!-- Node24 -->
<g id="node24" class="node"><title>Node24</title>
<g id="a_node24"><a xlink:title=" ">
<polygon fill="white" stroke="#bfbfbf" points="287.5,-392.5 287.5,-411.5 335.5,-411.5 335.5,-392.5 287.5,-392.5"/>
<text text-anchor="middle" x="311.5" y="-399.5" font-family="Helvetica,sans-Serif" font-size="10.00">limits.h</text>
</a>
</g>
</g>
<!-- Node23&#45;&gt;Node24 -->
<g id="edge33" class="edge"><title>Node23&#45;&gt;Node24</title>
<path fill="none" stroke="midnightblue" d="M321.781,-453.975C320.07,-445.492 317.39,-432.204 315.195,-421.322"/>
<polygon fill="midnightblue" stroke="midnightblue" points="318.624,-420.62 313.216,-411.509 311.762,-422.004 318.624,-420.62"/>
</g>
<!-- Node25&#45;&gt;Node2 -->
<g id="edge37" class="edge"><title>Node25&#45;&gt;Node2</title>
<path fill="none" stroke="midnightblue" d="M869.619,-448.189C882.241,-426.969 903.5,-385.514 903.5,-347 903.5,-347 903.5,-347 903.5,-233 903.5,-189.225 869.202,-186.44 829.5,-168 785.112,-147.383 647.048,-132.983 574.725,-126.64"/>
<polygon fill="midnightblue" stroke="midnightblue" points="574.814,-123.135 564.55,-125.763 574.212,-130.109 574.814,-123.135"/>
</g>
<!-- Node26 -->
<g id="node26" class="node"><title>Node26</title>
<g id="a_node26"><a xlink:href="../../d8/d38/MIDICNChannelAddress_8hpp.html" target="_top" xlink:title=" ">
<polygon fill="white" stroke="black" points="932,-336.5 932,-355.5 1095,-355.5 1095,-336.5 932,-336.5"/>
<text text-anchor="middle" x="1013.5" y="-343.5" font-family="Helvetica,sans-Serif" font-size="10.00">Def/MIDICNChannelAddress.hpp</text>
</a>
</g>
</g>
<!-- Node25&#45;&gt;Node26 -->
<g id="edge38" class="edge"><title>Node25&#45;&gt;Node26</title>
<path fill="none" stroke="midnightblue" d="M879.261,-448.337C908.331,-426.392 963.997,-384.37 993.692,-361.953"/>
<polygon fill="midnightblue" stroke="midnightblue" points="996.143,-364.488 1002.02,-355.669 991.926,-358.901 996.143,-364.488"/>
</g>
<!-- Node27 -->
<g id="node27" class="node"><title>Node27</title>
<g id="a_node27"><a xlink:href="../../d4/d93/Updatable_8hpp.html" target="_top" xlink:title=" ">
<polygon fill="white" stroke="black" points="745.5,-392.5 745.5,-411.5 861.5,-411.5 861.5,-392.5 745.5,-392.5"/>
<text text-anchor="middle" x="803.5" y="-399.5" font-family="Helvetica,sans-Serif" font-size="10.00">Helpers/Updatable.hpp</text>
</a>
</g>
</g>
<!-- Node25&#45;&gt;Node27 -->
<g id="edge40" class="edge"><title>Node25&#45;&gt;Node27</title>
<path fill="none" stroke="midnightblue" d="M846.992,-448.399C838.538,-439.575 827.625,-428.183 818.845,-419.018"/>
<polygon fill="midnightblue" stroke="midnightblue" points="821.239,-416.458 811.794,-411.658 816.184,-421.3 821.239,-416.458"/>
</g>
<!-- Node26&#45;&gt;Node2 -->
<g id="edge39" class="edge"><title>Node26&#45;&gt;Node2</title>
<path fill="none" stroke="midnightblue" d="M1011.78,-336.485C1005.39,-307.228 980.048,-210.301 917.5,-168 862.521,-130.818 664.764,-124.187 574.723,-123.126"/>
<polygon fill="midnightblue" stroke="midnightblue" points="574.584,-119.624 564.55,-123.024 574.515,-126.624 574.584,-119.624"/>
</g>
<!-- Node27&#45;&gt;Node2 -->
<g id="edge41" class="edge"><title>Node27&#45;&gt;Node2</title>
<path fill="none" stroke="midnightblue" d="M806.737,-392.301C813.288,-373.889 827.5,-329.507 827.5,-291 827.5,-291 827.5,-291 827.5,-233 827.5,-202.902 831.065,-187.917 808.5,-168 774.606,-138.082 644.925,-127.919 574.933,-124.572"/>
<polygon fill="midnightblue" stroke="midnightblue" points="574.794,-121.062 564.647,-124.109 574.479,-128.055 574.794,-121.062"/>
</g>
<!-- Node27&#45;&gt;Node7 -->
<g id="edge46" class="edge"><title>Node27&#45;&gt;Node7</title>
<path fill="none" stroke="midnightblue" d="M817.903,-392.453C859.937,-366.298 979.5,-282.779 979.5,-179 979.5,-179 979.5,-179 979.5,-121 979.5,-28.4527 641.273,-13.7605 527.98,-11.4351"/>
<polygon fill="midnightblue" stroke="midnightblue" points="527.8,-7.93131 517.737,-11.2465 527.671,-14.9301 527.8,-7.93131"/>
</g>
<!-- Node27&#45;&gt;Node11 -->
<g id="edge44" class="edge"><title>Node27&#45;&gt;Node11</title>
<path fill="none" stroke="midnightblue" d="M763.411,-392.444C719.184,-383.004 647.961,-367.802 600.215,-357.611"/>
<polygon fill="midnightblue" stroke="midnightblue" points="600.911,-354.181 590.401,-355.516 599.45,-361.027 600.911,-354.181"/>
</g>
<!-- Node27&#45;&gt;Node13 -->
<g id="edge45" class="edge"><title>Node27&#45;&gt;Node13</title>
<path fill="none" stroke="midnightblue" d="M802.189,-392.214C798.794,-371.438 788.338,-318.166 765.5,-280 758.799,-268.801 748.773,-258.257 739.984,-250.194"/>
<polygon fill="midnightblue" stroke="midnightblue" points="742.217,-247.498 732.39,-243.539 737.604,-252.763 742.217,-247.498"/>
</g>
<!-- Node28 -->
<g id="node28" class="node"><title>Node28</title>
<g id="a_node28"><a xlink:href="../../d1/d93/Error_8hpp.html" target="_top" xlink:title=" ">
<polygon fill="white" stroke="black" points="668,-336.5 668,-355.5 761,-355.5 761,-336.5 668,-336.5"/>
<text text-anchor="middle" x="714.5" y="-343.5" font-family="Helvetica,sans-Serif" font-size="10.00">Helpers/Error.hpp</text>
</a>
</g>
</g>
<!-- Node27&#45;&gt;Node28 -->
<g id="edge42" class="edge"><title>Node27&#45;&gt;Node28</title>
<path fill="none" stroke="midnightblue" d="M789.201,-392.324C775.317,-383.9 754.008,-370.971 737.696,-361.074"/>
<polygon fill="midnightblue" stroke="midnightblue" points="739.129,-357.85 728.764,-355.655 735.498,-363.834 739.129,-357.85"/>
</g>
<!-- Node28&#45;&gt;Node12 -->
<g id="edge43" class="edge"><title>Node28&#45;&gt;Node12</title>
<path fill="none" stroke="midnightblue" d="M707.565,-336.083C701.571,-328.377 692.748,-317.033 685.452,-307.653"/>
<polygon fill="midnightblue" stroke="midnightblue" points="688.209,-305.496 679.306,-299.751 682.683,-309.793 688.209,-305.496"/>
</g>
</g>
</svg>
