<?xml version="1.0" encoding="UTF-8" standalone="no"?>
<!DOCTYPE svg PUBLIC "-//W3C//DTD SVG 1.1//EN"
 "http://www.w3.org/Graphics/SVG/1.1/DTD/svg11.dtd">
<!-- Generated by graphviz version 2.38.0 (20140413.2041)
 -->
<!-- Title: Bankable::MIDIButtons&lt; Sender, NUMBER_OF_BUTTONS &gt; Pages: 1 -->
<svg width="816pt" height="1113pt"
 viewBox="0.00 0.00 816.00 1113.00" xmlns="http://www.w3.org/2000/svg" xmlns:xlink="http://www.w3.org/1999/xlink">
<g id="graph0" class="graph" transform="scale(1 1) rotate(0) translate(4 1109)">
<title>Bankable::MIDIButtons&lt; Sender, NUMBER_OF_BUTTONS &gt;</title>
<polygon fill="white" stroke="none" points="-4,4 -4,-1109 812,-1109 812,4 -4,4"/>
<!-- Node1 -->
<g id="node1" class="node"><title>Node1</title>
<g id="a_node1"><a xlink:title="An abstract class for momentary push buttons that send MIDI events.">
<polygon fill="#bfbfbf" stroke="black" points="233,-0.5 233,-90.5 421,-90.5 421,-0.5 233,-0.5"/>
<text text-anchor="start" x="241" y="-78.5" font-family="Helvetica,sans-Serif" font-size="10.00">Bankable::MIDIButtons</text>
<text text-anchor="middle" x="327" y="-67.5" font-family="Helvetica,sans-Serif" font-size="10.00">&lt; Sender, NUMBER_OF_BUTTONS &gt;</text>
<polyline fill="none" stroke="black" points="233,-60.5 421,-60.5 "/>
<text text-anchor="start" x="241" y="-48.5" font-family="Helvetica,sans-Serif" font-size="10.00">&#45; activeButtons</text>
<polyline fill="none" stroke="black" points="233,-41.5 421,-41.5 "/>
<text text-anchor="start" x="241" y="-29.5" font-family="Helvetica,sans-Serif" font-size="10.00">+ begin()</text>
<text text-anchor="start" x="241" y="-18.5" font-family="Helvetica,sans-Serif" font-size="10.00">+ update()</text>
<text text-anchor="start" x="241" y="-7.5" font-family="Helvetica,sans-Serif" font-size="10.00"># MIDIButtons()</text>
</a>
</g>
</g>
<!-- Node2 -->
<g id="node2" class="node"><title>Node2</title>
<g id="a_node2"><a xlink:href="../../d3/d43/classBankableMIDIOutput.html" target="_top" xlink:title="A base class for all MIDIOutputElement::s that can be banked.">
<polygon fill="white" stroke="black" points="0,-188 0,-333 122,-333 122,-188 0,-188"/>
<text text-anchor="middle" x="61" y="-321" font-family="Helvetica,sans-Serif" font-size="10.00">BankableMIDIOutput</text>
<polyline fill="none" stroke="black" points="0,-314 122,-314 "/>
<text text-anchor="start" x="8" y="-302" font-family="Helvetica,sans-Serif" font-size="10.00">&#45; type</text>
<text text-anchor="start" x="8" y="-291" font-family="Helvetica,sans-Serif" font-size="10.00">&#45; lockedSetting</text>
<text text-anchor="start" x="8" y="-280" font-family="Helvetica,sans-Serif" font-size="10.00">&#45; UNLOCKED</text>
<polyline fill="none" stroke="black" points="0,-273 122,-273 "/>
<text text-anchor="start" x="8" y="-261" font-family="Helvetica,sans-Serif" font-size="10.00">+ getAddressOffset()</text>
<text text-anchor="start" x="8" y="-250" font-family="Helvetica,sans-Serif" font-size="10.00">+ getRawBankSetting()</text>
<text text-anchor="start" x="8" y="-239" font-family="Helvetica,sans-Serif" font-size="10.00">+ getSelection()</text>
<text text-anchor="start" x="8" y="-228" font-family="Helvetica,sans-Serif" font-size="10.00"># BankableMIDIOutput()</text>
<text text-anchor="start" x="8" y="-217" font-family="Helvetica,sans-Serif" font-size="10.00"># BankableMIDIOutput()</text>
<text text-anchor="start" x="8" y="-206" font-family="Helvetica,sans-Serif" font-size="10.00"># lock()</text>
<text text-anchor="start" x="8" y="-195" font-family="Helvetica,sans-Serif" font-size="10.00"># unlock()</text>
</a>
</g>
</g>
<!-- Node2&#45;&gt;Node1 -->
<g id="edge1" class="edge"><title>Node2&#45;&gt;Node1</title>
<path fill="none" stroke="midnightblue" d="M98.0243,-178.932C107.322,-164.086 118.33,-149.626 131,-138 159.915,-111.468 197.883,-91.3506 232.695,-76.8315"/>
<polygon fill="none" stroke="midnightblue" points="94.9057,-177.326 92.7478,-187.699 100.903,-180.936 94.9057,-177.326"/>
</g>
<!-- Node3 -->
<g id="node3" class="node"><title>Node3</title>
<g id="a_node3"><a xlink:href="../../d9/d36/classOutputBank.html" target="_top" xlink:title="A class for changing the address of BankableMIDIOutput::s.">
<polygon fill="white" stroke="black" points="4.5,-518.5 4.5,-619.5 117.5,-619.5 117.5,-518.5 4.5,-518.5"/>
<text text-anchor="middle" x="61" y="-607.5" font-family="Helvetica,sans-Serif" font-size="10.00">OutputBank</text>
<polyline fill="none" stroke="black" points="4.5,-600.5 117.5,-600.5 "/>
<text text-anchor="start" x="12.5" y="-588.5" font-family="Helvetica,sans-Serif" font-size="10.00">&#45; tracksPerBank</text>
<text text-anchor="start" x="12.5" y="-577.5" font-family="Helvetica,sans-Serif" font-size="10.00">&#45; bankSetting</text>
<polyline fill="none" stroke="black" points="4.5,-570.5 117.5,-570.5 "/>
<text text-anchor="start" x="12.5" y="-558.5" font-family="Helvetica,sans-Serif" font-size="10.00">+ OutputBank()</text>
<text text-anchor="start" x="12.5" y="-547.5" font-family="Helvetica,sans-Serif" font-size="10.00">+ select()</text>
<text text-anchor="start" x="12.5" y="-536.5" font-family="Helvetica,sans-Serif" font-size="10.00">+ getSelection()</text>
<text text-anchor="start" x="12.5" y="-525.5" font-family="Helvetica,sans-Serif" font-size="10.00">+ getTracksPerBank()</text>
</a>
</g>
</g>
<!-- Node3&#45;&gt;Node2 -->
<g id="edge2" class="edge"><title>Node3&#45;&gt;Node2</title>
<path fill="none" stroke="#404040" d="M61,-518.415C61,-471.712 61,-400.829 61,-345.339"/>
<polygon fill="none" stroke="#404040" points="61.0001,-345.03 57,-339.03 61,-333.03 65,-339.03 61.0001,-345.03"/>
<text text-anchor="middle" x="75" y="-404" font-family="Helvetica,sans-Serif" font-size="10.00"> &#45;bank</text>
</g>
<!-- Node4 -->
<g id="node4" class="node"><title>Node4</title>
<g id="a_node4"><a xlink:href="../../d5/de0/classUpdatable.html" target="_top" xlink:title=" ">
<polygon fill="white" stroke="black" points="140,-155 140,-366 244,-366 244,-155 140,-155"/>
<text text-anchor="middle" x="192" y="-354" font-family="Helvetica,sans-Serif" font-size="10.00">MIDIOutputElement</text>
<polyline fill="none" stroke="black" points="140,-347 244,-347 "/>
<text text-anchor="middle" x="192" y="-335" font-family="Helvetica,sans-Serif" font-size="10.00"> </text>
<polyline fill="none" stroke="black" points="140,-328 244,-328 "/>
<text text-anchor="start" x="148" y="-316" font-family="Helvetica,sans-Serif" font-size="10.00">+ ~Updatable()</text>
<text text-anchor="start" x="148" y="-305" font-family="Helvetica,sans-Serif" font-size="10.00">+ update()</text>
<text text-anchor="start" x="148" y="-294" font-family="Helvetica,sans-Serif" font-size="10.00">+ begin()</text>
<text text-anchor="start" x="148" y="-283" font-family="Helvetica,sans-Serif" font-size="10.00">+ enable()</text>
<text text-anchor="start" x="148" y="-272" font-family="Helvetica,sans-Serif" font-size="10.00">+ disable()</text>
<text text-anchor="start" x="148" y="-261" font-family="Helvetica,sans-Serif" font-size="10.00">+ isEnabled()</text>
<text text-anchor="start" x="148" y="-250" font-family="Helvetica,sans-Serif" font-size="10.00">+ enable()</text>
<text text-anchor="start" x="148" y="-239" font-family="Helvetica,sans-Serif" font-size="10.00">+ enable()</text>
<text text-anchor="start" x="148" y="-228" font-family="Helvetica,sans-Serif" font-size="10.00">+ enable()</text>
<text text-anchor="start" x="148" y="-217" font-family="Helvetica,sans-Serif" font-size="10.00">+ disable()</text>
<text text-anchor="start" x="148" y="-206" font-family="Helvetica,sans-Serif" font-size="10.00">+ disable()</text>
<text text-anchor="start" x="148" y="-195" font-family="Helvetica,sans-Serif" font-size="10.00">+ disable()</text>
<text text-anchor="start" x="148" y="-184" font-family="Helvetica,sans-Serif" font-size="10.00">+ beginAll()</text>
<text text-anchor="start" x="148" y="-173" font-family="Helvetica,sans-Serif" font-size="10.00">+ updateAll()</text>
<text text-anchor="start" x="148" y="-162" font-family="Helvetica,sans-Serif" font-size="10.00"># Updatable()</text>
</a>
</g>
</g>
<!-- Node4&#45;&gt;Node1 -->
<g id="edge3" class="edge"><title>Node4&#45;&gt;Node1</title>
<path fill="none" stroke="midnightblue" d="M247.767,-146.341C249.496,-143.513 251.241,-140.728 253,-138 263.407,-121.859 276.148,-105.235 288.106,-90.6593"/>
<polygon fill="none" stroke="midnightblue" points="244.752,-144.563 242.633,-154.943 250.763,-148.15 244.752,-144.563"/>
</g>
<!-- Node5 -->
<g id="node5" class="node"><title>Node5</title>
<g id="a_node5"><a xlink:href="../../d4/d23/classDoublyLinkable.html" target="_top" xlink:title=" ">
<polygon fill="white" stroke="black" points="153.5,-1036.5 153.5,-1104.5 290.5,-1104.5 290.5,-1036.5 153.5,-1036.5"/>
<text text-anchor="start" x="161.5" y="-1092.5" font-family="Helvetica,sans-Serif" font-size="10.00">DoublyLinkable&lt; Updatable</text>
<text text-anchor="middle" x="222" y="-1081.5" font-family="Helvetica,sans-Serif" font-size="10.00">&lt; NormalUpdatable &gt; &gt;</text>
<polyline fill="none" stroke="black" points="153.5,-1074.5 290.5,-1074.5 "/>
<text text-anchor="middle" x="222" y="-1062.5" font-family="Helvetica,sans-Serif" font-size="10.00"> </text>
<polyline fill="none" stroke="black" points="153.5,-1055.5 290.5,-1055.5 "/>
<text text-anchor="start" x="161.5" y="-1043.5" font-family="Helvetica,sans-Serif" font-size="10.00"># ~DoublyLinkable()</text>
</a>
</g>
</g>
<!-- Node5&#45;&gt;Node4 -->
<g id="edge4" class="edge"><title>Node5&#45;&gt;Node4</title>
<path fill="none" stroke="midnightblue" d="M191.068,-1027.8C181.756,-1012.86 172.752,-995.403 168,-978 103.84,-743.047 150.785,-672.946 168,-430 169.462,-409.368 171.919,-387.42 174.717,-366.419"/>
<polygon fill="none" stroke="midnightblue" points="188.185,-1029.79 196.556,-1036.28 194.062,-1025.98 188.185,-1029.79"/>
</g>
<!-- Node6 -->
<g id="node6" class="node"><title>Node6</title>
<g id="a_node6"><a xlink:href="../../d5/de0/classUpdatable.html" target="_top" xlink:title=" ">
<polygon fill="white" stroke="black" points="177.5,-766.5 177.5,-977.5 332.5,-977.5 332.5,-766.5 177.5,-766.5"/>
<text text-anchor="middle" x="255" y="-965.5" font-family="Helvetica,sans-Serif" font-size="10.00">Updatable&lt; NormalUpdatable &gt;</text>
<polyline fill="none" stroke="black" points="177.5,-958.5 332.5,-958.5 "/>
<text text-anchor="middle" x="255" y="-946.5" font-family="Helvetica,sans-Serif" font-size="10.00"> </text>
<polyline fill="none" stroke="black" points="177.5,-939.5 332.5,-939.5 "/>
<text text-anchor="start" x="185.5" y="-927.5" font-family="Helvetica,sans-Serif" font-size="10.00">+ ~Updatable()</text>
<text text-anchor="start" x="185.5" y="-916.5" font-family="Helvetica,sans-Serif" font-size="10.00">+ update()</text>
<text text-anchor="start" x="185.5" y="-905.5" font-family="Helvetica,sans-Serif" font-size="10.00">+ begin()</text>
<text text-anchor="start" x="185.5" y="-894.5" font-family="Helvetica,sans-Serif" font-size="10.00">+ enable()</text>
<text text-anchor="start" x="185.5" y="-883.5" font-family="Helvetica,sans-Serif" font-size="10.00">+ disable()</text>
<text text-anchor="start" x="185.5" y="-872.5" font-family="Helvetica,sans-Serif" font-size="10.00">+ isEnabled()</text>
<text text-anchor="start" x="185.5" y="-861.5" font-family="Helvetica,sans-Serif" font-size="10.00">+ enable()</text>
<text text-anchor="start" x="185.5" y="-850.5" font-family="Helvetica,sans-Serif" font-size="10.00">+ enable()</text>
<text text-anchor="start" x="185.5" y="-839.5" font-family="Helvetica,sans-Serif" font-size="10.00">+ enable()</text>
<text text-anchor="start" x="185.5" y="-828.5" font-family="Helvetica,sans-Serif" font-size="10.00">+ disable()</text>
<text text-anchor="start" x="185.5" y="-817.5" font-family="Helvetica,sans-Serif" font-size="10.00">+ disable()</text>
<text text-anchor="start" x="185.5" y="-806.5" font-family="Helvetica,sans-Serif" font-size="10.00">+ disable()</text>
<text text-anchor="start" x="185.5" y="-795.5" font-family="Helvetica,sans-Serif" font-size="10.00">+ beginAll()</text>
<text text-anchor="start" x="185.5" y="-784.5" font-family="Helvetica,sans-Serif" font-size="10.00">+ updateAll()</text>
<text text-anchor="start" x="185.5" y="-773.5" font-family="Helvetica,sans-Serif" font-size="10.00"># Updatable()</text>
</a>
</g>
</g>
<!-- Node5&#45;&gt;Node6 -->
<g id="edge6" class="edge"><title>Node5&#45;&gt;Node6</title>
<path fill="none" stroke="midnightblue" d="M229.293,-1026.07C231.724,-1011.6 234.546,-994.794 237.412,-977.727"/>
<polygon fill="none" stroke="midnightblue" points="225.803,-1025.72 227.598,-1036.17 232.706,-1026.88 225.803,-1025.72"/>
</g>
<!-- Node6&#45;&gt;Node5 -->
<g id="edge5" class="edge"><title>Node6&#45;&gt;Node5</title>
<path fill="none" stroke="#404040" d="M239.882,-977.669C237.696,-991.259 235.377,-1004.98 233,-1018 232.611,-1020.13 232.199,-1022.31 231.773,-1024.51"/>
<polygon fill="none" stroke="#404040" points="231.765,-1024.55 234.5,-1031.22 229.393,-1036.31 226.658,-1029.64 231.765,-1024.55"/>
<text text-anchor="middle" x="258.5" y="-1010" font-family="Helvetica,sans-Serif" font-size="10.00"> #next</text>
<text text-anchor="middle" x="258.5" y="-999" font-family="Helvetica,sans-Serif" font-size="10.00">#previous</text>
</g>
<!-- Node7 -->
<g id="node7" class="node"><title>Node7</title>
<g id="a_node7"><a xlink:href="../../dd/d16/classDoublyLinkedList.html" target="_top" xlink:title=" ">
<polygon fill="white" stroke="black" points="177.5,-430.5 177.5,-707.5 322.5,-707.5 322.5,-430.5 177.5,-430.5"/>
<text text-anchor="start" x="185.5" y="-695.5" font-family="Helvetica,sans-Serif" font-size="10.00">DoublyLinkedList&lt; Updatable</text>
<text text-anchor="middle" x="250" y="-684.5" font-family="Helvetica,sans-Serif" font-size="10.00">&lt; NormalUpdatable &gt; &gt;</text>
<polyline fill="none" stroke="black" points="177.5,-677.5 322.5,-677.5 "/>
<text text-anchor="middle" x="250" y="-665.5" font-family="Helvetica,sans-Serif" font-size="10.00"> </text>
<polyline fill="none" stroke="black" points="177.5,-658.5 322.5,-658.5 "/>
<text text-anchor="start" x="185.5" y="-646.5" font-family="Helvetica,sans-Serif" font-size="10.00">+ append()</text>
<text text-anchor="start" x="185.5" y="-635.5" font-family="Helvetica,sans-Serif" font-size="10.00">+ append()</text>
<text text-anchor="start" x="185.5" y="-624.5" font-family="Helvetica,sans-Serif" font-size="10.00">+ insertBefore()</text>
<text text-anchor="start" x="185.5" y="-613.5" font-family="Helvetica,sans-Serif" font-size="10.00">+ insertBefore()</text>
<text text-anchor="start" x="185.5" y="-602.5" font-family="Helvetica,sans-Serif" font-size="10.00">+ insertSorted()</text>
<text text-anchor="start" x="185.5" y="-591.5" font-family="Helvetica,sans-Serif" font-size="10.00">+ insertSorted()</text>
<text text-anchor="start" x="185.5" y="-580.5" font-family="Helvetica,sans-Serif" font-size="10.00">+ remove()</text>
<text text-anchor="start" x="185.5" y="-569.5" font-family="Helvetica,sans-Serif" font-size="10.00">+ remove()</text>
<text text-anchor="start" x="185.5" y="-558.5" font-family="Helvetica,sans-Serif" font-size="10.00">+ moveDown()</text>
<text text-anchor="start" x="185.5" y="-547.5" font-family="Helvetica,sans-Serif" font-size="10.00">+ couldContain()</text>
<text text-anchor="start" x="185.5" y="-536.5" font-family="Helvetica,sans-Serif" font-size="10.00">+ begin()</text>
<text text-anchor="start" x="185.5" y="-525.5" font-family="Helvetica,sans-Serif" font-size="10.00">+ begin()</text>
<text text-anchor="start" x="185.5" y="-514.5" font-family="Helvetica,sans-Serif" font-size="10.00">+ end()</text>
<text text-anchor="start" x="185.5" y="-503.5" font-family="Helvetica,sans-Serif" font-size="10.00">+ end()</text>
<text text-anchor="start" x="185.5" y="-492.5" font-family="Helvetica,sans-Serif" font-size="10.00">+ rbegin()</text>
<text text-anchor="start" x="185.5" y="-481.5" font-family="Helvetica,sans-Serif" font-size="10.00">+ rbegin()</text>
<text text-anchor="start" x="185.5" y="-470.5" font-family="Helvetica,sans-Serif" font-size="10.00">+ rend()</text>
<text text-anchor="start" x="185.5" y="-459.5" font-family="Helvetica,sans-Serif" font-size="10.00">+ rend()</text>
<text text-anchor="start" x="185.5" y="-448.5" font-family="Helvetica,sans-Serif" font-size="10.00">+ getFirst()</text>
<text text-anchor="start" x="185.5" y="-437.5" font-family="Helvetica,sans-Serif" font-size="10.00">+ getLast()</text>
</a>
</g>
</g>
<!-- Node6&#45;&gt;Node7 -->
<g id="edge8" class="edge"><title>Node6&#45;&gt;Node7</title>
<path fill="none" stroke="#404040" d="M229.507,-766.258C228.524,-760.103 227.673,-753.985 227,-748 225.972,-738.856 225.488,-729.452 225.435,-719.972"/>
<polygon fill="none" stroke="#404040" points="225.435,-719.934 221.513,-713.883 225.59,-707.935 229.512,-713.986 225.435,-719.934"/>
<text text-anchor="middle" x="238" y="-740" font-family="Helvetica,sans-Serif" font-size="10.00"> &#45;last</text>
<text text-anchor="middle" x="238" y="-729" font-family="Helvetica,sans-Serif" font-size="10.00">&#45;first</text>
</g>
<!-- Node7&#45;&gt;Node4 -->
<g id="edge9" class="edge"><title>Node7&#45;&gt;Node4</title>
<path fill="none" stroke="#404040" d="M223.969,-430.44C220.698,-413.152 217.375,-395.594 214.171,-378.661"/>
<polygon fill="none" stroke="#404040" points="214.092,-378.244 209.046,-373.092 211.861,-366.453 216.907,-371.605 214.092,-378.244"/>
<text text-anchor="middle" x="247" y="-404" font-family="Helvetica,sans-Serif" font-size="10.00"> &#45;updatables</text>
</g>
<!-- Node7&#45;&gt;Node6 -->
<g id="edge7" class="edge"><title>Node7&#45;&gt;Node6</title>
<path fill="none" stroke="#404040" d="M252.691,-707.806C252.798,-713.955 252.902,-720.041 253,-726 253.152,-735.204 253.301,-744.736 253.446,-754.316"/>
<polygon fill="none" stroke="#404040" points="253.448,-754.455 257.536,-760.395 253.626,-766.454 249.537,-760.514 253.448,-754.455"/>
<text text-anchor="middle" x="281" y="-734.5" font-family="Helvetica,sans-Serif" font-size="10.00"> &#45;updatables</text>
</g>
<!-- Node8 -->
<g id="node8" class="node"><title>Node8</title>
<g id="a_node8"><a xlink:title=" ">
<polygon fill="white" stroke="#bfbfbf" points="262.5,-232 262.5,-289 309.5,-289 309.5,-232 262.5,-232"/>
<text text-anchor="middle" x="286" y="-277" font-family="Helvetica,sans-Serif" font-size="10.00">Sender</text>
<polyline fill="none" stroke="#bfbfbf" points="262.5,-270 309.5,-270 "/>
<text text-anchor="middle" x="286" y="-258" font-family="Helvetica,sans-Serif" font-size="10.00"> </text>
<polyline fill="none" stroke="#bfbfbf" points="262.5,-251 309.5,-251 "/>
<text text-anchor="middle" x="286" y="-239" font-family="Helvetica,sans-Serif" font-size="10.00"> </text>
</a>
</g>
</g>
<!-- Node8&#45;&gt;Node1 -->
<g id="edge10" class="edge"><title>Node8&#45;&gt;Node1</title>
<path fill="none" stroke="#404040" d="M289.499,-231.872C293.548,-201.56 300.848,-151.551 310,-109 310.459,-106.867 310.946,-104.697 311.454,-102.51"/>
<polygon fill="none" stroke="#404040" points="311.482,-102.398 309.023,-95.6186 314.335,-90.7419 316.794,-97.521 311.482,-102.398"/>
<text text-anchor="middle" x="328" y="-112" font-family="Helvetica,sans-Serif" font-size="10.00"> &#45;sender</text>
</g>
<!-- Node9 -->
<g id="node9" class="node"><title>Node9</title>
<g id="a_node9"><a xlink:href="../../d7/d6a/structArray.html" target="_top" xlink:title=" ">
<polygon fill="white" stroke="black" points="328,-188 328,-333 456,-333 456,-188 328,-188"/>
<text text-anchor="start" x="336" y="-321" font-family="Helvetica,sans-Serif" font-size="10.00">Array&lt; Button, NUMBER</text>
<text text-anchor="middle" x="392" y="-310" font-family="Helvetica,sans-Serif" font-size="10.00">_OF_BUTTONS &gt;</text>
<polyline fill="none" stroke="black" points="328,-303 456,-303 "/>
<text text-anchor="start" x="336" y="-291" font-family="Helvetica,sans-Serif" font-size="10.00">+ length</text>
<polyline fill="none" stroke="black" points="328,-284 456,-284 "/>
<text text-anchor="start" x="336" y="-272" font-family="Helvetica,sans-Serif" font-size="10.00">+ operator[]()</text>
<text text-anchor="start" x="336" y="-261" font-family="Helvetica,sans-Serif" font-size="10.00">+ operator[]()</text>
<text text-anchor="start" x="336" y="-250" font-family="Helvetica,sans-Serif" font-size="10.00">+ begin()</text>
<text text-anchor="start" x="336" y="-239" font-family="Helvetica,sans-Serif" font-size="10.00">+ begin()</text>
<text text-anchor="start" x="336" y="-228" font-family="Helvetica,sans-Serif" font-size="10.00">+ end()</text>
<text text-anchor="start" x="336" y="-217" font-family="Helvetica,sans-Serif" font-size="10.00">+ end()</text>
<text text-anchor="start" x="336" y="-206" font-family="Helvetica,sans-Serif" font-size="10.00">+ operator==()</text>
<text text-anchor="start" x="336" y="-195" font-family="Helvetica,sans-Serif" font-size="10.00">+ operator!=()</text>
</a>
</g>
</g>
<!-- Node9&#45;&gt;Node1 -->
<g id="edge11" class="edge"><title>Node9&#45;&gt;Node1</title>
<path fill="none" stroke="#404040" d="M370.175,-187.982C361.636,-159.998 351.99,-128.391 343.985,-102.159"/>
<polygon fill="none" stroke="#404040" points="343.935,-101.995 338.358,-97.4239 340.433,-90.5177 346.01,-95.0889 343.935,-101.995"/>
<text text-anchor="middle" x="368.5" y="-112" font-family="Helvetica,sans-Serif" font-size="10.00"> &#45;buttons</text>
</g>
<!-- Node10 -->
<g id="node10" class="node"><title>Node10</title>
<g id="a_node10"><a xlink:href="../../d1/d19/classButton.html" target="_top" xlink:title="A class for reading and debouncing buttons and switches.">
<polygon fill="white" stroke="black" points="344,-480 344,-658 440,-658 440,-480 344,-480"/>
<text text-anchor="middle" x="392" y="-646" font-family="Helvetica,sans-Serif" font-size="10.00">Button</text>
<polyline fill="none" stroke="black" points="344,-639 440,-639 "/>
<text text-anchor="start" x="352" y="-627" font-family="Helvetica,sans-Serif" font-size="10.00">&#45; pin</text>
<text text-anchor="start" x="352" y="-616" font-family="Helvetica,sans-Serif" font-size="10.00">&#45; prevState</text>
<text text-anchor="start" x="352" y="-605" font-family="Helvetica,sans-Serif" font-size="10.00">&#45; debouncedState</text>
<text text-anchor="start" x="352" y="-594" font-family="Helvetica,sans-Serif" font-size="10.00">&#45; prevBounceTime</text>
<text text-anchor="start" x="352" y="-583" font-family="Helvetica,sans-Serif" font-size="10.00">&#45; invertState</text>
<text text-anchor="start" x="352" y="-572" font-family="Helvetica,sans-Serif" font-size="10.00">&#45; debounceTime</text>
<polyline fill="none" stroke="black" points="344,-565 440,-565 "/>
<text text-anchor="start" x="352" y="-553" font-family="Helvetica,sans-Serif" font-size="10.00">+ Button()</text>
<text text-anchor="start" x="352" y="-542" font-family="Helvetica,sans-Serif" font-size="10.00">+ Button()</text>
<text text-anchor="start" x="352" y="-531" font-family="Helvetica,sans-Serif" font-size="10.00">+ begin()</text>
<text text-anchor="start" x="352" y="-520" font-family="Helvetica,sans-Serif" font-size="10.00">+ invert()</text>
<text text-anchor="start" x="352" y="-509" font-family="Helvetica,sans-Serif" font-size="10.00">+ getState()</text>
<text text-anchor="start" x="352" y="-498" font-family="Helvetica,sans-Serif" font-size="10.00">+ stableTime()</text>
<text text-anchor="start" x="352" y="-487" font-family="Helvetica,sans-Serif" font-size="10.00">+ getName()</text>
</a>
</g>
</g>
<!-- Node10&#45;&gt;Node9 -->
<g id="edge12" class="edge"><title>Node10&#45;&gt;Node9</title>
<path fill="none" stroke="#404040" d="M392,-479.759C392,-437.426 392,-386.97 392,-345.24"/>
<polygon fill="none" stroke="#404040" points="392,-345.153 388,-339.153 392,-333.153 396,-339.153 392,-345.153"/>
<text text-anchor="middle" x="406" y="-404" font-family="Helvetica,sans-Serif" font-size="10.00"> +data</text>
</g>
<!-- Node11 -->
<g id="node11" class="node"><title>Node11</title>
<g id="a_node11"><a xlink:href="../../da/dc7/classRelativeMIDICNChannelAddress.html" target="_top" xlink:title="A class for saving an offset to a MIDI address.">
<polygon fill="white" stroke="black" points="474,-221 474,-300 650,-300 650,-221 474,-221"/>
<text text-anchor="middle" x="562" y="-288" font-family="Helvetica,sans-Serif" font-size="10.00">RelativeMIDICNChannelAddress</text>
<polyline fill="none" stroke="black" points="474,-281 650,-281 "/>
<text text-anchor="start" x="482" y="-269" font-family="Helvetica,sans-Serif" font-size="10.00">&#45; addresses</text>
<polyline fill="none" stroke="black" points="474,-262 650,-262 "/>
<text text-anchor="start" x="482" y="-250" font-family="Helvetica,sans-Serif" font-size="10.00">+ RelativeMIDICNChannelAddress()</text>
<text text-anchor="start" x="482" y="-239" font-family="Helvetica,sans-Serif" font-size="10.00">+ RelativeMIDICNChannelAddress()</text>
<text text-anchor="start" x="482" y="-228" font-family="Helvetica,sans-Serif" font-size="10.00">+ isValid()</text>
</a>
</g>
</g>
<!-- Node11&#45;&gt;Node1 -->
<g id="edge13" class="edge"><title>Node11&#45;&gt;Node1</title>
<path fill="none" stroke="#404040" d="M535.889,-220.777C517.76,-195.528 492.076,-162.787 465,-138 449.167,-123.506 430.829,-109.682 412.795,-97.3714"/>
<polygon fill="none" stroke="#404040" points="412.795,-97.3714 405.584,-97.3555 402.825,-90.6929 410.036,-90.7089 412.795,-97.3714"/>
<text text-anchor="middle" x="483.5" y="-112" font-family="Helvetica,sans-Serif" font-size="10.00"> &#45;incrementAddress</text>
</g>
<!-- Node12 -->
<g id="node12" class="node"><title>Node12</title>
<g id="a_node12"><a xlink:href="../../d3/d10/classMIDICNChannelAddress.html" target="_top" xlink:title="A type&#45;safe utility class for saving a MIDI address consisting of a 7&#45;bit address,...">
<polygon fill="white" stroke="black" points="668,-138.5 668,-382.5 808,-382.5 808,-138.5 668,-138.5"/>
<text text-anchor="middle" x="738" y="-370.5" font-family="Helvetica,sans-Serif" font-size="10.00">MIDICNChannelAddress</text>
<polyline fill="none" stroke="black" points="668,-363.5 808,-363.5 "/>
<text text-anchor="start" x="676" y="-351.5" font-family="Helvetica,sans-Serif" font-size="10.00">&#45; addresses</text>
<polyline fill="none" stroke="black" points="668,-344.5 808,-344.5 "/>
<text text-anchor="start" x="676" y="-332.5" font-family="Helvetica,sans-Serif" font-size="10.00">+ MIDICNChannelAddress()</text>
<text text-anchor="start" x="676" y="-321.5" font-family="Helvetica,sans-Serif" font-size="10.00">+ MIDICNChannelAddress()</text>
<text text-anchor="start" x="676" y="-310.5" font-family="Helvetica,sans-Serif" font-size="10.00">+ MIDICNChannelAddress()</text>
<text text-anchor="start" x="676" y="-299.5" font-family="Helvetica,sans-Serif" font-size="10.00">+ MIDICNChannelAddress()</text>
<text text-anchor="start" x="676" y="-288.5" font-family="Helvetica,sans-Serif" font-size="10.00">+ MIDICNChannelAddress()</text>
<text text-anchor="start" x="676" y="-277.5" font-family="Helvetica,sans-Serif" font-size="10.00">+ operator+=()</text>
<text text-anchor="start" x="676" y="-266.5" font-family="Helvetica,sans-Serif" font-size="10.00">+ operator&#45;=()</text>
<text text-anchor="start" x="676" y="-255.5" font-family="Helvetica,sans-Serif" font-size="10.00">+ operator+()</text>
<text text-anchor="start" x="676" y="-244.5" font-family="Helvetica,sans-Serif" font-size="10.00">+ operator&#45;()</text>
<text text-anchor="start" x="676" y="-233.5" font-family="Helvetica,sans-Serif" font-size="10.00">+ operator==()</text>
<text text-anchor="start" x="676" y="-222.5" font-family="Helvetica,sans-Serif" font-size="10.00">+ operator!=()</text>
<text text-anchor="start" x="676" y="-211.5" font-family="Helvetica,sans-Serif" font-size="10.00">+ getAddress()</text>
<text text-anchor="start" x="676" y="-200.5" font-family="Helvetica,sans-Serif" font-size="10.00">+ getChannel()</text>
<text text-anchor="start" x="676" y="-189.5" font-family="Helvetica,sans-Serif" font-size="10.00">+ getCableNumber()</text>
<text text-anchor="start" x="676" y="-178.5" font-family="Helvetica,sans-Serif" font-size="10.00">+ isValid()</text>
<text text-anchor="start" x="676" y="-167.5" font-family="Helvetica,sans-Serif" font-size="10.00">+ operator bool()</text>
<text text-anchor="start" x="676" y="-156.5" font-family="Helvetica,sans-Serif" font-size="10.00">+ matchSingle()</text>
<text text-anchor="start" x="676" y="-145.5" font-family="Helvetica,sans-Serif" font-size="10.00">+ matchAddressInRange()</text>
</a>
</g>
</g>
<!-- Node12&#45;&gt;Node1 -->
<g id="edge14" class="edge"><title>Node12&#45;&gt;Node1</title>
<path fill="none" stroke="#404040" d="M667.88,-145.127C665.006,-142.613 662.046,-140.228 659,-138 592.972,-89.6962 502.677,-66.8885 432.921,-56.1215"/>
<polygon fill="none" stroke="#404040" points="432.902,-56.1187 426.383,-59.2023 421.03,-54.3711 427.548,-51.2876 432.902,-56.1187"/>
<text text-anchor="middle" x="660" y="-112" font-family="Helvetica,sans-Serif" font-size="10.00"> &#45;baseAddress</text>
</g>
</g>
</svg>
