<?xml version="1.0" encoding="UTF-8" standalone="no"?>
<!DOCTYPE svg PUBLIC "-//W3C//DTD SVG 1.1//EN"
 "http://www.w3.org/Graphics/SVG/1.1/DTD/svg11.dtd">
<!-- Generated by graphviz version 2.38.0 (20140413.2041)
 -->
<!-- Title: Bankable::MIDIButtons&lt; Sender, NUMBER_OF_BUTTONS &gt; Pages: 1 -->
<svg width="839pt" height="1146pt"
 viewBox="0.00 0.00 839.00 1146.00" xmlns="http://www.w3.org/2000/svg" xmlns:xlink="http://www.w3.org/1999/xlink">
<g id="graph0" class="graph" transform="scale(1 1) rotate(0) translate(4 1142)">
<title>Bankable::MIDIButtons&lt; Sender, NUMBER_OF_BUTTONS &gt;</title>
<polygon fill="white" stroke="none" points="-4,4 -4,-1142 835,-1142 835,4 -4,4"/>
<!-- Node1 -->
<g id="node1" class="node"><title>Node1</title>
<g id="a_node1"><a xlink:title="An abstract class for momentary push buttons that send MIDI events.">
<polygon fill="#bfbfbf" stroke="black" points="257,-0.5 257,-101.5 445,-101.5 445,-0.5 257,-0.5"/>
<text text-anchor="start" x="265" y="-89.5" font-family="Helvetica,sans-Serif" font-size="10.00">Bankable::MIDIButtons</text>
<text text-anchor="middle" x="351" y="-78.5" font-family="Helvetica,sans-Serif" font-size="10.00">&lt; Sender, NUMBER_OF_BUTTONS &gt;</text>
<polyline fill="none" stroke="black" points="257,-71.5 445,-71.5 "/>
<text text-anchor="start" x="265" y="-59.5" font-family="Helvetica,sans-Serif" font-size="10.00">&#45; activeButtons</text>
<polyline fill="none" stroke="black" points="257,-52.5 445,-52.5 "/>
<text text-anchor="start" x="265" y="-40.5" font-family="Helvetica,sans-Serif" font-size="10.00">+ begin()</text>
<text text-anchor="start" x="265" y="-29.5" font-family="Helvetica,sans-Serif" font-size="10.00">+ update()</text>
<text text-anchor="start" x="265" y="-18.5" font-family="Helvetica,sans-Serif" font-size="10.00">+ getButtonState()</text>
<text text-anchor="start" x="265" y="-7.5" font-family="Helvetica,sans-Serif" font-size="10.00"># MIDIButtons()</text>
</a>
</g>
</g>
<!-- Node2 -->
<g id="node2" class="node"><title>Node2</title>
<g id="a_node2"><a xlink:href="../../d3/d43/classBankableMIDIOutput.html" target="_top" xlink:title="A base class for all MIDIOutputElements that can be banked.">
<polygon fill="white" stroke="black" points="19.5,-243 19.5,-322 142.5,-322 142.5,-243 19.5,-243"/>
<text text-anchor="middle" x="81" y="-310" font-family="Helvetica,sans-Serif" font-size="10.00">BankableMIDIOutput</text>
<polyline fill="none" stroke="black" points="19.5,-303 142.5,-303 "/>
<text text-anchor="start" x="27.5" y="-291" font-family="Helvetica,sans-Serif" font-size="10.00">&#45; type</text>
<polyline fill="none" stroke="black" points="19.5,-284 142.5,-284 "/>
<text text-anchor="start" x="27.5" y="-272" font-family="Helvetica,sans-Serif" font-size="10.00">+ BankableMIDIOutput()</text>
<text text-anchor="start" x="27.5" y="-261" font-family="Helvetica,sans-Serif" font-size="10.00">+ BankableMIDIOutput()</text>
<text text-anchor="start" x="27.5" y="-250" font-family="Helvetica,sans-Serif" font-size="10.00">+ getAddressOffset()</text>
</a>
</g>
</g>
<!-- Node2&#45;&gt;Node1 -->
<g id="edge1" class="edge"><title>Node2&#45;&gt;Node1</title>
<path fill="none" stroke="midnightblue" d="M98.9085,-233.468C111.079,-205.996 129.449,-172.446 154,-149 183.086,-121.223 221.656,-99.866 256.954,-84.3555"/>
<polygon fill="none" stroke="midnightblue" points="95.586,-232.336 94.8619,-242.906 102.02,-235.094 95.586,-232.336"/>
</g>
<!-- Node3 -->
<g id="node3" class="node"><title>Node3</title>
<g id="a_node3"><a xlink:href="../../d4/d6e/classBankableMIDIOutput__Base.html" target="_top" xlink:title=" ">
<polygon fill="white" stroke="black" points="0,-546 0,-658 150,-658 150,-546 0,-546"/>
<text text-anchor="middle" x="75" y="-646" font-family="Helvetica,sans-Serif" font-size="10.00">BankableMIDIOutput_Base</text>
<polyline fill="none" stroke="black" points="0,-639 150,-639 "/>
<text text-anchor="start" x="8" y="-627" font-family="Helvetica,sans-Serif" font-size="10.00">&#45; lockedSetting</text>
<text text-anchor="start" x="8" y="-616" font-family="Helvetica,sans-Serif" font-size="10.00">&#45; UNLOCKED</text>
<polyline fill="none" stroke="black" points="0,-609 150,-609 "/>
<text text-anchor="start" x="8" y="-597" font-family="Helvetica,sans-Serif" font-size="10.00">+ getRawBankSetting()</text>
<text text-anchor="start" x="8" y="-586" font-family="Helvetica,sans-Serif" font-size="10.00">+ getSelection()</text>
<text text-anchor="start" x="8" y="-575" font-family="Helvetica,sans-Serif" font-size="10.00">+ lock()</text>
<text text-anchor="start" x="8" y="-564" font-family="Helvetica,sans-Serif" font-size="10.00">+ unlock()</text>
<text text-anchor="start" x="8" y="-553" font-family="Helvetica,sans-Serif" font-size="10.00"># BankableMIDIOutput_Base()</text>
</a>
</g>
</g>
<!-- Node3&#45;&gt;Node2 -->
<g id="edge2" class="edge"><title>Node3&#45;&gt;Node2</title>
<path fill="none" stroke="midnightblue" d="M76.2348,-535.656C77.4504,-471.332 79.266,-375.255 80.2688,-322.194"/>
<polygon fill="none" stroke="midnightblue" points="72.7348,-535.631 76.0451,-545.696 79.7335,-535.764 72.7348,-535.631"/>
</g>
<!-- Node4 -->
<g id="node4" class="node"><title>Node4</title>
<g id="a_node4"><a xlink:href="../../d9/d36/classOutputBank.html" target="_top" xlink:title="A class for changing the address of BankableMIDIOutputs.">
<polygon fill="white" stroke="black" points="18.5,-849 18.5,-961 131.5,-961 131.5,-849 18.5,-849"/>
<text text-anchor="middle" x="75" y="-949" font-family="Helvetica,sans-Serif" font-size="10.00">OutputBank</text>
<polyline fill="none" stroke="black" points="18.5,-942 131.5,-942 "/>
<text text-anchor="start" x="26.5" y="-930" font-family="Helvetica,sans-Serif" font-size="10.00">&#45; tracksPerBank</text>
<text text-anchor="start" x="26.5" y="-919" font-family="Helvetica,sans-Serif" font-size="10.00">&#45; bankSetting</text>
<polyline fill="none" stroke="black" points="18.5,-912 131.5,-912 "/>
<text text-anchor="start" x="26.5" y="-900" font-family="Helvetica,sans-Serif" font-size="10.00">+ OutputBank()</text>
<text text-anchor="start" x="26.5" y="-889" font-family="Helvetica,sans-Serif" font-size="10.00">+ select()</text>
<text text-anchor="start" x="26.5" y="-878" font-family="Helvetica,sans-Serif" font-size="10.00">+ getSelection()</text>
<text text-anchor="start" x="26.5" y="-867" font-family="Helvetica,sans-Serif" font-size="10.00">+ getTracksPerBank()</text>
<text text-anchor="start" x="26.5" y="-856" font-family="Helvetica,sans-Serif" font-size="10.00">+ getOffset()</text>
</a>
</g>
</g>
<!-- Node4&#45;&gt;Node3 -->
<g id="edge3" class="edge"><title>Node4&#45;&gt;Node3</title>
<path fill="none" stroke="#404040" d="M75,-848.792C75,-798.485 75,-724.047 75,-670.28"/>
<polygon fill="none" stroke="#404040" points="75.0001,-670.112 71,-664.112 75,-658.112 79,-664.112 75.0001,-670.112"/>
<text text-anchor="middle" x="90" y="-767.5" font-family="Helvetica,sans-Serif" font-size="10.00"> #bank</text>
</g>
<!-- Node5 -->
<g id="node5" class="node"><title>Node5</title>
<g id="a_node5"><a xlink:href="../../d5/de0/classUpdatable.html" target="_top" xlink:title=" ">
<polygon fill="white" stroke="black" points="163,-177 163,-388 267,-388 267,-177 163,-177"/>
<text text-anchor="middle" x="215" y="-376" font-family="Helvetica,sans-Serif" font-size="10.00">MIDIOutputElement</text>
<polyline fill="none" stroke="black" points="163,-369 267,-369 "/>
<text text-anchor="middle" x="215" y="-357" font-family="Helvetica,sans-Serif" font-size="10.00"> </text>
<polyline fill="none" stroke="black" points="163,-350 267,-350 "/>
<text text-anchor="start" x="171" y="-338" font-family="Helvetica,sans-Serif" font-size="10.00">+ ~Updatable()</text>
<text text-anchor="start" x="171" y="-327" font-family="Helvetica,sans-Serif" font-size="10.00">+ update()</text>
<text text-anchor="start" x="171" y="-316" font-family="Helvetica,sans-Serif" font-size="10.00">+ begin()</text>
<text text-anchor="start" x="171" y="-305" font-family="Helvetica,sans-Serif" font-size="10.00">+ enable()</text>
<text text-anchor="start" x="171" y="-294" font-family="Helvetica,sans-Serif" font-size="10.00">+ disable()</text>
<text text-anchor="start" x="171" y="-283" font-family="Helvetica,sans-Serif" font-size="10.00">+ isEnabled()</text>
<text text-anchor="start" x="171" y="-272" font-family="Helvetica,sans-Serif" font-size="10.00">+ enable()</text>
<text text-anchor="start" x="171" y="-261" font-family="Helvetica,sans-Serif" font-size="10.00">+ enable()</text>
<text text-anchor="start" x="171" y="-250" font-family="Helvetica,sans-Serif" font-size="10.00">+ enable()</text>
<text text-anchor="start" x="171" y="-239" font-family="Helvetica,sans-Serif" font-size="10.00">+ disable()</text>
<text text-anchor="start" x="171" y="-228" font-family="Helvetica,sans-Serif" font-size="10.00">+ disable()</text>
<text text-anchor="start" x="171" y="-217" font-family="Helvetica,sans-Serif" font-size="10.00">+ disable()</text>
<text text-anchor="start" x="171" y="-206" font-family="Helvetica,sans-Serif" font-size="10.00">+ beginAll()</text>
<text text-anchor="start" x="171" y="-195" font-family="Helvetica,sans-Serif" font-size="10.00">+ updateAll()</text>
<text text-anchor="start" x="171" y="-184" font-family="Helvetica,sans-Serif" font-size="10.00"># Updatable()</text>
</a>
</g>
</g>
<!-- Node5&#45;&gt;Node1 -->
<g id="edge4" class="edge"><title>Node5&#45;&gt;Node1</title>
<path fill="none" stroke="midnightblue" d="M265.155,-167.969C268.676,-161.472 272.301,-155.105 276,-149 285.708,-132.979 297.605,-116.511 309.037,-101.796"/>
<polygon fill="none" stroke="midnightblue" points="262.014,-166.422 260.421,-176.897 268.198,-169.702 262.014,-166.422"/>
</g>
<!-- Node6 -->
<g id="node6" class="node"><title>Node6</title>
<g id="a_node6"><a xlink:href="../../d4/d23/classDoublyLinkable.html" target="_top" xlink:title=" ">
<polygon fill="white" stroke="black" points="182.5,-1069.5 182.5,-1137.5 319.5,-1137.5 319.5,-1069.5 182.5,-1069.5"/>
<text text-anchor="start" x="190.5" y="-1125.5" font-family="Helvetica,sans-Serif" font-size="10.00">DoublyLinkable&lt; Updatable</text>
<text text-anchor="middle" x="251" y="-1114.5" font-family="Helvetica,sans-Serif" font-size="10.00">&lt; NormalUpdatable &gt; &gt;</text>
<polyline fill="none" stroke="black" points="182.5,-1107.5 319.5,-1107.5 "/>
<text text-anchor="middle" x="251" y="-1095.5" font-family="Helvetica,sans-Serif" font-size="10.00"> </text>
<polyline fill="none" stroke="black" points="182.5,-1088.5 319.5,-1088.5 "/>
<text text-anchor="start" x="190.5" y="-1076.5" font-family="Helvetica,sans-Serif" font-size="10.00"># ~DoublyLinkable()</text>
</a>
</g>
</g>
<!-- Node6&#45;&gt;Node5 -->
<g id="edge5" class="edge"><title>Node6&#45;&gt;Node5</title>
<path fill="none" stroke="midnightblue" d="M220.068,-1060.8C210.756,-1045.86 201.752,-1028.4 197,-1011 132.84,-776.047 184.834,-706.252 197,-463 198.212,-438.758 200.34,-412.743 202.719,-388.25"/>
<polygon fill="none" stroke="midnightblue" points="217.185,-1062.79 225.556,-1069.28 223.062,-1058.98 217.185,-1062.79"/>
</g>
<!-- Node7 -->
<g id="node7" class="node"><title>Node7</title>
<g id="a_node7"><a xlink:href="../../d5/de0/classUpdatable.html" target="_top" xlink:title=" ">
<polygon fill="white" stroke="black" points="206.5,-799.5 206.5,-1010.5 361.5,-1010.5 361.5,-799.5 206.5,-799.5"/>
<text text-anchor="middle" x="284" y="-998.5" font-family="Helvetica,sans-Serif" font-size="10.00">Updatable&lt; NormalUpdatable &gt;</text>
<polyline fill="none" stroke="black" points="206.5,-991.5 361.5,-991.5 "/>
<text text-anchor="middle" x="284" y="-979.5" font-family="Helvetica,sans-Serif" font-size="10.00"> </text>
<polyline fill="none" stroke="black" points="206.5,-972.5 361.5,-972.5 "/>
<text text-anchor="start" x="214.5" y="-960.5" font-family="Helvetica,sans-Serif" font-size="10.00">+ ~Updatable()</text>
<text text-anchor="start" x="214.5" y="-949.5" font-family="Helvetica,sans-Serif" font-size="10.00">+ update()</text>
<text text-anchor="start" x="214.5" y="-938.5" font-family="Helvetica,sans-Serif" font-size="10.00">+ begin()</text>
<text text-anchor="start" x="214.5" y="-927.5" font-family="Helvetica,sans-Serif" font-size="10.00">+ enable()</text>
<text text-anchor="start" x="214.5" y="-916.5" font-family="Helvetica,sans-Serif" font-size="10.00">+ disable()</text>
<text text-anchor="start" x="214.5" y="-905.5" font-family="Helvetica,sans-Serif" font-size="10.00">+ isEnabled()</text>
<text text-anchor="start" x="214.5" y="-894.5" font-family="Helvetica,sans-Serif" font-size="10.00">+ enable()</text>
<text text-anchor="start" x="214.5" y="-883.5" font-family="Helvetica,sans-Serif" font-size="10.00">+ enable()</text>
<text text-anchor="start" x="214.5" y="-872.5" font-family="Helvetica,sans-Serif" font-size="10.00">+ enable()</text>
<text text-anchor="start" x="214.5" y="-861.5" font-family="Helvetica,sans-Serif" font-size="10.00">+ disable()</text>
<text text-anchor="start" x="214.5" y="-850.5" font-family="Helvetica,sans-Serif" font-size="10.00">+ disable()</text>
<text text-anchor="start" x="214.5" y="-839.5" font-family="Helvetica,sans-Serif" font-size="10.00">+ disable()</text>
<text text-anchor="start" x="214.5" y="-828.5" font-family="Helvetica,sans-Serif" font-size="10.00">+ beginAll()</text>
<text text-anchor="start" x="214.5" y="-817.5" font-family="Helvetica,sans-Serif" font-size="10.00">+ updateAll()</text>
<text text-anchor="start" x="214.5" y="-806.5" font-family="Helvetica,sans-Serif" font-size="10.00"># Updatable()</text>
</a>
</g>
</g>
<!-- Node6&#45;&gt;Node7 -->
<g id="edge7" class="edge"><title>Node6&#45;&gt;Node7</title>
<path fill="none" stroke="midnightblue" d="M258.293,-1059.07C260.724,-1044.6 263.546,-1027.79 266.412,-1010.73"/>
<polygon fill="none" stroke="midnightblue" points="254.803,-1058.72 256.598,-1069.17 261.706,-1059.88 254.803,-1058.72"/>
</g>
<!-- Node7&#45;&gt;Node6 -->
<g id="edge6" class="edge"><title>Node7&#45;&gt;Node6</title>
<path fill="none" stroke="#404040" d="M268.882,-1010.67C266.696,-1024.26 264.377,-1037.98 262,-1051 261.611,-1053.13 261.199,-1055.31 260.773,-1057.51"/>
<polygon fill="none" stroke="#404040" points="260.765,-1057.55 263.5,-1064.22 258.393,-1069.31 255.658,-1062.64 260.765,-1057.55"/>
<text text-anchor="middle" x="287.5" y="-1043" font-family="Helvetica,sans-Serif" font-size="10.00"> #next</text>
<text text-anchor="middle" x="287.5" y="-1032" font-family="Helvetica,sans-Serif" font-size="10.00">#previous</text>
</g>
<!-- Node8 -->
<g id="node8" class="node"><title>Node8</title>
<g id="a_node8"><a xlink:href="../../dd/d16/classDoublyLinkedList.html" target="_top" xlink:title=" ">
<polygon fill="white" stroke="black" points="206.5,-463.5 206.5,-740.5 351.5,-740.5 351.5,-463.5 206.5,-463.5"/>
<text text-anchor="start" x="214.5" y="-728.5" font-family="Helvetica,sans-Serif" font-size="10.00">DoublyLinkedList&lt; Updatable</text>
<text text-anchor="middle" x="279" y="-717.5" font-family="Helvetica,sans-Serif" font-size="10.00">&lt; NormalUpdatable &gt; &gt;</text>
<polyline fill="none" stroke="black" points="206.5,-710.5 351.5,-710.5 "/>
<text text-anchor="middle" x="279" y="-698.5" font-family="Helvetica,sans-Serif" font-size="10.00"> </text>
<polyline fill="none" stroke="black" points="206.5,-691.5 351.5,-691.5 "/>
<text text-anchor="start" x="214.5" y="-679.5" font-family="Helvetica,sans-Serif" font-size="10.00">+ append()</text>
<text text-anchor="start" x="214.5" y="-668.5" font-family="Helvetica,sans-Serif" font-size="10.00">+ append()</text>
<text text-anchor="start" x="214.5" y="-657.5" font-family="Helvetica,sans-Serif" font-size="10.00">+ insertBefore()</text>
<text text-anchor="start" x="214.5" y="-646.5" font-family="Helvetica,sans-Serif" font-size="10.00">+ insertBefore()</text>
<text text-anchor="start" x="214.5" y="-635.5" font-family="Helvetica,sans-Serif" font-size="10.00">+ insertSorted()</text>
<text text-anchor="start" x="214.5" y="-624.5" font-family="Helvetica,sans-Serif" font-size="10.00">+ insertSorted()</text>
<text text-anchor="start" x="214.5" y="-613.5" font-family="Helvetica,sans-Serif" font-size="10.00">+ remove()</text>
<text text-anchor="start" x="214.5" y="-602.5" font-family="Helvetica,sans-Serif" font-size="10.00">+ remove()</text>
<text text-anchor="start" x="214.5" y="-591.5" font-family="Helvetica,sans-Serif" font-size="10.00">+ moveDown()</text>
<text text-anchor="start" x="214.5" y="-580.5" font-family="Helvetica,sans-Serif" font-size="10.00">+ couldContain()</text>
<text text-anchor="start" x="214.5" y="-569.5" font-family="Helvetica,sans-Serif" font-size="10.00">+ begin()</text>
<text text-anchor="start" x="214.5" y="-558.5" font-family="Helvetica,sans-Serif" font-size="10.00">+ begin()</text>
<text text-anchor="start" x="214.5" y="-547.5" font-family="Helvetica,sans-Serif" font-size="10.00">+ end()</text>
<text text-anchor="start" x="214.5" y="-536.5" font-family="Helvetica,sans-Serif" font-size="10.00">+ end()</text>
<text text-anchor="start" x="214.5" y="-525.5" font-family="Helvetica,sans-Serif" font-size="10.00">+ rbegin()</text>
<text text-anchor="start" x="214.5" y="-514.5" font-family="Helvetica,sans-Serif" font-size="10.00">+ rbegin()</text>
<text text-anchor="start" x="214.5" y="-503.5" font-family="Helvetica,sans-Serif" font-size="10.00">+ rend()</text>
<text text-anchor="start" x="214.5" y="-492.5" font-family="Helvetica,sans-Serif" font-size="10.00">+ rend()</text>
<text text-anchor="start" x="214.5" y="-481.5" font-family="Helvetica,sans-Serif" font-size="10.00">+ getFirst()</text>
<text text-anchor="start" x="214.5" y="-470.5" font-family="Helvetica,sans-Serif" font-size="10.00">+ getLast()</text>
</a>
</g>
</g>
<!-- Node7&#45;&gt;Node8 -->
<g id="edge9" class="edge"><title>Node7&#45;&gt;Node8</title>
<path fill="none" stroke="#404040" d="M258.507,-799.258C257.524,-793.103 256.673,-786.985 256,-781 254.972,-771.856 254.488,-762.452 254.435,-752.972"/>
<polygon fill="none" stroke="#404040" points="254.435,-752.934 250.513,-746.883 254.59,-740.935 258.512,-746.986 254.435,-752.934"/>
<text text-anchor="middle" x="267" y="-773" font-family="Helvetica,sans-Serif" font-size="10.00"> &#45;last</text>
<text text-anchor="middle" x="267" y="-762" font-family="Helvetica,sans-Serif" font-size="10.00">&#45;first</text>
</g>
<!-- Node8&#45;&gt;Node5 -->
<g id="edge10" class="edge"><title>Node8&#45;&gt;Node5</title>
<path fill="none" stroke="#404040" d="M251.208,-463.125C246.978,-442.141 242.648,-420.661 238.521,-400.187"/>
<polygon fill="none" stroke="#404040" points="238.488,-400.024 233.382,-394.933 236.117,-388.26 241.224,-393.352 238.488,-400.024"/>
<text text-anchor="middle" x="274" y="-437" font-family="Helvetica,sans-Serif" font-size="10.00"> &#45;updatables</text>
</g>
<!-- Node8&#45;&gt;Node7 -->
<g id="edge8" class="edge"><title>Node8&#45;&gt;Node7</title>
<path fill="none" stroke="#404040" d="M281.691,-740.806C281.798,-746.955 281.902,-753.041 282,-759 282.152,-768.204 282.301,-777.736 282.446,-787.316"/>
<polygon fill="none" stroke="#404040" points="282.448,-787.455 286.536,-793.395 282.626,-799.454 278.537,-793.514 282.448,-787.455"/>
<text text-anchor="middle" x="310" y="-767.5" font-family="Helvetica,sans-Serif" font-size="10.00"> &#45;updatables</text>
</g>
<!-- Node9 -->
<g id="node9" class="node"><title>Node9</title>
<g id="a_node9"><a xlink:title=" ">
<polygon fill="white" stroke="#bfbfbf" points="285.5,-254 285.5,-311 332.5,-311 332.5,-254 285.5,-254"/>
<text text-anchor="middle" x="309" y="-299" font-family="Helvetica,sans-Serif" font-size="10.00">Sender</text>
<polyline fill="none" stroke="#bfbfbf" points="285.5,-292 332.5,-292 "/>
<text text-anchor="middle" x="309" y="-280" font-family="Helvetica,sans-Serif" font-size="10.00"> </text>
<polyline fill="none" stroke="#bfbfbf" points="285.5,-273 332.5,-273 "/>
<text text-anchor="middle" x="309" y="-261" font-family="Helvetica,sans-Serif" font-size="10.00"> </text>
</a>
</g>
</g>
<!-- Node9&#45;&gt;Node1 -->
<g id="edge11" class="edge"><title>Node9&#45;&gt;Node1</title>
<path fill="none" stroke="#404040" d="M311.819,-253.876C315.373,-221.565 322.223,-166.564 332,-120 332.453,-117.844 332.935,-115.656 333.442,-113.451"/>
<polygon fill="none" stroke="#404040" points="333.494,-113.238 331.03,-106.461 336.338,-101.58 338.802,-108.357 333.494,-113.238"/>
<text text-anchor="middle" x="351.5" y="-123" font-family="Helvetica,sans-Serif" font-size="10.00"> +sender</text>
</g>
<!-- Node10 -->
<g id="node10" class="node"><title>Node10</title>
<g id="a_node10"><a xlink:href="../../d7/d6a/structArray.html" target="_top" xlink:title=" ">
<polygon fill="white" stroke="black" points="351,-210 351,-355 479,-355 479,-210 351,-210"/>
<text text-anchor="start" x="359" y="-343" font-family="Helvetica,sans-Serif" font-size="10.00">Array&lt; Button, NUMBER</text>
<text text-anchor="middle" x="415" y="-332" font-family="Helvetica,sans-Serif" font-size="10.00">_OF_BUTTONS &gt;</text>
<polyline fill="none" stroke="black" points="351,-325 479,-325 "/>
<text text-anchor="start" x="359" y="-313" font-family="Helvetica,sans-Serif" font-size="10.00">+ length</text>
<polyline fill="none" stroke="black" points="351,-306 479,-306 "/>
<text text-anchor="start" x="359" y="-294" font-family="Helvetica,sans-Serif" font-size="10.00">+ operator[]()</text>
<text text-anchor="start" x="359" y="-283" font-family="Helvetica,sans-Serif" font-size="10.00">+ operator[]()</text>
<text text-anchor="start" x="359" y="-272" font-family="Helvetica,sans-Serif" font-size="10.00">+ begin()</text>
<text text-anchor="start" x="359" y="-261" font-family="Helvetica,sans-Serif" font-size="10.00">+ begin()</text>
<text text-anchor="start" x="359" y="-250" font-family="Helvetica,sans-Serif" font-size="10.00">+ end()</text>
<text text-anchor="start" x="359" y="-239" font-family="Helvetica,sans-Serif" font-size="10.00">+ end()</text>
<text text-anchor="start" x="359" y="-228" font-family="Helvetica,sans-Serif" font-size="10.00">+ operator==()</text>
<text text-anchor="start" x="359" y="-217" font-family="Helvetica,sans-Serif" font-size="10.00">+ operator!=()</text>
</a>
</g>
</g>
<!-- Node10&#45;&gt;Node1 -->
<g id="edge12" class="edge"><title>Node10&#45;&gt;Node1</title>
<path fill="none" stroke="#404040" d="M395.814,-209.862C388.212,-181.802 379.316,-149.358 371,-120 370.397,-117.873 369.781,-115.709 369.155,-113.524"/>
<polygon fill="none" stroke="#404040" points="369.079,-113.261 363.572,-108.605 365.752,-101.732 371.259,-106.387 369.079,-113.261"/>
<text text-anchor="middle" x="393.5" y="-123" font-family="Helvetica,sans-Serif" font-size="10.00"> &#45;buttons</text>
</g>
<!-- Node11 -->
<g id="node11" class="node"><title>Node11</title>
<g id="a_node11"><a xlink:href="../../d1/d19/classButton.html" target="_top" xlink:title="A class for reading and debouncing buttons and switches.">
<polygon fill="white" stroke="black" points="370,-507.5 370,-696.5 466,-696.5 466,-507.5 370,-507.5"/>
<text text-anchor="middle" x="418" y="-684.5" font-family="Helvetica,sans-Serif" font-size="10.00">Button</text>
<polyline fill="none" stroke="black" points="370,-677.5 466,-677.5 "/>
<text text-anchor="start" x="378" y="-665.5" font-family="Helvetica,sans-Serif" font-size="10.00">&#45; pin</text>
<text text-anchor="start" x="378" y="-654.5" font-family="Helvetica,sans-Serif" font-size="10.00">&#45; prevInput</text>
<text text-anchor="start" x="378" y="-643.5" font-family="Helvetica,sans-Serif" font-size="10.00">&#45; debouncedState</text>
<text text-anchor="start" x="378" y="-632.5" font-family="Helvetica,sans-Serif" font-size="10.00">&#45; prevBounceTime</text>
<text text-anchor="start" x="378" y="-621.5" font-family="Helvetica,sans-Serif" font-size="10.00">&#45; invertState</text>
<text text-anchor="start" x="378" y="-610.5" font-family="Helvetica,sans-Serif" font-size="10.00">&#45; debounceTime</text>
<polyline fill="none" stroke="black" points="370,-603.5 466,-603.5 "/>
<text text-anchor="start" x="378" y="-591.5" font-family="Helvetica,sans-Serif" font-size="10.00">+ Button()</text>
<text text-anchor="start" x="378" y="-580.5" font-family="Helvetica,sans-Serif" font-size="10.00">+ Button()</text>
<text text-anchor="start" x="378" y="-569.5" font-family="Helvetica,sans-Serif" font-size="10.00">+ begin()</text>
<text text-anchor="start" x="378" y="-558.5" font-family="Helvetica,sans-Serif" font-size="10.00">+ invert()</text>
<text text-anchor="start" x="378" y="-547.5" font-family="Helvetica,sans-Serif" font-size="10.00">+ update()</text>
<text text-anchor="start" x="378" y="-536.5" font-family="Helvetica,sans-Serif" font-size="10.00">+ getState()</text>
<text text-anchor="start" x="378" y="-525.5" font-family="Helvetica,sans-Serif" font-size="10.00">+ stableTime()</text>
<text text-anchor="start" x="378" y="-514.5" font-family="Helvetica,sans-Serif" font-size="10.00">+ getName()</text>
</a>
</g>
</g>
<!-- Node11&#45;&gt;Node10 -->
<g id="edge13" class="edge"><title>Node11&#45;&gt;Node10</title>
<path fill="none" stroke="#404040" d="M417.116,-507.457C416.697,-463.077 416.2,-410.467 415.793,-367.394"/>
<polygon fill="none" stroke="#404040" points="415.791,-367.223 411.735,-361.261 415.678,-355.223 419.734,-361.185 415.791,-367.223"/>
<text text-anchor="middle" x="431" y="-437" font-family="Helvetica,sans-Serif" font-size="10.00"> +data</text>
</g>
<!-- Node12 -->
<g id="node12" class="node"><title>Node12</title>
<g id="a_node12"><a xlink:href="../../da/dc7/classRelativeMIDICNChannelAddress.html" target="_top" xlink:title="A class for saving an offset to a MIDI address.">
<polygon fill="white" stroke="black" points="497,-243 497,-322 673,-322 673,-243 497,-243"/>
<text text-anchor="middle" x="585" y="-310" font-family="Helvetica,sans-Serif" font-size="10.00">RelativeMIDICNChannelAddress</text>
<polyline fill="none" stroke="black" points="497,-303 673,-303 "/>
<text text-anchor="start" x="505" y="-291" font-family="Helvetica,sans-Serif" font-size="10.00">&#45; addresses</text>
<polyline fill="none" stroke="black" points="497,-284 673,-284 "/>
<text text-anchor="start" x="505" y="-272" font-family="Helvetica,sans-Serif" font-size="10.00">+ RelativeMIDICNChannelAddress()</text>
<text text-anchor="start" x="505" y="-261" font-family="Helvetica,sans-Serif" font-size="10.00">+ RelativeMIDICNChannelAddress()</text>
<text text-anchor="start" x="505" y="-250" font-family="Helvetica,sans-Serif" font-size="10.00">+ isValid()</text>
</a>
</g>
</g>
<!-- Node12&#45;&gt;Node1 -->
<g id="edge14" class="edge"><title>Node12&#45;&gt;Node1</title>
<path fill="none" stroke="#404040" d="M561.589,-242.97C543.54,-215.059 516.851,-177.398 488,-149 473.503,-134.73 456.726,-121.031 439.991,-108.652"/>
<polygon fill="none" stroke="#404040" points="439.873,-108.567 432.668,-108.282 430.16,-101.521 437.365,-101.806 439.873,-108.567"/>
<text text-anchor="middle" x="510.5" y="-123" font-family="Helvetica,sans-Serif" font-size="10.00"> &#45;incrementAddress</text>
</g>
<!-- Node13 -->
<g id="node13" class="node"><title>Node13</title>
<g id="a_node13"><a xlink:href="../../d3/d10/classMIDICNChannelAddress.html" target="_top" xlink:title="A type&#45;safe utility class for saving a MIDI address consisting of a 7&#45;bit address,...">
<polygon fill="white" stroke="black" points="691,-149.5 691,-415.5 831,-415.5 831,-149.5 691,-149.5"/>
<text text-anchor="middle" x="761" y="-403.5" font-family="Helvetica,sans-Serif" font-size="10.00">MIDICNChannelAddress</text>
<polyline fill="none" stroke="black" points="691,-396.5 831,-396.5 "/>
<text text-anchor="start" x="699" y="-384.5" font-family="Helvetica,sans-Serif" font-size="10.00">&#45; addresses</text>
<polyline fill="none" stroke="black" points="691,-377.5 831,-377.5 "/>
<text text-anchor="start" x="699" y="-365.5" font-family="Helvetica,sans-Serif" font-size="10.00">+ MIDICNChannelAddress()</text>
<text text-anchor="start" x="699" y="-354.5" font-family="Helvetica,sans-Serif" font-size="10.00">+ MIDICNChannelAddress()</text>
<text text-anchor="start" x="699" y="-343.5" font-family="Helvetica,sans-Serif" font-size="10.00">+ MIDICNChannelAddress()</text>
<text text-anchor="start" x="699" y="-332.5" font-family="Helvetica,sans-Serif" font-size="10.00">+ MIDICNChannelAddress()</text>
<text text-anchor="start" x="699" y="-321.5" font-family="Helvetica,sans-Serif" font-size="10.00">+ MIDICNChannelAddress()</text>
<text text-anchor="start" x="699" y="-310.5" font-family="Helvetica,sans-Serif" font-size="10.00">+ operator+=()</text>
<text text-anchor="start" x="699" y="-299.5" font-family="Helvetica,sans-Serif" font-size="10.00">+ operator&#45;=()</text>
<text text-anchor="start" x="699" y="-288.5" font-family="Helvetica,sans-Serif" font-size="10.00">+ operator+()</text>
<text text-anchor="start" x="699" y="-277.5" font-family="Helvetica,sans-Serif" font-size="10.00">+ operator&#45;()</text>
<text text-anchor="start" x="699" y="-266.5" font-family="Helvetica,sans-Serif" font-size="10.00">+ operator==()</text>
<text text-anchor="start" x="699" y="-255.5" font-family="Helvetica,sans-Serif" font-size="10.00">+ operator!=()</text>
<text text-anchor="start" x="699" y="-244.5" font-family="Helvetica,sans-Serif" font-size="10.00">+ getAddress()</text>
<text text-anchor="start" x="699" y="-233.5" font-family="Helvetica,sans-Serif" font-size="10.00">+ getChannel()</text>
<text text-anchor="start" x="699" y="-222.5" font-family="Helvetica,sans-Serif" font-size="10.00">+ getRawChannel()</text>
<text text-anchor="start" x="699" y="-211.5" font-family="Helvetica,sans-Serif" font-size="10.00">+ getCableNumber()</text>
<text text-anchor="start" x="699" y="-200.5" font-family="Helvetica,sans-Serif" font-size="10.00">+ isValid()</text>
<text text-anchor="start" x="699" y="-189.5" font-family="Helvetica,sans-Serif" font-size="10.00">+ operator bool()</text>
<text text-anchor="start" x="699" y="-178.5" font-family="Helvetica,sans-Serif" font-size="10.00">+ matchSingle()</text>
<text text-anchor="start" x="699" y="-167.5" font-family="Helvetica,sans-Serif" font-size="10.00">+ matchAddressInRange()</text>
<text text-anchor="start" x="699" y="-156.5" font-family="Helvetica,sans-Serif" font-size="10.00">+ invalid()</text>
</a>
</g>
</g>
<!-- Node13&#45;&gt;Node1 -->
<g id="edge15" class="edge"><title>Node13&#45;&gt;Node1</title>
<path fill="none" stroke="#404040" d="M690.928,-156.576C688.046,-153.912 685.07,-151.378 682,-149 617.112,-98.7326 526.817,-74.4861 456.925,-62.8067"/>
<polygon fill="none" stroke="#404040" points="456.858,-62.7961 450.303,-65.7996 445.009,-60.9032 451.565,-57.8997 456.858,-62.7961"/>
<text text-anchor="middle" x="684" y="-123" font-family="Helvetica,sans-Serif" font-size="10.00"> &#45;baseAddress</text>
</g>
</g>
</svg>
