<?xml version="1.0" encoding="UTF-8" standalone="no"?>
<!DOCTYPE svg PUBLIC "-//W3C//DTD SVG 1.1//EN"
 "http://www.w3.org/Graphics/SVG/1.1/DTD/svg11.dtd">
<!-- Generated by graphviz version 2.38.0 (20140413.2041)
 -->
<!-- Title: MIDIInputElement::updateWith Pages: 1 -->
<svg width="507pt" height="142pt"
 viewBox="0.00 0.00 507.00 142.00" xmlns="http://www.w3.org/2000/svg" xmlns:xlink="http://www.w3.org/1999/xlink">
<g id="graph0" class="graph" transform="scale(1 1) rotate(0) translate(4 138)">
<title>MIDIInputElement::updateWith</title>
<polygon fill="white" stroke="none" points="-4,4 -4,-138 503,-138 503,4 -4,4"/>
<!-- Node1 -->
<g id="node1" class="node"><title>Node1</title>
<g id="a_node1"><a xlink:title="Receive a new MIDI message and update the internal state.">
<polygon fill="#bfbfbf" stroke="black" points="0,-57.5 0,-76.5 152,-76.5 152,-57.5 0,-57.5"/>
<text text-anchor="middle" x="76" y="-64.5" font-family="Helvetica,sans-Serif" font-size="10.00">MIDIInputElement::updateWith</text>
</a>
</g>
</g>
<!-- Node2 -->
<g id="node2" class="node"><title>Node2</title>
<g id="a_node2"><a xlink:href="../../d9/db1/classMIDIInputElement.html#abc54b9402e8555c615aaee35235f3aa4" target="_top" xlink:title="Update the display of the input element.">
<polygon fill="white" stroke="black" points="196.5,-114.5 196.5,-133.5 329.5,-133.5 329.5,-114.5 196.5,-114.5"/>
<text text-anchor="middle" x="263" y="-121.5" font-family="Helvetica,sans-Serif" font-size="10.00">MIDIInputElement::display</text>
</a>
</g>
</g>
<!-- Node1&#45;&gt;Node2 -->
<g id="edge1" class="edge"><title>Node1&#45;&gt;Node2</title>
<path fill="none" stroke="midnightblue" d="M103.276,-76.6473C125.65,-84.7045 158.728,-96.2462 188,-105 195.86,-107.351 204.242,-109.674 212.434,-111.847"/>
<polygon fill="midnightblue" stroke="midnightblue" points="211.726,-115.279 222.285,-114.414 213.491,-108.506 211.726,-115.279"/>
</g>
<!-- Node3 -->
<g id="node3" class="node"><title>Node3</title>
<g id="a_node3"><a xlink:href="../../d9/db1/classMIDIInputElement.html#a0c2ce1fe25dcaa1e6e3789ca8144cdad" target="_top" xlink:title="Extract the target address from a MIDI message.">
<polygon fill="white" stroke="black" points="191.5,-76.5 191.5,-95.5 334.5,-95.5 334.5,-76.5 191.5,-76.5"/>
<text text-anchor="middle" x="263" y="-83.5" font-family="Helvetica,sans-Serif" font-size="10.00">MIDIInputElement::getTarget</text>
</a>
</g>
</g>
<!-- Node1&#45;&gt;Node3 -->
<g id="edge2" class="edge"><title>Node1&#45;&gt;Node3</title>
<path fill="none" stroke="midnightblue" d="M152.247,-74.728C161.824,-75.7117 171.658,-76.7216 181.316,-77.7136"/>
<polygon fill="midnightblue" stroke="midnightblue" points="180.995,-81.1989 191.301,-78.739 181.711,-74.2355 180.995,-81.1989"/>
</g>
<!-- Node4 -->
<g id="node4" class="node"><title>Node4</title>
<g id="a_node4"><a xlink:href="../../d9/db1/classMIDIInputElement.html#a7e49b0cf1baf26d55a155da750c02137" target="_top" xlink:title="Check if the address of the incoming MIDI message matches an address of this element.">
<polygon fill="white" stroke="black" points="198.5,-38.5 198.5,-57.5 327.5,-57.5 327.5,-38.5 198.5,-38.5"/>
<text text-anchor="middle" x="263" y="-45.5" font-family="Helvetica,sans-Serif" font-size="10.00">MIDIInputElement::match</text>
</a>
</g>
</g>
<!-- Node1&#45;&gt;Node4 -->
<g id="edge3" class="edge"><title>Node1&#45;&gt;Node4</title>
<path fill="none" stroke="midnightblue" d="M152.247,-59.272C164.084,-58.0562 176.313,-56.8003 188.12,-55.5877"/>
<polygon fill="midnightblue" stroke="midnightblue" points="188.776,-59.0388 198.366,-54.5354 188.061,-52.0755 188.776,-59.0388"/>
</g>
<!-- Node6 -->
<g id="node6" class="node"><title>Node6</title>
<g id="a_node6"><a xlink:href="../../d9/db1/classMIDIInputElement.html#a5a6af855a59365136d001310c03b4fc5" target="_top" xlink:title="Update the internal state with the new MIDI message.">
<polygon fill="white" stroke="black" points="188,-0.5 188,-19.5 338,-19.5 338,-0.5 188,-0.5"/>
<text text-anchor="middle" x="263" y="-7.5" font-family="Helvetica,sans-Serif" font-size="10.00">MIDIInputElement::updateImpl</text>
</a>
</g>
</g>
<!-- Node1&#45;&gt;Node6 -->
<g id="edge5" class="edge"><title>Node1&#45;&gt;Node6</title>
<path fill="none" stroke="midnightblue" d="M103.276,-57.3527C125.65,-49.2955 158.728,-37.7538 188,-29 195.86,-26.6495 204.242,-24.3257 212.434,-22.1528"/>
<polygon fill="midnightblue" stroke="midnightblue" points="213.491,-25.4944 222.285,-19.5857 211.726,-18.7206 213.491,-25.4944"/>
</g>
<!-- Node5 -->
<g id="node5" class="node"><title>Node5</title>
<g id="a_node5"><a xlink:href="../../d3/d10/classMIDICNChannelAddress.html#ae2794067ce35df7c40295537c0b43efe" target="_top" xlink:title="Check if two addresses match.">
<polygon fill="white" stroke="black" points="374,-33 374,-63 499,-63 499,-33 374,-33"/>
<text text-anchor="start" x="382" y="-51" font-family="Helvetica,sans-Serif" font-size="10.00">MIDICNChannelAddress</text>
<text text-anchor="middle" x="436.5" y="-40" font-family="Helvetica,sans-Serif" font-size="10.00">::matchSingle</text>
</a>
</g>
</g>
<!-- Node4&#45;&gt;Node5 -->
<g id="edge4" class="edge"><title>Node4&#45;&gt;Node5</title>
<path fill="none" stroke="midnightblue" d="M327.86,-48C339.498,-48 351.713,-48 363.565,-48"/>
<polygon fill="midnightblue" stroke="midnightblue" points="363.865,-51.5001 373.865,-48 363.865,-44.5001 363.865,-51.5001"/>
</g>
</g>
</svg>
