<?xml version="1.0" encoding="UTF-8" standalone="no"?>
<!DOCTYPE svg PUBLIC "-//W3C//DTD SVG 1.1//EN"
 "http://www.w3.org/Graphics/SVG/1.1/DTD/svg11.dtd">
<!-- Generated by graphviz version 2.38.0 (20140413.2041)
 -->
<!-- Title: step&#45;response Pages: 1 -->
<svg width="190pt" height="132pt"
 viewBox="0.00 0.00 190.00 132.00" xmlns="http://www.w3.org/2000/svg" xmlns:xlink="http://www.w3.org/1999/xlink">
<g id="graph0" class="graph" transform="scale(1 1) rotate(0) translate(4 128)">
<title>step&#45;response</title>
<polygon fill="white" stroke="none" points="-4,4 -4,-128 186,-128 186,4 -4,4"/>
<g id="clust1" class="cluster"><title>clusterdir_b9edc423a43467041c2c91ab77df75cb</title>
<g id="a_clust1"><a xlink:href="dir_b9edc423a43467041c2c91ab77df75cb.html" target="_top">
<polygon fill="#eeeeff" stroke="black" points="8,-64 8,-116 174,-116 174,-64 8,-64"/>
</a>
</g>
</g>
<!-- dir_b9edc423a43467041c2c91ab77df75cb -->
<g id="node1" class="node"><title>dir_b9edc423a43467041c2c91ab77df75cb</title>
<text text-anchor="middle" x="127" y="-87.5" font-family="Helvetica,sans-Serif" font-size="10.00">step&#45;response</text>
</g>
<!-- dir_d070e8d1492145d5df9f9d38c3b83486 -->
<g id="node2" class="node"><title>dir_d070e8d1492145d5df9f9d38c3b83486</title>
<g id="a_node2"><a xlink:href="dir_d070e8d1492145d5df9f9d38c3b83486.html" target="_top" xlink:title="include">
<polygon fill="white" stroke="black" points="70,-108 16,-108 16,-72 70,-72 70,-108"/>
<text text-anchor="middle" x="43" y="-87.5" font-family="Helvetica,sans-Serif" font-size="10.00">include</text>
</a>
</g>
</g>
<!-- dir_109f68d84cef4a133396a0be144fa9b1 -->
<g id="node3" class="node"><title>dir_109f68d84cef4a133396a0be144fa9b1</title>
<g id="a_node3"><a xlink:href="dir_109f68d84cef4a133396a0be144fa9b1.html" target="_top" xlink:title="matrix">
<polygon fill="white" stroke="red" points="70,-36 16,-36 16,-0 70,-0 70,-36"/>
<text text-anchor="middle" x="43" y="-15.5" font-family="Helvetica,sans-Serif" font-size="10.00">matrix</text>
</a>
</g>
</g>
<!-- dir_d070e8d1492145d5df9f9d38c3b83486&#45;&gt;dir_109f68d84cef4a133396a0be144fa9b1 -->
<g id="edge1" class="edge"><title>dir_d070e8d1492145d5df9f9d38c3b83486&#45;&gt;dir_109f68d84cef4a133396a0be144fa9b1</title>
<path fill="none" stroke="black" d="M43,-71.6966C43,-63.9827 43,-54.7125 43,-46.1124"/>
<polygon fill="black" stroke="black" points="46.5001,-46.1043 43,-36.1043 39.5001,-46.1044 46.5001,-46.1043"/>
<g id="a_edge1&#45;headlabel"><a xlink:href="dir_000051_000000.html" target="_top" xlink:title="2">
<text text-anchor="middle" x="49.3393" y="-47.199" font-family="Helvetica,sans-Serif" font-size="10.00">2</text>
</a>
</g>
</g>
</g>
</svg>
