<?xml version="1.0" encoding="UTF-8" standalone="no"?>
<!DOCTYPE svg PUBLIC "-//W3C//DTD SVG 1.1//EN"
 "http://www.w3.org/Graphics/SVG/1.1/DTD/svg11.dtd">
<!-- Generated by graphviz version 2.38.0 (20140413.2041)
 -->
<!-- Title: Graphical Class Hierarchy Pages: 1 -->
<svg width="230pt" height="104pt"
 viewBox="0.00 0.00 230.00 104.00" xmlns="http://www.w3.org/2000/svg" xmlns:xlink="http://www.w3.org/1999/xlink">
<g id="graph0" class="graph" transform="scale(1 1) rotate(0) translate(4 100)">
<title>Graphical Class Hierarchy</title>
<polygon fill="white" stroke="none" points="-4,4 -4,-100 226,-100 226,4 -4,4"/>
<!-- Node0 -->
<g id="node1" class="node"><title>Node0</title>
<g id="a_node1"><a xlink:href="d2/d33/structPrintable.html" target="_top" xlink:title=" ">
<polygon fill="white" stroke="black" points="0,-38.5 0,-57.5 55,-57.5 55,-38.5 0,-38.5"/>
<text text-anchor="middle" x="27.5" y="-45.5" font-family="Helvetica,sans-Serif" font-size="10.00">Printable</text>
</a>
</g>
</g>
<!-- Node1 -->
<g id="node2" class="node"><title>Node1</title>
<g id="a_node2"><a xlink:href="d6/d97/structPrintAsEulerAngles.html" target="_top" xlink:title=" ">
<polygon fill="white" stroke="black" points="106,-76.5 106,-95.5 207,-95.5 207,-76.5 106,-76.5"/>
<text text-anchor="middle" x="156.5" y="-83.5" font-family="Helvetica,sans-Serif" font-size="10.00">PrintAsEulerAngles</text>
</a>
</g>
</g>
<!-- Node0&#45;&gt;Node1 -->
<g id="edge1" class="edge"><title>Node0&#45;&gt;Node1</title>
<path fill="none" stroke="midnightblue" d="M64.9616,-59.1423C73.5005,-61.7356 82.5662,-64.4759 91,-67 101.401,-70.1127 112.757,-73.4714 123.002,-76.4864"/>
<polygon fill="midnightblue" stroke="midnightblue" points="65.8348,-55.7496 55.2491,-56.1872 63.7973,-62.4465 65.8348,-55.7496"/>
</g>
<!-- Node2 -->
<g id="node3" class="node"><title>Node2</title>
<g id="a_node3"><a xlink:href="d1/d58/classPrintAsRowVector__t.html" target="_top" xlink:title=" ">
<polygon fill="white" stroke="black" points="91,-38.5 91,-57.5 222,-57.5 222,-38.5 91,-38.5"/>
<text text-anchor="middle" x="156.5" y="-45.5" font-family="Helvetica,sans-Serif" font-size="10.00">PrintAsRowVector_t&lt; N &gt;</text>
</a>
</g>
</g>
<!-- Node0&#45;&gt;Node2 -->
<g id="edge2" class="edge"><title>Node0&#45;&gt;Node2</title>
<path fill="none" stroke="midnightblue" d="M65.2849,-48C73.3675,-48 82.1564,-48 90.9718,-48"/>
<polygon fill="midnightblue" stroke="midnightblue" points="65.1234,-44.5001 55.1234,-48 65.1233,-51.5001 65.1234,-44.5001"/>
</g>
<!-- Node3 -->
<g id="node4" class="node"><title>Node3</title>
<g id="a_node4"><a xlink:href="dc/dc8/classPrintAsTeX__t.html" target="_top" xlink:title=" ">
<polygon fill="white" stroke="black" points="99.5,-0.5 99.5,-19.5 213.5,-19.5 213.5,-0.5 99.5,-0.5"/>
<text text-anchor="middle" x="156.5" y="-7.5" font-family="Helvetica,sans-Serif" font-size="10.00">PrintAsTeX_t&lt; R, C &gt;</text>
</a>
</g>
</g>
<!-- Node0&#45;&gt;Node3 -->
<g id="edge3" class="edge"><title>Node0&#45;&gt;Node3</title>
<path fill="none" stroke="midnightblue" d="M64.9616,-36.8577C73.5005,-34.2644 82.5662,-31.5241 91,-29 101.401,-25.8873 112.757,-22.5286 123.002,-19.5136"/>
<polygon fill="midnightblue" stroke="midnightblue" points="63.7973,-33.5535 55.2491,-39.8128 65.8348,-40.2504 63.7973,-33.5535"/>
</g>
</g>
</svg>
