<?xml version="1.0" encoding="UTF-8" standalone="no"?>
<!DOCTYPE svg PUBLIC "-//W3C//DTD SVG 1.1//EN"
 "http://www.w3.org/Graphics/SVG/1.1/DTD/svg11.dtd">
<!-- Generated by graphviz version 2.38.0 (20140413.2041)
 -->
<!-- Title: Graphical Class Hierarchy Pages: 1 -->
<svg width="625pt" height="225pt"
 viewBox="0.00 0.00 625.00 225.00" xmlns="http://www.w3.org/2000/svg" xmlns:xlink="http://www.w3.org/1999/xlink">
<g id="graph0" class="graph" transform="scale(1 1) rotate(0) translate(4 221)">
<title>Graphical Class Hierarchy</title>
<polygon fill="white" stroke="none" points="-4,4 -4,-221 621,-221 621,4 -4,4"/>
<!-- Node38 -->
<g id="node1" class="node"><title>Node38</title>
<g id="a_node1"><a xlink:href="d9/d85/classController.html" target="_top" xlink:title="An abstract class for controllers. A controller produces a control signal &#160;given a state &#160;and a refer...">
<polygon fill="white" stroke="black" points="4,-73.5 4,-103.5 106,-103.5 106,-73.5 4,-73.5"/>
<text text-anchor="start" x="12" y="-91.5" font-family="Helvetica,sans-Serif" font-size="10.00">Controller&lt; Nx, Nu,</text>
<text text-anchor="middle" x="55" y="-80.5" font-family="Helvetica,sans-Serif" font-size="10.00"> Nr &gt;</text>
</a>
</g>
</g>
<!-- Node39 -->
<g id="node2" class="node"><title>Node39</title>
<g id="a_node2"><a xlink:href="d8/d12/classContinuousController.html" target="_top" xlink:title=" ">
<polygon fill="white" stroke="black" points="146,-49.5 146,-79.5 254,-79.5 254,-49.5 146,-49.5"/>
<text text-anchor="start" x="154" y="-67.5" font-family="Helvetica,sans-Serif" font-size="10.00">ContinuousController</text>
<text text-anchor="middle" x="200" y="-56.5" font-family="Helvetica,sans-Serif" font-size="10.00">&lt; Nx, Nu, Nr &gt;</text>
</a>
</g>
</g>
<!-- Node38&#45;&gt;Node39 -->
<g id="edge1" class="edge"><title>Node38&#45;&gt;Node39</title>
<path fill="none" stroke="midnightblue" d="M116.154,-78.4043C126.017,-76.7489 136.176,-75.0439 145.854,-73.4197"/>
<polygon fill="midnightblue" stroke="midnightblue" points="115.297,-74.999 106.014,-80.106 116.456,-81.9024 115.297,-74.999"/>
</g>
<!-- Node40 -->
<g id="node3" class="node"><title>Node40</title>
<g id="a_node3"><a xlink:href="d8/d12/classContinuousController.html" target="_top" xlink:title=" ">
<polygon fill="white" stroke="black" points="146,-0.5 146,-30.5 254,-30.5 254,-0.5 146,-0.5"/>
<text text-anchor="start" x="154" y="-18.5" font-family="Helvetica,sans-Serif" font-size="10.00">ContinuousController</text>
<text text-anchor="middle" x="200" y="-7.5" font-family="Helvetica,sans-Serif" font-size="10.00">&lt; 10, 3, 7 &gt;</text>
</a>
</g>
</g>
<!-- Node38&#45;&gt;Node40 -->
<g id="edge2" class="edge"><title>Node38&#45;&gt;Node40</title>
<path fill="none" stroke="midnightblue" d="M91.271,-68.5183C107.75,-59.3845 127.724,-48.5976 146,-39.5 151.968,-36.5291 158.381,-33.4949 164.614,-30.6275"/>
<polygon fill="midnightblue" stroke="midnightblue" points="89.5402,-65.476 82.5089,-73.4014 92.9479,-71.5906 89.5402,-65.476"/>
</g>
<!-- Node41 -->
<g id="node5" class="node"><title>Node41</title>
<g id="a_node5"><a xlink:href="d4/d83/classDiscreteController.html" target="_top" xlink:title=" ">
<polygon fill="white" stroke="black" points="152.5,-98.5 152.5,-128.5 247.5,-128.5 247.5,-98.5 152.5,-98.5"/>
<text text-anchor="start" x="160.5" y="-116.5" font-family="Helvetica,sans-Serif" font-size="10.00">DiscreteController</text>
<text text-anchor="middle" x="200" y="-105.5" font-family="Helvetica,sans-Serif" font-size="10.00">&lt; Nx, Nu, Nr &gt;</text>
</a>
</g>
</g>
<!-- Node38&#45;&gt;Node41 -->
<g id="edge4" class="edge"><title>Node38&#45;&gt;Node41</title>
<path fill="none" stroke="midnightblue" d="M116.013,-98.9919C128.08,-101.101 140.594,-103.289 152.133,-105.306"/>
<polygon fill="midnightblue" stroke="midnightblue" points="116.468,-95.5183 106.014,-97.2438 115.262,-102.414 116.468,-95.5183"/>
</g>
<!-- Node42 -->
<g id="node6" class="node"><title>Node42</title>
<g id="a_node6"><a xlink:href="d4/d83/classDiscreteController.html" target="_top" xlink:title=" ">
<polygon fill="white" stroke="black" points="152.5,-186.5 152.5,-216.5 247.5,-216.5 247.5,-186.5 152.5,-186.5"/>
<text text-anchor="start" x="160.5" y="-204.5" font-family="Helvetica,sans-Serif" font-size="10.00">DiscreteController</text>
<text text-anchor="middle" x="200" y="-193.5" font-family="Helvetica,sans-Serif" font-size="10.00">&lt; 10, 3, 7 &gt;</text>
</a>
</g>
</g>
<!-- Node38&#45;&gt;Node42 -->
<g id="edge5" class="edge"><title>Node38&#45;&gt;Node42</title>
<path fill="none" stroke="midnightblue" d="M80.3256,-110.398C89.7255,-119.022 100.488,-129.096 110,-138.5 126.544,-154.856 127.155,-162.858 146,-176.5 151.027,-180.139 156.668,-183.463 162.344,-186.416"/>
<polygon fill="midnightblue" stroke="midnightblue" points="82.5549,-107.695 72.8076,-103.542 77.838,-112.867 82.5549,-107.695"/>
</g>
<!-- Node2 -->
<g id="node4" class="node"><title>Node2</title>
<g id="a_node4"><a xlink:href="d3/d52/classContinuousLQRController.html" target="_top" xlink:title=" ">
<polygon fill="white" stroke="black" points="290,-61 290,-80 418,-80 418,-61 290,-61"/>
<text text-anchor="middle" x="354" y="-68" font-family="Helvetica,sans-Serif" font-size="10.00">ContinuousLQRController</text>
</a>
</g>
</g>
<!-- Node40&#45;&gt;Node2 -->
<g id="edge3" class="edge"><title>Node40&#45;&gt;Node2</title>
<path fill="none" stroke="midnightblue" d="M252.197,-34.0253C277.061,-43.0221 305.903,-53.4584 326.35,-60.8568"/>
<polygon fill="midnightblue" stroke="midnightblue" points="253.129,-30.6404 242.535,-30.529 250.747,-37.2228 253.129,-30.6404"/>
</g>
<!-- Node3 -->
<g id="node7" class="node"><title>Node3</title>
<g id="a_node7"><a xlink:href="d8/df3/classDiscreteLQRController.html" target="_top" xlink:title=" ">
<polygon fill="white" stroke="black" points="296,-151 296,-170 412,-170 412,-151 296,-151"/>
<text text-anchor="middle" x="354" y="-158" font-family="Helvetica,sans-Serif" font-size="10.00">DiscreteLQRController</text>
</a>
</g>
</g>
<!-- Node42&#45;&gt;Node3 -->
<g id="edge6" class="edge"><title>Node42&#45;&gt;Node3</title>
<path fill="none" stroke="midnightblue" d="M257.551,-186.246C277.697,-180.812 299.798,-174.851 317.655,-170.034"/>
<polygon fill="midnightblue" stroke="midnightblue" points="256.589,-182.881 247.845,-188.864 258.412,-189.639 256.589,-182.881"/>
</g>
<!-- Node43 -->
<g id="node9" class="node"><title>Node43</title>
<g id="a_node9"><a xlink:href="db/d13/classGeneratedLQRController.html" target="_top" xlink:title="A class for the LQR attitude controller for the drone. It uses the generated C code.">
<polygon fill="white" stroke="black" points="292,-192 292,-211 416,-211 416,-192 292,-192"/>
<text text-anchor="middle" x="354" y="-199" font-family="Helvetica,sans-Serif" font-size="10.00">GeneratedLQRController</text>
</a>
</g>
</g>
<!-- Node42&#45;&gt;Node43 -->
<g id="edge8" class="edge"><title>Node42&#45;&gt;Node43</title>
<path fill="none" stroke="midnightblue" d="M258.158,-201.5C269.128,-201.5 280.656,-201.5 291.748,-201.5"/>
<polygon fill="midnightblue" stroke="midnightblue" points="257.845,-198 247.845,-201.5 257.845,-205 257.845,-198"/>
</g>
<!-- Node4 -->
<g id="node8" class="node"><title>Node4</title>
<g id="a_node8"><a xlink:href="d7/d66/classClampedDiscreteLQRController.html" target="_top" xlink:title=" ">
<polygon fill="white" stroke="black" points="458,-151 458,-170 613,-170 613,-151 458,-151"/>
<text text-anchor="middle" x="535.5" y="-158" font-family="Helvetica,sans-Serif" font-size="10.00">ClampedDiscreteLQRController</text>
</a>
</g>
</g>
<!-- Node3&#45;&gt;Node4 -->
<g id="edge7" class="edge"><title>Node3&#45;&gt;Node4</title>
<path fill="none" stroke="midnightblue" d="M422.301,-160.5C433.873,-160.5 445.979,-160.5 457.777,-160.5"/>
<polygon fill="midnightblue" stroke="midnightblue" points="422.288,-157 412.288,-160.5 422.288,-164 422.288,-157"/>
</g>
<!-- Node44 -->
<g id="node10" class="node"><title>Node44</title>
<g id="a_node10"><a xlink:href="d2/d93/classClampedGeneratedLQRController.html" target="_top" xlink:title=" ">
<polygon fill="white" stroke="black" points="454,-192 454,-211 617,-211 617,-192 454,-192"/>
<text text-anchor="middle" x="535.5" y="-199" font-family="Helvetica,sans-Serif" font-size="10.00">ClampedGeneratedLQRController</text>
</a>
</g>
</g>
<!-- Node43&#45;&gt;Node44 -->
<g id="edge9" class="edge"><title>Node43&#45;&gt;Node44</title>
<path fill="none" stroke="midnightblue" d="M426.182,-201.5C435.301,-201.5 444.688,-201.5 453.943,-201.5"/>
<polygon fill="midnightblue" stroke="midnightblue" points="426.021,-198 416.021,-201.5 426.021,-205 426.021,-198"/>
</g>
<!-- Node0 -->
<g id="node11" class="node"><title>Node0</title>
<g id="a_node11"><a xlink:href="d9/d85/classController.html" target="_top" xlink:title=" ">
<polygon fill="white" stroke="black" points="0,-148 0,-167 110,-167 110,-148 0,-148"/>
<text text-anchor="middle" x="55" y="-155" font-family="Helvetica,sans-Serif" font-size="10.00">Controller&lt; 10, 3, 7 &gt;</text>
</a>
</g>
</g>
<!-- Node1 -->
<g id="node12" class="node"><title>Node1</title>
<g id="a_node12"><a xlink:href="db/dcf/classLQRController.html" target="_top" xlink:title="A class for the LQR attitude controller for the drone.">
<polygon fill="white" stroke="black" points="160.5,-148 160.5,-167 239.5,-167 239.5,-148 160.5,-148"/>
<text text-anchor="middle" x="200" y="-155" font-family="Helvetica,sans-Serif" font-size="10.00">LQRController</text>
</a>
</g>
</g>
<!-- Node0&#45;&gt;Node1 -->
<g id="edge10" class="edge"><title>Node0&#45;&gt;Node1</title>
<path fill="none" stroke="midnightblue" d="M120.415,-157.5C134.086,-157.5 148.106,-157.5 160.449,-157.5"/>
<polygon fill="midnightblue" stroke="midnightblue" points="120.062,-154 110.062,-157.5 120.062,-161 120.062,-154"/>
</g>
<!-- Node1&#45;&gt;Node2 -->
<g id="edge11" class="edge"><title>Node1&#45;&gt;Node2</title>
<path fill="none" stroke="midnightblue" d="M239.562,-144.169C244.5,-142.108 249.423,-139.87 254,-137.5 287.171,-120.319 322.639,-94.1751 340.775,-80.1663"/>
<polygon fill="midnightblue" stroke="midnightblue" points="238.148,-140.965 230.139,-147.901 240.725,-147.473 238.148,-140.965"/>
</g>
<!-- Node1&#45;&gt;Node3 -->
<g id="edge12" class="edge"><title>Node1&#45;&gt;Node3</title>
<path fill="none" stroke="midnightblue" d="M250.091,-158.469C264.716,-158.758 280.867,-159.076 295.953,-159.374"/>
<polygon fill="midnightblue" stroke="midnightblue" points="249.816,-154.963 239.749,-158.265 249.678,-161.962 249.816,-154.963"/>
</g>
</g>
</svg>
