<?xml version="1.0" encoding="UTF-8" standalone="no"?>
<!DOCTYPE svg PUBLIC "-//W3C//DTD SVG 1.1//EN"
 "http://www.w3.org/Graphics/SVG/1.1/DTD/svg11.dtd">
<!-- Generated by graphviz version 2.38.0 (20140413.2041)
 -->
<!-- Title: MIDIButton.hpp Pages: 1 -->
<svg width="1120pt" height="599pt"
 viewBox="0.00 0.00 1120.00 599.00" xmlns="http://www.w3.org/2000/svg" xmlns:xlink="http://www.w3.org/1999/xlink">
<g id="graph0" class="graph" transform="scale(1 1) rotate(0) translate(4 595)">
<title>MIDIButton.hpp</title>
<polygon fill="white" stroke="none" points="-4,4 -4,-595 1116,-595 1116,4 -4,4"/>
<!-- Node1 -->
<g id="node1" class="node"><title>Node1</title>
<g id="a_node1"><a xlink:title=" ">
<polygon fill="#bfbfbf" stroke="black" points="319,-571.5 319,-590.5 405,-590.5 405,-571.5 319,-571.5"/>
<text text-anchor="middle" x="362" y="-578.5" font-family="Helvetica,sans-Serif" font-size="10.00">MIDIButton.hpp</text>
</a>
</g>
</g>
<!-- Node2 -->
<g id="node2" class="node"><title>Node2</title>
<g id="a_node2"><a xlink:href="../../db/df2/BankableMIDIOutput_8hpp.html" target="_top" xlink:title=" ">
<polygon fill="white" stroke="black" points="228,-515.5 228,-534.5 386,-534.5 386,-515.5 228,-515.5"/>
<text text-anchor="middle" x="307" y="-522.5" font-family="Helvetica,sans-Serif" font-size="10.00">Banks/BankableMIDIOutput.hpp</text>
</a>
</g>
</g>
<!-- Node1&#45;&gt;Node2 -->
<g id="edge1" class="edge"><title>Node1&#45;&gt;Node2</title>
<path fill="none" stroke="midnightblue" d="M352.918,-571.083C344.829,-563.141 332.805,-551.335 323.09,-541.797"/>
<polygon fill="midnightblue" stroke="midnightblue" points="325.501,-539.26 315.913,-534.751 320.597,-544.254 325.501,-539.26"/>
</g>
<!-- Node7 -->
<g id="node7" class="node"><title>Node7</title>
<g id="a_node7"><a xlink:href="../../d0/d4e/Def_8hpp.html" target="_top" xlink:title=" ">
<polygon fill="white" stroke="black" points="620,-112.5 620,-131.5 690,-131.5 690,-112.5 620,-112.5"/>
<text text-anchor="middle" x="655" y="-119.5" font-family="Helvetica,sans-Serif" font-size="10.00">Def/Def.hpp</text>
</a>
</g>
</g>
<!-- Node1&#45;&gt;Node7 -->
<g id="edge41" class="edge"><title>Node1&#45;&gt;Node7</title>
<path fill="none" stroke="midnightblue" d="M318.694,-575.435C222.607,-564.107 0,-530.716 0,-464.5 0,-464.5 0,-464.5 0,-233 0,-171.067 461.325,-135.612 609.656,-125.813"/>
<polygon fill="midnightblue" stroke="midnightblue" points="610.034,-129.296 619.784,-125.152 609.578,-122.311 610.034,-129.296"/>
</g>
<!-- Node26 -->
<g id="node26" class="node"><title>Node26</title>
<g id="a_node26"><a xlink:href="../../d4/db3/Button_8hpp.html" target="_top" xlink:title=" ">
<polygon fill="white" stroke="black" points="738.5,-515.5 738.5,-534.5 847.5,-534.5 847.5,-515.5 738.5,-515.5"/>
<text text-anchor="middle" x="793" y="-522.5" font-family="Helvetica,sans-Serif" font-size="10.00">Hardware/Button.hpp</text>
</a>
</g>
</g>
<!-- Node1&#45;&gt;Node26 -->
<g id="edge42" class="edge"><title>Node1&#45;&gt;Node26</title>
<path fill="none" stroke="midnightblue" d="M405.299,-574.575C481.352,-565.046 639.285,-545.259 728.324,-534.103"/>
<polygon fill="midnightblue" stroke="midnightblue" points="728.815,-537.569 738.303,-532.853 727.945,-530.623 728.815,-537.569"/>
</g>
<!-- Node29 -->
<g id="node29" class="node"><title>Node29</title>
<g id="a_node29"><a xlink:href="../../d1/d41/MIDIOutputElement_8hpp.html" target="_top" xlink:title=" ">
<polygon fill="white" stroke="black" points="504.5,-448.5 504.5,-478.5 629.5,-478.5 629.5,-448.5 504.5,-448.5"/>
<text text-anchor="start" x="512.5" y="-466.5" font-family="Helvetica,sans-Serif" font-size="10.00">MIDI_Outputs/Abstract</text>
<text text-anchor="middle" x="567" y="-455.5" font-family="Helvetica,sans-Serif" font-size="10.00">/MIDIOutputElement.hpp</text>
</a>
</g>
</g>
<!-- Node1&#45;&gt;Node29 -->
<g id="edge49" class="edge"><title>Node1&#45;&gt;Node29</title>
<path fill="none" stroke="midnightblue" d="M377.408,-571.319C410.337,-552.766 488.225,-508.883 533.257,-483.511"/>
<polygon fill="midnightblue" stroke="midnightblue" points="535.077,-486.503 542.071,-478.545 531.641,-480.405 535.077,-486.503"/>
</g>
<!-- Node3 -->
<g id="node3" class="node"><title>Node3</title>
<g id="a_node3"><a xlink:href="../../d4/d57/Bank_8hpp.html" target="_top" xlink:title=" ">
<polygon fill="white" stroke="black" points="381,-454 381,-473 439,-473 439,-454 381,-454"/>
<text text-anchor="middle" x="410" y="-461" font-family="Helvetica,sans-Serif" font-size="10.00">Bank.hpp</text>
</a>
</g>
</g>
<!-- Node2&#45;&gt;Node3 -->
<g id="edge2" class="edge"><title>Node2&#45;&gt;Node3</title>
<path fill="none" stroke="midnightblue" d="M321.757,-515.475C338.661,-505.711 366.583,-489.581 386.49,-478.081"/>
<polygon fill="midnightblue" stroke="midnightblue" points="388.362,-481.042 395.27,-473.009 384.86,-474.981 388.362,-481.042"/>
</g>
<!-- Node24 -->
<g id="node24" class="node"><title>Node24</title>
<g id="a_node24"><a xlink:href="../../dd/d1f/BankConfig_8hpp.html" target="_top" xlink:title=" ">
<polygon fill="white" stroke="black" points="28,-336.5 28,-355.5 114,-355.5 114,-336.5 28,-336.5"/>
<text text-anchor="middle" x="71" y="-343.5" font-family="Helvetica,sans-Serif" font-size="10.00">BankConfig.hpp</text>
</a>
</g>
</g>
<!-- Node2&#45;&gt;Node24 -->
<g id="edge39" class="edge"><title>Node2&#45;&gt;Node24</title>
<path fill="none" stroke="midnightblue" d="M293.232,-515.355C279.336,-506.522 257.365,-492.258 239,-479 183.16,-438.688 119.946,-387.415 89.428,-362.286"/>
<polygon fill="midnightblue" stroke="midnightblue" points="91.3243,-359.313 81.3848,-355.644 86.8671,-364.71 91.3243,-359.313"/>
</g>
<!-- Node25 -->
<g id="node25" class="node"><title>Node25</title>
<g id="a_node25"><a xlink:href="../../d8/d38/MIDICNChannelAddress_8hpp.html" target="_top" xlink:title=" ">
<polygon fill="white" stroke="black" points="132.5,-336.5 132.5,-355.5 295.5,-355.5 295.5,-336.5 132.5,-336.5"/>
<text text-anchor="middle" x="214" y="-343.5" font-family="Helvetica,sans-Serif" font-size="10.00">Def/MIDICNChannelAddress.hpp</text>
</a>
</g>
</g>
<!-- Node2&#45;&gt;Node25 -->
<g id="edge40" class="edge"><title>Node2&#45;&gt;Node25</title>
<path fill="none" stroke="midnightblue" d="M298.038,-515.418C280.337,-497.87 241.043,-455.827 223,-412 216.962,-397.334 214.83,-379.396 214.14,-366.082"/>
<polygon fill="midnightblue" stroke="midnightblue" points="217.63,-365.667 213.845,-355.771 210.633,-365.867 217.63,-365.667"/>
</g>
<!-- Node4 -->
<g id="node4" class="node"><title>Node4</title>
<g id="a_node4"><a xlink:href="../../df/dee/Debug_8hpp.html" target="_top" xlink:title=" ">
<polygon fill="white" stroke="black" points="518.5,-280.5 518.5,-299.5 619.5,-299.5 619.5,-280.5 518.5,-280.5"/>
<text text-anchor="middle" x="569" y="-287.5" font-family="Helvetica,sans-Serif" font-size="10.00">Helpers/Debug.hpp</text>
</a>
</g>
</g>
<!-- Node3&#45;&gt;Node4 -->
<g id="edge3" class="edge"><title>Node3&#45;&gt;Node4</title>
<path fill="none" stroke="midnightblue" d="M417.966,-453.951C434.797,-435.884 475.204,-392.484 509,-356 524.384,-339.392 541.945,-320.359 554.075,-307.2"/>
<polygon fill="midnightblue" stroke="midnightblue" points="556.655,-309.566 560.858,-299.84 551.507,-304.822 556.655,-309.566"/>
</g>
<!-- Node16 -->
<g id="node16" class="node"><title>Node16</title>
<g id="a_node16"><a xlink:href="../../d1/d93/Error_8hpp.html" target="_top" xlink:title=" ">
<polygon fill="white" stroke="black" points="562.5,-336.5 562.5,-355.5 655.5,-355.5 655.5,-336.5 562.5,-336.5"/>
<text text-anchor="middle" x="609" y="-343.5" font-family="Helvetica,sans-Serif" font-size="10.00">Helpers/Error.hpp</text>
</a>
</g>
</g>
<!-- Node3&#45;&gt;Node16 -->
<g id="edge18" class="edge"><title>Node3&#45;&gt;Node16</title>
<path fill="none" stroke="midnightblue" d="M424.957,-453.819C459.255,-433.912 543.798,-384.843 585.276,-360.769"/>
<polygon fill="midnightblue" stroke="midnightblue" points="587.249,-363.671 594.141,-355.624 583.735,-357.617 587.249,-363.671"/>
</g>
<!-- Node17 -->
<g id="node17" class="node"><title>Node17</title>
<g id="a_node17"><a xlink:href="../../de/dd1/LinkedList_8hpp.html" target="_top" xlink:title=" ">
<polygon fill="white" stroke="black" points="352,-336.5 352,-355.5 468,-355.5 468,-336.5 352,-336.5"/>
<text text-anchor="middle" x="410" y="-343.5" font-family="Helvetica,sans-Serif" font-size="10.00">Helpers/LinkedList.hpp</text>
</a>
</g>
</g>
<!-- Node3&#45;&gt;Node17 -->
<g id="edge20" class="edge"><title>Node3&#45;&gt;Node17</title>
<path fill="none" stroke="midnightblue" d="M410,-453.819C410,-435.257 410,-391.339 410,-365.973"/>
<polygon fill="midnightblue" stroke="midnightblue" points="413.5,-365.782 410,-355.782 406.5,-365.782 413.5,-365.782"/>
</g>
<!-- Node21 -->
<g id="node21" class="node"><title>Node21</title>
<g id="a_node21"><a xlink:href="../../d9/d46/Selectable_8hpp.html" target="_top" xlink:title=" ">
<polygon fill="white" stroke="black" points="866.5,-392.5 866.5,-411.5 991.5,-411.5 991.5,-392.5 866.5,-392.5"/>
<text text-anchor="middle" x="929" y="-399.5" font-family="Helvetica,sans-Serif" font-size="10.00">Selectors/Selectable.hpp</text>
</a>
</g>
</g>
<!-- Node3&#45;&gt;Node21 -->
<g id="edge26" class="edge"><title>Node3&#45;&gt;Node21</title>
<path fill="none" stroke="midnightblue" d="M439.039,-457.061C455.429,-454.113 476.312,-450.56 495,-448 621.568,-430.662 769.723,-416.638 856.097,-409.087"/>
<polygon fill="midnightblue" stroke="midnightblue" points="856.659,-412.551 866.318,-408.198 856.052,-405.578 856.659,-412.551"/>
</g>
<!-- Node23 -->
<g id="node23" class="node"><title>Node23</title>
<g id="a_node23"><a xlink:href="../../de/d6e/BankableMIDIInput_8hpp.html" target="_top" xlink:title=" ">
<polygon fill="white" stroke="black" points="232,-392.5 232,-411.5 382,-411.5 382,-392.5 232,-392.5"/>
<text text-anchor="middle" x="307" y="-399.5" font-family="Helvetica,sans-Serif" font-size="10.00">Banks/BankableMIDIInput.hpp</text>
</a>
</g>
</g>
<!-- Node3&#45;&gt;Node23 -->
<g id="edge31" class="edge"><title>Node3&#45;&gt;Node23</title>
<path fill="none" stroke="midnightblue" d="M390.342,-453.975C371.567,-444.343 343.861,-428.517 325.491,-417.052"/>
<polygon fill="midnightblue" stroke="midnightblue" points="327.142,-413.953 316.833,-411.509 323.368,-419.848 327.142,-413.953"/>
</g>
<!-- Node5 -->
<g id="node5" class="node"><title>Node5</title>
<g id="a_node5"><a xlink:href="../../d2/dd5/SettingsWrapper_8hpp.html" target="_top" xlink:title=" ">
<polygon fill="white" stroke="black" points="558.5,-224.5 558.5,-243.5 705.5,-243.5 705.5,-224.5 558.5,-224.5"/>
<text text-anchor="middle" x="632" y="-231.5" font-family="Helvetica,sans-Serif" font-size="10.00">Settings/SettingsWrapper.hpp</text>
</a>
</g>
</g>
<!-- Node4&#45;&gt;Node5 -->
<g id="edge4" class="edge"><title>Node4&#45;&gt;Node5</title>
<path fill="none" stroke="midnightblue" d="M574.237,-280.083C582.053,-271.905 596.057,-259.631 608.441,-249.954"/>
<polygon fill="midnightblue" stroke="midnightblue" points="610.786,-252.569 616.659,-243.751 606.569,-246.981 610.786,-252.569"/>
</g>
<!-- Node14 -->
<g id="node14" class="node"><title>Node14</title>
<g id="a_node14"><a xlink:href="../../dd/d80/PrintStream_8hpp.html" target="_top" xlink:title=" ">
<polygon fill="white" stroke="black" points="453.5,-224.5 453.5,-243.5 540.5,-243.5 540.5,-224.5 453.5,-224.5"/>
<text text-anchor="middle" x="497" y="-231.5" font-family="Helvetica,sans-Serif" font-size="10.00">PrintStream.hpp</text>
</a>
</g>
</g>
<!-- Node4&#45;&gt;Node14 -->
<g id="edge16" class="edge"><title>Node4&#45;&gt;Node14</title>
<path fill="none" stroke="midnightblue" d="M557.432,-280.324C546.58,-272.185 530.119,-259.839 517.117,-250.087"/>
<polygon fill="midnightblue" stroke="midnightblue" points="518.879,-247.034 508.779,-243.834 514.679,-252.634 518.879,-247.034"/>
</g>
<!-- Node5&#45;&gt;Node4 -->
<g id="edge15" class="edge"><title>Node5&#45;&gt;Node4</title>
<path fill="none" stroke="midnightblue" d="M626.842,-243.834C619.028,-252.027 604.933,-264.382 592.49,-274.101"/>
<polygon fill="midnightblue" stroke="midnightblue" points="590.114,-271.509 584.237,-280.324 594.329,-277.098 590.114,-271.509"/>
</g>
<!-- Node6 -->
<g id="node6" class="node"><title>Node6</title>
<g id="a_node6"><a xlink:href="../../db/d02/Settings_8hpp.html" target="_top" xlink:title="All user settings and debugging options can be changed here.">
<polygon fill="white" stroke="black" points="502.5,-168.5 502.5,-187.5 573.5,-187.5 573.5,-168.5 502.5,-168.5"/>
<text text-anchor="middle" x="538" y="-175.5" font-family="Helvetica,sans-Serif" font-size="10.00">Settings.hpp</text>
</a>
</g>
</g>
<!-- Node5&#45;&gt;Node6 -->
<g id="edge5" class="edge"><title>Node5&#45;&gt;Node6</title>
<path fill="none" stroke="midnightblue" d="M616.897,-224.324C602.097,-215.822 579.306,-202.729 562.018,-192.797"/>
<polygon fill="midnightblue" stroke="midnightblue" points="563.48,-189.601 553.065,-187.655 559.993,-195.671 563.48,-189.601"/>
</g>
<!-- Node13 -->
<g id="node13" class="node"><title>Node13</title>
<g id="a_node13"><a xlink:href="../../d9/d98/TeensyUSBTypes_8hpp.html" target="_top" xlink:title=" ">
<polygon fill="white" stroke="black" points="592,-168.5 592,-187.5 744,-187.5 744,-168.5 592,-168.5"/>
<text text-anchor="middle" x="668" y="-175.5" font-family="Helvetica,sans-Serif" font-size="10.00">Helpers/TeensyUSBTypes.hpp</text>
</a>
</g>
</g>
<!-- Node5&#45;&gt;Node13 -->
<g id="edge14" class="edge"><title>Node5&#45;&gt;Node13</title>
<path fill="none" stroke="midnightblue" d="M637.945,-224.083C642.977,-216.534 650.337,-205.495 656.513,-196.23"/>
<polygon fill="midnightblue" stroke="midnightblue" points="659.531,-198.013 662.166,-187.751 653.707,-194.13 659.531,-198.013"/>
</g>
<!-- Node6&#45;&gt;Node7 -->
<g id="edge6" class="edge"><title>Node6&#45;&gt;Node7</title>
<path fill="none" stroke="midnightblue" d="M556.539,-168.444C575.623,-159.636 605.575,-145.812 627.436,-135.722"/>
<polygon fill="midnightblue" stroke="midnightblue" points="628.935,-138.885 636.548,-131.516 626.001,-132.529 628.935,-138.885"/>
</g>
<!-- Node8 -->
<g id="node8" class="node"><title>Node8</title>
<g id="a_node8"><a xlink:href="../../d7/d42/Channel_8hpp.html" target="_top" xlink:title=" ">
<polygon fill="white" stroke="black" points="713.5,-56.5 713.5,-75.5 784.5,-75.5 784.5,-56.5 713.5,-56.5"/>
<text text-anchor="middle" x="749" y="-63.5" font-family="Helvetica,sans-Serif" font-size="10.00">Channel.hpp</text>
</a>
</g>
</g>
<!-- Node7&#45;&gt;Node8 -->
<g id="edge7" class="edge"><title>Node7&#45;&gt;Node8</title>
<path fill="none" stroke="midnightblue" d="M670.103,-112.324C684.903,-103.822 707.694,-90.7288 724.982,-80.7975"/>
<polygon fill="midnightblue" stroke="midnightblue" points="727.007,-83.6707 733.935,-75.6545 723.52,-77.6009 727.007,-83.6707"/>
</g>
<!-- Node9 -->
<g id="node9" class="node"><title>Node9</title>
<g id="a_node9"><a xlink:title=" ">
<polygon fill="white" stroke="#bfbfbf" points="788.5,-0.5 788.5,-19.5 837.5,-19.5 837.5,-0.5 788.5,-0.5"/>
<text text-anchor="middle" x="813" y="-7.5" font-family="Helvetica,sans-Serif" font-size="10.00">stdint.h</text>
</a>
</g>
</g>
<!-- Node7&#45;&gt;Node9 -->
<g id="edge13" class="edge"><title>Node7&#45;&gt;Node9</title>
<path fill="none" stroke="midnightblue" d="M690.004,-118.479C721.089,-114.403 765.701,-103.76 793,-76 805.02,-63.7779 809.839,-44.512 811.758,-30.1232"/>
<polygon fill="midnightblue" stroke="midnightblue" points="815.272,-30.1492 812.759,-19.8569 808.305,-29.4704 815.272,-30.1492"/>
</g>
<!-- Node10 -->
<g id="node10" class="node"><title>Node10</title>
<g id="a_node10"><a xlink:href="../../dc/d50/Frequency_8hpp.html" target="_top" xlink:title=" ">
<polygon fill="white" stroke="black" points="614.5,-56.5 614.5,-75.5 695.5,-75.5 695.5,-56.5 614.5,-56.5"/>
<text text-anchor="middle" x="655" y="-63.5" font-family="Helvetica,sans-Serif" font-size="10.00">Frequency.hpp</text>
</a>
</g>
</g>
<!-- Node7&#45;&gt;Node10 -->
<g id="edge9" class="edge"><title>Node7&#45;&gt;Node10</title>
<path fill="none" stroke="midnightblue" d="M655,-112.083C655,-105.006 655,-94.8611 655,-85.9865"/>
<polygon fill="midnightblue" stroke="midnightblue" points="658.5,-85.751 655,-75.7511 651.5,-85.7511 658.5,-85.751"/>
</g>
<!-- Node11 -->
<g id="node11" class="node"><title>Node11</title>
<g id="a_node11"><a xlink:href="../../de/d76/Array_8hpp.html" target="_top" xlink:title=" ">
<polygon fill="white" stroke="black" points="501.5,-56.5 501.5,-75.5 596.5,-75.5 596.5,-56.5 501.5,-56.5"/>
<text text-anchor="middle" x="549" y="-63.5" font-family="Helvetica,sans-Serif" font-size="10.00">Helpers/Array.hpp</text>
</a>
</g>
</g>
<!-- Node7&#45;&gt;Node11 -->
<g id="edge10" class="edge"><title>Node7&#45;&gt;Node11</title>
<path fill="none" stroke="midnightblue" d="M637.969,-112.324C620.97,-103.664 594.624,-90.2424 575.007,-80.249"/>
<polygon fill="midnightblue" stroke="midnightblue" points="576.488,-77.0752 565.988,-75.6545 573.31,-83.3125 576.488,-77.0752"/>
</g>
<!-- Node12 -->
<g id="node12" class="node"><title>Node12</title>
<g id="a_node12"><a xlink:title=" ">
<polygon fill="white" stroke="#bfbfbf" points="447,-0.5 447,-19.5 499,-19.5 499,-0.5 447,-0.5"/>
<text text-anchor="middle" x="473" y="-7.5" font-family="Helvetica,sans-Serif" font-size="10.00">stddef.h</text>
</a>
</g>
</g>
<!-- Node7&#45;&gt;Node12 -->
<g id="edge12" class="edge"><title>Node7&#45;&gt;Node12</title>
<path fill="none" stroke="midnightblue" d="M619.929,-120.814C583.199,-118.698 526.194,-109.685 492,-76 479.84,-64.0209 475.361,-44.7225 473.763,-30.2598"/>
<polygon fill="midnightblue" stroke="midnightblue" points="477.227,-29.6477 473.006,-19.93 470.246,-30.159 477.227,-29.6477"/>
</g>
<!-- Node8&#45;&gt;Node9 -->
<g id="edge8" class="edge"><title>Node8&#45;&gt;Node9</title>
<path fill="none" stroke="midnightblue" d="M759.283,-56.324C768.836,-48.2631 783.28,-36.0765 794.784,-26.3695"/>
<polygon fill="midnightblue" stroke="midnightblue" points="797.144,-28.9577 802.53,-19.8339 792.63,-23.6076 797.144,-28.9577"/>
</g>
<!-- Node11&#45;&gt;Node12 -->
<g id="edge11" class="edge"><title>Node11&#45;&gt;Node12</title>
<path fill="none" stroke="midnightblue" d="M536.789,-56.324C525.224,-48.1066 507.625,-35.6017 493.839,-25.8069"/>
<polygon fill="midnightblue" stroke="midnightblue" points="495.612,-22.7729 485.433,-19.8339 491.557,-28.4791 495.612,-22.7729"/>
</g>
<!-- Node15 -->
<g id="node15" class="node"><title>Node15</title>
<g id="a_node15"><a xlink:title=" ">
<polygon fill="white" stroke="#bfbfbf" points="426,-168.5 426,-187.5 484,-187.5 484,-168.5 426,-168.5"/>
<text text-anchor="middle" x="455" y="-175.5" font-family="Helvetica,sans-Serif" font-size="10.00">Arduino.h</text>
</a>
</g>
</g>
<!-- Node14&#45;&gt;Node15 -->
<g id="edge17" class="edge"><title>Node14&#45;&gt;Node15</title>
<path fill="none" stroke="midnightblue" d="M490.065,-224.083C484.071,-216.377 475.248,-205.033 467.952,-195.653"/>
<polygon fill="midnightblue" stroke="midnightblue" points="470.709,-193.496 461.806,-187.751 465.183,-197.793 470.709,-193.496"/>
</g>
<!-- Node16&#45;&gt;Node4 -->
<g id="edge19" class="edge"><title>Node16&#45;&gt;Node4</title>
<path fill="none" stroke="midnightblue" d="M602.395,-336.083C596.745,-328.455 588.455,-317.264 581.549,-307.941"/>
<polygon fill="midnightblue" stroke="midnightblue" points="584.247,-305.703 575.482,-299.751 578.622,-309.87 584.247,-305.703"/>
</g>
<!-- Node17&#45;&gt;Node4 -->
<g id="edge21" class="edge"><title>Node17&#45;&gt;Node4</title>
<path fill="none" stroke="midnightblue" d="M435.194,-336.444C461.943,-327.359 504.403,-312.939 534.305,-302.783"/>
<polygon fill="midnightblue" stroke="midnightblue" points="535.581,-306.046 543.924,-299.516 533.329,-299.418 535.581,-306.046"/>
</g>
<!-- Node18 -->
<g id="node18" class="node"><title>Node18</title>
<g id="a_node18"><a xlink:title=" ">
<polygon fill="white" stroke="#bfbfbf" points="452,-280.5 452,-299.5 500,-299.5 500,-280.5 452,-280.5"/>
<text text-anchor="middle" x="476" y="-287.5" font-family="Helvetica,sans-Serif" font-size="10.00">stdlib.h</text>
</a>
</g>
</g>
<!-- Node17&#45;&gt;Node18 -->
<g id="edge22" class="edge"><title>Node17&#45;&gt;Node18</title>
<path fill="none" stroke="midnightblue" d="M420.604,-336.324C430.456,-328.263 445.351,-316.077 457.215,-306.369"/>
<polygon fill="midnightblue" stroke="midnightblue" points="459.68,-308.875 465.203,-299.834 455.247,-303.457 459.68,-308.875"/>
</g>
<!-- Node19 -->
<g id="node19" class="node"><title>Node19</title>
<g id="a_node19"><a xlink:href="../../d7/d79/MinMaxFix_8hpp.html" target="_top" xlink:title=" ">
<polygon fill="white" stroke="black" points="315,-224.5 315,-243.5 435,-243.5 435,-224.5 315,-224.5"/>
<text text-anchor="middle" x="375" y="-231.5" font-family="Helvetica,sans-Serif" font-size="10.00">Helpers/MinMaxFix.hpp</text>
</a>
</g>
</g>
<!-- Node17&#45;&gt;Node19 -->
<g id="edge23" class="edge"><title>Node17&#45;&gt;Node19</title>
<path fill="none" stroke="midnightblue" d="M401.081,-336.306C393.1,-327.874 381.922,-314.289 377,-300 371.881,-285.139 371.738,-267.218 372.673,-253.961"/>
<polygon fill="midnightblue" stroke="midnightblue" points="376.186,-253.997 373.674,-243.705 369.219,-253.317 376.186,-253.997"/>
</g>
<!-- Node20 -->
<g id="node20" class="node"><title>Node20</title>
<g id="a_node20"><a xlink:title=" ">
<polygon fill="white" stroke="#bfbfbf" points="386.5,-280.5 386.5,-299.5 433.5,-299.5 433.5,-280.5 386.5,-280.5"/>
<text text-anchor="middle" x="410" y="-287.5" font-family="Helvetica,sans-Serif" font-size="10.00">iterator</text>
</a>
</g>
</g>
<!-- Node17&#45;&gt;Node20 -->
<g id="edge25" class="edge"><title>Node17&#45;&gt;Node20</title>
<path fill="none" stroke="midnightblue" d="M410,-336.083C410,-329.006 410,-318.861 410,-309.986"/>
<polygon fill="midnightblue" stroke="midnightblue" points="413.5,-309.751 410,-299.751 406.5,-309.751 413.5,-309.751"/>
</g>
<!-- Node19&#45;&gt;Node15 -->
<g id="edge24" class="edge"><title>Node19&#45;&gt;Node15</title>
<path fill="none" stroke="midnightblue" d="M387.853,-224.324C400.216,-215.979 419.13,-203.212 433.737,-193.352"/>
<polygon fill="midnightblue" stroke="midnightblue" points="435.848,-196.15 442.179,-187.655 431.932,-190.348 435.848,-196.15"/>
</g>
<!-- Node21&#45;&gt;Node7 -->
<g id="edge27" class="edge"><title>Node21&#45;&gt;Node7</title>
<path fill="none" stroke="midnightblue" d="M942.374,-392.195C953.697,-384.075 969.553,-371.029 979,-356 995.018,-330.518 998,-321.098 998,-291 998,-291 998,-291 998,-233 998,-171.141 793.16,-139.198 700.076,-127.875"/>
<polygon fill="midnightblue" stroke="midnightblue" points="700.438,-124.394 690.095,-126.688 699.612,-131.345 700.438,-124.394"/>
</g>
<!-- Node21&#45;&gt;Node9 -->
<g id="edge29" class="edge"><title>Node21&#45;&gt;Node9</title>
<path fill="none" stroke="midnightblue" d="M947.638,-392.441C978.294,-376.932 1036,-341.087 1036,-291 1036,-291 1036,-291 1036,-121 1036,-38.1591 910.695,-17.7042 847.943,-12.6546"/>
<polygon fill="midnightblue" stroke="midnightblue" points="847.941,-9.1456 837.717,-11.9238 847.442,-16.1278 847.941,-9.1456"/>
</g>
<!-- Node21&#45;&gt;Node16 -->
<g id="edge28" class="edge"><title>Node21&#45;&gt;Node16</title>
<path fill="none" stroke="midnightblue" d="M878.295,-392.444C820.403,-382.674 725.944,-366.734 665.671,-356.563"/>
<polygon fill="midnightblue" stroke="midnightblue" points="666.011,-353.071 655.568,-354.858 664.846,-359.974 666.011,-353.071"/>
</g>
<!-- Node22 -->
<g id="node22" class="node"><title>Node22</title>
<g id="a_node22"><a xlink:href="../../d7/dd7/Helpers_8hpp.html" target="_top" xlink:title=" ">
<polygon fill="white" stroke="black" points="864,-336.5 864,-355.5 970,-355.5 970,-336.5 864,-336.5"/>
<text text-anchor="middle" x="917" y="-343.5" font-family="Helvetica,sans-Serif" font-size="10.00">Helpers/Helpers.hpp</text>
</a>
</g>
</g>
<!-- Node21&#45;&gt;Node22 -->
<g id="edge30" class="edge"><title>Node21&#45;&gt;Node22</title>
<path fill="none" stroke="midnightblue" d="M927.018,-392.083C925.428,-384.927 923.141,-374.635 921.154,-365.691"/>
<polygon fill="midnightblue" stroke="midnightblue" points="924.531,-364.754 918.945,-355.751 917.697,-366.272 924.531,-364.754"/>
</g>
<!-- Node23&#45;&gt;Node3 -->
<g id="edge32" class="edge"><title>Node23&#45;&gt;Node3</title>
<path fill="none" stroke="midnightblue" d="M326.627,-411.509C345.392,-421.134 373.099,-436.959 391.479,-448.43"/>
<polygon fill="midnightblue" stroke="midnightblue" points="389.834,-451.532 400.143,-453.975 393.607,-445.636 389.834,-451.532"/>
</g>
<!-- Node23&#45;&gt;Node4 -->
<g id="edge37" class="edge"><title>Node23&#45;&gt;Node4</title>
<path fill="none" stroke="midnightblue" d="M357.728,-392.495C392.408,-385.512 438.826,-373.829 477,-356 505.171,-342.843 533.834,-320.959 551.514,-306.261"/>
<polygon fill="midnightblue" stroke="midnightblue" points="553.896,-308.83 559.26,-299.693 549.369,-303.491 553.896,-308.83"/>
</g>
<!-- Node23&#45;&gt;Node17 -->
<g id="edge38" class="edge"><title>Node23&#45;&gt;Node17</title>
<path fill="none" stroke="midnightblue" d="M323.549,-392.324C339.992,-383.703 365.435,-370.364 384.468,-360.386"/>
<polygon fill="midnightblue" stroke="midnightblue" points="386.261,-363.398 393.492,-355.655 383.011,-357.198 386.261,-363.398"/>
</g>
<!-- Node23&#45;&gt;Node24 -->
<g id="edge33" class="edge"><title>Node23&#45;&gt;Node24</title>
<path fill="none" stroke="midnightblue" d="M269.605,-392.444C228.608,-383.063 162.746,-367.993 118.216,-357.804"/>
<polygon fill="midnightblue" stroke="midnightblue" points="118.749,-354.335 108.22,-355.516 117.187,-361.159 118.749,-354.335"/>
</g>
<!-- Node23&#45;&gt;Node25 -->
<g id="edge35" class="edge"><title>Node23&#45;&gt;Node25</title>
<path fill="none" stroke="midnightblue" d="M292.058,-392.324C277.415,-383.822 254.866,-370.729 237.762,-360.797"/>
<polygon fill="midnightblue" stroke="midnightblue" points="239.31,-357.649 228.905,-355.655 235.795,-363.703 239.31,-357.649"/>
</g>
<!-- Node24&#45;&gt;Node7 -->
<g id="edge34" class="edge"><title>Node24&#45;&gt;Node7</title>
<path fill="none" stroke="midnightblue" d="M81.5553,-336.387C117.908,-307.23 242.271,-211.627 362,-168 445.933,-137.417 550.749,-127.619 609.542,-124.48"/>
<polygon fill="midnightblue" stroke="midnightblue" points="609.805,-127.971 619.62,-123.983 609.46,-120.979 609.805,-127.971"/>
</g>
<!-- Node25&#45;&gt;Node7 -->
<g id="edge36" class="edge"><title>Node25&#45;&gt;Node7</title>
<path fill="none" stroke="midnightblue" d="M218.723,-336.313C230.767,-314.824 264.617,-258.433 306,-224 395.541,-149.498 537.505,-129.925 609.667,-124.802"/>
<polygon fill="midnightblue" stroke="midnightblue" points="610.04,-128.285 619.792,-124.146 609.587,-121.3 610.04,-128.285"/>
</g>
<!-- Node26&#45;&gt;Node5 -->
<g id="edge48" class="edge"><title>Node26&#45;&gt;Node5</title>
<path fill="none" stroke="midnightblue" d="M833.452,-515.46C883.057,-502.573 964.973,-472.888 1001,-412 1014.72,-388.804 987.705,-343.946 979,-336 906.6,-269.912 793.328,-246.872 716.037,-238.951"/>
<polygon fill="midnightblue" stroke="midnightblue" points="716.14,-235.445 705.851,-237.973 715.471,-242.413 716.14,-235.445"/>
</g>
<!-- Node27 -->
<g id="node27" class="node"><title>Node27</title>
<g id="a_node27"><a xlink:href="../../dd/ddf/ExtendedInputOutput_8hpp.html" target="_top" xlink:title=" ">
<polygon fill="white" stroke="black" points="716,-448.5 716,-478.5 870,-478.5 870,-448.5 716,-448.5"/>
<text text-anchor="start" x="724" y="-466.5" font-family="Helvetica,sans-Serif" font-size="10.00">Hardware/ExtendedInputOutput</text>
<text text-anchor="middle" x="793" y="-455.5" font-family="Helvetica,sans-Serif" font-size="10.00">/ExtendedInputOutput.hpp</text>
</a>
</g>
</g>
<!-- Node26&#45;&gt;Node27 -->
<g id="edge43" class="edge"><title>Node26&#45;&gt;Node27</title>
<path fill="none" stroke="midnightblue" d="M793,-515.475C793,-508.471 793,-498.192 793,-488.696"/>
<polygon fill="midnightblue" stroke="midnightblue" points="796.5,-488.523 793,-478.523 789.5,-488.523 796.5,-488.523"/>
</g>
<!-- Node27&#45;&gt;Node15 -->
<g id="edge47" class="edge"><title>Node27&#45;&gt;Node15</title>
<path fill="none" stroke="midnightblue" d="M803.481,-448.359C812.638,-434.246 823.65,-411.86 818,-392 793.972,-307.535 787.019,-272.783 714,-224 633.918,-170.498 593.256,-205.079 494.478,-188.061"/>
<polygon fill="midnightblue" stroke="midnightblue" points="494.885,-184.577 484.413,-186.184 493.602,-191.458 494.885,-184.577"/>
</g>
<!-- Node28 -->
<g id="node28" class="node"><title>Node28</title>
<g id="a_node28"><a xlink:href="../../d4/d57/ExtendedIOElement_8hpp.html" target="_top" xlink:title=" ">
<polygon fill="white" stroke="black" points="686.5,-392.5 686.5,-411.5 809.5,-411.5 809.5,-392.5 686.5,-392.5"/>
<text text-anchor="middle" x="748" y="-399.5" font-family="Helvetica,sans-Serif" font-size="10.00">ExtendedIOElement.hpp</text>
</a>
</g>
</g>
<!-- Node27&#45;&gt;Node28 -->
<g id="edge44" class="edge"><title>Node27&#45;&gt;Node28</title>
<path fill="none" stroke="midnightblue" d="M782.336,-448.399C775.864,-439.842 767.566,-428.871 760.749,-419.857"/>
<polygon fill="midnightblue" stroke="midnightblue" points="763.372,-417.522 754.548,-411.658 757.789,-421.745 763.372,-417.522"/>
</g>
<!-- Node28&#45;&gt;Node7 -->
<g id="edge45" class="edge"><title>Node28&#45;&gt;Node7</title>
<path fill="none" stroke="midnightblue" d="M752.325,-392.414C768.095,-359.774 819.034,-241.541 769,-168 753.589,-145.348 724.841,-134.099 700.071,-128.512"/>
<polygon fill="midnightblue" stroke="midnightblue" points="700.598,-125.048 690.104,-126.51 699.219,-131.911 700.598,-125.048"/>
</g>
<!-- Node28&#45;&gt;Node17 -->
<g id="edge46" class="edge"><title>Node28&#45;&gt;Node17</title>
<path fill="none" stroke="midnightblue" d="M694.443,-392.444C634.367,-382.846 537.01,-367.292 473.242,-357.104"/>
<polygon fill="midnightblue" stroke="midnightblue" points="473.734,-353.638 463.307,-355.516 472.629,-360.55 473.734,-353.638"/>
</g>
<!-- Node29&#45;&gt;Node7 -->
<g id="edge50" class="edge"><title>Node29&#45;&gt;Node7</title>
<path fill="none" stroke="midnightblue" d="M629.762,-455.885C745.783,-443.56 983.645,-417.805 1001,-412 1055.22,-393.865 1112,-404.169 1112,-347 1112,-347 1112,-347 1112,-233 1112,-148.918 815.89,-128.926 700.377,-124.326"/>
<polygon fill="midnightblue" stroke="midnightblue" points="700.226,-120.818 690.101,-123.938 699.962,-127.813 700.226,-120.818"/>
</g>
<!-- Node29&#45;&gt;Node25 -->
<g id="edge51" class="edge"><title>Node29&#45;&gt;Node25</title>
<path fill="none" stroke="midnightblue" d="M535.669,-448.487C500.826,-433.249 442.639,-408.825 391,-392 348.745,-378.232 299.701,-366.051 263.968,-357.846"/>
<polygon fill="midnightblue" stroke="midnightblue" points="264.322,-354.337 253.795,-355.535 262.771,-361.163 264.322,-354.337"/>
</g>
<!-- Node30 -->
<g id="node30" class="node"><title>Node30</title>
<g id="a_node30"><a xlink:href="../../d4/d93/Updatable_8hpp.html" target="_top" xlink:title=" ">
<polygon fill="white" stroke="black" points="552,-392.5 552,-411.5 668,-411.5 668,-392.5 552,-392.5"/>
<text text-anchor="middle" x="610" y="-399.5" font-family="Helvetica,sans-Serif" font-size="10.00">Helpers/Updatable.hpp</text>
</a>
</g>
</g>
<!-- Node29&#45;&gt;Node30 -->
<g id="edge52" class="edge"><title>Node29&#45;&gt;Node30</title>
<path fill="none" stroke="midnightblue" d="M577.19,-448.399C583.374,-439.842 591.303,-428.871 597.818,-419.857"/>
<polygon fill="midnightblue" stroke="midnightblue" points="600.722,-421.813 603.743,-411.658 595.049,-417.713 600.722,-421.813"/>
</g>
<!-- Node30&#45;&gt;Node5 -->
<g id="edge56" class="edge"><title>Node30&#45;&gt;Node5</title>
<path fill="none" stroke="midnightblue" d="M626.633,-392.464C639.488,-384.841 656.339,-372.356 664,-356 680.363,-321.064 658.639,-276.389 643.786,-252.286"/>
<polygon fill="midnightblue" stroke="midnightblue" points="646.524,-250.073 638.156,-243.574 640.644,-253.873 646.524,-250.073"/>
</g>
<!-- Node30&#45;&gt;Node7 -->
<g id="edge53" class="edge"><title>Node30&#45;&gt;Node7</title>
<path fill="none" stroke="midnightblue" d="M630.089,-392.356C645.745,-384.746 667.092,-372.333 681,-356 733.667,-294.151 736.666,-267.576 753,-188 754.787,-179.293 757.798,-175.483 753,-168 741.243,-149.664 719.931,-138.7 700.178,-132.194"/>
<polygon fill="midnightblue" stroke="midnightblue" points="700.936,-128.768 690.353,-129.265 698.936,-135.476 700.936,-128.768"/>
</g>
<!-- Node30&#45;&gt;Node12 -->
<g id="edge57" class="edge"><title>Node30&#45;&gt;Node12</title>
<path fill="none" stroke="midnightblue" d="M551.931,-398.11C483.02,-393.528 373.586,-382.255 343,-356 280.393,-302.258 287,-261.51 287,-179 287,-179 287,-179 287,-121 287,-52.0968 382.736,-25.4423 436.84,-15.8805"/>
<polygon fill="midnightblue" stroke="midnightblue" points="437.453,-19.3268 446.745,-14.238 436.307,-12.4211 437.453,-19.3268"/>
</g>
<!-- Node30&#45;&gt;Node16 -->
<g id="edge54" class="edge"><title>Node30&#45;&gt;Node16</title>
<path fill="none" stroke="midnightblue" d="M609.835,-392.083C609.704,-385.006 609.516,-374.861 609.352,-365.986"/>
<polygon fill="midnightblue" stroke="midnightblue" points="612.847,-365.685 609.162,-355.751 605.848,-365.814 612.847,-365.685"/>
</g>
<!-- Node30&#45;&gt;Node17 -->
<g id="edge55" class="edge"><title>Node30&#45;&gt;Node17</title>
<path fill="none" stroke="midnightblue" d="M578.309,-392.444C543.932,-383.162 488.923,-368.309 451.211,-358.127"/>
<polygon fill="midnightblue" stroke="midnightblue" points="452.109,-354.744 441.542,-355.516 450.284,-361.502 452.109,-354.744"/>
</g>
</g>
</svg>
