<?xml version="1.0" encoding="UTF-8" standalone="no"?>
<!DOCTYPE svg PUBLIC "-//W3C//DTD SVG 1.1//EN"
 "http://www.w3.org/Graphics/SVG/1.1/DTD/svg11.dtd">
<!-- Generated by graphviz version 2.38.0 (20140413.2041)
 -->
<!-- Title: MCU::Bankable::VULEDs&lt; M, N &gt; Pages: 1 -->
<svg width="553pt" height="908pt"
 viewBox="0.00 0.00 553.00 908.00" xmlns="http://www.w3.org/2000/svg" xmlns:xlink="http://www.w3.org/1999/xlink">
<g id="graph0" class="graph" transform="scale(1 1) rotate(0) translate(4 904)">
<title>MCU::Bankable::VULEDs&lt; M, N &gt;</title>
<polygon fill="white" stroke="none" points="-4,4 -4,-904 549,-904 549,4 -4,4"/>
<!-- Node9 -->
<g id="node1" class="node"><title>Node9</title>
<g id="a_node1"><a xlink:title=" ">
<polygon fill="#bfbfbf" stroke="black" points="313.5,-0.5 313.5,-79.5 444.5,-79.5 444.5,-0.5 313.5,-0.5"/>
<text text-anchor="start" x="321.5" y="-67.5" font-family="Helvetica,sans-Serif" font-size="10.00">MCU::Bankable::VULEDs</text>
<text text-anchor="middle" x="379" y="-56.5" font-family="Helvetica,sans-Serif" font-size="10.00">&lt; M, N &gt;</text>
<polyline fill="none" stroke="black" points="313.5,-49.5 444.5,-49.5 "/>
<text text-anchor="middle" x="379" y="-37.5" font-family="Helvetica,sans-Serif" font-size="10.00"> </text>
<polyline fill="none" stroke="black" points="313.5,-30.5 444.5,-30.5 "/>
<text text-anchor="start" x="321.5" y="-18.5" font-family="Helvetica,sans-Serif" font-size="10.00">+ VULEDs()</text>
<text text-anchor="start" x="321.5" y="-7.5" font-family="Helvetica,sans-Serif" font-size="10.00">&#45; onBankSettingChange()</text>
</a>
</g>
</g>
<!-- Node10 -->
<g id="node2" class="node"><title>Node10</title>
<g id="a_node2"><a xlink:href="../../d0/d43/classMCU_1_1Bankable_1_1VU.html" target="_top" xlink:title=" ">
<polygon fill="white" stroke="black" points="374.5,-117.5 374.5,-273.5 507.5,-273.5 507.5,-117.5 374.5,-117.5"/>
<text text-anchor="middle" x="441" y="-261.5" font-family="Helvetica,sans-Serif" font-size="10.00">MCU::Bankable::VU&lt; M &gt;</text>
<polyline fill="none" stroke="black" points="374.5,-254.5 507.5,-254.5 "/>
<text text-anchor="start" x="382.5" y="-242.5" font-family="Helvetica,sans-Serif" font-size="10.00">&#45; values</text>
<polyline fill="none" stroke="black" points="374.5,-235.5 507.5,-235.5 "/>
<text text-anchor="start" x="382.5" y="-223.5" font-family="Helvetica,sans-Serif" font-size="10.00">+ VU()</text>
<text text-anchor="start" x="382.5" y="-212.5" font-family="Helvetica,sans-Serif" font-size="10.00">+ updateImpl()</text>
<text text-anchor="start" x="382.5" y="-201.5" font-family="Helvetica,sans-Serif" font-size="10.00">+ reset()</text>
<text text-anchor="start" x="382.5" y="-190.5" font-family="Helvetica,sans-Serif" font-size="10.00">&#45; decayAll()</text>
<text text-anchor="start" x="382.5" y="-179.5" font-family="Helvetica,sans-Serif" font-size="10.00">&#45; getRawValue()</text>
<text text-anchor="start" x="382.5" y="-168.5" font-family="Helvetica,sans-Serif" font-size="10.00">&#45; matchTrack()</text>
<text text-anchor="start" x="382.5" y="-157.5" font-family="Helvetica,sans-Serif" font-size="10.00">&#45; matchChannel()</text>
<text text-anchor="start" x="382.5" y="-146.5" font-family="Helvetica,sans-Serif" font-size="10.00">&#45; setValue()</text>
<text text-anchor="start" x="382.5" y="-135.5" font-family="Helvetica,sans-Serif" font-size="10.00">&#45; setOverload()</text>
<text text-anchor="start" x="382.5" y="-124.5" font-family="Helvetica,sans-Serif" font-size="10.00">&#45; clearOverload()</text>
</a>
</g>
</g>
<!-- Node10&#45;&gt;Node9 -->
<g id="edge1" class="edge"><title>Node10&#45;&gt;Node9</title>
<path fill="none" stroke="midnightblue" d="M406.016,-107.886C402.069,-98.1144 398.21,-88.5595 394.7,-79.8694"/>
<polygon fill="none" stroke="midnightblue" points="402.828,-109.339 409.818,-117.3 409.318,-106.717 402.828,-109.339"/>
</g>
<!-- Node11 -->
<g id="node3" class="node"><title>Node11</title>
<g id="a_node3"><a xlink:href="../../d4/d71/classMCU_1_1VU__Base.html" target="_top" xlink:title="A MIDI input element that represents a Mackie Control Universal VU meter. &#160;&#160;This is a base class to b...">
<polygon fill="white" stroke="black" points="227.5,-311.5 227.5,-522.5 346.5,-522.5 346.5,-311.5 227.5,-311.5"/>
<text text-anchor="middle" x="287" y="-510.5" font-family="Helvetica,sans-Serif" font-size="10.00">MCU::VU_Base</text>
<polyline fill="none" stroke="black" points="227.5,-503.5 346.5,-503.5 "/>
<text text-anchor="start" x="235.5" y="-491.5" font-family="Helvetica,sans-Serif" font-size="10.00">&#45; baseTrack</text>
<text text-anchor="start" x="235.5" y="-480.5" font-family="Helvetica,sans-Serif" font-size="10.00">&#45; decayTime</text>
<text text-anchor="start" x="235.5" y="-469.5" font-family="Helvetica,sans-Serif" font-size="10.00">&#45; prevDecayTime</text>
<polyline fill="none" stroke="black" points="227.5,-462.5 346.5,-462.5 "/>
<text text-anchor="start" x="235.5" y="-450.5" font-family="Helvetica,sans-Serif" font-size="10.00">+ VU_Base()</text>
<text text-anchor="start" x="235.5" y="-439.5" font-family="Helvetica,sans-Serif" font-size="10.00">+ VU_Base()</text>
<text text-anchor="start" x="235.5" y="-428.5" font-family="Helvetica,sans-Serif" font-size="10.00">+ getValue()</text>
<text text-anchor="start" x="235.5" y="-417.5" font-family="Helvetica,sans-Serif" font-size="10.00">+ getOverload()</text>
<text text-anchor="start" x="235.5" y="-406.5" font-family="Helvetica,sans-Serif" font-size="10.00"># getBaseTrack()</text>
<text text-anchor="start" x="235.5" y="-395.5" font-family="Helvetica,sans-Serif" font-size="10.00"># setValueHelper()</text>
<text text-anchor="start" x="235.5" y="-384.5" font-family="Helvetica,sans-Serif" font-size="10.00"># setOverloadHelper()</text>
<text text-anchor="start" x="235.5" y="-373.5" font-family="Helvetica,sans-Serif" font-size="10.00"># clearOverloadHelper()</text>
<text text-anchor="start" x="235.5" y="-362.5" font-family="Helvetica,sans-Serif" font-size="10.00"># getValueHelper()</text>
<text text-anchor="start" x="235.5" y="-351.5" font-family="Helvetica,sans-Serif" font-size="10.00"># getOverloadHelper()</text>
<text text-anchor="start" x="235.5" y="-340.5" font-family="Helvetica,sans-Serif" font-size="10.00">&#45; update()</text>
<text text-anchor="start" x="235.5" y="-329.5" font-family="Helvetica,sans-Serif" font-size="10.00">&#45; decayAll()</text>
<text text-anchor="start" x="235.5" y="-318.5" font-family="Helvetica,sans-Serif" font-size="10.00">&#45; getRawValue()</text>
</a>
</g>
</g>
<!-- Node11&#45;&gt;Node10 -->
<g id="edge2" class="edge"><title>Node11&#45;&gt;Node10</title>
<path fill="none" stroke="midnightblue" d="M352.467,-316.079C353.65,-314.37 354.829,-312.676 356,-311 364.509,-298.825 373.699,-286.067 382.783,-273.668"/>
<polygon fill="none" stroke="midnightblue" points="349.304,-314.503 346.524,-324.727 355.072,-318.468 349.304,-314.503"/>
</g>
<!-- Node17 -->
<g id="node9" class="node"><title>Node17</title>
<g id="a_node9"><a xlink:href="../../da/d0a/classMCU_1_1VULEDs__Base.html" target="_top" xlink:title=" ">
<polygon fill="white" stroke="black" points="218,-150.5 218,-240.5 356,-240.5 356,-150.5 218,-150.5"/>
<text text-anchor="middle" x="287" y="-228.5" font-family="Helvetica,sans-Serif" font-size="10.00">MCU::VULEDs_Base&lt; N &gt;</text>
<polyline fill="none" stroke="black" points="218,-221.5 356,-221.5 "/>
<text text-anchor="start" x="226" y="-209.5" font-family="Helvetica,sans-Serif" font-size="10.00">&#45; leds</text>
<text text-anchor="start" x="226" y="-198.5" font-family="Helvetica,sans-Serif" font-size="10.00">&#45; FLOOR_CORRECTION</text>
<polyline fill="none" stroke="black" points="218,-191.5 356,-191.5 "/>
<text text-anchor="start" x="226" y="-179.5" font-family="Helvetica,sans-Serif" font-size="10.00">+ begin()</text>
<text text-anchor="start" x="226" y="-168.5" font-family="Helvetica,sans-Serif" font-size="10.00">+ display()</text>
<text text-anchor="start" x="226" y="-157.5" font-family="Helvetica,sans-Serif" font-size="10.00"># VULEDs_Base()</text>
</a>
</g>
</g>
<!-- Node11&#45;&gt;Node17 -->
<g id="edge10" class="edge"><title>Node11&#45;&gt;Node17</title>
<path fill="none" stroke="midnightblue" d="M287,-301.151C287,-279.608 287,-258.327 287,-240.639"/>
<polygon fill="none" stroke="midnightblue" points="283.5,-301.393 287,-311.393 290.5,-301.393 283.5,-301.393"/>
</g>
<!-- Node12 -->
<g id="node4" class="node"><title>Node12</title>
<g id="a_node4"><a xlink:href="../../d1/df7/classMIDIInputElementChannelPressure.html" target="_top" xlink:title=" ">
<polygon fill="white" stroke="black" points="0,-560.5 0,-694.5 186,-694.5 186,-560.5 0,-560.5"/>
<text text-anchor="middle" x="93" y="-682.5" font-family="Helvetica,sans-Serif" font-size="10.00">MIDIInputElementChannelPressure</text>
<polyline fill="none" stroke="black" points="0,-675.5 186,-675.5 "/>
<text text-anchor="middle" x="93" y="-663.5" font-family="Helvetica,sans-Serif" font-size="10.00"> </text>
<polyline fill="none" stroke="black" points="0,-656.5 186,-656.5 "/>
<text text-anchor="start" x="8" y="-644.5" font-family="Helvetica,sans-Serif" font-size="10.00">+ MIDIInputElementChannelPressure()</text>
<text text-anchor="start" x="8" y="-633.5" font-family="Helvetica,sans-Serif" font-size="10.00">+ ~MIDIInputElementChannel</text>
<text text-anchor="start" x="8" y="-622.5" font-family="Helvetica,sans-Serif" font-size="10.00">Pressure()</text>
<text text-anchor="start" x="8" y="-611.5" font-family="Helvetica,sans-Serif" font-size="10.00">+ beginAll()</text>
<text text-anchor="start" x="8" y="-600.5" font-family="Helvetica,sans-Serif" font-size="10.00">+ resetAll()</text>
<text text-anchor="start" x="8" y="-589.5" font-family="Helvetica,sans-Serif" font-size="10.00">+ updateAll()</text>
<text text-anchor="start" x="8" y="-578.5" font-family="Helvetica,sans-Serif" font-size="10.00">+ updateAllWith()</text>
<text text-anchor="start" x="8" y="-567.5" font-family="Helvetica,sans-Serif" font-size="10.00">&#45; moveDown()</text>
</a>
</g>
</g>
<!-- Node12&#45;&gt;Node11 -->
<g id="edge3" class="edge"><title>Node12&#45;&gt;Node11</title>
<path fill="none" stroke="midnightblue" d="M161.559,-552.816C183.083,-529.684 206.656,-504.349 227.499,-481.948"/>
<polygon fill="none" stroke="midnightblue" points="158.899,-550.538 154.649,-560.243 164.024,-555.306 158.899,-550.538"/>
</g>
<!-- Node12&#45;&gt;Node12 -->
<g id="edge5" class="edge"><title>Node12&#45;&gt;Node12</title>
<path fill="none" stroke="#404040" d="M186.121,-641.262C196.953,-638.722 204,-634.135 204,-627.5 204,-623.664 201.645,-620.513 197.564,-618.046"/>
<polygon fill="none" stroke="#404040" points="197.352,-617.966 190.327,-619.595 186.121,-613.738 193.145,-612.108 197.352,-617.966"/>
<text text-anchor="middle" x="224" y="-641.5" font-family="Helvetica,sans-Serif" font-size="10.00"> &#45;last</text>
<text text-anchor="middle" x="224" y="-630.5" font-family="Helvetica,sans-Serif" font-size="10.00">&#45;previous</text>
<text text-anchor="middle" x="224" y="-619.5" font-family="Helvetica,sans-Serif" font-size="10.00">&#45;next</text>
<text text-anchor="middle" x="224" y="-608.5" font-family="Helvetica,sans-Serif" font-size="10.00">&#45;first</text>
</g>
<!-- Node13 -->
<g id="node5" class="node"><title>Node13</title>
<g id="a_node5"><a xlink:href="../../d9/db1/classMIDIInputElement.html" target="_top" xlink:title=" ">
<polygon fill="white" stroke="black" points="34.5,-732.5 34.5,-899.5 151.5,-899.5 151.5,-732.5 34.5,-732.5"/>
<text text-anchor="middle" x="93" y="-887.5" font-family="Helvetica,sans-Serif" font-size="10.00">MIDIInputElement</text>
<polyline fill="none" stroke="black" points="34.5,-880.5 151.5,-880.5 "/>
<text text-anchor="start" x="42.5" y="-868.5" font-family="Helvetica,sans-Serif" font-size="10.00">&#45; baseChannel</text>
<polyline fill="none" stroke="black" points="34.5,-861.5 151.5,-861.5 "/>
<text text-anchor="start" x="42.5" y="-849.5" font-family="Helvetica,sans-Serif" font-size="10.00">+ ~MIDIInputElement()</text>
<text text-anchor="start" x="42.5" y="-838.5" font-family="Helvetica,sans-Serif" font-size="10.00">+ begin()</text>
<text text-anchor="start" x="42.5" y="-827.5" font-family="Helvetica,sans-Serif" font-size="10.00">+ display()</text>
<text text-anchor="start" x="42.5" y="-816.5" font-family="Helvetica,sans-Serif" font-size="10.00">+ update()</text>
<text text-anchor="start" x="42.5" y="-805.5" font-family="Helvetica,sans-Serif" font-size="10.00">+ reset()</text>
<text text-anchor="start" x="42.5" y="-794.5" font-family="Helvetica,sans-Serif" font-size="10.00">+ updateWith()</text>
<text text-anchor="start" x="42.5" y="-783.5" font-family="Helvetica,sans-Serif" font-size="10.00">+ getBaseChannel()</text>
<text text-anchor="start" x="42.5" y="-772.5" font-family="Helvetica,sans-Serif" font-size="10.00"># MIDIInputElement()</text>
<text text-anchor="start" x="42.5" y="-761.5" font-family="Helvetica,sans-Serif" font-size="10.00">&#45; updateImpl()</text>
<text text-anchor="start" x="42.5" y="-750.5" font-family="Helvetica,sans-Serif" font-size="10.00">&#45; matchChannel()</text>
<text text-anchor="start" x="42.5" y="-739.5" font-family="Helvetica,sans-Serif" font-size="10.00">&#45; moveDown()</text>
</a>
</g>
</g>
<!-- Node13&#45;&gt;Node12 -->
<g id="edge4" class="edge"><title>Node13&#45;&gt;Node12</title>
<path fill="none" stroke="midnightblue" d="M93,-722.252C93,-712.896 93,-703.534 93,-694.541"/>
<polygon fill="none" stroke="midnightblue" points="89.5001,-722.384 93,-732.384 96.5001,-722.384 89.5001,-722.384"/>
</g>
<!-- Node14 -->
<g id="node6" class="node"><title>Node14</title>
<g id="a_node6"><a xlink:href="../../d2/de9/classIVU.html" target="_top" xlink:title="An abstract interface for VU meters. It declares two methods: getValue and getOverload.">
<polygon fill="white" stroke="black" points="262,-593.5 262,-661.5 346,-661.5 346,-593.5 262,-593.5"/>
<text text-anchor="middle" x="304" y="-649.5" font-family="Helvetica,sans-Serif" font-size="10.00">IVU</text>
<polyline fill="none" stroke="black" points="262,-642.5 346,-642.5 "/>
<text text-anchor="middle" x="304" y="-630.5" font-family="Helvetica,sans-Serif" font-size="10.00"> </text>
<polyline fill="none" stroke="black" points="262,-623.5 346,-623.5 "/>
<text text-anchor="start" x="270" y="-611.5" font-family="Helvetica,sans-Serif" font-size="10.00">+ getValue()</text>
<text text-anchor="start" x="270" y="-600.5" font-family="Helvetica,sans-Serif" font-size="10.00">+ getOverload()</text>
</a>
</g>
</g>
<!-- Node14&#45;&gt;Node11 -->
<g id="edge6" class="edge"><title>Node14&#45;&gt;Node11</title>
<path fill="none" stroke="midnightblue" d="M300.488,-583.43C299.036,-565.619 297.283,-544.122 295.529,-522.604"/>
<polygon fill="none" stroke="midnightblue" points="297.005,-583.78 301.306,-593.463 303.982,-583.211 297.005,-583.78"/>
</g>
<!-- Node15 -->
<g id="node7" class="node"><title>Node15</title>
<g id="a_node7"><a xlink:href="../../d1/d91/classBankableMIDIInputAddressable.html" target="_top" xlink:title=" ">
<polygon fill="white" stroke="black" points="365,-333.5 365,-500.5 545,-500.5 545,-333.5 365,-333.5"/>
<text text-anchor="middle" x="455" y="-488.5" font-family="Helvetica,sans-Serif" font-size="10.00">BankableMIDIInputAddressable&lt; N &gt;</text>
<polyline fill="none" stroke="black" points="365,-481.5 545,-481.5 "/>
<text text-anchor="start" x="373" y="-469.5" font-family="Helvetica,sans-Serif" font-size="10.00">&#45; bank</text>
<text text-anchor="start" x="373" y="-458.5" font-family="Helvetica,sans-Serif" font-size="10.00">&#45; channelsOrAddressesPerBank</text>
<polyline fill="none" stroke="black" points="365,-451.5 545,-451.5 "/>
<text text-anchor="start" x="373" y="-439.5" font-family="Helvetica,sans-Serif" font-size="10.00">+ ~BankableMIDIInputAddressable()</text>
<text text-anchor="start" x="373" y="-428.5" font-family="Helvetica,sans-Serif" font-size="10.00">+ getAddressesPerBank()</text>
<text text-anchor="start" x="373" y="-417.5" font-family="Helvetica,sans-Serif" font-size="10.00">+ getChannelsPerBank()</text>
<text text-anchor="start" x="373" y="-406.5" font-family="Helvetica,sans-Serif" font-size="10.00">+ getIndex()</text>
<text text-anchor="start" x="373" y="-395.5" font-family="Helvetica,sans-Serif" font-size="10.00">+ getSelection()</text>
<text text-anchor="start" x="373" y="-384.5" font-family="Helvetica,sans-Serif" font-size="10.00"># BankableMIDIInputAddressable()</text>
<text text-anchor="start" x="373" y="-373.5" font-family="Helvetica,sans-Serif" font-size="10.00"># BankableMIDIInputAddressable()</text>
<text text-anchor="start" x="373" y="-362.5" font-family="Helvetica,sans-Serif" font-size="10.00"># matchAddress()</text>
<text text-anchor="start" x="373" y="-351.5" font-family="Helvetica,sans-Serif" font-size="10.00"># matchChannel()</text>
<text text-anchor="start" x="373" y="-340.5" font-family="Helvetica,sans-Serif" font-size="10.00">&#45; onBankSettingChange()</text>
</a>
</g>
</g>
<!-- Node15&#45;&gt;Node10 -->
<g id="edge7" class="edge"><title>Node15&#45;&gt;Node10</title>
<path fill="none" stroke="midnightblue" d="M449.078,-323.146C448.026,-306.66 446.941,-289.654 445.922,-273.663"/>
<polygon fill="none" stroke="midnightblue" points="445.598,-323.572 449.727,-333.329 452.583,-323.127 445.598,-323.572"/>
</g>
<!-- Node16 -->
<g id="node8" class="node"><title>Node16</title>
<g id="a_node8"><a xlink:href="../../d4/d23/classDoublyLinkable.html" target="_top" xlink:title=" ">
<polygon fill="white" stroke="black" points="380.5,-588 380.5,-667 529.5,-667 529.5,-588 380.5,-588"/>
<text text-anchor="start" x="388.5" y="-655" font-family="Helvetica,sans-Serif" font-size="10.00">DoublyLinkable&lt; Bankable</text>
<text text-anchor="middle" x="455" y="-644" font-family="Helvetica,sans-Serif" font-size="10.00">MIDIInputAddressable&lt; N &gt; &gt;</text>
<polyline fill="none" stroke="black" points="380.5,-637 529.5,-637 "/>
<text text-anchor="start" x="388.5" y="-625" font-family="Helvetica,sans-Serif" font-size="10.00"># next</text>
<text text-anchor="start" x="388.5" y="-614" font-family="Helvetica,sans-Serif" font-size="10.00"># previous</text>
<polyline fill="none" stroke="black" points="380.5,-607 529.5,-607 "/>
<text text-anchor="start" x="388.5" y="-595" font-family="Helvetica,sans-Serif" font-size="10.00"># ~DoublyLinkable()</text>
</a>
</g>
</g>
<!-- Node16&#45;&gt;Node15 -->
<g id="edge8" class="edge"><title>Node16&#45;&gt;Node15</title>
<path fill="none" stroke="midnightblue" d="M455,-577.607C455,-554.658 455,-526.668 455,-500.573"/>
<polygon fill="none" stroke="midnightblue" points="451.5,-577.771 455,-587.771 458.5,-577.771 451.5,-577.771"/>
</g>
<!-- Node17&#45;&gt;Node9 -->
<g id="edge9" class="edge"><title>Node17&#45;&gt;Node9</title>
<path fill="none" stroke="midnightblue" d="M318.903,-141.271C331.068,-120.973 344.69,-98.246 355.885,-79.5673"/>
<polygon fill="none" stroke="midnightblue" points="315.749,-139.725 313.61,-150.101 321.753,-143.323 315.749,-139.725"/>
</g>
</g>
</svg>
