<?xml version="1.0" encoding="UTF-8" standalone="no"?>
<!DOCTYPE svg PUBLIC "-//W3C//DTD SVG 1.1//EN"
 "http://www.w3.org/Graphics/SVG/1.1/DTD/svg11.dtd">
<!-- Generated by graphviz version 2.38.0 (20140413.2041)
 -->
<!-- Title: DisplayElement.cpp Pages: 1 -->
<svg width="794pt" height="588pt"
 viewBox="0.00 0.00 794.00 588.00" xmlns="http://www.w3.org/2000/svg" xmlns:xlink="http://www.w3.org/1999/xlink">
<g id="graph0" class="graph" transform="scale(1 1) rotate(0) translate(4 584)">
<title>DisplayElement.cpp</title>
<polygon fill="white" stroke="none" points="-4,4 -4,-584 790,-584 790,4 -4,4"/>
<!-- Node1 -->
<g id="node1" class="node"><title>Node1</title>
<g id="a_node1"><a xlink:title=" ">
<polygon fill="#bfbfbf" stroke="black" points="644.5,-560.5 644.5,-579.5 748.5,-579.5 748.5,-560.5 644.5,-560.5"/>
<text text-anchor="middle" x="696.5" y="-567.5" font-family="Helvetica,sans-Serif" font-size="10.00">DisplayElement.cpp</text>
</a>
</g>
</g>
<!-- Node2 -->
<g id="node2" class="node"><title>Node2</title>
<g id="a_node2"><a xlink:href="../../d6/dd2/DisplayElement_8hpp.html" target="_top" xlink:title=" ">
<polygon fill="white" stroke="black" points="644.5,-504.5 644.5,-523.5 748.5,-523.5 748.5,-504.5 644.5,-504.5"/>
<text text-anchor="middle" x="696.5" y="-511.5" font-family="Helvetica,sans-Serif" font-size="10.00">DisplayElement.hpp</text>
</a>
</g>
</g>
<!-- Node1&#45;&gt;Node2 -->
<g id="edge1" class="edge"><title>Node1&#45;&gt;Node2</title>
<path fill="none" stroke="midnightblue" d="M696.5,-560.083C696.5,-553.006 696.5,-542.861 696.5,-533.986"/>
<polygon fill="midnightblue" stroke="midnightblue" points="700,-533.751 696.5,-523.751 693,-533.751 700,-533.751"/>
</g>
<!-- Node3 -->
<g id="node3" class="node"><title>Node3</title>
<g id="a_node3"><a xlink:href="../../dc/d77/DisplayInterface_8hpp.html" target="_top" xlink:title=" ">
<polygon fill="white" stroke="black" points="574,-448.5 574,-467.5 717,-467.5 717,-448.5 574,-448.5"/>
<text text-anchor="middle" x="645.5" y="-455.5" font-family="Helvetica,sans-Serif" font-size="10.00">Display/DisplayInterface.hpp</text>
</a>
</g>
</g>
<!-- Node2&#45;&gt;Node3 -->
<g id="edge2" class="edge"><title>Node2&#45;&gt;Node3</title>
<path fill="none" stroke="midnightblue" d="M688.078,-504.083C680.652,-496.22 669.648,-484.569 660.688,-475.081"/>
<polygon fill="midnightblue" stroke="midnightblue" points="663.176,-472.618 653.765,-467.751 658.087,-477.424 663.176,-472.618"/>
</g>
<!-- Node20 -->
<g id="node20" class="node"><title>Node20</title>
<g id="a_node20"><a xlink:href="../../de/dd1/LinkedList_8hpp.html" target="_top" xlink:title=" ">
<polygon fill="white" stroke="black" points="643.5,-280.5 643.5,-299.5 759.5,-299.5 759.5,-280.5 643.5,-280.5"/>
<text text-anchor="middle" x="701.5" y="-287.5" font-family="Helvetica,sans-Serif" font-size="10.00">Helpers/LinkedList.hpp</text>
</a>
</g>
</g>
<!-- Node2&#45;&gt;Node20 -->
<g id="edge37" class="edge"><title>Node2&#45;&gt;Node20</title>
<path fill="none" stroke="midnightblue" d="M704.377,-504.49C711.684,-495.983 722.074,-482.16 726.5,-468 744.05,-411.847 721.9,-341.799 709.222,-309.227"/>
<polygon fill="midnightblue" stroke="midnightblue" points="712.357,-307.644 705.357,-299.691 705.87,-310.273 712.357,-307.644"/>
</g>
<!-- Node4 -->
<g id="node4" class="node"><title>Node4</title>
<g id="a_node4"><a xlink:href="../../d0/d4e/Def_8hpp.html" target="_top" xlink:title=" ">
<polygon fill="white" stroke="black" points="159.5,-392.5 159.5,-411.5 229.5,-411.5 229.5,-392.5 159.5,-392.5"/>
<text text-anchor="middle" x="194.5" y="-399.5" font-family="Helvetica,sans-Serif" font-size="10.00">Def/Def.hpp</text>
</a>
</g>
</g>
<!-- Node3&#45;&gt;Node4 -->
<g id="edge3" class="edge"><title>Node3&#45;&gt;Node4</title>
<path fill="none" stroke="midnightblue" d="M574.038,-448.444C480.144,-437.201 318,-417.787 239.574,-408.397"/>
<polygon fill="midnightblue" stroke="midnightblue" points="239.875,-404.908 229.53,-407.194 239.043,-411.858 239.875,-404.908"/>
</g>
<!-- Node3&#45;&gt;Node20 -->
<g id="edge29" class="edge"><title>Node3&#45;&gt;Node20</title>
<path fill="none" stroke="midnightblue" d="M647.696,-448.094C650.863,-435.501 657.042,-411.817 663.5,-392 673.094,-362.557 686.141,-329.028 694.182,-308.965"/>
<polygon fill="midnightblue" stroke="midnightblue" points="697.483,-310.137 697.983,-299.554 690.993,-307.516 697.483,-310.137"/>
</g>
<!-- Node24 -->
<g id="node24" class="node"><title>Node24</title>
<g id="a_node24"><a xlink:title=" ">
<polygon fill="white" stroke="#bfbfbf" points="673,-392.5 673,-411.5 718,-411.5 718,-392.5 673,-392.5"/>
<text text-anchor="middle" x="695.5" y="-399.5" font-family="Helvetica,sans-Serif" font-size="10.00">Print.h</text>
</a>
</g>
</g>
<!-- Node3&#45;&gt;Node24 -->
<g id="edge36" class="edge"><title>Node3&#45;&gt;Node24</title>
<path fill="none" stroke="midnightblue" d="M653.756,-448.083C660.965,-440.298 671.61,-428.801 680.346,-419.367"/>
<polygon fill="midnightblue" stroke="midnightblue" points="683.171,-421.467 687.397,-411.751 678.035,-416.711 683.171,-421.467"/>
</g>
<!-- Node5 -->
<g id="node5" class="node"><title>Node5</title>
<g id="a_node5"><a xlink:href="../../d7/d42/Channel_8hpp.html" target="_top" xlink:title=" ">
<polygon fill="white" stroke="black" points="0,-112.5 0,-131.5 71,-131.5 71,-112.5 0,-112.5"/>
<text text-anchor="middle" x="35.5" y="-119.5" font-family="Helvetica,sans-Serif" font-size="10.00">Channel.hpp</text>
</a>
</g>
</g>
<!-- Node4&#45;&gt;Node5 -->
<g id="edge4" class="edge"><title>Node4&#45;&gt;Node5</title>
<path fill="none" stroke="midnightblue" d="M159.379,-392.891C136.279,-386.129 106.542,-374.545 85.5,-356 60.5621,-334.021 48.5,-324.241 48.5,-291 48.5,-291 48.5,-291 48.5,-233 48.5,-200.576 42.8607,-163.146 39.0105,-141.369"/>
<polygon fill="midnightblue" stroke="midnightblue" points="42.4499,-140.72 37.1995,-131.517 35.5652,-141.985 42.4499,-140.72"/>
</g>
<!-- Node6 -->
<g id="node6" class="node"><title>Node6</title>
<g id="a_node6"><a xlink:title=" ">
<polygon fill="white" stroke="#bfbfbf" points="60,-56.5 60,-75.5 109,-75.5 109,-56.5 60,-56.5"/>
<text text-anchor="middle" x="84.5" y="-63.5" font-family="Helvetica,sans-Serif" font-size="10.00">stdint.h</text>
</a>
</g>
</g>
<!-- Node4&#45;&gt;Node6 -->
<g id="edge28" class="edge"><title>Node4&#45;&gt;Node6</title>
<path fill="none" stroke="midnightblue" d="M173.858,-392.393C158.104,-384.877 136.894,-372.57 123.5,-356 104.141,-332.051 99.5,-321.795 99.5,-291 99.5,-291 99.5,-291 99.5,-177 99.5,-144.502 92.9931,-107.095 88.5506,-85.343"/>
<polygon fill="midnightblue" stroke="midnightblue" points="91.9621,-84.5586 86.461,-75.5039 85.1148,-86.0128 91.9621,-84.5586"/>
</g>
<!-- Node7 -->
<g id="node7" class="node"><title>Node7</title>
<g id="a_node7"><a xlink:href="../../dc/dc7/NamespaceSettings_8hpp.html" target="_top" xlink:title=" ">
<polygon fill="white" stroke="black" points="125,-0.5 125,-19.5 288,-19.5 288,-0.5 125,-0.5"/>
<text text-anchor="middle" x="206.5" y="-7.5" font-family="Helvetica,sans-Serif" font-size="10.00">Settings/NamespaceSettings.hpp</text>
</a>
</g>
</g>
<!-- Node4&#45;&gt;Node7 -->
<g id="edge26" class="edge"><title>Node4&#45;&gt;Node7</title>
<path fill="none" stroke="midnightblue" d="M186.333,-392.384C170.572,-374.812 137.5,-332.942 137.5,-291 137.5,-291 137.5,-291 137.5,-121 137.5,-90.9022 140.482,-81.4816 156.5,-56 163.807,-44.3762 174.947,-33.9383 184.859,-26.0484"/>
<polygon fill="midnightblue" stroke="midnightblue" points="187.255,-28.6246 193.126,-19.8051 183.037,-23.0386 187.255,-28.6246"/>
</g>
<!-- Node8 -->
<g id="node8" class="node"><title>Node8</title>
<g id="a_node8"><a xlink:href="../../dc/d50/Frequency_8hpp.html" target="_top" xlink:title=" ">
<polygon fill="white" stroke="black" points="166,-56.5 166,-75.5 247,-75.5 247,-56.5 166,-56.5"/>
<text text-anchor="middle" x="206.5" y="-63.5" font-family="Helvetica,sans-Serif" font-size="10.00">Frequency.hpp</text>
</a>
</g>
</g>
<!-- Node4&#45;&gt;Node8 -->
<g id="edge7" class="edge"><title>Node4&#45;&gt;Node8</title>
<path fill="none" stroke="midnightblue" d="M194.5,-392.442C194.5,-373.936 194.5,-328.812 194.5,-291 194.5,-291 194.5,-291 194.5,-177 194.5,-144.758 199.658,-107.512 203.211,-85.6812"/>
<polygon fill="midnightblue" stroke="midnightblue" points="206.712,-85.9673 204.931,-75.5232 199.81,-84.7982 206.712,-85.9673"/>
</g>
<!-- Node9 -->
<g id="node9" class="node"><title>Node9</title>
<g id="a_node9"><a xlink:href="../../de/d76/Array_8hpp.html" target="_top" xlink:title=" ">
<polygon fill="white" stroke="black" points="380,-336.5 380,-355.5 475,-355.5 475,-336.5 380,-336.5"/>
<text text-anchor="middle" x="427.5" y="-343.5" font-family="Helvetica,sans-Serif" font-size="10.00">Helpers/Array.hpp</text>
</a>
</g>
</g>
<!-- Node4&#45;&gt;Node9 -->
<g id="edge9" class="edge"><title>Node4&#45;&gt;Node9</title>
<path fill="none" stroke="midnightblue" d="M229.635,-392.857C269.853,-383.536 335.912,-368.226 380.524,-357.887"/>
<polygon fill="midnightblue" stroke="midnightblue" points="381.585,-361.234 390.537,-355.567 380.005,-354.415 381.585,-361.234"/>
</g>
<!-- Node17 -->
<g id="node17" class="node"><title>Node17</title>
<g id="a_node17"><a xlink:title=" ">
<polygon fill="white" stroke="#bfbfbf" points="558.5,-56.5 558.5,-75.5 610.5,-75.5 610.5,-56.5 558.5,-56.5"/>
<text text-anchor="middle" x="584.5" y="-63.5" font-family="Helvetica,sans-Serif" font-size="10.00">stddef.h</text>
</a>
</g>
</g>
<!-- Node4&#45;&gt;Node17 -->
<g id="edge27" class="edge"><title>Node4&#45;&gt;Node17</title>
<path fill="none" stroke="midnightblue" d="M229.627,-399.151C329.26,-392.956 606.5,-368.735 606.5,-291 606.5,-291 606.5,-291 606.5,-177 606.5,-144.328 597.053,-107.24 590.54,-85.5533"/>
<polygon fill="midnightblue" stroke="midnightblue" points="593.791,-84.2221 587.467,-75.7215 587.109,-86.3103 593.791,-84.2221"/>
</g>
<!-- Node5&#45;&gt;Node6 -->
<g id="edge5" class="edge"><title>Node5&#45;&gt;Node6</title>
<path fill="none" stroke="midnightblue" d="M43.5914,-112.083C50.6554,-104.298 61.0876,-92.8015 69.6489,-83.3665"/>
<polygon fill="midnightblue" stroke="midnightblue" points="72.4312,-85.5087 76.5592,-75.7511 67.2473,-80.8047 72.4312,-85.5087"/>
</g>
<!-- Node5&#45;&gt;Node7 -->
<g id="edge6" class="edge"><title>Node5&#45;&gt;Node7</title>
<path fill="none" stroke="midnightblue" d="M34.9143,-112.138C34.5072,-98.2808 35.8444,-71.4697 50.5,-56 67.5384,-38.0151 91.2653,-27.0752 115.08,-20.4629"/>
<polygon fill="midnightblue" stroke="midnightblue" points="116.078,-23.8205 124.911,-17.9691 114.357,-17.0354 116.078,-23.8205"/>
</g>
<!-- Node8&#45;&gt;Node7 -->
<g id="edge8" class="edge"><title>Node8&#45;&gt;Node7</title>
<path fill="none" stroke="midnightblue" d="M206.5,-56.083C206.5,-49.0059 206.5,-38.8611 206.5,-29.9865"/>
<polygon fill="midnightblue" stroke="midnightblue" points="210,-29.751 206.5,-19.7511 203,-29.7511 210,-29.751"/>
</g>
<!-- Node10 -->
<g id="node10" class="node"><title>Node10</title>
<g id="a_node10"><a xlink:href="../../d1/d93/Error_8hpp.html" target="_top" xlink:title=" ">
<polygon fill="white" stroke="black" points="381,-280.5 381,-299.5 474,-299.5 474,-280.5 381,-280.5"/>
<text text-anchor="middle" x="427.5" y="-287.5" font-family="Helvetica,sans-Serif" font-size="10.00">Helpers/Error.hpp</text>
</a>
</g>
</g>
<!-- Node9&#45;&gt;Node10 -->
<g id="edge10" class="edge"><title>Node9&#45;&gt;Node10</title>
<path fill="none" stroke="midnightblue" d="M427.5,-336.083C427.5,-329.006 427.5,-318.861 427.5,-309.986"/>
<polygon fill="midnightblue" stroke="midnightblue" points="431,-309.751 427.5,-299.751 424,-309.751 431,-309.751"/>
</g>
<!-- Node9&#45;&gt;Node17 -->
<g id="edge25" class="edge"><title>Node9&#45;&gt;Node17</title>
<path fill="none" stroke="midnightblue" d="M457.402,-336.448C498.792,-322.564 568.5,-290.885 568.5,-235 568.5,-235 568.5,-235 568.5,-177 568.5,-144.626 575.371,-107.445 580.107,-85.6593"/>
<polygon fill="midnightblue" stroke="midnightblue" points="583.55,-86.3028 582.342,-75.7771 576.723,-84.7588 583.55,-86.3028"/>
</g>
<!-- Node11 -->
<g id="node11" class="node"><title>Node11</title>
<g id="a_node11"><a xlink:href="../../df/dee/Debug_8hpp.html" target="_top" xlink:title=" ">
<polygon fill="white" stroke="black" points="395.5,-224.5 395.5,-243.5 459.5,-243.5 459.5,-224.5 395.5,-224.5"/>
<text text-anchor="middle" x="427.5" y="-231.5" font-family="Helvetica,sans-Serif" font-size="10.00">Debug.hpp</text>
</a>
</g>
</g>
<!-- Node10&#45;&gt;Node11 -->
<g id="edge11" class="edge"><title>Node10&#45;&gt;Node11</title>
<path fill="none" stroke="midnightblue" d="M427.5,-280.083C427.5,-273.006 427.5,-262.861 427.5,-253.986"/>
<polygon fill="midnightblue" stroke="midnightblue" points="431,-253.751 427.5,-243.751 424,-253.751 431,-253.751"/>
</g>
<!-- Node12 -->
<g id="node12" class="node"><title>Node12</title>
<g id="a_node12"><a xlink:href="../../d2/dd5/SettingsWrapper_8hpp.html" target="_top" xlink:title=" ">
<polygon fill="white" stroke="black" points="288,-168.5 288,-187.5 435,-187.5 435,-168.5 288,-168.5"/>
<text text-anchor="middle" x="361.5" y="-175.5" font-family="Helvetica,sans-Serif" font-size="10.00">Settings/SettingsWrapper.hpp</text>
</a>
</g>
</g>
<!-- Node11&#45;&gt;Node12 -->
<g id="edge12" class="edge"><title>Node11&#45;&gt;Node12</title>
<path fill="none" stroke="midnightblue" d="M411.781,-224.324C400.409,-216.42 385.531,-204.548 374.76,-194.938"/>
<polygon fill="midnightblue" stroke="midnightblue" points="376.847,-192.098 367.148,-187.834 372.071,-197.215 376.847,-192.098"/>
</g>
<!-- Node19 -->
<g id="node19" class="node"><title>Node19</title>
<g id="a_node19"><a xlink:href="../../dd/d80/PrintStream_8hpp.html" target="_top" xlink:title=" ">
<polygon fill="white" stroke="black" points="453,-168.5 453,-187.5 540,-187.5 540,-168.5 453,-168.5"/>
<text text-anchor="middle" x="496.5" y="-175.5" font-family="Helvetica,sans-Serif" font-size="10.00">PrintStream.hpp</text>
</a>
</g>
</g>
<!-- Node11&#45;&gt;Node19 -->
<g id="edge23" class="edge"><title>Node11&#45;&gt;Node19</title>
<path fill="none" stroke="midnightblue" d="M438.586,-224.324C448.986,-216.185 464.761,-203.839 477.222,-194.087"/>
<polygon fill="midnightblue" stroke="midnightblue" points="479.494,-196.753 485.212,-187.834 475.18,-191.241 479.494,-196.753"/>
</g>
<!-- Node12&#45;&gt;Node7 -->
<g id="edge13" class="edge"><title>Node12&#45;&gt;Node7</title>
<path fill="none" stroke="midnightblue" d="M308.181,-168.431C286.844,-162.1 264.323,-151.101 251.5,-132 232.647,-103.917 269.106,-86.9675 255.5,-56 250.11,-43.732 239.542,-33.3414 229.596,-25.6461"/>
<polygon fill="midnightblue" stroke="midnightblue" points="231.328,-22.5811 221.161,-19.598 227.248,-28.2697 231.328,-22.5811"/>
</g>
<!-- Node12&#45;&gt;Node11 -->
<g id="edge22" class="edge"><title>Node12&#45;&gt;Node11</title>
<path fill="none" stroke="midnightblue" d="M377.071,-187.573C388.533,-195.526 403.608,-207.559 414.441,-217.242"/>
<polygon fill="midnightblue" stroke="midnightblue" points="412.07,-219.817 421.768,-224.083 416.847,-214.7 412.07,-219.817"/>
</g>
<!-- Node13 -->
<g id="node13" class="node"><title>Node13</title>
<g id="a_node13"><a xlink:href="../../db/d02/Settings_8hpp.html" target="_top" xlink:title="All user settings and debugging options can be changed here.">
<polygon fill="white" stroke="black" points="261,-112.5 261,-131.5 332,-131.5 332,-112.5 261,-112.5"/>
<text text-anchor="middle" x="296.5" y="-119.5" font-family="Helvetica,sans-Serif" font-size="10.00">Settings.hpp</text>
</a>
</g>
</g>
<!-- Node12&#45;&gt;Node13 -->
<g id="edge14" class="edge"><title>Node12&#45;&gt;Node13</title>
<path fill="none" stroke="midnightblue" d="M351.057,-168.324C341.354,-160.263 326.685,-148.077 315,-138.369"/>
<polygon fill="midnightblue" stroke="midnightblue" points="317.062,-135.532 307.133,-131.834 312.589,-140.916 317.062,-135.532"/>
</g>
<!-- Node18 -->
<g id="node18" class="node"><title>Node18</title>
<g id="a_node18"><a xlink:href="../../d9/d98/TeensyUSBTypes_8hpp.html" target="_top" xlink:title=" ">
<polygon fill="white" stroke="black" points="350.5,-112.5 350.5,-131.5 502.5,-131.5 502.5,-112.5 350.5,-112.5"/>
<text text-anchor="middle" x="426.5" y="-119.5" font-family="Helvetica,sans-Serif" font-size="10.00">Helpers/TeensyUSBTypes.hpp</text>
</a>
</g>
</g>
<!-- Node12&#45;&gt;Node18 -->
<g id="edge21" class="edge"><title>Node12&#45;&gt;Node18</title>
<path fill="none" stroke="midnightblue" d="M371.943,-168.324C381.646,-160.263 396.315,-148.077 408,-138.369"/>
<polygon fill="midnightblue" stroke="midnightblue" points="410.411,-140.916 415.867,-131.834 405.938,-135.532 410.411,-140.916"/>
</g>
<!-- Node13&#45;&gt;Node6 -->
<g id="edge20" class="edge"><title>Node13&#45;&gt;Node6</title>
<path fill="none" stroke="midnightblue" d="M262.908,-112.444C223.49,-102.403 158.484,-85.8449 118.774,-75.7301"/>
<polygon fill="midnightblue" stroke="midnightblue" points="119.567,-72.3205 109.012,-73.2437 117.839,-79.1039 119.567,-72.3205"/>
</g>
<!-- Node13&#45;&gt;Node8 -->
<g id="edge15" class="edge"><title>Node13&#45;&gt;Node8</title>
<path fill="none" stroke="midnightblue" d="M282.04,-112.324C268,-103.9 246.452,-90.9709 229.957,-81.0741"/>
<polygon fill="midnightblue" stroke="midnightblue" points="231.3,-77.7983 220.924,-75.6545 227.698,-83.8007 231.3,-77.7983"/>
</g>
<!-- Node14 -->
<g id="node14" class="node"><title>Node14</title>
<g id="a_node14"><a xlink:href="../../d7/d7c/ADCConfig_8hpp.html" target="_top" xlink:title="This file contains the platform&#45;specific ADC resolutions. By default, the library automatically selec...">
<polygon fill="white" stroke="black" points="303.5,-56.5 303.5,-75.5 425.5,-75.5 425.5,-56.5 303.5,-56.5"/>
<text text-anchor="middle" x="364.5" y="-63.5" font-family="Helvetica,sans-Serif" font-size="10.00">Helpers/ADCConfig.hpp</text>
</a>
</g>
</g>
<!-- Node13&#45;&gt;Node14 -->
<g id="edge16" class="edge"><title>Node13&#45;&gt;Node14</title>
<path fill="none" stroke="midnightblue" d="M307.425,-112.324C317.675,-104.185 333.221,-91.8395 345.501,-82.0874"/>
<polygon fill="midnightblue" stroke="midnightblue" points="347.721,-84.7937 353.376,-75.8339 343.368,-79.3119 347.721,-84.7937"/>
</g>
<!-- Node16 -->
<g id="node16" class="node"><title>Node16</title>
<g id="a_node16"><a xlink:title=" ">
<polygon fill="white" stroke="#bfbfbf" points="443.5,-56.5 443.5,-75.5 491.5,-75.5 491.5,-56.5 443.5,-56.5"/>
<text text-anchor="middle" x="467.5" y="-63.5" font-family="Helvetica,sans-Serif" font-size="10.00">limits.h</text>
</a>
</g>
</g>
<!-- Node13&#45;&gt;Node16 -->
<g id="edge18" class="edge"><title>Node13&#45;&gt;Node16</title>
<path fill="none" stroke="midnightblue" d="M323.595,-112.444C353.338,-103.051 401.142,-87.9553 433.408,-77.7658"/>
<polygon fill="midnightblue" stroke="midnightblue" points="434.814,-80.9923 443.296,-74.6433 432.706,-74.3172 434.814,-80.9923"/>
</g>
<!-- Node13&#45;&gt;Node17 -->
<g id="edge19" class="edge"><title>Node13&#45;&gt;Node17</title>
<path fill="none" stroke="midnightblue" d="M332.352,-113.782C335.445,-113.173 338.527,-112.573 341.5,-112 414.745,-97.8944 500.576,-82.1938 548.119,-73.5699"/>
<polygon fill="midnightblue" stroke="midnightblue" points="549.011,-76.9653 558.227,-71.7384 547.763,-70.0774 549.011,-76.9653"/>
</g>
<!-- Node15 -->
<g id="node15" class="node"><title>Node15</title>
<g id="a_node15"><a xlink:title=" ">
<polygon fill="white" stroke="#bfbfbf" points="501.5,-0.5 501.5,-19.5 559.5,-19.5 559.5,-0.5 501.5,-0.5"/>
<text text-anchor="middle" x="530.5" y="-7.5" font-family="Helvetica,sans-Serif" font-size="10.00">Arduino.h</text>
</a>
</g>
</g>
<!-- Node14&#45;&gt;Node15 -->
<g id="edge17" class="edge"><title>Node14&#45;&gt;Node15</title>
<path fill="none" stroke="midnightblue" d="M390.803,-56.4435C418.851,-47.3196 463.444,-32.8133 494.684,-22.6509"/>
<polygon fill="midnightblue" stroke="midnightblue" points="495.893,-25.9383 504.32,-19.5164 493.728,-19.2816 495.893,-25.9383"/>
</g>
<!-- Node19&#45;&gt;Node15 -->
<g id="edge24" class="edge"><title>Node19&#45;&gt;Node15</title>
<path fill="none" stroke="midnightblue" d="M499.806,-168.497C503.176,-159.54 508.345,-144.962 511.5,-132 520.186,-96.3111 525.801,-53.6951 528.534,-29.7485"/>
<polygon fill="midnightblue" stroke="midnightblue" points="532.036,-29.9265 529.646,-19.6048 525.077,-29.1642 532.036,-29.9265"/>
</g>
<!-- Node20&#45;&gt;Node11 -->
<g id="edge30" class="edge"><title>Node20&#45;&gt;Node11</title>
<path fill="none" stroke="midnightblue" d="M658.084,-280.444C606.414,-270.26 520.726,-253.373 469.629,-243.303"/>
<polygon fill="midnightblue" stroke="midnightblue" points="470.071,-239.823 459.583,-241.323 468.718,-246.691 470.071,-239.823"/>
</g>
<!-- Node21 -->
<g id="node21" class="node"><title>Node21</title>
<g id="a_node21"><a xlink:title=" ">
<polygon fill="white" stroke="#bfbfbf" points="634.5,-224.5 634.5,-243.5 682.5,-243.5 682.5,-224.5 634.5,-224.5"/>
<text text-anchor="middle" x="658.5" y="-231.5" font-family="Helvetica,sans-Serif" font-size="10.00">stdlib.h</text>
</a>
</g>
</g>
<!-- Node20&#45;&gt;Node21 -->
<g id="edge31" class="edge"><title>Node20&#45;&gt;Node21</title>
<path fill="none" stroke="midnightblue" d="M694.399,-280.083C688.263,-272.377 679.23,-261.033 671.761,-251.653"/>
<polygon fill="midnightblue" stroke="midnightblue" points="674.436,-249.394 665.468,-243.751 668.96,-253.754 674.436,-249.394"/>
</g>
<!-- Node22 -->
<g id="node22" class="node"><title>Node22</title>
<g id="a_node22"><a xlink:href="../../d7/d79/MinMaxFix_8hpp.html" target="_top" xlink:title=" ">
<polygon fill="white" stroke="black" points="628.5,-56.5 628.5,-75.5 748.5,-75.5 748.5,-56.5 628.5,-56.5"/>
<text text-anchor="middle" x="688.5" y="-63.5" font-family="Helvetica,sans-Serif" font-size="10.00">Helpers/MinMaxFix.hpp</text>
</a>
</g>
</g>
<!-- Node20&#45;&gt;Node22 -->
<g id="edge32" class="edge"><title>Node20&#45;&gt;Node22</title>
<path fill="none" stroke="midnightblue" d="M700.99,-280.297C699.078,-247.633 692.298,-131.866 689.61,-85.9573"/>
<polygon fill="midnightblue" stroke="midnightblue" points="693.099,-85.662 689.02,-75.8837 686.111,-86.0713 693.099,-85.662"/>
</g>
<!-- Node23 -->
<g id="node23" class="node"><title>Node23</title>
<g id="a_node23"><a xlink:title=" ">
<polygon fill="white" stroke="#bfbfbf" points="739,-224.5 739,-243.5 786,-243.5 786,-224.5 739,-224.5"/>
<text text-anchor="middle" x="762.5" y="-231.5" font-family="Helvetica,sans-Serif" font-size="10.00">iterator</text>
</a>
</g>
</g>
<!-- Node20&#45;&gt;Node23 -->
<g id="edge35" class="edge"><title>Node20&#45;&gt;Node23</title>
<path fill="none" stroke="midnightblue" d="M711.301,-280.324C720.318,-272.341 733.906,-260.313 744.818,-250.653"/>
<polygon fill="midnightblue" stroke="midnightblue" points="747.353,-253.083 752.521,-243.834 742.713,-247.842 747.353,-253.083"/>
</g>
<!-- Node22&#45;&gt;Node7 -->
<g id="edge34" class="edge"><title>Node22&#45;&gt;Node7</title>
<path fill="none" stroke="midnightblue" d="M628.299,-57.0714C625.324,-56.7036 622.379,-56.3445 619.5,-56 509.048,-42.7808 381.78,-29.1565 298.047,-20.4133"/>
<polygon fill="midnightblue" stroke="midnightblue" points="298.365,-16.9275 288.055,-19.3716 297.639,-23.8897 298.365,-16.9275"/>
</g>
<!-- Node22&#45;&gt;Node15 -->
<g id="edge33" class="edge"><title>Node22&#45;&gt;Node15</title>
<path fill="none" stroke="midnightblue" d="M663.464,-56.4435C636.884,-47.3591 594.691,-32.9388 564.977,-22.7831"/>
<polygon fill="midnightblue" stroke="midnightblue" points="566.013,-19.4386 555.418,-19.5164 563.749,-26.0625 566.013,-19.4386"/>
</g>
</g>
</svg>
