<?xml version="1.0" encoding="UTF-8" standalone="no"?>
<!DOCTYPE svg PUBLIC "-//W3C//DTD SVG 1.1//EN"
 "http://www.w3.org/Graphics/SVG/1.1/DTD/svg11.dtd">
<!-- Generated by graphviz version 2.38.0 (20140413.2041)
 -->
<!-- Title: Bankable::MIDINote::matchChannel Pages: 1 -->
<svg width="496pt" height="121pt"
 viewBox="0.00 0.00 496.00 120.50" xmlns="http://www.w3.org/2000/svg" xmlns:xlink="http://www.w3.org/1999/xlink">
<g id="graph0" class="graph" transform="scale(1 1) rotate(0) translate(4 116.5)">
<title>Bankable::MIDINote::matchChannel</title>
<polygon fill="white" stroke="none" points="-4,4 -4,-116.5 492,-116.5 492,4 -4,4"/>
<!-- Node96 -->
<g id="node1" class="node"><title>Node96</title>
<g id="a_node1"><a xlink:title="Check if the channel of the incoming MIDI message matches an channel of this element.">
<polygon fill="#bfbfbf" stroke="black" points="0,-24.5 0,-54.5 106,-54.5 106,-24.5 0,-24.5"/>
<text text-anchor="start" x="8" y="-42.5" font-family="Helvetica,sans-Serif" font-size="10.00">Bankable::MIDINote</text>
<text text-anchor="middle" x="53" y="-31.5" font-family="Helvetica,sans-Serif" font-size="10.00">::matchChannel</text>
</a>
</g>
</g>
<!-- Node97 -->
<g id="node2" class="node"><title>Node97</title>
<g id="a_node2"><a xlink:href="../../d1/d91/classBankableMIDIInputAddressable.html#a662d4ec9cf4ab9dd7a7f8a0726ac96a7" target="_top" xlink:title=" ">
<polygon fill="white" stroke="black" points="142,-49.5 142,-79.5 297,-79.5 297,-49.5 142,-49.5"/>
<text text-anchor="start" x="150" y="-67.5" font-family="Helvetica,sans-Serif" font-size="10.00">BankableMIDIInputAddressable</text>
<text text-anchor="middle" x="219.5" y="-56.5" font-family="Helvetica,sans-Serif" font-size="10.00">::matchChannel</text>
</a>
</g>
</g>
<!-- Node96&#45;&gt;Node97 -->
<g id="edge1" class="edge"><title>Node96&#45;&gt;Node97</title>
<path fill="none" stroke="midnightblue" d="M106.049,-47.4102C114.324,-48.6678 123.073,-49.9974 131.889,-51.3372"/>
<polygon fill="midnightblue" stroke="midnightblue" points="131.436,-54.8085 141.849,-52.8509 132.488,-47.888 131.436,-54.8085"/>
</g>
<!-- Node101 -->
<g id="node6" class="node"><title>Node101</title>
<g id="a_node6"><a xlink:href="../../d6/d3d/classMIDIInputElementAddressable.html#a316d0c8239f1503aad64fed5b6058446" target="_top" xlink:title=" ">
<polygon fill="white" stroke="black" points="144.5,-0.5 144.5,-30.5 294.5,-30.5 294.5,-0.5 144.5,-0.5"/>
<text text-anchor="start" x="152.5" y="-18.5" font-family="Helvetica,sans-Serif" font-size="10.00">MIDIInputElementAddressable</text>
<text text-anchor="middle" x="219.5" y="-7.5" font-family="Helvetica,sans-Serif" font-size="10.00">::getBaseChannel</text>
</a>
</g>
</g>
<!-- Node96&#45;&gt;Node101 -->
<g id="edge5" class="edge"><title>Node96&#45;&gt;Node101</title>
<path fill="none" stroke="midnightblue" d="M106.049,-31.9062C115.061,-30.5914 124.635,-29.1947 134.245,-27.7926"/>
<polygon fill="midnightblue" stroke="midnightblue" points="134.861,-31.2398 144.251,-26.3327 133.85,-24.3131 134.861,-31.2398"/>
</g>
<!-- Node98 -->
<g id="node3" class="node"><title>Node98</title>
<g id="a_node3"><a xlink:href="../../da/d69/PrintStream_8cpp.html#aa47b34b5f85fef7f8b050c0d0a715d2f" target="_top" xlink:title=" ">
<polygon fill="white" stroke="black" points="394.5,-93 394.5,-112 426.5,-112 426.5,-93 394.5,-93"/>
<text text-anchor="middle" x="410.5" y="-100" font-family="Helvetica,sans-Serif" font-size="10.00">hex</text>
</a>
</g>
</g>
<!-- Node97&#45;&gt;Node98 -->
<g id="edge2" class="edge"><title>Node97&#45;&gt;Node98</title>
<path fill="none" stroke="midnightblue" d="M295.198,-79.5186C326.908,-85.8943 361.733,-92.8961 384.509,-97.4753"/>
<polygon fill="midnightblue" stroke="midnightblue" points="383.869,-100.917 394.363,-99.4565 385.249,-94.054 383.869,-100.917"/>
</g>
<!-- Node99 -->
<g id="node4" class="node"><title>Node99</title>
<g id="a_node4"><a xlink:href="../../da/d69/PrintStream_8cpp.html#aa46b20141a495c428e33bcdcbf63c04e" target="_top" xlink:title=" ">
<polygon fill="white" stroke="black" points="394.5,-55 394.5,-74 426.5,-74 426.5,-55 394.5,-55"/>
<text text-anchor="middle" x="410.5" y="-62" font-family="Helvetica,sans-Serif" font-size="10.00">dec</text>
</a>
</g>
</g>
<!-- Node97&#45;&gt;Node99 -->
<g id="edge3" class="edge"><title>Node97&#45;&gt;Node99</title>
<path fill="none" stroke="midnightblue" d="M297.101,-64.5C328.089,-64.5 361.742,-64.5 384.066,-64.5"/>
<polygon fill="midnightblue" stroke="midnightblue" points="384.344,-68.0001 394.344,-64.5 384.343,-61.0001 384.344,-68.0001"/>
</g>
<!-- Node100 -->
<g id="node5" class="node"><title>Node100</title>
<g id="a_node5"><a xlink:href="../../d1/d91/classBankableMIDIInputAddressable.html#aaa065b532deb0369a67411df47ae3f64" target="_top" xlink:title=" ">
<polygon fill="white" stroke="black" points="333,-5.5 333,-35.5 488,-35.5 488,-5.5 333,-5.5"/>
<text text-anchor="start" x="341" y="-23.5" font-family="Helvetica,sans-Serif" font-size="10.00">BankableMIDIInputAddressable</text>
<text text-anchor="middle" x="410.5" y="-12.5" font-family="Helvetica,sans-Serif" font-size="10.00">::getChannelsPerBank</text>
</a>
</g>
</g>
<!-- Node97&#45;&gt;Node100 -->
<g id="edge4" class="edge"><title>Node97&#45;&gt;Node100</title>
<path fill="none" stroke="midnightblue" d="M285.014,-49.4808C301.043,-45.7492 318.356,-41.7186 334.828,-37.884"/>
<polygon fill="midnightblue" stroke="midnightblue" points="336.01,-41.2025 344.956,-35.5262 334.422,-34.3848 336.01,-41.2025"/>
</g>
</g>
</svg>
