<?xml version="1.0" encoding="UTF-8" standalone="no"?>
<svg
   xmlns:dc="http://purl.org/dc/elements/1.1/"
   xmlns:cc="http://creativecommons.org/ns#"
   xmlns:rdf="http://www.w3.org/1999/02/22-rdf-syntax-ns#"
   xmlns:svg="http://www.w3.org/2000/svg"
   xmlns="http://www.w3.org/2000/svg"
   viewBox="0 0 677.21332 263.09332"
   height="263.09332"
   width="677.21332"
   xml:space="preserve"
   id="svg2"
   version="1.1"><metadata
     id="metadata8"><rdf:RDF><cc:Work
         rdf:about=""><dc:format>image/svg+xml</dc:format><dc:type
           rdf:resource="http://purl.org/dc/dcmitype/StillImage" /></cc:Work></rdf:RDF></metadata><defs
     id="defs6" /><g
     transform="matrix(1.3333333,0,0,-1.3333333,0,263.09333)"
     id="g10"><g
       transform="scale(0.1)"
       id="g12"><path
         id="path14"
         style="fill:#e6e6e6;fill-opacity:1;fill-rule:nonzero;stroke:none"
         d="m 1402.72,1064.74 c 0,86.58 -70.19,156.77 -156.77,156.77 -86.58,0 -156.77,-70.19 -156.77,-156.77 0,-86.584 70.19,-156.771 156.77,-156.771 86.58,0 156.77,70.187 156.77,156.771 z" /><path
         id="path16"
         style="fill:none;stroke:#000000;stroke-width:6.37644005;stroke-linecap:butt;stroke-linejoin:miter;stroke-miterlimit:10;stroke-dasharray:none;stroke-opacity:1"
         d="m 1402.72,1064.74 c 0,86.58 -70.19,156.77 -156.77,156.77 -86.58,0 -156.77,-70.19 -156.77,-156.77 0,-86.584 70.19,-156.771 156.77,-156.771 86.58,0 156.77,70.187 156.77,156.771 z" /><path
         id="path18"
         style="fill:#000000;fill-opacity:1;fill-rule:nonzero;stroke:none"
         d="m 1249,1061.56 h 44.34 c 2.24,0 5.25,0 5.25,3.17 0,3.18 -3.01,3.18 -5.25,3.18 H 1249 v 44.51 c 0,2.22 0,5.24 -3.17,5.24 -3.17,0 -3.17,-3.02 -3.17,-5.24 v -44.51 h -44.52 c -2.22,0 -5.23,0 -5.23,-3.18 0,-3.17 3.01,-3.17 5.23,-3.17 h 44.52 v -44.51 c 0,-2.22 0,-5.24 3.17,-5.24 3.17,0 3.17,3.02 3.17,5.24 v 44.51" /><path
         id="path20"
         style="fill:#e6e6e6;fill-opacity:1;fill-rule:nonzero;stroke:none"
         d="m 2046.76,865.469 h 398.539 v 398.539 H 2046.76 Z" /><path
         id="path22"
         style="fill:none;stroke:#000000;stroke-width:6.37644005;stroke-linecap:butt;stroke-linejoin:miter;stroke-miterlimit:10;stroke-dasharray:none;stroke-opacity:1"
         d="m 2046.76,865.469 h 398.539 v 398.539 H 2046.76 Z" /><path
         id="path24"
         style="fill:#000000;fill-opacity:1;fill-rule:nonzero;stroke:none"
         d="m 2173.91,1078.22 c -0.18,0.47 -0.8,1.73 -0.8,2.22 0,0.15 2.86,2.39 4.61,3.65 l 27.81,21.46 c 14.94,10.97 21.14,11.61 25.91,12.08 1.26,0.15 2.86,0.32 2.86,3.18 0,0.63 -0.49,1.75 -1.75,1.75 -3.5,0 -7.47,-0.48 -11.28,-0.48 -5.72,0 -11.93,0.48 -17.64,0.48 -1.11,0 -3.02,0 -3.02,-3.18 0,-1.11 0.78,-1.6 1.91,-1.75 3.48,-0.32 4.92,-1.11 4.92,-3.33 0,-2.86 -4.77,-6.52 -5.72,-7.32 l -61.99,-47.68 12.71,51.01 c 1.44,5.74 1.75,7.32 13.36,7.32 3.97,0 5.4,0 5.4,3.18 0,1.42 -1.28,1.75 -2.23,1.75 -4.45,0 -15.89,-0.48 -20.34,-0.48 -4.61,0 -15.9,0.48 -20.5,0.48 -1.11,0 -3.18,0 -3.18,-3.03 0,-1.9 1.43,-1.9 4.61,-1.9 2.07,0 4.92,-0.16 6.83,-0.32 2.55,-0.31 3.5,-0.79 3.5,-2.54 0,-0.64 -0.16,-1.11 -0.64,-3.02 l -21.3,-85.36 c -1.59,-6.19 -1.9,-7.47 -14.47,-7.47 -2.7,0 -4.43,0 -4.43,-3.01 0,-1.91 1.9,-1.91 2.37,-1.91 4.46,0 15.74,0.48 20.19,0.48 3.34,0 6.83,-0.17 10.17,-0.17 3.5,0 7,-0.31 10.33,-0.31 1.11,0 3.19,0 3.19,3.17 0,1.75 -1.44,1.75 -4.46,1.75 -5.89,0 -10.32,0 -10.32,2.86 0,1.13 0.95,4.61 1.42,7 2.23,8.27 4.29,16.69 6.36,24.95 l 23.68,18.44 18.44,-42.75 c 1.91,-4.29 1.91,-4.61 1.91,-5.56 0,-4.77 -6.85,-4.94 -8.27,-4.94 -1.75,0 -3.5,0 -3.5,-3.17 0,-1.75 1.91,-1.75 2.22,-1.75 6.36,0 13.05,0.48 19.39,0.48 3.5,0 12.08,-0.48 15.58,-0.48 0.8,0 2.86,0 2.86,3.17 0,1.75 -1.75,1.75 -3.17,1.75 -6.52,0.17 -8.58,1.6 -10.97,7.16 l -22.56,52.14" /><path
         id="path26"
         style="fill:#000000;fill-opacity:1;fill-rule:nonzero;stroke:none"
         d="m 2264.14,1059.73 c 0,1.79 -1.33,4.24 -4.45,4.24 -3.02,0 -6.25,-2.91 -6.25,-6.14 0,-1.89 1.45,-4.24 4.47,-4.24 3.23,0 6.23,3.13 6.23,6.14 z m -22.75,-56.68 c -0.45,-1.44 -1,-2.78 -1,-4.675 0,-5.25 4.45,-9.484 10.59,-9.484 11.16,0 16.07,15.389 16.07,17.059 0,1.46 -1.46,1.46 -1.78,1.46 -1.57,0 -1.68,-0.68 -2.13,-1.91 -2.56,-8.922 -7.47,-13.484 -11.83,-13.484 -2.23,0 -2.78,1.437 -2.78,3.89 0,2.578 0.78,4.684 1.78,7.144 1.11,3.01 2.35,6.03 3.57,8.93 1.01,2.68 5.03,12.83 5.46,14.16 0.35,1.13 0.68,2.45 0.68,3.58 0,5.23 -4.46,9.48 -10.6,9.48 -11.04,0 -16.17,-15.17 -16.17,-17.07 0,-1.44 1.56,-1.44 1.89,-1.44 1.56,0 1.67,0.54 2,1.78 2.91,9.59 7.81,13.61 11.94,13.61 1.8,0 2.8,-0.89 2.8,-3.91 0,-2.56 -0.68,-4.23 -3.46,-11.15 l -7.03,-17.97" /><path
         id="path28"
         style="fill:#000000;fill-opacity:1;fill-rule:nonzero;stroke:none"
         d="m 2346.73,1223.72 c 0,3.81 0,4.14 -3.65,4.14 -9.86,-10.17 -23.85,-10.17 -28.94,-10.17 v -4.94 c 3.19,0 12.56,0 20.83,4.14 v -82.33 c 0,-5.73 -0.49,-7.64 -14.78,-7.64 h -5.1 V 1122 c 5.57,0.48 19.39,0.48 25.75,0.48 6.36,0 20.19,0 25.75,-0.48 v 4.92 h -5.07 c -14.32,0 -14.79,1.75 -14.79,7.64 v 89.16" /><path
         id="path30"
         style="fill:none;stroke:#000000;stroke-width:6.36844015;stroke-linecap:butt;stroke-linejoin:miter;stroke-miterlimit:10;stroke-dasharray:none;stroke-opacity:1"
         d="m 2300.39,1053.98 h 79.71" /><path
         id="path32"
         style="fill:#000000;fill-opacity:1;fill-rule:nonzero;stroke:none"
         d="m 2365.14,964.438 c -4.45,-0.157 -7.62,-3.657 -7.62,-7.141 0,-2.234 1.43,-4.609 4.92,-4.609 3.5,0 7.31,2.703 7.31,8.89 0,7.156 -6.83,13.672 -18.91,13.672 -20.98,0 -26.86,-16.203 -26.86,-23.203 0,-12.391 11.75,-14.781 16.36,-15.734 8.27,-1.594 16.54,-3.344 16.54,-12.079 0,-4.14 -3.66,-17.484 -22.72,-17.484 -2.24,0 -14.47,0 -18.13,8.422 6.05,-0.797 10.02,3.969 10.02,8.422 0,3.656 -2.55,5.562 -5.88,5.562 -4.14,0 -8.9,-3.328 -8.9,-10.484 0,-9.063 9.06,-15.422 22.73,-15.422 25.73,0 31.94,19.234 31.94,26.391 0,5.718 -3.02,9.687 -4.92,11.593 -4.3,4.454 -8.91,5.25 -15.89,6.672 -5.74,1.282 -12.08,2.391 -12.08,9.547 0,4.61 3.81,14.297 17.79,14.297 3.97,0 11.93,-1.109 14.3,-7.312" /><path
         id="path34"
         style="fill:#e6e6e6;fill-opacity:1;fill-rule:nonzero;stroke:none"
         d="m 2046.76,1429.8 h 398.539 v 398.539 H 2046.76 Z" /><path
         id="path36"
         style="fill:none;stroke:#000000;stroke-width:6.37644005;stroke-linecap:butt;stroke-linejoin:miter;stroke-miterlimit:10;stroke-dasharray:none;stroke-opacity:1"
         d="m 2046.76,1429.8 h 398.539 v 398.539 H 2046.76 Z" /><path
         id="path38"
         style="fill:#000000;fill-opacity:1;fill-rule:nonzero;stroke:none"
         d="m 2171.91,1661.22 c -0.18,0.47 -0.8,1.73 -0.8,2.22 0,0.15 2.86,2.39 4.61,3.65 l 27.81,21.46 c 14.94,10.97 21.14,11.61 25.91,12.08 1.26,0.15 2.86,0.32 2.86,3.18 0,0.63 -0.49,1.75 -1.75,1.75 -3.5,0 -7.47,-0.48 -11.28,-0.48 -5.72,0 -11.93,0.48 -17.64,0.48 -1.11,0 -3.02,0 -3.02,-3.18 0,-1.11 0.78,-1.6 1.91,-1.75 3.48,-0.32 4.92,-1.11 4.92,-3.33 0,-2.86 -4.77,-6.52 -5.72,-7.32 l -61.99,-47.68 12.71,51.01 c 1.44,5.74 1.75,7.32 13.36,7.32 3.97,0 5.4,0 5.4,3.18 0,1.42 -1.28,1.75 -2.23,1.75 -4.45,0 -15.89,-0.48 -20.34,-0.48 -4.61,0 -15.9,0.48 -20.5,0.48 -1.11,0 -3.18,0 -3.18,-3.03 0,-1.9 1.43,-1.9 4.61,-1.9 2.07,0 4.92,-0.16 6.83,-0.32 2.55,-0.31 3.5,-0.79 3.5,-2.54 0,-0.64 -0.16,-1.11 -0.64,-3.02 l -21.3,-85.36 c -1.59,-6.19 -1.9,-7.47 -14.47,-7.47 -2.7,0 -4.43,0 -4.43,-3.01 0,-1.91 1.9,-1.91 2.37,-1.91 4.46,0 15.74,0.48 20.19,0.48 3.34,0 6.83,-0.17 10.17,-0.17 3.5,0 7,-0.31 10.33,-0.31 1.11,0 3.19,0 3.19,3.17 0,1.75 -1.44,1.75 -4.46,1.75 -5.89,0 -10.32,0 -10.32,2.86 0,1.13 0.95,4.61 1.42,7 2.23,8.27 4.29,16.69 6.36,24.95 l 23.68,18.44 18.44,-42.75 c 1.91,-4.29 1.91,-4.61 1.91,-5.56 0,-4.77 -6.85,-4.94 -8.27,-4.94 -1.75,0 -3.5,0 -3.5,-3.17 0,-1.75 1.91,-1.75 2.22,-1.75 6.36,0 13.05,0.48 19.39,0.48 3.5,0 12.08,-0.48 15.58,-0.48 0.8,0 2.86,0 2.86,3.17 0,1.75 -1.75,1.75 -3.17,1.75 -6.52,0.17 -8.58,1.6 -10.97,7.16 l -22.56,52.14" /><path
         id="path40"
         style="fill:#000000;fill-opacity:1;fill-rule:nonzero;stroke:none"
         d="m 2234.38,1559.39 c -0.79,-3.12 -1.02,-4.01 -5.47,-4.01 -1.46,0 -3.02,0 -3.02,-2.35 0,-1.23 1,-1.67 1.56,-1.67 2.89,0 6.58,0.44 9.6,0.44 3.79,0 8.03,-0.44 11.72,-0.44 1,0 2.21,0.33 2.21,2.45 0,1.57 -1.56,1.57 -2.89,1.57 -2.45,0 -5.46,0 -5.46,1.34 0,0.55 0.78,3.45 1.21,5.12 1.35,5.91 2.91,11.94 4.14,16.63 1.33,-2.24 4.8,-6.58 11.49,-6.58 13.61,0 28.67,15.06 28.67,31.67 0,13.07 -9.03,18.64 -16.73,18.64 -6.93,0 -12.83,-4.68 -15.85,-7.81 -1.89,6.36 -8.14,7.81 -11.48,7.81 -4.36,0 -7.03,-2.9 -8.81,-5.92 -2.24,-3.78 -4.02,-10.48 -4.02,-11.15 0,-1.44 1.56,-1.44 1.89,-1.44 1.56,0 1.67,0.33 2.45,3.34 1.68,6.47 3.8,12.05 8.14,12.05 2.91,0 3.69,-2.45 3.69,-5.47 0,-1.23 -0.22,-2.67 -0.34,-3.34 z m 21.07,49.42 c 6.47,8.6 12.05,10.27 15.63,10.27 4.34,0 8.14,-3.24 8.14,-10.83 0,-4.56 -2.45,-15.95 -5.8,-22.42 -2.79,-5.47 -8.26,-10.81 -13.95,-10.81 -7.92,0 -9.92,8.57 -9.92,9.7 0,0.44 0.22,1.22 0.33,1.67 l 5.57,22.42" /><path
         id="path42"
         style="fill:#e6e6e6;fill-opacity:1;fill-rule:nonzero;stroke:none"
         d="m 2046.76,301.137 h 398.539 V 699.676 H 2046.76 Z" /><path
         id="path44"
         style="fill:none;stroke:#000000;stroke-width:6.37644005;stroke-linecap:butt;stroke-linejoin:miter;stroke-miterlimit:10;stroke-dasharray:none;stroke-opacity:1"
         d="m 2046.76,301.137 h 398.539 V 699.676 H 2046.76 Z" /><path
         id="path46"
         style="fill:#000000;fill-opacity:1;fill-rule:nonzero;stroke:none"
         d="m 2171.91,522.219 c -0.18,0.469 -0.8,1.734 -0.8,2.219 0,0.156 2.86,2.39 4.61,3.656 l 27.81,21.453 c 14.94,10.969 21.14,11.609 25.91,12.078 1.26,0.156 2.86,0.328 2.86,3.188 0,0.625 -0.49,1.75 -1.75,1.75 -3.5,0 -7.47,-0.485 -11.28,-0.485 -5.72,0 -11.93,0.485 -17.64,0.485 -1.11,0 -3.02,0 -3.02,-3.188 0,-1.109 0.78,-1.594 1.91,-1.75 3.48,-0.312 4.92,-1.109 4.92,-3.328 0,-2.859 -4.77,-6.516 -5.72,-7.313 l -61.99,-47.687 12.71,51.016 c 1.44,5.734 1.75,7.312 13.36,7.312 3.97,0 5.4,0 5.4,3.188 0,1.421 -1.28,1.75 -2.23,1.75 -4.45,0 -15.89,-0.485 -20.34,-0.485 -4.61,0 -15.9,0.485 -20.5,0.485 -1.11,0 -3.18,0 -3.18,-3.032 0,-1.906 1.43,-1.906 4.61,-1.906 2.07,0 4.92,-0.156 6.83,-0.312 2.55,-0.313 3.5,-0.797 3.5,-2.547 0,-0.641 -0.16,-1.11 -0.64,-3.016 l -21.3,-85.359 c -1.59,-6.188 -1.9,-7.469 -14.47,-7.469 -2.7,0 -4.43,0 -4.43,-3.016 0,-1.906 1.9,-1.906 2.37,-1.906 4.46,0 15.74,0.484 20.19,0.484 3.34,0 6.83,-0.171 10.17,-0.171 3.5,0 7,-0.313 10.33,-0.313 1.11,0 3.19,0 3.19,3.172 0,1.75 -1.44,1.75 -4.46,1.75 -5.89,0 -10.32,0 -10.32,2.859 0,1.125 0.95,4.61 1.42,7 2.23,8.266 4.29,16.688 6.36,24.953 l 23.68,18.438 18.44,-42.75 c 1.91,-4.297 1.91,-4.609 1.91,-5.563 0,-4.765 -6.85,-4.937 -8.27,-4.937 -1.75,0 -3.5,0 -3.5,-3.172 0,-1.75 1.91,-1.75 2.22,-1.75 6.36,0 13.05,0.484 19.39,0.484 3.5,0 12.08,-0.484 15.58,-0.484 0.8,0 2.86,0 2.86,3.172 0,1.75 -1.75,1.75 -3.17,1.75 -6.52,0.172 -8.58,1.594 -10.97,7.156 l -22.56,52.141" /><path
         id="path48"
         style="fill:#000000;fill-opacity:1;fill-rule:nonzero;stroke:none"
         d="m 2289.7,508.078 c 0.11,0.219 0.46,1.672 0.46,1.781 0,0.563 -0.46,1.563 -1.8,1.563 -2.23,0 -11.48,-0.891 -14.28,-1.109 -0.89,-0.11 -2.45,-0.219 -2.45,-2.563 0,-1.562 1.56,-1.562 2.9,-1.562 5.36,0 5.36,-0.782 5.36,-1.672 0,-0.782 -0.23,-1.453 -0.45,-2.469 l -6.36,-25.438 c -2.35,3.688 -6.14,6.594 -11.49,6.594 -14.28,0 -28.78,-15.734 -28.78,-31.797 0,-10.828 7.25,-18.515 16.85,-18.515 6.01,0 11.37,3.453 15.84,7.797 2.11,-6.688 8.58,-7.797 11.48,-7.797 4.02,0 6.82,2.453 8.82,5.906 2.45,4.344 3.9,10.703 3.9,11.156 0,1.453 -1.45,1.453 -1.78,1.453 -1.56,0 -1.67,-0.453 -2.45,-3.453 -1.34,-5.359 -3.47,-11.937 -8.16,-11.937 -2.89,0 -3.67,2.453 -3.67,5.453 0,2.125 0.22,3.125 0.55,4.578 z m -23.76,-60.125 c -0.78,-3.125 -3.24,-5.359 -5.69,-7.484 -1,-0.891 -5.47,-4.453 -10.27,-4.453 -4.12,0 -8.14,2.89 -8.14,10.812 0,5.922 3.24,18.188 5.8,22.656 5.14,8.922 10.83,10.594 13.95,10.594 7.8,0 9.93,-8.484 9.93,-9.703 0,-0.453 -0.22,-1.234 -0.33,-1.562 l -5.25,-20.86" /><path
         id="path50"
         style="fill:#000000;fill-opacity:1;fill-rule:nonzero;stroke:none"
         d="m 2389.14,517.438 c -4.45,-0.157 -7.62,-3.657 -7.62,-7.141 0,-2.234 1.43,-4.609 4.92,-4.609 3.5,0 7.31,2.703 7.31,8.89 0,7.156 -6.83,13.672 -18.91,13.672 -20.98,0 -26.86,-16.203 -26.86,-23.203 0,-12.391 11.75,-14.781 16.36,-15.734 8.27,-1.594 16.54,-3.344 16.54,-12.079 0,-4.14 -3.66,-17.484 -22.72,-17.484 -2.24,0 -14.47,0 -18.13,8.422 6.05,-0.797 10.02,3.969 10.02,8.422 0,3.656 -2.55,5.562 -5.88,5.562 -4.14,0 -8.9,-3.328 -8.9,-10.484 0,-9.063 9.06,-15.422 22.73,-15.422 25.73,0 31.94,19.234 31.94,26.391 0,5.718 -3.02,9.687 -4.92,11.593 -4.3,4.454 -8.91,5.25 -15.89,6.672 -5.74,1.282 -12.08,2.391 -12.08,9.547 0,4.61 3.81,14.297 17.79,14.297 3.97,0 11.93,-1.109 14.3,-7.312" /><path
         id="path52"
         style="fill:#e6e6e6;fill-opacity:1;fill-rule:nonzero;stroke:none"
         d="m 3004.33,1064.74 c 0,86.58 -70.18,156.77 -156.76,156.77 -86.59,0 -156.77,-70.19 -156.77,-156.77 0,-86.584 70.18,-156.771 156.77,-156.771 86.58,0 156.76,70.187 156.76,156.771 z" /><path
         id="path54"
         style="fill:none;stroke:#000000;stroke-width:6.37644005;stroke-linecap:butt;stroke-linejoin:miter;stroke-miterlimit:10;stroke-dasharray:none;stroke-opacity:1"
         d="m 3004.33,1064.74 c 0,86.58 -70.18,156.77 -156.76,156.77 -86.59,0 -156.77,-70.19 -156.77,-156.77 0,-86.584 70.18,-156.771 156.77,-156.771 86.58,0 156.76,70.187 156.76,156.771 z" /><path
         id="path56"
         style="fill:#000000;fill-opacity:1;fill-rule:nonzero;stroke:none"
         d="m 2851,1061.56 h 44.34 c 2.24,0 5.25,0 5.25,3.17 0,3.18 -3.01,3.18 -5.25,3.18 H 2851 v 44.51 c 0,2.22 0,5.24 -3.17,5.24 -3.17,0 -3.17,-3.02 -3.17,-5.24 v -44.51 h -44.52 c -2.22,0 -5.23,0 -5.23,-3.18 0,-3.17 3.01,-3.17 5.23,-3.17 h 44.52 v -44.51 c 0,-2.22 0,-5.24 3.17,-5.24 3.17,0 3.17,3.02 3.17,5.24 v 44.51" /><path
         id="path58"
         style="fill:#e6e6e6;fill-opacity:1;fill-rule:nonzero;stroke:none"
         d="m 3488.96,865.469 h 637.66 v 398.539 h -637.66 z" /><path
         id="path60"
         style="fill:none;stroke:#000000;stroke-width:6.37644005;stroke-linecap:butt;stroke-linejoin:miter;stroke-miterlimit:10;stroke-dasharray:none;stroke-opacity:1"
         d="m 3488.96,865.469 h 637.66 v 398.539 h -637.66 z" /><path
         id="path62"
         style="fill:#000000;fill-opacity:1;fill-rule:nonzero;stroke:none"
         d="m 3654.08,1059.22 h 26.86 c 19.08,0 36.23,12.87 36.23,28.78 0,15.56 -15.73,29.56 -37.5,29.56 h -56.11 v -4.93 h 3.82 c 12.23,0 12.56,-1.75 12.56,-7.47 v -83.77 c 0,-5.72 -0.33,-7.47 -12.56,-7.47 h -3.82 V 1009 c 5.57,0.48 17.33,0.48 23.36,0.48 6.05,0 17.97,0 23.53,-0.48 v 4.92 h -3.81 c -12.25,0 -12.56,1.75 -12.56,7.47 z m -0.47,4.14 v 42.91 c 0,5.25 0.31,6.36 7.78,6.36 h 14.14 c 25.28,0 25.28,-16.85 25.28,-24.63 0,-7.48 0,-24.64 -25.28,-24.64 h -21.92" /><path
         id="path64"
         style="fill:#000000;fill-opacity:1;fill-rule:nonzero;stroke:none"
         d="m 3755.13,1119.3 -22.88,-1.74 v -4.93 c 11.13,0 12.39,-1.11 12.39,-8.9 v -82.65 c 0,-7.16 -1.75,-7.16 -12.39,-7.16 V 1009 c 5.23,0.16 13.66,0.48 17.64,0.48 3.97,0 11.77,-0.32 17.64,-0.48 v 4.92 c -10.65,0 -12.4,0 -12.4,7.16 v 98.22" /><path
         id="path66"
         style="fill:#000000;fill-opacity:1;fill-rule:nonzero;stroke:none"
         d="m 3823.92,1021.08 c 0.64,-6.36 4.94,-13.03 12.41,-13.03 3.33,0 13.03,2.22 13.03,15.09 v 8.91 h -3.97 v -8.91 c 0,-9.22 -3.98,-10.17 -5.73,-10.17 -5.24,0 -5.88,7.16 -5.88,7.95 v 31.78 c 0,6.69 0,12.88 -5.72,18.77 -6.2,6.19 -14.15,8.73 -21.78,8.73 -13.03,0 -24,-7.47 -24,-17.95 0,-4.78 3.19,-7.47 7.31,-7.47 4.46,0 7.32,3.17 7.32,7.3 0,1.92 -0.8,7.15 -8.11,7.31 4.29,5.56 12.08,7.31 17.17,7.31 7.78,0 16.84,-6.18 16.84,-20.34 v -5.88 c -8.11,-0.48 -19.23,-0.95 -29.25,-5.71 -11.9,-5.41 -15.89,-13.68 -15.89,-20.68 0,-12.87 15.42,-16.84 25.44,-16.84 10.48,0 17.8,6.36 20.81,13.83 z m -1.11,26.06 v -15.89 c 0,-15.09 -11.43,-20.5 -18.59,-20.5 -7.78,0 -14.31,5.56 -14.31,13.52 0,8.73 6.68,21.92 32.9,22.87" /><path
         id="path68"
         style="fill:#000000;fill-opacity:1;fill-rule:nonzero;stroke:none"
         d="m 3868.48,1063.67 v -42.59 c 0,-7.16 -1.75,-7.16 -12.39,-7.16 V 1009 c 5.57,0.16 13.66,0.48 17.96,0.48 4.12,0 12.39,-0.32 17.79,-0.48 v 4.92 c -10.64,0 -12.39,0 -12.39,7.16 v 29.25 c 0,16.53 11.28,25.42 21.46,25.42 10.01,0 11.76,-8.58 11.76,-17.64 v -37.03 c 0,-7.16 -1.75,-7.16 -12.4,-7.16 V 1009 c 5.56,0.16 13.67,0.48 17.96,0.48 4.13,0 12.4,-0.32 17.8,-0.48 v 4.92 c -8.26,0 -12.23,0 -12.39,4.77 v 30.36 c 0,13.67 0,18.61 -4.94,24.33 -2.22,2.7 -7.47,5.87 -16.68,5.87 -11.6,0 -19.07,-6.83 -23.52,-16.69 v 16.69 l -22.41,-1.75 v -4.92 c 11.13,0 12.39,-1.11 12.39,-8.91" /><path
         id="path70"
         style="fill:#000000;fill-opacity:1;fill-rule:nonzero;stroke:none"
         d="m 3962.5,1072.58 h 22.72 v 4.92 h -22.72 v 29.25 h -3.98 c -0.16,-13.03 -4.93,-30.05 -20.5,-30.67 v -3.5 h 13.51 v -43.88 c 0,-19.54 14.78,-21.45 20.5,-21.45 11.28,0 15.74,11.28 15.74,21.45 v 9.07 h -3.97 v -8.74 c 0,-11.76 -4.77,-17.81 -10.66,-17.81 -10.64,0 -10.64,14.47 -10.64,17.17 v 44.19" /><path
         id="path72"
         style="fill:none;stroke:#000000;stroke-width:6.37644005;stroke-linecap:butt;stroke-linejoin:miter;stroke-miterlimit:10;stroke-dasharray:none;stroke-opacity:1"
         d="M 448.332,1064.74 H 1047.73" /><path
         id="path74"
         style="fill:#000000;fill-opacity:1;fill-rule:nonzero;stroke:none"
         d="m 1085.99,1064.74 c -15.94,3.19 -44.63,9.56 -63.76,23.91 15.94,-17.54 15.94,-30.29 0,-47.83 19.13,14.35 47.82,20.73 63.76,23.92" /><path
         id="path76"
         style="fill:#000000;fill-opacity:1;fill-rule:nonzero;stroke:none"
         d="m 506.609,1258.59 c 0.954,3.82 1.422,5.41 4.438,5.88 1.437,0.16 6.516,0.16 9.703,0.16 11.281,0 28.922,0 28.922,-15.74 0,-5.41 -2.547,-16.37 -8.734,-22.56 -4.141,-4.14 -12.563,-9.22 -26.86,-9.22 h -17.812 z m 22.875,-43.54 c 16.063,3.48 34.969,14.61 34.969,30.67 0,13.67 -14.297,23.84 -35.125,23.84 h -45.297 c -3.172,0 -4.609,0 -4.609,-3.18 0,-1.75 1.437,-1.75 4.453,-1.75 0.313,0 3.344,0 6.031,-0.32 2.875,-0.31 4.297,-0.48 4.297,-2.54 0,-0.64 -0.156,-1.11 -0.64,-3.02 l -21.297,-85.36 c -1.578,-6.19 -1.907,-7.47 -14.453,-7.47 -2.86,0 -4.297,0 -4.297,-3.17 0,-1.75 1.906,-1.75 2.218,-1.75 4.454,0 15.579,0.48 20.032,0.48 4.453,0 15.734,-0.48 20.187,-0.48 1.266,0 3.172,0 3.172,3.17 0,1.75 -1.422,1.75 -4.437,1.75 -5.891,0 -10.344,0 -10.344,2.86 0,0.95 0.328,1.75 0.484,2.7 l 10.485,42.13 h 18.921 c 14.454,0 17.329,-8.91 17.329,-14.47 0,-2.37 -1.282,-7.31 -2.235,-10.97 -1.109,-4.44 -2.547,-10.33 -2.547,-13.5 0,-17.17 19.078,-17.17 21.141,-17.17 13.516,0 19.078,16.06 19.078,18.28 0,1.91 -1.75,1.91 -1.906,1.91 -1.438,0 -1.75,-1.11 -2.063,-2.22 -3.984,-11.77 -10.812,-14.47 -14.468,-14.47 -5.25,0 -6.36,3.5 -6.36,9.69 0,4.94 0.953,13.04 1.594,18.12 0.312,2.24 0.641,5.25 0.641,7.47 0,12.24 -10.657,17.17 -14.954,18.77" /><path
         id="path78"
         style="fill:#000000;fill-opacity:1;fill-rule:nonzero;stroke:none"
         d="m 622.609,1122.86 c 0,0.47 0,0.8 -2.703,3.48 -19.859,20.04 -24.953,50.08 -24.953,74.39 0,27.66 6.047,55.32 25.594,75.18 2.062,1.92 2.062,2.23 2.062,2.7 0,1.12 -0.64,1.59 -1.593,1.59 -1.578,0 -15.891,-10.81 -25.266,-30.98 -8.109,-17.49 -10.016,-35.14 -10.016,-48.49 0,-12.39 1.75,-31.62 10.485,-49.59 9.547,-19.55 23.219,-29.87 24.797,-29.87 0.953,0 1.593,0.46 1.593,1.59" /><path
         id="path80"
         style="fill:#000000;fill-opacity:1;fill-rule:nonzero;stroke:none"
         d="m 694.141,1220.44 c -4.453,-0.16 -7.625,-3.66 -7.625,-7.14 0,-2.24 1.437,-4.61 4.922,-4.61 3.5,0 7.312,2.7 7.312,8.89 0,7.15 -6.828,13.67 -18.906,13.67 -20.985,0 -26.86,-16.2 -26.86,-23.2 0,-12.39 11.75,-14.78 16.36,-15.74 8.265,-1.59 16.531,-3.34 16.531,-12.08 0,-4.14 -3.656,-17.48 -22.719,-17.48 -2.234,0 -14.468,0 -18.125,8.42 6.047,-0.79 10.016,3.97 10.016,8.42 0,3.66 -2.547,5.57 -5.875,5.57 -4.141,0 -8.906,-3.33 -8.906,-10.49 0,-9.06 9.062,-15.42 22.734,-15.42 25.734,0 31.938,19.23 31.938,26.39 0,5.72 -3.016,9.69 -4.922,11.59 -4.297,4.46 -8.907,5.25 -15.891,6.68 -5.734,1.28 -12.078,2.39 -12.078,9.54 0,4.61 3.812,14.3 17.797,14.3 3.969,0 11.922,-1.11 14.297,-7.31" /><path
         id="path82"
         style="fill:#000000;fill-opacity:1;fill-rule:nonzero;stroke:none"
         d="m 751.938,1200.73 c 0,12.4 -1.75,31.63 -10.5,49.6 -9.532,19.55 -23.204,29.87 -24.782,29.87 -0.968,0 -1.593,-0.64 -1.593,-1.59 0,-0.47 0,-0.78 3.015,-3.66 15.578,-15.73 24.641,-41 24.641,-74.22 0,-27.17 -5.891,-55.15 -25.594,-75.17 -2.062,-1.9 -2.062,-2.23 -2.062,-2.7 0,-0.95 0.625,-1.59 1.593,-1.59 1.578,0 15.891,10.81 25.266,31 8.109,17.46 10.016,35.12 10.016,48.46" /><path
         id="path84"
         style="fill:none;stroke:#000000;stroke-width:6.37644005;stroke-linecap:butt;stroke-linejoin:miter;stroke-miterlimit:10;stroke-dasharray:none;stroke-opacity:1"
         d="m 1405.91,1064.74 h 599.4" /><path
         id="path86"
         style="fill:#000000;fill-opacity:1;fill-rule:nonzero;stroke:none"
         d="m 2043.57,1064.74 c -15.94,3.19 -44.64,9.56 -63.77,23.91 15.95,-17.54 15.95,-30.29 0,-47.83 19.13,14.35 47.83,20.73 63.77,23.92" /><path
         id="path88"
         style="fill:#000000;fill-opacity:1;fill-rule:nonzero;stroke:none"
         d="m 1546.53,1198.03 c 0.31,0.8 0.8,1.91 0.8,2.24 0,0.15 0,1.73 -1.91,1.73 -1.44,0 -1.75,-0.95 -2.08,-1.91 -10.32,-23.51 -16.2,-34.17 -43.39,-34.17 h -23.2 c -2.22,0 -2.53,0 -3.48,0.17 -1.6,0.16 -2.08,0.32 -2.08,1.58 0,0.49 0,0.8 0.79,3.66 l 10.82,43.39 h 15.73 c 13.52,0 13.52,-3.33 13.52,-7.31 0,-1.11 0,-3.02 -1.13,-7.78 -0.31,-0.8 -0.47,-1.29 -0.47,-1.75 0,-0.8 0.63,-1.75 2.07,-1.75 1.26,0 1.75,0.79 2.39,3.17 l 9.04,37.2 c 0,0.95 -0.78,1.75 -1.9,1.75 -1.42,0 -1.75,-0.95 -2.22,-2.86 -3.35,-12.09 -6.2,-15.73 -20.83,-15.73 h -14.94 l 9.55,38.29 c 1.42,5.57 1.58,6.21 8.58,6.21 h 22.4 c 19.39,0 24.16,-4.61 24.16,-17.64 0,-3.83 0,-4.14 -0.62,-8.44 0,-0.95 -0.18,-2.06 -0.18,-2.86 0,-0.78 0.49,-1.91 1.91,-1.91 1.75,0 1.92,0.96 2.23,3.99 l 3.18,27.48 c 0.48,4.3 -0.32,4.3 -4.29,4.3 h -80.26 c -3.19,0 -4.77,0 -4.77,-3.17 0,-1.75 1.43,-1.75 4.44,-1.75 5.89,0 10.34,0 10.34,-2.86 0,-0.64 0,-0.96 -0.79,-3.83 l -20.99,-84.08 c -1.59,-6.19 -1.9,-7.47 -14.47,-7.47 -2.7,0 -4.43,0 -4.43,-3.01 0,-1.91 1.42,-1.91 4.43,-1.91 h 82.5 c 3.66,0 3.82,0.16 4.93,2.7 l 14.62,34.33" /><path
         id="path90"
         style="fill:#000000;fill-opacity:1;fill-rule:nonzero;stroke:none"
         d="m 1613.61,1122.86 c 0,0.47 0,0.8 -2.7,3.48 -19.86,20.04 -24.96,50.08 -24.96,74.39 0,27.66 6.05,55.32 25.6,75.18 2.06,1.92 2.06,2.23 2.06,2.7 0,1.12 -0.64,1.59 -1.59,1.59 -1.58,0 -15.89,-10.81 -25.27,-30.98 -8.11,-17.49 -10.02,-35.14 -10.02,-48.49 0,-12.39 1.75,-31.62 10.49,-49.59 9.55,-19.55 23.22,-29.87 24.8,-29.87 0.95,0 1.59,0.46 1.59,1.59" /><path
         id="path92"
         style="fill:#000000;fill-opacity:1;fill-rule:nonzero;stroke:none"
         d="m 1685.14,1220.44 c -4.45,-0.16 -7.62,-3.66 -7.62,-7.14 0,-2.24 1.43,-4.61 4.92,-4.61 3.5,0 7.31,2.7 7.31,8.89 0,7.15 -6.83,13.67 -18.91,13.67 -20.98,0 -26.86,-16.2 -26.86,-23.2 0,-12.39 11.75,-14.78 16.36,-15.74 8.27,-1.59 16.54,-3.34 16.54,-12.08 0,-4.14 -3.66,-17.48 -22.72,-17.48 -2.24,0 -14.47,0 -18.13,8.42 6.05,-0.79 10.02,3.97 10.02,8.42 0,3.66 -2.55,5.57 -5.88,5.57 -4.14,0 -8.9,-3.33 -8.9,-10.49 0,-9.06 9.06,-15.42 22.73,-15.42 25.73,0 31.94,19.23 31.94,26.39 0,5.72 -3.02,9.69 -4.92,11.59 -4.3,4.46 -8.91,5.25 -15.89,6.68 -5.74,1.28 -12.08,2.39 -12.08,9.54 0,4.61 3.81,14.3 17.79,14.3 3.97,0 11.93,-1.11 14.3,-7.31" /><path
         id="path94"
         style="fill:#000000;fill-opacity:1;fill-rule:nonzero;stroke:none"
         d="m 1743.94,1200.73 c 0,12.4 -1.75,31.63 -10.5,49.6 -9.53,19.55 -23.21,29.87 -24.78,29.87 -0.97,0 -1.6,-0.64 -1.6,-1.59 0,-0.47 0,-0.78 3.02,-3.66 15.58,-15.73 24.64,-41 24.64,-74.22 0,-27.17 -5.89,-55.15 -25.59,-75.17 -2.07,-1.9 -2.07,-2.23 -2.07,-2.7 0,-0.95 0.63,-1.59 1.6,-1.59 1.57,0 15.89,10.81 25.26,31 8.11,17.46 10.02,35.12 10.02,48.46" /><path
         id="path96"
         style="fill:none;stroke:#000000;stroke-width:6.37644005;stroke-linecap:butt;stroke-linejoin:miter;stroke-miterlimit:10;stroke-dasharray:none;stroke-opacity:1"
         d="m 3007.52,1064.74 h 439.99" /><path
         id="path98"
         style="fill:#000000;fill-opacity:1;fill-rule:nonzero;stroke:none"
         d="m 3485.77,1064.74 c -15.95,3.19 -44.64,9.56 -63.77,23.91 15.95,-17.54 15.95,-30.29 0,-47.83 19.13,14.35 47.82,20.73 63.77,23.92" /><path
         id="path100"
         style="fill:#000000;fill-opacity:1;fill-rule:nonzero;stroke:none"
         d="m 3184.92,1252.86 c 1.6,6.53 4.46,11.3 17.17,11.77 0.8,0 2.71,0.15 2.71,3.18 0,0.16 0,1.75 -2.07,1.75 -5.25,0 -10.81,-0.48 -16.21,-0.48 -5.41,0 -11.29,0.48 -16.54,0.48 -0.95,0 -2.85,0 -2.85,-3.18 0,-1.75 1.59,-1.75 2.85,-1.75 9.07,-0.16 10.82,-3.5 10.82,-6.99 0,-0.48 -0.33,-2.86 -0.49,-3.34 l -14.29,-56.74 c -5.41,-21.29 -23.69,-35.12 -39.58,-35.12 -10.81,0 -19.39,6.98 -19.39,20.65 0,0.32 0,5.41 1.75,12.39 l 15.42,61.83 c 1.42,5.74 1.73,7.32 13.34,7.32 4.13,0 5.41,0 5.41,3.18 0,1.75 -1.75,1.75 -2.24,1.75 -4.43,0 -15.89,-0.48 -20.34,-0.48 -4.61,0 -15.89,0.48 -20.5,0.48 -1.26,0 -3.01,0 -3.01,-3.18 0,-1.75 1.42,-1.75 4.45,-1.75 0.31,0 3.33,0 6.03,-0.32 2.86,-0.31 4.3,-0.48 4.3,-2.54 0,-0.96 -1.75,-7.63 -2.71,-11.29 l -3.5,-13.98 c -1.42,-6.2 -9.06,-36.23 -9.68,-39.27 -1.11,-4.45 -1.11,-6.82 -1.11,-9.21 0,-19.39 14.45,-30.52 31.14,-30.52 20.03,0 39.73,17.97 44.98,38.94 l 14.14,56.42" /><path
         id="path102"
         style="fill:#000000;fill-opacity:1;fill-rule:nonzero;stroke:none"
         d="m 3262.61,1122.86 c 0,0.47 0,0.8 -2.7,3.48 -19.86,20.04 -24.96,50.08 -24.96,74.39 0,27.66 6.05,55.32 25.6,75.18 2.06,1.92 2.06,2.23 2.06,2.7 0,1.12 -0.64,1.59 -1.59,1.59 -1.58,0 -15.89,-10.81 -25.27,-30.98 -8.11,-17.49 -10.02,-35.14 -10.02,-48.49 0,-12.39 1.75,-31.62 10.49,-49.59 9.55,-19.55 23.22,-29.87 24.8,-29.87 0.95,0 1.59,0.46 1.59,1.59" /><path
         id="path104"
         style="fill:#000000;fill-opacity:1;fill-rule:nonzero;stroke:none"
         d="m 3334.14,1220.44 c -4.45,-0.16 -7.62,-3.66 -7.62,-7.14 0,-2.24 1.43,-4.61 4.92,-4.61 3.5,0 7.31,2.7 7.31,8.89 0,7.15 -6.83,13.67 -18.91,13.67 -20.98,0 -26.86,-16.2 -26.86,-23.2 0,-12.39 11.75,-14.78 16.36,-15.74 8.27,-1.59 16.54,-3.34 16.54,-12.08 0,-4.14 -3.66,-17.48 -22.72,-17.48 -2.24,0 -14.47,0 -18.13,8.42 6.05,-0.79 10.02,3.97 10.02,8.42 0,3.66 -2.55,5.57 -5.88,5.57 -4.14,0 -8.9,-3.33 -8.9,-10.49 0,-9.06 9.06,-15.42 22.73,-15.42 25.73,0 31.94,19.23 31.94,26.39 0,5.72 -3.02,9.69 -4.92,11.59 -4.3,4.46 -8.91,5.25 -15.89,6.68 -5.74,1.28 -12.08,2.39 -12.08,9.54 0,4.61 3.81,14.3 17.79,14.3 3.97,0 11.93,-1.11 14.3,-7.31" /><path
         id="path106"
         style="fill:#000000;fill-opacity:1;fill-rule:nonzero;stroke:none"
         d="m 3392.94,1200.73 c 0,12.4 -1.75,31.63 -10.5,49.6 -9.53,19.55 -23.21,29.87 -24.78,29.87 -0.97,0 -1.6,-0.64 -1.6,-1.59 0,-0.47 0,-0.78 3.02,-3.66 15.58,-15.73 24.64,-41 24.64,-74.22 0,-27.17 -5.89,-55.15 -25.59,-75.17 -2.07,-1.9 -2.07,-2.23 -2.07,-2.7 0,-0.95 0.63,-1.59 1.6,-1.59 1.57,0 15.89,10.81 25.26,31 8.11,17.46 10.02,35.12 10.02,48.46" /><path
         id="path108"
         style="fill:none;stroke:#000000;stroke-width:6.37644005;stroke-linecap:butt;stroke-linejoin:miter;stroke-miterlimit:10;stroke-dasharray:none;stroke-opacity:1"
         d="m 4129.8,1064.74 h 679.12" /><path
         id="path110"
         style="fill:#000000;fill-opacity:1;fill-rule:nonzero;stroke:none"
         d="m 4847.18,1064.74 c -15.95,3.19 -44.64,9.56 -63.77,23.91 15.94,-17.54 15.94,-30.29 0,-47.83 19.13,14.35 47.82,20.73 63.77,23.92" /><path
         id="path112"
         style="fill:#000000;fill-opacity:1;fill-rule:nonzero;stroke:none"
         d="m 4598.89,1251.44 2.22,2.22 c 4.77,4.78 10.02,10.17 20.83,10.97 1.75,0.15 3.17,0.15 3.17,3.01 0,1.28 -0.8,1.92 -2.06,1.92 -4.14,0 -8.75,-0.48 -13.03,-0.48 -5.25,0 -10.82,0.48 -15.89,0.48 -0.96,0 -3.04,0 -3.04,-3.03 0,-1.75 1.6,-1.9 2.39,-1.9 1.11,0 5.72,-0.32 5.72,-3.66 0,-2.7 -3.65,-6.83 -4.29,-7.63 l -36.86,-42.43 -17.49,47.2 c -0.95,2.23 -0.95,2.55 -0.95,2.7 0,3.82 7.78,3.82 9.37,3.82 2.22,0 3.82,0 3.82,3.18 0,1.75 -1.91,1.75 -2.39,1.75 -4.46,0 -15.58,-0.48 -20.02,-0.48 -3.98,0 -13.83,0.48 -17.81,0.48 -0.95,0 -3.02,0 -3.02,-3.18 0,-1.75 1.6,-1.75 3.66,-1.75 9.53,0 10.17,-1.43 11.61,-5.41 l 19.55,-52.28 c 0.15,-0.49 0.62,-2.24 0.62,-2.71 0,-0.48 -6.34,-26.06 -7.14,-28.93 -2.08,-8.74 -2.23,-9.21 -14.95,-9.38 -3.02,0 -4.28,0 -4.28,-3.17 0,-1.75 1.9,-1.75 2.21,-1.75 4.46,0 15.58,0.48 20.04,0.48 4.45,0 15.89,-0.48 20.34,-0.48 1.11,0 3.01,0 3.01,3.17 0,1.75 -1.42,1.75 -4.45,1.75 -0.31,0 -3.33,0 -6.03,0.33 -3.34,0.31 -4.3,0.63 -4.3,2.53 0,1.13 1.44,6.69 2.24,10.02 l 5.56,22.42 c 0.8,3.01 0.95,3.48 2.22,4.92 l 39.42,45.3" /><path
         id="path114"
         style="fill:#000000;fill-opacity:1;fill-rule:nonzero;stroke:none"
         d="m 4684.61,1122.86 c 0,0.47 0,0.8 -2.7,3.48 -19.86,20.04 -24.96,50.08 -24.96,74.39 0,27.66 6.05,55.32 25.6,75.18 2.06,1.92 2.06,2.23 2.06,2.7 0,1.12 -0.64,1.59 -1.59,1.59 -1.58,0 -15.89,-10.81 -25.27,-30.98 -8.11,-17.49 -10.02,-35.14 -10.02,-48.49 0,-12.39 1.75,-31.62 10.49,-49.59 9.55,-19.55 23.22,-29.87 24.8,-29.87 0.95,0 1.59,0.46 1.59,1.59" /><path
         id="path116"
         style="fill:#000000;fill-opacity:1;fill-rule:nonzero;stroke:none"
         d="m 4756.14,1220.44 c -4.45,-0.16 -7.62,-3.66 -7.62,-7.14 0,-2.24 1.43,-4.61 4.92,-4.61 3.5,0 7.31,2.7 7.31,8.89 0,7.15 -6.83,13.67 -18.91,13.67 -20.98,0 -26.86,-16.2 -26.86,-23.2 0,-12.39 11.75,-14.78 16.36,-15.74 8.27,-1.59 16.54,-3.34 16.54,-12.08 0,-4.14 -3.66,-17.48 -22.72,-17.48 -2.24,0 -14.47,0 -18.13,8.42 6.05,-0.79 10.02,3.97 10.02,8.42 0,3.66 -2.55,5.57 -5.88,5.57 -4.14,0 -8.9,-3.33 -8.9,-10.49 0,-9.06 9.06,-15.42 22.73,-15.42 25.73,0 31.94,19.23 31.94,26.39 0,5.72 -3.02,9.69 -4.92,11.59 -4.3,4.46 -8.91,5.25 -15.89,6.68 -5.74,1.28 -12.08,2.39 -12.08,9.54 0,4.61 3.81,14.3 17.79,14.3 3.97,0 11.93,-1.11 14.3,-7.31" /><path
         id="path118"
         style="fill:#000000;fill-opacity:1;fill-rule:nonzero;stroke:none"
         d="m 4814.94,1200.73 c 0,12.4 -1.75,31.63 -10.5,49.6 -9.53,19.55 -23.21,29.87 -24.78,29.87 -0.97,0 -1.6,-0.64 -1.6,-1.59 0,-0.47 0,-0.78 3.02,-3.66 15.58,-15.73 24.64,-41 24.64,-74.22 0,-27.17 -5.89,-55.15 -25.59,-75.17 -2.07,-1.9 -2.07,-2.23 -2.07,-2.7 0,-0.95 0.63,-1.59 1.6,-1.59 1.57,0 15.89,10.81 25.26,31 8.11,17.46 10.02,35.12 10.02,48.46" /><path
         id="path120"
         style="fill:#000000;fill-opacity:1;fill-rule:nonzero;stroke:none"
         d="m 4385.94,1064.74 c 0,9.39 -7.62,17.01 -17.01,17.01 -9.39,0 -17.01,-7.62 -17.01,-17.01 0,-9.4 7.62,-17.01 17.01,-17.01 9.39,0 17.01,7.61 17.01,17.01 z" /><path
         id="path122"
         style="fill:none;stroke:#000000;stroke-width:6.37644005;stroke-linecap:butt;stroke-linejoin:miter;stroke-miterlimit:10;stroke-dasharray:none;stroke-opacity:1"
         d="m 4385.94,1064.74 c 0,9.39 -7.62,17.01 -17.01,17.01 -9.39,0 -17.01,-7.62 -17.01,-17.01 0,-9.4 7.62,-17.01 17.01,-17.01 9.39,0 17.01,7.61 17.01,17.01 z" /><path
         id="path124"
         style="fill:none;stroke:#000000;stroke-width:6.37644005;stroke-linecap:butt;stroke-linejoin:miter;stroke-miterlimit:10;stroke-dasharray:none;stroke-opacity:1"
         d="M 4368.93,1044.54 V 144.91 H 1245.95 v 721.613" /><path
         id="path126"
         style="fill:#000000;fill-opacity:1;fill-rule:nonzero;stroke:none"
         d="m 1245.95,904.781 c -3.19,-15.941 -9.56,-44.636 -23.91,-63.765 17.53,15.941 30.29,15.941 47.82,0 -14.34,19.129 -20.72,47.824 -23.91,63.765" /><path
         id="path128"
         style="fill:#000000;fill-opacity:1;fill-rule:nonzero;stroke:none"
         d="m 1170.73,825.563 c 2.71,0 5.57,0 5.57,3.171 0,3.172 -2.86,3.172 -5.57,3.172 h -85.98 c -2.7,0 -5.56,0 -5.56,-3.172 0,-3.171 2.86,-3.171 5.56,-3.171 h 85.98" /><path
         id="path130"
         style="fill:#000000;fill-opacity:1;fill-rule:nonzero;stroke:none"
         d="m 1821.46,1064.74 c 0,9.39 -7.62,17.01 -17.01,17.01 -9.4,0 -17.01,-7.62 -17.01,-17.01 0,-9.4 7.61,-17.01 17.01,-17.01 9.39,0 17.01,7.61 17.01,17.01 z" /><path
         id="path132"
         style="fill:none;stroke:#000000;stroke-width:6.37644005;stroke-linecap:butt;stroke-linejoin:miter;stroke-miterlimit:10;stroke-dasharray:none;stroke-opacity:1"
         d="m 1821.46,1064.74 c 0,9.39 -7.62,17.01 -17.01,17.01 -9.4,0 -17.01,-7.62 -17.01,-17.01 0,-9.4 7.61,-17.01 17.01,-17.01 9.39,0 17.01,7.61 17.01,17.01 z" /><path
         id="path134"
         style="fill:none;stroke:#000000;stroke-width:6.37644005;stroke-linecap:butt;stroke-linejoin:miter;stroke-miterlimit:10;stroke-dasharray:none;stroke-opacity:1"
         d="m 1804.45,1064.74 v 564.33 h 200.86" /><path
         id="path136"
         style="fill:#000000;fill-opacity:1;fill-rule:nonzero;stroke:none"
         d="m 2043.57,1629.07 c -15.94,3.19 -44.64,9.56 -63.77,23.91 15.95,-17.53 15.95,-30.29 0,-47.82 19.13,14.34 47.83,20.72 63.77,23.91" /><path
         id="path138"
         style="fill:none;stroke:#000000;stroke-width:6.37644005;stroke-linecap:butt;stroke-linejoin:miter;stroke-miterlimit:10;stroke-dasharray:none;stroke-opacity:1"
         d="M 1804.45,1064.74 V 500.406 h 200.86" /><path
         id="path140"
         style="fill:#000000;fill-opacity:1;fill-rule:nonzero;stroke:none"
         d="m 2043.57,500.406 c -15.94,3.188 -44.64,9.567 -63.77,23.914 15.95,-17.535 15.95,-30.289 0,-47.824 19.13,14.348 47.83,20.723 63.77,23.91" /><path
         id="path142"
         style="fill:none;stroke:#000000;stroke-width:6.37644005;stroke-linecap:butt;stroke-linejoin:miter;stroke-miterlimit:10;stroke-dasharray:none;stroke-opacity:1"
         d="m 2448.48,1629.07 284.65,-402.5" /><path
         id="path144"
         style="fill:#000000;fill-opacity:1;fill-rule:nonzero;stroke:none"
         d="m 2755.21,1195.33 c -6.6,14.86 -17.96,41.97 -17.29,65.87 -5.11,-23.14 -15.53,-30.5 -39.04,-27.61 22.75,-7.34 44.53,-27.08 56.33,-38.26" /><path
         id="path146"
         style="fill:none;stroke:#000000;stroke-width:6.37644005;stroke-linecap:butt;stroke-linejoin:miter;stroke-miterlimit:10;stroke-dasharray:none;stroke-opacity:1"
         d="m 2448.48,1064.74 h 200.87" /><path
         id="path148"
         style="fill:#000000;fill-opacity:1;fill-rule:nonzero;stroke:none"
         d="m 2687.61,1064.74 c -15.95,3.19 -44.64,9.56 -63.77,23.91 15.95,-17.54 15.95,-30.29 0,-47.83 19.13,14.35 47.82,20.73 63.77,23.92" /><path
         id="path150"
         style="fill:none;stroke:#000000;stroke-width:6.37644005;stroke-linecap:butt;stroke-linejoin:miter;stroke-miterlimit:10;stroke-dasharray:none;stroke-opacity:1"
         d="m 2448.48,500.406 284.65,402.5" /><path
         id="path152"
         style="fill:#000000;fill-opacity:1;fill-rule:nonzero;stroke:none"
         d="m 2755.21,934.141 c -11.8,-11.172 -33.58,-30.918 -56.33,-38.25 23.51,2.89 33.93,-4.473 39.04,-27.614 -0.67,23.903 10.69,51.008 17.29,65.864" /></g></g></svg>