<?xml version="1.0" encoding="UTF-8" standalone="no"?>
<!DOCTYPE svg PUBLIC "-//W3C//DTD SVG 1.1//EN"
 "http://www.w3.org/Graphics/SVG/1.1/DTD/svg11.dtd">
<!-- Generated by graphviz version 2.38.0 (20140413.2041)
 -->
<!-- Title: Selector::begin Pages: 1 -->
<svg width="514pt" height="104pt"
 viewBox="0.00 0.00 514.00 104.00" xmlns="http://www.w3.org/2000/svg" xmlns:xlink="http://www.w3.org/1999/xlink">
<g id="graph0" class="graph" transform="scale(1 1) rotate(0) translate(4 100)">
<title>Selector::begin</title>
<polygon fill="white" stroke="none" points="-4,4 -4,-100 510,-100 510,4 -4,4"/>
<!-- Node2 -->
<g id="node1" class="node"><title>Node2</title>
<g id="a_node1"><a xlink:title=" ">
<polygon fill="#bfbfbf" stroke="black" points="0,-38.5 0,-57.5 82,-57.5 82,-38.5 0,-38.5"/>
<text text-anchor="middle" x="41" y="-45.5" font-family="Helvetica,sans-Serif" font-size="10.00">Selector::begin</text>
</a>
</g>
</g>
<!-- Node3 -->
<g id="node2" class="node"><title>Node3</title>
<g id="a_node2"><a xlink:href="../../d1/d54/classSelector.html#aedf651d52b4657c226a0407bc4558183" target="_top" xlink:title=" ">
<polygon fill="white" stroke="black" points="118,-76.5 118,-95.5 229,-95.5 229,-76.5 118,-76.5"/>
<text text-anchor="middle" x="173.5" y="-83.5" font-family="Helvetica,sans-Serif" font-size="10.00">Selector::beginOutput</text>
</a>
</g>
</g>
<!-- Node2&#45;&gt;Node3 -->
<g id="edge1" class="edge"><title>Node2&#45;&gt;Node3</title>
<path fill="none" stroke="midnightblue" d="M74.9307,-57.589C91.6224,-62.4494 112.089,-68.4091 129.96,-73.6127"/>
<polygon fill="midnightblue" stroke="midnightblue" points="129,-76.9787 139.58,-76.4141 130.957,-70.2578 129,-76.9787"/>
</g>
<!-- Node4 -->
<g id="node3" class="node"><title>Node4</title>
<g id="a_node3"><a xlink:href="../../d1/d54/classSelector.html#a1250b18b06f75d2eaef3a1906b7d94cf" target="_top" xlink:title=" ">
<polygon fill="white" stroke="black" points="133.5,-38.5 133.5,-57.5 213.5,-57.5 213.5,-38.5 133.5,-38.5"/>
<text text-anchor="middle" x="173.5" y="-45.5" font-family="Helvetica,sans-Serif" font-size="10.00">Selector::reset</text>
</a>
</g>
</g>
<!-- Node2&#45;&gt;Node4 -->
<g id="edge2" class="edge"><title>Node2&#45;&gt;Node4</title>
<path fill="none" stroke="midnightblue" d="M82.2191,-48C95.1097,-48 109.536,-48 123.01,-48"/>
<polygon fill="midnightblue" stroke="midnightblue" points="123.086,-51.5001 133.086,-48 123.086,-44.5001 123.086,-51.5001"/>
</g>
<!-- Node9 -->
<g id="node8" class="node"><title>Node9</title>
<g id="a_node8"><a xlink:href="../../d1/d54/classSelector.html#aa07233bff4bb5c742f53e284980281b0" target="_top" xlink:title=" ">
<polygon fill="white" stroke="black" points="121.5,-0.5 121.5,-19.5 225.5,-19.5 225.5,-0.5 121.5,-0.5"/>
<text text-anchor="middle" x="173.5" y="-7.5" font-family="Helvetica,sans-Serif" font-size="10.00">Selector::beginInput</text>
</a>
</g>
</g>
<!-- Node2&#45;&gt;Node9 -->
<g id="edge7" class="edge"><title>Node2&#45;&gt;Node9</title>
<path fill="none" stroke="midnightblue" d="M74.9307,-38.411C91.6224,-33.5506 112.089,-27.5909 129.96,-22.3873"/>
<polygon fill="midnightblue" stroke="midnightblue" points="130.957,-25.7422 139.58,-19.5859 129,-19.0213 130.957,-25.7422"/>
</g>
<!-- Node5 -->
<g id="node4" class="node"><title>Node5</title>
<g id="a_node4"><a xlink:href="../../d1/d54/classSelector.html#ab567692bb6cb8509a2856a6cd6f46361" target="_top" xlink:title=" ">
<polygon fill="white" stroke="black" points="265,-38.5 265,-57.5 337,-57.5 337,-38.5 265,-38.5"/>
<text text-anchor="middle" x="301" y="-45.5" font-family="Helvetica,sans-Serif" font-size="10.00">Selector::set</text>
</a>
</g>
</g>
<!-- Node4&#45;&gt;Node5 -->
<g id="edge3" class="edge"><title>Node4&#45;&gt;Node5</title>
<path fill="none" stroke="midnightblue" d="M213.521,-48C226.594,-48 241.279,-48 254.785,-48"/>
<polygon fill="midnightblue" stroke="midnightblue" points="254.838,-51.5001 264.838,-48 254.838,-44.5001 254.838,-51.5001"/>
</g>
<!-- Node6 -->
<g id="node5" class="node"><title>Node6</title>
<g id="a_node5"><a xlink:href="../../de/de7/classSelectable.html#a84428fa44ab8703ba47eee0a896a3a96" target="_top" xlink:title=" ">
<polygon fill="white" stroke="black" points="373,-76.5 373,-95.5 506,-95.5 506,-76.5 373,-76.5"/>
<text text-anchor="middle" x="439.5" y="-83.5" font-family="Helvetica,sans-Serif" font-size="10.00">Selectable::validateSetting</text>
</a>
</g>
</g>
<!-- Node5&#45;&gt;Node6 -->
<g id="edge4" class="edge"><title>Node5&#45;&gt;Node6</title>
<path fill="none" stroke="midnightblue" d="M336.445,-57.589C353.985,-62.4719 375.51,-68.4643 394.263,-73.685"/>
<polygon fill="midnightblue" stroke="midnightblue" points="393.494,-77.1039 404.066,-76.4141 395.371,-70.3603 393.494,-77.1039"/>
</g>
<!-- Node7 -->
<g id="node6" class="node"><title>Node7</title>
<g id="a_node6"><a xlink:href="../../d1/d54/classSelector.html#ac237b74d01da9cb157c4180624afa111" target="_top" xlink:title=" ">
<polygon fill="white" stroke="black" points="381,-38.5 381,-57.5 498,-57.5 498,-38.5 381,-38.5"/>
<text text-anchor="middle" x="439.5" y="-45.5" font-family="Helvetica,sans-Serif" font-size="10.00">Selector::updateOutput</text>
</a>
</g>
</g>
<!-- Node5&#45;&gt;Node7 -->
<g id="edge5" class="edge"><title>Node5&#45;&gt;Node7</title>
<path fill="none" stroke="midnightblue" d="M337.152,-48C347.477,-48 359.136,-48 370.774,-48"/>
<polygon fill="midnightblue" stroke="midnightblue" points="370.963,-51.5001 380.963,-48 370.962,-44.5001 370.963,-51.5001"/>
</g>
<!-- Node8 -->
<g id="node7" class="node"><title>Node8</title>
<g id="a_node7"><a xlink:href="../../d1/d54/classSelector.html#a3752b5ddd24addec01b3898f55c0a8ab" target="_top" xlink:title=" ">
<polygon fill="white" stroke="black" points="403.5,-0.5 403.5,-19.5 475.5,-19.5 475.5,-0.5 403.5,-0.5"/>
<text text-anchor="middle" x="439.5" y="-7.5" font-family="Helvetica,sans-Serif" font-size="10.00">Selector::get</text>
</a>
</g>
</g>
<!-- Node5&#45;&gt;Node8 -->
<g id="edge6" class="edge"><title>Node5&#45;&gt;Node8</title>
<path fill="none" stroke="midnightblue" d="M336.445,-38.411C353.985,-33.5281 375.51,-27.5357 394.263,-22.315"/>
<polygon fill="midnightblue" stroke="midnightblue" points="395.371,-25.6397 404.066,-19.5859 393.494,-18.8961 395.371,-25.6397"/>
</g>
</g>
</svg>
