<?xml version="1.0" encoding="UTF-8" standalone="no"?>
<!DOCTYPE svg PUBLIC "-//W3C//DTD SVG 1.1//EN"
 "http://www.w3.org/Graphics/SVG/1.1/DTD/svg11.dtd">
<!-- Generated by graphviz version 2.38.0 (20140413.2041)
 -->
<!-- Title: StaticSizeExtendedIOElement.hpp Pages: 1 -->
<svg width="420pt" height="196pt"
 viewBox="0.00 0.00 419.50 196.00" xmlns="http://www.w3.org/2000/svg" xmlns:xlink="http://www.w3.org/1999/xlink">
<g id="graph0" class="graph" transform="scale(1 1) rotate(0) translate(4 192)">
<title>StaticSizeExtendedIOElement.hpp</title>
<polygon fill="white" stroke="none" points="-4,4 -4,-192 415.5,-192 415.5,4 -4,4"/>
<!-- Node1 -->
<g id="node1" class="node"><title>Node1</title>
<g id="a_node1"><a xlink:title=" ">
<polygon fill="#bfbfbf" stroke="black" points="44,-168.5 44,-187.5 212,-187.5 212,-168.5 44,-168.5"/>
<text text-anchor="middle" x="128" y="-175.5" font-family="Helvetica,sans-Serif" font-size="10.00">StaticSizeExtendedIOElement.hpp</text>
</a>
</g>
</g>
<!-- Node2 -->
<g id="node2" class="node"><title>Node2</title>
<g id="a_node2"><a xlink:href="../../d7/def/AnalogMultiplex_8hpp.html" target="_top" xlink:title=" ">
<polygon fill="white" stroke="black" points="0,-56.5 0,-75.5 104,-75.5 104,-56.5 0,-56.5"/>
<text text-anchor="middle" x="52" y="-63.5" font-family="Helvetica,sans-Serif" font-size="10.00">AnalogMultiplex.hpp</text>
</a>
</g>
</g>
<!-- Node1&#45;&gt;Node2 -->
<g id="edge1" class="edge"><title>Node1&#45;&gt;Node2</title>
<path fill="none" stroke="midnightblue" d="M108.578,-162.024C99.0372,-153.923 87.9202,-143.279 80,-132 67.1489,-113.699 58.4184,-88.5664 54.4448,-75.5661"/>
<polygon fill="midnightblue" stroke="midnightblue" points="106.477,-164.827 116.437,-168.441 110.905,-159.405 106.477,-164.827"/>
</g>
<!-- Node4 -->
<g id="node4" class="node"><title>Node4</title>
<g id="a_node4"><a xlink:href="../../d2/d25/MAX7219_8hpp.html" target="_top" xlink:title=" ">
<polygon fill="white" stroke="black" points="89,-112.5 89,-131.5 167,-131.5 167,-112.5 89,-112.5"/>
<text text-anchor="middle" x="128" y="-119.5" font-family="Helvetica,sans-Serif" font-size="10.00">MAX7219.hpp</text>
</a>
</g>
</g>
<!-- Node1&#45;&gt;Node4 -->
<g id="edge3" class="edge"><title>Node1&#45;&gt;Node4</title>
<path fill="none" stroke="midnightblue" d="M128,-157.805C128,-148.91 128,-138.78 128,-131.751"/>
<polygon fill="midnightblue" stroke="midnightblue" points="124.5,-158.083 128,-168.083 131.5,-158.083 124.5,-158.083"/>
</g>
<!-- Node5 -->
<g id="node5" class="node"><title>Node5</title>
<g id="a_node5"><a xlink:href="../../d8/d93/ShiftRegisterOutBase_8hpp.html" target="_top" xlink:title=" ">
<polygon fill="white" stroke="black" points="185.5,-112.5 185.5,-131.5 316.5,-131.5 316.5,-112.5 185.5,-112.5"/>
<text text-anchor="middle" x="251" y="-119.5" font-family="Helvetica,sans-Serif" font-size="10.00">ShiftRegisterOutBase.hpp</text>
</a>
</g>
</g>
<!-- Node1&#45;&gt;Node5 -->
<g id="edge5" class="edge"><title>Node1&#45;&gt;Node5</title>
<path fill="none" stroke="midnightblue" d="M156.773,-164.368C179.807,-154.255 211.484,-140.349 231.601,-131.516"/>
<polygon fill="midnightblue" stroke="midnightblue" points="155.239,-161.219 147.49,-168.444 158.053,-167.628 155.239,-161.219"/>
</g>
<!-- Node3 -->
<g id="node3" class="node"><title>Node3</title>
<g id="a_node3"><a xlink:href="../../db/dbf/Control__Surface_8h.html" target="_top" xlink:title="The main header file that includes all Control&#45;Surface header files.">
<polygon fill="white" stroke="black" points="125.5,-0.5 125.5,-19.5 220.5,-19.5 220.5,-0.5 125.5,-0.5"/>
<text text-anchor="middle" x="173" y="-7.5" font-family="Helvetica,sans-Serif" font-size="10.00">Control_Surface.h</text>
</a>
</g>
</g>
<!-- Node2&#45;&gt;Node3 -->
<g id="edge2" class="edge"><title>Node2&#45;&gt;Node3</title>
<path fill="none" stroke="midnightblue" d="M80.3056,-52.3678C102.965,-42.2553 134.126,-28.3486 153.917,-19.5164"/>
<polygon fill="midnightblue" stroke="midnightblue" points="78.8783,-49.1719 71.1728,-56.4435 81.7311,-55.5643 78.8783,-49.1719"/>
</g>
<!-- Node4&#45;&gt;Node3 -->
<g id="edge4" class="edge"><title>Node4&#45;&gt;Node3</title>
<path fill="none" stroke="midnightblue" d="M133.834,-102.751C138.187,-89.6042 144.485,-71.5214 151,-56 156.385,-43.1705 163.633,-28.7997 168.311,-19.8258"/>
<polygon fill="midnightblue" stroke="midnightblue" points="130.438,-101.876 130.673,-112.468 137.095,-104.042 130.438,-101.876"/>
</g>
<!-- Node6 -->
<g id="node6" class="node"><title>Node6</title>
<g id="a_node6"><a xlink:href="../../d0/db4/ShiftRegisterOut_8hpp.html" target="_top" xlink:title=" ">
<polygon fill="white" stroke="black" points="160,-56.5 160,-75.5 268,-75.5 268,-56.5 160,-56.5"/>
<text text-anchor="middle" x="214" y="-63.5" font-family="Helvetica,sans-Serif" font-size="10.00">ShiftRegisterOut.hpp</text>
</a>
</g>
</g>
<!-- Node5&#45;&gt;Node6 -->
<g id="edge6" class="edge"><title>Node5&#45;&gt;Node6</title>
<path fill="none" stroke="midnightblue" d="M239.054,-103.566C232.688,-94.2747 225.133,-83.2484 219.996,-75.7511"/>
<polygon fill="midnightblue" stroke="midnightblue" points="236.351,-105.812 244.89,-112.083 242.125,-101.855 236.351,-105.812"/>
</g>
<!-- Node7 -->
<g id="node7" class="node"><title>Node7</title>
<g id="a_node7"><a xlink:href="../../d7/d88/SPIShiftRegisterOut_8hpp.html" target="_top" xlink:title=" ">
<polygon fill="white" stroke="black" points="286.5,-56.5 286.5,-75.5 411.5,-75.5 411.5,-56.5 286.5,-56.5"/>
<text text-anchor="middle" x="349" y="-63.5" font-family="Helvetica,sans-Serif" font-size="10.00">SPIShiftRegisterOut.hpp</text>
</a>
</g>
</g>
<!-- Node5&#45;&gt;Node7 -->
<g id="edge8" class="edge"><title>Node5&#45;&gt;Node7</title>
<path fill="none" stroke="midnightblue" d="M275.586,-107.453C293.678,-97.4835 317.735,-84.2279 333.294,-75.6545"/>
<polygon fill="midnightblue" stroke="midnightblue" points="273.815,-104.432 266.745,-112.324 277.193,-110.563 273.815,-104.432"/>
</g>
<!-- Node6&#45;&gt;Node3 -->
<g id="edge7" class="edge"><title>Node6&#45;&gt;Node3</title>
<path fill="none" stroke="midnightblue" d="M200.983,-47.8554C193.883,-38.5048 185.396,-27.3265 179.644,-19.7511"/>
<polygon fill="midnightblue" stroke="midnightblue" points="198.395,-50.235 207.23,-56.083 203.97,-46.002 198.395,-50.235"/>
</g>
<!-- Node7&#45;&gt;Node3 -->
<g id="edge9" class="edge"><title>Node7&#45;&gt;Node3</title>
<path fill="none" stroke="midnightblue" d="M311.311,-53.4363C278.128,-43.2551 230.572,-28.664 200.757,-19.5164"/>
<polygon fill="midnightblue" stroke="midnightblue" points="310.525,-56.8563 321.112,-56.4435 312.579,-50.1642 310.525,-56.8563"/>
</g>
</g>
</svg>
