<?xml version="1.0" encoding="UTF-8" standalone="no"?>
<!DOCTYPE svg PUBLIC "-//W3C//DTD SVG 1.1//EN"
 "http://www.w3.org/Graphics/SVG/1.1/DTD/svg11.dtd">
<!-- Generated by graphviz version 2.38.0 (20140413.2041)
 -->
<!-- Title: MCU::maximum Pages: 1 -->
<svg width="425pt" height="88pt"
 viewBox="0.00 0.00 425.00 88.00" xmlns="http://www.w3.org/2000/svg" xmlns:xlink="http://www.w3.org/1999/xlink">
<g id="graph0" class="graph" transform="scale(1 1) rotate(0) translate(4 84)">
<title>MCU::maximum</title>
<polygon fill="white" stroke="none" points="-4,4 -4,-84 421,-84 421,4 -4,4"/>
<!-- Node7 -->
<g id="node1" class="node"><title>Node7</title>
<g id="a_node1"><a xlink:title=" ">
<polygon fill="#bfbfbf" stroke="black" points="328,-30 328,-49 417,-49 417,-30 328,-30"/>
<text text-anchor="middle" x="372.5" y="-37" font-family="Helvetica,sans-Serif" font-size="10.00">MCU::maximum</text>
</a>
</g>
</g>
<!-- Node8 -->
<g id="node2" class="node"><title>Node8</title>
<g id="a_node2"><a xlink:href="../../db/dac/classMCU_1_1VPotRing__Base.html#ab33b338d3900b8430f31ae437d1211c8" target="_top" xlink:title="Get the first segment that should be on.">
<polygon fill="white" stroke="black" points="176,-49.5 176,-79.5 292,-79.5 292,-49.5 176,-49.5"/>
<text text-anchor="start" x="184" y="-67.5" font-family="Helvetica,sans-Serif" font-size="10.00">MCU::VPotRing_Base</text>
<text text-anchor="middle" x="234" y="-56.5" font-family="Helvetica,sans-Serif" font-size="10.00">::getStartOn</text>
</a>
</g>
</g>
<!-- Node7&#45;&gt;Node8 -->
<g id="edge1" class="edge"><title>Node7&#45;&gt;Node8</title>
<path fill="none" stroke="midnightblue" d="M317.828,-49.33C309.385,-50.8764 300.629,-52.48 292.111,-54.0401"/>
<polygon fill="midnightblue" stroke="midnightblue" points="318.729,-52.7232 327.935,-47.4789 317.468,-45.8378 318.729,-52.7232"/>
</g>
<!-- Node11 -->
<g id="node5" class="node"><title>Node11</title>
<g id="a_node5"><a xlink:href="../../db/dac/classMCU_1_1VPotRing__Base.html#ac8c40d605d479ff826820438cd054ab6" target="_top" xlink:title="Get the first segment that should be off.">
<polygon fill="white" stroke="black" points="176,-0.5 176,-30.5 292,-30.5 292,-0.5 176,-0.5"/>
<text text-anchor="start" x="184" y="-18.5" font-family="Helvetica,sans-Serif" font-size="10.00">MCU::VPotRing_Base</text>
<text text-anchor="middle" x="234" y="-7.5" font-family="Helvetica,sans-Serif" font-size="10.00">::getStartOff</text>
</a>
</g>
</g>
<!-- Node7&#45;&gt;Node11 -->
<g id="edge4" class="edge"><title>Node7&#45;&gt;Node11</title>
<path fill="none" stroke="midnightblue" d="M317.828,-30.0632C309.385,-28.5786 300.629,-27.0392 292.111,-25.5415"/>
<polygon fill="midnightblue" stroke="midnightblue" points="317.48,-33.5556 327.935,-31.8403 318.692,-26.6614 317.48,-33.5556"/>
</g>
<!-- Node9 -->
<g id="node3" class="node"><title>Node9</title>
<g id="a_node3"><a xlink:href="../../d3/d98/classMCU_1_1VPotDisplay.html#a6120c40796b7de94f04f951b1db37ced" target="_top" xlink:title="Draw this DisplayElement to the display buffer.">
<polygon fill="white" stroke="black" points="6,-53 6,-72 134,-72 134,-53 6,-53"/>
<text text-anchor="middle" x="70" y="-60" font-family="Helvetica,sans-Serif" font-size="10.00">MCU::VPotDisplay::draw</text>
</a>
</g>
</g>
<!-- Node8&#45;&gt;Node9 -->
<g id="edge2" class="edge"><title>Node8&#45;&gt;Node9</title>
<path fill="none" stroke="midnightblue" d="M165.618,-63.6681C155.222,-63.5398 144.518,-63.4076 134.217,-63.2805"/>
<polygon fill="midnightblue" stroke="midnightblue" points="165.842,-67.1711 175.885,-63.7949 165.929,-60.1716 165.842,-67.1711"/>
</g>
<!-- Node10 -->
<g id="node4" class="node"><title>Node10</title>
<g id="a_node4"><a xlink:href="../../de/d52/classMCU_1_1VPotRingLEDs__Base.html#a1b196410444c7f2944bfa00cd7d45c7d" target="_top" xlink:title="Update the display of the input element.">
<polygon fill="white" stroke="black" points="0,-2.5 0,-32.5 140,-32.5 140,-2.5 0,-2.5"/>
<text text-anchor="start" x="8" y="-20.5" font-family="Helvetica,sans-Serif" font-size="10.00">MCU::VPotRingLEDs_Base</text>
<text text-anchor="middle" x="70" y="-9.5" font-family="Helvetica,sans-Serif" font-size="10.00">::display</text>
</a>
</g>
</g>
<!-- Node8&#45;&gt;Node10 -->
<g id="edge3" class="edge"><title>Node8&#45;&gt;Node10</title>
<path fill="none" stroke="midnightblue" d="M171.463,-46.6467C155.405,-41.9879 138.262,-37.0144 122.768,-32.519"/>
<polygon fill="midnightblue" stroke="midnightblue" points="170.718,-50.0747 181.297,-49.4997 172.668,-43.3519 170.718,-50.0747"/>
</g>
<!-- Node11&#45;&gt;Node9 -->
<g id="edge5" class="edge"><title>Node11&#45;&gt;Node9</title>
<path fill="none" stroke="midnightblue" d="M171.598,-33.3142C148.592,-39.9887 123.342,-47.3143 103.894,-52.9566"/>
<polygon fill="midnightblue" stroke="midnightblue" points="172.668,-36.6481 181.297,-30.5003 170.718,-29.9253 172.668,-36.6481"/>
</g>
<!-- Node11&#45;&gt;Node10 -->
<g id="edge6" class="edge"><title>Node11&#45;&gt;Node10</title>
<path fill="none" stroke="midnightblue" d="M165.699,-16.3309C157.244,-16.4353 148.584,-16.5422 140.102,-16.6469"/>
<polygon fill="midnightblue" stroke="midnightblue" points="165.929,-19.8284 175.885,-16.2051 165.842,-12.8289 165.929,-19.8284"/>
</g>
</g>
</svg>
