<?xml version="1.0" encoding="UTF-8" standalone="no"?>
<!DOCTYPE svg PUBLIC "-//W3C//DTD SVG 1.1//EN"
 "http://www.w3.org/Graphics/SVG/1.1/DTD/svg11.dtd">
<!-- Generated by graphviz version 2.38.0 (20140413.2041)
 -->
<!-- Title: Bankable::MIDIButtonMatrix&lt; BankAddress, Sender, nb_rows, nb_cols &gt; Pages: 1 -->
<svg width="268pt" height="507pt"
 viewBox="0.00 0.00 268.00 507.00" xmlns="http://www.w3.org/2000/svg" xmlns:xlink="http://www.w3.org/1999/xlink">
<g id="graph0" class="graph" transform="scale(1 1) rotate(0) translate(4 503)">
<title>Bankable::MIDIButtonMatrix&lt; BankAddress, Sender, nb_rows, nb_cols &gt;</title>
<polygon fill="white" stroke="none" points="-4,4 -4,-503 264,-503 264,4 -4,4"/>
<!-- Node1 -->
<g id="node1" class="node"><title>Node1</title>
<g id="a_node1"><a xlink:title="MIDIButtonMatrix.">
<polygon fill="#bfbfbf" stroke="black" points="63.5,-0.5 63.5,-134.5 203.5,-134.5 203.5,-0.5 63.5,-0.5"/>
<text text-anchor="start" x="71.5" y="-122.5" font-family="Helvetica,sans-Serif" font-size="10.00">Bankable::MIDIButtonMatrix</text>
<text text-anchor="start" x="71.5" y="-111.5" font-family="Helvetica,sans-Serif" font-size="10.00">&lt; BankAddress, Sender, nb</text>
<text text-anchor="middle" x="133.5" y="-100.5" font-family="Helvetica,sans-Serif" font-size="10.00">_rows, nb_cols &gt;</text>
<polyline fill="none" stroke="black" points="63.5,-93.5 203.5,-93.5 "/>
<text text-anchor="start" x="71.5" y="-81.5" font-family="Helvetica,sans-Serif" font-size="10.00">+ sender</text>
<text text-anchor="start" x="71.5" y="-70.5" font-family="Helvetica,sans-Serif" font-size="10.00">&#45; address</text>
<text text-anchor="start" x="71.5" y="-59.5" font-family="Helvetica,sans-Serif" font-size="10.00">&#45; activeButtons</text>
<polyline fill="none" stroke="black" points="63.5,-52.5 203.5,-52.5 "/>
<text text-anchor="start" x="71.5" y="-40.5" font-family="Helvetica,sans-Serif" font-size="10.00">+ begin()</text>
<text text-anchor="start" x="71.5" y="-29.5" font-family="Helvetica,sans-Serif" font-size="10.00">+ update()</text>
<text text-anchor="start" x="71.5" y="-18.5" font-family="Helvetica,sans-Serif" font-size="10.00"># MIDIButtonMatrix()</text>
<text text-anchor="start" x="71.5" y="-7.5" font-family="Helvetica,sans-Serif" font-size="10.00">&#45; onButtonChanged()</text>
</a>
</g>
</g>
<!-- Node2 -->
<g id="node2" class="node"><title>Node2</title>
<g id="a_node2"><a xlink:href="../../d5/de0/classUpdatable.html" target="_top" xlink:title=" ">
<polygon fill="white" stroke="black" points="16.5,-171.5 16.5,-382.5 120.5,-382.5 120.5,-171.5 16.5,-171.5"/>
<text text-anchor="middle" x="68.5" y="-370.5" font-family="Helvetica,sans-Serif" font-size="10.00">MIDIOutputElement</text>
<polyline fill="none" stroke="black" points="16.5,-363.5 120.5,-363.5 "/>
<text text-anchor="start" x="24.5" y="-351.5" font-family="Helvetica,sans-Serif" font-size="10.00">&#45; updatables</text>
<polyline fill="none" stroke="black" points="16.5,-344.5 120.5,-344.5 "/>
<text text-anchor="start" x="24.5" y="-332.5" font-family="Helvetica,sans-Serif" font-size="10.00">+ ~Updatable()</text>
<text text-anchor="start" x="24.5" y="-321.5" font-family="Helvetica,sans-Serif" font-size="10.00">+ update()</text>
<text text-anchor="start" x="24.5" y="-310.5" font-family="Helvetica,sans-Serif" font-size="10.00">+ begin()</text>
<text text-anchor="start" x="24.5" y="-299.5" font-family="Helvetica,sans-Serif" font-size="10.00">+ enable()</text>
<text text-anchor="start" x="24.5" y="-288.5" font-family="Helvetica,sans-Serif" font-size="10.00">+ disable()</text>
<text text-anchor="start" x="24.5" y="-277.5" font-family="Helvetica,sans-Serif" font-size="10.00">+ isEnabled()</text>
<text text-anchor="start" x="24.5" y="-266.5" font-family="Helvetica,sans-Serif" font-size="10.00">+ enable()</text>
<text text-anchor="start" x="24.5" y="-255.5" font-family="Helvetica,sans-Serif" font-size="10.00">+ enable()</text>
<text text-anchor="start" x="24.5" y="-244.5" font-family="Helvetica,sans-Serif" font-size="10.00">+ enable()</text>
<text text-anchor="start" x="24.5" y="-233.5" font-family="Helvetica,sans-Serif" font-size="10.00">+ disable()</text>
<text text-anchor="start" x="24.5" y="-222.5" font-family="Helvetica,sans-Serif" font-size="10.00">+ disable()</text>
<text text-anchor="start" x="24.5" y="-211.5" font-family="Helvetica,sans-Serif" font-size="10.00">+ disable()</text>
<text text-anchor="start" x="24.5" y="-200.5" font-family="Helvetica,sans-Serif" font-size="10.00">+ beginAll()</text>
<text text-anchor="start" x="24.5" y="-189.5" font-family="Helvetica,sans-Serif" font-size="10.00">+ updateAll()</text>
<text text-anchor="start" x="24.5" y="-178.5" font-family="Helvetica,sans-Serif" font-size="10.00"># Updatable()</text>
</a>
</g>
</g>
<!-- Node2&#45;&gt;Node1 -->
<g id="edge1" class="edge"><title>Node2&#45;&gt;Node1</title>
<path fill="none" stroke="midnightblue" d="M104.307,-161.694C107.197,-152.467 110.052,-143.353 112.779,-134.647"/>
<polygon fill="none" stroke="midnightblue" points="100.935,-160.749 101.286,-171.338 107.615,-162.842 100.935,-160.749"/>
</g>
<!-- Node3 -->
<g id="node3" class="node"><title>Node3</title>
<g id="a_node3"><a xlink:href="../../d4/d23/classDoublyLinkable.html" target="_top" xlink:title=" ">
<polygon fill="white" stroke="black" points="0,-419.5 0,-498.5 137,-498.5 137,-419.5 0,-419.5"/>
<text text-anchor="start" x="8" y="-486.5" font-family="Helvetica,sans-Serif" font-size="10.00">DoublyLinkable&lt; Updatable</text>
<text text-anchor="middle" x="68.5" y="-475.5" font-family="Helvetica,sans-Serif" font-size="10.00">&lt; NormalUpdatable &gt; &gt;</text>
<polyline fill="none" stroke="black" points="0,-468.5 137,-468.5 "/>
<text text-anchor="start" x="8" y="-456.5" font-family="Helvetica,sans-Serif" font-size="10.00"># next</text>
<text text-anchor="start" x="8" y="-445.5" font-family="Helvetica,sans-Serif" font-size="10.00"># previous</text>
<polyline fill="none" stroke="black" points="0,-438.5 137,-438.5 "/>
<text text-anchor="start" x="8" y="-426.5" font-family="Helvetica,sans-Serif" font-size="10.00"># ~DoublyLinkable()</text>
</a>
</g>
</g>
<!-- Node3&#45;&gt;Node2 -->
<g id="edge2" class="edge"><title>Node3&#45;&gt;Node2</title>
<path fill="none" stroke="midnightblue" d="M68.5,-409.16C68.5,-400.809 68.5,-391.856 68.5,-382.694"/>
<polygon fill="none" stroke="midnightblue" points="65.0001,-409.385 68.5,-419.385 72.0001,-409.386 65.0001,-409.385"/>
</g>
<!-- Node4 -->
<g id="node4" class="node"><title>Node4</title>
<g id="a_node4"><a xlink:href="../../d8/d6c/classButtonMatrix.html" target="_top" xlink:title="A class that reads the states of a button matrix.">
<polygon fill="white" stroke="black" points="139,-177 139,-377 260,-377 260,-177 139,-177"/>
<text text-anchor="start" x="147" y="-365" font-family="Helvetica,sans-Serif" font-size="10.00">ButtonMatrix&lt; nb_rows,</text>
<text text-anchor="middle" x="199.5" y="-354" font-family="Helvetica,sans-Serif" font-size="10.00"> nb_cols &gt;</text>
<polyline fill="none" stroke="black" points="139,-347 260,-347 "/>
<text text-anchor="start" x="147" y="-335" font-family="Helvetica,sans-Serif" font-size="10.00">&#45; prevRefresh</text>
<text text-anchor="start" x="147" y="-324" font-family="Helvetica,sans-Serif" font-size="10.00">&#45; prevStates</text>
<text text-anchor="start" x="147" y="-313" font-family="Helvetica,sans-Serif" font-size="10.00">&#45; rowPins</text>
<text text-anchor="start" x="147" y="-302" font-family="Helvetica,sans-Serif" font-size="10.00">&#45; colPins</text>
<polyline fill="none" stroke="black" points="139,-295 260,-295 "/>
<text text-anchor="start" x="147" y="-283" font-family="Helvetica,sans-Serif" font-size="10.00">+ ButtonMatrix()</text>
<text text-anchor="start" x="147" y="-272" font-family="Helvetica,sans-Serif" font-size="10.00">+ ~ButtonMatrix()</text>
<text text-anchor="start" x="147" y="-261" font-family="Helvetica,sans-Serif" font-size="10.00">+ begin()</text>
<text text-anchor="start" x="147" y="-250" font-family="Helvetica,sans-Serif" font-size="10.00">+ refresh()</text>
<text text-anchor="start" x="147" y="-239" font-family="Helvetica,sans-Serif" font-size="10.00">&#45; onButtonChanged()</text>
<text text-anchor="start" x="147" y="-228" font-family="Helvetica,sans-Serif" font-size="10.00">&#45; getPrevState()</text>
<text text-anchor="start" x="147" y="-217" font-family="Helvetica,sans-Serif" font-size="10.00">&#45; setPrevState()</text>
<text text-anchor="start" x="147" y="-206" font-family="Helvetica,sans-Serif" font-size="10.00">&#45; positionToBits()</text>
<text text-anchor="start" x="147" y="-195" font-family="Helvetica,sans-Serif" font-size="10.00">&#45; bitsToIndex()</text>
<text text-anchor="start" x="147" y="-184" font-family="Helvetica,sans-Serif" font-size="10.00">&#45; bitsToBitmask()</text>
</a>
</g>
</g>
<!-- Node4&#45;&gt;Node1 -->
<g id="edge3" class="edge"><title>Node4&#45;&gt;Node1</title>
<path fill="none" stroke="midnightblue" d="M164.862,-167.1C161.351,-156.062 157.865,-145.102 154.563,-134.721"/>
<polygon fill="none" stroke="midnightblue" points="161.583,-168.339 167.95,-176.808 168.254,-166.218 161.583,-168.339"/>
</g>
</g>
</svg>
