<?xml version="1.0" encoding="UTF-8" standalone="no"?>
<!DOCTYPE svg PUBLIC "-//W3C//DTD SVG 1.1//EN"
 "http://www.w3.org/Graphics/SVG/1.1/DTD/svg11.dtd">
<!-- Generated by graphviz version 2.38.0 (20140413.2041)
 -->
<!-- Title: BitArray::getBufferLength Pages: 1 -->
<svg width="652pt" height="104pt"
 viewBox="0.00 0.00 652.00 104.00" xmlns="http://www.w3.org/2000/svg" xmlns:xlink="http://www.w3.org/1999/xlink">
<g id="graph0" class="graph" transform="scale(1 1) rotate(0) translate(4 100)">
<title>BitArray::getBufferLength</title>
<polygon fill="white" stroke="none" points="-4,4 -4,-100 648,-100 648,4 -4,4"/>
<!-- Node31 -->
<g id="node1" class="node"><title>Node31</title>
<g id="a_node1"><a xlink:title=" ">
<polygon fill="#bfbfbf" stroke="black" points="517,-38.5 517,-57.5 644,-57.5 644,-38.5 517,-38.5"/>
<text text-anchor="middle" x="580.5" y="-45.5" font-family="Helvetica,sans-Serif" font-size="10.00">BitArray::getBufferLength</text>
</a>
</g>
</g>
<!-- Node32 -->
<g id="node2" class="node"><title>Node32</title>
<g id="a_node2"><a xlink:href="../../db/de9/classBitArray.html#a5aa71f15bed263c25c32b7a31152e23c" target="_top" xlink:title=" ">
<polygon fill="white" stroke="black" points="380,-38.5 380,-57.5 481,-57.5 481,-38.5 380,-38.5"/>
<text text-anchor="middle" x="430.5" y="-45.5" font-family="Helvetica,sans-Serif" font-size="10.00">BitArray::safeIndex</text>
</a>
</g>
</g>
<!-- Node31&#45;&gt;Node32 -->
<g id="edge1" class="edge"><title>Node31&#45;&gt;Node32</title>
<path fill="none" stroke="midnightblue" d="M506.698,-48C498.117,-48 489.514,-48 481.351,-48"/>
<polygon fill="midnightblue" stroke="midnightblue" points="506.735,-51.5001 516.735,-48 506.735,-44.5001 506.735,-51.5001"/>
</g>
<!-- Node33 -->
<g id="node3" class="node"><title>Node33</title>
<g id="a_node3"><a xlink:href="../../db/de9/classBitArray.html#a6f88d7f06380b68327b6affee50c5f5b" target="_top" xlink:title=" ">
<polygon fill="white" stroke="black" points="222,-38.5 222,-57.5 344,-57.5 344,-38.5 222,-38.5"/>
<text text-anchor="middle" x="283" y="-45.5" font-family="Helvetica,sans-Serif" font-size="10.00">BitArray::getBufferIndex</text>
</a>
</g>
</g>
<!-- Node32&#45;&gt;Node33 -->
<g id="edge2" class="edge"><title>Node32&#45;&gt;Node33</title>
<path fill="none" stroke="midnightblue" d="M369.655,-48C361.186,-48 352.476,-48 344.004,-48"/>
<polygon fill="midnightblue" stroke="midnightblue" points="369.834,-51.5001 379.834,-48 369.834,-44.5001 369.834,-51.5001"/>
</g>
<!-- Node34 -->
<g id="node4" class="node"><title>Node34</title>
<g id="a_node4"><a xlink:href="../../db/de9/classBitArray.html#ae70a67b38aba607d4301cca64a2f9640" target="_top" xlink:title=" ">
<polygon fill="white" stroke="black" points="111,-76.5 111,-95.5 182,-95.5 182,-76.5 111,-76.5"/>
<text text-anchor="middle" x="146.5" y="-83.5" font-family="Helvetica,sans-Serif" font-size="10.00">BitArray::get</text>
</a>
</g>
</g>
<!-- Node33&#45;&gt;Node34 -->
<g id="edge3" class="edge"><title>Node33&#45;&gt;Node34</title>
<path fill="none" stroke="midnightblue" d="M238.4,-60.3183C219.92,-65.5393 198.711,-71.5316 181.429,-76.4141"/>
<polygon fill="midnightblue" stroke="midnightblue" points="239.388,-63.6761 248.06,-57.589 237.485,-56.9398 239.388,-63.6761"/>
</g>
<!-- Node35 -->
<g id="node5" class="node"><title>Node35</title>
<g id="a_node5"><a xlink:href="../../db/de9/classBitArray.html#aeab58639d34ba3af28dabe49f2fa6992" target="_top" xlink:title=" ">
<polygon fill="white" stroke="black" points="111,-38.5 111,-57.5 182,-57.5 182,-38.5 111,-38.5"/>
<text text-anchor="middle" x="146.5" y="-45.5" font-family="Helvetica,sans-Serif" font-size="10.00">BitArray::set</text>
</a>
</g>
</g>
<!-- Node33&#45;&gt;Node35 -->
<g id="edge4" class="edge"><title>Node33&#45;&gt;Node35</title>
<path fill="none" stroke="midnightblue" d="M211.616,-48C201.399,-48 191.278,-48 182.2,-48"/>
<polygon fill="midnightblue" stroke="midnightblue" points="211.831,-51.5001 221.831,-48 211.831,-44.5001 211.831,-51.5001"/>
</g>
<!-- Node37 -->
<g id="node7" class="node"><title>Node37</title>
<g id="a_node7"><a xlink:href="../../db/de9/classBitArray.html#a004695424087494cee2d1c6dce843118" target="_top" xlink:title=" ">
<polygon fill="white" stroke="black" points="107,-0.5 107,-19.5 186,-19.5 186,-0.5 107,-0.5"/>
<text text-anchor="middle" x="146.5" y="-7.5" font-family="Helvetica,sans-Serif" font-size="10.00">BitArray::clear</text>
</a>
</g>
</g>
<!-- Node33&#45;&gt;Node37 -->
<g id="edge6" class="edge"><title>Node33&#45;&gt;Node37</title>
<path fill="none" stroke="midnightblue" d="M238.4,-35.6817C219.92,-30.4607 198.711,-24.4684 181.429,-19.5859"/>
<polygon fill="midnightblue" stroke="midnightblue" points="237.485,-39.0602 248.06,-38.411 239.388,-32.3239 237.485,-39.0602"/>
</g>
<!-- Node36 -->
<g id="node6" class="node"><title>Node36</title>
<g id="a_node6"><a xlink:href="../../db/de9/classBitArray.html#a61a953baab78ff4ed53c65a6a45d3686" target="_top" xlink:title=" ">
<polygon fill="white" stroke="black" points="0,-19.5 0,-38.5 71,-38.5 71,-19.5 0,-19.5"/>
<text text-anchor="middle" x="35.5" y="-26.5" font-family="Helvetica,sans-Serif" font-size="10.00">BitArray::set</text>
</a>
</g>
</g>
<!-- Node35&#45;&gt;Node36 -->
<g id="edge5" class="edge"><title>Node35&#45;&gt;Node36</title>
<path fill="none" stroke="midnightblue" d="M100.71,-40.1926C90.9091,-38.4841 80.6748,-36.7002 71.3313,-35.0715"/>
<polygon fill="midnightblue" stroke="midnightblue" points="100.26,-43.6667 110.712,-41.936 101.462,-36.7707 100.26,-43.6667"/>
</g>
<!-- Node37&#45;&gt;Node36 -->
<g id="edge7" class="edge"><title>Node37&#45;&gt;Node36</title>
<path fill="none" stroke="midnightblue" d="M96.7585,-18.4962C88.114,-20.0031 79.274,-21.544 71.1217,-22.965"/>
<polygon fill="midnightblue" stroke="midnightblue" points="97.5134,-21.9175 106.764,-16.7522 96.3113,-15.0215 97.5134,-21.9175"/>
</g>
</g>
</svg>
