<?xml version="1.0" encoding="UTF-8" standalone="no"?>
<!DOCTYPE svg PUBLIC "-//W3C//DTD SVG 1.1//EN"
 "http://www.w3.org/Graphics/SVG/1.1/DTD/svg11.dtd">
<!-- Generated by graphviz version 2.38.0 (20140413.2041)
 -->
<!-- Title: IncrementSelectorLEDs&lt; N &gt; Pages: 1 -->
<svg width="278pt" height="783pt"
 viewBox="0.00 0.00 278.00 783.00" xmlns="http://www.w3.org/2000/svg" xmlns:xlink="http://www.w3.org/1999/xlink">
<g id="graph0" class="graph" transform="scale(1 1) rotate(0) translate(4 779)">
<title>IncrementSelectorLEDs&lt; N &gt;</title>
<polygon fill="white" stroke="none" points="-4,4 -4,-779 274,-779 274,4 -4,4"/>
<!-- Node0 -->
<g id="node1" class="node"><title>Node0</title>
<g id="a_node1"><a xlink:title=" ">
<polygon fill="#bfbfbf" stroke="black" points="73.5,-0.5 73.5,-57.5 219.5,-57.5 219.5,-0.5 73.5,-0.5"/>
<text text-anchor="middle" x="146.5" y="-45.5" font-family="Helvetica,sans-Serif" font-size="10.00">IncrementSelectorLEDs&lt; N &gt;</text>
<polyline fill="none" stroke="black" points="73.5,-38.5 219.5,-38.5 "/>
<text text-anchor="middle" x="146.5" y="-26.5" font-family="Helvetica,sans-Serif" font-size="10.00"> </text>
<polyline fill="none" stroke="black" points="73.5,-19.5 219.5,-19.5 "/>
<text text-anchor="start" x="81.5" y="-7.5" font-family="Helvetica,sans-Serif" font-size="10.00">+ IncrementSelectorLEDs()</text>
</a>
</g>
</g>
<!-- Node1 -->
<g id="node2" class="node"><title>Node1</title>
<g id="a_node2"><a xlink:href="../../d4/de9/classIncrementSelector__Base.html" target="_top" xlink:title=" ">
<polygon fill="white" stroke="black" points="0,-94.5 0,-195.5 149,-195.5 149,-94.5 0,-94.5"/>
<text text-anchor="middle" x="74.5" y="-183.5" font-family="Helvetica,sans-Serif" font-size="10.00">IncrementSelector_Base&lt; N &gt;</text>
<polyline fill="none" stroke="black" points="0,-176.5 149,-176.5 "/>
<text text-anchor="start" x="8" y="-164.5" font-family="Helvetica,sans-Serif" font-size="10.00">&#45; button</text>
<text text-anchor="start" x="8" y="-153.5" font-family="Helvetica,sans-Serif" font-size="10.00">&#45; wrap</text>
<polyline fill="none" stroke="black" points="0,-146.5 149,-146.5 "/>
<text text-anchor="start" x="8" y="-134.5" font-family="Helvetica,sans-Serif" font-size="10.00">+ IncrementSelector_Base()</text>
<text text-anchor="start" x="8" y="-123.5" font-family="Helvetica,sans-Serif" font-size="10.00">+ IncrementSelector_Base()</text>
<text text-anchor="start" x="8" y="-112.5" font-family="Helvetica,sans-Serif" font-size="10.00">+ beginInput()</text>
<text text-anchor="start" x="8" y="-101.5" font-family="Helvetica,sans-Serif" font-size="10.00">+ update()</text>
</a>
</g>
</g>
<!-- Node1&#45;&gt;Node0 -->
<g id="edge1" class="edge"><title>Node1&#45;&gt;Node0</title>
<path fill="none" stroke="midnightblue" d="M111.309,-85.7198C117.508,-75.904 123.676,-66.1388 129.075,-57.5894"/>
<polygon fill="none" stroke="midnightblue" points="108.252,-84.0057 105.871,-94.3296 114.17,-87.7437 108.252,-84.0057"/>
</g>
<!-- Node2 -->
<g id="node3" class="node"><title>Node2</title>
<g id="a_node3"><a xlink:href="../../d1/d54/classSelector.html" target="_top" xlink:title=" ">
<polygon fill="white" stroke="black" points="103,-232.5 103,-410.5 190,-410.5 190,-232.5 103,-232.5"/>
<text text-anchor="middle" x="146.5" y="-398.5" font-family="Helvetica,sans-Serif" font-size="10.00">Selector&lt; N &gt;</text>
<polyline fill="none" stroke="black" points="103,-391.5 190,-391.5 "/>
<text text-anchor="start" x="111" y="-379.5" font-family="Helvetica,sans-Serif" font-size="10.00">&#45; selectable</text>
<text text-anchor="start" x="111" y="-368.5" font-family="Helvetica,sans-Serif" font-size="10.00">&#45; setting</text>
<polyline fill="none" stroke="black" points="103,-361.5 190,-361.5 "/>
<text text-anchor="start" x="111" y="-349.5" font-family="Helvetica,sans-Serif" font-size="10.00">+ beginInput()</text>
<text text-anchor="start" x="111" y="-338.5" font-family="Helvetica,sans-Serif" font-size="10.00">+ beginOutput()</text>
<text text-anchor="start" x="111" y="-327.5" font-family="Helvetica,sans-Serif" font-size="10.00">+ begin()</text>
<text text-anchor="start" x="111" y="-316.5" font-family="Helvetica,sans-Serif" font-size="10.00">+ reset()</text>
<text text-anchor="start" x="111" y="-305.5" font-family="Helvetica,sans-Serif" font-size="10.00">+ get()</text>
<text text-anchor="start" x="111" y="-294.5" font-family="Helvetica,sans-Serif" font-size="10.00">+ set()</text>
<text text-anchor="start" x="111" y="-283.5" font-family="Helvetica,sans-Serif" font-size="10.00">+ increment()</text>
<text text-anchor="start" x="111" y="-272.5" font-family="Helvetica,sans-Serif" font-size="10.00">+ decrement()</text>
<text text-anchor="start" x="111" y="-261.5" font-family="Helvetica,sans-Serif" font-size="10.00"># Selector()</text>
<text text-anchor="start" x="111" y="-250.5" font-family="Helvetica,sans-Serif" font-size="10.00"># Selector()</text>
<text text-anchor="start" x="111" y="-239.5" font-family="Helvetica,sans-Serif" font-size="10.00">&#45; updateOutput()</text>
</a>
</g>
</g>
<!-- Node2&#45;&gt;Node1 -->
<g id="edge2" class="edge"><title>Node2&#45;&gt;Node1</title>
<path fill="none" stroke="midnightblue" d="M106.26,-222.975C102.353,-213.505 98.5129,-204.198 94.9281,-195.51"/>
<polygon fill="none" stroke="midnightblue" points="103.134,-224.574 110.184,-232.483 109.605,-221.904 103.134,-224.574"/>
</g>
<!-- Node5 -->
<g id="node6" class="node"><title>Node5</title>
<g id="a_node6"><a xlink:href="../../dd/d8b/classSelectorLEDs.html" target="_top" xlink:title=" ">
<polygon fill="white" stroke="black" points="167,-105.5 167,-184.5 270,-184.5 270,-105.5 167,-105.5"/>
<text text-anchor="middle" x="218.5" y="-172.5" font-family="Helvetica,sans-Serif" font-size="10.00">SelectorLEDs&lt; N &gt;</text>
<polyline fill="none" stroke="black" points="167,-165.5 270,-165.5 "/>
<text text-anchor="start" x="175" y="-153.5" font-family="Helvetica,sans-Serif" font-size="10.00">&#45; ledPins</text>
<polyline fill="none" stroke="black" points="167,-146.5 270,-146.5 "/>
<text text-anchor="start" x="175" y="-134.5" font-family="Helvetica,sans-Serif" font-size="10.00">+ SelectorLEDs()</text>
<text text-anchor="start" x="175" y="-123.5" font-family="Helvetica,sans-Serif" font-size="10.00">+ beginOutput()</text>
<text text-anchor="start" x="175" y="-112.5" font-family="Helvetica,sans-Serif" font-size="10.00">+ updateOutput()</text>
</a>
</g>
</g>
<!-- Node2&#45;&gt;Node5 -->
<g id="edge6" class="edge"><title>Node2&#45;&gt;Node5</title>
<path fill="none" stroke="midnightblue" d="M186.7,-223.07C192.289,-209.525 197.74,-196.313 202.507,-184.762"/>
<polygon fill="none" stroke="midnightblue" points="183.395,-221.904 182.816,-232.483 189.866,-224.574 183.395,-221.904"/>
</g>
<!-- Node3 -->
<g id="node4" class="node"><title>Node3</title>
<g id="a_node4"><a xlink:href="../../d5/de0/classUpdatable.html" target="_top" xlink:title=" ">
<polygon fill="white" stroke="black" points="105.5,-447.5 105.5,-658.5 187.5,-658.5 187.5,-447.5 105.5,-447.5"/>
<text text-anchor="middle" x="146.5" y="-646.5" font-family="Helvetica,sans-Serif" font-size="10.00">Updatable&lt;&gt;</text>
<polyline fill="none" stroke="black" points="105.5,-639.5 187.5,-639.5 "/>
<text text-anchor="start" x="113.5" y="-627.5" font-family="Helvetica,sans-Serif" font-size="10.00">&#45; updatables</text>
<polyline fill="none" stroke="black" points="105.5,-620.5 187.5,-620.5 "/>
<text text-anchor="start" x="113.5" y="-608.5" font-family="Helvetica,sans-Serif" font-size="10.00">+ ~Updatable()</text>
<text text-anchor="start" x="113.5" y="-597.5" font-family="Helvetica,sans-Serif" font-size="10.00">+ update()</text>
<text text-anchor="start" x="113.5" y="-586.5" font-family="Helvetica,sans-Serif" font-size="10.00">+ begin()</text>
<text text-anchor="start" x="113.5" y="-575.5" font-family="Helvetica,sans-Serif" font-size="10.00">+ enable()</text>
<text text-anchor="start" x="113.5" y="-564.5" font-family="Helvetica,sans-Serif" font-size="10.00">+ disable()</text>
<text text-anchor="start" x="113.5" y="-553.5" font-family="Helvetica,sans-Serif" font-size="10.00">+ isEnabled()</text>
<text text-anchor="start" x="113.5" y="-542.5" font-family="Helvetica,sans-Serif" font-size="10.00">+ enable()</text>
<text text-anchor="start" x="113.5" y="-531.5" font-family="Helvetica,sans-Serif" font-size="10.00">+ enable()</text>
<text text-anchor="start" x="113.5" y="-520.5" font-family="Helvetica,sans-Serif" font-size="10.00">+ enable()</text>
<text text-anchor="start" x="113.5" y="-509.5" font-family="Helvetica,sans-Serif" font-size="10.00">+ disable()</text>
<text text-anchor="start" x="113.5" y="-498.5" font-family="Helvetica,sans-Serif" font-size="10.00">+ disable()</text>
<text text-anchor="start" x="113.5" y="-487.5" font-family="Helvetica,sans-Serif" font-size="10.00">+ disable()</text>
<text text-anchor="start" x="113.5" y="-476.5" font-family="Helvetica,sans-Serif" font-size="10.00">+ beginAll()</text>
<text text-anchor="start" x="113.5" y="-465.5" font-family="Helvetica,sans-Serif" font-size="10.00">+ updateAll()</text>
<text text-anchor="start" x="113.5" y="-454.5" font-family="Helvetica,sans-Serif" font-size="10.00"># Updatable()</text>
</a>
</g>
</g>
<!-- Node3&#45;&gt;Node2 -->
<g id="edge3" class="edge"><title>Node3&#45;&gt;Node2</title>
<path fill="none" stroke="midnightblue" d="M146.5,-437.215C146.5,-428.251 146.5,-419.288 146.5,-410.544"/>
<polygon fill="none" stroke="midnightblue" points="143,-437.324 146.5,-447.324 150,-437.324 143,-437.324"/>
</g>
<!-- Node4 -->
<g id="node5" class="node"><title>Node4</title>
<g id="a_node5"><a xlink:href="../../d4/d23/classDoublyLinkable.html" target="_top" xlink:title=" ">
<polygon fill="white" stroke="black" points="78,-695.5 78,-774.5 215,-774.5 215,-695.5 78,-695.5"/>
<text text-anchor="start" x="86" y="-762.5" font-family="Helvetica,sans-Serif" font-size="10.00">DoublyLinkable&lt; Updatable</text>
<text text-anchor="middle" x="146.5" y="-751.5" font-family="Helvetica,sans-Serif" font-size="10.00">&lt; NormalUpdatable &gt; &gt;</text>
<polyline fill="none" stroke="black" points="78,-744.5 215,-744.5 "/>
<text text-anchor="start" x="86" y="-732.5" font-family="Helvetica,sans-Serif" font-size="10.00"># next</text>
<text text-anchor="start" x="86" y="-721.5" font-family="Helvetica,sans-Serif" font-size="10.00"># previous</text>
<polyline fill="none" stroke="black" points="78,-714.5 215,-714.5 "/>
<text text-anchor="start" x="86" y="-702.5" font-family="Helvetica,sans-Serif" font-size="10.00"># ~DoublyLinkable()</text>
</a>
</g>
</g>
<!-- Node4&#45;&gt;Node3 -->
<g id="edge4" class="edge"><title>Node4&#45;&gt;Node3</title>
<path fill="none" stroke="midnightblue" d="M146.5,-685.16C146.5,-676.809 146.5,-667.856 146.5,-658.694"/>
<polygon fill="none" stroke="midnightblue" points="143,-685.385 146.5,-695.385 150,-685.386 143,-685.385"/>
</g>
<!-- Node5&#45;&gt;Node0 -->
<g id="edge5" class="edge"><title>Node5&#45;&gt;Node0</title>
<path fill="none" stroke="midnightblue" d="M188.695,-96.8095C180.303,-83.5209 171.447,-69.499 164.027,-57.7509"/>
<polygon fill="none" stroke="midnightblue" points="185.825,-98.8189 194.124,-105.405 191.743,-95.0809 185.825,-98.8189"/>
</g>
</g>
</svg>
