<?xml version="1.0" encoding="UTF-8" standalone="no"?>
<!DOCTYPE svg PUBLIC "-//W3C//DTD SVG 1.1//EN"
 "http://www.w3.org/Graphics/SVG/1.1/DTD/svg11.dtd">
<!-- Generated by graphviz version 2.38.0 (20140413.2041)
 -->
<!-- Title: SPIShiftRegisterOut::begin Pages: 1 -->
<svg width="734pt" height="197pt"
 viewBox="0.00 0.00 734.00 196.50" xmlns="http://www.w3.org/2000/svg" xmlns:xlink="http://www.w3.org/1999/xlink">
<g id="graph0" class="graph" transform="scale(1 1) rotate(0) translate(4 192.5)">
<title>SPIShiftRegisterOut::begin</title>
<polygon fill="white" stroke="none" points="-4,4 -4,-192.5 730,-192.5 730,4 -4,4"/>
<!-- Node23 -->
<g id="node1" class="node"><title>Node23</title>
<g id="a_node1"><a xlink:title="Initialize the shift register. &#160;&#160;Setup the SPI interface, set the CS pin to output mode,...">
<polygon fill="#bfbfbf" stroke="black" points="0,-71 0,-101 106,-101 106,-71 0,-71"/>
<text text-anchor="start" x="8" y="-89" font-family="Helvetica,sans-Serif" font-size="10.00">SPIShiftRegisterOut</text>
<text text-anchor="middle" x="53" y="-78" font-family="Helvetica,sans-Serif" font-size="10.00">::begin</text>
</a>
</g>
</g>
<!-- Node24 -->
<g id="node2" class="node"><title>Node24</title>
<g id="a_node2"><a xlink:href="../../d8/d3d/namespaceExtIO.html#aab1cbf2a78b56e576a536d371e1984ef" target="_top" xlink:title=" ">
<polygon fill="white" stroke="black" points="305,-117.5 305,-136.5 390,-136.5 390,-117.5 305,-117.5"/>
<text text-anchor="middle" x="347.5" y="-124.5" font-family="Helvetica,sans-Serif" font-size="10.00">ExtIO::pinMode</text>
</a>
</g>
</g>
<!-- Node23&#45;&gt;Node24 -->
<g id="edge1" class="edge"><title>Node23&#45;&gt;Node24</title>
<path fill="none" stroke="midnightblue" d="M106.293,-93.33C159.441,-100.78 241.298,-112.254 294.383,-119.695"/>
<polygon fill="midnightblue" stroke="midnightblue" points="294.21,-123.205 304.599,-121.127 295.182,-116.272 294.21,-123.205"/>
</g>
<!-- Node30 -->
<g id="node8" class="node"><title>Node30</title>
<g id="a_node8"><a xlink:href="../../dd/d81/classSPIShiftRegisterOut.html#a354e3ee7b692fce3ae093aeb2d207647" target="_top" xlink:title="Write the state buffer to the physical outputs.">
<polygon fill="white" stroke="black" points="142,-41 142,-71 248,-71 248,-41 142,-41"/>
<text text-anchor="start" x="150" y="-59" font-family="Helvetica,sans-Serif" font-size="10.00">SPIShiftRegisterOut</text>
<text text-anchor="middle" x="195" y="-48" font-family="Helvetica,sans-Serif" font-size="10.00">::update</text>
</a>
</g>
</g>
<!-- Node23&#45;&gt;Node30 -->
<g id="edge7" class="edge"><title>Node23&#45;&gt;Node30</title>
<path fill="none" stroke="midnightblue" d="M106.131,-74.8291C114.512,-73.0331 123.26,-71.1585 131.849,-69.3182"/>
<polygon fill="midnightblue" stroke="midnightblue" points="132.781,-72.6979 141.826,-67.1802 131.314,-65.8533 132.781,-72.6979"/>
</g>
<!-- Node25 -->
<g id="node3" class="node"><title>Node25</title>
<g id="a_node3"><a xlink:href="../../d8/d3d/namespaceExtIO.html#ae314377b34b9e49b153f6e36fb354d37" target="_top" xlink:title="Find the IO element of a given extended IO pin number.">
<polygon fill="white" stroke="black" points="447,-119.5 447,-138.5 580,-138.5 580,-119.5 447,-119.5"/>
<text text-anchor="middle" x="513.5" y="-126.5" font-family="Helvetica,sans-Serif" font-size="10.00">ExtIO::getIOElementOfPin</text>
</a>
</g>
</g>
<!-- Node24&#45;&gt;Node25 -->
<g id="edge2" class="edge"><title>Node24&#45;&gt;Node25</title>
<path fill="none" stroke="midnightblue" d="M390.308,-127.51C404.399,-127.682 420.593,-127.879 436.486,-128.073"/>
<polygon fill="midnightblue" stroke="midnightblue" points="436.819,-131.577 446.861,-128.2 436.904,-124.578 436.819,-131.577"/>
</g>
<!-- Node28 -->
<g id="node6" class="node"><title>Node28</title>
<g id="a_node6"><a xlink:href="../../de/d4e/classExtendedIOElement.html#ab0e7b41124b477456bf5a1de8071d1e3" target="_top" xlink:title=" ">
<polygon fill="white" stroke="black" points="458.5,-158 458.5,-188 568.5,-188 568.5,-158 458.5,-158"/>
<text text-anchor="start" x="466.5" y="-176" font-family="Helvetica,sans-Serif" font-size="10.00">ExtendedIOElement::</text>
<text text-anchor="middle" x="513.5" y="-165" font-family="Helvetica,sans-Serif" font-size="10.00">pinMode</text>
</a>
</g>
</g>
<!-- Node24&#45;&gt;Node28 -->
<g id="edge5" class="edge"><title>Node24&#45;&gt;Node28</title>
<path fill="none" stroke="midnightblue" d="M382.481,-136.531C401.687,-141.918 426.319,-148.827 448.969,-155.18"/>
<polygon fill="midnightblue" stroke="midnightblue" points="448.296,-158.627 458.869,-157.957 450.186,-151.887 448.296,-158.627"/>
</g>
<!-- Node29 -->
<g id="node7" class="node"><title>Node29</title>
<g id="a_node7"><a xlink:href="../../de/d4e/classExtendedIOElement.html#a955322d29e4e63ec40a587b5ed9db31b" target="_top" xlink:title="Get the smallest global extended IO pin number that belongs to this extended IO element.">
<polygon fill="white" stroke="black" points="458.5,-70 458.5,-100 568.5,-100 568.5,-70 458.5,-70"/>
<text text-anchor="start" x="466.5" y="-88" font-family="Helvetica,sans-Serif" font-size="10.00">ExtendedIOElement::</text>
<text text-anchor="middle" x="513.5" y="-77" font-family="Helvetica,sans-Serif" font-size="10.00">getStart</text>
</a>
</g>
</g>
<!-- Node24&#45;&gt;Node29 -->
<g id="edge6" class="edge"><title>Node24&#45;&gt;Node29</title>
<path fill="none" stroke="midnightblue" d="M385.714,-117.47C404.234,-112.727 427.15,-106.858 448.385,-101.42"/>
<polygon fill="midnightblue" stroke="midnightblue" points="449.504,-104.746 458.323,-98.8747 447.767,-97.9651 449.504,-104.746"/>
</g>
<!-- Node26 -->
<g id="node4" class="node"><title>Node26</title>
<g id="a_node4"><a xlink:href="../../de/d4e/classExtendedIOElement.html#a3151d5bf08e6b32231cdd58ed2f39aee" target="_top" xlink:title=" ">
<polygon fill="white" stroke="black" points="616,-136 616,-166 726,-166 726,-136 616,-136"/>
<text text-anchor="start" x="624" y="-154" font-family="Helvetica,sans-Serif" font-size="10.00">ExtendedIOElement::</text>
<text text-anchor="middle" x="671" y="-143" font-family="Helvetica,sans-Serif" font-size="10.00">getAll</text>
</a>
</g>
</g>
<!-- Node25&#45;&gt;Node26 -->
<g id="edge3" class="edge"><title>Node25&#45;&gt;Node26</title>
<path fill="none" stroke="midnightblue" d="M580.446,-138.33C588.803,-139.512 597.345,-140.721 605.676,-141.9"/>
<polygon fill="midnightblue" stroke="midnightblue" points="605.314,-145.383 615.706,-143.318 606.295,-138.452 605.314,-145.383"/>
</g>
<!-- Node27 -->
<g id="node5" class="node"><title>Node27</title>
<g id="a_node5"><a xlink:href="../../d8/d3d/namespaceExtIO.html#aedf6005ecc64cea16059965b80ce5f85" target="_top" xlink:title=" ">
<polygon fill="white" stroke="black" points="629,-97.5 629,-116.5 713,-116.5 713,-97.5 629,-97.5"/>
<text text-anchor="middle" x="671" y="-104.5" font-family="Helvetica,sans-Serif" font-size="10.00">ExtIO::inRange</text>
</a>
</g>
</g>
<!-- Node25&#45;&gt;Node27 -->
<g id="edge4" class="edge"><title>Node25&#45;&gt;Node27</title>
<path fill="none" stroke="midnightblue" d="M580.446,-119.67C593.25,-117.858 606.492,-115.985 618.738,-114.252"/>
<polygon fill="midnightblue" stroke="midnightblue" points="619.348,-117.701 628.759,-112.835 618.368,-110.77 619.348,-117.701"/>
</g>
<!-- Node31 -->
<g id="node9" class="node"><title>Node31</title>
<g id="a_node9"><a xlink:href="../../d8/d3d/namespaceExtIO.html#af83b2f2728401bf8efea42049ceb7dcd" target="_top" xlink:title=" ">
<polygon fill="white" stroke="black" points="299,-76.5 299,-95.5 396,-95.5 396,-76.5 299,-76.5"/>
<text text-anchor="middle" x="347.5" y="-83.5" font-family="Helvetica,sans-Serif" font-size="10.00">ExtIO::digitalWrite</text>
</a>
</g>
</g>
<!-- Node30&#45;&gt;Node31 -->
<g id="edge8" class="edge"><title>Node30&#45;&gt;Node31</title>
<path fill="none" stroke="midnightblue" d="M248.215,-66.4084C261.34,-69.0246 275.499,-71.8471 288.872,-74.5127"/>
<polygon fill="midnightblue" stroke="midnightblue" points="288.423,-77.9921 298.915,-76.5146 289.792,-71.1271 288.423,-77.9921"/>
</g>
<!-- Node33 -->
<g id="node11" class="node"><title>Node33</title>
<g id="a_node11"><a xlink:href="../../db/de9/classBitArray.html#aacefcc4192572972267e4a488078c55f" target="_top" xlink:title=" ">
<polygon fill="white" stroke="black" points="284,-38.5 284,-57.5 411,-57.5 411,-38.5 284,-38.5"/>
<text text-anchor="middle" x="347.5" y="-45.5" font-family="Helvetica,sans-Serif" font-size="10.00">BitArray::getBufferLength</text>
</a>
</g>
</g>
<!-- Node30&#45;&gt;Node33 -->
<g id="edge12" class="edge"><title>Node30&#45;&gt;Node33</title>
<path fill="none" stroke="midnightblue" d="M248.215,-53.2244C256.453,-52.7866 265.098,-52.327 273.701,-51.8697"/>
<polygon fill="midnightblue" stroke="midnightblue" points="273.953,-55.3614 283.753,-51.3354 273.581,-48.3712 273.953,-55.3614"/>
</g>
<!-- Node34 -->
<g id="node12" class="node"><title>Node34</title>
<g id="a_node12"><a xlink:href="../../db/de9/classBitArray.html#aeec8f5b93dfe769260a944c8fa6debca" target="_top" xlink:title=" ">
<polygon fill="white" stroke="black" points="301.5,-0.5 301.5,-19.5 393.5,-19.5 393.5,-0.5 301.5,-0.5"/>
<text text-anchor="middle" x="347.5" y="-7.5" font-family="Helvetica,sans-Serif" font-size="10.00">BitArray::getByte</text>
</a>
</g>
</g>
<!-- Node30&#45;&gt;Node34 -->
<g id="edge13" class="edge"><title>Node30&#45;&gt;Node34</title>
<path fill="none" stroke="midnightblue" d="M244.867,-40.9821C257.604,-37.0745 271.314,-32.8743 284,-29 290.777,-26.9301 297.97,-24.7388 304.971,-22.6086"/>
<polygon fill="midnightblue" stroke="midnightblue" points="306.471,-25.8105 315.02,-19.5525 304.435,-19.1133 306.471,-25.8105"/>
</g>
<!-- Node31&#45;&gt;Node25 -->
<g id="edge9" class="edge"><title>Node31&#45;&gt;Node25</title>
<path fill="none" stroke="midnightblue" d="M384.897,-95.5431C408.89,-101.834 440.52,-110.127 466.286,-116.883"/>
<polygon fill="midnightblue" stroke="midnightblue" points="465.644,-120.333 476.205,-119.484 467.419,-113.562 465.644,-120.333"/>
</g>
<!-- Node31&#45;&gt;Node29 -->
<g id="edge11" class="edge"><title>Node31&#45;&gt;Node29</title>
<path fill="none" stroke="midnightblue" d="M396.376,-85.7081C412.578,-85.6093 430.943,-85.4973 448.209,-85.392"/>
<polygon fill="midnightblue" stroke="midnightblue" points="448.244,-88.892 458.222,-85.331 448.201,-81.8921 448.244,-88.892"/>
</g>
<!-- Node32 -->
<g id="node10" class="node"><title>Node32</title>
<g id="a_node10"><a xlink:href="../../de/d4e/classExtendedIOElement.html#aef8e5ac156adeb1864ff1f8621218e40" target="_top" xlink:title=" ">
<polygon fill="white" stroke="black" points="458.5,-21 458.5,-51 568.5,-51 568.5,-21 458.5,-21"/>
<text text-anchor="start" x="466.5" y="-39" font-family="Helvetica,sans-Serif" font-size="10.00">ExtendedIOElement::</text>
<text text-anchor="middle" x="513.5" y="-28" font-family="Helvetica,sans-Serif" font-size="10.00">digitalWrite</text>
</a>
</g>
</g>
<!-- Node31&#45;&gt;Node32 -->
<g id="edge10" class="edge"><title>Node31&#45;&gt;Node32</title>
<path fill="none" stroke="midnightblue" d="M379.977,-76.4396C389.904,-73.4224 400.911,-70.0743 411,-67 424.686,-62.8297 439.408,-58.337 453.279,-54.1013"/>
<polygon fill="midnightblue" stroke="midnightblue" points="454.66,-57.3393 463.201,-51.0708 452.615,-50.6446 454.66,-57.3393"/>
</g>
</g>
</svg>
