<?xml version="1.0" encoding="UTF-8" standalone="no"?>
<!DOCTYPE svg PUBLIC "-//W3C//DTD SVG 1.1//EN"
 "http://www.w3.org/Graphics/SVG/1.1/DTD/svg11.dtd">
<!-- Generated by graphviz version 2.38.0 (20140413.2041)
 -->
<!-- Title: MCU::Bankable::VPotRingLEDs&lt; N &gt; Pages: 1 -->
<svg width="739pt" height="1241pt"
 viewBox="0.00 0.00 739.00 1241.00" xmlns="http://www.w3.org/2000/svg" xmlns:xlink="http://www.w3.org/1999/xlink">
<g id="graph0" class="graph" transform="scale(1 1) rotate(0) translate(4 1237)">
<title>MCU::Bankable::VPotRingLEDs&lt; N &gt;</title>
<polygon fill="white" stroke="none" points="-4,4 -4,-1237 735,-1237 735,4 -4,4"/>
<!-- Node9 -->
<g id="node1" class="node"><title>Node9</title>
<g id="a_node1"><a xlink:title=" ">
<polygon fill="#bfbfbf" stroke="black" points="119,-0.5 119,-57.5 304,-57.5 304,-0.5 119,-0.5"/>
<text text-anchor="middle" x="211.5" y="-45.5" font-family="Helvetica,sans-Serif" font-size="10.00">MCU::Bankable::VPotRingLEDs&lt; N &gt;</text>
<polyline fill="none" stroke="black" points="119,-38.5 304,-38.5 "/>
<text text-anchor="middle" x="211.5" y="-26.5" font-family="Helvetica,sans-Serif" font-size="10.00"> </text>
<polyline fill="none" stroke="black" points="119,-19.5 304,-19.5 "/>
<text text-anchor="start" x="127" y="-7.5" font-family="Helvetica,sans-Serif" font-size="10.00">+ VPotRingLEDs()</text>
</a>
</g>
</g>
<!-- Node10 -->
<g id="node2" class="node"><title>Node10</title>
<g id="a_node2"><a xlink:href="../../da/d93/classMCU_1_1Bankable_1_1VPotRing.html" target="_top" xlink:title="A class for MIDI input elements that represent Mackie Control Universal V&#45;Pots.">
<polygon fill="white" stroke="black" points="198.5,-95.5 198.5,-207.5 358.5,-207.5 358.5,-95.5 198.5,-95.5"/>
<text text-anchor="middle" x="278.5" y="-195.5" font-family="Helvetica,sans-Serif" font-size="10.00">MCU::Bankable::VPotRing&lt; N &gt;</text>
<polyline fill="none" stroke="black" points="198.5,-188.5 358.5,-188.5 "/>
<text text-anchor="start" x="206.5" y="-176.5" font-family="Helvetica,sans-Serif" font-size="10.00">&#45; values</text>
<polyline fill="none" stroke="black" points="198.5,-169.5 358.5,-169.5 "/>
<text text-anchor="start" x="206.5" y="-157.5" font-family="Helvetica,sans-Serif" font-size="10.00">+ VPotRing()</text>
<text text-anchor="start" x="206.5" y="-146.5" font-family="Helvetica,sans-Serif" font-size="10.00">+ reset()</text>
<text text-anchor="start" x="206.5" y="-135.5" font-family="Helvetica,sans-Serif" font-size="10.00">&#45; updateImpl()</text>
<text text-anchor="start" x="206.5" y="-124.5" font-family="Helvetica,sans-Serif" font-size="10.00">&#45; match()</text>
<text text-anchor="start" x="206.5" y="-113.5" font-family="Helvetica,sans-Serif" font-size="10.00">&#45; getRawValue()</text>
<text text-anchor="start" x="206.5" y="-102.5" font-family="Helvetica,sans-Serif" font-size="10.00">&#45; onBankSettingChange()</text>
</a>
</g>
</g>
<!-- Node10&#45;&gt;Node9 -->
<g id="edge1" class="edge"><title>Node10&#45;&gt;Node9</title>
<path fill="none" stroke="midnightblue" d="M242.825,-86.3374C237.231,-76.2771 231.718,-66.3629 226.915,-57.7231"/>
<polygon fill="none" stroke="midnightblue" points="239.827,-88.1484 247.745,-95.1875 245.945,-84.7467 239.827,-88.1484"/>
</g>
<!-- Node11 -->
<g id="node3" class="node"><title>Node11</title>
<g id="a_node3"><a xlink:href="../../db/dac/classMCU_1_1VPotRing__Base.html" target="_top" xlink:title="An abstract class of MIDI input element that represent Mackie Control Universal V&#45;Pots.">
<polygon fill="white" stroke="black" points="109.5,-310.5 109.5,-488.5 225.5,-488.5 225.5,-310.5 109.5,-310.5"/>
<text text-anchor="middle" x="167.5" y="-476.5" font-family="Helvetica,sans-Serif" font-size="10.00">MCU::VPotRing_Base</text>
<polyline fill="none" stroke="black" points="109.5,-469.5 225.5,-469.5 "/>
<text text-anchor="middle" x="167.5" y="-457.5" font-family="Helvetica,sans-Serif" font-size="10.00"> </text>
<polyline fill="none" stroke="black" points="109.5,-450.5 225.5,-450.5 "/>
<text text-anchor="start" x="117.5" y="-438.5" font-family="Helvetica,sans-Serif" font-size="10.00">+ getPosition()</text>
<text text-anchor="start" x="117.5" y="-427.5" font-family="Helvetica,sans-Serif" font-size="10.00">+ getCenterLed()</text>
<text text-anchor="start" x="117.5" y="-416.5" font-family="Helvetica,sans-Serif" font-size="10.00">+ getMode()</text>
<text text-anchor="start" x="117.5" y="-405.5" font-family="Helvetica,sans-Serif" font-size="10.00">+ getStartOn()</text>
<text text-anchor="start" x="117.5" y="-394.5" font-family="Helvetica,sans-Serif" font-size="10.00">+ getStartOff()</text>
<text text-anchor="start" x="117.5" y="-383.5" font-family="Helvetica,sans-Serif" font-size="10.00"># VPotRing_Base()</text>
<text text-anchor="start" x="117.5" y="-372.5" font-family="Helvetica,sans-Serif" font-size="10.00"># VPotRing_Base()</text>
<text text-anchor="start" x="117.5" y="-361.5" font-family="Helvetica,sans-Serif" font-size="10.00"># sanitizeValue()</text>
<text text-anchor="start" x="117.5" y="-350.5" font-family="Helvetica,sans-Serif" font-size="10.00">&#45; getRawValue()</text>
<text text-anchor="start" x="117.5" y="-339.5" font-family="Helvetica,sans-Serif" font-size="10.00">&#45; getPosition()</text>
<text text-anchor="start" x="117.5" y="-328.5" font-family="Helvetica,sans-Serif" font-size="10.00">&#45; getCenterLed()</text>
<text text-anchor="start" x="117.5" y="-317.5" font-family="Helvetica,sans-Serif" font-size="10.00">&#45; getMode()</text>
</a>
</g>
</g>
<!-- Node11&#45;&gt;Node10 -->
<g id="edge2" class="edge"><title>Node11&#45;&gt;Node10</title>
<path fill="none" stroke="midnightblue" d="M211.474,-301.044C225.824,-269.241 241.25,-235.055 253.681,-207.505"/>
<polygon fill="none" stroke="midnightblue" points="208.183,-299.829 207.26,-310.383 214.563,-302.708 208.183,-299.829"/>
</g>
<!-- Node19 -->
<g id="node11" class="node"><title>Node19</title>
<g id="a_node11"><a xlink:href="../../de/d52/classMCU_1_1VPotRingLEDs__Base.html" target="_top" xlink:title=" ">
<polygon fill="white" stroke="black" points="40.5,-112 40.5,-191 180.5,-191 180.5,-112 40.5,-112"/>
<text text-anchor="middle" x="110.5" y="-179" font-family="Helvetica,sans-Serif" font-size="10.00">MCU::VPotRingLEDs_Base</text>
<polyline fill="none" stroke="black" points="40.5,-172 180.5,-172 "/>
<text text-anchor="middle" x="110.5" y="-160" font-family="Helvetica,sans-Serif" font-size="10.00"> </text>
<polyline fill="none" stroke="black" points="40.5,-153 180.5,-153 "/>
<text text-anchor="start" x="48.5" y="-141" font-family="Helvetica,sans-Serif" font-size="10.00">+ VPotRingLEDs_Base()</text>
<text text-anchor="start" x="48.5" y="-130" font-family="Helvetica,sans-Serif" font-size="10.00">+ begin()</text>
<text text-anchor="start" x="48.5" y="-119" font-family="Helvetica,sans-Serif" font-size="10.00">+ display()</text>
</a>
</g>
</g>
<!-- Node11&#45;&gt;Node19 -->
<g id="edge13" class="edge"><title>Node11&#45;&gt;Node19</title>
<path fill="none" stroke="midnightblue" d="M144.732,-300.239C135.886,-262.061 126.272,-220.567 119.491,-191.301"/>
<polygon fill="none" stroke="midnightblue" points="141.416,-301.431 147.083,-310.383 148.235,-299.851 141.416,-301.431"/>
</g>
<!-- Node12 -->
<g id="node4" class="node"><title>Node12</title>
<g id="a_node4"><a xlink:href="../../d3/d96/classMIDIInputElementCC.html" target="_top" xlink:title=" ">
<polygon fill="white" stroke="black" points="303.5,-608 303.5,-731 435.5,-731 435.5,-608 303.5,-608"/>
<text text-anchor="middle" x="369.5" y="-719" font-family="Helvetica,sans-Serif" font-size="10.00">MIDIInputElementCC</text>
<polyline fill="none" stroke="black" points="303.5,-712 435.5,-712 "/>
<text text-anchor="middle" x="369.5" y="-700" font-family="Helvetica,sans-Serif" font-size="10.00"> </text>
<polyline fill="none" stroke="black" points="303.5,-693 435.5,-693 "/>
<text text-anchor="start" x="311.5" y="-681" font-family="Helvetica,sans-Serif" font-size="10.00">+ MIDIInputElementCC()</text>
<text text-anchor="start" x="311.5" y="-670" font-family="Helvetica,sans-Serif" font-size="10.00">+ ~MIDIInputElementCC()</text>
<text text-anchor="start" x="311.5" y="-659" font-family="Helvetica,sans-Serif" font-size="10.00">+ beginAll()</text>
<text text-anchor="start" x="311.5" y="-648" font-family="Helvetica,sans-Serif" font-size="10.00">+ updateAll()</text>
<text text-anchor="start" x="311.5" y="-637" font-family="Helvetica,sans-Serif" font-size="10.00">+ resetAll()</text>
<text text-anchor="start" x="311.5" y="-626" font-family="Helvetica,sans-Serif" font-size="10.00">+ updateAllWith()</text>
<text text-anchor="start" x="311.5" y="-615" font-family="Helvetica,sans-Serif" font-size="10.00">&#45; moveDown()</text>
</a>
</g>
</g>
<!-- Node12&#45;&gt;Node11 -->
<g id="edge3" class="edge"><title>Node12&#45;&gt;Node11</title>
<path fill="none" stroke="midnightblue" d="M295.685,-609.92C274.183,-590.484 251.838,-567.713 234.5,-544 222.167,-527.132 211.251,-507.632 201.999,-488.549"/>
<polygon fill="none" stroke="midnightblue" points="293.45,-612.616 303.246,-616.651 298.104,-607.388 293.45,-612.616"/>
</g>
<!-- Node15 -->
<g id="node7" class="node"><title>Node15</title>
<g id="a_node7"><a xlink:href="../../d4/d23/classDoublyLinkable.html" target="_top" xlink:title=" ">
<polygon fill="white" stroke="black" points="243.5,-365.5 243.5,-433.5 379.5,-433.5 379.5,-365.5 243.5,-365.5"/>
<text text-anchor="start" x="251.5" y="-421.5" font-family="Helvetica,sans-Serif" font-size="10.00">DoublyLinkable&lt; MIDIInput</text>
<text text-anchor="middle" x="311.5" y="-410.5" font-family="Helvetica,sans-Serif" font-size="10.00">ElementCC &gt;</text>
<polyline fill="none" stroke="black" points="243.5,-403.5 379.5,-403.5 "/>
<text text-anchor="middle" x="311.5" y="-391.5" font-family="Helvetica,sans-Serif" font-size="10.00"> </text>
<polyline fill="none" stroke="black" points="243.5,-384.5 379.5,-384.5 "/>
<text text-anchor="start" x="251.5" y="-372.5" font-family="Helvetica,sans-Serif" font-size="10.00"># ~DoublyLinkable()</text>
</a>
</g>
</g>
<!-- Node12&#45;&gt;Node15 -->
<g id="edge7" class="edge"><title>Node12&#45;&gt;Node15</title>
<path fill="none" stroke="#404040" d="M319.143,-607.678C314.827,-600.06 311.115,-592.092 308.5,-584 293.841,-538.648 297.338,-483.642 302.778,-445.75"/>
<polygon fill="none" stroke="#404040" points="302.824,-445.45 299.797,-438.906 304.673,-433.594 307.701,-440.139 302.824,-445.45"/>
<text text-anchor="middle" x="330" y="-576" font-family="Helvetica,sans-Serif" font-size="10.00"> #next</text>
<text text-anchor="middle" x="330" y="-565" font-family="Helvetica,sans-Serif" font-size="10.00">#previous</text>
</g>
<!-- Node16 -->
<g id="node8" class="node"><title>Node16</title>
<g id="a_node8"><a xlink:href="../../dd/d16/classDoublyLinkedList.html" target="_top" xlink:title=" ">
<polygon fill="white" stroke="black" points="397.5,-255.5 397.5,-543.5 541.5,-543.5 541.5,-255.5 397.5,-255.5"/>
<text text-anchor="start" x="405.5" y="-531.5" font-family="Helvetica,sans-Serif" font-size="10.00">DoublyLinkedList&lt; MIDIInput</text>
<text text-anchor="middle" x="469.5" y="-520.5" font-family="Helvetica,sans-Serif" font-size="10.00">ElementCC &gt;</text>
<polyline fill="none" stroke="black" points="397.5,-513.5 541.5,-513.5 "/>
<text text-anchor="middle" x="469.5" y="-501.5" font-family="Helvetica,sans-Serif" font-size="10.00"> </text>
<polyline fill="none" stroke="black" points="397.5,-494.5 541.5,-494.5 "/>
<text text-anchor="start" x="405.5" y="-482.5" font-family="Helvetica,sans-Serif" font-size="10.00">+ DoublyLinkedList()</text>
<text text-anchor="start" x="405.5" y="-471.5" font-family="Helvetica,sans-Serif" font-size="10.00">+ append()</text>
<text text-anchor="start" x="405.5" y="-460.5" font-family="Helvetica,sans-Serif" font-size="10.00">+ append()</text>
<text text-anchor="start" x="405.5" y="-449.5" font-family="Helvetica,sans-Serif" font-size="10.00">+ insertBefore()</text>
<text text-anchor="start" x="405.5" y="-438.5" font-family="Helvetica,sans-Serif" font-size="10.00">+ insertBefore()</text>
<text text-anchor="start" x="405.5" y="-427.5" font-family="Helvetica,sans-Serif" font-size="10.00">+ insertSorted()</text>
<text text-anchor="start" x="405.5" y="-416.5" font-family="Helvetica,sans-Serif" font-size="10.00">+ insertSorted()</text>
<text text-anchor="start" x="405.5" y="-405.5" font-family="Helvetica,sans-Serif" font-size="10.00">+ remove()</text>
<text text-anchor="start" x="405.5" y="-394.5" font-family="Helvetica,sans-Serif" font-size="10.00">+ remove()</text>
<text text-anchor="start" x="405.5" y="-383.5" font-family="Helvetica,sans-Serif" font-size="10.00">+ moveDown()</text>
<text text-anchor="start" x="405.5" y="-372.5" font-family="Helvetica,sans-Serif" font-size="10.00">+ couldContain()</text>
<text text-anchor="start" x="405.5" y="-361.5" font-family="Helvetica,sans-Serif" font-size="10.00">+ begin()</text>
<text text-anchor="start" x="405.5" y="-350.5" font-family="Helvetica,sans-Serif" font-size="10.00">+ begin()</text>
<text text-anchor="start" x="405.5" y="-339.5" font-family="Helvetica,sans-Serif" font-size="10.00">+ end()</text>
<text text-anchor="start" x="405.5" y="-328.5" font-family="Helvetica,sans-Serif" font-size="10.00">+ end()</text>
<text text-anchor="start" x="405.5" y="-317.5" font-family="Helvetica,sans-Serif" font-size="10.00">+ rbegin()</text>
<text text-anchor="start" x="405.5" y="-306.5" font-family="Helvetica,sans-Serif" font-size="10.00">+ rbegin()</text>
<text text-anchor="start" x="405.5" y="-295.5" font-family="Helvetica,sans-Serif" font-size="10.00">+ rend()</text>
<text text-anchor="start" x="405.5" y="-284.5" font-family="Helvetica,sans-Serif" font-size="10.00">+ rend()</text>
<text text-anchor="start" x="405.5" y="-273.5" font-family="Helvetica,sans-Serif" font-size="10.00">+ getFirst()</text>
<text text-anchor="start" x="405.5" y="-262.5" font-family="Helvetica,sans-Serif" font-size="10.00">+ getLast()</text>
</a>
</g>
</g>
<!-- Node12&#45;&gt;Node16 -->
<g id="edge9" class="edge"><title>Node12&#45;&gt;Node16</title>
<path fill="none" stroke="#404040" d="M391.565,-607.916C397.067,-592.9 402.974,-576.856 408.5,-562 409.378,-559.641 410.263,-557.263 411.155,-554.869"/>
<polygon fill="none" stroke="#404040" points="411.176,-554.813 409.527,-547.793 415.373,-543.571 417.022,-550.591 411.176,-554.813"/>
<text text-anchor="middle" x="419.5" y="-576" font-family="Helvetica,sans-Serif" font-size="10.00"> &#45;last</text>
<text text-anchor="middle" x="419.5" y="-565" font-family="Helvetica,sans-Serif" font-size="10.00">&#45;first</text>
</g>
<!-- Node13 -->
<g id="node5" class="node"><title>Node13</title>
<g id="a_node5"><a xlink:href="../../d9/db1/classMIDIInputElement.html" target="_top" xlink:title=" ">
<polygon fill="white" stroke="black" points="311,-784.5 311,-951.5 428,-951.5 428,-784.5 311,-784.5"/>
<text text-anchor="middle" x="369.5" y="-939.5" font-family="Helvetica,sans-Serif" font-size="10.00">MIDIInputElement</text>
<polyline fill="none" stroke="black" points="311,-932.5 428,-932.5 "/>
<text text-anchor="middle" x="369.5" y="-920.5" font-family="Helvetica,sans-Serif" font-size="10.00"> </text>
<polyline fill="none" stroke="black" points="311,-913.5 428,-913.5 "/>
<text text-anchor="start" x="319" y="-901.5" font-family="Helvetica,sans-Serif" font-size="10.00">+ ~MIDIInputElement()</text>
<text text-anchor="start" x="319" y="-890.5" font-family="Helvetica,sans-Serif" font-size="10.00">+ begin()</text>
<text text-anchor="start" x="319" y="-879.5" font-family="Helvetica,sans-Serif" font-size="10.00">+ display()</text>
<text text-anchor="start" x="319" y="-868.5" font-family="Helvetica,sans-Serif" font-size="10.00">+ reset()</text>
<text text-anchor="start" x="319" y="-857.5" font-family="Helvetica,sans-Serif" font-size="10.00">+ update()</text>
<text text-anchor="start" x="319" y="-846.5" font-family="Helvetica,sans-Serif" font-size="10.00">+ updateWith()</text>
<text text-anchor="start" x="319" y="-835.5" font-family="Helvetica,sans-Serif" font-size="10.00"># MIDIInputElement()</text>
<text text-anchor="start" x="319" y="-824.5" font-family="Helvetica,sans-Serif" font-size="10.00">&#45; updateImpl()</text>
<text text-anchor="start" x="319" y="-813.5" font-family="Helvetica,sans-Serif" font-size="10.00">&#45; getTarget()</text>
<text text-anchor="start" x="319" y="-802.5" font-family="Helvetica,sans-Serif" font-size="10.00">&#45; match()</text>
<text text-anchor="start" x="319" y="-791.5" font-family="Helvetica,sans-Serif" font-size="10.00">&#45; moveDown()</text>
</a>
</g>
</g>
<!-- Node13&#45;&gt;Node12 -->
<g id="edge4" class="edge"><title>Node13&#45;&gt;Node12</title>
<path fill="none" stroke="midnightblue" d="M369.5,-774.148C369.5,-759.518 369.5,-744.727 369.5,-731.079"/>
<polygon fill="none" stroke="midnightblue" points="366,-774.236 369.5,-784.236 373,-774.236 366,-774.236"/>
</g>
<!-- Node14 -->
<g id="node6" class="node"><title>Node14</title>
<g id="a_node6"><a xlink:href="../../d3/d10/classMIDICNChannelAddress.html" target="_top" xlink:title=" ">
<polygon fill="white" stroke="black" points="299.5,-999.5 299.5,-1232.5 439.5,-1232.5 439.5,-999.5 299.5,-999.5"/>
<text text-anchor="middle" x="369.5" y="-1220.5" font-family="Helvetica,sans-Serif" font-size="10.00">MIDICNChannelAddress</text>
<polyline fill="none" stroke="black" points="299.5,-1213.5 439.5,-1213.5 "/>
<text text-anchor="start" x="307.5" y="-1201.5" font-family="Helvetica,sans-Serif" font-size="10.00">&#45; addresses</text>
<polyline fill="none" stroke="black" points="299.5,-1194.5 439.5,-1194.5 "/>
<text text-anchor="start" x="307.5" y="-1182.5" font-family="Helvetica,sans-Serif" font-size="10.00">+ MIDICNChannelAddress()</text>
<text text-anchor="start" x="307.5" y="-1171.5" font-family="Helvetica,sans-Serif" font-size="10.00">+ MIDICNChannelAddress()</text>
<text text-anchor="start" x="307.5" y="-1160.5" font-family="Helvetica,sans-Serif" font-size="10.00">+ MIDICNChannelAddress()</text>
<text text-anchor="start" x="307.5" y="-1149.5" font-family="Helvetica,sans-Serif" font-size="10.00">+ MIDICNChannelAddress()</text>
<text text-anchor="start" x="307.5" y="-1138.5" font-family="Helvetica,sans-Serif" font-size="10.00">+ operator+=()</text>
<text text-anchor="start" x="307.5" y="-1127.5" font-family="Helvetica,sans-Serif" font-size="10.00">+ operator&#45;=()</text>
<text text-anchor="start" x="307.5" y="-1116.5" font-family="Helvetica,sans-Serif" font-size="10.00">+ operator+()</text>
<text text-anchor="start" x="307.5" y="-1105.5" font-family="Helvetica,sans-Serif" font-size="10.00">+ operator&#45;()</text>
<text text-anchor="start" x="307.5" y="-1094.5" font-family="Helvetica,sans-Serif" font-size="10.00">+ operator==()</text>
<text text-anchor="start" x="307.5" y="-1083.5" font-family="Helvetica,sans-Serif" font-size="10.00">+ operator!=()</text>
<text text-anchor="start" x="307.5" y="-1072.5" font-family="Helvetica,sans-Serif" font-size="10.00">+ getAddress()</text>
<text text-anchor="start" x="307.5" y="-1061.5" font-family="Helvetica,sans-Serif" font-size="10.00">+ getChannel()</text>
<text text-anchor="start" x="307.5" y="-1050.5" font-family="Helvetica,sans-Serif" font-size="10.00">+ getCableNumber()</text>
<text text-anchor="start" x="307.5" y="-1039.5" font-family="Helvetica,sans-Serif" font-size="10.00">+ isValid()</text>
<text text-anchor="start" x="307.5" y="-1028.5" font-family="Helvetica,sans-Serif" font-size="10.00">+ operator bool()</text>
<text text-anchor="start" x="307.5" y="-1017.5" font-family="Helvetica,sans-Serif" font-size="10.00">+ matchSingle()</text>
<text text-anchor="start" x="307.5" y="-1006.5" font-family="Helvetica,sans-Serif" font-size="10.00">+ matchAddressInRange()</text>
</a>
</g>
</g>
<!-- Node14&#45;&gt;Node13 -->
<g id="edge5" class="edge"><title>Node14&#45;&gt;Node13</title>
<path fill="none" stroke="#404040" d="M369.5,-999.203C369.5,-987.272 369.5,-975.25 369.5,-963.589"/>
<polygon fill="none" stroke="#404040" points="369.5,-963.585 365.5,-957.585 369.5,-951.585 373.5,-957.585 369.5,-963.585"/>
<text text-anchor="middle" x="391" y="-973" font-family="Helvetica,sans-Serif" font-size="10.00"> #address</text>
</g>
<!-- Node15&#45;&gt;Node12 -->
<g id="edge6" class="edge"><title>Node15&#45;&gt;Node12</title>
<path fill="none" stroke="midnightblue" d="M324.826,-443.18C334.508,-475.521 347.301,-521.205 355.5,-562 358.458,-576.718 360.94,-592.71 362.953,-607.721"/>
<polygon fill="none" stroke="midnightblue" points="328.172,-442.152 321.93,-433.591 321.471,-444.176 328.172,-442.152"/>
</g>
<!-- Node16&#45;&gt;Node12 -->
<g id="edge8" class="edge"><title>Node16&#45;&gt;Node12</title>
<path fill="none" stroke="#404040" d="M448.996,-543.787C444.994,-557.653 440.213,-571.278 434.5,-584 432.453,-588.559 430.114,-593.096 427.569,-597.565"/>
<polygon fill="none" stroke="#404040" points="427.545,-597.605 427.834,-604.81 421.294,-607.848 421.005,-600.643 427.545,-597.605"/>
<text text-anchor="middle" x="465.5" y="-570.5" font-family="Helvetica,sans-Serif" font-size="10.00"> &#45;elements</text>
</g>
<!-- Node17 -->
<g id="node9" class="node"><title>Node17</title>
<g id="a_node9"><a xlink:href="../../db/d6e/classBankableMIDIInput.html" target="_top" xlink:title=" ">
<polygon fill="white" stroke="black" points="560,-310.5 560,-488.5 731,-488.5 731,-310.5 560,-310.5"/>
<text text-anchor="middle" x="645.5" y="-476.5" font-family="Helvetica,sans-Serif" font-size="10.00">BankableMIDIInput&lt; N &gt;</text>
<polyline fill="none" stroke="black" points="560,-469.5 731,-469.5 "/>
<text text-anchor="start" x="568" y="-457.5" font-family="Helvetica,sans-Serif" font-size="10.00">&#45; bank</text>
<text text-anchor="start" x="568" y="-446.5" font-family="Helvetica,sans-Serif" font-size="10.00">&#45; type</text>
<polyline fill="none" stroke="black" points="560,-439.5 731,-439.5 "/>
<text text-anchor="start" x="568" y="-427.5" font-family="Helvetica,sans-Serif" font-size="10.00">+ ~BankableMIDIInput()</text>
<text text-anchor="start" x="568" y="-416.5" font-family="Helvetica,sans-Serif" font-size="10.00">+ getSelection()</text>
<text text-anchor="start" x="568" y="-405.5" font-family="Helvetica,sans-Serif" font-size="10.00">+ getIndex()</text>
<text text-anchor="start" x="568" y="-394.5" font-family="Helvetica,sans-Serif" font-size="10.00"># BankableMIDIInput()</text>
<text text-anchor="start" x="568" y="-383.5" font-family="Helvetica,sans-Serif" font-size="10.00"># BankableMIDIInput()</text>
<text text-anchor="start" x="568" y="-372.5" font-family="Helvetica,sans-Serif" font-size="10.00"># matchBankable()</text>
<text text-anchor="start" x="568" y="-361.5" font-family="Helvetica,sans-Serif" font-size="10.00"># matchBankableInRange()</text>
<text text-anchor="start" x="568" y="-350.5" font-family="Helvetica,sans-Serif" font-size="10.00"># matchBankable()</text>
<text text-anchor="start" x="568" y="-339.5" font-family="Helvetica,sans-Serif" font-size="10.00"># matchBankableAddressInRange()</text>
<text text-anchor="start" x="568" y="-328.5" font-family="Helvetica,sans-Serif" font-size="10.00"># inRange()</text>
<text text-anchor="start" x="568" y="-317.5" font-family="Helvetica,sans-Serif" font-size="10.00">&#45; onBankSettingChange()</text>
</a>
</g>
</g>
<!-- Node17&#45;&gt;Node10 -->
<g id="edge10" class="edge"><title>Node17&#45;&gt;Node10</title>
<path fill="none" stroke="midnightblue" d="M593.611,-301.682C581.202,-284.492 566.76,-267.967 550.5,-255 494.376,-210.243 416.641,-183.577 358.641,-168.717"/>
<polygon fill="none" stroke="midnightblue" points="590.941,-303.971 599.539,-310.161 596.678,-299.96 590.941,-303.971"/>
</g>
<!-- Node18 -->
<g id="node10" class="node"><title>Node18</title>
<g id="a_node10"><a xlink:href="../../d4/d23/classDoublyLinkable.html" target="_top" xlink:title=" ">
<polygon fill="white" stroke="black" points="579,-630 579,-709 712,-709 712,-630 579,-630"/>
<text text-anchor="start" x="587" y="-697" font-family="Helvetica,sans-Serif" font-size="10.00">DoublyLinkable&lt; Bankable</text>
<text text-anchor="middle" x="645.5" y="-686" font-family="Helvetica,sans-Serif" font-size="10.00">MIDIInput&lt; N &gt; &gt;</text>
<polyline fill="none" stroke="black" points="579,-679 712,-679 "/>
<text text-anchor="start" x="587" y="-667" font-family="Helvetica,sans-Serif" font-size="10.00"># next</text>
<text text-anchor="start" x="587" y="-656" font-family="Helvetica,sans-Serif" font-size="10.00"># previous</text>
<polyline fill="none" stroke="black" points="579,-649 712,-649 "/>
<text text-anchor="start" x="587" y="-637" font-family="Helvetica,sans-Serif" font-size="10.00"># ~DoublyLinkable()</text>
</a>
</g>
</g>
<!-- Node18&#45;&gt;Node17 -->
<g id="edge11" class="edge"><title>Node18&#45;&gt;Node17</title>
<path fill="none" stroke="midnightblue" d="M645.5,-619.453C645.5,-582.976 645.5,-532.206 645.5,-488.737"/>
<polygon fill="none" stroke="midnightblue" points="642,-619.817 645.5,-629.817 649,-619.817 642,-619.817"/>
</g>
<!-- Node19&#45;&gt;Node9 -->
<g id="edge12" class="edge"><title>Node19&#45;&gt;Node9</title>
<path fill="none" stroke="midnightblue" d="M149.723,-103.704C162.777,-88.1294 176.891,-71.2907 188.329,-57.6451"/>
<polygon fill="none" stroke="midnightblue" points="146.754,-101.797 143.013,-111.71 152.119,-106.294 146.754,-101.797"/>
</g>
<!-- Node20 -->
<g id="node12" class="node"><title>Node20</title>
<g id="a_node12"><a xlink:href="../../d2/d1b/classLEDs.html" target="_top" xlink:title=" ">
<polygon fill="white" stroke="black" points="0,-349 0,-450 91,-450 91,-349 0,-349"/>
<text text-anchor="middle" x="45.5" y="-438" font-family="Helvetica,sans-Serif" font-size="10.00">LEDs&lt; 11 &gt;</text>
<polyline fill="none" stroke="black" points="0,-431 91,-431 "/>
<text text-anchor="middle" x="45.5" y="-419" font-family="Helvetica,sans-Serif" font-size="10.00"> </text>
<polyline fill="none" stroke="black" points="0,-412 91,-412 "/>
<text text-anchor="start" x="8" y="-400" font-family="Helvetica,sans-Serif" font-size="10.00">+ LEDs()</text>
<text text-anchor="start" x="8" y="-389" font-family="Helvetica,sans-Serif" font-size="10.00">+ begin()</text>
<text text-anchor="start" x="8" y="-378" font-family="Helvetica,sans-Serif" font-size="10.00">+ displayRange()</text>
<text text-anchor="start" x="8" y="-367" font-family="Helvetica,sans-Serif" font-size="10.00">+ displayDot()</text>
<text text-anchor="start" x="8" y="-356" font-family="Helvetica,sans-Serif" font-size="10.00">+ clear()</text>
</a>
</g>
</g>
<!-- Node20&#45;&gt;Node19 -->
<g id="edge14" class="edge"><title>Node20&#45;&gt;Node19</title>
<path fill="none" stroke="#404040" d="M58.6537,-348.718C69.8533,-306.332 85.8721,-245.707 97.1325,-203.091"/>
<polygon fill="none" stroke="#404040" points="97.1809,-202.907 94.8464,-196.085 100.247,-191.306 102.581,-198.128 97.1809,-202.907"/>
<text text-anchor="middle" x="102" y="-229" font-family="Helvetica,sans-Serif" font-size="10.00"> &#45;leds</text>
</g>
<!-- Node21 -->
<g id="node13" class="node"><title>Node21</title>
<g id="a_node13"><a xlink:href="../../d7/d6a/structArray.html" target="_top" xlink:title=" ">
<polygon fill="white" stroke="black" points="6,-602.5 6,-736.5 85,-736.5 85,-602.5 6,-602.5"/>
<text text-anchor="middle" x="45.5" y="-724.5" font-family="Helvetica,sans-Serif" font-size="10.00">Array&lt; N &gt;</text>
<polyline fill="none" stroke="black" points="6,-717.5 85,-717.5 "/>
<text text-anchor="start" x="14" y="-705.5" font-family="Helvetica,sans-Serif" font-size="10.00">+ length</text>
<polyline fill="none" stroke="black" points="6,-698.5 85,-698.5 "/>
<text text-anchor="start" x="14" y="-686.5" font-family="Helvetica,sans-Serif" font-size="10.00">+ operator[]()</text>
<text text-anchor="start" x="14" y="-675.5" font-family="Helvetica,sans-Serif" font-size="10.00">+ operator[]()</text>
<text text-anchor="start" x="14" y="-664.5" font-family="Helvetica,sans-Serif" font-size="10.00">+ begin()</text>
<text text-anchor="start" x="14" y="-653.5" font-family="Helvetica,sans-Serif" font-size="10.00">+ begin()</text>
<text text-anchor="start" x="14" y="-642.5" font-family="Helvetica,sans-Serif" font-size="10.00">+ end()</text>
<text text-anchor="start" x="14" y="-631.5" font-family="Helvetica,sans-Serif" font-size="10.00">+ end()</text>
<text text-anchor="start" x="14" y="-620.5" font-family="Helvetica,sans-Serif" font-size="10.00">+ operator==()</text>
<text text-anchor="start" x="14" y="-609.5" font-family="Helvetica,sans-Serif" font-size="10.00">+ operator!=()</text>
</a>
</g>
</g>
<!-- Node21&#45;&gt;Node20 -->
<g id="edge15" class="edge"><title>Node21&#45;&gt;Node20</title>
<path fill="none" stroke="#404040" d="M45.5,-602.253C45.5,-559.457 45.5,-504.149 45.5,-462.268"/>
<polygon fill="none" stroke="#404040" points="45.5001,-462.007 41.5,-456.007 45.5,-450.007 49.5,-456.007 45.5001,-462.007"/>
<text text-anchor="middle" x="65" y="-570.5" font-family="Helvetica,sans-Serif" font-size="10.00"> &#45;ledPins</text>
</g>
<!-- Node22 -->
<g id="node14" class="node"><title>Node22</title>
<g id="a_node14"><a xlink:title=" ">
<polygon fill="white" stroke="#bfbfbf" points="31,-839.5 31,-896.5 60,-896.5 60,-839.5 31,-839.5"/>
<text text-anchor="middle" x="45.5" y="-884.5" font-family="Helvetica,sans-Serif" font-size="10.00">N</text>
<polyline fill="none" stroke="#bfbfbf" points="31,-877.5 60,-877.5 "/>
<text text-anchor="middle" x="45.5" y="-865.5" font-family="Helvetica,sans-Serif" font-size="10.00"> </text>
<polyline fill="none" stroke="#bfbfbf" points="31,-858.5 60,-858.5 "/>
<text text-anchor="middle" x="45.5" y="-846.5" font-family="Helvetica,sans-Serif" font-size="10.00"> </text>
</a>
</g>
</g>
<!-- Node22&#45;&gt;Node21 -->
<g id="edge16" class="edge"><title>Node22&#45;&gt;Node21</title>
<path fill="none" stroke="#404040" d="M45.5,-839.263C45.5,-815.717 45.5,-780.752 45.5,-748.745"/>
<polygon fill="none" stroke="#404040" points="45.5001,-748.653 41.5,-742.653 45.5,-736.653 49.5,-742.653 45.5001,-748.653"/>
<text text-anchor="middle" x="59.5" y="-758" font-family="Helvetica,sans-Serif" font-size="10.00"> +data</text>
</g>
</g>
</svg>
