<?xml version="1.0" encoding="UTF-8" standalone="no"?>
<!DOCTYPE svg PUBLIC "-//W3C//DTD SVG 1.1//EN"
 "http://www.w3.org/Graphics/SVG/1.1/DTD/svg11.dtd">
<!-- Generated by graphviz version 2.38.0 (20140413.2041)
 -->
<!-- Title: Bankable::MIDIButtonMatrix&lt; sendOn, sendOff, nb_rows, nb_cols &gt; Pages: 1 -->
<svg width="690pt" height="1113pt"
 viewBox="0.00 0.00 690.00 1113.00" xmlns="http://www.w3.org/2000/svg" xmlns:xlink="http://www.w3.org/1999/xlink">
<g id="graph0" class="graph" transform="scale(1 1) rotate(0) translate(4 1109)">
<title>Bankable::MIDIButtonMatrix&lt; sendOn, sendOff, nb_rows, nb_cols &gt;</title>
<polygon fill="white" stroke="none" points="-4,4 -4,-1109 686,-1109 686,4 -4,4"/>
<!-- Node5 -->
<g id="node1" class="node"><title>Node5</title>
<g id="a_node1"><a xlink:title="MIDIButtonMatrix.">
<polygon fill="#bfbfbf" stroke="black" points="304.5,-0.5 304.5,-112.5 450.5,-112.5 450.5,-0.5 304.5,-0.5"/>
<text text-anchor="start" x="312.5" y="-100.5" font-family="Helvetica,sans-Serif" font-size="10.00">Bankable::MIDIButtonMatrix</text>
<text text-anchor="start" x="312.5" y="-89.5" font-family="Helvetica,sans-Serif" font-size="10.00">&lt; sendOn, sendOff, nb_rows,</text>
<text text-anchor="middle" x="377.5" y="-78.5" font-family="Helvetica,sans-Serif" font-size="10.00"> nb_cols &gt;</text>
<polyline fill="none" stroke="black" points="304.5,-71.5 450.5,-71.5 "/>
<text text-anchor="start" x="312.5" y="-59.5" font-family="Helvetica,sans-Serif" font-size="10.00">&#45; activeButtons</text>
<polyline fill="none" stroke="black" points="304.5,-52.5 450.5,-52.5 "/>
<text text-anchor="start" x="312.5" y="-40.5" font-family="Helvetica,sans-Serif" font-size="10.00">+ begin()</text>
<text text-anchor="start" x="312.5" y="-29.5" font-family="Helvetica,sans-Serif" font-size="10.00">+ update()</text>
<text text-anchor="start" x="312.5" y="-18.5" font-family="Helvetica,sans-Serif" font-size="10.00"># MIDIButtonMatrix()</text>
<text text-anchor="start" x="312.5" y="-7.5" font-family="Helvetica,sans-Serif" font-size="10.00">&#45; onButtonChanged()</text>
</a>
</g>
</g>
<!-- Node6 -->
<g id="node2" class="node"><title>Node6</title>
<g id="a_node2"><a xlink:href="../../d3/d43/classBankableMIDIOutput.html" target="_top" xlink:title=" ">
<polygon fill="white" stroke="black" points="22.5,-193.5 22.5,-338.5 144.5,-338.5 144.5,-193.5 22.5,-193.5"/>
<text text-anchor="middle" x="83.5" y="-326.5" font-family="Helvetica,sans-Serif" font-size="10.00">BankableMIDIOutput</text>
<polyline fill="none" stroke="black" points="22.5,-319.5 144.5,-319.5 "/>
<text text-anchor="start" x="30.5" y="-307.5" font-family="Helvetica,sans-Serif" font-size="10.00">&#45; type</text>
<text text-anchor="start" x="30.5" y="-296.5" font-family="Helvetica,sans-Serif" font-size="10.00">&#45; lockedSetting</text>
<text text-anchor="start" x="30.5" y="-285.5" font-family="Helvetica,sans-Serif" font-size="10.00">&#45; UNLOCKED</text>
<polyline fill="none" stroke="black" points="22.5,-278.5 144.5,-278.5 "/>
<text text-anchor="start" x="30.5" y="-266.5" font-family="Helvetica,sans-Serif" font-size="10.00">+ getAddressOffset()</text>
<text text-anchor="start" x="30.5" y="-255.5" font-family="Helvetica,sans-Serif" font-size="10.00">+ getRawBankSetting()</text>
<text text-anchor="start" x="30.5" y="-244.5" font-family="Helvetica,sans-Serif" font-size="10.00">+ getSelection()</text>
<text text-anchor="start" x="30.5" y="-233.5" font-family="Helvetica,sans-Serif" font-size="10.00"># BankableMIDIOutput()</text>
<text text-anchor="start" x="30.5" y="-222.5" font-family="Helvetica,sans-Serif" font-size="10.00"># BankableMIDIOutput()</text>
<text text-anchor="start" x="30.5" y="-211.5" font-family="Helvetica,sans-Serif" font-size="10.00"># lock()</text>
<text text-anchor="start" x="30.5" y="-200.5" font-family="Helvetica,sans-Serif" font-size="10.00"># unlock()</text>
</a>
</g>
</g>
<!-- Node6&#45;&gt;Node5 -->
<g id="edge1" class="edge"><title>Node6&#45;&gt;Node5</title>
<path fill="none" stroke="midnightblue" d="M151.474,-186.093C161.095,-176.782 171.225,-167.825 181.5,-160 219.076,-131.384 265.791,-106.604 304.188,-88.5797"/>
<polygon fill="none" stroke="midnightblue" points="148.868,-183.748 144.221,-193.269 153.791,-188.724 148.868,-183.748"/>
</g>
<!-- Node7 -->
<g id="node3" class="node"><title>Node7</title>
<g id="a_node3"><a xlink:href="../../d9/d36/classOutputBank.html" target="_top" xlink:title=" ">
<polygon fill="white" stroke="black" points="0,-513 0,-614 113,-614 113,-513 0,-513"/>
<text text-anchor="middle" x="56.5" y="-602" font-family="Helvetica,sans-Serif" font-size="10.00">OutputBank</text>
<polyline fill="none" stroke="black" points="0,-595 113,-595 "/>
<text text-anchor="start" x="8" y="-583" font-family="Helvetica,sans-Serif" font-size="10.00">&#45; tracksPerBank</text>
<text text-anchor="start" x="8" y="-572" font-family="Helvetica,sans-Serif" font-size="10.00">&#45; bankSetting</text>
<polyline fill="none" stroke="black" points="0,-565 113,-565 "/>
<text text-anchor="start" x="8" y="-553" font-family="Helvetica,sans-Serif" font-size="10.00">+ OutputBank()</text>
<text text-anchor="start" x="8" y="-542" font-family="Helvetica,sans-Serif" font-size="10.00">+ select()</text>
<text text-anchor="start" x="8" y="-531" font-family="Helvetica,sans-Serif" font-size="10.00">+ getSelection()</text>
<text text-anchor="start" x="8" y="-520" font-family="Helvetica,sans-Serif" font-size="10.00">+ getTracksPerBank()</text>
</a>
</g>
</g>
<!-- Node7&#45;&gt;Node6 -->
<g id="edge2" class="edge"><title>Node7&#45;&gt;Node6</title>
<path fill="none" stroke="#404040" d="M61.0497,-512.707C65.0931,-468.454 71.0861,-402.863 75.8634,-350.579"/>
<polygon fill="none" stroke="#404040" points="75.8641,-350.569 72.4267,-344.23 76.9561,-338.619 80.3935,-344.958 75.8641,-350.569"/>
<text text-anchor="middle" x="86.5" y="-393" font-family="Helvetica,sans-Serif" font-size="10.00"> &#45;bank</text>
</g>
<!-- Node8 -->
<g id="node4" class="node"><title>Node8</title>
<g id="a_node4"><a xlink:href="../../d5/de0/classUpdatable.html" target="_top" xlink:title=" ">
<polygon fill="white" stroke="black" points="190.5,-160.5 190.5,-371.5 294.5,-371.5 294.5,-160.5 190.5,-160.5"/>
<text text-anchor="middle" x="242.5" y="-359.5" font-family="Helvetica,sans-Serif" font-size="10.00">MIDIOutputElement</text>
<polyline fill="none" stroke="black" points="190.5,-352.5 294.5,-352.5 "/>
<text text-anchor="middle" x="242.5" y="-340.5" font-family="Helvetica,sans-Serif" font-size="10.00"> </text>
<polyline fill="none" stroke="black" points="190.5,-333.5 294.5,-333.5 "/>
<text text-anchor="start" x="198.5" y="-321.5" font-family="Helvetica,sans-Serif" font-size="10.00">+ Updatable()</text>
<text text-anchor="start" x="198.5" y="-310.5" font-family="Helvetica,sans-Serif" font-size="10.00">+ ~Updatable()</text>
<text text-anchor="start" x="198.5" y="-299.5" font-family="Helvetica,sans-Serif" font-size="10.00">+ update()</text>
<text text-anchor="start" x="198.5" y="-288.5" font-family="Helvetica,sans-Serif" font-size="10.00">+ begin()</text>
<text text-anchor="start" x="198.5" y="-277.5" font-family="Helvetica,sans-Serif" font-size="10.00">+ enable()</text>
<text text-anchor="start" x="198.5" y="-266.5" font-family="Helvetica,sans-Serif" font-size="10.00">+ disable()</text>
<text text-anchor="start" x="198.5" y="-255.5" font-family="Helvetica,sans-Serif" font-size="10.00">+ isEnabled()</text>
<text text-anchor="start" x="198.5" y="-244.5" font-family="Helvetica,sans-Serif" font-size="10.00">+ enable()</text>
<text text-anchor="start" x="198.5" y="-233.5" font-family="Helvetica,sans-Serif" font-size="10.00">+ enable()</text>
<text text-anchor="start" x="198.5" y="-222.5" font-family="Helvetica,sans-Serif" font-size="10.00">+ enable()</text>
<text text-anchor="start" x="198.5" y="-211.5" font-family="Helvetica,sans-Serif" font-size="10.00">+ disable()</text>
<text text-anchor="start" x="198.5" y="-200.5" font-family="Helvetica,sans-Serif" font-size="10.00">+ disable()</text>
<text text-anchor="start" x="198.5" y="-189.5" font-family="Helvetica,sans-Serif" font-size="10.00">+ disable()</text>
<text text-anchor="start" x="198.5" y="-178.5" font-family="Helvetica,sans-Serif" font-size="10.00">+ beginAll()</text>
<text text-anchor="start" x="198.5" y="-167.5" font-family="Helvetica,sans-Serif" font-size="10.00">+ updateAll()</text>
</a>
</g>
</g>
<!-- Node8&#45;&gt;Node5 -->
<g id="edge3" class="edge"><title>Node8&#45;&gt;Node5</title>
<path fill="none" stroke="midnightblue" d="M300.017,-171.601C302.531,-167.673 305.033,-163.792 307.5,-160 317.605,-144.466 328.821,-127.801 339.261,-112.518"/>
<polygon fill="none" stroke="midnightblue" points="296.921,-169.947 294.501,-180.262 302.825,-173.707 296.921,-169.947"/>
</g>
<!-- Node9 -->
<g id="node5" class="node"><title>Node9</title>
<g id="a_node5"><a xlink:href="../../d4/d23/classDoublyLinkable.html" target="_top" xlink:title=" ">
<polygon fill="white" stroke="black" points="146,-1036.5 146,-1104.5 283,-1104.5 283,-1036.5 146,-1036.5"/>
<text text-anchor="start" x="154" y="-1092.5" font-family="Helvetica,sans-Serif" font-size="10.00">DoublyLinkable&lt; Updatable</text>
<text text-anchor="middle" x="214.5" y="-1081.5" font-family="Helvetica,sans-Serif" font-size="10.00">&lt; NormalUpdatable &gt; &gt;</text>
<polyline fill="none" stroke="black" points="146,-1074.5 283,-1074.5 "/>
<text text-anchor="middle" x="214.5" y="-1062.5" font-family="Helvetica,sans-Serif" font-size="10.00"> </text>
<polyline fill="none" stroke="black" points="146,-1055.5 283,-1055.5 "/>
<text text-anchor="start" x="154" y="-1043.5" font-family="Helvetica,sans-Serif" font-size="10.00"># ~DoublyLinkable()</text>
</a>
</g>
</g>
<!-- Node9&#45;&gt;Node8 -->
<g id="edge4" class="edge"><title>Node9&#45;&gt;Node8</title>
<path fill="none" stroke="midnightblue" d="M183.568,-1027.8C174.256,-1012.86 165.252,-995.403 160.5,-978 127.776,-858.166 130.084,-539.441 160.5,-419 166.814,-393.999 178.139,-368.641 190.397,-345.989"/>
<polygon fill="none" stroke="midnightblue" points="180.685,-1029.79 189.056,-1036.28 186.562,-1025.98 180.685,-1029.79"/>
</g>
<!-- Node10 -->
<g id="node6" class="node"><title>Node10</title>
<g id="a_node6"><a xlink:href="../../d5/de0/classUpdatable.html" target="_top" xlink:title=" ">
<polygon fill="white" stroke="black" points="170,-766.5 170,-977.5 325,-977.5 325,-766.5 170,-766.5"/>
<text text-anchor="middle" x="247.5" y="-965.5" font-family="Helvetica,sans-Serif" font-size="10.00">Updatable&lt; NormalUpdatable &gt;</text>
<polyline fill="none" stroke="black" points="170,-958.5 325,-958.5 "/>
<text text-anchor="middle" x="247.5" y="-946.5" font-family="Helvetica,sans-Serif" font-size="10.00"> </text>
<polyline fill="none" stroke="black" points="170,-939.5 325,-939.5 "/>
<text text-anchor="start" x="178" y="-927.5" font-family="Helvetica,sans-Serif" font-size="10.00">+ Updatable()</text>
<text text-anchor="start" x="178" y="-916.5" font-family="Helvetica,sans-Serif" font-size="10.00">+ ~Updatable()</text>
<text text-anchor="start" x="178" y="-905.5" font-family="Helvetica,sans-Serif" font-size="10.00">+ update()</text>
<text text-anchor="start" x="178" y="-894.5" font-family="Helvetica,sans-Serif" font-size="10.00">+ begin()</text>
<text text-anchor="start" x="178" y="-883.5" font-family="Helvetica,sans-Serif" font-size="10.00">+ enable()</text>
<text text-anchor="start" x="178" y="-872.5" font-family="Helvetica,sans-Serif" font-size="10.00">+ disable()</text>
<text text-anchor="start" x="178" y="-861.5" font-family="Helvetica,sans-Serif" font-size="10.00">+ isEnabled()</text>
<text text-anchor="start" x="178" y="-850.5" font-family="Helvetica,sans-Serif" font-size="10.00">+ enable()</text>
<text text-anchor="start" x="178" y="-839.5" font-family="Helvetica,sans-Serif" font-size="10.00">+ enable()</text>
<text text-anchor="start" x="178" y="-828.5" font-family="Helvetica,sans-Serif" font-size="10.00">+ enable()</text>
<text text-anchor="start" x="178" y="-817.5" font-family="Helvetica,sans-Serif" font-size="10.00">+ disable()</text>
<text text-anchor="start" x="178" y="-806.5" font-family="Helvetica,sans-Serif" font-size="10.00">+ disable()</text>
<text text-anchor="start" x="178" y="-795.5" font-family="Helvetica,sans-Serif" font-size="10.00">+ disable()</text>
<text text-anchor="start" x="178" y="-784.5" font-family="Helvetica,sans-Serif" font-size="10.00">+ beginAll()</text>
<text text-anchor="start" x="178" y="-773.5" font-family="Helvetica,sans-Serif" font-size="10.00">+ updateAll()</text>
</a>
</g>
</g>
<!-- Node9&#45;&gt;Node10 -->
<g id="edge6" class="edge"><title>Node9&#45;&gt;Node10</title>
<path fill="none" stroke="midnightblue" d="M221.793,-1026.07C224.224,-1011.6 227.046,-994.794 229.912,-977.727"/>
<polygon fill="none" stroke="midnightblue" points="218.303,-1025.72 220.098,-1036.17 225.206,-1026.88 218.303,-1025.72"/>
</g>
<!-- Node10&#45;&gt;Node9 -->
<g id="edge5" class="edge"><title>Node10&#45;&gt;Node9</title>
<path fill="none" stroke="#404040" d="M232.382,-977.669C230.196,-991.259 227.877,-1004.98 225.5,-1018 225.111,-1020.13 224.699,-1022.31 224.273,-1024.51"/>
<polygon fill="none" stroke="#404040" points="224.265,-1024.55 227,-1031.22 221.893,-1036.31 219.158,-1029.64 224.265,-1024.55"/>
<text text-anchor="middle" x="251" y="-1010" font-family="Helvetica,sans-Serif" font-size="10.00"> #next</text>
<text text-anchor="middle" x="251" y="-999" font-family="Helvetica,sans-Serif" font-size="10.00">#previous</text>
</g>
<!-- Node11 -->
<g id="node7" class="node"><title>Node11</title>
<g id="a_node7"><a xlink:href="../../dd/d16/classDoublyLinkedList.html" target="_top" xlink:title=" ">
<polygon fill="white" stroke="black" points="170,-419.5 170,-707.5 315,-707.5 315,-419.5 170,-419.5"/>
<text text-anchor="start" x="178" y="-695.5" font-family="Helvetica,sans-Serif" font-size="10.00">DoublyLinkedList&lt; Updatable</text>
<text text-anchor="middle" x="242.5" y="-684.5" font-family="Helvetica,sans-Serif" font-size="10.00">&lt; NormalUpdatable &gt; &gt;</text>
<polyline fill="none" stroke="black" points="170,-677.5 315,-677.5 "/>
<text text-anchor="middle" x="242.5" y="-665.5" font-family="Helvetica,sans-Serif" font-size="10.00"> </text>
<polyline fill="none" stroke="black" points="170,-658.5 315,-658.5 "/>
<text text-anchor="start" x="178" y="-646.5" font-family="Helvetica,sans-Serif" font-size="10.00">+ DoublyLinkedList()</text>
<text text-anchor="start" x="178" y="-635.5" font-family="Helvetica,sans-Serif" font-size="10.00">+ append()</text>
<text text-anchor="start" x="178" y="-624.5" font-family="Helvetica,sans-Serif" font-size="10.00">+ append()</text>
<text text-anchor="start" x="178" y="-613.5" font-family="Helvetica,sans-Serif" font-size="10.00">+ insertBefore()</text>
<text text-anchor="start" x="178" y="-602.5" font-family="Helvetica,sans-Serif" font-size="10.00">+ insertBefore()</text>
<text text-anchor="start" x="178" y="-591.5" font-family="Helvetica,sans-Serif" font-size="10.00">+ insertSorted()</text>
<text text-anchor="start" x="178" y="-580.5" font-family="Helvetica,sans-Serif" font-size="10.00">+ insertSorted()</text>
<text text-anchor="start" x="178" y="-569.5" font-family="Helvetica,sans-Serif" font-size="10.00">+ remove()</text>
<text text-anchor="start" x="178" y="-558.5" font-family="Helvetica,sans-Serif" font-size="10.00">+ remove()</text>
<text text-anchor="start" x="178" y="-547.5" font-family="Helvetica,sans-Serif" font-size="10.00">+ moveDown()</text>
<text text-anchor="start" x="178" y="-536.5" font-family="Helvetica,sans-Serif" font-size="10.00">+ couldContain()</text>
<text text-anchor="start" x="178" y="-525.5" font-family="Helvetica,sans-Serif" font-size="10.00">+ begin()</text>
<text text-anchor="start" x="178" y="-514.5" font-family="Helvetica,sans-Serif" font-size="10.00">+ begin()</text>
<text text-anchor="start" x="178" y="-503.5" font-family="Helvetica,sans-Serif" font-size="10.00">+ end()</text>
<text text-anchor="start" x="178" y="-492.5" font-family="Helvetica,sans-Serif" font-size="10.00">+ end()</text>
<text text-anchor="start" x="178" y="-481.5" font-family="Helvetica,sans-Serif" font-size="10.00">+ rbegin()</text>
<text text-anchor="start" x="178" y="-470.5" font-family="Helvetica,sans-Serif" font-size="10.00">+ rbegin()</text>
<text text-anchor="start" x="178" y="-459.5" font-family="Helvetica,sans-Serif" font-size="10.00">+ rend()</text>
<text text-anchor="start" x="178" y="-448.5" font-family="Helvetica,sans-Serif" font-size="10.00">+ rend()</text>
<text text-anchor="start" x="178" y="-437.5" font-family="Helvetica,sans-Serif" font-size="10.00">+ getFirst()</text>
<text text-anchor="start" x="178" y="-426.5" font-family="Helvetica,sans-Serif" font-size="10.00">+ getLast()</text>
</a>
</g>
</g>
<!-- Node10&#45;&gt;Node11 -->
<g id="edge8" class="edge"><title>Node10&#45;&gt;Node11</title>
<path fill="none" stroke="#404040" d="M222.007,-766.258C221.024,-760.103 220.173,-753.985 219.5,-748 218.466,-738.802 217.957,-729.349 217.867,-719.814"/>
<polygon fill="none" stroke="#404040" points="217.868,-719.706 213.919,-713.673 217.97,-707.707 221.919,-713.74 217.868,-719.706"/>
<text text-anchor="middle" x="230.5" y="-740" font-family="Helvetica,sans-Serif" font-size="10.00"> &#45;last</text>
<text text-anchor="middle" x="230.5" y="-729" font-family="Helvetica,sans-Serif" font-size="10.00">&#45;first</text>
</g>
<!-- Node11&#45;&gt;Node8 -->
<g id="edge9" class="edge"><title>Node11&#45;&gt;Node8</title>
<path fill="none" stroke="#404040" d="M242.5,-419.078C242.5,-407.182 242.5,-395.249 242.5,-383.586"/>
<polygon fill="none" stroke="#404040" points="242.5,-383.544 238.5,-377.545 242.5,-371.544 246.5,-377.544 242.5,-383.544"/>
<text text-anchor="middle" x="269.5" y="-393" font-family="Helvetica,sans-Serif" font-size="10.00"> &#45;updatables</text>
</g>
<!-- Node11&#45;&gt;Node10 -->
<g id="edge7" class="edge"><title>Node11&#45;&gt;Node10</title>
<path fill="none" stroke="#404040" d="M245.194,-707.599C245.3,-713.817 245.402,-719.972 245.5,-726 245.649,-735.204 245.796,-744.736 245.939,-754.316"/>
<polygon fill="none" stroke="#404040" points="245.941,-754.455 250.029,-760.396 246.118,-766.454 242.03,-760.514 245.941,-754.455"/>
<text text-anchor="middle" x="273.5" y="-734.5" font-family="Helvetica,sans-Serif" font-size="10.00"> &#45;updatables</text>
</g>
<!-- Node12 -->
<g id="node8" class="node"><title>Node12</title>
<g id="a_node8"><a xlink:href="../../d8/d6c/classButtonMatrix.html" target="_top" xlink:title="A MIDI_Control_Element that reads the states of a button matrix and sends it over MIDI.">
<polygon fill="white" stroke="black" points="317,-177 317,-355 438,-355 438,-177 317,-177"/>
<text text-anchor="start" x="325" y="-343" font-family="Helvetica,sans-Serif" font-size="10.00">ButtonMatrix&lt; nb_rows,</text>
<text text-anchor="middle" x="377.5" y="-332" font-family="Helvetica,sans-Serif" font-size="10.00"> nb_cols &gt;</text>
<polyline fill="none" stroke="black" points="317,-325 438,-325 "/>
<text text-anchor="start" x="325" y="-313" font-family="Helvetica,sans-Serif" font-size="10.00">&#45; prevRefresh</text>
<text text-anchor="start" x="325" y="-302" font-family="Helvetica,sans-Serif" font-size="10.00">&#45; prevStates</text>
<polyline fill="none" stroke="black" points="317,-295 438,-295 "/>
<text text-anchor="start" x="325" y="-283" font-family="Helvetica,sans-Serif" font-size="10.00">+ ButtonMatrix()</text>
<text text-anchor="start" x="325" y="-272" font-family="Helvetica,sans-Serif" font-size="10.00">+ ~ButtonMatrix()</text>
<text text-anchor="start" x="325" y="-261" font-family="Helvetica,sans-Serif" font-size="10.00">+ begin()</text>
<text text-anchor="start" x="325" y="-250" font-family="Helvetica,sans-Serif" font-size="10.00">+ refresh()</text>
<text text-anchor="start" x="325" y="-239" font-family="Helvetica,sans-Serif" font-size="10.00">&#45; onButtonChanged()</text>
<text text-anchor="start" x="325" y="-228" font-family="Helvetica,sans-Serif" font-size="10.00">&#45; getPrevState()</text>
<text text-anchor="start" x="325" y="-217" font-family="Helvetica,sans-Serif" font-size="10.00">&#45; setPrevState()</text>
<text text-anchor="start" x="325" y="-206" font-family="Helvetica,sans-Serif" font-size="10.00">&#45; positionToBits()</text>
<text text-anchor="start" x="325" y="-195" font-family="Helvetica,sans-Serif" font-size="10.00">&#45; bitsToIndex()</text>
<text text-anchor="start" x="325" y="-184" font-family="Helvetica,sans-Serif" font-size="10.00">&#45; bitsToBitmask()</text>
</a>
</g>
</g>
<!-- Node12&#45;&gt;Node5 -->
<g id="edge10" class="edge"><title>Node12&#45;&gt;Node5</title>
<path fill="none" stroke="midnightblue" d="M377.5,-166.462C377.5,-147.964 377.5,-129.245 377.5,-112.664"/>
<polygon fill="none" stroke="midnightblue" points="374,-166.7 377.5,-176.7 381,-166.7 374,-166.7"/>
</g>
<!-- Node13 -->
<g id="node9" class="node"><title>Node13</title>
<g id="a_node9"><a xlink:href="../../d7/d6a/structArray.html" target="_top" xlink:title=" ">
<polygon fill="white" stroke="black" points="333,-496.5 333,-630.5 428,-630.5 428,-496.5 333,-496.5"/>
<text text-anchor="middle" x="380.5" y="-618.5" font-family="Helvetica,sans-Serif" font-size="10.00">Array&lt; nb_rows &gt;</text>
<polyline fill="none" stroke="black" points="333,-611.5 428,-611.5 "/>
<text text-anchor="start" x="341" y="-599.5" font-family="Helvetica,sans-Serif" font-size="10.00">+ data</text>
<polyline fill="none" stroke="black" points="333,-592.5 428,-592.5 "/>
<text text-anchor="start" x="341" y="-580.5" font-family="Helvetica,sans-Serif" font-size="10.00">+ operator[]()</text>
<text text-anchor="start" x="341" y="-569.5" font-family="Helvetica,sans-Serif" font-size="10.00">+ operator[]()</text>
<text text-anchor="start" x="341" y="-558.5" font-family="Helvetica,sans-Serif" font-size="10.00">+ begin()</text>
<text text-anchor="start" x="341" y="-547.5" font-family="Helvetica,sans-Serif" font-size="10.00">+ begin()</text>
<text text-anchor="start" x="341" y="-536.5" font-family="Helvetica,sans-Serif" font-size="10.00">+ end()</text>
<text text-anchor="start" x="341" y="-525.5" font-family="Helvetica,sans-Serif" font-size="10.00">+ end()</text>
<text text-anchor="start" x="341" y="-514.5" font-family="Helvetica,sans-Serif" font-size="10.00">+ operator==()</text>
<text text-anchor="start" x="341" y="-503.5" font-family="Helvetica,sans-Serif" font-size="10.00">+ operator!=()</text>
</a>
</g>
</g>
<!-- Node13&#45;&gt;Node12 -->
<g id="edge11" class="edge"><title>Node13&#45;&gt;Node12</title>
<path fill="none" stroke="#404040" d="M379.827,-496.184C379.441,-458.236 378.95,-409.865 378.519,-367.351"/>
<polygon fill="none" stroke="#404040" points="378.518,-367.238 374.457,-361.279 378.396,-355.238 382.457,-361.197 378.518,-367.238"/>
<text text-anchor="middle" x="400.5" y="-393" font-family="Helvetica,sans-Serif" font-size="10.00"> &#45;rowPins</text>
</g>
<!-- Node14 -->
<g id="node10" class="node"><title>Node14</title>
<g id="a_node10"><a xlink:href="../../d7/d6a/structArray.html" target="_top" xlink:title=" ">
<polygon fill="white" stroke="black" points="446.5,-496.5 446.5,-630.5 538.5,-630.5 538.5,-496.5 446.5,-496.5"/>
<text text-anchor="middle" x="492.5" y="-618.5" font-family="Helvetica,sans-Serif" font-size="10.00">Array&lt; nb_cols &gt;</text>
<polyline fill="none" stroke="black" points="446.5,-611.5 538.5,-611.5 "/>
<text text-anchor="start" x="454.5" y="-599.5" font-family="Helvetica,sans-Serif" font-size="10.00">+ data</text>
<polyline fill="none" stroke="black" points="446.5,-592.5 538.5,-592.5 "/>
<text text-anchor="start" x="454.5" y="-580.5" font-family="Helvetica,sans-Serif" font-size="10.00">+ operator[]()</text>
<text text-anchor="start" x="454.5" y="-569.5" font-family="Helvetica,sans-Serif" font-size="10.00">+ operator[]()</text>
<text text-anchor="start" x="454.5" y="-558.5" font-family="Helvetica,sans-Serif" font-size="10.00">+ begin()</text>
<text text-anchor="start" x="454.5" y="-547.5" font-family="Helvetica,sans-Serif" font-size="10.00">+ begin()</text>
<text text-anchor="start" x="454.5" y="-536.5" font-family="Helvetica,sans-Serif" font-size="10.00">+ end()</text>
<text text-anchor="start" x="454.5" y="-525.5" font-family="Helvetica,sans-Serif" font-size="10.00">+ end()</text>
<text text-anchor="start" x="454.5" y="-514.5" font-family="Helvetica,sans-Serif" font-size="10.00">+ operator==()</text>
<text text-anchor="start" x="454.5" y="-503.5" font-family="Helvetica,sans-Serif" font-size="10.00">+ operator!=()</text>
</a>
</g>
</g>
<!-- Node14&#45;&gt;Node12 -->
<g id="edge12" class="edge"><title>Node14&#45;&gt;Node12</title>
<path fill="none" stroke="#404040" d="M466.754,-496.14C454.304,-464.07 439.137,-425.028 425.5,-390 422.504,-382.305 419.401,-374.34 416.28,-366.334"/>
<polygon fill="none" stroke="#404040" points="416.224,-366.191 410.318,-362.054 411.865,-355.011 417.772,-359.148 416.224,-366.191"/>
<text text-anchor="middle" x="449" y="-393" font-family="Helvetica,sans-Serif" font-size="10.00"> &#45;colPins</text>
</g>
<!-- Node15 -->
<g id="node11" class="node"><title>Node15</title>
<g id="a_node11"><a xlink:href="../../d7/d6a/structArray.html" target="_top" xlink:title=" ">
<polygon fill="white" stroke="black" points="456.5,-193.5 456.5,-338.5 558.5,-338.5 558.5,-193.5 456.5,-193.5"/>
<text text-anchor="start" x="464.5" y="-326.5" font-family="Helvetica,sans-Serif" font-size="10.00">Array&lt; nb_rows, nb</text>
<text text-anchor="middle" x="507.5" y="-315.5" font-family="Helvetica,sans-Serif" font-size="10.00">_cols &gt;</text>
<polyline fill="none" stroke="black" points="456.5,-308.5 558.5,-308.5 "/>
<text text-anchor="start" x="464.5" y="-296.5" font-family="Helvetica,sans-Serif" font-size="10.00">+ data</text>
<polyline fill="none" stroke="black" points="456.5,-289.5 558.5,-289.5 "/>
<text text-anchor="start" x="464.5" y="-277.5" font-family="Helvetica,sans-Serif" font-size="10.00">+ operator[]()</text>
<text text-anchor="start" x="464.5" y="-266.5" font-family="Helvetica,sans-Serif" font-size="10.00">+ operator[]()</text>
<text text-anchor="start" x="464.5" y="-255.5" font-family="Helvetica,sans-Serif" font-size="10.00">+ begin()</text>
<text text-anchor="start" x="464.5" y="-244.5" font-family="Helvetica,sans-Serif" font-size="10.00">+ begin()</text>
<text text-anchor="start" x="464.5" y="-233.5" font-family="Helvetica,sans-Serif" font-size="10.00">+ end()</text>
<text text-anchor="start" x="464.5" y="-222.5" font-family="Helvetica,sans-Serif" font-size="10.00">+ end()</text>
<text text-anchor="start" x="464.5" y="-211.5" font-family="Helvetica,sans-Serif" font-size="10.00">+ operator==()</text>
<text text-anchor="start" x="464.5" y="-200.5" font-family="Helvetica,sans-Serif" font-size="10.00">+ operator!=()</text>
</a>
</g>
</g>
<!-- Node15&#45;&gt;Node5 -->
<g id="edge13" class="edge"><title>Node15&#45;&gt;Node5</title>
<path fill="none" stroke="#404040" d="M466.786,-193.454C460.13,-182.185 453.213,-170.721 446.5,-160 438.896,-147.855 430.563,-135.07 422.398,-122.805"/>
<polygon fill="none" stroke="#404040" points="422.275,-122.622 415.613,-119.861 415.599,-112.65 422.261,-115.41 422.275,-122.622"/>
<text text-anchor="middle" x="460.5" y="-134" font-family="Helvetica,sans-Serif" font-size="10.00"> &#45;addresses</text>
</g>
<!-- Node16 -->
<g id="node12" class="node"><title>Node16</title>
<g id="a_node12"><a xlink:href="../../d2/d48/classChannel.html" target="_top" xlink:title=" ">
<polygon fill="white" stroke="black" points="577,-199 577,-333 682,-333 682,-199 577,-199"/>
<text text-anchor="middle" x="629.5" y="-321" font-family="Helvetica,sans-Serif" font-size="10.00">Channel</text>
<polyline fill="none" stroke="black" points="577,-314 682,-314 "/>
<text text-anchor="start" x="585" y="-302" font-family="Helvetica,sans-Serif" font-size="10.00">&#45; zeroBasedChannel</text>
<polyline fill="none" stroke="black" points="577,-295 682,-295 "/>
<text text-anchor="start" x="585" y="-283" font-family="Helvetica,sans-Serif" font-size="10.00">+ Channel()</text>
<text text-anchor="start" x="585" y="-272" font-family="Helvetica,sans-Serif" font-size="10.00">+ getRaw()</text>
<text text-anchor="start" x="585" y="-261" font-family="Helvetica,sans-Serif" font-size="10.00">+ operator==()</text>
<text text-anchor="start" x="585" y="-250" font-family="Helvetica,sans-Serif" font-size="10.00">+ operator+=()</text>
<text text-anchor="start" x="585" y="-239" font-family="Helvetica,sans-Serif" font-size="10.00">+ operator+()</text>
<text text-anchor="start" x="585" y="-228" font-family="Helvetica,sans-Serif" font-size="10.00">+ operator&#45;=()</text>
<text text-anchor="start" x="585" y="-217" font-family="Helvetica,sans-Serif" font-size="10.00">+ operator&#45;()</text>
<text text-anchor="start" x="585" y="-206" font-family="Helvetica,sans-Serif" font-size="10.00">+ createChannel()</text>
</a>
</g>
</g>
<!-- Node16&#45;&gt;Node5 -->
<g id="edge14" class="edge"><title>Node16&#45;&gt;Node5</title>
<path fill="none" stroke="#404040" d="M597.845,-198.812C589.269,-184.94 579.094,-171.155 567.5,-160 537.401,-131.042 497.502,-107.873 462.04,-90.9389"/>
<polygon fill="none" stroke="#404040" points="461.579,-90.7246 454.452,-91.8191 450.7,-85.6607 457.828,-84.5662 461.579,-90.7246"/>
<text text-anchor="middle" x="577.5" y="-134" font-family="Helvetica,sans-Serif" font-size="10.00"> &#45;baseChannel</text>
</g>
</g>
</svg>
