<?xml version="1.0" encoding="UTF-8" standalone="no"?>
<!DOCTYPE svg PUBLIC "-//W3C//DTD SVG 1.1//EN"
 "http://www.w3.org/Graphics/SVG/1.1/DTD/svg11.dtd">
<!-- Generated by graphviz version 2.38.0 (20140413.2041)
 -->
<!-- Title: ProgramChanger&lt; N &gt; Pages: 1 -->
<svg width="236pt" height="259pt"
 viewBox="0.00 0.00 236.00 259.00" xmlns="http://www.w3.org/2000/svg" xmlns:xlink="http://www.w3.org/1999/xlink">
<g id="graph0" class="graph" transform="scale(1 1) rotate(0) translate(4 255)">
<title>ProgramChanger&lt; N &gt;</title>
<polygon fill="white" stroke="none" points="-4,4 -4,-255 232,-255 232,4 -4,4"/>
<!-- Node2 -->
<g id="node1" class="node"><title>Node2</title>
<g id="a_node1"><a xlink:title=" ">
<polygon fill="#bfbfbf" stroke="black" points="57.5,-0.5 57.5,-68.5 173.5,-68.5 173.5,-0.5 57.5,-0.5"/>
<text text-anchor="middle" x="115.5" y="-56.5" font-family="Helvetica,sans-Serif" font-size="10.00">ProgramChanger&lt; N &gt;</text>
<polyline fill="none" stroke="black" points="57.5,-49.5 173.5,-49.5 "/>
<text text-anchor="start" x="65.5" y="-37.5" font-family="Helvetica,sans-Serif" font-size="10.00">&#45; channel</text>
<polyline fill="none" stroke="black" points="57.5,-30.5 173.5,-30.5 "/>
<text text-anchor="start" x="65.5" y="-18.5" font-family="Helvetica,sans-Serif" font-size="10.00">+ ProgramChanger()</text>
<text text-anchor="start" x="65.5" y="-7.5" font-family="Helvetica,sans-Serif" font-size="10.00">+ select()</text>
</a>
</g>
</g>
<!-- Node3 -->
<g id="node2" class="node"><title>Node3</title>
<g id="a_node2"><a xlink:href="../../de/de7/classSelectable.html" target="_top" xlink:title=" ">
<polygon fill="white" stroke="black" points="0,-138.5 0,-228.5 109,-228.5 109,-138.5 0,-138.5"/>
<text text-anchor="middle" x="54.5" y="-216.5" font-family="Helvetica,sans-Serif" font-size="10.00">Selectable&lt; N &gt;</text>
<polyline fill="none" stroke="black" points="0,-209.5 109,-209.5 "/>
<text text-anchor="start" x="8" y="-197.5" font-family="Helvetica,sans-Serif" font-size="10.00">&#45; initialSelection</text>
<polyline fill="none" stroke="black" points="0,-190.5 109,-190.5 "/>
<text text-anchor="start" x="8" y="-178.5" font-family="Helvetica,sans-Serif" font-size="10.00">+ Selectable()</text>
<text text-anchor="start" x="8" y="-167.5" font-family="Helvetica,sans-Serif" font-size="10.00">+ select()</text>
<text text-anchor="start" x="8" y="-156.5" font-family="Helvetica,sans-Serif" font-size="10.00">+ getInitialSelection()</text>
<text text-anchor="start" x="8" y="-145.5" font-family="Helvetica,sans-Serif" font-size="10.00">+ validateSetting()</text>
</a>
</g>
</g>
<!-- Node3&#45;&gt;Node2 -->
<g id="edge1" class="edge"><title>Node3&#45;&gt;Node2</title>
<path fill="none" stroke="midnightblue" d="M76.6918,-129.021C85.0446,-108.893 94.2973,-86.595 101.672,-68.8221"/>
<polygon fill="none" stroke="midnightblue" points="73.4021,-127.817 72.802,-138.395 79.8676,-130.5 73.4021,-127.817"/>
</g>
<!-- Node4 -->
<g id="node3" class="node"><title>Node4</title>
<g id="a_node3"><a xlink:href="../../d7/d6a/structArray.html" target="_top" xlink:title=" ">
<polygon fill="white" stroke="black" points="127,-116.5 127,-250.5 228,-250.5 228,-116.5 127,-116.5"/>
<text text-anchor="middle" x="177.5" y="-238.5" font-family="Helvetica,sans-Serif" font-size="10.00">Array&lt; uint8_t, N &gt;</text>
<polyline fill="none" stroke="black" points="127,-231.5 228,-231.5 "/>
<text text-anchor="start" x="135" y="-219.5" font-family="Helvetica,sans-Serif" font-size="10.00">+ data</text>
<polyline fill="none" stroke="black" points="127,-212.5 228,-212.5 "/>
<text text-anchor="start" x="135" y="-200.5" font-family="Helvetica,sans-Serif" font-size="10.00">+ operator[]()</text>
<text text-anchor="start" x="135" y="-189.5" font-family="Helvetica,sans-Serif" font-size="10.00">+ operator[]()</text>
<text text-anchor="start" x="135" y="-178.5" font-family="Helvetica,sans-Serif" font-size="10.00">+ begin()</text>
<text text-anchor="start" x="135" y="-167.5" font-family="Helvetica,sans-Serif" font-size="10.00">+ begin()</text>
<text text-anchor="start" x="135" y="-156.5" font-family="Helvetica,sans-Serif" font-size="10.00">+ end()</text>
<text text-anchor="start" x="135" y="-145.5" font-family="Helvetica,sans-Serif" font-size="10.00">+ end()</text>
<text text-anchor="start" x="135" y="-134.5" font-family="Helvetica,sans-Serif" font-size="10.00">+ operator==()</text>
<text text-anchor="start" x="135" y="-123.5" font-family="Helvetica,sans-Serif" font-size="10.00">+ operator!=()</text>
</a>
</g>
</g>
<!-- Node4&#45;&gt;Node2 -->
<g id="edge2" class="edge"><title>Node4&#45;&gt;Node2</title>
<path fill="none" stroke="#404040" d="M149.583,-116.311C144.376,-103.965 139.052,-91.3419 134.206,-79.8525"/>
<polygon fill="none" stroke="#404040" points="134.206,-79.8502 128.188,-75.8763 129.542,-68.7934 135.559,-72.7673 134.206,-79.8502"/>
<text text-anchor="middle" x="165" y="-90" font-family="Helvetica,sans-Serif" font-size="10.00"> &#45;programs</text>
</g>
</g>
</svg>
