<?xml version="1.0" encoding="UTF-8" standalone="no"?>
<!DOCTYPE svg PUBLIC "-//W3C//DTD SVG 1.1//EN"
 "http://www.w3.org/Graphics/SVG/1.1/DTD/svg11.dtd">
<!-- Generated by graphviz version 2.38.0 (20140413.2041)
 -->
<!-- Title: FilteredAnalog::getFloatValue Pages: 1 -->
<svg width="280pt" height="39pt"
 viewBox="0.00 0.00 280.00 39.00" xmlns="http://www.w3.org/2000/svg" xmlns:xlink="http://www.w3.org/1999/xlink">
<g id="graph0" class="graph" transform="scale(1 1) rotate(0) translate(4 35)">
<title>FilteredAnalog::getFloatValue</title>
<polygon fill="white" stroke="none" points="-4,4 -4,-35 276,-35 276,4 -4,4"/>
<!-- Node32 -->
<g id="node1" class="node"><title>Node32</title>
<g id="a_node1"><a xlink:title="Get the filtered value of the analog input with the mapping function applied as a floating point numb...">
<polygon fill="#bfbfbf" stroke="black" points="152,-0.5 152,-30.5 272,-30.5 272,-0.5 152,-0.5"/>
<text text-anchor="start" x="160" y="-18.5" font-family="Helvetica,sans-Serif" font-size="10.00">FilteredAnalog::getFloat</text>
<text text-anchor="middle" x="212" y="-7.5" font-family="Helvetica,sans-Serif" font-size="10.00">Value</text>
</a>
</g>
</g>
<!-- Node33 -->
<g id="node2" class="node"><title>Node33</title>
<g id="a_node2"><a xlink:href="../../d4/de3/classVolumeControl.html#a9c5cf9652729a493b541248f440ecbb8" target="_top" xlink:title="Read the potentiometer value, and adjust the gain of the mixers.">
<polygon fill="white" stroke="black" points="-7.10543e-15,-6 -7.10543e-15,-25 116,-25 116,-6 -7.10543e-15,-6"/>
<text text-anchor="middle" x="58" y="-13" font-family="Helvetica,sans-Serif" font-size="10.00">VolumeControl::update</text>
</a>
</g>
</g>
<!-- Node32&#45;&gt;Node33 -->
<g id="edge1" class="edge"><title>Node32&#45;&gt;Node33</title>
<path fill="none" stroke="midnightblue" d="M141.566,-15.5C133.111,-15.5 124.546,-15.5 116.295,-15.5"/>
<polygon fill="midnightblue" stroke="midnightblue" points="141.798,-19.0001 151.798,-15.5 141.798,-12.0001 141.798,-19.0001"/>
</g>
</g>
</svg>
