<?xml version="1.0" encoding="UTF-8" standalone="no"?>
<!DOCTYPE svg PUBLIC "-//W3C//DTD SVG 1.1//EN"
 "http://www.w3.org/Graphics/SVG/1.1/DTD/svg11.dtd">
<!-- Generated by graphviz version 2.38.0 (20140413.2041)
 -->
<!-- Title: IncrementDecrementSelector&lt; N &gt; Pages: 1 -->
<svg width="195pt" height="805pt"
 viewBox="0.00 0.00 195.00 805.00" xmlns="http://www.w3.org/2000/svg" xmlns:xlink="http://www.w3.org/1999/xlink">
<g id="graph0" class="graph" transform="scale(1 1) rotate(0) translate(4 801)">
<title>IncrementDecrementSelector&lt; N &gt;</title>
<polygon fill="white" stroke="none" points="-4,4 -4,-801 191,-801 191,4 -4,4"/>
<!-- Node1 -->
<g id="node1" class="node"><title>Node1</title>
<g id="a_node1"><a xlink:title="Selector with two buttons (one to increment, one to decrement).">
<polygon fill="#bfbfbf" stroke="black" points="8.5,-0.5 8.5,-79.5 178.5,-79.5 178.5,-0.5 8.5,-0.5"/>
<text text-anchor="middle" x="93.5" y="-67.5" font-family="Helvetica,sans-Serif" font-size="10.00">IncrementDecrementSelector&lt; N &gt;</text>
<polyline fill="none" stroke="black" points="8.5,-60.5 178.5,-60.5 "/>
<text text-anchor="middle" x="93.5" y="-48.5" font-family="Helvetica,sans-Serif" font-size="10.00"> </text>
<polyline fill="none" stroke="black" points="8.5,-41.5 178.5,-41.5 "/>
<text text-anchor="start" x="16.5" y="-29.5" font-family="Helvetica,sans-Serif" font-size="10.00">+ IncrementDecrementSelector()</text>
<text text-anchor="start" x="16.5" y="-18.5" font-family="Helvetica,sans-Serif" font-size="10.00">+ beginOutput()</text>
<text text-anchor="start" x="16.5" y="-7.5" font-family="Helvetica,sans-Serif" font-size="10.00">+ updateOutput()</text>
</a>
</g>
</g>
<!-- Node2 -->
<g id="node2" class="node"><title>Node2</title>
<g id="a_node2"><a xlink:href="../../de/d06/classIncrementDecrementSelector__Base.html" target="_top" xlink:title=" ">
<polygon fill="white" stroke="black" points="-1.42109e-14,-116.5 -1.42109e-14,-217.5 187,-217.5 187,-116.5 -1.42109e-14,-116.5"/>
<text text-anchor="start" x="8" y="-205.5" font-family="Helvetica,sans-Serif" font-size="10.00">IncrementDecrementSelector</text>
<text text-anchor="middle" x="93.5" y="-194.5" font-family="Helvetica,sans-Serif" font-size="10.00">_Base&lt; N &gt;</text>
<polyline fill="none" stroke="black" points="-1.42109e-14,-187.5 187,-187.5 "/>
<text text-anchor="start" x="8" y="-175.5" font-family="Helvetica,sans-Serif" font-size="10.00">&#45; buttons</text>
<text text-anchor="start" x="8" y="-164.5" font-family="Helvetica,sans-Serif" font-size="10.00">&#45; wrap</text>
<polyline fill="none" stroke="black" points="-1.42109e-14,-157.5 187,-157.5 "/>
<text text-anchor="start" x="8" y="-145.5" font-family="Helvetica,sans-Serif" font-size="10.00">+ IncrementDecrementSelector_Base()</text>
<text text-anchor="start" x="8" y="-134.5" font-family="Helvetica,sans-Serif" font-size="10.00">+ beginInput()</text>
<text text-anchor="start" x="8" y="-123.5" font-family="Helvetica,sans-Serif" font-size="10.00">+ update()</text>
</a>
</g>
</g>
<!-- Node2&#45;&gt;Node1 -->
<g id="edge1" class="edge"><title>Node2&#45;&gt;Node1</title>
<path fill="none" stroke="midnightblue" d="M93.5,-106.186C93.5,-97.2207 93.5,-88.1815 93.5,-79.8082"/>
<polygon fill="none" stroke="midnightblue" points="90.0001,-106.237 93.5,-116.238 97.0001,-106.238 90.0001,-106.237"/>
</g>
<!-- Node3 -->
<g id="node3" class="node"><title>Node3</title>
<g id="a_node3"><a xlink:href="../../d1/d54/classSelector.html" target="_top" xlink:title=" ">
<polygon fill="white" stroke="black" points="50,-254.5 50,-432.5 137,-432.5 137,-254.5 50,-254.5"/>
<text text-anchor="middle" x="93.5" y="-420.5" font-family="Helvetica,sans-Serif" font-size="10.00">Selector&lt; N &gt;</text>
<polyline fill="none" stroke="black" points="50,-413.5 137,-413.5 "/>
<text text-anchor="start" x="58" y="-401.5" font-family="Helvetica,sans-Serif" font-size="10.00">&#45; selectable</text>
<text text-anchor="start" x="58" y="-390.5" font-family="Helvetica,sans-Serif" font-size="10.00">&#45; setting</text>
<polyline fill="none" stroke="black" points="50,-383.5 137,-383.5 "/>
<text text-anchor="start" x="58" y="-371.5" font-family="Helvetica,sans-Serif" font-size="10.00">+ beginInput()</text>
<text text-anchor="start" x="58" y="-360.5" font-family="Helvetica,sans-Serif" font-size="10.00">+ beginOutput()</text>
<text text-anchor="start" x="58" y="-349.5" font-family="Helvetica,sans-Serif" font-size="10.00">+ begin()</text>
<text text-anchor="start" x="58" y="-338.5" font-family="Helvetica,sans-Serif" font-size="10.00">+ reset()</text>
<text text-anchor="start" x="58" y="-327.5" font-family="Helvetica,sans-Serif" font-size="10.00">+ get()</text>
<text text-anchor="start" x="58" y="-316.5" font-family="Helvetica,sans-Serif" font-size="10.00">+ set()</text>
<text text-anchor="start" x="58" y="-305.5" font-family="Helvetica,sans-Serif" font-size="10.00">+ increment()</text>
<text text-anchor="start" x="58" y="-294.5" font-family="Helvetica,sans-Serif" font-size="10.00">+ decrement()</text>
<text text-anchor="start" x="58" y="-283.5" font-family="Helvetica,sans-Serif" font-size="10.00"># Selector()</text>
<text text-anchor="start" x="58" y="-272.5" font-family="Helvetica,sans-Serif" font-size="10.00"># Selector()</text>
<text text-anchor="start" x="58" y="-261.5" font-family="Helvetica,sans-Serif" font-size="10.00">&#45; updateOutput()</text>
</a>
</g>
</g>
<!-- Node3&#45;&gt;Node2 -->
<g id="edge2" class="edge"><title>Node3&#45;&gt;Node2</title>
<path fill="none" stroke="midnightblue" d="M93.5,-244.383C93.5,-235.117 93.5,-226.017 93.5,-217.51"/>
<polygon fill="none" stroke="midnightblue" points="90.0001,-244.483 93.5,-254.483 97.0001,-244.483 90.0001,-244.483"/>
</g>
<!-- Node4 -->
<g id="node4" class="node"><title>Node4</title>
<g id="a_node4"><a xlink:href="../../d5/de0/classUpdatable.html" target="_top" xlink:title=" ">
<polygon fill="white" stroke="black" points="52.5,-469.5 52.5,-680.5 134.5,-680.5 134.5,-469.5 52.5,-469.5"/>
<text text-anchor="middle" x="93.5" y="-668.5" font-family="Helvetica,sans-Serif" font-size="10.00">Updatable&lt;&gt;</text>
<polyline fill="none" stroke="black" points="52.5,-661.5 134.5,-661.5 "/>
<text text-anchor="start" x="60.5" y="-649.5" font-family="Helvetica,sans-Serif" font-size="10.00">&#45; updatables</text>
<polyline fill="none" stroke="black" points="52.5,-642.5 134.5,-642.5 "/>
<text text-anchor="start" x="60.5" y="-630.5" font-family="Helvetica,sans-Serif" font-size="10.00">+ ~Updatable()</text>
<text text-anchor="start" x="60.5" y="-619.5" font-family="Helvetica,sans-Serif" font-size="10.00">+ update()</text>
<text text-anchor="start" x="60.5" y="-608.5" font-family="Helvetica,sans-Serif" font-size="10.00">+ begin()</text>
<text text-anchor="start" x="60.5" y="-597.5" font-family="Helvetica,sans-Serif" font-size="10.00">+ enable()</text>
<text text-anchor="start" x="60.5" y="-586.5" font-family="Helvetica,sans-Serif" font-size="10.00">+ disable()</text>
<text text-anchor="start" x="60.5" y="-575.5" font-family="Helvetica,sans-Serif" font-size="10.00">+ isEnabled()</text>
<text text-anchor="start" x="60.5" y="-564.5" font-family="Helvetica,sans-Serif" font-size="10.00">+ enable()</text>
<text text-anchor="start" x="60.5" y="-553.5" font-family="Helvetica,sans-Serif" font-size="10.00">+ enable()</text>
<text text-anchor="start" x="60.5" y="-542.5" font-family="Helvetica,sans-Serif" font-size="10.00">+ enable()</text>
<text text-anchor="start" x="60.5" y="-531.5" font-family="Helvetica,sans-Serif" font-size="10.00">+ disable()</text>
<text text-anchor="start" x="60.5" y="-520.5" font-family="Helvetica,sans-Serif" font-size="10.00">+ disable()</text>
<text text-anchor="start" x="60.5" y="-509.5" font-family="Helvetica,sans-Serif" font-size="10.00">+ disable()</text>
<text text-anchor="start" x="60.5" y="-498.5" font-family="Helvetica,sans-Serif" font-size="10.00">+ beginAll()</text>
<text text-anchor="start" x="60.5" y="-487.5" font-family="Helvetica,sans-Serif" font-size="10.00">+ updateAll()</text>
<text text-anchor="start" x="60.5" y="-476.5" font-family="Helvetica,sans-Serif" font-size="10.00"># Updatable()</text>
</a>
</g>
</g>
<!-- Node4&#45;&gt;Node3 -->
<g id="edge3" class="edge"><title>Node4&#45;&gt;Node3</title>
<path fill="none" stroke="midnightblue" d="M93.5,-459.215C93.5,-450.251 93.5,-441.288 93.5,-432.544"/>
<polygon fill="none" stroke="midnightblue" points="90.0001,-459.324 93.5,-469.324 97.0001,-459.324 90.0001,-459.324"/>
</g>
<!-- Node5 -->
<g id="node5" class="node"><title>Node5</title>
<g id="a_node5"><a xlink:href="../../d4/d23/classDoublyLinkable.html" target="_top" xlink:title=" ">
<polygon fill="white" stroke="black" points="25,-717.5 25,-796.5 162,-796.5 162,-717.5 25,-717.5"/>
<text text-anchor="start" x="33" y="-784.5" font-family="Helvetica,sans-Serif" font-size="10.00">DoublyLinkable&lt; Updatable</text>
<text text-anchor="middle" x="93.5" y="-773.5" font-family="Helvetica,sans-Serif" font-size="10.00">&lt; NormalUpdatable &gt; &gt;</text>
<polyline fill="none" stroke="black" points="25,-766.5 162,-766.5 "/>
<text text-anchor="start" x="33" y="-754.5" font-family="Helvetica,sans-Serif" font-size="10.00"># next</text>
<text text-anchor="start" x="33" y="-743.5" font-family="Helvetica,sans-Serif" font-size="10.00"># previous</text>
<polyline fill="none" stroke="black" points="25,-736.5 162,-736.5 "/>
<text text-anchor="start" x="33" y="-724.5" font-family="Helvetica,sans-Serif" font-size="10.00"># ~DoublyLinkable()</text>
</a>
</g>
</g>
<!-- Node5&#45;&gt;Node4 -->
<g id="edge4" class="edge"><title>Node5&#45;&gt;Node4</title>
<path fill="none" stroke="midnightblue" d="M93.5,-707.16C93.5,-698.809 93.5,-689.856 93.5,-680.694"/>
<polygon fill="none" stroke="midnightblue" points="90.0001,-707.385 93.5,-717.385 97.0001,-707.386 90.0001,-707.385"/>
</g>
</g>
</svg>
