<?xml version="1.0" encoding="UTF-8" standalone="no"?>
<!DOCTYPE svg PUBLIC "-//W3C//DTD SVG 1.1//EN"
 "http://www.w3.org/Graphics/SVG/1.1/DTD/svg11.dtd">
<!-- Generated by graphviz version 2.38.0 (20140413.2041)
 -->
<!-- Title: IncrementDecrementSelector&lt; N &gt; Pages: 1 -->
<svg width="480pt" height="1390pt"
 viewBox="0.00 0.00 479.50 1390.00" xmlns="http://www.w3.org/2000/svg" xmlns:xlink="http://www.w3.org/1999/xlink">
<g id="graph0" class="graph" transform="scale(1 1) rotate(0) translate(4 1386)">
<title>IncrementDecrementSelector&lt; N &gt;</title>
<polygon fill="white" stroke="none" points="-4,4 -4,-1386 475.5,-1386 475.5,4 -4,4"/>
<!-- Node1 -->
<g id="node1" class="node"><title>Node1</title>
<g id="a_node1"><a xlink:title="Selector with two buttons (one to increment, one to decrement).">
<polygon fill="#bfbfbf" stroke="black" points="251.5,-0.5 251.5,-57.5 421.5,-57.5 421.5,-0.5 251.5,-0.5"/>
<text text-anchor="middle" x="336.5" y="-45.5" font-family="Helvetica,sans-Serif" font-size="10.00">IncrementDecrementSelector&lt; N &gt;</text>
<polyline fill="none" stroke="black" points="251.5,-38.5 421.5,-38.5 "/>
<text text-anchor="middle" x="336.5" y="-26.5" font-family="Helvetica,sans-Serif" font-size="10.00"> </text>
<polyline fill="none" stroke="black" points="251.5,-19.5 421.5,-19.5 "/>
<text text-anchor="start" x="259.5" y="-7.5" font-family="Helvetica,sans-Serif" font-size="10.00">+ IncrementDecrementSelector()</text>
</a>
</g>
</g>
<!-- Node2 -->
<g id="node2" class="node"><title>Node2</title>
<g id="a_node2"><a xlink:href="../../d3/d78/classGenericIncrementDecrementSelector.html" target="_top" xlink:title=" ">
<polygon fill="white" stroke="black" points="261,-95.5 261,-207.5 412,-207.5 412,-95.5 261,-95.5"/>
<text text-anchor="start" x="269" y="-195.5" font-family="Helvetica,sans-Serif" font-size="10.00">GenericIncrementDecrement</text>
<text text-anchor="middle" x="336.5" y="-184.5" font-family="Helvetica,sans-Serif" font-size="10.00">Selector&lt; N &gt;</text>
<polyline fill="none" stroke="black" points="261,-177.5 412,-177.5 "/>
<text text-anchor="start" x="269" y="-165.5" font-family="Helvetica,sans-Serif" font-size="10.00">&#45; wrap</text>
<polyline fill="none" stroke="black" points="261,-158.5 412,-158.5 "/>
<text text-anchor="start" x="269" y="-146.5" font-family="Helvetica,sans-Serif" font-size="10.00">+ GenericIncrementDecrement</text>
<text text-anchor="start" x="269" y="-135.5" font-family="Helvetica,sans-Serif" font-size="10.00">Selector()</text>
<text text-anchor="start" x="269" y="-124.5" font-family="Helvetica,sans-Serif" font-size="10.00">+ begin()</text>
<text text-anchor="start" x="269" y="-113.5" font-family="Helvetica,sans-Serif" font-size="10.00">+ update()</text>
<text text-anchor="start" x="269" y="-102.5" font-family="Helvetica,sans-Serif" font-size="10.00">+ getButtonsState()</text>
</a>
</g>
</g>
<!-- Node2&#45;&gt;Node1 -->
<g id="edge1" class="edge"><title>Node2&#45;&gt;Node1</title>
<path fill="none" stroke="midnightblue" d="M336.5,-85.1187C336.5,-75.478 336.5,-66.0138 336.5,-57.7231"/>
<polygon fill="none" stroke="midnightblue" points="333,-85.1874 336.5,-95.1875 340,-85.1875 333,-85.1874"/>
</g>
<!-- Node3 -->
<g id="node3" class="node"><title>Node3</title>
<g id="a_node3"><a xlink:href="../../d0/d04/classGenericSelector.html" target="_top" xlink:title=" ">
<polygon fill="white" stroke="black" points="122,-255.5 122,-389.5 253,-389.5 253,-255.5 122,-255.5"/>
<text text-anchor="start" x="130" y="-377.5" font-family="Helvetica,sans-Serif" font-size="10.00">GenericSelector&lt; N,</text>
<text text-anchor="middle" x="187.5" y="-366.5" font-family="Helvetica,sans-Serif" font-size="10.00"> EmptySelectorCallback &gt;</text>
<polyline fill="none" stroke="black" points="122,-359.5 253,-359.5 "/>
<text text-anchor="start" x="130" y="-347.5" font-family="Helvetica,sans-Serif" font-size="10.00">&#45; selectable</text>
<polyline fill="none" stroke="black" points="122,-340.5 253,-340.5 "/>
<text text-anchor="start" x="130" y="-328.5" font-family="Helvetica,sans-Serif" font-size="10.00">+ GenericSelector()</text>
<text text-anchor="start" x="130" y="-317.5" font-family="Helvetica,sans-Serif" font-size="10.00">+ begin()</text>
<text text-anchor="start" x="130" y="-306.5" font-family="Helvetica,sans-Serif" font-size="10.00">+ update()</text>
<text text-anchor="start" x="130" y="-295.5" font-family="Helvetica,sans-Serif" font-size="10.00">+ reset()</text>
<text text-anchor="start" x="130" y="-284.5" font-family="Helvetica,sans-Serif" font-size="10.00">+ set()</text>
<text text-anchor="start" x="130" y="-273.5" font-family="Helvetica,sans-Serif" font-size="10.00">+ increment()</text>
<text text-anchor="start" x="130" y="-262.5" font-family="Helvetica,sans-Serif" font-size="10.00">+ decrement()</text>
</a>
</g>
</g>
<!-- Node3&#45;&gt;Node2 -->
<g id="edge2" class="edge"><title>Node3&#45;&gt;Node2</title>
<path fill="none" stroke="midnightblue" d="M252.837,-247.393C264.59,-234.062 276.652,-220.381 287.829,-207.704"/>
<polygon fill="none" stroke="midnightblue" points="249.949,-245.376 245.961,-255.192 255.2,-250.005 249.949,-245.376"/>
</g>
<!-- Node4 -->
<g id="node4" class="node"><title>Node4</title>
<g id="a_node4"><a xlink:href="../../dc/d77/classSelectorBase.html" target="_top" xlink:title="Base class for all Selectors exposing the get method, so it can be used by display elements etc,...">
<polygon fill="white" stroke="black" points="0,-520 0,-588 89,-588 89,-520 0,-520"/>
<text text-anchor="middle" x="44.5" y="-576" font-family="Helvetica,sans-Serif" font-size="10.00">SelectorBase</text>
<polyline fill="none" stroke="black" points="0,-569 89,-569 "/>
<text text-anchor="start" x="8" y="-557" font-family="Helvetica,sans-Serif" font-size="10.00"># setting</text>
<polyline fill="none" stroke="black" points="0,-550 89,-550 "/>
<text text-anchor="start" x="8" y="-538" font-family="Helvetica,sans-Serif" font-size="10.00">+ get()</text>
<text text-anchor="start" x="8" y="-527" font-family="Helvetica,sans-Serif" font-size="10.00"># SelectorBase()</text>
</a>
</g>
</g>
<!-- Node4&#45;&gt;Node3 -->
<g id="edge3" class="edge"><title>Node4&#45;&gt;Node3</title>
<path fill="none" stroke="midnightblue" d="M64.6028,-510.486C74.2268,-491.072 86.2974,-468.001 98.5,-448 110.332,-428.607 124.188,-408.281 137.396,-389.808"/>
<polygon fill="none" stroke="midnightblue" points="61.3481,-509.173 60.085,-519.693 67.6323,-512.257 61.3481,-509.173"/>
</g>
<!-- Node5 -->
<g id="node5" class="node"><title>Node5</title>
<g id="a_node5"><a xlink:href="../../d5/de0/classUpdatable.html" target="_top" xlink:title=" ">
<polygon fill="white" stroke="black" points="107.5,-448.5 107.5,-659.5 189.5,-659.5 189.5,-448.5 107.5,-448.5"/>
<text text-anchor="middle" x="148.5" y="-647.5" font-family="Helvetica,sans-Serif" font-size="10.00">Updatable&lt;&gt;</text>
<polyline fill="none" stroke="black" points="107.5,-640.5 189.5,-640.5 "/>
<text text-anchor="middle" x="148.5" y="-628.5" font-family="Helvetica,sans-Serif" font-size="10.00"> </text>
<polyline fill="none" stroke="black" points="107.5,-621.5 189.5,-621.5 "/>
<text text-anchor="start" x="115.5" y="-609.5" font-family="Helvetica,sans-Serif" font-size="10.00">+ ~Updatable()</text>
<text text-anchor="start" x="115.5" y="-598.5" font-family="Helvetica,sans-Serif" font-size="10.00">+ update()</text>
<text text-anchor="start" x="115.5" y="-587.5" font-family="Helvetica,sans-Serif" font-size="10.00">+ begin()</text>
<text text-anchor="start" x="115.5" y="-576.5" font-family="Helvetica,sans-Serif" font-size="10.00">+ enable()</text>
<text text-anchor="start" x="115.5" y="-565.5" font-family="Helvetica,sans-Serif" font-size="10.00">+ disable()</text>
<text text-anchor="start" x="115.5" y="-554.5" font-family="Helvetica,sans-Serif" font-size="10.00">+ isEnabled()</text>
<text text-anchor="start" x="115.5" y="-543.5" font-family="Helvetica,sans-Serif" font-size="10.00">+ enable()</text>
<text text-anchor="start" x="115.5" y="-532.5" font-family="Helvetica,sans-Serif" font-size="10.00">+ enable()</text>
<text text-anchor="start" x="115.5" y="-521.5" font-family="Helvetica,sans-Serif" font-size="10.00">+ enable()</text>
<text text-anchor="start" x="115.5" y="-510.5" font-family="Helvetica,sans-Serif" font-size="10.00">+ disable()</text>
<text text-anchor="start" x="115.5" y="-499.5" font-family="Helvetica,sans-Serif" font-size="10.00">+ disable()</text>
<text text-anchor="start" x="115.5" y="-488.5" font-family="Helvetica,sans-Serif" font-size="10.00">+ disable()</text>
<text text-anchor="start" x="115.5" y="-477.5" font-family="Helvetica,sans-Serif" font-size="10.00">+ beginAll()</text>
<text text-anchor="start" x="115.5" y="-466.5" font-family="Helvetica,sans-Serif" font-size="10.00">+ updateAll()</text>
<text text-anchor="start" x="115.5" y="-455.5" font-family="Helvetica,sans-Serif" font-size="10.00"># Updatable()</text>
</a>
</g>
</g>
<!-- Node5&#45;&gt;Node3 -->
<g id="edge4" class="edge"><title>Node5&#45;&gt;Node3</title>
<path fill="none" stroke="midnightblue" d="M168.043,-437.998C170.864,-421.396 173.684,-404.801 176.267,-389.603"/>
<polygon fill="none" stroke="midnightblue" points="164.513,-437.879 166.288,-448.324 171.414,-439.052 164.513,-437.879"/>
</g>
<!-- Node6 -->
<g id="node6" class="node"><title>Node6</title>
<g id="a_node6"><a xlink:href="../../d4/d23/classDoublyLinkable.html" target="_top" xlink:title=" ">
<polygon fill="white" stroke="black" points="137,-1313.5 137,-1381.5 274,-1381.5 274,-1313.5 137,-1313.5"/>
<text text-anchor="start" x="145" y="-1369.5" font-family="Helvetica,sans-Serif" font-size="10.00">DoublyLinkable&lt; Updatable</text>
<text text-anchor="middle" x="205.5" y="-1358.5" font-family="Helvetica,sans-Serif" font-size="10.00">&lt; NormalUpdatable &gt; &gt;</text>
<polyline fill="none" stroke="black" points="137,-1351.5 274,-1351.5 "/>
<text text-anchor="middle" x="205.5" y="-1339.5" font-family="Helvetica,sans-Serif" font-size="10.00"> </text>
<polyline fill="none" stroke="black" points="137,-1332.5 274,-1332.5 "/>
<text text-anchor="start" x="145" y="-1320.5" font-family="Helvetica,sans-Serif" font-size="10.00"># ~DoublyLinkable()</text>
</a>
</g>
</g>
<!-- Node6&#45;&gt;Node5 -->
<g id="edge5" class="edge"><title>Node6&#45;&gt;Node5</title>
<path fill="none" stroke="midnightblue" d="M174.61,-1304.79C165.302,-1289.85 156.29,-1272.39 151.5,-1255 95.0753,-1050.1 114.339,-798.496 132.214,-659.606"/>
<polygon fill="none" stroke="midnightblue" points="171.726,-1306.77 180.096,-1313.27 177.604,-1302.97 171.726,-1306.77"/>
</g>
<!-- Node7 -->
<g id="node7" class="node"><title>Node7</title>
<g id="a_node7"><a xlink:href="../../d5/de0/classUpdatable.html" target="_top" xlink:title=" ">
<polygon fill="white" stroke="black" points="161,-1043.5 161,-1254.5 316,-1254.5 316,-1043.5 161,-1043.5"/>
<text text-anchor="middle" x="238.5" y="-1242.5" font-family="Helvetica,sans-Serif" font-size="10.00">Updatable&lt; NormalUpdatable &gt;</text>
<polyline fill="none" stroke="black" points="161,-1235.5 316,-1235.5 "/>
<text text-anchor="middle" x="238.5" y="-1223.5" font-family="Helvetica,sans-Serif" font-size="10.00"> </text>
<polyline fill="none" stroke="black" points="161,-1216.5 316,-1216.5 "/>
<text text-anchor="start" x="169" y="-1204.5" font-family="Helvetica,sans-Serif" font-size="10.00">+ ~Updatable()</text>
<text text-anchor="start" x="169" y="-1193.5" font-family="Helvetica,sans-Serif" font-size="10.00">+ update()</text>
<text text-anchor="start" x="169" y="-1182.5" font-family="Helvetica,sans-Serif" font-size="10.00">+ begin()</text>
<text text-anchor="start" x="169" y="-1171.5" font-family="Helvetica,sans-Serif" font-size="10.00">+ enable()</text>
<text text-anchor="start" x="169" y="-1160.5" font-family="Helvetica,sans-Serif" font-size="10.00">+ disable()</text>
<text text-anchor="start" x="169" y="-1149.5" font-family="Helvetica,sans-Serif" font-size="10.00">+ isEnabled()</text>
<text text-anchor="start" x="169" y="-1138.5" font-family="Helvetica,sans-Serif" font-size="10.00">+ enable()</text>
<text text-anchor="start" x="169" y="-1127.5" font-family="Helvetica,sans-Serif" font-size="10.00">+ enable()</text>
<text text-anchor="start" x="169" y="-1116.5" font-family="Helvetica,sans-Serif" font-size="10.00">+ enable()</text>
<text text-anchor="start" x="169" y="-1105.5" font-family="Helvetica,sans-Serif" font-size="10.00">+ disable()</text>
<text text-anchor="start" x="169" y="-1094.5" font-family="Helvetica,sans-Serif" font-size="10.00">+ disable()</text>
<text text-anchor="start" x="169" y="-1083.5" font-family="Helvetica,sans-Serif" font-size="10.00">+ disable()</text>
<text text-anchor="start" x="169" y="-1072.5" font-family="Helvetica,sans-Serif" font-size="10.00">+ beginAll()</text>
<text text-anchor="start" x="169" y="-1061.5" font-family="Helvetica,sans-Serif" font-size="10.00">+ updateAll()</text>
<text text-anchor="start" x="169" y="-1050.5" font-family="Helvetica,sans-Serif" font-size="10.00"># Updatable()</text>
</a>
</g>
</g>
<!-- Node6&#45;&gt;Node7 -->
<g id="edge7" class="edge"><title>Node6&#45;&gt;Node7</title>
<path fill="none" stroke="midnightblue" d="M212.793,-1303.07C215.224,-1288.6 218.046,-1271.79 220.912,-1254.73"/>
<polygon fill="none" stroke="midnightblue" points="209.303,-1302.72 211.098,-1313.17 216.206,-1303.88 209.303,-1302.72"/>
</g>
<!-- Node7&#45;&gt;Node6 -->
<g id="edge6" class="edge"><title>Node7&#45;&gt;Node6</title>
<path fill="none" stroke="#404040" d="M223.382,-1254.67C221.196,-1268.26 218.877,-1281.98 216.5,-1295 216.111,-1297.13 215.699,-1299.31 215.273,-1301.51"/>
<polygon fill="none" stroke="#404040" points="215.265,-1301.55 218,-1308.22 212.893,-1313.31 210.158,-1306.64 215.265,-1301.55"/>
<text text-anchor="middle" x="242" y="-1287" font-family="Helvetica,sans-Serif" font-size="10.00"> #next</text>
<text text-anchor="middle" x="242" y="-1276" font-family="Helvetica,sans-Serif" font-size="10.00">#previous</text>
</g>
<!-- Node8 -->
<g id="node8" class="node"><title>Node8</title>
<g id="a_node8"><a xlink:href="../../dd/d16/classDoublyLinkedList.html" target="_top" xlink:title=" ">
<polygon fill="white" stroke="black" points="161,-707.5 161,-984.5 306,-984.5 306,-707.5 161,-707.5"/>
<text text-anchor="start" x="169" y="-972.5" font-family="Helvetica,sans-Serif" font-size="10.00">DoublyLinkedList&lt; Updatable</text>
<text text-anchor="middle" x="233.5" y="-961.5" font-family="Helvetica,sans-Serif" font-size="10.00">&lt; NormalUpdatable &gt; &gt;</text>
<polyline fill="none" stroke="black" points="161,-954.5 306,-954.5 "/>
<text text-anchor="middle" x="233.5" y="-942.5" font-family="Helvetica,sans-Serif" font-size="10.00"> </text>
<polyline fill="none" stroke="black" points="161,-935.5 306,-935.5 "/>
<text text-anchor="start" x="169" y="-923.5" font-family="Helvetica,sans-Serif" font-size="10.00">+ append()</text>
<text text-anchor="start" x="169" y="-912.5" font-family="Helvetica,sans-Serif" font-size="10.00">+ append()</text>
<text text-anchor="start" x="169" y="-901.5" font-family="Helvetica,sans-Serif" font-size="10.00">+ insertBefore()</text>
<text text-anchor="start" x="169" y="-890.5" font-family="Helvetica,sans-Serif" font-size="10.00">+ insertBefore()</text>
<text text-anchor="start" x="169" y="-879.5" font-family="Helvetica,sans-Serif" font-size="10.00">+ insertSorted()</text>
<text text-anchor="start" x="169" y="-868.5" font-family="Helvetica,sans-Serif" font-size="10.00">+ insertSorted()</text>
<text text-anchor="start" x="169" y="-857.5" font-family="Helvetica,sans-Serif" font-size="10.00">+ remove()</text>
<text text-anchor="start" x="169" y="-846.5" font-family="Helvetica,sans-Serif" font-size="10.00">+ remove()</text>
<text text-anchor="start" x="169" y="-835.5" font-family="Helvetica,sans-Serif" font-size="10.00">+ moveDown()</text>
<text text-anchor="start" x="169" y="-824.5" font-family="Helvetica,sans-Serif" font-size="10.00">+ couldContain()</text>
<text text-anchor="start" x="169" y="-813.5" font-family="Helvetica,sans-Serif" font-size="10.00">+ begin()</text>
<text text-anchor="start" x="169" y="-802.5" font-family="Helvetica,sans-Serif" font-size="10.00">+ begin()</text>
<text text-anchor="start" x="169" y="-791.5" font-family="Helvetica,sans-Serif" font-size="10.00">+ end()</text>
<text text-anchor="start" x="169" y="-780.5" font-family="Helvetica,sans-Serif" font-size="10.00">+ end()</text>
<text text-anchor="start" x="169" y="-769.5" font-family="Helvetica,sans-Serif" font-size="10.00">+ rbegin()</text>
<text text-anchor="start" x="169" y="-758.5" font-family="Helvetica,sans-Serif" font-size="10.00">+ rbegin()</text>
<text text-anchor="start" x="169" y="-747.5" font-family="Helvetica,sans-Serif" font-size="10.00">+ rend()</text>
<text text-anchor="start" x="169" y="-736.5" font-family="Helvetica,sans-Serif" font-size="10.00">+ rend()</text>
<text text-anchor="start" x="169" y="-725.5" font-family="Helvetica,sans-Serif" font-size="10.00">+ getFirst()</text>
<text text-anchor="start" x="169" y="-714.5" font-family="Helvetica,sans-Serif" font-size="10.00">+ getLast()</text>
</a>
</g>
</g>
<!-- Node7&#45;&gt;Node8 -->
<g id="edge9" class="edge"><title>Node7&#45;&gt;Node8</title>
<path fill="none" stroke="#404040" d="M213.007,-1043.26C212.024,-1037.1 211.173,-1030.98 210.5,-1025 209.472,-1015.86 208.988,-1006.45 208.935,-996.972"/>
<polygon fill="none" stroke="#404040" points="208.935,-996.934 205.013,-990.883 209.09,-984.935 213.012,-990.986 208.935,-996.934"/>
<text text-anchor="middle" x="221.5" y="-1017" font-family="Helvetica,sans-Serif" font-size="10.00"> &#45;last</text>
<text text-anchor="middle" x="221.5" y="-1006" font-family="Helvetica,sans-Serif" font-size="10.00">&#45;first</text>
</g>
<!-- Node8&#45;&gt;Node5 -->
<g id="edge10" class="edge"><title>Node8&#45;&gt;Node5</title>
<path fill="none" stroke="#404040" d="M193.116,-707.219C189.614,-695.272 186.093,-683.259 182.649,-671.507"/>
<polygon fill="none" stroke="#404040" points="182.608,-671.368 177.082,-666.736 179.233,-659.853 184.759,-664.485 182.608,-671.368"/>
<text text-anchor="middle" x="213.5" y="-681" font-family="Helvetica,sans-Serif" font-size="10.00"> &#45;updatables</text>
</g>
<!-- Node8&#45;&gt;Node7 -->
<g id="edge8" class="edge"><title>Node8&#45;&gt;Node7</title>
<path fill="none" stroke="#404040" d="M236.191,-984.806C236.298,-990.955 236.402,-997.041 236.5,-1003 236.652,-1012.2 236.801,-1021.74 236.946,-1031.32"/>
<polygon fill="none" stroke="#404040" points="236.948,-1031.46 241.036,-1037.4 237.126,-1043.45 233.037,-1037.51 236.948,-1031.46"/>
<text text-anchor="middle" x="264.5" y="-1011.5" font-family="Helvetica,sans-Serif" font-size="10.00"> &#45;updatables</text>
</g>
<!-- Node9 -->
<g id="node9" class="node"><title>Node9</title>
<g id="a_node9"><a xlink:href="../../d3/d8b/structEmptySelectorCallback.html" target="_top" xlink:title="A callback for the GenericSelector class that does nothing.">
<polygon fill="white" stroke="black" points="208,-514.5 208,-593.5 327,-593.5 327,-514.5 208,-514.5"/>
<text text-anchor="middle" x="267.5" y="-581.5" font-family="Helvetica,sans-Serif" font-size="10.00">EmptySelectorCallback</text>
<polyline fill="none" stroke="black" points="208,-574.5 327,-574.5 "/>
<text text-anchor="middle" x="267.5" y="-562.5" font-family="Helvetica,sans-Serif" font-size="10.00"> </text>
<polyline fill="none" stroke="black" points="208,-555.5 327,-555.5 "/>
<text text-anchor="start" x="216" y="-543.5" font-family="Helvetica,sans-Serif" font-size="10.00">+ begin()</text>
<text text-anchor="start" x="216" y="-532.5" font-family="Helvetica,sans-Serif" font-size="10.00">+ update()</text>
<text text-anchor="start" x="216" y="-521.5" font-family="Helvetica,sans-Serif" font-size="10.00">+ update()</text>
</a>
</g>
</g>
<!-- Node9&#45;&gt;Node3 -->
<g id="edge11" class="edge"><title>Node9&#45;&gt;Node3</title>
<path fill="none" stroke="#404040" d="M254.02,-514.328C243.285,-483.533 227.913,-439.434 214.65,-401.386"/>
<polygon fill="none" stroke="#404040" points="214.559,-401.124 208.807,-396.775 210.609,-389.793 216.361,-394.142 214.559,-401.124"/>
<text text-anchor="middle" x="246.5" y="-416.5" font-family="Helvetica,sans-Serif" font-size="10.00"> +callback</text>
</g>
<!-- Node10 -->
<g id="node10" class="node"><title>Node10</title>
<g id="a_node10"><a xlink:href="../../d5/d20/classIncrementDecrementButtons.html" target="_top" xlink:title="A class for buttons that increment and decrement some counter or setting.">
<polygon fill="white" stroke="black" points="308,-261 308,-384 465,-384 465,-261 308,-261"/>
<text text-anchor="middle" x="386.5" y="-372" font-family="Helvetica,sans-Serif" font-size="10.00">IncrementDecrementButtons</text>
<polyline fill="none" stroke="black" points="308,-365 465,-365 "/>
<text text-anchor="start" x="316" y="-353" font-family="Helvetica,sans-Serif" font-size="10.00">&#45; longPressState</text>
<text text-anchor="start" x="316" y="-342" font-family="Helvetica,sans-Serif" font-size="10.00">&#45; longPressRepeat</text>
<text text-anchor="start" x="316" y="-331" font-family="Helvetica,sans-Serif" font-size="10.00">&#45; state</text>
<polyline fill="none" stroke="black" points="308,-324 465,-324 "/>
<text text-anchor="start" x="316" y="-312" font-family="Helvetica,sans-Serif" font-size="10.00">+ IncrementDecrementButtons()</text>
<text text-anchor="start" x="316" y="-301" font-family="Helvetica,sans-Serif" font-size="10.00">+ begin()</text>
<text text-anchor="start" x="316" y="-290" font-family="Helvetica,sans-Serif" font-size="10.00">+ update()</text>
<text text-anchor="start" x="316" y="-279" font-family="Helvetica,sans-Serif" font-size="10.00">+ getState()</text>
<text text-anchor="start" x="316" y="-268" font-family="Helvetica,sans-Serif" font-size="10.00"># updateImplementation()</text>
</a>
</g>
</g>
<!-- Node10&#45;&gt;Node2 -->
<g id="edge12" class="edge"><title>Node10&#45;&gt;Node2</title>
<path fill="none" stroke="#404040" d="M368.59,-260.964C364.602,-247.486 360.352,-233.12 356.293,-219.402"/>
<polygon fill="none" stroke="#404040" points="356.192,-219.059 350.654,-214.44 352.788,-207.552 358.325,-212.171 356.192,-219.059"/>
<text text-anchor="middle" x="381" y="-229" font-family="Helvetica,sans-Serif" font-size="10.00"> &#45;buttons</text>
</g>
<!-- Node11 -->
<g id="node11" class="node"><title>Node11</title>
<g id="a_node11"><a xlink:href="../../d1/d19/classButton.html" target="_top" xlink:title="A class for reading and debouncing buttons and switches.">
<polygon fill="white" stroke="black" points="345.5,-459.5 345.5,-648.5 441.5,-648.5 441.5,-459.5 345.5,-459.5"/>
<text text-anchor="middle" x="393.5" y="-636.5" font-family="Helvetica,sans-Serif" font-size="10.00">Button</text>
<polyline fill="none" stroke="black" points="345.5,-629.5 441.5,-629.5 "/>
<text text-anchor="start" x="353.5" y="-617.5" font-family="Helvetica,sans-Serif" font-size="10.00">&#45; pin</text>
<text text-anchor="start" x="353.5" y="-606.5" font-family="Helvetica,sans-Serif" font-size="10.00">&#45; prevInput</text>
<text text-anchor="start" x="353.5" y="-595.5" font-family="Helvetica,sans-Serif" font-size="10.00">&#45; debouncedState</text>
<text text-anchor="start" x="353.5" y="-584.5" font-family="Helvetica,sans-Serif" font-size="10.00">&#45; prevBounceTime</text>
<text text-anchor="start" x="353.5" y="-573.5" font-family="Helvetica,sans-Serif" font-size="10.00">&#45; invertState</text>
<text text-anchor="start" x="353.5" y="-562.5" font-family="Helvetica,sans-Serif" font-size="10.00">&#45; debounceTime</text>
<polyline fill="none" stroke="black" points="345.5,-555.5 441.5,-555.5 "/>
<text text-anchor="start" x="353.5" y="-543.5" font-family="Helvetica,sans-Serif" font-size="10.00">+ Button()</text>
<text text-anchor="start" x="353.5" y="-532.5" font-family="Helvetica,sans-Serif" font-size="10.00">+ Button()</text>
<text text-anchor="start" x="353.5" y="-521.5" font-family="Helvetica,sans-Serif" font-size="10.00">+ begin()</text>
<text text-anchor="start" x="353.5" y="-510.5" font-family="Helvetica,sans-Serif" font-size="10.00">+ invert()</text>
<text text-anchor="start" x="353.5" y="-499.5" font-family="Helvetica,sans-Serif" font-size="10.00">+ update()</text>
<text text-anchor="start" x="353.5" y="-488.5" font-family="Helvetica,sans-Serif" font-size="10.00">+ getState()</text>
<text text-anchor="start" x="353.5" y="-477.5" font-family="Helvetica,sans-Serif" font-size="10.00">+ stableTime()</text>
<text text-anchor="start" x="353.5" y="-466.5" font-family="Helvetica,sans-Serif" font-size="10.00">+ getName()</text>
</a>
</g>
</g>
<!-- Node11&#45;&gt;Node10 -->
<g id="edge13" class="edge"><title>Node11&#45;&gt;Node10</title>
<path fill="none" stroke="#404040" d="M390.643,-459.323C390.001,-438.281 389.329,-416.261 388.718,-396.224"/>
<polygon fill="none" stroke="#404040" points="388.712,-396.026 384.531,-390.15 388.346,-384.031 392.527,-389.906 388.712,-396.026"/>
<text text-anchor="middle" x="431" y="-422" font-family="Helvetica,sans-Serif" font-size="10.00"> &#45;decrementButton</text>
<text text-anchor="middle" x="431" y="-411" font-family="Helvetica,sans-Serif" font-size="10.00">&#45;incrementButton</text>
</g>
</g>
</svg>
