<?xml version="1.0" encoding="UTF-8" standalone="no"?>
<!DOCTYPE svg PUBLIC "-//W3C//DTD SVG 1.1//EN"
 "http://www.w3.org/Graphics/SVG/1.1/DTD/svg11.dtd">
<!-- Generated by graphviz version 2.38.0 (20140413.2041)
 -->
<!-- Title: Model&lt; Nx, Nu, Ny &gt; Pages: 1 -->
<svg width="284pt" height="496pt"
 viewBox="0.00 0.00 284.00 496.00" xmlns="http://www.w3.org/2000/svg" xmlns:xlink="http://www.w3.org/1999/xlink">
<g id="graph0" class="graph" transform="scale(1 1) rotate(0) translate(4 492)">
<title>Model&lt; Nx, Nu, Ny &gt;</title>
<polygon fill="white" stroke="none" points="-4,4 -4,-492 280,-492 280,4 -4,4"/>
<!-- Node0 -->
<g id="node1" class="node"><title>Node0</title>
<g id="a_node1"><a xlink:title="An abstract class for general models that can be simulated.">
<polygon fill="#bfbfbf" stroke="black" points="74.5,-342.5 74.5,-487.5 185.5,-487.5 185.5,-342.5 74.5,-342.5"/>
<text text-anchor="middle" x="130" y="-475.5" font-family="Helvetica,sans-Serif" font-size="10.00">Model&lt; Nx, Nu, Ny &gt;</text>
<polyline fill="none" stroke="black" points="74.5,-468.5 185.5,-468.5 "/>
<text text-anchor="middle" x="130" y="-456.5" font-family="Helvetica,sans-Serif" font-size="10.00"> </text>
<polyline fill="none" stroke="black" points="74.5,-449.5 185.5,-449.5 "/>
<text text-anchor="start" x="82.5" y="-437.5" font-family="Helvetica,sans-Serif" font-size="10.00">+ operator()()</text>
<text text-anchor="start" x="82.5" y="-426.5" font-family="Helvetica,sans-Serif" font-size="10.00">+ getOutput()</text>
<text text-anchor="start" x="82.5" y="-415.5" font-family="Helvetica,sans-Serif" font-size="10.00">+ simulate()</text>
<text text-anchor="start" x="82.5" y="-404.5" font-family="Helvetica,sans-Serif" font-size="10.00">+ simulate()</text>
<text text-anchor="start" x="82.5" y="-393.5" font-family="Helvetica,sans-Serif" font-size="10.00">+ simulate()</text>
<text text-anchor="start" x="82.5" y="-382.5" font-family="Helvetica,sans-Serif" font-size="10.00">+ simulate()</text>
<text text-anchor="start" x="82.5" y="-371.5" font-family="Helvetica,sans-Serif" font-size="10.00">+ simulate()</text>
<text text-anchor="start" x="82.5" y="-360.5" font-family="Helvetica,sans-Serif" font-size="10.00">+ simulate()</text>
<text text-anchor="start" x="82.5" y="-349.5" font-family="Helvetica,sans-Serif" font-size="10.00">+ simulate()</text>
</a>
</g>
</g>
<!-- Node1 -->
<g id="node2" class="node"><title>Node1</title>
<g id="a_node2"><a xlink:href="../../d3/d6d/classContinuousModel.html" target="_top" xlink:title="An abstract class for Continuous&#45;Time models.">
<polygon fill="white" stroke="black" points="1.5,-171.5 1.5,-305.5 118.5,-305.5 118.5,-171.5 1.5,-171.5"/>
<text text-anchor="start" x="9.5" y="-293.5" font-family="Helvetica,sans-Serif" font-size="10.00">ContinuousModel&lt; Nx,</text>
<text text-anchor="middle" x="60" y="-282.5" font-family="Helvetica,sans-Serif" font-size="10.00"> Nu, Ny &gt;</text>
<polyline fill="none" stroke="black" points="1.5,-275.5 118.5,-275.5 "/>
<text text-anchor="middle" x="60" y="-263.5" font-family="Helvetica,sans-Serif" font-size="10.00"> </text>
<polyline fill="none" stroke="black" points="1.5,-256.5 118.5,-256.5 "/>
<text text-anchor="start" x="9.5" y="-244.5" font-family="Helvetica,sans-Serif" font-size="10.00">+ simulate()</text>
<text text-anchor="start" x="9.5" y="-233.5" font-family="Helvetica,sans-Serif" font-size="10.00">+ simulate()</text>
<text text-anchor="start" x="9.5" y="-222.5" font-family="Helvetica,sans-Serif" font-size="10.00">+ simulate()</text>
<text text-anchor="start" x="9.5" y="-211.5" font-family="Helvetica,sans-Serif" font-size="10.00">+ simulate()</text>
<text text-anchor="start" x="9.5" y="-200.5" font-family="Helvetica,sans-Serif" font-size="10.00">+ simulate()</text>
<text text-anchor="start" x="9.5" y="-189.5" font-family="Helvetica,sans-Serif" font-size="10.00">+ simulate()</text>
<text text-anchor="start" x="9.5" y="-178.5" font-family="Helvetica,sans-Serif" font-size="10.00">+ simulate()</text>
</a>
</g>
</g>
<!-- Node0&#45;&gt;Node1 -->
<g id="edge1" class="edge"><title>Node0&#45;&gt;Node1</title>
<path fill="none" stroke="midnightblue" d="M97.4366,-332.824C93.7822,-323.714 90.0922,-314.515 86.527,-305.628"/>
<polygon fill="none" stroke="midnightblue" points="94.2538,-334.291 101.225,-342.269 100.751,-331.685 94.2538,-334.291"/>
</g>
<!-- Node3 -->
<g id="node4" class="node"><title>Node3</title>
<g id="a_node4"><a xlink:href="../../d3/d6d/classContinuousModel.html" target="_top" xlink:title=" ">
<polygon fill="white" stroke="black" points="142.5,-171.5 142.5,-305.5 257.5,-305.5 257.5,-171.5 142.5,-171.5"/>
<text text-anchor="start" x="150.5" y="-293.5" font-family="Helvetica,sans-Serif" font-size="10.00">ContinuousModel&lt; 10,</text>
<text text-anchor="middle" x="200" y="-282.5" font-family="Helvetica,sans-Serif" font-size="10.00"> 3, 7 &gt;</text>
<polyline fill="none" stroke="black" points="142.5,-275.5 257.5,-275.5 "/>
<text text-anchor="middle" x="200" y="-263.5" font-family="Helvetica,sans-Serif" font-size="10.00"> </text>
<polyline fill="none" stroke="black" points="142.5,-256.5 257.5,-256.5 "/>
<text text-anchor="start" x="150.5" y="-244.5" font-family="Helvetica,sans-Serif" font-size="10.00">+ simulate()</text>
<text text-anchor="start" x="150.5" y="-233.5" font-family="Helvetica,sans-Serif" font-size="10.00">+ simulate()</text>
<text text-anchor="start" x="150.5" y="-222.5" font-family="Helvetica,sans-Serif" font-size="10.00">+ simulate()</text>
<text text-anchor="start" x="150.5" y="-211.5" font-family="Helvetica,sans-Serif" font-size="10.00">+ simulate()</text>
<text text-anchor="start" x="150.5" y="-200.5" font-family="Helvetica,sans-Serif" font-size="10.00">+ simulate()</text>
<text text-anchor="start" x="150.5" y="-189.5" font-family="Helvetica,sans-Serif" font-size="10.00">+ simulate()</text>
<text text-anchor="start" x="150.5" y="-178.5" font-family="Helvetica,sans-Serif" font-size="10.00">+ simulate()</text>
</a>
</g>
</g>
<!-- Node0&#45;&gt;Node3 -->
<g id="edge3" class="edge"><title>Node0&#45;&gt;Node3</title>
<path fill="none" stroke="midnightblue" d="M162.563,-332.824C166.218,-323.714 169.908,-314.515 173.473,-305.628"/>
<polygon fill="none" stroke="midnightblue" points="159.249,-331.685 158.775,-342.269 165.746,-334.291 159.249,-331.685"/>
</g>
<!-- Node2 -->
<g id="node3" class="node"><title>Node2</title>
<g id="a_node3"><a xlink:href="../../d8/d08/classCTLTIModel.html" target="_top" xlink:title="Continuous&#45;Time Linear Time&#45;Invariant Model.">
<polygon fill="white" stroke="black" points="0,-17 0,-118 114,-118 114,-17 0,-17"/>
<text text-anchor="start" x="8" y="-106" font-family="Helvetica,sans-Serif" font-size="10.00">CTLTIModel&lt; Nx, Nu,</text>
<text text-anchor="middle" x="57" y="-95" font-family="Helvetica,sans-Serif" font-size="10.00"> Ny &gt;</text>
<polyline fill="none" stroke="black" points="0,-88 114,-88 "/>
<text text-anchor="middle" x="57" y="-76" font-family="Helvetica,sans-Serif" font-size="10.00"> </text>
<polyline fill="none" stroke="black" points="0,-69 114,-69 "/>
<text text-anchor="start" x="8" y="-57" font-family="Helvetica,sans-Serif" font-size="10.00">+ CTLTIModel()</text>
<text text-anchor="start" x="8" y="-46" font-family="Helvetica,sans-Serif" font-size="10.00">+ CTLTIModel()</text>
<text text-anchor="start" x="8" y="-35" font-family="Helvetica,sans-Serif" font-size="10.00">+ operator()()</text>
<text text-anchor="start" x="8" y="-24" font-family="Helvetica,sans-Serif" font-size="10.00">+ getOutput()</text>
</a>
</g>
</g>
<!-- Node1&#45;&gt;Node2 -->
<g id="edge2" class="edge"><title>Node1&#45;&gt;Node2</title>
<path fill="none" stroke="midnightblue" d="M58.6449,-161.161C58.3858,-146.565 58.1209,-131.641 57.8814,-118.154"/>
<polygon fill="none" stroke="midnightblue" points="55.1459,-161.256 58.8229,-171.192 62.1448,-161.131 55.1459,-161.256"/>
</g>
<!-- Node4 -->
<g id="node5" class="node"><title>Node4</title>
<g id="a_node5"><a xlink:href="../../d5/d71/classNonLinearFullDroneModel.html" target="_top" xlink:title=" ">
<polygon fill="white" stroke="black" points="132,-0.5 132,-134.5 276,-134.5 276,-0.5 132,-0.5"/>
<text text-anchor="middle" x="204" y="-122.5" font-family="Helvetica,sans-Serif" font-size="10.00">NonLinearFullDroneModel</text>
<polyline fill="none" stroke="black" points="132,-115.5 276,-115.5 "/>
<text text-anchor="start" x="140" y="-103.5" font-family="Helvetica,sans-Serif" font-size="10.00">+ p</text>
<text text-anchor="start" x="140" y="-92.5" font-family="Helvetica,sans-Serif" font-size="10.00">+ nx</text>
<text text-anchor="start" x="140" y="-81.5" font-family="Helvetica,sans-Serif" font-size="10.00">+ nu</text>
<text text-anchor="start" x="140" y="-70.5" font-family="Helvetica,sans-Serif" font-size="10.00">+ ny</text>
<polyline fill="none" stroke="black" points="132,-63.5 276,-63.5 "/>
<text text-anchor="start" x="140" y="-51.5" font-family="Helvetica,sans-Serif" font-size="10.00">+ NonLinearFullDroneModel()</text>
<text text-anchor="start" x="140" y="-40.5" font-family="Helvetica,sans-Serif" font-size="10.00">+ operator()()</text>
<text text-anchor="start" x="140" y="-29.5" font-family="Helvetica,sans-Serif" font-size="10.00">+ getOutput()</text>
<text text-anchor="start" x="140" y="-18.5" font-family="Helvetica,sans-Serif" font-size="10.00">+ stateToEuler()</text>
<text text-anchor="start" x="140" y="-7.5" font-family="Helvetica,sans-Serif" font-size="10.00">+ statesToEuler()</text>
</a>
</g>
</g>
<!-- Node3&#45;&gt;Node4 -->
<g id="edge4" class="edge"><title>Node3&#45;&gt;Node4</title>
<path fill="none" stroke="midnightblue" d="M201.812,-160.949C202.02,-152.159 202.231,-143.254 202.435,-134.617"/>
<polygon fill="none" stroke="midnightblue" points="198.307,-161.112 201.569,-171.192 205.305,-161.277 198.307,-161.112"/>
</g>
</g>
</svg>
