<?xml version="1.0" encoding="UTF-8" standalone="no"?>
<!DOCTYPE svg PUBLIC "-//W3C//DTD SVG 1.1//EN"
 "http://www.w3.org/Graphics/SVG/1.1/DTD/svg11.dtd">
<!-- Generated by graphviz version 2.38.0 (20140413.2041)
 -->
<!-- Title: CCButtons&lt; NUMBER_OF_BUTTONS &gt; Pages: 1 -->
<svg width="470pt" height="1230pt"
 viewBox="0.00 0.00 470.00 1230.00" xmlns="http://www.w3.org/2000/svg" xmlns:xlink="http://www.w3.org/1999/xlink">
<g id="graph0" class="graph" transform="scale(1 1) rotate(0) translate(4 1226)">
<title>CCButtons&lt; NUMBER_OF_BUTTONS &gt;</title>
<polygon fill="white" stroke="none" points="-4,4 -4,-1226 466,-1226 466,4 -4,4"/>
<!-- Node5 -->
<g id="node1" class="node"><title>Node5</title>
<g id="a_node1"><a xlink:title="A class of MIDIOutputElements that read the input of a collection of momentary push buttons or switch...">
<polygon fill="#bfbfbf" stroke="black" points="184.5,-0.5 184.5,-68.5 321.5,-68.5 321.5,-0.5 184.5,-0.5"/>
<text text-anchor="start" x="192.5" y="-56.5" font-family="Helvetica,sans-Serif" font-size="10.00">CCButtons&lt; NUMBER_OF</text>
<text text-anchor="middle" x="253" y="-45.5" font-family="Helvetica,sans-Serif" font-size="10.00">_BUTTONS &gt;</text>
<polyline fill="none" stroke="black" points="184.5,-38.5 321.5,-38.5 "/>
<text text-anchor="middle" x="253" y="-26.5" font-family="Helvetica,sans-Serif" font-size="10.00"> </text>
<polyline fill="none" stroke="black" points="184.5,-19.5 321.5,-19.5 "/>
<text text-anchor="start" x="192.5" y="-7.5" font-family="Helvetica,sans-Serif" font-size="10.00">+ CCButtons()</text>
</a>
</g>
</g>
<!-- Node6 -->
<g id="node2" class="node"><title>Node6</title>
<g id="a_node2"><a xlink:href="../../dc/d22/classBankable_1_1MIDIButtons.html" target="_top" xlink:title=" ">
<polygon fill="white" stroke="black" points="180.5,-106.5 180.5,-273.5 325.5,-273.5 325.5,-106.5 180.5,-106.5"/>
<text text-anchor="start" x="188.5" y="-261.5" font-family="Helvetica,sans-Serif" font-size="10.00">Bankable::MIDIButtons</text>
<text text-anchor="start" x="188.5" y="-250.5" font-family="Helvetica,sans-Serif" font-size="10.00">&lt; DigitalCCSender::sendOn,</text>
<text text-anchor="start" x="188.5" y="-239.5" font-family="Helvetica,sans-Serif" font-size="10.00"> DigitalCCSender::sendOff,</text>
<text text-anchor="middle" x="253" y="-228.5" font-family="Helvetica,sans-Serif" font-size="10.00"> NUMBER_OF_BUTTONS &gt;</text>
<polyline fill="none" stroke="black" points="180.5,-221.5 325.5,-221.5 "/>
<text text-anchor="start" x="188.5" y="-209.5" font-family="Helvetica,sans-Serif" font-size="10.00">&#45; baseAddress</text>
<text text-anchor="start" x="188.5" y="-198.5" font-family="Helvetica,sans-Serif" font-size="10.00">&#45; baseChannel</text>
<text text-anchor="start" x="188.5" y="-187.5" font-family="Helvetica,sans-Serif" font-size="10.00">&#45; increment</text>
<text text-anchor="start" x="188.5" y="-176.5" font-family="Helvetica,sans-Serif" font-size="10.00">&#45; activeButtons</text>
<polyline fill="none" stroke="black" points="180.5,-169.5 325.5,-169.5 "/>
<text text-anchor="start" x="188.5" y="-157.5" font-family="Helvetica,sans-Serif" font-size="10.00">+ begin()</text>
<text text-anchor="start" x="188.5" y="-146.5" font-family="Helvetica,sans-Serif" font-size="10.00">+ update()</text>
<text text-anchor="start" x="188.5" y="-135.5" font-family="Helvetica,sans-Serif" font-size="10.00">+ getChannelIncrement()</text>
<text text-anchor="start" x="188.5" y="-124.5" font-family="Helvetica,sans-Serif" font-size="10.00">+ getAddressIncrement()</text>
<text text-anchor="start" x="188.5" y="-113.5" font-family="Helvetica,sans-Serif" font-size="10.00"># MIDIButtons()</text>
</a>
</g>
</g>
<!-- Node6&#45;&gt;Node5 -->
<g id="edge1" class="edge"><title>Node6&#45;&gt;Node5</title>
<path fill="none" stroke="midnightblue" d="M253,-96.1656C253,-86.435 253,-77.0656 253,-68.7215"/>
<polygon fill="none" stroke="midnightblue" points="249.5,-96.4088 253,-106.409 256.5,-96.4089 249.5,-96.4088"/>
</g>
<!-- Node7 -->
<g id="node3" class="node"><title>Node7</title>
<g id="a_node3"><a xlink:href="../../d9/d14/classBankableMIDIOutputAddressable.html" target="_top" xlink:title=" ">
<polygon fill="white" stroke="black" points="0,-338 0,-516 176,-516 176,-338 0,-338"/>
<text text-anchor="middle" x="88" y="-504" font-family="Helvetica,sans-Serif" font-size="10.00">BankableMIDIOutputAddressable</text>
<polyline fill="none" stroke="black" points="0,-497 176,-497 "/>
<text text-anchor="start" x="8" y="-485" font-family="Helvetica,sans-Serif" font-size="10.00">&#45; channelsOrAddressesPerBank</text>
<text text-anchor="start" x="8" y="-474" font-family="Helvetica,sans-Serif" font-size="10.00">&#45; lockedSetting</text>
<text text-anchor="start" x="8" y="-463" font-family="Helvetica,sans-Serif" font-size="10.00">&#45; UNLOCKED</text>
<polyline fill="none" stroke="black" points="0,-456 176,-456 "/>
<text text-anchor="start" x="8" y="-444" font-family="Helvetica,sans-Serif" font-size="10.00">+ getChannel()</text>
<text text-anchor="start" x="8" y="-433" font-family="Helvetica,sans-Serif" font-size="10.00">+ getAddress()</text>
<text text-anchor="start" x="8" y="-422" font-family="Helvetica,sans-Serif" font-size="10.00">+ getAddressesPerBank()</text>
<text text-anchor="start" x="8" y="-411" font-family="Helvetica,sans-Serif" font-size="10.00">+ getChannelsPerBank()</text>
<text text-anchor="start" x="8" y="-400" font-family="Helvetica,sans-Serif" font-size="10.00">+ getRawBankSetting()</text>
<text text-anchor="start" x="8" y="-389" font-family="Helvetica,sans-Serif" font-size="10.00">+ getSelection()</text>
<text text-anchor="start" x="8" y="-378" font-family="Helvetica,sans-Serif" font-size="10.00"># BankableMIDIOutputAddressable()</text>
<text text-anchor="start" x="8" y="-367" font-family="Helvetica,sans-Serif" font-size="10.00"># BankableMIDIOutputAddressable()</text>
<text text-anchor="start" x="8" y="-356" font-family="Helvetica,sans-Serif" font-size="10.00"># lock()</text>
<text text-anchor="start" x="8" y="-345" font-family="Helvetica,sans-Serif" font-size="10.00"># unlock()</text>
</a>
</g>
</g>
<!-- Node7&#45;&gt;Node6 -->
<g id="edge2" class="edge"><title>Node7&#45;&gt;Node6</title>
<path fill="none" stroke="midnightblue" d="M155.82,-329.408C168.771,-310.962 182.221,-291.806 194.837,-273.838"/>
<polygon fill="none" stroke="midnightblue" points="152.791,-327.631 149.909,-337.826 158.52,-331.653 152.791,-327.631"/>
</g>
<!-- Node8 -->
<g id="node4" class="node"><title>Node8</title>
<g id="a_node4"><a xlink:href="../../d9/d36/classOutputBank.html" target="_top" xlink:title=" ">
<polygon fill="white" stroke="black" points="27.5,-652 27.5,-753 140.5,-753 140.5,-652 27.5,-652"/>
<text text-anchor="middle" x="84" y="-741" font-family="Helvetica,sans-Serif" font-size="10.00">OutputBank</text>
<polyline fill="none" stroke="black" points="27.5,-734 140.5,-734 "/>
<text text-anchor="start" x="35.5" y="-722" font-family="Helvetica,sans-Serif" font-size="10.00">&#45; tracksPerBank</text>
<text text-anchor="start" x="35.5" y="-711" font-family="Helvetica,sans-Serif" font-size="10.00">&#45; bankSetting</text>
<polyline fill="none" stroke="black" points="27.5,-704 140.5,-704 "/>
<text text-anchor="start" x="35.5" y="-692" font-family="Helvetica,sans-Serif" font-size="10.00">+ OutputBank()</text>
<text text-anchor="start" x="35.5" y="-681" font-family="Helvetica,sans-Serif" font-size="10.00">+ select()</text>
<text text-anchor="start" x="35.5" y="-670" font-family="Helvetica,sans-Serif" font-size="10.00">+ getSelection()</text>
<text text-anchor="start" x="35.5" y="-659" font-family="Helvetica,sans-Serif" font-size="10.00">+ getTracksPerBank()</text>
</a>
</g>
</g>
<!-- Node8&#45;&gt;Node7 -->
<g id="edge3" class="edge"><title>Node8&#45;&gt;Node7</title>
<path fill="none" stroke="#404040" d="M84.7244,-651.971C85.2285,-617.501 85.9182,-570.342 86.5347,-528.186"/>
<polygon fill="none" stroke="#404040" points="86.5351,-528.154 82.6233,-522.096 86.7107,-516.155 90.6225,-522.213 86.5351,-528.154"/>
<text text-anchor="middle" x="101" y="-554" font-family="Helvetica,sans-Serif" font-size="10.00"> &#45;bank</text>
</g>
<!-- Node9 -->
<g id="node5" class="node"><title>Node9</title>
<g id="a_node5"><a xlink:href="../../d5/de0/classUpdatable.html" target="_top" xlink:title=" ">
<polygon fill="white" stroke="black" points="201,-321.5 201,-532.5 305,-532.5 305,-321.5 201,-321.5"/>
<text text-anchor="middle" x="253" y="-520.5" font-family="Helvetica,sans-Serif" font-size="10.00">MIDIOutputElement</text>
<polyline fill="none" stroke="black" points="201,-513.5 305,-513.5 "/>
<text text-anchor="middle" x="253" y="-501.5" font-family="Helvetica,sans-Serif" font-size="10.00"> </text>
<polyline fill="none" stroke="black" points="201,-494.5 305,-494.5 "/>
<text text-anchor="start" x="209" y="-482.5" font-family="Helvetica,sans-Serif" font-size="10.00">+ Updatable()</text>
<text text-anchor="start" x="209" y="-471.5" font-family="Helvetica,sans-Serif" font-size="10.00">+ ~Updatable()</text>
<text text-anchor="start" x="209" y="-460.5" font-family="Helvetica,sans-Serif" font-size="10.00">+ update()</text>
<text text-anchor="start" x="209" y="-449.5" font-family="Helvetica,sans-Serif" font-size="10.00">+ begin()</text>
<text text-anchor="start" x="209" y="-438.5" font-family="Helvetica,sans-Serif" font-size="10.00">+ enable()</text>
<text text-anchor="start" x="209" y="-427.5" font-family="Helvetica,sans-Serif" font-size="10.00">+ disable()</text>
<text text-anchor="start" x="209" y="-416.5" font-family="Helvetica,sans-Serif" font-size="10.00">+ isEnabled()</text>
<text text-anchor="start" x="209" y="-405.5" font-family="Helvetica,sans-Serif" font-size="10.00">+ enable()</text>
<text text-anchor="start" x="209" y="-394.5" font-family="Helvetica,sans-Serif" font-size="10.00">+ enable()</text>
<text text-anchor="start" x="209" y="-383.5" font-family="Helvetica,sans-Serif" font-size="10.00">+ enable()</text>
<text text-anchor="start" x="209" y="-372.5" font-family="Helvetica,sans-Serif" font-size="10.00">+ disable()</text>
<text text-anchor="start" x="209" y="-361.5" font-family="Helvetica,sans-Serif" font-size="10.00">+ disable()</text>
<text text-anchor="start" x="209" y="-350.5" font-family="Helvetica,sans-Serif" font-size="10.00">+ disable()</text>
<text text-anchor="start" x="209" y="-339.5" font-family="Helvetica,sans-Serif" font-size="10.00">+ beginAll()</text>
<text text-anchor="start" x="209" y="-328.5" font-family="Helvetica,sans-Serif" font-size="10.00">+ updateAll()</text>
</a>
</g>
</g>
<!-- Node9&#45;&gt;Node6 -->
<g id="edge4" class="edge"><title>Node9&#45;&gt;Node6</title>
<path fill="none" stroke="midnightblue" d="M253,-311.115C253,-298.497 253,-285.838 253,-273.722"/>
<polygon fill="none" stroke="midnightblue" points="249.5,-311.215 253,-321.215 256.5,-311.215 249.5,-311.215"/>
</g>
<!-- Node10 -->
<g id="node6" class="node"><title>Node10</title>
<g id="a_node6"><a xlink:href="../../d4/d23/classDoublyLinkable.html" target="_top" xlink:title=" ">
<polygon fill="white" stroke="black" points="173.5,-1153.5 173.5,-1221.5 310.5,-1221.5 310.5,-1153.5 173.5,-1153.5"/>
<text text-anchor="start" x="181.5" y="-1209.5" font-family="Helvetica,sans-Serif" font-size="10.00">DoublyLinkable&lt; Updatable</text>
<text text-anchor="middle" x="242" y="-1198.5" font-family="Helvetica,sans-Serif" font-size="10.00">&lt; NormalUpdatable &gt; &gt;</text>
<polyline fill="none" stroke="black" points="173.5,-1191.5 310.5,-1191.5 "/>
<text text-anchor="middle" x="242" y="-1179.5" font-family="Helvetica,sans-Serif" font-size="10.00"> </text>
<polyline fill="none" stroke="black" points="173.5,-1172.5 310.5,-1172.5 "/>
<text text-anchor="start" x="181.5" y="-1160.5" font-family="Helvetica,sans-Serif" font-size="10.00"># ~DoublyLinkable()</text>
</a>
</g>
</g>
<!-- Node10&#45;&gt;Node9 -->
<g id="edge5" class="edge"><title>Node10&#45;&gt;Node9</title>
<path fill="none" stroke="midnightblue" d="M211.068,-1144.8C201.756,-1129.86 192.752,-1112.4 188,-1095 157.852,-984.598 165.034,-692.116 188,-580 191.225,-564.255 196.15,-548.124 201.876,-532.531"/>
<polygon fill="none" stroke="midnightblue" points="208.185,-1146.79 216.556,-1153.28 214.062,-1142.98 208.185,-1146.79"/>
</g>
<!-- Node11 -->
<g id="node7" class="node"><title>Node11</title>
<g id="a_node7"><a xlink:href="../../d5/de0/classUpdatable.html" target="_top" xlink:title=" ">
<polygon fill="white" stroke="black" points="197.5,-883.5 197.5,-1094.5 352.5,-1094.5 352.5,-883.5 197.5,-883.5"/>
<text text-anchor="middle" x="275" y="-1082.5" font-family="Helvetica,sans-Serif" font-size="10.00">Updatable&lt; NormalUpdatable &gt;</text>
<polyline fill="none" stroke="black" points="197.5,-1075.5 352.5,-1075.5 "/>
<text text-anchor="middle" x="275" y="-1063.5" font-family="Helvetica,sans-Serif" font-size="10.00"> </text>
<polyline fill="none" stroke="black" points="197.5,-1056.5 352.5,-1056.5 "/>
<text text-anchor="start" x="205.5" y="-1044.5" font-family="Helvetica,sans-Serif" font-size="10.00">+ Updatable()</text>
<text text-anchor="start" x="205.5" y="-1033.5" font-family="Helvetica,sans-Serif" font-size="10.00">+ ~Updatable()</text>
<text text-anchor="start" x="205.5" y="-1022.5" font-family="Helvetica,sans-Serif" font-size="10.00">+ update()</text>
<text text-anchor="start" x="205.5" y="-1011.5" font-family="Helvetica,sans-Serif" font-size="10.00">+ begin()</text>
<text text-anchor="start" x="205.5" y="-1000.5" font-family="Helvetica,sans-Serif" font-size="10.00">+ enable()</text>
<text text-anchor="start" x="205.5" y="-989.5" font-family="Helvetica,sans-Serif" font-size="10.00">+ disable()</text>
<text text-anchor="start" x="205.5" y="-978.5" font-family="Helvetica,sans-Serif" font-size="10.00">+ isEnabled()</text>
<text text-anchor="start" x="205.5" y="-967.5" font-family="Helvetica,sans-Serif" font-size="10.00">+ enable()</text>
<text text-anchor="start" x="205.5" y="-956.5" font-family="Helvetica,sans-Serif" font-size="10.00">+ enable()</text>
<text text-anchor="start" x="205.5" y="-945.5" font-family="Helvetica,sans-Serif" font-size="10.00">+ enable()</text>
<text text-anchor="start" x="205.5" y="-934.5" font-family="Helvetica,sans-Serif" font-size="10.00">+ disable()</text>
<text text-anchor="start" x="205.5" y="-923.5" font-family="Helvetica,sans-Serif" font-size="10.00">+ disable()</text>
<text text-anchor="start" x="205.5" y="-912.5" font-family="Helvetica,sans-Serif" font-size="10.00">+ disable()</text>
<text text-anchor="start" x="205.5" y="-901.5" font-family="Helvetica,sans-Serif" font-size="10.00">+ beginAll()</text>
<text text-anchor="start" x="205.5" y="-890.5" font-family="Helvetica,sans-Serif" font-size="10.00">+ updateAll()</text>
</a>
</g>
</g>
<!-- Node10&#45;&gt;Node11 -->
<g id="edge7" class="edge"><title>Node10&#45;&gt;Node11</title>
<path fill="none" stroke="midnightblue" d="M249.293,-1143.07C251.724,-1128.6 254.546,-1111.79 257.412,-1094.73"/>
<polygon fill="none" stroke="midnightblue" points="245.803,-1142.72 247.598,-1153.17 252.706,-1143.88 245.803,-1142.72"/>
</g>
<!-- Node11&#45;&gt;Node10 -->
<g id="edge6" class="edge"><title>Node11&#45;&gt;Node10</title>
<path fill="none" stroke="#404040" d="M259.882,-1094.67C257.696,-1108.26 255.377,-1121.98 253,-1135 252.611,-1137.13 252.199,-1139.31 251.773,-1141.51"/>
<polygon fill="none" stroke="#404040" points="251.765,-1141.55 254.5,-1148.22 249.393,-1153.31 246.658,-1146.64 251.765,-1141.55"/>
<text text-anchor="middle" x="278.5" y="-1127" font-family="Helvetica,sans-Serif" font-size="10.00"> #next</text>
<text text-anchor="middle" x="278.5" y="-1116" font-family="Helvetica,sans-Serif" font-size="10.00">#previous</text>
</g>
<!-- Node12 -->
<g id="node8" class="node"><title>Node12</title>
<g id="a_node8"><a xlink:href="../../dd/d16/classDoublyLinkedList.html" target="_top" xlink:title=" ">
<polygon fill="white" stroke="black" points="197.5,-580.5 197.5,-824.5 342.5,-824.5 342.5,-580.5 197.5,-580.5"/>
<text text-anchor="start" x="205.5" y="-812.5" font-family="Helvetica,sans-Serif" font-size="10.00">DoublyLinkedList&lt; Updatable</text>
<text text-anchor="middle" x="270" y="-801.5" font-family="Helvetica,sans-Serif" font-size="10.00">&lt; NormalUpdatable &gt; &gt;</text>
<polyline fill="none" stroke="black" points="197.5,-794.5 342.5,-794.5 "/>
<text text-anchor="middle" x="270" y="-782.5" font-family="Helvetica,sans-Serif" font-size="10.00"> </text>
<polyline fill="none" stroke="black" points="197.5,-775.5 342.5,-775.5 "/>
<text text-anchor="start" x="205.5" y="-763.5" font-family="Helvetica,sans-Serif" font-size="10.00">+ DoublyLinkedList()</text>
<text text-anchor="start" x="205.5" y="-752.5" font-family="Helvetica,sans-Serif" font-size="10.00">+ append()</text>
<text text-anchor="start" x="205.5" y="-741.5" font-family="Helvetica,sans-Serif" font-size="10.00">+ append()</text>
<text text-anchor="start" x="205.5" y="-730.5" font-family="Helvetica,sans-Serif" font-size="10.00">+ remove()</text>
<text text-anchor="start" x="205.5" y="-719.5" font-family="Helvetica,sans-Serif" font-size="10.00">+ remove()</text>
<text text-anchor="start" x="205.5" y="-708.5" font-family="Helvetica,sans-Serif" font-size="10.00">+ moveDown()</text>
<text text-anchor="start" x="205.5" y="-697.5" font-family="Helvetica,sans-Serif" font-size="10.00">+ couldContain()</text>
<text text-anchor="start" x="205.5" y="-686.5" font-family="Helvetica,sans-Serif" font-size="10.00">+ begin()</text>
<text text-anchor="start" x="205.5" y="-675.5" font-family="Helvetica,sans-Serif" font-size="10.00">+ begin()</text>
<text text-anchor="start" x="205.5" y="-664.5" font-family="Helvetica,sans-Serif" font-size="10.00">+ end()</text>
<text text-anchor="start" x="205.5" y="-653.5" font-family="Helvetica,sans-Serif" font-size="10.00">+ end()</text>
<text text-anchor="start" x="205.5" y="-642.5" font-family="Helvetica,sans-Serif" font-size="10.00">+ rbegin()</text>
<text text-anchor="start" x="205.5" y="-631.5" font-family="Helvetica,sans-Serif" font-size="10.00">+ rbegin()</text>
<text text-anchor="start" x="205.5" y="-620.5" font-family="Helvetica,sans-Serif" font-size="10.00">+ rend()</text>
<text text-anchor="start" x="205.5" y="-609.5" font-family="Helvetica,sans-Serif" font-size="10.00">+ rend()</text>
<text text-anchor="start" x="205.5" y="-598.5" font-family="Helvetica,sans-Serif" font-size="10.00">+ getFirst()</text>
<text text-anchor="start" x="205.5" y="-587.5" font-family="Helvetica,sans-Serif" font-size="10.00">+ getLast()</text>
</a>
</g>
</g>
<!-- Node11&#45;&gt;Node12 -->
<g id="edge9" class="edge"><title>Node11&#45;&gt;Node12</title>
<path fill="none" stroke="#404040" d="M249.507,-883.258C248.524,-877.103 247.673,-870.985 247,-865 245.966,-855.798 245.571,-846.313 245.669,-836.766"/>
<polygon fill="none" stroke="#404040" points="245.673,-836.651 241.861,-830.53 246.046,-824.657 249.857,-830.779 245.673,-836.651"/>
<text text-anchor="middle" x="258" y="-857" font-family="Helvetica,sans-Serif" font-size="10.00"> &#45;last</text>
<text text-anchor="middle" x="258" y="-846" font-family="Helvetica,sans-Serif" font-size="10.00">&#45;first</text>
</g>
<!-- Node12&#45;&gt;Node9 -->
<g id="edge10" class="edge"><title>Node12&#45;&gt;Node9</title>
<path fill="none" stroke="#404040" d="M262.469,-580.345C261.738,-568.573 260.996,-556.646 260.267,-544.918"/>
<polygon fill="none" stroke="#404040" points="260.258,-544.759 255.893,-539.019 259.513,-532.782 263.878,-538.522 260.258,-544.759"/>
<text text-anchor="middle" x="288" y="-554" font-family="Helvetica,sans-Serif" font-size="10.00"> &#45;updatables</text>
</g>
<!-- Node12&#45;&gt;Node11 -->
<g id="edge8" class="edge"><title>Node12&#45;&gt;Node11</title>
<path fill="none" stroke="#404040" d="M272.666,-824.854C272.783,-830.99 272.895,-837.066 273,-843 273.162,-852.204 273.319,-861.736 273.469,-871.315"/>
<polygon fill="none" stroke="#404040" points="273.471,-871.455 277.562,-877.393 273.654,-883.453 269.563,-877.515 273.471,-871.455"/>
<text text-anchor="middle" x="301" y="-851.5" font-family="Helvetica,sans-Serif" font-size="10.00"> &#45;updatables</text>
</g>
<!-- Node13 -->
<g id="node9" class="node"><title>Node13</title>
<g id="a_node9"><a xlink:href="../../d7/d6a/structArray.html" target="_top" xlink:title=" ">
<polygon fill="white" stroke="black" points="334,-354.5 334,-499.5 462,-499.5 462,-354.5 334,-354.5"/>
<text text-anchor="start" x="342" y="-487.5" font-family="Helvetica,sans-Serif" font-size="10.00">Array&lt; Button, NUMBER</text>
<text text-anchor="middle" x="398" y="-476.5" font-family="Helvetica,sans-Serif" font-size="10.00">_OF_BUTTONS &gt;</text>
<polyline fill="none" stroke="black" points="334,-469.5 462,-469.5 "/>
<text text-anchor="middle" x="398" y="-457.5" font-family="Helvetica,sans-Serif" font-size="10.00"> </text>
<polyline fill="none" stroke="black" points="334,-450.5 462,-450.5 "/>
<text text-anchor="start" x="342" y="-438.5" font-family="Helvetica,sans-Serif" font-size="10.00">+ operator[]()</text>
<text text-anchor="start" x="342" y="-427.5" font-family="Helvetica,sans-Serif" font-size="10.00">+ operator[]()</text>
<text text-anchor="start" x="342" y="-416.5" font-family="Helvetica,sans-Serif" font-size="10.00">+ begin()</text>
<text text-anchor="start" x="342" y="-405.5" font-family="Helvetica,sans-Serif" font-size="10.00">+ begin()</text>
<text text-anchor="start" x="342" y="-394.5" font-family="Helvetica,sans-Serif" font-size="10.00">+ end()</text>
<text text-anchor="start" x="342" y="-383.5" font-family="Helvetica,sans-Serif" font-size="10.00">+ end()</text>
<text text-anchor="start" x="342" y="-372.5" font-family="Helvetica,sans-Serif" font-size="10.00">+ operator==()</text>
<text text-anchor="start" x="342" y="-361.5" font-family="Helvetica,sans-Serif" font-size="10.00">+ operator!=()</text>
</a>
</g>
</g>
<!-- Node13&#45;&gt;Node6 -->
<g id="edge11" class="edge"><title>Node13&#45;&gt;Node6</title>
<path fill="none" stroke="#404040" d="M353.707,-354.215C340.068,-332.11 324.851,-307.448 310.461,-284.126"/>
<polygon fill="none" stroke="#404040" points="310.436,-284.085 303.881,-281.08 304.134,-273.873 310.689,-276.879 310.436,-284.085"/>
<text text-anchor="middle" x="341.5" y="-295" font-family="Helvetica,sans-Serif" font-size="10.00"> &#45;buttons</text>
</g>
<!-- Node14 -->
<g id="node10" class="node"><title>Node14</title>
<g id="a_node10"><a xlink:href="../../d1/d19/classButton.html" target="_top" xlink:title="A class for reading and debouncing buttons and switches.">
<polygon fill="white" stroke="black" points="361,-613.5 361,-791.5 457,-791.5 457,-613.5 361,-613.5"/>
<text text-anchor="middle" x="409" y="-779.5" font-family="Helvetica,sans-Serif" font-size="10.00">Button</text>
<polyline fill="none" stroke="black" points="361,-772.5 457,-772.5 "/>
<text text-anchor="start" x="369" y="-760.5" font-family="Helvetica,sans-Serif" font-size="10.00">&#45; pin</text>
<text text-anchor="start" x="369" y="-749.5" font-family="Helvetica,sans-Serif" font-size="10.00">&#45; prevState</text>
<text text-anchor="start" x="369" y="-738.5" font-family="Helvetica,sans-Serif" font-size="10.00">&#45; debouncedState</text>
<text text-anchor="start" x="369" y="-727.5" font-family="Helvetica,sans-Serif" font-size="10.00">&#45; prevBounceTime</text>
<text text-anchor="start" x="369" y="-716.5" font-family="Helvetica,sans-Serif" font-size="10.00">&#45; invertState</text>
<text text-anchor="start" x="369" y="-705.5" font-family="Helvetica,sans-Serif" font-size="10.00">&#45; debounceTime</text>
<polyline fill="none" stroke="black" points="361,-698.5 457,-698.5 "/>
<text text-anchor="start" x="369" y="-686.5" font-family="Helvetica,sans-Serif" font-size="10.00">+ Button()</text>
<text text-anchor="start" x="369" y="-675.5" font-family="Helvetica,sans-Serif" font-size="10.00">+ Button()</text>
<text text-anchor="start" x="369" y="-664.5" font-family="Helvetica,sans-Serif" font-size="10.00">+ begin()</text>
<text text-anchor="start" x="369" y="-653.5" font-family="Helvetica,sans-Serif" font-size="10.00">+ getState()</text>
<text text-anchor="start" x="369" y="-642.5" font-family="Helvetica,sans-Serif" font-size="10.00">+ stableTime()</text>
<text text-anchor="start" x="369" y="-631.5" font-family="Helvetica,sans-Serif" font-size="10.00">+ invert()</text>
<text text-anchor="start" x="369" y="-620.5" font-family="Helvetica,sans-Serif" font-size="10.00">+ getName()</text>
</a>
</g>
</g>
<!-- Node14&#45;&gt;Node13 -->
<g id="edge12" class="edge"><title>Node14&#45;&gt;Node13</title>
<path fill="none" stroke="#404040" d="M405.459,-613.457C404.15,-580.917 402.671,-544.145 401.377,-511.975"/>
<polygon fill="none" stroke="#404040" points="401.374,-511.88 397.136,-506.046 400.891,-499.89 405.129,-505.724 401.374,-511.88"/>
<text text-anchor="middle" x="418" y="-554" font-family="Helvetica,sans-Serif" font-size="10.00"> +data</text>
</g>
</g>
</svg>
