<?xml version="1.0" encoding="UTF-8" standalone="no"?>
<!DOCTYPE svg PUBLIC "-//W3C//DTD SVG 1.1//EN"
 "http://www.w3.org/Graphics/SVG/1.1/DTD/svg11.dtd">
<!-- Generated by graphviz version 2.38.0 (20140413.2041)
 -->
<!-- Title: main Pages: 1 -->
<svg width="1085pt" height="1103pt"
 viewBox="0.00 0.00 1085.00 1102.50" xmlns="http://www.w3.org/2000/svg" xmlns:xlink="http://www.w3.org/1999/xlink">
<g id="graph0" class="graph" transform="scale(1 1) rotate(0) translate(4 1098.5)">
<title>main</title>
<polygon fill="white" stroke="none" points="-4,4 -4,-1098.5 1081,-1098.5 1081,4 -4,4"/>
<!-- Node0 -->
<g id="node1" class="node"><title>Node0</title>
<g id="a_node1"><a xlink:title=" ">
<polygon fill="#bfbfbf" stroke="black" points="0,-790 0,-809 38,-809 38,-790 0,-790"/>
<text text-anchor="middle" x="19" y="-797" font-family="Helvetica,sans-Serif" font-size="10.00">main</text>
</a>
</g>
</g>
<!-- Node1 -->
<g id="node2" class="node"><title>Node1</title>
<g id="a_node2"><a xlink:href="../../dd/d7a/classArgParser.html#aec28b7dca9c56d6541c56321535dac12" target="_top" xlink:title=" ">
<polygon fill="white" stroke="black" points="100.5,-1075 100.5,-1094 182.5,-1094 182.5,-1075 100.5,-1075"/>
<text text-anchor="middle" x="141.5" y="-1082" font-family="Helvetica,sans-Serif" font-size="10.00">ArgParser::add</text>
</a>
</g>
</g>
<!-- Node0&#45;&gt;Node1 -->
<g id="edge1" class="edge"><title>Node0&#45;&gt;Node1</title>
<path fill="none" stroke="midnightblue" d="M20.6405,-809.113C23.6974,-852.157 38.1646,-1026.75 74,-1065.5 78.656,-1070.53 84.5441,-1074.27 90.8829,-1077.03"/>
<polygon fill="midnightblue" stroke="midnightblue" points="89.8067,-1080.36 100.401,-1080.42 92.1563,-1073.77 89.8067,-1080.36"/>
</g>
<!-- Node2 -->
<g id="node3" class="node"><title>Node2</title>
<g id="a_node3"><a xlink:href="../../dd/d7a/classArgParser.html#ab329e49e70d68d72a6d3203fd8e89107" target="_top" xlink:title=" ">
<polygon fill="white" stroke="black" points="96.5,-1037 96.5,-1056 186.5,-1056 186.5,-1037 96.5,-1037"/>
<text text-anchor="middle" x="141.5" y="-1044" font-family="Helvetica,sans-Serif" font-size="10.00">ArgParser::parse</text>
</a>
</g>
</g>
<!-- Node0&#45;&gt;Node2 -->
<g id="edge2" class="edge"><title>Node0&#45;&gt;Node2</title>
<path fill="none" stroke="midnightblue" d="M20.9823,-809.032C25.1863,-848.032 42.8808,-994.924 74,-1027.5 77.6895,-1031.36 82.1047,-1034.46 86.8821,-1036.93"/>
<polygon fill="midnightblue" stroke="midnightblue" points="85.8467,-1040.29 96.4199,-1040.97 88.5761,-1033.85 85.8467,-1040.29"/>
</g>
<!-- Node3 -->
<g id="node4" class="node"><title>Node3</title>
<g id="a_node4"><a xlink:href="../../dd/d92/structDrone.html#ad7d7d40282be9ee8734304b2c521acb4" target="_top" xlink:title=" ">
<polygon fill="white" stroke="black" points="89.5,-999 89.5,-1018 193.5,-1018 193.5,-999 89.5,-999"/>
<text text-anchor="middle" x="141.5" y="-1006" font-family="Helvetica,sans-Serif" font-size="10.00">Drone::getController</text>
</a>
</g>
</g>
<!-- Node0&#45;&gt;Node3 -->
<g id="edge3" class="edge"><title>Node0&#45;&gt;Node3</title>
<path fill="none" stroke="midnightblue" d="M19.6902,-809.406C19.2783,-840.605 22.3867,-937.815 74,-989.5 75.8931,-991.396 77.9613,-993.105 80.1599,-994.647"/>
<polygon fill="midnightblue" stroke="midnightblue" points="78.7699,-997.883 89.1904,-999.798 82.238,-991.803 78.7699,-997.883"/>
</g>
<!-- Node4 -->
<g id="node5" class="node"><title>Node4</title>
<g id="a_node5"><a xlink:href="../../dd/d92/structDrone.html#af89fd5aeeaed7ff8885eb54997ee671b" target="_top" xlink:title=" ">
<polygon fill="white" stroke="black" points="90.5,-961 90.5,-980 192.5,-980 192.5,-961 90.5,-961"/>
<text text-anchor="middle" x="141.5" y="-968" font-family="Helvetica,sans-Serif" font-size="10.00">Drone::getObserver</text>
</a>
</g>
</g>
<!-- Node0&#45;&gt;Node4 -->
<g id="edge4" class="edge"><title>Node0&#45;&gt;Node4</title>
<path fill="none" stroke="midnightblue" d="M20.7914,-809.234C23.4159,-835.197 34.0911,-906.818 74,-946.5 77.9711,-950.449 82.6389,-953.752 87.6291,-956.515"/>
<polygon fill="midnightblue" stroke="midnightblue" points="86.3458,-959.78 96.8785,-960.927 89.3595,-953.462 86.3458,-959.78"/>
</g>
<!-- Node5 -->
<g id="node6" class="node"><title>Node5</title>
<g id="a_node6"><a xlink:href="../../dd/d92/structDrone.html#a700e4ca036d7e47930808cf09f970b87" target="_top" xlink:title="Get the initial state of the drone. (Upright orientation and hovering thrust.)">
<polygon fill="white" stroke="black" points="262.5,-967 262.5,-986 375.5,-986 375.5,-967 262.5,-967"/>
<text text-anchor="middle" x="319" y="-974" font-family="Helvetica,sans-Serif" font-size="10.00">Drone::getStableState</text>
</a>
</g>
</g>
<!-- Node0&#45;&gt;Node5 -->
<g id="edge5" class="edge"><title>Node0&#45;&gt;Node5</title>
<path fill="none" stroke="midnightblue" d="M30.8952,-809.011C41.341,-817.716 57.8634,-830.434 74,-838.5 130.205,-866.596 161.657,-839.183 209,-880.5 237.463,-905.34 215.961,-933.335 245,-957.5 247.567,-959.636 250.347,-961.535 253.272,-963.223"/>
<polygon fill="midnightblue" stroke="midnightblue" points="251.891,-966.444 262.414,-967.68 254.959,-960.152 251.891,-966.444"/>
</g>
<!-- Node7 -->
<g id="node8" class="node"><title>Node7</title>
<g id="a_node8"><a xlink:href="../../d3/d1f/Quaternion_8hpp.html#ae2459ff799417f85f1cf2ba3275d564c" target="_top" xlink:title=" ">
<polygon fill="white" stroke="black" points="479.5,-1033 479.5,-1052 532.5,-1052 532.5,-1033 479.5,-1033"/>
<text text-anchor="middle" x="506" y="-1040" font-family="Helvetica,sans-Serif" font-size="10.00">eul2quat</text>
</a>
</g>
</g>
<!-- Node0&#45;&gt;Node7 -->
<g id="edge41" class="edge"><title>Node0&#45;&gt;Node7</title>
<path fill="none" stroke="midnightblue" d="M24.2937,-809.086C31.9278,-825.002 49.4042,-856.78 74,-873.5 125.261,-908.347 162.24,-867.813 209,-908.5 240.569,-935.969 212.426,-969.231 245,-995.5 278.923,-1022.86 405.72,-1035.5 468.838,-1040.19"/>
<polygon fill="midnightblue" stroke="midnightblue" points="468.898,-1043.71 479.123,-1040.93 469.399,-1036.73 468.898,-1043.71"/>
</g>
<!-- Node13 -->
<g id="node14" class="node"><title>Node13</title>
<g id="a_node14"><a xlink:href="../../d9/d1c/Matrix_8hpp.html#a7eea18ba1f057f95394a4f1911c05b03" target="_top" xlink:title=" ">
<polygon fill="white" stroke="black" points="124,-529 124,-548 159,-548 159,-529 124,-529"/>
<text text-anchor="middle" x="141.5" y="-536" font-family="Helvetica,sans-Serif" font-size="10.00">hcat</text>
</a>
</g>
</g>
<!-- Node0&#45;&gt;Node13 -->
<g id="edge13" class="edge"><title>Node0&#45;&gt;Node13</title>
<path fill="none" stroke="midnightblue" d="M20.8443,-789.942C24.6096,-749.427 41.146,-592.343 74,-557.5 84.1396,-546.746 99.9032,-541.941 113.538,-539.851"/>
<polygon fill="midnightblue" stroke="midnightblue" points="114.32,-543.285 123.868,-538.694 113.541,-536.329 114.32,-543.285"/>
</g>
<!-- Node14 -->
<g id="node15" class="node"><title>Node14</title>
<g id="a_node15"><a xlink:href="../../d3/d6d/classContinuousModel.html#a130af39e9e8b3e4f94c493f5e0326a1a" target="_top" xlink:title="Simulate the continuous model starting from the given initial state, evaluating the given input funct...">
<polygon fill="white" stroke="black" points="74,-491 74,-510 209,-510 209,-491 74,-491"/>
<text text-anchor="middle" x="141.5" y="-498" font-family="Helvetica,sans-Serif" font-size="10.00">ContinuousModel::simulate</text>
</a>
</g>
</g>
<!-- Node0&#45;&gt;Node14 -->
<g id="edge14" class="edge"><title>Node0&#45;&gt;Node14</title>
<path fill="none" stroke="midnightblue" d="M20.529,-789.984C23.176,-745.741 36.3834,-560.573 74,-519.5 75.1987,-518.191 76.4807,-516.97 77.8323,-515.831"/>
<polygon fill="midnightblue" stroke="midnightblue" points="79.9041,-518.656 86.2405,-510.164 75.9919,-512.851 79.9041,-518.656"/>
</g>
<!-- Node15 -->
<g id="node16" class="node"><title>Node15</title>
<g id="a_node16"><a xlink:href="../../d9/deb/structODEResultCode.html#a87520bd22b907969e33ad2f61dddd90e" target="_top" xlink:title=" ">
<polygon fill="white" stroke="black" points="253.5,-929 253.5,-948 384.5,-948 384.5,-929 253.5,-929"/>
<text text-anchor="middle" x="319" y="-936" font-family="Helvetica,sans-Serif" font-size="10.00">ODEResultCode::verbose</text>
</a>
</g>
</g>
<!-- Node0&#45;&gt;Node15 -->
<g id="edge15" class="edge"><title>Node0&#45;&gt;Node15</title>
<path fill="none" stroke="midnightblue" d="M38.149,-801.585C80.1629,-806.727 182.542,-821.166 209,-842.5 238.409,-866.213 215.961,-895.335 245,-919.5 247.026,-921.186 249.184,-922.724 251.442,-924.127"/>
<polygon fill="midnightblue" stroke="midnightblue" points="250.088,-927.369 260.572,-928.899 253.33,-921.165 250.088,-927.369"/>
</g>
<!-- Node16 -->
<g id="node17" class="node"><title>Node16</title>
<g id="a_node17"><a xlink:href="../../dd/d37/classPerfTimer.html#a4d76e90eda37bbfeb0cb1b79292d9640" target="_top" xlink:title=" ">
<polygon fill="white" stroke="black" points="83.5,-453 83.5,-472 199.5,-472 199.5,-453 83.5,-453"/>
<text text-anchor="middle" x="141.5" y="-460" font-family="Helvetica,sans-Serif" font-size="10.00">PerfTimer::getDuration</text>
</a>
</g>
</g>
<!-- Node0&#45;&gt;Node16 -->
<g id="edge16" class="edge"><title>Node0&#45;&gt;Node16</title>
<path fill="none" stroke="midnightblue" d="M20.3005,-789.687C21.9775,-741.322 31.6915,-528.743 74,-481.5 75.184,-480.178 76.453,-478.945 77.7932,-477.796"/>
<polygon fill="midnightblue" stroke="midnightblue" points="79.87,-480.616 86.1518,-472.084 75.9207,-474.836 79.87,-480.616"/>
</g>
<!-- Node17 -->
<g id="node18" class="node"><title>Node17</title>
<g id="a_node18"><a xlink:href="../../dc/df3/Plot_8hpp.html#ad7dc978bfe6403a5829262fa0da2f03f" target="_top" xlink:title="This function plots the reference, control signal, and states of the drone.">
<polygon fill="white" stroke="black" points="125.5,-567 125.5,-586 157.5,-586 157.5,-567 125.5,-567"/>
<text text-anchor="middle" x="141.5" y="-574" font-family="Helvetica,sans-Serif" font-size="10.00">plot</text>
</a>
</g>
</g>
<!-- Node0&#45;&gt;Node17 -->
<g id="edge17" class="edge"><title>Node0&#45;&gt;Node17</title>
<path fill="none" stroke="midnightblue" d="M19.4678,-789.806C18.2462,-757.403 18.8488,-651.739 74,-595.5 84.7859,-584.501 101.463,-579.755 115.418,-577.756"/>
<polygon fill="midnightblue" stroke="midnightblue" points="115.836,-581.232 125.415,-576.705 115.104,-574.27 115.836,-581.232"/>
</g>
<!-- Node36 -->
<g id="node37" class="node"><title>Node36</title>
<g id="a_node37"><a xlink:href="../../dc/df3/Plot_8hpp.html#ade0939c53fb87286f36d8f297c705a60" target="_top" xlink:title="Save the given Matplotlib figure.">
<polygon fill="white" stroke="black" points="300,-1046 300,-1065 338,-1065 338,-1046 300,-1046"/>
<text text-anchor="middle" x="319" y="-1053" font-family="Helvetica,sans-Serif" font-size="10.00">save</text>
</a>
</g>
</g>
<!-- Node0&#45;&gt;Node36 -->
<g id="edge37" class="edge"><title>Node0&#45;&gt;Node36</title>
<path fill="none" stroke="midnightblue" d="M22.0974,-809.233C27.1723,-830.442 42.118,-881.119 74,-908.5 121.771,-949.527 161.696,-909.935 209,-951.5 237.379,-976.436 217.201,-1002.92 245,-1028.5 257.322,-1039.84 274.82,-1046.53 289.596,-1050.41"/>
<polygon fill="midnightblue" stroke="midnightblue" points="289.229,-1053.92 299.761,-1052.77 290.811,-1047.1 289.229,-1053.92"/>
</g>
<!-- Node37 -->
<g id="node38" class="node"><title>Node37</title>
<g id="a_node38"><a xlink:href="../../dc/df3/Plot_8hpp.html#a248c9fb00010c1616f7cd9df29ce9577" target="_top" xlink:title="Show the given Matplotlib figure.">
<polygon fill="white" stroke="black" points="121.5,-605 121.5,-624 161.5,-624 161.5,-605 121.5,-605"/>
<text text-anchor="middle" x="141.5" y="-612" font-family="Helvetica,sans-Serif" font-size="10.00">show</text>
</a>
</g>
</g>
<!-- Node0&#45;&gt;Node37 -->
<g id="edge39" class="edge"><title>Node0&#45;&gt;Node37</title>
<path fill="none" stroke="midnightblue" d="M20.4368,-789.668C22.1927,-761.989 30.9286,-682.562 74,-638.5 83.9519,-628.319 98.5376,-622.437 111.515,-619.048"/>
<polygon fill="midnightblue" stroke="midnightblue" points="112.46,-622.423 121.458,-616.831 110.936,-615.591 112.46,-622.423"/>
</g>
<!-- Node38 -->
<g id="node39" class="node"><title>Node38</title>
<g id="a_node39"><a xlink:href="../../d3/d1f/Quaternion_8hpp.html#aeca6697e563942825186225faa6e1762" target="_top" xlink:title=" ">
<polygon fill="white" stroke="black" points="101.5,-415 101.5,-434 181.5,-434 181.5,-415 101.5,-415"/>
<text text-anchor="middle" x="141.5" y="-422" font-family="Helvetica,sans-Serif" font-size="10.00">asEulerAngles</text>
</a>
</g>
</g>
<!-- Node0&#45;&gt;Node38 -->
<g id="edge42" class="edge"><title>Node0&#45;&gt;Node38</title>
<path fill="none" stroke="midnightblue" d="M20.1024,-789.915C20.8432,-738.644 26.825,-497.123 74,-443.5 78.6892,-438.17 84.7596,-434.288 91.323,-431.471"/>
<polygon fill="midnightblue" stroke="midnightblue" points="92.8819,-434.635 101.189,-428.059 90.5938,-428.019 92.8819,-434.635"/>
</g>
<!-- Node39 -->
<g id="node40" class="node"><title>Node39</title>
<g id="a_node40"><a xlink:href="../../dc/df3/Plot_8hpp.html#ab70c85dfc0960e0e62d64150163853ad" target="_top" xlink:title="Create a new figure and axes.">
<polygon fill="white" stroke="black" points="487,-578 487,-597 525,-597 525,-578 487,-578"/>
<text text-anchor="middle" x="506" y="-585" font-family="Helvetica,sans-Serif" font-size="10.00">axes</text>
</a>
</g>
</g>
<!-- Node0&#45;&gt;Node39 -->
<g id="edge43" class="edge"><title>Node0&#45;&gt;Node39</title>
<path fill="none" stroke="midnightblue" d="M33.5463,-789.77C66.3211,-765.797 151.434,-700.921 209,-633.5 228.456,-610.713 218.759,-590.963 245,-576.5 320.33,-534.981 427.414,-561.3 477.36,-577.519"/>
<polygon fill="midnightblue" stroke="midnightblue" points="476.246,-580.837 486.84,-580.702 478.474,-574.201 476.246,-580.837"/>
</g>
<!-- Node40 -->
<g id="node41" class="node"><title>Node40</title>
<g id="a_node41"><a xlink:href="../../d9/d20/PlotStepResponse_8hpp.html#a46bcf50982b73494e3df49b461b4f2ff" target="_top" xlink:title=" ">
<polygon fill="white" stroke="black" points="76,-771 76,-790 207,-790 207,-771 76,-771"/>
<text text-anchor="middle" x="141.5" y="-778" font-family="Helvetica,sans-Serif" font-size="10.00">plotStepResponseAttitude</text>
</a>
</g>
</g>
<!-- Node0&#45;&gt;Node40 -->
<g id="edge45" class="edge"><title>Node0&#45;&gt;Node40</title>
<path fill="none" stroke="midnightblue" d="M38.0401,-796.656C46.9138,-795.256 58.2424,-793.47 70.1115,-791.599"/>
<polygon fill="midnightblue" stroke="midnightblue" points="70.8338,-795.028 80.1666,-790.013 69.7434,-788.113 70.8338,-795.028"/>
</g>
<!-- Node6 -->
<g id="node7" class="node"><title>Node6</title>
<g id="a_node7"><a xlink:href="../../d4/d87/classDroneState.html#aba1f0c3c50d063e84d74c629ebe4d15c" target="_top" xlink:title=" ">
<polygon fill="white" stroke="black" points="439.5,-945 439.5,-964 572.5,-964 572.5,-945 439.5,-945"/>
<text text-anchor="middle" x="506" y="-952" font-family="Helvetica,sans-Serif" font-size="10.00">DroneState::setOrientation</text>
</a>
</g>
</g>
<!-- Node5&#45;&gt;Node6 -->
<g id="edge6" class="edge"><title>Node5&#45;&gt;Node6</title>
<path fill="none" stroke="midnightblue" d="M375.506,-969.899C392.4,-967.89 411.265,-965.647 429.255,-963.507"/>
<polygon fill="midnightblue" stroke="midnightblue" points="429.915,-966.954 439.432,-962.297 429.089,-960.003 429.915,-966.954"/>
</g>
<!-- Node5&#45;&gt;Node7 -->
<g id="edge7" class="edge"><title>Node5&#45;&gt;Node7</title>
<path fill="none" stroke="midnightblue" d="M354.859,-986.003C367.172,-989.867 380.947,-994.78 393,-1000.5 410.153,-1008.64 411.562,-1015.99 429,-1023.5 441.714,-1028.98 456.333,-1033.1 469.332,-1036.09"/>
<polygon fill="midnightblue" stroke="midnightblue" points="468.83,-1039.56 479.342,-1038.24 470.301,-1032.71 468.83,-1039.56"/>
</g>
<!-- Node8 -->
<g id="node9" class="node"><title>Node8</title>
<g id="a_node9"><a xlink:href="../../d4/d87/classDroneState.html#a1caf3e2177c8302b814e66905d05bade" target="_top" xlink:title=" ">
<polygon fill="white" stroke="black" points="429,-907 429,-926 583,-926 583,-907 429,-907"/>
<text text-anchor="middle" x="506" y="-914" font-family="Helvetica,sans-Serif" font-size="10.00">DroneState::setAngularVelocity</text>
</a>
</g>
</g>
<!-- Node5&#45;&gt;Node8 -->
<g id="edge8" class="edge"><title>Node5&#45;&gt;Node8</title>
<path fill="none" stroke="midnightblue" d="M365.088,-966.982C374.484,-964.387 384.201,-961.237 393,-957.5 410.259,-950.171 411.706,-942.746 429,-935.5 434.845,-933.051 441.079,-930.864 447.369,-928.925"/>
<polygon fill="midnightblue" stroke="midnightblue" points="448.608,-932.211 457.248,-926.08 446.67,-925.484 448.608,-932.211"/>
</g>
<!-- Node9 -->
<g id="node10" class="node"><title>Node9</title>
<g id="a_node10"><a xlink:href="../../d4/d87/classDroneState.html#afb04988d1275fd4b8b94c71df83b869f" target="_top" xlink:title=" ">
<polygon fill="white" stroke="black" points="437,-869 437,-888 575,-888 575,-869 437,-869"/>
<text text-anchor="middle" x="506" y="-876" font-family="Helvetica,sans-Serif" font-size="10.00">DroneState::setMotorSpeed</text>
</a>
</g>
</g>
<!-- Node5&#45;&gt;Node9 -->
<g id="edge9" class="edge"><title>Node5&#45;&gt;Node9</title>
<path fill="none" stroke="midnightblue" d="M375.55,-967.013C381.778,-964.539 387.758,-961.424 393,-957.5 417.897,-938.866 404.013,-916.014 429,-897.5 431.541,-895.617 434.247,-893.92 437.067,-892.39"/>
<polygon fill="midnightblue" stroke="midnightblue" points="438.81,-895.44 446.402,-888.05 435.858,-889.092 438.81,-895.44"/>
</g>
<!-- Node10 -->
<g id="node11" class="node"><title>Node10</title>
<g id="a_node11"><a xlink:href="../../d4/d87/classDroneState.html#a1c4108e7db832e5387ef10d01bb4ebb9" target="_top" xlink:title=" ">
<polygon fill="white" stroke="black" points="445.5,-831 445.5,-850 566.5,-850 566.5,-831 445.5,-831"/>
<text text-anchor="middle" x="506" y="-838" font-family="Helvetica,sans-Serif" font-size="10.00">DroneState::setVelocity</text>
</a>
</g>
</g>
<!-- Node5&#45;&gt;Node10 -->
<g id="edge10" class="edge"><title>Node5&#45;&gt;Node10</title>
<path fill="none" stroke="midnightblue" d="M375.579,-968.249C381.949,-965.576 387.956,-962.075 393,-957.5 427.369,-926.326 394.481,-890.508 429,-859.5 431.229,-857.498 433.637,-855.699 436.178,-854.084"/>
<polygon fill="midnightblue" stroke="midnightblue" points="438.058,-857.049 445.253,-849.272 434.779,-850.865 438.058,-857.049"/>
</g>
<!-- Node11 -->
<g id="node12" class="node"><title>Node11</title>
<g id="a_node12"><a xlink:href="../../d4/d87/classDroneState.html#a04e7f9f677a63ac80f33c26779b0a2ab" target="_top" xlink:title=" ">
<polygon fill="white" stroke="black" points="445.5,-793 445.5,-812 566.5,-812 566.5,-793 445.5,-793"/>
<text text-anchor="middle" x="506" y="-800" font-family="Helvetica,sans-Serif" font-size="10.00">DroneState::setPosition</text>
</a>
</g>
</g>
<!-- Node5&#45;&gt;Node11 -->
<g id="edge11" class="edge"><title>Node5&#45;&gt;Node11</title>
<path fill="none" stroke="midnightblue" d="M375.631,-968.845C382.071,-966.082 388.082,-962.398 393,-957.5 437.304,-913.379 384.483,-865.407 429,-821.5 431.251,-819.28 433.721,-817.306 436.35,-815.552"/>
<polygon fill="midnightblue" stroke="midnightblue" points="438.148,-818.557 445.219,-810.668 434.771,-812.426 438.148,-818.557"/>
</g>
<!-- Node12 -->
<g id="node13" class="node"><title>Node12</title>
<g id="a_node13"><a xlink:href="../../d4/d87/classDroneState.html#a5cddad5a54cf78f6406299ecb5316960" target="_top" xlink:title=" ">
<polygon fill="white" stroke="black" points="437,-983.5 437,-1013.5 575,-1013.5 575,-983.5 437,-983.5"/>
<text text-anchor="start" x="445" y="-1001.5" font-family="Helvetica,sans-Serif" font-size="10.00">DroneState::setThrustMotor</text>
<text text-anchor="middle" x="506" y="-990.5" font-family="Helvetica,sans-Serif" font-size="10.00">Speed</text>
</a>
</g>
</g>
<!-- Node5&#45;&gt;Node12 -->
<g id="edge12" class="edge"><title>Node5&#45;&gt;Node12</title>
<path fill="none" stroke="midnightblue" d="M375.506,-983.101C391.61,-985.016 409.504,-987.144 426.725,-989.192"/>
<polygon fill="midnightblue" stroke="midnightblue" points="426.424,-992.68 436.768,-990.386 427.251,-985.729 426.424,-992.68"/>
</g>
<!-- Node18 -->
<g id="node19" class="node"><title>Node18</title>
<g id="a_node19"><a xlink:href="../../d8/d0a/PlotHelpers_8hpp.html#a4940a6a871930bb1178b4200169c8ca6" target="_top" xlink:title="Load the Plot.py Python script and its functions, and return it.">
<polygon fill="white" stroke="black" points="633.5,-540 633.5,-559 743.5,-559 743.5,-540 633.5,-540"/>
<text text-anchor="middle" x="688.5" y="-547" font-family="Helvetica,sans-Serif" font-size="10.00">getPythonPlotModule</text>
</a>
</g>
</g>
<!-- Node17&#45;&gt;Node18 -->
<g id="edge18" class="edge"><title>Node17&#45;&gt;Node18</title>
<path fill="none" stroke="midnightblue" d="M157.603,-576.004C172.466,-574.728 194.924,-570.574 209,-557.5 242.998,-525.921 206.951,-486.058 245,-459.5 306.592,-416.51 512.585,-433.357 583,-459.5 622.037,-473.993 656.263,-510.331 674.199,-532.144"/>
<polygon fill="midnightblue" stroke="midnightblue" points="671.478,-534.347 680.453,-539.978 676.949,-529.98 671.478,-534.347"/>
</g>
<!-- Node21 -->
<g id="node22" class="node"><title>Node21</title>
<g id="a_node22"><a xlink:href="../../d8/d0a/PlotHelpers_8hpp.html#a8b74d0bc930d1db920a69c7b606d32c0" target="_top" xlink:title="Convert a DronePlottable (a collection of an array of state vectors, an array of control signal vecto...">
<polygon fill="white" stroke="black" points="249.5,-224 249.5,-243 388.5,-243 388.5,-224 249.5,-224"/>
<text text-anchor="middle" x="319" y="-231" font-family="Helvetica,sans-Serif" font-size="10.00">dronePlottableToPythonDict</text>
</a>
</g>
</g>
<!-- Node17&#45;&gt;Node21 -->
<g id="edge21" class="edge"><title>Node17&#45;&gt;Node21</title>
<path fill="none" stroke="midnightblue" d="M157.585,-576.295C172.652,-575.259 195.465,-571.302 209,-557.5 252.779,-512.858 225.654,-480.958 245,-421.5 265.431,-358.709 295.377,-286.405 309.731,-252.68"/>
<polygon fill="midnightblue" stroke="midnightblue" points="313.094,-253.718 313.811,-243.147 306.658,-250.963 313.094,-253.718"/>
</g>
<!-- Node19 -->
<g id="node20" class="node"><title>Node19</title>
<g id="a_node20"><a xlink:href="../../d9/d25/PlotHelpers_8cpp.html#a1ebfb87d99c3c9e51bb57ef27bfe9af6" target="_top" xlink:title="Load the Plot.py Python script and its functions. The module will be available in Python as a global ...">
<polygon fill="white" stroke="black" points="794,-540 794,-559 908,-559 908,-540 794,-540"/>
<text text-anchor="middle" x="851" y="-547" font-family="Helvetica,sans-Serif" font-size="10.00">loadPythonPlotModule</text>
</a>
</g>
</g>
<!-- Node18&#45;&gt;Node19 -->
<g id="edge19" class="edge"><title>Node18&#45;&gt;Node19</title>
<path fill="none" stroke="midnightblue" d="M743.838,-549.5C756.665,-549.5 770.482,-549.5 783.769,-549.5"/>
<polygon fill="midnightblue" stroke="midnightblue" points="783.802,-553 793.801,-549.5 783.801,-546 783.802,-553"/>
</g>
<!-- Node20 -->
<g id="node21" class="node"><title>Node20</title>
<g id="a_node21"><a xlink:href="../../d9/d25/PlotHelpers_8cpp.html#aa54ca28747f2f5f749341e45c3fa35d5" target="_top" xlink:title="Load the Plot.py Python script and its functions.">
<polygon fill="white" stroke="black" points="944,-540 944,-559 1077,-559 1077,-540 944,-540"/>
<text text-anchor="middle" x="1010.5" y="-547" font-family="Helvetica,sans-Serif" font-size="10.00">getPythonPlotModuleInitial</text>
</a>
</g>
</g>
<!-- Node19&#45;&gt;Node20 -->
<g id="edge20" class="edge"><title>Node19&#45;&gt;Node20</title>
<path fill="none" stroke="midnightblue" d="M908.416,-549.5C916.574,-549.5 925.081,-549.5 933.544,-549.5"/>
<polygon fill="midnightblue" stroke="midnightblue" points="933.82,-553 943.82,-549.5 933.82,-546 933.82,-553"/>
</g>
<!-- Node22 -->
<g id="node23" class="node"><title>Node22</title>
<g id="a_node23"><a xlink:href="../../dd/d92/structDrone.html#a323577b31d2f3dee522ff02cf19671dc" target="_top" xlink:title="Extract a specific element from the given vector of signals (states, inputs or outputs).">
<polygon fill="white" stroke="black" points="453,-502 453,-521 559,-521 559,-502 453,-502"/>
<text text-anchor="middle" x="506" y="-509" font-family="Helvetica,sans-Serif" font-size="10.00">Drone::extractSignal</text>
</a>
</g>
</g>
<!-- Node21&#45;&gt;Node22 -->
<g id="edge22" class="edge"><title>Node21&#45;&gt;Node22</title>
<path fill="none" stroke="midnightblue" d="M325.222,-243.316C340.186,-271.201 384.98,-352.974 429,-416.5 448.613,-444.803 474.068,-475.586 489.97,-494.211"/>
<polygon fill="midnightblue" stroke="midnightblue" points="487.375,-496.561 496.549,-501.861 492.682,-491.997 487.375,-496.561"/>
</g>
<!-- Node23 -->
<g id="node24" class="node"><title>Node23</title>
<g id="a_node24"><a xlink:href="../../d4/d3b/classDroneOutput.html#a98e867c51393f520983ee2b767ad9ae4" target="_top" xlink:title=" ">
<polygon fill="white" stroke="black" points="436.5,-0.5 436.5,-30.5 575.5,-30.5 575.5,-0.5 436.5,-0.5"/>
<text text-anchor="start" x="444.5" y="-18.5" font-family="Helvetica,sans-Serif" font-size="10.00">DroneOutput::getOrientation</text>
<text text-anchor="middle" x="506" y="-7.5" font-family="Helvetica,sans-Serif" font-size="10.00">Euler</text>
</a>
</g>
</g>
<!-- Node21&#45;&gt;Node23 -->
<g id="edge23" class="edge"><title>Node21&#45;&gt;Node23</title>
<path fill="none" stroke="midnightblue" d="M322.699,-223.839C331.944,-192.509 365.343,-92.7436 429,-40.5 431.067,-38.8037 433.253,-37.2212 435.528,-35.7449"/>
<polygon fill="midnightblue" stroke="midnightblue" points="437.705,-38.534 444.683,-30.5614 434.257,-32.4425 437.705,-38.534"/>
</g>
<!-- Node26 -->
<g id="node27" class="node"><title>Node26</title>
<g id="a_node27"><a xlink:href="../../d4/d3b/classDroneOutput.html#ade67f4d874b10bfe96d588abac8bbc67" target="_top" xlink:title=" ">
<polygon fill="white" stroke="black" points="442.5,-88 442.5,-107 569.5,-107 569.5,-88 442.5,-88"/>
<text text-anchor="middle" x="506" y="-95" font-family="Helvetica,sans-Serif" font-size="10.00">DroneOutput::getPosition</text>
</a>
</g>
</g>
<!-- Node21&#45;&gt;Node26 -->
<g id="edge26" class="edge"><title>Node21&#45;&gt;Node26</title>
<path fill="none" stroke="midnightblue" d="M326.056,-223.881C340.757,-201.365 380.697,-144.989 429,-116.5 432.69,-114.324 436.623,-112.395 440.683,-110.686"/>
<polygon fill="midnightblue" stroke="midnightblue" points="442.186,-113.861 450.331,-107.086 439.739,-107.303 442.186,-113.861"/>
</g>
<!-- Node27 -->
<g id="node28" class="node"><title>Node27</title>
<g id="a_node28"><a xlink:href="../../d4/d87/classDroneState.html#a1ef1baa3ca8d5a4f53a7f4c51ff012e0" target="_top" xlink:title=" ">
<polygon fill="white" stroke="black" points="439.5,-338.5 439.5,-368.5 572.5,-368.5 572.5,-338.5 439.5,-338.5"/>
<text text-anchor="start" x="447.5" y="-356.5" font-family="Helvetica,sans-Serif" font-size="10.00">DroneState::getOrientation</text>
<text text-anchor="middle" x="506" y="-345.5" font-family="Helvetica,sans-Serif" font-size="10.00">Euler</text>
</a>
</g>
</g>
<!-- Node21&#45;&gt;Node27 -->
<g id="edge27" class="edge"><title>Node21&#45;&gt;Node27</title>
<path fill="none" stroke="midnightblue" d="M328.636,-243.28C345.902,-262.277 386.674,-304.415 429,-328.5 432.839,-330.684 436.896,-332.712 441.059,-334.587"/>
<polygon fill="midnightblue" stroke="midnightblue" points="439.72,-337.821 450.296,-338.454 442.423,-331.364 439.72,-337.821"/>
</g>
<!-- Node29 -->
<g id="node30" class="node"><title>Node29</title>
<g id="a_node30"><a xlink:href="../../d4/d87/classDroneState.html#a3b87f039f8fe4ed6fd8d0ecb9b367b0b" target="_top" xlink:title=" ">
<polygon fill="white" stroke="black" points="445.5,-50 445.5,-69 566.5,-69 566.5,-50 445.5,-50"/>
<text text-anchor="middle" x="506" y="-57" font-family="Helvetica,sans-Serif" font-size="10.00">DroneState::getPosition</text>
</a>
</g>
</g>
<!-- Node21&#45;&gt;Node29 -->
<g id="edge30" class="edge"><title>Node21&#45;&gt;Node29</title>
<path fill="none" stroke="midnightblue" d="M323.941,-223.679C335.533,-196.096 372.31,-117.404 429,-78.5 431.891,-76.516 434.971,-74.7389 438.171,-73.1471"/>
<polygon fill="midnightblue" stroke="midnightblue" points="439.666,-76.3141 447.457,-69.1341 436.889,-69.8885 439.666,-76.3141"/>
</g>
<!-- Node30 -->
<g id="node31" class="node"><title>Node30</title>
<g id="a_node31"><a xlink:href="../../d4/d87/classDroneState.html#acac4aa244f4e04f90b607c6054798437" target="_top" xlink:title=" ">
<polygon fill="white" stroke="black" points="429,-388 429,-407 583,-407 583,-388 429,-388"/>
<text text-anchor="middle" x="506" y="-395" font-family="Helvetica,sans-Serif" font-size="10.00">DroneState::getAngularVelocity</text>
</a>
</g>
</g>
<!-- Node21&#45;&gt;Node30 -->
<g id="edge31" class="edge"><title>Node21&#45;&gt;Node30</title>
<path fill="none" stroke="midnightblue" d="M324.524,-243.338C337.089,-269.524 375.072,-341.385 429,-377.5 432.736,-380.002 436.769,-382.191 440.961,-384.106"/>
<polygon fill="midnightblue" stroke="midnightblue" points="439.755,-387.394 450.339,-387.878 442.367,-380.899 439.755,-387.394"/>
</g>
<!-- Node31 -->
<g id="node32" class="node"><title>Node31</title>
<g id="a_node32"><a xlink:href="../../d4/d87/classDroneState.html#afebf0ea2961e2f820e77575ce5694baf" target="_top" xlink:title=" ">
<polygon fill="white" stroke="black" points="445.5,-164 445.5,-183 566.5,-183 566.5,-164 445.5,-164"/>
<text text-anchor="middle" x="506" y="-171" font-family="Helvetica,sans-Serif" font-size="10.00">DroneState::getVelocity</text>
</a>
</g>
</g>
<!-- Node21&#45;&gt;Node31 -->
<g id="edge32" class="edge"><title>Node21&#45;&gt;Node31</title>
<path fill="none" stroke="midnightblue" d="M343.12,-223.919C365.001,-215.063 398.891,-201.892 429,-192.5 436.754,-190.081 445.025,-187.757 453.152,-185.615"/>
<polygon fill="midnightblue" stroke="midnightblue" points="454.133,-188.977 462.948,-183.098 452.391,-182.197 454.133,-188.977"/>
</g>
<!-- Node32 -->
<g id="node33" class="node"><title>Node32</title>
<g id="a_node33"><a xlink:href="../../d4/d87/classDroneState.html#ab33a98c0395849a9b204ffbd3eaea642" target="_top" xlink:title=" ">
<polygon fill="white" stroke="black" points="437,-126 437,-145 575,-145 575,-126 437,-126"/>
<text text-anchor="middle" x="506" y="-133" font-family="Helvetica,sans-Serif" font-size="10.00">DroneState::getMotorSpeed</text>
</a>
</g>
</g>
<!-- Node21&#45;&gt;Node32 -->
<g id="edge33" class="edge"><title>Node21&#45;&gt;Node32</title>
<path fill="none" stroke="midnightblue" d="M330.263,-223.933C348.631,-207.326 388.962,-173.157 429,-154.5 434.212,-152.071 439.776,-149.926 445.433,-148.038"/>
<polygon fill="midnightblue" stroke="midnightblue" points="446.466,-151.382 454.995,-145.097 444.408,-144.691 446.466,-151.382"/>
</g>
<!-- Node33 -->
<g id="node34" class="node"><title>Node33</title>
<g id="a_node34"><a xlink:href="../../d4/d87/classDroneState.html#ac99e92e00ecbb4471e5f196d08d2b7d1" target="_top" xlink:title=" ">
<polygon fill="white" stroke="black" points="437,-289.5 437,-319.5 575,-319.5 575,-289.5 437,-289.5"/>
<text text-anchor="start" x="445" y="-307.5" font-family="Helvetica,sans-Serif" font-size="10.00">DroneState::getThrustMotor</text>
<text text-anchor="middle" x="506" y="-296.5" font-family="Helvetica,sans-Serif" font-size="10.00">Speed</text>
</a>
</g>
</g>
<!-- Node21&#45;&gt;Node33 -->
<g id="edge34" class="edge"><title>Node21&#45;&gt;Node33</title>
<path fill="none" stroke="midnightblue" d="M341.098,-243.008C362.906,-252.693 398.034,-267.895 429,-279.5 434.975,-281.739 441.253,-283.98 447.532,-286.149"/>
<polygon fill="midnightblue" stroke="midnightblue" points="446.764,-289.585 457.358,-289.489 449.017,-282.957 446.764,-289.585"/>
</g>
<!-- Node34 -->
<g id="node35" class="node"><title>Node34</title>
<g id="a_node35"><a xlink:href="../../dc/de0/classDroneControl.html#a745e17c1be958946be4c2cfb7da4b18c" target="_top" xlink:title=" ">
<polygon fill="white" stroke="black" points="442,-240.5 442,-270.5 570,-270.5 570,-240.5 442,-240.5"/>
<text text-anchor="start" x="450" y="-258.5" font-family="Helvetica,sans-Serif" font-size="10.00">DroneControl::getAttitude</text>
<text text-anchor="middle" x="506" y="-247.5" font-family="Helvetica,sans-Serif" font-size="10.00">Control</text>
</a>
</g>
</g>
<!-- Node21&#45;&gt;Node34 -->
<g id="edge35" class="edge"><title>Node21&#45;&gt;Node34</title>
<path fill="none" stroke="midnightblue" d="M388.624,-241.661C402.691,-243.334 417.549,-245.1 431.77,-246.792"/>
<polygon fill="midnightblue" stroke="midnightblue" points="431.65,-250.302 441.993,-248.007 432.477,-243.351 431.65,-250.302"/>
</g>
<!-- Node35 -->
<g id="node36" class="node"><title>Node35</title>
<g id="a_node36"><a xlink:href="../../dc/de0/classDroneControl.html#a4b1d530c1f503b797a447a0af0560202" target="_top" xlink:title=" ">
<polygon fill="white" stroke="black" points="429.5,-202 429.5,-221 582.5,-221 582.5,-202 429.5,-202"/>
<text text-anchor="middle" x="506" y="-209" font-family="Helvetica,sans-Serif" font-size="10.00">DroneControl::getThrustControl</text>
</a>
</g>
</g>
<!-- Node21&#45;&gt;Node35 -->
<g id="edge36" class="edge"><title>Node21&#45;&gt;Node35</title>
<path fill="none" stroke="midnightblue" d="M388.624,-225.339C398.573,-224.156 408.917,-222.926 419.153,-221.709"/>
<polygon fill="midnightblue" stroke="midnightblue" points="419.816,-225.155 429.333,-220.498 418.989,-218.204 419.816,-225.155"/>
</g>
<!-- Node24 -->
<g id="node25" class="node"><title>Node24</title>
<g id="a_node25"><a xlink:href="../../d3/d1f/Quaternion_8hpp.html#a3d2b851780df38875830aadd1b5263ed" target="_top" xlink:title=" ">
<polygon fill="white" stroke="black" points="662,-175 662,-194 715,-194 715,-175 662,-175"/>
<text text-anchor="middle" x="688.5" y="-182" font-family="Helvetica,sans-Serif" font-size="10.00">quat2eul</text>
</a>
</g>
</g>
<!-- Node23&#45;&gt;Node24 -->
<g id="edge24" class="edge"><title>Node23&#45;&gt;Node24</title>
<path fill="none" stroke="midnightblue" d="M565.711,-30.5865C571.828,-33.3738 577.727,-36.6517 583,-40.5 629.404,-74.3637 663.537,-135.023 678.737,-165.673"/>
<polygon fill="midnightblue" stroke="midnightblue" points="675.66,-167.349 683.157,-174.835 681.965,-164.308 675.66,-167.349"/>
</g>
<!-- Node25 -->
<g id="node26" class="node"><title>Node25</title>
<g id="a_node26"><a xlink:href="../../d4/d3b/classDroneOutput.html#a67d5d4a3491294f6fa7ed71af2b68e27" target="_top" xlink:title=" ">
<polygon fill="white" stroke="black" points="619,-6 619,-25 758,-25 758,-6 619,-6"/>
<text text-anchor="middle" x="688.5" y="-13" font-family="Helvetica,sans-Serif" font-size="10.00">DroneOutput::getOrientation</text>
</a>
</g>
</g>
<!-- Node23&#45;&gt;Node25 -->
<g id="edge25" class="edge"><title>Node23&#45;&gt;Node25</title>
<path fill="none" stroke="midnightblue" d="M575.754,-15.5C586.586,-15.5 597.856,-15.5 608.889,-15.5"/>
<polygon fill="midnightblue" stroke="midnightblue" points="608.937,-19.0001 618.937,-15.5 608.937,-12.0001 608.937,-19.0001"/>
</g>
<!-- Node27&#45;&gt;Node24 -->
<g id="edge28" class="edge"><title>Node27&#45;&gt;Node24</title>
<path fill="none" stroke="midnightblue" d="M565.711,-338.413C571.828,-335.626 577.727,-332.348 583,-328.5 629.404,-294.636 663.537,-233.977 678.737,-203.327"/>
<polygon fill="midnightblue" stroke="midnightblue" points="681.965,-204.692 683.157,-194.165 675.66,-201.651 681.965,-204.692"/>
</g>
<!-- Node28 -->
<g id="node29" class="node"><title>Node28</title>
<g id="a_node29"><a xlink:href="../../d4/d87/classDroneState.html#a2519f1ea447bb9d9cdc95cf08475b0d1" target="_top" xlink:title=" ">
<polygon fill="white" stroke="black" points="622,-344 622,-363 755,-363 755,-344 622,-344"/>
<text text-anchor="middle" x="688.5" y="-351" font-family="Helvetica,sans-Serif" font-size="10.00">DroneState::getOrientation</text>
</a>
</g>
</g>
<!-- Node27&#45;&gt;Node28 -->
<g id="edge29" class="edge"><title>Node27&#45;&gt;Node28</title>
<path fill="none" stroke="midnightblue" d="M572.675,-353.5C585.322,-353.5 598.665,-353.5 611.604,-353.5"/>
<polygon fill="midnightblue" stroke="midnightblue" points="611.874,-357 621.874,-353.5 611.874,-350 611.874,-357"/>
</g>
<!-- Node36&#45;&gt;Node18 -->
<g id="edge38" class="edge"><title>Node36&#45;&gt;Node18</title>
<path fill="none" stroke="midnightblue" d="M338.178,-1063.04C384.845,-1081.05 510.301,-1120.86 583,-1061.5 661.437,-997.455 682.541,-655.768 686.658,-569.363"/>
<polygon fill="midnightblue" stroke="midnightblue" points="690.165,-569.266 687.121,-559.118 683.173,-568.949 690.165,-569.266"/>
</g>
<!-- Node37&#45;&gt;Node18 -->
<g id="edge40" class="edge"><title>Node37&#45;&gt;Node18</title>
<path fill="none" stroke="midnightblue" d="M161.721,-613.655C176.414,-612.02 196.25,-607.532 209,-595.5 244.269,-562.218 205.456,-520.569 245,-492.5 306.25,-449.024 510.218,-473.941 583,-492.5 614.258,-500.471 646.249,-519.913 666.458,-533.874"/>
<polygon fill="midnightblue" stroke="midnightblue" points="664.688,-536.91 674.869,-539.842 668.738,-531.201 664.688,-536.91"/>
</g>
<!-- Node39&#45;&gt;Node18 -->
<g id="edge44" class="edge"><title>Node39&#45;&gt;Node18</title>
<path fill="none" stroke="midnightblue" d="M525.301,-583.647C550.123,-578.421 595.553,-568.857 632.032,-561.178"/>
<polygon fill="midnightblue" stroke="midnightblue" points="632.994,-564.552 642.059,-559.067 631.552,-557.702 632.994,-564.552"/>
</g>
<!-- Node40&#45;&gt;Node5 -->
<g id="edge49" class="edge"><title>Node40&#45;&gt;Node5</title>
<path fill="none" stroke="midnightblue" d="M156.474,-790.078C171.509,-801.075 195.124,-820.46 209,-842.5 237.534,-887.822 206.218,-920.564 245,-957.5 247.466,-959.848 250.183,-961.915 253.077,-963.735"/>
<polygon fill="midnightblue" stroke="midnightblue" points="251.719,-966.974 262.206,-968.48 254.948,-960.763 251.719,-966.974"/>
</g>
<!-- Node40&#45;&gt;Node15 -->
<g id="edge52" class="edge"><title>Node40&#45;&gt;Node15</title>
<path fill="none" stroke="midnightblue" d="M187.047,-790.126C195.172,-793.558 202.972,-798.207 209,-804.5 246.048,-843.175 206.218,-882.564 245,-919.5 246.657,-921.078 248.427,-922.529 250.288,-923.863"/>
<polygon fill="midnightblue" stroke="midnightblue" points="248.567,-926.911 258.956,-928.994 252.133,-920.888 248.567,-926.911"/>
</g>
<!-- Node40&#45;&gt;Node39 -->
<g id="edge59" class="edge"><title>Node40&#45;&gt;Node39</title>
<path fill="none" stroke="midnightblue" d="M148.112,-770.573C167.278,-736.826 229.798,-628.087 245,-618.5 318.077,-572.412 425.95,-577.67 476.678,-583.437"/>
<polygon fill="midnightblue" stroke="midnightblue" points="476.532,-586.945 486.885,-584.694 477.388,-579.998 476.532,-586.945"/>
</g>
<!-- Node41 -->
<g id="node42" class="node"><title>Node41</title>
<g id="a_node42"><a xlink:href="../../dd/d92/structDrone.html#a7f45f680753f6f2464ff9b8e8d25a4b1" target="_top" xlink:title="Get the attitude controller given the proportional LQR matrix.">
<polygon fill="white" stroke="black" points="250,-853 250,-872 388,-872 388,-853 250,-853"/>
<text text-anchor="middle" x="319" y="-860" font-family="Helvetica,sans-Serif" font-size="10.00">Drone::getAttitudeController</text>
</a>
</g>
</g>
<!-- Node40&#45;&gt;Node41 -->
<g id="edge46" class="edge"><title>Node40&#45;&gt;Node41</title>
<path fill="none" stroke="midnightblue" d="M178.856,-790.104C189.087,-793.719 199.898,-798.46 209,-804.5 228.655,-817.543 224.767,-831.372 245,-843.5 248.665,-845.697 252.581,-847.642 256.625,-849.364"/>
<polygon fill="midnightblue" stroke="midnightblue" points="255.643,-852.735 266.235,-852.992 258.116,-846.186 255.643,-852.735"/>
</g>
<!-- Node42 -->
<g id="node43" class="node"><title>Node42</title>
<g id="a_node43"><a xlink:href="../../dd/d92/structDrone.html#a0793be0eb1557a519f478511ef9affa6" target="_top" xlink:title="Get the continuous model of the attitude of this drone.">
<polygon fill="white" stroke="black" points="258,-815 258,-834 380,-834 380,-815 258,-815"/>
<text text-anchor="middle" x="319" y="-822" font-family="Helvetica,sans-Serif" font-size="10.00">Drone::getAttitudeModel</text>
</a>
</g>
</g>
<!-- Node40&#45;&gt;Node42 -->
<g id="edge47" class="edge"><title>Node40&#45;&gt;Node42</title>
<path fill="none" stroke="midnightblue" d="M180.581,-790.047C206.798,-796.62 241.836,-805.405 269.97,-812.458"/>
<polygon fill="midnightblue" stroke="midnightblue" points="269.442,-815.934 279.993,-814.971 271.145,-809.144 269.442,-815.934"/>
</g>
<!-- Node43 -->
<g id="node44" class="node"><title>Node43</title>
<g id="a_node44"><a xlink:href="../../d9/d9c/classDroneAttitudeOutput.html#af82daded5434959b2097f851195da263" target="_top" xlink:title=" ">
<polygon fill="white" stroke="black" points="266,-765.5 266,-795.5 372,-795.5 372,-765.5 266,-765.5"/>
<text text-anchor="start" x="274" y="-783.5" font-family="Helvetica,sans-Serif" font-size="10.00">DroneAttitudeOutput</text>
<text text-anchor="middle" x="319" y="-772.5" font-family="Helvetica,sans-Serif" font-size="10.00">::setOrientation</text>
</a>
</g>
</g>
<!-- Node40&#45;&gt;Node43 -->
<g id="edge48" class="edge"><title>Node40&#45;&gt;Node43</title>
<path fill="none" stroke="midnightblue" d="M207.351,-780.5C223.13,-780.5 239.972,-780.5 255.633,-780.5"/>
<polygon fill="midnightblue" stroke="midnightblue" points="255.731,-784 265.731,-780.5 255.731,-777 255.731,-784"/>
</g>
<!-- Node44 -->
<g id="node45" class="node"><title>Node44</title>
<g id="a_node45"><a xlink:href="../../d4/d87/classDroneState.html#acfa119cfbb7131044ae4bcc11936a7e1" target="_top" xlink:title=" ">
<polygon fill="white" stroke="black" points="259.5,-727 259.5,-746 378.5,-746 378.5,-727 259.5,-727"/>
<text text-anchor="middle" x="319" y="-734" font-family="Helvetica,sans-Serif" font-size="10.00">DroneState::getAttitude</text>
</a>
</g>
</g>
<!-- Node40&#45;&gt;Node44 -->
<g id="edge50" class="edge"><title>Node40&#45;&gt;Node44</title>
<path fill="none" stroke="midnightblue" d="M180.581,-770.953C206.798,-764.38 241.836,-755.595 269.97,-748.542"/>
<polygon fill="midnightblue" stroke="midnightblue" points="271.145,-751.856 279.993,-746.029 269.442,-745.066 271.145,-751.856"/>
</g>
<!-- Node45 -->
<g id="node46" class="node"><title>Node45</title>
<g id="a_node46"><a xlink:href="../../d9/d9c/classDroneAttitudeOutput.html#af63710ed1633bf66f05da94f6ec21c20" target="_top" xlink:title=" ">
<polygon fill="white" stroke="black" points="266,-677.5 266,-707.5 372,-707.5 372,-677.5 266,-677.5"/>
<text text-anchor="start" x="274" y="-695.5" font-family="Helvetica,sans-Serif" font-size="10.00">DroneAttitudeOutput</text>
<text text-anchor="middle" x="319" y="-684.5" font-family="Helvetica,sans-Serif" font-size="10.00">::getOrientation</text>
</a>
</g>
</g>
<!-- Node40&#45;&gt;Node45 -->
<g id="edge51" class="edge"><title>Node40&#45;&gt;Node45</title>
<path fill="none" stroke="midnightblue" d="M155.882,-770.934C174.952,-757.619 211.37,-733.354 245,-717.5 249.652,-715.307 254.55,-713.209 259.517,-711.228"/>
<polygon fill="midnightblue" stroke="midnightblue" points="261.011,-714.404 269.104,-707.567 258.513,-707.865 261.011,-714.404"/>
</g>
<!-- Node46 -->
<g id="node47" class="node"><title>Node46</title>
<g id="a_node47"><a xlink:href="../../da/dd9/classStepResponseAnalyzer.html#a8d7f0cc09f0d748c13b188f81a3613e5" target="_top" xlink:title=" ">
<polygon fill="white" stroke="black" points="259.5,-628.5 259.5,-658.5 378.5,-658.5 378.5,-628.5 259.5,-628.5"/>
<text text-anchor="start" x="267.5" y="-646.5" font-family="Helvetica,sans-Serif" font-size="10.00">StepResponseAnalyzer</text>
<text text-anchor="middle" x="319" y="-635.5" font-family="Helvetica,sans-Serif" font-size="10.00">::getResult</text>
</a>
</g>
</g>
<!-- Node40&#45;&gt;Node46 -->
<g id="edge53" class="edge"><title>Node40&#45;&gt;Node46</title>
<path fill="none" stroke="midnightblue" d="M148.69,-770.785C163.001,-749.09 200.57,-696.347 245,-667.5 247.465,-665.899 250.047,-664.397 252.706,-662.987"/>
<polygon fill="midnightblue" stroke="midnightblue" points="254.484,-666.016 261.994,-658.543 251.463,-659.702 254.484,-666.016"/>
</g>
<!-- Node47 -->
<g id="node48" class="node"><title>Node47</title>
<g id="a_node48"><a xlink:href="../../d9/d1c/Matrix_8hpp.html#a5396ac0689ea8f47e7ba2726b3b79357" target="_top" xlink:title=" ">
<polygon fill="white" stroke="black" points="284,-891 284,-910 354,-910 354,-891 284,-891"/>
<text text-anchor="middle" x="319" y="-898" font-family="Helvetica,sans-Serif" font-size="10.00">asrowvector</text>
</a>
</g>
</g>
<!-- Node40&#45;&gt;Node47 -->
<g id="edge54" class="edge"><title>Node40&#45;&gt;Node47</title>
<path fill="none" stroke="midnightblue" d="M184.679,-790.082C193.451,-793.54 202.111,-798.211 209,-804.5 236.9,-829.97 215.961,-857.335 245,-881.5 253.239,-888.356 263.671,-892.77 274.052,-895.603"/>
<polygon fill="midnightblue" stroke="midnightblue" points="273.387,-899.041 283.916,-897.863 274.95,-892.218 273.387,-899.041"/>
</g>
<!-- Node48 -->
<g id="node49" class="node"><title>Node48</title>
<g id="a_node49"><a xlink:href="../../da/da9/classStepResponseAnalyzerPlotter.html#a2158bc2cde7a8f0c0a1a2abf07d29cfb" target="_top" xlink:title=" ">
<polygon fill="white" stroke="black" points="245,-502.5 245,-532.5 393,-532.5 393,-502.5 245,-502.5"/>
<text text-anchor="start" x="253" y="-520.5" font-family="Helvetica,sans-Serif" font-size="10.00">StepResponseAnalyzerPlotter</text>
<text text-anchor="middle" x="319" y="-509.5" font-family="Helvetica,sans-Serif" font-size="10.00">::plot</text>
</a>
</g>
</g>
<!-- Node40&#45;&gt;Node48 -->
<g id="edge55" class="edge"><title>Node40&#45;&gt;Node48</title>
<path fill="none" stroke="midnightblue" d="M146.181,-770.909C157.786,-741.377 195.776,-649.93 245,-585.5 258.131,-568.313 275.821,-551.714 290.498,-539.218"/>
<polygon fill="midnightblue" stroke="midnightblue" points="292.853,-541.811 298.294,-532.72 288.372,-536.434 292.853,-541.811"/>
</g>
<!-- Node48&#45;&gt;Node18 -->
<g id="edge57" class="edge"><title>Node48&#45;&gt;Node18</title>
<path fill="none" stroke="midnightblue" d="M393.241,-526.697C405.183,-528.064 417.428,-529.385 429,-530.5 495.138,-536.871 570.979,-542.214 623.327,-545.595"/>
<polygon fill="midnightblue" stroke="midnightblue" points="623.27,-549.098 633.474,-546.244 623.718,-542.112 623.27,-549.098"/>
</g>
<!-- Node48&#45;&gt;Node22 -->
<g id="edge56" class="edge"><title>Node48&#45;&gt;Node22</title>
<path fill="none" stroke="midnightblue" d="M393.117,-515.129C409.521,-514.597 426.777,-514.037 442.693,-513.521"/>
<polygon fill="midnightblue" stroke="midnightblue" points="443.055,-517.011 452.936,-513.189 442.828,-510.015 443.055,-517.011"/>
</g>
<!-- Node48&#45;&gt;Node39 -->
<g id="edge58" class="edge"><title>Node48&#45;&gt;Node39</title>
<path fill="none" stroke="midnightblue" d="M357.222,-532.559C368.721,-537.275 381.409,-542.544 393,-547.5 409.099,-554.384 412.626,-557.298 429,-563.5 444.723,-569.455 462.642,-575.164 477.13,-579.519"/>
<polygon fill="midnightblue" stroke="midnightblue" points="476.411,-582.956 486.993,-582.434 478.396,-576.243 476.411,-582.956"/>
</g>
</g>
</svg>
