<?xml version="1.0" encoding="UTF-8" standalone="no"?>
<!DOCTYPE svg PUBLIC "-//W3C//DTD SVG 1.1//EN"
 "http://www.w3.org/Graphics/SVG/1.1/DTD/svg11.dtd">
<!-- Generated by graphviz version 2.38.0 (20140413.2041)
 -->
<!-- Title: MAX7219_Base::setIntensity Pages: 1 -->
<svg width="770pt" height="154pt"
 viewBox="0.00 0.00 770.00 154.00" xmlns="http://www.w3.org/2000/svg" xmlns:xlink="http://www.w3.org/1999/xlink">
<g id="graph0" class="graph" transform="scale(1 1) rotate(0) translate(4 150)">
<title>MAX7219_Base::setIntensity</title>
<polygon fill="white" stroke="none" points="-4,4 -4,-150 766,-150 766,4 -4,4"/>
<!-- Node85 -->
<g id="node1" class="node"><title>Node85</title>
<g id="a_node1"><a xlink:title=" ">
<polygon fill="#bfbfbf" stroke="black" points="0,-55 0,-74 144,-74 144,-55 0,-55"/>
<text text-anchor="middle" x="72" y="-62" font-family="Helvetica,sans-Serif" font-size="10.00">MAX7219_Base::setIntensity</text>
</a>
</g>
</g>
<!-- Node86 -->
<g id="node2" class="node"><title>Node86</title>
<g id="a_node2"><a xlink:href="../../da/dd0/classMAX7219__Base.html#ad5fae5a26168c869305c426dc8b48d49" target="_top" xlink:title=" ">
<polygon fill="white" stroke="black" points="180,-55 180,-74 314,-74 314,-55 180,-55"/>
<text text-anchor="middle" x="247" y="-62" font-family="Helvetica,sans-Serif" font-size="10.00">MAX7219_Base::sendRaw</text>
</a>
</g>
</g>
<!-- Node85&#45;&gt;Node86 -->
<g id="edge1" class="edge"><title>Node85&#45;&gt;Node86</title>
<path fill="none" stroke="midnightblue" d="M144.365,-64.5C152.702,-64.5 161.233,-64.5 169.635,-64.5"/>
<polygon fill="midnightblue" stroke="midnightblue" points="169.798,-68.0001 179.798,-64.5 169.798,-61.0001 169.798,-68.0001"/>
</g>
<!-- Node87 -->
<g id="node3" class="node"><title>Node87</title>
<g id="a_node3"><a xlink:href="../../d8/d3d/namespaceExtIO.html#af83b2f2728401bf8efea42049ceb7dcd" target="_top" xlink:title=" ">
<polygon fill="white" stroke="black" points="350,-55 350,-74 447,-74 447,-55 350,-55"/>
<text text-anchor="middle" x="398.5" y="-62" font-family="Helvetica,sans-Serif" font-size="10.00">ExtIO::digitalWrite</text>
</a>
</g>
</g>
<!-- Node86&#45;&gt;Node87 -->
<g id="edge2" class="edge"><title>Node86&#45;&gt;Node87</title>
<path fill="none" stroke="midnightblue" d="M314.008,-64.5C322.572,-64.5 331.291,-64.5 339.707,-64.5"/>
<polygon fill="midnightblue" stroke="midnightblue" points="339.793,-68.0001 349.793,-64.5 339.793,-61.0001 339.793,-68.0001"/>
</g>
<!-- Node88 -->
<g id="node4" class="node"><title>Node88</title>
<g id="a_node4"><a xlink:href="../../d8/d3d/namespaceExtIO.html#ae314377b34b9e49b153f6e36fb354d37" target="_top" xlink:title="Find the IO element of a given extended IO pin number.">
<polygon fill="white" stroke="black" points="483,-99 483,-118 616,-118 616,-99 483,-99"/>
<text text-anchor="middle" x="549.5" y="-106" font-family="Helvetica,sans-Serif" font-size="10.00">ExtIO::getIOElementOfPin</text>
</a>
</g>
</g>
<!-- Node87&#45;&gt;Node88 -->
<g id="edge3" class="edge"><title>Node87&#45;&gt;Node88</title>
<path fill="none" stroke="midnightblue" d="M431.201,-74.0611C446.793,-78.7459 465.872,-84.4519 483,-89.5 490.344,-91.6645 498.157,-93.9479 505.734,-96.1518"/>
<polygon fill="midnightblue" stroke="midnightblue" points="504.919,-99.5598 515.498,-98.9868 506.871,-92.8373 504.919,-99.5598"/>
</g>
<!-- Node91 -->
<g id="node7" class="node"><title>Node91</title>
<g id="a_node7"><a xlink:href="../../de/d4e/classExtendedIOElement.html#a0afd6681ab951942ca3cac83370562bb" target="_top" xlink:title="Set the output of the given pin to the given state.">
<polygon fill="white" stroke="black" points="494.5,-49.5 494.5,-79.5 604.5,-79.5 604.5,-49.5 494.5,-49.5"/>
<text text-anchor="start" x="502.5" y="-67.5" font-family="Helvetica,sans-Serif" font-size="10.00">ExtendedIOElement::</text>
<text text-anchor="middle" x="549.5" y="-56.5" font-family="Helvetica,sans-Serif" font-size="10.00">digitalWrite</text>
</a>
</g>
</g>
<!-- Node87&#45;&gt;Node91 -->
<g id="edge6" class="edge"><title>Node87&#45;&gt;Node91</title>
<path fill="none" stroke="midnightblue" d="M447.054,-64.5C458.831,-64.5 471.647,-64.5 484.08,-64.5"/>
<polygon fill="midnightblue" stroke="midnightblue" points="484.404,-68.0001 494.404,-64.5 484.404,-61.0001 484.404,-68.0001"/>
</g>
<!-- Node92 -->
<g id="node8" class="node"><title>Node92</title>
<g id="a_node8"><a xlink:href="../../de/d4e/classExtendedIOElement.html#a955322d29e4e63ec40a587b5ed9db31b" target="_top" xlink:title="Get the smallest global extended IO pin number that belongs to this extended IO element.">
<polygon fill="white" stroke="black" points="494.5,-0.5 494.5,-30.5 604.5,-30.5 604.5,-0.5 494.5,-0.5"/>
<text text-anchor="start" x="502.5" y="-18.5" font-family="Helvetica,sans-Serif" font-size="10.00">ExtendedIOElement::</text>
<text text-anchor="middle" x="549.5" y="-7.5" font-family="Helvetica,sans-Serif" font-size="10.00">getStart</text>
</a>
</g>
</g>
<!-- Node87&#45;&gt;Node92 -->
<g id="edge7" class="edge"><title>Node87&#45;&gt;Node92</title>
<path fill="none" stroke="midnightblue" d="M428.582,-54.936C446.952,-48.895 471.279,-40.8948 493.219,-33.6796"/>
<polygon fill="midnightblue" stroke="midnightblue" points="494.369,-36.9859 502.775,-30.537 492.182,-30.3362 494.369,-36.9859"/>
</g>
<!-- Node89 -->
<g id="node5" class="node"><title>Node89</title>
<g id="a_node5"><a xlink:href="../../de/d4e/classExtendedIOElement.html#a3151d5bf08e6b32231cdd58ed2f39aee" target="_top" xlink:title="Get the list of all Extended IO elements.">
<polygon fill="white" stroke="black" points="652,-115.5 652,-145.5 762,-145.5 762,-115.5 652,-115.5"/>
<text text-anchor="start" x="660" y="-133.5" font-family="Helvetica,sans-Serif" font-size="10.00">ExtendedIOElement::</text>
<text text-anchor="middle" x="707" y="-122.5" font-family="Helvetica,sans-Serif" font-size="10.00">getAll</text>
</a>
</g>
</g>
<!-- Node88&#45;&gt;Node89 -->
<g id="edge4" class="edge"><title>Node88&#45;&gt;Node89</title>
<path fill="none" stroke="midnightblue" d="M616.446,-117.83C624.803,-119.012 633.345,-120.221 641.676,-121.4"/>
<polygon fill="midnightblue" stroke="midnightblue" points="641.314,-124.883 651.706,-122.818 642.295,-117.952 641.314,-124.883"/>
</g>
<!-- Node90 -->
<g id="node6" class="node"><title>Node90</title>
<g id="a_node6"><a xlink:href="../../d8/d3d/namespaceExtIO.html#aedf6005ecc64cea16059965b80ce5f85" target="_top" xlink:title=" ">
<polygon fill="white" stroke="black" points="665,-77 665,-96 749,-96 749,-77 665,-77"/>
<text text-anchor="middle" x="707" y="-84" font-family="Helvetica,sans-Serif" font-size="10.00">ExtIO::inRange</text>
</a>
</g>
</g>
<!-- Node88&#45;&gt;Node90 -->
<g id="edge5" class="edge"><title>Node88&#45;&gt;Node90</title>
<path fill="none" stroke="midnightblue" d="M616.446,-99.17C629.25,-97.3585 642.492,-95.485 654.738,-93.7525"/>
<polygon fill="midnightblue" stroke="midnightblue" points="655.348,-97.2011 664.759,-92.3347 654.368,-90.2701 655.348,-97.2011"/>
</g>
</g>
</svg>
