<?xml version="1.0" encoding="UTF-8" standalone="no"?>
<!DOCTYPE svg PUBLIC "-//W3C//DTD SVG 1.1//EN"
 "http://www.w3.org/Graphics/SVG/1.1/DTD/svg11.dtd">
<!-- Generated by graphviz version 2.38.0 (20140413.2041)
 -->
<!-- Title: IncrementDecrementSelector_Base::beginInput Pages: 1 -->
<svg width="876pt" height="154pt"
 viewBox="0.00 0.00 876.00 154.00" xmlns="http://www.w3.org/2000/svg" xmlns:xlink="http://www.w3.org/1999/xlink">
<g id="graph0" class="graph" transform="scale(1 1) rotate(0) translate(4 150)">
<title>IncrementDecrementSelector_Base::beginInput</title>
<polygon fill="white" stroke="none" points="-4,4 -4,-150 872,-150 872,4 -4,4"/>
<!-- Node12 -->
<g id="node1" class="node"><title>Node12</title>
<g id="a_node1"><a xlink:title=" ">
<polygon fill="#bfbfbf" stroke="black" points="0,-49.5 0,-79.5 144,-79.5 144,-49.5 0,-49.5"/>
<text text-anchor="start" x="8" y="-67.5" font-family="Helvetica,sans-Serif" font-size="10.00">IncrementDecrementSelector</text>
<text text-anchor="middle" x="72" y="-56.5" font-family="Helvetica,sans-Serif" font-size="10.00">_Base::beginInput</text>
</a>
</g>
</g>
<!-- Node13 -->
<g id="node2" class="node"><title>Node13</title>
<g id="a_node2"><a xlink:href="../../d5/d20/classIncrementDecrementButtons.html#af661941dbb4a67e2b3919306bae23c8f" target="_top" xlink:title=" ">
<polygon fill="white" stroke="black" points="180,-49.5 180,-79.5 322,-79.5 322,-49.5 180,-49.5"/>
<text text-anchor="start" x="188" y="-67.5" font-family="Helvetica,sans-Serif" font-size="10.00">IncrementDecrementButtons</text>
<text text-anchor="middle" x="251" y="-56.5" font-family="Helvetica,sans-Serif" font-size="10.00">::begin</text>
</a>
</g>
</g>
<!-- Node12&#45;&gt;Node13 -->
<g id="edge1" class="edge"><title>Node12&#45;&gt;Node13</title>
<path fill="none" stroke="midnightblue" d="M144.228,-64.5C152.559,-64.5 161.104,-64.5 169.55,-64.5"/>
<polygon fill="midnightblue" stroke="midnightblue" points="169.782,-68.0001 179.782,-64.5 169.782,-61.0001 169.782,-68.0001"/>
</g>
<!-- Node14 -->
<g id="node3" class="node"><title>Node14</title>
<g id="a_node3"><a xlink:href="../../d1/d19/classButton.html#a666adf00bc92a8b264758abfa655a6a4" target="_top" xlink:title="Initialize (enable the internal pull&#45;up resistor).">
<polygon fill="white" stroke="black" points="358,-55 358,-74 432,-74 432,-55 358,-55"/>
<text text-anchor="middle" x="395" y="-62" font-family="Helvetica,sans-Serif" font-size="10.00">Button::begin</text>
</a>
</g>
</g>
<!-- Node13&#45;&gt;Node14 -->
<g id="edge2" class="edge"><title>Node13&#45;&gt;Node14</title>
<path fill="none" stroke="midnightblue" d="M322.168,-64.5C330.815,-64.5 339.478,-64.5 347.645,-64.5"/>
<polygon fill="midnightblue" stroke="midnightblue" points="347.685,-68.0001 357.685,-64.5 347.685,-61.0001 347.685,-68.0001"/>
</g>
<!-- Node15 -->
<g id="node4" class="node"><title>Node15</title>
<g id="a_node4"><a xlink:href="../../d8/d3d/namespaceExtIO.html#aab1cbf2a78b56e576a536d371e1984ef" target="_top" xlink:title=" ">
<polygon fill="white" stroke="black" points="468,-55 468,-74 553,-74 553,-55 468,-55"/>
<text text-anchor="middle" x="510.5" y="-62" font-family="Helvetica,sans-Serif" font-size="10.00">ExtIO::pinMode</text>
</a>
</g>
</g>
<!-- Node14&#45;&gt;Node15 -->
<g id="edge3" class="edge"><title>Node14&#45;&gt;Node15</title>
<path fill="none" stroke="midnightblue" d="M432.224,-64.5C440.25,-64.5 448.908,-64.5 457.425,-64.5"/>
<polygon fill="midnightblue" stroke="midnightblue" points="457.691,-68.0001 467.691,-64.5 457.691,-61.0001 457.691,-68.0001"/>
</g>
<!-- Node16 -->
<g id="node5" class="node"><title>Node16</title>
<g id="a_node5"><a xlink:href="../../d8/d3d/namespaceExtIO.html#ae314377b34b9e49b153f6e36fb354d37" target="_top" xlink:title="Find the IO element of a given extended IO pin number.">
<polygon fill="white" stroke="black" points="589,-99 589,-118 722,-118 722,-99 589,-99"/>
<text text-anchor="middle" x="655.5" y="-106" font-family="Helvetica,sans-Serif" font-size="10.00">ExtIO::getIOElementOfPin</text>
</a>
</g>
</g>
<!-- Node15&#45;&gt;Node16 -->
<g id="edge4" class="edge"><title>Node15&#45;&gt;Node16</title>
<path fill="none" stroke="midnightblue" d="M540.509,-74.0835C555.037,-78.8251 572.914,-84.5735 589,-89.5 596.083,-91.6692 603.616,-93.9129 610.956,-96.0651"/>
<polygon fill="midnightblue" stroke="midnightblue" points="610.205,-99.4918 620.785,-98.9277 612.162,-92.771 610.205,-99.4918"/>
</g>
<!-- Node19 -->
<g id="node8" class="node"><title>Node19</title>
<g id="a_node8"><a xlink:href="../../de/d4e/classExtendedIOElement.html#ab0e7b41124b477456bf5a1de8071d1e3" target="_top" xlink:title="Set the mode of a given pin.">
<polygon fill="white" stroke="black" points="600.5,-49.5 600.5,-79.5 710.5,-79.5 710.5,-49.5 600.5,-49.5"/>
<text text-anchor="start" x="608.5" y="-67.5" font-family="Helvetica,sans-Serif" font-size="10.00">ExtendedIOElement::</text>
<text text-anchor="middle" x="655.5" y="-56.5" font-family="Helvetica,sans-Serif" font-size="10.00">pinMode</text>
</a>
</g>
</g>
<!-- Node15&#45;&gt;Node19 -->
<g id="edge7" class="edge"><title>Node15&#45;&gt;Node19</title>
<path fill="none" stroke="midnightblue" d="M553.246,-64.5C564.89,-64.5 577.815,-64.5 590.428,-64.5"/>
<polygon fill="midnightblue" stroke="midnightblue" points="590.447,-68.0001 600.447,-64.5 590.447,-61.0001 590.447,-68.0001"/>
</g>
<!-- Node20 -->
<g id="node9" class="node"><title>Node20</title>
<g id="a_node9"><a xlink:href="../../de/d4e/classExtendedIOElement.html#a955322d29e4e63ec40a587b5ed9db31b" target="_top" xlink:title="Get the smallest global extended IO pin number that belongs to this extended IO element.">
<polygon fill="white" stroke="black" points="600.5,-0.5 600.5,-30.5 710.5,-30.5 710.5,-0.5 600.5,-0.5"/>
<text text-anchor="start" x="608.5" y="-18.5" font-family="Helvetica,sans-Serif" font-size="10.00">ExtendedIOElement::</text>
<text text-anchor="middle" x="655.5" y="-7.5" font-family="Helvetica,sans-Serif" font-size="10.00">getStart</text>
</a>
</g>
</g>
<!-- Node15&#45;&gt;Node20 -->
<g id="edge8" class="edge"><title>Node15&#45;&gt;Node20</title>
<path fill="none" stroke="midnightblue" d="M539.411,-54.936C556.883,-48.9491 579.97,-41.0382 600.878,-33.874"/>
<polygon fill="midnightblue" stroke="midnightblue" points="602.291,-37.0896 610.617,-30.537 600.022,-30.4676 602.291,-37.0896"/>
</g>
<!-- Node17 -->
<g id="node6" class="node"><title>Node17</title>
<g id="a_node6"><a xlink:href="../../de/d4e/classExtendedIOElement.html#a3151d5bf08e6b32231cdd58ed2f39aee" target="_top" xlink:title="Get the list of all Extended IO elements.">
<polygon fill="white" stroke="black" points="758,-115.5 758,-145.5 868,-145.5 868,-115.5 758,-115.5"/>
<text text-anchor="start" x="766" y="-133.5" font-family="Helvetica,sans-Serif" font-size="10.00">ExtendedIOElement::</text>
<text text-anchor="middle" x="813" y="-122.5" font-family="Helvetica,sans-Serif" font-size="10.00">getAll</text>
</a>
</g>
</g>
<!-- Node16&#45;&gt;Node17 -->
<g id="edge5" class="edge"><title>Node16&#45;&gt;Node17</title>
<path fill="none" stroke="midnightblue" d="M722.446,-117.83C730.803,-119.012 739.345,-120.221 747.676,-121.4"/>
<polygon fill="midnightblue" stroke="midnightblue" points="747.314,-124.883 757.706,-122.818 748.295,-117.952 747.314,-124.883"/>
</g>
<!-- Node18 -->
<g id="node7" class="node"><title>Node18</title>
<g id="a_node7"><a xlink:href="../../d8/d3d/namespaceExtIO.html#aedf6005ecc64cea16059965b80ce5f85" target="_top" xlink:title=" ">
<polygon fill="white" stroke="black" points="771,-77 771,-96 855,-96 855,-77 771,-77"/>
<text text-anchor="middle" x="813" y="-84" font-family="Helvetica,sans-Serif" font-size="10.00">ExtIO::inRange</text>
</a>
</g>
</g>
<!-- Node16&#45;&gt;Node18 -->
<g id="edge6" class="edge"><title>Node16&#45;&gt;Node18</title>
<path fill="none" stroke="midnightblue" d="M722.446,-99.17C735.25,-97.3585 748.492,-95.485 760.738,-93.7525"/>
<polygon fill="midnightblue" stroke="midnightblue" points="761.348,-97.2011 770.759,-92.3347 760.368,-90.2701 761.348,-97.2011"/>
</g>
</g>
</svg>
