<?xml version="1.0" encoding="UTF-8" standalone="no"?>
<!DOCTYPE svg PUBLIC "-//W3C//DTD SVG 1.1//EN"
 "http://www.w3.org/Graphics/SVG/1.1/DTD/svg11.dtd">
<!-- Generated by graphviz version 2.38.0 (20140413.2041)
 -->
<!-- Title: Bankable::MIDIRotaryEncoder&lt; send &gt; Pages: 1 -->
<svg width="410pt" height="1405pt"
 viewBox="0.00 0.00 410.00 1405.00" xmlns="http://www.w3.org/2000/svg" xmlns:xlink="http://www.w3.org/1999/xlink">
<g id="graph0" class="graph" transform="scale(1 1) rotate(0) translate(4 1401)">
<title>Bankable::MIDIRotaryEncoder&lt; send &gt;</title>
<polygon fill="white" stroke="none" points="-4,4 -4,-1401 406,-1401 406,4 -4,4"/>
<!-- Node5 -->
<g id="node1" class="node"><title>Node5</title>
<g id="a_node1"><a xlink:title="An abstract class for rotary encoders that send MIDI events and that can be added to a Bank.">
<polygon fill="#bfbfbf" stroke="black" points="117,-0.5 117,-123.5 267,-123.5 267,-0.5 117,-0.5"/>
<text text-anchor="start" x="125" y="-111.5" font-family="Helvetica,sans-Serif" font-size="10.00">Bankable::MIDIRotaryEncoder</text>
<text text-anchor="middle" x="192" y="-100.5" font-family="Helvetica,sans-Serif" font-size="10.00">&lt; send &gt;</text>
<polyline fill="none" stroke="black" points="117,-93.5 267,-93.5 "/>
<text text-anchor="start" x="125" y="-81.5" font-family="Helvetica,sans-Serif" font-size="10.00">&#45; encoder</text>
<text text-anchor="start" x="125" y="-70.5" font-family="Helvetica,sans-Serif" font-size="10.00">&#45; speedMultiply</text>
<text text-anchor="start" x="125" y="-59.5" font-family="Helvetica,sans-Serif" font-size="10.00">&#45; pulsesPerStep</text>
<text text-anchor="start" x="125" y="-48.5" font-family="Helvetica,sans-Serif" font-size="10.00">&#45; previousPosition</text>
<polyline fill="none" stroke="black" points="117,-41.5 267,-41.5 "/>
<text text-anchor="start" x="125" y="-29.5" font-family="Helvetica,sans-Serif" font-size="10.00">+ begin()</text>
<text text-anchor="start" x="125" y="-18.5" font-family="Helvetica,sans-Serif" font-size="10.00">+ update()</text>
<text text-anchor="start" x="125" y="-7.5" font-family="Helvetica,sans-Serif" font-size="10.00"># MIDIRotaryEncoder()</text>
</a>
</g>
</g>
<!-- Node6 -->
<g id="node2" class="node"><title>Node6</title>
<g id="a_node2"><a xlink:href="../../d3/d43/classBankableMIDIOutput.html" target="_top" xlink:title="A base class for all MIDIOutputElement::s that can be banked.">
<polygon fill="white" stroke="black" points="0,-215.5 0,-360.5 122,-360.5 122,-215.5 0,-215.5"/>
<text text-anchor="middle" x="61" y="-348.5" font-family="Helvetica,sans-Serif" font-size="10.00">BankableMIDIOutput</text>
<polyline fill="none" stroke="black" points="0,-341.5 122,-341.5 "/>
<text text-anchor="start" x="8" y="-329.5" font-family="Helvetica,sans-Serif" font-size="10.00">&#45; type</text>
<text text-anchor="start" x="8" y="-318.5" font-family="Helvetica,sans-Serif" font-size="10.00">&#45; lockedSetting</text>
<text text-anchor="start" x="8" y="-307.5" font-family="Helvetica,sans-Serif" font-size="10.00">&#45; UNLOCKED</text>
<polyline fill="none" stroke="black" points="0,-300.5 122,-300.5 "/>
<text text-anchor="start" x="8" y="-288.5" font-family="Helvetica,sans-Serif" font-size="10.00">+ getAddressOffset()</text>
<text text-anchor="start" x="8" y="-277.5" font-family="Helvetica,sans-Serif" font-size="10.00">+ getRawBankSetting()</text>
<text text-anchor="start" x="8" y="-266.5" font-family="Helvetica,sans-Serif" font-size="10.00">+ getSelection()</text>
<text text-anchor="start" x="8" y="-255.5" font-family="Helvetica,sans-Serif" font-size="10.00"># BankableMIDIOutput()</text>
<text text-anchor="start" x="8" y="-244.5" font-family="Helvetica,sans-Serif" font-size="10.00"># BankableMIDIOutput()</text>
<text text-anchor="start" x="8" y="-233.5" font-family="Helvetica,sans-Serif" font-size="10.00"># lock()</text>
<text text-anchor="start" x="8" y="-222.5" font-family="Helvetica,sans-Serif" font-size="10.00"># unlock()</text>
</a>
</g>
</g>
<!-- Node6&#45;&gt;Node5 -->
<g id="edge1" class="edge"><title>Node6&#45;&gt;Node5</title>
<path fill="none" stroke="midnightblue" d="M108.121,-206.426C124.115,-179.079 141.699,-149.011 156.618,-123.501"/>
<polygon fill="none" stroke="midnightblue" points="105.017,-204.802 102.99,-215.201 111.059,-208.335 105.017,-204.802"/>
</g>
<!-- Node7 -->
<g id="node3" class="node"><title>Node7</title>
<g id="a_node3"><a xlink:href="../../d9/d36/classOutputBank.html" target="_top" xlink:title="A class for changing the address of BankableMIDIOutput::s.">
<polygon fill="white" stroke="black" points="4.5,-507.5 4.5,-608.5 117.5,-608.5 117.5,-507.5 4.5,-507.5"/>
<text text-anchor="middle" x="61" y="-596.5" font-family="Helvetica,sans-Serif" font-size="10.00">OutputBank</text>
<polyline fill="none" stroke="black" points="4.5,-589.5 117.5,-589.5 "/>
<text text-anchor="start" x="12.5" y="-577.5" font-family="Helvetica,sans-Serif" font-size="10.00">&#45; tracksPerBank</text>
<text text-anchor="start" x="12.5" y="-566.5" font-family="Helvetica,sans-Serif" font-size="10.00">&#45; bankSetting</text>
<polyline fill="none" stroke="black" points="4.5,-559.5 117.5,-559.5 "/>
<text text-anchor="start" x="12.5" y="-547.5" font-family="Helvetica,sans-Serif" font-size="10.00">+ OutputBank()</text>
<text text-anchor="start" x="12.5" y="-536.5" font-family="Helvetica,sans-Serif" font-size="10.00">+ select()</text>
<text text-anchor="start" x="12.5" y="-525.5" font-family="Helvetica,sans-Serif" font-size="10.00">+ getSelection()</text>
<text text-anchor="start" x="12.5" y="-514.5" font-family="Helvetica,sans-Serif" font-size="10.00">+ getTracksPerBank()</text>
</a>
</g>
</g>
<!-- Node7&#45;&gt;Node6 -->
<g id="edge2" class="edge"><title>Node7&#45;&gt;Node6</title>
<path fill="none" stroke="#404040" d="M61,-507.219C61,-469.584 61,-417.043 61,-372.947"/>
<polygon fill="none" stroke="#404040" points="61.0001,-372.753 57,-366.753 61,-360.753 65,-366.753 61.0001,-372.753"/>
<text text-anchor="middle" x="75" y="-426" font-family="Helvetica,sans-Serif" font-size="10.00"> &#45;bank</text>
</g>
<!-- Node8 -->
<g id="node4" class="node"><title>Node8</title>
<g id="a_node4"><a xlink:href="../../dc/dc9/structMIDIOutputElement.html" target="_top" xlink:title=" ">
<polygon fill="white" stroke="black" points="140,-259.5 140,-316.5 244,-316.5 244,-259.5 140,-259.5"/>
<text text-anchor="middle" x="192" y="-304.5" font-family="Helvetica,sans-Serif" font-size="10.00">MIDIOutputElement</text>
<polyline fill="none" stroke="black" points="140,-297.5 244,-297.5 "/>
<text text-anchor="middle" x="192" y="-285.5" font-family="Helvetica,sans-Serif" font-size="10.00"> </text>
<polyline fill="none" stroke="black" points="140,-278.5 244,-278.5 "/>
<text text-anchor="middle" x="192" y="-266.5" font-family="Helvetica,sans-Serif" font-size="10.00"> </text>
</a>
</g>
</g>
<!-- Node8&#45;&gt;Node5 -->
<g id="edge3" class="edge"><title>Node8&#45;&gt;Node5</title>
<path fill="none" stroke="midnightblue" d="M192,-249.018C192,-214.754 192,-163.757 192,-123.82"/>
<polygon fill="none" stroke="midnightblue" points="188.5,-249.083 192,-259.083 195.5,-249.083 188.5,-249.083"/>
</g>
<!-- Node9 -->
<g id="node5" class="node"><title>Node9</title>
<g id="a_node5"><a xlink:href="../../d5/de0/classUpdatable.html" target="_top" xlink:title=" ">
<polygon fill="white" stroke="black" points="151,-452.5 151,-663.5 233,-663.5 233,-452.5 151,-452.5"/>
<text text-anchor="middle" x="192" y="-651.5" font-family="Helvetica,sans-Serif" font-size="10.00">Updatable&lt;&gt;</text>
<polyline fill="none" stroke="black" points="151,-644.5 233,-644.5 "/>
<text text-anchor="middle" x="192" y="-632.5" font-family="Helvetica,sans-Serif" font-size="10.00"> </text>
<polyline fill="none" stroke="black" points="151,-625.5 233,-625.5 "/>
<text text-anchor="start" x="159" y="-613.5" font-family="Helvetica,sans-Serif" font-size="10.00">+ Updatable()</text>
<text text-anchor="start" x="159" y="-602.5" font-family="Helvetica,sans-Serif" font-size="10.00">+ ~Updatable()</text>
<text text-anchor="start" x="159" y="-591.5" font-family="Helvetica,sans-Serif" font-size="10.00">+ update()</text>
<text text-anchor="start" x="159" y="-580.5" font-family="Helvetica,sans-Serif" font-size="10.00">+ begin()</text>
<text text-anchor="start" x="159" y="-569.5" font-family="Helvetica,sans-Serif" font-size="10.00">+ enable()</text>
<text text-anchor="start" x="159" y="-558.5" font-family="Helvetica,sans-Serif" font-size="10.00">+ disable()</text>
<text text-anchor="start" x="159" y="-547.5" font-family="Helvetica,sans-Serif" font-size="10.00">+ isEnabled()</text>
<text text-anchor="start" x="159" y="-536.5" font-family="Helvetica,sans-Serif" font-size="10.00">+ enable()</text>
<text text-anchor="start" x="159" y="-525.5" font-family="Helvetica,sans-Serif" font-size="10.00">+ enable()</text>
<text text-anchor="start" x="159" y="-514.5" font-family="Helvetica,sans-Serif" font-size="10.00">+ enable()</text>
<text text-anchor="start" x="159" y="-503.5" font-family="Helvetica,sans-Serif" font-size="10.00">+ disable()</text>
<text text-anchor="start" x="159" y="-492.5" font-family="Helvetica,sans-Serif" font-size="10.00">+ disable()</text>
<text text-anchor="start" x="159" y="-481.5" font-family="Helvetica,sans-Serif" font-size="10.00">+ disable()</text>
<text text-anchor="start" x="159" y="-470.5" font-family="Helvetica,sans-Serif" font-size="10.00">+ beginAll()</text>
<text text-anchor="start" x="159" y="-459.5" font-family="Helvetica,sans-Serif" font-size="10.00">+ updateAll()</text>
</a>
</g>
</g>
<!-- Node9&#45;&gt;Node8 -->
<g id="edge4" class="edge"><title>Node9&#45;&gt;Node8</title>
<path fill="none" stroke="midnightblue" d="M192,-442.109C192,-395.849 192,-346.488 192,-316.69"/>
<polygon fill="none" stroke="midnightblue" points="188.5,-442.233 192,-452.233 195.5,-442.233 188.5,-442.233"/>
</g>
<!-- Node10 -->
<g id="node6" class="node"><title>Node10</title>
<g id="a_node6"><a xlink:href="../../d4/d23/classDoublyLinkable.html" target="_top" xlink:title=" ">
<polygon fill="white" stroke="black" points="180.5,-1328.5 180.5,-1396.5 317.5,-1396.5 317.5,-1328.5 180.5,-1328.5"/>
<text text-anchor="start" x="188.5" y="-1384.5" font-family="Helvetica,sans-Serif" font-size="10.00">DoublyLinkable&lt; Updatable</text>
<text text-anchor="middle" x="249" y="-1373.5" font-family="Helvetica,sans-Serif" font-size="10.00">&lt; NormalUpdatable &gt; &gt;</text>
<polyline fill="none" stroke="black" points="180.5,-1366.5 317.5,-1366.5 "/>
<text text-anchor="middle" x="249" y="-1354.5" font-family="Helvetica,sans-Serif" font-size="10.00"> </text>
<polyline fill="none" stroke="black" points="180.5,-1347.5 317.5,-1347.5 "/>
<text text-anchor="start" x="188.5" y="-1335.5" font-family="Helvetica,sans-Serif" font-size="10.00"># ~DoublyLinkable()</text>
</a>
</g>
</g>
<!-- Node10&#45;&gt;Node9 -->
<g id="edge5" class="edge"><title>Node10&#45;&gt;Node9</title>
<path fill="none" stroke="midnightblue" d="M218.11,-1319.79C208.801,-1304.85 199.789,-1287.39 195,-1270 137.491,-1061.14 157.422,-804.494 175.644,-663.741"/>
<polygon fill="none" stroke="midnightblue" points="215.226,-1321.77 223.595,-1328.27 221.104,-1317.97 215.226,-1321.77"/>
</g>
<!-- Node11 -->
<g id="node7" class="node"><title>Node11</title>
<g id="a_node7"><a xlink:href="../../d5/de0/classUpdatable.html" target="_top" xlink:title=" ">
<polygon fill="white" stroke="black" points="204.5,-1058.5 204.5,-1269.5 359.5,-1269.5 359.5,-1058.5 204.5,-1058.5"/>
<text text-anchor="middle" x="282" y="-1257.5" font-family="Helvetica,sans-Serif" font-size="10.00">Updatable&lt; NormalUpdatable &gt;</text>
<polyline fill="none" stroke="black" points="204.5,-1250.5 359.5,-1250.5 "/>
<text text-anchor="middle" x="282" y="-1238.5" font-family="Helvetica,sans-Serif" font-size="10.00"> </text>
<polyline fill="none" stroke="black" points="204.5,-1231.5 359.5,-1231.5 "/>
<text text-anchor="start" x="212.5" y="-1219.5" font-family="Helvetica,sans-Serif" font-size="10.00">+ Updatable()</text>
<text text-anchor="start" x="212.5" y="-1208.5" font-family="Helvetica,sans-Serif" font-size="10.00">+ ~Updatable()</text>
<text text-anchor="start" x="212.5" y="-1197.5" font-family="Helvetica,sans-Serif" font-size="10.00">+ update()</text>
<text text-anchor="start" x="212.5" y="-1186.5" font-family="Helvetica,sans-Serif" font-size="10.00">+ begin()</text>
<text text-anchor="start" x="212.5" y="-1175.5" font-family="Helvetica,sans-Serif" font-size="10.00">+ enable()</text>
<text text-anchor="start" x="212.5" y="-1164.5" font-family="Helvetica,sans-Serif" font-size="10.00">+ disable()</text>
<text text-anchor="start" x="212.5" y="-1153.5" font-family="Helvetica,sans-Serif" font-size="10.00">+ isEnabled()</text>
<text text-anchor="start" x="212.5" y="-1142.5" font-family="Helvetica,sans-Serif" font-size="10.00">+ enable()</text>
<text text-anchor="start" x="212.5" y="-1131.5" font-family="Helvetica,sans-Serif" font-size="10.00">+ enable()</text>
<text text-anchor="start" x="212.5" y="-1120.5" font-family="Helvetica,sans-Serif" font-size="10.00">+ enable()</text>
<text text-anchor="start" x="212.5" y="-1109.5" font-family="Helvetica,sans-Serif" font-size="10.00">+ disable()</text>
<text text-anchor="start" x="212.5" y="-1098.5" font-family="Helvetica,sans-Serif" font-size="10.00">+ disable()</text>
<text text-anchor="start" x="212.5" y="-1087.5" font-family="Helvetica,sans-Serif" font-size="10.00">+ disable()</text>
<text text-anchor="start" x="212.5" y="-1076.5" font-family="Helvetica,sans-Serif" font-size="10.00">+ beginAll()</text>
<text text-anchor="start" x="212.5" y="-1065.5" font-family="Helvetica,sans-Serif" font-size="10.00">+ updateAll()</text>
</a>
</g>
</g>
<!-- Node10&#45;&gt;Node11 -->
<g id="edge7" class="edge"><title>Node10&#45;&gt;Node11</title>
<path fill="none" stroke="midnightblue" d="M256.293,-1318.07C258.724,-1303.6 261.546,-1286.79 264.412,-1269.73"/>
<polygon fill="none" stroke="midnightblue" points="252.803,-1317.72 254.598,-1328.17 259.706,-1318.88 252.803,-1317.72"/>
</g>
<!-- Node11&#45;&gt;Node10 -->
<g id="edge6" class="edge"><title>Node11&#45;&gt;Node10</title>
<path fill="none" stroke="#404040" d="M266.882,-1269.67C264.696,-1283.26 262.377,-1296.98 260,-1310 259.611,-1312.13 259.199,-1314.31 258.773,-1316.51"/>
<polygon fill="none" stroke="#404040" points="258.765,-1316.55 261.5,-1323.22 256.393,-1328.31 253.658,-1321.64 258.765,-1316.55"/>
<text text-anchor="middle" x="285.5" y="-1302" font-family="Helvetica,sans-Serif" font-size="10.00"> #next</text>
<text text-anchor="middle" x="285.5" y="-1291" font-family="Helvetica,sans-Serif" font-size="10.00">#previous</text>
</g>
<!-- Node12 -->
<g id="node8" class="node"><title>Node12</title>
<g id="a_node8"><a xlink:href="../../dd/d16/classDoublyLinkedList.html" target="_top" xlink:title=" ">
<polygon fill="white" stroke="black" points="204.5,-711.5 204.5,-999.5 349.5,-999.5 349.5,-711.5 204.5,-711.5"/>
<text text-anchor="start" x="212.5" y="-987.5" font-family="Helvetica,sans-Serif" font-size="10.00">DoublyLinkedList&lt; Updatable</text>
<text text-anchor="middle" x="277" y="-976.5" font-family="Helvetica,sans-Serif" font-size="10.00">&lt; NormalUpdatable &gt; &gt;</text>
<polyline fill="none" stroke="black" points="204.5,-969.5 349.5,-969.5 "/>
<text text-anchor="middle" x="277" y="-957.5" font-family="Helvetica,sans-Serif" font-size="10.00"> </text>
<polyline fill="none" stroke="black" points="204.5,-950.5 349.5,-950.5 "/>
<text text-anchor="start" x="212.5" y="-938.5" font-family="Helvetica,sans-Serif" font-size="10.00">+ DoublyLinkedList()</text>
<text text-anchor="start" x="212.5" y="-927.5" font-family="Helvetica,sans-Serif" font-size="10.00">+ append()</text>
<text text-anchor="start" x="212.5" y="-916.5" font-family="Helvetica,sans-Serif" font-size="10.00">+ append()</text>
<text text-anchor="start" x="212.5" y="-905.5" font-family="Helvetica,sans-Serif" font-size="10.00">+ insertBefore()</text>
<text text-anchor="start" x="212.5" y="-894.5" font-family="Helvetica,sans-Serif" font-size="10.00">+ insertBefore()</text>
<text text-anchor="start" x="212.5" y="-883.5" font-family="Helvetica,sans-Serif" font-size="10.00">+ insertSorted()</text>
<text text-anchor="start" x="212.5" y="-872.5" font-family="Helvetica,sans-Serif" font-size="10.00">+ insertSorted()</text>
<text text-anchor="start" x="212.5" y="-861.5" font-family="Helvetica,sans-Serif" font-size="10.00">+ remove()</text>
<text text-anchor="start" x="212.5" y="-850.5" font-family="Helvetica,sans-Serif" font-size="10.00">+ remove()</text>
<text text-anchor="start" x="212.5" y="-839.5" font-family="Helvetica,sans-Serif" font-size="10.00">+ moveDown()</text>
<text text-anchor="start" x="212.5" y="-828.5" font-family="Helvetica,sans-Serif" font-size="10.00">+ couldContain()</text>
<text text-anchor="start" x="212.5" y="-817.5" font-family="Helvetica,sans-Serif" font-size="10.00">+ begin()</text>
<text text-anchor="start" x="212.5" y="-806.5" font-family="Helvetica,sans-Serif" font-size="10.00">+ begin()</text>
<text text-anchor="start" x="212.5" y="-795.5" font-family="Helvetica,sans-Serif" font-size="10.00">+ end()</text>
<text text-anchor="start" x="212.5" y="-784.5" font-family="Helvetica,sans-Serif" font-size="10.00">+ end()</text>
<text text-anchor="start" x="212.5" y="-773.5" font-family="Helvetica,sans-Serif" font-size="10.00">+ rbegin()</text>
<text text-anchor="start" x="212.5" y="-762.5" font-family="Helvetica,sans-Serif" font-size="10.00">+ rbegin()</text>
<text text-anchor="start" x="212.5" y="-751.5" font-family="Helvetica,sans-Serif" font-size="10.00">+ rend()</text>
<text text-anchor="start" x="212.5" y="-740.5" font-family="Helvetica,sans-Serif" font-size="10.00">+ rend()</text>
<text text-anchor="start" x="212.5" y="-729.5" font-family="Helvetica,sans-Serif" font-size="10.00">+ getFirst()</text>
<text text-anchor="start" x="212.5" y="-718.5" font-family="Helvetica,sans-Serif" font-size="10.00">+ getLast()</text>
</a>
</g>
</g>
<!-- Node11&#45;&gt;Node12 -->
<g id="edge9" class="edge"><title>Node11&#45;&gt;Node12</title>
<path fill="none" stroke="#404040" d="M256.507,-1058.26C255.524,-1052.1 254.673,-1045.98 254,-1040 252.966,-1030.8 252.457,-1021.35 252.367,-1011.81"/>
<polygon fill="none" stroke="#404040" points="252.368,-1011.71 248.419,-1005.67 252.47,-999.707 256.419,-1005.74 252.368,-1011.71"/>
<text text-anchor="middle" x="265" y="-1032" font-family="Helvetica,sans-Serif" font-size="10.00"> &#45;last</text>
<text text-anchor="middle" x="265" y="-1021" font-family="Helvetica,sans-Serif" font-size="10.00">&#45;first</text>
</g>
<!-- Node12&#45;&gt;Node9 -->
<g id="edge10" class="edge"><title>Node12&#45;&gt;Node9</title>
<path fill="none" stroke="#404040" d="M235.745,-711.078C232.287,-699.057 228.818,-686.997 225.43,-675.218"/>
<polygon fill="none" stroke="#404040" points="225.389,-675.077 219.887,-670.416 222.072,-663.544 227.575,-668.205 225.389,-675.077"/>
<text text-anchor="middle" x="257" y="-685" font-family="Helvetica,sans-Serif" font-size="10.00"> &#45;updatables</text>
</g>
<!-- Node12&#45;&gt;Node11 -->
<g id="edge8" class="edge"><title>Node12&#45;&gt;Node11</title>
<path fill="none" stroke="#404040" d="M279.694,-999.599C279.8,-1005.82 279.902,-1011.97 280,-1018 280.149,-1027.2 280.296,-1036.74 280.439,-1046.32"/>
<polygon fill="none" stroke="#404040" points="280.441,-1046.46 284.529,-1052.4 280.618,-1058.45 276.53,-1052.51 280.441,-1046.46"/>
<text text-anchor="middle" x="308" y="-1026.5" font-family="Helvetica,sans-Serif" font-size="10.00"> &#45;updatables</text>
</g>
<!-- Node13 -->
<g id="node9" class="node"><title>Node13</title>
<g id="a_node9"><a xlink:href="../../d3/d10/classMIDICNChannelAddress.html" target="_top" xlink:title="A type&#45;safe utility class for saving a MIDI address consisting of a 7&#45;bit address,...">
<polygon fill="white" stroke="black" points="262,-171.5 262,-404.5 402,-404.5 402,-171.5 262,-171.5"/>
<text text-anchor="middle" x="332" y="-392.5" font-family="Helvetica,sans-Serif" font-size="10.00">MIDICNChannelAddress</text>
<polyline fill="none" stroke="black" points="262,-385.5 402,-385.5 "/>
<text text-anchor="start" x="270" y="-373.5" font-family="Helvetica,sans-Serif" font-size="10.00">&#45; addresses</text>
<polyline fill="none" stroke="black" points="262,-366.5 402,-366.5 "/>
<text text-anchor="start" x="270" y="-354.5" font-family="Helvetica,sans-Serif" font-size="10.00">+ MIDICNChannelAddress()</text>
<text text-anchor="start" x="270" y="-343.5" font-family="Helvetica,sans-Serif" font-size="10.00">+ MIDICNChannelAddress()</text>
<text text-anchor="start" x="270" y="-332.5" font-family="Helvetica,sans-Serif" font-size="10.00">+ MIDICNChannelAddress()</text>
<text text-anchor="start" x="270" y="-321.5" font-family="Helvetica,sans-Serif" font-size="10.00">+ MIDICNChannelAddress()</text>
<text text-anchor="start" x="270" y="-310.5" font-family="Helvetica,sans-Serif" font-size="10.00">+ operator+=()</text>
<text text-anchor="start" x="270" y="-299.5" font-family="Helvetica,sans-Serif" font-size="10.00">+ operator&#45;=()</text>
<text text-anchor="start" x="270" y="-288.5" font-family="Helvetica,sans-Serif" font-size="10.00">+ operator+()</text>
<text text-anchor="start" x="270" y="-277.5" font-family="Helvetica,sans-Serif" font-size="10.00">+ operator&#45;()</text>
<text text-anchor="start" x="270" y="-266.5" font-family="Helvetica,sans-Serif" font-size="10.00">+ operator==()</text>
<text text-anchor="start" x="270" y="-255.5" font-family="Helvetica,sans-Serif" font-size="10.00">+ operator!=()</text>
<text text-anchor="start" x="270" y="-244.5" font-family="Helvetica,sans-Serif" font-size="10.00">+ getAddress()</text>
<text text-anchor="start" x="270" y="-233.5" font-family="Helvetica,sans-Serif" font-size="10.00">+ getChannel()</text>
<text text-anchor="start" x="270" y="-222.5" font-family="Helvetica,sans-Serif" font-size="10.00">+ getCableNumber()</text>
<text text-anchor="start" x="270" y="-211.5" font-family="Helvetica,sans-Serif" font-size="10.00">+ isValid()</text>
<text text-anchor="start" x="270" y="-200.5" font-family="Helvetica,sans-Serif" font-size="10.00">+ operator bool()</text>
<text text-anchor="start" x="270" y="-189.5" font-family="Helvetica,sans-Serif" font-size="10.00">+ matchSingle()</text>
<text text-anchor="start" x="270" y="-178.5" font-family="Helvetica,sans-Serif" font-size="10.00">+ matchAddressInRange()</text>
</a>
</g>
</g>
<!-- Node13&#45;&gt;Node5 -->
<g id="edge11" class="edge"><title>Node13&#45;&gt;Node5</title>
<path fill="none" stroke="#404040" d="M261.795,-174.672C253.128,-160.804 244.464,-146.943 236.337,-133.939"/>
<polygon fill="none" stroke="#404040" points="236.304,-133.886 229.732,-130.919 229.944,-123.71 236.516,-126.678 236.304,-133.886"/>
<text text-anchor="middle" x="266.5" y="-145" font-family="Helvetica,sans-Serif" font-size="10.00"> &#45;address</text>
</g>
</g>
</svg>
