<?xml version="1.0" encoding="UTF-8" standalone="no"?>
<!DOCTYPE svg PUBLIC "-//W3C//DTD SVG 1.1//EN"
 "http://www.w3.org/Graphics/SVG/1.1/DTD/svg11.dtd">
<!-- Generated by graphviz version 2.38.0 (20140413.2041)
 -->
<!-- Title: BankableMIDIInput.hpp Pages: 1 -->
<svg width="770pt" height="532pt"
 viewBox="0.00 0.00 770.00 532.00" xmlns="http://www.w3.org/2000/svg" xmlns:xlink="http://www.w3.org/1999/xlink">
<g id="graph0" class="graph" transform="scale(1 1) rotate(0) translate(4 528)">
<title>BankableMIDIInput.hpp</title>
<polygon fill="white" stroke="none" points="-4,4 -4,-528 766,-528 766,4 -4,4"/>
<!-- Node1 -->
<g id="node1" class="node"><title>Node1</title>
<g id="a_node1"><a xlink:title=" ">
<polygon fill="#bfbfbf" stroke="black" points="376.5,-504.5 376.5,-523.5 495.5,-523.5 495.5,-504.5 376.5,-504.5"/>
<text text-anchor="middle" x="436" y="-511.5" font-family="Helvetica,sans-Serif" font-size="10.00">BankableMIDIInput.hpp</text>
</a>
</g>
</g>
<!-- Node2 -->
<g id="node2" class="node"><title>Node2</title>
<g id="a_node2"><a xlink:href="../../d4/d57/Bank_8hpp.html" target="_top" xlink:title=" ">
<polygon fill="white" stroke="black" points="407,-448.5 407,-467.5 465,-467.5 465,-448.5 407,-448.5"/>
<text text-anchor="middle" x="436" y="-455.5" font-family="Helvetica,sans-Serif" font-size="10.00">Bank.hpp</text>
</a>
</g>
</g>
<!-- Node1&#45;&gt;Node2 -->
<g id="edge1" class="edge"><title>Node1&#45;&gt;Node2</title>
<path fill="none" stroke="midnightblue" d="M430.834,-504.083C429.324,-496.927 428.894,-486.635 429.542,-477.691"/>
<polygon fill="midnightblue" stroke="midnightblue" points="433.015,-478.126 430.869,-467.751 426.077,-477.2 433.015,-478.126"/>
</g>
<!-- Node3 -->
<g id="node3" class="node"><title>Node3</title>
<g id="a_node3"><a xlink:href="../../df/dee/Debug_8hpp.html" target="_top" xlink:title=" ">
<polygon fill="white" stroke="black" points="413.5,-280.5 413.5,-299.5 514.5,-299.5 514.5,-280.5 413.5,-280.5"/>
<text text-anchor="middle" x="464" y="-287.5" font-family="Helvetica,sans-Serif" font-size="10.00">Helpers/Debug.hpp</text>
</a>
</g>
</g>
<!-- Node1&#45;&gt;Node3 -->
<g id="edge41" class="edge"><title>Node1&#45;&gt;Node3</title>
<path fill="none" stroke="midnightblue" d="M446.714,-504.305C455.938,-496.069 468.591,-482.789 474,-468 494.041,-413.204 478.918,-342.503 469.719,-309.501"/>
<polygon fill="midnightblue" stroke="midnightblue" points="473.057,-308.444 466.886,-299.831 466.339,-310.412 473.057,-308.444"/>
</g>
<!-- Node18 -->
<g id="node18" class="node"><title>Node18</title>
<g id="a_node18"><a xlink:href="../../de/dd1/LinkedList_8hpp.html" target="_top" xlink:title=" ">
<polygon fill="white" stroke="black" points="546,-392.5 546,-411.5 662,-411.5 662,-392.5 546,-392.5"/>
<text text-anchor="middle" x="604" y="-399.5" font-family="Helvetica,sans-Serif" font-size="10.00">Helpers/LinkedList.hpp</text>
</a>
</g>
</g>
<!-- Node1&#45;&gt;Node18 -->
<g id="edge42" class="edge"><title>Node1&#45;&gt;Node18</title>
<path fill="none" stroke="midnightblue" d="M452.591,-504.442C469.019,-495.79 494.727,-481.764 516,-468 540.579,-452.097 567.461,-431.781 584.963,-418.131"/>
<polygon fill="midnightblue" stroke="midnightblue" points="587.498,-420.59 593.198,-411.659 583.173,-415.086 587.498,-420.59"/>
</g>
<!-- Node24 -->
<g id="node24" class="node"><title>Node24</title>
<g id="a_node24"><a xlink:href="../../dd/d1f/BankConfig_8hpp.html" target="_top" xlink:title=" ">
<polygon fill="white" stroke="black" points="0,-392.5 0,-411.5 86,-411.5 86,-392.5 0,-392.5"/>
<text text-anchor="middle" x="43" y="-399.5" font-family="Helvetica,sans-Serif" font-size="10.00">BankConfig.hpp</text>
</a>
</g>
</g>
<!-- Node1&#45;&gt;Node24 -->
<g id="edge37" class="edge"><title>Node1&#45;&gt;Node24</title>
<path fill="none" stroke="midnightblue" d="M376.247,-511.656C314.809,-508.525 217.318,-498.627 139,-468 108.876,-456.22 78.742,-433.615 60.4816,-418.418"/>
<polygon fill="midnightblue" stroke="midnightblue" points="62.4037,-415.458 52.5232,-411.633 57.8621,-420.785 62.4037,-415.458"/>
</g>
<!-- Node25 -->
<g id="node25" class="node"><title>Node25</title>
<g id="a_node25"><a xlink:href="../../d8/d38/MIDICNChannelAddress_8hpp.html" target="_top" xlink:title=" ">
<polygon fill="white" stroke="black" points="148.5,-448.5 148.5,-467.5 311.5,-467.5 311.5,-448.5 148.5,-448.5"/>
<text text-anchor="middle" x="230" y="-455.5" font-family="Helvetica,sans-Serif" font-size="10.00">Def/MIDICNChannelAddress.hpp</text>
</a>
</g>
</g>
<!-- Node1&#45;&gt;Node25 -->
<g id="edge39" class="edge"><title>Node1&#45;&gt;Node25</title>
<path fill="none" stroke="midnightblue" d="M403.359,-504.444C367.95,-495.162 311.291,-480.309 272.447,-470.127"/>
<polygon fill="midnightblue" stroke="midnightblue" points="273.049,-466.667 262.489,-467.516 271.274,-473.438 273.049,-466.667"/>
</g>
<!-- Node2&#45;&gt;Node1 -->
<g id="edge36" class="edge"><title>Node2&#45;&gt;Node1</title>
<path fill="none" stroke="midnightblue" d="M441.131,-467.751C442.657,-474.858 443.104,-485.136 442.472,-494.101"/>
<polygon fill="midnightblue" stroke="midnightblue" points="438.993,-493.713 441.166,-504.083 445.934,-494.622 438.993,-493.713"/>
</g>
<!-- Node2&#45;&gt;Node3 -->
<g id="edge2" class="edge"><title>Node2&#45;&gt;Node3</title>
<path fill="none" stroke="midnightblue" d="M437.505,-448.075C441.913,-421.945 454.856,-345.211 460.867,-309.577"/>
<polygon fill="midnightblue" stroke="midnightblue" points="464.343,-310.011 462.555,-299.568 457.44,-308.847 464.343,-310.011"/>
</g>
<!-- Node17 -->
<g id="node17" class="node"><title>Node17</title>
<g id="a_node17"><a xlink:href="../../d1/d93/Error_8hpp.html" target="_top" xlink:title=" ">
<polygon fill="white" stroke="black" points="342.5,-336.5 342.5,-355.5 435.5,-355.5 435.5,-336.5 342.5,-336.5"/>
<text text-anchor="middle" x="389" y="-343.5" font-family="Helvetica,sans-Serif" font-size="10.00">Helpers/Error.hpp</text>
</a>
</g>
</g>
<!-- Node2&#45;&gt;Node17 -->
<g id="edge23" class="edge"><title>Node2&#45;&gt;Node17</title>
<path fill="none" stroke="midnightblue" d="M432.312,-448.368C424.659,-430.456 406.913,-388.923 396.669,-364.948"/>
<polygon fill="midnightblue" stroke="midnightblue" points="399.819,-363.412 392.671,-355.591 393.382,-366.162 399.819,-363.412"/>
</g>
<!-- Node2&#45;&gt;Node18 -->
<g id="edge25" class="edge"><title>Node2&#45;&gt;Node18</title>
<path fill="none" stroke="midnightblue" d="M462.62,-448.444C491.006,-439.32 536.137,-424.813 567.753,-414.651"/>
<polygon fill="midnightblue" stroke="midnightblue" points="569.055,-417.909 577.504,-411.516 566.913,-411.244 569.055,-417.909"/>
</g>
<!-- Node22 -->
<g id="node22" class="node"><title>Node22</title>
<g id="a_node22"><a xlink:href="../../d9/d46/Selectable_8hpp.html" target="_top" xlink:title=" ">
<polygon fill="white" stroke="black" points="251.5,-392.5 251.5,-411.5 376.5,-411.5 376.5,-392.5 251.5,-392.5"/>
<text text-anchor="middle" x="314" y="-399.5" font-family="Helvetica,sans-Serif" font-size="10.00">Selectors/Selectable.hpp</text>
</a>
</g>
</g>
<!-- Node2&#45;&gt;Node22 -->
<g id="edge31" class="edge"><title>Node2&#45;&gt;Node22</title>
<path fill="none" stroke="midnightblue" d="M416.669,-448.444C396.68,-439.596 365.257,-425.687 342.436,-415.586"/>
<polygon fill="midnightblue" stroke="midnightblue" points="343.802,-412.363 333.241,-411.516 340.968,-418.764 343.802,-412.363"/>
</g>
<!-- Node4 -->
<g id="node4" class="node"><title>Node4</title>
<g id="a_node4"><a xlink:href="../../d2/dd5/SettingsWrapper_8hpp.html" target="_top" xlink:title=" ">
<polygon fill="white" stroke="black" points="310.5,-224.5 310.5,-243.5 457.5,-243.5 457.5,-224.5 310.5,-224.5"/>
<text text-anchor="middle" x="384" y="-231.5" font-family="Helvetica,sans-Serif" font-size="10.00">Settings/SettingsWrapper.hpp</text>
</a>
</g>
</g>
<!-- Node3&#45;&gt;Node4 -->
<g id="edge3" class="edge"><title>Node3&#45;&gt;Node4</title>
<path fill="none" stroke="midnightblue" d="M446.032,-280.324C432.212,-272.185 413.584,-259.839 400.223,-250.087"/>
<polygon fill="midnightblue" stroke="midnightblue" points="402.029,-247.065 391.939,-243.834 397.811,-252.652 402.029,-247.065"/>
</g>
<!-- Node16 -->
<g id="node16" class="node"><title>Node16</title>
<g id="a_node16"><a xlink:href="../../dd/d80/PrintStream_8hpp.html" target="_top" xlink:title=" ">
<polygon fill="white" stroke="black" points="547.5,-224.5 547.5,-243.5 634.5,-243.5 634.5,-224.5 547.5,-224.5"/>
<text text-anchor="middle" x="591" y="-231.5" font-family="Helvetica,sans-Serif" font-size="10.00">PrintStream.hpp</text>
</a>
</g>
</g>
<!-- Node3&#45;&gt;Node16 -->
<g id="edge21" class="edge"><title>Node3&#45;&gt;Node16</title>
<path fill="none" stroke="midnightblue" d="M484.124,-280.444C505.024,-271.557 537.935,-257.563 561.716,-247.451"/>
<polygon fill="midnightblue" stroke="midnightblue" points="563.138,-250.65 570.971,-243.516 560.398,-244.208 563.138,-250.65"/>
</g>
<!-- Node4&#45;&gt;Node3 -->
<g id="edge20" class="edge"><title>Node4&#45;&gt;Node3</title>
<path fill="none" stroke="midnightblue" d="M401.932,-243.655C415.826,-251.835 434.593,-264.277 447.98,-274.061"/>
<polygon fill="midnightblue" stroke="midnightblue" points="446.174,-277.084 456.261,-280.324 450.397,-271.5 446.174,-277.084"/>
</g>
<!-- Node5 -->
<g id="node5" class="node"><title>Node5</title>
<g id="a_node5"><a xlink:href="../../db/d02/Settings_8hpp.html" target="_top" xlink:title="All user settings and debugging options can be changed here.">
<polygon fill="white" stroke="black" points="180.5,-168.5 180.5,-187.5 251.5,-187.5 251.5,-168.5 180.5,-168.5"/>
<text text-anchor="middle" x="216" y="-175.5" font-family="Helvetica,sans-Serif" font-size="10.00">Settings.hpp</text>
</a>
</g>
</g>
<!-- Node4&#45;&gt;Node5 -->
<g id="edge4" class="edge"><title>Node4&#45;&gt;Node5</title>
<path fill="none" stroke="midnightblue" d="M357.38,-224.444C328.994,-215.32 283.863,-200.813 252.247,-190.651"/>
<polygon fill="midnightblue" stroke="midnightblue" points="253.087,-187.244 242.496,-187.516 250.945,-193.909 253.087,-187.244"/>
</g>
<!-- Node9 -->
<g id="node9" class="node"><title>Node9</title>
<g id="a_node9"><a xlink:href="../../dc/dc7/NamespaceSettings_8hpp.html" target="_top" xlink:title=" ">
<polygon fill="white" stroke="black" points="176.5,-0.5 176.5,-19.5 339.5,-19.5 339.5,-0.5 176.5,-0.5"/>
<text text-anchor="middle" x="258" y="-7.5" font-family="Helvetica,sans-Serif" font-size="10.00">Settings/NamespaceSettings.hpp</text>
</a>
</g>
</g>
<!-- Node4&#45;&gt;Node9 -->
<g id="edge18" class="edge"><title>Node4&#45;&gt;Node9</title>
<path fill="none" stroke="midnightblue" d="M354.607,-224.471C335.971,-217.574 312.847,-205.998 299,-188 262.193,-140.158 257.504,-64.935 257.482,-30.0014"/>
<polygon fill="midnightblue" stroke="midnightblue" points="260.984,-29.841 257.614,-19.7966 253.985,-29.7505 260.984,-29.841"/>
</g>
<!-- Node15 -->
<g id="node15" class="node"><title>Node15</title>
<g id="a_node15"><a xlink:href="../../d9/d98/TeensyUSBTypes_8hpp.html" target="_top" xlink:title=" ">
<polygon fill="white" stroke="black" points="308,-168.5 308,-187.5 460,-187.5 460,-168.5 308,-168.5"/>
<text text-anchor="middle" x="384" y="-175.5" font-family="Helvetica,sans-Serif" font-size="10.00">Helpers/TeensyUSBTypes.hpp</text>
</a>
</g>
</g>
<!-- Node4&#45;&gt;Node15 -->
<g id="edge19" class="edge"><title>Node4&#45;&gt;Node15</title>
<path fill="none" stroke="midnightblue" d="M384,-224.083C384,-217.006 384,-206.861 384,-197.986"/>
<polygon fill="midnightblue" stroke="midnightblue" points="387.5,-197.751 384,-187.751 380.5,-197.751 387.5,-197.751"/>
</g>
<!-- Node6 -->
<g id="node6" class="node"><title>Node6</title>
<g id="a_node6"><a xlink:href="../../d0/d4e/Def_8hpp.html" target="_top" xlink:title=" ">
<polygon fill="white" stroke="black" points="116,-112.5 116,-131.5 186,-131.5 186,-112.5 116,-112.5"/>
<text text-anchor="middle" x="151" y="-119.5" font-family="Helvetica,sans-Serif" font-size="10.00">Def/Def.hpp</text>
</a>
</g>
</g>
<!-- Node5&#45;&gt;Node6 -->
<g id="edge5" class="edge"><title>Node5&#45;&gt;Node6</title>
<path fill="none" stroke="midnightblue" d="M205.557,-168.324C195.854,-160.263 181.185,-148.077 169.5,-138.369"/>
<polygon fill="midnightblue" stroke="midnightblue" points="171.562,-135.532 161.633,-131.834 167.089,-140.916 171.562,-135.532"/>
</g>
<!-- Node14 -->
<g id="node14" class="node"><title>Node14</title>
<g id="a_node14"><a xlink:title=" ">
<polygon fill="white" stroke="#bfbfbf" points="204,-112.5 204,-131.5 252,-131.5 252,-112.5 204,-112.5"/>
<text text-anchor="middle" x="228" y="-119.5" font-family="Helvetica,sans-Serif" font-size="10.00">limits.h</text>
</a>
</g>
</g>
<!-- Node5&#45;&gt;Node14 -->
<g id="edge17" class="edge"><title>Node5&#45;&gt;Node14</title>
<path fill="none" stroke="midnightblue" d="M217.982,-168.083C219.572,-160.927 221.859,-150.635 223.846,-141.691"/>
<polygon fill="midnightblue" stroke="midnightblue" points="227.303,-142.272 226.055,-131.751 220.469,-140.754 227.303,-142.272"/>
</g>
<!-- Node7 -->
<g id="node7" class="node"><title>Node7</title>
<g id="a_node7"><a xlink:href="../../d7/d42/Channel_8hpp.html" target="_top" xlink:title=" ">
<polygon fill="white" stroke="black" points="308.5,-56.5 308.5,-75.5 379.5,-75.5 379.5,-56.5 308.5,-56.5"/>
<text text-anchor="middle" x="344" y="-63.5" font-family="Helvetica,sans-Serif" font-size="10.00">Channel.hpp</text>
</a>
</g>
</g>
<!-- Node6&#45;&gt;Node7 -->
<g id="edge6" class="edge"><title>Node6&#45;&gt;Node7</title>
<path fill="none" stroke="midnightblue" d="M181.581,-112.444C214.615,-103.201 267.388,-88.4356 303.766,-78.2572"/>
<polygon fill="midnightblue" stroke="midnightblue" points="304.875,-81.5815 313.562,-75.5164 302.988,-74.8404 304.875,-81.5815"/>
</g>
<!-- Node8 -->
<g id="node8" class="node"><title>Node8</title>
<g id="a_node8"><a xlink:title=" ">
<polygon fill="white" stroke="#bfbfbf" points="383.5,-0.5 383.5,-19.5 432.5,-19.5 432.5,-0.5 383.5,-0.5"/>
<text text-anchor="middle" x="408" y="-7.5" font-family="Helvetica,sans-Serif" font-size="10.00">stdint.h</text>
</a>
</g>
</g>
<!-- Node6&#45;&gt;Node8 -->
<g id="edge16" class="edge"><title>Node6&#45;&gt;Node8</title>
<path fill="none" stroke="midnightblue" d="M186.053,-113.773C189.078,-113.167 192.092,-112.569 195,-112 280.636,-95.2564 322.882,-134.082 388,-76 401.06,-64.3513 405.701,-44.4022 407.295,-29.6691"/>
<polygon fill="midnightblue" stroke="midnightblue" points="410.789,-29.8663 408.008,-19.6431 403.807,-29.3695 410.789,-29.8663"/>
</g>
<!-- Node6&#45;&gt;Node9 -->
<g id="edge14" class="edge"><title>Node6&#45;&gt;Node9</title>
<path fill="none" stroke="midnightblue" d="M162.983,-112.358C174.554,-103.752 192.292,-89.8592 206,-76 220.863,-60.9732 235.715,-41.9016 245.718,-28.3109"/>
<polygon fill="midnightblue" stroke="midnightblue" points="248.781,-30.0479 251.809,-19.8948 243.11,-25.9438 248.781,-30.0479"/>
</g>
<!-- Node10 -->
<g id="node10" class="node"><title>Node10</title>
<g id="a_node10"><a xlink:href="../../dc/d50/Frequency_8hpp.html" target="_top" xlink:title=" ">
<polygon fill="white" stroke="black" points="116.5,-56.5 116.5,-75.5 197.5,-75.5 197.5,-56.5 116.5,-56.5"/>
<text text-anchor="middle" x="157" y="-63.5" font-family="Helvetica,sans-Serif" font-size="10.00">Frequency.hpp</text>
</a>
</g>
</g>
<!-- Node6&#45;&gt;Node10 -->
<g id="edge9" class="edge"><title>Node6&#45;&gt;Node10</title>
<path fill="none" stroke="midnightblue" d="M151.991,-112.083C152.786,-104.927 153.929,-94.6353 154.923,-85.6911"/>
<polygon fill="midnightblue" stroke="midnightblue" points="158.402,-86.0765 156.028,-75.7511 151.445,-85.3034 158.402,-86.0765"/>
</g>
<!-- Node11 -->
<g id="node11" class="node"><title>Node11</title>
<g id="a_node11"><a xlink:href="../../de/d76/Array_8hpp.html" target="_top" xlink:title=" ">
<polygon fill="white" stroke="black" points="516.5,-56.5 516.5,-75.5 611.5,-75.5 611.5,-56.5 516.5,-56.5"/>
<text text-anchor="middle" x="564" y="-63.5" font-family="Helvetica,sans-Serif" font-size="10.00">Helpers/Array.hpp</text>
</a>
</g>
</g>
<!-- Node6&#45;&gt;Node11 -->
<g id="edge11" class="edge"><title>Node6&#45;&gt;Node11</title>
<path fill="none" stroke="midnightblue" d="M186.018,-113.573C189.05,-113.01 192.076,-112.477 195,-112 304.431,-94.1651 433.172,-80.0014 506.02,-72.6138"/>
<polygon fill="midnightblue" stroke="midnightblue" points="506.754,-76.0576 516.353,-71.5733 506.053,-69.0928 506.754,-76.0576"/>
</g>
<!-- Node13 -->
<g id="node13" class="node"><title>Node13</title>
<g id="a_node13"><a xlink:title=" ">
<polygon fill="white" stroke="#bfbfbf" points="495,-0.5 495,-19.5 547,-19.5 547,-0.5 495,-0.5"/>
<text text-anchor="middle" x="521" y="-7.5" font-family="Helvetica,sans-Serif" font-size="10.00">stddef.h</text>
</a>
</g>
</g>
<!-- Node6&#45;&gt;Node13 -->
<g id="edge15" class="edge"><title>Node6&#45;&gt;Node13</title>
<path fill="none" stroke="midnightblue" d="M186.043,-113.717C189.07,-113.123 192.087,-112.543 195,-112 289.816,-94.3334 318.277,-108.732 409,-76 443.603,-63.5156 479.727,-40.4361 501.292,-25.4056"/>
<polygon fill="midnightblue" stroke="midnightblue" points="503.467,-28.1537 509.595,-19.5111 499.415,-22.4456 503.467,-28.1537"/>
</g>
<!-- Node7&#45;&gt;Node8 -->
<g id="edge7" class="edge"><title>Node7&#45;&gt;Node8</title>
<path fill="none" stroke="midnightblue" d="M354.283,-56.324C363.836,-48.2631 378.28,-36.0765 389.784,-26.3695"/>
<polygon fill="midnightblue" stroke="midnightblue" points="392.144,-28.9577 397.53,-19.8339 387.63,-23.6076 392.144,-28.9577"/>
</g>
<!-- Node7&#45;&gt;Node9 -->
<g id="edge8" class="edge"><title>Node7&#45;&gt;Node9</title>
<path fill="none" stroke="midnightblue" d="M330.183,-56.324C316.767,-47.9002 296.176,-34.9709 280.414,-25.0741"/>
<polygon fill="midnightblue" stroke="midnightblue" points="282.113,-22.0081 271.783,-19.6545 278.391,-27.9364 282.113,-22.0081"/>
</g>
<!-- Node10&#45;&gt;Node9 -->
<g id="edge10" class="edge"><title>Node10&#45;&gt;Node9</title>
<path fill="none" stroke="midnightblue" d="M173.227,-56.324C189.351,-47.7034 214.3,-34.3643 232.964,-24.3855"/>
<polygon fill="midnightblue" stroke="midnightblue" points="234.644,-27.456 241.813,-19.6545 231.344,-21.283 234.644,-27.456"/>
</g>
<!-- Node12 -->
<g id="node12" class="node"><title>Node12</title>
<g id="a_node12"><a xlink:title=" ">
<polygon fill="white" stroke="#bfbfbf" points="611,-0.5 611,-19.5 669,-19.5 669,-0.5 611,-0.5"/>
<text text-anchor="middle" x="640" y="-7.5" font-family="Helvetica,sans-Serif" font-size="10.00">Arduino.h</text>
</a>
</g>
</g>
<!-- Node11&#45;&gt;Node12 -->
<g id="edge12" class="edge"><title>Node11&#45;&gt;Node12</title>
<path fill="none" stroke="midnightblue" d="M576.211,-56.324C587.776,-48.1066 605.375,-35.6017 619.161,-25.8069"/>
<polygon fill="midnightblue" stroke="midnightblue" points="621.443,-28.4791 627.567,-19.8339 617.388,-22.7729 621.443,-28.4791"/>
</g>
<!-- Node11&#45;&gt;Node13 -->
<g id="edge13" class="edge"><title>Node11&#45;&gt;Node13</title>
<path fill="none" stroke="midnightblue" d="M556.899,-56.083C550.763,-48.3768 541.73,-37.0333 534.261,-27.6531"/>
<polygon fill="midnightblue" stroke="midnightblue" points="536.936,-25.3936 527.968,-19.7511 531.46,-29.7542 536.936,-25.3936"/>
</g>
<!-- Node16&#45;&gt;Node12 -->
<g id="edge22" class="edge"><title>Node16&#45;&gt;Node12</title>
<path fill="none" stroke="midnightblue" d="M592.921,-224.297C600.146,-191.563 625.791,-75.3752 635.88,-29.6664"/>
<polygon fill="midnightblue" stroke="midnightblue" points="639.302,-30.4031 638.039,-19.8837 632.466,-28.8943 639.302,-30.4031"/>
</g>
<!-- Node17&#45;&gt;Node3 -->
<g id="edge24" class="edge"><title>Node17&#45;&gt;Node3</title>
<path fill="none" stroke="midnightblue" d="M401.05,-336.324C412.463,-328.107 429.831,-315.602 443.435,-305.807"/>
<polygon fill="midnightblue" stroke="midnightblue" points="445.66,-308.517 451.731,-299.834 441.57,-302.837 445.66,-308.517"/>
</g>
<!-- Node18&#45;&gt;Node3 -->
<g id="edge26" class="edge"><title>Node18&#45;&gt;Node3</title>
<path fill="none" stroke="midnightblue" d="M618.56,-392.493C638.137,-379.987 668.767,-355.962 653,-336 637.19,-315.984 574.094,-303.912 525.102,-297.384"/>
<polygon fill="midnightblue" stroke="midnightblue" points="525.247,-293.874 514.884,-296.074 524.357,-300.817 525.247,-293.874"/>
</g>
<!-- Node19 -->
<g id="node19" class="node"><title>Node19</title>
<g id="a_node19"><a xlink:title=" ">
<polygon fill="white" stroke="#bfbfbf" points="530,-336.5 530,-355.5 578,-355.5 578,-336.5 530,-336.5"/>
<text text-anchor="middle" x="554" y="-343.5" font-family="Helvetica,sans-Serif" font-size="10.00">stdlib.h</text>
</a>
</g>
</g>
<!-- Node18&#45;&gt;Node19 -->
<g id="edge27" class="edge"><title>Node18&#45;&gt;Node19</title>
<path fill="none" stroke="midnightblue" d="M595.744,-392.083C588.535,-384.298 577.89,-372.801 569.154,-363.367"/>
<polygon fill="midnightblue" stroke="midnightblue" points="571.465,-360.711 562.103,-355.751 566.329,-365.467 571.465,-360.711"/>
</g>
<!-- Node20 -->
<g id="node20" class="node"><title>Node20</title>
<g id="a_node20"><a xlink:href="../../d7/d79/MinMaxFix_8hpp.html" target="_top" xlink:title=" ">
<polygon fill="white" stroke="black" points="642,-280.5 642,-299.5 762,-299.5 762,-280.5 642,-280.5"/>
<text text-anchor="middle" x="702" y="-287.5" font-family="Helvetica,sans-Serif" font-size="10.00">Helpers/MinMaxFix.hpp</text>
</a>
</g>
</g>
<!-- Node18&#45;&gt;Node20 -->
<g id="edge28" class="edge"><title>Node18&#45;&gt;Node20</title>
<path fill="none" stroke="midnightblue" d="M631.503,-392.458C649.585,-385.458 672.347,-373.77 686,-356 696.178,-342.753 699.971,-323.888 701.34,-309.891"/>
<polygon fill="midnightblue" stroke="midnightblue" points="704.858,-309.713 702.007,-299.509 697.873,-309.264 704.858,-309.713"/>
</g>
<!-- Node21 -->
<g id="node21" class="node"><title>Node21</title>
<g id="a_node21"><a xlink:title=" ">
<polygon fill="white" stroke="#bfbfbf" points="596.5,-336.5 596.5,-355.5 643.5,-355.5 643.5,-336.5 596.5,-336.5"/>
<text text-anchor="middle" x="620" y="-343.5" font-family="Helvetica,sans-Serif" font-size="10.00">iterator</text>
</a>
</g>
</g>
<!-- Node18&#45;&gt;Node21 -->
<g id="edge30" class="edge"><title>Node18&#45;&gt;Node21</title>
<path fill="none" stroke="midnightblue" d="M606.642,-392.083C608.786,-384.849 611.879,-374.409 614.549,-365.397"/>
<polygon fill="midnightblue" stroke="midnightblue" points="617.922,-366.333 617.407,-355.751 611.21,-364.345 617.922,-366.333"/>
</g>
<!-- Node20&#45;&gt;Node12 -->
<g id="edge29" class="edge"><title>Node20&#45;&gt;Node12</title>
<path fill="none" stroke="midnightblue" d="M699.842,-280.223C695.475,-261.663 686,-217.017 686,-179 686,-179 686,-179 686,-121 686,-85.8168 665.722,-48.8628 652.093,-27.9988"/>
<polygon fill="midnightblue" stroke="midnightblue" points="654.91,-25.9156 646.396,-19.609 649.119,-29.8481 654.91,-25.9156"/>
</g>
<!-- Node22&#45;&gt;Node6 -->
<g id="edge32" class="edge"><title>Node22&#45;&gt;Node6</title>
<path fill="none" stroke="midnightblue" d="M251.431,-394.694C223.47,-388.827 192.128,-377.566 171,-356 149.937,-334.501 152,-321.098 152,-291 152,-291 152,-291 152,-233 152,-200.947 151.57,-163.642 151.274,-141.748"/>
<polygon fill="midnightblue" stroke="midnightblue" points="154.771,-141.507 151.131,-131.558 147.772,-141.606 154.771,-141.507"/>
</g>
<!-- Node22&#45;&gt;Node8 -->
<g id="edge35" class="edge"><title>Node22&#45;&gt;Node8</title>
<path fill="none" stroke="midnightblue" d="M314.844,-392.292C316.477,-379.107 321.03,-353.736 333,-336 355.483,-302.687 370.761,-302.592 404,-280 430.353,-262.089 449.369,-271.179 466,-244 510.004,-172.087 448.28,-68.3758 420.418,-27.9928"/>
<polygon fill="midnightblue" stroke="midnightblue" points="423.222,-25.8962 414.59,-19.7536 417.508,-29.9388 423.222,-25.8962"/>
</g>
<!-- Node22&#45;&gt;Node17 -->
<g id="edge33" class="edge"><title>Node22&#45;&gt;Node17</title>
<path fill="none" stroke="midnightblue" d="M326.05,-392.324C337.463,-384.107 354.831,-371.602 368.435,-361.807"/>
<polygon fill="midnightblue" stroke="midnightblue" points="370.66,-364.517 376.731,-355.834 366.57,-358.837 370.66,-364.517"/>
</g>
<!-- Node23 -->
<g id="node23" class="node"><title>Node23</title>
<g id="a_node23"><a xlink:href="../../d7/dd7/Helpers_8hpp.html" target="_top" xlink:title=" ">
<polygon fill="white" stroke="black" points="180,-336.5 180,-355.5 286,-355.5 286,-336.5 180,-336.5"/>
<text text-anchor="middle" x="233" y="-343.5" font-family="Helvetica,sans-Serif" font-size="10.00">Helpers/Helpers.hpp</text>
</a>
</g>
</g>
<!-- Node22&#45;&gt;Node23 -->
<g id="edge34" class="edge"><title>Node22&#45;&gt;Node23</title>
<path fill="none" stroke="midnightblue" d="M300.986,-392.324C288.468,-383.979 269.318,-371.212 254.529,-361.352"/>
<polygon fill="midnightblue" stroke="midnightblue" points="256.244,-358.289 245.982,-355.655 252.361,-364.114 256.244,-358.289"/>
</g>
<!-- Node24&#45;&gt;Node6 -->
<g id="edge38" class="edge"><title>Node24&#45;&gt;Node6</title>
<path fill="none" stroke="midnightblue" d="M45.2927,-392.231C49.933,-373.687 60,-329.068 60,-291 60,-291 60,-291 60,-233 60,-190.468 100.889,-155.53 127.849,-137.116"/>
<polygon fill="midnightblue" stroke="midnightblue" points="129.94,-139.931 136.379,-131.518 126.099,-134.079 129.94,-139.931"/>
</g>
<!-- Node25&#45;&gt;Node6 -->
<g id="edge40" class="edge"><title>Node25&#45;&gt;Node6</title>
<path fill="none" stroke="midnightblue" d="M208.724,-448.403C175.236,-433.299 114,-398.622 114,-347 114,-347 114,-347 114,-233 114,-198.889 130.182,-161.787 141.142,-140.568"/>
<polygon fill="midnightblue" stroke="midnightblue" points="144.359,-141.976 146.01,-131.51 138.193,-138.662 144.359,-141.976"/>
</g>
</g>
</svg>
