<?xml version="1.0" encoding="UTF-8" standalone="no"?>
<!DOCTYPE svg PUBLIC "-//W3C//DTD SVG 1.1//EN"
 "http://www.w3.org/Graphics/SVG/1.1/DTD/svg11.dtd">
<!-- Generated by graphviz version 2.38.0 (20140413.2041)
 -->
<!-- Title: BankableMIDIInput.hpp Pages: 1 -->
<svg width="897pt" height="588pt"
 viewBox="0.00 0.00 897.00 588.00" xmlns="http://www.w3.org/2000/svg" xmlns:xlink="http://www.w3.org/1999/xlink">
<g id="graph0" class="graph" transform="scale(1 1) rotate(0) translate(4 584)">
<title>BankableMIDIInput.hpp</title>
<polygon fill="white" stroke="none" points="-4,4 -4,-584 893,-584 893,4 -4,4"/>
<!-- Node1 -->
<g id="node1" class="node"><title>Node1</title>
<g id="a_node1"><a xlink:title=" ">
<polygon fill="#bfbfbf" stroke="black" points="353,-560.5 353,-579.5 472,-579.5 472,-560.5 353,-560.5"/>
<text text-anchor="middle" x="412.5" y="-567.5" font-family="Helvetica,sans-Serif" font-size="10.00">BankableMIDIInput.hpp</text>
</a>
</g>
</g>
<!-- Node2 -->
<g id="node2" class="node"><title>Node2</title>
<g id="a_node2"><a xlink:href="../../d4/d57/Bank_8hpp.html" target="_top" xlink:title=" ">
<polygon fill="white" stroke="black" points="383.5,-504.5 383.5,-523.5 441.5,-523.5 441.5,-504.5 383.5,-504.5"/>
<text text-anchor="middle" x="412.5" y="-511.5" font-family="Helvetica,sans-Serif" font-size="10.00">Bank.hpp</text>
</a>
</g>
</g>
<!-- Node1&#45;&gt;Node2 -->
<g id="edge1" class="edge"><title>Node1&#45;&gt;Node2</title>
<path fill="none" stroke="midnightblue" d="M407.334,-560.083C405.824,-552.927 405.394,-542.635 406.042,-533.691"/>
<polygon fill="midnightblue" stroke="midnightblue" points="409.515,-534.126 407.369,-523.751 402.577,-533.2 409.515,-534.126"/>
</g>
<!-- Node3 -->
<g id="node3" class="node"><title>Node3</title>
<g id="a_node3"><a xlink:href="../../df/dee/Debug_8hpp.html" target="_top" xlink:title=" ">
<polygon fill="white" stroke="black" points="271,-224.5 271,-243.5 372,-243.5 372,-224.5 271,-224.5"/>
<text text-anchor="middle" x="321.5" y="-231.5" font-family="Helvetica,sans-Serif" font-size="10.00">Helpers/Debug.hpp</text>
</a>
</g>
</g>
<!-- Node1&#45;&gt;Node3 -->
<g id="edge46" class="edge"><title>Node1&#45;&gt;Node3</title>
<path fill="none" stroke="midnightblue" d="M396.813,-560.396C369.83,-544.314 317.5,-506.943 317.5,-459 317.5,-459 317.5,-459 317.5,-345 317.5,-312.927 319.219,-275.628 320.404,-253.741"/>
<polygon fill="midnightblue" stroke="midnightblue" points="323.909,-253.735 320.977,-243.554 316.92,-253.341 323.909,-253.735"/>
</g>
<!-- Node16 -->
<g id="node16" class="node"><title>Node16</title>
<g id="a_node16"><a xlink:href="../../de/dd1/LinkedList_8hpp.html" target="_top" xlink:title=" ">
<polygon fill="white" stroke="black" points="171.5,-280.5 171.5,-299.5 287.5,-299.5 287.5,-280.5 171.5,-280.5"/>
<text text-anchor="middle" x="229.5" y="-287.5" font-family="Helvetica,sans-Serif" font-size="10.00">Helpers/LinkedList.hpp</text>
</a>
</g>
</g>
<!-- Node1&#45;&gt;Node16 -->
<g id="edge47" class="edge"><title>Node1&#45;&gt;Node16</title>
<path fill="none" stroke="midnightblue" d="M374.416,-560.462C327.377,-547.404 253.5,-517.573 253.5,-459 253.5,-459 253.5,-459 253.5,-401 253.5,-368.059 243.099,-330.818 235.991,-309.214"/>
<polygon fill="midnightblue" stroke="midnightblue" points="239.285,-308.028 232.737,-299.699 232.662,-310.294 239.285,-308.028"/>
</g>
<!-- Node25 -->
<g id="node25" class="node"><title>Node25</title>
<g id="a_node25"><a xlink:href="../../dd/d1f/BankConfig_8hpp.html" target="_top" xlink:title=" ">
<polygon fill="white" stroke="black" points="624.5,-448.5 624.5,-467.5 710.5,-467.5 710.5,-448.5 624.5,-448.5"/>
<text text-anchor="middle" x="667.5" y="-455.5" font-family="Helvetica,sans-Serif" font-size="10.00">BankConfig.hpp</text>
</a>
</g>
</g>
<!-- Node1&#45;&gt;Node25 -->
<g id="edge42" class="edge"><title>Node1&#45;&gt;Node25</title>
<path fill="none" stroke="midnightblue" d="M432.509,-560.368C477.292,-541.051 585.763,-494.259 638.179,-471.648"/>
<polygon fill="midnightblue" stroke="midnightblue" points="639.788,-474.766 647.584,-467.591 637.015,-468.339 639.788,-474.766"/>
</g>
<!-- Node26 -->
<g id="node26" class="node"><title>Node26</title>
<g id="a_node26"><a xlink:href="../../d8/d38/MIDICNChannelAddress_8hpp.html" target="_top" xlink:title=" ">
<polygon fill="white" stroke="black" points="630,-504.5 630,-523.5 793,-523.5 793,-504.5 630,-504.5"/>
<text text-anchor="middle" x="711.5" y="-511.5" font-family="Helvetica,sans-Serif" font-size="10.00">Def/MIDICNChannelAddress.hpp</text>
</a>
</g>
</g>
<!-- Node1&#45;&gt;Node26 -->
<g id="edge44" class="edge"><title>Node1&#45;&gt;Node26</title>
<path fill="none" stroke="midnightblue" d="M459.877,-560.444C512.584,-550.925 597.729,-535.547 654.157,-525.356"/>
<polygon fill="midnightblue" stroke="midnightblue" points="655.125,-528.738 664.344,-523.516 653.881,-521.849 655.125,-528.738"/>
</g>
<!-- Node2&#45;&gt;Node1 -->
<g id="edge41" class="edge"><title>Node2&#45;&gt;Node1</title>
<path fill="none" stroke="midnightblue" d="M417.631,-523.751C419.157,-530.858 419.604,-541.136 418.972,-550.101"/>
<polygon fill="midnightblue" stroke="midnightblue" points="415.493,-549.713 417.666,-560.083 422.434,-550.622 415.493,-549.713"/>
</g>
<!-- Node2&#45;&gt;Node3 -->
<g id="edge2" class="edge"><title>Node2&#45;&gt;Node3</title>
<path fill="none" stroke="midnightblue" d="M409.938,-504.249C404.751,-485.738 393.5,-441.179 393.5,-403 393.5,-403 393.5,-403 393.5,-345 393.5,-305.939 361.323,-269.944 339.991,-250.372"/>
<polygon fill="midnightblue" stroke="midnightblue" points="342.249,-247.697 332.435,-243.703 337.616,-252.945 342.249,-247.697"/>
</g>
<!-- Node15 -->
<g id="node15" class="node"><title>Node15</title>
<g id="a_node15"><a xlink:href="../../d1/d93/Error_8hpp.html" target="_top" xlink:title=" ">
<polygon fill="white" stroke="black" points="422,-280.5 422,-299.5 515,-299.5 515,-280.5 422,-280.5"/>
<text text-anchor="middle" x="468.5" y="-287.5" font-family="Helvetica,sans-Serif" font-size="10.00">Helpers/Error.hpp</text>
</a>
</g>
</g>
<!-- Node2&#45;&gt;Node15 -->
<g id="edge17" class="edge"><title>Node2&#45;&gt;Node15</title>
<path fill="none" stroke="midnightblue" d="M414.695,-504.297C422.952,-471.563 452.261,-355.375 463.791,-309.666"/>
<polygon fill="midnightblue" stroke="midnightblue" points="467.207,-310.436 466.259,-299.884 460.419,-308.724 467.207,-310.436"/>
</g>
<!-- Node2&#45;&gt;Node16 -->
<g id="edge19" class="edge"><title>Node2&#45;&gt;Node16</title>
<path fill="none" stroke="midnightblue" d="M405.602,-504.489C384.847,-478.897 321.098,-400.441 267.5,-336 259.555,-326.448 250.592,-315.827 243.367,-307.303"/>
<polygon fill="midnightblue" stroke="midnightblue" points="245.963,-304.953 236.823,-299.595 240.627,-309.483 245.963,-304.953"/>
</g>
<!-- Node20 -->
<g id="node20" class="node"><title>Node20</title>
<g id="a_node20"><a xlink:href="../../d9/d46/Selectable_8hpp.html" target="_top" xlink:title=" ">
<polygon fill="white" stroke="black" points="481,-448.5 481,-467.5 606,-467.5 606,-448.5 481,-448.5"/>
<text text-anchor="middle" x="543.5" y="-455.5" font-family="Helvetica,sans-Serif" font-size="10.00">Selectors/Selectable.hpp</text>
</a>
</g>
</g>
<!-- Node2&#45;&gt;Node20 -->
<g id="edge26" class="edge"><title>Node2&#45;&gt;Node20</title>
<path fill="none" stroke="midnightblue" d="M433.257,-504.444C454.816,-495.557 488.763,-481.563 513.294,-471.451"/>
<polygon fill="midnightblue" stroke="midnightblue" points="514.928,-474.563 522.84,-467.516 512.261,-468.092 514.928,-474.563"/>
</g>
<!-- Node4 -->
<g id="node4" class="node"><title>Node4</title>
<g id="a_node4"><a xlink:href="../../d2/dd5/SettingsWrapper_8hpp.html" target="_top" xlink:title=" ">
<polygon fill="white" stroke="black" points="248,-168.5 248,-187.5 395,-187.5 395,-168.5 248,-168.5"/>
<text text-anchor="middle" x="321.5" y="-175.5" font-family="Helvetica,sans-Serif" font-size="10.00">Settings/SettingsWrapper.hpp</text>
</a>
</g>
</g>
<!-- Node3&#45;&gt;Node4 -->
<g id="edge3" class="edge"><title>Node3&#45;&gt;Node4</title>
<path fill="none" stroke="midnightblue" d="M316.334,-224.083C314.824,-216.927 314.394,-206.635 315.042,-197.691"/>
<polygon fill="midnightblue" stroke="midnightblue" points="318.515,-198.126 316.369,-187.751 311.577,-197.2 318.515,-198.126"/>
</g>
<!-- Node14 -->
<g id="node14" class="node"><title>Node14</title>
<g id="a_node14"><a xlink:href="../../dd/d80/PrintStream_8hpp.html" target="_top" xlink:title=" ">
<polygon fill="white" stroke="black" points="124,-168.5 124,-187.5 211,-187.5 211,-168.5 124,-168.5"/>
<text text-anchor="middle" x="167.5" y="-175.5" font-family="Helvetica,sans-Serif" font-size="10.00">PrintStream.hpp</text>
</a>
</g>
</g>
<!-- Node3&#45;&gt;Node14 -->
<g id="edge15" class="edge"><title>Node3&#45;&gt;Node14</title>
<path fill="none" stroke="midnightblue" d="M297.098,-224.444C271.303,-215.399 230.423,-201.064 201.482,-190.916"/>
<polygon fill="midnightblue" stroke="midnightblue" points="202.382,-187.523 191.788,-187.516 200.066,-194.128 202.382,-187.523"/>
</g>
<!-- Node4&#45;&gt;Node3 -->
<g id="edge14" class="edge"><title>Node4&#45;&gt;Node3</title>
<path fill="none" stroke="midnightblue" d="M326.631,-187.751C328.157,-194.858 328.604,-205.136 327.972,-214.101"/>
<polygon fill="midnightblue" stroke="midnightblue" points="324.493,-213.713 326.666,-224.083 331.434,-214.622 324.493,-213.713"/>
</g>
<!-- Node5 -->
<g id="node5" class="node"><title>Node5</title>
<g id="a_node5"><a xlink:href="../../dc/dc7/NamespaceSettings_8hpp.html" target="_top" xlink:title=" ">
<polygon fill="white" stroke="black" points="511.5,-0.5 511.5,-19.5 635.5,-19.5 635.5,-0.5 511.5,-0.5"/>
<text text-anchor="middle" x="573.5" y="-7.5" font-family="Helvetica,sans-Serif" font-size="10.00">NamespaceSettings.hpp</text>
</a>
</g>
</g>
<!-- Node4&#45;&gt;Node5 -->
<g id="edge4" class="edge"><title>Node4&#45;&gt;Node5</title>
<path fill="none" stroke="midnightblue" d="M319.005,-168.325C312.104,-143.513 294.187,-72.9489 308.5,-56 332.749,-27.2855 431.398,-16.8902 501.22,-13.129"/>
<polygon fill="midnightblue" stroke="midnightblue" points="501.489,-16.62 511.3,-12.6209 501.136,-9.62889 501.489,-16.62"/>
</g>
<!-- Node6 -->
<g id="node6" class="node"><title>Node6</title>
<g id="a_node6"><a xlink:href="../../db/d02/Settings_8hpp.html" target="_top" xlink:title="All user settings and debugging options can be changed here.">
<polygon fill="white" stroke="black" points="444,-112.5 444,-131.5 515,-131.5 515,-112.5 444,-112.5"/>
<text text-anchor="middle" x="479.5" y="-119.5" font-family="Helvetica,sans-Serif" font-size="10.00">Settings.hpp</text>
</a>
</g>
</g>
<!-- Node4&#45;&gt;Node6 -->
<g id="edge5" class="edge"><title>Node4&#45;&gt;Node6</title>
<path fill="none" stroke="midnightblue" d="M346.536,-168.444C373.116,-159.359 415.309,-144.939 445.023,-134.783"/>
<polygon fill="midnightblue" stroke="midnightblue" points="446.251,-138.062 454.582,-131.516 443.987,-131.439 446.251,-138.062"/>
</g>
<!-- Node13 -->
<g id="node13" class="node"><title>Node13</title>
<g id="a_node13"><a xlink:href="../../d9/d98/TeensyUSBTypes_8hpp.html" target="_top" xlink:title=" ">
<polygon fill="white" stroke="black" points="141.5,-112.5 141.5,-131.5 293.5,-131.5 293.5,-112.5 141.5,-112.5"/>
<text text-anchor="middle" x="217.5" y="-119.5" font-family="Helvetica,sans-Serif" font-size="10.00">Helpers/TeensyUSBTypes.hpp</text>
</a>
</g>
</g>
<!-- Node4&#45;&gt;Node13 -->
<g id="edge13" class="edge"><title>Node4&#45;&gt;Node13</title>
<path fill="none" stroke="midnightblue" d="M304.791,-168.324C288.188,-159.703 262.498,-146.364 243.28,-136.386"/>
<polygon fill="midnightblue" stroke="midnightblue" points="244.656,-133.156 234.168,-131.655 241.43,-139.369 244.656,-133.156"/>
</g>
<!-- Node7 -->
<g id="node7" class="node"><title>Node7</title>
<g id="a_node7"><a xlink:href="../../dc/d50/Frequency_8hpp.html" target="_top" xlink:title=" ">
<polygon fill="white" stroke="black" points="523.5,-56.5 523.5,-75.5 623.5,-75.5 623.5,-56.5 523.5,-56.5"/>
<text text-anchor="middle" x="573.5" y="-63.5" font-family="Helvetica,sans-Serif" font-size="10.00">Def/Frequency.hpp</text>
</a>
</g>
</g>
<!-- Node6&#45;&gt;Node7 -->
<g id="edge6" class="edge"><title>Node6&#45;&gt;Node7</title>
<path fill="none" stroke="midnightblue" d="M494.603,-112.324C509.403,-103.822 532.194,-90.7288 549.482,-80.7975"/>
<polygon fill="midnightblue" stroke="midnightblue" points="551.507,-83.6707 558.435,-75.6545 548.02,-77.6009 551.507,-83.6707"/>
</g>
<!-- Node8 -->
<g id="node8" class="node"><title>Node8</title>
<g id="a_node8"><a xlink:href="../../d7/d7c/ADCConfig_8hpp.html" target="_top" xlink:title="This file contains the platform&#45;specific ADC resolutions. By default, the library automatically selec...">
<polygon fill="white" stroke="black" points="317.5,-56.5 317.5,-75.5 439.5,-75.5 439.5,-56.5 317.5,-56.5"/>
<text text-anchor="middle" x="378.5" y="-63.5" font-family="Helvetica,sans-Serif" font-size="10.00">Helpers/ADCConfig.hpp</text>
</a>
</g>
</g>
<!-- Node6&#45;&gt;Node8 -->
<g id="edge8" class="edge"><title>Node6&#45;&gt;Node8</title>
<path fill="none" stroke="midnightblue" d="M463.273,-112.324C447.149,-103.703 422.2,-90.3643 403.536,-80.3855"/>
<polygon fill="midnightblue" stroke="midnightblue" points="405.156,-77.283 394.687,-75.6545 401.856,-83.456 405.156,-77.283"/>
</g>
<!-- Node10 -->
<g id="node10" class="node"><title>Node10</title>
<g id="a_node10"><a xlink:title=" ">
<polygon fill="white" stroke="#bfbfbf" points="457.5,-56.5 457.5,-75.5 505.5,-75.5 505.5,-56.5 457.5,-56.5"/>
<text text-anchor="middle" x="481.5" y="-63.5" font-family="Helvetica,sans-Serif" font-size="10.00">limits.h</text>
</a>
</g>
</g>
<!-- Node6&#45;&gt;Node10 -->
<g id="edge10" class="edge"><title>Node6&#45;&gt;Node10</title>
<path fill="none" stroke="midnightblue" d="M479.83,-112.083C480.092,-105.006 480.468,-94.8611 480.797,-85.9865"/>
<polygon fill="midnightblue" stroke="midnightblue" points="484.303,-85.8738 481.176,-75.7511 477.308,-85.6147 484.303,-85.8738"/>
</g>
<!-- Node11 -->
<g id="node11" class="node"><title>Node11</title>
<g id="a_node11"><a xlink:title=" ">
<polygon fill="white" stroke="#bfbfbf" points="641.5,-56.5 641.5,-75.5 693.5,-75.5 693.5,-56.5 641.5,-56.5"/>
<text text-anchor="middle" x="667.5" y="-63.5" font-family="Helvetica,sans-Serif" font-size="10.00">stddef.h</text>
</a>
</g>
</g>
<!-- Node6&#45;&gt;Node11 -->
<g id="edge11" class="edge"><title>Node6&#45;&gt;Node11</title>
<path fill="none" stroke="midnightblue" d="M509.289,-112.444C542.46,-102.916 596.065,-87.5187 631.543,-77.328"/>
<polygon fill="midnightblue" stroke="midnightblue" points="632.838,-80.5978 641.483,-74.473 630.905,-73.8698 632.838,-80.5978"/>
</g>
<!-- Node12 -->
<g id="node12" class="node"><title>Node12</title>
<g id="a_node12"><a xlink:title=" ">
<polygon fill="white" stroke="#bfbfbf" points="712,-56.5 712,-75.5 761,-75.5 761,-56.5 712,-56.5"/>
<text text-anchor="middle" x="736.5" y="-63.5" font-family="Helvetica,sans-Serif" font-size="10.00">stdint.h</text>
</a>
</g>
</g>
<!-- Node6&#45;&gt;Node12 -->
<g id="edge12" class="edge"><title>Node6&#45;&gt;Node12</title>
<path fill="none" stroke="midnightblue" d="M515.174,-114.481C557.339,-106.626 629.838,-92.6554 701.55,-76.1096"/>
<polygon fill="midnightblue" stroke="midnightblue" points="702.713,-79.4325 711.66,-73.7582 701.127,-72.6145 702.713,-79.4325"/>
</g>
<!-- Node7&#45;&gt;Node5 -->
<g id="edge7" class="edge"><title>Node7&#45;&gt;Node5</title>
<path fill="none" stroke="midnightblue" d="M573.5,-56.083C573.5,-49.0059 573.5,-38.8611 573.5,-29.9865"/>
<polygon fill="midnightblue" stroke="midnightblue" points="577,-29.751 573.5,-19.7511 570,-29.7511 577,-29.751"/>
</g>
<!-- Node9 -->
<g id="node9" class="node"><title>Node9</title>
<g id="a_node9"><a xlink:title=" ">
<polygon fill="white" stroke="#bfbfbf" points="172.5,-0.5 172.5,-19.5 230.5,-19.5 230.5,-0.5 172.5,-0.5"/>
<text text-anchor="middle" x="201.5" y="-7.5" font-family="Helvetica,sans-Serif" font-size="10.00">Arduino.h</text>
</a>
</g>
</g>
<!-- Node8&#45;&gt;Node9 -->
<g id="edge9" class="edge"><title>Node8&#45;&gt;Node9</title>
<path fill="none" stroke="midnightblue" d="M350.454,-56.4435C320.418,-47.2801 272.587,-32.6876 239.257,-22.5192"/>
<polygon fill="midnightblue" stroke="midnightblue" points="240.001,-19.0869 229.415,-19.5164 237.958,-25.7822 240.001,-19.0869"/>
</g>
<!-- Node14&#45;&gt;Node9 -->
<g id="edge16" class="edge"><title>Node14&#45;&gt;Node9</title>
<path fill="none" stroke="midnightblue" d="M157.944,-168.45C149.412,-160.12 137.511,-146.604 132.5,-132 121.538,-100.051 116.411,-85.7001 132.5,-56 140.249,-41.6958 154.734,-31.2188 168.44,-23.992"/>
<polygon fill="midnightblue" stroke="midnightblue" points="170.238,-27.0103 177.712,-19.501 167.186,-20.7104 170.238,-27.0103"/>
</g>
<!-- Node15&#45;&gt;Node3 -->
<g id="edge18" class="edge"><title>Node15&#45;&gt;Node3</title>
<path fill="none" stroke="midnightblue" d="M445.207,-280.444C420.693,-271.438 381.904,-257.189 354.3,-247.049"/>
<polygon fill="midnightblue" stroke="midnightblue" points="355.277,-243.679 344.684,-243.516 352.863,-250.25 355.277,-243.679"/>
</g>
<!-- Node16&#45;&gt;Node3 -->
<g id="edge20" class="edge"><title>Node16&#45;&gt;Node3</title>
<path fill="none" stroke="midnightblue" d="M244.281,-280.324C258.767,-271.822 281.073,-258.729 297.993,-248.797"/>
<polygon fill="midnightblue" stroke="midnightblue" points="299.903,-251.735 306.755,-243.655 296.359,-245.698 299.903,-251.735"/>
</g>
<!-- Node17 -->
<g id="node17" class="node"><title>Node17</title>
<g id="a_node17"><a xlink:title=" ">
<polygon fill="white" stroke="#bfbfbf" points="204.5,-224.5 204.5,-243.5 252.5,-243.5 252.5,-224.5 204.5,-224.5"/>
<text text-anchor="middle" x="228.5" y="-231.5" font-family="Helvetica,sans-Serif" font-size="10.00">stdlib.h</text>
</a>
</g>
</g>
<!-- Node16&#45;&gt;Node17 -->
<g id="edge21" class="edge"><title>Node16&#45;&gt;Node17</title>
<path fill="none" stroke="midnightblue" d="M229.335,-280.083C229.204,-273.006 229.016,-262.861 228.852,-253.986"/>
<polygon fill="midnightblue" stroke="midnightblue" points="232.347,-253.685 228.662,-243.751 225.348,-253.814 232.347,-253.685"/>
</g>
<!-- Node18 -->
<g id="node18" class="node"><title>Node18</title>
<g id="a_node18"><a xlink:href="../../d7/d79/MinMaxFix_8hpp.html" target="_top" xlink:title=" ">
<polygon fill="white" stroke="black" points="141.5,-56.5 141.5,-75.5 261.5,-75.5 261.5,-56.5 141.5,-56.5"/>
<text text-anchor="middle" x="201.5" y="-63.5" font-family="Helvetica,sans-Serif" font-size="10.00">Helpers/MinMaxFix.hpp</text>
</a>
</g>
</g>
<!-- Node16&#45;&gt;Node18 -->
<g id="edge22" class="edge"><title>Node16&#45;&gt;Node18</title>
<path fill="none" stroke="midnightblue" d="M212.547,-280.337C185.801,-265.587 134.772,-232.784 114.5,-188 104.144,-165.121 128.761,-116.899 132.5,-112 142.793,-98.5142 158.363,-87.8641 172.109,-80.3173"/>
<polygon fill="midnightblue" stroke="midnightblue" points="173.972,-83.2943 181.247,-75.5917 170.756,-77.0765 173.972,-83.2943"/>
</g>
<!-- Node19 -->
<g id="node19" class="node"><title>Node19</title>
<g id="a_node19"><a xlink:title=" ">
<polygon fill="white" stroke="#bfbfbf" points="0,-224.5 0,-243.5 47,-243.5 47,-224.5 0,-224.5"/>
<text text-anchor="middle" x="23.5" y="-231.5" font-family="Helvetica,sans-Serif" font-size="10.00">iterator</text>
</a>
</g>
</g>
<!-- Node16&#45;&gt;Node19 -->
<g id="edge25" class="edge"><title>Node16&#45;&gt;Node19</title>
<path fill="none" stroke="midnightblue" d="M196.859,-280.444C158.534,-270.397 95.3147,-253.825 56.735,-243.712"/>
<polygon fill="midnightblue" stroke="midnightblue" points="57.5786,-240.315 47.0179,-241.165 55.8036,-247.086 57.5786,-240.315"/>
</g>
<!-- Node18&#45;&gt;Node5 -->
<g id="edge24" class="edge"><title>Node18&#45;&gt;Node5</title>
<path fill="none" stroke="midnightblue" d="M260.445,-56.4435C326.835,-46.8061 434.596,-31.1635 504.761,-20.9782"/>
<polygon fill="midnightblue" stroke="midnightblue" points="505.438,-24.4168 514.831,-19.5164 504.432,-17.4894 505.438,-24.4168"/>
</g>
<!-- Node18&#45;&gt;Node9 -->
<g id="edge23" class="edge"><title>Node18&#45;&gt;Node9</title>
<path fill="none" stroke="midnightblue" d="M201.5,-56.083C201.5,-49.0059 201.5,-38.8611 201.5,-29.9865"/>
<polygon fill="midnightblue" stroke="midnightblue" points="205,-29.751 201.5,-19.7511 198,-29.7511 205,-29.751"/>
</g>
<!-- Node20&#45;&gt;Node12 -->
<g id="edge40" class="edge"><title>Node20&#45;&gt;Node12</title>
<path fill="none" stroke="midnightblue" d="M569.895,-448.467C608.416,-434.165 675.5,-401.441 675.5,-347 675.5,-347 675.5,-347 675.5,-177 675.5,-139.574 702.84,-102.958 720.913,-82.8412"/>
<polygon fill="midnightblue" stroke="midnightblue" points="723.495,-85.2053 727.76,-75.5071 718.378,-80.4285 723.495,-85.2053"/>
</g>
<!-- Node20&#45;&gt;Node15 -->
<g id="edge38" class="edge"><title>Node20&#45;&gt;Node15</title>
<path fill="none" stroke="midnightblue" d="M527.786,-448.483C515.057,-440.715 497.766,-428.019 488.5,-412 469.816,-379.701 467.34,-334.921 467.637,-309.883"/>
<polygon fill="midnightblue" stroke="midnightblue" points="471.144,-309.697 467.934,-299.601 464.147,-309.495 471.144,-309.697"/>
</g>
<!-- Node21 -->
<g id="node21" class="node"><title>Node21</title>
<g id="a_node21"><a xlink:href="../../d0/d4e/Def_8hpp.html" target="_top" xlink:title=" ">
<polygon fill="white" stroke="black" points="703.5,-392.5 703.5,-411.5 773.5,-411.5 773.5,-392.5 703.5,-392.5"/>
<text text-anchor="middle" x="738.5" y="-399.5" font-family="Helvetica,sans-Serif" font-size="10.00">Def/Def.hpp</text>
</a>
</g>
</g>
<!-- Node20&#45;&gt;Node21 -->
<g id="edge27" class="edge"><title>Node20&#45;&gt;Node21</title>
<path fill="none" stroke="midnightblue" d="M574.398,-448.444C607.774,-439.201 661.094,-424.436 697.849,-414.257"/>
<polygon fill="midnightblue" stroke="midnightblue" points="699.043,-417.558 707.746,-411.516 697.175,-410.812 699.043,-417.558"/>
</g>
<!-- Node24 -->
<g id="node24" class="node"><title>Node24</title>
<g id="a_node24"><a xlink:href="../../d7/dd7/Helpers_8hpp.html" target="_top" xlink:title=" ">
<polygon fill="white" stroke="black" points="497.5,-392.5 497.5,-411.5 603.5,-411.5 603.5,-392.5 497.5,-392.5"/>
<text text-anchor="middle" x="550.5" y="-399.5" font-family="Helvetica,sans-Serif" font-size="10.00">Helpers/Helpers.hpp</text>
</a>
</g>
</g>
<!-- Node20&#45;&gt;Node24 -->
<g id="edge39" class="edge"><title>Node20&#45;&gt;Node24</title>
<path fill="none" stroke="midnightblue" d="M544.656,-448.083C545.584,-440.927 546.918,-430.635 548.077,-421.691"/>
<polygon fill="midnightblue" stroke="midnightblue" points="551.551,-422.118 549.366,-411.751 544.609,-421.218 551.551,-422.118"/>
</g>
<!-- Node21&#45;&gt;Node5 -->
<g id="edge35" class="edge"><title>Node21&#45;&gt;Node5</title>
<path fill="none" stroke="midnightblue" d="M745.807,-392.231C759.909,-374.385 789.5,-332.047 789.5,-291 789.5,-291 789.5,-291 789.5,-121 789.5,-90.7745 791.636,-76.5805 769.5,-56 751.477,-39.2438 693.868,-27.2961 645.737,-19.9423"/>
<polygon fill="midnightblue" stroke="midnightblue" points="646.033,-16.448 635.627,-18.4427 645.005,-23.3722 646.033,-16.448"/>
</g>
<!-- Node21&#45;&gt;Node7 -->
<g id="edge31" class="edge"><title>Node21&#45;&gt;Node7</title>
<path fill="none" stroke="midnightblue" d="M703.378,-398.082C652.51,-393.045 562.239,-380.784 542.5,-356 536.962,-349.047 542.456,-344.889 542.5,-336 542.722,-291.109 543.5,-279.891 543.5,-235 543.5,-235 543.5,-235 543.5,-177 543.5,-143.64 556.501,-106.532 565.386,-85.0673"/>
<polygon fill="midnightblue" stroke="midnightblue" points="568.713,-86.1901 569.454,-75.6212 562.284,-83.4213 568.713,-86.1901"/>
</g>
<!-- Node21&#45;&gt;Node11 -->
<g id="edge36" class="edge"><title>Node21&#45;&gt;Node11</title>
<path fill="none" stroke="midnightblue" d="M735.128,-392.313C728.304,-373.923 713.5,-329.581 713.5,-291 713.5,-291 713.5,-291 713.5,-177 713.5,-141.817 693.222,-104.863 679.593,-83.9988"/>
<polygon fill="midnightblue" stroke="midnightblue" points="682.41,-81.9156 673.896,-75.609 676.619,-85.8481 682.41,-81.9156"/>
</g>
<!-- Node21&#45;&gt;Node12 -->
<g id="edge37" class="edge"><title>Node21&#45;&gt;Node12</title>
<path fill="none" stroke="midnightblue" d="M740.2,-392.483C743.723,-374.056 751.5,-329.076 751.5,-291 751.5,-291 751.5,-291 751.5,-177 751.5,-144.502 744.993,-107.095 740.551,-85.343"/>
<polygon fill="midnightblue" stroke="midnightblue" points="743.962,-84.5586 738.461,-75.5039 737.115,-86.0128 743.962,-84.5586"/>
</g>
<!-- Node22 -->
<g id="node22" class="node"><title>Node22</title>
<g id="a_node22"><a xlink:href="../../d7/d42/Channel_8hpp.html" target="_top" xlink:title=" ">
<polygon fill="white" stroke="black" points="818,-112.5 818,-131.5 889,-131.5 889,-112.5 818,-112.5"/>
<text text-anchor="middle" x="853.5" y="-119.5" font-family="Helvetica,sans-Serif" font-size="10.00">Channel.hpp</text>
</a>
</g>
</g>
<!-- Node21&#45;&gt;Node22 -->
<g id="edge28" class="edge"><title>Node21&#45;&gt;Node22</title>
<path fill="none" stroke="midnightblue" d="M755.803,-392.455C784.904,-376.722 840.5,-340.223 840.5,-291 840.5,-291 840.5,-291 840.5,-233 840.5,-200.576 846.139,-163.146 849.99,-141.369"/>
<polygon fill="midnightblue" stroke="midnightblue" points="853.435,-141.985 851.8,-131.517 846.55,-140.72 853.435,-141.985"/>
</g>
<!-- Node23 -->
<g id="node23" class="node"><title>Node23</title>
<g id="a_node23"><a xlink:href="../../de/d76/Array_8hpp.html" target="_top" xlink:title=" ">
<polygon fill="white" stroke="black" points="552,-336.5 552,-355.5 647,-355.5 647,-336.5 552,-336.5"/>
<text text-anchor="middle" x="599.5" y="-343.5" font-family="Helvetica,sans-Serif" font-size="10.00">Helpers/Array.hpp</text>
</a>
</g>
</g>
<!-- Node21&#45;&gt;Node23 -->
<g id="edge32" class="edge"><title>Node21&#45;&gt;Node23</title>
<path fill="none" stroke="midnightblue" d="M716.475,-392.444C693.396,-383.478 656.938,-369.314 630.859,-359.183"/>
<polygon fill="midnightblue" stroke="midnightblue" points="632.011,-355.875 621.422,-355.516 629.476,-362.4 632.011,-355.875"/>
</g>
<!-- Node22&#45;&gt;Node5 -->
<g id="edge30" class="edge"><title>Node22&#45;&gt;Node5</title>
<path fill="none" stroke="midnightblue" d="M849.38,-112.204C842.209,-97.9338 826.018,-69.9351 803.5,-56 756.179,-26.716 693.771,-15.8781 645.904,-12.1348"/>
<polygon fill="midnightblue" stroke="midnightblue" points="646.14,-8.64288 635.921,-11.4397 645.654,-15.626 646.14,-8.64288"/>
</g>
<!-- Node22&#45;&gt;Node12 -->
<g id="edge29" class="edge"><title>Node22&#45;&gt;Node12</title>
<path fill="none" stroke="midnightblue" d="M834.961,-112.444C815.877,-103.636 785.925,-89.8116 764.064,-79.722"/>
<polygon fill="midnightblue" stroke="midnightblue" points="765.499,-76.5292 754.952,-75.5164 762.565,-82.8849 765.499,-76.5292"/>
</g>
<!-- Node23&#45;&gt;Node11 -->
<g id="edge34" class="edge"><title>Node23&#45;&gt;Node11</title>
<path fill="none" stroke="midnightblue" d="M602.062,-336.249C607.249,-317.738 618.5,-273.179 618.5,-235 618.5,-235 618.5,-235 618.5,-177 618.5,-141.466 640.1,-104.627 654.618,-83.8799"/>
<polygon fill="midnightblue" stroke="midnightblue" points="657.631,-85.6871 660.687,-75.5423 651.972,-81.5675 657.631,-85.6871"/>
</g>
<!-- Node23&#45;&gt;Node15 -->
<g id="edge33" class="edge"><title>Node23&#45;&gt;Node15</title>
<path fill="none" stroke="midnightblue" d="M578.743,-336.444C557.184,-327.557 523.237,-313.563 498.706,-303.451"/>
<polygon fill="midnightblue" stroke="midnightblue" points="499.739,-300.092 489.16,-299.516 497.072,-306.563 499.739,-300.092"/>
</g>
<!-- Node25&#45;&gt;Node21 -->
<g id="edge43" class="edge"><title>Node25&#45;&gt;Node21</title>
<path fill="none" stroke="midnightblue" d="M678.907,-448.324C689.609,-440.185 705.841,-427.839 718.663,-418.087"/>
<polygon fill="midnightblue" stroke="midnightblue" points="721.044,-420.673 726.885,-411.834 716.807,-415.102 721.044,-420.673"/>
</g>
<!-- Node26&#45;&gt;Node21 -->
<g id="edge45" class="edge"><title>Node26&#45;&gt;Node21</title>
<path fill="none" stroke="midnightblue" d="M713.619,-504.368C717.976,-486.617 728.027,-445.666 733.935,-421.597"/>
<polygon fill="midnightblue" stroke="midnightblue" points="737.406,-422.137 736.391,-411.591 730.608,-420.469 737.406,-422.137"/>
</g>
</g>
</svg>
