<?xml version="1.0" encoding="UTF-8" standalone="no"?>
<!DOCTYPE svg PUBLIC "-//W3C//DTD SVG 1.1//EN"
 "http://www.w3.org/Graphics/SVG/1.1/DTD/svg11.dtd">
<!-- Generated by graphviz version 2.38.0 (20140413.2041)
 -->
<!-- Title: Channel::getRaw Pages: 1 -->
<svg width="474pt" height="487pt"
 viewBox="0.00 0.00 474.00 486.50" xmlns="http://www.w3.org/2000/svg" xmlns:xlink="http://www.w3.org/1999/xlink">
<g id="graph0" class="graph" transform="scale(1 1) rotate(0) translate(4 482.5)">
<title>Channel::getRaw</title>
<polygon fill="white" stroke="none" points="-4,4 -4,-482.5 470,-482.5 470,4 -4,4"/>
<!-- Node1 -->
<g id="node1" class="node"><title>Node1</title>
<g id="a_node1"><a xlink:title="Get the channel as an integer.">
<polygon fill="#bfbfbf" stroke="black" points="374,-186.5 374,-205.5 466,-205.5 466,-186.5 374,-186.5"/>
<text text-anchor="middle" x="420" y="-193.5" font-family="Helvetica,sans-Serif" font-size="10.00">Channel::getRaw</text>
</a>
</g>
</g>
<!-- Node2 -->
<g id="node2" class="node"><title>Node2</title>
<g id="a_node2"><a xlink:href="../../db/d6e/classBankableMIDIInput.html#a239ccb004b25fa96f720406e271ac881" target="_top" xlink:title="Calculate the bank setting of a given MIDI address, relative to a base address.">
<polygon fill="white" stroke="black" points="200.5,-380 200.5,-410 307.5,-410 307.5,-380 200.5,-380"/>
<text text-anchor="start" x="208.5" y="-398" font-family="Helvetica,sans-Serif" font-size="10.00">BankableMIDIInput::</text>
<text text-anchor="middle" x="254" y="-387" font-family="Helvetica,sans-Serif" font-size="10.00">getIndex</text>
</a>
</g>
</g>
<!-- Node1&#45;&gt;Node2 -->
<g id="edge1" class="edge"><title>Node1&#45;&gt;Node2</title>
<path fill="none" stroke="midnightblue" d="M413.161,-215.582C402.735,-247.666 378.168,-311.869 338,-352 326.175,-363.814 310.429,-373.083 295.832,-379.941"/>
<polygon fill="midnightblue" stroke="midnightblue" points="416.618,-216.254 416.261,-205.665 409.936,-214.165 416.618,-216.254"/>
</g>
<!-- Node6 -->
<g id="node6" class="node"><title>Node6</title>
<g id="a_node6"><a xlink:href="../../db/d6e/classBankableMIDIInput.html#aee737e5e10cdda105bc65c0424f71cc0" target="_top" xlink:title="Check whether a given address is part of the bank relative to the base address.">
<polygon fill="white" stroke="black" points="200.5,-313 200.5,-343 307.5,-343 307.5,-313 200.5,-313"/>
<text text-anchor="start" x="208.5" y="-331" font-family="Helvetica,sans-Serif" font-size="10.00">BankableMIDIInput::</text>
<text text-anchor="middle" x="254" y="-320" font-family="Helvetica,sans-Serif" font-size="10.00">matchBankable</text>
</a>
</g>
</g>
<!-- Node1&#45;&gt;Node6 -->
<g id="edge5" class="edge"><title>Node1&#45;&gt;Node6</title>
<path fill="none" stroke="midnightblue" d="M409.664,-214.725C396.778,-238.681 371.306,-279.836 338,-303 328.981,-309.273 318.356,-314.001 307.776,-317.555"/>
<polygon fill="midnightblue" stroke="midnightblue" points="412.894,-216.101 414.402,-205.614 406.683,-212.871 412.894,-216.101"/>
</g>
<!-- Node7 -->
<g id="node7" class="node"><title>Node7</title>
<g id="a_node7"><a xlink:href="../../df/d9b/classMIDICNChannel.html#adc1ff6e8f2fa717352eb5f858df81c78" target="_top" xlink:title=" ">
<polygon fill="white" stroke="black" points="170,-274.5 170,-293.5 338,-293.5 338,-274.5 170,-274.5"/>
<text text-anchor="middle" x="254" y="-281.5" font-family="Helvetica,sans-Serif" font-size="10.00">MIDICNChannel::MIDICNChannel</text>
</a>
</g>
</g>
<!-- Node1&#45;&gt;Node7 -->
<g id="edge6" class="edge"><title>Node1&#45;&gt;Node7</title>
<path fill="none" stroke="midnightblue" d="M402.984,-213.418C387.737,-228.958 363.404,-251.178 338,-264 329.399,-268.341 319.815,-271.767 310.301,-274.463"/>
<polygon fill="midnightblue" stroke="midnightblue" points="405.708,-215.634 410.087,-205.986 400.647,-210.798 405.708,-215.634"/>
</g>
<!-- Node8 -->
<g id="node8" class="node"><title>Node8</title>
<g id="a_node8"><a xlink:href="../../d3/d10/classMIDICNChannelAddress.html#a65c831b77c8d5f0d89706e1d41303a77" target="_top" xlink:title=" ">
<polygon fill="white" stroke="black" points="188.5,-225 188.5,-255 319.5,-255 319.5,-225 188.5,-225"/>
<text text-anchor="start" x="196.5" y="-243" font-family="Helvetica,sans-Serif" font-size="10.00">MIDICNChannelAddress</text>
<text text-anchor="middle" x="254" y="-232" font-family="Helvetica,sans-Serif" font-size="10.00">::MIDICNChannelAddress</text>
</a>
</g>
</g>
<!-- Node1&#45;&gt;Node8 -->
<g id="edge7" class="edge"><title>Node1&#45;&gt;Node8</title>
<path fill="none" stroke="midnightblue" d="M373.644,-208.169C354.304,-213.357 331.541,-219.465 311.153,-224.935"/>
<polygon fill="midnightblue" stroke="midnightblue" points="374.663,-211.519 383.414,-205.547 372.849,-204.758 374.663,-211.519"/>
</g>
<!-- Node9 -->
<g id="node9" class="node"><title>Node9</title>
<g id="a_node9"><a xlink:href="../../d9/d73/classMIDI__Interface.html#a3549169b2cfd90f2d11a19f551407b12" target="_top" xlink:title=" ">
<polygon fill="white" stroke="black" points="192,-186.5 192,-205.5 316,-205.5 316,-186.5 192,-186.5"/>
<text text-anchor="middle" x="254" y="-193.5" font-family="Helvetica,sans-Serif" font-size="10.00">MIDI_Interface::sendCC</text>
</a>
</g>
</g>
<!-- Node1&#45;&gt;Node9 -->
<g id="edge8" class="edge"><title>Node1&#45;&gt;Node9</title>
<path fill="none" stroke="midnightblue" d="M363.448,-196C348.205,-196 331.598,-196 316.064,-196"/>
<polygon fill="midnightblue" stroke="midnightblue" points="363.752,-199.5 373.752,-196 363.752,-192.5 363.752,-199.5"/>
</g>
<!-- Node14 -->
<g id="node14" class="node"><title>Node14</title>
<g id="a_node14"><a xlink:href="../../d9/d73/classMIDI__Interface.html#a2c79441f44b904566d237b05b8b3c2fb" target="_top" xlink:title=" ">
<polygon fill="white" stroke="black" points="182.5,-146.5 182.5,-165.5 325.5,-165.5 325.5,-146.5 182.5,-146.5"/>
<text text-anchor="middle" x="254" y="-153.5" font-family="Helvetica,sans-Serif" font-size="10.00">MIDI_Interface::sendNoteOff</text>
</a>
</g>
</g>
<!-- Node1&#45;&gt;Node14 -->
<g id="edge13" class="edge"><title>Node1&#45;&gt;Node14</title>
<path fill="none" stroke="midnightblue" d="M369.965,-184.04C345.662,-178.113 316.724,-171.055 293.962,-165.503"/>
<polygon fill="midnightblue" stroke="midnightblue" points="369.173,-187.45 379.718,-186.419 370.832,-180.649 369.173,-187.45"/>
</g>
<!-- Node16 -->
<g id="node16" class="node"><title>Node16</title>
<g id="a_node16"><a xlink:href="../../d9/d73/classMIDI__Interface.html#a80c4843f88185a213ebe20a26c0fd579" target="_top" xlink:title=" ">
<polygon fill="white" stroke="black" points="182.5,-104.5 182.5,-123.5 325.5,-123.5 325.5,-104.5 182.5,-104.5"/>
<text text-anchor="middle" x="254" y="-111.5" font-family="Helvetica,sans-Serif" font-size="10.00">MIDI_Interface::sendNoteOn</text>
</a>
</g>
</g>
<!-- Node1&#45;&gt;Node16 -->
<g id="edge15" class="edge"><title>Node1&#45;&gt;Node16</title>
<path fill="none" stroke="midnightblue" d="M400.453,-179.47C384.794,-166.289 361.264,-148.236 338,-137 326.42,-131.407 313.254,-126.977 300.874,-123.558"/>
<polygon fill="midnightblue" stroke="midnightblue" points="398.429,-182.346 408.291,-186.217 402.996,-177.041 398.429,-182.346"/>
</g>
<!-- Node18 -->
<g id="node18" class="node"><title>Node18</title>
<g id="a_node18"><a xlink:href="../../d9/d73/classMIDI__Interface.html#a095f45d6e0780a90e3d4482639196a8f" target="_top" xlink:title=" ">
<polygon fill="white" stroke="black" points="193,-58.5 193,-77.5 315,-77.5 315,-58.5 193,-58.5"/>
<text text-anchor="middle" x="254" y="-65.5" font-family="Helvetica,sans-Serif" font-size="10.00">MIDI_Interface::sendPB</text>
</a>
</g>
</g>
<!-- Node1&#45;&gt;Node18 -->
<g id="edge17" class="edge"><title>Node1&#45;&gt;Node18</title>
<path fill="none" stroke="midnightblue" d="M408.741,-177.457C395.319,-154.842 369.733,-116.928 338,-95 326.78,-87.247 313.191,-81.6083 300.285,-77.5554"/>
<polygon fill="midnightblue" stroke="midnightblue" points="405.86,-179.468 413.881,-186.39 411.927,-175.977 405.86,-179.468"/>
</g>
<!-- Node20 -->
<g id="node20" class="node"><title>Node20</title>
<g id="a_node20"><a xlink:href="../../d9/d73/classMIDI__Interface.html#a4a65c24407953467490db83689d12dc4" target="_top" xlink:title=" ">
<polygon fill="white" stroke="black" points="192.5,-3.5 192.5,-22.5 315.5,-22.5 315.5,-3.5 192.5,-3.5"/>
<text text-anchor="middle" x="254" y="-10.5" font-family="Helvetica,sans-Serif" font-size="10.00">MIDI_Interface::sendPC</text>
</a>
</g>
</g>
<!-- Node1&#45;&gt;Node20 -->
<g id="edge19" class="edge"><title>Node1&#45;&gt;Node20</title>
<path fill="none" stroke="midnightblue" d="M412.994,-176.806C402.463,-146.001 377.91,-85.3102 338,-49 324.523,-36.7387 306.218,-28.1976 290.227,-22.5228"/>
<polygon fill="midnightblue" stroke="midnightblue" points="409.689,-177.959 416.137,-186.366 416.339,-175.773 409.689,-177.959"/>
</g>
<!-- Node3 -->
<g id="node3" class="node"><title>Node3</title>
<g id="a_node3"><a xlink:href="../../d0/d42/classBankable_1_1MIDINote.html#a4769f4ef31bc2d8e1b9f98793d20386f" target="_top" xlink:title="Update the internal state with the new MIDI message.">
<polygon fill="white" stroke="black" points="14,-448 14,-478 120,-478 120,-448 14,-448"/>
<text text-anchor="start" x="22" y="-466" font-family="Helvetica,sans-Serif" font-size="10.00">Bankable::MIDINote</text>
<text text-anchor="middle" x="67" y="-455" font-family="Helvetica,sans-Serif" font-size="10.00">::updateImpl</text>
</a>
</g>
</g>
<!-- Node2&#45;&gt;Node3 -->
<g id="edge2" class="edge"><title>Node2&#45;&gt;Node3</title>
<path fill="none" stroke="midnightblue" d="M203.054,-413.535C181.781,-421.412 156.686,-430.681 134,-439 126.102,-441.896 117.666,-444.975 109.557,-447.927"/>
<polygon fill="midnightblue" stroke="midnightblue" points="204.376,-416.778 212.537,-410.023 201.944,-410.214 204.376,-416.778"/>
</g>
<!-- Node4 -->
<g id="node4" class="node"><title>Node4</title>
<g id="a_node4"><a xlink:href="../../da/d93/classMCU_1_1Bankable_1_1VPotRing.html#a69a9006a95b273f56fa7e5aaa7da5b90" target="_top" xlink:title="Update the internal state with the new MIDI message.">
<polygon fill="white" stroke="black" points="0,-399 0,-429 134,-429 134,-399 0,-399"/>
<text text-anchor="start" x="8" y="-417" font-family="Helvetica,sans-Serif" font-size="10.00">MCU::Bankable::VPotRing</text>
<text text-anchor="middle" x="67" y="-406" font-family="Helvetica,sans-Serif" font-size="10.00">::updateImpl</text>
</a>
</g>
</g>
<!-- Node2&#45;&gt;Node4 -->
<g id="edge3" class="edge"><title>Node2&#45;&gt;Node4</title>
<path fill="none" stroke="midnightblue" d="M190.345,-401.435C172.264,-403.292 152.478,-405.324 134.189,-407.202"/>
<polygon fill="midnightblue" stroke="midnightblue" points="190.891,-404.897 200.481,-400.394 190.176,-397.934 190.891,-404.897"/>
</g>
<!-- Node5 -->
<g id="node5" class="node"><title>Node5</title>
<g id="a_node5"><a xlink:href="../../d0/d43/classMCU_1_1Bankable_1_1VU.html#ae57a47a82c7dc3ed4a8733de43f253ae" target="_top" xlink:title=" ">
<polygon fill="white" stroke="black" points="10.5,-350 10.5,-380 123.5,-380 123.5,-350 10.5,-350"/>
<text text-anchor="start" x="18.5" y="-368" font-family="Helvetica,sans-Serif" font-size="10.00">MCU::Bankable::VU&lt;</text>
<text text-anchor="middle" x="67" y="-357" font-family="Helvetica,sans-Serif" font-size="10.00"> M &gt;::updateImpl</text>
</a>
</g>
</g>
<!-- Node2&#45;&gt;Node5 -->
<g id="edge4" class="edge"><title>Node2&#45;&gt;Node5</title>
<path fill="none" stroke="midnightblue" d="M190.395,-384.848C168.731,-381.335 144.616,-377.424 123.557,-374.009"/>
<polygon fill="midnightblue" stroke="midnightblue" points="190.05,-388.338 200.481,-386.483 191.17,-381.428 190.05,-388.338"/>
</g>
<!-- Node10 -->
<g id="node10" class="node"><title>Node10</title>
<g id="a_node10"><a xlink:href="../../da/d07/classContinuousCCSender.html#a3dcde6121fc02f88b5a60a73b7e67ace" target="_top" xlink:title=" ">
<polygon fill="white" stroke="black" points="11,-301 11,-331 123,-331 123,-301 11,-301"/>
<text text-anchor="start" x="19" y="-319" font-family="Helvetica,sans-Serif" font-size="10.00">ContinuousCCSender</text>
<text text-anchor="middle" x="67" y="-308" font-family="Helvetica,sans-Serif" font-size="10.00">::send</text>
</a>
</g>
</g>
<!-- Node9&#45;&gt;Node10 -->
<g id="edge9" class="edge"><title>Node9&#45;&gt;Node10</title>
<path fill="none" stroke="midnightblue" d="M182.54,-207.13C178.069,-209.323 173.832,-211.922 170,-215 140.861,-238.406 161.468,-265.653 134,-291 129.858,-294.822 125.073,-298.078 120.011,-300.848"/>
<polygon fill="midnightblue" stroke="midnightblue" points="184.119,-210.264 191.995,-203.178 181.419,-203.806 184.119,-210.264"/>
</g>
<!-- Node11 -->
<g id="node11" class="node"><title>Node11</title>
<g id="a_node11"><a xlink:href="../../d3/dd0/classRelativeCCSender.html#a7436ec272c39bdbbe698d68a200e56c1" target="_top" xlink:title=" ">
<polygon fill="white" stroke="black" points="4.5,-262.5 4.5,-281.5 129.5,-281.5 129.5,-262.5 4.5,-262.5"/>
<text text-anchor="middle" x="67" y="-269.5" font-family="Helvetica,sans-Serif" font-size="10.00">RelativeCCSender::send</text>
</a>
</g>
</g>
<!-- Node9&#45;&gt;Node11 -->
<g id="edge10" class="edge"><title>Node9&#45;&gt;Node11</title>
<path fill="none" stroke="midnightblue" d="M182.427,-209.028C178.115,-210.774 173.934,-212.754 170,-215 149.796,-226.534 153.878,-240.912 134,-253 127.684,-256.841 120.555,-259.936 113.379,-262.421"/>
<polygon fill="midnightblue" stroke="midnightblue" points="183.813,-212.249 192.035,-205.567 181.44,-205.663 183.813,-212.249"/>
</g>
<!-- Node12 -->
<g id="node12" class="node"><title>Node12</title>
<g id="a_node12"><a xlink:href="../../d5/db5/classDigitalCCSender.html#ac2147259833611c3f7d023f4bb05b32e" target="_top" xlink:title=" ">
<polygon fill="white" stroke="black" points="1.5,-224.5 1.5,-243.5 132.5,-243.5 132.5,-224.5 1.5,-224.5"/>
<text text-anchor="middle" x="67" y="-231.5" font-family="Helvetica,sans-Serif" font-size="10.00">DigitalCCSender::sendOff</text>
</a>
</g>
</g>
<!-- Node9&#45;&gt;Node12 -->
<g id="edge11" class="edge"><title>Node9&#45;&gt;Node12</title>
<path fill="none" stroke="midnightblue" d="M196.48,-207.61C170.169,-213.014 139.257,-219.364 114.348,-224.48"/>
<polygon fill="midnightblue" stroke="midnightblue" points="197.225,-211.03 206.317,-205.589 195.817,-204.173 197.225,-211.03"/>
</g>
<!-- Node13 -->
<g id="node13" class="node"><title>Node13</title>
<g id="a_node13"><a xlink:href="../../d5/db5/classDigitalCCSender.html#a289dc5bbfa0ad2409834b4be952323fd" target="_top" xlink:title=" ">
<polygon fill="white" stroke="black" points="2,-186.5 2,-205.5 132,-205.5 132,-186.5 2,-186.5"/>
<text text-anchor="middle" x="67" y="-193.5" font-family="Helvetica,sans-Serif" font-size="10.00">DigitalCCSender::sendOn</text>
</a>
</g>
</g>
<!-- Node9&#45;&gt;Node13 -->
<g id="edge12" class="edge"><title>Node9&#45;&gt;Node13</title>
<path fill="none" stroke="midnightblue" d="M181.874,-196C165.525,-196 148.234,-196 132.199,-196"/>
<polygon fill="midnightblue" stroke="midnightblue" points="181.911,-199.5 191.911,-196 181.911,-192.5 181.911,-199.5"/>
</g>
<!-- Node15 -->
<g id="node15" class="node"><title>Node15</title>
<g id="a_node15"><a xlink:href="../../dc/dd4/classDigitalNoteSender.html#a69fe04157ae8d5e14f09a31c9e0304a0" target="_top" xlink:title=" ">
<polygon fill="white" stroke="black" points="16,-137 16,-167 118,-167 118,-137 16,-137"/>
<text text-anchor="start" x="24" y="-155" font-family="Helvetica,sans-Serif" font-size="10.00">DigitalNoteSender::</text>
<text text-anchor="middle" x="67" y="-144" font-family="Helvetica,sans-Serif" font-size="10.00">sendOff</text>
</a>
</g>
</g>
<!-- Node14&#45;&gt;Node15 -->
<g id="edge14" class="edge"><title>Node14&#45;&gt;Node15</title>
<path fill="none" stroke="midnightblue" d="M172.124,-154.251C153.717,-153.853 134.686,-153.442 118.009,-153.081"/>
<polygon fill="midnightblue" stroke="midnightblue" points="172.194,-157.754 182.268,-154.471 172.346,-150.755 172.194,-157.754"/>
</g>
<!-- Node17 -->
<g id="node17" class="node"><title>Node17</title>
<g id="a_node17"><a xlink:href="../../dc/dd4/classDigitalNoteSender.html#af60f52313c3d9ad166bc9327de681d3c" target="_top" xlink:title=" ">
<polygon fill="white" stroke="black" points="16,-88 16,-118 118,-118 118,-88 16,-88"/>
<text text-anchor="start" x="24" y="-106" font-family="Helvetica,sans-Serif" font-size="10.00">DigitalNoteSender::</text>
<text text-anchor="middle" x="67" y="-95" font-family="Helvetica,sans-Serif" font-size="10.00">sendOn</text>
</a>
</g>
</g>
<!-- Node16&#45;&gt;Node17 -->
<g id="edge16" class="edge"><title>Node16&#45;&gt;Node17</title>
<path fill="none" stroke="midnightblue" d="M172.124,-109.191C153.717,-108.097 134.686,-106.965 118.009,-105.974"/>
<polygon fill="midnightblue" stroke="midnightblue" points="172.077,-112.694 182.268,-109.794 172.493,-105.707 172.077,-112.694"/>
</g>
<!-- Node19 -->
<g id="node19" class="node"><title>Node19</title>
<g id="a_node19"><a xlink:href="../../de/d46/classPitchBendSender.html#ad351c6a6e015e2a54fa81516ee7eefcf" target="_top" xlink:title=" ">
<polygon fill="white" stroke="black" points="11,-39 11,-69 123,-69 123,-39 11,-39"/>
<text text-anchor="start" x="19" y="-57" font-family="Helvetica,sans-Serif" font-size="10.00">PitchBendSender&lt; 10</text>
<text text-anchor="middle" x="67" y="-46" font-family="Helvetica,sans-Serif" font-size="10.00"> &gt;::send</text>
</a>
</g>
</g>
<!-- Node18&#45;&gt;Node19 -->
<g id="edge18" class="edge"><title>Node18&#45;&gt;Node19</title>
<path fill="none" stroke="midnightblue" d="M182.756,-62.6842C162.998,-61.1891 141.8,-59.5849 123.067,-58.1672"/>
<polygon fill="midnightblue" stroke="midnightblue" points="182.7,-66.1899 192.936,-63.4546 183.228,-59.2099 182.7,-66.1899"/>
</g>
<!-- Node21 -->
<g id="node21" class="node"><title>Node21</title>
<g id="a_node21"><a xlink:href="../../de/d43/classProgramChanger.html#a272cadb089ee0c7beebc5e9c496cd7d5" target="_top" xlink:title=" ">
<polygon fill="white" stroke="black" points="6,-0.5 6,-19.5 128,-19.5 128,-0.5 6,-0.5"/>
<text text-anchor="middle" x="67" y="-7.5" font-family="Helvetica,sans-Serif" font-size="10.00">ProgramChanger::select</text>
</a>
</g>
</g>
<!-- Node20&#45;&gt;Node21 -->
<g id="edge20" class="edge"><title>Node20&#45;&gt;Node21</title>
<path fill="none" stroke="midnightblue" d="M182.084,-11.85C164.265,-11.561 145.313,-11.2537 128.08,-10.9743"/>
<polygon fill="midnightblue" stroke="midnightblue" points="182.369,-15.355 192.424,-12.0177 182.482,-8.35591 182.369,-15.355"/>
</g>
</g>
</svg>
