<?xml version="1.0" encoding="UTF-8" standalone="no"?>
<!DOCTYPE svg PUBLIC "-//W3C//DTD SVG 1.1//EN"
 "http://www.w3.org/Graphics/SVG/1.1/DTD/svg11.dtd">
<!-- Generated by graphviz version 2.38.0 (20140413.2041)
 -->
<!-- Title: Channel::getRaw Pages: 1 -->
<svg width="474pt" height="487pt"
 viewBox="0.00 0.00 474.00 486.50" xmlns="http://www.w3.org/2000/svg" xmlns:xlink="http://www.w3.org/1999/xlink">
<g id="graph0" class="graph" transform="scale(1 1) rotate(0) translate(4 482.5)">
<title>Channel::getRaw</title>
<polygon fill="white" stroke="none" points="-4,4 -4,-482.5 470,-482.5 470,4 -4,4"/>
<!-- Node3 -->
<g id="node1" class="node"><title>Node3</title>
<g id="a_node1"><a xlink:title="Get the channel as an integer.">
<polygon fill="#bfbfbf" stroke="black" points="374,-164.5 374,-183.5 466,-183.5 466,-164.5 374,-164.5"/>
<text text-anchor="middle" x="420" y="-171.5" font-family="Helvetica,sans-Serif" font-size="10.00">Channel::getRaw</text>
</a>
</g>
</g>
<!-- Node4 -->
<g id="node2" class="node"><title>Node4</title>
<g id="a_node2"><a xlink:href="../../db/d6e/classBankableMIDIInput.html#a239ccb004b25fa96f720406e271ac881" target="_top" xlink:title="Calculate the bank setting of a given MIDI address, relative to a base address.">
<polygon fill="white" stroke="black" points="200.5,-375 200.5,-405 307.5,-405 307.5,-375 200.5,-375"/>
<text text-anchor="start" x="208.5" y="-393" font-family="Helvetica,sans-Serif" font-size="10.00">BankableMIDIInput::</text>
<text text-anchor="middle" x="254" y="-382" font-family="Helvetica,sans-Serif" font-size="10.00">getIndex</text>
</a>
</g>
</g>
<!-- Node3&#45;&gt;Node4 -->
<g id="edge1" class="edge"><title>Node3&#45;&gt;Node4</title>
<path fill="none" stroke="midnightblue" d="M411.066,-192.89C398.337,-221.885 371.361,-278.273 338,-319 319.976,-341.004 294.578,-361.598 276.635,-374.88"/>
<polygon fill="midnightblue" stroke="midnightblue" points="414.357,-194.096 415.097,-183.527 407.928,-191.328 414.357,-194.096"/>
</g>
<!-- Node8 -->
<g id="node6" class="node"><title>Node8</title>
<g id="a_node6"><a xlink:href="../../db/d6e/classBankableMIDIInput.html#aee737e5e10cdda105bc65c0424f71cc0" target="_top" xlink:title="Check whether a given address is part of the bank relative to the base address.">
<polygon fill="white" stroke="black" points="200.5,-279 200.5,-309 307.5,-309 307.5,-279 200.5,-279"/>
<text text-anchor="start" x="208.5" y="-297" font-family="Helvetica,sans-Serif" font-size="10.00">BankableMIDIInput::</text>
<text text-anchor="middle" x="254" y="-286" font-family="Helvetica,sans-Serif" font-size="10.00">matchBankable</text>
</a>
</g>
</g>
<!-- Node3&#45;&gt;Node8 -->
<g id="edge5" class="edge"><title>Node3&#45;&gt;Node8</title>
<path fill="none" stroke="midnightblue" d="M408.129,-192.189C394.404,-213.624 368.823,-248.865 338,-269 328.803,-275.008 318.102,-279.623 307.502,-283.15"/>
<polygon fill="midnightblue" stroke="midnightblue" points="411.115,-194.015 413.422,-183.674 405.17,-190.319 411.115,-194.015"/>
</g>
<!-- Node9 -->
<g id="node7" class="node"><title>Node9</title>
<g id="a_node7"><a xlink:href="../../d9/d73/classMIDI__Interface.html#a80c4843f88185a213ebe20a26c0fd579" target="_top" xlink:title=" ">
<polygon fill="white" stroke="black" points="182.5,-240.5 182.5,-259.5 325.5,-259.5 325.5,-240.5 182.5,-240.5"/>
<text text-anchor="middle" x="254" y="-247.5" font-family="Helvetica,sans-Serif" font-size="10.00">MIDI_Interface::sendNoteOn</text>
</a>
</g>
</g>
<!-- Node3&#45;&gt;Node9 -->
<g id="edge6" class="edge"><title>Node3&#45;&gt;Node9</title>
<path fill="none" stroke="midnightblue" d="M400.485,-190.215C384.845,-203.093 361.325,-220.608 338,-231 329.358,-234.85 319.85,-237.963 310.448,-240.466"/>
<polygon fill="midnightblue" stroke="midnightblue" points="402.925,-192.735 408.312,-183.612 398.412,-187.385 402.925,-192.735"/>
</g>
<!-- Node11 -->
<g id="node9" class="node"><title>Node11</title>
<g id="a_node9"><a xlink:href="../../d9/d73/classMIDI__Interface.html#a2c79441f44b904566d237b05b8b3c2fb" target="_top" xlink:title=" ">
<polygon fill="white" stroke="black" points="182.5,-202.5 182.5,-221.5 325.5,-221.5 325.5,-202.5 182.5,-202.5"/>
<text text-anchor="middle" x="254" y="-209.5" font-family="Helvetica,sans-Serif" font-size="10.00">MIDI_Interface::sendNoteOff</text>
</a>
</g>
</g>
<!-- Node3&#45;&gt;Node11 -->
<g id="edge8" class="edge"><title>Node3&#45;&gt;Node11</title>
<path fill="none" stroke="midnightblue" d="M368.672,-185.85C358.52,-188.227 347.92,-190.701 338,-193 324.607,-196.104 309.991,-199.46 296.809,-202.475"/>
<polygon fill="midnightblue" stroke="midnightblue" points="369.696,-189.204 378.633,-183.514 368.098,-182.389 369.696,-189.204"/>
</g>
<!-- Node13 -->
<g id="node11" class="node"><title>Node13</title>
<g id="a_node11"><a xlink:href="../../d9/d73/classMIDI__Interface.html#a3549169b2cfd90f2d11a19f551407b12" target="_top" xlink:title=" ">
<polygon fill="white" stroke="black" points="192,-164.5 192,-183.5 316,-183.5 316,-164.5 192,-164.5"/>
<text text-anchor="middle" x="254" y="-171.5" font-family="Helvetica,sans-Serif" font-size="10.00">MIDI_Interface::sendCC</text>
</a>
</g>
</g>
<!-- Node3&#45;&gt;Node13 -->
<g id="edge10" class="edge"><title>Node3&#45;&gt;Node13</title>
<path fill="none" stroke="midnightblue" d="M363.448,-174C348.205,-174 331.598,-174 316.064,-174"/>
<polygon fill="midnightblue" stroke="midnightblue" points="363.752,-177.5 373.752,-174 363.752,-170.5 363.752,-177.5"/>
</g>
<!-- Node18 -->
<g id="node16" class="node"><title>Node18</title>
<g id="a_node16"><a xlink:href="../../d9/d73/classMIDI__Interface.html#a095f45d6e0780a90e3d4482639196a8f" target="_top" xlink:title=" ">
<polygon fill="white" stroke="black" points="193,-126.5 193,-145.5 315,-145.5 315,-126.5 193,-126.5"/>
<text text-anchor="middle" x="254" y="-133.5" font-family="Helvetica,sans-Serif" font-size="10.00">MIDI_Interface::sendPB</text>
</a>
</g>
</g>
<!-- Node3&#45;&gt;Node18 -->
<g id="edge15" class="edge"><title>Node3&#45;&gt;Node18</title>
<path fill="none" stroke="midnightblue" d="M368.672,-162.15C358.52,-159.773 347.92,-157.299 338,-155 324.607,-151.896 309.991,-148.54 296.809,-145.525"/>
<polygon fill="midnightblue" stroke="midnightblue" points="368.098,-165.611 378.633,-164.486 369.696,-158.796 368.098,-165.611"/>
</g>
<!-- Node20 -->
<g id="node18" class="node"><title>Node20</title>
<g id="a_node18"><a xlink:href="../../d9/d73/classMIDI__Interface.html#a4a65c24407953467490db83689d12dc4" target="_top" xlink:title=" ">
<polygon fill="white" stroke="black" points="192.5,-88.5 192.5,-107.5 315.5,-107.5 315.5,-88.5 192.5,-88.5"/>
<text text-anchor="middle" x="254" y="-95.5" font-family="Helvetica,sans-Serif" font-size="10.00">MIDI_Interface::sendPC</text>
</a>
</g>
</g>
<!-- Node3&#45;&gt;Node20 -->
<g id="edge17" class="edge"><title>Node3&#45;&gt;Node20</title>
<path fill="none" stroke="midnightblue" d="M400.485,-157.785C384.845,-144.907 361.325,-127.392 338,-117 329.358,-113.15 319.85,-110.037 310.448,-107.534"/>
<polygon fill="midnightblue" stroke="midnightblue" points="398.412,-160.615 408.312,-164.388 402.925,-155.265 398.412,-160.615"/>
</g>
<!-- Node22 -->
<g id="node20" class="node"><title>Node22</title>
<g id="a_node20"><a xlink:href="../../df/d9b/classMIDICNChannel.html#adc1ff6e8f2fa717352eb5f858df81c78" target="_top" xlink:title=" ">
<polygon fill="white" stroke="black" points="170,-50.5 170,-69.5 338,-69.5 338,-50.5 170,-50.5"/>
<text text-anchor="middle" x="254" y="-57.5" font-family="Helvetica,sans-Serif" font-size="10.00">MIDICNChannel::MIDICNChannel</text>
</a>
</g>
</g>
<!-- Node3&#45;&gt;Node22 -->
<g id="edge19" class="edge"><title>Node3&#45;&gt;Node22</title>
<path fill="none" stroke="midnightblue" d="M408.561,-155.788C395.109,-134.033 369.646,-98.1814 338,-79 331.553,-75.0922 324.38,-71.9874 317.027,-69.5206"/>
<polygon fill="midnightblue" stroke="midnightblue" points="405.587,-157.634 413.724,-164.419 411.594,-154.041 405.587,-157.634"/>
</g>
<!-- Node23 -->
<g id="node21" class="node"><title>Node23</title>
<g id="a_node21"><a xlink:href="../../d3/d10/classMIDICNChannelAddress.html#a65c831b77c8d5f0d89706e1d41303a77" target="_top" xlink:title=" ">
<polygon fill="white" stroke="black" points="188.5,-1 188.5,-31 319.5,-31 319.5,-1 188.5,-1"/>
<text text-anchor="start" x="196.5" y="-19" font-family="Helvetica,sans-Serif" font-size="10.00">MIDICNChannelAddress</text>
<text text-anchor="middle" x="254" y="-8" font-family="Helvetica,sans-Serif" font-size="10.00">::MIDICNChannelAddress</text>
</a>
</g>
</g>
<!-- Node3&#45;&gt;Node23 -->
<g id="edge20" class="edge"><title>Node3&#45;&gt;Node23</title>
<path fill="none" stroke="midnightblue" d="M412.326,-154.523C401.384,-125.489 376.879,-71.0599 338,-41 332.523,-36.7657 326.335,-33.2458 319.868,-30.3205"/>
<polygon fill="midnightblue" stroke="midnightblue" points="409.169,-156.087 415.857,-164.304 415.753,-153.71 409.169,-156.087"/>
</g>
<!-- Node5 -->
<g id="node3" class="node"><title>Node5</title>
<g id="a_node3"><a xlink:href="../../d0/d42/classBankable_1_1MIDINote.html#a4769f4ef31bc2d8e1b9f98793d20386f" target="_top" xlink:title="Update the internal state with the new MIDI message.">
<polygon fill="white" stroke="black" points="14,-448 14,-478 120,-478 120,-448 14,-448"/>
<text text-anchor="start" x="22" y="-466" font-family="Helvetica,sans-Serif" font-size="10.00">Bankable::MIDINote</text>
<text text-anchor="middle" x="67" y="-455" font-family="Helvetica,sans-Serif" font-size="10.00">::updateImpl</text>
</a>
</g>
</g>
<!-- Node4&#45;&gt;Node5 -->
<g id="edge2" class="edge"><title>Node4&#45;&gt;Node5</title>
<path fill="none" stroke="midnightblue" d="M207.991,-409.053C185.802,-418.313 158.59,-429.471 134,-439 126.383,-441.952 118.232,-445.002 110.349,-447.898"/>
<polygon fill="midnightblue" stroke="midnightblue" points="209.614,-412.168 217.487,-405.078 206.911,-405.711 209.614,-412.168"/>
</g>
<!-- Node6 -->
<g id="node4" class="node"><title>Node6</title>
<g id="a_node4"><a xlink:href="../../da/d93/classMCU_1_1Bankable_1_1VPotRing.html#a69a9006a95b273f56fa7e5aaa7da5b90" target="_top" xlink:title="Update the internal state with the new MIDI message.">
<polygon fill="white" stroke="black" points="0,-399 0,-429 134,-429 134,-399 0,-399"/>
<text text-anchor="start" x="8" y="-417" font-family="Helvetica,sans-Serif" font-size="10.00">MCU::Bankable::VPotRing</text>
<text text-anchor="middle" x="67" y="-406" font-family="Helvetica,sans-Serif" font-size="10.00">::updateImpl</text>
</a>
</g>
</g>
<!-- Node4&#45;&gt;Node6 -->
<g id="edge3" class="edge"><title>Node4&#45;&gt;Node6</title>
<path fill="none" stroke="midnightblue" d="M190.345,-398.128C172.264,-400.474 152.478,-403.041 134.189,-405.413"/>
<polygon fill="midnightblue" stroke="midnightblue" points="191.015,-401.571 200.481,-396.813 190.114,-394.629 191.015,-401.571"/>
</g>
<!-- Node7 -->
<g id="node5" class="node"><title>Node7</title>
<g id="a_node5"><a xlink:href="../../d0/d43/classMCU_1_1Bankable_1_1VU.html#ae57a47a82c7dc3ed4a8733de43f253ae" target="_top" xlink:title=" ">
<polygon fill="white" stroke="black" points="10.5,-350 10.5,-380 123.5,-380 123.5,-350 10.5,-350"/>
<text text-anchor="start" x="18.5" y="-368" font-family="Helvetica,sans-Serif" font-size="10.00">MCU::Bankable::VU&lt;</text>
<text text-anchor="middle" x="67" y="-357" font-family="Helvetica,sans-Serif" font-size="10.00"> M &gt;::updateImpl</text>
</a>
</g>
</g>
<!-- Node4&#45;&gt;Node7 -->
<g id="edge4" class="edge"><title>Node4&#45;&gt;Node7</title>
<path fill="none" stroke="midnightblue" d="M190.395,-381.54C168.731,-378.612 144.616,-375.353 123.557,-372.508"/>
<polygon fill="midnightblue" stroke="midnightblue" points="190.103,-385.032 200.481,-382.903 191.04,-378.095 190.103,-385.032"/>
</g>
<!-- Node10 -->
<g id="node8" class="node"><title>Node10</title>
<g id="a_node8"><a xlink:href="../../dc/dd4/classDigitalNoteSender.html#af60f52313c3d9ad166bc9327de681d3c" target="_top" xlink:title=" ">
<polygon fill="white" stroke="black" points="16,-301 16,-331 118,-331 118,-301 16,-301"/>
<text text-anchor="start" x="24" y="-319" font-family="Helvetica,sans-Serif" font-size="10.00">DigitalNoteSender::</text>
<text text-anchor="middle" x="67" y="-308" font-family="Helvetica,sans-Serif" font-size="10.00">sendOn</text>
</a>
</g>
</g>
<!-- Node9&#45;&gt;Node10 -->
<g id="edge7" class="edge"><title>Node9&#45;&gt;Node10</title>
<path fill="none" stroke="midnightblue" d="M192.463,-262.239C184.783,-264.473 177.126,-267.05 170,-270 152.675,-277.172 150.895,-283.867 134,-292 127.409,-295.173 120.281,-298.177 113.232,-300.917"/>
<polygon fill="midnightblue" stroke="midnightblue" points="193.438,-265.601 202.163,-259.591 191.594,-258.848 193.438,-265.601"/>
</g>
<!-- Node12 -->
<g id="node10" class="node"><title>Node12</title>
<g id="a_node10"><a xlink:href="../../dc/dd4/classDigitalNoteSender.html#a69fe04157ae8d5e14f09a31c9e0304a0" target="_top" xlink:title=" ">
<polygon fill="white" stroke="black" points="16,-252 16,-282 118,-282 118,-252 16,-252"/>
<text text-anchor="start" x="24" y="-270" font-family="Helvetica,sans-Serif" font-size="10.00">DigitalNoteSender::</text>
<text text-anchor="middle" x="67" y="-259" font-family="Helvetica,sans-Serif" font-size="10.00">sendOff</text>
</a>
</g>
</g>
<!-- Node11&#45;&gt;Node12 -->
<g id="edge9" class="edge"><title>Node11&#45;&gt;Node12</title>
<path fill="none" stroke="midnightblue" d="M197.273,-223.834C188.115,-226.042 178.758,-228.461 170,-231 158.231,-234.412 131.955,-243.7 109.021,-251.987"/>
<polygon fill="midnightblue" stroke="midnightblue" points="198.162,-227.22 207.095,-221.523 196.56,-220.406 198.162,-227.22"/>
</g>
<!-- Node14 -->
<g id="node12" class="node"><title>Node14</title>
<g id="a_node12"><a xlink:href="../../da/d07/classContinuousCCSender.html#a3dcde6121fc02f88b5a60a73b7e67ace" target="_top" xlink:title=" ">
<polygon fill="white" stroke="black" points="11,-203 11,-233 123,-233 123,-203 11,-203"/>
<text text-anchor="start" x="19" y="-221" font-family="Helvetica,sans-Serif" font-size="10.00">ContinuousCCSender</text>
<text text-anchor="middle" x="67" y="-210" font-family="Helvetica,sans-Serif" font-size="10.00">::send</text>
</a>
</g>
</g>
<!-- Node13&#45;&gt;Node14 -->
<g id="edge11" class="edge"><title>Node13&#45;&gt;Node14</title>
<path fill="none" stroke="midnightblue" d="M200.726,-185.838C190.529,-188.183 179.925,-190.648 170,-193 154.743,-196.616 138.225,-200.624 123.016,-204.352"/>
<polygon fill="midnightblue" stroke="midnightblue" points="201.782,-189.187 210.747,-183.541 200.217,-182.364 201.782,-189.187"/>
</g>
<!-- Node15 -->
<g id="node13" class="node"><title>Node15</title>
<g id="a_node13"><a xlink:href="../../d5/db5/classDigitalCCSender.html#a289dc5bbfa0ad2409834b4be952323fd" target="_top" xlink:title=" ">
<polygon fill="white" stroke="black" points="2,-164.5 2,-183.5 132,-183.5 132,-164.5 2,-164.5"/>
<text text-anchor="middle" x="67" y="-171.5" font-family="Helvetica,sans-Serif" font-size="10.00">DigitalCCSender::sendOn</text>
</a>
</g>
</g>
<!-- Node13&#45;&gt;Node15 -->
<g id="edge12" class="edge"><title>Node13&#45;&gt;Node15</title>
<path fill="none" stroke="midnightblue" d="M181.874,-174C165.525,-174 148.234,-174 132.199,-174"/>
<polygon fill="midnightblue" stroke="midnightblue" points="181.911,-177.5 191.911,-174 181.911,-170.5 181.911,-177.5"/>
</g>
<!-- Node16 -->
<g id="node14" class="node"><title>Node16</title>
<g id="a_node14"><a xlink:href="../../d5/db5/classDigitalCCSender.html#ac2147259833611c3f7d023f4bb05b32e" target="_top" xlink:title=" ">
<polygon fill="white" stroke="black" points="1.5,-126.5 1.5,-145.5 132.5,-145.5 132.5,-126.5 1.5,-126.5"/>
<text text-anchor="middle" x="67" y="-133.5" font-family="Helvetica,sans-Serif" font-size="10.00">DigitalCCSender::sendOff</text>
</a>
</g>
</g>
<!-- Node13&#45;&gt;Node16 -->
<g id="edge13" class="edge"><title>Node13&#45;&gt;Node16</title>
<path fill="none" stroke="midnightblue" d="M196.48,-162.39C170.169,-156.986 139.257,-150.636 114.348,-145.52"/>
<polygon fill="midnightblue" stroke="midnightblue" points="195.817,-165.827 206.317,-164.411 197.225,-158.97 195.817,-165.827"/>
</g>
<!-- Node17 -->
<g id="node15" class="node"><title>Node17</title>
<g id="a_node15"><a xlink:href="../../d3/dd0/classRelativeCCSender.html#a7436ec272c39bdbbe698d68a200e56c1" target="_top" xlink:title=" ">
<polygon fill="white" stroke="black" points="4.5,-88.5 4.5,-107.5 129.5,-107.5 129.5,-88.5 4.5,-88.5"/>
<text text-anchor="middle" x="67" y="-95.5" font-family="Helvetica,sans-Serif" font-size="10.00">RelativeCCSender::send</text>
</a>
</g>
</g>
<!-- Node13&#45;&gt;Node17 -->
<g id="edge14" class="edge"><title>Node13&#45;&gt;Node17</title>
<path fill="none" stroke="midnightblue" d="M182.427,-160.972C178.115,-159.226 173.934,-157.246 170,-155 149.796,-143.466 153.878,-129.088 134,-117 127.684,-113.159 120.555,-110.064 113.379,-107.579"/>
<polygon fill="midnightblue" stroke="midnightblue" points="181.44,-164.337 192.035,-164.433 183.813,-157.751 181.44,-164.337"/>
</g>
<!-- Node19 -->
<g id="node17" class="node"><title>Node19</title>
<g id="a_node17"><a xlink:href="../../de/d46/classPitchBendSender.html#ad351c6a6e015e2a54fa81516ee7eefcf" target="_top" xlink:title=" ">
<polygon fill="white" stroke="black" points="13.5,-39 13.5,-69 120.5,-69 120.5,-39 13.5,-39"/>
<text text-anchor="start" x="21.5" y="-57" font-family="Helvetica,sans-Serif" font-size="10.00">PitchBendSender&lt; 8</text>
<text text-anchor="middle" x="67" y="-46" font-family="Helvetica,sans-Serif" font-size="10.00"> &gt;::send</text>
</a>
</g>
</g>
<!-- Node18&#45;&gt;Node19 -->
<g id="edge16" class="edge"><title>Node18&#45;&gt;Node19</title>
<path fill="none" stroke="midnightblue" d="M183.28,-123.314C178.666,-121.485 174.192,-119.393 170,-117 149.796,-105.466 153.367,-91.8903 134,-79 128.39,-75.2661 122.144,-71.9826 115.795,-69.1284"/>
<polygon fill="midnightblue" stroke="midnightblue" points="182.311,-126.683 192.905,-126.709 184.639,-120.082 182.311,-126.683"/>
</g>
<!-- Node21 -->
<g id="node19" class="node"><title>Node21</title>
<g id="a_node19"><a xlink:href="../../de/d43/classProgramChanger.html#a272cadb089ee0c7beebc5e9c496cd7d5" target="_top" xlink:title=" ">
<polygon fill="white" stroke="black" points="6,-0.5 6,-19.5 128,-19.5 128,-0.5 6,-0.5"/>
<text text-anchor="middle" x="67" y="-7.5" font-family="Helvetica,sans-Serif" font-size="10.00">ProgramChanger::select</text>
</a>
</g>
</g>
<!-- Node20&#45;&gt;Node21 -->
<g id="edge18" class="edge"><title>Node20&#45;&gt;Node21</title>
<path fill="none" stroke="midnightblue" d="M182.892,-85.9439C178.369,-83.9668 174.022,-81.6693 170,-79 147.184,-63.8585 156.389,-44.7661 134,-29 128.541,-25.1555 122.311,-22.0838 115.911,-19.6307"/>
<polygon fill="midnightblue" stroke="midnightblue" points="181.785,-89.2678 192.376,-89.5686 184.284,-82.7291 181.785,-89.2678"/>
</g>
</g>
</svg>
