<?xml version="1.0" encoding="UTF-8" standalone="no"?>
<!DOCTYPE svg PUBLIC "-//W3C//DTD SVG 1.1//EN"
 "http://www.w3.org/Graphics/SVG/1.1/DTD/svg11.dtd">
<!-- Generated by graphviz version 2.38.0 (20140413.2041)
 -->
<!-- Title: VPotDisplay.hpp Pages: 1 -->
<svg width="1016pt" height="655pt"
 viewBox="0.00 0.00 1015.50 655.00" xmlns="http://www.w3.org/2000/svg" xmlns:xlink="http://www.w3.org/1999/xlink">
<g id="graph0" class="graph" transform="scale(1 1) rotate(0) translate(4 651)">
<title>VPotDisplay.hpp</title>
<polygon fill="white" stroke="none" points="-4,4 -4,-651 1011.5,-651 1011.5,4 -4,4"/>
<!-- Node0 -->
<g id="node1" class="node"><title>Node0</title>
<g id="a_node1"><a xlink:title=" ">
<polygon fill="#bfbfbf" stroke="black" points="280.5,-627.5 280.5,-646.5 370.5,-646.5 370.5,-627.5 280.5,-627.5"/>
<text text-anchor="middle" x="325.5" y="-634.5" font-family="Helvetica,sans-Serif" font-size="10.00">VPotDisplay.hpp</text>
</a>
</g>
</g>
<!-- Node1 -->
<g id="node2" class="node"><title>Node1</title>
<g id="a_node2"><a xlink:href="../../d6/dd2/DisplayElement_8hpp.html" target="_top" xlink:title=" ">
<polygon fill="white" stroke="black" points="201.5,-515.5 201.5,-534.5 341.5,-534.5 341.5,-515.5 201.5,-515.5"/>
<text text-anchor="middle" x="271.5" y="-522.5" font-family="Helvetica,sans-Serif" font-size="10.00">Display/DisplayElement.hpp</text>
</a>
</g>
</g>
<!-- Node0&#45;&gt;Node1 -->
<g id="edge1" class="edge"><title>Node0&#45;&gt;Node1</title>
<path fill="none" stroke="midnightblue" d="M317.17,-627.386C309.283,-618.801 297.62,-604.923 290.5,-591 282.972,-576.28 277.982,-558.118 275.012,-544.738"/>
<polygon fill="midnightblue" stroke="midnightblue" points="278.413,-543.9 272.982,-534.803 271.555,-545.301 278.413,-543.9"/>
</g>
<!-- Node2 -->
<g id="node3" class="node"><title>Node2</title>
<g id="a_node3"><a xlink:href="../../dc/d77/DisplayInterface_8hpp.html" target="_top" xlink:title=" ">
<polygon fill="white" stroke="black" points="12,-454 12,-473 155,-473 155,-454 12,-454"/>
<text text-anchor="middle" x="83.5" y="-461" font-family="Helvetica,sans-Serif" font-size="10.00">Display/DisplayInterface.hpp</text>
</a>
</g>
</g>
<!-- Node0&#45;&gt;Node2 -->
<g id="edge23" class="edge"><title>Node0&#45;&gt;Node2</title>
<path fill="none" stroke="midnightblue" d="M313.499,-627.495C274.712,-600.008 152.43,-513.349 103.766,-478.862"/>
<polygon fill="midnightblue" stroke="midnightblue" points="105.756,-475.983 95.5733,-473.056 101.708,-481.694 105.756,-475.983"/>
</g>
<!-- Node17 -->
<g id="node18" class="node"><title>Node17</title>
<g id="a_node18"><a xlink:href="../../d7/d81/VPotRing_8hpp.html" target="_top" xlink:title=" ">
<polygon fill="white" stroke="black" points="300,-571.5 300,-590.5 461,-590.5 461,-571.5 300,-571.5"/>
<text text-anchor="middle" x="380.5" y="-578.5" font-family="Helvetica,sans-Serif" font-size="10.00">MIDI_Inputs/MCU/VPotRing.hpp</text>
</a>
</g>
</g>
<!-- Node0&#45;&gt;Node17 -->
<g id="edge24" class="edge"><title>Node0&#45;&gt;Node17</title>
<path fill="none" stroke="midnightblue" d="M334.582,-627.083C342.671,-619.141 354.695,-607.335 364.41,-597.797"/>
<polygon fill="midnightblue" stroke="midnightblue" points="366.903,-600.254 371.587,-590.751 361.999,-595.26 366.903,-600.254"/>
</g>
<!-- Node29 -->
<g id="node30" class="node"><title>Node29</title>
<g id="a_node30"><a xlink:title=" ">
<polygon fill="white" stroke="#bfbfbf" points="479,-571.5 479,-590.5 526,-590.5 526,-571.5 479,-571.5"/>
<text text-anchor="middle" x="502.5" y="-578.5" font-family="Helvetica,sans-Serif" font-size="10.00">math.h</text>
</a>
</g>
</g>
<!-- Node0&#45;&gt;Node29 -->
<g id="edge55" class="edge"><title>Node0&#45;&gt;Node29</title>
<path fill="none" stroke="midnightblue" d="M353.546,-627.444C384.907,-617.876 435.668,-602.389 469.066,-592.2"/>
<polygon fill="midnightblue" stroke="midnightblue" points="470.29,-595.486 478.833,-589.22 468.247,-588.791 470.29,-595.486"/>
</g>
<!-- Node1&#45;&gt;Node2 -->
<g id="edge2" class="edge"><title>Node1&#45;&gt;Node2</title>
<path fill="none" stroke="midnightblue" d="M244.564,-515.475C211.897,-505.136 156.681,-487.661 120.157,-476.102"/>
<polygon fill="midnightblue" stroke="midnightblue" points="120.976,-472.69 110.386,-473.009 118.864,-479.363 120.976,-472.69"/>
</g>
<!-- Node9 -->
<g id="node10" class="node"><title>Node9</title>
<g id="a_node10"><a xlink:href="../../de/dd1/LinkedList_8hpp.html" target="_top" xlink:title=" ">
<polygon fill="white" stroke="black" points="439.5,-392.5 439.5,-411.5 555.5,-411.5 555.5,-392.5 439.5,-392.5"/>
<text text-anchor="middle" x="497.5" y="-399.5" font-family="Helvetica,sans-Serif" font-size="10.00">Helpers/LinkedList.hpp</text>
</a>
</g>
</g>
<!-- Node1&#45;&gt;Node9 -->
<g id="edge22" class="edge"><title>Node1&#45;&gt;Node9</title>
<path fill="none" stroke="midnightblue" d="M271.454,-515.499C271.857,-499.747 275.089,-465.994 294.5,-448 305.014,-438.253 380.652,-423.274 436.539,-413.31"/>
<polygon fill="midnightblue" stroke="midnightblue" points="437.486,-416.697 446.725,-411.511 436.268,-409.804 437.486,-416.697"/>
</g>
<!-- Node3 -->
<g id="node4" class="node"><title>Node3</title>
<g id="a_node4"><a xlink:href="../../d0/d4e/Def_8hpp.html" target="_top" xlink:title=" ">
<polygon fill="white" stroke="black" points="335.5,-112.5 335.5,-131.5 405.5,-131.5 405.5,-112.5 335.5,-112.5"/>
<text text-anchor="middle" x="370.5" y="-119.5" font-family="Helvetica,sans-Serif" font-size="10.00">Def/Def.hpp</text>
</a>
</g>
</g>
<!-- Node2&#45;&gt;Node3 -->
<g id="edge3" class="edge"><title>Node2&#45;&gt;Node3</title>
<path fill="none" stroke="midnightblue" d="M82.2335,-453.829C79.5426,-434.628 73.5,-387.053 73.5,-347 73.5,-347 73.5,-347 73.5,-233 73.5,-179.952 242.224,-144.381 325.33,-130.077"/>
<polygon fill="midnightblue" stroke="midnightblue" points="325.987,-133.516 335.264,-128.398 324.821,-126.613 325.987,-133.516"/>
</g>
<!-- Node2&#45;&gt;Node9 -->
<g id="edge11" class="edge"><title>Node2&#45;&gt;Node9</title>
<path fill="none" stroke="midnightblue" d="M142.816,-453.975C218.611,-443.082 349.527,-424.267 429.344,-412.795"/>
<polygon fill="midnightblue" stroke="midnightblue" points="429.896,-416.252 439.296,-411.365 428.9,-409.323 429.896,-416.252"/>
</g>
<!-- Node16 -->
<g id="node17" class="node"><title>Node16</title>
<g id="a_node17"><a xlink:title=" ">
<polygon fill="white" stroke="#bfbfbf" points="0,-392.5 0,-411.5 45,-411.5 45,-392.5 0,-392.5"/>
<text text-anchor="middle" x="22.5" y="-399.5" font-family="Helvetica,sans-Serif" font-size="10.00">Print.h</text>
</a>
</g>
</g>
<!-- Node2&#45;&gt;Node16 -->
<g id="edge21" class="edge"><title>Node2&#45;&gt;Node16</title>
<path fill="none" stroke="midnightblue" d="M74.7602,-453.975C65.3384,-444.785 50.1359,-429.956 38.5507,-418.656"/>
<polygon fill="midnightblue" stroke="midnightblue" points="40.826,-415.986 31.2236,-411.509 35.9383,-420.997 40.826,-415.986"/>
</g>
<!-- Node4 -->
<g id="node5" class="node"><title>Node4</title>
<g id="a_node5"><a xlink:href="../../d7/d42/Channel_8hpp.html" target="_top" xlink:title=" ">
<polygon fill="white" stroke="black" points="579,-56.5 579,-75.5 650,-75.5 650,-56.5 579,-56.5"/>
<text text-anchor="middle" x="614.5" y="-63.5" font-family="Helvetica,sans-Serif" font-size="10.00">Channel.hpp</text>
</a>
</g>
</g>
<!-- Node3&#45;&gt;Node4 -->
<g id="edge4" class="edge"><title>Node3&#45;&gt;Node4</title>
<path fill="none" stroke="midnightblue" d="M405.719,-113.206C448.753,-103.682 521.654,-87.5479 568.925,-77.0862"/>
<polygon fill="midnightblue" stroke="midnightblue" points="569.887,-80.458 578.895,-74.8798 568.375,-73.6234 569.887,-80.458"/>
</g>
<!-- Node5 -->
<g id="node6" class="node"><title>Node5</title>
<g id="a_node6"><a xlink:title=" ">
<polygon fill="white" stroke="#bfbfbf" points="654,-0.5 654,-19.5 703,-19.5 703,-0.5 654,-0.5"/>
<text text-anchor="middle" x="678.5" y="-7.5" font-family="Helvetica,sans-Serif" font-size="10.00">stdint.h</text>
</a>
</g>
</g>
<!-- Node3&#45;&gt;Node5 -->
<g id="edge10" class="edge"><title>Node3&#45;&gt;Node5</title>
<path fill="none" stroke="midnightblue" d="M394.412,-112.46C448.882,-93.0065 582.305,-45.3553 644.965,-22.9768"/>
<polygon fill="midnightblue" stroke="midnightblue" points="646.151,-26.2699 654.391,-19.6104 643.796,-19.6777 646.151,-26.2699"/>
</g>
<!-- Node6 -->
<g id="node7" class="node"><title>Node6</title>
<g id="a_node7"><a xlink:href="../../dc/d50/Frequency_8hpp.html" target="_top" xlink:title=" ">
<polygon fill="white" stroke="black" points="403,-56.5 403,-75.5 484,-75.5 484,-56.5 403,-56.5"/>
<text text-anchor="middle" x="443.5" y="-63.5" font-family="Helvetica,sans-Serif" font-size="10.00">Frequency.hpp</text>
</a>
</g>
</g>
<!-- Node3&#45;&gt;Node6 -->
<g id="edge6" class="edge"><title>Node3&#45;&gt;Node6</title>
<path fill="none" stroke="midnightblue" d="M382.229,-112.324C393.337,-104.107 410.242,-91.6017 423.483,-81.8069"/>
<polygon fill="midnightblue" stroke="midnightblue" points="425.6,-84.5948 431.558,-75.8339 421.437,-78.9671 425.6,-84.5948"/>
</g>
<!-- Node7 -->
<g id="node8" class="node"><title>Node7</title>
<g id="a_node8"><a xlink:href="../../de/d76/Array_8hpp.html" target="_top" xlink:title=" ">
<polygon fill="white" stroke="black" points="290,-56.5 290,-75.5 385,-75.5 385,-56.5 290,-56.5"/>
<text text-anchor="middle" x="337.5" y="-63.5" font-family="Helvetica,sans-Serif" font-size="10.00">Helpers/Array.hpp</text>
</a>
</g>
</g>
<!-- Node3&#45;&gt;Node7 -->
<g id="edge7" class="edge"><title>Node3&#45;&gt;Node7</title>
<path fill="none" stroke="midnightblue" d="M365.051,-112.083C360.486,-104.613 353.832,-93.7244 348.207,-84.5199"/>
<polygon fill="midnightblue" stroke="midnightblue" points="351.049,-82.4588 342.848,-75.7511 345.076,-86.109 351.049,-82.4588"/>
</g>
<!-- Node8 -->
<g id="node9" class="node"><title>Node8</title>
<g id="a_node9"><a xlink:title=" ">
<polygon fill="white" stroke="#bfbfbf" points="273.5,-0.5 273.5,-19.5 325.5,-19.5 325.5,-0.5 273.5,-0.5"/>
<text text-anchor="middle" x="299.5" y="-7.5" font-family="Helvetica,sans-Serif" font-size="10.00">stddef.h</text>
</a>
</g>
</g>
<!-- Node3&#45;&gt;Node8 -->
<g id="edge9" class="edge"><title>Node3&#45;&gt;Node8</title>
<path fill="none" stroke="midnightblue" d="M335.231,-113.067C315.461,-106.621 292.439,-95.3183 280.5,-76 271.36,-61.2109 279.119,-41.8191 287.303,-28.0766"/>
<polygon fill="midnightblue" stroke="midnightblue" points="290.306,-29.8796 292.835,-19.591 284.442,-26.0567 290.306,-29.8796"/>
</g>
<!-- Node4&#45;&gt;Node5 -->
<g id="edge5" class="edge"><title>Node4&#45;&gt;Node5</title>
<path fill="none" stroke="midnightblue" d="M624.783,-56.324C634.336,-48.2631 648.78,-36.0765 660.284,-26.3695"/>
<polygon fill="midnightblue" stroke="midnightblue" points="662.644,-28.9577 668.03,-19.8339 658.13,-23.6076 662.644,-28.9577"/>
</g>
<!-- Node7&#45;&gt;Node8 -->
<g id="edge8" class="edge"><title>Node7&#45;&gt;Node8</title>
<path fill="none" stroke="midnightblue" d="M331.225,-56.083C325.858,-48.4554 317.982,-37.2645 311.421,-27.9408"/>
<polygon fill="midnightblue" stroke="midnightblue" points="314.275,-25.9149 305.658,-19.7511 308.551,-29.9434 314.275,-25.9149"/>
</g>
<!-- Node10 -->
<g id="node11" class="node"><title>Node10</title>
<g id="a_node11"><a xlink:href="../../df/dee/Debug_8hpp.html" target="_top" xlink:title=" ">
<polygon fill="white" stroke="black" points="531,-280.5 531,-299.5 632,-299.5 632,-280.5 531,-280.5"/>
<text text-anchor="middle" x="581.5" y="-287.5" font-family="Helvetica,sans-Serif" font-size="10.00">Helpers/Debug.hpp</text>
</a>
</g>
</g>
<!-- Node9&#45;&gt;Node10 -->
<g id="edge12" class="edge"><title>Node9&#45;&gt;Node10</title>
<path fill="none" stroke="midnightblue" d="M504.091,-392.368C518.015,-374.135 550.629,-331.426 568.766,-307.675"/>
<polygon fill="midnightblue" stroke="midnightblue" points="571.652,-309.663 574.939,-299.591 566.088,-305.415 571.652,-309.663"/>
</g>
<!-- Node13 -->
<g id="node14" class="node"><title>Node13</title>
<g id="a_node14"><a xlink:title=" ">
<polygon fill="white" stroke="#bfbfbf" points="423.5,-224.5 423.5,-243.5 471.5,-243.5 471.5,-224.5 423.5,-224.5"/>
<text text-anchor="middle" x="447.5" y="-231.5" font-family="Helvetica,sans-Serif" font-size="10.00">stdlib.h</text>
</a>
</g>
</g>
<!-- Node9&#45;&gt;Node13 -->
<g id="edge20" class="edge"><title>Node9&#45;&gt;Node13</title>
<path fill="none" stroke="midnightblue" d="M497.961,-392.394C498.734,-372.006 498.843,-319.512 482.5,-280 478.12,-269.411 470.543,-259.195 463.556,-251.181"/>
<polygon fill="midnightblue" stroke="midnightblue" points="466.005,-248.674 456.648,-243.704 460.863,-253.424 466.005,-248.674"/>
</g>
<!-- Node11 -->
<g id="node12" class="node"><title>Node11</title>
<g id="a_node12"><a xlink:href="../../d2/dd5/SettingsWrapper_8hpp.html" target="_top" xlink:title=" ">
<polygon fill="white" stroke="black" points="490,-224.5 490,-243.5 637,-243.5 637,-224.5 490,-224.5"/>
<text text-anchor="middle" x="563.5" y="-231.5" font-family="Helvetica,sans-Serif" font-size="10.00">Settings/SettingsWrapper.hpp</text>
</a>
</g>
</g>
<!-- Node10&#45;&gt;Node11 -->
<g id="edge13" class="edge"><title>Node10&#45;&gt;Node11</title>
<path fill="none" stroke="midnightblue" d="M573.361,-280.083C569.467,-272.927 565.606,-262.635 563.273,-253.691"/>
<polygon fill="midnightblue" stroke="midnightblue" points="566.678,-252.871 561.286,-243.751 559.814,-254.243 566.678,-252.871"/>
</g>
<!-- Node10&#45;&gt;Node13 -->
<g id="edge17" class="edge"><title>Node10&#45;&gt;Node13</title>
<path fill="none" stroke="midnightblue" d="M560.267,-280.444C538.116,-271.517 503.181,-257.439 478.064,-247.317"/>
<polygon fill="midnightblue" stroke="midnightblue" points="479.217,-244.008 468.633,-243.516 476.6,-250.501 479.217,-244.008"/>
</g>
<!-- Node14 -->
<g id="node15" class="node"><title>Node14</title>
<g id="a_node15"><a xlink:href="../../dd/d80/PrintStream_8hpp.html" target="_top" xlink:title=" ">
<polygon fill="white" stroke="black" points="655,-224.5 655,-243.5 742,-243.5 742,-224.5 655,-224.5"/>
<text text-anchor="middle" x="698.5" y="-231.5" font-family="Helvetica,sans-Serif" font-size="10.00">PrintStream.hpp</text>
</a>
</g>
</g>
<!-- Node10&#45;&gt;Node14 -->
<g id="edge18" class="edge"><title>Node10&#45;&gt;Node14</title>
<path fill="none" stroke="midnightblue" d="M600.039,-280.444C619.123,-271.636 649.075,-257.812 670.936,-247.722"/>
<polygon fill="midnightblue" stroke="midnightblue" points="672.435,-250.885 680.048,-243.516 669.501,-244.529 672.435,-250.885"/>
</g>
<!-- Node11&#45;&gt;Node10 -->
<g id="edge16" class="edge"><title>Node11&#45;&gt;Node10</title>
<path fill="none" stroke="midnightblue" d="M571.548,-243.751C575.443,-250.858 579.316,-261.136 581.673,-270.101"/>
<polygon fill="midnightblue" stroke="midnightblue" points="578.279,-270.977 583.694,-280.083 585.14,-269.587 578.279,-270.977"/>
</g>
<!-- Node12 -->
<g id="node13" class="node"><title>Node12</title>
<g id="a_node13"><a xlink:href="../../db/d02/Settings_8hpp.html" target="_top" xlink:title="All user settings and debugging options can be changed here.">
<polygon fill="white" stroke="black" points="457,-168.5 457,-187.5 528,-187.5 528,-168.5 457,-168.5"/>
<text text-anchor="middle" x="492.5" y="-175.5" font-family="Helvetica,sans-Serif" font-size="10.00">Settings.hpp</text>
</a>
</g>
</g>
<!-- Node11&#45;&gt;Node12 -->
<g id="edge14" class="edge"><title>Node11&#45;&gt;Node12</title>
<path fill="none" stroke="midnightblue" d="M552.093,-224.324C541.391,-216.185 525.159,-203.839 512.337,-194.087"/>
<polygon fill="midnightblue" stroke="midnightblue" points="514.193,-191.102 504.115,-187.834 509.956,-196.673 514.193,-191.102"/>
</g>
<!-- Node12&#45;&gt;Node3 -->
<g id="edge15" class="edge"><title>Node12&#45;&gt;Node3</title>
<path fill="none" stroke="midnightblue" d="M473.169,-168.444C453.18,-159.596 421.757,-145.687 398.936,-135.586"/>
<polygon fill="midnightblue" stroke="midnightblue" points="400.302,-132.363 389.741,-131.516 397.468,-138.764 400.302,-132.363"/>
</g>
<!-- Node15 -->
<g id="node16" class="node"><title>Node15</title>
<g id="a_node16"><a xlink:title=" ">
<polygon fill="white" stroke="#bfbfbf" points="669.5,-168.5 669.5,-187.5 727.5,-187.5 727.5,-168.5 669.5,-168.5"/>
<text text-anchor="middle" x="698.5" y="-175.5" font-family="Helvetica,sans-Serif" font-size="10.00">Arduino.h</text>
</a>
</g>
</g>
<!-- Node14&#45;&gt;Node15 -->
<g id="edge19" class="edge"><title>Node14&#45;&gt;Node15</title>
<path fill="none" stroke="midnightblue" d="M698.5,-224.083C698.5,-217.006 698.5,-206.861 698.5,-197.986"/>
<polygon fill="midnightblue" stroke="midnightblue" points="702,-197.751 698.5,-187.751 695,-197.751 702,-197.751"/>
</g>
<!-- Node18 -->
<g id="node19" class="node"><title>Node18</title>
<g id="a_node19"><a xlink:href="../../de/d6e/BankableMIDIInput_8hpp.html" target="_top" xlink:title=" ">
<polygon fill="white" stroke="black" points="422.5,-515.5 422.5,-534.5 572.5,-534.5 572.5,-515.5 422.5,-515.5"/>
<text text-anchor="middle" x="497.5" y="-522.5" font-family="Helvetica,sans-Serif" font-size="10.00">Banks/BankableMIDIInput.hpp</text>
</a>
</g>
</g>
<!-- Node17&#45;&gt;Node18 -->
<g id="edge25" class="edge"><title>Node17&#45;&gt;Node18</title>
<path fill="none" stroke="midnightblue" d="M399.039,-571.444C418.123,-562.636 448.075,-548.812 469.936,-538.722"/>
<polygon fill="midnightblue" stroke="midnightblue" points="471.435,-541.885 479.048,-534.516 468.501,-535.529 471.435,-541.885"/>
</g>
<!-- Node25 -->
<g id="node26" class="node"><title>Node25</title>
<g id="a_node26"><a xlink:href="../../df/de0/MIDIInputElementCC_8hpp.html" target="_top" xlink:title=" ">
<polygon fill="white" stroke="black" points="304,-448.5 304,-478.5 457,-478.5 457,-448.5 304,-448.5"/>
<text text-anchor="start" x="312" y="-466.5" font-family="Helvetica,sans-Serif" font-size="10.00">MIDI_Inputs/MIDIInputElement</text>
<text text-anchor="middle" x="380.5" y="-455.5" font-family="Helvetica,sans-Serif" font-size="10.00">CC.hpp</text>
</a>
</g>
</g>
<!-- Node17&#45;&gt;Node25 -->
<g id="edge45" class="edge"><title>Node17&#45;&gt;Node25</title>
<path fill="none" stroke="midnightblue" d="M380.5,-571.319C380.5,-553.967 380.5,-514.457 380.5,-488.658"/>
<polygon fill="midnightblue" stroke="midnightblue" points="384,-488.545 380.5,-478.545 377,-488.545 384,-488.545"/>
</g>
<!-- Node18&#45;&gt;Node9 -->
<g id="edge44" class="edge"><title>Node18&#45;&gt;Node9</title>
<path fill="none" stroke="midnightblue" d="M497.5,-515.298C497.5,-495.85 497.5,-448.49 497.5,-421.904"/>
<polygon fill="midnightblue" stroke="midnightblue" points="501,-421.623 497.5,-411.623 494,-421.623 501,-421.623"/>
</g>
<!-- Node18&#45;&gt;Node10 -->
<g id="edge43" class="edge"><title>Node18&#45;&gt;Node10</title>
<path fill="none" stroke="midnightblue" d="M504.38,-515.328C518.296,-497.282 549.717,-453.877 564.5,-412 576.697,-377.447 580.174,-334.434 581.146,-310.109"/>
<polygon fill="midnightblue" stroke="midnightblue" points="584.654,-309.886 581.448,-299.788 577.657,-309.681 584.654,-309.886"/>
</g>
<!-- Node19 -->
<g id="node20" class="node"><title>Node19</title>
<g id="a_node20"><a xlink:href="../../d4/d57/Bank_8hpp.html" target="_top" xlink:title=" ">
<polygon fill="white" stroke="black" points="628.5,-454 628.5,-473 686.5,-473 686.5,-454 628.5,-454"/>
<text text-anchor="middle" x="657.5" y="-461" font-family="Helvetica,sans-Serif" font-size="10.00">Bank.hpp</text>
</a>
</g>
</g>
<!-- Node18&#45;&gt;Node19 -->
<g id="edge26" class="edge"><title>Node18&#45;&gt;Node19</title>
<path fill="none" stroke="midnightblue" d="M515.524,-515.475C540.852,-505.225 587.071,-487.959 619.975,-476.399"/>
<polygon fill="midnightblue" stroke="midnightblue" points="621.426,-479.6 629.721,-473.009 619.126,-472.989 621.426,-479.6"/>
</g>
<!-- Node23 -->
<g id="node24" class="node"><title>Node23</title>
<g id="a_node24"><a xlink:href="../../dd/d1f/BankConfig_8hpp.html" target="_top" xlink:title=" ">
<polygon fill="white" stroke="black" points="214.5,-280.5 214.5,-299.5 300.5,-299.5 300.5,-280.5 214.5,-280.5"/>
<text text-anchor="middle" x="257.5" y="-287.5" font-family="Helvetica,sans-Serif" font-size="10.00">BankConfig.hpp</text>
</a>
</g>
</g>
<!-- Node18&#45;&gt;Node23 -->
<g id="edge39" class="edge"><title>Node18&#45;&gt;Node23</title>
<path fill="none" stroke="midnightblue" d="M422.068,-519.332C381.747,-513.984 332.69,-502.693 294.5,-479 262.001,-458.837 253.225,-448.066 240.5,-412 237.542,-403.618 237.278,-400.284 240.5,-392 248.369,-371.771 265.631,-376.229 273.5,-356 279.543,-340.464 273.791,-321.932 267.565,-308.638"/>
<polygon fill="midnightblue" stroke="midnightblue" points="270.606,-306.899 262.898,-299.63 264.39,-310.119 270.606,-306.899"/>
</g>
<!-- Node24 -->
<g id="node25" class="node"><title>Node24</title>
<g id="a_node25"><a xlink:href="../../d8/d38/MIDICNChannelAddress_8hpp.html" target="_top" xlink:title=" ">
<polygon fill="white" stroke="black" points="102,-336.5 102,-355.5 265,-355.5 265,-336.5 102,-336.5"/>
<text text-anchor="middle" x="183.5" y="-343.5" font-family="Helvetica,sans-Serif" font-size="10.00">Def/MIDICNChannelAddress.hpp</text>
</a>
</g>
</g>
<!-- Node18&#45;&gt;Node24 -->
<g id="edge41" class="edge"><title>Node18&#45;&gt;Node24</title>
<path fill="none" stroke="midnightblue" d="M422.243,-516.848C341.503,-508.472 222.735,-493.845 207.5,-479 177.003,-449.283 177.824,-394.694 180.785,-365.911"/>
<polygon fill="midnightblue" stroke="midnightblue" points="184.305,-365.969 182.055,-355.616 177.357,-365.112 184.305,-365.969"/>
</g>
<!-- Node19&#45;&gt;Node5 -->
<g id="edge37" class="edge"><title>Node19&#45;&gt;Node5</title>
<path fill="none" stroke="midnightblue" d="M686.528,-461.682C757.672,-459.115 938.219,-449.022 983.5,-412 1007.34,-392.507 1007.5,-377.795 1007.5,-347 1007.5,-347 1007.5,-347 1007.5,-121 1007.5,-72.7333 964.713,-75.3615 920.5,-56 851.172,-25.6404 761.944,-15.7499 713.532,-12.5372"/>
<polygon fill="midnightblue" stroke="midnightblue" points="713.468,-9.02696 703.275,-11.9169 713.045,-16.0142 713.468,-9.02696"/>
</g>
<!-- Node19&#45;&gt;Node8 -->
<g id="edge36" class="edge"><title>Node19&#45;&gt;Node8</title>
<path fill="none" stroke="midnightblue" d="M686.547,-460.815C760.827,-455.113 949.341,-431.168 912.5,-336 831.509,-126.784 705.937,-125.106 492.5,-56 438.865,-38.6342 374.82,-25.0631 335.666,-17.5435"/>
<polygon fill="midnightblue" stroke="midnightblue" points="336.267,-14.0952 325.79,-15.6742 334.965,-20.973 336.267,-14.0952"/>
</g>
<!-- Node19&#45;&gt;Node9 -->
<g id="edge30" class="edge"><title>Node19&#45;&gt;Node9</title>
<path fill="none" stroke="midnightblue" d="M634.576,-453.975C607.13,-443.769 560.984,-426.608 529.901,-415.049"/>
<polygon fill="midnightblue" stroke="midnightblue" points="530.974,-411.714 520.382,-411.509 528.535,-418.275 530.974,-411.714"/>
</g>
<!-- Node19&#45;&gt;Node10 -->
<g id="edge27" class="edge"><title>Node19&#45;&gt;Node10</title>
<path fill="none" stroke="midnightblue" d="M653.627,-453.76C641.733,-426.921 605.571,-345.318 589.428,-308.89"/>
<polygon fill="midnightblue" stroke="midnightblue" points="592.527,-307.244 585.275,-299.519 586.127,-310.08 592.527,-307.244"/>
</g>
<!-- Node19&#45;&gt;Node18 -->
<g id="edge38" class="edge"><title>Node19&#45;&gt;Node18</title>
<path fill="none" stroke="midnightblue" d="M639.516,-473.009C614.208,-483.252 567.993,-500.517 535.076,-512.083"/>
<polygon fill="midnightblue" stroke="midnightblue" points="533.619,-508.884 525.325,-515.475 535.92,-515.495 533.619,-508.884"/>
</g>
<!-- Node20 -->
<g id="node21" class="node"><title>Node20</title>
<g id="a_node21"><a xlink:href="../../d1/d93/Error_8hpp.html" target="_top" xlink:title=" ">
<polygon fill="white" stroke="black" points="648,-336.5 648,-355.5 741,-355.5 741,-336.5 648,-336.5"/>
<text text-anchor="middle" x="694.5" y="-343.5" font-family="Helvetica,sans-Serif" font-size="10.00">Helpers/Error.hpp</text>
</a>
</g>
</g>
<!-- Node19&#45;&gt;Node20 -->
<g id="edge28" class="edge"><title>Node19&#45;&gt;Node20</title>
<path fill="none" stroke="midnightblue" d="M660.281,-453.819C666.254,-435.173 680.423,-390.943 688.531,-365.632"/>
<polygon fill="midnightblue" stroke="midnightblue" points="691.969,-366.373 691.687,-355.782 685.303,-364.238 691.969,-366.373"/>
</g>
<!-- Node21 -->
<g id="node22" class="node"><title>Node21</title>
<g id="a_node22"><a xlink:href="../../d9/d46/Selectable_8hpp.html" target="_top" xlink:title=" ">
<polygon fill="white" stroke="black" points="707,-392.5 707,-411.5 832,-411.5 832,-392.5 707,-392.5"/>
<text text-anchor="middle" x="769.5" y="-399.5" font-family="Helvetica,sans-Serif" font-size="10.00">Selectors/Selectable.hpp</text>
</a>
</g>
</g>
<!-- Node19&#45;&gt;Node21 -->
<g id="edge31" class="edge"><title>Node19&#45;&gt;Node21</title>
<path fill="none" stroke="midnightblue" d="M673.547,-453.975C692.093,-444.122 722.84,-427.788 744.522,-416.27"/>
<polygon fill="midnightblue" stroke="midnightblue" points="746.294,-419.292 753.483,-411.509 743.01,-413.11 746.294,-419.292"/>
</g>
<!-- Node20&#45;&gt;Node10 -->
<g id="edge29" class="edge"><title>Node20&#45;&gt;Node10</title>
<path fill="none" stroke="midnightblue" d="M676.595,-336.444C658.246,-327.675 629.495,-313.935 608.406,-303.858"/>
<polygon fill="midnightblue" stroke="midnightblue" points="609.853,-300.67 599.321,-299.516 606.835,-306.986 609.853,-300.67"/>
</g>
<!-- Node21&#45;&gt;Node3 -->
<g id="edge32" class="edge"><title>Node21&#45;&gt;Node3</title>
<path fill="none" stroke="midnightblue" d="M771.611,-392.479C779.588,-357.999 804.137,-227.812 736.5,-168 689.897,-126.788 503.109,-122.215 415.847,-122.402"/>
<polygon fill="midnightblue" stroke="midnightblue" points="415.699,-118.903 405.715,-122.446 415.73,-125.903 415.699,-118.903"/>
</g>
<!-- Node21&#45;&gt;Node5 -->
<g id="edge34" class="edge"><title>Node21&#45;&gt;Node5</title>
<path fill="none" stroke="midnightblue" d="M832.069,-394.694C860.03,-388.827 891.372,-377.566 912.5,-356 933.563,-334.501 931.5,-321.098 931.5,-291 931.5,-291 931.5,-291 931.5,-121 931.5,-26.9249 782.564,-12.4541 713.236,-10.8142"/>
<polygon fill="midnightblue" stroke="midnightblue" points="713.274,-7.31449 703.219,-10.6541 713.162,-14.3136 713.274,-7.31449"/>
</g>
<!-- Node21&#45;&gt;Node20 -->
<g id="edge33" class="edge"><title>Node21&#45;&gt;Node20</title>
<path fill="none" stroke="midnightblue" d="M757.45,-392.324C746.037,-384.107 728.669,-371.602 715.065,-361.807"/>
<polygon fill="midnightblue" stroke="midnightblue" points="716.93,-358.837 706.769,-355.834 712.84,-364.517 716.93,-358.837"/>
</g>
<!-- Node22 -->
<g id="node23" class="node"><title>Node22</title>
<g id="a_node23"><a xlink:href="../../d7/dd7/Helpers_8hpp.html" target="_top" xlink:title=" ">
<polygon fill="white" stroke="black" points="797.5,-336.5 797.5,-355.5 903.5,-355.5 903.5,-336.5 797.5,-336.5"/>
<text text-anchor="middle" x="850.5" y="-343.5" font-family="Helvetica,sans-Serif" font-size="10.00">Helpers/Helpers.hpp</text>
</a>
</g>
</g>
<!-- Node21&#45;&gt;Node22 -->
<g id="edge35" class="edge"><title>Node21&#45;&gt;Node22</title>
<path fill="none" stroke="midnightblue" d="M782.514,-392.324C795.032,-383.979 814.182,-371.212 828.971,-361.352"/>
<polygon fill="midnightblue" stroke="midnightblue" points="831.139,-364.114 837.518,-355.655 827.256,-358.289 831.139,-364.114"/>
</g>
<!-- Node23&#45;&gt;Node3 -->
<g id="edge40" class="edge"><title>Node23&#45;&gt;Node3</title>
<path fill="none" stroke="midnightblue" d="M263.575,-280.075C281.594,-253.606 334.96,-175.209 358.785,-140.21"/>
<polygon fill="midnightblue" stroke="midnightblue" points="361.934,-141.804 364.667,-131.568 356.147,-137.865 361.934,-141.804"/>
</g>
<!-- Node24&#45;&gt;Node3 -->
<g id="edge42" class="edge"><title>Node24&#45;&gt;Node3</title>
<path fill="none" stroke="midnightblue" d="M185.027,-336.427C187.634,-323.418 193.83,-298.275 205.5,-280 245.157,-217.897 314.508,-163.017 349.31,-137.751"/>
<polygon fill="midnightblue" stroke="midnightblue" points="351.669,-140.367 357.767,-131.702 347.597,-134.673 351.669,-140.367"/>
</g>
<!-- Node25&#45;&gt;Node9 -->
<g id="edge46" class="edge"><title>Node25&#45;&gt;Node9</title>
<path fill="none" stroke="midnightblue" d="M408.227,-448.399C427.332,-438.684 452.558,-425.855 471.32,-416.314"/>
<polygon fill="midnightblue" stroke="midnightblue" points="473.148,-419.311 480.475,-411.658 469.975,-413.071 473.148,-419.311"/>
</g>
<!-- Node26 -->
<g id="node27" class="node"><title>Node26</title>
<g id="a_node27"><a xlink:href="../../dc/d90/MIDIInputElement_8hpp.html" target="_top" xlink:title=" ">
<polygon fill="white" stroke="black" points="249.5,-392.5 249.5,-411.5 421.5,-411.5 421.5,-392.5 249.5,-392.5"/>
<text text-anchor="middle" x="335.5" y="-399.5" font-family="Helvetica,sans-Serif" font-size="10.00">MIDI_Inputs/MIDIInputElement.hpp</text>
</a>
</g>
</g>
<!-- Node25&#45;&gt;Node26 -->
<g id="edge47" class="edge"><title>Node25&#45;&gt;Node26</title>
<path fill="none" stroke="midnightblue" d="M369.836,-448.399C363.364,-439.842 355.066,-428.871 348.249,-419.857"/>
<polygon fill="midnightblue" stroke="midnightblue" points="350.872,-417.522 342.048,-411.658 345.289,-421.745 350.872,-417.522"/>
</g>
<!-- Node26&#45;&gt;Node24 -->
<g id="edge54" class="edge"><title>Node26&#45;&gt;Node24</title>
<path fill="none" stroke="midnightblue" d="M311.415,-392.444C285.955,-383.399 245.606,-369.064 217.041,-358.916"/>
<polygon fill="midnightblue" stroke="midnightblue" points="218.067,-355.566 207.472,-355.516 215.723,-362.162 218.067,-355.566"/>
</g>
<!-- Node27 -->
<g id="node28" class="node"><title>Node27</title>
<g id="a_node28"><a xlink:href="../../d1/d30/MIDI__message__matcher_8hpp.html" target="_top" xlink:title=" ">
<polygon fill="white" stroke="black" points="324,-336.5 324,-355.5 467,-355.5 467,-336.5 324,-336.5"/>
<text text-anchor="middle" x="395.5" y="-343.5" font-family="Helvetica,sans-Serif" font-size="10.00">MIDI_message_matcher.hpp</text>
</a>
</g>
</g>
<!-- Node26&#45;&gt;Node27 -->
<g id="edge48" class="edge"><title>Node26&#45;&gt;Node27</title>
<path fill="none" stroke="midnightblue" d="M345.14,-392.324C354.01,-384.341 367.375,-372.313 378.108,-362.653"/>
<polygon fill="midnightblue" stroke="midnightblue" points="380.593,-365.125 385.685,-355.834 375.91,-359.922 380.593,-365.125"/>
</g>
<!-- Node28 -->
<g id="node29" class="node"><title>Node28</title>
<g id="a_node29"><a xlink:href="../../d7/d2d/MIDI__Parser_8hpp.html" target="_top" xlink:title=" ">
<polygon fill="white" stroke="black" points="319,-280.5 319,-299.5 474,-299.5 474,-280.5 319,-280.5"/>
<text text-anchor="middle" x="396.5" y="-287.5" font-family="Helvetica,sans-Serif" font-size="10.00">MIDI_Parsers/MIDI_Parser.hpp</text>
</a>
</g>
</g>
<!-- Node27&#45;&gt;Node28 -->
<g id="edge49" class="edge"><title>Node27&#45;&gt;Node28</title>
<path fill="none" stroke="midnightblue" d="M395.665,-336.083C395.796,-329.006 395.984,-318.861 396.148,-309.986"/>
<polygon fill="midnightblue" stroke="midnightblue" points="399.652,-309.814 396.338,-299.751 392.653,-309.685 399.652,-309.814"/>
</g>
<!-- Node28&#45;&gt;Node5 -->
<g id="edge51" class="edge"><title>Node28&#45;&gt;Node5</title>
<path fill="none" stroke="midnightblue" d="M396.386,-280.113C396.704,-266.22 399.394,-239.362 414.5,-224 454.138,-183.691 487.294,-215.836 536.5,-188 600.566,-151.758 619.196,-138.234 658.5,-76 667.464,-61.8059 672.641,-43.3273 675.471,-29.7023"/>
<polygon fill="midnightblue" stroke="midnightblue" points="678.963,-30.0675 677.329,-19.5994 672.078,-28.8015 678.963,-30.0675"/>
</g>
<!-- Node28&#45;&gt;Node8 -->
<g id="edge50" class="edge"><title>Node28&#45;&gt;Node8</title>
<path fill="none" stroke="midnightblue" d="M358.564,-280.487C289.092,-263.79 148.5,-224.393 148.5,-179 148.5,-179 148.5,-179 148.5,-121 148.5,-64.312 218.886,-33.7556 263.548,-20.0728"/>
<polygon fill="midnightblue" stroke="midnightblue" points="264.58,-23.4175 273.198,-17.2539 262.618,-16.6983 264.58,-23.4175"/>
</g>
<!-- Node28&#45;&gt;Node11 -->
<g id="edge53" class="edge"><title>Node28&#45;&gt;Node11</title>
<path fill="none" stroke="midnightblue" d="M422.962,-280.444C451.178,-271.32 496.04,-256.813 527.468,-246.651"/>
<polygon fill="midnightblue" stroke="midnightblue" points="528.724,-249.923 537.162,-243.516 526.57,-243.263 528.724,-249.923"/>
</g>
<!-- Node28&#45;&gt;Node13 -->
<g id="edge52" class="edge"><title>Node28&#45;&gt;Node13</title>
<path fill="none" stroke="midnightblue" d="M404.922,-280.083C412.348,-272.22 423.352,-260.569 432.312,-251.081"/>
<polygon fill="midnightblue" stroke="midnightblue" points="434.913,-253.424 439.235,-243.751 429.824,-248.618 434.913,-253.424"/>
</g>
</g>
</svg>
