<?xml version="1.0" encoding="UTF-8" standalone="no"?>
<!DOCTYPE svg PUBLIC "-//W3C//DTD SVG 1.1//EN"
 "http://www.w3.org/Graphics/SVG/1.1/DTD/svg11.dtd">
<!-- Generated by graphviz version 2.38.0 (20140413.2041)
 -->
<!-- Title: MIDIButtonMatrix.hpp Pages: 1 -->
<svg width="837pt" height="655pt"
 viewBox="0.00 0.00 836.50 655.00" xmlns="http://www.w3.org/2000/svg" xmlns:xlink="http://www.w3.org/1999/xlink">
<g id="graph0" class="graph" transform="scale(1 1) rotate(0) translate(4 651)">
<title>MIDIButtonMatrix.hpp</title>
<polygon fill="white" stroke="none" points="-4,4 -4,-651 832.5,-651 832.5,4 -4,4"/>
<!-- Node1 -->
<g id="node1" class="node"><title>Node1</title>
<g id="a_node1"><a xlink:title=" ">
<polygon fill="#bfbfbf" stroke="black" points="153.5,-627.5 153.5,-646.5 266.5,-646.5 266.5,-627.5 153.5,-627.5"/>
<text text-anchor="middle" x="210" y="-634.5" font-family="Helvetica,sans-Serif" font-size="10.00">MIDIButtonMatrix.hpp</text>
</a>
</g>
</g>
<!-- Node2 -->
<g id="node2" class="node"><title>Node2</title>
<g id="a_node2"><a xlink:href="../../d0/d4e/Def_8hpp.html" target="_top" xlink:title=" ">
<polygon fill="white" stroke="black" points="328,-112.5 328,-131.5 398,-131.5 398,-112.5 328,-112.5"/>
<text text-anchor="middle" x="363" y="-119.5" font-family="Helvetica,sans-Serif" font-size="10.00">Def/Def.hpp</text>
</a>
</g>
</g>
<!-- Node1&#45;&gt;Node2 -->
<g id="edge1" class="edge"><title>Node1&#45;&gt;Node2</title>
<path fill="none" stroke="midnightblue" d="M153.448,-630.58C91.2488,-621.139 0,-595.453 0,-526 0,-526 0,-526 0,-233 0,-167.32 220.41,-137.208 317.733,-127.113"/>
<polygon fill="midnightblue" stroke="midnightblue" points="318.267,-130.577 327.864,-126.089 317.563,-123.613 318.267,-130.577"/>
</g>
<!-- Node9 -->
<g id="node9" class="node"><title>Node9</title>
<g id="a_node9"><a xlink:href="../../d9/d4b/ButtonMatrix_8hpp.html" target="_top" xlink:title=" ">
<polygon fill="white" stroke="black" points="142,-571.5 142,-590.5 278,-590.5 278,-571.5 142,-571.5"/>
<text text-anchor="middle" x="210" y="-578.5" font-family="Helvetica,sans-Serif" font-size="10.00">Hardware/ButtonMatrix.hpp</text>
</a>
</g>
</g>
<!-- Node1&#45;&gt;Node9 -->
<g id="edge12" class="edge"><title>Node1&#45;&gt;Node9</title>
<path fill="none" stroke="midnightblue" d="M210,-627.083C210,-620.006 210,-609.861 210,-600.986"/>
<polygon fill="midnightblue" stroke="midnightblue" points="213.5,-600.751 210,-590.751 206.5,-600.751 213.5,-600.751"/>
</g>
<!-- Node24 -->
<g id="node24" class="node"><title>Node24</title>
<g id="a_node24"><a xlink:href="../../d1/d41/MIDIOutputElement_8hpp.html" target="_top" xlink:title=" ">
<polygon fill="white" stroke="black" points="533.5,-448.5 533.5,-478.5 658.5,-478.5 658.5,-448.5 533.5,-448.5"/>
<text text-anchor="start" x="541.5" y="-466.5" font-family="Helvetica,sans-Serif" font-size="10.00">MIDI_Outputs/Abstract</text>
<text text-anchor="middle" x="596" y="-455.5" font-family="Helvetica,sans-Serif" font-size="10.00">/MIDIOutputElement.hpp</text>
</a>
</g>
</g>
<!-- Node1&#45;&gt;Node24 -->
<g id="edge35" class="edge"><title>Node1&#45;&gt;Node24</title>
<path fill="none" stroke="midnightblue" d="M237.799,-627.431C287.395,-611.737 393.91,-576.181 479,-535 509.906,-520.043 543.276,-499.454 566.438,-484.388"/>
<polygon fill="midnightblue" stroke="midnightblue" points="568.654,-487.12 575.093,-478.706 564.813,-481.269 568.654,-487.12"/>
</g>
<!-- Node3 -->
<g id="node3" class="node"><title>Node3</title>
<g id="a_node3"><a xlink:href="../../d7/d42/Channel_8hpp.html" target="_top" xlink:title=" ">
<polygon fill="white" stroke="black" points="125.5,-56.5 125.5,-75.5 196.5,-75.5 196.5,-56.5 125.5,-56.5"/>
<text text-anchor="middle" x="161" y="-63.5" font-family="Helvetica,sans-Serif" font-size="10.00">Channel.hpp</text>
</a>
</g>
</g>
<!-- Node2&#45;&gt;Node3 -->
<g id="edge2" class="edge"><title>Node2&#45;&gt;Node3</title>
<path fill="none" stroke="midnightblue" d="M330.992,-112.444C296.271,-103.162 240.712,-88.3093 202.623,-78.127"/>
<polygon fill="midnightblue" stroke="midnightblue" points="203.422,-74.7178 192.858,-75.5164 201.615,-81.4803 203.422,-74.7178"/>
</g>
<!-- Node4 -->
<g id="node4" class="node"><title>Node4</title>
<g id="a_node4"><a xlink:title=" ">
<polygon fill="white" stroke="#bfbfbf" points="105.5,-0.5 105.5,-19.5 154.5,-19.5 154.5,-0.5 105.5,-0.5"/>
<text text-anchor="middle" x="130" y="-7.5" font-family="Helvetica,sans-Serif" font-size="10.00">stdint.h</text>
</a>
</g>
</g>
<!-- Node2&#45;&gt;Node4 -->
<g id="edge11" class="edge"><title>Node2&#45;&gt;Node4</title>
<path fill="none" stroke="midnightblue" d="M327.989,-119.931C266.385,-117.232 142.596,-107.88 116,-76 104.945,-62.7485 111.576,-42.8069 119.007,-28.5083"/>
<polygon fill="midnightblue" stroke="midnightblue" points="122.14,-30.0797 124.072,-19.6623 116.066,-26.6015 122.14,-30.0797"/>
</g>
<!-- Node5 -->
<g id="node5" class="node"><title>Node5</title>
<g id="a_node5"><a xlink:href="../../dc/dc7/NamespaceSettings_8hpp.html" target="_top" xlink:title=" ">
<polygon fill="white" stroke="black" points="174.5,-0.5 174.5,-19.5 337.5,-19.5 337.5,-0.5 174.5,-0.5"/>
<text text-anchor="middle" x="256" y="-7.5" font-family="Helvetica,sans-Serif" font-size="10.00">Settings/NamespaceSettings.hpp</text>
</a>
</g>
</g>
<!-- Node2&#45;&gt;Node5 -->
<g id="edge9" class="edge"><title>Node2&#45;&gt;Node5</title>
<path fill="none" stroke="midnightblue" d="M362.449,-112.424C361.167,-98.9571 356.928,-72.6721 343,-56 330.514,-41.0545 311.788,-30.4752 294.904,-23.3466"/>
<polygon fill="midnightblue" stroke="midnightblue" points="295.824,-19.9474 285.237,-19.5412 293.26,-26.4609 295.824,-19.9474"/>
</g>
<!-- Node6 -->
<g id="node6" class="node"><title>Node6</title>
<g id="a_node6"><a xlink:href="../../dc/d50/Frequency_8hpp.html" target="_top" xlink:title=" ">
<polygon fill="white" stroke="black" points="253.5,-56.5 253.5,-75.5 334.5,-75.5 334.5,-56.5 253.5,-56.5"/>
<text text-anchor="middle" x="294" y="-63.5" font-family="Helvetica,sans-Serif" font-size="10.00">Frequency.hpp</text>
</a>
</g>
</g>
<!-- Node2&#45;&gt;Node6 -->
<g id="edge5" class="edge"><title>Node2&#45;&gt;Node6</title>
<path fill="none" stroke="midnightblue" d="M351.914,-112.324C341.514,-104.185 325.739,-91.8395 313.278,-82.0874"/>
<polygon fill="midnightblue" stroke="midnightblue" points="315.32,-79.2407 305.288,-75.8339 311.006,-84.7533 315.32,-79.2407"/>
</g>
<!-- Node7 -->
<g id="node7" class="node"><title>Node7</title>
<g id="a_node7"><a xlink:href="../../de/d76/Array_8hpp.html" target="_top" xlink:title=" ">
<polygon fill="white" stroke="black" points="429.5,-56.5 429.5,-75.5 524.5,-75.5 524.5,-56.5 429.5,-56.5"/>
<text text-anchor="middle" x="477" y="-63.5" font-family="Helvetica,sans-Serif" font-size="10.00">Helpers/Array.hpp</text>
</a>
</g>
</g>
<!-- Node2&#45;&gt;Node7 -->
<g id="edge7" class="edge"><title>Node2&#45;&gt;Node7</title>
<path fill="none" stroke="midnightblue" d="M381.064,-112.444C399.575,-103.675 428.581,-89.9355 449.855,-79.8579"/>
<polygon fill="midnightblue" stroke="midnightblue" points="451.482,-82.9604 459.021,-75.5164 448.485,-76.6343 451.482,-82.9604"/>
</g>
<!-- Node8 -->
<g id="node8" class="node"><title>Node8</title>
<g id="a_node8"><a xlink:title=" ">
<polygon fill="white" stroke="#bfbfbf" points="451,-0.5 451,-19.5 503,-19.5 503,-0.5 451,-0.5"/>
<text text-anchor="middle" x="477" y="-7.5" font-family="Helvetica,sans-Serif" font-size="10.00">stddef.h</text>
</a>
</g>
</g>
<!-- Node2&#45;&gt;Node8 -->
<g id="edge10" class="edge"><title>Node2&#45;&gt;Node8</title>
<path fill="none" stroke="midnightblue" d="M369.909,-112.134C380.188,-99.1811 400.41,-74.604 420,-56 431.398,-45.1758 445.213,-34.2218 456.388,-25.8315"/>
<polygon fill="midnightblue" stroke="midnightblue" points="458.721,-28.4594 464.687,-19.7038 454.563,-22.8281 458.721,-28.4594"/>
</g>
<!-- Node3&#45;&gt;Node4 -->
<g id="edge3" class="edge"><title>Node3&#45;&gt;Node4</title>
<path fill="none" stroke="midnightblue" d="M155.881,-56.083C151.592,-48.6127 145.342,-37.7244 140.058,-28.5199"/>
<polygon fill="midnightblue" stroke="midnightblue" points="143.038,-26.6811 135.024,-19.7511 136.967,-30.1662 143.038,-26.6811"/>
</g>
<!-- Node3&#45;&gt;Node5 -->
<g id="edge4" class="edge"><title>Node3&#45;&gt;Node5</title>
<path fill="none" stroke="midnightblue" d="M176.263,-56.324C191.221,-47.8215 214.255,-34.7288 231.727,-24.7975"/>
<polygon fill="midnightblue" stroke="midnightblue" points="233.81,-27.639 240.774,-19.6545 230.351,-21.5534 233.81,-27.639"/>
</g>
<!-- Node6&#45;&gt;Node5 -->
<g id="edge6" class="edge"><title>Node6&#45;&gt;Node5</title>
<path fill="none" stroke="midnightblue" d="M287.725,-56.083C282.358,-48.4554 274.482,-37.2645 267.921,-27.9408"/>
<polygon fill="midnightblue" stroke="midnightblue" points="270.775,-25.9149 262.158,-19.7511 265.051,-29.9434 270.775,-25.9149"/>
</g>
<!-- Node7&#45;&gt;Node8 -->
<g id="edge8" class="edge"><title>Node7&#45;&gt;Node8</title>
<path fill="none" stroke="midnightblue" d="M477,-56.083C477,-49.0059 477,-38.8611 477,-29.9865"/>
<polygon fill="midnightblue" stroke="midnightblue" points="480.5,-29.751 477,-19.7511 473.5,-29.7511 480.5,-29.751"/>
</g>
<!-- Node9&#45;&gt;Node2 -->
<g id="edge13" class="edge"><title>Node9&#45;&gt;Node2</title>
<path fill="none" stroke="midnightblue" d="M278,-577.536C353.54,-570.732 465,-546.756 465,-464.5 465,-464.5 465,-464.5 465,-401 465,-296.004 565.937,-252.782 504,-168 482.253,-138.231 440.594,-127.696 408.174,-124.185"/>
<polygon fill="midnightblue" stroke="midnightblue" points="408.281,-120.681 398.009,-123.277 407.658,-127.653 408.281,-120.681"/>
</g>
<!-- Node10 -->
<g id="node10" class="node"><title>Node10</title>
<g id="a_node10"><a xlink:href="../../d5/d41/ButtonMatrix_8ipp.html" target="_top" xlink:title=" ">
<polygon fill="white" stroke="black" points="166,-515.5 166,-534.5 254,-534.5 254,-515.5 166,-515.5"/>
<text text-anchor="middle" x="210" y="-522.5" font-family="Helvetica,sans-Serif" font-size="10.00">ButtonMatrix.ipp</text>
</a>
</g>
</g>
<!-- Node9&#45;&gt;Node10 -->
<g id="edge14" class="edge"><title>Node9&#45;&gt;Node10</title>
<path fill="none" stroke="midnightblue" d="M204.834,-571.083C203.324,-563.927 202.894,-553.635 203.542,-544.691"/>
<polygon fill="midnightblue" stroke="midnightblue" points="207.015,-545.126 204.869,-534.751 200.077,-544.2 207.015,-545.126"/>
</g>
<!-- Node10&#45;&gt;Node9 -->
<g id="edge15" class="edge"><title>Node10&#45;&gt;Node9</title>
<path fill="none" stroke="midnightblue" d="M215.131,-534.751C216.657,-541.858 217.104,-552.136 216.472,-561.101"/>
<polygon fill="midnightblue" stroke="midnightblue" points="212.993,-560.713 215.166,-571.083 219.934,-561.622 212.993,-560.713"/>
</g>
<!-- Node11 -->
<g id="node11" class="node"><title>Node11</title>
<g id="a_node11"><a xlink:href="../../dd/ddf/ExtendedInputOutput_8hpp.html" target="_top" xlink:title=" ">
<polygon fill="white" stroke="black" points="133,-448.5 133,-478.5 287,-478.5 287,-448.5 133,-448.5"/>
<text text-anchor="start" x="141" y="-466.5" font-family="Helvetica,sans-Serif" font-size="10.00">Hardware/ExtendedInputOutput</text>
<text text-anchor="middle" x="210" y="-455.5" font-family="Helvetica,sans-Serif" font-size="10.00">/ExtendedInputOutput.hpp</text>
</a>
</g>
</g>
<!-- Node10&#45;&gt;Node11 -->
<g id="edge16" class="edge"><title>Node10&#45;&gt;Node11</title>
<path fill="none" stroke="midnightblue" d="M210,-515.475C210,-508.471 210,-498.192 210,-488.696"/>
<polygon fill="midnightblue" stroke="midnightblue" points="213.5,-488.523 210,-478.523 206.5,-488.523 213.5,-488.523"/>
</g>
<!-- Node23 -->
<g id="node23" class="node"><title>Node23</title>
<g id="a_node23"><a xlink:title=" ">
<polygon fill="white" stroke="#bfbfbf" points="65.5,-454 65.5,-473 114.5,-473 114.5,-454 65.5,-454"/>
<text text-anchor="middle" x="90" y="-461" font-family="Helvetica,sans-Serif" font-size="10.00">string.h</text>
</a>
</g>
</g>
<!-- Node10&#45;&gt;Node23 -->
<g id="edge34" class="edge"><title>Node10&#45;&gt;Node23</title>
<path fill="none" stroke="midnightblue" d="M192.807,-515.475C172.757,-505.534 139.401,-488.995 116.14,-477.461"/>
<polygon fill="midnightblue" stroke="midnightblue" points="117.675,-474.316 107.161,-473.009 114.566,-480.587 117.675,-474.316"/>
</g>
<!-- Node12 -->
<g id="node12" class="node"><title>Node12</title>
<g id="a_node12"><a xlink:href="../../d4/d57/ExtendedIOElement_8hpp.html" target="_top" xlink:title=" ">
<polygon fill="white" stroke="black" points="148.5,-392.5 148.5,-411.5 271.5,-411.5 271.5,-392.5 148.5,-392.5"/>
<text text-anchor="middle" x="210" y="-399.5" font-family="Helvetica,sans-Serif" font-size="10.00">ExtendedIOElement.hpp</text>
</a>
</g>
</g>
<!-- Node11&#45;&gt;Node12 -->
<g id="edge17" class="edge"><title>Node11&#45;&gt;Node12</title>
<path fill="none" stroke="midnightblue" d="M210,-448.399C210,-440.466 210,-430.458 210,-421.858"/>
<polygon fill="midnightblue" stroke="midnightblue" points="213.5,-421.658 210,-411.658 206.5,-421.658 213.5,-421.658"/>
</g>
<!-- Node19 -->
<g id="node19" class="node"><title>Node19</title>
<g id="a_node19"><a xlink:title=" ">
<polygon fill="white" stroke="#bfbfbf" points="135,-168.5 135,-187.5 193,-187.5 193,-168.5 135,-168.5"/>
<text text-anchor="middle" x="164" y="-175.5" font-family="Helvetica,sans-Serif" font-size="10.00">Arduino.h</text>
</a>
</g>
</g>
<!-- Node11&#45;&gt;Node19 -->
<g id="edge33" class="edge"><title>Node11&#45;&gt;Node19</title>
<path fill="none" stroke="midnightblue" d="M171.601,-448.46C132.004,-431.211 76,-397.83 76,-347 76,-347 76,-347 76,-289 76,-258.902 77.0586,-248.166 95,-224 105.044,-210.472 120.457,-199.865 134.17,-192.355"/>
<polygon fill="midnightblue" stroke="midnightblue" points="136.015,-195.342 143.305,-187.653 132.812,-189.118 136.015,-195.342"/>
</g>
<!-- Node12&#45;&gt;Node2 -->
<g id="edge18" class="edge"><title>Node12&#45;&gt;Node2</title>
<path fill="none" stroke="midnightblue" d="M197.377,-392.449C163.769,-368.523 75.9362,-297.8 95,-224 102.115,-196.456 102.954,-184.678 126,-168 155.989,-146.299 257.568,-133.111 317.569,-127.027"/>
<polygon fill="midnightblue" stroke="midnightblue" points="317.935,-130.508 327.543,-126.042 317.247,-123.542 317.935,-130.508"/>
</g>
<!-- Node13 -->
<g id="node13" class="node"><title>Node13</title>
<g id="a_node13"><a xlink:href="../../de/dd1/LinkedList_8hpp.html" target="_top" xlink:title=" ">
<polygon fill="white" stroke="black" points="190,-336.5 190,-355.5 306,-355.5 306,-336.5 190,-336.5"/>
<text text-anchor="middle" x="248" y="-343.5" font-family="Helvetica,sans-Serif" font-size="10.00">Helpers/LinkedList.hpp</text>
</a>
</g>
</g>
<!-- Node12&#45;&gt;Node13 -->
<g id="edge19" class="edge"><title>Node12&#45;&gt;Node13</title>
<path fill="none" stroke="midnightblue" d="M216.275,-392.083C221.642,-384.455 229.518,-373.264 236.079,-363.941"/>
<polygon fill="midnightblue" stroke="midnightblue" points="238.949,-365.943 241.842,-355.751 233.225,-361.915 238.949,-365.943"/>
</g>
<!-- Node14 -->
<g id="node14" class="node"><title>Node14</title>
<g id="a_node14"><a xlink:href="../../df/dee/Debug_8hpp.html" target="_top" xlink:title=" ">
<polygon fill="white" stroke="black" points="339.5,-280.5 339.5,-299.5 440.5,-299.5 440.5,-280.5 339.5,-280.5"/>
<text text-anchor="middle" x="390" y="-287.5" font-family="Helvetica,sans-Serif" font-size="10.00">Helpers/Debug.hpp</text>
</a>
</g>
</g>
<!-- Node13&#45;&gt;Node14 -->
<g id="edge20" class="edge"><title>Node13&#45;&gt;Node14</title>
<path fill="none" stroke="midnightblue" d="M270.5,-336.444C294.077,-327.478 331.322,-313.314 357.964,-303.183"/>
<polygon fill="midnightblue" stroke="midnightblue" points="359.502,-306.342 367.605,-299.516 357.014,-299.8 359.502,-306.342"/>
</g>
<!-- Node20 -->
<g id="node20" class="node"><title>Node20</title>
<g id="a_node20"><a xlink:title=" ">
<polygon fill="white" stroke="#bfbfbf" points="204,-280.5 204,-299.5 252,-299.5 252,-280.5 204,-280.5"/>
<text text-anchor="middle" x="228" y="-287.5" font-family="Helvetica,sans-Serif" font-size="10.00">stdlib.h</text>
</a>
</g>
</g>
<!-- Node13&#45;&gt;Node20 -->
<g id="edge29" class="edge"><title>Node13&#45;&gt;Node20</title>
<path fill="none" stroke="midnightblue" d="M244.697,-336.083C242.018,-328.849 238.151,-318.409 234.814,-309.397"/>
<polygon fill="midnightblue" stroke="midnightblue" points="237.996,-307.913 231.241,-299.751 231.432,-310.344 237.996,-307.913"/>
</g>
<!-- Node21 -->
<g id="node21" class="node"><title>Node21</title>
<g id="a_node21"><a xlink:href="../../d7/d79/MinMaxFix_8hpp.html" target="_top" xlink:title=" ">
<polygon fill="white" stroke="black" points="104,-224.5 104,-243.5 224,-243.5 224,-224.5 104,-224.5"/>
<text text-anchor="middle" x="164" y="-231.5" font-family="Helvetica,sans-Serif" font-size="10.00">Helpers/MinMaxFix.hpp</text>
</a>
</g>
</g>
<!-- Node13&#45;&gt;Node21 -->
<g id="edge30" class="edge"><title>Node13&#45;&gt;Node21</title>
<path fill="none" stroke="midnightblue" d="M234.863,-336.277C223.214,-328.023 206.337,-314.731 195,-300 184.049,-285.771 175.629,-267.052 170.347,-253.357"/>
<polygon fill="midnightblue" stroke="midnightblue" points="173.514,-251.825 166.795,-243.634 166.939,-254.227 173.514,-251.825"/>
</g>
<!-- Node22 -->
<g id="node22" class="node"><title>Node22</title>
<g id="a_node22"><a xlink:title=" ">
<polygon fill="white" stroke="#bfbfbf" points="270.5,-280.5 270.5,-299.5 317.5,-299.5 317.5,-280.5 270.5,-280.5"/>
<text text-anchor="middle" x="294" y="-287.5" font-family="Helvetica,sans-Serif" font-size="10.00">iterator</text>
</a>
</g>
</g>
<!-- Node13&#45;&gt;Node22 -->
<g id="edge32" class="edge"><title>Node13&#45;&gt;Node22</title>
<path fill="none" stroke="midnightblue" d="M255.596,-336.083C262.227,-328.298 272.021,-316.801 280.058,-307.367"/>
<polygon fill="midnightblue" stroke="midnightblue" points="282.725,-309.633 286.545,-299.751 277.396,-305.094 282.725,-309.633"/>
</g>
<!-- Node15 -->
<g id="node15" class="node"><title>Node15</title>
<g id="a_node15"><a xlink:href="../../d2/dd5/SettingsWrapper_8hpp.html" target="_top" xlink:title=" ">
<polygon fill="white" stroke="black" points="347.5,-224.5 347.5,-243.5 494.5,-243.5 494.5,-224.5 347.5,-224.5"/>
<text text-anchor="middle" x="421" y="-231.5" font-family="Helvetica,sans-Serif" font-size="10.00">Settings/SettingsWrapper.hpp</text>
</a>
</g>
</g>
<!-- Node14&#45;&gt;Node15 -->
<g id="edge21" class="edge"><title>Node14&#45;&gt;Node15</title>
<path fill="none" stroke="midnightblue" d="M389.953,-280.083C392.722,-272.455 398.764,-261.264 404.96,-251.941"/>
<polygon fill="midnightblue" stroke="midnightblue" points="407.852,-253.914 410.845,-243.751 402.167,-249.829 407.852,-253.914"/>
</g>
<!-- Node18 -->
<g id="node18" class="node"><title>Node18</title>
<g id="a_node18"><a xlink:href="../../dd/d80/PrintStream_8hpp.html" target="_top" xlink:title=" ">
<polygon fill="white" stroke="black" points="242.5,-224.5 242.5,-243.5 329.5,-243.5 329.5,-224.5 242.5,-224.5"/>
<text text-anchor="middle" x="286" y="-231.5" font-family="Helvetica,sans-Serif" font-size="10.00">PrintStream.hpp</text>
</a>
</g>
</g>
<!-- Node14&#45;&gt;Node18 -->
<g id="edge27" class="edge"><title>Node14&#45;&gt;Node18</title>
<path fill="none" stroke="midnightblue" d="M373.291,-280.324C356.688,-271.703 330.998,-258.364 311.78,-248.386"/>
<polygon fill="midnightblue" stroke="midnightblue" points="313.156,-245.156 302.668,-243.655 309.93,-251.369 313.156,-245.156"/>
</g>
<!-- Node15&#45;&gt;Node5 -->
<g id="edge24" class="edge"><title>Node15&#45;&gt;Node5</title>
<path fill="none" stroke="midnightblue" d="M353.301,-224.447C309.283,-217.337 257.624,-205.521 244,-188 207.334,-140.846 233.109,-63.5545 247.761,-28.8503"/>
<polygon fill="midnightblue" stroke="midnightblue" points="251.04,-30.0901 251.87,-19.5278 244.634,-27.2669 251.04,-30.0901"/>
</g>
<!-- Node15&#45;&gt;Node14 -->
<g id="edge26" class="edge"><title>Node15&#45;&gt;Node14</title>
<path fill="none" stroke="midnightblue" d="M421.107,-243.751C418.385,-251.327 412.369,-262.505 406.176,-271.855"/>
<polygon fill="midnightblue" stroke="midnightblue" points="403.261,-269.914 400.285,-280.083 408.952,-273.989 403.261,-269.914"/>
</g>
<!-- Node16 -->
<g id="node16" class="node"><title>Node16</title>
<g id="a_node16"><a xlink:href="../../db/d02/Settings_8hpp.html" target="_top" xlink:title="All user settings and debugging options can be changed here.">
<polygon fill="white" stroke="black" points="253.5,-168.5 253.5,-187.5 324.5,-187.5 324.5,-168.5 253.5,-168.5"/>
<text text-anchor="middle" x="289" y="-175.5" font-family="Helvetica,sans-Serif" font-size="10.00">Settings.hpp</text>
</a>
</g>
</g>
<!-- Node15&#45;&gt;Node16 -->
<g id="edge22" class="edge"><title>Node15&#45;&gt;Node16</title>
<path fill="none" stroke="midnightblue" d="M400.084,-224.444C378.264,-215.517 343.85,-201.439 319.108,-191.317"/>
<polygon fill="midnightblue" stroke="midnightblue" points="320.399,-188.063 309.818,-187.516 317.748,-194.542 320.399,-188.063"/>
</g>
<!-- Node17 -->
<g id="node17" class="node"><title>Node17</title>
<g id="a_node17"><a xlink:href="../../d9/d98/TeensyUSBTypes_8hpp.html" target="_top" xlink:title=" ">
<polygon fill="white" stroke="black" points="343,-168.5 343,-187.5 495,-187.5 495,-168.5 343,-168.5"/>
<text text-anchor="middle" x="419" y="-175.5" font-family="Helvetica,sans-Serif" font-size="10.00">Helpers/TeensyUSBTypes.hpp</text>
</a>
</g>
</g>
<!-- Node15&#45;&gt;Node17 -->
<g id="edge25" class="edge"><title>Node15&#45;&gt;Node17</title>
<path fill="none" stroke="midnightblue" d="M420.67,-224.083C420.408,-217.006 420.032,-206.861 419.703,-197.986"/>
<polygon fill="midnightblue" stroke="midnightblue" points="423.192,-197.615 419.324,-187.751 416.197,-197.874 423.192,-197.615"/>
</g>
<!-- Node16&#45;&gt;Node2 -->
<g id="edge23" class="edge"><title>Node16&#45;&gt;Node2</title>
<path fill="none" stroke="midnightblue" d="M300.889,-168.324C312.15,-160.107 329.287,-147.602 342.709,-137.807"/>
<polygon fill="midnightblue" stroke="midnightblue" points="344.88,-140.556 350.894,-131.834 340.753,-134.901 344.88,-140.556"/>
</g>
<!-- Node18&#45;&gt;Node19 -->
<g id="edge28" class="edge"><title>Node18&#45;&gt;Node19</title>
<path fill="none" stroke="midnightblue" d="M266.669,-224.444C246.68,-215.596 215.257,-201.687 192.436,-191.586"/>
<polygon fill="midnightblue" stroke="midnightblue" points="193.802,-188.363 183.241,-187.516 190.968,-194.764 193.802,-188.363"/>
</g>
<!-- Node21&#45;&gt;Node19 -->
<g id="edge31" class="edge"><title>Node21&#45;&gt;Node19</title>
<path fill="none" stroke="midnightblue" d="M164,-224.083C164,-217.006 164,-206.861 164,-197.986"/>
<polygon fill="midnightblue" stroke="midnightblue" points="167.5,-197.751 164,-187.751 160.5,-197.751 167.5,-197.751"/>
</g>
<!-- Node24&#45;&gt;Node2 -->
<g id="edge36" class="edge"><title>Node24&#45;&gt;Node2</title>
<path fill="none" stroke="midnightblue" d="M604.495,-448.485C616.504,-427.304 637,-385.513 637,-347 637,-347 637,-347 637,-233 637,-188.215 600.074,-187.996 560,-168 511.383,-143.741 449.488,-132.364 408.175,-127.162"/>
<polygon fill="midnightblue" stroke="midnightblue" points="408.479,-123.673 398.136,-125.968 407.653,-130.624 408.479,-123.673"/>
</g>
<!-- Node25 -->
<g id="node25" class="node"><title>Node25</title>
<g id="a_node25"><a xlink:href="../../d8/d38/MIDICNChannelAddress_8hpp.html" target="_top" xlink:title=" ">
<polygon fill="white" stroke="black" points="665.5,-336.5 665.5,-355.5 828.5,-355.5 828.5,-336.5 665.5,-336.5"/>
<text text-anchor="middle" x="747" y="-343.5" font-family="Helvetica,sans-Serif" font-size="10.00">Def/MIDICNChannelAddress.hpp</text>
</a>
</g>
</g>
<!-- Node24&#45;&gt;Node25 -->
<g id="edge37" class="edge"><title>Node24&#45;&gt;Node25</title>
<path fill="none" stroke="midnightblue" d="M614.516,-448.337C643.206,-426.392 698.144,-384.37 727.451,-361.953"/>
<polygon fill="midnightblue" stroke="midnightblue" points="729.849,-364.525 735.666,-355.669 725.597,-358.965 729.849,-364.525"/>
</g>
<!-- Node26 -->
<g id="node26" class="node"><title>Node26</title>
<g id="a_node26"><a xlink:href="../../d4/d93/Updatable_8hpp.html" target="_top" xlink:title=" ">
<polygon fill="white" stroke="black" points="493,-392.5 493,-411.5 609,-411.5 609,-392.5 493,-392.5"/>
<text text-anchor="middle" x="551" y="-399.5" font-family="Helvetica,sans-Serif" font-size="10.00">Helpers/Updatable.hpp</text>
</a>
</g>
</g>
<!-- Node24&#45;&gt;Node26 -->
<g id="edge39" class="edge"><title>Node24&#45;&gt;Node26</title>
<path fill="none" stroke="midnightblue" d="M585.336,-448.399C578.864,-439.842 570.566,-428.871 563.749,-419.857"/>
<polygon fill="midnightblue" stroke="midnightblue" points="566.372,-417.522 557.548,-411.658 560.789,-421.745 566.372,-417.522"/>
</g>
<!-- Node25&#45;&gt;Node2 -->
<g id="edge38" class="edge"><title>Node25&#45;&gt;Node2</title>
<path fill="none" stroke="midnightblue" d="M745.127,-336.168C738.384,-306.723 712.414,-211.328 651,-168 612.72,-140.993 479.172,-129.513 408.178,-125.227"/>
<polygon fill="midnightblue" stroke="midnightblue" points="408.362,-121.732 398.176,-124.646 407.956,-128.72 408.362,-121.732"/>
</g>
<!-- Node26&#45;&gt;Node2 -->
<g id="edge40" class="edge"><title>Node26&#45;&gt;Node2</title>
<path fill="none" stroke="midnightblue" d="M552.307,-392.466C555.018,-374.007 561,-328.968 561,-291 561,-291 561,-291 561,-233 561,-202.205 559.843,-188.653 537,-168 501.881,-136.248 447.265,-126.327 408.602,-123.512"/>
<polygon fill="midnightblue" stroke="midnightblue" points="408.339,-119.991 398.15,-122.895 407.926,-126.979 408.339,-119.991"/>
</g>
<!-- Node26&#45;&gt;Node8 -->
<g id="edge45" class="edge"><title>Node26&#45;&gt;Node8</title>
<path fill="none" stroke="midnightblue" d="M556.536,-392.456C561.873,-383.701 569.622,-369.498 573,-356 587.244,-299.082 582.169,-282.234 575,-224 565.596,-147.612 574.496,-120.82 533,-56 525.041,-43.5673 512.471,-33.0117 501.255,-25.2551"/>
<polygon fill="midnightblue" stroke="midnightblue" points="502.952,-22.1835 492.664,-19.6522 499.128,-28.0467 502.952,-22.1835"/>
</g>
<!-- Node26&#45;&gt;Node13 -->
<g id="edge43" class="edge"><title>Node26&#45;&gt;Node13</title>
<path fill="none" stroke="midnightblue" d="M502.989,-392.444C449.466,-382.905 362.935,-367.483 305.755,-357.293"/>
<polygon fill="midnightblue" stroke="midnightblue" points="306.246,-353.825 295.787,-355.516 305.017,-360.717 306.246,-353.825"/>
</g>
<!-- Node26&#45;&gt;Node15 -->
<g id="edge44" class="edge"><title>Node26&#45;&gt;Node15</title>
<path fill="none" stroke="midnightblue" d="M544.011,-392.075C523.193,-365.493 461.361,-286.538 434.128,-251.763"/>
<polygon fill="midnightblue" stroke="midnightblue" points="436.631,-249.283 427.71,-243.568 431.12,-253.599 436.631,-249.283"/>
</g>
<!-- Node27 -->
<g id="node27" class="node"><title>Node27</title>
<g id="a_node27"><a xlink:href="../../d1/d93/Error_8hpp.html" target="_top" xlink:title=" ">
<polygon fill="white" stroke="black" points="343.5,-336.5 343.5,-355.5 436.5,-355.5 436.5,-336.5 343.5,-336.5"/>
<text text-anchor="middle" x="390" y="-343.5" font-family="Helvetica,sans-Serif" font-size="10.00">Helpers/Error.hpp</text>
</a>
</g>
</g>
<!-- Node26&#45;&gt;Node27 -->
<g id="edge41" class="edge"><title>Node26&#45;&gt;Node27</title>
<path fill="none" stroke="midnightblue" d="M525.489,-392.444C498.404,-383.359 455.41,-368.939 425.131,-358.783"/>
<polygon fill="midnightblue" stroke="midnightblue" points="425.986,-355.378 415.392,-355.516 423.76,-362.015 425.986,-355.378"/>
</g>
<!-- Node27&#45;&gt;Node14 -->
<g id="edge42" class="edge"><title>Node27&#45;&gt;Node14</title>
<path fill="none" stroke="midnightblue" d="M390,-336.083C390,-329.006 390,-318.861 390,-309.986"/>
<polygon fill="midnightblue" stroke="midnightblue" points="393.5,-309.751 390,-299.751 386.5,-309.751 393.5,-309.751"/>
</g>
</g>
</svg>
