<?xml version="1.0" encoding="UTF-8" standalone="no"?>
<!DOCTYPE svg PUBLIC "-//W3C//DTD SVG 1.1//EN"
 "http://www.w3.org/Graphics/SVG/1.1/DTD/svg11.dtd">
<!-- Generated by graphviz version 2.38.0 (20140413.2041)
 -->
<!-- Title: Weights::R Pages: 1 -->
<svg width="257pt" height="28pt"
 viewBox="0.00 0.00 257.00 28.00" xmlns="http://www.w3.org/2000/svg" xmlns:xlink="http://www.w3.org/1999/xlink">
<g id="graph0" class="graph" transform="scale(1 1) rotate(0) translate(4 24)">
<title>Weights::R</title>
<polygon fill="white" stroke="none" points="-4,4 -4,-24 253,-24 253,4 -4,4"/>
<!-- Node13 -->
<g id="node1" class="node"><title>Node13</title>
<g id="a_node1"><a xlink:title=" ">
<polygon fill="#bfbfbf" stroke="black" points="0,-0.5 0,-19.5 66,-19.5 66,-0.5 0,-0.5"/>
<text text-anchor="middle" x="33" y="-7.5" font-family="Helvetica,sans-Serif" font-size="10.00">Weights::R</text>
</a>
</g>
</g>
<!-- Node14 -->
<g id="node2" class="node"><title>Node14</title>
<g id="a_node2"><a xlink:href="../../d9/d1c/Matrix_8hpp.html#af9bfdd6b415847d35ca735a8a2498652" target="_top" xlink:title=" ">
<polygon fill="white" stroke="black" points="102,-0.5 102,-19.5 137,-19.5 137,-0.5 102,-0.5"/>
<text text-anchor="middle" x="119.5" y="-7.5" font-family="Helvetica,sans-Serif" font-size="10.00">diag</text>
</a>
</g>
</g>
<!-- Node13&#45;&gt;Node14 -->
<g id="edge1" class="edge"><title>Node13&#45;&gt;Node14</title>
<path fill="none" stroke="midnightblue" d="M66.4282,-10C74.7476,-10 83.6048,-10 91.6104,-10"/>
<polygon fill="midnightblue" stroke="midnightblue" points="91.8686,-13.5001 101.869,-10 91.8685,-6.5001 91.8686,-13.5001"/>
</g>
<!-- Node15 -->
<g id="node3" class="node"><title>Node15</title>
<g id="a_node3"><a xlink:href="../../d9/d1c/Matrix_8hpp.html#a8d3b59e5715a530471c29ef64fff8f0b" target="_top" xlink:title=" ">
<polygon fill="white" stroke="black" points="173,-0.5 173,-19.5 249,-19.5 249,-0.5 173,-0.5"/>
<text text-anchor="middle" x="211" y="-7.5" font-family="Helvetica,sans-Serif" font-size="10.00">diagElements</text>
</a>
</g>
</g>
<!-- Node14&#45;&gt;Node15 -->
<g id="edge2" class="edge"><title>Node14&#45;&gt;Node15</title>
<path fill="none" stroke="midnightblue" d="M137.334,-10C144.619,-10 153.547,-10 162.619,-10"/>
<polygon fill="midnightblue" stroke="midnightblue" points="162.844,-13.5001 172.844,-10 162.844,-6.5001 162.844,-13.5001"/>
</g>
</g>
</svg>
