<?xml version="1.0" encoding="UTF-8" standalone="no"?>
<!DOCTYPE svg PUBLIC "-//W3C//DTD SVG 1.1//EN"
 "http://www.w3.org/Graphics/SVG/1.1/DTD/svg11.dtd">
<!-- Generated by graphviz version 2.38.0 (20140413.2041)
 -->
<!-- Title: CCButton.hpp Pages: 1 -->
<svg width="1080pt" height="688pt"
 viewBox="0.00 0.00 1079.50 688.00" xmlns="http://www.w3.org/2000/svg" xmlns:xlink="http://www.w3.org/1999/xlink">
<g id="graph0" class="graph" transform="scale(1 1) rotate(0) translate(4 684)">
<title>CCButton.hpp</title>
<polygon fill="white" stroke="none" points="-4,4 -4,-684 1075.5,-684 1075.5,4 -4,4"/>
<!-- Node1 -->
<g id="node1" class="node"><title>Node1</title>
<g id="a_node1"><a xlink:title=" ">
<polygon fill="#bfbfbf" stroke="black" points="462.5,-660.5 462.5,-679.5 541.5,-679.5 541.5,-660.5 462.5,-660.5"/>
<text text-anchor="middle" x="502" y="-667.5" font-family="Helvetica,sans-Serif" font-size="10.00">CCButton.hpp</text>
</a>
</g>
</g>
<!-- Node2 -->
<g id="node2" class="node"><title>Node2</title>
<g id="a_node2"><a xlink:href="../../dd/d47/Abstract_2MIDIButton_8hpp.html" target="_top" xlink:title=" ">
<polygon fill="white" stroke="black" points="268,-593.5 268,-623.5 386,-623.5 386,-593.5 268,-593.5"/>
<text text-anchor="start" x="276" y="-611.5" font-family="Helvetica,sans-Serif" font-size="10.00">MIDI_Outputs/Abstract</text>
<text text-anchor="middle" x="327" y="-600.5" font-family="Helvetica,sans-Serif" font-size="10.00">/MIDIButton.hpp</text>
</a>
</g>
</g>
<!-- Node1&#45;&gt;Node2 -->
<g id="edge1" class="edge"><title>Node1&#45;&gt;Node2</title>
<path fill="none" stroke="midnightblue" d="M476.927,-660.475C451.232,-651.739 410.551,-637.907 378.044,-626.855"/>
<polygon fill="midnightblue" stroke="midnightblue" points="378.838,-623.428 368.244,-623.523 376.585,-630.056 378.838,-623.428"/>
</g>
<!-- Node26 -->
<g id="node26" class="node"><title>Node26</title>
<g id="a_node26"><a xlink:href="../../d4/dd7/DigitalCCSender_8hpp.html" target="_top" xlink:title=" ">
<polygon fill="white" stroke="black" points="590.5,-599 590.5,-618 765.5,-618 765.5,-599 590.5,-599"/>
<text text-anchor="middle" x="678" y="-606" font-family="Helvetica,sans-Serif" font-size="10.00">MIDI_Senders/DigitalCCSender.hpp</text>
</a>
</g>
</g>
<!-- Node1&#45;&gt;Node26 -->
<g id="edge40" class="edge"><title>Node1&#45;&gt;Node26</title>
<path fill="none" stroke="midnightblue" d="M527.217,-660.475C557.668,-650.18 609.049,-632.81 643.243,-621.25"/>
<polygon fill="midnightblue" stroke="midnightblue" points="644.478,-624.527 652.83,-618.009 642.236,-617.896 644.478,-624.527"/>
</g>
<!-- Node3 -->
<g id="node3" class="node"><title>Node3</title>
<g id="a_node3"><a xlink:href="../../d0/d4e/Def_8hpp.html" target="_top" xlink:title=" ">
<polygon fill="white" stroke="black" points="461,-112.5 461,-131.5 531,-131.5 531,-112.5 461,-112.5"/>
<text text-anchor="middle" x="496" y="-119.5" font-family="Helvetica,sans-Serif" font-size="10.00">Def/Def.hpp</text>
</a>
</g>
</g>
<!-- Node2&#45;&gt;Node3 -->
<g id="edge2" class="edge"><title>Node2&#45;&gt;Node3</title>
<path fill="none" stroke="midnightblue" d="M267.783,-596.219C173.55,-576.555 0,-532.589 0,-475.5 0,-475.5 0,-475.5 0,-233 0,-141.188 328.012,-125.957 450.549,-123.47"/>
<polygon fill="midnightblue" stroke="midnightblue" points="450.792,-126.966 460.727,-123.283 450.664,-119.967 450.792,-126.966"/>
</g>
<!-- Node9 -->
<g id="node9" class="node"><title>Node9</title>
<g id="a_node9"><a xlink:href="../../d4/db3/Button_8hpp.html" target="_top" xlink:title=" ">
<polygon fill="white" stroke="black" points="338.5,-532 338.5,-551 447.5,-551 447.5,-532 338.5,-532"/>
<text text-anchor="middle" x="393" y="-539" font-family="Helvetica,sans-Serif" font-size="10.00">Hardware/Button.hpp</text>
</a>
</g>
</g>
<!-- Node2&#45;&gt;Node9 -->
<g id="edge10" class="edge"><title>Node2&#45;&gt;Node9</title>
<path fill="none" stroke="midnightblue" d="M341.321,-593.396C351.816,-583.06 366.068,-569.024 376.948,-558.309"/>
<polygon fill="midnightblue" stroke="midnightblue" points="379.503,-560.705 384.172,-551.195 374.591,-555.718 379.503,-560.705"/>
</g>
<!-- Node22 -->
<g id="node22" class="node"><title>Node22</title>
<g id="a_node22"><a xlink:href="../../d1/d41/MIDIOutputElement_8hpp.html" target="_top" xlink:title=" ">
<polygon fill="white" stroke="black" points="151.5,-459.5 151.5,-489.5 276.5,-489.5 276.5,-459.5 151.5,-459.5"/>
<text text-anchor="start" x="159.5" y="-477.5" font-family="Helvetica,sans-Serif" font-size="10.00">MIDI_Outputs/Abstract</text>
<text text-anchor="middle" x="214" y="-466.5" font-family="Helvetica,sans-Serif" font-size="10.00">/MIDIOutputElement.hpp</text>
</a>
</g>
</g>
<!-- Node2&#45;&gt;Node22 -->
<g id="edge29" class="edge"><title>Node2&#45;&gt;Node22</title>
<path fill="none" stroke="midnightblue" d="M314.907,-593.374C295.197,-570.349 256.008,-524.572 232.693,-497.336"/>
<polygon fill="midnightblue" stroke="midnightblue" points="235.168,-494.845 226.006,-489.525 229.85,-499.398 235.168,-494.845"/>
</g>
<!-- Node4 -->
<g id="node4" class="node"><title>Node4</title>
<g id="a_node4"><a xlink:href="../../d7/d42/Channel_8hpp.html" target="_top" xlink:title=" ">
<polygon fill="white" stroke="black" points="766.5,-56.5 766.5,-75.5 837.5,-75.5 837.5,-56.5 766.5,-56.5"/>
<text text-anchor="middle" x="802" y="-63.5" font-family="Helvetica,sans-Serif" font-size="10.00">Channel.hpp</text>
</a>
</g>
</g>
<!-- Node3&#45;&gt;Node4 -->
<g id="edge3" class="edge"><title>Node3&#45;&gt;Node4</title>
<path fill="none" stroke="midnightblue" d="M531.102,-114.806C586.604,-105.011 694.625,-85.9486 756.169,-75.0878"/>
<polygon fill="midnightblue" stroke="midnightblue" points="757.125,-78.4733 766.365,-73.2886 755.909,-71.5798 757.125,-78.4733"/>
</g>
<!-- Node5 -->
<g id="node5" class="node"><title>Node5</title>
<g id="a_node5"><a xlink:title=" ">
<polygon fill="white" stroke="#bfbfbf" points="841.5,-0.5 841.5,-19.5 890.5,-19.5 890.5,-0.5 841.5,-0.5"/>
<text text-anchor="middle" x="866" y="-7.5" font-family="Helvetica,sans-Serif" font-size="10.00">stdint.h</text>
</a>
</g>
</g>
<!-- Node3&#45;&gt;Node5 -->
<g id="edge9" class="edge"><title>Node3&#45;&gt;Node5</title>
<path fill="none" stroke="midnightblue" d="M531.004,-121.154C610.002,-120.786 798.912,-115.669 846,-76 859.384,-64.7251 863.974,-44.717 865.467,-29.8678"/>
<polygon fill="midnightblue" stroke="midnightblue" points="868.969,-29.9471 866.099,-19.7483 861.982,-29.5107 868.969,-29.9471"/>
</g>
<!-- Node6 -->
<g id="node6" class="node"><title>Node6</title>
<g id="a_node6"><a xlink:href="../../dc/d50/Frequency_8hpp.html" target="_top" xlink:title=" ">
<polygon fill="white" stroke="black" points="524.5,-56.5 524.5,-75.5 605.5,-75.5 605.5,-56.5 524.5,-56.5"/>
<text text-anchor="middle" x="565" y="-63.5" font-family="Helvetica,sans-Serif" font-size="10.00">Frequency.hpp</text>
</a>
</g>
</g>
<!-- Node3&#45;&gt;Node6 -->
<g id="edge5" class="edge"><title>Node3&#45;&gt;Node6</title>
<path fill="none" stroke="midnightblue" d="M507.086,-112.324C517.486,-104.185 533.261,-91.8395 545.722,-82.0874"/>
<polygon fill="midnightblue" stroke="midnightblue" points="547.994,-84.7533 553.712,-75.8339 543.68,-79.2407 547.994,-84.7533"/>
</g>
<!-- Node7 -->
<g id="node7" class="node"><title>Node7</title>
<g id="a_node7"><a xlink:href="../../de/d76/Array_8hpp.html" target="_top" xlink:title=" ">
<polygon fill="white" stroke="black" points="372.5,-56.5 372.5,-75.5 467.5,-75.5 467.5,-56.5 372.5,-56.5"/>
<text text-anchor="middle" x="420" y="-63.5" font-family="Helvetica,sans-Serif" font-size="10.00">Helpers/Array.hpp</text>
</a>
</g>
</g>
<!-- Node3&#45;&gt;Node7 -->
<g id="edge6" class="edge"><title>Node3&#45;&gt;Node7</title>
<path fill="none" stroke="midnightblue" d="M483.789,-112.324C472.224,-104.107 454.625,-91.6017 440.839,-81.8069"/>
<polygon fill="midnightblue" stroke="midnightblue" points="442.612,-78.7729 432.433,-75.8339 438.557,-84.4791 442.612,-78.7729"/>
</g>
<!-- Node8 -->
<g id="node8" class="node"><title>Node8</title>
<g id="a_node8"><a xlink:title=" ">
<polygon fill="white" stroke="#bfbfbf" points="432,-0.5 432,-19.5 484,-19.5 484,-0.5 432,-0.5"/>
<text text-anchor="middle" x="458" y="-7.5" font-family="Helvetica,sans-Serif" font-size="10.00">stddef.h</text>
</a>
</g>
</g>
<!-- Node3&#45;&gt;Node8 -->
<g id="edge8" class="edge"><title>Node3&#45;&gt;Node8</title>
<path fill="none" stroke="midnightblue" d="M493.511,-112.093C489.934,-99.5006 482.999,-75.8166 476,-56 472.808,-46.9626 468.893,-37.0586 465.53,-28.8483"/>
<polygon fill="midnightblue" stroke="midnightblue" points="468.734,-27.4365 461.662,-19.5472 462.271,-30.1245 468.734,-27.4365"/>
</g>
<!-- Node4&#45;&gt;Node5 -->
<g id="edge4" class="edge"><title>Node4&#45;&gt;Node5</title>
<path fill="none" stroke="midnightblue" d="M812.283,-56.324C821.836,-48.2631 836.28,-36.0765 847.784,-26.3695"/>
<polygon fill="midnightblue" stroke="midnightblue" points="850.144,-28.9577 855.53,-19.8339 845.63,-23.6076 850.144,-28.9577"/>
</g>
<!-- Node7&#45;&gt;Node8 -->
<g id="edge7" class="edge"><title>Node7&#45;&gt;Node8</title>
<path fill="none" stroke="midnightblue" d="M426.275,-56.083C431.642,-48.4554 439.518,-37.2645 446.079,-27.9408"/>
<polygon fill="midnightblue" stroke="midnightblue" points="448.949,-29.9434 451.842,-19.7511 443.225,-25.9149 448.949,-29.9434"/>
</g>
<!-- Node10 -->
<g id="node10" class="node"><title>Node10</title>
<g id="a_node10"><a xlink:href="../../dd/ddf/ExtendedInputOutput_8hpp.html" target="_top" xlink:title=" ">
<polygon fill="white" stroke="black" points="421,-459.5 421,-489.5 575,-489.5 575,-459.5 421,-459.5"/>
<text text-anchor="start" x="429" y="-477.5" font-family="Helvetica,sans-Serif" font-size="10.00">Hardware/ExtendedInputOutput</text>
<text text-anchor="middle" x="498" y="-466.5" font-family="Helvetica,sans-Serif" font-size="10.00">/ExtendedInputOutput.hpp</text>
</a>
</g>
</g>
<!-- Node9&#45;&gt;Node10 -->
<g id="edge11" class="edge"><title>Node9&#45;&gt;Node10</title>
<path fill="none" stroke="midnightblue" d="M407.161,-531.734C422.306,-522.358 446.812,-507.188 466.555,-494.966"/>
<polygon fill="midnightblue" stroke="midnightblue" points="468.58,-497.829 475.241,-489.589 464.896,-491.877 468.58,-497.829"/>
</g>
<!-- Node14 -->
<g id="node14" class="node"><title>Node14</title>
<g id="a_node14"><a xlink:href="../../d2/dd5/SettingsWrapper_8hpp.html" target="_top" xlink:title=" ">
<polygon fill="white" stroke="black" points="249.5,-224.5 249.5,-243.5 396.5,-243.5 396.5,-224.5 249.5,-224.5"/>
<text text-anchor="middle" x="323" y="-231.5" font-family="Helvetica,sans-Serif" font-size="10.00">Settings/SettingsWrapper.hpp</text>
</a>
</g>
</g>
<!-- Node9&#45;&gt;Node14 -->
<g id="edge28" class="edge"><title>Node9&#45;&gt;Node14</title>
<path fill="none" stroke="midnightblue" d="M393.257,-531.72C393.864,-502.986 393.993,-409.397 373,-336 364.117,-304.941 345.894,-271.934 334.074,-252.41"/>
<polygon fill="midnightblue" stroke="midnightblue" points="336.948,-250.403 328.707,-243.743 330.996,-254.088 336.948,-250.403"/>
</g>
<!-- Node11 -->
<g id="node11" class="node"><title>Node11</title>
<g id="a_node11"><a xlink:href="../../d4/d57/ExtendedIOElement_8hpp.html" target="_top" xlink:title=" ">
<polygon fill="white" stroke="black" points="513.5,-403.5 513.5,-422.5 636.5,-422.5 636.5,-403.5 513.5,-403.5"/>
<text text-anchor="middle" x="575" y="-410.5" font-family="Helvetica,sans-Serif" font-size="10.00">ExtendedIOElement.hpp</text>
</a>
</g>
</g>
<!-- Node10&#45;&gt;Node11 -->
<g id="edge12" class="edge"><title>Node10&#45;&gt;Node11</title>
<path fill="none" stroke="midnightblue" d="M516.248,-459.399C528.129,-450.218 543.607,-438.258 555.694,-428.918"/>
<polygon fill="midnightblue" stroke="midnightblue" points="558.023,-431.542 563.796,-422.658 553.743,-426.003 558.023,-431.542"/>
</g>
<!-- Node18 -->
<g id="node18" class="node"><title>Node18</title>
<g id="a_node18"><a xlink:title=" ">
<polygon fill="white" stroke="#bfbfbf" points="568,-168.5 568,-187.5 626,-187.5 626,-168.5 568,-168.5"/>
<text text-anchor="middle" x="597" y="-175.5" font-family="Helvetica,sans-Serif" font-size="10.00">Arduino.h</text>
</a>
</g>
</g>
<!-- Node10&#45;&gt;Node18 -->
<g id="edge27" class="edge"><title>Node10&#45;&gt;Node18</title>
<path fill="none" stroke="midnightblue" d="M497.934,-459.249C498.164,-444.86 499.343,-422.094 504,-403 523.607,-322.605 567.917,-233.637 587.448,-196.636"/>
<polygon fill="midnightblue" stroke="midnightblue" points="590.635,-198.098 592.258,-187.628 584.46,-194.801 590.635,-198.098"/>
</g>
<!-- Node11&#45;&gt;Node3 -->
<g id="edge13" class="edge"><title>Node11&#45;&gt;Node3</title>
<path fill="none" stroke="midnightblue" d="M569.301,-403.309C557.192,-383.977 530,-335.601 530,-291 530,-291 530,-291 530,-233 530,-199.16 515.13,-161.97 505.058,-140.661"/>
<polygon fill="midnightblue" stroke="midnightblue" points="508.137,-138.991 500.585,-131.56 501.855,-142.079 508.137,-138.991"/>
</g>
<!-- Node12 -->
<g id="node12" class="node"><title>Node12</title>
<g id="a_node12"><a xlink:href="../../de/dd1/LinkedList_8hpp.html" target="_top" xlink:title=" ">
<polygon fill="white" stroke="black" points="636,-342 636,-361 752,-361 752,-342 636,-342"/>
<text text-anchor="middle" x="694" y="-349" font-family="Helvetica,sans-Serif" font-size="10.00">Helpers/LinkedList.hpp</text>
</a>
</g>
</g>
<!-- Node11&#45;&gt;Node12 -->
<g id="edge14" class="edge"><title>Node11&#45;&gt;Node12</title>
<path fill="none" stroke="midnightblue" d="M592.05,-403.475C611.844,-393.578 644.717,-377.142 667.77,-365.615"/>
<polygon fill="midnightblue" stroke="midnightblue" points="669.603,-368.612 676.982,-361.009 666.472,-362.351 669.603,-368.612"/>
</g>
<!-- Node13 -->
<g id="node13" class="node"><title>Node13</title>
<g id="a_node13"><a xlink:href="../../df/dee/Debug_8hpp.html" target="_top" xlink:title=" ">
<polygon fill="white" stroke="black" points="400.5,-280.5 400.5,-299.5 501.5,-299.5 501.5,-280.5 400.5,-280.5"/>
<text text-anchor="middle" x="451" y="-287.5" font-family="Helvetica,sans-Serif" font-size="10.00">Helpers/Debug.hpp</text>
</a>
</g>
</g>
<!-- Node12&#45;&gt;Node13 -->
<g id="edge15" class="edge"><title>Node12&#45;&gt;Node13</title>
<path fill="none" stroke="midnightblue" d="M659.184,-341.975C616.148,-331.437 542.835,-313.486 495.685,-301.941"/>
<polygon fill="midnightblue" stroke="midnightblue" points="496.297,-298.488 485.751,-299.509 494.632,-305.287 496.297,-298.488"/>
</g>
<!-- Node19 -->
<g id="node19" class="node"><title>Node19</title>
<g id="a_node19"><a xlink:title=" ">
<polygon fill="white" stroke="#bfbfbf" points="772,-224.5 772,-243.5 820,-243.5 820,-224.5 772,-224.5"/>
<text text-anchor="middle" x="796" y="-231.5" font-family="Helvetica,sans-Serif" font-size="10.00">stdlib.h</text>
</a>
</g>
</g>
<!-- Node12&#45;&gt;Node19 -->
<g id="edge23" class="edge"><title>Node12&#45;&gt;Node19</title>
<path fill="none" stroke="midnightblue" d="M701.667,-341.819C718.65,-322.588 759.668,-276.141 781.6,-251.305"/>
<polygon fill="midnightblue" stroke="midnightblue" points="784.248,-253.594 788.244,-243.782 779.002,-248.961 784.248,-253.594"/>
</g>
<!-- Node20 -->
<g id="node20" class="node"><title>Node20</title>
<g id="a_node20"><a xlink:href="../../d7/d79/MinMaxFix_8hpp.html" target="_top" xlink:title=" ">
<polygon fill="white" stroke="black" points="634,-224.5 634,-243.5 754,-243.5 754,-224.5 634,-224.5"/>
<text text-anchor="middle" x="694" y="-231.5" font-family="Helvetica,sans-Serif" font-size="10.00">Helpers/MinMaxFix.hpp</text>
</a>
</g>
</g>
<!-- Node12&#45;&gt;Node20 -->
<g id="edge24" class="edge"><title>Node12&#45;&gt;Node20</title>
<path fill="none" stroke="midnightblue" d="M685.535,-341.625C674.081,-328.499 655.851,-302.981 663,-280 666.229,-269.622 672.776,-259.521 679.025,-251.527"/>
<polygon fill="midnightblue" stroke="midnightblue" points="681.785,-253.682 685.517,-243.766 676.416,-249.19 681.785,-253.682"/>
</g>
<!-- Node21 -->
<g id="node21" class="node"><title>Node21</title>
<g id="a_node21"><a xlink:title=" ">
<polygon fill="white" stroke="#bfbfbf" points="672.5,-280.5 672.5,-299.5 719.5,-299.5 719.5,-280.5 672.5,-280.5"/>
<text text-anchor="middle" x="696" y="-287.5" font-family="Helvetica,sans-Serif" font-size="10.00">iterator</text>
</a>
</g>
</g>
<!-- Node12&#45;&gt;Node21 -->
<g id="edge26" class="edge"><title>Node12&#45;&gt;Node21</title>
<path fill="none" stroke="midnightblue" d="M694.287,-341.975C694.569,-333.58 695.009,-320.481 695.373,-309.663"/>
<polygon fill="midnightblue" stroke="midnightblue" points="698.876,-309.621 695.714,-299.509 691.88,-309.386 698.876,-309.621"/>
</g>
<!-- Node13&#45;&gt;Node14 -->
<g id="edge16" class="edge"><title>Node13&#45;&gt;Node14</title>
<path fill="none" stroke="midnightblue" d="M425.629,-280.444C402.819,-271.636 369.804,-257.812 347.327,-247.722"/>
<polygon fill="midnightblue" stroke="midnightblue" points="348.658,-244.482 338.107,-243.516 345.753,-250.851 348.658,-244.482"/>
</g>
<!-- Node17 -->
<g id="node17" class="node"><title>Node17</title>
<g id="a_node17"><a xlink:href="../../dd/d80/PrintStream_8hpp.html" target="_top" xlink:title=" ">
<polygon fill="white" stroke="black" points="414.5,-224.5 414.5,-243.5 501.5,-243.5 501.5,-224.5 414.5,-224.5"/>
<text text-anchor="middle" x="458" y="-231.5" font-family="Helvetica,sans-Serif" font-size="10.00">PrintStream.hpp</text>
</a>
</g>
</g>
<!-- Node13&#45;&gt;Node17 -->
<g id="edge21" class="edge"><title>Node13&#45;&gt;Node17</title>
<path fill="none" stroke="midnightblue" d="M452.156,-280.083C453.084,-272.927 454.418,-262.635 455.577,-253.691"/>
<polygon fill="midnightblue" stroke="midnightblue" points="459.051,-254.118 456.866,-243.751 452.109,-253.218 459.051,-254.118"/>
</g>
<!-- Node14&#45;&gt;Node13 -->
<g id="edge20" class="edge"><title>Node14&#45;&gt;Node13</title>
<path fill="none" stroke="midnightblue" d="M348.267,-243.516C371.046,-252.309 404.061,-266.131 426.571,-276.232"/>
<polygon fill="midnightblue" stroke="midnightblue" points="425.256,-279.479 435.807,-280.444 428.16,-273.11 425.256,-279.479"/>
</g>
<!-- Node15 -->
<g id="node15" class="node"><title>Node15</title>
<g id="a_node15"><a xlink:href="../../db/d02/Settings_8hpp.html" target="_top" xlink:title="All user settings and debugging options can be changed here.">
<polygon fill="white" stroke="black" points="425.5,-168.5 425.5,-187.5 496.5,-187.5 496.5,-168.5 425.5,-168.5"/>
<text text-anchor="middle" x="461" y="-175.5" font-family="Helvetica,sans-Serif" font-size="10.00">Settings.hpp</text>
</a>
</g>
</g>
<!-- Node14&#45;&gt;Node15 -->
<g id="edge17" class="edge"><title>Node14&#45;&gt;Node15</title>
<path fill="none" stroke="midnightblue" d="M344.867,-224.444C367.779,-215.478 403.975,-201.314 429.866,-191.183"/>
<polygon fill="midnightblue" stroke="midnightblue" points="431.199,-194.42 439.236,-187.516 428.648,-187.901 431.199,-194.42"/>
</g>
<!-- Node16 -->
<g id="node16" class="node"><title>Node16</title>
<g id="a_node16"><a xlink:href="../../d9/d98/TeensyUSBTypes_8hpp.html" target="_top" xlink:title=" ">
<polygon fill="white" stroke="black" points="249,-168.5 249,-187.5 401,-187.5 401,-168.5 249,-168.5"/>
<text text-anchor="middle" x="325" y="-175.5" font-family="Helvetica,sans-Serif" font-size="10.00">Helpers/TeensyUSBTypes.hpp</text>
</a>
</g>
</g>
<!-- Node14&#45;&gt;Node16 -->
<g id="edge19" class="edge"><title>Node14&#45;&gt;Node16</title>
<path fill="none" stroke="midnightblue" d="M323.33,-224.083C323.592,-217.006 323.968,-206.861 324.297,-197.986"/>
<polygon fill="midnightblue" stroke="midnightblue" points="327.803,-197.874 324.676,-187.751 320.808,-197.615 327.803,-197.874"/>
</g>
<!-- Node15&#45;&gt;Node3 -->
<g id="edge18" class="edge"><title>Node15&#45;&gt;Node3</title>
<path fill="none" stroke="midnightblue" d="M466.78,-168.083C471.672,-160.534 478.827,-149.495 484.833,-140.23"/>
<polygon fill="midnightblue" stroke="midnightblue" points="487.826,-142.046 490.328,-131.751 481.952,-138.239 487.826,-142.046"/>
</g>
<!-- Node17&#45;&gt;Node18 -->
<g id="edge22" class="edge"><title>Node17&#45;&gt;Node18</title>
<path fill="none" stroke="midnightblue" d="M480.025,-224.444C503.104,-215.478 539.562,-201.314 565.641,-191.183"/>
<polygon fill="midnightblue" stroke="midnightblue" points="567.024,-194.4 575.078,-187.516 564.489,-187.875 567.024,-194.4"/>
</g>
<!-- Node20&#45;&gt;Node18 -->
<g id="edge25" class="edge"><title>Node20&#45;&gt;Node18</title>
<path fill="none" stroke="midnightblue" d="M678.415,-224.324C663.001,-215.743 639.188,-202.486 621.29,-192.522"/>
<polygon fill="midnightblue" stroke="midnightblue" points="622.986,-189.461 612.546,-187.655 619.581,-195.577 622.986,-189.461"/>
</g>
<!-- Node22&#45;&gt;Node3 -->
<g id="edge30" class="edge"><title>Node22&#45;&gt;Node3</title>
<path fill="none" stroke="midnightblue" d="M198.93,-459.429C160.622,-421.875 64.9494,-315.884 100,-224 111.892,-192.825 120.492,-183.574 150,-168 201.206,-140.974 368.876,-129.218 450.518,-124.997"/>
<polygon fill="midnightblue" stroke="midnightblue" points="451.164,-128.469 460.976,-124.473 450.814,-121.477 451.164,-128.469"/>
</g>
<!-- Node23 -->
<g id="node23" class="node"><title>Node23</title>
<g id="a_node23"><a xlink:href="../../d8/d38/MIDICNChannelAddress_8hpp.html" target="_top" xlink:title=" ">
<polygon fill="white" stroke="black" points="142.5,-280.5 142.5,-299.5 305.5,-299.5 305.5,-280.5 142.5,-280.5"/>
<text text-anchor="middle" x="224" y="-287.5" font-family="Helvetica,sans-Serif" font-size="10.00">Def/MIDICNChannelAddress.hpp</text>
</a>
</g>
</g>
<!-- Node22&#45;&gt;Node23 -->
<g id="edge31" class="edge"><title>Node22&#45;&gt;Node23</title>
<path fill="none" stroke="midnightblue" d="M205.038,-459.103C199.496,-449.326 192.905,-435.878 190,-423 180.711,-381.813 200.885,-333.919 213.965,-308.673"/>
<polygon fill="midnightblue" stroke="midnightblue" points="217.192,-310.065 218.872,-299.605 211.035,-306.734 217.192,-310.065"/>
</g>
<!-- Node24 -->
<g id="node24" class="node"><title>Node24</title>
<g id="a_node24"><a xlink:href="../../d4/d93/Updatable_8hpp.html" target="_top" xlink:title=" ">
<polygon fill="white" stroke="black" points="199,-403.5 199,-422.5 315,-422.5 315,-403.5 199,-403.5"/>
<text text-anchor="middle" x="257" y="-410.5" font-family="Helvetica,sans-Serif" font-size="10.00">Helpers/Updatable.hpp</text>
</a>
</g>
</g>
<!-- Node22&#45;&gt;Node24 -->
<g id="edge33" class="edge"><title>Node22&#45;&gt;Node24</title>
<path fill="none" stroke="midnightblue" d="M224.19,-459.399C230.374,-450.842 238.303,-439.871 244.818,-430.857"/>
<polygon fill="midnightblue" stroke="midnightblue" points="247.722,-432.813 250.743,-422.658 242.049,-428.713 247.722,-432.813"/>
</g>
<!-- Node23&#45;&gt;Node3 -->
<g id="edge32" class="edge"><title>Node23&#45;&gt;Node3</title>
<path fill="none" stroke="midnightblue" d="M222.073,-280.241C217.765,-258.087 209.944,-199.362 240,-168 268.304,-138.466 384.916,-128.194 450.56,-124.714"/>
<polygon fill="midnightblue" stroke="midnightblue" points="450.823,-128.206 460.636,-124.212 450.474,-121.214 450.823,-128.206"/>
</g>
<!-- Node24&#45;&gt;Node3 -->
<g id="edge34" class="edge"><title>Node24&#45;&gt;Node3</title>
<path fill="none" stroke="midnightblue" d="M231.104,-403.499C189.895,-388.151 114,-351.652 114,-291 114,-291 114,-291 114,-233 114,-163.678 349.235,-135.416 450.514,-126.461"/>
<polygon fill="midnightblue" stroke="midnightblue" points="451.083,-129.925 460.747,-125.581 450.484,-122.95 451.083,-129.925"/>
</g>
<!-- Node24&#45;&gt;Node8 -->
<g id="edge39" class="edge"><title>Node24&#45;&gt;Node8</title>
<path fill="none" stroke="midnightblue" d="M204.42,-403.464C178.881,-397.055 149.211,-385.981 128,-367 58.9682,-305.225 38,-271.637 38,-179 38,-179 38,-179 38,-121 38,-42.0123 319.502,-18.6298 421.584,-12.7473"/>
<polygon fill="midnightblue" stroke="midnightblue" points="421.935,-16.2333 431.727,-12.1868 421.549,-9.24392 421.935,-16.2333"/>
</g>
<!-- Node24&#45;&gt;Node12 -->
<g id="edge37" class="edge"><title>Node24&#45;&gt;Node12</title>
<path fill="none" stroke="midnightblue" d="M315.03,-404.099C395.348,-393.163 540.136,-373.449 625.609,-361.812"/>
<polygon fill="midnightblue" stroke="midnightblue" points="626.293,-365.251 635.73,-360.434 625.349,-358.315 626.293,-365.251"/>
</g>
<!-- Node24&#45;&gt;Node14 -->
<g id="edge38" class="edge"><title>Node24&#45;&gt;Node14</title>
<path fill="none" stroke="midnightblue" d="M255.277,-403.34C252.793,-388.478 249.746,-357.629 262,-336 275.856,-311.543 299.274,-323.943 314,-300 322.486,-286.202 324.322,-267.68 324.277,-253.937"/>
<polygon fill="midnightblue" stroke="midnightblue" points="327.767,-253.591 323.902,-243.727 320.772,-253.849 327.767,-253.591"/>
</g>
<!-- Node25 -->
<g id="node25" class="node"><title>Node25</title>
<g id="a_node25"><a xlink:href="../../d1/d93/Error_8hpp.html" target="_top" xlink:title=" ">
<polygon fill="white" stroke="black" points="271.5,-342 271.5,-361 364.5,-361 364.5,-342 271.5,-342"/>
<text text-anchor="middle" x="318" y="-349" font-family="Helvetica,sans-Serif" font-size="10.00">Helpers/Error.hpp</text>
</a>
</g>
</g>
<!-- Node24&#45;&gt;Node25 -->
<g id="edge35" class="edge"><title>Node24&#45;&gt;Node25</title>
<path fill="none" stroke="midnightblue" d="M265.74,-403.475C275.162,-394.285 290.364,-379.456 301.949,-368.156"/>
<polygon fill="midnightblue" stroke="midnightblue" points="304.562,-370.497 309.276,-361.009 299.674,-365.486 304.562,-370.497"/>
</g>
<!-- Node25&#45;&gt;Node13 -->
<g id="edge36" class="edge"><title>Node25&#45;&gt;Node13</title>
<path fill="none" stroke="midnightblue" d="M337.056,-341.975C359.475,-331.945 396.905,-315.2 422.713,-303.655"/>
<polygon fill="midnightblue" stroke="midnightblue" points="424.281,-306.788 431.98,-299.509 421.422,-300.398 424.281,-306.788"/>
</g>
<!-- Node27 -->
<g id="node27" class="node"><title>Node27</title>
<g id="a_node27"><a xlink:href="../../d3/d37/Control__Surface__Class_8hpp.html" target="_top" xlink:title=" ">
<polygon fill="white" stroke="black" points="739,-526.5 739,-556.5 861,-556.5 861,-526.5 739,-526.5"/>
<text text-anchor="start" x="747" y="-544.5" font-family="Helvetica,sans-Serif" font-size="10.00">Control_Surface/Control</text>
<text text-anchor="middle" x="800" y="-533.5" font-family="Helvetica,sans-Serif" font-size="10.00">_Surface_Class.hpp</text>
</a>
</g>
</g>
<!-- Node26&#45;&gt;Node27 -->
<g id="edge41" class="edge"><title>Node26&#45;&gt;Node27</title>
<path fill="none" stroke="midnightblue" d="M694.201,-598.869C712.054,-589.357 741.317,-573.765 764.547,-561.389"/>
<polygon fill="midnightblue" stroke="midnightblue" points="766.259,-564.443 773.439,-556.652 762.967,-558.265 766.259,-564.443"/>
</g>
<!-- Node28 -->
<g id="node28" class="node"><title>Node28</title>
<g id="a_node28"><a xlink:href="../../d6/d04/MIDI__Interface_8hpp.html" target="_top" xlink:title=" ">
<polygon fill="white" stroke="black" points="820,-336.5 820,-366.5 932,-366.5 932,-336.5 820,-336.5"/>
<text text-anchor="start" x="828" y="-354.5" font-family="Helvetica,sans-Serif" font-size="10.00">MIDI_Interfaces/MIDI</text>
<text text-anchor="middle" x="876" y="-343.5" font-family="Helvetica,sans-Serif" font-size="10.00">_Interface.hpp</text>
</a>
</g>
</g>
<!-- Node27&#45;&gt;Node28 -->
<g id="edge42" class="edge"><title>Node27&#45;&gt;Node28</title>
<path fill="none" stroke="midnightblue" d="M837.314,-526.359C853.153,-518.277 870.009,-506.419 879,-490 898.509,-454.375 890.766,-405.382 883.375,-376.517"/>
<polygon fill="midnightblue" stroke="midnightblue" points="886.744,-375.57 880.719,-366.855 879.995,-377.426 886.744,-375.57"/>
</g>
<!-- Node30 -->
<g id="node30" class="node"><title>Node30</title>
<g id="a_node30"><a xlink:href="../../d6/dd2/DisplayElement_8hpp.html" target="_top" xlink:title=" ">
<polygon fill="white" stroke="black" points="730,-465 730,-484 870,-484 870,-465 730,-465"/>
<text text-anchor="middle" x="800" y="-472" font-family="Helvetica,sans-Serif" font-size="10.00">Display/DisplayElement.hpp</text>
</a>
</g>
</g>
<!-- Node27&#45;&gt;Node30 -->
<g id="edge50" class="edge"><title>Node27&#45;&gt;Node30</title>
<path fill="none" stroke="midnightblue" d="M800,-526.396C800,-517.064 800,-504.714 800,-494.517"/>
<polygon fill="midnightblue" stroke="midnightblue" points="803.5,-494.195 800,-484.195 796.5,-494.195 803.5,-494.195"/>
</g>
<!-- Node31 -->
<g id="node31" class="node"><title>Node31</title>
<g id="a_node31"><a xlink:href="../../dc/d77/DisplayInterface_8hpp.html" target="_top" xlink:title=" ">
<polygon fill="white" stroke="black" points="926.5,-403.5 926.5,-422.5 1069.5,-422.5 1069.5,-403.5 926.5,-403.5"/>
<text text-anchor="middle" x="998" y="-410.5" font-family="Helvetica,sans-Serif" font-size="10.00">Display/DisplayInterface.hpp</text>
</a>
</g>
</g>
<!-- Node27&#45;&gt;Node31 -->
<g id="edge56" class="edge"><title>Node27&#45;&gt;Node31</title>
<path fill="none" stroke="midnightblue" d="M838.541,-526.467C860.85,-517.541 888.979,-504.875 912,-490 939.038,-472.529 966.202,-446.84 982.563,-430.264"/>
<polygon fill="midnightblue" stroke="midnightblue" points="985.224,-432.548 989.68,-422.935 980.202,-427.671 985.224,-432.548"/>
</g>
<!-- Node33 -->
<g id="node33" class="node"><title>Node33</title>
<g id="a_node33"><a xlink:href="../../d7/d74/MillisTimer_8hpp.html" target="_top" xlink:title=" ">
<polygon fill="white" stroke="black" points="654.5,-403.5 654.5,-422.5 773.5,-422.5 773.5,-403.5 654.5,-403.5"/>
<text text-anchor="middle" x="714" y="-410.5" font-family="Helvetica,sans-Serif" font-size="10.00">Helpers/MillisTimer.hpp</text>
</a>
</g>
</g>
<!-- Node27&#45;&gt;Node33 -->
<g id="edge57" class="edge"><title>Node27&#45;&gt;Node33</title>
<path fill="none" stroke="midnightblue" d="M764.181,-526.39C748.257,-518.213 730.905,-506.267 721,-490 710.474,-472.713 710.017,-448.997 711.361,-432.68"/>
<polygon fill="midnightblue" stroke="midnightblue" points="714.84,-433.063 712.477,-422.735 707.883,-432.282 714.84,-433.063"/>
</g>
<!-- Node28&#45;&gt;Node3 -->
<g id="edge43" class="edge"><title>Node28&#45;&gt;Node3</title>
<path fill="none" stroke="midnightblue" d="M904.704,-336.488C927.876,-323.165 954.566,-301.95 941,-280 855.793,-142.132 636.525,-123.589 541.284,-122.28"/>
<polygon fill="midnightblue" stroke="midnightblue" points="541.136,-118.779 531.109,-122.2 541.081,-125.778 541.136,-118.779"/>
</g>
<!-- Node28&#45;&gt;Node23 -->
<g id="edge44" class="edge"><title>Node28&#45;&gt;Node23</title>
<path fill="none" stroke="midnightblue" d="M819.902,-342.95C801.188,-340.558 780.213,-338.015 761,-336 604.836,-319.619 422.622,-305.375 315.638,-297.507"/>
<polygon fill="midnightblue" stroke="midnightblue" points="315.752,-294.006 305.523,-296.765 315.241,-300.987 315.752,-294.006"/>
</g>
<!-- Node29 -->
<g id="node29" class="node"><title>Node29</title>
<g id="a_node29"><a xlink:href="../../d7/d2d/MIDI__Parser_8hpp.html" target="_top" xlink:title=" ">
<polygon fill="white" stroke="black" points="776.5,-280.5 776.5,-299.5 931.5,-299.5 931.5,-280.5 776.5,-280.5"/>
<text text-anchor="middle" x="854" y="-287.5" font-family="Helvetica,sans-Serif" font-size="10.00">MIDI_Parsers/MIDI_Parser.hpp</text>
</a>
</g>
</g>
<!-- Node28&#45;&gt;Node29 -->
<g id="edge45" class="edge"><title>Node28&#45;&gt;Node29</title>
<path fill="none" stroke="midnightblue" d="M870.786,-336.399C867.787,-328.288 863.986,-318.007 860.759,-309.281"/>
<polygon fill="midnightblue" stroke="midnightblue" points="863.952,-307.823 857.201,-299.658 857.386,-310.251 863.952,-307.823"/>
</g>
<!-- Node29&#45;&gt;Node5 -->
<g id="edge47" class="edge"><title>Node29&#45;&gt;Node5</title>
<path fill="none" stroke="midnightblue" d="M860.952,-280.481C874.691,-262.753 904,-220.116 904,-179 904,-179 904,-179 904,-121 904,-86.8131 887.4,-49.7639 876.143,-28.5707"/>
<polygon fill="midnightblue" stroke="midnightblue" points="879.181,-26.832 871.284,-19.769 873.053,-30.2151 879.181,-26.832"/>
</g>
<!-- Node29&#45;&gt;Node8 -->
<g id="edge46" class="edge"><title>Node29&#45;&gt;Node8</title>
<path fill="none" stroke="midnightblue" d="M852.223,-280.279C849.206,-267.077 842.094,-241.685 829,-224 756.838,-126.539 722.005,-111.144 614,-56 575.376,-36.2801 526.834,-24.0098 494.244,-17.3574"/>
<polygon fill="midnightblue" stroke="midnightblue" points="494.744,-13.8887 484.256,-15.3926 493.393,-20.757 494.744,-13.8887"/>
</g>
<!-- Node29&#45;&gt;Node14 -->
<g id="edge49" class="edge"><title>Node29&#45;&gt;Node14</title>
<path fill="none" stroke="midnightblue" d="M776.108,-281.418C688.731,-272.862 542.473,-258.389 406.91,-244.193"/>
<polygon fill="midnightblue" stroke="midnightblue" points="407.064,-240.69 396.754,-243.128 406.334,-247.652 407.064,-240.69"/>
</g>
<!-- Node29&#45;&gt;Node19 -->
<g id="edge48" class="edge"><title>Node29&#45;&gt;Node19</title>
<path fill="none" stroke="midnightblue" d="M844.681,-280.324C836.107,-272.341 823.188,-260.313 812.812,-250.653"/>
<polygon fill="midnightblue" stroke="midnightblue" points="815.192,-248.086 805.488,-243.834 810.422,-253.21 815.192,-248.086"/>
</g>
<!-- Node30&#45;&gt;Node12 -->
<g id="edge55" class="edge"><title>Node30&#45;&gt;Node12</title>
<path fill="none" stroke="midnightblue" d="M799.888,-464.765C799.277,-450.446 796.218,-421.706 782,-403 768.809,-385.644 747.806,-373.267 729.627,-365.111"/>
<polygon fill="midnightblue" stroke="midnightblue" points="730.735,-361.78 720.16,-361.118 728.014,-368.229 730.735,-361.78"/>
</g>
<!-- Node30&#45;&gt;Node31 -->
<g id="edge51" class="edge"><title>Node30&#45;&gt;Node31</title>
<path fill="none" stroke="midnightblue" d="M828.369,-464.975C862.921,-454.592 921.424,-437.012 959.885,-425.454"/>
<polygon fill="midnightblue" stroke="midnightblue" points="961.114,-428.739 969.684,-422.509 959.1,-422.035 961.114,-428.739"/>
</g>
<!-- Node31&#45;&gt;Node3 -->
<g id="edge52" class="edge"><title>Node31&#45;&gt;Node3</title>
<path fill="none" stroke="midnightblue" d="M998,-403.491C998,-383.736 998,-333.224 998,-291 998,-291 998,-291 998,-233 998,-140.021 665.245,-125.527 541.567,-123.352"/>
<polygon fill="midnightblue" stroke="midnightblue" points="541.353,-119.848 531.3,-123.191 541.244,-126.847 541.353,-119.848"/>
</g>
<!-- Node31&#45;&gt;Node12 -->
<g id="edge53" class="edge"><title>Node31&#45;&gt;Node12</title>
<path fill="none" stroke="midnightblue" d="M954.444,-403.475C899.814,-392.783 806.188,-374.458 747.327,-362.937"/>
<polygon fill="midnightblue" stroke="midnightblue" points="747.961,-359.495 737.475,-361.009 746.616,-366.365 747.961,-359.495"/>
</g>
<!-- Node32 -->
<g id="node32" class="node"><title>Node32</title>
<g id="a_node32"><a xlink:title=" ">
<polygon fill="white" stroke="#bfbfbf" points="1026.5,-342 1026.5,-361 1071.5,-361 1071.5,-342 1026.5,-342"/>
<text text-anchor="middle" x="1049" y="-349" font-family="Helvetica,sans-Serif" font-size="10.00">Print.h</text>
</a>
</g>
</g>
<!-- Node31&#45;&gt;Node32 -->
<g id="edge54" class="edge"><title>Node31&#45;&gt;Node32</title>
<path fill="none" stroke="midnightblue" d="M1005.31,-403.475C1013.03,-394.462 1025.41,-380.025 1035.02,-368.812"/>
<polygon fill="midnightblue" stroke="midnightblue" points="1037.86,-370.879 1041.71,-361.009 1032.54,-366.324 1037.86,-370.879"/>
</g>
<!-- Node33&#45;&gt;Node18 -->
<g id="edge58" class="edge"><title>Node33&#45;&gt;Node18</title>
<path fill="none" stroke="midnightblue" d="M681.793,-403.359C662.869,-396.588 640.149,-385.192 627,-367 589.613,-315.273 591.559,-234.615 594.772,-198.102"/>
<polygon fill="midnightblue" stroke="midnightblue" points="598.281,-198.195 595.812,-187.892 591.317,-197.486 598.281,-198.195"/>
</g>
</g>
</svg>
