<?xml version="1.0" encoding="UTF-8" standalone="no"?>
<!DOCTYPE svg PUBLIC "-//W3C//DTD SVG 1.1//EN"
 "http://www.w3.org/Graphics/SVG/1.1/DTD/svg11.dtd">
<!-- Generated by graphviz version 2.38.0 (20140413.2041)
 -->
<!-- Title: IncrementSelectorLEDs&lt; N &gt; Pages: 1 -->
<svg width="315pt" height="1346pt"
 viewBox="0.00 0.00 314.50 1346.00" xmlns="http://www.w3.org/2000/svg" xmlns:xlink="http://www.w3.org/1999/xlink">
<g id="graph0" class="graph" transform="scale(1 1) rotate(0) translate(4 1342)">
<title>IncrementSelectorLEDs&lt; N &gt;</title>
<polygon fill="white" stroke="none" points="-4,4 -4,-1342 310.5,-1342 310.5,4 -4,4"/>
<!-- Node6 -->
<g id="node1" class="node"><title>Node6</title>
<g id="a_node1"><a xlink:title=" ">
<polygon fill="#bfbfbf" stroke="black" points="78.5,-0.5 78.5,-57.5 224.5,-57.5 224.5,-0.5 78.5,-0.5"/>
<text text-anchor="middle" x="151.5" y="-45.5" font-family="Helvetica,sans-Serif" font-size="10.00">IncrementSelectorLEDs&lt; N &gt;</text>
<polyline fill="none" stroke="black" points="78.5,-38.5 224.5,-38.5 "/>
<text text-anchor="middle" x="151.5" y="-26.5" font-family="Helvetica,sans-Serif" font-size="10.00"> </text>
<polyline fill="none" stroke="black" points="78.5,-19.5 224.5,-19.5 "/>
<text text-anchor="start" x="86.5" y="-7.5" font-family="Helvetica,sans-Serif" font-size="10.00">+ IncrementSelectorLEDs()</text>
</a>
</g>
</g>
<!-- Node7 -->
<g id="node2" class="node"><title>Node7</title>
<g id="a_node2"><a xlink:href="../../d4/de9/classIncrementSelector__Base.html" target="_top" xlink:title=" ">
<polygon fill="white" stroke="black" points="135,-95.5 135,-185.5 284,-185.5 284,-95.5 135,-95.5"/>
<text text-anchor="middle" x="209.5" y="-173.5" font-family="Helvetica,sans-Serif" font-size="10.00">IncrementSelector_Base&lt; N &gt;</text>
<polyline fill="none" stroke="black" points="135,-166.5 284,-166.5 "/>
<text text-anchor="start" x="143" y="-154.5" font-family="Helvetica,sans-Serif" font-size="10.00">&#45; wrap</text>
<polyline fill="none" stroke="black" points="135,-147.5 284,-147.5 "/>
<text text-anchor="start" x="143" y="-135.5" font-family="Helvetica,sans-Serif" font-size="10.00">+ IncrementSelector_Base()</text>
<text text-anchor="start" x="143" y="-124.5" font-family="Helvetica,sans-Serif" font-size="10.00">+ IncrementSelector_Base()</text>
<text text-anchor="start" x="143" y="-113.5" font-family="Helvetica,sans-Serif" font-size="10.00">+ beginInput()</text>
<text text-anchor="start" x="143" y="-102.5" font-family="Helvetica,sans-Serif" font-size="10.00">+ update()</text>
</a>
</g>
</g>
<!-- Node7&#45;&gt;Node6 -->
<g id="edge1" class="edge"><title>Node7&#45;&gt;Node6</title>
<path fill="none" stroke="midnightblue" d="M181.297,-86.2541C176.06,-76.368 170.789,-66.4164 166.167,-57.6901"/>
<polygon fill="none" stroke="midnightblue" points="178.303,-88.0792 186.076,-95.2778 184.488,-84.8026 178.303,-88.0792"/>
</g>
<!-- Node8 -->
<g id="node3" class="node"><title>Node8</title>
<g id="a_node3"><a xlink:href="../../d1/d54/classSelector.html" target="_top" xlink:title=" ">
<polygon fill="white" stroke="black" points="97,-233.5 97,-411.5 184,-411.5 184,-233.5 97,-233.5"/>
<text text-anchor="middle" x="140.5" y="-399.5" font-family="Helvetica,sans-Serif" font-size="10.00">Selector&lt; N &gt;</text>
<polyline fill="none" stroke="black" points="97,-392.5 184,-392.5 "/>
<text text-anchor="start" x="105" y="-380.5" font-family="Helvetica,sans-Serif" font-size="10.00">&#45; selectable</text>
<text text-anchor="start" x="105" y="-369.5" font-family="Helvetica,sans-Serif" font-size="10.00">&#45; setting</text>
<polyline fill="none" stroke="black" points="97,-362.5 184,-362.5 "/>
<text text-anchor="start" x="105" y="-350.5" font-family="Helvetica,sans-Serif" font-size="10.00">+ beginInput()</text>
<text text-anchor="start" x="105" y="-339.5" font-family="Helvetica,sans-Serif" font-size="10.00">+ beginOutput()</text>
<text text-anchor="start" x="105" y="-328.5" font-family="Helvetica,sans-Serif" font-size="10.00">+ begin()</text>
<text text-anchor="start" x="105" y="-317.5" font-family="Helvetica,sans-Serif" font-size="10.00">+ reset()</text>
<text text-anchor="start" x="105" y="-306.5" font-family="Helvetica,sans-Serif" font-size="10.00">+ get()</text>
<text text-anchor="start" x="105" y="-295.5" font-family="Helvetica,sans-Serif" font-size="10.00">+ set()</text>
<text text-anchor="start" x="105" y="-284.5" font-family="Helvetica,sans-Serif" font-size="10.00">+ increment()</text>
<text text-anchor="start" x="105" y="-273.5" font-family="Helvetica,sans-Serif" font-size="10.00">+ decrement()</text>
<text text-anchor="start" x="105" y="-262.5" font-family="Helvetica,sans-Serif" font-size="10.00"># Selector()</text>
<text text-anchor="start" x="105" y="-251.5" font-family="Helvetica,sans-Serif" font-size="10.00"># Selector()</text>
<text text-anchor="start" x="105" y="-240.5" font-family="Helvetica,sans-Serif" font-size="10.00">&#45; updateOutput()</text>
</a>
</g>
</g>
<!-- Node8&#45;&gt;Node7 -->
<g id="edge2" class="edge"><title>Node8&#45;&gt;Node7</title>
<path fill="none" stroke="midnightblue" d="M178.011,-223.645C183.105,-210.356 188.111,-197.296 192.58,-185.638"/>
<polygon fill="none" stroke="midnightblue" points="174.604,-222.755 174.293,-233.346 181.14,-225.261 174.604,-222.755"/>
</g>
<!-- Node15 -->
<g id="node10" class="node"><title>Node15</title>
<g id="a_node10"><a xlink:href="../../dd/d8b/classSelectorLEDs.html" target="_top" xlink:title=" ">
<polygon fill="white" stroke="black" points="14,-101 14,-180 117,-180 117,-101 14,-101"/>
<text text-anchor="middle" x="65.5" y="-168" font-family="Helvetica,sans-Serif" font-size="10.00">SelectorLEDs&lt; N &gt;</text>
<polyline fill="none" stroke="black" points="14,-161 117,-161 "/>
<text text-anchor="middle" x="65.5" y="-149" font-family="Helvetica,sans-Serif" font-size="10.00"> </text>
<polyline fill="none" stroke="black" points="14,-142 117,-142 "/>
<text text-anchor="start" x="22" y="-130" font-family="Helvetica,sans-Serif" font-size="10.00">+ SelectorLEDs()</text>
<text text-anchor="start" x="22" y="-119" font-family="Helvetica,sans-Serif" font-size="10.00">+ beginOutput()</text>
<text text-anchor="start" x="22" y="-108" font-family="Helvetica,sans-Serif" font-size="10.00">+ updateOutput()</text>
</a>
</g>
</g>
<!-- Node8&#45;&gt;Node15 -->
<g id="edge13" class="edge"><title>Node8&#45;&gt;Node15</title>
<path fill="none" stroke="midnightblue" d="M107.856,-223.979C105.153,-217.168 102.357,-210.451 99.5,-204 95.9981,-196.094 91.8692,-187.839 87.718,-180.016"/>
<polygon fill="none" stroke="midnightblue" points="104.597,-225.255 111.482,-233.307 111.121,-222.719 104.597,-225.255"/>
</g>
<!-- Node9 -->
<g id="node4" class="node"><title>Node9</title>
<g id="a_node4"><a xlink:href="../../d5/de0/classUpdatable.html" target="_top" xlink:title=" ">
<polygon fill="white" stroke="black" points="99.5,-459.5 99.5,-670.5 181.5,-670.5 181.5,-459.5 99.5,-459.5"/>
<text text-anchor="middle" x="140.5" y="-658.5" font-family="Helvetica,sans-Serif" font-size="10.00">Updatable&lt;&gt;</text>
<polyline fill="none" stroke="black" points="99.5,-651.5 181.5,-651.5 "/>
<text text-anchor="middle" x="140.5" y="-639.5" font-family="Helvetica,sans-Serif" font-size="10.00"> </text>
<polyline fill="none" stroke="black" points="99.5,-632.5 181.5,-632.5 "/>
<text text-anchor="start" x="107.5" y="-620.5" font-family="Helvetica,sans-Serif" font-size="10.00">+ Updatable()</text>
<text text-anchor="start" x="107.5" y="-609.5" font-family="Helvetica,sans-Serif" font-size="10.00">+ ~Updatable()</text>
<text text-anchor="start" x="107.5" y="-598.5" font-family="Helvetica,sans-Serif" font-size="10.00">+ update()</text>
<text text-anchor="start" x="107.5" y="-587.5" font-family="Helvetica,sans-Serif" font-size="10.00">+ begin()</text>
<text text-anchor="start" x="107.5" y="-576.5" font-family="Helvetica,sans-Serif" font-size="10.00">+ enable()</text>
<text text-anchor="start" x="107.5" y="-565.5" font-family="Helvetica,sans-Serif" font-size="10.00">+ disable()</text>
<text text-anchor="start" x="107.5" y="-554.5" font-family="Helvetica,sans-Serif" font-size="10.00">+ isEnabled()</text>
<text text-anchor="start" x="107.5" y="-543.5" font-family="Helvetica,sans-Serif" font-size="10.00">+ enable()</text>
<text text-anchor="start" x="107.5" y="-532.5" font-family="Helvetica,sans-Serif" font-size="10.00">+ enable()</text>
<text text-anchor="start" x="107.5" y="-521.5" font-family="Helvetica,sans-Serif" font-size="10.00">+ enable()</text>
<text text-anchor="start" x="107.5" y="-510.5" font-family="Helvetica,sans-Serif" font-size="10.00">+ disable()</text>
<text text-anchor="start" x="107.5" y="-499.5" font-family="Helvetica,sans-Serif" font-size="10.00">+ disable()</text>
<text text-anchor="start" x="107.5" y="-488.5" font-family="Helvetica,sans-Serif" font-size="10.00">+ disable()</text>
<text text-anchor="start" x="107.5" y="-477.5" font-family="Helvetica,sans-Serif" font-size="10.00">+ beginAll()</text>
<text text-anchor="start" x="107.5" y="-466.5" font-family="Helvetica,sans-Serif" font-size="10.00">+ updateAll()</text>
</a>
</g>
</g>
<!-- Node9&#45;&gt;Node8 -->
<g id="edge3" class="edge"><title>Node9&#45;&gt;Node8</title>
<path fill="none" stroke="midnightblue" d="M140.5,-449.162C140.5,-436.595 140.5,-423.95 140.5,-411.776"/>
<polygon fill="none" stroke="midnightblue" points="137,-449.213 140.5,-459.213 144,-449.213 137,-449.213"/>
</g>
<!-- Node10 -->
<g id="node5" class="node"><title>Node10</title>
<g id="a_node5"><a xlink:href="../../d4/d23/classDoublyLinkable.html" target="_top" xlink:title=" ">
<polygon fill="white" stroke="black" points="94,-1269.5 94,-1337.5 231,-1337.5 231,-1269.5 94,-1269.5"/>
<text text-anchor="start" x="102" y="-1325.5" font-family="Helvetica,sans-Serif" font-size="10.00">DoublyLinkable&lt; Updatable</text>
<text text-anchor="middle" x="162.5" y="-1314.5" font-family="Helvetica,sans-Serif" font-size="10.00">&lt; NormalUpdatable &gt; &gt;</text>
<polyline fill="none" stroke="black" points="94,-1307.5 231,-1307.5 "/>
<text text-anchor="middle" x="162.5" y="-1295.5" font-family="Helvetica,sans-Serif" font-size="10.00"> </text>
<polyline fill="none" stroke="black" points="94,-1288.5 231,-1288.5 "/>
<text text-anchor="start" x="102" y="-1276.5" font-family="Helvetica,sans-Serif" font-size="10.00"># ~DoublyLinkable()</text>
</a>
</g>
</g>
<!-- Node10&#45;&gt;Node9 -->
<g id="edge4" class="edge"><title>Node10&#45;&gt;Node9</title>
<path fill="none" stroke="midnightblue" d="M131.568,-1260.8C122.256,-1245.86 113.252,-1228.4 108.5,-1211 50.7792,-999.628 85.8084,-935.933 108.5,-718 110.106,-702.577 112.605,-686.414 115.514,-670.622"/>
<polygon fill="none" stroke="midnightblue" points="128.685,-1262.79 137.056,-1269.28 134.562,-1258.98 128.685,-1262.79"/>
</g>
<!-- Node11 -->
<g id="node6" class="node"><title>Node11</title>
<g id="a_node6"><a xlink:href="../../d5/de0/classUpdatable.html" target="_top" xlink:title=" ">
<polygon fill="white" stroke="black" points="118,-999.5 118,-1210.5 273,-1210.5 273,-999.5 118,-999.5"/>
<text text-anchor="middle" x="195.5" y="-1198.5" font-family="Helvetica,sans-Serif" font-size="10.00">Updatable&lt; NormalUpdatable &gt;</text>
<polyline fill="none" stroke="black" points="118,-1191.5 273,-1191.5 "/>
<text text-anchor="middle" x="195.5" y="-1179.5" font-family="Helvetica,sans-Serif" font-size="10.00"> </text>
<polyline fill="none" stroke="black" points="118,-1172.5 273,-1172.5 "/>
<text text-anchor="start" x="126" y="-1160.5" font-family="Helvetica,sans-Serif" font-size="10.00">+ Updatable()</text>
<text text-anchor="start" x="126" y="-1149.5" font-family="Helvetica,sans-Serif" font-size="10.00">+ ~Updatable()</text>
<text text-anchor="start" x="126" y="-1138.5" font-family="Helvetica,sans-Serif" font-size="10.00">+ update()</text>
<text text-anchor="start" x="126" y="-1127.5" font-family="Helvetica,sans-Serif" font-size="10.00">+ begin()</text>
<text text-anchor="start" x="126" y="-1116.5" font-family="Helvetica,sans-Serif" font-size="10.00">+ enable()</text>
<text text-anchor="start" x="126" y="-1105.5" font-family="Helvetica,sans-Serif" font-size="10.00">+ disable()</text>
<text text-anchor="start" x="126" y="-1094.5" font-family="Helvetica,sans-Serif" font-size="10.00">+ isEnabled()</text>
<text text-anchor="start" x="126" y="-1083.5" font-family="Helvetica,sans-Serif" font-size="10.00">+ enable()</text>
<text text-anchor="start" x="126" y="-1072.5" font-family="Helvetica,sans-Serif" font-size="10.00">+ enable()</text>
<text text-anchor="start" x="126" y="-1061.5" font-family="Helvetica,sans-Serif" font-size="10.00">+ enable()</text>
<text text-anchor="start" x="126" y="-1050.5" font-family="Helvetica,sans-Serif" font-size="10.00">+ disable()</text>
<text text-anchor="start" x="126" y="-1039.5" font-family="Helvetica,sans-Serif" font-size="10.00">+ disable()</text>
<text text-anchor="start" x="126" y="-1028.5" font-family="Helvetica,sans-Serif" font-size="10.00">+ disable()</text>
<text text-anchor="start" x="126" y="-1017.5" font-family="Helvetica,sans-Serif" font-size="10.00">+ beginAll()</text>
<text text-anchor="start" x="126" y="-1006.5" font-family="Helvetica,sans-Serif" font-size="10.00">+ updateAll()</text>
</a>
</g>
</g>
<!-- Node10&#45;&gt;Node11 -->
<g id="edge6" class="edge"><title>Node10&#45;&gt;Node11</title>
<path fill="none" stroke="midnightblue" d="M169.793,-1259.07C172.224,-1244.6 175.046,-1227.79 177.912,-1210.73"/>
<polygon fill="none" stroke="midnightblue" points="166.303,-1258.72 168.098,-1269.17 173.206,-1259.88 166.303,-1258.72"/>
</g>
<!-- Node11&#45;&gt;Node10 -->
<g id="edge5" class="edge"><title>Node11&#45;&gt;Node10</title>
<path fill="none" stroke="#404040" d="M180.382,-1210.67C178.196,-1224.26 175.877,-1237.98 173.5,-1251 173.111,-1253.13 172.699,-1255.31 172.273,-1257.51"/>
<polygon fill="none" stroke="#404040" points="172.265,-1257.55 175,-1264.22 169.893,-1269.31 167.158,-1262.64 172.265,-1257.55"/>
<text text-anchor="middle" x="199" y="-1243" font-family="Helvetica,sans-Serif" font-size="10.00"> #next</text>
<text text-anchor="middle" x="199" y="-1232" font-family="Helvetica,sans-Serif" font-size="10.00">#previous</text>
</g>
<!-- Node12 -->
<g id="node7" class="node"><title>Node12</title>
<g id="a_node7"><a xlink:href="../../dd/d16/classDoublyLinkedList.html" target="_top" xlink:title=" ">
<polygon fill="white" stroke="black" points="118,-718.5 118,-940.5 263,-940.5 263,-718.5 118,-718.5"/>
<text text-anchor="start" x="126" y="-928.5" font-family="Helvetica,sans-Serif" font-size="10.00">DoublyLinkedList&lt; Updatable</text>
<text text-anchor="middle" x="190.5" y="-917.5" font-family="Helvetica,sans-Serif" font-size="10.00">&lt; NormalUpdatable &gt; &gt;</text>
<polyline fill="none" stroke="black" points="118,-910.5 263,-910.5 "/>
<text text-anchor="middle" x="190.5" y="-898.5" font-family="Helvetica,sans-Serif" font-size="10.00"> </text>
<polyline fill="none" stroke="black" points="118,-891.5 263,-891.5 "/>
<text text-anchor="start" x="126" y="-879.5" font-family="Helvetica,sans-Serif" font-size="10.00">+ DoublyLinkedList()</text>
<text text-anchor="start" x="126" y="-868.5" font-family="Helvetica,sans-Serif" font-size="10.00">+ append()</text>
<text text-anchor="start" x="126" y="-857.5" font-family="Helvetica,sans-Serif" font-size="10.00">+ append()</text>
<text text-anchor="start" x="126" y="-846.5" font-family="Helvetica,sans-Serif" font-size="10.00">+ remove()</text>
<text text-anchor="start" x="126" y="-835.5" font-family="Helvetica,sans-Serif" font-size="10.00">+ remove()</text>
<text text-anchor="start" x="126" y="-824.5" font-family="Helvetica,sans-Serif" font-size="10.00">+ moveDown()</text>
<text text-anchor="start" x="126" y="-813.5" font-family="Helvetica,sans-Serif" font-size="10.00">+ couldContain()</text>
<text text-anchor="start" x="126" y="-802.5" font-family="Helvetica,sans-Serif" font-size="10.00">+ begin()</text>
<text text-anchor="start" x="126" y="-791.5" font-family="Helvetica,sans-Serif" font-size="10.00">+ begin()</text>
<text text-anchor="start" x="126" y="-780.5" font-family="Helvetica,sans-Serif" font-size="10.00">+ end()</text>
<text text-anchor="start" x="126" y="-769.5" font-family="Helvetica,sans-Serif" font-size="10.00">+ end()</text>
<text text-anchor="start" x="126" y="-758.5" font-family="Helvetica,sans-Serif" font-size="10.00">+ rbegin()</text>
<text text-anchor="start" x="126" y="-747.5" font-family="Helvetica,sans-Serif" font-size="10.00">+ rbegin()</text>
<text text-anchor="start" x="126" y="-736.5" font-family="Helvetica,sans-Serif" font-size="10.00">+ rend()</text>
<text text-anchor="start" x="126" y="-725.5" font-family="Helvetica,sans-Serif" font-size="10.00">+ rend()</text>
</a>
</g>
</g>
<!-- Node11&#45;&gt;Node12 -->
<g id="edge8" class="edge"><title>Node11&#45;&gt;Node12</title>
<path fill="none" stroke="#404040" d="M170.007,-999.258C169.024,-993.103 168.173,-986.985 167.5,-981 166.462,-971.766 166.143,-962.229 166.365,-952.648"/>
<polygon fill="none" stroke="#404040" points="166.372,-952.494 162.651,-946.317 166.922,-940.507 170.643,-946.684 166.372,-952.494"/>
<text text-anchor="middle" x="178.5" y="-973" font-family="Helvetica,sans-Serif" font-size="10.00"> &#45;last</text>
<text text-anchor="middle" x="178.5" y="-962" font-family="Helvetica,sans-Serif" font-size="10.00">&#45;first</text>
</g>
<!-- Node12&#45;&gt;Node9 -->
<g id="edge9" class="edge"><title>Node12&#45;&gt;Node9</title>
<path fill="none" stroke="#404040" d="M169.513,-718.317C167.268,-706.532 164.979,-694.513 162.72,-682.656"/>
<polygon fill="none" stroke="#404040" points="162.72,-682.655 157.668,-677.509 160.475,-670.867 165.527,-676.012 162.72,-682.655"/>
<text text-anchor="middle" x="192.5" y="-692" font-family="Helvetica,sans-Serif" font-size="10.00"> &#45;updatables</text>
</g>
<!-- Node12&#45;&gt;Node11 -->
<g id="edge7" class="edge"><title>Node12&#45;&gt;Node11</title>
<path fill="none" stroke="#404040" d="M193.138,-940.552C193.267,-946.793 193.388,-952.976 193.5,-959 193.671,-968.203 193.834,-977.736 193.987,-987.315"/>
<polygon fill="none" stroke="#404040" points="193.99,-987.454 198.083,-993.391 194.177,-999.453 190.084,-993.516 193.99,-987.454"/>
<text text-anchor="middle" x="221.5" y="-967.5" font-family="Helvetica,sans-Serif" font-size="10.00"> &#45;updatables</text>
</g>
<!-- Node13 -->
<g id="node8" class="node"><title>Node13</title>
<g id="a_node8"><a xlink:href="../../df/d38/classIncrementButton.html" target="_top" xlink:title=" ">
<polygon fill="white" stroke="black" points="202.5,-277.5 202.5,-367.5 306.5,-367.5 306.5,-277.5 202.5,-277.5"/>
<text text-anchor="middle" x="254.5" y="-355.5" font-family="Helvetica,sans-Serif" font-size="10.00">IncrementButton</text>
<polyline fill="none" stroke="black" points="202.5,-348.5 306.5,-348.5 "/>
<text text-anchor="start" x="210.5" y="-336.5" font-family="Helvetica,sans-Serif" font-size="10.00">&#45; longPressState</text>
<text text-anchor="start" x="210.5" y="-325.5" font-family="Helvetica,sans-Serif" font-size="10.00">&#45; longPressRepeat</text>
<polyline fill="none" stroke="black" points="202.5,-318.5 306.5,-318.5 "/>
<text text-anchor="start" x="210.5" y="-306.5" font-family="Helvetica,sans-Serif" font-size="10.00">+ IncrementButton()</text>
<text text-anchor="start" x="210.5" y="-295.5" font-family="Helvetica,sans-Serif" font-size="10.00">+ begin()</text>
<text text-anchor="start" x="210.5" y="-284.5" font-family="Helvetica,sans-Serif" font-size="10.00">+ getState()</text>
</a>
</g>
</g>
<!-- Node13&#45;&gt;Node7 -->
<g id="edge10" class="edge"><title>Node13&#45;&gt;Node7</title>
<path fill="none" stroke="#404040" d="M243.492,-277.467C237.472,-253.387 229.952,-223.306 223.516,-197.565"/>
<polygon fill="none" stroke="#404040" points="223.461,-197.344 218.125,-192.493 220.551,-185.702 225.886,-190.553 223.461,-197.344"/>
<text text-anchor="middle" x="244.5" y="-207" font-family="Helvetica,sans-Serif" font-size="10.00"> &#45;button</text>
</g>
<!-- Node14 -->
<g id="node9" class="node"><title>Node14</title>
<g id="a_node9"><a xlink:href="../../d1/d19/classButton.html" target="_top" xlink:title="A class for reading and debouncing buttons and switches.">
<polygon fill="white" stroke="black" points="206.5,-476 206.5,-654 302.5,-654 302.5,-476 206.5,-476"/>
<text text-anchor="middle" x="254.5" y="-642" font-family="Helvetica,sans-Serif" font-size="10.00">Button</text>
<polyline fill="none" stroke="black" points="206.5,-635 302.5,-635 "/>
<text text-anchor="start" x="214.5" y="-623" font-family="Helvetica,sans-Serif" font-size="10.00">&#45; pin</text>
<text text-anchor="start" x="214.5" y="-612" font-family="Helvetica,sans-Serif" font-size="10.00">&#45; prevState</text>
<text text-anchor="start" x="214.5" y="-601" font-family="Helvetica,sans-Serif" font-size="10.00">&#45; debouncedState</text>
<text text-anchor="start" x="214.5" y="-590" font-family="Helvetica,sans-Serif" font-size="10.00">&#45; prevBounceTime</text>
<text text-anchor="start" x="214.5" y="-579" font-family="Helvetica,sans-Serif" font-size="10.00">&#45; invertState</text>
<text text-anchor="start" x="214.5" y="-568" font-family="Helvetica,sans-Serif" font-size="10.00">&#45; debounceTime</text>
<polyline fill="none" stroke="black" points="206.5,-561 302.5,-561 "/>
<text text-anchor="start" x="214.5" y="-549" font-family="Helvetica,sans-Serif" font-size="10.00">+ Button()</text>
<text text-anchor="start" x="214.5" y="-538" font-family="Helvetica,sans-Serif" font-size="10.00">+ Button()</text>
<text text-anchor="start" x="214.5" y="-527" font-family="Helvetica,sans-Serif" font-size="10.00">+ begin()</text>
<text text-anchor="start" x="214.5" y="-516" font-family="Helvetica,sans-Serif" font-size="10.00">+ getState()</text>
<text text-anchor="start" x="214.5" y="-505" font-family="Helvetica,sans-Serif" font-size="10.00">+ stableTime()</text>
<text text-anchor="start" x="214.5" y="-494" font-family="Helvetica,sans-Serif" font-size="10.00">+ invert()</text>
<text text-anchor="start" x="214.5" y="-483" font-family="Helvetica,sans-Serif" font-size="10.00">+ getName()</text>
</a>
</g>
</g>
<!-- Node14&#45;&gt;Node13 -->
<g id="edge11" class="edge"><title>Node14&#45;&gt;Node13</title>
<path fill="none" stroke="#404040" d="M254.5,-475.812C254.5,-443.815 254.5,-408.55 254.5,-380.018"/>
<polygon fill="none" stroke="#404040" points="254.5,-379.826 250.5,-373.826 254.5,-367.826 258.5,-373.826 254.5,-379.826"/>
<text text-anchor="middle" x="271.5" y="-433" font-family="Helvetica,sans-Serif" font-size="10.00"> &#45;button</text>
</g>
<!-- Node15&#45;&gt;Node6 -->
<g id="edge12" class="edge"><title>Node15&#45;&gt;Node6</title>
<path fill="none" stroke="midnightblue" d="M102.242,-92.7181C111.644,-80.7463 121.455,-68.2551 129.823,-57.6005"/>
<polygon fill="none" stroke="midnightblue" points="99.2445,-90.8681 95.8204,-100.894 104.75,-95.1918 99.2445,-90.8681"/>
</g>
<!-- Node16 -->
<g id="node11" class="node"><title>Node16</title>
<g id="a_node11"><a xlink:href="../../d7/d6a/structArray.html" target="_top" xlink:title=" ">
<polygon fill="white" stroke="black" points="0,-255.5 0,-389.5 79,-389.5 79,-255.5 0,-255.5"/>
<text text-anchor="middle" x="39.5" y="-377.5" font-family="Helvetica,sans-Serif" font-size="10.00">Array&lt; N &gt;</text>
<polyline fill="none" stroke="black" points="0,-370.5 79,-370.5 "/>
<text text-anchor="middle" x="39.5" y="-358.5" font-family="Helvetica,sans-Serif" font-size="10.00"> </text>
<polyline fill="none" stroke="black" points="0,-351.5 79,-351.5 "/>
<text text-anchor="start" x="8" y="-339.5" font-family="Helvetica,sans-Serif" font-size="10.00">+ operator[]()</text>
<text text-anchor="start" x="8" y="-328.5" font-family="Helvetica,sans-Serif" font-size="10.00">+ operator[]()</text>
<text text-anchor="start" x="8" y="-317.5" font-family="Helvetica,sans-Serif" font-size="10.00">+ begin()</text>
<text text-anchor="start" x="8" y="-306.5" font-family="Helvetica,sans-Serif" font-size="10.00">+ begin()</text>
<text text-anchor="start" x="8" y="-295.5" font-family="Helvetica,sans-Serif" font-size="10.00">+ end()</text>
<text text-anchor="start" x="8" y="-284.5" font-family="Helvetica,sans-Serif" font-size="10.00">+ end()</text>
<text text-anchor="start" x="8" y="-273.5" font-family="Helvetica,sans-Serif" font-size="10.00">+ operator==()</text>
<text text-anchor="start" x="8" y="-262.5" font-family="Helvetica,sans-Serif" font-size="10.00">+ operator!=()</text>
</a>
</g>
</g>
<!-- Node16&#45;&gt;Node15 -->
<g id="edge14" class="edge"><title>Node16&#45;&gt;Node15</title>
<path fill="none" stroke="#404040" d="M49.0338,-255.497C52.056,-234.574 55.3478,-211.785 58.1883,-192.12"/>
<polygon fill="none" stroke="#404040" points="58.2214,-191.889 55.1203,-185.379 59.9371,-180.013 63.0382,-186.523 58.2214,-191.889"/>
<text text-anchor="middle" x="76" y="-207" font-family="Helvetica,sans-Serif" font-size="10.00"> &#45;ledPins</text>
</g>
<!-- Node17 -->
<g id="node12" class="node"><title>Node17</title>
<g id="a_node12"><a xlink:title=" ">
<polygon fill="white" stroke="#bfbfbf" points="25,-536.5 25,-593.5 54,-593.5 54,-536.5 25,-536.5"/>
<text text-anchor="middle" x="39.5" y="-581.5" font-family="Helvetica,sans-Serif" font-size="10.00">N</text>
<polyline fill="none" stroke="#bfbfbf" points="25,-574.5 54,-574.5 "/>
<text text-anchor="middle" x="39.5" y="-562.5" font-family="Helvetica,sans-Serif" font-size="10.00"> </text>
<polyline fill="none" stroke="#bfbfbf" points="25,-555.5 54,-555.5 "/>
<text text-anchor="middle" x="39.5" y="-543.5" font-family="Helvetica,sans-Serif" font-size="10.00"> </text>
</a>
</g>
</g>
<!-- Node17&#45;&gt;Node16 -->
<g id="edge15" class="edge"><title>Node17&#45;&gt;Node16</title>
<path fill="none" stroke="#404040" d="M39.5,-536.412C39.5,-503.792 39.5,-448.092 39.5,-401.844"/>
<polygon fill="none" stroke="#404040" points="39.5001,-401.695 35.5,-395.695 39.5,-389.695 43.5,-395.695 39.5001,-401.695"/>
<text text-anchor="middle" x="53.5" y="-433" font-family="Helvetica,sans-Serif" font-size="10.00"> +data</text>
</g>
</g>
</svg>
