<?xml version="1.0" encoding="UTF-8" standalone="no"?>
<!DOCTYPE svg PUBLIC "-//W3C//DTD SVG 1.1//EN"
 "http://www.w3.org/Graphics/SVG/1.1/DTD/svg11.dtd">
<!-- Generated by graphviz version 2.38.0 (20140413.2041)
 -->
<!-- Title: AlmostEqual.hpp Pages: 1 -->
<svg width="159pt" height="140pt"
 viewBox="0.00 0.00 158.50 140.00" xmlns="http://www.w3.org/2000/svg" xmlns:xlink="http://www.w3.org/1999/xlink">
<g id="graph0" class="graph" transform="scale(1 1) rotate(0) translate(4 136)">
<title>AlmostEqual.hpp</title>
<polygon fill="white" stroke="none" points="-4,4 -4,-136 154.5,-136 154.5,4 -4,4"/>
<!-- Node0 -->
<g id="node1" class="node"><title>Node0</title>
<g id="a_node1"><a xlink:title=" ">
<polygon fill="#bfbfbf" stroke="black" points="41,-112.5 41,-131.5 132,-131.5 132,-112.5 41,-112.5"/>
<text text-anchor="middle" x="86.5" y="-119.5" font-family="Helvetica,sans-Serif" font-size="10.00">AlmostEqual.hpp</text>
</a>
</g>
</g>
<!-- Node1 -->
<g id="node2" class="node"><title>Node1</title>
<g id="a_node2"><a xlink:href="../../de/d76/Array_8hpp.html" target="_top" xlink:title=" ">
<polygon fill="white" stroke="black" points="-7.10543e-15,-56.5 -7.10543e-15,-75.5 89,-75.5 89,-56.5 -7.10543e-15,-56.5"/>
<text text-anchor="middle" x="44.5" y="-63.5" font-family="Helvetica,sans-Serif" font-size="10.00">Matrix/Array.hpp</text>
</a>
</g>
</g>
<!-- Node0&#45;&gt;Node1 -->
<g id="edge1" class="edge"><title>Node0&#45;&gt;Node1</title>
<path fill="none" stroke="midnightblue" d="M79.5646,-112.083C73.5708,-104.377 64.7482,-93.0333 57.4524,-83.6531"/>
<polygon fill="midnightblue" stroke="midnightblue" points="60.2086,-81.4958 51.3064,-75.7511 54.6831,-85.7934 60.2086,-81.4958"/>
</g>
<!-- Node3 -->
<g id="node4" class="node"><title>Node3</title>
<g id="a_node4"><a xlink:title=" ">
<polygon fill="white" stroke="#bfbfbf" points="106.5,-56.5 106.5,-75.5 150.5,-75.5 150.5,-56.5 106.5,-56.5"/>
<text text-anchor="middle" x="128.5" y="-63.5" font-family="Helvetica,sans-Serif" font-size="10.00">cmath</text>
</a>
</g>
</g>
<!-- Node0&#45;&gt;Node3 -->
<g id="edge3" class="edge"><title>Node0&#45;&gt;Node3</title>
<path fill="none" stroke="midnightblue" d="M93.4354,-112.083C99.4292,-104.377 108.252,-93.0333 115.548,-83.6531"/>
<polygon fill="midnightblue" stroke="midnightblue" points="118.317,-85.7934 121.694,-75.7511 112.791,-81.4958 118.317,-85.7934"/>
</g>
<!-- Node2 -->
<g id="node3" class="node"><title>Node2</title>
<g id="a_node3"><a xlink:title=" ">
<polygon fill="white" stroke="#bfbfbf" points="20,-0.5 20,-19.5 69,-19.5 69,-0.5 20,-0.5"/>
<text text-anchor="middle" x="44.5" y="-7.5" font-family="Helvetica,sans-Serif" font-size="10.00">cstddef</text>
</a>
</g>
</g>
<!-- Node1&#45;&gt;Node2 -->
<g id="edge2" class="edge"><title>Node1&#45;&gt;Node2</title>
<path fill="none" stroke="midnightblue" d="M44.5,-56.083C44.5,-49.0059 44.5,-38.8611 44.5,-29.9865"/>
<polygon fill="midnightblue" stroke="midnightblue" points="48.0001,-29.751 44.5,-19.7511 41.0001,-29.7511 48.0001,-29.751"/>
</g>
</g>
</svg>
