<?xml version="1.0" encoding="UTF-8" standalone="no"?>
<!DOCTYPE svg PUBLIC "-//W3C//DTD SVG 1.1//EN"
 "http://www.w3.org/Graphics/SVG/1.1/DTD/svg11.dtd">
<!-- Generated by graphviz version 2.38.0 (20140413.2041)
 -->
<!-- Title: SerialMIDI_Parser Pages: 1 -->
<svg width="129pt" height="431pt"
 viewBox="0.00 0.00 129.00 431.00" xmlns="http://www.w3.org/2000/svg" xmlns:xlink="http://www.w3.org/1999/xlink">
<g id="graph0" class="graph" transform="scale(1 1) rotate(0) translate(4 427)">
<title>SerialMIDI_Parser</title>
<polygon fill="white" stroke="none" points="-4,4 -4,-427 125,-427 125,4 -4,4"/>
<!-- Node2 -->
<g id="node1" class="node"><title>Node2</title>
<g id="a_node1"><a xlink:title=" ">
<polygon fill="#bfbfbf" stroke="black" points="12,-0.5 12,-57.5 109,-57.5 109,-0.5 12,-0.5"/>
<text text-anchor="middle" x="60.5" y="-45.5" font-family="Helvetica,sans-Serif" font-size="10.00">SerialMIDI_Parser</text>
<polyline fill="none" stroke="black" points="12,-38.5 109,-38.5 "/>
<text text-anchor="start" x="20" y="-26.5" font-family="Helvetica,sans-Serif" font-size="10.00">&#45; thirdByte</text>
<polyline fill="none" stroke="black" points="12,-19.5 109,-19.5 "/>
<text text-anchor="start" x="20" y="-7.5" font-family="Helvetica,sans-Serif" font-size="10.00">+ parse()</text>
</a>
</g>
</g>
<!-- Node3 -->
<g id="node2" class="node"><title>Node3</title>
<g id="a_node2"><a xlink:href="../../df/d0c/classMIDI__Parser.html" target="_top" xlink:title=" ">
<polygon fill="white" stroke="black" points="-7.10543e-15,-95.5 -7.10543e-15,-284.5 121,-284.5 121,-95.5 -7.10543e-15,-95.5"/>
<text text-anchor="middle" x="60.5" y="-272.5" font-family="Helvetica,sans-Serif" font-size="10.00">MIDI_Parser</text>
<polyline fill="none" stroke="black" points="-7.10543e-15,-265.5 121,-265.5 "/>
<text text-anchor="start" x="8" y="-253.5" font-family="Helvetica,sans-Serif" font-size="10.00"># SysExBuffer</text>
<text text-anchor="start" x="8" y="-242.5" font-family="Helvetica,sans-Serif" font-size="10.00"># SysExLength</text>
<text text-anchor="start" x="8" y="-231.5" font-family="Helvetica,sans-Serif" font-size="10.00"># receivingSysEx</text>
<text text-anchor="start" x="8" y="-220.5" font-family="Helvetica,sans-Serif" font-size="10.00"># bufferSize</text>
<polyline fill="none" stroke="black" points="-7.10543e-15,-213.5 121,-213.5 "/>
<text text-anchor="start" x="8" y="-201.5" font-family="Helvetica,sans-Serif" font-size="10.00">+ getChannelMessage()</text>
<text text-anchor="start" x="8" y="-190.5" font-family="Helvetica,sans-Serif" font-size="10.00">+ getSysExBuffer()</text>
<text text-anchor="start" x="8" y="-179.5" font-family="Helvetica,sans-Serif" font-size="10.00">+ getSysExLength()</text>
<text text-anchor="start" x="8" y="-168.5" font-family="Helvetica,sans-Serif" font-size="10.00">+ getSysExMessage()</text>
<text text-anchor="start" x="8" y="-157.5" font-family="Helvetica,sans-Serif" font-size="10.00">+ isStatus()</text>
<text text-anchor="start" x="8" y="-146.5" font-family="Helvetica,sans-Serif" font-size="10.00">+ isData()</text>
<text text-anchor="start" x="8" y="-135.5" font-family="Helvetica,sans-Serif" font-size="10.00"># startSysEx()</text>
<text text-anchor="start" x="8" y="-124.5" font-family="Helvetica,sans-Serif" font-size="10.00"># endSysEx()</text>
<text text-anchor="start" x="8" y="-113.5" font-family="Helvetica,sans-Serif" font-size="10.00"># addSysExByte()</text>
<text text-anchor="start" x="8" y="-102.5" font-family="Helvetica,sans-Serif" font-size="10.00"># hasSpaceLeft()</text>
</a>
</g>
</g>
<!-- Node3&#45;&gt;Node2 -->
<g id="edge1" class="edge"><title>Node3&#45;&gt;Node2</title>
<path fill="none" stroke="midnightblue" d="M60.5,-85.0785C60.5,-75.1871 60.5,-65.8544 60.5,-57.7795"/>
<polygon fill="none" stroke="midnightblue" points="57.0001,-85.1301 60.5,-95.1302 64.0001,-85.1302 57.0001,-85.1301"/>
</g>
<!-- Node4 -->
<g id="node3" class="node"><title>Node4</title>
<g id="a_node3"><a xlink:href="../../de/df8/structMIDI__message.html" target="_top" xlink:title=" ">
<polygon fill="white" stroke="black" points="19,-332.5 19,-422.5 102,-422.5 102,-332.5 19,-332.5"/>
<text text-anchor="middle" x="60.5" y="-410.5" font-family="Helvetica,sans-Serif" font-size="10.00">MIDI_message</text>
<polyline fill="none" stroke="black" points="19,-403.5 102,-403.5 "/>
<text text-anchor="start" x="27" y="-391.5" font-family="Helvetica,sans-Serif" font-size="10.00">+ header</text>
<text text-anchor="start" x="27" y="-380.5" font-family="Helvetica,sans-Serif" font-size="10.00">+ data1</text>
<text text-anchor="start" x="27" y="-369.5" font-family="Helvetica,sans-Serif" font-size="10.00">+ data2</text>
<polyline fill="none" stroke="black" points="19,-362.5 102,-362.5 "/>
<text text-anchor="start" x="27" y="-350.5" font-family="Helvetica,sans-Serif" font-size="10.00">+ operator==()</text>
<text text-anchor="start" x="27" y="-339.5" font-family="Helvetica,sans-Serif" font-size="10.00">+ operator!=()</text>
</a>
</g>
</g>
<!-- Node4&#45;&gt;Node3 -->
<g id="edge2" class="edge"><title>Node4&#45;&gt;Node3</title>
<path fill="none" stroke="#404040" d="M60.5,-332.068C60.5,-321.296 60.5,-309.318 60.5,-297.021"/>
<polygon fill="none" stroke="#404040" points="60.5001,-296.652 56.5,-290.652 60.5,-284.652 64.5,-290.652 60.5001,-296.652"/>
<text text-anchor="middle" x="83.5" y="-306" font-family="Helvetica,sans-Serif" font-size="10.00"> #midimsg</text>
</g>
</g>
</svg>
