<?xml version="1.0" encoding="UTF-8" standalone="no"?>
<!DOCTYPE svg PUBLIC "-//W3C//DTD SVG 1.1//EN"
 "http://www.w3.org/Graphics/SVG/1.1/DTD/svg11.dtd">
<!-- Generated by graphviz version 2.38.0 (20140413.2041)
 -->
<!-- Title: /home/pieter/GitHub/EAGLE/matrix/include/Array.hpp Pages: 1 -->
<svg width="843pt" height="518pt"
 viewBox="0.00 0.00 843.00 518.00" xmlns="http://www.w3.org/2000/svg" xmlns:xlink="http://www.w3.org/1999/xlink">
<g id="graph0" class="graph" transform="scale(1 1) rotate(0) translate(4 514)">
<title>/home/pieter/GitHub/EAGLE/matrix/include/Array.hpp</title>
<polygon fill="white" stroke="none" points="-4,4 -4,-514 839,-514 839,4 -4,4"/>
<!-- Node7 -->
<g id="node1" class="node"><title>Node7</title>
<g id="a_node1"><a xlink:title=" ">
<polygon fill="#bfbfbf" stroke="black" points="134,-468.5 134,-509.5 250,-509.5 250,-468.5 134,-468.5"/>
<text text-anchor="start" x="142" y="-497.5" font-family="Helvetica,sans-Serif" font-size="10.00">/home/pieter/GitHub</text>
<text text-anchor="start" x="142" y="-486.5" font-family="Helvetica,sans-Serif" font-size="10.00">/EAGLE/matrix/include</text>
<text text-anchor="middle" x="192" y="-475.5" font-family="Helvetica,sans-Serif" font-size="10.00">/Array.hpp</text>
</a>
</g>
</g>
<!-- Node8 -->
<g id="node2" class="node"><title>Node8</title>
<g id="a_node2"><a xlink:href="AlmostEqual_8hpp.html" target="_top" xlink:title=" ">
<polygon fill="white" stroke="black" points="0,-390.5 0,-431.5 116,-431.5 116,-390.5 0,-390.5"/>
<text text-anchor="start" x="8" y="-419.5" font-family="Helvetica,sans-Serif" font-size="10.00">/home/pieter/GitHub</text>
<text text-anchor="start" x="8" y="-408.5" font-family="Helvetica,sans-Serif" font-size="10.00">/EAGLE/matrix/include</text>
<text text-anchor="middle" x="58" y="-397.5" font-family="Helvetica,sans-Serif" font-size="10.00">/AlmostEqual.hpp</text>
</a>
</g>
</g>
<!-- Node7&#45;&gt;Node8 -->
<g id="edge1" class="edge"><title>Node7&#45;&gt;Node8</title>
<path fill="none" stroke="midnightblue" d="M148.777,-463.486C130.525,-453.134 109.568,-441.247 92.3914,-431.506"/>
<polygon fill="midnightblue" stroke="midnightblue" points="147.067,-466.539 157.492,-468.428 150.52,-460.45 147.067,-466.539"/>
</g>
<!-- Node9 -->
<g id="node3" class="node"><title>Node9</title>
<g id="a_node3"><a xlink:href="ArrayHelpers_8hpp.html" target="_top" xlink:title=" ">
<polygon fill="white" stroke="black" points="134,-390.5 134,-431.5 250,-431.5 250,-390.5 134,-390.5"/>
<text text-anchor="start" x="142" y="-419.5" font-family="Helvetica,sans-Serif" font-size="10.00">/home/pieter/GitHub</text>
<text text-anchor="start" x="142" y="-408.5" font-family="Helvetica,sans-Serif" font-size="10.00">/EAGLE/matrix/include</text>
<text text-anchor="middle" x="192" y="-397.5" font-family="Helvetica,sans-Serif" font-size="10.00">/ArrayHelpers.hpp</text>
</a>
</g>
</g>
<!-- Node7&#45;&gt;Node9 -->
<g id="edge2" class="edge"><title>Node7&#45;&gt;Node9</title>
<path fill="none" stroke="midnightblue" d="M192,-458.297C192,-449.301 192,-439.653 192,-431.506"/>
<polygon fill="midnightblue" stroke="midnightblue" points="188.5,-458.428 192,-468.428 195.5,-458.428 188.5,-458.428"/>
</g>
<!-- Node11 -->
<g id="node5" class="node"><title>Node11</title>
<g id="a_node5"><a xlink:href="Matrix_8hpp.html" target="_top" xlink:title=" ">
<polygon fill="white" stroke="black" points="331,-390.5 331,-431.5 447,-431.5 447,-390.5 331,-390.5"/>
<text text-anchor="start" x="339" y="-419.5" font-family="Helvetica,sans-Serif" font-size="10.00">/home/pieter/GitHub</text>
<text text-anchor="start" x="339" y="-408.5" font-family="Helvetica,sans-Serif" font-size="10.00">/EAGLE/matrix/include</text>
<text text-anchor="middle" x="389" y="-397.5" font-family="Helvetica,sans-Serif" font-size="10.00">/Matrix.hpp</text>
</a>
</g>
</g>
<!-- Node7&#45;&gt;Node11 -->
<g id="edge4" class="edge"><title>Node7&#45;&gt;Node11</title>
<path fill="none" stroke="midnightblue" d="M252.271,-464.748C279.847,-454.11 312.155,-441.646 338.44,-431.506"/>
<polygon fill="midnightblue" stroke="midnightblue" points="250.802,-461.563 242.732,-468.428 253.322,-468.094 250.802,-461.563"/>
</g>
<!-- Node10 -->
<g id="node4" class="node"><title>Node10</title>
<g id="a_node4"><a xlink:href="MatrixHelpers_8hpp.html" target="_top" xlink:title=" ">
<polygon fill="white" stroke="black" points="100,-312.5 100,-353.5 216,-353.5 216,-312.5 100,-312.5"/>
<text text-anchor="start" x="108" y="-341.5" font-family="Helvetica,sans-Serif" font-size="10.00">/home/pieter/GitHub</text>
<text text-anchor="start" x="108" y="-330.5" font-family="Helvetica,sans-Serif" font-size="10.00">/EAGLE/matrix/include</text>
<text text-anchor="middle" x="158" y="-319.5" font-family="Helvetica,sans-Serif" font-size="10.00">/MatrixHelpers.hpp</text>
</a>
</g>
</g>
<!-- Node9&#45;&gt;Node10 -->
<g id="edge3" class="edge"><title>Node9&#45;&gt;Node10</title>
<path fill="none" stroke="midnightblue" d="M179.104,-381.174C174.969,-371.932 170.49,-361.919 166.726,-353.506"/>
<polygon fill="midnightblue" stroke="midnightblue" points="175.966,-382.729 183.244,-390.428 182.355,-379.871 175.966,-382.729"/>
</g>
<!-- Node11&#45;&gt;Node10 -->
<g id="edge21" class="edge"><title>Node11&#45;&gt;Node10</title>
<path fill="none" stroke="midnightblue" d="M321.057,-387.646C287.788,-376.701 248.141,-363.657 216.272,-353.172"/>
<polygon fill="midnightblue" stroke="midnightblue" points="320.116,-391.021 330.709,-390.822 322.304,-384.372 320.116,-391.021"/>
</g>
<!-- Node12 -->
<g id="node6" class="node"><title>Node12</title>
<g id="a_node6"><a xlink:href="GridFinder_8hpp.html" target="_top" xlink:title=" ">
<polygon fill="white" stroke="black" points="226,-156.5 226,-197.5 370,-197.5 370,-156.5 226,-156.5"/>
<text text-anchor="start" x="234" y="-185.5" font-family="Helvetica,sans-Serif" font-size="10.00">/home/pieter/GitHub</text>
<text text-anchor="start" x="234" y="-174.5" font-family="Helvetica,sans-Serif" font-size="10.00">/GridFinder/src/grid</text>
<text text-anchor="middle" x="298" y="-163.5" font-family="Helvetica,sans-Serif" font-size="10.00">&#45;finder/include/GridFinder.hpp</text>
</a>
</g>
</g>
<!-- Node11&#45;&gt;Node12 -->
<g id="edge5" class="edge"><title>Node11&#45;&gt;Node12</title>
<path fill="none" stroke="midnightblue" d="M402.608,-381.1C417.841,-344.124 436.968,-279.436 409,-234 398.93,-217.641 382.446,-205.888 365.224,-197.516"/>
<polygon fill="midnightblue" stroke="midnightblue" points="399.38,-379.745 398.653,-390.315 405.813,-382.505 399.38,-379.745"/>
</g>
<!-- Node15 -->
<g id="node9" class="node"><title>Node15</title>
<g id="a_node9"><a xlink:href="Line_8hpp.html" target="_top" xlink:title=" ">
<polygon fill="white" stroke="black" points="272.5,-312.5 272.5,-353.5 389.5,-353.5 389.5,-312.5 272.5,-312.5"/>
<text text-anchor="start" x="280.5" y="-341.5" font-family="Helvetica,sans-Serif" font-size="10.00">/home/pieter/GitHub</text>
<text text-anchor="start" x="280.5" y="-330.5" font-family="Helvetica,sans-Serif" font-size="10.00">/GridFinder/src/grid</text>
<text text-anchor="middle" x="331" y="-319.5" font-family="Helvetica,sans-Serif" font-size="10.00">&#45;finder/include/Line.hpp</text>
</a>
</g>
</g>
<!-- Node11&#45;&gt;Node15 -->
<g id="edge8" class="edge"><title>Node11&#45;&gt;Node15</title>
<path fill="none" stroke="midnightblue" d="M367.889,-382.338C360.594,-372.778 352.577,-362.273 345.886,-353.506"/>
<polygon fill="midnightblue" stroke="midnightblue" points="365.214,-384.602 374.064,-390.428 370.779,-380.355 365.214,-384.602"/>
</g>
<!-- Node17 -->
<g id="node11" class="node"><title>Node17</title>
<g id="a_node11"><a xlink:href="HouseholderQR_8hpp.html" target="_top" xlink:title=" ">
<polygon fill="white" stroke="black" points="585,-312.5 585,-353.5 701,-353.5 701,-312.5 585,-312.5"/>
<text text-anchor="start" x="593" y="-341.5" font-family="Helvetica,sans-Serif" font-size="10.00">/home/pieter/GitHub</text>
<text text-anchor="start" x="593" y="-330.5" font-family="Helvetica,sans-Serif" font-size="10.00">/EAGLE/matrix/include</text>
<text text-anchor="middle" x="643" y="-319.5" font-family="Helvetica,sans-Serif" font-size="10.00">/HouseholderQR.hpp</text>
</a>
</g>
</g>
<!-- Node11&#45;&gt;Node17 -->
<g id="edge13" class="edge"><title>Node11&#45;&gt;Node17</title>
<path fill="none" stroke="midnightblue" d="M456.94,-389.671C496.901,-377.715 546.898,-362.755 584.998,-351.355"/>
<polygon fill="midnightblue" stroke="midnightblue" points="455.85,-386.344 447.273,-392.564 457.856,-393.051 455.85,-386.344"/>
</g>
<!-- Node18 -->
<g id="node12" class="node"><title>Node18</title>
<g id="a_node12"><a xlink:href="DLQR_8hpp.html" target="_top" xlink:title=" ">
<polygon fill="white" stroke="black" points="652,-156.5 652,-197.5 768,-197.5 768,-156.5 652,-156.5"/>
<text text-anchor="start" x="660" y="-185.5" font-family="Helvetica,sans-Serif" font-size="10.00">/home/pieter/GitHub</text>
<text text-anchor="start" x="660" y="-174.5" font-family="Helvetica,sans-Serif" font-size="10.00">/EAGLE/matrix/include</text>
<text text-anchor="middle" x="710" y="-163.5" font-family="Helvetica,sans-Serif" font-size="10.00">/DLQR.hpp</text>
</a>
</g>
</g>
<!-- Node11&#45;&gt;Node18 -->
<g id="edge20" class="edge"><title>Node11&#45;&gt;Node18</title>
<path fill="none" stroke="midnightblue" d="M457.06,-408.035C541.528,-403.995 678.343,-391.658 710,-354 747.554,-309.327 729.071,-233.343 717.263,-197.637"/>
<polygon fill="midnightblue" stroke="midnightblue" points="456.861,-404.54 447.029,-408.488 457.176,-411.533 456.861,-404.54"/>
</g>
<!-- Node23 -->
<g id="node17" class="node"><title>Node23</title>
<g id="a_node17"><a xlink:href="Randn_8hpp.html" target="_top" xlink:title=" ">
<polygon fill="white" stroke="black" points="451,-312.5 451,-353.5 567,-353.5 567,-312.5 451,-312.5"/>
<text text-anchor="start" x="459" y="-341.5" font-family="Helvetica,sans-Serif" font-size="10.00">/home/pieter/GitHub</text>
<text text-anchor="start" x="459" y="-330.5" font-family="Helvetica,sans-Serif" font-size="10.00">/EAGLE/matrix/include</text>
<text text-anchor="middle" x="509" y="-319.5" font-family="Helvetica,sans-Serif" font-size="10.00">/Randn.hpp</text>
</a>
</g>
</g>
<!-- Node11&#45;&gt;Node23 -->
<g id="edge22" class="edge"><title>Node11&#45;&gt;Node23</title>
<path fill="none" stroke="midnightblue" d="M428.601,-384.919C444.734,-374.702 463.1,-363.07 478.202,-353.506"/>
<polygon fill="midnightblue" stroke="midnightblue" points="426.478,-382.121 419.903,-390.428 430.224,-388.034 426.478,-382.121"/>
</g>
<!-- Node24 -->
<g id="node18" class="node"><title>Node24</title>
<g id="a_node18"><a xlink:href="PyMatrix_8hpp.html" target="_top" xlink:title=" ">
<polygon fill="white" stroke="black" points="18,-234.5 18,-275.5 148,-275.5 148,-234.5 18,-234.5"/>
<text text-anchor="start" x="26" y="-263.5" font-family="Helvetica,sans-Serif" font-size="10.00">/home/pieter/GitHub</text>
<text text-anchor="start" x="26" y="-252.5" font-family="Helvetica,sans-Serif" font-size="10.00">/EAGLE/py&#45;matrix/include</text>
<text text-anchor="middle" x="83" y="-241.5" font-family="Helvetica,sans-Serif" font-size="10.00">/PyMatrix.hpp</text>
</a>
</g>
</g>
<!-- Node11&#45;&gt;Node24 -->
<g id="edge23" class="edge"><title>Node11&#45;&gt;Node24</title>
<path fill="none" stroke="midnightblue" d="M322.325,-386.507C302.298,-377.871 280.909,-366.97 263,-354 242.612,-339.235 245.698,-326.328 225,-312 201.903,-296.012 173.588,-283.663 148.336,-274.68"/>
<polygon fill="midnightblue" stroke="midnightblue" points="321.142,-389.806 331.718,-390.44 323.845,-383.349 321.142,-389.806"/>
</g>
<!-- Node13 -->
<g id="node7" class="node"><title>Node13</title>
<g id="a_node7"><a xlink:href="Grid-Finder_8module_8hpp.html" target="_top" xlink:title=" ">
<polygon fill="white" stroke="black" points="85,-78.5 85,-119.5 267,-119.5 267,-78.5 85,-78.5"/>
<text text-anchor="start" x="93" y="-107.5" font-family="Helvetica,sans-Serif" font-size="10.00">/home/pieter/GitHub</text>
<text text-anchor="start" x="93" y="-96.5" font-family="Helvetica,sans-Serif" font-size="10.00">/GridFinder/src/py&#45;grid</text>
<text text-anchor="middle" x="176" y="-85.5" font-family="Helvetica,sans-Serif" font-size="10.00">&#45;finder/include/Grid&#45;Finder.module.hpp</text>
</a>
</g>
</g>
<!-- Node12&#45;&gt;Node13 -->
<g id="edge6" class="edge"><title>Node12&#45;&gt;Node13</title>
<path fill="none" stroke="midnightblue" d="M257.739,-150.919C241.337,-140.702 222.665,-129.07 207.312,-119.506"/>
<polygon fill="midnightblue" stroke="midnightblue" points="256.244,-154.111 266.582,-156.428 259.945,-148.17 256.244,-154.111"/>
</g>
<!-- Node14 -->
<g id="node8" class="node"><title>Node14</title>
<g id="a_node8"><a xlink:href="Grid-Finder_8module_8cpp.html" target="_top" xlink:title=" ">
<polygon fill="white" stroke="black" points="94,-0.5 94,-41.5 258,-41.5 258,-0.5 94,-0.5"/>
<text text-anchor="start" x="102" y="-29.5" font-family="Helvetica,sans-Serif" font-size="10.00">/home/pieter/GitHub</text>
<text text-anchor="start" x="102" y="-18.5" font-family="Helvetica,sans-Serif" font-size="10.00">/GridFinder/src/py&#45;grid</text>
<text text-anchor="middle" x="176" y="-7.5" font-family="Helvetica,sans-Serif" font-size="10.00">&#45;finder/src/Grid&#45;Finder.module.cpp</text>
</a>
</g>
</g>
<!-- Node13&#45;&gt;Node14 -->
<g id="edge7" class="edge"><title>Node13&#45;&gt;Node14</title>
<path fill="none" stroke="midnightblue" d="M176,-68.2965C176,-59.3009 176,-49.6532 176,-41.5056"/>
<polygon fill="midnightblue" stroke="midnightblue" points="172.5,-68.4281 176,-78.4281 179.5,-68.4281 172.5,-68.4281"/>
</g>
<!-- Node15&#45;&gt;Node12 -->
<g id="edge9" class="edge"><title>Node15&#45;&gt;Node12</title>
<path fill="none" stroke="midnightblue" d="M264.4,-307.221C251.474,-299.266 239.598,-289.028 232,-276 222.596,-259.875 224.158,-250.939 232,-234 238.818,-219.273 251.63,-207.005 264.165,-197.742"/>
<polygon fill="midnightblue" stroke="midnightblue" points="263.051,-310.479 273.476,-312.369 266.504,-304.391 263.051,-310.479"/>
</g>
<!-- Node15&#45;&gt;Node13 -->
<g id="edge12" class="edge"><title>Node15&#45;&gt;Node13</title>
<path fill="none" stroke="midnightblue" d="M263.231,-308.27C247.837,-300.118 232.848,-289.527 222,-276 184.459,-229.188 177.304,-154.914 176.11,-119.728"/>
<polygon fill="midnightblue" stroke="midnightblue" points="261.801,-311.467 272.313,-312.791 264.921,-305.201 261.801,-311.467"/>
</g>
<!-- Node16 -->
<g id="node10" class="node"><title>Node16</title>
<g id="a_node10"><a xlink:href="HelperStructs_8hpp.html" target="_top" xlink:title=" ">
<polygon fill="white" stroke="black" points="241.5,-234.5 241.5,-275.5 400.5,-275.5 400.5,-234.5 241.5,-234.5"/>
<text text-anchor="start" x="249.5" y="-263.5" font-family="Helvetica,sans-Serif" font-size="10.00">/home/pieter/GitHub</text>
<text text-anchor="start" x="249.5" y="-252.5" font-family="Helvetica,sans-Serif" font-size="10.00">/GridFinder/src/grid</text>
<text text-anchor="middle" x="321" y="-241.5" font-family="Helvetica,sans-Serif" font-size="10.00">&#45;finder/include/HelperStructs.hpp</text>
</a>
</g>
</g>
<!-- Node15&#45;&gt;Node16 -->
<g id="edge10" class="edge"><title>Node15&#45;&gt;Node16</title>
<path fill="none" stroke="midnightblue" d="M327.092,-302.297C325.908,-293.301 324.639,-283.653 323.567,-275.506"/>
<polygon fill="midnightblue" stroke="midnightblue" points="323.65,-302.97 328.425,-312.428 330.59,-302.057 323.65,-302.97"/>
</g>
<!-- Node16&#45;&gt;Node12 -->
<g id="edge11" class="edge"><title>Node16&#45;&gt;Node12</title>
<path fill="none" stroke="midnightblue" d="M312.099,-224.59C309.352,-215.511 306.396,-205.742 303.903,-197.506"/>
<polygon fill="midnightblue" stroke="midnightblue" points="308.83,-225.871 315.077,-234.428 315.53,-223.843 308.83,-225.871"/>
</g>
<!-- Node17&#45;&gt;Node18 -->
<g id="edge14" class="edge"><title>Node17&#45;&gt;Node18</title>
<path fill="none" stroke="midnightblue" d="M658.606,-303.322C663.125,-294.639 667.933,-285.014 672,-276 684.008,-249.387 695.85,-217.759 703.043,-197.78"/>
<polygon fill="midnightblue" stroke="midnightblue" points="655.44,-301.823 653.864,-312.3 661.629,-305.092 655.44,-301.823"/>
</g>
<!-- Node21 -->
<g id="node15" class="node"><title>Node21</title>
<g id="a_node15"><a xlink:href="LeastSquares_8hpp.html" target="_top" xlink:title=" ">
<polygon fill="white" stroke="black" points="547,-234.5 547,-275.5 663,-275.5 663,-234.5 547,-234.5"/>
<text text-anchor="start" x="555" y="-263.5" font-family="Helvetica,sans-Serif" font-size="10.00">/home/pieter/GitHub</text>
<text text-anchor="start" x="555" y="-252.5" font-family="Helvetica,sans-Serif" font-size="10.00">/EAGLE/matrix/include</text>
<text text-anchor="middle" x="605" y="-241.5" font-family="Helvetica,sans-Serif" font-size="10.00">/LeastSquares.hpp</text>
</a>
</g>
</g>
<!-- Node17&#45;&gt;Node21 -->
<g id="edge17" class="edge"><title>Node17&#45;&gt;Node21</title>
<path fill="none" stroke="midnightblue" d="M628.733,-303.466C624.071,-294.143 619.004,-284.007 614.753,-275.506"/>
<polygon fill="midnightblue" stroke="midnightblue" points="625.611,-305.049 633.214,-312.428 631.872,-301.919 625.611,-305.049"/>
</g>
<!-- Node19 -->
<g id="node13" class="node"><title>Node19</title>
<g id="a_node13"><a xlink:href="DLQE_8hpp.html" target="_top" xlink:title=" ">
<polygon fill="white" stroke="black" points="719,-78.5 719,-119.5 835,-119.5 835,-78.5 719,-78.5"/>
<text text-anchor="start" x="727" y="-107.5" font-family="Helvetica,sans-Serif" font-size="10.00">/home/pieter/GitHub</text>
<text text-anchor="start" x="727" y="-96.5" font-family="Helvetica,sans-Serif" font-size="10.00">/EAGLE/matrix/include</text>
<text text-anchor="middle" x="777" y="-85.5" font-family="Helvetica,sans-Serif" font-size="10.00">/DLQE.hpp</text>
</a>
</g>
</g>
<!-- Node18&#45;&gt;Node19 -->
<g id="edge15" class="edge"><title>Node18&#45;&gt;Node19</title>
<path fill="none" stroke="midnightblue" d="M733.877,-148.916C742.44,-139.203 751.919,-128.45 759.804,-119.506"/>
<polygon fill="midnightblue" stroke="midnightblue" points="731.242,-146.612 727.254,-156.428 736.493,-151.241 731.242,-146.612"/>
</g>
<!-- Node20 -->
<g id="node14" class="node"><title>Node20</title>
<g id="a_node14"><a xlink:href="DLQI_8hpp.html" target="_top" xlink:title=" ">
<polygon fill="white" stroke="black" points="585,-78.5 585,-119.5 701,-119.5 701,-78.5 585,-78.5"/>
<text text-anchor="start" x="593" y="-107.5" font-family="Helvetica,sans-Serif" font-size="10.00">/home/pieter/GitHub</text>
<text text-anchor="start" x="593" y="-96.5" font-family="Helvetica,sans-Serif" font-size="10.00">/EAGLE/matrix/include</text>
<text text-anchor="middle" x="643" y="-85.5" font-family="Helvetica,sans-Serif" font-size="10.00">/DLQI.hpp</text>
</a>
</g>
</g>
<!-- Node18&#45;&gt;Node20 -->
<g id="edge16" class="edge"><title>Node18&#45;&gt;Node20</title>
<path fill="none" stroke="midnightblue" d="M686.123,-148.916C677.56,-139.203 668.081,-128.45 660.196,-119.506"/>
<polygon fill="midnightblue" stroke="midnightblue" points="683.507,-151.241 692.746,-156.428 688.758,-146.612 683.507,-151.241"/>
</g>
<!-- Node21&#45;&gt;Node18 -->
<g id="edge18" class="edge"><title>Node21&#45;&gt;Node18</title>
<path fill="none" stroke="midnightblue" d="M640.437,-228.35C654.361,-218.272 670.082,-206.893 683.052,-197.506"/>
<polygon fill="midnightblue" stroke="midnightblue" points="638.089,-225.729 632.04,-234.428 642.193,-231.4 638.089,-225.729"/>
</g>
<!-- Node22 -->
<g id="node16" class="node"><title>Node22</title>
<g id="a_node16"><a xlink:href="LQR_8hpp.html" target="_top" xlink:title=" ">
<polygon fill="white" stroke="black" points="518,-156.5 518,-197.5 634,-197.5 634,-156.5 518,-156.5"/>
<text text-anchor="start" x="526" y="-185.5" font-family="Helvetica,sans-Serif" font-size="10.00">/home/pieter/GitHub</text>
<text text-anchor="start" x="526" y="-174.5" font-family="Helvetica,sans-Serif" font-size="10.00">/EAGLE/matrix/include</text>
<text text-anchor="middle" x="576" y="-163.5" font-family="Helvetica,sans-Serif" font-size="10.00">/LQR.hpp</text>
</a>
</g>
</g>
<!-- Node21&#45;&gt;Node22 -->
<g id="edge19" class="edge"><title>Node21&#45;&gt;Node22</title>
<path fill="none" stroke="midnightblue" d="M593.889,-224.882C590.394,-215.721 586.619,-205.83 583.443,-197.506"/>
<polygon fill="midnightblue" stroke="midnightblue" points="590.697,-226.333 597.532,-234.428 597.237,-223.837 590.697,-226.333"/>
</g>
<!-- Node24&#45;&gt;Node13 -->
<g id="edge24" class="edge"><title>Node24&#45;&gt;Node13</title>
<path fill="none" stroke="midnightblue" d="M100.172,-225.565C118.722,-194.847 147.795,-146.705 164.023,-119.832"/>
<polygon fill="midnightblue" stroke="midnightblue" points="96.952,-224.126 94.7785,-234.496 102.944,-227.745 96.952,-224.126"/>
</g>
</g>
</svg>
