<?xml version="1.0" encoding="UTF-8" standalone="no"?>
<!DOCTYPE svg PUBLIC "-//W3C//DTD SVG 1.1//EN"
 "http://www.w3.org/Graphics/SVG/1.1/DTD/svg11.dtd">
<!-- Generated by graphviz version 2.38.0 (20140413.2041)
 -->
<!-- Title: operator* Pages: 1 -->
<svg width="240pt" height="66pt"
 viewBox="0.00 0.00 240.00 66.00" xmlns="http://www.w3.org/2000/svg" xmlns:xlink="http://www.w3.org/1999/xlink">
<g id="graph0" class="graph" transform="scale(1 1) rotate(0) translate(4 62)">
<title>operator*</title>
<polygon fill="white" stroke="none" points="-4,4 -4,-62 236,-62 236,4 -4,4"/>
<!-- Node108 -->
<g id="node1" class="node"><title>Node108</title>
<g id="a_node1"><a xlink:title=" ">
<polygon fill="#bfbfbf" stroke="black" points="0,-19.5 0,-38.5 56,-38.5 56,-19.5 0,-19.5"/>
<text text-anchor="middle" x="28" y="-26.5" font-family="Helvetica,sans-Serif" font-size="10.00">operator*</text>
</a>
</g>
</g>
<!-- Node109 -->
<g id="node2" class="node"><title>Node109</title>
<g id="a_node2"><a xlink:href="Array_8hpp.html#a8210ee35a21cf8114e4f40920a6e0abf" target="_top" xlink:title=" ">
<polygon fill="white" stroke="black" points="92,-19.5 92,-38.5 127,-38.5 127,-19.5 92,-19.5"/>
<text text-anchor="middle" x="109.5" y="-26.5" font-family="Helvetica,sans-Serif" font-size="10.00">sum</text>
</a>
</g>
</g>
<!-- Node108&#45;&gt;Node109 -->
<g id="edge1" class="edge"><title>Node108&#45;&gt;Node109</title>
<path fill="none" stroke="midnightblue" d="M56.3594,-29C64.6041,-29 73.639,-29 81.8378,-29"/>
<polygon fill="midnightblue" stroke="midnightblue" points="81.9974,-32.5001 91.9974,-29 81.9974,-25.5001 81.9974,-32.5001"/>
</g>
<!-- Node110 -->
<g id="node3" class="node"><title>Node110</title>
<g id="a_node3"><a xlink:href="structArray.html#a9e1b59b422182878c7909c6ca7bfa430" target="_top" xlink:title=" ">
<polygon fill="white" stroke="black" points="163,-38.5 163,-57.5 232,-57.5 232,-38.5 163,-38.5"/>
<text text-anchor="middle" x="197.5" y="-45.5" font-family="Helvetica,sans-Serif" font-size="10.00">Array::begin</text>
</a>
</g>
</g>
<!-- Node109&#45;&gt;Node110 -->
<g id="edge2" class="edge"><title>Node109&#45;&gt;Node110</title>
<path fill="none" stroke="midnightblue" d="M127.082,-32.6634C134.537,-34.3106 143.723,-36.34 152.943,-38.3769"/>
<polygon fill="midnightblue" stroke="midnightblue" points="152.361,-41.8327 162.881,-40.5725 153.871,-34.9975 152.361,-41.8327"/>
</g>
<!-- Node111 -->
<g id="node4" class="node"><title>Node111</title>
<g id="a_node4"><a xlink:href="structArray.html#ab2762fef4f8caa072636dde951d90702" target="_top" xlink:title=" ">
<polygon fill="white" stroke="black" points="166.5,-0.5 166.5,-19.5 228.5,-19.5 228.5,-0.5 166.5,-0.5"/>
<text text-anchor="middle" x="197.5" y="-7.5" font-family="Helvetica,sans-Serif" font-size="10.00">Array::end</text>
</a>
</g>
</g>
<!-- Node109&#45;&gt;Node111 -->
<g id="edge3" class="edge"><title>Node109&#45;&gt;Node111</title>
<path fill="none" stroke="midnightblue" d="M127.082,-25.3366C135.515,-23.4734 146.162,-21.1212 156.568,-18.8222"/>
<polygon fill="midnightblue" stroke="midnightblue" points="157.382,-22.2269 166.391,-16.6519 155.872,-15.3917 157.382,-22.2269"/>
</g>
</g>
</svg>
