<?xml version="1.0" encoding="UTF-8" standalone="no"?>
<!DOCTYPE svg PUBLIC "-//W3C//DTD SVG 1.1//EN"
 "http://www.w3.org/Graphics/SVG/1.1/DTD/svg11.dtd">
<!-- Generated by graphviz version 2.38.0 (20140413.2041)
 -->
<!-- Title: /home/pieter/GitHub/EAGLE/matrix/include/Matrix.hpp Pages: 1 -->
<svg width="838pt" height="440pt"
 viewBox="0.00 0.00 838.00 440.00" xmlns="http://www.w3.org/2000/svg" xmlns:xlink="http://www.w3.org/1999/xlink">
<g id="graph0" class="graph" transform="scale(1 1) rotate(0) translate(4 436)">
<title>/home/pieter/GitHub/EAGLE/matrix/include/Matrix.hpp</title>
<polygon fill="white" stroke="none" points="-4,4 -4,-436 834,-436 834,4 -4,4"/>
<!-- Node10 -->
<g id="node1" class="node"><title>Node10</title>
<g id="a_node1"><a xlink:title=" ">
<polygon fill="#bfbfbf" stroke="black" points="360,-390.5 360,-431.5 476,-431.5 476,-390.5 360,-390.5"/>
<text text-anchor="start" x="368" y="-419.5" font-family="Helvetica,sans-Serif" font-size="10.00">/home/pieter/GitHub</text>
<text text-anchor="start" x="368" y="-408.5" font-family="Helvetica,sans-Serif" font-size="10.00">/EAGLE/matrix/include</text>
<text text-anchor="middle" x="418" y="-397.5" font-family="Helvetica,sans-Serif" font-size="10.00">/Matrix.hpp</text>
</a>
</g>
</g>
<!-- Node11 -->
<g id="node2" class="node"><title>Node11</title>
<g id="a_node2"><a xlink:href="GridFinder_8hpp.html" target="_top" xlink:title=" ">
<polygon fill="white" stroke="black" points="0,-156.5 0,-197.5 144,-197.5 144,-156.5 0,-156.5"/>
<text text-anchor="start" x="8" y="-185.5" font-family="Helvetica,sans-Serif" font-size="10.00">/home/pieter/GitHub</text>
<text text-anchor="start" x="8" y="-174.5" font-family="Helvetica,sans-Serif" font-size="10.00">/GridFinder/src/grid</text>
<text text-anchor="middle" x="72" y="-163.5" font-family="Helvetica,sans-Serif" font-size="10.00">&#45;finder/include/GridFinder.hpp</text>
</a>
</g>
</g>
<!-- Node10&#45;&gt;Node11 -->
<g id="edge1" class="edge"><title>Node10&#45;&gt;Node11</title>
<path fill="none" stroke="midnightblue" d="M349.769,-408.334C285.197,-404.332 187.094,-391.839 111,-354 65.0897,-331.171 46.6333,-322.938 26,-276 18.4882,-258.911 19.7075,-251.574 26,-234 30.9199,-220.259 40.826,-207.473 50.1893,-197.598"/>
<polygon fill="midnightblue" stroke="midnightblue" points="349.654,-411.833 359.837,-408.906 350.051,-404.844 349.654,-411.833"/>
</g>
<!-- Node14 -->
<g id="node5" class="node"><title>Node14</title>
<g id="a_node5"><a xlink:href="Line_8hpp.html" target="_top" xlink:title=" ">
<polygon fill="white" stroke="black" points="120.5,-312.5 120.5,-353.5 237.5,-353.5 237.5,-312.5 120.5,-312.5"/>
<text text-anchor="start" x="128.5" y="-341.5" font-family="Helvetica,sans-Serif" font-size="10.00">/home/pieter/GitHub</text>
<text text-anchor="start" x="128.5" y="-330.5" font-family="Helvetica,sans-Serif" font-size="10.00">/GridFinder/src/grid</text>
<text text-anchor="middle" x="179" y="-319.5" font-family="Helvetica,sans-Serif" font-size="10.00">&#45;finder/include/Line.hpp</text>
</a>
</g>
</g>
<!-- Node10&#45;&gt;Node14 -->
<g id="edge4" class="edge"><title>Node10&#45;&gt;Node14</title>
<path fill="none" stroke="midnightblue" d="M350.067,-388.398C314.67,-377.142 271.804,-363.511 237.837,-352.71"/>
<polygon fill="midnightblue" stroke="midnightblue" points="349.249,-391.81 359.84,-391.505 351.371,-385.14 349.249,-391.81"/>
</g>
<!-- Node16 -->
<g id="node7" class="node"><title>Node16</title>
<g id="a_node7"><a xlink:href="HouseholderQR_8hpp.html" target="_top" xlink:title=" ">
<polygon fill="white" stroke="black" points="446,-312.5 446,-353.5 562,-353.5 562,-312.5 446,-312.5"/>
<text text-anchor="start" x="454" y="-341.5" font-family="Helvetica,sans-Serif" font-size="10.00">/home/pieter/GitHub</text>
<text text-anchor="start" x="454" y="-330.5" font-family="Helvetica,sans-Serif" font-size="10.00">/EAGLE/matrix/include</text>
<text text-anchor="middle" x="504" y="-319.5" font-family="Helvetica,sans-Serif" font-size="10.00">/HouseholderQR.hpp</text>
</a>
</g>
</g>
<!-- Node10&#45;&gt;Node16 -->
<g id="edge9" class="edge"><title>Node10&#45;&gt;Node16</title>
<path fill="none" stroke="midnightblue" d="M447.672,-383.779C458.914,-373.843 471.506,-362.716 481.928,-353.506"/>
<polygon fill="midnightblue" stroke="midnightblue" points="445.323,-381.183 440.147,-390.428 449.958,-386.429 445.323,-381.183"/>
</g>
<!-- Node17 -->
<g id="node8" class="node"><title>Node17</title>
<g id="a_node8"><a xlink:href="DLQR_8hpp.html" target="_top" xlink:title=" ">
<polygon fill="white" stroke="black" points="379,-156.5 379,-197.5 495,-197.5 495,-156.5 379,-156.5"/>
<text text-anchor="start" x="387" y="-185.5" font-family="Helvetica,sans-Serif" font-size="10.00">/home/pieter/GitHub</text>
<text text-anchor="start" x="387" y="-174.5" font-family="Helvetica,sans-Serif" font-size="10.00">/EAGLE/matrix/include</text>
<text text-anchor="middle" x="437" y="-163.5" font-family="Helvetica,sans-Serif" font-size="10.00">/DLQR.hpp</text>
</a>
</g>
</g>
<!-- Node10&#45;&gt;Node17 -->
<g id="edge16" class="edge"><title>Node10&#45;&gt;Node17</title>
<path fill="none" stroke="midnightblue" d="M420.448,-380.111C424.393,-331.943 432.05,-238.436 435.384,-197.73"/>
<polygon fill="midnightblue" stroke="midnightblue" points="416.948,-379.967 419.62,-390.22 423.925,-380.539 416.948,-379.967"/>
</g>
<!-- Node22 -->
<g id="node13" class="node"><title>Node22</title>
<g id="a_node13"><a xlink:href="MatrixHelpers_8hpp.html" target="_top" xlink:title=" ">
<polygon fill="white" stroke="black" points="580,-312.5 580,-353.5 696,-353.5 696,-312.5 580,-312.5"/>
<text text-anchor="start" x="588" y="-341.5" font-family="Helvetica,sans-Serif" font-size="10.00">/home/pieter/GitHub</text>
<text text-anchor="start" x="588" y="-330.5" font-family="Helvetica,sans-Serif" font-size="10.00">/EAGLE/matrix/include</text>
<text text-anchor="middle" x="638" y="-319.5" font-family="Helvetica,sans-Serif" font-size="10.00">/MatrixHelpers.hpp</text>
</a>
</g>
</g>
<!-- Node10&#45;&gt;Node22 -->
<g id="edge17" class="edge"><title>Node10&#45;&gt;Node22</title>
<path fill="none" stroke="midnightblue" d="M484.502,-387.026C515.473,-376.328 551.927,-363.734 581.537,-353.506"/>
<polygon fill="midnightblue" stroke="midnightblue" points="482.965,-383.855 474.655,-390.428 485.25,-390.471 482.965,-383.855"/>
</g>
<!-- Node23 -->
<g id="node14" class="node"><title>Node23</title>
<g id="a_node14"><a xlink:href="Randn_8hpp.html" target="_top" xlink:title=" ">
<polygon fill="white" stroke="black" points="714,-312.5 714,-353.5 830,-353.5 830,-312.5 714,-312.5"/>
<text text-anchor="start" x="722" y="-341.5" font-family="Helvetica,sans-Serif" font-size="10.00">/home/pieter/GitHub</text>
<text text-anchor="start" x="722" y="-330.5" font-family="Helvetica,sans-Serif" font-size="10.00">/EAGLE/matrix/include</text>
<text text-anchor="middle" x="772" y="-319.5" font-family="Helvetica,sans-Serif" font-size="10.00">/Randn.hpp</text>
</a>
</g>
</g>
<!-- Node10&#45;&gt;Node23 -->
<g id="edge18" class="edge"><title>Node10&#45;&gt;Node23</title>
<path fill="none" stroke="midnightblue" d="M486.294,-398.606C544.701,-388.401 630.829,-372.26 705,-354 707.947,-353.275 710.957,-352.5 713.99,-351.693"/>
<polygon fill="midnightblue" stroke="midnightblue" points="485.336,-395.22 476.082,-400.379 486.533,-402.116 485.336,-395.22"/>
</g>
<!-- Node24 -->
<g id="node15" class="node"><title>Node24</title>
<g id="a_node15"><a xlink:href="PyMatrix_8hpp.html" target="_top" xlink:title=" ">
<polygon fill="white" stroke="black" points="260,-234.5 260,-275.5 390,-275.5 390,-234.5 260,-234.5"/>
<text text-anchor="start" x="268" y="-263.5" font-family="Helvetica,sans-Serif" font-size="10.00">/home/pieter/GitHub</text>
<text text-anchor="start" x="268" y="-252.5" font-family="Helvetica,sans-Serif" font-size="10.00">/EAGLE/py&#45;matrix/include</text>
<text text-anchor="middle" x="325" y="-241.5" font-family="Helvetica,sans-Serif" font-size="10.00">/PyMatrix.hpp</text>
</a>
</g>
</g>
<!-- Node10&#45;&gt;Node24 -->
<g id="edge19" class="edge"><title>Node10&#45;&gt;Node24</title>
<path fill="none" stroke="midnightblue" d="M400.828,-381.565C382.278,-350.847 353.205,-302.705 336.977,-275.832"/>
<polygon fill="midnightblue" stroke="midnightblue" points="398.056,-383.745 406.221,-390.496 404.048,-380.126 398.056,-383.745"/>
</g>
<!-- Node12 -->
<g id="node3" class="node"><title>Node12</title>
<g id="a_node3"><a xlink:href="Grid-Finder_8module_8hpp.html" target="_top" xlink:title=" ">
<polygon fill="white" stroke="black" points="141,-78.5 141,-119.5 323,-119.5 323,-78.5 141,-78.5"/>
<text text-anchor="start" x="149" y="-107.5" font-family="Helvetica,sans-Serif" font-size="10.00">/home/pieter/GitHub</text>
<text text-anchor="start" x="149" y="-96.5" font-family="Helvetica,sans-Serif" font-size="10.00">/GridFinder/src/py&#45;grid</text>
<text text-anchor="middle" x="232" y="-85.5" font-family="Helvetica,sans-Serif" font-size="10.00">&#45;finder/include/Grid&#45;Finder.module.hpp</text>
</a>
</g>
</g>
<!-- Node11&#45;&gt;Node12 -->
<g id="edge2" class="edge"><title>Node11&#45;&gt;Node12</title>
<path fill="none" stroke="midnightblue" d="M122.424,-152.049C144.492,-141.566 170.054,-129.424 190.936,-119.506"/>
<polygon fill="midnightblue" stroke="midnightblue" points="120.735,-148.976 113.204,-156.428 123.738,-155.299 120.735,-148.976"/>
</g>
<!-- Node13 -->
<g id="node4" class="node"><title>Node13</title>
<g id="a_node4"><a xlink:href="Grid-Finder_8module_8cpp.html" target="_top" xlink:title=" ">
<polygon fill="white" stroke="black" points="150,-0.5 150,-41.5 314,-41.5 314,-0.5 150,-0.5"/>
<text text-anchor="start" x="158" y="-29.5" font-family="Helvetica,sans-Serif" font-size="10.00">/home/pieter/GitHub</text>
<text text-anchor="start" x="158" y="-18.5" font-family="Helvetica,sans-Serif" font-size="10.00">/GridFinder/src/py&#45;grid</text>
<text text-anchor="middle" x="232" y="-7.5" font-family="Helvetica,sans-Serif" font-size="10.00">&#45;finder/src/Grid&#45;Finder.module.cpp</text>
</a>
</g>
</g>
<!-- Node12&#45;&gt;Node13 -->
<g id="edge3" class="edge"><title>Node12&#45;&gt;Node13</title>
<path fill="none" stroke="midnightblue" d="M232,-68.2965C232,-59.3009 232,-49.6532 232,-41.5056"/>
<polygon fill="midnightblue" stroke="midnightblue" points="228.5,-68.4281 232,-78.4281 235.5,-68.4281 228.5,-68.4281"/>
</g>
<!-- Node14&#45;&gt;Node11 -->
<g id="edge5" class="edge"><title>Node14&#45;&gt;Node11</title>
<path fill="none" stroke="midnightblue" d="M110.67,-322.338C82.6805,-314.643 52.9377,-300.823 36,-276 19.3478,-251.595 38.4959,-218.538 54.6059,-197.741"/>
<polygon fill="midnightblue" stroke="midnightblue" points="109.92,-325.758 120.473,-324.812 111.633,-318.971 109.92,-325.758"/>
</g>
<!-- Node14&#45;&gt;Node12 -->
<g id="edge8" class="edge"><title>Node14&#45;&gt;Node12</title>
<path fill="none" stroke="midnightblue" d="M199.372,-303.857C204.646,-295.291 209.75,-285.594 213,-276 231.438,-221.567 233.077,-152.746 232.622,-119.602"/>
<polygon fill="midnightblue" stroke="midnightblue" points="196.386,-302.028 193.884,-312.324 202.26,-305.836 196.386,-302.028"/>
</g>
<!-- Node15 -->
<g id="node6" class="node"><title>Node15</title>
<g id="a_node6"><a xlink:href="HelperStructs_8hpp.html" target="_top" xlink:title=" ">
<polygon fill="white" stroke="black" points="45.5,-234.5 45.5,-275.5 204.5,-275.5 204.5,-234.5 45.5,-234.5"/>
<text text-anchor="start" x="53.5" y="-263.5" font-family="Helvetica,sans-Serif" font-size="10.00">/home/pieter/GitHub</text>
<text text-anchor="start" x="53.5" y="-252.5" font-family="Helvetica,sans-Serif" font-size="10.00">/GridFinder/src/grid</text>
<text text-anchor="middle" x="125" y="-241.5" font-family="Helvetica,sans-Serif" font-size="10.00">&#45;finder/include/HelperStructs.hpp</text>
</a>
</g>
</g>
<!-- Node14&#45;&gt;Node15 -->
<g id="edge6" class="edge"><title>Node14&#45;&gt;Node15</title>
<path fill="none" stroke="midnightblue" d="M159.139,-304.048C152.402,-294.566 145.026,-284.185 138.859,-275.506"/>
<polygon fill="midnightblue" stroke="midnightblue" points="156.448,-306.304 165.094,-312.428 162.155,-302.249 156.448,-306.304"/>
</g>
<!-- Node15&#45;&gt;Node11 -->
<g id="edge7" class="edge"><title>Node15&#45;&gt;Node11</title>
<path fill="none" stroke="midnightblue" d="M105.507,-226.048C98.8945,-216.566 91.655,-206.185 85.6026,-197.506"/>
<polygon fill="midnightblue" stroke="midnightblue" points="102.76,-228.228 111.351,-234.428 108.502,-224.224 102.76,-228.228"/>
</g>
<!-- Node16&#45;&gt;Node17 -->
<g id="edge10" class="edge"><title>Node16&#45;&gt;Node17</title>
<path fill="none" stroke="midnightblue" d="M488.394,-303.322C483.875,-294.639 479.067,-285.014 475,-276 462.992,-249.387 451.15,-217.759 443.957,-197.78"/>
<polygon fill="midnightblue" stroke="midnightblue" points="485.371,-305.092 493.136,-312.3 491.56,-301.823 485.371,-305.092"/>
</g>
<!-- Node20 -->
<g id="node11" class="node"><title>Node20</title>
<g id="a_node11"><a xlink:href="LeastSquares_8hpp.html" target="_top" xlink:title=" ">
<polygon fill="white" stroke="black" points="484,-234.5 484,-275.5 600,-275.5 600,-234.5 484,-234.5"/>
<text text-anchor="start" x="492" y="-263.5" font-family="Helvetica,sans-Serif" font-size="10.00">/home/pieter/GitHub</text>
<text text-anchor="start" x="492" y="-252.5" font-family="Helvetica,sans-Serif" font-size="10.00">/EAGLE/matrix/include</text>
<text text-anchor="middle" x="542" y="-241.5" font-family="Helvetica,sans-Serif" font-size="10.00">/LeastSquares.hpp</text>
</a>
</g>
</g>
<!-- Node16&#45;&gt;Node20 -->
<g id="edge13" class="edge"><title>Node16&#45;&gt;Node20</title>
<path fill="none" stroke="midnightblue" d="M518.267,-303.466C522.929,-294.143 527.996,-284.007 532.247,-275.506"/>
<polygon fill="midnightblue" stroke="midnightblue" points="515.128,-301.919 513.786,-312.428 521.389,-305.049 515.128,-301.919"/>
</g>
<!-- Node18 -->
<g id="node9" class="node"><title>Node18</title>
<g id="a_node9"><a xlink:href="DLQE_8hpp.html" target="_top" xlink:title=" ">
<polygon fill="white" stroke="black" points="350,-78.5 350,-119.5 466,-119.5 466,-78.5 350,-78.5"/>
<text text-anchor="start" x="358" y="-107.5" font-family="Helvetica,sans-Serif" font-size="10.00">/home/pieter/GitHub</text>
<text text-anchor="start" x="358" y="-96.5" font-family="Helvetica,sans-Serif" font-size="10.00">/EAGLE/matrix/include</text>
<text text-anchor="middle" x="408" y="-85.5" font-family="Helvetica,sans-Serif" font-size="10.00">/DLQE.hpp</text>
</a>
</g>
</g>
<!-- Node17&#45;&gt;Node18 -->
<g id="edge11" class="edge"><title>Node17&#45;&gt;Node18</title>
<path fill="none" stroke="midnightblue" d="M425.889,-146.882C422.394,-137.721 418.619,-127.83 415.443,-119.506"/>
<polygon fill="midnightblue" stroke="midnightblue" points="422.697,-148.333 429.532,-156.428 429.237,-145.837 422.697,-148.333"/>
</g>
<!-- Node19 -->
<g id="node10" class="node"><title>Node19</title>
<g id="a_node10"><a xlink:href="DLQI_8hpp.html" target="_top" xlink:title=" ">
<polygon fill="white" stroke="black" points="484,-78.5 484,-119.5 600,-119.5 600,-78.5 484,-78.5"/>
<text text-anchor="start" x="492" y="-107.5" font-family="Helvetica,sans-Serif" font-size="10.00">/home/pieter/GitHub</text>
<text text-anchor="start" x="492" y="-96.5" font-family="Helvetica,sans-Serif" font-size="10.00">/EAGLE/matrix/include</text>
<text text-anchor="middle" x="542" y="-85.5" font-family="Helvetica,sans-Serif" font-size="10.00">/DLQI.hpp</text>
</a>
</g>
</g>
<!-- Node17&#45;&gt;Node19 -->
<g id="edge12" class="edge"><title>Node17&#45;&gt;Node19</title>
<path fill="none" stroke="midnightblue" d="M472.437,-150.35C486.361,-140.272 502.082,-128.893 515.052,-119.506"/>
<polygon fill="midnightblue" stroke="midnightblue" points="470.089,-147.729 464.04,-156.428 474.193,-153.4 470.089,-147.729"/>
</g>
<!-- Node20&#45;&gt;Node17 -->
<g id="edge14" class="edge"><title>Node20&#45;&gt;Node17</title>
<path fill="none" stroke="midnightblue" d="M506.563,-228.35C492.639,-218.272 476.918,-206.893 463.948,-197.506"/>
<polygon fill="midnightblue" stroke="midnightblue" points="504.807,-231.4 514.96,-234.428 508.911,-225.729 504.807,-231.4"/>
</g>
<!-- Node21 -->
<g id="node12" class="node"><title>Node21</title>
<g id="a_node12"><a xlink:href="LQR_8hpp.html" target="_top" xlink:title=" ">
<polygon fill="white" stroke="black" points="513,-156.5 513,-197.5 629,-197.5 629,-156.5 513,-156.5"/>
<text text-anchor="start" x="521" y="-185.5" font-family="Helvetica,sans-Serif" font-size="10.00">/home/pieter/GitHub</text>
<text text-anchor="start" x="521" y="-174.5" font-family="Helvetica,sans-Serif" font-size="10.00">/EAGLE/matrix/include</text>
<text text-anchor="middle" x="571" y="-163.5" font-family="Helvetica,sans-Serif" font-size="10.00">/LQR.hpp</text>
</a>
</g>
</g>
<!-- Node20&#45;&gt;Node21 -->
<g id="edge15" class="edge"><title>Node20&#45;&gt;Node21</title>
<path fill="none" stroke="midnightblue" d="M553.111,-224.882C556.606,-215.721 560.381,-205.83 563.557,-197.506"/>
<polygon fill="midnightblue" stroke="midnightblue" points="549.763,-223.837 549.468,-234.428 556.303,-226.333 549.763,-223.837"/>
</g>
<!-- Node24&#45;&gt;Node12 -->
<g id="edge20" class="edge"><title>Node24&#45;&gt;Node12</title>
<path fill="none" stroke="midnightblue" d="M307.828,-225.565C289.278,-194.847 260.205,-146.705 243.977,-119.832"/>
<polygon fill="midnightblue" stroke="midnightblue" points="305.056,-227.745 313.221,-234.496 311.048,-224.126 305.056,-227.745"/>
</g>
</g>
</svg>
