<?xml version="1.0" encoding="UTF-8" standalone="no"?>
<!DOCTYPE svg PUBLIC "-//W3C//DTD SVG 1.1//EN"
 "http://www.w3.org/Graphics/SVG/1.1/DTD/svg11.dtd">
<!-- Generated by graphviz version 2.38.0 (20140413.2041)
 -->
<!-- Title: FirstLineEstimate Pages: 1 -->
<svg width="225pt" height="507pt"
 viewBox="0.00 0.00 225.00 507.00" xmlns="http://www.w3.org/2000/svg" xmlns:xlink="http://www.w3.org/1999/xlink">
<g id="graph0" class="graph" transform="scale(1 1) rotate(0) translate(4 503)">
<title>FirstLineEstimate</title>
<polygon fill="white" stroke="none" points="-4,4 -4,-503 221,-503 221,4 -4,4"/>
<!-- Node1 -->
<g id="node1" class="node"><title>Node1</title>
<g id="a_node1"><a xlink:title=" ">
<polygon fill="#bfbfbf" stroke="black" points="35,-0.5 35,-57.5 128,-57.5 128,-0.5 35,-0.5"/>
<text text-anchor="middle" x="81.5" y="-45.5" font-family="Helvetica,sans-Serif" font-size="10.00">FirstLineEstimate</text>
<polyline fill="none" stroke="black" points="35,-38.5 128,-38.5 "/>
<text text-anchor="start" x="43" y="-26.5" font-family="Helvetica,sans-Serif" font-size="10.00">+ width</text>
<polyline fill="none" stroke="black" points="35,-19.5 128,-19.5 "/>
<text text-anchor="middle" x="81.5" y="-7.5" font-family="Helvetica,sans-Serif" font-size="10.00"> </text>
</a>
</g>
</g>
<!-- Node2 -->
<g id="node2" class="node"><title>Node2</title>
<g id="a_node2"><a xlink:href="structPixel.html" target="_top" xlink:title=" ">
<polygon fill="white" stroke="black" points="-7.10543e-15,-177 -7.10543e-15,-311 79,-311 79,-177 -7.10543e-15,-177"/>
<text text-anchor="middle" x="39.5" y="-299" font-family="Helvetica,sans-Serif" font-size="10.00">Pixel</text>
<polyline fill="none" stroke="black" points="-7.10543e-15,-292 79,-292 "/>
<text text-anchor="start" x="8" y="-280" font-family="Helvetica,sans-Serif" font-size="10.00">+ x</text>
<text text-anchor="start" x="8" y="-269" font-family="Helvetica,sans-Serif" font-size="10.00">+ y</text>
<polyline fill="none" stroke="black" points="-7.10543e-15,-262 79,-262 "/>
<text text-anchor="start" x="8" y="-250" font-family="Helvetica,sans-Serif" font-size="10.00">+ Pixel()</text>
<text text-anchor="start" x="8" y="-239" font-family="Helvetica,sans-Serif" font-size="10.00">+ Pixel()</text>
<text text-anchor="start" x="8" y="-228" font-family="Helvetica,sans-Serif" font-size="10.00">+ isValid()</text>
<text text-anchor="start" x="8" y="-217" font-family="Helvetica,sans-Serif" font-size="10.00">+ operator==()</text>
<text text-anchor="start" x="8" y="-206" font-family="Helvetica,sans-Serif" font-size="10.00">+ operator!=()</text>
<text text-anchor="start" x="8" y="-195" font-family="Helvetica,sans-Serif" font-size="10.00">+ inRange()</text>
<text text-anchor="start" x="8" y="-184" font-family="Helvetica,sans-Serif" font-size="10.00">+ average()</text>
</a>
</g>
</g>
<!-- Node2&#45;&gt;Node1 -->
<g id="edge1" class="edge"><title>Node2&#45;&gt;Node1</title>
<path fill="none" stroke="#404040" d="M45.4562,-176.868C49.1448,-145.901 54.8726,-108.712 63.5,-76 64.0659,-73.8544 64.7012,-71.6726 65.3863,-69.4838"/>
<polygon fill="none" stroke="#404040" points="65.4793,-69.2155 63.6658,-62.2361 69.4109,-57.8778 71.2243,-64.8572 65.4793,-69.2155"/>
<text text-anchor="middle" x="82.5" y="-79" font-family="Helvetica,sans-Serif" font-size="10.00"> +middle</text>
</g>
<!-- Node3 -->
<g id="node3" class="node"><title>Node3</title>
<g id="a_node3"><a xlink:href="classAngle.html" target="_top" xlink:title=" ">
<polygon fill="white" stroke="black" points="96.5,-105.5 96.5,-382.5 198.5,-382.5 198.5,-105.5 96.5,-105.5"/>
<text text-anchor="middle" x="147.5" y="-370.5" font-family="Helvetica,sans-Serif" font-size="10.00">Angle&lt; 360 &gt;</text>
<polyline fill="none" stroke="black" points="96.5,-363.5 198.5,-363.5 "/>
<text text-anchor="middle" x="147.5" y="-351.5" font-family="Helvetica,sans-Serif" font-size="10.00"> </text>
<polyline fill="none" stroke="black" points="96.5,-344.5 198.5,-344.5 "/>
<text text-anchor="start" x="104.5" y="-332.5" font-family="Helvetica,sans-Serif" font-size="10.00">+ Angle()</text>
<text text-anchor="start" x="104.5" y="-321.5" font-family="Helvetica,sans-Serif" font-size="10.00">+ Angle()</text>
<text text-anchor="start" x="104.5" y="-310.5" font-family="Helvetica,sans-Serif" font-size="10.00">+ Angle()</text>
<text text-anchor="start" x="104.5" y="-299.5" font-family="Helvetica,sans-Serif" font-size="10.00">+ Angle()</text>
<text text-anchor="start" x="104.5" y="-288.5" font-family="Helvetica,sans-Serif" font-size="10.00">+ Angle()</text>
<text text-anchor="start" x="104.5" y="-277.5" font-family="Helvetica,sans-Serif" font-size="10.00">+ operator CosSin()</text>
<text text-anchor="start" x="104.5" y="-266.5" font-family="Helvetica,sans-Serif" font-size="10.00">+ operator double()</text>
<text text-anchor="start" x="104.5" y="-255.5" font-family="Helvetica,sans-Serif" font-size="10.00">+ rad()</text>
<text text-anchor="start" x="104.5" y="-244.5" font-family="Helvetica,sans-Serif" font-size="10.00">+ deg()</text>
<text text-anchor="start" x="104.5" y="-233.5" font-family="Helvetica,sans-Serif" font-size="10.00">+ getIndex()</text>
<text text-anchor="start" x="104.5" y="-222.5" font-family="Helvetica,sans-Serif" font-size="10.00">and 11 more...</text>
<text text-anchor="start" x="104.5" y="-211.5" font-family="Helvetica,sans-Serif" font-size="10.00">+ resolution()</text>
<text text-anchor="start" x="104.5" y="-200.5" font-family="Helvetica,sans-Serif" font-size="10.00">+ getIndex()</text>
<text text-anchor="start" x="104.5" y="-189.5" font-family="Helvetica,sans-Serif" font-size="10.00">+ cos()</text>
<text text-anchor="start" x="104.5" y="-178.5" font-family="Helvetica,sans-Serif" font-size="10.00">+ sin()</text>
<text text-anchor="start" x="104.5" y="-167.5" font-family="Helvetica,sans-Serif" font-size="10.00">+ normalize()</text>
<text text-anchor="start" x="104.5" y="-156.5" font-family="Helvetica,sans-Serif" font-size="10.00">+ average()</text>
<text text-anchor="start" x="104.5" y="-145.5" font-family="Helvetica,sans-Serif" font-size="10.00">+ getAngle()</text>
<text text-anchor="start" x="104.5" y="-134.5" font-family="Helvetica,sans-Serif" font-size="10.00">+ step()</text>
<text text-anchor="start" x="104.5" y="-123.5" font-family="Helvetica,sans-Serif" font-size="10.00">+ calculateCosLut()</text>
<text text-anchor="start" x="104.5" y="-112.5" font-family="Helvetica,sans-Serif" font-size="10.00">+ calculateSinLut()</text>
</a>
</g>
</g>
<!-- Node3&#45;&gt;Node1 -->
<g id="edge2" class="edge"><title>Node3&#45;&gt;Node1</title>
<path fill="none" stroke="#404040" d="M111.259,-105.359C108.119,-95.3726 104.855,-85.4995 101.5,-76 100.717,-73.7829 99.8769,-71.5218 99.0001,-69.2507"/>
<polygon fill="none" stroke="#404040" points="98.9318,-69.0828 92.9651,-65.0333 94.4082,-57.968 100.375,-62.0175 98.9318,-69.0828"/>
<text text-anchor="middle" x="140.5" y="-79" font-family="Helvetica,sans-Serif" font-size="10.00"> +angleEstimate</text>
</g>
<!-- Node4 -->
<g id="node4" class="node"><title>Node4</title>
<g id="a_node4"><a xlink:title=" ">
<polygon fill="white" stroke="#bfbfbf" points="78,-441.5 78,-498.5 217,-498.5 217,-441.5 78,-441.5"/>
<text text-anchor="middle" x="147.5" y="-486.5" font-family="Helvetica,sans-Serif" font-size="10.00">std::array&lt; int, Resolution &gt;</text>
<polyline fill="none" stroke="#bfbfbf" points="78,-479.5 217,-479.5 "/>
<text text-anchor="start" x="86" y="-467.5" font-family="Helvetica,sans-Serif" font-size="10.00">+ elements</text>
<polyline fill="none" stroke="#bfbfbf" points="78,-460.5 217,-460.5 "/>
<text text-anchor="middle" x="147.5" y="-448.5" font-family="Helvetica,sans-Serif" font-size="10.00"> </text>
</a>
</g>
</g>
<!-- Node4&#45;&gt;Node3 -->
<g id="edge3" class="edge"><title>Node4&#45;&gt;Node3</title>
<path fill="none" stroke="#404040" d="M147.5,-441.083C147.5,-428.349 147.5,-412.197 147.5,-394.649"/>
<polygon fill="none" stroke="#404040" points="147.5,-394.622 143.5,-388.622 147.5,-382.622 151.5,-388.622 147.5,-394.622"/>
<text text-anchor="middle" x="167.5" y="-415" font-family="Helvetica,sans-Serif" font-size="10.00"> +sines</text>
<text text-anchor="middle" x="167.5" y="-404" font-family="Helvetica,sans-Serif" font-size="10.00">+cosines</text>
</g>
</g>
</svg>
