<?xml version="1.0" encoding="UTF-8" standalone="no"?>
<!DOCTYPE svg PUBLIC "-//W3C//DTD SVG 1.1//EN"
 "http://www.w3.org/Graphics/SVG/1.1/DTD/svg11.dtd">
<!-- Generated by graphviz version 2.38.0 (20140413.2041)
 -->
<!-- Title: ProgramChanger::select Pages: 1 -->
<svg width="504pt" height="142pt"
 viewBox="0.00 0.00 504.00 142.00" xmlns="http://www.w3.org/2000/svg" xmlns:xlink="http://www.w3.org/1999/xlink">
<g id="graph0" class="graph" transform="scale(1 1) rotate(0) translate(4 138)">
<title>ProgramChanger::select</title>
<polygon fill="white" stroke="none" points="-4,4 -4,-138 500,-138 500,4 -4,4"/>
<!-- Node1 -->
<g id="node1" class="node"><title>Node1</title>
<g id="a_node1"><a xlink:title=" ">
<polygon fill="#bfbfbf" stroke="black" points="0,-57.5 0,-76.5 122,-76.5 122,-57.5 0,-57.5"/>
<text text-anchor="middle" x="61" y="-64.5" font-family="Helvetica,sans-Serif" font-size="10.00">ProgramChanger::select</text>
</a>
</g>
</g>
<!-- Node2 -->
<g id="node2" class="node"><title>Node2</title>
<g id="a_node2"><a xlink:href="../../dc/d45/classControl__Surface__.html#a77ee86088235acc137eb0958051a80ac" target="_top" xlink:title="Get the MIDI interface of the Control Surface.">
<polygon fill="white" stroke="black" points="164.5,-104.5 164.5,-123.5 284.5,-123.5 284.5,-104.5 164.5,-104.5"/>
<text text-anchor="middle" x="224.5" y="-111.5" font-family="Helvetica,sans-Serif" font-size="10.00">Control_Surface_::MIDI</text>
</a>
</g>
</g>
<!-- Node1&#45;&gt;Node2 -->
<g id="edge1" class="edge"><title>Node1&#45;&gt;Node2</title>
<path fill="none" stroke="midnightblue" d="M94.6819,-76.5112C119.446,-83.7179 153.692,-93.6844 180.65,-101.53"/>
<polygon fill="midnightblue" stroke="midnightblue" points="180.01,-104.989 190.59,-104.422 181.966,-98.2675 180.01,-104.989"/>
</g>
<!-- Node4 -->
<g id="node4" class="node"><title>Node4</title>
<g id="a_node4"><a xlink:href="../../d9/d73/classMIDI__Interface.html#a4a65c24407953467490db83689d12dc4" target="_top" xlink:title=" ">
<polygon fill="white" stroke="black" points="163,-57.5 163,-76.5 286,-76.5 286,-57.5 163,-57.5"/>
<text text-anchor="middle" x="224.5" y="-64.5" font-family="Helvetica,sans-Serif" font-size="10.00">MIDI_Interface::sendPC</text>
</a>
</g>
</g>
<!-- Node1&#45;&gt;Node4 -->
<g id="edge3" class="edge"><title>Node1&#45;&gt;Node4</title>
<path fill="none" stroke="midnightblue" d="M122.137,-67C132.091,-67 142.494,-67 152.682,-67"/>
<polygon fill="midnightblue" stroke="midnightblue" points="152.775,-70.5001 162.775,-67 152.775,-63.5001 152.775,-70.5001"/>
</g>
<!-- Node8 -->
<g id="node8" class="node"><title>Node8</title>
<g id="a_node8"><a xlink:href="../../de/de7/classSelectable.html#a84428fa44ab8703ba47eee0a896a3a96" target="_top" xlink:title=" ">
<polygon fill="white" stroke="black" points="158,-19.5 158,-38.5 291,-38.5 291,-19.5 158,-19.5"/>
<text text-anchor="middle" x="224.5" y="-26.5" font-family="Helvetica,sans-Serif" font-size="10.00">Selectable::validateSetting</text>
</a>
</g>
</g>
<!-- Node1&#45;&gt;Node8 -->
<g id="edge7" class="edge"><title>Node1&#45;&gt;Node8</title>
<path fill="none" stroke="midnightblue" d="M102.753,-57.411C124.161,-52.3739 150.586,-46.1562 173.253,-40.8229"/>
<polygon fill="midnightblue" stroke="midnightblue" points="174.107,-44.2175 183.04,-38.5201 172.504,-37.4036 174.107,-44.2175"/>
</g>
<!-- Node3 -->
<g id="node3" class="node"><title>Node3</title>
<g id="a_node3"><a xlink:href="../../d9/d73/classMIDI__Interface.html#ad61032be4eecf18e9a248f153b5e61a8" target="_top" xlink:title="Return the default MIDI interface.">
<polygon fill="white" stroke="black" points="345,-114.5 345,-133.5 478,-133.5 478,-114.5 345,-114.5"/>
<text text-anchor="middle" x="411.5" y="-121.5" font-family="Helvetica,sans-Serif" font-size="10.00">MIDI_Interface::getDefault</text>
</a>
</g>
</g>
<!-- Node2&#45;&gt;Node3 -->
<g id="edge2" class="edge"><title>Node2&#45;&gt;Node3</title>
<path fill="none" stroke="midnightblue" d="M284.544,-117.192C300.482,-118.053 317.951,-118.997 334.669,-119.901"/>
<polygon fill="midnightblue" stroke="midnightblue" points="334.786,-123.412 344.961,-120.457 335.164,-116.423 334.786,-123.412"/>
</g>
<!-- Node5 -->
<g id="node5" class="node"><title>Node5</title>
<g id="a_node5"><a xlink:href="../../df/d9b/classMIDICNChannel.html#a0aa65061089df7578f20170579abde04" target="_top" xlink:title="Get the cable number [0, 15].">
<polygon fill="white" stroke="black" points="327,-76.5 327,-95.5 496,-95.5 496,-76.5 327,-76.5"/>
<text text-anchor="middle" x="411.5" y="-83.5" font-family="Helvetica,sans-Serif" font-size="10.00">MIDICNChannel::getCableNumber</text>
</a>
</g>
</g>
<!-- Node4&#45;&gt;Node5 -->
<g id="edge4" class="edge"><title>Node4&#45;&gt;Node5</title>
<path fill="none" stroke="midnightblue" d="M286.076,-73.2213C295.978,-74.2383 306.437,-75.3124 316.914,-76.3885"/>
<polygon fill="midnightblue" stroke="midnightblue" points="316.642,-79.8789 326.947,-77.4189 317.357,-72.9155 316.642,-79.8789"/>
</g>
<!-- Node6 -->
<g id="node6" class="node"><title>Node6</title>
<g id="a_node6"><a xlink:href="../../df/d9b/classMIDICNChannel.html#a197ab9c7ea0e596417cce72ac8d73986" target="_top" xlink:title="Get the channel as an integer [0, 15].">
<polygon fill="white" stroke="black" points="329,-38.5 329,-57.5 494,-57.5 494,-38.5 329,-38.5"/>
<text text-anchor="middle" x="411.5" y="-45.5" font-family="Helvetica,sans-Serif" font-size="10.00">MIDICNChannel::getRawChannel</text>
</a>
</g>
</g>
<!-- Node4&#45;&gt;Node6 -->
<g id="edge5" class="edge"><title>Node4&#45;&gt;Node6</title>
<path fill="none" stroke="midnightblue" d="M286.076,-60.7787C296.564,-59.7015 307.677,-58.5602 318.775,-57.4204"/>
<polygon fill="midnightblue" stroke="midnightblue" points="319.354,-60.8794 328.944,-56.376 318.639,-53.9161 319.354,-60.8794"/>
</g>
<!-- Node7 -->
<g id="node7" class="node"><title>Node7</title>
<g id="a_node7"><a xlink:href="../../d9/d73/classMIDI__Interface.html#ae9f0d0b1c122306081573173f3d1efff" target="_top" xlink:title="Low&#45;level function for sending a 3&#45;byte MIDI message.">
<polygon fill="white" stroke="black" points="347.5,-0.5 347.5,-19.5 475.5,-19.5 475.5,-0.5 347.5,-0.5"/>
<text text-anchor="middle" x="411.5" y="-7.5" font-family="Helvetica,sans-Serif" font-size="10.00">MIDI_Interface::sendImpl</text>
</a>
</g>
</g>
<!-- Node4&#45;&gt;Node7 -->
<g id="edge6" class="edge"><title>Node4&#45;&gt;Node7</title>
<path fill="none" stroke="midnightblue" d="M263.355,-57.4382C272.528,-54.7345 282.218,-51.5484 291,-48 307.774,-41.2227 310.034,-35.283 327,-29 333.98,-26.4152 341.423,-24.1147 348.881,-22.0862"/>
<polygon fill="midnightblue" stroke="midnightblue" points="349.842,-25.4531 358.657,-19.5752 348.1,-18.6732 349.842,-25.4531"/>
</g>
</g>
</svg>
