<?xml version="1.0" encoding="UTF-8" standalone="no"?>
<!DOCTYPE svg PUBLIC "-//W3C//DTD SVG 1.1//EN"
 "http://www.w3.org/Graphics/SVG/1.1/DTD/svg11.dtd">
<!-- Generated by graphviz version 2.38.0 (20140413.2041)
 -->
<!-- Title: Transposer.hpp Pages: 1 -->
<svg width="1033pt" height="610pt"
 viewBox="0.00 0.00 1032.65 610.00" xmlns="http://www.w3.org/2000/svg" xmlns:xlink="http://www.w3.org/1999/xlink">
<g id="graph0" class="graph" transform="scale(1 1) rotate(0) translate(4 606)">
<title>Transposer.hpp</title>
<polygon fill="white" stroke="none" points="-4,4 -4,-606 1028.65,-606 1028.65,4 -4,4"/>
<!-- Node1 -->
<g id="node1" class="node"><title>Node1</title>
<g id="a_node1"><a xlink:title=" ">
<polygon fill="#bfbfbf" stroke="black" points="391,-582.5 391,-601.5 475,-601.5 475,-582.5 391,-582.5"/>
<text text-anchor="middle" x="433" y="-589.5" font-family="Helvetica,sans-Serif" font-size="10.00">Transposer.hpp</text>
</a>
</g>
</g>
<!-- Node2 -->
<g id="node2" class="node"><title>Node2</title>
<g id="a_node2"><a xlink:href="../../d4/d57/Bank_8hpp.html" target="_top" xlink:title=" ">
<polygon fill="white" stroke="black" points="388.5,-459.5 388.5,-478.5 477.5,-478.5 477.5,-459.5 388.5,-459.5"/>
<text text-anchor="middle" x="433" y="-466.5" font-family="Helvetica,sans-Serif" font-size="10.00">Banks/Bank.hpp</text>
</a>
</g>
</g>
<!-- Node1&#45;&gt;Node2 -->
<g id="edge1" class="edge"><title>Node1&#45;&gt;Node2</title>
<path fill="none" stroke="midnightblue" d="M433,-582.298C433,-562.85 433,-515.49 433,-488.904"/>
<polygon fill="midnightblue" stroke="midnightblue" points="436.5,-488.623 433,-478.623 429.5,-488.623 436.5,-488.623"/>
</g>
<!-- Node6 -->
<g id="node6" class="node"><title>Node6</title>
<g id="a_node6"><a xlink:href="../../d0/d4e/Def_8hpp.html" target="_top" xlink:title=" ">
<polygon fill="white" stroke="black" points="663,-112.5 663,-131.5 733,-131.5 733,-112.5 663,-112.5"/>
<text text-anchor="middle" x="698" y="-119.5" font-family="Helvetica,sans-Serif" font-size="10.00">Def/Def.hpp</text>
</a>
</g>
</g>
<!-- Node1&#45;&gt;Node6 -->
<g id="edge60" class="edge"><title>Node1&#45;&gt;Node6</title>
<path fill="none" stroke="midnightblue" d="M390.728,-587.106C288.829,-576.556 38,-543.156 38,-470 38,-470 38,-470 38,-233 38,-170.536 503.903,-135.384 652.818,-125.744"/>
<polygon fill="midnightblue" stroke="midnightblue" points="653.225,-129.226 662.982,-125.094 652.778,-122.24 653.225,-129.226"/>
</g>
<!-- Node26 -->
<g id="node26" class="node"><title>Node26</title>
<g id="a_node26"><a xlink:href="../../d3/d37/Control__Surface__Class_8hpp.html" target="_top" xlink:title=" ">
<polygon fill="white" stroke="black" points="603,-515.5 603,-545.5 725,-545.5 725,-515.5 603,-515.5"/>
<text text-anchor="start" x="611" y="-533.5" font-family="Helvetica,sans-Serif" font-size="10.00">Control_Surface/Control</text>
<text text-anchor="middle" x="664" y="-522.5" font-family="Helvetica,sans-Serif" font-size="10.00">_Surface_Class.hpp</text>
</a>
</g>
</g>
<!-- Node1&#45;&gt;Node26 -->
<g id="edge42" class="edge"><title>Node1&#45;&gt;Node26</title>
<path fill="none" stroke="midnightblue" d="M466.097,-582.475C500.818,-573.532 556.27,-559.249 599.655,-548.074"/>
<polygon fill="midnightblue" stroke="midnightblue" points="600.747,-551.407 609.558,-545.523 599.001,-544.628 600.747,-551.407"/>
</g>
<!-- Node3 -->
<g id="node3" class="node"><title>Node3</title>
<g id="a_node3"><a xlink:href="../../df/dee/Debug_8hpp.html" target="_top" xlink:title=" ">
<polygon fill="white" stroke="black" points="300.5,-280.5 300.5,-299.5 401.5,-299.5 401.5,-280.5 300.5,-280.5"/>
<text text-anchor="middle" x="351" y="-287.5" font-family="Helvetica,sans-Serif" font-size="10.00">Helpers/Debug.hpp</text>
</a>
</g>
</g>
<!-- Node2&#45;&gt;Node3 -->
<g id="edge2" class="edge"><title>Node2&#45;&gt;Node3</title>
<path fill="none" stroke="midnightblue" d="M425.921,-459.471C418.915,-450.728 408.22,-436.533 401,-423 400.647,-422.339 371.6,-345.51 357.946,-309.383"/>
<polygon fill="midnightblue" stroke="midnightblue" points="361.061,-307.725 354.252,-299.607 354.513,-310.199 361.061,-307.725"/>
</g>
<!-- Node16 -->
<g id="node16" class="node"><title>Node16</title>
<g id="a_node16"><a xlink:href="../../d1/d93/Error_8hpp.html" target="_top" xlink:title=" ">
<polygon fill="white" stroke="black" points="266.5,-342 266.5,-361 359.5,-361 359.5,-342 266.5,-342"/>
<text text-anchor="middle" x="313" y="-349" font-family="Helvetica,sans-Serif" font-size="10.00">Helpers/Error.hpp</text>
</a>
</g>
</g>
<!-- Node2&#45;&gt;Node16 -->
<g id="edge21" class="edge"><title>Node2&#45;&gt;Node16</title>
<path fill="none" stroke="midnightblue" d="M418.119,-459.495C404.297,-451.197 383.565,-437.703 368,-423 350.804,-406.757 334.594,-384.873 324.287,-369.819"/>
<polygon fill="midnightblue" stroke="midnightblue" points="327.149,-367.801 318.677,-361.439 321.332,-371.695 327.149,-367.801"/>
</g>
<!-- Node17 -->
<g id="node17" class="node"><title>Node17</title>
<g id="a_node17"><a xlink:href="../../de/dd1/LinkedList_8hpp.html" target="_top" xlink:title=" ">
<polygon fill="white" stroke="black" points="530,-342 530,-361 646,-361 646,-342 530,-342"/>
<text text-anchor="middle" x="588" y="-349" font-family="Helvetica,sans-Serif" font-size="10.00">Helpers/LinkedList.hpp</text>
</a>
</g>
</g>
<!-- Node2&#45;&gt;Node17 -->
<g id="edge23" class="edge"><title>Node2&#45;&gt;Node17</title>
<path fill="none" stroke="midnightblue" d="M477.698,-464.083C507.473,-459.15 545.339,-448.032 569,-423 582.173,-409.064 586.412,-386.979 587.676,-371.243"/>
<polygon fill="midnightblue" stroke="midnightblue" points="591.179,-371.269 588.156,-361.114 584.186,-370.937 591.179,-371.269"/>
</g>
<!-- Node21 -->
<g id="node21" class="node"><title>Node21</title>
<g id="a_node21"><a xlink:href="../../d9/d46/Selectable_8hpp.html" target="_top" xlink:title=" ">
<polygon fill="white" stroke="black" points="84.5,-403.5 84.5,-422.5 209.5,-422.5 209.5,-403.5 84.5,-403.5"/>
<text text-anchor="middle" x="147" y="-410.5" font-family="Helvetica,sans-Serif" font-size="10.00">Selectors/Selectable.hpp</text>
</a>
</g>
</g>
<!-- Node2&#45;&gt;Node21 -->
<g id="edge29" class="edge"><title>Node2&#45;&gt;Node21</title>
<path fill="none" stroke="midnightblue" d="M388.312,-459.562C338.131,-450.088 256.644,-434.702 202.442,-424.468"/>
<polygon fill="midnightblue" stroke="midnightblue" points="202.793,-420.973 192.318,-422.556 201.495,-427.851 202.793,-420.973"/>
</g>
<!-- Node23 -->
<g id="node23" class="node"><title>Node23</title>
<g id="a_node23"><a xlink:href="../../de/d6e/BankableMIDIInput_8hpp.html" target="_top" xlink:title=" ">
<polygon fill="white" stroke="black" points="410,-403.5 410,-422.5 560,-422.5 560,-403.5 410,-403.5"/>
<text text-anchor="middle" x="485" y="-410.5" font-family="Helvetica,sans-Serif" font-size="10.00">Banks/BankableMIDIInput.hpp</text>
</a>
</g>
</g>
<!-- Node2&#45;&gt;Node23 -->
<g id="edge34" class="edge"><title>Node2&#45;&gt;Node23</title>
<path fill="none" stroke="midnightblue" d="M436.42,-459.083C442.452,-451.062 453.634,-439.101 463.885,-429.515"/>
<polygon fill="midnightblue" stroke="midnightblue" points="466.325,-432.028 471.442,-422.751 461.656,-426.812 466.325,-432.028"/>
</g>
<!-- Node4 -->
<g id="node4" class="node"><title>Node4</title>
<g id="a_node4"><a xlink:href="../../d2/dd5/SettingsWrapper_8hpp.html" target="_top" xlink:title=" ">
<polygon fill="white" stroke="black" points="662.5,-224.5 662.5,-243.5 809.5,-243.5 809.5,-224.5 662.5,-224.5"/>
<text text-anchor="middle" x="736" y="-231.5" font-family="Helvetica,sans-Serif" font-size="10.00">Settings/SettingsWrapper.hpp</text>
</a>
</g>
</g>
<!-- Node3&#45;&gt;Node4 -->
<g id="edge3" class="edge"><title>Node3&#45;&gt;Node4</title>
<path fill="none" stroke="midnightblue" d="M401.657,-281.206C467.724,-271.618 583.695,-255.331 660.226,-244.876"/>
<polygon fill="midnightblue" stroke="midnightblue" points="660.852,-248.324 670.287,-243.505 659.906,-241.388 660.852,-248.324"/>
</g>
<!-- Node14 -->
<g id="node14" class="node"><title>Node14</title>
<g id="a_node14"><a xlink:href="../../dd/d80/PrintStream_8hpp.html" target="_top" xlink:title=" ">
<polygon fill="white" stroke="black" points="299.5,-224.5 299.5,-243.5 386.5,-243.5 386.5,-224.5 299.5,-224.5"/>
<text text-anchor="middle" x="343" y="-231.5" font-family="Helvetica,sans-Serif" font-size="10.00">PrintStream.hpp</text>
</a>
</g>
</g>
<!-- Node3&#45;&gt;Node14 -->
<g id="edge19" class="edge"><title>Node3&#45;&gt;Node14</title>
<path fill="none" stroke="midnightblue" d="M349.679,-280.083C348.619,-272.927 347.094,-262.635 345.769,-253.691"/>
<polygon fill="midnightblue" stroke="midnightblue" points="349.224,-253.13 344.296,-243.751 342.3,-254.156 349.224,-253.13"/>
</g>
<!-- Node4&#45;&gt;Node3 -->
<g id="edge18" class="edge"><title>Node4&#45;&gt;Node3</title>
<path fill="none" stroke="midnightblue" d="M680.409,-243.509C608.963,-253.85 485.537,-271.155 411.705,-281.176"/>
<polygon fill="midnightblue" stroke="midnightblue" points="411.067,-277.73 401.627,-282.54 412.006,-284.667 411.067,-277.73"/>
</g>
<!-- Node5 -->
<g id="node5" class="node"><title>Node5</title>
<g id="a_node5"><a xlink:href="../../db/d02/Settings_8hpp.html" target="_top" xlink:title="All user settings and debugging options can be changed here.">
<polygon fill="white" stroke="black" points="827.5,-168.5 827.5,-187.5 898.5,-187.5 898.5,-168.5 827.5,-168.5"/>
<text text-anchor="middle" x="863" y="-175.5" font-family="Helvetica,sans-Serif" font-size="10.00">Settings.hpp</text>
</a>
</g>
</g>
<!-- Node4&#45;&gt;Node5 -->
<g id="edge4" class="edge"><title>Node4&#45;&gt;Node5</title>
<path fill="none" stroke="midnightblue" d="M756.124,-224.444C777.024,-215.557 809.935,-201.563 833.716,-191.451"/>
<polygon fill="midnightblue" stroke="midnightblue" points="835.138,-194.65 842.971,-187.516 832.398,-188.208 835.138,-194.65"/>
</g>
<!-- Node9 -->
<g id="node9" class="node"><title>Node9</title>
<g id="a_node9"><a xlink:href="../../dc/dc7/NamespaceSettings_8hpp.html" target="_top" xlink:title=" ">
<polygon fill="white" stroke="black" points="650.5,-0.5 650.5,-19.5 813.5,-19.5 813.5,-0.5 650.5,-0.5"/>
<text text-anchor="middle" x="732" y="-7.5" font-family="Helvetica,sans-Serif" font-size="10.00">Settings/NamespaceSettings.hpp</text>
</a>
</g>
</g>
<!-- Node4&#45;&gt;Node9 -->
<g id="edge16" class="edge"><title>Node4&#45;&gt;Node9</title>
<path fill="none" stroke="midnightblue" d="M799.98,-224.496C843.152,-217.295 894.608,-205.347 908,-188 960.411,-120.112 826.594,-51.4034 763.168,-23.7177"/>
<polygon fill="midnightblue" stroke="midnightblue" points="764.202,-20.3533 753.632,-19.633 761.446,-26.7878 764.202,-20.3533"/>
</g>
<!-- Node13 -->
<g id="node13" class="node"><title>Node13</title>
<g id="a_node13"><a xlink:href="../../d9/d98/TeensyUSBTypes_8hpp.html" target="_top" xlink:title=" ">
<polygon fill="white" stroke="black" points="657,-168.5 657,-187.5 809,-187.5 809,-168.5 657,-168.5"/>
<text text-anchor="middle" x="733" y="-175.5" font-family="Helvetica,sans-Serif" font-size="10.00">Helpers/TeensyUSBTypes.hpp</text>
</a>
</g>
</g>
<!-- Node4&#45;&gt;Node13 -->
<g id="edge17" class="edge"><title>Node4&#45;&gt;Node13</title>
<path fill="none" stroke="midnightblue" d="M735.505,-224.083C735.111,-217.006 734.548,-206.861 734.055,-197.986"/>
<polygon fill="midnightblue" stroke="midnightblue" points="737.536,-197.542 733.486,-187.751 730.546,-197.93 737.536,-197.542"/>
</g>
<!-- Node5&#45;&gt;Node6 -->
<g id="edge5" class="edge"><title>Node5&#45;&gt;Node6</title>
<path fill="none" stroke="midnightblue" d="M836.855,-168.444C808.977,-159.32 764.652,-144.813 733.6,-134.651"/>
<polygon fill="midnightblue" stroke="midnightblue" points="734.615,-131.3 724.022,-131.516 732.438,-137.953 734.615,-131.3"/>
</g>
<!-- Node7 -->
<g id="node7" class="node"><title>Node7</title>
<g id="a_node7"><a xlink:href="../../d7/d42/Channel_8hpp.html" target="_top" xlink:title=" ">
<polygon fill="white" stroke="black" points="598.5,-56.5 598.5,-75.5 669.5,-75.5 669.5,-56.5 598.5,-56.5"/>
<text text-anchor="middle" x="634" y="-63.5" font-family="Helvetica,sans-Serif" font-size="10.00">Channel.hpp</text>
</a>
</g>
</g>
<!-- Node6&#45;&gt;Node7 -->
<g id="edge6" class="edge"><title>Node6&#45;&gt;Node7</title>
<path fill="none" stroke="midnightblue" d="M687.717,-112.324C678.164,-104.263 663.72,-92.0765 652.216,-82.3695"/>
<polygon fill="midnightblue" stroke="midnightblue" points="654.37,-79.6076 644.47,-75.8339 649.856,-84.9577 654.37,-79.6076"/>
</g>
<!-- Node8 -->
<g id="node8" class="node"><title>Node8</title>
<g id="a_node8"><a xlink:title=" ">
<polygon fill="white" stroke="#bfbfbf" points="488.5,-0.5 488.5,-19.5 537.5,-19.5 537.5,-0.5 488.5,-0.5"/>
<text text-anchor="middle" x="513" y="-7.5" font-family="Helvetica,sans-Serif" font-size="10.00">stdint.h</text>
</a>
</g>
</g>
<!-- Node6&#45;&gt;Node8 -->
<g id="edge15" class="edge"><title>Node6&#45;&gt;Node8</title>
<path fill="none" stroke="midnightblue" d="M670.882,-112.493C648.109,-104.732 615.188,-92.0392 589,-76 566.014,-61.9219 542.957,-41.0136 528.368,-26.7369"/>
<polygon fill="midnightblue" stroke="midnightblue" points="530.74,-24.1591 521.189,-19.5732 525.795,-29.1142 530.74,-24.1591"/>
</g>
<!-- Node6&#45;&gt;Node9 -->
<g id="edge13" class="edge"><title>Node6&#45;&gt;Node9</title>
<path fill="none" stroke="midnightblue" d="M700.477,-112.137C704.008,-99.5963 710.754,-75.9736 717,-56 719.768,-47.1467 723.005,-37.3722 725.761,-29.2013"/>
<polygon fill="midnightblue" stroke="midnightblue" points="729.122,-30.1902 729.028,-19.5958 722.494,-27.9359 729.122,-30.1902"/>
</g>
<!-- Node10 -->
<g id="node10" class="node"><title>Node10</title>
<g id="a_node10"><a xlink:href="../../dc/d50/Frequency_8hpp.html" target="_top" xlink:title=" ">
<polygon fill="white" stroke="black" points="726.5,-56.5 726.5,-75.5 807.5,-75.5 807.5,-56.5 726.5,-56.5"/>
<text text-anchor="middle" x="767" y="-63.5" font-family="Helvetica,sans-Serif" font-size="10.00">Frequency.hpp</text>
</a>
</g>
</g>
<!-- Node6&#45;&gt;Node10 -->
<g id="edge9" class="edge"><title>Node6&#45;&gt;Node10</title>
<path fill="none" stroke="midnightblue" d="M709.086,-112.324C719.486,-104.185 735.261,-91.8395 747.722,-82.0874"/>
<polygon fill="midnightblue" stroke="midnightblue" points="749.994,-84.7533 755.712,-75.8339 745.68,-79.2407 749.994,-84.7533"/>
</g>
<!-- Node11 -->
<g id="node11" class="node"><title>Node11</title>
<g id="a_node11"><a xlink:href="../../de/d76/Array_8hpp.html" target="_top" xlink:title=" ">
<polygon fill="white" stroke="black" points="917.5,-56.5 917.5,-75.5 1012.5,-75.5 1012.5,-56.5 917.5,-56.5"/>
<text text-anchor="middle" x="965" y="-63.5" font-family="Helvetica,sans-Serif" font-size="10.00">Helpers/Array.hpp</text>
</a>
</g>
</g>
<!-- Node6&#45;&gt;Node11 -->
<g id="edge11" class="edge"><title>Node6&#45;&gt;Node11</title>
<path fill="none" stroke="midnightblue" d="M733.18,-113.885C779.076,-104.603 859.761,-88.2842 912.799,-77.5575"/>
<polygon fill="midnightblue" stroke="midnightblue" points="913.585,-80.9695 922.692,-75.5566 912.197,-74.1084 913.585,-80.9695"/>
</g>
<!-- Node12 -->
<g id="node12" class="node"><title>Node12</title>
<g id="a_node12"><a xlink:title=" ">
<polygon fill="white" stroke="#bfbfbf" points="939,-0.5 939,-19.5 991,-19.5 991,-0.5 939,-0.5"/>
<text text-anchor="middle" x="965" y="-7.5" font-family="Helvetica,sans-Serif" font-size="10.00">stddef.h</text>
</a>
</g>
</g>
<!-- Node6&#45;&gt;Node12 -->
<g id="edge14" class="edge"><title>Node6&#45;&gt;Node12</title>
<path fill="none" stroke="midnightblue" d="M721.636,-112.359C745.55,-103.528 783.525,-89.2671 816,-76 858.251,-58.739 906.581,-37.347 936.449,-23.9314"/>
<polygon fill="midnightblue" stroke="midnightblue" points="938.154,-27.0023 945.835,-19.705 935.28,-20.6195 938.154,-27.0023"/>
</g>
<!-- Node7&#45;&gt;Node8 -->
<g id="edge7" class="edge"><title>Node7&#45;&gt;Node8</title>
<path fill="none" stroke="midnightblue" d="M614.827,-56.4435C595.091,-47.6356 564.115,-33.8116 541.507,-23.722"/>
<polygon fill="midnightblue" stroke="midnightblue" points="542.641,-20.3957 532.083,-19.5164 539.789,-26.788 542.641,-20.3957"/>
</g>
<!-- Node7&#45;&gt;Node9 -->
<g id="edge8" class="edge"><title>Node7&#45;&gt;Node9</title>
<path fill="none" stroke="midnightblue" d="M649.745,-56.324C665.319,-47.7428 689.377,-34.486 707.459,-24.5224"/>
<polygon fill="midnightblue" stroke="midnightblue" points="709.224,-27.546 716.294,-19.6545 705.846,-21.4152 709.224,-27.546"/>
</g>
<!-- Node10&#45;&gt;Node9 -->
<g id="edge10" class="edge"><title>Node10&#45;&gt;Node9</title>
<path fill="none" stroke="midnightblue" d="M761.22,-56.083C756.328,-48.5341 749.173,-37.4948 743.167,-28.2298"/>
<polygon fill="midnightblue" stroke="midnightblue" points="746.048,-26.239 737.672,-19.7511 740.174,-30.0463 746.048,-26.239"/>
</g>
<!-- Node11&#45;&gt;Node12 -->
<g id="edge12" class="edge"><title>Node11&#45;&gt;Node12</title>
<path fill="none" stroke="midnightblue" d="M965,-56.083C965,-49.0059 965,-38.8611 965,-29.9865"/>
<polygon fill="midnightblue" stroke="midnightblue" points="968.5,-29.751 965,-19.7511 961.5,-29.7511 968.5,-29.751"/>
</g>
<!-- Node15 -->
<g id="node15" class="node"><title>Node15</title>
<g id="a_node15"><a xlink:title=" ">
<polygon fill="white" stroke="#bfbfbf" points="314,-168.5 314,-187.5 372,-187.5 372,-168.5 314,-168.5"/>
<text text-anchor="middle" x="343" y="-175.5" font-family="Helvetica,sans-Serif" font-size="10.00">Arduino.h</text>
</a>
</g>
</g>
<!-- Node14&#45;&gt;Node15 -->
<g id="edge20" class="edge"><title>Node14&#45;&gt;Node15</title>
<path fill="none" stroke="midnightblue" d="M343,-224.083C343,-217.006 343,-206.861 343,-197.986"/>
<polygon fill="midnightblue" stroke="midnightblue" points="346.5,-197.751 343,-187.751 339.5,-197.751 346.5,-197.751"/>
</g>
<!-- Node16&#45;&gt;Node3 -->
<g id="edge22" class="edge"><title>Node16&#45;&gt;Node3</title>
<path fill="none" stroke="midnightblue" d="M318.444,-341.975C324.088,-333.138 333.061,-319.089 340.159,-307.975"/>
<polygon fill="midnightblue" stroke="midnightblue" points="343.133,-309.821 345.566,-299.509 337.233,-306.053 343.133,-309.821"/>
</g>
<!-- Node17&#45;&gt;Node3 -->
<g id="edge24" class="edge"><title>Node17&#45;&gt;Node3</title>
<path fill="none" stroke="midnightblue" d="M554.044,-341.975C512.158,-331.459 440.867,-313.562 394.872,-302.014"/>
<polygon fill="midnightblue" stroke="midnightblue" points="395.445,-298.549 384.893,-299.509 393.74,-305.339 395.445,-298.549"/>
</g>
<!-- Node18 -->
<g id="node18" class="node"><title>Node18</title>
<g id="a_node18"><a xlink:title=" ">
<polygon fill="white" stroke="#bfbfbf" points="830,-224.5 830,-243.5 878,-243.5 878,-224.5 830,-224.5"/>
<text text-anchor="middle" x="854" y="-231.5" font-family="Helvetica,sans-Serif" font-size="10.00">stdlib.h</text>
</a>
</g>
</g>
<!-- Node17&#45;&gt;Node18 -->
<g id="edge25" class="edge"><title>Node17&#45;&gt;Node18</title>
<path fill="none" stroke="midnightblue" d="M616.852,-341.932C646.488,-332.789 693.709,-317.266 733,-300 742.686,-295.743 797.1,-266.147 829.567,-248.392"/>
<polygon fill="midnightblue" stroke="midnightblue" points="831.385,-251.388 838.476,-243.516 828.024,-245.247 831.385,-251.388"/>
</g>
<!-- Node19 -->
<g id="node19" class="node"><title>Node19</title>
<g id="a_node19"><a xlink:href="../../d7/d79/MinMaxFix_8hpp.html" target="_top" xlink:title=" ">
<polygon fill="white" stroke="black" points="443,-224.5 443,-243.5 563,-243.5 563,-224.5 443,-224.5"/>
<text text-anchor="middle" x="503" y="-231.5" font-family="Helvetica,sans-Serif" font-size="10.00">Helpers/MinMaxFix.hpp</text>
</a>
</g>
</g>
<!-- Node17&#45;&gt;Node19 -->
<g id="edge26" class="edge"><title>Node17&#45;&gt;Node19</title>
<path fill="none" stroke="midnightblue" d="M549.442,-341.927C527.032,-334.751 500.605,-322.013 487,-300 478.052,-285.522 484.578,-266.336 491.802,-252.567"/>
<polygon fill="midnightblue" stroke="midnightblue" points="494.988,-254.05 496.975,-243.644 488.932,-250.54 494.988,-254.05"/>
</g>
<!-- Node20 -->
<g id="node20" class="node"><title>Node20</title>
<g id="a_node20"><a xlink:title=" ">
<polygon fill="white" stroke="#bfbfbf" points="496.5,-280.5 496.5,-299.5 543.5,-299.5 543.5,-280.5 496.5,-280.5"/>
<text text-anchor="middle" x="520" y="-287.5" font-family="Helvetica,sans-Serif" font-size="10.00">iterator</text>
</a>
</g>
</g>
<!-- Node17&#45;&gt;Node20 -->
<g id="edge28" class="edge"><title>Node17&#45;&gt;Node20</title>
<path fill="none" stroke="midnightblue" d="M578.257,-341.975C567.653,-332.697 550.481,-317.671 537.521,-306.331"/>
<polygon fill="midnightblue" stroke="midnightblue" points="539.555,-303.46 529.725,-299.509 534.946,-308.728 539.555,-303.46"/>
</g>
<!-- Node19&#45;&gt;Node15 -->
<g id="edge27" class="edge"><title>Node19&#45;&gt;Node15</title>
<path fill="none" stroke="midnightblue" d="M477.648,-224.444C450.731,-215.359 408.004,-200.939 377.913,-190.783"/>
<polygon fill="midnightblue" stroke="midnightblue" points="378.828,-187.398 368.234,-187.516 376.59,-194.031 378.828,-187.398"/>
</g>
<!-- Node21&#45;&gt;Node6 -->
<g id="edge30" class="edge"><title>Node21&#45;&gt;Node6</title>
<path fill="none" stroke="midnightblue" d="M155.199,-403.402C162.939,-394.828 174.326,-380.957 181,-367 196.019,-335.589 200,-325.817 200,-291 200,-291 200,-291 200,-233 200,-140.728 530.104,-125.79 652.796,-123.425"/>
<polygon fill="midnightblue" stroke="midnightblue" points="653.044,-126.921 662.982,-123.248 652.922,-119.922 653.044,-126.921"/>
</g>
<!-- Node21&#45;&gt;Node8 -->
<g id="edge33" class="edge"><title>Node21&#45;&gt;Node8</title>
<path fill="none" stroke="midnightblue" d="M119.695,-403.475C77.1836,-388.304 0,-352.316 0,-291 0,-291 0,-291 0,-121 0,-22.9543 362.779,-12.0198 478.19,-11.022"/>
<polygon fill="midnightblue" stroke="midnightblue" points="478.28,-14.5216 488.257,-10.9552 478.234,-7.52171 478.28,-14.5216"/>
</g>
<!-- Node21&#45;&gt;Node16 -->
<g id="edge31" class="edge"><title>Node21&#45;&gt;Node16</title>
<path fill="none" stroke="midnightblue" d="M170.784,-403.475C199.382,-393.225 247.551,-375.959 279.802,-364.399"/>
<polygon fill="midnightblue" stroke="midnightblue" points="281.028,-367.678 289.26,-361.009 278.666,-361.089 281.028,-367.678"/>
</g>
<!-- Node22 -->
<g id="node22" class="node"><title>Node22</title>
<g id="a_node22"><a xlink:href="../../d7/dd7/Helpers_8hpp.html" target="_top" xlink:title=" ">
<polygon fill="white" stroke="black" points="66,-342 66,-361 172,-361 172,-342 66,-342"/>
<text text-anchor="middle" x="119" y="-349" font-family="Helvetica,sans-Serif" font-size="10.00">Helpers/Helpers.hpp</text>
</a>
</g>
</g>
<!-- Node21&#45;&gt;Node22 -->
<g id="edge32" class="edge"><title>Node21&#45;&gt;Node22</title>
<path fill="none" stroke="midnightblue" d="M142.988,-403.475C138.913,-394.815 132.482,-381.149 127.304,-370.145"/>
<polygon fill="midnightblue" stroke="midnightblue" points="130.429,-368.567 123.004,-361.009 124.095,-371.548 130.429,-368.567"/>
</g>
<!-- Node23&#45;&gt;Node2 -->
<g id="edge35" class="edge"><title>Node23&#45;&gt;Node2</title>
<path fill="none" stroke="midnightblue" d="M481.642,-422.834C475.614,-430.869 464.361,-442.909 454.06,-452.537"/>
<polygon fill="midnightblue" stroke="midnightblue" points="451.591,-450.049 446.47,-459.324 456.257,-455.267 451.591,-450.049"/>
</g>
<!-- Node23&#45;&gt;Node3 -->
<g id="edge40" class="edge"><title>Node23&#45;&gt;Node3</title>
<path fill="none" stroke="midnightblue" d="M475.341,-403.049C459.917,-388.78 428.736,-360.033 402,-336 390.885,-326.01 378.295,-314.899 368.405,-306.217"/>
<polygon fill="midnightblue" stroke="midnightblue" points="370.652,-303.532 360.824,-299.574 366.039,-308.797 370.652,-303.532"/>
</g>
<!-- Node23&#45;&gt;Node17 -->
<g id="edge41" class="edge"><title>Node23&#45;&gt;Node17</title>
<path fill="none" stroke="midnightblue" d="M499.757,-403.475C516.661,-393.711 544.583,-377.581 564.49,-366.081"/>
<polygon fill="midnightblue" stroke="midnightblue" points="566.362,-369.042 573.27,-361.009 562.86,-362.981 566.362,-369.042"/>
</g>
<!-- Node24 -->
<g id="node24" class="node"><title>Node24</title>
<g id="a_node24"><a xlink:href="../../dd/d1f/BankConfig_8hpp.html" target="_top" xlink:title=" ">
<polygon fill="white" stroke="black" points="515,-168.5 515,-187.5 601,-187.5 601,-168.5 515,-168.5"/>
<text text-anchor="middle" x="558" y="-175.5" font-family="Helvetica,sans-Serif" font-size="10.00">BankConfig.hpp</text>
</a>
</g>
</g>
<!-- Node23&#45;&gt;Node24 -->
<g id="edge36" class="edge"><title>Node23&#45;&gt;Node24</title>
<path fill="none" stroke="midnightblue" d="M477.978,-403.265C456.009,-374.819 392.461,-283.264 434,-224 450.014,-201.153 478.869,-189.86 504.716,-184.298"/>
<polygon fill="midnightblue" stroke="midnightblue" points="505.645,-187.684 514.813,-182.373 504.334,-180.808 505.645,-187.684"/>
</g>
<!-- Node25 -->
<g id="node25" class="node"><title>Node25</title>
<g id="a_node25"><a xlink:href="../../d8/d38/MIDICNChannelAddress_8hpp.html" target="_top" xlink:title=" ">
<polygon fill="white" stroke="black" points="561.5,-280.5 561.5,-299.5 724.5,-299.5 724.5,-280.5 561.5,-280.5"/>
<text text-anchor="middle" x="643" y="-287.5" font-family="Helvetica,sans-Serif" font-size="10.00">Def/MIDICNChannelAddress.hpp</text>
</a>
</g>
</g>
<!-- Node23&#45;&gt;Node25 -->
<g id="edge38" class="edge"><title>Node23&#45;&gt;Node25</title>
<path fill="none" stroke="midnightblue" d="M486.805,-403.429C490.512,-387.864 500.424,-354.821 521,-336 538.92,-319.608 563.324,-309.046 585.597,-302.309"/>
<polygon fill="midnightblue" stroke="midnightblue" points="586.646,-305.65 595.318,-299.563 584.743,-298.913 586.646,-305.65"/>
</g>
<!-- Node24&#45;&gt;Node6 -->
<g id="edge37" class="edge"><title>Node24&#45;&gt;Node6</title>
<path fill="none" stroke="midnightblue" d="M580.183,-168.444C603.428,-159.478 640.149,-145.314 666.415,-135.183"/>
<polygon fill="midnightblue" stroke="midnightblue" points="667.85,-138.381 675.92,-131.516 665.331,-131.85 667.85,-138.381"/>
</g>
<!-- Node25&#45;&gt;Node6 -->
<g id="edge39" class="edge"><title>Node25&#45;&gt;Node6</title>
<path fill="none" stroke="midnightblue" d="M641.161,-280.25C637.261,-259.55 629.924,-206.432 648,-168 653.825,-155.616 664.794,-145.14 674.978,-137.42"/>
<polygon fill="midnightblue" stroke="midnightblue" points="677.067,-140.23 683.217,-131.603 673.029,-134.512 677.067,-140.23"/>
</g>
<!-- Node27 -->
<g id="node27" class="node"><title>Node27</title>
<g id="a_node27"><a xlink:href="../../d6/d04/MIDI__Interface_8hpp.html" target="_top" xlink:title=" ">
<polygon fill="white" stroke="black" points="675,-336.5 675,-366.5 787,-366.5 787,-336.5 675,-336.5"/>
<text text-anchor="start" x="683" y="-354.5" font-family="Helvetica,sans-Serif" font-size="10.00">MIDI_Interfaces/MIDI</text>
<text text-anchor="middle" x="731" y="-343.5" font-family="Helvetica,sans-Serif" font-size="10.00">_Interface.hpp</text>
</a>
</g>
</g>
<!-- Node26&#45;&gt;Node27 -->
<g id="edge43" class="edge"><title>Node26&#45;&gt;Node27</title>
<path fill="none" stroke="midnightblue" d="M667.131,-515.25C670.457,-500.863 676.172,-478.098 683,-459 693.491,-429.655 708.682,-397.166 719.151,-375.881"/>
<polygon fill="midnightblue" stroke="midnightblue" points="722.413,-377.181 723.732,-366.669 716.145,-374.064 722.413,-377.181"/>
</g>
<!-- Node29 -->
<g id="node29" class="node"><title>Node29</title>
<g id="a_node29"><a xlink:href="../../d6/dd2/DisplayElement_8hpp.html" target="_top" xlink:title=" ">
<polygon fill="white" stroke="black" points="692,-459.5 692,-478.5 832,-478.5 832,-459.5 692,-459.5"/>
<text text-anchor="middle" x="762" y="-466.5" font-family="Helvetica,sans-Serif" font-size="10.00">Display/DisplayElement.hpp</text>
</a>
</g>
</g>
<!-- Node26&#45;&gt;Node29 -->
<g id="edge51" class="edge"><title>Node26&#45;&gt;Node29</title>
<path fill="none" stroke="midnightblue" d="M687.225,-515.399C702.786,-505.951 723.197,-493.559 738.762,-484.109"/>
<polygon fill="midnightblue" stroke="midnightblue" points="741.009,-486.839 747.74,-478.658 737.376,-480.856 741.009,-486.839"/>
</g>
<!-- Node30 -->
<g id="node30" class="node"><title>Node30</title>
<g id="a_node30"><a xlink:href="../../dc/d77/DisplayInterface_8hpp.html" target="_top" xlink:title=" ">
<polygon fill="white" stroke="black" points="767.5,-403.5 767.5,-422.5 910.5,-422.5 910.5,-403.5 767.5,-403.5"/>
<text text-anchor="middle" x="839" y="-410.5" font-family="Helvetica,sans-Serif" font-size="10.00">Display/DisplayInterface.hpp</text>
</a>
</g>
</g>
<!-- Node26&#45;&gt;Node30 -->
<g id="edge57" class="edge"><title>Node26&#45;&gt;Node30</title>
<path fill="none" stroke="midnightblue" d="M725.245,-520.027C770.591,-511.617 826.853,-497.748 841,-479 850.971,-465.786 848.864,-446.386 845.244,-432.22"/>
<polygon fill="midnightblue" stroke="midnightblue" points="848.582,-431.169 842.355,-422.598 841.878,-433.182 848.582,-431.169"/>
</g>
<!-- Node32 -->
<g id="node32" class="node"><title>Node32</title>
<g id="a_node32"><a xlink:href="../../d7/d74/MillisTimer_8hpp.html" target="_top" xlink:title=" ">
<polygon fill="white" stroke="black" points="240.5,-459.5 240.5,-478.5 359.5,-478.5 359.5,-459.5 240.5,-459.5"/>
<text text-anchor="middle" x="300" y="-466.5" font-family="Helvetica,sans-Serif" font-size="10.00">Helpers/MillisTimer.hpp</text>
</a>
</g>
</g>
<!-- Node26&#45;&gt;Node32 -->
<g id="edge58" class="edge"><title>Node26&#45;&gt;Node32</title>
<path fill="none" stroke="midnightblue" d="M602.664,-519.474C535.791,-508.543 429.36,-491.145 362.163,-480.161"/>
<polygon fill="midnightblue" stroke="midnightblue" points="362.569,-476.681 352.135,-478.522 361.439,-483.59 362.569,-476.681"/>
</g>
<!-- Node27&#45;&gt;Node6 -->
<g id="edge44" class="edge"><title>Node27&#45;&gt;Node6</title>
<path fill="none" stroke="midnightblue" d="M787.149,-339.11C849.155,-326.264 940.977,-306.339 946,-300 951.52,-293.033 947.447,-288.77 946,-280 937.441,-228.137 947.261,-202.952 908,-168 884.061,-146.688 797.566,-133.706 743.332,-127.477"/>
<polygon fill="midnightblue" stroke="midnightblue" points="743.599,-123.986 733.273,-126.357 742.824,-130.942 743.599,-123.986"/>
</g>
<!-- Node27&#45;&gt;Node25 -->
<g id="edge45" class="edge"><title>Node27&#45;&gt;Node25</title>
<path fill="none" stroke="midnightblue" d="M710.145,-336.399C696.303,-327.04 678.189,-314.792 664.264,-305.377"/>
<polygon fill="midnightblue" stroke="midnightblue" points="666.049,-302.36 655.805,-299.658 662.128,-308.158 666.049,-302.36"/>
</g>
<!-- Node28 -->
<g id="node28" class="node"><title>Node28</title>
<g id="a_node28"><a xlink:href="../../d7/d2d/MIDI__Parser_8hpp.html" target="_top" xlink:title=" ">
<polygon fill="white" stroke="black" points="781.5,-280.5 781.5,-299.5 936.5,-299.5 936.5,-280.5 781.5,-280.5"/>
<text text-anchor="middle" x="859" y="-287.5" font-family="Helvetica,sans-Serif" font-size="10.00">MIDI_Parsers/MIDI_Parser.hpp</text>
</a>
</g>
</g>
<!-- Node27&#45;&gt;Node28 -->
<g id="edge46" class="edge"><title>Node27&#45;&gt;Node28</title>
<path fill="none" stroke="midnightblue" d="M761.334,-336.399C782.523,-326.55 810.594,-313.501 831.202,-303.922"/>
<polygon fill="midnightblue" stroke="midnightblue" points="832.782,-307.047 840.375,-299.658 829.831,-300.699 832.782,-307.047"/>
</g>
<!-- Node28&#45;&gt;Node4 -->
<g id="edge50" class="edge"><title>Node28&#45;&gt;Node4</title>
<path fill="none" stroke="midnightblue" d="M839.51,-280.444C819.358,-271.596 787.677,-257.687 764.669,-247.586"/>
<polygon fill="midnightblue" stroke="midnightblue" points="765.962,-244.332 755.399,-243.516 763.148,-250.741 765.962,-244.332"/>
</g>
<!-- Node28&#45;&gt;Node8 -->
<g id="edge48" class="edge"><title>Node28&#45;&gt;Node8</title>
<path fill="none" stroke="midnightblue" d="M810.199,-280.464C768.128,-272.602 705.976,-259.781 653,-244 619.498,-234.02 525.836,-216.784 506,-188 472.459,-139.331 493.228,-63.9718 505.663,-29.4327"/>
<polygon fill="midnightblue" stroke="midnightblue" points="509.065,-30.3301 509.328,-19.7385 502.517,-27.8546 509.065,-30.3301"/>
</g>
<!-- Node28&#45;&gt;Node12 -->
<g id="edge47" class="edge"><title>Node28&#45;&gt;Node12</title>
<path fill="none" stroke="midnightblue" d="M869.417,-280.196C900.186,-253.414 990.479,-169.058 1022,-76 1024.85,-67.581 1025.88,-63.9991 1022,-56 1015.6,-42.7996 1003.25,-32.3032 991.671,-24.7794"/>
<polygon fill="midnightblue" stroke="midnightblue" points="993.454,-21.7678 983.082,-19.6099 989.845,-27.7653 993.454,-21.7678"/>
</g>
<!-- Node28&#45;&gt;Node18 -->
<g id="edge49" class="edge"><title>Node28&#45;&gt;Node18</title>
<path fill="none" stroke="midnightblue" d="M858.174,-280.083C857.519,-273.006 856.58,-262.861 855.758,-253.986"/>
<polygon fill="midnightblue" stroke="midnightblue" points="859.217,-253.386 854.81,-243.751 852.247,-254.031 859.217,-253.386"/>
</g>
<!-- Node29&#45;&gt;Node17 -->
<g id="edge56" class="edge"><title>Node29&#45;&gt;Node17</title>
<path fill="none" stroke="midnightblue" d="M748.922,-459.319C719.195,-439.586 646.3,-391.199 609.704,-366.907"/>
<polygon fill="midnightblue" stroke="midnightblue" points="611.497,-363.896 601.23,-361.282 607.626,-369.729 611.497,-363.896"/>
</g>
<!-- Node29&#45;&gt;Node30 -->
<g id="edge52" class="edge"><title>Node29&#45;&gt;Node30</title>
<path fill="none" stroke="midnightblue" d="M774.371,-459.324C786.158,-451.058 804.132,-438.453 818.136,-428.632"/>
<polygon fill="midnightblue" stroke="midnightblue" points="820.482,-431.262 826.659,-422.655 816.462,-425.531 820.482,-431.262"/>
</g>
<!-- Node30&#45;&gt;Node6 -->
<g id="edge53" class="edge"><title>Node30&#45;&gt;Node6</title>
<path fill="none" stroke="midnightblue" d="M872.981,-403.419C921.018,-389.012 1003,-355.043 1003,-291 1003,-291 1003,-291 1003,-233 1003,-189.558 968.935,-187.268 930,-168 869.877,-138.246 791.916,-128.143 743.429,-124.726"/>
<polygon fill="midnightblue" stroke="midnightblue" points="743.452,-121.22 733.25,-124.077 743.007,-128.206 743.452,-121.22"/>
</g>
<!-- Node30&#45;&gt;Node17 -->
<g id="edge54" class="edge"><title>Node30&#45;&gt;Node17</title>
<path fill="none" stroke="midnightblue" d="M803.038,-403.475C758.491,-392.915 682.541,-374.911 633.851,-363.369"/>
<polygon fill="midnightblue" stroke="midnightblue" points="634.433,-359.91 623.895,-361.009 632.818,-366.721 634.433,-359.91"/>
</g>
<!-- Node31 -->
<g id="node31" class="node"><title>Node31</title>
<g id="a_node31"><a xlink:title=" ">
<polygon fill="white" stroke="#bfbfbf" points="816.5,-342 816.5,-361 861.5,-361 861.5,-342 816.5,-342"/>
<text text-anchor="middle" x="839" y="-349" font-family="Helvetica,sans-Serif" font-size="10.00">Print.h</text>
</a>
</g>
</g>
<!-- Node30&#45;&gt;Node31 -->
<g id="edge55" class="edge"><title>Node30&#45;&gt;Node31</title>
<path fill="none" stroke="midnightblue" d="M839,-403.475C839,-395.08 839,-381.981 839,-371.163"/>
<polygon fill="midnightblue" stroke="midnightblue" points="842.5,-371.009 839,-361.009 835.5,-371.009 842.5,-371.009"/>
</g>
<!-- Node32&#45;&gt;Node15 -->
<g id="edge59" class="edge"><title>Node32&#45;&gt;Node15</title>
<path fill="none" stroke="midnightblue" d="M291.379,-459.291C274.343,-441.113 238,-397.107 238,-352.5 238,-352.5 238,-352.5 238,-289 238,-244.02 284.507,-210.189 315.618,-192.59"/>
<polygon fill="midnightblue" stroke="midnightblue" points="317.591,-195.501 324.71,-187.655 314.252,-189.349 317.591,-195.501"/>
</g>
</g>
</svg>
