<?xml version="1.0" encoding="UTF-8" standalone="no"?>
<!DOCTYPE svg PUBLIC "-//W3C//DTD SVG 1.1//EN"
 "http://www.w3.org/Graphics/SVG/1.1/DTD/svg11.dtd">
<!-- Generated by graphviz version 2.38.0 (20140413.2041)
 -->
<!-- Title: Transposer.hpp Pages: 1 -->
<svg width="1012pt" height="610pt"
 viewBox="0.00 0.00 1012.00 610.00" xmlns="http://www.w3.org/2000/svg" xmlns:xlink="http://www.w3.org/1999/xlink">
<g id="graph0" class="graph" transform="scale(1 1) rotate(0) translate(4 606)">
<title>Transposer.hpp</title>
<polygon fill="white" stroke="none" points="-4,4 -4,-606 1008,-606 1008,4 -4,4"/>
<!-- Node0 -->
<g id="node1" class="node"><title>Node0</title>
<g id="a_node1"><a xlink:title=" ">
<polygon fill="#bfbfbf" stroke="black" points="592,-582.5 592,-601.5 676,-601.5 676,-582.5 592,-582.5"/>
<text text-anchor="middle" x="634" y="-589.5" font-family="Helvetica,sans-Serif" font-size="10.00">Transposer.hpp</text>
</a>
</g>
</g>
<!-- Node1 -->
<g id="node2" class="node"><title>Node1</title>
<g id="a_node2"><a xlink:href="../../d4/d57/Bank_8hpp.html" target="_top" xlink:title=" ">
<polygon fill="white" stroke="black" points="589.5,-459.5 589.5,-478.5 678.5,-478.5 678.5,-459.5 589.5,-459.5"/>
<text text-anchor="middle" x="634" y="-466.5" font-family="Helvetica,sans-Serif" font-size="10.00">Banks/Bank.hpp</text>
</a>
</g>
</g>
<!-- Node0&#45;&gt;Node1 -->
<g id="edge1" class="edge"><title>Node0&#45;&gt;Node1</title>
<path fill="none" stroke="midnightblue" d="M634,-582.298C634,-562.85 634,-515.49 634,-488.904"/>
<polygon fill="midnightblue" stroke="midnightblue" points="637.5,-488.623 634,-478.623 630.5,-488.623 637.5,-488.623"/>
</g>
<!-- Node5 -->
<g id="node6" class="node"><title>Node5</title>
<g id="a_node6"><a xlink:href="../../d0/d4e/Def_8hpp.html" target="_top" xlink:title=" ">
<polygon fill="white" stroke="black" points="514,-112.5 514,-131.5 584,-131.5 584,-112.5 514,-112.5"/>
<text text-anchor="middle" x="549" y="-119.5" font-family="Helvetica,sans-Serif" font-size="10.00">Def/Def.hpp</text>
</a>
</g>
</g>
<!-- Node0&#45;&gt;Node5 -->
<g id="edge55" class="edge"><title>Node0&#45;&gt;Node5</title>
<path fill="none" stroke="midnightblue" d="M676.083,-586.276C773.06,-574.223 1004,-538.344 1004,-470 1004,-470 1004,-470 1004,-233 1004,-149.365 709.879,-129.109 594.585,-124.382"/>
<polygon fill="midnightblue" stroke="midnightblue" points="594.453,-120.874 584.324,-123.983 594.181,-127.869 594.453,-120.874"/>
</g>
<!-- Node23 -->
<g id="node24" class="node"><title>Node23</title>
<g id="a_node24"><a xlink:href="../../d3/d37/Control__Surface__Class_8hpp.html" target="_top" xlink:title=" ">
<polygon fill="white" stroke="black" points="191,-515.5 191,-545.5 313,-545.5 313,-515.5 191,-515.5"/>
<text text-anchor="start" x="199" y="-533.5" font-family="Helvetica,sans-Serif" font-size="10.00">Control_Surface/Control</text>
<text text-anchor="middle" x="252" y="-522.5" font-family="Helvetica,sans-Serif" font-size="10.00">_Surface_Class.hpp</text>
</a>
</g>
</g>
<!-- Node0&#45;&gt;Node23 -->
<g id="edge37" class="edge"><title>Node0&#45;&gt;Node23</title>
<path fill="none" stroke="midnightblue" d="M591.66,-584.405C526.871,-574.314 402.359,-554.92 323.425,-542.625"/>
<polygon fill="midnightblue" stroke="midnightblue" points="323.498,-539.094 313.079,-541.014 322.421,-546.011 323.498,-539.094"/>
</g>
<!-- Node2 -->
<g id="node3" class="node"><title>Node2</title>
<g id="a_node3"><a xlink:href="../../df/dee/Debug_8hpp.html" target="_top" xlink:title=" ">
<polygon fill="white" stroke="black" points="556.5,-280.5 556.5,-299.5 657.5,-299.5 657.5,-280.5 556.5,-280.5"/>
<text text-anchor="middle" x="607" y="-287.5" font-family="Helvetica,sans-Serif" font-size="10.00">Helpers/Debug.hpp</text>
</a>
</g>
</g>
<!-- Node1&#45;&gt;Node2 -->
<g id="edge2" class="edge"><title>Node1&#45;&gt;Node2</title>
<path fill="none" stroke="midnightblue" d="M601.014,-459.438C582.537,-452.769 561.048,-441.453 550,-423 526.396,-383.577 566.208,-332.599 590.442,-307.067"/>
<polygon fill="midnightblue" stroke="midnightblue" points="593.15,-309.304 597.662,-299.718 588.157,-304.398 593.15,-309.304"/>
</g>
<!-- Node15 -->
<g id="node16" class="node"><title>Node15</title>
<g id="a_node16"><a xlink:href="../../d1/d93/Error_8hpp.html" target="_top" xlink:title=" ">
<polygon fill="white" stroke="black" points="682.5,-342 682.5,-361 775.5,-361 775.5,-342 682.5,-342"/>
<text text-anchor="middle" x="729" y="-349" font-family="Helvetica,sans-Serif" font-size="10.00">Helpers/Error.hpp</text>
</a>
</g>
</g>
<!-- Node1&#45;&gt;Node15 -->
<g id="edge18" class="edge"><title>Node1&#45;&gt;Node15</title>
<path fill="none" stroke="midnightblue" d="M664.311,-459.401C682.761,-452.565 705.175,-441.083 718,-423 728.622,-408.023 730.631,-386.756 730.441,-371.503"/>
<polygon fill="midnightblue" stroke="midnightblue" points="733.924,-371.046 729.972,-361.215 726.931,-371.364 733.924,-371.046"/>
</g>
<!-- Node16 -->
<g id="node17" class="node"><title>Node16</title>
<g id="a_node17"><a xlink:href="../../de/dd1/LinkedList_8hpp.html" target="_top" xlink:title=" ">
<polygon fill="white" stroke="black" points="389,-342 389,-361 505,-361 505,-342 389,-342"/>
<text text-anchor="middle" x="447" y="-349" font-family="Helvetica,sans-Serif" font-size="10.00">Helpers/LinkedList.hpp</text>
</a>
</g>
</g>
<!-- Node1&#45;&gt;Node16 -->
<g id="edge20" class="edge"><title>Node1&#45;&gt;Node16</title>
<path fill="none" stroke="midnightblue" d="M601.228,-459.453C576.751,-452.137 543.156,-440.064 517,-423 494.086,-408.05 472.692,-384.559 459.733,-368.852"/>
<polygon fill="midnightblue" stroke="midnightblue" points="462.438,-366.631 453.445,-361.03 456.982,-371.017 462.438,-366.631"/>
</g>
<!-- Node18 -->
<g id="node19" class="node"><title>Node18</title>
<g id="a_node19"><a xlink:href="../../d9/d46/Selectable_8hpp.html" target="_top" xlink:title=" ">
<polygon fill="white" stroke="black" points="765.5,-403.5 765.5,-422.5 890.5,-422.5 890.5,-403.5 765.5,-403.5"/>
<text text-anchor="middle" x="828" y="-410.5" font-family="Helvetica,sans-Serif" font-size="10.00">Selectors/Selectable.hpp</text>
</a>
</g>
</g>
<!-- Node1&#45;&gt;Node18 -->
<g id="edge24" class="edge"><title>Node1&#45;&gt;Node18</title>
<path fill="none" stroke="midnightblue" d="M664.74,-459.444C697.944,-450.201 750.991,-435.436 787.557,-425.257"/>
<polygon fill="midnightblue" stroke="midnightblue" points="788.709,-428.57 797.404,-422.516 786.832,-421.826 788.709,-428.57"/>
</g>
<!-- Node20 -->
<g id="node21" class="node"><title>Node20</title>
<g id="a_node21"><a xlink:href="../../de/d6e/BankableMIDIInput_8hpp.html" target="_top" xlink:title=" ">
<polygon fill="white" stroke="black" points="559,-403.5 559,-422.5 709,-422.5 709,-403.5 559,-403.5"/>
<text text-anchor="middle" x="634" y="-410.5" font-family="Helvetica,sans-Serif" font-size="10.00">Banks/BankableMIDIInput.hpp</text>
</a>
</g>
</g>
<!-- Node1&#45;&gt;Node20 -->
<g id="edge29" class="edge"><title>Node1&#45;&gt;Node20</title>
<path fill="none" stroke="midnightblue" d="M628.834,-459.083C627.324,-451.927 626.894,-441.635 627.542,-432.691"/>
<polygon fill="midnightblue" stroke="midnightblue" points="631.015,-433.126 628.869,-422.751 624.077,-432.2 631.015,-433.126"/>
</g>
<!-- Node3 -->
<g id="node4" class="node"><title>Node3</title>
<g id="a_node4"><a xlink:href="../../d2/dd5/SettingsWrapper_8hpp.html" target="_top" xlink:title=" ">
<polygon fill="white" stroke="black" points="524.5,-224.5 524.5,-243.5 671.5,-243.5 671.5,-224.5 524.5,-224.5"/>
<text text-anchor="middle" x="598" y="-231.5" font-family="Helvetica,sans-Serif" font-size="10.00">Settings/SettingsWrapper.hpp</text>
</a>
</g>
</g>
<!-- Node2&#45;&gt;Node3 -->
<g id="edge3" class="edge"><title>Node2&#45;&gt;Node3</title>
<path fill="none" stroke="midnightblue" d="M600.348,-280.083C597.675,-273.006 595.547,-262.861 594.686,-253.986"/>
<polygon fill="midnightblue" stroke="midnightblue" points="598.175,-253.622 594.328,-243.751 591.18,-253.867 598.175,-253.622"/>
</g>
<!-- Node12 -->
<g id="node13" class="node"><title>Node12</title>
<g id="a_node13"><a xlink:title=" ">
<polygon fill="white" stroke="#bfbfbf" points="353,-224.5 353,-243.5 401,-243.5 401,-224.5 353,-224.5"/>
<text text-anchor="middle" x="377" y="-231.5" font-family="Helvetica,sans-Serif" font-size="10.00">stdlib.h</text>
</a>
</g>
</g>
<!-- Node2&#45;&gt;Node12 -->
<g id="edge15" class="edge"><title>Node2&#45;&gt;Node12</title>
<path fill="none" stroke="midnightblue" d="M567.265,-280.433C529.497,-272.177 470.872,-259.069 411.108,-244.202"/>
<polygon fill="midnightblue" stroke="midnightblue" points="411.671,-240.735 401.12,-241.703 409.972,-247.525 411.671,-240.735"/>
</g>
<!-- Node13 -->
<g id="node14" class="node"><title>Node13</title>
<g id="a_node14"><a xlink:href="../../dd/d80/PrintStream_8hpp.html" target="_top" xlink:title=" ">
<polygon fill="white" stroke="black" points="419.5,-224.5 419.5,-243.5 506.5,-243.5 506.5,-224.5 419.5,-224.5"/>
<text text-anchor="middle" x="463" y="-231.5" font-family="Helvetica,sans-Serif" font-size="10.00">PrintStream.hpp</text>
</a>
</g>
</g>
<!-- Node2&#45;&gt;Node13 -->
<g id="edge16" class="edge"><title>Node2&#45;&gt;Node13</title>
<path fill="none" stroke="midnightblue" d="M584.183,-280.444C560.168,-271.438 522.171,-257.189 495.131,-247.049"/>
<polygon fill="midnightblue" stroke="midnightblue" points="496.303,-243.751 485.71,-243.516 493.845,-250.305 496.303,-243.751"/>
</g>
<!-- Node3&#45;&gt;Node2 -->
<g id="edge14" class="edge"><title>Node3&#45;&gt;Node2</title>
<path fill="none" stroke="midnightblue" d="M604.59,-243.751C607.27,-250.78 609.413,-260.91 610.294,-269.805"/>
<polygon fill="midnightblue" stroke="midnightblue" points="606.807,-270.222 610.68,-280.083 613.802,-269.958 606.807,-270.222"/>
</g>
<!-- Node4 -->
<g id="node5" class="node"><title>Node4</title>
<g id="a_node5"><a xlink:href="../../db/d02/Settings_8hpp.html" target="_top" xlink:title="All user settings and debugging options can be changed here.">
<polygon fill="white" stroke="black" points="599.5,-168.5 599.5,-187.5 670.5,-187.5 670.5,-168.5 599.5,-168.5"/>
<text text-anchor="middle" x="635" y="-175.5" font-family="Helvetica,sans-Serif" font-size="10.00">Settings.hpp</text>
</a>
</g>
</g>
<!-- Node3&#45;&gt;Node4 -->
<g id="edge4" class="edge"><title>Node3&#45;&gt;Node4</title>
<path fill="none" stroke="midnightblue" d="M604.11,-224.083C609.282,-216.534 616.846,-205.495 623.194,-196.23"/>
<polygon fill="midnightblue" stroke="midnightblue" points="626.239,-197.979 629.004,-187.751 620.464,-194.022 626.239,-197.979"/>
</g>
<!-- Node11 -->
<g id="node12" class="node"><title>Node11</title>
<g id="a_node12"><a xlink:href="../../d9/d98/TeensyUSBTypes_8hpp.html" target="_top" xlink:title=" ">
<polygon fill="white" stroke="black" points="429,-168.5 429,-187.5 581,-187.5 581,-168.5 429,-168.5"/>
<text text-anchor="middle" x="505" y="-175.5" font-family="Helvetica,sans-Serif" font-size="10.00">Helpers/TeensyUSBTypes.hpp</text>
</a>
</g>
</g>
<!-- Node3&#45;&gt;Node11 -->
<g id="edge13" class="edge"><title>Node3&#45;&gt;Node11</title>
<path fill="none" stroke="midnightblue" d="M583.058,-224.324C568.415,-215.822 545.866,-202.729 528.762,-192.797"/>
<polygon fill="midnightblue" stroke="midnightblue" points="530.31,-189.649 519.905,-187.655 526.795,-195.703 530.31,-189.649"/>
</g>
<!-- Node4&#45;&gt;Node5 -->
<g id="edge5" class="edge"><title>Node4&#45;&gt;Node5</title>
<path fill="none" stroke="midnightblue" d="M621.183,-168.324C607.767,-159.9 587.176,-146.971 571.414,-137.074"/>
<polygon fill="midnightblue" stroke="midnightblue" points="573.113,-134.008 562.783,-131.655 569.391,-139.936 573.113,-134.008"/>
</g>
<!-- Node6 -->
<g id="node7" class="node"><title>Node6</title>
<g id="a_node7"><a xlink:href="../../d7/d42/Channel_8hpp.html" target="_top" xlink:title=" ">
<polygon fill="white" stroke="black" points="545.5,-56.5 545.5,-75.5 616.5,-75.5 616.5,-56.5 545.5,-56.5"/>
<text text-anchor="middle" x="581" y="-63.5" font-family="Helvetica,sans-Serif" font-size="10.00">Channel.hpp</text>
</a>
</g>
</g>
<!-- Node5&#45;&gt;Node6 -->
<g id="edge6" class="edge"><title>Node5&#45;&gt;Node6</title>
<path fill="none" stroke="midnightblue" d="M554.284,-112.083C558.711,-104.613 565.163,-93.7244 570.618,-84.5199"/>
<polygon fill="midnightblue" stroke="midnightblue" points="573.727,-86.1383 575.814,-75.7511 567.705,-82.5697 573.727,-86.1383"/>
</g>
<!-- Node7 -->
<g id="node8" class="node"><title>Node7</title>
<g id="a_node8"><a xlink:title=" ">
<polygon fill="white" stroke="#bfbfbf" points="588.5,-0.5 588.5,-19.5 637.5,-19.5 637.5,-0.5 588.5,-0.5"/>
<text text-anchor="middle" x="613" y="-7.5" font-family="Helvetica,sans-Serif" font-size="10.00">stdint.h</text>
</a>
</g>
</g>
<!-- Node5&#45;&gt;Node7 -->
<g id="edge12" class="edge"><title>Node5&#45;&gt;Node7</title>
<path fill="none" stroke="midnightblue" d="M577.015,-112.397C594.174,-105.515 614.748,-93.984 625,-76 633.242,-61.5413 628.294,-42.6031 622.456,-28.9015"/>
<polygon fill="midnightblue" stroke="midnightblue" points="625.486,-27.1242 618.021,-19.6055 619.168,-30.1381 625.486,-27.1242"/>
</g>
<!-- Node8 -->
<g id="node9" class="node"><title>Node8</title>
<g id="a_node9"><a xlink:href="../../dc/d50/Frequency_8hpp.html" target="_top" xlink:title=" ">
<polygon fill="white" stroke="black" points="294.5,-56.5 294.5,-75.5 375.5,-75.5 375.5,-56.5 294.5,-56.5"/>
<text text-anchor="middle" x="335" y="-63.5" font-family="Helvetica,sans-Serif" font-size="10.00">Frequency.hpp</text>
</a>
</g>
</g>
<!-- Node5&#45;&gt;Node8 -->
<g id="edge8" class="edge"><title>Node5&#45;&gt;Node8</title>
<path fill="none" stroke="midnightblue" d="M515.091,-112.444C478.151,-103.122 418.946,-88.1828 378.582,-77.9972"/>
<polygon fill="midnightblue" stroke="midnightblue" points="379.303,-74.5695 368.75,-75.5164 377.59,-81.3568 379.303,-74.5695"/>
</g>
<!-- Node9 -->
<g id="node10" class="node"><title>Node9</title>
<g id="a_node10"><a xlink:href="../../de/d76/Array_8hpp.html" target="_top" xlink:title=" ">
<polygon fill="white" stroke="black" points="393.5,-56.5 393.5,-75.5 488.5,-75.5 488.5,-56.5 393.5,-56.5"/>
<text text-anchor="middle" x="441" y="-63.5" font-family="Helvetica,sans-Serif" font-size="10.00">Helpers/Array.hpp</text>
</a>
</g>
</g>
<!-- Node5&#45;&gt;Node9 -->
<g id="edge9" class="edge"><title>Node5&#45;&gt;Node9</title>
<path fill="none" stroke="midnightblue" d="M531.648,-112.324C514.328,-103.664 487.485,-90.2424 467.498,-80.249"/>
<polygon fill="midnightblue" stroke="midnightblue" points="468.819,-76.9962 458.309,-75.6545 465.688,-83.2572 468.819,-76.9962"/>
</g>
<!-- Node10 -->
<g id="node11" class="node"><title>Node10</title>
<g id="a_node11"><a xlink:title=" ">
<polygon fill="white" stroke="#bfbfbf" points="415,-0.5 415,-19.5 467,-19.5 467,-0.5 415,-0.5"/>
<text text-anchor="middle" x="441" y="-7.5" font-family="Helvetica,sans-Serif" font-size="10.00">stddef.h</text>
</a>
</g>
</g>
<!-- Node5&#45;&gt;Node10 -->
<g id="edge11" class="edge"><title>Node5&#45;&gt;Node10</title>
<path fill="none" stroke="midnightblue" d="M542.83,-112.084C533.617,-99.0682 515.374,-74.4137 497,-56 486.017,-44.993 472.45,-34.0342 461.421,-25.6872"/>
<polygon fill="midnightblue" stroke="midnightblue" points="463.334,-22.7487 453.217,-19.602 459.163,-28.3708 463.334,-22.7487"/>
</g>
<!-- Node6&#45;&gt;Node7 -->
<g id="edge7" class="edge"><title>Node6&#45;&gt;Node7</title>
<path fill="none" stroke="midnightblue" d="M586.284,-56.083C590.711,-48.6127 597.163,-37.7244 602.618,-28.5199"/>
<polygon fill="midnightblue" stroke="midnightblue" points="605.727,-30.1383 607.814,-19.7511 599.705,-26.5697 605.727,-30.1383"/>
</g>
<!-- Node9&#45;&gt;Node10 -->
<g id="edge10" class="edge"><title>Node9&#45;&gt;Node10</title>
<path fill="none" stroke="midnightblue" d="M441,-56.083C441,-49.0059 441,-38.8611 441,-29.9865"/>
<polygon fill="midnightblue" stroke="midnightblue" points="444.5,-29.751 441,-19.7511 437.5,-29.7511 444.5,-29.751"/>
</g>
<!-- Node14 -->
<g id="node15" class="node"><title>Node14</title>
<g id="a_node15"><a xlink:title=" ">
<polygon fill="white" stroke="#bfbfbf" points="353,-168.5 353,-187.5 411,-187.5 411,-168.5 353,-168.5"/>
<text text-anchor="middle" x="382" y="-175.5" font-family="Helvetica,sans-Serif" font-size="10.00">Arduino.h</text>
</a>
</g>
</g>
<!-- Node13&#45;&gt;Node14 -->
<g id="edge17" class="edge"><title>Node13&#45;&gt;Node14</title>
<path fill="none" stroke="midnightblue" d="M449.986,-224.324C437.468,-215.979 418.318,-203.212 403.529,-193.352"/>
<polygon fill="midnightblue" stroke="midnightblue" points="405.244,-190.289 394.982,-187.655 401.361,-196.114 405.244,-190.289"/>
</g>
<!-- Node15&#45;&gt;Node2 -->
<g id="edge19" class="edge"><title>Node15&#45;&gt;Node2</title>
<path fill="none" stroke="midnightblue" d="M711.52,-341.975C691.137,-332.034 657.225,-315.495 633.575,-303.961"/>
<polygon fill="midnightblue" stroke="midnightblue" points="634.969,-300.747 624.447,-299.509 631.901,-307.038 634.969,-300.747"/>
</g>
<!-- Node16&#45;&gt;Node2 -->
<g id="edge21" class="edge"><title>Node16&#45;&gt;Node2</title>
<path fill="none" stroke="midnightblue" d="M469.924,-341.975C497.37,-331.769 543.516,-314.608 574.599,-303.049"/>
<polygon fill="midnightblue" stroke="midnightblue" points="575.965,-306.275 584.118,-299.509 573.526,-299.714 575.965,-306.275"/>
</g>
<!-- Node16&#45;&gt;Node12 -->
<g id="edge22" class="edge"><title>Node16&#45;&gt;Node12</title>
<path fill="none" stroke="midnightblue" d="M448.863,-341.567C451.311,-327.466 454.101,-299.636 443,-280 435.126,-266.071 420.943,-255.557 407.738,-248.209"/>
<polygon fill="midnightblue" stroke="midnightblue" points="409.334,-245.094 398.842,-243.625 406.128,-251.317 409.334,-245.094"/>
</g>
<!-- Node17 -->
<g id="node18" class="node"><title>Node17</title>
<g id="a_node18"><a xlink:title=" ">
<polygon fill="white" stroke="#bfbfbf" points="491.5,-280.5 491.5,-299.5 538.5,-299.5 538.5,-280.5 491.5,-280.5"/>
<text text-anchor="middle" x="515" y="-287.5" font-family="Helvetica,sans-Serif" font-size="10.00">iterator</text>
</a>
</g>
</g>
<!-- Node16&#45;&gt;Node17 -->
<g id="edge23" class="edge"><title>Node16&#45;&gt;Node17</title>
<path fill="none" stroke="midnightblue" d="M456.743,-341.975C467.347,-332.697 484.519,-317.671 497.479,-306.331"/>
<polygon fill="midnightblue" stroke="midnightblue" points="500.054,-308.728 505.275,-299.509 495.445,-303.46 500.054,-308.728"/>
</g>
<!-- Node18&#45;&gt;Node5 -->
<g id="edge25" class="edge"><title>Node18&#45;&gt;Node5</title>
<path fill="none" stroke="midnightblue" d="M825.057,-403.312C818.648,-383.592 804,-333.832 804,-291 804,-291 804,-291 804,-233 804,-142.815 667.862,-125.694 594.529,-123.014"/>
<polygon fill="midnightblue" stroke="midnightblue" points="594.286,-119.506 584.189,-122.716 594.084,-126.503 594.286,-119.506"/>
</g>
<!-- Node18&#45;&gt;Node7 -->
<g id="edge27" class="edge"><title>Node18&#45;&gt;Node7</title>
<path fill="none" stroke="midnightblue" d="M829.717,-403.235C833.455,-383.356 842,-333.294 842,-291 842,-291 842,-291 842,-121 842,-35.7691 711.515,-16.5334 647.539,-12.2245"/>
<polygon fill="midnightblue" stroke="midnightblue" points="647.695,-8.72768 637.507,-11.6348 647.284,-15.7156 647.695,-8.72768"/>
</g>
<!-- Node18&#45;&gt;Node15 -->
<g id="edge26" class="edge"><title>Node18&#45;&gt;Node15</title>
<path fill="none" stroke="midnightblue" d="M813.816,-403.475C797.642,-393.755 770.974,-377.727 751.857,-366.237"/>
<polygon fill="midnightblue" stroke="midnightblue" points="753.532,-363.161 743.158,-361.009 749.926,-369.16 753.532,-363.161"/>
</g>
<!-- Node19 -->
<g id="node20" class="node"><title>Node19</title>
<g id="a_node20"><a xlink:href="../../d7/dd7/Helpers_8hpp.html" target="_top" xlink:title=" ">
<polygon fill="white" stroke="black" points="870,-342 870,-361 976,-361 976,-342 870,-342"/>
<text text-anchor="middle" x="923" y="-349" font-family="Helvetica,sans-Serif" font-size="10.00">Helpers/Helpers.hpp</text>
</a>
</g>
</g>
<!-- Node18&#45;&gt;Node19 -->
<g id="edge28" class="edge"><title>Node18&#45;&gt;Node19</title>
<path fill="none" stroke="midnightblue" d="M841.611,-403.475C857.061,-393.799 882.49,-377.872 900.816,-366.394"/>
<polygon fill="midnightblue" stroke="midnightblue" points="902.797,-369.283 909.414,-361.009 899.081,-363.351 902.797,-369.283"/>
</g>
<!-- Node20&#45;&gt;Node1 -->
<g id="edge30" class="edge"><title>Node20&#45;&gt;Node1</title>
<path fill="none" stroke="midnightblue" d="M639.131,-422.751C640.657,-429.858 641.104,-440.136 640.472,-449.101"/>
<polygon fill="midnightblue" stroke="midnightblue" points="636.993,-448.713 639.166,-459.083 643.934,-449.622 636.993,-448.713"/>
</g>
<!-- Node20&#45;&gt;Node2 -->
<g id="edge35" class="edge"><title>Node20&#45;&gt;Node2</title>
<path fill="none" stroke="midnightblue" d="M632.058,-403.298C627.699,-383.763 617.056,-336.065 611.139,-309.547"/>
<polygon fill="midnightblue" stroke="midnightblue" points="614.518,-308.621 608.924,-299.623 607.686,-310.145 614.518,-308.621"/>
</g>
<!-- Node20&#45;&gt;Node16 -->
<g id="edge36" class="edge"><title>Node20&#45;&gt;Node16</title>
<path fill="none" stroke="midnightblue" d="M607.207,-403.475C574.714,-393.136 519.792,-375.661 483.462,-364.102"/>
<polygon fill="midnightblue" stroke="midnightblue" points="484.333,-360.706 473.743,-361.009 482.211,-367.376 484.333,-360.706"/>
</g>
<!-- Node21 -->
<g id="node22" class="node"><title>Node21</title>
<g id="a_node22"><a xlink:href="../../dd/d1f/BankConfig_8hpp.html" target="_top" xlink:title=" ">
<polygon fill="white" stroke="black" points="690,-224.5 690,-243.5 776,-243.5 776,-224.5 690,-224.5"/>
<text text-anchor="middle" x="733" y="-231.5" font-family="Helvetica,sans-Serif" font-size="10.00">BankConfig.hpp</text>
</a>
</g>
</g>
<!-- Node20&#45;&gt;Node21 -->
<g id="edge31" class="edge"><title>Node20&#45;&gt;Node21</title>
<path fill="none" stroke="midnightblue" d="M638.159,-403.475C645.113,-389.321 659.653,-360.14 673,-336 689.538,-306.089 710.135,-272.059 722.39,-252.119"/>
<polygon fill="midnightblue" stroke="midnightblue" points="725.409,-253.891 727.681,-243.542 719.452,-250.215 725.409,-253.891"/>
</g>
<!-- Node22 -->
<g id="node23" class="node"><title>Node22</title>
<g id="a_node23"><a xlink:href="../../d8/d38/MIDICNChannelAddress_8hpp.html" target="_top" xlink:title=" ">
<polygon fill="white" stroke="black" points="271.5,-280.5 271.5,-299.5 434.5,-299.5 434.5,-280.5 271.5,-280.5"/>
<text text-anchor="middle" x="353" y="-287.5" font-family="Helvetica,sans-Serif" font-size="10.00">Def/MIDICNChannelAddress.hpp</text>
</a>
</g>
</g>
<!-- Node20&#45;&gt;Node22 -->
<g id="edge33" class="edge"><title>Node20&#45;&gt;Node22</title>
<path fill="none" stroke="midnightblue" d="M623.043,-403.492C602.652,-388.027 557.035,-355.144 514,-336 479.544,-320.672 438.588,-309.311 406.607,-301.839"/>
<polygon fill="midnightblue" stroke="midnightblue" points="407.086,-298.358 396.558,-299.549 405.531,-305.184 407.086,-298.358"/>
</g>
<!-- Node21&#45;&gt;Node5 -->
<g id="edge32" class="edge"><title>Node21&#45;&gt;Node5</title>
<path fill="none" stroke="midnightblue" d="M727.856,-224.113C719.382,-210.221 701.197,-183.363 679,-168 653.489,-150.343 620.394,-139.019 593.981,-132.147"/>
<polygon fill="midnightblue" stroke="midnightblue" points="594.763,-128.735 584.215,-129.727 593.08,-135.529 594.763,-128.735"/>
</g>
<!-- Node22&#45;&gt;Node5 -->
<g id="edge34" class="edge"><title>Node22&#45;&gt;Node5</title>
<path fill="none" stroke="midnightblue" d="M348.703,-280.196C338.774,-258.44 317.068,-201.486 344,-168 363.63,-143.593 449.349,-131.673 503.538,-126.476"/>
<polygon fill="midnightblue" stroke="midnightblue" points="503.957,-129.952 513.596,-125.553 503.318,-122.981 503.957,-129.952"/>
</g>
<!-- Node24 -->
<g id="node25" class="node"><title>Node24</title>
<g id="a_node25"><a xlink:href="../../d6/d04/MIDI__Interface_8hpp.html" target="_top" xlink:title=" ">
<polygon fill="white" stroke="black" points="0,-336.5 0,-366.5 112,-366.5 112,-336.5 0,-336.5"/>
<text text-anchor="start" x="8" y="-354.5" font-family="Helvetica,sans-Serif" font-size="10.00">MIDI_Interfaces/MIDI</text>
<text text-anchor="middle" x="56" y="-343.5" font-family="Helvetica,sans-Serif" font-size="10.00">_Interface.hpp</text>
</a>
</g>
</g>
<!-- Node23&#45;&gt;Node24 -->
<g id="edge38" class="edge"><title>Node23&#45;&gt;Node24</title>
<path fill="none" stroke="midnightblue" d="M210.567,-515.459C169.698,-499.467 108.489,-469.381 74,-423 64.0891,-409.672 59.6106,-391.437 57.5986,-376.852"/>
<polygon fill="midnightblue" stroke="midnightblue" points="61.0402,-376.12 56.4917,-366.551 54.0803,-376.868 61.0402,-376.12"/>
</g>
<!-- Node26 -->
<g id="node27" class="node"><title>Node26</title>
<g id="a_node27"><a xlink:href="../../d6/dd2/DisplayElement_8hpp.html" target="_top" xlink:title=" ">
<polygon fill="white" stroke="black" points="330,-459.5 330,-478.5 470,-478.5 470,-459.5 330,-459.5"/>
<text text-anchor="middle" x="400" y="-466.5" font-family="Helvetica,sans-Serif" font-size="10.00">Display/DisplayElement.hpp</text>
</a>
</g>
</g>
<!-- Node23&#45;&gt;Node26 -->
<g id="edge46" class="edge"><title>Node23&#45;&gt;Node26</title>
<path fill="none" stroke="midnightblue" d="M287.074,-515.399C312.017,-505.372 345.208,-492.028 369.144,-482.405"/>
<polygon fill="midnightblue" stroke="midnightblue" points="370.492,-485.635 378.465,-478.658 367.881,-479.141 370.492,-485.635"/>
</g>
<!-- Node27 -->
<g id="node28" class="node"><title>Node27</title>
<g id="a_node28"><a xlink:href="../../dc/d77/DisplayInterface_8hpp.html" target="_top" xlink:title=" ">
<polygon fill="white" stroke="black" points="83.5,-403.5 83.5,-422.5 226.5,-422.5 226.5,-403.5 83.5,-403.5"/>
<text text-anchor="middle" x="155" y="-410.5" font-family="Helvetica,sans-Serif" font-size="10.00">Display/DisplayInterface.hpp</text>
</a>
</g>
</g>
<!-- Node23&#45;&gt;Node27 -->
<g id="edge52" class="edge"><title>Node23&#45;&gt;Node27</title>
<path fill="none" stroke="midnightblue" d="M226.382,-515.395C212.092,-506.485 194.842,-493.86 183,-479 172.003,-465.201 164.532,-446.428 160.093,-432.605"/>
<polygon fill="midnightblue" stroke="midnightblue" points="163.374,-431.36 157.173,-422.77 156.664,-433.352 163.374,-431.36"/>
</g>
<!-- Node29 -->
<g id="node30" class="node"><title>Node29</title>
<g id="a_node30"><a xlink:href="../../d7/d74/MillisTimer_8hpp.html" target="_top" xlink:title=" ">
<polygon fill="white" stroke="black" points="192.5,-459.5 192.5,-478.5 311.5,-478.5 311.5,-459.5 192.5,-459.5"/>
<text text-anchor="middle" x="252" y="-466.5" font-family="Helvetica,sans-Serif" font-size="10.00">Helpers/MillisTimer.hpp</text>
</a>
</g>
</g>
<!-- Node23&#45;&gt;Node29 -->
<g id="edge53" class="edge"><title>Node23&#45;&gt;Node29</title>
<path fill="none" stroke="midnightblue" d="M252,-515.399C252,-507.466 252,-497.458 252,-488.858"/>
<polygon fill="midnightblue" stroke="midnightblue" points="255.5,-488.658 252,-478.658 248.5,-488.658 255.5,-488.658"/>
</g>
<!-- Node24&#45;&gt;Node5 -->
<g id="edge39" class="edge"><title>Node24&#45;&gt;Node5</title>
<path fill="none" stroke="midnightblue" d="M37.0483,-336.448C20.5498,-322.403 0.884386,-300.067 12,-280 57.4726,-197.908 102.592,-199.479 191,-168 298.491,-129.726 434.26,-123.136 503.647,-122.518"/>
<polygon fill="midnightblue" stroke="midnightblue" points="503.813,-126.018 513.795,-122.467 503.778,-119.018 503.813,-126.018"/>
</g>
<!-- Node24&#45;&gt;Node22 -->
<g id="edge40" class="edge"><title>Node24&#45;&gt;Node22</title>
<path fill="none" stroke="midnightblue" d="M112.15,-338.069C115.481,-337.361 118.783,-336.667 122,-336 181.823,-323.603 250.571,-310.336 297.408,-301.444"/>
<polygon fill="midnightblue" stroke="midnightblue" points="298.179,-304.86 307.352,-299.56 296.876,-297.983 298.179,-304.86"/>
</g>
<!-- Node25 -->
<g id="node26" class="node"><title>Node25</title>
<g id="a_node26"><a xlink:href="../../d7/d2d/MIDI__Parser_8hpp.html" target="_top" xlink:title=" ">
<polygon fill="white" stroke="black" points="21.5,-280.5 21.5,-299.5 176.5,-299.5 176.5,-280.5 21.5,-280.5"/>
<text text-anchor="middle" x="99" y="-287.5" font-family="Helvetica,sans-Serif" font-size="10.00">MIDI_Parsers/MIDI_Parser.hpp</text>
</a>
</g>
</g>
<!-- Node24&#45;&gt;Node25 -->
<g id="edge41" class="edge"><title>Node24&#45;&gt;Node25</title>
<path fill="none" stroke="midnightblue" d="M66.1904,-336.399C72.3744,-327.842 80.3035,-316.871 86.8176,-307.857"/>
<polygon fill="midnightblue" stroke="midnightblue" points="89.7224,-309.813 92.7431,-299.658 84.0489,-305.713 89.7224,-309.813"/>
</g>
<!-- Node25&#45;&gt;Node3 -->
<g id="edge45" class="edge"><title>Node25&#45;&gt;Node3</title>
<path fill="none" stroke="midnightblue" d="M176.821,-280.588C258.195,-271.79 389.927,-257.545 514.158,-244.091"/>
<polygon fill="midnightblue" stroke="midnightblue" points="514.669,-247.556 524.234,-243 513.915,-240.597 514.669,-247.556"/>
</g>
<!-- Node25&#45;&gt;Node7 -->
<g id="edge43" class="edge"><title>Node25&#45;&gt;Node7</title>
<path fill="none" stroke="midnightblue" d="M99.9151,-280.454C101.813,-261.971 106,-216.889 106,-179 106,-179 106,-179 106,-121 106,-36.3616 202.835,-76.3105 285,-56 390.013,-30.0418 517.893,-17.9298 578.264,-13.335"/>
<polygon fill="midnightblue" stroke="midnightblue" points="578.674,-16.8144 588.389,-12.5873 578.158,-9.83338 578.674,-16.8144"/>
</g>
<!-- Node25&#45;&gt;Node10 -->
<g id="edge42" class="edge"><title>Node25&#45;&gt;Node10</title>
<path fill="none" stroke="midnightblue" d="M107.597,-280.465C124.187,-263.039 159,-221.419 159,-179 159,-179 159,-179 159,-121 159,-68.8019 328.814,-31.3758 404.89,-17.2281"/>
<polygon fill="midnightblue" stroke="midnightblue" points="405.767,-20.6261 414.976,-15.3872 404.51,-13.7398 405.767,-20.6261"/>
</g>
<!-- Node25&#45;&gt;Node12 -->
<g id="edge44" class="edge"><title>Node25&#45;&gt;Node12</title>
<path fill="none" stroke="midnightblue" d="M143.05,-280.444C198.509,-269.671 292.596,-251.395 342.894,-241.625"/>
<polygon fill="midnightblue" stroke="midnightblue" points="343.784,-245.018 352.933,-239.675 342.449,-238.146 343.784,-245.018"/>
</g>
<!-- Node26&#45;&gt;Node16 -->
<g id="edge51" class="edge"><title>Node26&#45;&gt;Node16</title>
<path fill="none" stroke="midnightblue" d="M403.533,-459.319C411.154,-440.59 429.28,-396.046 439.556,-370.792"/>
<polygon fill="midnightblue" stroke="midnightblue" points="442.899,-371.864 443.426,-361.282 436.415,-369.225 442.899,-371.864"/>
</g>
<!-- Node26&#45;&gt;Node27 -->
<g id="edge47" class="edge"><title>Node26&#45;&gt;Node27</title>
<path fill="none" stroke="midnightblue" d="M361.179,-459.444C318.439,-450.023 249.668,-434.866 203.434,-424.675"/>
<polygon fill="midnightblue" stroke="midnightblue" points="204.158,-421.251 193.639,-422.516 202.652,-428.087 204.158,-421.251"/>
</g>
<!-- Node27&#45;&gt;Node5 -->
<g id="edge48" class="edge"><title>Node27&#45;&gt;Node5</title>
<path fill="none" stroke="midnightblue" d="M162.148,-403.214C168.913,-394.5 178.915,-380.53 185,-367 199.327,-335.146 205,-325.928 205,-291 205,-291 205,-291 205,-233 205,-170.978 410.437,-139.124 503.793,-127.85"/>
<polygon fill="midnightblue" stroke="midnightblue" points="504.282,-131.317 513.803,-126.668 503.461,-124.365 504.282,-131.317"/>
</g>
<!-- Node27&#45;&gt;Node16 -->
<g id="edge49" class="edge"><title>Node27&#45;&gt;Node16</title>
<path fill="none" stroke="midnightblue" d="M196.836,-403.475C249.202,-392.805 338.869,-374.534 395.427,-363.009"/>
<polygon fill="midnightblue" stroke="midnightblue" points="396.141,-366.435 405.241,-361.009 394.744,-359.576 396.141,-366.435"/>
</g>
<!-- Node28 -->
<g id="node29" class="node"><title>Node28</title>
<g id="a_node29"><a xlink:title=" ">
<polygon fill="white" stroke="#bfbfbf" points="131.5,-342 131.5,-361 176.5,-361 176.5,-342 131.5,-342"/>
<text text-anchor="middle" x="154" y="-349" font-family="Helvetica,sans-Serif" font-size="10.00">Print.h</text>
</a>
</g>
</g>
<!-- Node27&#45;&gt;Node28 -->
<g id="edge50" class="edge"><title>Node27&#45;&gt;Node28</title>
<path fill="none" stroke="midnightblue" d="M154.857,-403.475C154.716,-395.08 154.495,-381.981 154.314,-371.163"/>
<polygon fill="midnightblue" stroke="midnightblue" points="157.811,-370.949 154.143,-361.009 150.812,-371.067 157.811,-370.949"/>
</g>
<!-- Node29&#45;&gt;Node14 -->
<g id="edge54" class="edge"><title>Node29&#45;&gt;Node14</title>
<path fill="none" stroke="midnightblue" d="M250.124,-459.144C244.649,-431.082 230.959,-342.316 262,-280 282.18,-239.488 326.741,-209.006 355.517,-192.608"/>
<polygon fill="midnightblue" stroke="midnightblue" points="357.545,-195.486 364.612,-187.592 354.165,-189.356 357.545,-195.486"/>
</g>
</g>
</svg>
