<?xml version="1.0" encoding="UTF-8" standalone="no"?>
<!DOCTYPE svg PUBLIC "-//W3C//DTD SVG 1.1//EN"
 "http://www.w3.org/Graphics/SVG/1.1/DTD/svg11.dtd">
<!-- Generated by graphviz version 2.38.0 (20140413.2041)
 -->
<!-- Title: DigitalCCSender.hpp Pages: 1 -->
<svg width="1082pt" height="140pt"
 viewBox="0.00 0.00 1081.50 140.00" xmlns="http://www.w3.org/2000/svg" xmlns:xlink="http://www.w3.org/1999/xlink">
<g id="graph0" class="graph" transform="scale(1 1) rotate(0) translate(4 136)">
<title>DigitalCCSender.hpp</title>
<polygon fill="white" stroke="none" points="-4,4 -4,-136 1077.5,-136 1077.5,4 -4,4"/>
<!-- Node22 -->
<g id="node1" class="node"><title>Node22</title>
<g id="a_node1"><a xlink:title=" ">
<polygon fill="#bfbfbf" stroke="black" points="511.5,-112.5 511.5,-131.5 620.5,-131.5 620.5,-112.5 511.5,-112.5"/>
<text text-anchor="middle" x="566" y="-119.5" font-family="Helvetica,sans-Serif" font-size="10.00">DigitalCCSender.hpp</text>
</a>
</g>
</g>
<!-- Node23 -->
<g id="node2" class="node"><title>Node23</title>
<g id="a_node2"><a xlink:href="../../db/d15/Bankable_2CCButton_8hpp.html" target="_top" xlink:title=" ">
<polygon fill="white" stroke="black" points="867.5,-56.5 867.5,-75.5 946.5,-75.5 946.5,-56.5 867.5,-56.5"/>
<text text-anchor="middle" x="907" y="-63.5" font-family="Helvetica,sans-Serif" font-size="10.00">CCButton.hpp</text>
</a>
</g>
</g>
<!-- Node22&#45;&gt;Node23 -->
<g id="edge1" class="edge"><title>Node22&#45;&gt;Node23</title>
<path fill="none" stroke="midnightblue" d="M630.623,-111.7C690.057,-102.998 780.589,-89.3687 859,-76 861.758,-75.5298 864.603,-75.0312 867.466,-74.5194"/>
<polygon fill="midnightblue" stroke="midnightblue" points="630.017,-108.251 620.628,-113.159 631.029,-115.177 630.017,-108.251"/>
</g>
<!-- Node26 -->
<g id="node5" class="node"><title>Node26</title>
<g id="a_node5"><a xlink:href="../../d2/dac/Bankable_2CCButtonLatching_8hpp.html" target="_top" xlink:title=" ">
<polygon fill="white" stroke="black" points="52,-56.5 52,-75.5 168,-75.5 168,-56.5 52,-56.5"/>
<text text-anchor="middle" x="110" y="-63.5" font-family="Helvetica,sans-Serif" font-size="10.00">CCButtonLatching.hpp</text>
</a>
</g>
</g>
<!-- Node22&#45;&gt;Node26 -->
<g id="edge4" class="edge"><title>Node22&#45;&gt;Node26</title>
<path fill="none" stroke="midnightblue" d="M501.141,-113.865C423.886,-105.282 290.951,-90.2432 177,-76 174.089,-75.6361 171.107,-75.2574 168.096,-74.8703"/>
<polygon fill="midnightblue" stroke="midnightblue" points="500.879,-117.358 511.204,-114.982 501.651,-110.4 500.879,-117.358"/>
</g>
<!-- Node28 -->
<g id="node7" class="node"><title>Node28</title>
<g id="a_node7"><a xlink:href="../../d9/d55/Bankable_2CCButtonMatrix_8hpp.html" target="_top" xlink:title=" ">
<polygon fill="white" stroke="black" points="186,-56.5 186,-75.5 292,-75.5 292,-56.5 186,-56.5"/>
<text text-anchor="middle" x="239" y="-63.5" font-family="Helvetica,sans-Serif" font-size="10.00">CCButtonMatrix.hpp</text>
</a>
</g>
</g>
<!-- Node22&#45;&gt;Node28 -->
<g id="edge7" class="edge"><title>Node22&#45;&gt;Node28</title>
<path fill="none" stroke="midnightblue" d="M504.177,-110.791C442.388,-100.587 348.472,-85.078 290.572,-75.5164"/>
<polygon fill="midnightblue" stroke="midnightblue" points="503.749,-114.267 514.186,-112.444 504.89,-107.361 503.749,-114.267"/>
</g>
<!-- Node30 -->
<g id="node9" class="node"><title>Node30</title>
<g id="a_node9"><a xlink:href="../../d7/d16/Bankable_2CCButtons_8hpp.html" target="_top" xlink:title=" ">
<polygon fill="white" stroke="black" points="310,-56.5 310,-75.5 394,-75.5 394,-56.5 310,-56.5"/>
<text text-anchor="middle" x="352" y="-63.5" font-family="Helvetica,sans-Serif" font-size="10.00">CCButtons.hpp</text>
</a>
</g>
</g>
<!-- Node22&#45;&gt;Node30 -->
<g id="edge10" class="edge"><title>Node22&#45;&gt;Node30</title>
<path fill="none" stroke="midnightblue" d="M522.245,-109.959C481.826,-99.7598 422.627,-84.8217 385.75,-75.5164"/>
<polygon fill="midnightblue" stroke="midnightblue" points="521.539,-113.39 532.091,-112.444 523.251,-106.603 521.539,-113.39"/>
</g>
<!-- Node32 -->
<g id="node11" class="node"><title>Node32</title>
<g id="a_node11"><a xlink:href="../../d3/dd8/CCButton_8hpp.html" target="_top" xlink:title=" ">
<polygon fill="white" stroke="black" points="411.5,-56.5 411.5,-75.5 490.5,-75.5 490.5,-56.5 411.5,-56.5"/>
<text text-anchor="middle" x="451" y="-63.5" font-family="Helvetica,sans-Serif" font-size="10.00">CCButton.hpp</text>
</a>
</g>
</g>
<!-- Node22&#45;&gt;Node32 -->
<g id="edge13" class="edge"><title>Node22&#45;&gt;Node32</title>
<path fill="none" stroke="midnightblue" d="M538.519,-108.096C517.034,-98.0073 487.778,-84.2697 469.137,-75.5164"/>
<polygon fill="midnightblue" stroke="midnightblue" points="537.238,-111.361 547.778,-112.444 540.214,-105.025 537.238,-111.361"/>
</g>
<!-- Node34 -->
<g id="node13" class="node"><title>Node34</title>
<g id="a_node13"><a xlink:href="../../d0/d04/CCButtonLatching_8hpp.html" target="_top" xlink:title=" ">
<polygon fill="white" stroke="black" points="508,-56.5 508,-75.5 624,-75.5 624,-56.5 508,-56.5"/>
<text text-anchor="middle" x="566" y="-63.5" font-family="Helvetica,sans-Serif" font-size="10.00">CCButtonLatching.hpp</text>
</a>
</g>
</g>
<!-- Node22&#45;&gt;Node34 -->
<g id="edge16" class="edge"><title>Node22&#45;&gt;Node34</title>
<path fill="none" stroke="midnightblue" d="M566,-101.805C566,-92.9102 566,-82.7798 566,-75.7511"/>
<polygon fill="midnightblue" stroke="midnightblue" points="562.5,-102.083 566,-112.083 569.5,-102.083 562.5,-102.083"/>
</g>
<!-- Node36 -->
<g id="node15" class="node"><title>Node36</title>
<g id="a_node15"><a xlink:href="../../d5/d9b/CCButtonMatrix_8hpp.html" target="_top" xlink:title=" ">
<polygon fill="white" stroke="black" points="642,-56.5 642,-75.5 748,-75.5 748,-56.5 642,-56.5"/>
<text text-anchor="middle" x="695" y="-63.5" font-family="Helvetica,sans-Serif" font-size="10.00">CCButtonMatrix.hpp</text>
</a>
</g>
</g>
<!-- Node22&#45;&gt;Node36 -->
<g id="edge19" class="edge"><title>Node22&#45;&gt;Node36</title>
<path fill="none" stroke="midnightblue" d="M595.854,-108.503C620.038,-98.3795 653.462,-84.388 674.655,-75.5164"/>
<polygon fill="midnightblue" stroke="midnightblue" points="594.313,-105.354 586.44,-112.444 597.016,-111.811 594.313,-105.354"/>
</g>
<!-- Node38 -->
<g id="node17" class="node"><title>Node38</title>
<g id="a_node17"><a xlink:href="../../d2/d03/CCButtons_8hpp.html" target="_top" xlink:title=" ">
<polygon fill="white" stroke="black" points="766,-56.5 766,-75.5 850,-75.5 850,-56.5 766,-56.5"/>
<text text-anchor="middle" x="808" y="-63.5" font-family="Helvetica,sans-Serif" font-size="10.00">CCButtons.hpp</text>
</a>
</g>
</g>
<!-- Node22&#45;&gt;Node38 -->
<g id="edge22" class="edge"><title>Node22&#45;&gt;Node38</title>
<path fill="none" stroke="midnightblue" d="M614.323,-110.217C660.051,-100.013 727.779,-84.9006 769.834,-75.5164"/>
<polygon fill="midnightblue" stroke="midnightblue" points="613.343,-106.85 604.346,-112.444 614.868,-113.682 613.343,-106.85"/>
</g>
<!-- Node40 -->
<g id="node19" class="node"><title>Node40</title>
<g id="a_node19"><a xlink:href="../../d2/d33/DigitalCCSender_8cpp.html" target="_top" xlink:title=" ">
<polygon fill="white" stroke="black" points="964.5,-56.5 964.5,-75.5 1073.5,-75.5 1073.5,-56.5 964.5,-56.5"/>
<text text-anchor="middle" x="1019" y="-63.5" font-family="Helvetica,sans-Serif" font-size="10.00">DigitalCCSender.cpp</text>
</a>
</g>
</g>
<!-- Node22&#45;&gt;Node40 -->
<g id="edge25" class="edge"><title>Node22&#45;&gt;Node40</title>
<path fill="none" stroke="midnightblue" d="M630.874,-113.988C708.144,-105.522 841.094,-90.5952 955,-76 958.005,-75.615 961.088,-75.211 964.199,-74.7965"/>
<polygon fill="midnightblue" stroke="midnightblue" points="630.37,-110.522 620.81,-115.088 631.131,-117.48 630.37,-110.522"/>
</g>
<!-- Node24 -->
<g id="node3" class="node"><title>Node24</title>
<g id="a_node3"><a xlink:href="../../db/dbf/Control__Surface_8h.html" target="_top" xlink:title="The main header file that includes all Control&#45;Surface header files.">
<polygon fill="white" stroke="black" points="456.5,-0.5 456.5,-19.5 551.5,-19.5 551.5,-0.5 456.5,-0.5"/>
<text text-anchor="middle" x="504" y="-7.5" font-family="Helvetica,sans-Serif" font-size="10.00">Control_Surface.h</text>
</a>
</g>
</g>
<!-- Node23&#45;&gt;Node24 -->
<g id="edge2" class="edge"><title>Node23&#45;&gt;Node24</title>
<path fill="none" stroke="midnightblue" d="M857.391,-55.8343C725.427,-35.8162 689.906,-37.957 561,-20 557.924,-19.5715 554.757,-19.1148 551.567,-18.643"/>
<polygon fill="midnightblue" stroke="midnightblue" points="857.068,-59.3255 867.482,-57.3794 858.127,-52.4062 857.068,-59.3255"/>
</g>
<!-- Node25 -->
<g id="node4" class="node"><title>Node25</title>
<g id="a_node4"><a xlink:href="../../d4/df1/Bankable_2CCButton_8cpp.html" target="_top" xlink:title=" ">
<polygon fill="white" stroke="black" points="929.5,-0.5 929.5,-19.5 1008.5,-19.5 1008.5,-0.5 929.5,-0.5"/>
<text text-anchor="middle" x="969" y="-7.5" font-family="Helvetica,sans-Serif" font-size="10.00">CCButton.cpp</text>
</a>
</g>
</g>
<!-- Node23&#45;&gt;Node25 -->
<g id="edge3" class="edge"><title>Node23&#45;&gt;Node25</title>
<path fill="none" stroke="midnightblue" d="M924.754,-49.5372C935.808,-39.9087 949.631,-27.8694 958.857,-19.8339"/>
<polygon fill="midnightblue" stroke="midnightblue" points="922.203,-47.1168 916.961,-56.324 926.801,-52.3954 922.203,-47.1168"/>
</g>
<!-- Node26&#45;&gt;Node24 -->
<g id="edge5" class="edge"><title>Node26&#45;&gt;Node24</title>
<path fill="none" stroke="midnightblue" d="M178.097,-55.8571C298.647,-39.7992 330.36,-36.9819 447,-20 450.073,-19.5525 453.238,-19.0815 456.427,-18.5991"/>
<polygon fill="midnightblue" stroke="midnightblue" points="177.553,-52.3986 168.104,-57.1914 178.479,-59.3371 177.553,-52.3986"/>
</g>
<!-- Node27 -->
<g id="node6" class="node"><title>Node27</title>
<g id="a_node6"><a xlink:href="../../d9/d9b/Bankable_2CCButtonLatching_8cpp.html" target="_top" xlink:title=" ">
<polygon fill="white" stroke="black" points="0,-0.5 0,-19.5 116,-19.5 116,-0.5 0,-0.5"/>
<text text-anchor="middle" x="58" y="-7.5" font-family="Helvetica,sans-Serif" font-size="10.00">CCButtonLatching.cpp</text>
</a>
</g>
</g>
<!-- Node26&#45;&gt;Node27 -->
<g id="edge6" class="edge"><title>Node26&#45;&gt;Node27</title>
<path fill="none" stroke="midnightblue" d="M94.3206,-48.7175C85.1553,-39.1997 73.9474,-27.5608 66.427,-19.7511"/>
<polygon fill="midnightblue" stroke="midnightblue" points="91.9557,-51.3075 101.413,-56.083 96.9979,-46.452 91.9557,-51.3075"/>
</g>
<!-- Node28&#45;&gt;Node24 -->
<g id="edge8" class="edge"><title>Node28&#45;&gt;Node24</title>
<path fill="none" stroke="midnightblue" d="M290.972,-54.4096C341.054,-44.2042 415.864,-28.9597 462.206,-19.5164"/>
<polygon fill="midnightblue" stroke="midnightblue" points="290.09,-51.0172 280.99,-56.4435 291.488,-57.8763 290.09,-51.0172"/>
</g>
<!-- Node29 -->
<g id="node8" class="node"><title>Node29</title>
<g id="a_node8"><a xlink:href="../../d5/d03/Bankable_2CCButtonMatrix_8cpp.html" target="_top" xlink:title=" ">
<polygon fill="white" stroke="black" points="134,-0.5 134,-19.5 240,-19.5 240,-0.5 134,-0.5"/>
<text text-anchor="middle" x="187" y="-7.5" font-family="Helvetica,sans-Serif" font-size="10.00">CCButtonMatrix.cpp</text>
</a>
</g>
</g>
<!-- Node28&#45;&gt;Node29 -->
<g id="edge9" class="edge"><title>Node28&#45;&gt;Node29</title>
<path fill="none" stroke="midnightblue" d="M223.321,-48.7175C214.155,-39.1997 202.947,-27.5608 195.427,-19.7511"/>
<polygon fill="midnightblue" stroke="midnightblue" points="220.956,-51.3075 230.413,-56.083 225.998,-46.452 220.956,-51.3075"/>
</g>
<!-- Node30&#45;&gt;Node24 -->
<g id="edge11" class="edge"><title>Node30&#45;&gt;Node24</title>
<path fill="none" stroke="midnightblue" d="M385.668,-53.0392C414.268,-42.8786 454.612,-28.5457 480.028,-19.5164"/>
<polygon fill="midnightblue" stroke="midnightblue" points="384.336,-49.7978 376.085,-56.4435 386.68,-56.3939 384.336,-49.7978"/>
</g>
<!-- Node31 -->
<g id="node10" class="node"><title>Node31</title>
<g id="a_node10"><a xlink:href="../../d8/db7/Bankable_2CCButtons_8cpp.html" target="_top" xlink:title=" ">
<polygon fill="white" stroke="black" points="258,-0.5 258,-19.5 342,-19.5 342,-0.5 258,-0.5"/>
<text text-anchor="middle" x="300" y="-7.5" font-family="Helvetica,sans-Serif" font-size="10.00">CCButtons.cpp</text>
</a>
</g>
</g>
<!-- Node30&#45;&gt;Node31 -->
<g id="edge12" class="edge"><title>Node30&#45;&gt;Node31</title>
<path fill="none" stroke="midnightblue" d="M336.321,-48.7175C327.155,-39.1997 315.947,-27.5608 308.427,-19.7511"/>
<polygon fill="midnightblue" stroke="midnightblue" points="333.956,-51.3075 343.413,-56.083 338.998,-46.452 333.956,-51.3075"/>
</g>
<!-- Node32&#45;&gt;Node24 -->
<g id="edge14" class="edge"><title>Node32&#45;&gt;Node24</title>
<path fill="none" stroke="midnightblue" d="M466.981,-48.7175C476.322,-39.1997 487.746,-27.5608 495.411,-19.7511"/>
<polygon fill="midnightblue" stroke="midnightblue" points="464.259,-46.4945 459.752,-56.083 469.254,-51.3978 464.259,-46.4945"/>
</g>
<!-- Node33 -->
<g id="node12" class="node"><title>Node33</title>
<g id="a_node12"><a xlink:href="../../d5/d1b/CCButton_8cpp.html" target="_top" xlink:title=" ">
<polygon fill="white" stroke="black" points="359.5,-0.5 359.5,-19.5 438.5,-19.5 438.5,-0.5 359.5,-0.5"/>
<text text-anchor="middle" x="399" y="-7.5" font-family="Helvetica,sans-Serif" font-size="10.00">CCButton.cpp</text>
</a>
</g>
</g>
<!-- Node32&#45;&gt;Node33 -->
<g id="edge15" class="edge"><title>Node32&#45;&gt;Node33</title>
<path fill="none" stroke="midnightblue" d="M435.321,-48.7175C426.155,-39.1997 414.947,-27.5608 407.427,-19.7511"/>
<polygon fill="midnightblue" stroke="midnightblue" points="432.956,-51.3075 442.413,-56.083 437.998,-46.452 432.956,-51.3075"/>
</g>
<!-- Node34&#45;&gt;Node24 -->
<g id="edge17" class="edge"><title>Node34&#45;&gt;Node24</title>
<path fill="none" stroke="midnightblue" d="M548.246,-49.5372C537.192,-39.9087 523.369,-27.8694 514.143,-19.8339"/>
<polygon fill="midnightblue" stroke="midnightblue" points="546.199,-52.3954 556.039,-56.324 550.797,-47.1168 546.199,-52.3954"/>
</g>
<!-- Node35 -->
<g id="node14" class="node"><title>Node35</title>
<g id="a_node14"><a xlink:href="../../d3/d09/CCButtonLatching_8cpp.html" target="_top" xlink:title=" ">
<polygon fill="white" stroke="black" points="570,-0.5 570,-19.5 686,-19.5 686,-0.5 570,-0.5"/>
<text text-anchor="middle" x="628" y="-7.5" font-family="Helvetica,sans-Serif" font-size="10.00">CCButtonLatching.cpp</text>
</a>
</g>
</g>
<!-- Node34&#45;&gt;Node35 -->
<g id="edge18" class="edge"><title>Node34&#45;&gt;Node35</title>
<path fill="none" stroke="midnightblue" d="M583.754,-49.5372C594.808,-39.9087 608.631,-27.8694 617.857,-19.8339"/>
<polygon fill="midnightblue" stroke="midnightblue" points="581.203,-47.1168 575.961,-56.324 585.801,-52.3954 581.203,-47.1168"/>
</g>
<!-- Node36&#45;&gt;Node24 -->
<g id="edge20" class="edge"><title>Node36&#45;&gt;Node24</title>
<path fill="none" stroke="midnightblue" d="M655.027,-53.6986C618.979,-43.507 566.757,-28.7429 534.123,-19.5164"/>
<polygon fill="midnightblue" stroke="midnightblue" points="654.16,-57.0909 664.735,-56.4435 656.065,-50.3549 654.16,-57.0909"/>
</g>
<!-- Node37 -->
<g id="node16" class="node"><title>Node37</title>
<g id="a_node16"><a xlink:href="../../d4/dd2/CCButtonMatrix_8cpp.html" target="_top" xlink:title=" ">
<polygon fill="white" stroke="black" points="704,-0.5 704,-19.5 810,-19.5 810,-0.5 704,-0.5"/>
<text text-anchor="middle" x="757" y="-7.5" font-family="Helvetica,sans-Serif" font-size="10.00">CCButtonMatrix.cpp</text>
</a>
</g>
</g>
<!-- Node36&#45;&gt;Node37 -->
<g id="edge21" class="edge"><title>Node36&#45;&gt;Node37</title>
<path fill="none" stroke="midnightblue" d="M712.754,-49.5372C723.808,-39.9087 737.631,-27.8694 746.857,-19.8339"/>
<polygon fill="midnightblue" stroke="midnightblue" points="710.203,-47.1168 704.961,-56.324 714.801,-52.3954 710.203,-47.1168"/>
</g>
<!-- Node38&#45;&gt;Node24 -->
<g id="edge23" class="edge"><title>Node38&#45;&gt;Node24</title>
<path fill="none" stroke="midnightblue" d="M755.782,-55.7245C698.433,-45.5375 607.133,-29.3196 551.662,-19.4663"/>
<polygon fill="midnightblue" stroke="midnightblue" points="755.272,-59.1886 765.73,-57.4915 756.496,-52.2965 755.272,-59.1886"/>
</g>
<!-- Node39 -->
<g id="node18" class="node"><title>Node39</title>
<g id="a_node18"><a xlink:href="../../d8/dd5/CCButtons_8cpp.html" target="_top" xlink:title=" ">
<polygon fill="white" stroke="black" points="828,-0.5 828,-19.5 912,-19.5 912,-0.5 828,-0.5"/>
<text text-anchor="middle" x="870" y="-7.5" font-family="Helvetica,sans-Serif" font-size="10.00">CCButtons.cpp</text>
</a>
</g>
</g>
<!-- Node38&#45;&gt;Node39 -->
<g id="edge24" class="edge"><title>Node38&#45;&gt;Node39</title>
<path fill="none" stroke="midnightblue" d="M825.754,-49.5372C836.808,-39.9087 850.631,-27.8694 859.857,-19.8339"/>
<polygon fill="midnightblue" stroke="midnightblue" points="823.203,-47.1168 817.961,-56.324 827.801,-52.3954 823.203,-47.1168"/>
</g>
</g>
</svg>
