<?xml version="1.0" encoding="UTF-8" standalone="no"?>
<!DOCTYPE svg PUBLIC "-//W3C//DTD SVG 1.1//EN"
 "http://www.w3.org/Graphics/SVG/1.1/DTD/svg11.dtd">
<!-- Generated by graphviz version 2.38.0 (20140413.2041)
 -->
<!-- Title: SerialMIDI_Interface.hpp Pages: 1 -->
<svg width="848pt" height="599pt"
 viewBox="0.00 0.00 847.50 599.00" xmlns="http://www.w3.org/2000/svg" xmlns:xlink="http://www.w3.org/1999/xlink">
<g id="graph0" class="graph" transform="scale(1 1) rotate(0) translate(4 595)">
<title>SerialMIDI_Interface.hpp</title>
<polygon fill="white" stroke="none" points="-4,4 -4,-595 843.5,-595 843.5,4 -4,4"/>
<!-- Node1 -->
<g id="node1" class="node"><title>Node1</title>
<g id="a_node1"><a xlink:title=" ">
<polygon fill="#bfbfbf" stroke="black" points="536.5,-571.5 536.5,-590.5 661.5,-590.5 661.5,-571.5 536.5,-571.5"/>
<text text-anchor="middle" x="599" y="-578.5" font-family="Helvetica,sans-Serif" font-size="10.00">SerialMIDI_Interface.hpp</text>
</a>
</g>
</g>
<!-- Node2 -->
<g id="node2" class="node"><title>Node2</title>
<g id="a_node2"><a xlink:href="../../d6/d04/MIDI__Interface_8hpp.html" target="_top" xlink:title=" ">
<polygon fill="white" stroke="black" points="223.5,-510 223.5,-529 324.5,-529 324.5,-510 223.5,-510"/>
<text text-anchor="middle" x="274" y="-517" font-family="Helvetica,sans-Serif" font-size="10.00">MIDI_Interface.hpp</text>
</a>
</g>
</g>
<!-- Node1&#45;&gt;Node2 -->
<g id="edge1" class="edge"><title>Node1&#45;&gt;Node2</title>
<path fill="none" stroke="midnightblue" d="M552.435,-571.475C493.911,-560.761 393.524,-542.382 330.621,-530.866"/>
<polygon fill="midnightblue" stroke="midnightblue" points="330.945,-527.367 320.478,-529.009 329.684,-534.253 330.945,-527.367"/>
</g>
<!-- Node11 -->
<g id="node11" class="node"><title>Node11</title>
<g id="a_node11"><a xlink:href="../../d2/dd5/SettingsWrapper_8hpp.html" target="_top" xlink:title=" ">
<polygon fill="white" stroke="black" points="399.5,-168.5 399.5,-187.5 546.5,-187.5 546.5,-168.5 399.5,-168.5"/>
<text text-anchor="middle" x="473" y="-175.5" font-family="Helvetica,sans-Serif" font-size="10.00">Settings/SettingsWrapper.hpp</text>
</a>
</g>
</g>
<!-- Node1&#45;&gt;Node11 -->
<g id="edge42" class="edge"><title>Node1&#45;&gt;Node11</title>
<path fill="none" stroke="midnightblue" d="M596.67,-571.268C591.597,-551.459 580,-501.529 580,-459 580,-459 580,-459 580,-289 580,-243.413 532.197,-209.624 500.494,-192.227"/>
<polygon fill="midnightblue" stroke="midnightblue" points="502.116,-189.125 491.638,-187.559 498.852,-195.318 502.116,-189.125"/>
</g>
<!-- Node14 -->
<g id="node14" class="node"><title>Node14</title>
<g id="a_node14"><a xlink:title=" ">
<polygon fill="white" stroke="#bfbfbf" points="625,-0.5 625,-19.5 683,-19.5 683,-0.5 625,-0.5"/>
<text text-anchor="middle" x="654" y="-7.5" font-family="Helvetica,sans-Serif" font-size="10.00">Arduino.h</text>
</a>
</g>
</g>
<!-- Node1&#45;&gt;Node14 -->
<g id="edge36" class="edge"><title>Node1&#45;&gt;Node14</title>
<path fill="none" stroke="midnightblue" d="M619.036,-571.497C653.889,-555.204 722,-516.064 722,-459 722,-459 722,-459 722,-121 722,-82.5481 691.565,-46.3127 671.418,-26.538"/>
<polygon fill="midnightblue" stroke="midnightblue" points="673.708,-23.8865 664.034,-19.5666 668.902,-28.9765 673.708,-23.8865"/>
</g>
<!-- Node17 -->
<g id="node17" class="node"><title>Node17</title>
<g id="a_node17"><a xlink:href="../../d9/d98/TeensyUSBTypes_8hpp.html" target="_top" xlink:title=" ">
<polygon fill="white" stroke="black" points="474,-112.5 474,-131.5 626,-131.5 626,-112.5 474,-112.5"/>
<text text-anchor="middle" x="550" y="-119.5" font-family="Helvetica,sans-Serif" font-size="10.00">Helpers/TeensyUSBTypes.hpp</text>
</a>
</g>
</g>
<!-- Node1&#45;&gt;Node17 -->
<g id="edge37" class="edge"><title>Node1&#45;&gt;Node17</title>
<path fill="none" stroke="midnightblue" d="M601.33,-571.268C606.403,-551.459 618,-501.529 618,-459 618,-459 618,-459 618,-289 618,-230.828 581.8,-169.172 562.225,-140.085"/>
<polygon fill="midnightblue" stroke="midnightblue" points="565.085,-138.068 556.52,-131.831 559.326,-142.048 565.085,-138.068"/>
</g>
<!-- Node22 -->
<g id="node22" class="node"><title>Node22</title>
<g id="a_node22"><a xlink:href="../../d1/d22/SerialMIDI__Parser_8hpp.html" target="_top" xlink:title=" ">
<polygon fill="white" stroke="black" points="424.5,-504.5 424.5,-534.5 551.5,-534.5 551.5,-504.5 424.5,-504.5"/>
<text text-anchor="start" x="432.5" y="-522.5" font-family="Helvetica,sans-Serif" font-size="10.00">MIDI_Parsers/SerialMIDI</text>
<text text-anchor="middle" x="488" y="-511.5" font-family="Helvetica,sans-Serif" font-size="10.00">_Parser.hpp</text>
</a>
</g>
</g>
<!-- Node1&#45;&gt;Node22 -->
<g id="edge38" class="edge"><title>Node1&#45;&gt;Node22</title>
<path fill="none" stroke="midnightblue" d="M583.096,-571.475C567.501,-563.115 543.202,-550.09 523.071,-539.299"/>
<polygon fill="midnightblue" stroke="midnightblue" points="524.628,-536.163 514.161,-534.523 521.321,-542.332 524.628,-536.163"/>
</g>
<!-- Node24 -->
<g id="node24" class="node"><title>Node24</title>
<g id="a_node24"><a xlink:title=" ">
<polygon fill="white" stroke="#bfbfbf" points="750.5,-510 750.5,-529 839.5,-529 839.5,-510 750.5,-510"/>
<text text-anchor="middle" x="795" y="-517" font-family="Helvetica,sans-Serif" font-size="10.00">SoftwareSerial.h</text>
</a>
</g>
</g>
<!-- Node1&#45;&gt;Node24 -->
<g id="edge43" class="edge"><title>Node1&#45;&gt;Node24</title>
<path fill="none" stroke="midnightblue" d="M627.082,-571.475C661.285,-561.092 719.197,-543.512 757.27,-531.954"/>
<polygon fill="midnightblue" stroke="midnightblue" points="758.418,-535.263 766.97,-529.009 756.385,-528.565 758.418,-535.263"/>
</g>
<!-- Node3 -->
<g id="node3" class="node"><title>Node3</title>
<g id="a_node3"><a xlink:href="../../d0/d4e/Def_8hpp.html" target="_top" xlink:title=" ">
<polygon fill="white" stroke="black" points="131,-392.5 131,-411.5 201,-411.5 201,-392.5 131,-392.5"/>
<text text-anchor="middle" x="166" y="-399.5" font-family="Helvetica,sans-Serif" font-size="10.00">Def/Def.hpp</text>
</a>
</g>
</g>
<!-- Node2&#45;&gt;Node3 -->
<g id="edge2" class="edge"><title>Node2&#45;&gt;Node3</title>
<path fill="none" stroke="midnightblue" d="M223.15,-510.621C177.309,-502.357 114.876,-487.807 100,-468 85.0794,-448.133 112.204,-428.572 136.061,-416.184"/>
<polygon fill="midnightblue" stroke="midnightblue" points="137.856,-419.201 145.283,-411.645 134.765,-412.921 137.856,-419.201"/>
</g>
<!-- Node19 -->
<g id="node19" class="node"><title>Node19</title>
<g id="a_node19"><a xlink:href="../../d8/d38/MIDICNChannelAddress_8hpp.html" target="_top" xlink:title=" ">
<polygon fill="white" stroke="black" points="109.5,-448.5 109.5,-467.5 272.5,-467.5 272.5,-448.5 109.5,-448.5"/>
<text text-anchor="middle" x="191" y="-455.5" font-family="Helvetica,sans-Serif" font-size="10.00">Def/MIDICNChannelAddress.hpp</text>
</a>
</g>
</g>
<!-- Node2&#45;&gt;Node19 -->
<g id="edge28" class="edge"><title>Node2&#45;&gt;Node19</title>
<path fill="none" stroke="midnightblue" d="M262.108,-509.975C248.795,-500.431 227,-484.807 211.043,-473.368"/>
<polygon fill="midnightblue" stroke="midnightblue" points="213.036,-470.491 202.87,-467.509 208.958,-476.18 213.036,-470.491"/>
</g>
<!-- Node20 -->
<g id="node20" class="node"><title>Node20</title>
<g id="a_node20"><a xlink:href="../../d7/d2d/MIDI__Parser_8hpp.html" target="_top" xlink:title=" ">
<polygon fill="white" stroke="black" points="290.5,-448.5 290.5,-467.5 445.5,-467.5 445.5,-448.5 290.5,-448.5"/>
<text text-anchor="middle" x="368" y="-455.5" font-family="Helvetica,sans-Serif" font-size="10.00">MIDI_Parsers/MIDI_Parser.hpp</text>
</a>
</g>
</g>
<!-- Node2&#45;&gt;Node20 -->
<g id="edge30" class="edge"><title>Node2&#45;&gt;Node20</title>
<path fill="none" stroke="midnightblue" d="M287.468,-509.975C302.685,-500.343 327.687,-484.517 345.801,-473.052"/>
<polygon fill="midnightblue" stroke="midnightblue" points="347.979,-475.815 354.557,-467.509 344.236,-469.9 347.979,-475.815"/>
</g>
<!-- Node4 -->
<g id="node4" class="node"><title>Node4</title>
<g id="a_node4"><a xlink:href="../../d7/d42/Channel_8hpp.html" target="_top" xlink:title=" ">
<polygon fill="white" stroke="black" points="28.5,-112.5 28.5,-131.5 99.5,-131.5 99.5,-112.5 28.5,-112.5"/>
<text text-anchor="middle" x="64" y="-119.5" font-family="Helvetica,sans-Serif" font-size="10.00">Channel.hpp</text>
</a>
</g>
</g>
<!-- Node3&#45;&gt;Node4 -->
<g id="edge3" class="edge"><title>Node3&#45;&gt;Node4</title>
<path fill="none" stroke="midnightblue" d="M151.701,-392.401C126.542,-376.058 77,-337.92 77,-291 77,-291 77,-291 77,-233 77,-200.576 71.3607,-163.146 67.5105,-141.369"/>
<polygon fill="midnightblue" stroke="midnightblue" points="70.9499,-140.72 65.6995,-131.517 64.0652,-141.985 70.9499,-140.72"/>
</g>
<!-- Node5 -->
<g id="node5" class="node"><title>Node5</title>
<g id="a_node5"><a xlink:title=" ">
<polygon fill="white" stroke="#bfbfbf" points="103.5,-56.5 103.5,-75.5 152.5,-75.5 152.5,-56.5 103.5,-56.5"/>
<text text-anchor="middle" x="128" y="-63.5" font-family="Helvetica,sans-Serif" font-size="10.00">stdint.h</text>
</a>
</g>
</g>
<!-- Node3&#45;&gt;Node5 -->
<g id="edge27" class="edge"><title>Node3&#45;&gt;Node5</title>
<path fill="none" stroke="midnightblue" d="M160.716,-392.231C150.275,-374.043 128,-330.601 128,-291 128,-291 128,-291 128,-177 128,-144.948 128,-107.643 128,-85.7489"/>
<polygon fill="midnightblue" stroke="midnightblue" points="131.5,-85.5577 128,-75.5578 124.5,-85.5578 131.5,-85.5577"/>
</g>
<!-- Node6 -->
<g id="node6" class="node"><title>Node6</title>
<g id="a_node6"><a xlink:href="../../dc/dc7/NamespaceSettings_8hpp.html" target="_top" xlink:title=" ">
<polygon fill="white" stroke="black" points="58.5,-0.5 58.5,-19.5 221.5,-19.5 221.5,-0.5 58.5,-0.5"/>
<text text-anchor="middle" x="140" y="-7.5" font-family="Helvetica,sans-Serif" font-size="10.00">Settings/NamespaceSettings.hpp</text>
</a>
</g>
</g>
<!-- Node3&#45;&gt;Node6 -->
<g id="edge25" class="edge"><title>Node3&#45;&gt;Node6</title>
<path fill="none" stroke="midnightblue" d="M130.796,-394.126C82.0679,-382.332 0,-353.231 0,-291 0,-291 0,-291 0,-121 0,-69.3473 59.6512,-38.2582 101.079,-22.8952"/>
<polygon fill="midnightblue" stroke="midnightblue" points="102.396,-26.1418 110.651,-19.501 100.057,-19.5443 102.396,-26.1418"/>
</g>
<!-- Node7 -->
<g id="node7" class="node"><title>Node7</title>
<g id="a_node7"><a xlink:href="../../dc/d50/Frequency_8hpp.html" target="_top" xlink:title=" ">
<polygon fill="white" stroke="black" points="170.5,-56.5 170.5,-75.5 251.5,-75.5 251.5,-56.5 170.5,-56.5"/>
<text text-anchor="middle" x="211" y="-63.5" font-family="Helvetica,sans-Serif" font-size="10.00">Frequency.hpp</text>
</a>
</g>
</g>
<!-- Node3&#45;&gt;Node7 -->
<g id="edge6" class="edge"><title>Node3&#45;&gt;Node7</title>
<path fill="none" stroke="midnightblue" d="M166,-392.442C166,-373.936 166,-328.812 166,-291 166,-291 166,-291 166,-177 166,-141.93 185.837,-104.939 199.169,-84.037"/>
<polygon fill="midnightblue" stroke="midnightblue" points="202.134,-85.8991 204.743,-75.6305 196.3,-82.031 202.134,-85.8991"/>
</g>
<!-- Node8 -->
<g id="node8" class="node"><title>Node8</title>
<g id="a_node8"><a xlink:href="../../de/d76/Array_8hpp.html" target="_top" xlink:title=" ">
<polygon fill="white" stroke="black" points="308.5,-336.5 308.5,-355.5 403.5,-355.5 403.5,-336.5 308.5,-336.5"/>
<text text-anchor="middle" x="356" y="-343.5" font-family="Helvetica,sans-Serif" font-size="10.00">Helpers/Array.hpp</text>
</a>
</g>
</g>
<!-- Node3&#45;&gt;Node8 -->
<g id="edge8" class="edge"><title>Node3&#45;&gt;Node8</title>
<path fill="none" stroke="midnightblue" d="M196.106,-392.444C228.626,-383.201 280.579,-368.436 316.391,-358.257"/>
<polygon fill="midnightblue" stroke="midnightblue" points="317.373,-361.617 326.035,-355.516 315.459,-354.884 317.373,-361.617"/>
</g>
<!-- Node16 -->
<g id="node16" class="node"><title>Node16</title>
<g id="a_node16"><a xlink:title=" ">
<polygon fill="white" stroke="#bfbfbf" points="279,-56.5 279,-75.5 331,-75.5 331,-56.5 279,-56.5"/>
<text text-anchor="middle" x="305" y="-63.5" font-family="Helvetica,sans-Serif" font-size="10.00">stddef.h</text>
</a>
</g>
</g>
<!-- Node3&#45;&gt;Node16 -->
<g id="edge26" class="edge"><title>Node3&#45;&gt;Node16</title>
<path fill="none" stroke="midnightblue" d="M171.284,-392.231C181.725,-374.043 204,-330.601 204,-291 204,-291 204,-291 204,-233 204,-169.479 258.642,-109.594 287.544,-82.3616"/>
<polygon fill="midnightblue" stroke="midnightblue" points="289.944,-84.91 294.946,-75.5707 285.211,-79.7517 289.944,-84.91"/>
</g>
<!-- Node4&#45;&gt;Node5 -->
<g id="edge4" class="edge"><title>Node4&#45;&gt;Node5</title>
<path fill="none" stroke="midnightblue" d="M74.2827,-112.324C83.8363,-104.263 98.2797,-92.0765 109.784,-82.3695"/>
<polygon fill="midnightblue" stroke="midnightblue" points="112.144,-84.9577 117.53,-75.8339 107.63,-79.6076 112.144,-84.9577"/>
</g>
<!-- Node4&#45;&gt;Node6 -->
<g id="edge5" class="edge"><title>Node4&#45;&gt;Node6</title>
<path fill="none" stroke="midnightblue" d="M66.8023,-112.48C71.2984,-99.5388 80.9602,-74.4834 94,-56 101.692,-45.0967 112.22,-34.5721 121.262,-26.4462"/>
<polygon fill="midnightblue" stroke="midnightblue" points="123.762,-28.911 129.026,-19.7159 119.177,-23.6219 123.762,-28.911"/>
</g>
<!-- Node7&#45;&gt;Node6 -->
<g id="edge7" class="edge"><title>Node7&#45;&gt;Node6</title>
<path fill="none" stroke="midnightblue" d="M199.593,-56.324C188.891,-48.1849 172.659,-35.8395 159.837,-26.0874"/>
<polygon fill="midnightblue" stroke="midnightblue" points="161.693,-23.1018 151.615,-19.8339 157.456,-28.6734 161.693,-23.1018"/>
</g>
<!-- Node9 -->
<g id="node9" class="node"><title>Node9</title>
<g id="a_node9"><a xlink:href="../../d1/d93/Error_8hpp.html" target="_top" xlink:title=" ">
<polygon fill="white" stroke="black" points="420.5,-280.5 420.5,-299.5 513.5,-299.5 513.5,-280.5 420.5,-280.5"/>
<text text-anchor="middle" x="467" y="-287.5" font-family="Helvetica,sans-Serif" font-size="10.00">Helpers/Error.hpp</text>
</a>
</g>
</g>
<!-- Node8&#45;&gt;Node9 -->
<g id="edge9" class="edge"><title>Node8&#45;&gt;Node9</title>
<path fill="none" stroke="midnightblue" d="M373.834,-336.324C391.716,-327.625 419.475,-314.12 440.046,-304.113"/>
<polygon fill="midnightblue" stroke="midnightblue" points="441.749,-307.177 449.21,-299.655 438.687,-300.882 441.749,-307.177"/>
</g>
<!-- Node8&#45;&gt;Node16 -->
<g id="edge24" class="edge"><title>Node8&#45;&gt;Node16</title>
<path fill="none" stroke="midnightblue" d="M350.716,-336.231C340.275,-318.043 318,-274.601 318,-235 318,-235 318,-235 318,-177 318,-144.576 312.361,-107.146 308.51,-85.3688"/>
<polygon fill="midnightblue" stroke="midnightblue" points="311.95,-84.7196 306.7,-75.5172 305.065,-85.9853 311.95,-84.7196"/>
</g>
<!-- Node10 -->
<g id="node10" class="node"><title>Node10</title>
<g id="a_node10"><a xlink:href="../../df/dee/Debug_8hpp.html" target="_top" xlink:title=" ">
<polygon fill="white" stroke="black" points="441,-224.5 441,-243.5 505,-243.5 505,-224.5 441,-224.5"/>
<text text-anchor="middle" x="473" y="-231.5" font-family="Helvetica,sans-Serif" font-size="10.00">Debug.hpp</text>
</a>
</g>
</g>
<!-- Node9&#45;&gt;Node10 -->
<g id="edge10" class="edge"><title>Node9&#45;&gt;Node10</title>
<path fill="none" stroke="midnightblue" d="M467.991,-280.083C468.786,-272.927 469.929,-262.635 470.923,-253.691"/>
<polygon fill="midnightblue" stroke="midnightblue" points="474.402,-254.076 472.028,-243.751 467.445,-253.303 474.402,-254.076"/>
</g>
<!-- Node10&#45;&gt;Node11 -->
<g id="edge11" class="edge"><title>Node10&#45;&gt;Node11</title>
<path fill="none" stroke="midnightblue" d="M467.834,-224.083C466.324,-216.927 465.894,-206.635 466.542,-197.691"/>
<polygon fill="midnightblue" stroke="midnightblue" points="470.015,-198.126 467.869,-187.751 463.077,-197.2 470.015,-198.126"/>
</g>
<!-- Node18 -->
<g id="node18" class="node"><title>Node18</title>
<g id="a_node18"><a xlink:href="../../dd/d80/PrintStream_8hpp.html" target="_top" xlink:title=" ">
<polygon fill="white" stroke="black" points="606.5,-168.5 606.5,-187.5 693.5,-187.5 693.5,-168.5 606.5,-168.5"/>
<text text-anchor="middle" x="650" y="-175.5" font-family="Helvetica,sans-Serif" font-size="10.00">PrintStream.hpp</text>
</a>
</g>
</g>
<!-- Node10&#45;&gt;Node18 -->
<g id="edge22" class="edge"><title>Node10&#45;&gt;Node18</title>
<path fill="none" stroke="midnightblue" d="M501.046,-224.444C531.082,-215.28 578.913,-200.688 612.243,-190.519"/>
<polygon fill="midnightblue" stroke="midnightblue" points="613.542,-193.782 622.085,-187.516 611.499,-187.087 613.542,-193.782"/>
</g>
<!-- Node11&#45;&gt;Node6 -->
<g id="edge12" class="edge"><title>Node11&#45;&gt;Node6</title>
<path fill="none" stroke="midnightblue" d="M471.622,-168.249C467.558,-145.59 453.405,-84.7744 415,-56 386.598,-34.7202 300.423,-23.0512 232.027,-16.9664"/>
<polygon fill="midnightblue" stroke="midnightblue" points="231.907,-13.4433 221.644,-16.0729 231.307,-20.4175 231.907,-13.4433"/>
</g>
<!-- Node11&#45;&gt;Node10 -->
<g id="edge21" class="edge"><title>Node11&#45;&gt;Node10</title>
<path fill="none" stroke="midnightblue" d="M478.131,-187.751C479.657,-194.858 480.104,-205.136 479.472,-214.101"/>
<polygon fill="midnightblue" stroke="midnightblue" points="475.993,-213.713 478.166,-224.083 482.934,-214.622 475.993,-213.713"/>
</g>
<!-- Node12 -->
<g id="node12" class="node"><title>Node12</title>
<g id="a_node12"><a xlink:href="../../db/d02/Settings_8hpp.html" target="_top" xlink:title="All user settings and debugging options can be changed here.">
<polygon fill="white" stroke="black" points="346.5,-112.5 346.5,-131.5 417.5,-131.5 417.5,-112.5 346.5,-112.5"/>
<text text-anchor="middle" x="382" y="-119.5" font-family="Helvetica,sans-Serif" font-size="10.00">Settings.hpp</text>
</a>
</g>
</g>
<!-- Node11&#45;&gt;Node12 -->
<g id="edge13" class="edge"><title>Node11&#45;&gt;Node12</title>
<path fill="none" stroke="midnightblue" d="M458.379,-168.324C444.051,-159.822 421.987,-146.729 405.251,-136.797"/>
<polygon fill="midnightblue" stroke="midnightblue" points="406.97,-133.748 396.584,-131.655 403.398,-139.768 406.97,-133.748"/>
</g>
<!-- Node11&#45;&gt;Node17 -->
<g id="edge20" class="edge"><title>Node11&#45;&gt;Node17</title>
<path fill="none" stroke="midnightblue" d="M485.371,-168.324C497.158,-160.058 515.132,-147.453 529.136,-137.632"/>
<polygon fill="midnightblue" stroke="midnightblue" points="531.482,-140.262 537.659,-131.655 527.462,-134.531 531.482,-140.262"/>
</g>
<!-- Node12&#45;&gt;Node5 -->
<g id="edge19" class="edge"><title>Node12&#45;&gt;Node5</title>
<path fill="none" stroke="midnightblue" d="M346.245,-114.465C304.382,-106.65 232.751,-92.7703 162.693,-76.2976"/>
<polygon fill="midnightblue" stroke="midnightblue" points="163.359,-72.8585 152.822,-73.9564 161.744,-79.6696 163.359,-72.8585"/>
</g>
<!-- Node12&#45;&gt;Node7 -->
<g id="edge14" class="edge"><title>Node12&#45;&gt;Node7</title>
<path fill="none" stroke="midnightblue" d="M354.905,-112.444C326.012,-103.32 280.075,-88.8133 247.895,-78.6509"/>
<polygon fill="midnightblue" stroke="midnightblue" points="248.559,-75.1903 237.969,-75.5164 246.451,-81.8654 248.559,-75.1903"/>
</g>
<!-- Node13 -->
<g id="node13" class="node"><title>Node13</title>
<g id="a_node13"><a xlink:href="../../d7/d7c/ADCConfig_8hpp.html" target="_top" xlink:title="This file contains the platform&#45;specific ADC resolutions. By default, the library automatically selec...">
<polygon fill="white" stroke="black" points="489,-56.5 489,-75.5 611,-75.5 611,-56.5 489,-56.5"/>
<text text-anchor="middle" x="550" y="-63.5" font-family="Helvetica,sans-Serif" font-size="10.00">Helpers/ADCConfig.hpp</text>
</a>
</g>
</g>
<!-- Node12&#45;&gt;Node13 -->
<g id="edge15" class="edge"><title>Node12&#45;&gt;Node13</title>
<path fill="none" stroke="midnightblue" d="M408.62,-112.444C437.006,-103.32 482.137,-88.8133 513.753,-78.6509"/>
<polygon fill="midnightblue" stroke="midnightblue" points="515.055,-81.9087 523.504,-75.5164 512.913,-75.2445 515.055,-81.9087"/>
</g>
<!-- Node15 -->
<g id="node15" class="node"><title>Node15</title>
<g id="a_node15"><a xlink:title=" ">
<polygon fill="white" stroke="#bfbfbf" points="358,-56.5 358,-75.5 406,-75.5 406,-56.5 358,-56.5"/>
<text text-anchor="middle" x="382" y="-63.5" font-family="Helvetica,sans-Serif" font-size="10.00">limits.h</text>
</a>
</g>
</g>
<!-- Node12&#45;&gt;Node15 -->
<g id="edge17" class="edge"><title>Node12&#45;&gt;Node15</title>
<path fill="none" stroke="midnightblue" d="M382,-112.083C382,-105.006 382,-94.8611 382,-85.9865"/>
<polygon fill="midnightblue" stroke="midnightblue" points="385.5,-85.751 382,-75.7511 378.5,-85.7511 385.5,-85.751"/>
</g>
<!-- Node12&#45;&gt;Node16 -->
<g id="edge18" class="edge"><title>Node12&#45;&gt;Node16</title>
<path fill="none" stroke="midnightblue" d="M369.629,-112.324C357.842,-104.058 339.868,-91.4527 325.864,-81.6322"/>
<polygon fill="midnightblue" stroke="midnightblue" points="327.538,-78.5307 317.341,-75.6545 323.518,-84.2619 327.538,-78.5307"/>
</g>
<!-- Node13&#45;&gt;Node14 -->
<g id="edge16" class="edge"><title>Node13&#45;&gt;Node14</title>
<path fill="none" stroke="midnightblue" d="M566.709,-56.324C583.312,-47.7034 609.002,-34.3643 628.22,-24.3855"/>
<polygon fill="midnightblue" stroke="midnightblue" points="630.07,-27.3689 637.332,-19.6545 626.844,-21.1565 630.07,-27.3689"/>
</g>
<!-- Node18&#45;&gt;Node14 -->
<g id="edge23" class="edge"><title>Node18&#45;&gt;Node14</title>
<path fill="none" stroke="midnightblue" d="M650.215,-168.075C650.845,-141.945 652.694,-65.2106 653.552,-29.577"/>
<polygon fill="midnightblue" stroke="midnightblue" points="657.052,-29.6496 653.794,-19.5681 650.054,-29.4809 657.052,-29.6496"/>
</g>
<!-- Node19&#45;&gt;Node3 -->
<g id="edge29" class="edge"><title>Node19&#45;&gt;Node3</title>
<path fill="none" stroke="midnightblue" d="M186.872,-448.083C183.486,-440.77 178.584,-430.181 174.381,-421.103"/>
<polygon fill="midnightblue" stroke="midnightblue" points="177.429,-419.355 170.051,-411.751 171.077,-422.296 177.429,-419.355"/>
</g>
<!-- Node20&#45;&gt;Node3 -->
<g id="edge34" class="edge"><title>Node20&#45;&gt;Node3</title>
<path fill="none" stroke="midnightblue" d="M335.992,-448.444C301.271,-439.162 245.712,-424.309 207.623,-414.127"/>
<polygon fill="midnightblue" stroke="midnightblue" points="208.422,-410.718 197.858,-411.516 206.615,-417.48 208.422,-410.718"/>
</g>
<!-- Node20&#45;&gt;Node5 -->
<g id="edge32" class="edge"><title>Node20&#45;&gt;Node5</title>
<path fill="none" stroke="midnightblue" d="M343.706,-448.47C307.092,-433.881 242,-400.43 242,-347 242,-347 242,-347 242,-233 242,-167.209 180.399,-108.443 147.762,-81.9249"/>
<polygon fill="midnightblue" stroke="midnightblue" points="149.786,-79.0633 139.771,-75.6063 145.444,-84.5542 149.786,-79.0633"/>
</g>
<!-- Node20&#45;&gt;Node11 -->
<g id="edge35" class="edge"><title>Node20&#45;&gt;Node11</title>
<path fill="none" stroke="midnightblue" d="M376.102,-448.428C383.722,-439.874 394.851,-426.018 401,-412 421.074,-366.233 411.694,-349.971 411,-300 410.877,-291.112 409.414,-288.746 411,-280 415.743,-253.845 418.132,-246.677 432,-224 438.451,-213.451 447.57,-203.144 455.57,-195.063"/>
<polygon fill="midnightblue" stroke="midnightblue" points="458.319,-197.272 463.057,-187.796 453.443,-192.249 458.319,-197.272"/>
</g>
<!-- Node20&#45;&gt;Node16 -->
<g id="edge31" class="edge"><title>Node20&#45;&gt;Node16</title>
<path fill="none" stroke="midnightblue" d="M353.861,-448.361C328.986,-431.953 280,-393.712 280,-347 280,-347 280,-347 280,-177 280,-143.995 290.834,-106.774 298.238,-85.1916"/>
<polygon fill="midnightblue" stroke="midnightblue" points="301.565,-86.282 301.628,-75.6873 294.972,-83.9302 301.565,-86.282"/>
</g>
<!-- Node21 -->
<g id="node21" class="node"><title>Node21</title>
<g id="a_node21"><a xlink:title=" ">
<polygon fill="white" stroke="#bfbfbf" points="344,-392.5 344,-411.5 392,-411.5 392,-392.5 344,-392.5"/>
<text text-anchor="middle" x="368" y="-399.5" font-family="Helvetica,sans-Serif" font-size="10.00">stdlib.h</text>
</a>
</g>
</g>
<!-- Node20&#45;&gt;Node21 -->
<g id="edge33" class="edge"><title>Node20&#45;&gt;Node21</title>
<path fill="none" stroke="midnightblue" d="M368,-448.083C368,-441.006 368,-430.861 368,-421.986"/>
<polygon fill="midnightblue" stroke="midnightblue" points="371.5,-421.751 368,-411.751 364.5,-421.751 371.5,-421.751"/>
</g>
<!-- Node22&#45;&gt;Node20 -->
<g id="edge39" class="edge"><title>Node22&#45;&gt;Node20</title>
<path fill="none" stroke="midnightblue" d="M459.562,-504.399C439.877,-494.639 413.857,-481.737 394.587,-472.183"/>
<polygon fill="midnightblue" stroke="midnightblue" points="395.975,-468.964 385.461,-467.658 392.865,-475.236 395.975,-468.964"/>
</g>
<!-- Node23 -->
<g id="node23" class="node"><title>Node23</title>
<g id="a_node23"><a xlink:href="../../d0/dbb/SysExBuffer_8hpp.html" target="_top" xlink:title=" ">
<polygon fill="white" stroke="black" points="460.5,-336.5 460.5,-355.5 551.5,-355.5 551.5,-336.5 460.5,-336.5"/>
<text text-anchor="middle" x="506" y="-343.5" font-family="Helvetica,sans-Serif" font-size="10.00">SysExBuffer.hpp</text>
</a>
</g>
</g>
<!-- Node22&#45;&gt;Node23 -->
<g id="edge40" class="edge"><title>Node22&#45;&gt;Node23</title>
<path fill="none" stroke="midnightblue" d="M489.473,-504.465C492.702,-473.704 500.403,-400.329 504.037,-365.7"/>
<polygon fill="midnightblue" stroke="midnightblue" points="507.539,-365.87 505.102,-355.56 500.577,-365.14 507.539,-365.87"/>
</g>
<!-- Node23&#45;&gt;Node11 -->
<g id="edge41" class="edge"><title>Node23&#45;&gt;Node11</title>
<path fill="none" stroke="midnightblue" d="M510.111,-336.277C514.059,-327.383 519.745,-313.074 522,-300 527.773,-266.53 528.479,-254.723 514,-224 508.742,-212.843 499.757,-202.506 491.536,-194.561"/>
<polygon fill="midnightblue" stroke="midnightblue" points="493.785,-191.874 484.035,-187.727 489.07,-197.049 493.785,-191.874"/>
</g>
</g>
</svg>
