<?xml version="1.0" encoding="UTF-8" standalone="no"?>
<!DOCTYPE svg PUBLIC "-//W3C//DTD SVG 1.1//EN"
 "http://www.w3.org/Graphics/SVG/1.1/DTD/svg11.dtd">
<!-- Generated by graphviz version 2.38.0 (20140413.2041)
 -->
<!-- Title: Debug.cpp Pages: 1 -->
<svg width="512pt" height="364pt"
 viewBox="0.00 0.00 512.00 364.00" xmlns="http://www.w3.org/2000/svg" xmlns:xlink="http://www.w3.org/1999/xlink">
<g id="graph0" class="graph" transform="scale(1 1) rotate(0) translate(4 360)">
<title>Debug.cpp</title>
<polygon fill="white" stroke="none" points="-4,4 -4,-360 508,-360 508,4 -4,4"/>
<!-- Node0 -->
<g id="node1" class="node"><title>Node0</title>
<g id="a_node1"><a xlink:title=" ">
<polygon fill="#bfbfbf" stroke="black" points="284.5,-336.5 284.5,-355.5 348.5,-355.5 348.5,-336.5 284.5,-336.5"/>
<text text-anchor="middle" x="316.5" y="-343.5" font-family="Helvetica,sans-Serif" font-size="10.00">Debug.cpp</text>
</a>
</g>
</g>
<!-- Node1 -->
<g id="node2" class="node"><title>Node1</title>
<g id="a_node2"><a xlink:href="../../df/dee/Debug_8hpp.html" target="_top" xlink:title=" ">
<polygon fill="white" stroke="black" points="284.5,-280.5 284.5,-299.5 348.5,-299.5 348.5,-280.5 284.5,-280.5"/>
<text text-anchor="middle" x="316.5" y="-287.5" font-family="Helvetica,sans-Serif" font-size="10.00">Debug.hpp</text>
</a>
</g>
</g>
<!-- Node0&#45;&gt;Node1 -->
<g id="edge1" class="edge"><title>Node0&#45;&gt;Node1</title>
<path fill="none" stroke="midnightblue" d="M316.5,-336.083C316.5,-329.006 316.5,-318.861 316.5,-309.986"/>
<polygon fill="midnightblue" stroke="midnightblue" points="320,-309.751 316.5,-299.751 313,-309.751 320,-309.751"/>
</g>
<!-- Node2 -->
<g id="node3" class="node"><title>Node2</title>
<g id="a_node3"><a xlink:href="../../d2/dd5/SettingsWrapper_8hpp.html" target="_top" xlink:title=" ">
<polygon fill="white" stroke="black" points="185,-224.5 185,-243.5 332,-243.5 332,-224.5 185,-224.5"/>
<text text-anchor="middle" x="258.5" y="-231.5" font-family="Helvetica,sans-Serif" font-size="10.00">Settings/SettingsWrapper.hpp</text>
</a>
</g>
</g>
<!-- Node1&#45;&gt;Node2 -->
<g id="edge2" class="edge"><title>Node1&#45;&gt;Node2</title>
<path fill="none" stroke="midnightblue" d="M302.066,-280.324C291.966,-272.498 279.006,-260.783 269.678,-251.224"/>
<polygon fill="midnightblue" stroke="midnightblue" points="272.2,-248.796 262.84,-243.834 267.063,-253.551 272.2,-248.796"/>
</g>
<!-- Node11 -->
<g id="node12" class="node"><title>Node11</title>
<g id="a_node12"><a xlink:title=" ">
<polygon fill="white" stroke="#bfbfbf" points="350.5,-224.5 350.5,-243.5 398.5,-243.5 398.5,-224.5 350.5,-224.5"/>
<text text-anchor="middle" x="374.5" y="-231.5" font-family="Helvetica,sans-Serif" font-size="10.00">stdlib.h</text>
</a>
</g>
</g>
<!-- Node1&#45;&gt;Node11 -->
<g id="edge14" class="edge"><title>Node1&#45;&gt;Node11</title>
<path fill="none" stroke="midnightblue" d="M325.819,-280.324C334.393,-272.341 347.312,-260.313 357.688,-250.653"/>
<polygon fill="midnightblue" stroke="midnightblue" points="360.078,-253.21 365.012,-243.834 355.308,-248.086 360.078,-253.21"/>
</g>
<!-- Node12 -->
<g id="node13" class="node"><title>Node12</title>
<g id="a_node13"><a xlink:href="../../dd/d80/PrintStream_8hpp.html" target="_top" xlink:title=" ">
<polygon fill="white" stroke="black" points="417,-224.5 417,-243.5 504,-243.5 504,-224.5 417,-224.5"/>
<text text-anchor="middle" x="460.5" y="-231.5" font-family="Helvetica,sans-Serif" font-size="10.00">PrintStream.hpp</text>
</a>
</g>
</g>
<!-- Node1&#45;&gt;Node12 -->
<g id="edge15" class="edge"><title>Node1&#45;&gt;Node12</title>
<path fill="none" stroke="midnightblue" d="M339.317,-280.444C363.332,-271.438 401.329,-257.189 428.369,-247.049"/>
<polygon fill="midnightblue" stroke="midnightblue" points="429.655,-250.305 437.79,-243.516 427.197,-243.751 429.655,-250.305"/>
</g>
<!-- Node2&#45;&gt;Node1 -->
<g id="edge13" class="edge"><title>Node2&#45;&gt;Node1</title>
<path fill="none" stroke="midnightblue" d="M273.03,-243.751C283.096,-251.561 295.971,-263.2 305.265,-272.718"/>
<polygon fill="midnightblue" stroke="midnightblue" points="302.725,-275.126 312.089,-280.083 307.86,-270.369 302.725,-275.126"/>
</g>
<!-- Node3 -->
<g id="node4" class="node"><title>Node3</title>
<g id="a_node4"><a xlink:href="../../db/d02/Settings_8hpp.html" target="_top" xlink:title="All user settings and debugging options can be changed here.">
<polygon fill="white" stroke="black" points="133,-168.5 133,-187.5 204,-187.5 204,-168.5 133,-168.5"/>
<text text-anchor="middle" x="168.5" y="-175.5" font-family="Helvetica,sans-Serif" font-size="10.00">Settings.hpp</text>
</a>
</g>
</g>
<!-- Node2&#45;&gt;Node3 -->
<g id="edge3" class="edge"><title>Node2&#45;&gt;Node3</title>
<path fill="none" stroke="midnightblue" d="M244.04,-224.324C230,-215.9 208.452,-202.971 191.957,-193.074"/>
<polygon fill="midnightblue" stroke="midnightblue" points="193.3,-189.798 182.924,-187.655 189.698,-195.801 193.3,-189.798"/>
</g>
<!-- Node10 -->
<g id="node11" class="node"><title>Node10</title>
<g id="a_node11"><a xlink:href="../../d9/d98/TeensyUSBTypes_8hpp.html" target="_top" xlink:title=" ">
<polygon fill="white" stroke="black" points="222.5,-168.5 222.5,-187.5 374.5,-187.5 374.5,-168.5 222.5,-168.5"/>
<text text-anchor="middle" x="298.5" y="-175.5" font-family="Helvetica,sans-Serif" font-size="10.00">Helpers/TeensyUSBTypes.hpp</text>
</a>
</g>
</g>
<!-- Node2&#45;&gt;Node10 -->
<g id="edge12" class="edge"><title>Node2&#45;&gt;Node10</title>
<path fill="none" stroke="midnightblue" d="M265.105,-224.083C270.755,-216.455 279.045,-205.264 285.951,-195.941"/>
<polygon fill="midnightblue" stroke="midnightblue" points="288.878,-197.87 292.018,-187.751 283.253,-193.703 288.878,-197.87"/>
</g>
<!-- Node4 -->
<g id="node5" class="node"><title>Node4</title>
<g id="a_node5"><a xlink:href="../../d0/d4e/Def_8hpp.html" target="_top" xlink:title=" ">
<polygon fill="white" stroke="black" points="133.5,-112.5 133.5,-131.5 203.5,-131.5 203.5,-112.5 133.5,-112.5"/>
<text text-anchor="middle" x="168.5" y="-119.5" font-family="Helvetica,sans-Serif" font-size="10.00">Def/Def.hpp</text>
</a>
</g>
</g>
<!-- Node3&#45;&gt;Node4 -->
<g id="edge4" class="edge"><title>Node3&#45;&gt;Node4</title>
<path fill="none" stroke="midnightblue" d="M168.5,-168.083C168.5,-161.006 168.5,-150.861 168.5,-141.986"/>
<polygon fill="midnightblue" stroke="midnightblue" points="172,-141.751 168.5,-131.751 165,-141.751 172,-141.751"/>
</g>
<!-- Node5 -->
<g id="node6" class="node"><title>Node5</title>
<g id="a_node6"><a xlink:href="../../d7/d42/Channel_8hpp.html" target="_top" xlink:title=" ">
<polygon fill="white" stroke="black" points="0,-56.5 0,-75.5 71,-75.5 71,-56.5 0,-56.5"/>
<text text-anchor="middle" x="35.5" y="-63.5" font-family="Helvetica,sans-Serif" font-size="10.00">Channel.hpp</text>
</a>
</g>
</g>
<!-- Node4&#45;&gt;Node5 -->
<g id="edge5" class="edge"><title>Node4&#45;&gt;Node5</title>
<path fill="none" stroke="midnightblue" d="M147.426,-112.444C125.44,-103.517 90.7657,-89.4387 65.8359,-79.3168"/>
<polygon fill="midnightblue" stroke="midnightblue" points="67.0578,-76.0355 56.4756,-75.5164 64.4244,-82.5213 67.0578,-76.0355"/>
</g>
<!-- Node6 -->
<g id="node7" class="node"><title>Node6</title>
<g id="a_node7"><a xlink:title=" ">
<polygon fill="white" stroke="#bfbfbf" points="43,-0.5 43,-19.5 92,-19.5 92,-0.5 43,-0.5"/>
<text text-anchor="middle" x="67.5" y="-7.5" font-family="Helvetica,sans-Serif" font-size="10.00">stdint.h</text>
</a>
</g>
</g>
<!-- Node4&#45;&gt;Node6 -->
<g id="edge11" class="edge"><title>Node4&#45;&gt;Node6</title>
<path fill="none" stroke="midnightblue" d="M157.667,-112.192C147.193,-103.462 131.1,-89.4806 118.5,-76 104.176,-60.6743 89.5731,-41.6453 79.6852,-28.1461"/>
<polygon fill="midnightblue" stroke="midnightblue" points="82.3473,-25.8542 73.6544,-19.7975 76.673,-29.9533 82.3473,-25.8542"/>
</g>
<!-- Node7 -->
<g id="node8" class="node"><title>Node7</title>
<g id="a_node8"><a xlink:href="../../dc/d50/Frequency_8hpp.html" target="_top" xlink:title=" ">
<polygon fill="white" stroke="black" points="128,-56.5 128,-75.5 209,-75.5 209,-56.5 128,-56.5"/>
<text text-anchor="middle" x="168.5" y="-63.5" font-family="Helvetica,sans-Serif" font-size="10.00">Frequency.hpp</text>
</a>
</g>
</g>
<!-- Node4&#45;&gt;Node7 -->
<g id="edge7" class="edge"><title>Node4&#45;&gt;Node7</title>
<path fill="none" stroke="midnightblue" d="M168.5,-112.083C168.5,-105.006 168.5,-94.8611 168.5,-85.9865"/>
<polygon fill="midnightblue" stroke="midnightblue" points="172,-85.751 168.5,-75.7511 165,-85.7511 172,-85.751"/>
</g>
<!-- Node8 -->
<g id="node9" class="node"><title>Node8</title>
<g id="a_node9"><a xlink:href="../../de/d76/Array_8hpp.html" target="_top" xlink:title=" ">
<polygon fill="white" stroke="black" points="227,-56.5 227,-75.5 322,-75.5 322,-56.5 227,-56.5"/>
<text text-anchor="middle" x="274.5" y="-63.5" font-family="Helvetica,sans-Serif" font-size="10.00">Helpers/Array.hpp</text>
</a>
</g>
</g>
<!-- Node4&#45;&gt;Node8 -->
<g id="edge8" class="edge"><title>Node4&#45;&gt;Node8</title>
<path fill="none" stroke="midnightblue" d="M185.531,-112.324C202.53,-103.664 228.876,-90.2424 248.493,-80.249"/>
<polygon fill="midnightblue" stroke="midnightblue" points="250.19,-83.3125 257.512,-75.6545 247.012,-77.0752 250.19,-83.3125"/>
</g>
<!-- Node9 -->
<g id="node10" class="node"><title>Node9</title>
<g id="a_node10"><a xlink:title=" ">
<polygon fill="white" stroke="#bfbfbf" points="286.5,-0.5 286.5,-19.5 338.5,-19.5 338.5,-0.5 286.5,-0.5"/>
<text text-anchor="middle" x="312.5" y="-7.5" font-family="Helvetica,sans-Serif" font-size="10.00">stddef.h</text>
</a>
</g>
</g>
<!-- Node4&#45;&gt;Node9 -->
<g id="edge10" class="edge"><title>Node4&#45;&gt;Node9</title>
<path fill="none" stroke="midnightblue" d="M203.727,-116.216C246.61,-109.585 315.221,-96.1017 330.5,-76 340.978,-62.2148 333.345,-42.6671 325.028,-28.6138"/>
<polygon fill="midnightblue" stroke="midnightblue" points="327.754,-26.3848 319.375,-19.9007 321.882,-30.1948 327.754,-26.3848"/>
</g>
<!-- Node5&#45;&gt;Node6 -->
<g id="edge6" class="edge"><title>Node5&#45;&gt;Node6</title>
<path fill="none" stroke="midnightblue" d="M40.7841,-56.083C45.211,-48.6127 51.6633,-37.7244 57.1179,-28.5199"/>
<polygon fill="midnightblue" stroke="midnightblue" points="60.2271,-30.1383 62.3142,-19.7511 54.2051,-26.5697 60.2271,-30.1383"/>
</g>
<!-- Node8&#45;&gt;Node9 -->
<g id="edge9" class="edge"><title>Node8&#45;&gt;Node9</title>
<path fill="none" stroke="midnightblue" d="M280.775,-56.083C286.142,-48.4554 294.018,-37.2645 300.579,-27.9408"/>
<polygon fill="midnightblue" stroke="midnightblue" points="303.449,-29.9434 306.342,-19.7511 297.725,-25.9149 303.449,-29.9434"/>
</g>
<!-- Node13 -->
<g id="node14" class="node"><title>Node13</title>
<g id="a_node14"><a xlink:title=" ">
<polygon fill="white" stroke="#bfbfbf" points="431.5,-168.5 431.5,-187.5 489.5,-187.5 489.5,-168.5 431.5,-168.5"/>
<text text-anchor="middle" x="460.5" y="-175.5" font-family="Helvetica,sans-Serif" font-size="10.00">Arduino.h</text>
</a>
</g>
</g>
<!-- Node12&#45;&gt;Node13 -->
<g id="edge16" class="edge"><title>Node12&#45;&gt;Node13</title>
<path fill="none" stroke="midnightblue" d="M460.5,-224.083C460.5,-217.006 460.5,-206.861 460.5,-197.986"/>
<polygon fill="midnightblue" stroke="midnightblue" points="464,-197.751 460.5,-187.751 457,-197.751 464,-197.751"/>
</g>
</g>
</svg>
