<?xml version="1.0" encoding="UTF-8" standalone="no"?>
<!DOCTYPE svg PUBLIC "-//W3C//DTD SVG 1.1//EN"
 "http://www.w3.org/Graphics/SVG/1.1/DTD/svg11.dtd">
<!-- Generated by graphviz version 2.38.0 (20140413.2041)
 -->
<!-- Title: MIDINote.hpp Pages: 1 -->
<svg width="799pt" height="476pt"
 viewBox="0.00 0.00 798.80 476.00" xmlns="http://www.w3.org/2000/svg" xmlns:xlink="http://www.w3.org/1999/xlink">
<g id="graph0" class="graph" transform="scale(1 1) rotate(0) translate(4 472)">
<title>MIDINote.hpp</title>
<polygon fill="white" stroke="none" points="-4,4 -4,-472 794.8,-472 794.8,4 -4,4"/>
<!-- Node0 -->
<g id="node1" class="node"><title>Node0</title>
<g id="a_node1"><a xlink:title=" ">
<polygon fill="#bfbfbf" stroke="black" points="199,-448.5 199,-467.5 277,-467.5 277,-448.5 199,-448.5"/>
<text text-anchor="middle" x="238" y="-455.5" font-family="Helvetica,sans-Serif" font-size="10.00">MIDINote.hpp</text>
</a>
</g>
</g>
<!-- Node1 -->
<g id="node2" class="node"><title>Node1</title>
<g id="a_node2"><a xlink:href="../../d5/d5f/MIDIInputElementNote_8hpp.html" target="_top" xlink:title=" ">
<polygon fill="white" stroke="black" points="264,-392.5 264,-411.5 400,-411.5 400,-392.5 264,-392.5"/>
<text text-anchor="middle" x="332" y="-399.5" font-family="Helvetica,sans-Serif" font-size="10.00">MIDIInputElementNote.hpp</text>
</a>
</g>
</g>
<!-- Node0&#45;&gt;Node1 -->
<g id="edge1" class="edge"><title>Node0&#45;&gt;Node1</title>
<path fill="none" stroke="midnightblue" d="M253.103,-448.324C267.903,-439.822 290.694,-426.729 307.982,-416.797"/>
<polygon fill="midnightblue" stroke="midnightblue" points="310.007,-419.671 316.935,-411.655 306.52,-413.601 310.007,-419.671"/>
</g>
<!-- Node14 -->
<g id="node15" class="node"><title>Node14</title>
<g id="a_node15"><a xlink:href="../../d7/d03/BankableMIDIInputAddressable_8hpp.html" target="_top" xlink:title=" ">
<polygon fill="white" stroke="black" points="42,-392.5 42,-411.5 246,-411.5 246,-392.5 42,-392.5"/>
<text text-anchor="middle" x="144" y="-399.5" font-family="Helvetica,sans-Serif" font-size="10.00">Banks/BankableMIDIInputAddressable.hpp</text>
</a>
</g>
</g>
<!-- Node0&#45;&gt;Node14 -->
<g id="edge20" class="edge"><title>Node0&#45;&gt;Node14</title>
<path fill="none" stroke="midnightblue" d="M222.897,-448.324C208.097,-439.822 185.306,-426.729 168.018,-416.797"/>
<polygon fill="midnightblue" stroke="midnightblue" points="169.48,-413.601 159.065,-411.655 165.993,-419.671 169.48,-413.601"/>
</g>
<!-- Node2 -->
<g id="node3" class="node"><title>Node2</title>
<g id="a_node3"><a xlink:href="../../d3/d9c/MIDIInputElementAddressable_8hpp.html" target="_top" xlink:title=" ">
<polygon fill="white" stroke="black" points="373.5,-336.5 373.5,-355.5 542.5,-355.5 542.5,-336.5 373.5,-336.5"/>
<text text-anchor="middle" x="458" y="-343.5" font-family="Helvetica,sans-Serif" font-size="10.00">MIDIInputElementAddressable.hpp</text>
</a>
</g>
</g>
<!-- Node1&#45;&gt;Node2 -->
<g id="edge2" class="edge"><title>Node1&#45;&gt;Node2</title>
<path fill="none" stroke="midnightblue" d="M351.965,-392.444C372.609,-383.596 405.063,-369.687 428.632,-359.586"/>
<polygon fill="midnightblue" stroke="midnightblue" points="430.316,-362.673 438.128,-355.516 427.558,-356.239 430.316,-362.673"/>
</g>
<!-- Node13 -->
<g id="node14" class="node"><title>Node13</title>
<g id="a_node14"><a xlink:href="../../de/dd1/LinkedList_8hpp.html" target="_top" xlink:title=" ">
<polygon fill="white" stroke="black" points="28,-224.5 28,-243.5 144,-243.5 144,-224.5 28,-224.5"/>
<text text-anchor="middle" x="86" y="-231.5" font-family="Helvetica,sans-Serif" font-size="10.00">Helpers/LinkedList.hpp</text>
</a>
</g>
</g>
<!-- Node1&#45;&gt;Node13 -->
<g id="edge17" class="edge"><title>Node1&#45;&gt;Node13</title>
<path fill="none" stroke="midnightblue" d="M319.12,-392.309C279.101,-365.304 156.639,-282.667 107.114,-249.248"/>
<polygon fill="midnightblue" stroke="midnightblue" points="108.999,-246.297 98.7522,-243.605 105.084,-252.1 108.999,-246.297"/>
</g>
<!-- Node3 -->
<g id="node4" class="node"><title>Node3</title>
<g id="a_node4"><a xlink:href="../../db/df0/MIDI__message__matcher_8h.html" target="_top" xlink:title=" ">
<polygon fill="white" stroke="black" points="488,-280.5 488,-299.5 620,-299.5 620,-280.5 488,-280.5"/>
<text text-anchor="middle" x="554" y="-287.5" font-family="Helvetica,sans-Serif" font-size="10.00">MIDI_message_matcher.h</text>
</a>
</g>
</g>
<!-- Node2&#45;&gt;Node3 -->
<g id="edge3" class="edge"><title>Node2&#45;&gt;Node3</title>
<path fill="none" stroke="midnightblue" d="M473.424,-336.324C488.54,-327.822 511.815,-314.729 529.471,-304.797"/>
<polygon fill="midnightblue" stroke="midnightblue" points="531.614,-307.608 538.614,-299.655 528.183,-301.507 531.614,-307.608"/>
</g>
<!-- Node4 -->
<g id="node5" class="node"><title>Node4</title>
<g id="a_node5"><a xlink:href="../../d4/d36/MIDI__Parser_8h.html" target="_top" xlink:title=" ">
<polygon fill="white" stroke="black" points="523,-224.5 523,-243.5 667,-243.5 667,-224.5 523,-224.5"/>
<text text-anchor="middle" x="595" y="-231.5" font-family="Helvetica,sans-Serif" font-size="10.00">MIDI_Parsers/MIDI_Parser.h</text>
</a>
</g>
</g>
<!-- Node3&#45;&gt;Node4 -->
<g id="edge4" class="edge"><title>Node3&#45;&gt;Node4</title>
<path fill="none" stroke="midnightblue" d="M560.77,-280.083C566.562,-272.455 575.058,-261.264 582.138,-251.941"/>
<polygon fill="midnightblue" stroke="midnightblue" points="585.096,-253.832 588.356,-243.751 579.521,-249.599 585.096,-253.832"/>
</g>
<!-- Node5 -->
<g id="node6" class="node"><title>Node5</title>
<g id="a_node6"><a xlink:title=" ">
<polygon fill="white" stroke="#bfbfbf" points="539,-56.5 539,-75.5 591,-75.5 591,-56.5 539,-56.5"/>
<text text-anchor="middle" x="565" y="-63.5" font-family="Helvetica,sans-Serif" font-size="10.00">stddef.h</text>
</a>
</g>
</g>
<!-- Node4&#45;&gt;Node5 -->
<g id="edge5" class="edge"><title>Node4&#45;&gt;Node5</title>
<path fill="none" stroke="midnightblue" d="M637.88,-224.486C675.232,-214.953 720.706,-196.93 702,-168 680.83,-135.258 653.346,-155.186 622,-132 603.787,-118.528 587.236,-98.3463 576.718,-84.0503"/>
<polygon fill="midnightblue" stroke="midnightblue" points="579.375,-81.7477 570.721,-75.6354 573.675,-85.8103 579.375,-81.7477"/>
</g>
<!-- Node6 -->
<g id="node7" class="node"><title>Node6</title>
<g id="a_node7"><a xlink:title=" ">
<polygon fill="white" stroke="#bfbfbf" points="734.5,-56.5 734.5,-75.5 783.5,-75.5 783.5,-56.5 734.5,-56.5"/>
<text text-anchor="middle" x="759" y="-63.5" font-family="Helvetica,sans-Serif" font-size="10.00">stdint.h</text>
</a>
</g>
</g>
<!-- Node4&#45;&gt;Node6 -->
<g id="edge6" class="edge"><title>Node4&#45;&gt;Node6</title>
<path fill="none" stroke="midnightblue" d="M631.466,-224.485C657.298,-217.365 692.012,-205.522 719,-188 747.999,-169.172 760.059,-164.062 773,-132 779.197,-116.646 774.055,-98.0915 768.334,-84.7435"/>
<polygon fill="midnightblue" stroke="midnightblue" points="771.483,-83.2156 764.025,-75.6902 765.163,-86.2239 771.483,-83.2156"/>
</g>
<!-- Node7 -->
<g id="node8" class="node"><title>Node7</title>
<g id="a_node8"><a xlink:title=" ">
<polygon fill="white" stroke="#bfbfbf" points="101,-56.5 101,-75.5 149,-75.5 149,-56.5 101,-56.5"/>
<text text-anchor="middle" x="125" y="-63.5" font-family="Helvetica,sans-Serif" font-size="10.00">stdlib.h</text>
</a>
</g>
</g>
<!-- Node4&#45;&gt;Node7 -->
<g id="edge7" class="edge"><title>Node4&#45;&gt;Node7</title>
<path fill="none" stroke="midnightblue" d="M594.954,-224.417C594.388,-210.453 591.147,-182.884 575,-168 566.909,-160.541 224.835,-90.1821 159.146,-75.9671"/>
<polygon fill="midnightblue" stroke="midnightblue" points="159.638,-72.4907 149.115,-73.7236 158.11,-79.322 159.638,-72.4907"/>
</g>
<!-- Node8 -->
<g id="node9" class="node"><title>Node8</title>
<g id="a_node9"><a xlink:href="../../d4/d6b/SettingsWrapper_8h.html" target="_top" xlink:title=" ">
<polygon fill="white" stroke="black" points="429.5,-168.5 429.5,-187.5 566.5,-187.5 566.5,-168.5 429.5,-168.5"/>
<text text-anchor="middle" x="498" y="-175.5" font-family="Helvetica,sans-Serif" font-size="10.00">Settings/SettingsWrapper.h</text>
</a>
</g>
</g>
<!-- Node4&#45;&gt;Node8 -->
<g id="edge8" class="edge"><title>Node4&#45;&gt;Node8</title>
<path fill="none" stroke="midnightblue" d="M579.415,-224.324C564.001,-215.743 540.188,-202.486 522.29,-192.522"/>
<polygon fill="midnightblue" stroke="midnightblue" points="523.986,-189.461 513.546,-187.655 520.581,-195.577 523.986,-189.461"/>
</g>
<!-- Node9 -->
<g id="node10" class="node"><title>Node9</title>
<g id="a_node10"><a xlink:href="../../dd/dbc/Settings_8h.html" target="_top" xlink:title="All user settings and debugging options can be changed here.">
<polygon fill="white" stroke="black" points="631.5,-112.5 631.5,-131.5 692.5,-131.5 692.5,-112.5 631.5,-112.5"/>
<text text-anchor="middle" x="662" y="-119.5" font-family="Helvetica,sans-Serif" font-size="10.00">Settings.h</text>
</a>
</g>
</g>
<!-- Node8&#45;&gt;Node9 -->
<g id="edge9" class="edge"><title>Node8&#45;&gt;Node9</title>
<path fill="none" stroke="midnightblue" d="M523.986,-168.444C551.696,-159.32 595.752,-144.813 626.616,-134.651"/>
<polygon fill="midnightblue" stroke="midnightblue" points="627.732,-137.968 636.135,-131.516 625.542,-131.32 627.732,-137.968"/>
</g>
<!-- Node10 -->
<g id="node11" class="node"><title>Node10</title>
<g id="a_node11"><a xlink:href="../../df/dee/Debug_8hpp.html" target="_top" xlink:title=" ">
<polygon fill="white" stroke="black" points="115.5,-112.5 115.5,-131.5 216.5,-131.5 216.5,-112.5 115.5,-112.5"/>
<text text-anchor="middle" x="166" y="-119.5" font-family="Helvetica,sans-Serif" font-size="10.00">Helpers/Debug.hpp</text>
</a>
</g>
</g>
<!-- Node8&#45;&gt;Node10 -->
<g id="edge12" class="edge"><title>Node8&#45;&gt;Node10</title>
<path fill="none" stroke="midnightblue" d="M440.305,-168.444C379.442,-158.885 284.245,-143.419 223.469,-133.23"/>
<polygon fill="midnightblue" stroke="midnightblue" points="223.722,-129.723 213.28,-131.516 222.561,-136.626 223.722,-129.723"/>
</g>
<!-- Node9&#45;&gt;Node5 -->
<g id="edge10" class="edge"><title>Node9&#45;&gt;Node5</title>
<path fill="none" stroke="midnightblue" d="M646.415,-112.324C631.001,-103.743 607.188,-90.486 589.29,-80.5224"/>
<polygon fill="midnightblue" stroke="midnightblue" points="590.986,-77.4606 580.546,-75.6545 587.581,-83.5767 590.986,-77.4606"/>
</g>
<!-- Node9&#45;&gt;Node6 -->
<g id="edge11" class="edge"><title>Node9&#45;&gt;Node6</title>
<path fill="none" stroke="midnightblue" d="M677.585,-112.324C692.999,-103.743 716.812,-90.486 734.71,-80.5224"/>
<polygon fill="midnightblue" stroke="midnightblue" points="736.419,-83.5767 743.454,-75.6545 733.014,-77.4606 736.419,-83.5767"/>
</g>
<!-- Node10&#45;&gt;Node7 -->
<g id="edge14" class="edge"><title>Node10&#45;&gt;Node7</title>
<path fill="none" stroke="midnightblue" d="M159.23,-112.083C153.438,-104.455 144.942,-93.2645 137.862,-83.9408"/>
<polygon fill="midnightblue" stroke="midnightblue" points="140.479,-81.5991 131.644,-75.7511 134.904,-85.8321 140.479,-81.5991"/>
</g>
<!-- Node10&#45;&gt;Node8 -->
<g id="edge13" class="edge"><title>Node10&#45;&gt;Node8</title>
<path fill="none" stroke="midnightblue" d="M216.511,-130.431C276.751,-139.848 377.04,-156.127 440.279,-166.728"/>
<polygon fill="midnightblue" stroke="midnightblue" points="440.04,-170.237 450.482,-168.444 441.201,-163.334 440.04,-170.237"/>
</g>
<!-- Node11 -->
<g id="node12" class="node"><title>Node11</title>
<g id="a_node12"><a xlink:href="../../dc/d48/PrintStream_8h.html" target="_top" xlink:title=" ">
<polygon fill="white" stroke="black" points="167.5,-56.5 167.5,-75.5 244.5,-75.5 244.5,-56.5 167.5,-56.5"/>
<text text-anchor="middle" x="206" y="-63.5" font-family="Helvetica,sans-Serif" font-size="10.00">PrintStream.h</text>
</a>
</g>
</g>
<!-- Node10&#45;&gt;Node11 -->
<g id="edge15" class="edge"><title>Node10&#45;&gt;Node11</title>
<path fill="none" stroke="midnightblue" d="M172.605,-112.083C178.255,-104.455 186.545,-93.2645 193.451,-83.9408"/>
<polygon fill="midnightblue" stroke="midnightblue" points="196.378,-85.87 199.518,-75.7511 190.753,-81.7034 196.378,-85.87"/>
</g>
<!-- Node12 -->
<g id="node13" class="node"><title>Node12</title>
<g id="a_node13"><a xlink:title=" ">
<polygon fill="white" stroke="#bfbfbf" points="177,-0.5 177,-19.5 235,-19.5 235,-0.5 177,-0.5"/>
<text text-anchor="middle" x="206" y="-7.5" font-family="Helvetica,sans-Serif" font-size="10.00">Arduino.h</text>
</a>
</g>
</g>
<!-- Node11&#45;&gt;Node12 -->
<g id="edge16" class="edge"><title>Node11&#45;&gt;Node12</title>
<path fill="none" stroke="midnightblue" d="M206,-56.083C206,-49.0059 206,-38.8611 206,-29.9865"/>
<polygon fill="midnightblue" stroke="midnightblue" points="209.5,-29.751 206,-19.7511 202.5,-29.7511 209.5,-29.751"/>
</g>
<!-- Node13&#45;&gt;Node7 -->
<g id="edge18" class="edge"><title>Node13&#45;&gt;Node7</title>
<path fill="none" stroke="midnightblue" d="M86.7256,-224.337C88.5592,-204.258 94.1045,-153.11 106,-112 108.652,-102.836 112.642,-93.0355 116.283,-84.9282"/>
<polygon fill="midnightblue" stroke="midnightblue" points="119.514,-86.2807 120.579,-75.7396 113.173,-83.3155 119.514,-86.2807"/>
</g>
<!-- Node13&#45;&gt;Node10 -->
<g id="edge19" class="edge"><title>Node13&#45;&gt;Node10</title>
<path fill="none" stroke="midnightblue" d="M88.1782,-224.35C91.7757,-211.24 99.8927,-185.967 113,-168 121.559,-156.268 133.779,-145.624 144.329,-137.637"/>
<polygon fill="midnightblue" stroke="midnightblue" points="146.636,-140.288 152.681,-131.587 142.529,-134.619 146.636,-140.288"/>
</g>
<!-- Node14&#45;&gt;Node10 -->
<g id="edge40" class="edge"><title>Node14&#45;&gt;Node10</title>
<path fill="none" stroke="midnightblue" d="M112.754,-392.415C70.4026,-378.655 0,-347.313 0,-291 0,-291 0,-291 0,-233 0,-177.368 65.5868,-148.212 114.308,-134.228"/>
<polygon fill="midnightblue" stroke="midnightblue" points="115.387,-137.562 124.111,-131.551 113.542,-130.81 115.387,-137.562"/>
</g>
<!-- Node14&#45;&gt;Node13 -->
<g id="edge41" class="edge"><title>Node14&#45;&gt;Node13</title>
<path fill="none" stroke="midnightblue" d="M114.119,-392.387C96.4604,-385.587 75.5494,-374.15 65,-356 45.884,-323.111 63.614,-277.292 76.116,-252.541"/>
<polygon fill="midnightblue" stroke="midnightblue" points="79.2664,-254.072 80.8757,-243.6 73.0872,-250.782 79.2664,-254.072"/>
</g>
<!-- Node15 -->
<g id="node16" class="node"><title>Node15</title>
<g id="a_node16"><a xlink:href="../../d1/dd8/Bank_8h.html" target="_top" xlink:title=" ">
<polygon fill="white" stroke="black" points="244.5,-280.5 244.5,-299.5 291.5,-299.5 291.5,-280.5 244.5,-280.5"/>
<text text-anchor="middle" x="268" y="-287.5" font-family="Helvetica,sans-Serif" font-size="10.00">Bank.h</text>
</a>
</g>
</g>
<!-- Node14&#45;&gt;Node15 -->
<g id="edge21" class="edge"><title>Node14&#45;&gt;Node15</title>
<path fill="none" stroke="midnightblue" d="M157.247,-392.469C172.418,-384.692 196.54,-371.991 214,-356 229.111,-342.16 241.902,-322.356 251.724,-308.251"/>
<polygon fill="midnightblue" stroke="midnightblue" points="254.722,-310.079 257.745,-299.925 249.049,-305.977 254.722,-310.079"/>
</g>
<!-- Node21 -->
<g id="node22" class="node"><title>Node21</title>
<g id="a_node22"><a xlink:href="../../db/dd1/BankConfigAddressable_8hpp.html" target="_top" xlink:title=" ">
<polygon fill="white" stroke="black" points="74,-336.5 74,-355.5 214,-355.5 214,-336.5 74,-336.5"/>
<text text-anchor="middle" x="144" y="-343.5" font-family="Helvetica,sans-Serif" font-size="10.00">BankConfigAddressable.hpp</text>
</a>
</g>
</g>
<!-- Node14&#45;&gt;Node21 -->
<g id="edge38" class="edge"><title>Node14&#45;&gt;Node21</title>
<path fill="none" stroke="midnightblue" d="M144,-392.083C144,-385.006 144,-374.861 144,-365.986"/>
<polygon fill="midnightblue" stroke="midnightblue" points="147.5,-365.751 144,-355.751 140.5,-365.751 147.5,-365.751"/>
</g>
<!-- Node15&#45;&gt;Node5 -->
<g id="edge35" class="edge"><title>Node15&#45;&gt;Node5</title>
<path fill="none" stroke="midnightblue" d="M267.473,-280.202C266.656,-258.46 267.536,-201.535 296,-168 355.868,-97.4676 470.17,-76.122 528.617,-69.7138"/>
<polygon fill="midnightblue" stroke="midnightblue" points="529.256,-73.1673 538.855,-68.6826 528.555,-66.2025 529.256,-73.1673"/>
</g>
<!-- Node15&#45;&gt;Node6 -->
<g id="edge36" class="edge"><title>Node15&#45;&gt;Node6</title>
<path fill="none" stroke="midnightblue" d="M291.637,-288.079C367.709,-284.852 605.343,-272.668 676,-244 741.523,-217.414 767.026,-199.21 789,-132 794.586,-114.915 784.286,-96.3887 774.266,-83.5025"/>
<polygon fill="midnightblue" stroke="midnightblue" points="776.696,-80.9555 767.573,-75.5693 771.346,-85.4694 776.696,-80.9555"/>
</g>
<!-- Node15&#45;&gt;Node10 -->
<g id="edge22" class="edge"><title>Node15&#45;&gt;Node10</title>
<path fill="none" stroke="midnightblue" d="M249.587,-280.391C221.138,-265.93 167.534,-233.783 146,-188 138.721,-172.525 146.082,-153.753 153.846,-140.369"/>
<polygon fill="midnightblue" stroke="midnightblue" points="156.947,-142.015 159.367,-131.7 151.043,-138.254 156.947,-142.015"/>
</g>
<!-- Node15&#45;&gt;Node13 -->
<g id="edge25" class="edge"><title>Node15&#45;&gt;Node13</title>
<path fill="none" stroke="midnightblue" d="M244.207,-281.94C213.821,-272.925 160.849,-257.208 124.64,-246.465"/>
<polygon fill="midnightblue" stroke="midnightblue" points="125.487,-243.065 114.904,-243.576 123.496,-249.776 125.487,-243.065"/>
</g>
<!-- Node15&#45;&gt;Node14 -->
<g id="edge37" class="edge"><title>Node15&#45;&gt;Node14</title>
<path fill="none" stroke="midnightblue" d="M269.277,-299.925C265.394,-313.393 250.421,-339.128 232,-356 217.404,-369.368 198.154,-380.436 181.253,-388.251"/>
<polygon fill="midnightblue" stroke="midnightblue" points="179.381,-385.25 171.626,-392.469 182.19,-391.661 179.381,-385.25"/>
</g>
<!-- Node16 -->
<g id="node17" class="node"><title>Node16</title>
<g id="a_node17"><a xlink:href="../../d1/d93/Error_8hpp.html" target="_top" xlink:title=" ">
<polygon fill="white" stroke="black" points="155.5,-168.5 155.5,-187.5 248.5,-187.5 248.5,-168.5 155.5,-168.5"/>
<text text-anchor="middle" x="202" y="-175.5" font-family="Helvetica,sans-Serif" font-size="10.00">Helpers/Error.hpp</text>
</a>
</g>
</g>
<!-- Node15&#45;&gt;Node16 -->
<g id="edge23" class="edge"><title>Node15&#45;&gt;Node16</title>
<path fill="none" stroke="midnightblue" d="M262.821,-280.368C251.977,-262.296 226.706,-220.176 212.384,-196.307"/>
<polygon fill="midnightblue" stroke="midnightblue" points="215.301,-194.366 207.155,-187.591 209.299,-197.967 215.301,-194.366"/>
</g>
<!-- Node17 -->
<g id="node18" class="node"><title>Node17</title>
<g id="a_node18"><a xlink:href="../../d9/d46/Selectable_8hpp.html" target="_top" xlink:title=" ">
<polygon fill="white" stroke="black" points="305.5,-224.5 305.5,-243.5 430.5,-243.5 430.5,-224.5 305.5,-224.5"/>
<text text-anchor="middle" x="368" y="-231.5" font-family="Helvetica,sans-Serif" font-size="10.00">Selectors/Selectable.hpp</text>
</a>
</g>
</g>
<!-- Node15&#45;&gt;Node17 -->
<g id="edge26" class="edge"><title>Node15&#45;&gt;Node17</title>
<path fill="none" stroke="midnightblue" d="M284.067,-280.324C299.958,-271.743 324.507,-258.486 342.958,-248.522"/>
<polygon fill="midnightblue" stroke="midnightblue" points="344.837,-251.486 351.973,-243.655 341.511,-245.326 344.837,-251.486"/>
</g>
<!-- Node16&#45;&gt;Node10 -->
<g id="edge24" class="edge"><title>Node16&#45;&gt;Node10</title>
<path fill="none" stroke="midnightblue" d="M196.055,-168.083C191.023,-160.534 183.663,-149.495 177.487,-140.23"/>
<polygon fill="midnightblue" stroke="midnightblue" points="180.293,-138.13 171.834,-131.751 174.469,-142.013 180.293,-138.13"/>
</g>
<!-- Node17&#45;&gt;Node6 -->
<g id="edge33" class="edge"><title>Node17&#45;&gt;Node6</title>
<path fill="none" stroke="midnightblue" d="M430.58,-227.804C521.208,-219.795 680.553,-203.711 702,-188 735.916,-163.155 750.369,-112.929 755.925,-85.651"/>
<polygon fill="midnightblue" stroke="midnightblue" points="759.368,-86.2786 757.742,-75.8092 752.485,-85.0074 759.368,-86.2786"/>
</g>
<!-- Node17&#45;&gt;Node16 -->
<g id="edge32" class="edge"><title>Node17&#45;&gt;Node16</title>
<path fill="none" stroke="midnightblue" d="M341.697,-224.444C313.649,-215.32 269.056,-200.813 237.816,-190.651"/>
<polygon fill="midnightblue" stroke="midnightblue" points="238.772,-187.282 228.18,-187.516 236.607,-193.938 238.772,-187.282"/>
</g>
<!-- Node18 -->
<g id="node19" class="node"><title>Node18</title>
<g id="a_node19"><a xlink:href="../../d0/d4e/Def_8hpp.html" target="_top" xlink:title=" ">
<polygon fill="white" stroke="black" points="623,-168.5 623,-187.5 693,-187.5 693,-168.5 623,-168.5"/>
<text text-anchor="middle" x="658" y="-175.5" font-family="Helvetica,sans-Serif" font-size="10.00">Def/Def.hpp</text>
</a>
</g>
</g>
<!-- Node17&#45;&gt;Node18 -->
<g id="edge27" class="edge"><title>Node17&#45;&gt;Node18</title>
<path fill="none" stroke="midnightblue" d="M413.951,-224.444C468.416,-214.302 558.596,-197.51 612.751,-187.426"/>
<polygon fill="midnightblue" stroke="midnightblue" points="613.564,-190.835 622.754,-185.563 612.282,-183.953 613.564,-190.835"/>
</g>
<!-- Node20 -->
<g id="node21" class="node"><title>Node20</title>
<g id="a_node21"><a xlink:href="../../d7/dd7/Helpers_8hpp.html" target="_top" xlink:title=" ">
<polygon fill="white" stroke="black" points="305,-168.5 305,-187.5 411,-187.5 411,-168.5 305,-168.5"/>
<text text-anchor="middle" x="358" y="-175.5" font-family="Helvetica,sans-Serif" font-size="10.00">Helpers/Helpers.hpp</text>
</a>
</g>
</g>
<!-- Node17&#45;&gt;Node20 -->
<g id="edge34" class="edge"><title>Node17&#45;&gt;Node20</title>
<path fill="none" stroke="midnightblue" d="M366.349,-224.083C365.024,-216.927 363.118,-206.635 361.461,-197.691"/>
<polygon fill="midnightblue" stroke="midnightblue" points="364.883,-196.947 359.621,-187.751 358,-198.221 364.883,-196.947"/>
</g>
<!-- Node18&#45;&gt;Node5 -->
<g id="edge30" class="edge"><title>Node18&#45;&gt;Node5</title>
<path fill="none" stroke="midnightblue" d="M638.255,-168.412C622.915,-160.833 602.109,-148.435 589,-132 578.228,-118.495 571.989,-99.6867 568.587,-85.7753"/>
<polygon fill="midnightblue" stroke="midnightblue" points="571.977,-84.8929 566.435,-75.8633 565.136,-86.3783 571.977,-84.8929"/>
</g>
<!-- Node18&#45;&gt;Node6 -->
<g id="edge31" class="edge"><title>Node18&#45;&gt;Node6</title>
<path fill="none" stroke="midnightblue" d="M666.331,-168.456C675.059,-159.465 689.124,-144.861 701,-132 715.982,-115.776 732.742,-96.9131 744.378,-83.7"/>
<polygon fill="midnightblue" stroke="midnightblue" points="747.244,-85.7403 751.214,-75.9173 741.985,-81.1206 747.244,-85.7403"/>
</g>
<!-- Node19 -->
<g id="node20" class="node"><title>Node19</title>
<g id="a_node20"><a xlink:href="../../de/d76/Array_8hpp.html" target="_top" xlink:title=" ">
<polygon fill="white" stroke="black" points="441.5,-112.5 441.5,-131.5 536.5,-131.5 536.5,-112.5 441.5,-112.5"/>
<text text-anchor="middle" x="489" y="-119.5" font-family="Helvetica,sans-Serif" font-size="10.00">Helpers/Array.hpp</text>
</a>
</g>
</g>
<!-- Node18&#45;&gt;Node19 -->
<g id="edge28" class="edge"><title>Node18&#45;&gt;Node19</title>
<path fill="none" stroke="midnightblue" d="M631.221,-168.444C602.667,-159.32 557.267,-144.813 525.463,-134.651"/>
<polygon fill="midnightblue" stroke="midnightblue" points="526.244,-131.226 515.653,-131.516 524.114,-137.894 526.244,-131.226"/>
</g>
<!-- Node19&#45;&gt;Node5 -->
<g id="edge29" class="edge"><title>Node19&#45;&gt;Node5</title>
<path fill="none" stroke="midnightblue" d="M501.211,-112.324C512.776,-104.107 530.375,-91.6017 544.161,-81.8069"/>
<polygon fill="midnightblue" stroke="midnightblue" points="546.443,-84.4791 552.567,-75.8339 542.388,-78.7729 546.443,-84.4791"/>
</g>
<!-- Node21&#45;&gt;Node15 -->
<g id="edge39" class="edge"><title>Node21&#45;&gt;Node15</title>
<path fill="none" stroke="midnightblue" d="M163.648,-336.444C183.965,-327.596 215.903,-313.687 239.098,-303.586"/>
<polygon fill="midnightblue" stroke="midnightblue" points="240.673,-306.718 248.444,-299.516 237.878,-300.3 240.673,-306.718"/>
</g>
</g>
</svg>
