<?xml version="1.0" encoding="UTF-8" standalone="no"?>
<!DOCTYPE svg PUBLIC "-//W3C//DTD SVG 1.1//EN"
 "http://www.w3.org/Graphics/SVG/1.1/DTD/svg11.dtd">
<!-- Generated by graphviz version 2.38.0 (20140413.2041)
 -->
<!-- Title: MCU::VUDisplay::drawBlocks Pages: 1 -->
<svg width="489pt" height="39pt"
 viewBox="0.00 0.00 489.00 39.00" xmlns="http://www.w3.org/2000/svg" xmlns:xlink="http://www.w3.org/1999/xlink">
<g id="graph0" class="graph" transform="scale(1 1) rotate(0) translate(4 35)">
<title>MCU::VUDisplay::drawBlocks</title>
<polygon fill="white" stroke="none" points="-4,4 -4,-35 485,-35 485,4 -4,4"/>
<!-- Node1 -->
<g id="node1" class="node"><title>Node1</title>
<g id="a_node1"><a xlink:title=" ">
<polygon fill="#bfbfbf" stroke="black" points="0,-6 0,-25 150,-25 150,-6 0,-6"/>
<text text-anchor="middle" x="75" y="-13" font-family="Helvetica,sans-Serif" font-size="10.00">MCU::VUDisplay::drawBlocks</text>
</a>
</g>
</g>
<!-- Node2 -->
<g id="node2" class="node"><title>Node2</title>
<g id="a_node2"><a xlink:href="../../df/d42/classDisplayInterface.html#a40de38f452cb99a89778109fd85ce668" target="_top" xlink:title="Draw a filled rectangle.">
<polygon fill="white" stroke="black" points="186,-6 186,-25 311,-25 311,-6 186,-6"/>
<text text-anchor="middle" x="248.5" y="-13" font-family="Helvetica,sans-Serif" font-size="10.00">DisplayInterface::fillRect</text>
</a>
</g>
</g>
<!-- Node1&#45;&gt;Node2 -->
<g id="edge1" class="edge"><title>Node1&#45;&gt;Node2</title>
<path fill="none" stroke="midnightblue" d="M150.225,-15.5C158.656,-15.5 167.238,-15.5 175.638,-15.5"/>
<polygon fill="midnightblue" stroke="midnightblue" points="175.771,-19.0001 185.771,-15.5 175.771,-12.0001 175.771,-19.0001"/>
</g>
<!-- Node3 -->
<g id="node3" class="node"><title>Node3</title>
<g id="a_node3"><a xlink:href="../../df/d42/classDisplayInterface.html#a6a9bbde2f74cae1220b57cf4ad5bea96" target="_top" xlink:title="Draw a horizontal line.">
<polygon fill="white" stroke="black" points="347,-0.5 347,-30.5 481,-30.5 481,-0.5 347,-0.5"/>
<text text-anchor="start" x="355" y="-18.5" font-family="Helvetica,sans-Serif" font-size="10.00">DisplayInterface::drawFast</text>
<text text-anchor="middle" x="414" y="-7.5" font-family="Helvetica,sans-Serif" font-size="10.00">HLine</text>
</a>
</g>
</g>
<!-- Node2&#45;&gt;Node3 -->
<g id="edge2" class="edge"><title>Node2&#45;&gt;Node3</title>
<path fill="none" stroke="midnightblue" d="M311.312,-15.5C319.542,-15.5 328.058,-15.5 336.499,-15.5"/>
<polygon fill="midnightblue" stroke="midnightblue" points="336.734,-19.0001 346.734,-15.5 336.734,-12.0001 336.734,-19.0001"/>
</g>
</g>
</svg>
