<?xml version="1.0" encoding="UTF-8" standalone="no"?>
<!DOCTYPE svg PUBLIC "-//W3C//DTD SVG 1.1//EN"
 "http://www.w3.org/Graphics/SVG/1.1/DTD/svg11.dtd">
<!-- Generated by graphviz version 2.38.0 (20140413.2041)
 -->
<!-- Title: MCU::VPotDisplay Pages: 1 -->
<svg width="178pt" height="397pt"
 viewBox="0.00 0.00 178.00 397.00" xmlns="http://www.w3.org/2000/svg" xmlns:xlink="http://www.w3.org/1999/xlink">
<g id="graph0" class="graph" transform="scale(1 1) rotate(0) translate(4 393)">
<title>MCU::VPotDisplay</title>
<polygon fill="white" stroke="none" points="-4,4 -4,-393 174,-393 174,4 -4,4"/>
<!-- Node0 -->
<g id="node1" class="node"><title>Node0</title>
<g id="a_node1"><a xlink:title=" ">
<polygon fill="#bfbfbf" stroke="black" points="28.5,-0.5 28.5,-145.5 141.5,-145.5 141.5,-0.5 28.5,-0.5"/>
<text text-anchor="middle" x="85" y="-133.5" font-family="Helvetica,sans-Serif" font-size="10.00">MCU::VPotDisplay</text>
<polyline fill="none" stroke="black" points="28.5,-126.5 141.5,-126.5 "/>
<text text-anchor="start" x="36.5" y="-114.5" font-family="Helvetica,sans-Serif" font-size="10.00">&#45; vpot</text>
<text text-anchor="start" x="36.5" y="-103.5" font-family="Helvetica,sans-Serif" font-size="10.00">&#45; x</text>
<text text-anchor="start" x="36.5" y="-92.5" font-family="Helvetica,sans-Serif" font-size="10.00">&#45; y</text>
<text text-anchor="start" x="36.5" y="-81.5" font-family="Helvetica,sans-Serif" font-size="10.00">&#45; radius</text>
<text text-anchor="start" x="36.5" y="-70.5" font-family="Helvetica,sans-Serif" font-size="10.00">&#45; innerRadius</text>
<text text-anchor="start" x="36.5" y="-59.5" font-family="Helvetica,sans-Serif" font-size="10.00">&#45; color</text>
<text text-anchor="start" x="36.5" y="-48.5" font-family="Helvetica,sans-Serif" font-size="10.00">&#45; angleSpacing</text>
<polyline fill="none" stroke="black" points="28.5,-41.5 141.5,-41.5 "/>
<text text-anchor="start" x="36.5" y="-29.5" font-family="Helvetica,sans-Serif" font-size="10.00">+ VPotDisplay()</text>
<text text-anchor="start" x="36.5" y="-18.5" font-family="Helvetica,sans-Serif" font-size="10.00">+ draw()</text>
<text text-anchor="start" x="36.5" y="-7.5" font-family="Helvetica,sans-Serif" font-size="10.00"># drawVPotSegment()</text>
</a>
</g>
</g>
<!-- Node1 -->
<g id="node2" class="node"><title>Node1</title>
<g id="a_node2"><a xlink:href="../../d8/d43/classDisplayElement.html" target="_top" xlink:title=" ">
<polygon fill="white" stroke="black" points="31.5,-182.5 31.5,-283.5 138.5,-283.5 138.5,-182.5 31.5,-182.5"/>
<text text-anchor="middle" x="85" y="-271.5" font-family="Helvetica,sans-Serif" font-size="10.00">DisplayElement</text>
<polyline fill="none" stroke="black" points="31.5,-264.5 138.5,-264.5 "/>
<text text-anchor="start" x="39.5" y="-252.5" font-family="Helvetica,sans-Serif" font-size="10.00"># display</text>
<text text-anchor="start" x="39.5" y="-241.5" font-family="Helvetica,sans-Serif" font-size="10.00"># elements</text>
<polyline fill="none" stroke="black" points="31.5,-234.5 138.5,-234.5 "/>
<text text-anchor="start" x="39.5" y="-222.5" font-family="Helvetica,sans-Serif" font-size="10.00">+ ~DisplayElement()</text>
<text text-anchor="start" x="39.5" y="-211.5" font-family="Helvetica,sans-Serif" font-size="10.00">+ draw()</text>
<text text-anchor="start" x="39.5" y="-200.5" font-family="Helvetica,sans-Serif" font-size="10.00">+ drawAll()</text>
<text text-anchor="start" x="39.5" y="-189.5" font-family="Helvetica,sans-Serif" font-size="10.00"># DisplayElement()</text>
</a>
</g>
</g>
<!-- Node1&#45;&gt;Node0 -->
<g id="edge1" class="edge"><title>Node1&#45;&gt;Node0</title>
<path fill="none" stroke="midnightblue" d="M85,-172.381C85,-163.656 85,-154.595 85,-145.66"/>
<polygon fill="none" stroke="midnightblue" points="81.5001,-172.441 85,-182.441 88.5001,-172.441 81.5001,-172.441"/>
</g>
<!-- Node2 -->
<g id="node3" class="node"><title>Node2</title>
<g id="a_node3"><a xlink:href="../../d4/d23/classDoublyLinkable.html" target="_top" xlink:title=" ">
<polygon fill="white" stroke="black" points="0,-320.5 0,-388.5 170,-388.5 170,-320.5 0,-320.5"/>
<text text-anchor="middle" x="85" y="-376.5" font-family="Helvetica,sans-Serif" font-size="10.00">DoublyLinkable&lt; DisplayElement &gt;</text>
<polyline fill="none" stroke="black" points="0,-369.5 170,-369.5 "/>
<text text-anchor="start" x="8" y="-357.5" font-family="Helvetica,sans-Serif" font-size="10.00"># next</text>
<text text-anchor="start" x="8" y="-346.5" font-family="Helvetica,sans-Serif" font-size="10.00"># previous</text>
<polyline fill="none" stroke="black" points="0,-339.5 170,-339.5 "/>
<text text-anchor="start" x="8" y="-327.5" font-family="Helvetica,sans-Serif" font-size="10.00"># ~DoublyLinkable()</text>
</a>
</g>
</g>
<!-- Node2&#45;&gt;Node1 -->
<g id="edge2" class="edge"><title>Node2&#45;&gt;Node1</title>
<path fill="none" stroke="midnightblue" d="M85,-310.045C85,-301.469 85,-292.408 85,-283.646"/>
<polygon fill="none" stroke="midnightblue" points="81.5001,-310.213 85,-320.213 88.5001,-310.213 81.5001,-310.213"/>
</g>
</g>
</svg>
