<?xml version="1.0" encoding="UTF-8" standalone="no"?>
<!DOCTYPE svg PUBLIC "-//W3C//DTD SVG 1.1//EN"
 "http://www.w3.org/Graphics/SVG/1.1/DTD/svg11.dtd">
<!-- Generated by graphviz version 2.38.0 (20140413.2041)
 -->
<!-- Title: MIDIInputElementCC.hpp Pages: 1 -->
<svg width="816pt" height="252pt"
 viewBox="0.00 0.00 815.50 252.00" xmlns="http://www.w3.org/2000/svg" xmlns:xlink="http://www.w3.org/1999/xlink">
<g id="graph0" class="graph" transform="scale(1 1) rotate(0) translate(4 248)">
<title>MIDIInputElementCC.hpp</title>
<polygon fill="white" stroke="none" points="-4,4 -4,-248 811.5,-248 811.5,4 -4,4"/>
<!-- Node18 -->
<g id="node1" class="node"><title>Node18</title>
<g id="a_node1"><a xlink:title=" ">
<polygon fill="#bfbfbf" stroke="black" points="330.5,-224.5 330.5,-243.5 460.5,-243.5 460.5,-224.5 330.5,-224.5"/>
<text text-anchor="middle" x="395.5" y="-231.5" font-family="Helvetica,sans-Serif" font-size="10.00">MIDIInputElementCC.hpp</text>
</a>
</g>
</g>
<!-- Node19 -->
<g id="node2" class="node"><title>Node19</title>
<g id="a_node2"><a xlink:href="../../d9/d38/Control__Surface__Class_8cpp.html" target="_top" xlink:title=" ">
<polygon fill="white" stroke="black" points="125,-168.5 125,-187.5 262,-187.5 262,-168.5 125,-168.5"/>
<text text-anchor="middle" x="193.5" y="-175.5" font-family="Helvetica,sans-Serif" font-size="10.00">Control_Surface_Class.cpp</text>
</a>
</g>
</g>
<!-- Node18&#45;&gt;Node19 -->
<g id="edge1" class="edge"><title>Node18&#45;&gt;Node19</title>
<path fill="none" stroke="midnightblue" d="M353.712,-221.829C315.573,-211.633 260.019,-196.782 225.358,-187.516"/>
<polygon fill="midnightblue" stroke="midnightblue" points="352.928,-225.242 363.492,-224.444 354.736,-218.48 352.928,-225.242"/>
</g>
<!-- Node20 -->
<g id="node3" class="node"><title>Node20</title>
<g id="a_node3"><a xlink:href="../../d4/d18/SevenSegmentDisplay_8hpp.html" target="_top" xlink:title=" ">
<polygon fill="white" stroke="black" points="280,-168.5 280,-187.5 415,-187.5 415,-168.5 280,-168.5"/>
<text text-anchor="middle" x="347.5" y="-175.5" font-family="Helvetica,sans-Serif" font-size="10.00">SevenSegmentDisplay.hpp</text>
</a>
</g>
</g>
<!-- Node18&#45;&gt;Node20 -->
<g id="edge2" class="edge"><title>Node18&#45;&gt;Node20</title>
<path fill="none" stroke="midnightblue" d="M380.772,-216.431C372.36,-206.967 362.151,-195.483 355.279,-187.751"/>
<polygon fill="midnightblue" stroke="midnightblue" points="378.314,-218.934 387.574,-224.083 383.546,-214.284 378.314,-218.934"/>
</g>
<!-- Node29 -->
<g id="node12" class="node"><title>Node29</title>
<g id="a_node12"><a xlink:href="../../d7/d81/VPotRing_8hpp.html" target="_top" xlink:title=" ">
<polygon fill="white" stroke="black" points="502,-112.5 502,-131.5 579,-131.5 579,-112.5 502,-112.5"/>
<text text-anchor="middle" x="540.5" y="-119.5" font-family="Helvetica,sans-Serif" font-size="10.00">VPotRing.hpp</text>
</a>
</g>
</g>
<!-- Node18&#45;&gt;Node29 -->
<g id="edge13" class="edge"><title>Node18&#45;&gt;Node29</title>
<path fill="none" stroke="midnightblue" d="M409.919,-216.922C422.87,-203.013 442.823,-182.858 462.5,-168 481.963,-153.303 506.67,-139.808 523.002,-131.507"/>
<polygon fill="midnightblue" stroke="midnightblue" points="407.333,-214.564 403.158,-224.302 412.494,-219.293 407.333,-214.564"/>
</g>
<!-- Node35 -->
<g id="node18" class="node"><title>Node35</title>
<g id="a_node18"><a xlink:href="../../d7/da6/MIDIInputElementCC_8cpp.html" target="_top" xlink:title=" ">
<polygon fill="white" stroke="black" points="471.5,-168.5 471.5,-187.5 601.5,-187.5 601.5,-168.5 471.5,-168.5"/>
<text text-anchor="middle" x="536.5" y="-175.5" font-family="Helvetica,sans-Serif" font-size="10.00">MIDIInputElementCC.cpp</text>
</a>
</g>
</g>
<!-- Node18&#45;&gt;Node35 -->
<g id="edge22" class="edge"><title>Node18&#45;&gt;Node35</title>
<path fill="none" stroke="midnightblue" d="M427.429,-220.772C453.914,-210.629 490.892,-196.467 514.263,-187.516"/>
<polygon fill="midnightblue" stroke="midnightblue" points="425.929,-217.599 417.842,-224.444 428.432,-224.136 425.929,-217.599"/>
</g>
<!-- Node21 -->
<g id="node4" class="node"><title>Node21</title>
<g id="a_node4"><a xlink:href="../../db/dbf/Control__Surface_8h.html" target="_top" xlink:title="The main header file that includes all Control&#45;Surface header files.">
<polygon fill="white" stroke="black" points="407,-0.5 407,-19.5 502,-19.5 502,-0.5 407,-0.5"/>
<text text-anchor="middle" x="454.5" y="-7.5" font-family="Helvetica,sans-Serif" font-size="10.00">Control_Surface.h</text>
</a>
</g>
</g>
<!-- Node20&#45;&gt;Node21 -->
<g id="edge3" class="edge"><title>Node20&#45;&gt;Node21</title>
<path fill="none" stroke="midnightblue" d="M376.93,-163.712C390.686,-156.173 406.252,-145.52 416.5,-132 443.633,-96.2035 451.653,-40.6215 453.792,-19.5183"/>
<polygon fill="midnightblue" stroke="midnightblue" points="375.066,-160.736 367.784,-168.432 378.276,-166.956 375.066,-160.736"/>
</g>
<!-- Node22 -->
<g id="node5" class="node"><title>Node22</title>
<g id="a_node5"><a xlink:href="../../de/d83/AssignmentDisplay_8hpp.html" target="_top" xlink:title=" ">
<polygon fill="white" stroke="black" points="287.5,-112.5 287.5,-131.5 407.5,-131.5 407.5,-112.5 287.5,-112.5"/>
<text text-anchor="middle" x="347.5" y="-119.5" font-family="Helvetica,sans-Serif" font-size="10.00">AssignmentDisplay.hpp</text>
</a>
</g>
</g>
<!-- Node20&#45;&gt;Node22 -->
<g id="edge4" class="edge"><title>Node20&#45;&gt;Node22</title>
<path fill="none" stroke="midnightblue" d="M347.5,-157.805C347.5,-148.91 347.5,-138.78 347.5,-131.751"/>
<polygon fill="midnightblue" stroke="midnightblue" points="344,-158.083 347.5,-168.083 351,-158.083 344,-158.083"/>
</g>
<!-- Node24 -->
<g id="node7" class="node"><title>Node24</title>
<g id="a_node7"><a xlink:href="../../dd/d58/SevenSegmentDisplay_8cpp.html" target="_top" xlink:title=" ">
<polygon fill="white" stroke="black" points="134,-112.5 134,-131.5 269,-131.5 269,-112.5 134,-112.5"/>
<text text-anchor="middle" x="201.5" y="-119.5" font-family="Helvetica,sans-Serif" font-size="10.00">SevenSegmentDisplay.cpp</text>
</a>
</g>
</g>
<!-- Node20&#45;&gt;Node24 -->
<g id="edge7" class="edge"><title>Node20&#45;&gt;Node24</title>
<path fill="none" stroke="midnightblue" d="M314.801,-164.906C287.352,-154.754 248.832,-140.506 224.526,-131.516"/>
<polygon fill="midnightblue" stroke="midnightblue" points="313.773,-168.257 324.366,-168.444 316.201,-161.692 313.773,-168.257"/>
</g>
<!-- Node25 -->
<g id="node8" class="node"><title>Node25</title>
<g id="a_node8"><a xlink:href="../../d9/dc9/TimeDisplay_8hpp.html" target="_top" xlink:title=" ">
<polygon fill="white" stroke="black" points="25.5,-112.5 25.5,-131.5 115.5,-131.5 115.5,-112.5 25.5,-112.5"/>
<text text-anchor="middle" x="70.5" y="-119.5" font-family="Helvetica,sans-Serif" font-size="10.00">TimeDisplay.hpp</text>
</a>
</g>
</g>
<!-- Node20&#45;&gt;Node25 -->
<g id="edge8" class="edge"><title>Node20&#45;&gt;Node25</title>
<path fill="none" stroke="midnightblue" d="M293.503,-166.473C241.152,-156.268 162.728,-140.979 114.186,-131.516"/>
<polygon fill="midnightblue" stroke="midnightblue" points="293.124,-169.965 303.609,-168.444 294.463,-163.095 293.124,-169.965"/>
</g>
<!-- Node22&#45;&gt;Node21 -->
<g id="edge5" class="edge"><title>Node22&#45;&gt;Node21</title>
<path fill="none" stroke="midnightblue" d="M363.164,-104.897C386.167,-81.2486 428.286,-37.9493 446.143,-19.5914"/>
<polygon fill="midnightblue" stroke="midnightblue" points="360.36,-102.76 355.896,-112.368 365.378,-107.641 360.36,-102.76"/>
</g>
<!-- Node23 -->
<g id="node6" class="node"><title>Node23</title>
<g id="a_node6"><a xlink:href="../../d3/d9c/AssignmentDisplay_8cpp.html" target="_top" xlink:title=" ">
<polygon fill="white" stroke="black" points="249.5,-56.5 249.5,-75.5 369.5,-75.5 369.5,-56.5 249.5,-56.5"/>
<text text-anchor="middle" x="309.5" y="-63.5" font-family="Helvetica,sans-Serif" font-size="10.00">AssignmentDisplay.cpp</text>
</a>
</g>
</g>
<!-- Node22&#45;&gt;Node23 -->
<g id="edge6" class="edge"><title>Node22&#45;&gt;Node23</title>
<path fill="none" stroke="midnightblue" d="M335.435,-103.855C328.855,-94.5048 320.989,-83.3265 315.658,-75.7511"/>
<polygon fill="midnightblue" stroke="midnightblue" points="332.608,-105.919 341.225,-112.083 338.332,-101.891 332.608,-105.919"/>
</g>
<!-- Node26 -->
<g id="node9" class="node"><title>Node26</title>
<g id="a_node9"><a xlink:href="../../d2/d35/TimeDisplayDisplay_8hpp.html" target="_top" xlink:title=" ">
<polygon fill="white" stroke="black" points="0,-56.5 0,-75.5 123,-75.5 123,-56.5 0,-56.5"/>
<text text-anchor="middle" x="61.5" y="-63.5" font-family="Helvetica,sans-Serif" font-size="10.00">TimeDisplayDisplay.hpp</text>
</a>
</g>
</g>
<!-- Node25&#45;&gt;Node26 -->
<g id="edge9" class="edge"><title>Node25&#45;&gt;Node26</title>
<path fill="none" stroke="midnightblue" d="M67.3501,-102.101C65.856,-93.1357 64.143,-82.8579 62.9585,-75.7511"/>
<polygon fill="midnightblue" stroke="midnightblue" points="63.9174,-102.794 69.0138,-112.083 70.8221,-101.644 63.9174,-102.794"/>
</g>
<!-- Node28 -->
<g id="node11" class="node"><title>Node28</title>
<g id="a_node11"><a xlink:href="../../d1/d55/TimeDisplay_8cpp.html" target="_top" xlink:title=" ">
<polygon fill="white" stroke="black" points="141.5,-56.5 141.5,-75.5 231.5,-75.5 231.5,-56.5 141.5,-56.5"/>
<text text-anchor="middle" x="186.5" y="-63.5" font-family="Helvetica,sans-Serif" font-size="10.00">TimeDisplay.cpp</text>
</a>
</g>
</g>
<!-- Node25&#45;&gt;Node28 -->
<g id="edge12" class="edge"><title>Node25&#45;&gt;Node28</title>
<path fill="none" stroke="midnightblue" d="M98.2197,-108.096C119.892,-98.0073 149.402,-84.2697 168.205,-75.5164"/>
<polygon fill="midnightblue" stroke="midnightblue" points="96.4693,-105.05 88.8805,-112.444 99.4235,-111.396 96.4693,-105.05"/>
</g>
<!-- Node26&#45;&gt;Node21 -->
<g id="edge10" class="edge"><title>Node26&#45;&gt;Node21</title>
<path fill="none" stroke="midnightblue" d="M133.278,-55.1374C212.793,-44.2116 338.753,-26.9041 406.915,-17.5384"/>
<polygon fill="midnightblue" stroke="midnightblue" points="132.769,-51.6743 123.339,-56.5031 133.722,-58.6092 132.769,-51.6743"/>
</g>
<!-- Node27 -->
<g id="node10" class="node"><title>Node27</title>
<g id="a_node10"><a xlink:href="../../d2/d06/TimeDisplayDisplay_8cpp.html" target="_top" xlink:title=" ">
<polygon fill="white" stroke="black" points="0,-0.5 0,-19.5 123,-19.5 123,-0.5 0,-0.5"/>
<text text-anchor="middle" x="61.5" y="-7.5" font-family="Helvetica,sans-Serif" font-size="10.00">TimeDisplayDisplay.cpp</text>
</a>
</g>
</g>
<!-- Node26&#45;&gt;Node27 -->
<g id="edge11" class="edge"><title>Node26&#45;&gt;Node27</title>
<path fill="none" stroke="midnightblue" d="M61.5,-45.8045C61.5,-36.9102 61.5,-26.7798 61.5,-19.7511"/>
<polygon fill="midnightblue" stroke="midnightblue" points="58.0001,-46.083 61.5,-56.083 65.0001,-46.083 58.0001,-46.083"/>
</g>
<!-- Node29&#45;&gt;Node21 -->
<g id="edge17" class="edge"><title>Node29&#45;&gt;Node21</title>
<path fill="none" stroke="midnightblue" d="M522.463,-105.813C513.213,-97.5308 502.113,-86.7882 493.5,-76 478.72,-57.4883 465.443,-32.8737 458.863,-19.8903"/>
<polygon fill="midnightblue" stroke="midnightblue" points="520.171,-108.458 530.007,-112.398 524.774,-103.185 520.171,-108.458"/>
</g>
<!-- Node30 -->
<g id="node13" class="node"><title>Node30</title>
<g id="a_node13"><a xlink:href="../../d0/dbf/VPotDisplay_8hpp.html" target="_top" xlink:title=" ">
<polygon fill="white" stroke="black" points="597.5,-56.5 597.5,-75.5 687.5,-75.5 687.5,-56.5 597.5,-56.5"/>
<text text-anchor="middle" x="642.5" y="-63.5" font-family="Helvetica,sans-Serif" font-size="10.00">VPotDisplay.hpp</text>
</a>
</g>
</g>
<!-- Node29&#45;&gt;Node30 -->
<g id="edge14" class="edge"><title>Node29&#45;&gt;Node30</title>
<path fill="none" stroke="midnightblue" d="M565.831,-107.59C584.69,-97.6052 609.884,-84.2672 626.153,-75.6545"/>
<polygon fill="midnightblue" stroke="midnightblue" points="564.088,-104.552 556.888,-112.324 567.364,-110.738 564.088,-104.552"/>
</g>
<!-- Node32 -->
<g id="node15" class="node"><title>Node32</title>
<g id="a_node15"><a xlink:href="../../dc/d48/VPotRingLEDs_8hpp.html" target="_top" xlink:title=" ">
<polygon fill="white" stroke="black" points="705.5,-56.5 705.5,-75.5 807.5,-75.5 807.5,-56.5 705.5,-56.5"/>
<text text-anchor="middle" x="756.5" y="-63.5" font-family="Helvetica,sans-Serif" font-size="10.00">VPotRingLEDs.hpp</text>
</a>
</g>
</g>
<!-- Node29&#45;&gt;Node32 -->
<g id="edge18" class="edge"><title>Node29&#45;&gt;Node32</title>
<path fill="none" stroke="midnightblue" d="M584.664,-109.959C625.461,-99.7598 685.213,-84.8217 722.434,-75.5164"/>
<polygon fill="midnightblue" stroke="midnightblue" points="583.578,-106.623 574.726,-112.444 585.276,-113.414 583.578,-106.623"/>
</g>
<!-- Node34 -->
<g id="node17" class="node"><title>Node34</title>
<g id="a_node17"><a xlink:href="../../d6/d6d/VPotRing_8cpp.html" target="_top" xlink:title=" ">
<polygon fill="white" stroke="black" points="502,-56.5 502,-75.5 579,-75.5 579,-56.5 502,-56.5"/>
<text text-anchor="middle" x="540.5" y="-63.5" font-family="Helvetica,sans-Serif" font-size="10.00">VPotRing.cpp</text>
</a>
</g>
</g>
<!-- Node29&#45;&gt;Node34 -->
<g id="edge21" class="edge"><title>Node29&#45;&gt;Node34</title>
<path fill="none" stroke="midnightblue" d="M540.5,-101.805C540.5,-92.9102 540.5,-82.7798 540.5,-75.7511"/>
<polygon fill="midnightblue" stroke="midnightblue" points="537,-102.083 540.5,-112.083 544,-102.083 537,-102.083"/>
</g>
<!-- Node30&#45;&gt;Node21 -->
<g id="edge15" class="edge"><title>Node30&#45;&gt;Node21</title>
<path fill="none" stroke="midnightblue" d="M602.699,-53.5677C567.234,-43.381 516.134,-28.7034 484.15,-19.5164"/>
<polygon fill="midnightblue" stroke="midnightblue" points="602.133,-57.0467 612.711,-56.4435 604.066,-50.3188 602.133,-57.0467"/>
</g>
<!-- Node31 -->
<g id="node14" class="node"><title>Node31</title>
<g id="a_node14"><a xlink:href="../../d7/db9/VPotDisplay_8cpp.html" target="_top" xlink:title=" ">
<polygon fill="white" stroke="black" points="597.5,-0.5 597.5,-19.5 687.5,-19.5 687.5,-0.5 597.5,-0.5"/>
<text text-anchor="middle" x="642.5" y="-7.5" font-family="Helvetica,sans-Serif" font-size="10.00">VPotDisplay.cpp</text>
</a>
</g>
</g>
<!-- Node30&#45;&gt;Node31 -->
<g id="edge16" class="edge"><title>Node30&#45;&gt;Node31</title>
<path fill="none" stroke="midnightblue" d="M642.5,-45.8045C642.5,-36.9102 642.5,-26.7798 642.5,-19.7511"/>
<polygon fill="midnightblue" stroke="midnightblue" points="639,-46.083 642.5,-56.083 646,-46.083 639,-46.083"/>
</g>
<!-- Node32&#45;&gt;Node21 -->
<g id="edge19" class="edge"><title>Node32&#45;&gt;Node21</title>
<path fill="none" stroke="midnightblue" d="M698.696,-54.6642C641.623,-44.4592 555.382,-29.0386 502.129,-19.5164"/>
<polygon fill="midnightblue" stroke="midnightblue" points="698.187,-58.1287 708.647,-56.4435 699.419,-51.2379 698.187,-58.1287"/>
</g>
<!-- Node33 -->
<g id="node16" class="node"><title>Node33</title>
<g id="a_node16"><a xlink:href="../../d4/de6/VPotRingLEDs_8cpp.html" target="_top" xlink:title=" ">
<polygon fill="white" stroke="black" points="705.5,-0.5 705.5,-19.5 807.5,-19.5 807.5,-0.5 705.5,-0.5"/>
<text text-anchor="middle" x="756.5" y="-7.5" font-family="Helvetica,sans-Serif" font-size="10.00">VPotRingLEDs.cpp</text>
</a>
</g>
</g>
<!-- Node32&#45;&gt;Node33 -->
<g id="edge20" class="edge"><title>Node32&#45;&gt;Node33</title>
<path fill="none" stroke="midnightblue" d="M756.5,-45.8045C756.5,-36.9102 756.5,-26.7798 756.5,-19.7511"/>
<polygon fill="midnightblue" stroke="midnightblue" points="753,-46.083 756.5,-56.083 760,-46.083 753,-46.083"/>
</g>
</g>
</svg>
