<?xml version="1.0" encoding="UTF-8" standalone="no"?>
<!DOCTYPE svg PUBLIC "-//W3C//DTD SVG 1.1//EN"
 "http://www.w3.org/Graphics/SVG/1.1/DTD/svg11.dtd">
<!-- Generated by graphviz version 2.38.0 (20140413.2041)
 -->
<!-- Title: MCU::IVPotRing::getCenterLed Pages: 1 -->
<svg width="334pt" height="46pt"
 viewBox="0.00 0.00 334.00 46.00" xmlns="http://www.w3.org/2000/svg" xmlns:xlink="http://www.w3.org/1999/xlink">
<g id="graph0" class="graph" transform="scale(1 1) rotate(0) translate(4 42)">
<title>MCU::IVPotRing::getCenterLed</title>
<polygon fill="white" stroke="none" points="-4,4 -4,-42 330,-42 330,4 -4,4"/>
<!-- Node1 -->
<g id="node1" class="node"><title>Node1</title>
<g id="a_node1"><a xlink:title="Return the status of the center LED of the V&#45;Pot ring.">
<polygon fill="#bfbfbf" stroke="black" points="0,-0.5 0,-19.5 155,-19.5 155,-0.5 0,-0.5"/>
<text text-anchor="middle" x="77.5" y="-7.5" font-family="Helvetica,sans-Serif" font-size="10.00">MCU::IVPotRing::getCenterLed</text>
</a>
</g>
</g>
<!-- Node1&#45;&gt;Node1 -->
<g id="edge1" class="edge"><title>Node1&#45;&gt;Node1</title>
<path fill="none" stroke="midnightblue" d="M49.7568,-19.7571C36.2601,-28.5653 45.5078,-38 77.5,-38 99.4946,-38 110.739,-33.5406 111.233,-27.8913"/>
<polygon fill="midnightblue" stroke="midnightblue" points="113.991,-25.7341 105.243,-19.7571 108.354,-29.8848 113.991,-25.7341"/>
</g>
<!-- Node2 -->
<g id="node2" class="node"><title>Node2</title>
<g id="a_node2"><a xlink:href="../../da/d50/classMCU_1_1IVPotRing.html#aeed2eff1e5ff8f351f9c074c42d1456a" target="_top" xlink:title=" ">
<polygon fill="white" stroke="black" points="191,-0.5 191,-19.5 326,-19.5 326,-0.5 191,-0.5"/>
<text text-anchor="middle" x="258.5" y="-7.5" font-family="Helvetica,sans-Serif" font-size="10.00">MCU::IVPotRing::getValue</text>
</a>
</g>
</g>
<!-- Node1&#45;&gt;Node2 -->
<g id="edge2" class="edge"><title>Node1&#45;&gt;Node2</title>
<path fill="none" stroke="midnightblue" d="M155.191,-10C163.624,-10 172.211,-10 180.646,-10"/>
<polygon fill="midnightblue" stroke="midnightblue" points="180.838,-13.5001 190.838,-10 180.838,-6.5001 180.838,-13.5001"/>
</g>
</g>
</svg>
