<?xml version="1.0" encoding="UTF-8" standalone="no"?>
<!DOCTYPE svg PUBLIC "-//W3C//DTD SVG 1.1//EN"
 "http://www.w3.org/Graphics/SVG/1.1/DTD/svg11.dtd">
<!-- Generated by graphviz version 2.38.0 (20140413.2041)
 -->
<!-- Title: ManyButtonsSelectorLEDs&lt; N &gt; Pages: 1 -->
<svg width="181pt" height="772pt"
 viewBox="0.00 0.00 181.00 772.00" xmlns="http://www.w3.org/2000/svg" xmlns:xlink="http://www.w3.org/1999/xlink">
<g id="graph0" class="graph" transform="scale(1 1) rotate(0) translate(4 768)">
<title>ManyButtonsSelectorLEDs&lt; N &gt;</title>
<polygon fill="white" stroke="none" points="-4,4 -4,-768 177,-768 177,4 -4,4"/>
<!-- Node1 -->
<g id="node1" class="node"><title>Node1</title>
<g id="a_node1"><a xlink:title=" ">
<polygon fill="#bfbfbf" stroke="black" points="6,-0.5 6,-57.5 167,-57.5 167,-0.5 6,-0.5"/>
<text text-anchor="middle" x="86.5" y="-45.5" font-family="Helvetica,sans-Serif" font-size="10.00">ManyButtonsSelectorLEDs&lt; N &gt;</text>
<polyline fill="none" stroke="black" points="6,-38.5 167,-38.5 "/>
<text text-anchor="middle" x="86.5" y="-26.5" font-family="Helvetica,sans-Serif" font-size="10.00"> </text>
<polyline fill="none" stroke="black" points="6,-19.5 167,-19.5 "/>
<text text-anchor="start" x="14" y="-7.5" font-family="Helvetica,sans-Serif" font-size="10.00">+ ManyButtonsSelectorLEDs()</text>
</a>
</g>
</g>
<!-- Node2 -->
<g id="node2" class="node"><title>Node2</title>
<g id="a_node2"><a xlink:href="../../de/d1e/classGenericManyButtonsSelector.html" target="_top" xlink:title=" ">
<polygon fill="white" stroke="black" points="0,-94.5 0,-184.5 173,-184.5 173,-94.5 0,-94.5"/>
<text text-anchor="start" x="8" y="-172.5" font-family="Helvetica,sans-Serif" font-size="10.00">GenericManyButtonsSelector</text>
<text text-anchor="middle" x="86.5" y="-161.5" font-family="Helvetica,sans-Serif" font-size="10.00">&lt; N, SelectorLEDsCallback&lt; N &gt; &gt;</text>
<polyline fill="none" stroke="black" points="0,-154.5 173,-154.5 "/>
<text text-anchor="start" x="8" y="-142.5" font-family="Helvetica,sans-Serif" font-size="10.00">&#45; buttonPins</text>
<polyline fill="none" stroke="black" points="0,-135.5 173,-135.5 "/>
<text text-anchor="start" x="8" y="-123.5" font-family="Helvetica,sans-Serif" font-size="10.00">+ GenericManyButtonsSelector()</text>
<text text-anchor="start" x="8" y="-112.5" font-family="Helvetica,sans-Serif" font-size="10.00">+ begin()</text>
<text text-anchor="start" x="8" y="-101.5" font-family="Helvetica,sans-Serif" font-size="10.00">+ update()</text>
</a>
</g>
</g>
<!-- Node2&#45;&gt;Node1 -->
<g id="edge1" class="edge"><title>Node2&#45;&gt;Node1</title>
<path fill="none" stroke="midnightblue" d="M86.5,-84.3531C86.5,-75.074 86.5,-65.7909 86.5,-57.5896"/>
<polygon fill="none" stroke="midnightblue" points="83.0001,-84.3689 86.5,-94.3689 90.0001,-84.3689 83.0001,-84.3689"/>
</g>
<!-- Node3 -->
<g id="node3" class="node"><title>Node3</title>
<g id="a_node3"><a xlink:href="../../d0/d04/classGenericSelector.html" target="_top" xlink:title=" ">
<polygon fill="white" stroke="black" points="27,-221.5 27,-399.5 146,-399.5 146,-221.5 27,-221.5"/>
<text text-anchor="start" x="35" y="-387.5" font-family="Helvetica,sans-Serif" font-size="10.00">GenericSelector&lt; N,</text>
<text text-anchor="start" x="35" y="-376.5" font-family="Helvetica,sans-Serif" font-size="10.00"> SelectorLEDsCallback</text>
<text text-anchor="middle" x="86.5" y="-365.5" font-family="Helvetica,sans-Serif" font-size="10.00">&lt; N &gt; &gt;</text>
<polyline fill="none" stroke="black" points="27,-358.5 146,-358.5 "/>
<text text-anchor="start" x="35" y="-346.5" font-family="Helvetica,sans-Serif" font-size="10.00">&#45; selectable</text>
<text text-anchor="start" x="35" y="-335.5" font-family="Helvetica,sans-Serif" font-size="10.00">&#45; callback</text>
<text text-anchor="start" x="35" y="-324.5" font-family="Helvetica,sans-Serif" font-size="10.00">&#45; setting</text>
<polyline fill="none" stroke="black" points="27,-317.5 146,-317.5 "/>
<text text-anchor="start" x="35" y="-305.5" font-family="Helvetica,sans-Serif" font-size="10.00">+ begin()</text>
<text text-anchor="start" x="35" y="-294.5" font-family="Helvetica,sans-Serif" font-size="10.00">+ update()</text>
<text text-anchor="start" x="35" y="-283.5" font-family="Helvetica,sans-Serif" font-size="10.00">+ reset()</text>
<text text-anchor="start" x="35" y="-272.5" font-family="Helvetica,sans-Serif" font-size="10.00">+ get()</text>
<text text-anchor="start" x="35" y="-261.5" font-family="Helvetica,sans-Serif" font-size="10.00">+ set()</text>
<text text-anchor="start" x="35" y="-250.5" font-family="Helvetica,sans-Serif" font-size="10.00">+ increment()</text>
<text text-anchor="start" x="35" y="-239.5" font-family="Helvetica,sans-Serif" font-size="10.00">+ decrement()</text>
<text text-anchor="start" x="35" y="-228.5" font-family="Helvetica,sans-Serif" font-size="10.00"># GenericSelector()</text>
</a>
</g>
</g>
<!-- Node3&#45;&gt;Node2 -->
<g id="edge2" class="edge"><title>Node3&#45;&gt;Node2</title>
<path fill="none" stroke="midnightblue" d="M86.5,-211.031C86.5,-201.869 86.5,-192.933 86.5,-184.668"/>
<polygon fill="none" stroke="midnightblue" points="83.0001,-211.04 86.5,-221.04 90.0001,-211.04 83.0001,-211.04"/>
</g>
<!-- Node4 -->
<g id="node4" class="node"><title>Node4</title>
<g id="a_node4"><a xlink:href="../../d5/de0/classUpdatable.html" target="_top" xlink:title=" ">
<polygon fill="white" stroke="black" points="45.5,-436.5 45.5,-647.5 127.5,-647.5 127.5,-436.5 45.5,-436.5"/>
<text text-anchor="middle" x="86.5" y="-635.5" font-family="Helvetica,sans-Serif" font-size="10.00">Updatable&lt;&gt;</text>
<polyline fill="none" stroke="black" points="45.5,-628.5 127.5,-628.5 "/>
<text text-anchor="start" x="53.5" y="-616.5" font-family="Helvetica,sans-Serif" font-size="10.00">&#45; updatables</text>
<polyline fill="none" stroke="black" points="45.5,-609.5 127.5,-609.5 "/>
<text text-anchor="start" x="53.5" y="-597.5" font-family="Helvetica,sans-Serif" font-size="10.00">+ ~Updatable()</text>
<text text-anchor="start" x="53.5" y="-586.5" font-family="Helvetica,sans-Serif" font-size="10.00">+ update()</text>
<text text-anchor="start" x="53.5" y="-575.5" font-family="Helvetica,sans-Serif" font-size="10.00">+ begin()</text>
<text text-anchor="start" x="53.5" y="-564.5" font-family="Helvetica,sans-Serif" font-size="10.00">+ enable()</text>
<text text-anchor="start" x="53.5" y="-553.5" font-family="Helvetica,sans-Serif" font-size="10.00">+ disable()</text>
<text text-anchor="start" x="53.5" y="-542.5" font-family="Helvetica,sans-Serif" font-size="10.00">+ isEnabled()</text>
<text text-anchor="start" x="53.5" y="-531.5" font-family="Helvetica,sans-Serif" font-size="10.00">+ enable()</text>
<text text-anchor="start" x="53.5" y="-520.5" font-family="Helvetica,sans-Serif" font-size="10.00">+ enable()</text>
<text text-anchor="start" x="53.5" y="-509.5" font-family="Helvetica,sans-Serif" font-size="10.00">+ enable()</text>
<text text-anchor="start" x="53.5" y="-498.5" font-family="Helvetica,sans-Serif" font-size="10.00">+ disable()</text>
<text text-anchor="start" x="53.5" y="-487.5" font-family="Helvetica,sans-Serif" font-size="10.00">+ disable()</text>
<text text-anchor="start" x="53.5" y="-476.5" font-family="Helvetica,sans-Serif" font-size="10.00">+ disable()</text>
<text text-anchor="start" x="53.5" y="-465.5" font-family="Helvetica,sans-Serif" font-size="10.00">+ beginAll()</text>
<text text-anchor="start" x="53.5" y="-454.5" font-family="Helvetica,sans-Serif" font-size="10.00">+ updateAll()</text>
<text text-anchor="start" x="53.5" y="-443.5" font-family="Helvetica,sans-Serif" font-size="10.00"># Updatable()</text>
</a>
</g>
</g>
<!-- Node4&#45;&gt;Node3 -->
<g id="edge3" class="edge"><title>Node4&#45;&gt;Node3</title>
<path fill="none" stroke="midnightblue" d="M86.5,-426.215C86.5,-417.251 86.5,-408.288 86.5,-399.544"/>
<polygon fill="none" stroke="midnightblue" points="83.0001,-426.324 86.5,-436.324 90.0001,-426.324 83.0001,-426.324"/>
</g>
<!-- Node5 -->
<g id="node5" class="node"><title>Node5</title>
<g id="a_node5"><a xlink:href="../../d4/d23/classDoublyLinkable.html" target="_top" xlink:title=" ">
<polygon fill="white" stroke="black" points="18,-684.5 18,-763.5 155,-763.5 155,-684.5 18,-684.5"/>
<text text-anchor="start" x="26" y="-751.5" font-family="Helvetica,sans-Serif" font-size="10.00">DoublyLinkable&lt; Updatable</text>
<text text-anchor="middle" x="86.5" y="-740.5" font-family="Helvetica,sans-Serif" font-size="10.00">&lt; NormalUpdatable &gt; &gt;</text>
<polyline fill="none" stroke="black" points="18,-733.5 155,-733.5 "/>
<text text-anchor="start" x="26" y="-721.5" font-family="Helvetica,sans-Serif" font-size="10.00"># next</text>
<text text-anchor="start" x="26" y="-710.5" font-family="Helvetica,sans-Serif" font-size="10.00"># previous</text>
<polyline fill="none" stroke="black" points="18,-703.5 155,-703.5 "/>
<text text-anchor="start" x="26" y="-691.5" font-family="Helvetica,sans-Serif" font-size="10.00"># ~DoublyLinkable()</text>
</a>
</g>
</g>
<!-- Node5&#45;&gt;Node4 -->
<g id="edge4" class="edge"><title>Node5&#45;&gt;Node4</title>
<path fill="none" stroke="midnightblue" d="M86.5,-674.16C86.5,-665.809 86.5,-656.856 86.5,-647.694"/>
<polygon fill="none" stroke="midnightblue" points="83.0001,-674.385 86.5,-684.385 90.0001,-674.386 83.0001,-674.385"/>
</g>
</g>
</svg>
