<?xml version="1.0" encoding="UTF-8" standalone="no"?>
<!DOCTYPE svg PUBLIC "-//W3C//DTD SVG 1.1//EN"
 "http://www.w3.org/Graphics/SVG/1.1/DTD/svg11.dtd">
<!-- Generated by graphviz version 2.38.0 (20140413.2041)
 -->
<!-- Title: PBPotentiometer Pages: 1 -->
<svg width="269pt" height="794pt"
 viewBox="0.00 0.00 268.50 794.00" xmlns="http://www.w3.org/2000/svg" xmlns:xlink="http://www.w3.org/1999/xlink">
<g id="graph0" class="graph" transform="scale(1 1) rotate(0) translate(4 790)">
<title>PBPotentiometer</title>
<polygon fill="white" stroke="none" points="-4,4 -4,-790 264.5,-790 264.5,4 -4,4"/>
<!-- Node0 -->
<g id="node1" class="node"><title>Node0</title>
<g id="a_node1"><a xlink:title="A class of MIDIOutputElements that read the analog input from a potentiometer or fader,...">
<polygon fill="#bfbfbf" stroke="black" points="80.5,-0.5 80.5,-57.5 186.5,-57.5 186.5,-0.5 80.5,-0.5"/>
<text text-anchor="middle" x="133.5" y="-45.5" font-family="Helvetica,sans-Serif" font-size="10.00">PBPotentiometer</text>
<polyline fill="none" stroke="black" points="80.5,-38.5 186.5,-38.5 "/>
<text text-anchor="middle" x="133.5" y="-26.5" font-family="Helvetica,sans-Serif" font-size="10.00"> </text>
<polyline fill="none" stroke="black" points="80.5,-19.5 186.5,-19.5 "/>
<text text-anchor="start" x="88.5" y="-7.5" font-family="Helvetica,sans-Serif" font-size="10.00">+ PBPotentiometer()</text>
</a>
</g>
</g>
<!-- Node1 -->
<g id="node2" class="node"><title>Node1</title>
<g id="a_node2"><a xlink:href="../../db/ddc/classBankable_1_1MIDIFilteredAnalog.html" target="_top" xlink:title=" ">
<polygon fill="white" stroke="black" points="47.5,-94.5 47.5,-228.5 219.5,-228.5 219.5,-94.5 47.5,-94.5"/>
<text text-anchor="start" x="55.5" y="-216.5" font-family="Helvetica,sans-Serif" font-size="10.00">Bankable::MIDIFilteredAnalog</text>
<text text-anchor="middle" x="133.5" y="-205.5" font-family="Helvetica,sans-Serif" font-size="10.00">&lt; PitchBendSender&lt; 8 &gt;::send, 8 &gt;</text>
<polyline fill="none" stroke="black" points="47.5,-198.5 219.5,-198.5 "/>
<text text-anchor="start" x="55.5" y="-186.5" font-family="Helvetica,sans-Serif" font-size="10.00">&#45; filteredAnalog</text>
<text text-anchor="start" x="55.5" y="-175.5" font-family="Helvetica,sans-Serif" font-size="10.00">&#45; address</text>
<polyline fill="none" stroke="black" points="47.5,-168.5 219.5,-168.5 "/>
<text text-anchor="start" x="55.5" y="-156.5" font-family="Helvetica,sans-Serif" font-size="10.00">+ begin()</text>
<text text-anchor="start" x="55.5" y="-145.5" font-family="Helvetica,sans-Serif" font-size="10.00">+ update()</text>
<text text-anchor="start" x="55.5" y="-134.5" font-family="Helvetica,sans-Serif" font-size="10.00">+ map()</text>
<text text-anchor="start" x="55.5" y="-123.5" font-family="Helvetica,sans-Serif" font-size="10.00">+ getRawValue()</text>
<text text-anchor="start" x="55.5" y="-112.5" font-family="Helvetica,sans-Serif" font-size="10.00">+ getValue()</text>
<text text-anchor="start" x="55.5" y="-101.5" font-family="Helvetica,sans-Serif" font-size="10.00"># MIDIFilteredAnalog()</text>
</a>
</g>
</g>
<!-- Node1&#45;&gt;Node0 -->
<g id="edge1" class="edge"><title>Node1&#45;&gt;Node0</title>
<path fill="none" stroke="midnightblue" d="M133.5,-84.4565C133.5,-74.9088 133.5,-65.6783 133.5,-57.6134"/>
<polygon fill="none" stroke="midnightblue" points="130,-84.4853 133.5,-94.4854 137,-84.4854 130,-84.4853"/>
</g>
<!-- Node2 -->
<g id="node3" class="node"><title>Node2</title>
<g id="a_node3"><a xlink:href="../../dc/dc9/structMIDIOutputElement.html" target="_top" xlink:title=" ">
<polygon fill="white" stroke="black" points="16.5,-315 16.5,-372 120.5,-372 120.5,-315 16.5,-315"/>
<text text-anchor="middle" x="68.5" y="-360" font-family="Helvetica,sans-Serif" font-size="10.00">MIDIOutputElement</text>
<polyline fill="none" stroke="black" points="16.5,-353 120.5,-353 "/>
<text text-anchor="middle" x="68.5" y="-341" font-family="Helvetica,sans-Serif" font-size="10.00"> </text>
<polyline fill="none" stroke="black" points="16.5,-334 120.5,-334 "/>
<text text-anchor="middle" x="68.5" y="-322" font-family="Helvetica,sans-Serif" font-size="10.00"> </text>
</a>
</g>
</g>
<!-- Node2&#45;&gt;Node1 -->
<g id="edge2" class="edge"><title>Node2&#45;&gt;Node1</title>
<path fill="none" stroke="midnightblue" d="M81.9948,-305.13C89.9566,-283.082 100.264,-254.537 109.565,-228.782"/>
<polygon fill="none" stroke="midnightblue" points="78.6184,-304.175 78.5138,-314.769 85.2023,-306.553 78.6184,-304.175"/>
</g>
<!-- Node3 -->
<g id="node4" class="node"><title>Node3</title>
<g id="a_node4"><a xlink:href="../../d5/de0/classUpdatable.html" target="_top" xlink:title=" ">
<polygon fill="white" stroke="black" points="27.5,-458.5 27.5,-669.5 109.5,-669.5 109.5,-458.5 27.5,-458.5"/>
<text text-anchor="middle" x="68.5" y="-657.5" font-family="Helvetica,sans-Serif" font-size="10.00">Updatable&lt;&gt;</text>
<polyline fill="none" stroke="black" points="27.5,-650.5 109.5,-650.5 "/>
<text text-anchor="start" x="35.5" y="-638.5" font-family="Helvetica,sans-Serif" font-size="10.00">&#45; updatables</text>
<polyline fill="none" stroke="black" points="27.5,-631.5 109.5,-631.5 "/>
<text text-anchor="start" x="35.5" y="-619.5" font-family="Helvetica,sans-Serif" font-size="10.00">+ ~Updatable()</text>
<text text-anchor="start" x="35.5" y="-608.5" font-family="Helvetica,sans-Serif" font-size="10.00">+ update()</text>
<text text-anchor="start" x="35.5" y="-597.5" font-family="Helvetica,sans-Serif" font-size="10.00">+ begin()</text>
<text text-anchor="start" x="35.5" y="-586.5" font-family="Helvetica,sans-Serif" font-size="10.00">+ enable()</text>
<text text-anchor="start" x="35.5" y="-575.5" font-family="Helvetica,sans-Serif" font-size="10.00">+ disable()</text>
<text text-anchor="start" x="35.5" y="-564.5" font-family="Helvetica,sans-Serif" font-size="10.00">+ isEnabled()</text>
<text text-anchor="start" x="35.5" y="-553.5" font-family="Helvetica,sans-Serif" font-size="10.00">+ enable()</text>
<text text-anchor="start" x="35.5" y="-542.5" font-family="Helvetica,sans-Serif" font-size="10.00">+ enable()</text>
<text text-anchor="start" x="35.5" y="-531.5" font-family="Helvetica,sans-Serif" font-size="10.00">+ enable()</text>
<text text-anchor="start" x="35.5" y="-520.5" font-family="Helvetica,sans-Serif" font-size="10.00">+ disable()</text>
<text text-anchor="start" x="35.5" y="-509.5" font-family="Helvetica,sans-Serif" font-size="10.00">+ disable()</text>
<text text-anchor="start" x="35.5" y="-498.5" font-family="Helvetica,sans-Serif" font-size="10.00">+ disable()</text>
<text text-anchor="start" x="35.5" y="-487.5" font-family="Helvetica,sans-Serif" font-size="10.00">+ beginAll()</text>
<text text-anchor="start" x="35.5" y="-476.5" font-family="Helvetica,sans-Serif" font-size="10.00">+ updateAll()</text>
<text text-anchor="start" x="35.5" y="-465.5" font-family="Helvetica,sans-Serif" font-size="10.00"># Updatable()</text>
</a>
</g>
</g>
<!-- Node3&#45;&gt;Node2 -->
<g id="edge3" class="edge"><title>Node3&#45;&gt;Node2</title>
<path fill="none" stroke="midnightblue" d="M68.5,-448.176C68.5,-419.775 68.5,-391.878 68.5,-372.189"/>
<polygon fill="none" stroke="midnightblue" points="65.0001,-448.23 68.5,-458.23 72.0001,-448.23 65.0001,-448.23"/>
</g>
<!-- Node4 -->
<g id="node5" class="node"><title>Node4</title>
<g id="a_node5"><a xlink:href="../../d4/d23/classDoublyLinkable.html" target="_top" xlink:title=" ">
<polygon fill="white" stroke="black" points="0,-706.5 0,-785.5 137,-785.5 137,-706.5 0,-706.5"/>
<text text-anchor="start" x="8" y="-773.5" font-family="Helvetica,sans-Serif" font-size="10.00">DoublyLinkable&lt; Updatable</text>
<text text-anchor="middle" x="68.5" y="-762.5" font-family="Helvetica,sans-Serif" font-size="10.00">&lt; NormalUpdatable &gt; &gt;</text>
<polyline fill="none" stroke="black" points="0,-755.5 137,-755.5 "/>
<text text-anchor="start" x="8" y="-743.5" font-family="Helvetica,sans-Serif" font-size="10.00"># next</text>
<text text-anchor="start" x="8" y="-732.5" font-family="Helvetica,sans-Serif" font-size="10.00"># previous</text>
<polyline fill="none" stroke="black" points="0,-725.5 137,-725.5 "/>
<text text-anchor="start" x="8" y="-713.5" font-family="Helvetica,sans-Serif" font-size="10.00"># ~DoublyLinkable()</text>
</a>
</g>
</g>
<!-- Node4&#45;&gt;Node3 -->
<g id="edge4" class="edge"><title>Node4&#45;&gt;Node3</title>
<path fill="none" stroke="midnightblue" d="M68.5,-696.16C68.5,-687.809 68.5,-678.856 68.5,-669.694"/>
<polygon fill="none" stroke="midnightblue" points="65.0001,-696.385 68.5,-706.385 72.0001,-696.386 65.0001,-696.385"/>
</g>
<!-- Node5 -->
<g id="node6" class="node"><title>Node5</title>
<g id="a_node6"><a xlink:href="../../d3/d43/classBankableMIDIOutput.html" target="_top" xlink:title="A base class for all MIDIOutputElement::s that can be banked.">
<polygon fill="white" stroke="black" points="138.5,-265.5 138.5,-421.5 260.5,-421.5 260.5,-265.5 138.5,-265.5"/>
<text text-anchor="middle" x="199.5" y="-409.5" font-family="Helvetica,sans-Serif" font-size="10.00">BankableMIDIOutput</text>
<polyline fill="none" stroke="black" points="138.5,-402.5 260.5,-402.5 "/>
<text text-anchor="start" x="146.5" y="-390.5" font-family="Helvetica,sans-Serif" font-size="10.00">&#45; bank</text>
<text text-anchor="start" x="146.5" y="-379.5" font-family="Helvetica,sans-Serif" font-size="10.00">&#45; type</text>
<text text-anchor="start" x="146.5" y="-368.5" font-family="Helvetica,sans-Serif" font-size="10.00">&#45; lockedSetting</text>
<text text-anchor="start" x="146.5" y="-357.5" font-family="Helvetica,sans-Serif" font-size="10.00">&#45; UNLOCKED</text>
<polyline fill="none" stroke="black" points="138.5,-350.5 260.5,-350.5 "/>
<text text-anchor="start" x="146.5" y="-338.5" font-family="Helvetica,sans-Serif" font-size="10.00">+ getAddressOffset()</text>
<text text-anchor="start" x="146.5" y="-327.5" font-family="Helvetica,sans-Serif" font-size="10.00">+ getRawBankSetting()</text>
<text text-anchor="start" x="146.5" y="-316.5" font-family="Helvetica,sans-Serif" font-size="10.00">+ getSelection()</text>
<text text-anchor="start" x="146.5" y="-305.5" font-family="Helvetica,sans-Serif" font-size="10.00"># BankableMIDIOutput()</text>
<text text-anchor="start" x="146.5" y="-294.5" font-family="Helvetica,sans-Serif" font-size="10.00"># BankableMIDIOutput()</text>
<text text-anchor="start" x="146.5" y="-283.5" font-family="Helvetica,sans-Serif" font-size="10.00"># lock()</text>
<text text-anchor="start" x="146.5" y="-272.5" font-family="Helvetica,sans-Serif" font-size="10.00"># unlock()</text>
</a>
</g>
</g>
<!-- Node5&#45;&gt;Node1 -->
<g id="edge5" class="edge"><title>Node5&#45;&gt;Node1</title>
<path fill="none" stroke="midnightblue" d="M167.741,-255.885C164.389,-246.742 161.019,-237.553 157.771,-228.695"/>
<polygon fill="none" stroke="midnightblue" points="164.494,-257.197 171.223,-265.38 171.066,-254.787 164.494,-257.197"/>
</g>
</g>
</svg>
