<?xml version="1.0" encoding="UTF-8" standalone="no"?>
<!DOCTYPE svg PUBLIC "-//W3C//DTD SVG 1.1//EN"
 "http://www.w3.org/Graphics/SVG/1.1/DTD/svg11.dtd">
<!-- Generated by graphviz version 2.38.0 (20140413.2041)
 -->
<!-- Title: AudioVULEDs.hpp Pages: 1 -->
<svg width="1332pt" height="733pt"
 viewBox="0.00 0.00 1332.00 733.00" xmlns="http://www.w3.org/2000/svg" xmlns:xlink="http://www.w3.org/1999/xlink">
<g id="graph0" class="graph" transform="scale(1 1) rotate(0) translate(4 729)">
<title>AudioVULEDs.hpp</title>
<polygon fill="white" stroke="none" points="-4,4 -4,-729 1328,-729 1328,4 -4,4"/>
<!-- Node1 -->
<g id="node1" class="node"><title>Node1</title>
<g id="a_node1"><a xlink:title=" ">
<polygon fill="#bfbfbf" stroke="black" points="1149.5,-705.5 1149.5,-724.5 1248.5,-724.5 1248.5,-705.5 1149.5,-705.5"/>
<text text-anchor="middle" x="1199" y="-712.5" font-family="Helvetica,sans-Serif" font-size="10.00">AudioVULEDs.hpp</text>
</a>
</g>
</g>
<!-- Node2 -->
<g id="node2" class="node"><title>Node2</title>
<g id="a_node2"><a xlink:href="../../dc/de8/AudioVU_8hpp.html" target="_top" xlink:title=" ">
<polygon fill="white" stroke="black" points="229,-644 229,-663 331,-663 331,-644 229,-644"/>
<text text-anchor="middle" x="280" y="-651" font-family="Helvetica,sans-Serif" font-size="10.00">Audio/AudioVU.hpp</text>
</a>
</g>
</g>
<!-- Node1&#45;&gt;Node2 -->
<g id="edge1" class="edge"><title>Node1&#45;&gt;Node2</title>
<path fill="none" stroke="midnightblue" d="M1149.26,-710.78C992.984,-700.662 512.052,-669.524 341.092,-658.455"/>
<polygon fill="midnightblue" stroke="midnightblue" points="341.214,-654.956 331.009,-657.803 340.762,-661.941 341.214,-654.956"/>
</g>
<!-- Node12 -->
<g id="node12" class="node"><title>Node12</title>
<g id="a_node12"><a xlink:href="../../d0/d4e/Def_8hpp.html" target="_top" xlink:title=" ">
<polygon fill="white" stroke="black" points="889,-112.5 889,-131.5 959,-131.5 959,-112.5 889,-112.5"/>
<text text-anchor="middle" x="924" y="-119.5" font-family="Helvetica,sans-Serif" font-size="10.00">Def/Def.hpp</text>
</a>
</g>
</g>
<!-- Node1&#45;&gt;Node12 -->
<g id="edge62" class="edge"><title>Node1&#45;&gt;Node12</title>
<path fill="none" stroke="midnightblue" d="M1223.82,-705.471C1242.25,-698.133 1267.02,-686.022 1284,-669 1310.96,-641.977 1324,-631.171 1324,-593 1324,-593 1324,-593 1324,-233 1324,-160.148 1074.21,-133.745 969.414,-125.873"/>
<polygon fill="midnightblue" stroke="midnightblue" points="969.374,-122.361 959.147,-125.126 968.867,-129.343 969.374,-122.361"/>
</g>
<!-- Node37 -->
<g id="node37" class="node"><title>Node37</title>
<g id="a_node37"><a xlink:href="../../d6/d3a/DotBarDisplayLEDs_8hpp.html" target="_top" xlink:title=" ">
<polygon fill="white" stroke="black" points="1122.5,-638.5 1122.5,-668.5 1275.5,-668.5 1275.5,-638.5 1122.5,-638.5"/>
<text text-anchor="start" x="1130.5" y="-656.5" font-family="Helvetica,sans-Serif" font-size="10.00">Hardware/LEDs/DotBarDisplay</text>
<text text-anchor="middle" x="1199" y="-645.5" font-family="Helvetica,sans-Serif" font-size="10.00">LEDs.hpp</text>
</a>
</g>
</g>
<!-- Node1&#45;&gt;Node37 -->
<g id="edge63" class="edge"><title>Node1&#45;&gt;Node37</title>
<path fill="none" stroke="midnightblue" d="M1199,-705.475C1199,-698.471 1199,-688.192 1199,-678.696"/>
<polygon fill="midnightblue" stroke="midnightblue" points="1202.5,-678.523 1199,-668.523 1195.5,-678.523 1202.5,-678.523"/>
</g>
<!-- Node3 -->
<g id="node3" class="node"><title>Node3</title>
<g id="a_node3"><a xlink:title=" ">
<polygon fill="white" stroke="#bfbfbf" points="0,-582.5 0,-601.5 50,-601.5 50,-582.5 0,-582.5"/>
<text text-anchor="middle" x="25" y="-589.5" font-family="Helvetica,sans-Serif" font-size="10.00">Audio.h</text>
</a>
</g>
</g>
<!-- Node2&#45;&gt;Node3 -->
<g id="edge2" class="edge"><title>Node2&#45;&gt;Node3</title>
<path fill="none" stroke="midnightblue" d="M243.465,-643.975C194.582,-632.569 108.478,-612.478 60.2553,-601.226"/>
<polygon fill="midnightblue" stroke="midnightblue" points="60.8156,-597.763 50.2818,-598.899 59.2249,-604.58 60.8156,-597.763"/>
</g>
<!-- Node4 -->
<g id="node4" class="node"><title>Node4</title>
<g id="a_node4"><a xlink:href="../../d3/df0/EMA_8hpp.html" target="_top" xlink:title=" ">
<polygon fill="white" stroke="black" points="186,-112.5 186,-131.5 280,-131.5 280,-112.5 186,-112.5"/>
<text text-anchor="middle" x="233" y="-119.5" font-family="Helvetica,sans-Serif" font-size="10.00">Helpers/EMA.hpp</text>
</a>
</g>
</g>
<!-- Node2&#45;&gt;Node4 -->
<g id="edge3" class="edge"><title>Node2&#45;&gt;Node4</title>
<path fill="none" stroke="midnightblue" d="M228.766,-644.623C168.921,-632.176 78,-601.711 78,-531.5 78,-531.5 78,-531.5 78,-233 78,-179.048 141.227,-149.142 186.917,-134.574"/>
<polygon fill="midnightblue" stroke="midnightblue" points="188.11,-137.869 196.659,-131.611 186.074,-131.172 188.11,-137.869"/>
</g>
<!-- Node6 -->
<g id="node6" class="node"><title>Node6</title>
<g id="a_node6"><a xlink:href="../../db/dda/VU_8hpp.html" target="_top" xlink:title=" ">
<polygon fill="white" stroke="black" points="615.5,-582.5 615.5,-601.5 748.5,-601.5 748.5,-582.5 615.5,-582.5"/>
<text text-anchor="middle" x="682" y="-589.5" font-family="Helvetica,sans-Serif" font-size="10.00">MIDI_Inputs/MCU/VU.hpp</text>
</a>
</g>
</g>
<!-- Node2&#45;&gt;Node6 -->
<g id="edge5" class="edge"><title>Node2&#45;&gt;Node6</title>
<path fill="none" stroke="midnightblue" d="M331.322,-644.904C403.382,-634.238 534.655,-614.808 614.538,-602.985"/>
<polygon fill="midnightblue" stroke="midnightblue" points="615.118,-606.437 624.498,-601.511 614.093,-599.513 615.118,-606.437"/>
</g>
<!-- Node36 -->
<g id="node36" class="node"><title>Node36</title>
<g id="a_node36"><a xlink:href="../../d9/d4f/MovingCoilBallistics_8hpp.html" target="_top" xlink:title=" ">
<polygon fill="white" stroke="black" points="218,-521 218,-540 342,-540 342,-521 218,-521"/>
<text text-anchor="middle" x="280" y="-528" font-family="Helvetica,sans-Serif" font-size="10.00">MovingCoilBallistics.hpp</text>
</a>
</g>
</g>
<!-- Node2&#45;&gt;Node36 -->
<g id="edge60" class="edge"><title>Node2&#45;&gt;Node36</title>
<path fill="none" stroke="midnightblue" d="M280,-643.798C280,-624.35 280,-576.99 280,-550.404"/>
<polygon fill="midnightblue" stroke="midnightblue" points="283.5,-550.123 280,-540.123 276.5,-550.123 283.5,-550.123"/>
</g>
<!-- Node5 -->
<g id="node5" class="node"><title>Node5</title>
<g id="a_node5"><a xlink:title=" ">
<polygon fill="white" stroke="#bfbfbf" points="542.5,-0.5 542.5,-19.5 591.5,-19.5 591.5,-0.5 542.5,-0.5"/>
<text text-anchor="middle" x="567" y="-7.5" font-family="Helvetica,sans-Serif" font-size="10.00">stdint.h</text>
</a>
</g>
</g>
<!-- Node4&#45;&gt;Node5 -->
<g id="edge4" class="edge"><title>Node4&#45;&gt;Node5</title>
<path fill="none" stroke="midnightblue" d="M258.93,-112.46C318.557,-92.8224 465.431,-44.451 532.542,-22.3484"/>
<polygon fill="midnightblue" stroke="midnightblue" points="533.821,-25.6122 542.224,-19.1596 531.631,-18.9635 533.821,-25.6122"/>
</g>
<!-- Node7 -->
<g id="node7" class="node"><title>Node7</title>
<g id="a_node7"><a xlink:href="../../de/d6e/BankableMIDIInput_8hpp.html" target="_top" xlink:title=" ">
<polygon fill="white" stroke="black" points="666,-521 666,-540 816,-540 816,-521 666,-521"/>
<text text-anchor="middle" x="741" y="-528" font-family="Helvetica,sans-Serif" font-size="10.00">Banks/BankableMIDIInput.hpp</text>
</a>
</g>
</g>
<!-- Node6&#45;&gt;Node7 -->
<g id="edge6" class="edge"><title>Node6&#45;&gt;Node7</title>
<path fill="none" stroke="midnightblue" d="M690.453,-582.475C699.566,-573.285 714.27,-558.456 725.476,-547.156"/>
<polygon fill="midnightblue" stroke="midnightblue" points="728.007,-549.574 732.562,-540.009 723.036,-544.646 728.007,-549.574"/>
</g>
<!-- Node23 -->
<g id="node23" class="node"><title>Node23</title>
<g id="a_node23"><a xlink:href="../../d7/d79/MinMaxFix_8hpp.html" target="_top" xlink:title=" ">
<polygon fill="white" stroke="black" points="1020,-336.5 1020,-355.5 1140,-355.5 1140,-336.5 1020,-336.5"/>
<text text-anchor="middle" x="1080" y="-343.5" font-family="Helvetica,sans-Serif" font-size="10.00">Helpers/MinMaxFix.hpp</text>
</a>
</g>
</g>
<!-- Node6&#45;&gt;Node23 -->
<g id="edge48" class="edge"><title>Node6&#45;&gt;Node23</title>
<path fill="none" stroke="midnightblue" d="M722.041,-582.479C751.579,-575.239 792.168,-563.25 825,-546 925.29,-493.306 1025.87,-400.078 1064.01,-362.927"/>
<polygon fill="midnightblue" stroke="midnightblue" points="1066.88,-365.008 1071.56,-355.502 1061.97,-360.017 1066.88,-365.008"/>
</g>
<!-- Node29 -->
<g id="node29" class="node"><title>Node29</title>
<g id="a_node29"><a xlink:href="../../dd/ddf/ExtendedInputOutput_8hpp.html" target="_top" xlink:title=" ">
<polygon fill="white" stroke="black" points="1092,-515.5 1092,-545.5 1246,-545.5 1246,-515.5 1092,-515.5"/>
<text text-anchor="start" x="1100" y="-533.5" font-family="Helvetica,sans-Serif" font-size="10.00">Hardware/ExtendedInputOutput</text>
<text text-anchor="middle" x="1169" y="-522.5" font-family="Helvetica,sans-Serif" font-size="10.00">/ExtendedInputOutput.hpp</text>
</a>
</g>
</g>
<!-- Node6&#45;&gt;Node29 -->
<g id="edge43" class="edge"><title>Node6&#45;&gt;Node29</title>
<path fill="none" stroke="midnightblue" d="M748.694,-582.852C835.156,-572.288 986.146,-553.84 1081.67,-542.17"/>
<polygon fill="midnightblue" stroke="midnightblue" points="1082.38,-545.609 1091.88,-540.922 1081.53,-538.66 1082.38,-545.609"/>
</g>
<!-- Node31 -->
<g id="node31" class="node"><title>Node31</title>
<g id="a_node31"><a xlink:href="../../d8/d4f/MIDIInputElementChannelPressure_8hpp.html" target="_top" xlink:title=" ">
<polygon fill="white" stroke="black" points="326.5,-448.5 326.5,-478.5 479.5,-478.5 479.5,-448.5 326.5,-448.5"/>
<text text-anchor="start" x="334.5" y="-466.5" font-family="Helvetica,sans-Serif" font-size="10.00">MIDI_Inputs/MIDIInputElement</text>
<text text-anchor="middle" x="403" y="-455.5" font-family="Helvetica,sans-Serif" font-size="10.00">ChannelPressure.hpp</text>
</a>
</g>
</g>
<!-- Node6&#45;&gt;Node31 -->
<g id="edge49" class="edge"><title>Node6&#45;&gt;Node31</title>
<path fill="none" stroke="midnightblue" d="M662.823,-582.305C617.832,-561.906 504.696,-510.61 443.617,-482.916"/>
<polygon fill="midnightblue" stroke="midnightblue" points="444.832,-479.624 434.279,-478.682 441.941,-485.999 444.832,-479.624"/>
</g>
<!-- Node35 -->
<g id="node35" class="node"><title>Node35</title>
<g id="a_node35"><a xlink:title=" ">
<polygon fill="white" stroke="#bfbfbf" points="599.5,-521 599.5,-540 648.5,-540 648.5,-521 599.5,-521"/>
<text text-anchor="middle" x="624" y="-528" font-family="Helvetica,sans-Serif" font-size="10.00">string.h</text>
</a>
</g>
</g>
<!-- Node6&#45;&gt;Node35 -->
<g id="edge59" class="edge"><title>Node6&#45;&gt;Node35</title>
<path fill="none" stroke="midnightblue" d="M673.69,-582.475C664.818,-573.373 650.554,-558.741 639.58,-547.483"/>
<polygon fill="midnightblue" stroke="midnightblue" points="641.781,-544.727 632.295,-540.009 636.769,-549.613 641.781,-544.727"/>
</g>
<!-- Node8 -->
<g id="node8" class="node"><title>Node8</title>
<g id="a_node8"><a xlink:href="../../d4/d57/Bank_8hpp.html" target="_top" xlink:title=" ">
<polygon fill="white" stroke="black" points="712,-454 712,-473 770,-473 770,-454 712,-454"/>
<text text-anchor="middle" x="741" y="-461" font-family="Helvetica,sans-Serif" font-size="10.00">Bank.hpp</text>
</a>
</g>
</g>
<!-- Node7&#45;&gt;Node8 -->
<g id="edge7" class="edge"><title>Node7&#45;&gt;Node8</title>
<path fill="none" stroke="midnightblue" d="M736.211,-520.734C734.202,-511.183 733.736,-495.618 734.816,-483.283"/>
<polygon fill="midnightblue" stroke="midnightblue" points="738.317,-483.517 736.241,-473.127 731.385,-482.544 738.317,-483.517"/>
</g>
<!-- Node9 -->
<g id="node9" class="node"><title>Node9</title>
<g id="a_node9"><a xlink:href="../../df/dee/Debug_8hpp.html" target="_top" xlink:title=" ">
<polygon fill="white" stroke="black" points="825.5,-280.5 825.5,-299.5 926.5,-299.5 926.5,-280.5 825.5,-280.5"/>
<text text-anchor="middle" x="876" y="-287.5" font-family="Helvetica,sans-Serif" font-size="10.00">Helpers/Debug.hpp</text>
</a>
</g>
</g>
<!-- Node7&#45;&gt;Node9 -->
<g id="edge41" class="edge"><title>Node7&#45;&gt;Node9</title>
<path fill="none" stroke="midnightblue" d="M763.255,-520.957C811.974,-500.879 927.282,-445.513 972,-356 984.946,-330.085 952.993,-312.765 922.533,-302.566"/>
<polygon fill="midnightblue" stroke="midnightblue" points="923.344,-299.152 912.755,-299.503 921.251,-305.832 923.344,-299.152"/>
</g>
<!-- Node21 -->
<g id="node21" class="node"><title>Node21</title>
<g id="a_node21"><a xlink:href="../../de/dd1/LinkedList_8hpp.html" target="_top" xlink:title=" ">
<polygon fill="white" stroke="black" points="536,-392.5 536,-411.5 652,-411.5 652,-392.5 536,-392.5"/>
<text text-anchor="middle" x="594" y="-399.5" font-family="Helvetica,sans-Serif" font-size="10.00">Helpers/LinkedList.hpp</text>
</a>
</g>
</g>
<!-- Node7&#45;&gt;Node21 -->
<g id="edge42" class="edge"><title>Node7&#45;&gt;Node21</title>
<path fill="none" stroke="midnightblue" d="M730.896,-520.805C706.349,-499.682 643.305,-445.429 612.08,-418.558"/>
<polygon fill="midnightblue" stroke="midnightblue" points="614.037,-415.626 604.175,-411.756 609.471,-420.931 614.037,-415.626"/>
</g>
<!-- Node27 -->
<g id="node27" class="node"><title>Node27</title>
<g id="a_node27"><a xlink:href="../../dd/d1f/BankConfig_8hpp.html" target="_top" xlink:title=" ">
<polygon fill="white" stroke="black" points="1130,-280.5 1130,-299.5 1216,-299.5 1216,-280.5 1130,-280.5"/>
<text text-anchor="middle" x="1173" y="-287.5" font-family="Helvetica,sans-Serif" font-size="10.00">BankConfig.hpp</text>
</a>
</g>
</g>
<!-- Node7&#45;&gt;Node27 -->
<g id="edge37" class="edge"><title>Node7&#45;&gt;Node27</title>
<path fill="none" stroke="midnightblue" d="M795.817,-520.955C882.84,-504.552 1052.59,-460.536 1149,-356 1160.84,-343.161 1166.97,-323.978 1170.06,-309.777"/>
<polygon fill="midnightblue" stroke="midnightblue" points="1173.55,-310.142 1171.93,-299.671 1166.67,-308.865 1173.55,-310.142"/>
</g>
<!-- Node28 -->
<g id="node28" class="node"><title>Node28</title>
<g id="a_node28"><a xlink:href="../../d8/d38/MIDICNChannelAddress_8hpp.html" target="_top" xlink:title=" ">
<polygon fill="white" stroke="black" points="308.5,-336.5 308.5,-355.5 471.5,-355.5 471.5,-336.5 308.5,-336.5"/>
<text text-anchor="middle" x="390" y="-343.5" font-family="Helvetica,sans-Serif" font-size="10.00">Def/MIDICNChannelAddress.hpp</text>
</a>
</g>
</g>
<!-- Node7&#45;&gt;Node28 -->
<g id="edge39" class="edge"><title>Node7&#45;&gt;Node28</title>
<path fill="none" stroke="midnightblue" d="M724.541,-520.942C668.347,-491.725 483.788,-395.764 415.609,-360.315"/>
<polygon fill="midnightblue" stroke="midnightblue" points="416.91,-357.047 406.423,-355.539 413.681,-363.258 416.91,-357.047"/>
</g>
<!-- Node8&#45;&gt;Node7 -->
<g id="edge36" class="edge"><title>Node8&#45;&gt;Node7</title>
<path fill="none" stroke="midnightblue" d="M745.759,-473.127C747.784,-482.62 748.264,-498.17 747.2,-510.537"/>
<polygon fill="midnightblue" stroke="midnightblue" points="743.693,-510.348 745.789,-520.734 750.627,-511.308 743.693,-510.348"/>
</g>
<!-- Node8&#45;&gt;Node9 -->
<g id="edge8" class="edge"><title>Node8&#45;&gt;Node9</title>
<path fill="none" stroke="midnightblue" d="M730.328,-453.76C720.058,-444.595 705.203,-429.159 699,-412 687.517,-380.234 678.266,-362.665 699,-336 706.648,-326.165 771.623,-311.444 820.65,-301.544"/>
<polygon fill="midnightblue" stroke="midnightblue" points="821.411,-304.961 830.532,-299.57 820.04,-298.097 821.411,-304.961"/>
</g>
<!-- Node20 -->
<g id="node20" class="node"><title>Node20</title>
<g id="a_node20"><a xlink:href="../../d1/d93/Error_8hpp.html" target="_top" xlink:title=" ">
<polygon fill="white" stroke="black" points="870.5,-336.5 870.5,-355.5 963.5,-355.5 963.5,-336.5 870.5,-336.5"/>
<text text-anchor="middle" x="917" y="-343.5" font-family="Helvetica,sans-Serif" font-size="10.00">Helpers/Error.hpp</text>
</a>
</g>
</g>
<!-- Node8&#45;&gt;Node20 -->
<g id="edge23" class="edge"><title>Node8&#45;&gt;Node20</title>
<path fill="none" stroke="midnightblue" d="M761.953,-453.871C782.984,-444.793 815.916,-429.422 842,-412 864.003,-397.304 886.596,-376.85 901.153,-362.834"/>
<polygon fill="midnightblue" stroke="midnightblue" points="903.657,-365.282 908.36,-355.788 898.763,-360.277 903.657,-365.282"/>
</g>
<!-- Node8&#45;&gt;Node21 -->
<g id="edge25" class="edge"><title>Node8&#45;&gt;Node21</title>
<path fill="none" stroke="midnightblue" d="M719.938,-453.975C694.941,-443.857 653.058,-426.905 624.513,-415.351"/>
<polygon fill="midnightblue" stroke="midnightblue" points="625.605,-412.017 615.022,-411.509 622.979,-418.505 625.605,-412.017"/>
</g>
<!-- Node25 -->
<g id="node25" class="node"><title>Node25</title>
<g id="a_node25"><a xlink:href="../../d9/d46/Selectable_8hpp.html" target="_top" xlink:title=" ">
<polygon fill="white" stroke="black" points="708.5,-392.5 708.5,-411.5 833.5,-411.5 833.5,-392.5 708.5,-392.5"/>
<text text-anchor="middle" x="771" y="-399.5" font-family="Helvetica,sans-Serif" font-size="10.00">Selectors/Selectable.hpp</text>
</a>
</g>
</g>
<!-- Node8&#45;&gt;Node25 -->
<g id="edge31" class="edge"><title>Node8&#45;&gt;Node25</title>
<path fill="none" stroke="midnightblue" d="M745.298,-453.975C749.665,-445.315 756.555,-431.649 762.103,-420.645"/>
<polygon fill="midnightblue" stroke="midnightblue" points="765.333,-422.014 766.71,-411.509 759.082,-418.863 765.333,-422.014"/>
</g>
<!-- Node10 -->
<g id="node10" class="node"><title>Node10</title>
<g id="a_node10"><a xlink:href="../../d2/dd5/SettingsWrapper_8hpp.html" target="_top" xlink:title=" ">
<polygon fill="white" stroke="black" points="635.5,-224.5 635.5,-243.5 782.5,-243.5 782.5,-224.5 635.5,-224.5"/>
<text text-anchor="middle" x="709" y="-231.5" font-family="Helvetica,sans-Serif" font-size="10.00">Settings/SettingsWrapper.hpp</text>
</a>
</g>
</g>
<!-- Node9&#45;&gt;Node10 -->
<g id="edge9" class="edge"><title>Node9&#45;&gt;Node10</title>
<path fill="none" stroke="midnightblue" d="M844.45,-280.444C814.362,-271.359 769.566,-256.939 739.752,-246.783"/>
<polygon fill="midnightblue" stroke="midnightblue" points="740.853,-243.461 730.258,-243.516 738.575,-250.08 740.853,-243.461"/>
</g>
<!-- Node18 -->
<g id="node18" class="node"><title>Node18</title>
<g id="a_node18"><a xlink:href="../../dd/d80/PrintStream_8hpp.html" target="_top" xlink:title=" ">
<polygon fill="white" stroke="black" points="839.5,-224.5 839.5,-243.5 926.5,-243.5 926.5,-224.5 839.5,-224.5"/>
<text text-anchor="middle" x="883" y="-231.5" font-family="Helvetica,sans-Serif" font-size="10.00">PrintStream.hpp</text>
</a>
</g>
</g>
<!-- Node9&#45;&gt;Node18 -->
<g id="edge21" class="edge"><title>Node9&#45;&gt;Node18</title>
<path fill="none" stroke="midnightblue" d="M877.156,-280.083C878.084,-272.927 879.418,-262.635 880.577,-253.691"/>
<polygon fill="midnightblue" stroke="midnightblue" points="884.051,-254.118 881.866,-243.751 877.109,-253.218 884.051,-254.118"/>
</g>
<!-- Node10&#45;&gt;Node9 -->
<g id="edge20" class="edge"><title>Node10&#45;&gt;Node9</title>
<path fill="none" stroke="midnightblue" d="M740.418,-243.516C770.462,-252.585 815.258,-267.004 845.117,-277.172"/>
<polygon fill="midnightblue" stroke="midnightblue" points="844.032,-280.5 854.627,-280.444 846.309,-273.881 844.032,-280.5"/>
</g>
<!-- Node11 -->
<g id="node11" class="node"><title>Node11</title>
<g id="a_node11"><a xlink:href="../../db/d02/Settings_8hpp.html" target="_top" xlink:title="All user settings and debugging options can be changed here.">
<polygon fill="white" stroke="black" points="803.5,-168.5 803.5,-187.5 874.5,-187.5 874.5,-168.5 803.5,-168.5"/>
<text text-anchor="middle" x="839" y="-175.5" font-family="Helvetica,sans-Serif" font-size="10.00">Settings.hpp</text>
</a>
</g>
</g>
<!-- Node10&#45;&gt;Node11 -->
<g id="edge10" class="edge"><title>Node10&#45;&gt;Node11</title>
<path fill="none" stroke="midnightblue" d="M729.599,-224.444C750.993,-215.557 784.681,-201.563 809.024,-191.451"/>
<polygon fill="midnightblue" stroke="midnightblue" points="810.605,-194.585 818.497,-187.516 807.92,-188.12 810.605,-194.585"/>
</g>
<!-- Node17 -->
<g id="node17" class="node"><title>Node17</title>
<g id="a_node17"><a xlink:href="../../d9/d98/TeensyUSBTypes_8hpp.html" target="_top" xlink:title=" ">
<polygon fill="white" stroke="black" points="633,-168.5 633,-187.5 785,-187.5 785,-168.5 633,-168.5"/>
<text text-anchor="middle" x="709" y="-175.5" font-family="Helvetica,sans-Serif" font-size="10.00">Helpers/TeensyUSBTypes.hpp</text>
</a>
</g>
</g>
<!-- Node10&#45;&gt;Node17 -->
<g id="edge19" class="edge"><title>Node10&#45;&gt;Node17</title>
<path fill="none" stroke="midnightblue" d="M709,-224.083C709,-217.006 709,-206.861 709,-197.986"/>
<polygon fill="midnightblue" stroke="midnightblue" points="712.5,-197.751 709,-187.751 705.5,-197.751 712.5,-197.751"/>
</g>
<!-- Node11&#45;&gt;Node12 -->
<g id="edge11" class="edge"><title>Node11&#45;&gt;Node12</title>
<path fill="none" stroke="midnightblue" d="M852.657,-168.324C865.916,-159.9 886.268,-146.971 901.846,-137.074"/>
<polygon fill="midnightblue" stroke="midnightblue" points="903.813,-139.971 910.377,-131.655 900.06,-134.063 903.813,-139.971"/>
</g>
<!-- Node12&#45;&gt;Node5 -->
<g id="edge18" class="edge"><title>Node12&#45;&gt;Node5</title>
<path fill="none" stroke="midnightblue" d="M888.656,-114.867C848.496,-107.471 781.23,-93.7854 725,-76 678.046,-61.1486 625.538,-38.2204 594.43,-23.9388"/>
<polygon fill="midnightblue" stroke="midnightblue" points="595.661,-20.652 585.116,-19.6269 592.72,-27.0043 595.661,-20.652"/>
</g>
<!-- Node13 -->
<g id="node13" class="node"><title>Node13</title>
<g id="a_node13"><a xlink:href="../../d7/d42/Channel_8hpp.html" target="_top" xlink:title=" ">
<polygon fill="white" stroke="black" points="734.5,-56.5 734.5,-75.5 805.5,-75.5 805.5,-56.5 734.5,-56.5"/>
<text text-anchor="middle" x="770" y="-63.5" font-family="Helvetica,sans-Serif" font-size="10.00">Channel.hpp</text>
</a>
</g>
</g>
<!-- Node12&#45;&gt;Node13 -->
<g id="edge12" class="edge"><title>Node12&#45;&gt;Node13</title>
<path fill="none" stroke="midnightblue" d="M899.598,-112.444C873.803,-103.399 832.923,-89.064 803.982,-78.9158"/>
<polygon fill="midnightblue" stroke="midnightblue" points="804.882,-75.5226 794.288,-75.5164 802.566,-82.1283 804.882,-75.5226"/>
</g>
<!-- Node14 -->
<g id="node14" class="node"><title>Node14</title>
<g id="a_node14"><a xlink:href="../../dc/d50/Frequency_8hpp.html" target="_top" xlink:title=" ">
<polygon fill="white" stroke="black" points="872.5,-56.5 872.5,-75.5 953.5,-75.5 953.5,-56.5 872.5,-56.5"/>
<text text-anchor="middle" x="913" y="-63.5" font-family="Helvetica,sans-Serif" font-size="10.00">Frequency.hpp</text>
</a>
</g>
</g>
<!-- Node12&#45;&gt;Node14 -->
<g id="edge14" class="edge"><title>Node12&#45;&gt;Node14</title>
<path fill="none" stroke="midnightblue" d="M922.184,-112.083C920.726,-104.927 918.629,-94.6353 916.807,-85.6911"/>
<polygon fill="midnightblue" stroke="midnightblue" points="920.208,-84.8512 914.783,-75.7511 913.349,-86.2485 920.208,-84.8512"/>
</g>
<!-- Node15 -->
<g id="node15" class="node"><title>Node15</title>
<g id="a_node15"><a xlink:href="../../de/d76/Array_8hpp.html" target="_top" xlink:title=" ">
<polygon fill="white" stroke="black" points="971.5,-56.5 971.5,-75.5 1066.5,-75.5 1066.5,-56.5 971.5,-56.5"/>
<text text-anchor="middle" x="1019" y="-63.5" font-family="Helvetica,sans-Serif" font-size="10.00">Helpers/Array.hpp</text>
</a>
</g>
</g>
<!-- Node12&#45;&gt;Node15 -->
<g id="edge15" class="edge"><title>Node12&#45;&gt;Node15</title>
<path fill="none" stroke="midnightblue" d="M939.263,-112.324C954.221,-103.822 977.255,-90.7288 994.727,-80.7975"/>
<polygon fill="midnightblue" stroke="midnightblue" points="996.81,-83.639 1003.77,-75.6545 993.351,-77.5534 996.81,-83.639"/>
</g>
<!-- Node16 -->
<g id="node16" class="node"><title>Node16</title>
<g id="a_node16"><a xlink:title=" ">
<polygon fill="white" stroke="#bfbfbf" points="818,-0.5 818,-19.5 870,-19.5 870,-0.5 818,-0.5"/>
<text text-anchor="middle" x="844" y="-7.5" font-family="Helvetica,sans-Serif" font-size="10.00">stddef.h</text>
</a>
</g>
</g>
<!-- Node12&#45;&gt;Node16 -->
<g id="edge17" class="edge"><title>Node12&#45;&gt;Node16</title>
<path fill="none" stroke="midnightblue" d="M906.824,-112.412C893.052,-104.681 874.23,-92.0744 863,-76 853.426,-62.2961 848.626,-43.7631 846.25,-29.9929"/>
<polygon fill="midnightblue" stroke="midnightblue" points="849.666,-29.1543 844.773,-19.7567 842.737,-30.1541 849.666,-29.1543"/>
</g>
<!-- Node13&#45;&gt;Node5 -->
<g id="edge13" class="edge"><title>Node13&#45;&gt;Node5</title>
<path fill="none" stroke="midnightblue" d="M737.834,-56.4435C700.739,-46.5759 639.977,-30.4126 601.802,-20.2577"/>
<polygon fill="midnightblue" stroke="midnightblue" points="602.236,-16.7514 591.672,-17.5631 600.436,-23.5162 602.236,-16.7514"/>
</g>
<!-- Node15&#45;&gt;Node16 -->
<g id="edge16" class="edge"><title>Node15&#45;&gt;Node16</title>
<path fill="none" stroke="midnightblue" d="M991.271,-56.4435C961.138,-47.1454 912.889,-32.2572 879.886,-22.0735"/>
<polygon fill="midnightblue" stroke="midnightblue" points="880.758,-18.6797 870.17,-19.0755 878.694,-25.3685 880.758,-18.6797"/>
</g>
<!-- Node19 -->
<g id="node19" class="node"><title>Node19</title>
<g id="a_node19"><a xlink:title=" ">
<polygon fill="white" stroke="#bfbfbf" points="1035,-168.5 1035,-187.5 1093,-187.5 1093,-168.5 1035,-168.5"/>
<text text-anchor="middle" x="1064" y="-175.5" font-family="Helvetica,sans-Serif" font-size="10.00">Arduino.h</text>
</a>
</g>
</g>
<!-- Node18&#45;&gt;Node19 -->
<g id="edge22" class="edge"><title>Node18&#45;&gt;Node19</title>
<path fill="none" stroke="midnightblue" d="M911.68,-224.444C942.527,-215.241 991.728,-200.562 1025.83,-190.388"/>
<polygon fill="midnightblue" stroke="midnightblue" points="1026.87,-193.729 1035.45,-187.516 1024.87,-187.021 1026.87,-193.729"/>
</g>
<!-- Node20&#45;&gt;Node9 -->
<g id="edge24" class="edge"><title>Node20&#45;&gt;Node9</title>
<path fill="none" stroke="midnightblue" d="M910.23,-336.083C904.438,-328.455 895.942,-317.264 888.862,-307.941"/>
<polygon fill="midnightblue" stroke="midnightblue" points="891.479,-305.599 882.644,-299.751 885.904,-309.832 891.479,-305.599"/>
</g>
<!-- Node21&#45;&gt;Node9 -->
<g id="edge26" class="edge"><title>Node21&#45;&gt;Node9</title>
<path fill="none" stroke="midnightblue" d="M600.951,-392.277C612.741,-378.112 638.112,-350.262 666,-336 691.651,-322.882 762.861,-309.203 815.276,-300.421"/>
<polygon fill="midnightblue" stroke="midnightblue" points="815.865,-303.871 825.159,-298.785 814.722,-296.965 815.865,-303.871"/>
</g>
<!-- Node22 -->
<g id="node22" class="node"><title>Node22</title>
<g id="a_node22"><a xlink:title=" ">
<polygon fill="white" stroke="#bfbfbf" points="491,-224.5 491,-243.5 539,-243.5 539,-224.5 491,-224.5"/>
<text text-anchor="middle" x="515" y="-231.5" font-family="Helvetica,sans-Serif" font-size="10.00">stdlib.h</text>
</a>
</g>
</g>
<!-- Node21&#45;&gt;Node22 -->
<g id="edge27" class="edge"><title>Node21&#45;&gt;Node22</title>
<path fill="none" stroke="midnightblue" d="M567.286,-392.493C550.285,-385.558 529.547,-373.931 519,-356 500.24,-324.108 505.389,-278.86 510.436,-253.706"/>
<polygon fill="midnightblue" stroke="midnightblue" points="513.911,-254.203 512.662,-243.682 507.077,-252.686 513.911,-254.203"/>
</g>
<!-- Node21&#45;&gt;Node23 -->
<g id="edge28" class="edge"><title>Node21&#45;&gt;Node23</title>
<path fill="none" stroke="midnightblue" d="M652.14,-394.54C741.812,-384.576 913.559,-365.493 1009.95,-354.784"/>
<polygon fill="midnightblue" stroke="midnightblue" points="1010.34,-358.262 1019.89,-353.679 1009.56,-351.305 1010.34,-358.262"/>
</g>
<!-- Node24 -->
<g id="node24" class="node"><title>Node24</title>
<g id="a_node24"><a xlink:title=" ">
<polygon fill="white" stroke="#bfbfbf" points="528.5,-336.5 528.5,-355.5 575.5,-355.5 575.5,-336.5 528.5,-336.5"/>
<text text-anchor="middle" x="552" y="-343.5" font-family="Helvetica,sans-Serif" font-size="10.00">iterator</text>
</a>
</g>
</g>
<!-- Node21&#45;&gt;Node24 -->
<g id="edge30" class="edge"><title>Node21&#45;&gt;Node24</title>
<path fill="none" stroke="midnightblue" d="M587.065,-392.083C581.071,-384.377 572.248,-373.033 564.952,-363.653"/>
<polygon fill="midnightblue" stroke="midnightblue" points="567.709,-361.496 558.806,-355.751 562.183,-365.793 567.709,-361.496"/>
</g>
<!-- Node23&#45;&gt;Node19 -->
<g id="edge29" class="edge"><title>Node23&#45;&gt;Node19</title>
<path fill="none" stroke="midnightblue" d="M1079.14,-336.075C1076.62,-309.945 1069.23,-233.211 1065.79,-197.577"/>
<polygon fill="midnightblue" stroke="midnightblue" points="1069.27,-197.186 1064.83,-187.568 1062.3,-197.858 1069.27,-197.186"/>
</g>
<!-- Node25&#45;&gt;Node5 -->
<g id="edge34" class="edge"><title>Node25&#45;&gt;Node5</title>
<path fill="none" stroke="midnightblue" d="M745.201,-392.382C688.978,-373.329 557.373,-327.166 519,-300 487.64,-277.799 462,-273.423 462,-235 462,-235 462,-235 462,-121 462,-76.0195 508.507,-42.1886 539.618,-24.5896"/>
<polygon fill="midnightblue" stroke="midnightblue" points="541.591,-27.5011 548.71,-19.6546 538.252,-21.3489 541.591,-27.5011"/>
</g>
<!-- Node25&#45;&gt;Node12 -->
<g id="edge32" class="edge"><title>Node25&#45;&gt;Node12</title>
<path fill="none" stroke="midnightblue" d="M781.667,-392.361C798.108,-379.265 830.897,-354.009 861,-336 892.386,-317.223 915.603,-331.007 935,-300 966.383,-249.832 944.442,-175.225 931.557,-141.153"/>
<polygon fill="midnightblue" stroke="midnightblue" points="934.708,-139.605 927.771,-131.598 928.201,-142.184 934.708,-139.605"/>
</g>
<!-- Node25&#45;&gt;Node20 -->
<g id="edge33" class="edge"><title>Node25&#45;&gt;Node20</title>
<path fill="none" stroke="midnightblue" d="M794.134,-392.444C818.482,-383.438 857.007,-369.189 884.423,-359.049"/>
<polygon fill="midnightblue" stroke="midnightblue" points="885.809,-362.268 893.974,-355.516 883.381,-355.703 885.809,-362.268"/>
</g>
<!-- Node26 -->
<g id="node26" class="node"><title>Node26</title>
<g id="a_node26"><a xlink:href="../../d7/dd7/Helpers_8hpp.html" target="_top" xlink:title=" ">
<polygon fill="white" stroke="black" points="708,-336.5 708,-355.5 814,-355.5 814,-336.5 708,-336.5"/>
<text text-anchor="middle" x="761" y="-343.5" font-family="Helvetica,sans-Serif" font-size="10.00">Helpers/Helpers.hpp</text>
</a>
</g>
</g>
<!-- Node25&#45;&gt;Node26 -->
<g id="edge35" class="edge"><title>Node25&#45;&gt;Node26</title>
<path fill="none" stroke="midnightblue" d="M769.349,-392.083C768.024,-384.927 766.118,-374.635 764.461,-365.691"/>
<polygon fill="midnightblue" stroke="midnightblue" points="767.883,-364.947 762.621,-355.751 761,-366.221 767.883,-364.947"/>
</g>
<!-- Node27&#45;&gt;Node12 -->
<g id="edge38" class="edge"><title>Node27&#45;&gt;Node12</title>
<path fill="none" stroke="midnightblue" d="M1170.52,-280.403C1163.65,-258.116 1142.13,-198.12 1102,-168 1063.44,-139.053 1008.29,-128.604 969.63,-124.898"/>
<polygon fill="midnightblue" stroke="midnightblue" points="969.447,-121.371 959.19,-124.022 968.862,-128.346 969.447,-121.371"/>
</g>
<!-- Node28&#45;&gt;Node12 -->
<g id="edge40" class="edge"><title>Node28&#45;&gt;Node12</title>
<path fill="none" stroke="midnightblue" d="M471.644,-338.714C555.92,-331.402 681.22,-317.995 726,-300 779.12,-278.653 783.203,-256.977 830,-224 853.277,-207.597 863.209,-208.474 883,-188 896.58,-173.951 908.041,-154.703 915.363,-140.803"/>
<polygon fill="midnightblue" stroke="midnightblue" points="918.538,-142.28 919.934,-131.777 912.293,-139.117 918.538,-142.28"/>
</g>
<!-- Node29&#45;&gt;Node19 -->
<g id="edge47" class="edge"><title>Node29&#45;&gt;Node19</title>
<path fill="none" stroke="midnightblue" d="M1194,-515.389C1206.72,-506.708 1220.95,-494.309 1228,-479 1233.76,-466.485 1232.17,-461.133 1228,-448 1209.58,-389.936 1185.26,-384.944 1149,-336 1136.93,-319.714 1131.61,-317.274 1121,-300 1115.21,-290.577 1086.48,-228.195 1072.16,-196.875"/>
<polygon fill="midnightblue" stroke="midnightblue" points="1075.24,-195.206 1067.9,-187.565 1068.87,-198.115 1075.24,-195.206"/>
</g>
<!-- Node30 -->
<g id="node30" class="node"><title>Node30</title>
<g id="a_node30"><a xlink:href="../../d4/d57/ExtendedIOElement_8hpp.html" target="_top" xlink:title=" ">
<polygon fill="white" stroke="black" points="1096.5,-454 1096.5,-473 1219.5,-473 1219.5,-454 1096.5,-454"/>
<text text-anchor="middle" x="1158" y="-461" font-family="Helvetica,sans-Serif" font-size="10.00">ExtendedIOElement.hpp</text>
</a>
</g>
</g>
<!-- Node29&#45;&gt;Node30 -->
<g id="edge44" class="edge"><title>Node29&#45;&gt;Node30</title>
<path fill="none" stroke="midnightblue" d="M1166.61,-515.396C1165.02,-505.963 1162.9,-493.448 1161.16,-483.189"/>
<polygon fill="midnightblue" stroke="midnightblue" points="1164.59,-482.47 1159.47,-473.195 1157.69,-483.638 1164.59,-482.47"/>
</g>
<!-- Node30&#45;&gt;Node12 -->
<g id="edge45" class="edge"><title>Node30&#45;&gt;Node12</title>
<path fill="none" stroke="midnightblue" d="M1165.94,-453.98C1187.23,-430.197 1244,-360.281 1244,-291 1244,-291 1244,-291 1244,-233 1244,-175.573 1057.36,-141.703 969.157,-128.904"/>
<polygon fill="midnightblue" stroke="midnightblue" points="969.554,-125.425 959.161,-127.482 968.569,-132.355 969.554,-125.425"/>
</g>
<!-- Node30&#45;&gt;Node21 -->
<g id="edge46" class="edge"><title>Node30&#45;&gt;Node21</title>
<path fill="none" stroke="midnightblue" d="M1096.3,-455.991C990.002,-444.777 773.119,-421.896 662.378,-410.214"/>
<polygon fill="midnightblue" stroke="midnightblue" points="662.635,-406.721 652.323,-409.153 661.901,-413.683 662.635,-406.721"/>
</g>
<!-- Node31&#45;&gt;Node21 -->
<g id="edge58" class="edge"><title>Node31&#45;&gt;Node21</title>
<path fill="none" stroke="midnightblue" d="M448.264,-448.399C481.412,-438.073 525.847,-424.231 556.904,-414.556"/>
<polygon fill="midnightblue" stroke="midnightblue" points="557.98,-417.887 566.487,-411.571 555.898,-411.204 557.98,-417.887"/>
</g>
<!-- Node32 -->
<g id="node32" class="node"><title>Node32</title>
<g id="a_node32"><a xlink:href="../../dc/d90/MIDIInputElement_8hpp.html" target="_top" xlink:title=" ">
<polygon fill="white" stroke="black" points="332.5,-392.5 332.5,-411.5 447.5,-411.5 447.5,-392.5 332.5,-392.5"/>
<text text-anchor="middle" x="390" y="-399.5" font-family="Helvetica,sans-Serif" font-size="10.00">MIDIInputElement.hpp</text>
</a>
</g>
</g>
<!-- Node31&#45;&gt;Node32 -->
<g id="edge50" class="edge"><title>Node31&#45;&gt;Node32</title>
<path fill="none" stroke="midnightblue" d="M399.919,-448.399C398.166,-440.377 395.95,-430.233 394.057,-421.569"/>
<polygon fill="midnightblue" stroke="midnightblue" points="397.446,-420.68 391.892,-411.658 390.607,-422.174 397.446,-420.68"/>
</g>
<!-- Node32&#45;&gt;Node28 -->
<g id="edge57" class="edge"><title>Node32&#45;&gt;Node28</title>
<path fill="none" stroke="midnightblue" d="M390,-392.083C390,-385.006 390,-374.861 390,-365.986"/>
<polygon fill="midnightblue" stroke="midnightblue" points="393.5,-365.751 390,-355.751 386.5,-365.751 393.5,-365.751"/>
</g>
<!-- Node33 -->
<g id="node33" class="node"><title>Node33</title>
<g id="a_node33"><a xlink:href="../../db/df6/ChannelMessageMatcher_8hpp.html" target="_top" xlink:title=" ">
<polygon fill="white" stroke="black" points="106,-336.5 106,-355.5 252,-355.5 252,-336.5 106,-336.5"/>
<text text-anchor="middle" x="179" y="-343.5" font-family="Helvetica,sans-Serif" font-size="10.00">ChannelMessageMatcher.hpp</text>
</a>
</g>
</g>
<!-- Node32&#45;&gt;Node33 -->
<g id="edge51" class="edge"><title>Node32&#45;&gt;Node33</title>
<path fill="none" stroke="midnightblue" d="M356.566,-392.444C320.144,-383.122 261.77,-368.183 221.971,-357.997"/>
<polygon fill="midnightblue" stroke="midnightblue" points="222.833,-354.605 212.277,-355.516 221.097,-361.387 222.833,-354.605"/>
</g>
<!-- Node34 -->
<g id="node34" class="node"><title>Node34</title>
<g id="a_node34"><a xlink:href="../../d7/d2d/MIDI__Parser_8hpp.html" target="_top" xlink:title=" ">
<polygon fill="white" stroke="black" points="528.5,-280.5 528.5,-299.5 683.5,-299.5 683.5,-280.5 528.5,-280.5"/>
<text text-anchor="middle" x="606" y="-287.5" font-family="Helvetica,sans-Serif" font-size="10.00">MIDI_Parsers/MIDI_Parser.hpp</text>
</a>
</g>
</g>
<!-- Node33&#45;&gt;Node34 -->
<g id="edge52" class="edge"><title>Node33&#45;&gt;Node34</title>
<path fill="none" stroke="midnightblue" d="M246.659,-336.444C323.335,-326.747 448.082,-310.971 528.579,-300.791"/>
<polygon fill="midnightblue" stroke="midnightblue" points="529.175,-304.244 538.657,-299.516 528.297,-297.299 529.175,-304.244"/>
</g>
<!-- Node34&#45;&gt;Node5 -->
<g id="edge54" class="edge"><title>Node34&#45;&gt;Node5</title>
<path fill="none" stroke="midnightblue" d="M600.577,-280.25C589.861,-262.096 567,-218.713 567,-179 567,-179 567,-179 567,-121 567,-88.948 567,-51.6426 567,-29.7489"/>
<polygon fill="midnightblue" stroke="midnightblue" points="570.5,-29.5577 567,-19.5578 563.5,-29.5578 570.5,-29.5577"/>
</g>
<!-- Node34&#45;&gt;Node10 -->
<g id="edge56" class="edge"><title>Node34&#45;&gt;Node10</title>
<path fill="none" stroke="midnightblue" d="M622.549,-280.324C638.992,-271.703 664.435,-258.364 683.468,-248.386"/>
<polygon fill="midnightblue" stroke="midnightblue" points="685.261,-251.398 692.492,-243.655 682.011,-245.198 685.261,-251.398"/>
</g>
<!-- Node34&#45;&gt;Node16 -->
<g id="edge53" class="edge"><title>Node34&#45;&gt;Node16</title>
<path fill="none" stroke="midnightblue" d="M605.869,-280.442C605.598,-261.937 605,-216.814 605,-179 605,-179 605,-179 605,-121 605,-32.7678 741.075,-15.0588 807.873,-11.6811"/>
<polygon fill="midnightblue" stroke="midnightblue" points="808.125,-15.1737 817.968,-11.2534 807.829,-8.17993 808.125,-15.1737"/>
</g>
<!-- Node34&#45;&gt;Node22 -->
<g id="edge55" class="edge"><title>Node34&#45;&gt;Node22</title>
<path fill="none" stroke="midnightblue" d="M591.379,-280.324C577.051,-271.822 554.987,-258.729 538.251,-248.797"/>
<polygon fill="midnightblue" stroke="midnightblue" points="539.97,-245.748 529.584,-243.655 536.398,-251.768 539.97,-245.748"/>
</g>
<!-- Node36&#45;&gt;Node10 -->
<g id="edge61" class="edge"><title>Node36&#45;&gt;Node10</title>
<path fill="none" stroke="midnightblue" d="M277.571,-520.99C269.515,-490.763 247.036,-387.626 299,-336 361.215,-274.19 625.103,-356.709 692,-300 705.188,-288.821 708.803,-268.797 709.51,-253.919"/>
<polygon fill="midnightblue" stroke="midnightblue" points="713.011,-253.804 709.594,-243.775 706.011,-253.746 713.011,-253.804"/>
</g>
<!-- Node38 -->
<g id="node38" class="node"><title>Node38</title>
<g id="a_node38"><a xlink:href="../../d9/d4f/LEDs_8hpp.html" target="_top" xlink:title=" ">
<polygon fill="white" stroke="black" points="1132.5,-582.5 1132.5,-601.5 1265.5,-601.5 1265.5,-582.5 1132.5,-582.5"/>
<text text-anchor="middle" x="1199" y="-589.5" font-family="Helvetica,sans-Serif" font-size="10.00">Hardware/LEDs/LEDs.hpp</text>
</a>
</g>
</g>
<!-- Node37&#45;&gt;Node38 -->
<g id="edge64" class="edge"><title>Node37&#45;&gt;Node38</title>
<path fill="none" stroke="midnightblue" d="M1199,-638.399C1199,-630.466 1199,-620.458 1199,-611.858"/>
<polygon fill="midnightblue" stroke="midnightblue" points="1202.5,-611.658 1199,-601.658 1195.5,-611.658 1202.5,-611.658"/>
</g>
<!-- Node38&#45;&gt;Node12 -->
<g id="edge65" class="edge"><title>Node38&#45;&gt;Node12</title>
<path fill="none" stroke="midnightblue" d="M1213.7,-582.346C1226.2,-574.322 1243.85,-561.333 1255,-546 1277.79,-514.655 1286,-503.254 1286,-464.5 1286,-464.5 1286,-464.5 1286,-233 1286,-167.486 1066.2,-137.281 969.143,-127.138"/>
<polygon fill="midnightblue" stroke="midnightblue" points="969.342,-123.64 959.039,-126.108 968.633,-130.604 969.342,-123.64"/>
</g>
<!-- Node38&#45;&gt;Node29 -->
<g id="edge66" class="edge"><title>Node38&#45;&gt;Node29</title>
<path fill="none" stroke="midnightblue" d="M1194.7,-582.475C1191.02,-575.17 1185.54,-564.302 1180.58,-554.475"/>
<polygon fill="midnightblue" stroke="midnightblue" points="1183.7,-552.876 1176.07,-545.523 1177.45,-556.028 1183.7,-552.876"/>
</g>
</g>
</svg>
